<?xml version="1.0" encoding="UTF-8" standalone="no"?>
<!DOCTYPE svg PUBLIC "-//W3C//DTD SVG 1.1//EN"
 "http://www.w3.org/Graphics/SVG/1.1/DTD/svg11.dtd">
<!-- Generated by graphviz version 2.38.0 (20140413.2041)
 -->
<!-- Title: finite_automaton Pages: 1 -->
<svg width="576pt" height="31pt"
 viewBox="0.00 0.00 576.00 31.41" xmlns="http://www.w3.org/2000/svg" xmlns:xlink="http://www.w3.org/1999/xlink">
<g id="graph0" class="graph" transform="scale(0.198826 0.198826) rotate(0) translate(4 154)">
<title>finite_automaton</title>
<polygon fill="white" stroke="none" points="-4,4 -4,-154 2893,-154 2893,4 -4,4"/>
<!-- dom_edges -->
<g id="node1" class="node"><title>dom_edges</title>
<polygon fill="none" stroke="green" points="470,-84 0,-84 0,-48 470,-48 470,-84"/>
<text text-anchor="middle" x="235" y="-62.3" font-family="Times,serif" font-size="14.00">Dominating edges: inspect, __list_add, list_add, gl_insert, gl_read, Learn_Assert</text>
</g>
<!-- q1 -->
<g id="node2" class="node"><title>q1</title>
<ellipse fill="none" stroke="green" cx="2867" cy="-26" rx="18" ry="18"/>
<ellipse fill="none" stroke="green" cx="2867" cy="-26" rx="22" ry="22"/>
<text text-anchor="middle" x="2867" y="-22.3" font-family="Times,serif" font-size="14.00">D</text>
</g>
<!-- q0 -->
<g id="node3" class="node"><title>q0</title>
<ellipse fill="none" stroke="green" cx="525" cy="-120" rx="18" ry="18"/>
</g>
<!-- q12 -->
<g id="node14" class="node"><title>q12</title>
<ellipse fill="none" stroke="green" cx="639" cy="-120" rx="18" ry="18"/>
</g>
<!-- q0&#45;&gt;q12 -->
<g id="edge2" class="edge"><title>q0&#45;&gt;q12</title>
<path fill="none" stroke="green" d="M543.01,-120C560.937,-120 589.445,-120 610.558,-120"/>
<polygon fill="green" stroke="green" points="610.83,-123.5 620.83,-120 610.829,-116.5 610.83,-123.5"/>
<text text-anchor="middle" x="582" y="-123.8" font-family="Times,serif" font-size="14.00">gl_read</text>
</g>
<!-- q2 -->
<g id="node4" class="node"><title>q2</title>
<ellipse fill="none" stroke="black" cx="2715" cy="-74" rx="18" ry="18"/>
</g>
<!-- q2&#45;&gt;q1 -->
<g id="edge3" class="edge"><title>q2&#45;&gt;q1</title>
<path fill="none" stroke="green" d="M2732.34,-68.7718C2757.17,-60.8256 2804.81,-45.5804 2835.99,-35.6023"/>
<polygon fill="green" stroke="green" points="2837.42,-38.8198 2845.88,-32.4385 2835.29,-32.1528 2837.42,-38.8198"/>
<text text-anchor="middle" x="2789" y="-66.8" font-family="Times,serif" font-size="14.00">Learn_Assert</text>
</g>
<!-- q3 -->
<g id="node5" class="node"><title>q3</title>
<ellipse fill="none" stroke="black" cx="2603" cy="-74" rx="18" ry="18"/>
</g>
<!-- q3&#45;&gt;q2 -->
<g id="edge4" class="edge"><title>q3&#45;&gt;q2</title>
<path fill="none" stroke="green" d="M2621.19,-74C2638.79,-74 2666.39,-74 2686.93,-74"/>
<polygon fill="green" stroke="green" points="2686.93,-77.5001 2696.93,-74 2686.93,-70.5001 2686.93,-77.5001"/>
<text text-anchor="middle" x="2659" y="-77.8" font-family="Times,serif" font-size="14.00">inspect</text>
</g>
<!-- q4 -->
<g id="node6" class="node"><title>q4</title>
<ellipse fill="none" stroke="black" cx="2472" cy="-74" rx="18" ry="18"/>
</g>
<!-- q4&#45;&gt;q3 -->
<g id="edge5" class="edge"><title>q4&#45;&gt;q3</title>
<path fill="none" stroke="green" d="M2490.13,-74C2511.72,-74 2549.09,-74 2574.65,-74"/>
<polygon fill="green" stroke="green" points="2574.8,-77.5001 2584.8,-74 2574.8,-70.5001 2574.8,-77.5001"/>
<text text-anchor="middle" x="2537.5" y="-77.8" font-family="Times,serif" font-size="14.00">__list_add</text>
</g>
<!-- q5 -->
<g id="node7" class="node"><title>q5</title>
<ellipse fill="none" stroke="black" cx="2355" cy="-74" rx="18" ry="18"/>
</g>
<!-- q5&#45;&gt;q4 -->
<g id="edge6" class="edge"><title>q5&#45;&gt;q4</title>
<path fill="none" stroke="green" d="M2373.47,-74C2392.06,-74 2421.76,-74 2443.5,-74"/>
<polygon fill="green" stroke="green" points="2443.75,-77.5001 2453.75,-74 2443.75,-70.5001 2443.75,-77.5001"/>
<text text-anchor="middle" x="2413.5" y="-77.8" font-family="Times,serif" font-size="14.00">list_add</text>
</g>
<!-- q6 -->
<g id="node8" class="node"><title>q6</title>
<ellipse fill="none" stroke="black" cx="1377" cy="-89" rx="18" ry="18"/>
</g>
<!-- q6&#45;&gt;q5 -->
<g id="edge8" class="edge"><title>q6&#45;&gt;q5</title>
<path fill="none" stroke="green" d="M1395.12,-91.0187C1416.73,-93.3887 1455.07,-97 1488,-97 1488,-97 1488,-97 2208,-97 2257.72,-97 2270.16,-92.3214 2319,-83 2321.74,-82.4777 2324.58,-81.8658 2327.4,-81.2111"/>
<polygon fill="green" stroke="green" points="2328.5,-84.5446 2337.36,-78.7359 2326.81,-77.7513 2328.5,-84.5446"/>
<text text-anchor="middle" x="1822" y="-100.8" font-family="Times,serif" font-size="14.00">gl_insert</text>
</g>
<!-- q18 -->
<g id="node20" class="node"><title>q18</title>
<ellipse fill="none" stroke="black" cx="1489" cy="-51" rx="18" ry="18"/>
</g>
<!-- q6&#45;&gt;q18 -->
<g id="edge7" class="edge"><title>q6&#45;&gt;q18</title>
<path fill="none" stroke="green" d="M1392.11,-79.1327C1398.29,-75.1888 1405.77,-70.9033 1413,-68 1428.35,-61.8376 1446.42,-57.6578 1460.97,-54.9851"/>
<polygon fill="green" stroke="green" points="1461.59,-58.4304 1470.86,-53.2986 1460.41,-51.5301 1461.59,-58.4304"/>
<text text-anchor="middle" x="1433" y="-71.8" font-family="Times,serif" font-size="14.00">inspect</text>
</g>
<!-- q7 -->
<g id="node9" class="node"><title>q7</title>
<ellipse fill="none" stroke="black" cx="1246" cy="-89" rx="18" ry="18"/>
</g>
<!-- q7&#45;&gt;q6 -->
<g id="edge9" class="edge"><title>q7&#45;&gt;q6</title>
<path fill="none" stroke="green" d="M1264.13,-89C1285.72,-89 1323.09,-89 1348.65,-89"/>
<polygon fill="green" stroke="green" points="1348.8,-92.5001 1358.8,-89 1348.8,-85.5001 1348.8,-92.5001"/>
<text text-anchor="middle" x="1311.5" y="-92.8" font-family="Times,serif" font-size="14.00">__list_add</text>
</g>
<!-- q8 -->
<g id="node10" class="node"><title>q8</title>
<ellipse fill="none" stroke="black" cx="1129" cy="-89" rx="18" ry="18"/>
</g>
<!-- q8&#45;&gt;q7 -->
<g id="edge10" class="edge"><title>q8&#45;&gt;q7</title>
<path fill="none" stroke="green" d="M1147.47,-89C1166.06,-89 1195.76,-89 1217.5,-89"/>
<polygon fill="green" stroke="green" points="1217.75,-92.5001 1227.75,-89 1217.75,-85.5001 1217.75,-92.5001"/>
<text text-anchor="middle" x="1187.5" y="-92.8" font-family="Times,serif" font-size="14.00">list_add</text>
</g>
<!-- q9 -->
<g id="node11" class="node"><title>q9</title>
<ellipse fill="none" stroke="green" cx="1008" cy="-120" rx="18" ry="18"/>
</g>
<!-- q9&#45;&gt;q2 -->
<g id="edge11" class="edge"><title>q9&#45;&gt;q2</title>
<path fill="none" stroke="green" d="M1025.86,-123.479C1048.85,-127.91 1091.35,-135 1128,-135 1128,-135 1128,-135 2604,-135 2639.09,-135 2673.46,-110.971 2694.2,-93.076"/>
<polygon fill="green" stroke="green" points="2696.59,-95.6265 2701.7,-86.3443 2691.92,-90.4152 2696.59,-95.6265"/>
<text text-anchor="middle" x="1822" y="-138.8" font-family="Times,serif" font-size="14.00">inspect</text>
</g>
<!-- q9&#45;&gt;q8 -->
<g id="edge12" class="edge"><title>q9&#45;&gt;q8</title>
<path fill="none" stroke="green" d="M1024.81,-112.969C1030.75,-110.52 1037.6,-107.909 1044,-106 1062.71,-100.414 1084.32,-96.0872 1100.93,-93.1969"/>
<polygon fill="green" stroke="green" points="1101.76,-96.6069 1111.05,-91.5061 1100.61,-89.7027 1101.76,-96.6069"/>
<text text-anchor="middle" x="1068.5" y="-109.8" font-family="Times,serif" font-size="14.00">gl_insert</text>
</g>
<!-- q10 -->
<g id="node12" class="node"><title>q10</title>
<ellipse fill="none" stroke="green" cx="877" cy="-120" rx="18" ry="18"/>
</g>
<!-- q10&#45;&gt;q9 -->
<g id="edge13" class="edge"><title>q10&#45;&gt;q9</title>
<path fill="none" stroke="green" d="M895.13,-120C916.719,-120 954.088,-120 979.648,-120"/>
<polygon fill="green" stroke="green" points="979.799,-123.5 989.799,-120 979.799,-116.5 979.799,-123.5"/>
<text text-anchor="middle" x="942.5" y="-123.8" font-family="Times,serif" font-size="14.00">__list_add</text>
</g>
<!-- q11 -->
<g id="node13" class="node"><title>q11</title>
<ellipse fill="none" stroke="green" cx="760" cy="-120" rx="18" ry="18"/>
</g>
<!-- q11&#45;&gt;q10 -->
<g id="edge14" class="edge"><title>q11&#45;&gt;q10</title>
<path fill="none" stroke="green" d="M778.466,-120C797.064,-120 826.756,-120 848.499,-120"/>
<polygon fill="green" stroke="green" points="848.746,-123.5 858.746,-120 848.746,-116.5 848.746,-123.5"/>
<text text-anchor="middle" x="818.5" y="-123.8" font-family="Times,serif" font-size="14.00">list_add</text>
</g>
<!-- q12&#45;&gt;q11 -->
<g id="edge15" class="edge"><title>q12&#45;&gt;q11</title>
<path fill="none" stroke="green" d="M657.05,-120C676.579,-120 708.839,-120 731.838,-120"/>
<polygon fill="green" stroke="green" points="731.982,-123.5 741.982,-120 731.982,-116.5 731.982,-123.5"/>
<text text-anchor="middle" x="699.5" y="-123.8" font-family="Times,serif" font-size="14.00">gl_insert</text>
</g>
<!-- q13 -->
<g id="node15" class="node"><title>q13</title>
<ellipse fill="none" stroke="black" cx="2207" cy="-51" rx="18" ry="18"/>
</g>
<!-- q13&#45;&gt;q5 -->
<g id="edge16" class="edge"><title>q13&#45;&gt;q5</title>
<path fill="none" stroke="black" d="M2224.94,-53.4985C2246.72,-56.7332 2285.71,-62.5975 2319,-68 2321.56,-68.4148 2324.22,-68.8549 2326.88,-69.301"/>
<polygon fill="black" stroke="black" points="2326.48,-72.7831 2336.92,-71.0094 2327.65,-65.8822 2326.48,-72.7831"/>
<text text-anchor="middle" x="2291" y="-71.8" font-family="Times,serif" font-size="14.00">__list_del</text>
</g>
<!-- q14 -->
<g id="node16" class="node"><title>q14</title>
<ellipse fill="none" stroke="black" cx="2059" cy="-51" rx="18" ry="18"/>
</g>
<!-- q14&#45;&gt;q13 -->
<g id="edge17" class="edge"><title>q14&#45;&gt;q13</title>
<path fill="none" stroke="black" d="M2077.03,-51C2101.96,-51 2148.63,-51 2178.46,-51"/>
<polygon fill="black" stroke="black" points="2178.62,-54.5001 2188.62,-51 2178.62,-47.5001 2178.62,-54.5001"/>
<text text-anchor="middle" x="2123" y="-54.8" font-family="Times,serif" font-size="14.00">list_move</text>
</g>
<!-- q15 -->
<g id="node17" class="node"><title>q15</title>
<ellipse fill="none" stroke="black" cx="1901" cy="-51" rx="18" ry="18"/>
</g>
<!-- q15&#45;&gt;q14 -->
<g id="edge18" class="edge"><title>q15&#45;&gt;q14</title>
<path fill="none" stroke="black" d="M1919.29,-51C1946.23,-51 1998.46,-51 2030.58,-51"/>
<polygon fill="black" stroke="black" points="2030.63,-54.5001 2040.63,-51 2030.63,-47.5001 2030.63,-54.5001"/>
<text text-anchor="middle" x="1980" y="-54.8" font-family="Times,serif" font-size="14.00">val_from_node</text>
</g>
<!-- q16 -->
<g id="node18" class="node"><title>q16</title>
<ellipse fill="none" stroke="black" cx="1743" cy="-51" rx="18" ry="18"/>
</g>
<!-- q16&#45;&gt;q15 -->
<g id="edge19" class="edge"><title>q16&#45;&gt;q15</title>
<path fill="none" stroke="black" d="M1761.29,-51C1788.23,-51 1840.46,-51 1872.58,-51"/>
<polygon fill="black" stroke="black" points="1872.63,-54.5001 1882.63,-51 1872.63,-47.5001 1872.63,-54.5001"/>
<text text-anchor="middle" x="1822" y="-54.8" font-family="Times,serif" font-size="14.00">val_from_node</text>
</g>
<!-- q17 -->
<g id="node19" class="node"><title>q17</title>
<ellipse fill="none" stroke="black" cx="1600" cy="-51" rx="18" ry="18"/>
</g>
<!-- q17&#45;&gt;q16 -->
<g id="edge20" class="edge"><title>q17&#45;&gt;q16</title>
<path fill="none" stroke="black" d="M1618.01,-51C1642.04,-51 1686.19,-51 1714.8,-51"/>
<polygon fill="black" stroke="black" points="1714.93,-54.5001 1724.93,-51 1714.93,-47.5001 1714.93,-54.5001"/>
<text text-anchor="middle" x="1671.5" y="-54.8" font-family="Times,serif" font-size="14.00">gl_sort_pass</text>
</g>
<!-- q18&#45;&gt;q1 -->
<g id="edge22" class="edge"><title>q18&#45;&gt;q1</title>
<path fill="none" stroke="green" d="M1503.5,-39.9338C1523.21,-24.9342 1561.6,-0 1599,-0 1599,-0 1599,-0 2716,-0 2757.85,-0 2805.31,-9.9456 2835.43,-17.5344"/>
<polygon fill="green" stroke="green" points="2834.77,-20.9779 2845.33,-20.1002 2836.53,-14.2021 2834.77,-20.9779"/>
<text text-anchor="middle" x="2207" y="-3.8" font-family="Times,serif" font-size="14.00">Learn_Assert</text>
</g>
<!-- q18&#45;&gt;q17 -->
<g id="edge21" class="edge"><title>q18&#45;&gt;q17</title>
<path fill="none" stroke="black" d="M1507.03,-51C1524.29,-51 1551.26,-51 1571.54,-51"/>
<polygon fill="black" stroke="black" points="1571.73,-54.5001 1581.73,-51 1571.73,-47.5001 1571.73,-54.5001"/>
<text text-anchor="middle" x="1544.5" y="-54.8" font-family="Times,serif" font-size="14.00">gl_sort</text>
</g>
<!-- iq0 -->
<g id="node21" class="node"><title>iq0</title>
</g>
<!-- iq0&#45;&gt;q0 -->
<g id="edge1" class="edge"><title>iq0&#45;&gt;q0</title>
<path fill="none" stroke="blue" d="M262.066,-120C316.457,-120 441.567,-120 496.868,-120"/>
<polygon fill="blue" stroke="blue" points="496.956,-123.5 506.956,-120 496.956,-116.5 496.956,-123.5"/>
</g>
</g>
</svg>
