<?xml version="1.0" encoding="UTF-8" standalone="no"?>
<!DOCTYPE svg PUBLIC "-//W3C//DTD SVG 1.1//EN"
 "http://www.w3.org/Graphics/SVG/1.1/DTD/svg11.dtd">
<!-- Generated by graphviz version 2.38.0 (20140413.2041)
 -->
<!-- Title: finite_automaton Pages: 1 -->
<svg width="576pt" height="36pt"
 viewBox="0.00 0.00 576.00 35.76" xmlns="http://www.w3.org/2000/svg" xmlns:xlink="http://www.w3.org/1999/xlink">
<g id="graph0" class="graph" transform="scale(0.343881 0.343881) rotate(0) translate(4 100)">
<title>finite_automaton</title>
<polygon fill="white" stroke="none" points="-4,4 -4,-100 1671,-100 1671,4 -4,4"/>
<!-- dom_edges -->
<g id="node1" class="node"><title>dom_edges</title>
<polygon fill="none" stroke="green" points="470,-36 0,-36 0,-0 470,-0 470,-36"/>
<text text-anchor="middle" x="235" y="-14.3" font-family="Times,serif" font-size="14.00">Dominating edges: inspect, __list_add, list_add, gl_insert, gl_read, Learn_Assert</text>
</g>
<!-- q1 -->
<g id="node2" class="node"><title>q1</title>
<ellipse fill="none" stroke="green" cx="1645" cy="-61" rx="18" ry="18"/>
<ellipse fill="none" stroke="green" cx="1645" cy="-61" rx="22" ry="22"/>
<text text-anchor="middle" x="1645" y="-57.3" font-family="Times,serif" font-size="14.00">D</text>
</g>
<!-- q0 -->
<g id="node3" class="node"><title>q0</title>
<ellipse fill="none" stroke="green" cx="525" cy="-72" rx="18" ry="18"/>
</g>
<!-- q9 -->
<g id="node11" class="node"><title>q9</title>
<ellipse fill="none" stroke="green" cx="639" cy="-72" rx="18" ry="18"/>
</g>
<!-- q0&#45;&gt;q9 -->
<g id="edge2" class="edge"><title>q0&#45;&gt;q9</title>
<path fill="none" stroke="green" d="M543.01,-72C560.937,-72 589.445,-72 610.558,-72"/>
<polygon fill="green" stroke="green" points="610.83,-75.5001 620.83,-72 610.829,-68.5001 610.83,-75.5001"/>
<text text-anchor="middle" x="582" y="-75.8" font-family="Times,serif" font-size="14.00">gl_read</text>
</g>
<!-- q2 -->
<g id="node4" class="node"><title>q2</title>
<ellipse fill="none" stroke="green" cx="1493" cy="-61" rx="18" ry="18"/>
</g>
<!-- q2&#45;&gt;q1 -->
<g id="edge3" class="edge"><title>q2&#45;&gt;q1</title>
<path fill="none" stroke="green" d="M1511.21,-61C1535.92,-61 1581.87,-61 1612.7,-61"/>
<polygon fill="green" stroke="green" points="1612.91,-64.5001 1622.91,-61 1612.91,-57.5001 1612.91,-64.5001"/>
<text text-anchor="middle" x="1567" y="-64.8" font-family="Times,serif" font-size="14.00">Learn_Assert</text>
</g>
<!-- q3 -->
<g id="node5" class="node"><title>q3</title>
<ellipse fill="none" stroke="black" cx="1381" cy="-33" rx="18" ry="18"/>
</g>
<!-- q3&#45;&gt;q2 -->
<g id="edge4" class="edge"><title>q3&#45;&gt;q2</title>
<path fill="none" stroke="green" d="M1398.69,-37.2089C1413.89,-41.0477 1436.96,-46.8843 1457,-52 1459.7,-52.689 1462.52,-53.4098 1465.33,-54.1306"/>
<polygon fill="green" stroke="green" points="1464.71,-57.5863 1475.27,-56.6846 1466.45,-50.8064 1464.71,-57.5863"/>
<text text-anchor="middle" x="1437" y="-55.8" font-family="Times,serif" font-size="14.00">inspect</text>
</g>
<!-- q4 -->
<g id="node6" class="node"><title>q4</title>
<ellipse fill="none" stroke="black" cx="1248" cy="-27" rx="18" ry="18"/>
</g>
<!-- q4&#45;&gt;q3 -->
<g id="edge5" class="edge"><title>q4&#45;&gt;q3</title>
<path fill="none" stroke="green" d="M1266.13,-27.7844C1288.09,-28.7906 1326.46,-30.548 1352.53,-31.742"/>
<polygon fill="green" stroke="green" points="1352.72,-35.2541 1362.87,-32.2154 1353.04,-28.2614 1352.72,-35.2541"/>
<text text-anchor="middle" x="1315.5" y="-34.8" font-family="Times,serif" font-size="14.00">__list_add</text>
</g>
<!-- q5 -->
<g id="node7" class="node"><title>q5</title>
<ellipse fill="none" stroke="black" cx="1129" cy="-33" rx="18" ry="18"/>
</g>
<!-- q5&#45;&gt;q4 -->
<g id="edge6" class="edge"><title>q5&#45;&gt;q4</title>
<path fill="none" stroke="green" d="M1147.01,-32.1275C1166.08,-31.15 1197.25,-29.5514 1219.72,-28.3988"/>
<polygon fill="green" stroke="green" points="1220.16,-31.8812 1229.97,-27.8735 1219.8,-24.8903 1220.16,-31.8812"/>
<text text-anchor="middle" x="1187.5" y="-34.8" font-family="Times,serif" font-size="14.00">list_add</text>
</g>
<!-- q6 -->
<g id="node8" class="node"><title>q6</title>
<ellipse fill="none" stroke="green" cx="1008" cy="-72" rx="18" ry="18"/>
</g>
<!-- q6&#45;&gt;q2 -->
<g id="edge7" class="edge"><title>q6&#45;&gt;q2</title>
<path fill="none" stroke="green" d="M1025.92,-74.0874C1048.96,-76.7461 1091.54,-81 1128,-81 1128,-81 1128,-81 1382,-81 1410.99,-81 1443.59,-74.1931 1465.73,-68.5215"/>
<polygon fill="green" stroke="green" points="1466.64,-71.901 1475.4,-65.9438 1464.83,-65.137 1466.64,-71.901"/>
<text text-anchor="middle" x="1248" y="-84.8" font-family="Times,serif" font-size="14.00">inspect</text>
</g>
<!-- q6&#45;&gt;q5 -->
<g id="edge8" class="edge"><title>q6&#45;&gt;q5</title>
<path fill="none" stroke="green" d="M1023.5,-62.4215C1029.63,-58.7263 1036.96,-54.7388 1044,-52 1062.29,-44.889 1083.91,-40.0753 1100.63,-37.0724"/>
<polygon fill="green" stroke="green" points="1101.55,-40.467 1110.83,-35.3546 1100.39,-33.5642 1101.55,-40.467"/>
<text text-anchor="middle" x="1068.5" y="-55.8" font-family="Times,serif" font-size="14.00">gl_insert</text>
</g>
<!-- q7 -->
<g id="node9" class="node"><title>q7</title>
<ellipse fill="none" stroke="green" cx="877" cy="-72" rx="18" ry="18"/>
</g>
<!-- q7&#45;&gt;q6 -->
<g id="edge9" class="edge"><title>q7&#45;&gt;q6</title>
<path fill="none" stroke="green" d="M895.13,-72C916.719,-72 954.088,-72 979.648,-72"/>
<polygon fill="green" stroke="green" points="979.799,-75.5001 989.799,-72 979.799,-68.5001 979.799,-75.5001"/>
<text text-anchor="middle" x="942.5" y="-75.8" font-family="Times,serif" font-size="14.00">__list_add</text>
</g>
<!-- q8 -->
<g id="node10" class="node"><title>q8</title>
<ellipse fill="none" stroke="green" cx="760" cy="-72" rx="18" ry="18"/>
</g>
<!-- q8&#45;&gt;q7 -->
<g id="edge10" class="edge"><title>q8&#45;&gt;q7</title>
<path fill="none" stroke="green" d="M778.466,-72C797.064,-72 826.756,-72 848.499,-72"/>
<polygon fill="green" stroke="green" points="848.746,-75.5001 858.746,-72 848.746,-68.5001 848.746,-75.5001"/>
<text text-anchor="middle" x="818.5" y="-75.8" font-family="Times,serif" font-size="14.00">list_add</text>
</g>
<!-- q9&#45;&gt;q8 -->
<g id="edge11" class="edge"><title>q9&#45;&gt;q8</title>
<path fill="none" stroke="green" d="M657.05,-72C676.579,-72 708.839,-72 731.838,-72"/>
<polygon fill="green" stroke="green" points="731.982,-75.5001 741.982,-72 731.982,-68.5001 731.982,-75.5001"/>
<text text-anchor="middle" x="699.5" y="-75.8" font-family="Times,serif" font-size="14.00">gl_insert</text>
</g>
<!-- iq0 -->
<g id="node12" class="node"><title>iq0</title>
</g>
<!-- iq0&#45;&gt;q0 -->
<g id="edge1" class="edge"><title>iq0&#45;&gt;q0</title>
<path fill="none" stroke="blue" d="M262.066,-72C316.457,-72 441.567,-72 496.868,-72"/>
<polygon fill="blue" stroke="blue" points="496.956,-75.5001 506.956,-72 496.956,-68.5001 496.956,-75.5001"/>
</g>
</g>
</svg>
