<?xml version="1.0" encoding="UTF-8" standalone="no"?>
<!DOCTYPE svg PUBLIC "-//W3C//DTD SVG 1.1//EN"
 "http://www.w3.org/Graphics/SVG/1.1/DTD/svg11.dtd">
<!-- Generated by graphviz version 2.38.0 (20140413.2041)
 -->
<!-- Title: finite_automaton Pages: 1 -->
<svg width="576pt" height="29pt"
 viewBox="0.00 0.00 576.00 28.84" xmlns="http://www.w3.org/2000/svg" xmlns:xlink="http://www.w3.org/1999/xlink">
<g id="graph0" class="graph" transform="scale(0.171684 0.171684) rotate(0) translate(4 164)">
<title>finite_automaton</title>
<polygon fill="white" stroke="none" points="-4,4 -4,-164 3351,-164 3351,4 -4,4"/>
<!-- dom_edges -->
<g id="node1" class="node"><title>dom_edges</title>
<polygon fill="none" stroke="green" points="470,-92 0,-92 0,-56 470,-56 470,-92"/>
<text text-anchor="middle" x="235" y="-70.3" font-family="Times,serif" font-size="14.00">Dominating edges: inspect, __list_add, list_add, gl_insert, gl_read, Learn_Assert</text>
</g>
<!-- q1 -->
<g id="node2" class="node"><title>q1</title>
<ellipse fill="none" stroke="green" cx="3325" cy="-22" rx="18" ry="18"/>
<ellipse fill="none" stroke="green" cx="3325" cy="-22" rx="22" ry="22"/>
<text text-anchor="middle" x="3325" y="-18.3" font-family="Times,serif" font-size="14.00">D</text>
</g>
<!-- q0 -->
<g id="node3" class="node"><title>q0</title>
<ellipse fill="none" stroke="green" cx="525" cy="-128" rx="18" ry="18"/>
</g>
<!-- q6 -->
<g id="node8" class="node"><title>q6</title>
<ellipse fill="none" stroke="green" cx="639" cy="-128" rx="18" ry="18"/>
</g>
<!-- q0&#45;&gt;q6 -->
<g id="edge2" class="edge"><title>q0&#45;&gt;q6</title>
<path fill="none" stroke="green" d="M543.01,-128C560.937,-128 589.445,-128 610.558,-128"/>
<polygon fill="green" stroke="green" points="610.83,-131.5 620.83,-128 610.829,-124.5 610.83,-131.5"/>
<text text-anchor="middle" x="582" y="-131.8" font-family="Times,serif" font-size="14.00">gl_read</text>
</g>
<!-- q2 -->
<g id="node4" class="node"><title>q2</title>
<ellipse fill="none" stroke="black" cx="3173" cy="-52" rx="18" ry="18"/>
</g>
<!-- q2&#45;&gt;q1 -->
<g id="edge3" class="edge"><title>q2&#45;&gt;q1</title>
<path fill="none" stroke="green" d="M3190.92,-48.6169C3215.7,-43.6607 3262.28,-34.3445 3293.23,-28.1547"/>
<polygon fill="green" stroke="green" points="3293.95,-31.5794 3303.07,-26.1862 3292.58,-24.7154 3293.95,-31.5794"/>
<text text-anchor="middle" x="3247" y="-48.8" font-family="Times,serif" font-size="14.00">Learn_Assert</text>
</g>
<!-- q3 -->
<g id="node5" class="node"><title>q3</title>
<ellipse fill="none" stroke="green" cx="1008" cy="-128" rx="18" ry="18"/>
</g>
<!-- q3&#45;&gt;q2 -->
<g id="edge4" class="edge"><title>q3&#45;&gt;q2</title>
<path fill="none" stroke="green" d="M1025.84,-131.943C1048.8,-136.965 1091.27,-145 1128,-145 1128,-145 1128,-145 3062,-145 3104.69,-145 3139.36,-103.649 3157.72,-76.0935"/>
<polygon fill="green" stroke="green" points="3160.87,-77.6667 3163.31,-67.3571 3154.97,-73.8937 3160.87,-77.6667"/>
<text text-anchor="middle" x="2061" y="-148.8" font-family="Times,serif" font-size="14.00">inspect</text>
</g>
<!-- q18 -->
<g id="node20" class="node"><title>q18</title>
<ellipse fill="none" stroke="black" cx="1129" cy="-97" rx="18" ry="18"/>
</g>
<!-- q3&#45;&gt;q18 -->
<g id="edge5" class="edge"><title>q3&#45;&gt;q18</title>
<path fill="none" stroke="green" d="M1025.27,-122.015C1031.13,-119.967 1037.82,-117.753 1044,-116 1062.88,-110.645 1084.48,-105.787 1101.05,-102.324"/>
<polygon fill="green" stroke="green" points="1102.04,-105.694 1111.13,-100.258 1100.63,-98.8363 1102.04,-105.694"/>
<text text-anchor="middle" x="1068.5" y="-119.8" font-family="Times,serif" font-size="14.00">gl_insert</text>
</g>
<!-- q4 -->
<g id="node6" class="node"><title>q4</title>
<ellipse fill="none" stroke="green" cx="877" cy="-128" rx="18" ry="18"/>
</g>
<!-- q4&#45;&gt;q3 -->
<g id="edge6" class="edge"><title>q4&#45;&gt;q3</title>
<path fill="none" stroke="green" d="M895.13,-128C916.719,-128 954.088,-128 979.648,-128"/>
<polygon fill="green" stroke="green" points="979.799,-131.5 989.799,-128 979.799,-124.5 979.799,-131.5"/>
<text text-anchor="middle" x="942.5" y="-131.8" font-family="Times,serif" font-size="14.00">__list_add</text>
</g>
<!-- q5 -->
<g id="node7" class="node"><title>q5</title>
<ellipse fill="none" stroke="green" cx="760" cy="-128" rx="18" ry="18"/>
</g>
<!-- q5&#45;&gt;q4 -->
<g id="edge7" class="edge"><title>q5&#45;&gt;q4</title>
<path fill="none" stroke="green" d="M778.466,-128C797.064,-128 826.756,-128 848.499,-128"/>
<polygon fill="green" stroke="green" points="848.746,-131.5 858.746,-128 848.746,-124.5 848.746,-131.5"/>
<text text-anchor="middle" x="818.5" y="-131.8" font-family="Times,serif" font-size="14.00">list_add</text>
</g>
<!-- q6&#45;&gt;q5 -->
<g id="edge8" class="edge"><title>q6&#45;&gt;q5</title>
<path fill="none" stroke="green" d="M657.05,-128C676.579,-128 708.839,-128 731.838,-128"/>
<polygon fill="green" stroke="green" points="731.982,-131.5 741.982,-128 731.982,-124.5 731.982,-131.5"/>
<text text-anchor="middle" x="699.5" y="-131.8" font-family="Times,serif" font-size="14.00">gl_insert</text>
</g>
<!-- q7 -->
<g id="node9" class="node"><title>q7</title>
<ellipse fill="none" stroke="black" cx="2598" cy="-97" rx="18" ry="18"/>
</g>
<!-- q7&#45;&gt;q2 -->
<g id="edge9" class="edge"><title>q7&#45;&gt;q2</title>
<path fill="none" stroke="green" d="M2616.36,-98.0118C2642.96,-99.4728 2695.42,-102 2740,-102 2740,-102 2740,-102 3062,-102 3094.86,-102 3128.68,-83.284 3150,-68.7536"/>
<polygon fill="green" stroke="green" points="3152.19,-71.4882 3158.32,-62.8493 3148.14,-65.7778 3152.19,-71.4882"/>
<text text-anchor="middle" x="2901" y="-105.8" font-family="Times,serif" font-size="14.00">inspect</text>
</g>
<!-- q22 -->
<g id="node23" class="node"><title>q22</title>
<ellipse fill="none" stroke="black" cx="2741" cy="-54" rx="18" ry="18"/>
</g>
<!-- q7&#45;&gt;q22 -->
<g id="edge10" class="edge"><title>q7&#45;&gt;q22</title>
<path fill="none" stroke="black" d="M2612.52,-85.734C2618.71,-81.1165 2626.37,-76.1313 2634,-73 2659.45,-62.5611 2690.66,-57.8453 2712.61,-55.7222"/>
<polygon fill="black" stroke="black" points="2713.19,-59.1852 2722.86,-54.8531 2712.6,-52.2102 2713.19,-59.1852"/>
<text text-anchor="middle" x="2669.5" y="-76.8" font-family="Times,serif" font-size="14.00">gl_sort_pass</text>
</g>
<!-- q8 -->
<g id="node10" class="node"><title>q8</title>
<ellipse fill="none" stroke="black" cx="2467" cy="-97" rx="18" ry="18"/>
</g>
<!-- q8&#45;&gt;q7 -->
<g id="edge11" class="edge"><title>q8&#45;&gt;q7</title>
<path fill="none" stroke="green" d="M2485.13,-97C2506.72,-97 2544.09,-97 2569.65,-97"/>
<polygon fill="green" stroke="green" points="2569.8,-100.5 2579.8,-97 2569.8,-93.5001 2569.8,-100.5"/>
<text text-anchor="middle" x="2532.5" y="-100.8" font-family="Times,serif" font-size="14.00">__list_add</text>
</g>
<!-- q9 -->
<g id="node11" class="node"><title>q9</title>
<ellipse fill="none" stroke="black" cx="2319" cy="-97" rx="18" ry="18"/>
</g>
<!-- q9&#45;&gt;q8 -->
<g id="edge12" class="edge"><title>q9&#45;&gt;q8</title>
<path fill="none" stroke="green" d="M2337.03,-97C2361.96,-97 2408.63,-97 2438.46,-97"/>
<polygon fill="green" stroke="green" points="2438.62,-100.5 2448.62,-97 2438.62,-93.5001 2438.62,-100.5"/>
<text text-anchor="middle" x="2393" y="-100.8" font-family="Times,serif" font-size="14.00">list_add</text>
</g>
<!-- q10 -->
<g id="node12" class="node"><title>q10</title>
<ellipse fill="none" stroke="black" cx="2191" cy="-51" rx="18" ry="18"/>
</g>
<!-- q10&#45;&gt;q9 -->
<g id="edge13" class="edge"><title>q10&#45;&gt;q9</title>
<path fill="none" stroke="black" d="M2209.22,-51.6508C2228.13,-52.9365 2258.99,-56.7454 2283,-68 2288.27,-70.4699 2293.41,-73.9236 2298.05,-77.5891"/>
<polygon fill="black" stroke="black" points="2295.94,-80.3865 2305.8,-84.2493 2300.5,-75.0774 2295.94,-80.3865"/>
<text text-anchor="middle" x="2255" y="-71.8" font-family="Times,serif" font-size="14.00">__list_del</text>
</g>
<!-- q11 -->
<g id="node13" class="node"><title>q11</title>
<ellipse fill="none" stroke="black" cx="2061" cy="-51" rx="18" ry="18"/>
</g>
<!-- q11&#45;&gt;q10 -->
<g id="edge14" class="edge"><title>q11&#45;&gt;q10</title>
<path fill="none" stroke="black" d="M2079.26,-51C2100.64,-51 2137.31,-51 2162.56,-51"/>
<polygon fill="black" stroke="black" points="2162.6,-54.5001 2172.6,-51 2162.6,-47.5001 2162.6,-54.5001"/>
<text text-anchor="middle" x="2127" y="-54.8" font-family="Times,serif" font-size="14.00">list_move</text>
</g>
<!-- q12 -->
<g id="node14" class="node"><title>q12</title>
<ellipse fill="none" stroke="black" cx="1901" cy="-51" rx="18" ry="18"/>
</g>
<!-- q12&#45;&gt;q11 -->
<g id="edge15" class="edge"><title>q12&#45;&gt;q11</title>
<path fill="none" stroke="black" d="M1919.21,-51C1946.52,-51 2000.01,-51 2032.62,-51"/>
<polygon fill="black" stroke="black" points="2032.81,-54.5001 2042.81,-51 2032.81,-47.5001 2032.81,-54.5001"/>
<text text-anchor="middle" x="1980" y="-54.8" font-family="Times,serif" font-size="14.00">val_from_node</text>
</g>
<!-- q13 -->
<g id="node15" class="node"><title>q13</title>
<ellipse fill="none" stroke="black" cx="1743" cy="-51" rx="18" ry="18"/>
</g>
<!-- q13&#45;&gt;q12 -->
<g id="edge16" class="edge"><title>q13&#45;&gt;q12</title>
<path fill="none" stroke="black" d="M1761.29,-51C1788.23,-51 1840.46,-51 1872.58,-51"/>
<polygon fill="black" stroke="black" points="1872.63,-54.5001 1882.63,-51 1872.63,-47.5001 1872.63,-54.5001"/>
<text text-anchor="middle" x="1822" y="-54.8" font-family="Times,serif" font-size="14.00">val_from_node</text>
</g>
<!-- q14 -->
<g id="node16" class="node"><title>q14</title>
<ellipse fill="none" stroke="black" cx="1600" cy="-51" rx="18" ry="18"/>
</g>
<!-- q14&#45;&gt;q13 -->
<g id="edge17" class="edge"><title>q14&#45;&gt;q13</title>
<path fill="none" stroke="black" d="M1618.01,-51C1642.04,-51 1686.19,-51 1714.8,-51"/>
<polygon fill="black" stroke="black" points="1714.93,-54.5001 1724.93,-51 1714.93,-47.5001 1714.93,-54.5001"/>
<text text-anchor="middle" x="1671.5" y="-54.8" font-family="Times,serif" font-size="14.00">gl_sort_pass</text>
</g>
<!-- q15 -->
<g id="node17" class="node"><title>q15</title>
<ellipse fill="none" stroke="black" cx="1489" cy="-51" rx="18" ry="18"/>
</g>
<!-- q15&#45;&gt;q1 -->
<g id="edge19" class="edge"><title>q15&#45;&gt;q1</title>
<path fill="none" stroke="green" d="M1503.57,-40.3677C1523.37,-25.9564 1561.86,-2 1599,-2 1599,-2 1599,-2 3174,-2 3215.6,-2 3263.12,-9.65046 3293.32,-15.488"/>
<polygon fill="green" stroke="green" points="3292.76,-18.9437 3303.25,-17.4617 3294.12,-12.0782 3292.76,-18.9437"/>
<text text-anchor="middle" x="2393" y="-5.8" font-family="Times,serif" font-size="14.00">Learn_Assert</text>
</g>
<!-- q15&#45;&gt;q14 -->
<g id="edge18" class="edge"><title>q15&#45;&gt;q14</title>
<path fill="none" stroke="black" d="M1507.03,-51C1524.29,-51 1551.26,-51 1571.54,-51"/>
<polygon fill="black" stroke="black" points="1571.73,-54.5001 1581.73,-51 1571.73,-47.5001 1571.73,-54.5001"/>
<text text-anchor="middle" x="1544.5" y="-54.8" font-family="Times,serif" font-size="14.00">gl_sort</text>
</g>
<!-- q16 -->
<g id="node18" class="node"><title>q16</title>
<ellipse fill="none" stroke="black" cx="1377" cy="-97" rx="18" ry="18"/>
</g>
<!-- q16&#45;&gt;q9 -->
<g id="edge21" class="edge"><title>q16&#45;&gt;q9</title>
<path fill="none" stroke="green" d="M1395.15,-97C1416.79,-97 1455.15,-97 1488,-97 1488,-97 1488,-97 2192,-97 2226.07,-97 2265.32,-97 2290.84,-97"/>
<polygon fill="green" stroke="green" points="2290.88,-100.5 2300.88,-97 2290.88,-93.5001 2290.88,-100.5"/>
<text text-anchor="middle" x="1822" y="-100.8" font-family="Times,serif" font-size="14.00">gl_insert</text>
</g>
<!-- q16&#45;&gt;q15 -->
<g id="edge20" class="edge"><title>q16&#45;&gt;q15</title>
<path fill="none" stroke="green" d="M1390.26,-84.3892C1396.56,-78.595 1404.65,-72.1123 1413,-68 1427.94,-60.6459 1446.13,-56.4224 1460.85,-54.0247"/>
<polygon fill="green" stroke="green" points="1461.46,-57.4726 1470.86,-52.5828 1460.46,-50.5441 1461.46,-57.4726"/>
<text text-anchor="middle" x="1433" y="-71.8" font-family="Times,serif" font-size="14.00">inspect</text>
</g>
<!-- q17 -->
<g id="node19" class="node"><title>q17</title>
<ellipse fill="none" stroke="black" cx="1246" cy="-97" rx="18" ry="18"/>
</g>
<!-- q17&#45;&gt;q16 -->
<g id="edge22" class="edge"><title>q17&#45;&gt;q16</title>
<path fill="none" stroke="green" d="M1264.13,-97C1285.72,-97 1323.09,-97 1348.65,-97"/>
<polygon fill="green" stroke="green" points="1348.8,-100.5 1358.8,-97 1348.8,-93.5001 1348.8,-100.5"/>
<text text-anchor="middle" x="1311.5" y="-100.8" font-family="Times,serif" font-size="14.00">__list_add</text>
</g>
<!-- q18&#45;&gt;q17 -->
<g id="edge23" class="edge"><title>q18&#45;&gt;q17</title>
<path fill="none" stroke="green" d="M1147.47,-97C1166.06,-97 1195.76,-97 1217.5,-97"/>
<polygon fill="green" stroke="green" points="1217.75,-100.5 1227.75,-97 1217.75,-93.5001 1217.75,-100.5"/>
<text text-anchor="middle" x="1187.5" y="-100.8" font-family="Times,serif" font-size="14.00">list_add</text>
</g>
<!-- q20 -->
<g id="node21" class="node"><title>q20</title>
<ellipse fill="none" stroke="black" cx="3061" cy="-52" rx="18" ry="18"/>
</g>
<!-- q20&#45;&gt;q2 -->
<g id="edge24" class="edge"><title>q20&#45;&gt;q2</title>
<path fill="none" stroke="green" d="M3079.19,-52C3096.79,-52 3124.39,-52 3144.93,-52"/>
<polygon fill="green" stroke="green" points="3144.93,-55.5001 3154.93,-52 3144.93,-48.5001 3144.93,-55.5001"/>
<text text-anchor="middle" x="3117" y="-55.8" font-family="Times,serif" font-size="14.00">inspect</text>
</g>
<!-- q21 -->
<g id="node22" class="node"><title>q21</title>
<ellipse fill="none" stroke="black" cx="2901" cy="-48" rx="18" ry="18"/>
</g>
<!-- q21&#45;&gt;q20 -->
<g id="edge25" class="edge"><title>q21&#45;&gt;q20</title>
<path fill="none" stroke="black" d="M2919.21,-48.4357C2946.52,-49.127 3000.01,-50.4812 3032.62,-51.3068"/>
<polygon fill="black" stroke="black" points="3032.73,-54.8106 3042.81,-51.5649 3032.9,-47.8128 3032.73,-54.8106"/>
<text text-anchor="middle" x="2982" y="-55.8" font-family="Times,serif" font-size="14.00">val_from_node</text>
</g>
<!-- q22&#45;&gt;q21 -->
<g id="edge26" class="edge"><title>q22&#45;&gt;q21</title>
<path fill="none" stroke="black" d="M2759.21,-53.3465C2786.52,-52.3095 2840.01,-50.2783 2872.62,-49.0398"/>
<polygon fill="black" stroke="black" points="2872.95,-52.5298 2882.81,-48.6527 2872.69,-45.5348 2872.95,-52.5298"/>
<text text-anchor="middle" x="2820" y="-56.8" font-family="Times,serif" font-size="14.00">val_from_node</text>
</g>
<!-- iq0 -->
<g id="node24" class="node"><title>iq0</title>
</g>
<!-- iq0&#45;&gt;q0 -->
<g id="edge1" class="edge"><title>iq0&#45;&gt;q0</title>
<path fill="none" stroke="blue" d="M262.066,-128C316.457,-128 441.567,-128 496.868,-128"/>
<polygon fill="blue" stroke="blue" points="496.956,-131.5 506.956,-128 496.956,-124.5 496.956,-131.5"/>
</g>
</g>
</svg>
