<?xml version="1.0" encoding="UTF-8" standalone="no"?>
<!DOCTYPE svg PUBLIC "-//W3C//DTD SVG 1.1//EN"
 "http://www.w3.org/Graphics/SVG/1.1/DTD/svg11.dtd">
<!-- Generated by graphviz version 2.38.0 (20140413.2041)
 -->
<!-- Title: finite_automaton Pages: 1 -->
<svg width="576pt" height="31pt"
 viewBox="0.00 0.00 576.00 31.24" xmlns="http://www.w3.org/2000/svg" xmlns:xlink="http://www.w3.org/1999/xlink">
<g id="graph0" class="graph" transform="scale(0.169761 0.169761) rotate(0) translate(4 180)">
<title>finite_automaton</title>
<polygon fill="white" stroke="none" points="-4,4 -4,-180 3389,-180 3389,4 -4,4"/>
<!-- dom_edges -->
<g id="node1" class="node"><title>dom_edges</title>
<polygon fill="none" stroke="green" points="784,-110 0,-110 0,-74 784,-74 784,-110"/>
<text text-anchor="middle" x="392" y="-88.3" font-family="Times,serif" font-size="14.00">Dominating edges: chain_node, create_sll, init_back_link, reverse_dll, remove_fw_link, check_seq_next, check_seq_prev, Learn_Assert</text>
</g>
<!-- q1 -->
<g id="node2" class="node"><title>q1</title>
<ellipse fill="none" stroke="green" cx="3363" cy="-93" rx="18" ry="18"/>
<ellipse fill="none" stroke="green" cx="3363" cy="-93" rx="22" ry="22"/>
<text text-anchor="middle" x="3363" y="-89.3" font-family="Times,serif" font-size="14.00">D</text>
</g>
<!-- q0 -->
<g id="node3" class="node"><title>q0</title>
<ellipse fill="none" stroke="green" cx="839" cy="-146" rx="18" ry="18"/>
</g>
<!-- q16 -->
<g id="node18" class="node"><title>q16</title>
<ellipse fill="none" stroke="green" cx="965" cy="-146" rx="18" ry="18"/>
</g>
<!-- q0&#45;&gt;q16 -->
<g id="edge2" class="edge"><title>q0&#45;&gt;q16</title>
<path fill="none" stroke="green" d="M857.242,-146C877.786,-146 912.369,-146 936.592,-146"/>
<polygon fill="green" stroke="green" points="936.905,-149.5 946.905,-146 936.905,-142.5 936.905,-149.5"/>
<text text-anchor="middle" x="902" y="-149.8" font-family="Times,serif" font-size="14.00">create_sll</text>
</g>
<!-- q2 -->
<g id="node4" class="node"><title>q2</title>
<ellipse fill="none" stroke="green" cx="3211" cy="-93" rx="18" ry="18"/>
</g>
<!-- q2&#45;&gt;q1 -->
<g id="edge3" class="edge"><title>q2&#45;&gt;q1</title>
<path fill="none" stroke="green" d="M3229.21,-93C3253.92,-93 3299.87,-93 3330.7,-93"/>
<polygon fill="green" stroke="green" points="3330.91,-96.5001 3340.91,-93 3330.91,-89.5001 3330.91,-96.5001"/>
<text text-anchor="middle" x="3285" y="-96.8" font-family="Times,serif" font-size="14.00">Learn_Assert</text>
</g>
<!-- q3 -->
<g id="node5" class="node"><title>q3</title>
<ellipse fill="none" stroke="green" cx="3048" cy="-93" rx="18" ry="18"/>
</g>
<!-- q3&#45;&gt;q2 -->
<g id="edge4" class="edge"><title>q3&#45;&gt;q2</title>
<path fill="none" stroke="green" d="M3066.23,-93C3094.07,-93 3149.19,-93 3182.5,-93"/>
<polygon fill="green" stroke="green" points="3182.89,-96.5001 3192.89,-93 3182.89,-89.5001 3182.89,-96.5001"/>
<text text-anchor="middle" x="3129.5" y="-96.8" font-family="Times,serif" font-size="14.00">check_seq_prev</text>
</g>
<!-- q4 -->
<g id="node6" class="node"><title>q4</title>
<ellipse fill="none" stroke="green" cx="2883" cy="-93" rx="18" ry="18"/>
</g>
<!-- q4&#45;&gt;q3 -->
<g id="edge5" class="edge"><title>q4&#45;&gt;q3</title>
<path fill="none" stroke="green" d="M2901.14,-93C2929.31,-93 2985.66,-93 3019.48,-93"/>
<polygon fill="green" stroke="green" points="3019.6,-96.5001 3029.6,-93 3019.6,-89.5001 3019.6,-96.5001"/>
<text text-anchor="middle" x="2965.5" y="-96.8" font-family="Times,serif" font-size="14.00">remove_fw_link</text>
</g>
<!-- q5 -->
<g id="node7" class="node"><title>q5</title>
<ellipse fill="none" stroke="green" cx="2721" cy="-93" rx="18" ry="18"/>
</g>
<!-- q5&#45;&gt;q4 -->
<g id="edge6" class="edge"><title>q5&#45;&gt;q4</title>
<path fill="none" stroke="green" d="M2739.12,-93C2766.65,-93 2820.99,-93 2854.15,-93"/>
<polygon fill="green" stroke="green" points="2854.52,-96.5001 2864.52,-93 2854.52,-89.5001 2854.52,-96.5001"/>
<text text-anchor="middle" x="2802" y="-96.8" font-family="Times,serif" font-size="14.00">check_seq_next</text>
</g>
<!-- q6 -->
<g id="node8" class="node"><title>q6</title>
<ellipse fill="none" stroke="green" cx="2558" cy="-93" rx="18" ry="18"/>
</g>
<!-- q6&#45;&gt;q5 -->
<g id="edge7" class="edge"><title>q6&#45;&gt;q5</title>
<path fill="none" stroke="green" d="M2576.23,-93C2604.07,-93 2659.19,-93 2692.5,-93"/>
<polygon fill="green" stroke="green" points="2692.89,-96.5001 2702.89,-93 2692.89,-89.5001 2692.89,-96.5001"/>
<text text-anchor="middle" x="2639.5" y="-96.8" font-family="Times,serif" font-size="14.00">check_seq_prev</text>
</g>
<!-- q7 -->
<g id="node9" class="node"><title>q7</title>
<ellipse fill="none" stroke="green" cx="2423" cy="-93" rx="18" ry="18"/>
</g>
<!-- q7&#45;&gt;q6 -->
<g id="edge8" class="edge"><title>q7&#45;&gt;q6</title>
<path fill="none" stroke="green" d="M2441.12,-93C2463.56,-93 2503.2,-93 2529.79,-93"/>
<polygon fill="green" stroke="green" points="2529.95,-96.5001 2539.95,-93 2529.95,-89.5001 2529.95,-96.5001"/>
<text text-anchor="middle" x="2490.5" y="-96.8" font-family="Times,serif" font-size="14.00">reverse_dll</text>
</g>
<!-- q8 -->
<g id="node10" class="node"><title>q8</title>
<ellipse fill="none" stroke="green" cx="2260" cy="-93" rx="18" ry="18"/>
</g>
<!-- q8&#45;&gt;q7 -->
<g id="edge9" class="edge"><title>q8&#45;&gt;q7</title>
<path fill="none" stroke="green" d="M2278.23,-93C2306.07,-93 2361.19,-93 2394.5,-93"/>
<polygon fill="green" stroke="green" points="2394.89,-96.5001 2404.89,-93 2394.89,-89.5001 2394.89,-96.5001"/>
<text text-anchor="middle" x="2341.5" y="-96.8" font-family="Times,serif" font-size="14.00">check_seq_prev</text>
</g>
<!-- q9 -->
<g id="node11" class="node"><title>q9</title>
<ellipse fill="none" stroke="green" cx="2098" cy="-93" rx="18" ry="18"/>
</g>
<!-- q9&#45;&gt;q8 -->
<g id="edge10" class="edge"><title>q9&#45;&gt;q8</title>
<path fill="none" stroke="green" d="M2116.12,-93C2143.65,-93 2197.99,-93 2231.15,-93"/>
<polygon fill="green" stroke="green" points="2231.52,-96.5001 2241.52,-93 2231.52,-89.5001 2231.52,-96.5001"/>
<text text-anchor="middle" x="2179" y="-96.8" font-family="Times,serif" font-size="14.00">check_seq_next</text>
</g>
<!-- q10 -->
<g id="node12" class="node"><title>q10</title>
<ellipse fill="none" stroke="green" cx="1945" cy="-93" rx="18" ry="18"/>
</g>
<!-- q10&#45;&gt;q9 -->
<g id="edge11" class="edge"><title>q10&#45;&gt;q9</title>
<path fill="none" stroke="green" d="M1963.03,-93C1988.97,-93 2038.64,-93 2069.67,-93"/>
<polygon fill="green" stroke="green" points="2069.8,-96.5001 2079.8,-93 2069.8,-89.5001 2069.8,-96.5001"/>
<text text-anchor="middle" x="2021.5" y="-96.8" font-family="Times,serif" font-size="14.00">init_back_link</text>
</g>
<!-- q11 -->
<g id="node13" class="node"><title>q11</title>
<ellipse fill="none" stroke="black" cx="1756" cy="-18" rx="18" ry="18"/>
</g>
<!-- q11&#45;&gt;q10 -->
<g id="edge12" class="edge"><title>q11&#45;&gt;q10</title>
<path fill="none" stroke="green" d="M1773.99,-16.7102C1803.76,-15.2853 1866.22,-16.0851 1909,-43 1918.55,-49.009 1926.21,-58.6718 1931.9,-67.9083"/>
<polygon fill="green" stroke="green" points="1928.98,-69.8523 1936.94,-76.8516 1935.08,-66.4201 1928.98,-69.8523"/>
<text text-anchor="middle" x="1864" y="-46.8" font-family="Times,serif" font-size="14.00">check_seq_next</text>
</g>
<!-- q12 -->
<g id="node14" class="node"><title>q12</title>
<ellipse fill="none" stroke="black" cx="1540" cy="-69" rx="18" ry="18"/>
</g>
<!-- q12&#45;&gt;q10 -->
<g id="edge14" class="edge"><title>q12&#45;&gt;q10</title>
<path fill="none" stroke="green" d="M1558.06,-70.0159C1620.74,-73.7491 1838.73,-86.7308 1916.32,-91.3514"/>
<polygon fill="green" stroke="green" points="1916.52,-94.8696 1926.71,-91.9704 1916.94,-87.882 1916.52,-94.8696"/>
<text text-anchor="middle" x="1756" y="-88.8" font-family="Times,serif" font-size="14.00">check_seq_next</text>
</g>
<!-- q12&#45;&gt;q11 -->
<g id="edge13" class="edge"><title>q12&#45;&gt;q11</title>
<path fill="none" stroke="green" d="M1556.43,-61.3331C1568.76,-55.5045 1586.62,-47.7102 1603,-43 1645.76,-30.7011 1697.15,-23.8288 1727.88,-20.5245"/>
<polygon fill="green" stroke="green" points="1728.25,-24.0048 1737.84,-19.5014 1727.54,-17.0414 1728.25,-24.0048"/>
<text text-anchor="middle" x="1648" y="-46.8" font-family="Times,serif" font-size="14.00">chain_node</text>
</g>
<!-- q13 -->
<g id="node15" class="node"><title>q13</title>
<ellipse fill="none" stroke="black" cx="1376" cy="-115" rx="18" ry="18"/>
</g>
<!-- q13&#45;&gt;q10 -->
<g id="edge16" class="edge"><title>q13&#45;&gt;q10</title>
<path fill="none" stroke="green" d="M1394.09,-115.776C1460.51,-118.532 1707.79,-126.387 1909,-101 1911.75,-100.654 1914.59,-100.187 1917.42,-99.6512"/>
<polygon fill="green" stroke="green" points="1918.35,-103.033 1927.39,-97.5067 1916.87,-96.1893 1918.35,-103.033"/>
<text text-anchor="middle" x="1648" y="-121.8" font-family="Times,serif" font-size="14.00">check_seq_next</text>
</g>
<!-- q13&#45;&gt;q12 -->
<g id="edge15" class="edge"><title>q13&#45;&gt;q12</title>
<path fill="none" stroke="green" d="M1389.11,-102.059C1395.37,-96.1861 1403.47,-89.733 1412,-86 1444.24,-71.8914 1485.13,-68.7282 1511.67,-68.3704"/>
<polygon fill="green" stroke="green" points="1511.77,-71.8704 1521.77,-68.3609 1511.76,-64.8704 1511.77,-71.8704"/>
<text text-anchor="middle" x="1444.5" y="-89.8" font-family="Times,serif" font-size="14.00">chain_node</text>
</g>
<!-- q14 -->
<g id="node16" class="node"><title>q14</title>
<ellipse fill="none" stroke="green" cx="1239" cy="-146" rx="18" ry="18"/>
</g>
<!-- q14&#45;&gt;q10 -->
<g id="edge18" class="edge"><title>q14&#45;&gt;q10</title>
<path fill="none" stroke="green" d="M1256.98,-149.108C1282.5,-153.502 1332.32,-161 1375,-161 1375,-161 1375,-161 1757,-161 1827.09,-161 1846.02,-149.753 1909,-119 1913.6,-116.752 1918.22,-113.875 1922.52,-110.859"/>
<polygon fill="green" stroke="green" points="1924.91,-113.439 1930.8,-104.629 1920.7,-107.846 1924.91,-113.439"/>
<text text-anchor="middle" x="1540" y="-164.8" font-family="Times,serif" font-size="14.00">check_seq_next</text>
</g>
<!-- q14&#45;&gt;q13 -->
<g id="edge17" class="edge"><title>q14&#45;&gt;q13</title>
<path fill="none" stroke="green" d="M1255.78,-138.861C1261.71,-136.399 1268.57,-133.809 1275,-132 1299.14,-125.203 1327.37,-120.708 1347.66,-118.057"/>
<polygon fill="green" stroke="green" points="1348.28,-121.507 1357.77,-116.803 1347.41,-114.561 1348.28,-121.507"/>
<text text-anchor="middle" x="1307.5" y="-135.8" font-family="Times,serif" font-size="14.00">chain_node</text>
</g>
<!-- q15 -->
<g id="node17" class="node"><title>q15</title>
<ellipse fill="none" stroke="green" cx="1102" cy="-146" rx="18" ry="18"/>
</g>
<!-- q15&#45;&gt;q14 -->
<g id="edge19" class="edge"><title>q15&#45;&gt;q14</title>
<path fill="none" stroke="green" d="M1120.1,-146C1142.9,-146 1183.52,-146 1210.61,-146"/>
<polygon fill="green" stroke="green" points="1210.61,-149.5 1220.61,-146 1210.61,-142.5 1210.61,-149.5"/>
<text text-anchor="middle" x="1170.5" y="-149.8" font-family="Times,serif" font-size="14.00">chain_node</text>
</g>
<!-- q16&#45;&gt;q15 -->
<g id="edge20" class="edge"><title>q16&#45;&gt;q15</title>
<path fill="none" stroke="green" d="M983.098,-146C1005.9,-146 1046.52,-146 1073.61,-146"/>
<polygon fill="green" stroke="green" points="1073.61,-149.5 1083.61,-146 1073.61,-142.5 1073.61,-149.5"/>
<text text-anchor="middle" x="1033.5" y="-149.8" font-family="Times,serif" font-size="14.00">chain_node</text>
</g>
<!-- iq0 -->
<g id="node19" class="node"><title>iq0</title>
</g>
<!-- iq0&#45;&gt;q0 -->
<g id="edge1" class="edge"><title>iq0&#45;&gt;q0</title>
<path fill="none" stroke="blue" d="M419.175,-146C497.645,-146 730.442,-146 810.553,-146"/>
<polygon fill="blue" stroke="blue" points="810.812,-149.5 820.812,-146 810.812,-142.5 810.812,-149.5"/>
</g>
</g>
</svg>
