<?xml version="1.0" encoding="UTF-8" standalone="no"?>
<!DOCTYPE svg PUBLIC "-//W3C//DTD SVG 1.1//EN"
 "http://www.w3.org/Graphics/SVG/1.1/DTD/svg11.dtd">
<!-- Generated by graphviz version 2.38.0 (20140413.2041)
 -->
<!-- Title: finite_automaton Pages: 1 -->
<svg width="576pt" height="21pt"
 viewBox="0.00 0.00 576.00 20.62" xmlns="http://www.w3.org/2000/svg" xmlns:xlink="http://www.w3.org/1999/xlink">
<g id="graph0" class="graph" transform="scale(0.202176 0.202176) rotate(0) translate(4 98)">
<title>finite_automaton</title>
<polygon fill="white" stroke="none" points="-4,4 -4,-98 2845,-98 2845,4 -4,4"/>
<!-- dom_edges -->
<g id="node1" class="node"><title>dom_edges</title>
<polygon fill="none" stroke="green" points="784,-36 0,-36 0,-0 784,-0 784,-36"/>
<text text-anchor="middle" x="392" y="-14.3" font-family="Times,serif" font-size="14.00">Dominating edges: chain_node, create_sll, init_back_link, reverse_dll, remove_fw_link, check_seq_next, check_seq_prev, Learn_Assert</text>
</g>
<!-- q1 -->
<g id="node2" class="node"><title>q1</title>
<ellipse fill="none" stroke="green" cx="2819" cy="-72" rx="18" ry="18"/>
<ellipse fill="none" stroke="green" cx="2819" cy="-72" rx="22" ry="22"/>
<text text-anchor="middle" x="2819" y="-68.3" font-family="Times,serif" font-size="14.00">D</text>
</g>
<!-- q0 -->
<g id="node3" class="node"><title>q0</title>
<ellipse fill="none" stroke="green" cx="839" cy="-72" rx="18" ry="18"/>
</g>
<!-- q13 -->
<g id="node15" class="node"><title>q13</title>
<ellipse fill="none" stroke="green" cx="965" cy="-72" rx="18" ry="18"/>
</g>
<!-- q0&#45;&gt;q13 -->
<g id="edge2" class="edge"><title>q0&#45;&gt;q13</title>
<path fill="none" stroke="green" d="M857.242,-72C877.786,-72 912.369,-72 936.592,-72"/>
<polygon fill="green" stroke="green" points="936.905,-75.5001 946.905,-72 936.905,-68.5001 936.905,-75.5001"/>
<text text-anchor="middle" x="902" y="-75.8" font-family="Times,serif" font-size="14.00">create_sll</text>
</g>
<!-- q2 -->
<g id="node4" class="node"><title>q2</title>
<ellipse fill="none" stroke="green" cx="2667" cy="-72" rx="18" ry="18"/>
</g>
<!-- q2&#45;&gt;q1 -->
<g id="edge3" class="edge"><title>q2&#45;&gt;q1</title>
<path fill="none" stroke="green" d="M2685.21,-72C2709.92,-72 2755.87,-72 2786.7,-72"/>
<polygon fill="green" stroke="green" points="2786.91,-75.5001 2796.91,-72 2786.91,-68.5001 2786.91,-75.5001"/>
<text text-anchor="middle" x="2741" y="-75.8" font-family="Times,serif" font-size="14.00">Learn_Assert</text>
</g>
<!-- q3 -->
<g id="node5" class="node"><title>q3</title>
<ellipse fill="none" stroke="green" cx="2504" cy="-72" rx="18" ry="18"/>
</g>
<!-- q3&#45;&gt;q2 -->
<g id="edge4" class="edge"><title>q3&#45;&gt;q2</title>
<path fill="none" stroke="green" d="M2522.23,-72C2550.07,-72 2605.19,-72 2638.5,-72"/>
<polygon fill="green" stroke="green" points="2638.89,-75.5001 2648.89,-72 2638.89,-68.5001 2638.89,-75.5001"/>
<text text-anchor="middle" x="2585.5" y="-75.8" font-family="Times,serif" font-size="14.00">check_seq_prev</text>
</g>
<!-- q4 -->
<g id="node6" class="node"><title>q4</title>
<ellipse fill="none" stroke="green" cx="2339" cy="-72" rx="18" ry="18"/>
</g>
<!-- q4&#45;&gt;q3 -->
<g id="edge5" class="edge"><title>q4&#45;&gt;q3</title>
<path fill="none" stroke="green" d="M2357.14,-72C2385.31,-72 2441.66,-72 2475.48,-72"/>
<polygon fill="green" stroke="green" points="2475.6,-75.5001 2485.6,-72 2475.6,-68.5001 2475.6,-75.5001"/>
<text text-anchor="middle" x="2421.5" y="-75.8" font-family="Times,serif" font-size="14.00">remove_fw_link</text>
</g>
<!-- q5 -->
<g id="node7" class="node"><title>q5</title>
<ellipse fill="none" stroke="green" cx="2177" cy="-72" rx="18" ry="18"/>
</g>
<!-- q5&#45;&gt;q4 -->
<g id="edge6" class="edge"><title>q5&#45;&gt;q4</title>
<path fill="none" stroke="green" d="M2195.12,-72C2222.65,-72 2276.99,-72 2310.15,-72"/>
<polygon fill="green" stroke="green" points="2310.52,-75.5001 2320.52,-72 2310.52,-68.5001 2310.52,-75.5001"/>
<text text-anchor="middle" x="2258" y="-75.8" font-family="Times,serif" font-size="14.00">check_seq_next</text>
</g>
<!-- q6 -->
<g id="node8" class="node"><title>q6</title>
<ellipse fill="none" stroke="green" cx="2014" cy="-72" rx="18" ry="18"/>
</g>
<!-- q6&#45;&gt;q5 -->
<g id="edge7" class="edge"><title>q6&#45;&gt;q5</title>
<path fill="none" stroke="green" d="M2032.23,-72C2060.07,-72 2115.19,-72 2148.5,-72"/>
<polygon fill="green" stroke="green" points="2148.89,-75.5001 2158.89,-72 2148.89,-68.5001 2148.89,-75.5001"/>
<text text-anchor="middle" x="2095.5" y="-75.8" font-family="Times,serif" font-size="14.00">check_seq_prev</text>
</g>
<!-- q7 -->
<g id="node9" class="node"><title>q7</title>
<ellipse fill="none" stroke="green" cx="1879" cy="-72" rx="18" ry="18"/>
</g>
<!-- q7&#45;&gt;q6 -->
<g id="edge8" class="edge"><title>q7&#45;&gt;q6</title>
<path fill="none" stroke="green" d="M1897.12,-72C1919.56,-72 1959.2,-72 1985.79,-72"/>
<polygon fill="green" stroke="green" points="1985.95,-75.5001 1995.95,-72 1985.95,-68.5001 1985.95,-75.5001"/>
<text text-anchor="middle" x="1946.5" y="-75.8" font-family="Times,serif" font-size="14.00">reverse_dll</text>
</g>
<!-- q8 -->
<g id="node10" class="node"><title>q8</title>
<ellipse fill="none" stroke="green" cx="1716" cy="-72" rx="18" ry="18"/>
</g>
<!-- q8&#45;&gt;q7 -->
<g id="edge9" class="edge"><title>q8&#45;&gt;q7</title>
<path fill="none" stroke="green" d="M1734.23,-72C1762.07,-72 1817.19,-72 1850.5,-72"/>
<polygon fill="green" stroke="green" points="1850.89,-75.5001 1860.89,-72 1850.89,-68.5001 1850.89,-75.5001"/>
<text text-anchor="middle" x="1797.5" y="-75.8" font-family="Times,serif" font-size="14.00">check_seq_prev</text>
</g>
<!-- q9 -->
<g id="node11" class="node"><title>q9</title>
<ellipse fill="none" stroke="green" cx="1554" cy="-72" rx="18" ry="18"/>
</g>
<!-- q9&#45;&gt;q8 -->
<g id="edge10" class="edge"><title>q9&#45;&gt;q8</title>
<path fill="none" stroke="green" d="M1572.12,-72C1599.65,-72 1653.99,-72 1687.15,-72"/>
<polygon fill="green" stroke="green" points="1687.52,-75.5001 1697.52,-72 1687.52,-68.5001 1687.52,-75.5001"/>
<text text-anchor="middle" x="1635" y="-75.8" font-family="Times,serif" font-size="14.00">check_seq_next</text>
</g>
<!-- q10 -->
<g id="node12" class="node"><title>q10</title>
<ellipse fill="none" stroke="green" cx="1401" cy="-72" rx="18" ry="18"/>
</g>
<!-- q10&#45;&gt;q9 -->
<g id="edge11" class="edge"><title>q10&#45;&gt;q9</title>
<path fill="none" stroke="green" d="M1419.03,-72C1444.97,-72 1494.64,-72 1525.67,-72"/>
<polygon fill="green" stroke="green" points="1525.8,-75.5001 1535.8,-72 1525.8,-68.5001 1525.8,-75.5001"/>
<text text-anchor="middle" x="1477.5" y="-75.8" font-family="Times,serif" font-size="14.00">init_back_link</text>
</g>
<!-- q11 -->
<g id="node13" class="node"><title>q11</title>
<ellipse fill="none" stroke="green" cx="1239" cy="-72" rx="18" ry="18"/>
</g>
<!-- q11&#45;&gt;q10 -->
<g id="edge12" class="edge"><title>q11&#45;&gt;q10</title>
<path fill="none" stroke="green" d="M1257.12,-72C1284.65,-72 1338.99,-72 1372.15,-72"/>
<polygon fill="green" stroke="green" points="1372.52,-75.5001 1382.52,-72 1372.52,-68.5001 1372.52,-75.5001"/>
<text text-anchor="middle" x="1320" y="-75.8" font-family="Times,serif" font-size="14.00">check_seq_next</text>
</g>
<!-- q12 -->
<g id="node14" class="node"><title>q12</title>
<ellipse fill="none" stroke="green" cx="1102" cy="-72" rx="18" ry="18"/>
</g>
<!-- q12&#45;&gt;q11 -->
<g id="edge13" class="edge"><title>q12&#45;&gt;q11</title>
<path fill="none" stroke="green" d="M1120.1,-72C1142.9,-72 1183.52,-72 1210.61,-72"/>
<polygon fill="green" stroke="green" points="1210.61,-75.5001 1220.61,-72 1210.61,-68.5001 1210.61,-75.5001"/>
<text text-anchor="middle" x="1170.5" y="-75.8" font-family="Times,serif" font-size="14.00">chain_node</text>
</g>
<!-- q13&#45;&gt;q12 -->
<g id="edge14" class="edge"><title>q13&#45;&gt;q12</title>
<path fill="none" stroke="green" d="M983.098,-72C1005.9,-72 1046.52,-72 1073.61,-72"/>
<polygon fill="green" stroke="green" points="1073.61,-75.5001 1083.61,-72 1073.61,-68.5001 1073.61,-75.5001"/>
<text text-anchor="middle" x="1033.5" y="-75.8" font-family="Times,serif" font-size="14.00">chain_node</text>
</g>
<!-- iq0 -->
<g id="node16" class="node"><title>iq0</title>
</g>
<!-- iq0&#45;&gt;q0 -->
<g id="edge1" class="edge"><title>iq0&#45;&gt;q0</title>
<path fill="none" stroke="blue" d="M419.175,-72C497.645,-72 730.442,-72 810.553,-72"/>
<polygon fill="blue" stroke="blue" points="810.812,-75.5001 820.812,-72 810.812,-68.5001 810.812,-75.5001"/>
</g>
</g>
</svg>
