<?xml version="1.0" encoding="UTF-8" standalone="no"?>
<!DOCTYPE svg PUBLIC "-//W3C//DTD SVG 1.1//EN"
 "http://www.w3.org/Graphics/SVG/1.1/DTD/svg11.dtd">
<!-- Generated by graphviz version 2.34.0 (20141125.1709)
 -->
<!-- Title: finite_automaton Pages: 1 -->
<svg width="576pt" height="134pt"
 viewBox="0.00 0.00 576.00 133.71" xmlns="http://www.w3.org/2000/svg" xmlns:xlink="http://www.w3.org/1999/xlink">
<g id="graph0" class="graph" transform="scale(0.605042 0.605042) rotate(0) translate(4 217)">
<title>finite_automaton</title>
<polygon fill="white" stroke="white" points="-4,4 -4,-217 948,-217 948,4 -4,4"/>
<!-- dom_edges -->
<g id="node1" class="node"><title>dom_edges</title>
<polygon fill="none" stroke="green" points="459.5,-36 0.5,-36 0.5,-0 459.5,-0 459.5,-36"/>
<text text-anchor="middle" x="230" y="-14.3" font-family="Times,serif" font-size="14.00">Dominating edges: inspect, __list_add, list_add, gl_insert, gl_read, Learn_Assert</text>
</g>
<!-- q1 -->
<g id="node2" class="node"><title>q1</title>
<ellipse fill="none" stroke="green" cx="922" cy="-191" rx="18" ry="18"/>
<ellipse fill="none" stroke="green" cx="922" cy="-191" rx="22" ry="22"/>
<text text-anchor="middle" x="922" y="-187.3" font-family="Times,serif" font-size="14.00">D</text>
</g>
<!-- q0 -->
<g id="node3" class="node"><title>q0</title>
<ellipse fill="none" stroke="green" cx="516" cy="-72" rx="18" ry="18"/>
</g>
<!-- q6 -->
<g id="node8" class="node"><title>q6</title>
<ellipse fill="none" stroke="green" cx="630" cy="-72" rx="18" ry="18"/>
</g>
<!-- q0&#45;&gt;q6 -->
<g id="edge2" class="edge"><title>q0&#45;&gt;q6</title>
<path fill="none" stroke="green" d="M534.01,-72C551.937,-72 580.445,-72 601.558,-72"/>
<polygon fill="green" stroke="green" points="601.83,-75.5001 611.83,-72 601.829,-68.5001 601.83,-75.5001"/>
<text text-anchor="middle" x="573" y="-75.8" font-family="Times,serif" font-size="14.00">gl_read</text>
</g>
<!-- q2 -->
<g id="node4" class="node"><title>q2</title>
<ellipse fill="none" stroke="green" cx="761" cy="-191" rx="18" ry="18"/>
</g>
<!-- q2&#45;&gt;q1 -->
<g id="edge3" class="edge"><title>q2&#45;&gt;q1</title>
<path fill="none" stroke="green" d="M779.016,-191C805.401,-191 856.594,-191 889.759,-191"/>
<polygon fill="green" stroke="green" points="889.84,-194.5 899.84,-191 889.84,-187.5 889.84,-194.5"/>
<text text-anchor="middle" x="845" y="-194.8" font-family="Times,serif" font-size="14.00">Learn_Assert</text>
</g>
<!-- q3 -->
<g id="node5" class="node"><title>q3</title>
<ellipse fill="none" stroke="green" cx="630" cy="-140" rx="18" ry="18"/>
</g>
<!-- q3&#45;&gt;q2 -->
<g id="edge4" class="edge"><title>q3&#45;&gt;q2</title>
<path fill="none" stroke="green" d="M647.023,-146.431C652.979,-148.815 659.795,-151.538 666,-154 689.215,-163.212 715.689,-173.624 734.614,-181.051"/>
<polygon fill="green" stroke="green" points="733.435,-184.348 744.022,-184.742 735.991,-177.832 733.435,-184.348"/>
<text text-anchor="middle" x="690" y="-175.8" font-family="Times,serif" font-size="14.00">inspect</text>
</g>
<!-- q5 -->
<g id="node7" class="node"><title>q5</title>
<ellipse fill="none" stroke="green" cx="761" cy="-86" rx="18" ry="18"/>
</g>
<!-- q3&#45;&gt;q5 -->
<g id="edge5" class="edge"><title>q3&#45;&gt;q5</title>
<path fill="none" stroke="green" d="M643.331,-127.523C649.64,-121.761 657.723,-115.266 666,-111 687.15,-100.098 713.495,-93.6235 732.909,-90.0052"/>
<polygon fill="green" stroke="green" points="733.646,-93.4298 742.905,-88.2789 732.455,-86.5319 733.646,-93.4298"/>
<text text-anchor="middle" x="690" y="-114.8" font-family="Times,serif" font-size="14.00">gl_insert</text>
</g>
<!-- q4 -->
<g id="node6" class="node"><title>q4</title>
<ellipse fill="none" stroke="green" cx="922" cy="-116" rx="18" ry="18"/>
</g>
<!-- q4&#45;&gt;q3 -->
<g id="edge6" class="edge"><title>q4&#45;&gt;q3</title>
<path fill="none" stroke="green" d="M904.447,-121.006C897.567,-122.887 889.46,-124.847 882,-126 801.34,-138.468 704.583,-140.191 658.29,-140.214"/>
<polygon fill="green" stroke="green" points="658.171,-136.714 648.163,-140.192 658.155,-143.714 658.171,-136.714"/>
<text text-anchor="middle" x="761" y="-141.8" font-family="Times,serif" font-size="14.00">__list_add</text>
</g>
<!-- q5&#45;&gt;q4 -->
<g id="edge7" class="edge"><title>q5&#45;&gt;q4</title>
<path fill="none" stroke="green" d="M779.016,-89.2105C806.63,-94.4208 861.416,-104.758 894.272,-110.957"/>
<polygon fill="green" stroke="green" points="893.631,-114.398 904.107,-112.813 894.929,-107.519 893.631,-114.398"/>
<text text-anchor="middle" x="845" y="-110.8" font-family="Times,serif" font-size="14.00">list_add</text>
</g>
<!-- q6&#45;&gt;q5 -->
<g id="edge8" class="edge"><title>q6&#45;&gt;q5</title>
<path fill="none" stroke="green" d="M648.27,-70.8936C665.131,-70.122 691.466,-69.7385 714,-73 720.576,-73.9517 727.538,-75.5797 734.001,-77.3678"/>
<polygon fill="green" stroke="green" points="733.037,-80.7326 743.62,-80.2354 735.037,-74.0243 733.037,-80.7326"/>
<text text-anchor="middle" x="690" y="-76.8" font-family="Times,serif" font-size="14.00">gl_insert</text>
</g>
<!-- iq0 -->
<g id="node9" class="node"><title>iq0</title>
</g>
<!-- iq0&#45;&gt;q0 -->
<g id="edge1" class="edge"><title>iq0&#45;&gt;q0</title>
<path fill="none" stroke="blue" d="M257.209,-72C310.908,-72 432.965,-72 487.632,-72"/>
<polygon fill="blue" stroke="blue" points="487.927,-75.5001 497.927,-72 487.927,-68.5001 487.927,-75.5001"/>
</g>
</g>
</svg>
