<?xml version="1.0" encoding="UTF-8" standalone="no"?>
<!DOCTYPE svg PUBLIC "-//W3C//DTD SVG 1.1//EN"
 "http://www.w3.org/Graphics/SVG/1.1/DTD/svg11.dtd">
<!-- Generated by graphviz version 2.34.0 (20141125.1709)
 -->
<!-- Title: finite_automaton Pages: 1 -->
<svg width="377pt" height="576pt"
 viewBox="0.00 0.00 377.28 576.00" xmlns="http://www.w3.org/2000/svg" xmlns:xlink="http://www.w3.org/1999/xlink">
<g id="graph0" class="graph" transform="scale(0.261636 0.261636) rotate(0) translate(4 2197.53)">
<title>finite_automaton</title>
<polygon fill="white" stroke="white" points="-4,4 -4,-2197.53 1438,-2197.53 1438,4 -4,4"/>
<!-- dom_edges -->
<g id="node1" class="node"><title>dom_edges</title>
<polygon fill="none" stroke="green" points="459.5,-795.529 0.5,-795.529 0.5,-759.529 459.5,-759.529 459.5,-795.529"/>
<text text-anchor="middle" x="230" y="-773.829" font-family="Times,serif" font-size="14.00">Dominating edges: inspect, __list_add, list_add, gl_insert, gl_read, Learn_Assert</text>
</g>
<!-- q1 -->
<g id="node2" class="node"><title>q1</title>
<ellipse fill="none" stroke="green" cx="230" cy="-1092.53" rx="18" ry="18"/>
<ellipse fill="none" stroke="green" cx="230" cy="-1092.53" rx="22" ry="22"/>
<text text-anchor="middle" x="230" y="-1088.83" font-family="Times,serif" font-size="14.00">D</text>
</g>
<!-- q0 -->
<g id="node3" class="node"><title>q0</title>
<ellipse fill="none" stroke="green" cx="598" cy="-1035.53" rx="18" ry="18"/>
<text text-anchor="middle" x="598" y="-1031.83" font-family="Times,serif" font-size="14.00">D</text>
</g>
<!-- q1&#45;&gt;q0 -->
<g id="edge14" class="edge"><title>q1&#45;&gt;q0</title>
<path fill="none" stroke="green" d="M244.31,-1109.37C291.808,-1167.53 455.789,-1351.5 562,-1260.53 591.204,-1235.52 596.235,-1118.6 596.967,-1063.89"/>
<polygon fill="green" stroke="green" points="600.467,-1063.86 597.062,-1053.82 593.467,-1063.79 600.467,-1063.86"/>
<text text-anchor="middle" x="520" y="-1288.33" font-family="Times,serif" font-size="14.00">inspect</text>
</g>
<!-- q1&#45;&gt;q0 -->
<g id="edge15" class="edge"><title>q1&#45;&gt;q0</title>
<path fill="none" stroke="green" d="M248.069,-1105.34C286.569,-1133.34 384.148,-1199.34 478,-1222.53 514.243,-1231.48 533.276,-1246.38 562,-1222.53 585.93,-1202.66 593.593,-1110.82 595.972,-1063.66"/>
<polygon fill="green" stroke="green" points="599.476,-1063.65 596.437,-1053.5 592.483,-1063.33 599.476,-1063.65"/>
<text text-anchor="middle" x="520" y="-1238.33" font-family="Times,serif" font-size="14.00">__list_add</text>
</g>
<!-- q1&#45;&gt;q0 -->
<g id="edge16" class="edge"><title>q1&#45;&gt;q0</title>
<path fill="none" stroke="black" d="M250.322,-1102.13C313.362,-1132.82 511.862,-1224.25 562,-1184.53 580.657,-1169.75 590.342,-1102.68 594.475,-1063.75"/>
<polygon fill="black" stroke="black" points="597.98,-1063.88 595.497,-1053.58 591.015,-1063.18 597.98,-1063.88"/>
<text text-anchor="middle" x="520" y="-1197.33" font-family="Times,serif" font-size="14.00">__list_del</text>
</g>
<!-- q1&#45;&gt;q0 -->
<g id="edge17" class="edge"><title>q1&#45;&gt;q0</title>
<path fill="none" stroke="green" d="M251.195,-1099.54C315.137,-1121.17 511.875,-1183.28 562,-1146.53 587.636,-1127.73 594.982,-1090.12 596.835,-1063.91"/>
<polygon fill="green" stroke="green" points="600.337,-1063.97 597.322,-1053.81 593.345,-1063.63 600.337,-1063.97"/>
<text text-anchor="middle" x="520" y="-1161.33" font-family="Times,serif" font-size="14.00">list_add</text>
</g>
<!-- q1&#45;&gt;q0 -->
<g id="edge18" class="edge"><title>q1&#45;&gt;q0</title>
<path fill="none" stroke="black" d="M251.942,-1096.58C316.351,-1108.57 510.269,-1141.1 562,-1108.53 577.709,-1098.64 586.525,-1079.52 591.379,-1063.34"/>
<polygon fill="black" stroke="black" points="594.874,-1063.81 594.029,-1053.25 588.103,-1062.03 594.874,-1063.81"/>
<text text-anchor="middle" x="520" y="-1126.33" font-family="Times,serif" font-size="14.00">list_move</text>
</g>
<!-- q1&#45;&gt;q0 -->
<g id="edge19" class="edge"><title>q1&#45;&gt;q0</title>
<path fill="none" stroke="black" d="M252.046,-1093.04C315.893,-1094.29 506.406,-1095.75 562,-1070.53 568.625,-1067.52 574.696,-1062.68 579.854,-1057.54"/>
<polygon fill="black" stroke="black" points="582.588,-1059.74 586.718,-1049.98 577.405,-1055.03 582.588,-1059.74"/>
<text text-anchor="middle" x="520" y="-1089.33" font-family="Times,serif" font-size="14.00">gl_sort_pass</text>
</g>
<!-- q1&#45;&gt;q0 -->
<g id="edge20" class="edge"><title>q1&#45;&gt;q0</title>
<path fill="none" stroke="green" d="M251.784,-1088.86C294.229,-1081.41 393.961,-1064.15 478,-1051.53 509.463,-1046.8 545.708,-1042.03 569.849,-1038.94"/>
<polygon fill="green" stroke="green" points="570.55,-1042.38 580.029,-1037.64 569.668,-1035.43 570.55,-1042.38"/>
<text text-anchor="middle" x="520" y="-1055.33" font-family="Times,serif" font-size="14.00">gl_insert</text>
</g>
<!-- q1&#45;&gt;q0 -->
<g id="edge21" class="edge"><title>q1&#45;&gt;q0</title>
<path fill="none" stroke="green" d="M250.745,-1084.68C292.084,-1068.72 391.111,-1032.93 478,-1020.53 514.959,-1015.25 525.429,-1013.02 562,-1020.53 565.473,-1021.24 569.026,-1022.31 572.475,-1023.56"/>
<polygon fill="green" stroke="green" points="571.18,-1026.82 581.759,-1027.41 573.857,-1020.35 571.18,-1026.82"/>
<text text-anchor="middle" x="520" y="-1024.33" font-family="Times,serif" font-size="14.00">gl_read</text>
</g>
<!-- q1&#45;&gt;q0 -->
<g id="edge22" class="edge"><title>q1&#45;&gt;q0</title>
<path fill="none" stroke="black" d="M249.809,-1082.4C290.172,-1061.32 388.693,-1013.27 478,-996.529 514.694,-989.649 527.907,-981.316 562,-996.529 569.711,-999.97 576.431,-1006.04 581.865,-1012.38"/>
<polygon fill="black" stroke="black" points="579.159,-1014.61 588.039,-1020.39 584.702,-1010.33 579.159,-1014.61"/>
<text text-anchor="middle" x="520" y="-1000.33" font-family="Times,serif" font-size="14.00">gl_destroy</text>
</g>
<!-- q1&#45;&gt;q0 -->
<g id="edge23" class="edge"><title>q1&#45;&gt;q0</title>
<path fill="none" stroke="black" d="M248.464,-1080.1C287.372,-1053.26 385.087,-990.542 478,-968.529 514.328,-959.922 530.069,-949.184 562,-968.529 576.318,-977.203 585.057,-993.869 590.222,-1008.41"/>
<polygon fill="black" stroke="black" points="586.905,-1009.53 593.252,-1018.01 593.58,-1007.42 586.905,-1009.53"/>
<text text-anchor="middle" x="520" y="-972.329" font-family="Times,serif" font-size="14.00">val_from_node</text>
</g>
<!-- q1&#45;&gt;q0 -->
<g id="edge24" class="edge"><title>q1&#45;&gt;q0</title>
<path fill="none" stroke="black" d="M246.782,-1078.13C283.772,-1045.47 380.348,-966.478 478,-938.529 513.892,-928.256 531.448,-917.073 562,-938.529 584.007,-953.984 592.239,-984.698 595.284,-1007.44"/>
<polygon fill="black" stroke="black" points="591.822,-1007.99 596.374,-1017.56 598.782,-1007.24 591.822,-1007.99"/>
<text text-anchor="middle" x="520" y="-942.329" font-family="Times,serif" font-size="14.00">gl_sort</text>
</g>
<!-- q1&#45;&gt;q0 -->
<g id="edge25" class="edge"><title>q1&#45;&gt;q0</title>
<path fill="none" stroke="green" d="M245.088,-1076.36C279.895,-1037.8 374.654,-941.089 478,-906.529 513.406,-894.689 532.346,-883.848 562,-906.529 577.925,-918.709 588.298,-973.221 593.359,-1007.37"/>
<polygon fill="green" stroke="green" points="589.948,-1008.25 594.815,-1017.66 596.879,-1007.27 589.948,-1008.25"/>
<text text-anchor="middle" x="520" y="-910.329" font-family="Times,serif" font-size="14.00">Learn_Assert</text>
</g>
<!-- q0&#45;&gt;q0 -->
<g id="edge2" class="edge"><title>q0&#45;&gt;q0</title>
<path fill="none" stroke="green" d="M596.553,-1053.68C596.33,-1063.07 596.812,-1071.53 598,-1071.53 598.724,-1071.53 599.185,-1068.39 599.385,-1063.81"/>
<polygon fill="green" stroke="green" points="602.886,-1063.7 599.447,-1053.68 595.886,-1063.66 602.886,-1063.7"/>
<text text-anchor="middle" x="598" y="-1075.33" font-family="Times,serif" font-size="14.00">inspect</text>
</g>
<!-- q0&#45;&gt;q0 -->
<g id="edge3" class="edge"><title>q0&#45;&gt;q0</title>
<path fill="none" stroke="green" d="M595.595,-1053.51C594.308,-1070.73 595.109,-1089.53 598,-1089.53 600.326,-1089.53 601.299,-1077.36 600.92,-1063.63"/>
<polygon fill="green" stroke="green" points="604.409,-1063.32 600.405,-1053.51 597.418,-1063.67 604.409,-1063.32"/>
<text text-anchor="middle" x="598" y="-1093.33" font-family="Times,serif" font-size="14.00">__list_add</text>
</g>
<!-- q0&#45;&gt;q0 -->
<g id="edge4" class="edge"><title>q0&#45;&gt;q0</title>
<path fill="none" stroke="black" d="M594.964,-1053.61C592.277,-1077.94 593.289,-1107.53 598,-1107.53 602.067,-1107.53 603.377,-1085.48 601.931,-1063.79"/>
<polygon fill="black" stroke="black" points="605.398,-1063.26 601.036,-1053.61 598.425,-1063.87 605.398,-1063.26"/>
<text text-anchor="middle" x="598" y="-1111.33" font-family="Times,serif" font-size="14.00">__list_del</text>
</g>
<!-- q0&#45;&gt;q0 -->
<g id="edge5" class="edge"><title>q0&#45;&gt;q0</title>
<path fill="none" stroke="green" d="M594.523,-1053.64C590.247,-1084.77 591.406,-1125.53 598,-1125.53 603.898,-1125.53 605.448,-1092.91 602.649,-1063.75"/>
<polygon fill="green" stroke="green" points="606.105,-1063.17 601.477,-1053.64 599.151,-1063.98 606.105,-1063.17"/>
<text text-anchor="middle" x="598" y="-1129.33" font-family="Times,serif" font-size="14.00">list_add</text>
</g>
<!-- q0&#45;&gt;q0 -->
<g id="edge6" class="edge"><title>q0&#45;&gt;q0</title>
<path fill="none" stroke="black" d="M594.249,-1053.33C588.215,-1091.08 589.465,-1143.53 598,-1143.53 605.802,-1143.53 607.517,-1099.71 603.145,-1063.34"/>
<polygon fill="black" stroke="black" points="606.596,-1062.75 601.751,-1053.33 599.663,-1063.71 606.596,-1062.75"/>
<text text-anchor="middle" x="598" y="-1147.33" font-family="Times,serif" font-size="14.00">list_move</text>
</g>
<!-- q0&#45;&gt;q0 -->
<g id="edge7" class="edge"><title>q0&#45;&gt;q0</title>
<path fill="none" stroke="black" d="M594.01,-1053.3C586.193,-1097.5 587.523,-1161.53 598,-1161.53 607.699,-1161.53 609.559,-1106.65 603.579,-1063.43"/>
<polygon fill="black" stroke="black" points="606.997,-1062.64 601.99,-1053.3 600.081,-1063.72 606.997,-1062.64"/>
<text text-anchor="middle" x="598" y="-1165.33" font-family="Times,serif" font-size="14.00">gl_sort_pass</text>
</g>
<!-- q0&#45;&gt;q0 -->
<g id="edge8" class="edge"><title>q0&#45;&gt;q0</title>
<path fill="none" stroke="green" d="M593.845,-1053.15C584.174,-1103.71 585.559,-1179.53 598,-1179.53 609.64,-1179.53 611.602,-1113.17 603.887,-1063.21"/>
<polygon fill="green" stroke="green" points="607.301,-1062.41 602.155,-1053.15 600.402,-1063.59 607.301,-1062.41"/>
<text text-anchor="middle" x="598" y="-1183.33" font-family="Times,serif" font-size="14.00">gl_insert</text>
</g>
<!-- q0&#45;&gt;q0 -->
<g id="edge10" class="edge"><title>q0&#45;&gt;q0</title>
<path fill="none" stroke="black" d="M593.695,-1053.11C582.159,-1109.97 583.594,-1197.53 598,-1197.53 611.59,-1197.53 613.637,-1119.61 604.14,-1063.05"/>
<polygon fill="black" stroke="black" points="607.563,-1062.31 602.305,-1053.11 600.68,-1063.58 607.563,-1062.31"/>
<text text-anchor="middle" x="598" y="-1201.33" font-family="Times,serif" font-size="14.00">gl_destroy</text>
</g>
<!-- q0&#45;&gt;q0 -->
<g id="edge11" class="edge"><title>q0&#45;&gt;q0</title>
<path fill="none" stroke="black" d="M593.584,-1053.02C580.145,-1116.12 581.617,-1215.53 598,-1215.53 613.551,-1215.53 615.667,-1125.96 604.348,-1062.9"/>
<polygon fill="black" stroke="black" points="607.771,-1062.17 602.416,-1053.02 600.901,-1063.51 607.771,-1062.17"/>
<text text-anchor="middle" x="598" y="-1219.33" font-family="Times,serif" font-size="14.00">val_from_node</text>
</g>
<!-- q0&#45;&gt;q0 -->
<g id="edge12" class="edge"><title>q0&#45;&gt;q0</title>
<path fill="none" stroke="black" d="M593.482,-1052.99C578.135,-1122.3 579.641,-1233.53 598,-1233.53 615.499,-1233.53 617.687,-1132.48 604.565,-1063"/>
<polygon fill="black" stroke="black" points="607.951,-1062.09 602.518,-1052.99 601.094,-1063.49 607.951,-1062.09"/>
<text text-anchor="middle" x="598" y="-1237.33" font-family="Times,serif" font-size="14.00">gl_sort</text>
</g>
<!-- q0&#45;&gt;q0 -->
<g id="edge13" class="edge"><title>q0&#45;&gt;q0</title>
<path fill="none" stroke="green" d="M593.356,-1053.14C576.128,-1128.63 577.676,-1251.53 598,-1251.53 617.451,-1251.53 619.705,-1138.97 604.761,-1063.12"/>
<polygon fill="green" stroke="green" points="608.143,-1062.2 602.644,-1053.14 601.295,-1063.65 608.143,-1062.2"/>
<text text-anchor="middle" x="598" y="-1255.33" font-family="Times,serif" font-size="14.00">Learn_Assert</text>
</g>
<!-- q6 -->
<g id="node8" class="node"><title>q6</title>
<ellipse fill="none" stroke="green" cx="778" cy="-695.529" rx="18" ry="18"/>
<text text-anchor="middle" x="778" y="-691.829" font-family="Times,serif" font-size="14.00">D</text>
</g>
<!-- q0&#45;&gt;q6 -->
<g id="edge9" class="edge"><title>q0&#45;&gt;q6</title>
<path fill="none" stroke="green" d="M598.068,-1017.2C597.601,-987.319 601.227,-928.096 634,-894.529 661.041,-866.833 692.653,-900.783 718,-871.529 760.235,-822.782 704.165,-783.623 736,-727.529 740.136,-720.24 746.663,-714.031 753.302,-709.076"/>
<polygon fill="green" stroke="green" points="755.264,-711.974 761.601,-703.483 751.353,-706.169 755.264,-711.974"/>
<text text-anchor="middle" x="676" y="-898.329" font-family="Times,serif" font-size="14.00">gl_read</text>
</g>
<!-- q2 -->
<g id="node4" class="node"><title>q2</title>
<ellipse fill="none" stroke="green" cx="1416" cy="-1942.53" rx="18" ry="18"/>
<text text-anchor="middle" x="1416" y="-1938.83" font-family="Times,serif" font-size="14.00">D</text>
</g>
<!-- q2&#45;&gt;q1 -->
<g id="edge37" class="edge"><title>q2&#45;&gt;q1</title>
<path fill="none" stroke="green" d="M1413.6,-1960.39C1410.02,-2002.29 1399.44,-2105.47 1380,-2133.53 1357.86,-2165.48 1343.87,-2178.53 1305,-2178.53 597,-2178.53 597,-2178.53 597,-2178.53 368.632,-2178.53 255.525,-1305.27 234.598,-1124.89"/>
<polygon fill="green" stroke="green" points="238.048,-1124.25 233.43,-1114.71 231.093,-1125.05 238.048,-1124.25"/>
<text text-anchor="middle" x="982" y="-2182.33" font-family="Times,serif" font-size="14.00">Learn_Assert</text>
</g>
<!-- q2&#45;&gt;q0 -->
<g id="edge26" class="edge"><title>q2&#45;&gt;q0</title>
<path fill="none" stroke="green" d="M1413.46,-1960.61C1409.84,-1998.98 1399.59,-2086.83 1380,-2108.53 1356.54,-2134.5 1340,-2132.53 1305,-2132.53 777,-2132.53 777,-2132.53 777,-2132.53 712.556,-2132.53 676.424,-2157.04 634,-2108.53 598.655,-2068.11 598.583,-1230.92 598.92,-1064.24"/>
<polygon fill="green" stroke="green" points="602.421,-1063.84 598.944,-1053.83 595.421,-1063.82 602.421,-1063.84"/>
<text text-anchor="middle" x="1084" y="-2136.33" font-family="Times,serif" font-size="14.00">inspect</text>
</g>
<!-- q2&#45;&gt;q0 -->
<g id="edge27" class="edge"><title>q2&#45;&gt;q0</title>
<path fill="none" stroke="green" d="M1415.19,-1960.84C1414.46,-1988.33 1409.01,-2040.25 1380,-2070.53 1355.79,-2095.8 1340,-2094.53 1305,-2094.53 777,-2094.53 777,-2094.53 777,-2094.53 712.556,-2094.53 676.453,-2119.01 634,-2070.53 599.918,-2031.6 598.83,-1225.72 598.956,-1063.74"/>
<polygon fill="green" stroke="green" points="602.456,-1063.61 598.967,-1053.61 595.456,-1063.61 602.456,-1063.61"/>
<text text-anchor="middle" x="1084" y="-2098.33" font-family="Times,serif" font-size="14.00">__list_add</text>
</g>
<!-- q2&#45;&gt;q0 -->
<g id="edge28" class="edge"><title>q2&#45;&gt;q0</title>
<path fill="none" stroke="black" d="M1412.71,-1960.28C1409.18,-1980.5 1400.52,-2013.23 1380,-2032.53 1354.51,-2056.51 1340,-2056.53 1305,-2056.53 777,-2056.53 777,-2056.53 777,-2056.53 712.556,-2056.53 676.484,-2080.99 634,-2032.53 601.246,-1995.17 599.09,-1223.57 598.995,-1064.18"/>
<polygon fill="black" stroke="black" points="602.494,-1063.78 598.991,-1053.78 595.494,-1063.78 602.494,-1063.78"/>
<text text-anchor="middle" x="1084" y="-2060.33" font-family="Times,serif" font-size="14.00">__list_del</text>
</g>
<!-- q2&#45;&gt;q0 -->
<g id="edge29" class="edge"><title>q2&#45;&gt;q0</title>
<path fill="none" stroke="green" d="M1407.71,-1958.76C1401.77,-1970.27 1392.36,-1985.25 1380,-1994.53 1352.01,-2015.54 1340,-2018.53 1305,-2018.53 777,-2018.53 777,-2018.53 777,-2018.53 712.556,-2018.53 676.518,-2042.96 634,-1994.53 602.535,-1958.69 599.356,-1219.57 599.036,-1064.08"/>
<polygon fill="green" stroke="green" points="602.536,-1063.9 599.017,-1053.91 595.536,-1063.92 602.536,-1063.9"/>
<text text-anchor="middle" x="1084" y="-2022.33" font-family="Times,serif" font-size="14.00">list_add</text>
</g>
<!-- q2&#45;&gt;q0 -->
<g id="edge30" class="edge"><title>q2&#45;&gt;q0</title>
<path fill="none" stroke="black" d="M1399.91,-1951.34C1379.22,-1962.57 1340.56,-1980.53 1305,-1980.53 777,-1980.53 777,-1980.53 777,-1980.53 712.556,-1980.53 676.554,-2004.93 634,-1956.53 603.817,-1922.2 599.631,-1215.21 599.08,-1063.88"/>
<polygon fill="black" stroke="black" points="602.579,-1063.57 599.045,-1053.58 595.579,-1063.59 602.579,-1063.57"/>
<text text-anchor="middle" x="1084" y="-1984.33" font-family="Times,serif" font-size="14.00">list_move</text>
</g>
<!-- q2&#45;&gt;q0 -->
<g id="edge31" class="edge"><title>q2&#45;&gt;q0</title>
<path fill="none" stroke="black" d="M1397.85,-1942.53C1376.21,-1942.53 1337.85,-1942.53 1305,-1942.53 777,-1942.53 777,-1942.53 777,-1942.53 712.556,-1942.53 676.594,-1966.89 634,-1918.53 605.095,-1885.71 599.914,-1210.69 599.127,-1063.65"/>
<polygon fill="black" stroke="black" points="602.627,-1063.6 599.076,-1053.62 595.627,-1063.64 602.627,-1063.6"/>
<text text-anchor="middle" x="1084" y="-1946.33" font-family="Times,serif" font-size="14.00">gl_sort_pass</text>
</g>
<!-- q2&#45;&gt;q0 -->
<g id="edge32" class="edge"><title>q2&#45;&gt;q0</title>
<path fill="none" stroke="green" d="M1399.91,-1933.72C1379.22,-1922.49 1340.56,-1904.53 1305,-1904.53 777,-1904.53 777,-1904.53 777,-1904.53 712.556,-1904.53 676.637,-1928.85 634,-1880.53 606.396,-1849.24 600.218,-1207.2 599.18,-1063.78"/>
<polygon fill="green" stroke="green" points="602.679,-1063.58 599.109,-1053.6 595.679,-1063.63 602.679,-1063.58"/>
<text text-anchor="middle" x="1084" y="-1908.33" font-family="Times,serif" font-size="14.00">gl_insert</text>
</g>
<!-- q2&#45;&gt;q0 -->
<g id="edge33" class="edge"><title>q2&#45;&gt;q0</title>
<path fill="none" stroke="green" d="M1404.51,-1928.59C1386.68,-1906.65 1348.17,-1866.53 1305,-1866.53 777,-1866.53 777,-1866.53 777,-1866.53 712.556,-1866.53 676.684,-1890.81 634,-1842.53 607.689,-1812.77 600.534,-1203.34 599.238,-1063.81"/>
<polygon fill="green" stroke="green" points="602.735,-1063.5 599.145,-1053.53 595.735,-1063.56 602.735,-1063.5"/>
<text text-anchor="middle" x="1084" y="-1870.33" font-family="Times,serif" font-size="14.00">gl_read</text>
</g>
<!-- q2&#45;&gt;q0 -->
<g id="edge34" class="edge"><title>q2&#45;&gt;q0</title>
<path fill="none" stroke="black" d="M1409.77,-1925.34C1404.34,-1909.81 1394.58,-1887.06 1380,-1871.53 1353.69,-1843.52 1343.42,-1828.53 1305,-1828.53 777,-1828.53 777,-1828.53 777,-1828.53 712.556,-1828.53 676.735,-1852.77 634,-1804.53 608.977,-1776.28 600.863,-1199.18 599.3,-1063.78"/>
<polygon fill="black" stroke="black" points="602.8,-1063.73 599.188,-1053.77 595.8,-1063.81 602.8,-1063.73"/>
<text text-anchor="middle" x="1084" y="-1832.33" font-family="Times,serif" font-size="14.00">gl_destroy</text>
</g>
<!-- q2&#45;&gt;q0 -->
<g id="edge35" class="edge"><title>q2&#45;&gt;q0</title>
<path fill="none" stroke="black" d="M1413.45,-1924.43C1410.56,-1900.69 1402.45,-1858.85 1380,-1831.53 1355.88,-1802.18 1342.99,-1790.53 1305,-1790.53 777,-1790.53 777,-1790.53 777,-1790.53 712.556,-1790.53 676.792,-1814.72 634,-1766.53 610.254,-1739.79 601.203,-1194.56 599.367,-1063.62"/>
<polygon fill="black" stroke="black" points="602.867,-1063.53 599.23,-1053.58 595.867,-1063.63 602.867,-1063.53"/>
<text text-anchor="middle" x="1084" y="-1794.33" font-family="Times,serif" font-size="14.00">val_from_node</text>
</g>
<!-- q2&#45;&gt;q0 -->
<g id="edge36" class="edge"><title>q2&#45;&gt;q0</title>
<path fill="none" stroke="black" d="M1415.46,-1924.2C1415.3,-1893.54 1410.83,-1831.3 1380,-1791.53 1356.98,-1761.84 1342.57,-1752.53 1305,-1752.53 777,-1752.53 777,-1752.53 777,-1752.53 710.1,-1752.53 674.632,-1758.68 634,-1705.53 614.236,-1679.68 602.304,-1188.26 599.593,-1063.93"/>
<polygon fill="black" stroke="black" points="603.088,-1063.62 599.373,-1053.69 596.089,-1063.77 603.088,-1063.62"/>
<text text-anchor="middle" x="1084" y="-1756.33" font-family="Times,serif" font-size="14.00">gl_sort</text>
</g>
<!-- q3 -->
<g id="node5" class="node"><title>q3</title>
<ellipse fill="none" stroke="green" cx="1304" cy="-1454.53" rx="18" ry="18"/>
<text text-anchor="middle" x="1304" y="-1450.83" font-family="Times,serif" font-size="14.00">D</text>
</g>
<!-- q3&#45;&gt;q0 -->
<g id="edge39" class="edge"><title>q3&#45;&gt;q0</title>
<path fill="none" stroke="green" d="M1302.38,-1472.73C1300.43,-1519.44 1293.01,-1641.98 1268,-1672.53 1238.24,-1708.87 1215.97,-1709.53 1169,-1709.53 777,-1709.53 777,-1709.53 777,-1709.53 711.351,-1709.53 675.598,-1723.32 634,-1672.53 595.077,-1625.01 597.33,-1181.49 598.624,-1063.98"/>
<polygon fill="green" stroke="green" points="602.128,-1063.69 598.745,-1053.65 595.128,-1063.61 602.128,-1063.69"/>
<text text-anchor="middle" x="982" y="-1713.33" font-family="Times,serif" font-size="14.00">__list_add</text>
</g>
<!-- q3&#45;&gt;q0 -->
<g id="edge40" class="edge"><title>q3&#45;&gt;q0</title>
<path fill="none" stroke="black" d="M1301.42,-1472.35C1297.7,-1510.66 1287.21,-1599.17 1268,-1621.53 1237.39,-1657.16 1215.97,-1658.53 1169,-1658.53 777,-1658.53 777,-1658.53 777,-1658.53 711.351,-1658.53 675.718,-1672.22 634,-1621.53 598.312,-1578.17 598.132,-1175.08 598.772,-1063.84"/>
<polygon fill="black" stroke="black" points="602.273,-1063.75 598.837,-1053.73 595.273,-1063.7 602.273,-1063.75"/>
<text text-anchor="middle" x="982" y="-1662.33" font-family="Times,serif" font-size="14.00">__list_del</text>
</g>
<!-- q3&#45;&gt;q0 -->
<g id="edge41" class="edge"><title>q3&#45;&gt;q0</title>
<path fill="none" stroke="green" d="M1302.36,-1472.66C1300.53,-1497.8 1293.61,-1543.21 1268,-1570.53 1235.88,-1604.8 1215.97,-1607.53 1169,-1607.53 777,-1607.53 777,-1607.53 777,-1607.53 711.351,-1607.53 675.862,-1621.1 634,-1570.53 601.539,-1531.32 598.998,-1168.46 598.946,-1063.71"/>
<polygon fill="green" stroke="green" points="602.446,-1063.59 598.948,-1053.59 595.446,-1063.59 602.446,-1063.59"/>
<text text-anchor="middle" x="982" y="-1611.33" font-family="Times,serif" font-size="14.00">list_add</text>
</g>
<!-- q3&#45;&gt;q0 -->
<g id="edge42" class="edge"><title>q3&#45;&gt;q0</title>
<path fill="none" stroke="black" d="M1297.63,-1471.66C1292.27,-1486.21 1282.68,-1506.72 1268,-1519.53 1232.6,-1550.4 1215.97,-1556.53 1169,-1556.53 777,-1556.53 777,-1556.53 777,-1556.53 711.351,-1556.53 676.035,-1569.95 634,-1519.53 604.753,-1484.44 599.941,-1161.46 599.153,-1063.54"/>
<polygon fill="black" stroke="black" points="602.653,-1063.47 599.081,-1053.5 595.653,-1063.53 602.653,-1063.47"/>
<text text-anchor="middle" x="982" y="-1560.33" font-family="Times,serif" font-size="14.00">list_move</text>
</g>
<!-- q3&#45;&gt;q0 -->
<g id="edge43" class="edge"><title>q3&#45;&gt;q0</title>
<path fill="none" stroke="black" d="M1288.42,-1464.12C1264.52,-1478.9 1215.05,-1505.53 1169,-1505.53 777,-1505.53 777,-1505.53 777,-1505.53 711.351,-1505.53 676.248,-1518.78 634,-1468.53 607.998,-1437.6 601.003,-1155.06 599.414,-1063.81"/>
<polygon fill="black" stroke="black" points="602.911,-1063.6 599.246,-1053.65 595.912,-1063.71 602.911,-1063.6"/>
<text text-anchor="middle" x="982" y="-1509.33" font-family="Times,serif" font-size="14.00">gl_sort_pass</text>
</g>
<!-- q3&#45;&gt;q0 -->
<g id="edge45" class="edge"><title>q3&#45;&gt;q0</title>
<path fill="none" stroke="green" d="M1285.65,-1454.53C1260.11,-1454.53 1210.88,-1454.53 1169,-1454.53 777,-1454.53 777,-1454.53 777,-1454.53 712.556,-1454.53 677.76,-1477.84 634,-1430.53 609.175,-1403.69 601.45,-1149.44 599.539,-1063.65"/>
<polygon fill="green" stroke="green" points="603.037,-1063.52 599.325,-1053.59 596.039,-1063.66 603.037,-1063.52"/>
<text text-anchor="middle" x="982" y="-1458.33" font-family="Times,serif" font-size="14.00">gl_read</text>
</g>
<!-- q3&#45;&gt;q0 -->
<g id="edge46" class="edge"><title>q3&#45;&gt;q0</title>
<path fill="none" stroke="black" d="M1286.06,-1451.87C1242.63,-1445.16 1123.69,-1427.32 1024,-1417.53 980.786,-1413.28 665.217,-1422.71 634,-1392.53 610.535,-1369.84 602.03,-1144.91 599.719,-1064.18"/>
<polygon fill="black" stroke="black" points="603.207,-1063.68 599.433,-1053.78 596.21,-1063.88 603.207,-1063.68"/>
<text text-anchor="middle" x="982" y="-1421.33" font-family="Times,serif" font-size="14.00">gl_destroy</text>
</g>
<!-- q3&#45;&gt;q0 -->
<g id="edge47" class="edge"><title>q3&#45;&gt;q0</title>
<path fill="none" stroke="black" d="M1288.12,-1445.57C1282.06,-1442.27 1274.88,-1438.8 1268,-1436.53 1163.64,-1402.09 1132.89,-1411.31 1024,-1396.53 937.624,-1384.81 695.699,-1416.1 634,-1354.53 613.562,-1334.13 603.274,-1137.59 600.099,-1063.55"/>
<polygon fill="black" stroke="black" points="603.596,-1063.4 599.682,-1053.55 596.602,-1063.69 603.596,-1063.4"/>
<text text-anchor="middle" x="982" y="-1400.33" font-family="Times,serif" font-size="14.00">val_from_node</text>
</g>
<!-- q3&#45;&gt;q0 -->
<g id="edge48" class="edge"><title>q3&#45;&gt;q0</title>
<path fill="none" stroke="black" d="M1293.44,-1439.63C1287.23,-1431.2 1278.36,-1421.23 1268,-1415.53 1171.65,-1362.53 1132.61,-1391.73 1024,-1374.53 937.459,-1360.82 695.217,-1379.22 634,-1316.53 599.501,-1281.2 597.593,-1128.3 598.371,-1064.09"/>
<polygon fill="black" stroke="black" points="601.874,-1063.93 598.527,-1053.87 594.875,-1063.82 601.874,-1063.93"/>
<text text-anchor="middle" x="982" y="-1378.33" font-family="Times,serif" font-size="14.00">gl_sort</text>
</g>
<!-- q3&#45;&gt;q0 -->
<g id="edge49" class="edge"><title>q3&#45;&gt;q0</title>
<path fill="none" stroke="green" d="M1298.68,-1437.27C1293.85,-1421.62 1284.45,-1399.12 1268,-1386.53 1039.08,-1211.31 831.675,-1459.36 634,-1249.53 609.177,-1223.18 601.897,-1115.64 599.812,-1063.77"/>
<polygon fill="green" stroke="green" points="603.303,-1063.47 599.441,-1053.6 596.308,-1063.72 603.303,-1063.47"/>
<text text-anchor="middle" x="982" y="-1333.33" font-family="Times,serif" font-size="14.00">Learn_Assert</text>
</g>
<!-- q3&#45;&gt;q2 -->
<g id="edge38" class="edge"><title>q3&#45;&gt;q2</title>
<path fill="none" stroke="green" d="M1310.41,-1471.36C1323.79,-1513.46 1358.88,-1626.91 1380,-1723.53 1394.9,-1791.7 1406.24,-1873.1 1411.6,-1914.84"/>
<polygon fill="green" stroke="green" points="1408.13,-1915.32 1412.86,-1924.8 1415.08,-1914.44 1408.13,-1915.32"/>
<text text-anchor="middle" x="1360" y="-1727.33" font-family="Times,serif" font-size="14.00">inspect</text>
</g>
<!-- q5 -->
<g id="node7" class="node"><title>q5</title>
<ellipse fill="none" stroke="green" cx="982" cy="-978.529" rx="18" ry="18"/>
<text text-anchor="middle" x="982" y="-974.829" font-family="Times,serif" font-size="14.00">D</text>
</g>
<!-- q3&#45;&gt;q5 -->
<g id="edge44" class="edge"><title>q3&#45;&gt;q5</title>
<path fill="none" stroke="green" d="M1301.64,-1436.47C1297.96,-1390.66 1286.78,-1271.15 1268,-1236.53 1203.61,-1117.86 1063.02,-1025.63 1006.86,-992.159"/>
<polygon fill="green" stroke="green" points="1008.39,-988.998 997.996,-986.946 1004.84,-995.032 1008.39,-988.998"/>
<text text-anchor="middle" x="1168" y="-1138.33" font-family="Times,serif" font-size="14.00">gl_insert</text>
</g>
<!-- q4 -->
<g id="node6" class="node"><title>q4</title>
<ellipse fill="none" stroke="green" cx="1168" cy="-316.529" rx="18" ry="18"/>
<text text-anchor="middle" x="1168" y="-312.829" font-family="Times,serif" font-size="14.00">D</text>
</g>
<!-- q4&#45;&gt;q0 -->
<g id="edge50" class="edge"><title>q4&#45;&gt;q0</title>
<path fill="none" stroke="green" d="M1167.13,-334.947C1166.23,-363.561 1159.87,-418.141 1126,-444.529 1039.58,-511.857 711.444,-398.046 634,-475.529 596.176,-513.372 597.496,-898.724 598.63,-1007.23"/>
<polygon fill="green" stroke="green" points="595.132,-1007.45 598.745,-1017.41 602.132,-1007.37 595.132,-1007.45"/>
<text text-anchor="middle" x="880" y="-464.329" font-family="Times,serif" font-size="14.00">inspect</text>
</g>
<!-- q4&#45;&gt;q0 -->
<g id="edge52" class="edge"><title>q4&#45;&gt;q0</title>
<path fill="none" stroke="black" d="M1164.33,-334.512C1160.15,-355.603 1149.92,-389.803 1126,-406.529 1036.13,-469.368 710.842,-366.296 634,-444.529 614.049,-464.841 602.412,-892.834 599.645,-1007.49"/>
<polygon fill="black" stroke="black" points="596.144,-1007.5 599.405,-1017.58 603.142,-1007.66 596.144,-1007.5"/>
<text text-anchor="middle" x="880" y="-427.329" font-family="Times,serif" font-size="14.00">__list_del</text>
</g>
<!-- q4&#45;&gt;q0 -->
<g id="edge53" class="edge"><title>q4&#45;&gt;q0</title>
<path fill="none" stroke="green" d="M1158.98,-332.663C1152.03,-344.762 1140.77,-360.553 1126,-368.529 1029.43,-420.679 710.387,-332.725 634,-411.529 612.991,-433.202 602.059,-888.787 599.56,-1007.47"/>
<polygon fill="green" stroke="green" points="596.059,-1007.5 599.351,-1017.57 603.057,-1007.65 596.059,-1007.5"/>
<text text-anchor="middle" x="880" y="-387.329" font-family="Times,serif" font-size="14.00">list_add</text>
</g>
<!-- q4&#45;&gt;q0 -->
<g id="edge54" class="edge"><title>q4&#45;&gt;q0</title>
<path fill="none" stroke="black" d="M1150.89,-323.014C1143.43,-325.759 1134.38,-328.732 1126,-330.529 1072.31,-342.036 672.036,-336.933 634,-376.529 611.849,-399.588 601.714,-883.653 599.484,-1007.08"/>
<polygon fill="black" stroke="black" points="595.982,-1007.19 599.304,-1017.25 602.981,-1007.32 595.982,-1007.19"/>
<text text-anchor="middle" x="880" y="-349.329" font-family="Times,serif" font-size="14.00">list_move</text>
</g>
<!-- q4&#45;&gt;q0 -->
<g id="edge55" class="edge"><title>q4&#45;&gt;q0</title>
<path fill="none" stroke="black" d="M1149.95,-314.669C1066.8,-306.014 704.938,-273.262 634,-350.529 611.454,-375.087 601.568,-880.997 599.448,-1007.2"/>
<polygon fill="black" stroke="black" points="595.948,-1007.19 599.282,-1017.25 602.947,-1007.3 595.948,-1007.19"/>
<text text-anchor="middle" x="880" y="-305.329" font-family="Times,serif" font-size="14.00">gl_sort_pass</text>
</g>
<!-- q4&#45;&gt;q0 -->
<g id="edge56" class="edge"><title>q4&#45;&gt;q0</title>
<path fill="none" stroke="green" d="M1150.88,-310.08C1143.42,-307.342 1134.38,-304.365 1126,-302.529 1019.19,-279.113 707.644,-229.699 634,-310.529 610.138,-336.719 601.188,-876.567 599.367,-1007.24"/>
<polygon fill="green" stroke="green" points="595.867,-1007.22 599.23,-1017.26 602.866,-1007.31 595.867,-1007.22"/>
<text text-anchor="middle" x="880" y="-275.329" font-family="Times,serif" font-size="14.00">gl_insert</text>
</g>
<!-- q4&#45;&gt;q0 -->
<g id="edge57" class="edge"><title>q4&#45;&gt;q0</title>
<path fill="none" stroke="green" d="M1154.84,-303.984C1147.22,-296.873 1136.82,-288.44 1126,-283.529 1026.41,-238.312 708.917,-189.836 634,-269.529 608.28,-296.888 600.708,-871.188 599.275,-1006.95"/>
<polygon fill="green" stroke="green" points="595.771,-1007.3 599.168,-1017.34 602.771,-1007.37 595.771,-1007.3"/>
<text text-anchor="middle" x="880" y="-238.329" font-family="Times,serif" font-size="14.00">gl_read</text>
</g>
<!-- q4&#45;&gt;q0 -->
<g id="edge58" class="edge"><title>q4&#45;&gt;q0</title>
<path fill="none" stroke="black" d="M1160.54,-299.924C1154.03,-285.411 1142.55,-264.928 1126,-253.529 1035.86,-191.443 709.073,-150.88 634,-230.529 606.821,-259.365 600.334,-867.941 599.203,-1007.28"/>
<polygon fill="black" stroke="black" points="595.701,-1007.52 599.123,-1017.55 602.701,-1007.58 595.701,-1007.52"/>
<text text-anchor="middle" x="880" y="-198.329" font-family="Times,serif" font-size="14.00">gl_destroy</text>
</g>
<!-- q4&#45;&gt;q0 -->
<g id="edge59" class="edge"><title>q4&#45;&gt;q0</title>
<path fill="none" stroke="black" d="M1164.86,-298.463C1161.14,-275.44 1151.29,-236.054 1126,-214.529 1042.64,-143.577 708.805,-110.614 634,-190.529 605.488,-220.989 600.014,-863.67 599.146,-1007.25"/>
<polygon fill="black" stroke="black" points="595.645,-1007.42 599.087,-1017.44 602.645,-1007.46 595.645,-1007.42"/>
<text text-anchor="middle" x="880" y="-154.329" font-family="Times,serif" font-size="14.00">val_from_node</text>
</g>
<!-- q4&#45;&gt;q0 -->
<g id="edge60" class="edge"><title>q4&#45;&gt;q0</title>
<path fill="none" stroke="black" d="M1167.41,-298.432C1167.08,-267.7 1161.7,-205.358 1126,-171.529 1031.91,-82.3697 967.4,-117.943 838,-125.529 746.864,-130.871 696,-82.5195 634,-149.529 604.199,-181.738 599.718,-859.617 599.095,-1007.29"/>
<polygon fill="black" stroke="black" points="595.595,-1007.35 599.055,-1017.36 602.595,-1007.38 595.595,-1007.35"/>
<text text-anchor="middle" x="880" y="-129.329" font-family="Times,serif" font-size="14.00">gl_sort</text>
</g>
<!-- q4&#45;&gt;q0 -->
<g id="edge61" class="edge"><title>q4&#45;&gt;q0</title>
<path fill="none" stroke="green" d="M1165.97,-298.432C1163.05,-253.86 1153.05,-140.652 1126,-116.529 962.796,29.0273 787.005,45.7134 634,-110.529 601.88,-143.329 599.215,-854.711 599.013,-1007"/>
<polygon fill="green" stroke="green" points="595.513,-1007.36 599.002,-1017.36 602.513,-1007.36 595.513,-1007.36"/>
<text text-anchor="middle" x="880" y="-9.32893" font-family="Times,serif" font-size="14.00">Learn_Assert</text>
</g>
<!-- q4&#45;&gt;q3 -->
<g id="edge51" class="edge"><title>q4&#45;&gt;q3</title>
<path fill="none" stroke="green" d="M1171.61,-334.165C1183.77,-416.562 1235.52,-771.918 1268,-1064.53 1283.03,-1199.93 1295.98,-1362.34 1300.89,-1426.5"/>
<polygon fill="green" stroke="green" points="1297.41,-1426.92 1301.66,-1436.62 1304.39,-1426.38 1297.41,-1426.92"/>
<text text-anchor="middle" x="1239" y="-1068.33" font-family="Times,serif" font-size="14.00">__list_add</text>
</g>
<!-- q5&#45;&gt;q0 -->
<g id="edge62" class="edge"><title>q5&#45;&gt;q0</title>
<path fill="none" stroke="green" d="M979.385,-996.506C974.372,-1047.85 957.256,-1193.36 922,-1222.53 872.692,-1263.33 682.226,-1264.6 634,-1222.53 610.621,-1202.13 602.707,-1110.97 600.15,-1063.88"/>
<polygon fill="green" stroke="green" points="603.638,-1063.55 599.645,-1053.74 596.646,-1063.9 603.638,-1063.55"/>
<text text-anchor="middle" x="778" y="-1257.33" font-family="Times,serif" font-size="14.00">inspect</text>
</g>
<!-- q5&#45;&gt;q0 -->
<g id="edge63" class="edge"><title>q5&#45;&gt;q0</title>
<path fill="none" stroke="green" d="M981.71,-996.602C982.151,-1035.83 977.016,-1128.69 922,-1171.53 821.003,-1250.16 733.211,-1252.41 634,-1171.53 617.474,-1158.06 607.192,-1099.51 602.336,-1063.77"/>
<polygon fill="green" stroke="green" points="605.76,-1062.95 601.003,-1053.48 598.818,-1063.85 605.76,-1062.95"/>
<text text-anchor="middle" x="778" y="-1234.33" font-family="Times,serif" font-size="14.00">__list_add</text>
</g>
<!-- q5&#45;&gt;q0 -->
<g id="edge64" class="edge"><title>q5&#45;&gt;q0</title>
<path fill="none" stroke="black" d="M979.472,-996.652C975.76,-1027.94 963.269,-1091.5 922,-1120.53 817.305,-1194.17 738.578,-1194.34 634,-1120.53 615.543,-1107.5 606.796,-1082.89 602.664,-1063.49"/>
<polygon fill="black" stroke="black" points="606.103,-1062.84 600.854,-1053.63 599.218,-1064.1 606.103,-1062.84"/>
<text text-anchor="middle" x="778" y="-1179.33" font-family="Times,serif" font-size="14.00">__list_del</text>
</g>
<!-- q5&#45;&gt;q0 -->
<g id="edge66" class="edge"><title>q5&#45;&gt;q0</title>
<path fill="none" stroke="black" d="M975.358,-995.357C967.239,-1016.67 950.07,-1052.63 922,-1069.53 858.861,-1107.53 684.301,-1114.31 634,-1087.53 623.336,-1081.85 615.339,-1071.32 609.701,-1061.21"/>
<polygon fill="black" stroke="black" points="612.792,-1059.57 605.178,-1052.2 606.535,-1062.71 612.792,-1059.57"/>
<text text-anchor="middle" x="778" y="-1107.33" font-family="Times,serif" font-size="14.00">list_move</text>
</g>
<!-- q5&#45;&gt;q0 -->
<g id="edge67" class="edge"><title>q5&#45;&gt;q0</title>
<path fill="none" stroke="black" d="M967.835,-989.731C956.432,-998.851 939.119,-1011.35 922,-1018.53 836.715,-1054.29 810.025,-1050.37 718,-1059.53 680.85,-1063.23 669.66,-1070.58 634,-1059.53 629.236,-1058.05 624.545,-1055.68 620.221,-1052.99"/>
<polygon fill="black" stroke="black" points="622.153,-1050.07 611.954,-1047.19 618.136,-1055.8 622.153,-1050.07"/>
<text text-anchor="middle" x="778" y="-1061.33" font-family="Times,serif" font-size="14.00">gl_sort_pass</text>
</g>
<!-- q5&#45;&gt;q0 -->
<g id="edge68" class="edge"><title>q5&#45;&gt;q0</title>
<path fill="none" stroke="green" d="M964.057,-982.067C924.243,-990.394 821.62,-1011.93 736,-1030.53 727.992,-1032.27 726.142,-1033.6 718,-1034.53 686.67,-1038.1 650.399,-1037.77 626.216,-1036.92"/>
<polygon fill="green" stroke="green" points="626.15,-1033.41 616.016,-1036.5 625.865,-1040.41 626.15,-1033.41"/>
<text text-anchor="middle" x="778" y="-1034.33" font-family="Times,serif" font-size="14.00">gl_insert</text>
</g>
<!-- q5&#45;&gt;q0 -->
<g id="edge69" class="edge"><title>q5&#45;&gt;q0</title>
<path fill="none" stroke="green" d="M964.101,-975.885C923.081,-970.228 815.76,-960.034 736,-993.529 726.131,-997.673 727.539,-1004.67 718,-1009.53 688.779,-1024.4 651.3,-1030.8 626.286,-1033.53"/>
<polygon fill="green" stroke="green" points="625.685,-1030.07 616.067,-1034.51 626.358,-1037.04 625.685,-1030.07"/>
<text text-anchor="middle" x="778" y="-997.329" font-family="Times,serif" font-size="14.00">gl_read</text>
</g>
<!-- q5&#45;&gt;q0 -->
<g id="edge70" class="edge"><title>q5&#45;&gt;q0</title>
<path fill="none" stroke="black" d="M965.348,-971.011C924.46,-952.551 812.331,-909.585 736,-953.529 722.193,-961.478 730.356,-974.471 718,-984.529 687.481,-1009.37 669.408,-995.356 634,-1012.53 629.764,-1014.58 625.432,-1017.07 621.323,-1019.64"/>
<polygon fill="black" stroke="black" points="619.228,-1016.83 612.809,-1025.26 623.083,-1022.67 619.228,-1016.83"/>
<text text-anchor="middle" x="778" y="-957.329" font-family="Times,serif" font-size="14.00">gl_destroy</text>
</g>
<!-- q5&#45;&gt;q0 -->
<g id="edge71" class="edge"><title>q5&#45;&gt;q0</title>
<path fill="none" stroke="black" d="M969.211,-965.684C958.152,-954.496 940.574,-938.807 922,-930.529 846.215,-896.751 804.706,-868.012 736,-914.529 718.163,-926.605 733.672,-944.751 718,-959.529 689.368,-986.526 665.769,-964.305 634,-987.529 625.472,-993.763 618.166,-1002.69 612.469,-1011.16"/>
<polygon fill="black" stroke="black" points="609.47,-1009.36 607.13,-1019.69 615.403,-1013.07 609.47,-1009.36"/>
<text text-anchor="middle" x="778" y="-918.329" font-family="Times,serif" font-size="14.00">val_from_node</text>
</g>
<!-- q5&#45;&gt;q0 -->
<g id="edge72" class="edge"><title>q5&#45;&gt;q0</title>
<path fill="none" stroke="black" d="M974.388,-961.858C965.557,-941.859 947.949,-908.864 922,-891.529 852.824,-845.316 802.312,-820.294 736,-870.529 712.447,-888.371 738.391,-913.144 718,-934.529 690.843,-963.01 663.515,-936.499 634,-962.529 620.338,-974.578 611.538,-993.138 606.179,-1008.53"/>
<polygon fill="black" stroke="black" points="602.836,-1007.49 603.138,-1018.08 609.506,-1009.62 602.836,-1007.49"/>
<text text-anchor="middle" x="778" y="-874.329" font-family="Times,serif" font-size="14.00">gl_sort</text>
</g>
<!-- q5&#45;&gt;q0 -->
<g id="edge73" class="edge"><title>q5&#45;&gt;q0</title>
<path fill="none" stroke="green" d="M978.502,-960.446C973.438,-931.077 959.107,-873.303 922,-843.529 857.152,-791.495 800.533,-771.105 736,-823.529 705.69,-848.151 743.974,-880.369 718,-909.529 691.825,-938.914 662.121,-910 634,-937.529 615.028,-956.101 606.304,-985.644 602.315,-1007.44"/>
<polygon fill="green" stroke="green" points="598.839,-1007.01 600.712,-1017.44 605.751,-1008.12 598.839,-1007.01"/>
<text text-anchor="middle" x="778" y="-827.329" font-family="Times,serif" font-size="14.00">Learn_Assert</text>
</g>
<!-- q5&#45;&gt;q4 -->
<g id="edge65" class="edge"><title>q5&#45;&gt;q4</title>
<path fill="none" stroke="green" d="M988.179,-961.463C1007.31,-898.237 1075.51,-671.259 1126,-482.529 1139.02,-433.881 1152.78,-376.814 1160.59,-343.848"/>
<polygon fill="green" stroke="green" points="1164.02,-344.569 1162.91,-334.032 1157.21,-342.96 1164.02,-344.569"/>
<text text-anchor="middle" x="1084" y="-782.329" font-family="Times,serif" font-size="14.00">list_add</text>
</g>
<!-- q6&#45;&gt;q0 -->
<g id="edge74" class="edge"><title>q6&#45;&gt;q0</title>
<path fill="none" stroke="green" d="M761.76,-703.576C752.819,-709.107 742.109,-717.295 736,-727.529 711.508,-768.561 750.861,-798.836 718,-833.529 691.678,-861.318 660.609,-825.014 634,-852.529 613.026,-874.217 604.035,-961.468 600.699,-1007.22"/>
<polygon fill="green" stroke="green" points="597.196,-1007.15 600.003,-1017.36 604.18,-1007.63 597.196,-1007.15"/>
<text text-anchor="middle" x="676" y="-856.329" font-family="Times,serif" font-size="14.00">inspect</text>
</g>
<!-- q6&#45;&gt;q0 -->
<g id="edge75" class="edge"><title>q6&#45;&gt;q0</title>
<path fill="none" stroke="green" d="M761.68,-704.034C752.938,-709.633 742.466,-717.732 736,-727.529 718.778,-753.621 740.504,-773.828 718,-795.529 690.447,-822.098 660.166,-786.593 634,-814.529 608.286,-841.981 601.447,-954.369 599.641,-1007.48"/>
<polygon fill="green" stroke="green" points="596.14,-1007.46 599.335,-1017.56 603.137,-1007.67 596.14,-1007.46"/>
<text text-anchor="middle" x="676" y="-818.329" font-family="Times,serif" font-size="14.00">__list_add</text>
</g>
<!-- q6&#45;&gt;q0 -->
<g id="edge76" class="edge"><title>q6&#45;&gt;q0</title>
<path fill="none" stroke="black" d="M762.243,-705.036C753.908,-710.872 743.658,-718.872 736,-727.529 725.698,-739.175 730.597,-748.413 718,-757.529 686.991,-779.968 659.847,-748.297 634,-776.529 603.641,-809.688 599.311,-946.706 598.904,-1006.92"/>
<polygon fill="black" stroke="black" points="595.403,-1007.22 598.868,-1017.23 602.403,-1007.24 595.403,-1007.22"/>
<text text-anchor="middle" x="676" y="-780.329" font-family="Times,serif" font-size="14.00">__list_del</text>
</g>
<!-- q6&#45;&gt;q0 -->
<g id="edge77" class="edge"><title>q6&#45;&gt;q0</title>
<path fill="none" stroke="green" d="M761.233,-702.768C749.495,-707.953 732.981,-714.823 718,-719.529 681.483,-731.001 659.606,-710.079 634,-738.529 598.796,-777.644 597.399,-941.041 598.342,-1007.37"/>
<polygon fill="green" stroke="green" points="594.845,-1007.57 598.516,-1017.5 601.844,-1007.45 594.845,-1007.57"/>
<text text-anchor="middle" x="676" y="-742.329" font-family="Times,serif" font-size="14.00">list_add</text>
</g>
<!-- q6&#45;&gt;q0 -->
<g id="edge78" class="edge"><title>q6&#45;&gt;q0</title>
<path fill="none" stroke="black" d="M760.05,-693.487C726.167,-689.813 651.799,-683.92 634,-700.529 611.741,-721.3 602.535,-929.977 599.875,-1007.09"/>
<polygon fill="black" stroke="black" points="596.364,-1007.36 599.53,-1017.47 603.36,-1007.59 596.364,-1007.36"/>
<text text-anchor="middle" x="676" y="-704.329" font-family="Times,serif" font-size="14.00">list_move</text>
</g>
<!-- q6&#45;&gt;q0 -->
<g id="edge79" class="edge"><title>q6&#45;&gt;q0</title>
<path fill="none" stroke="black" d="M762.267,-686.054C733.649,-668.959 670.185,-637.647 634,-670.529 609.201,-693.063 601.519,-925.425 599.573,-1007.23"/>
<polygon fill="black" stroke="black" points="596.072,-1007.23 599.344,-1017.3 603.07,-1007.38 596.072,-1007.23"/>
<text text-anchor="middle" x="676" y="-674.329" font-family="Times,serif" font-size="14.00">gl_sort_pass</text>
</g>
<!-- q6&#45;&gt;q0 -->
<g id="edge81" class="edge"><title>q6&#45;&gt;q0</title>
<path fill="none" stroke="green" d="M767.305,-680.849C756.999,-666.713 739.27,-646.233 718,-637.529 683.448,-623.39 661.531,-612.313 634,-637.529 606.806,-662.436 600.64,-920.597 599.332,-1007.3"/>
<polygon fill="green" stroke="green" points="595.83,-1007.41 599.189,-1017.46 602.829,-1007.51 595.83,-1007.41"/>
<text text-anchor="middle" x="676" y="-641.329" font-family="Times,serif" font-size="14.00">gl_read</text>
</g>
<!-- q6&#45;&gt;q0 -->
<g id="edge82" class="edge"><title>q6&#45;&gt;q0</title>
<path fill="none" stroke="black" d="M771.769,-678.51C764.008,-656.6 747.136,-619.457 718,-603.529 685.242,-585.621 661.444,-578.219 634,-603.529 604.334,-630.889 599.81,-915.766 599.122,-1007.35"/>
<polygon fill="black" stroke="black" points="595.621,-1007.5 599.056,-1017.53 602.621,-1007.55 595.621,-1007.5"/>
<text text-anchor="middle" x="676" y="-607.329" font-family="Times,serif" font-size="14.00">gl_destroy</text>
</g>
<!-- q6&#45;&gt;q0 -->
<g id="edge83" class="edge"><title>q6&#45;&gt;q0</title>
<path fill="none" stroke="black" d="M774.729,-677.691C769.993,-648.873 756.121,-592.853 718,-568.529 686.528,-548.447 661.367,-543.136 634,-568.529 601.791,-598.415 599.021,-910.813 598.939,-1007.3"/>
<polygon fill="black" stroke="black" points="595.439,-1007.47 598.94,-1017.47 602.439,-1007.47 595.439,-1007.47"/>
<text text-anchor="middle" x="676" y="-572.329" font-family="Times,serif" font-size="14.00">val_from_node</text>
</g>
<!-- q6&#45;&gt;q0 -->
<g id="edge84" class="edge"><title>q6&#45;&gt;q0</title>
<path fill="none" stroke="black" d="M776.705,-677.378C775.034,-642.378 765.797,-566.06 718,-532.529 687.437,-511.088 661.3,-507.063 634,-532.529 599.144,-565.044 598.264,-906.36 598.777,-1007.46"/>
<polygon fill="black" stroke="black" points="595.278,-1007.55 598.837,-1017.53 602.278,-1007.51 595.278,-1007.55"/>
<text text-anchor="middle" x="676" y="-536.329" font-family="Times,serif" font-size="14.00">gl_sort</text>
</g>
<!-- q6&#45;&gt;q0 -->
<g id="edge85" class="edge"><title>q6&#45;&gt;q0</title>
<path fill="none" stroke="green" d="M774.432,-677.613C767.627,-632.942 747.598,-518.625 718,-496.529 688.084,-474.195 661.241,-471 634,-496.529 596.539,-531.637 597.557,-901.131 598.634,-1007.21"/>
<polygon fill="green" stroke="green" points="595.137,-1007.49 598.747,-1017.45 602.137,-1007.41 595.137,-1007.49"/>
<text text-anchor="middle" x="676" y="-500.329" font-family="Times,serif" font-size="14.00">Learn_Assert</text>
</g>
<!-- q6&#45;&gt;q5 -->
<g id="edge80" class="edge"><title>q6&#45;&gt;q5</title>
<path fill="none" stroke="green" d="M796.16,-693.03C825.976,-689.734 887.458,-687.729 922,-720.529 955.093,-751.952 972.352,-889.942 978.425,-950.205"/>
<polygon fill="green" stroke="green" points="974.976,-950.897 979.43,-960.51 981.943,-950.217 974.976,-950.897"/>
<text text-anchor="middle" x="880" y="-724.329" font-family="Times,serif" font-size="14.00">gl_insert</text>
</g>
<!-- iq0 -->
<g id="node9" class="node"><title>iq0</title>
</g>
<!-- iq0&#45;&gt;q0 -->
<g id="edge1" class="edge"><title>iq0&#45;&gt;q0</title>
<path fill="none" stroke="blue" d="M257.046,-827.368C318.908,-819.086 475.908,-807.714 562,-888.529 579.017,-904.503 589.287,-969.288 593.968,-1007.31"/>
<polygon fill="blue" stroke="blue" points="590.548,-1008.2 595.192,-1017.72 597.5,-1007.38 590.548,-1008.2"/>
</g>
</g>
</svg>
