<?xml version="1.0" encoding="UTF-8" standalone="no"?>
<!DOCTYPE svg PUBLIC "-//W3C//DTD SVG 1.1//EN"
 "http://www.w3.org/Graphics/SVG/1.1/DTD/svg11.dtd">
<!-- Generated by graphviz version 2.34.0 (20141125.1709)
 -->
<!-- Title: finite_automaton Pages: 1 -->
<svg width="291pt" height="576pt"
 viewBox="0.00 0.00 291.22 576.00" xmlns="http://www.w3.org/2000/svg" xmlns:xlink="http://www.w3.org/1999/xlink">
<g id="graph0" class="graph" transform="scale(0.151521 0.151521) rotate(0) translate(4 3797.45)">
<title>finite_automaton</title>
<polygon fill="white" stroke="white" points="-4,4 -4,-3797.45 1918,-3797.45 1918,4 -4,4"/>
<!-- dom_edges -->
<g id="node1" class="node"><title>dom_edges</title>
<polygon fill="none" stroke="green" points="459.5,-1580.45 0.5,-1580.45 0.5,-1544.45 459.5,-1544.45 459.5,-1580.45"/>
<text text-anchor="middle" x="230" y="-1558.75" font-family="Times,serif" font-size="14.00">Dominating edges: inspect, __list_add, list_add, gl_insert, gl_read, Learn_Assert</text>
</g>
<!-- q1 -->
<g id="node2" class="node"><title>q1</title>
<ellipse fill="none" stroke="green" cx="230" cy="-1877.45" rx="18" ry="18"/>
<ellipse fill="none" stroke="green" cx="230" cy="-1877.45" rx="22" ry="22"/>
<text text-anchor="middle" x="230" y="-1873.75" font-family="Times,serif" font-size="14.00">D</text>
</g>
<!-- q0 -->
<g id="node3" class="node"><title>q0</title>
<ellipse fill="none" stroke="green" cx="598" cy="-1820.45" rx="18" ry="18"/>
<text text-anchor="middle" x="598" y="-1816.75" font-family="Times,serif" font-size="14.00">D</text>
</g>
<!-- q1&#45;&gt;q0 -->
<g id="edge14" class="edge"><title>q1&#45;&gt;q0</title>
<path fill="none" stroke="green" d="M244.31,-1894.3C291.808,-1952.46 455.789,-2136.42 562,-2045.45 591.204,-2020.44 596.235,-1903.52 596.967,-1848.81"/>
<polygon fill="green" stroke="green" points="600.467,-1848.78 597.062,-1838.75 593.467,-1848.71 600.467,-1848.78"/>
<text text-anchor="middle" x="520" y="-2073.25" font-family="Times,serif" font-size="14.00">inspect</text>
</g>
<!-- q1&#45;&gt;q0 -->
<g id="edge15" class="edge"><title>q1&#45;&gt;q0</title>
<path fill="none" stroke="green" d="M248.069,-1890.27C286.569,-1918.27 384.148,-1984.26 478,-2007.45 514.243,-2016.41 533.276,-2031.3 562,-2007.45 585.93,-1987.59 593.593,-1895.75 595.972,-1848.58"/>
<polygon fill="green" stroke="green" points="599.476,-1848.58 596.437,-1838.43 592.483,-1848.26 599.476,-1848.58"/>
<text text-anchor="middle" x="520" y="-2023.25" font-family="Times,serif" font-size="14.00">__list_add</text>
</g>
<!-- q1&#45;&gt;q0 -->
<g id="edge16" class="edge"><title>q1&#45;&gt;q0</title>
<path fill="none" stroke="black" d="M250.322,-1887.05C313.362,-1917.74 511.862,-2009.18 562,-1969.45 580.657,-1954.67 590.342,-1887.6 594.475,-1848.67"/>
<polygon fill="black" stroke="black" points="597.98,-1848.81 595.497,-1838.51 591.015,-1848.11 597.98,-1848.81"/>
<text text-anchor="middle" x="520" y="-1982.25" font-family="Times,serif" font-size="14.00">__list_del</text>
</g>
<!-- q1&#45;&gt;q0 -->
<g id="edge17" class="edge"><title>q1&#45;&gt;q0</title>
<path fill="none" stroke="green" d="M251.195,-1884.46C315.137,-1906.1 511.875,-1968.21 562,-1931.45 587.636,-1912.66 594.982,-1875.04 596.835,-1848.84"/>
<polygon fill="green" stroke="green" points="600.337,-1848.89 597.322,-1838.73 593.345,-1848.55 600.337,-1848.89"/>
<text text-anchor="middle" x="520" y="-1946.25" font-family="Times,serif" font-size="14.00">list_add</text>
</g>
<!-- q1&#45;&gt;q0 -->
<g id="edge18" class="edge"><title>q1&#45;&gt;q0</title>
<path fill="none" stroke="black" d="M251.942,-1881.5C316.351,-1893.5 510.269,-1926.02 562,-1893.45 577.709,-1883.56 586.525,-1864.45 591.379,-1848.26"/>
<polygon fill="black" stroke="black" points="594.874,-1848.73 594.029,-1838.17 588.103,-1846.95 594.874,-1848.73"/>
<text text-anchor="middle" x="520" y="-1911.25" font-family="Times,serif" font-size="14.00">list_move</text>
</g>
<!-- q1&#45;&gt;q0 -->
<g id="edge19" class="edge"><title>q1&#45;&gt;q0</title>
<path fill="none" stroke="black" d="M252.046,-1877.96C315.893,-1879.21 506.406,-1880.67 562,-1855.45 568.625,-1852.45 574.696,-1847.6 579.854,-1842.46"/>
<polygon fill="black" stroke="black" points="582.588,-1844.66 586.718,-1834.9 577.405,-1839.95 582.588,-1844.66"/>
<text text-anchor="middle" x="520" y="-1874.25" font-family="Times,serif" font-size="14.00">gl_sort_pass</text>
</g>
<!-- q1&#45;&gt;q0 -->
<g id="edge20" class="edge"><title>q1&#45;&gt;q0</title>
<path fill="none" stroke="green" d="M251.784,-1873.78C294.229,-1866.33 393.961,-1849.07 478,-1836.45 509.463,-1831.73 545.708,-1826.95 569.849,-1823.86"/>
<polygon fill="green" stroke="green" points="570.55,-1827.3 580.029,-1822.57 569.668,-1820.36 570.55,-1827.3"/>
<text text-anchor="middle" x="520" y="-1840.25" font-family="Times,serif" font-size="14.00">gl_insert</text>
</g>
<!-- q1&#45;&gt;q0 -->
<g id="edge21" class="edge"><title>q1&#45;&gt;q0</title>
<path fill="none" stroke="green" d="M250.745,-1869.6C292.084,-1853.64 391.111,-1817.86 478,-1805.45 514.959,-1800.18 525.429,-1797.95 562,-1805.45 565.473,-1806.17 569.026,-1807.24 572.475,-1808.49"/>
<polygon fill="green" stroke="green" points="571.18,-1811.74 581.759,-1812.33 573.857,-1805.27 571.18,-1811.74"/>
<text text-anchor="middle" x="520" y="-1809.25" font-family="Times,serif" font-size="14.00">gl_read</text>
</g>
<!-- q1&#45;&gt;q0 -->
<g id="edge22" class="edge"><title>q1&#45;&gt;q0</title>
<path fill="none" stroke="black" d="M249.809,-1867.33C290.172,-1846.24 388.693,-1798.2 478,-1781.45 514.694,-1774.57 527.907,-1766.24 562,-1781.45 569.711,-1784.89 576.431,-1790.97 581.865,-1797.31"/>
<polygon fill="black" stroke="black" points="579.159,-1799.53 588.039,-1805.31 584.702,-1795.26 579.159,-1799.53"/>
<text text-anchor="middle" x="520" y="-1785.25" font-family="Times,serif" font-size="14.00">gl_destroy</text>
</g>
<!-- q1&#45;&gt;q0 -->
<g id="edge23" class="edge"><title>q1&#45;&gt;q0</title>
<path fill="none" stroke="black" d="M248.464,-1865.02C287.372,-1838.18 385.087,-1775.47 478,-1753.45 514.328,-1744.85 530.069,-1734.11 562,-1753.45 576.318,-1762.13 585.057,-1778.79 590.222,-1793.33"/>
<polygon fill="black" stroke="black" points="586.905,-1794.45 593.252,-1802.93 593.58,-1792.34 586.905,-1794.45"/>
<text text-anchor="middle" x="520" y="-1757.25" font-family="Times,serif" font-size="14.00">val_from_node</text>
</g>
<!-- q1&#45;&gt;q0 -->
<g id="edge24" class="edge"><title>q1&#45;&gt;q0</title>
<path fill="none" stroke="black" d="M246.782,-1863.05C283.772,-1830.4 380.348,-1751.4 478,-1723.45 513.892,-1713.18 531.448,-1702 562,-1723.45 584.007,-1738.91 592.239,-1769.62 595.284,-1792.37"/>
<polygon fill="black" stroke="black" points="591.822,-1792.92 596.374,-1802.48 598.782,-1792.17 591.822,-1792.92"/>
<text text-anchor="middle" x="520" y="-1727.25" font-family="Times,serif" font-size="14.00">gl_sort</text>
</g>
<!-- q1&#45;&gt;q0 -->
<g id="edge25" class="edge"><title>q1&#45;&gt;q0</title>
<path fill="none" stroke="green" d="M245.088,-1861.28C279.895,-1822.72 374.654,-1726.01 478,-1691.45 513.406,-1679.61 532.346,-1668.77 562,-1691.45 577.925,-1703.63 588.298,-1758.15 593.359,-1792.29"/>
<polygon fill="green" stroke="green" points="589.948,-1793.17 594.815,-1802.58 596.879,-1792.19 589.948,-1793.17"/>
<text text-anchor="middle" x="520" y="-1695.25" font-family="Times,serif" font-size="14.00">Learn_Assert</text>
</g>
<!-- q0&#45;&gt;q0 -->
<g id="edge2" class="edge"><title>q0&#45;&gt;q0</title>
<path fill="none" stroke="green" d="M596.553,-1838.61C596.33,-1847.99 596.812,-1856.45 598,-1856.45 598.724,-1856.45 599.185,-1853.31 599.385,-1848.73"/>
<polygon fill="green" stroke="green" points="602.886,-1848.63 599.447,-1838.61 595.886,-1848.58 602.886,-1848.63"/>
<text text-anchor="middle" x="598" y="-1860.25" font-family="Times,serif" font-size="14.00">inspect</text>
</g>
<!-- q0&#45;&gt;q0 -->
<g id="edge3" class="edge"><title>q0&#45;&gt;q0</title>
<path fill="none" stroke="green" d="M595.595,-1838.43C594.308,-1855.65 595.109,-1874.45 598,-1874.45 600.326,-1874.45 601.299,-1862.28 600.92,-1848.55"/>
<polygon fill="green" stroke="green" points="604.409,-1848.24 600.405,-1838.43 597.418,-1848.6 604.409,-1848.24"/>
<text text-anchor="middle" x="598" y="-1878.25" font-family="Times,serif" font-size="14.00">__list_add</text>
</g>
<!-- q0&#45;&gt;q0 -->
<g id="edge4" class="edge"><title>q0&#45;&gt;q0</title>
<path fill="none" stroke="black" d="M594.964,-1838.53C592.277,-1862.86 593.289,-1892.45 598,-1892.45 602.067,-1892.45 603.377,-1870.4 601.931,-1848.72"/>
<polygon fill="black" stroke="black" points="605.398,-1848.19 601.036,-1838.53 598.425,-1848.8 605.398,-1848.19"/>
<text text-anchor="middle" x="598" y="-1896.25" font-family="Times,serif" font-size="14.00">__list_del</text>
</g>
<!-- q0&#45;&gt;q0 -->
<g id="edge5" class="edge"><title>q0&#45;&gt;q0</title>
<path fill="none" stroke="green" d="M594.523,-1838.57C590.247,-1869.69 591.406,-1910.45 598,-1910.45 603.898,-1910.45 605.448,-1877.84 602.649,-1848.68"/>
<polygon fill="green" stroke="green" points="606.105,-1848.1 601.477,-1838.57 599.151,-1848.9 606.105,-1848.1"/>
<text text-anchor="middle" x="598" y="-1914.25" font-family="Times,serif" font-size="14.00">list_add</text>
</g>
<!-- q0&#45;&gt;q0 -->
<g id="edge6" class="edge"><title>q0&#45;&gt;q0</title>
<path fill="none" stroke="black" d="M594.249,-1838.25C588.215,-1876 589.465,-1928.45 598,-1928.45 605.802,-1928.45 607.517,-1884.63 603.145,-1848.27"/>
<polygon fill="black" stroke="black" points="606.596,-1847.67 601.751,-1838.25 599.663,-1848.64 606.596,-1847.67"/>
<text text-anchor="middle" x="598" y="-1932.25" font-family="Times,serif" font-size="14.00">list_move</text>
</g>
<!-- q0&#45;&gt;q0 -->
<g id="edge7" class="edge"><title>q0&#45;&gt;q0</title>
<path fill="none" stroke="black" d="M594.01,-1838.22C586.193,-1882.43 587.523,-1946.45 598,-1946.45 607.699,-1946.45 609.559,-1891.58 603.579,-1848.36"/>
<polygon fill="black" stroke="black" points="606.997,-1847.56 601.99,-1838.22 600.081,-1848.64 606.997,-1847.56"/>
<text text-anchor="middle" x="598" y="-1950.25" font-family="Times,serif" font-size="14.00">gl_sort_pass</text>
</g>
<!-- q0&#45;&gt;q0 -->
<g id="edge8" class="edge"><title>q0&#45;&gt;q0</title>
<path fill="none" stroke="green" d="M593.845,-1838.07C584.174,-1888.64 585.559,-1964.45 598,-1964.45 609.64,-1964.45 611.602,-1898.1 603.887,-1848.14"/>
<polygon fill="green" stroke="green" points="607.301,-1847.33 602.155,-1838.07 600.402,-1848.52 607.301,-1847.33"/>
<text text-anchor="middle" x="598" y="-1968.25" font-family="Times,serif" font-size="14.00">gl_insert</text>
</g>
<!-- q0&#45;&gt;q0 -->
<g id="edge10" class="edge"><title>q0&#45;&gt;q0</title>
<path fill="none" stroke="black" d="M593.695,-1838.04C582.159,-1894.9 583.594,-1982.45 598,-1982.45 611.59,-1982.45 613.637,-1904.53 604.14,-1847.97"/>
<polygon fill="black" stroke="black" points="607.563,-1847.24 602.305,-1838.04 600.68,-1848.51 607.563,-1847.24"/>
<text text-anchor="middle" x="598" y="-1986.25" font-family="Times,serif" font-size="14.00">gl_destroy</text>
</g>
<!-- q0&#45;&gt;q0 -->
<g id="edge11" class="edge"><title>q0&#45;&gt;q0</title>
<path fill="none" stroke="black" d="M593.584,-1837.95C580.145,-1901.05 581.617,-2000.45 598,-2000.45 613.551,-2000.45 615.667,-1910.89 604.348,-1847.82"/>
<polygon fill="black" stroke="black" points="607.771,-1847.09 602.416,-1837.95 600.901,-1848.43 607.771,-1847.09"/>
<text text-anchor="middle" x="598" y="-2004.25" font-family="Times,serif" font-size="14.00">val_from_node</text>
</g>
<!-- q0&#45;&gt;q0 -->
<g id="edge12" class="edge"><title>q0&#45;&gt;q0</title>
<path fill="none" stroke="black" d="M593.482,-1837.92C578.135,-1907.22 579.641,-2018.45 598,-2018.45 615.499,-2018.45 617.687,-1917.4 604.565,-1847.92"/>
<polygon fill="black" stroke="black" points="607.951,-1847.01 602.518,-1837.92 601.094,-1848.42 607.951,-1847.01"/>
<text text-anchor="middle" x="598" y="-2022.25" font-family="Times,serif" font-size="14.00">gl_sort</text>
</g>
<!-- q0&#45;&gt;q0 -->
<g id="edge13" class="edge"><title>q0&#45;&gt;q0</title>
<path fill="none" stroke="green" d="M593.356,-1838.06C576.128,-1913.56 577.676,-2036.45 598,-2036.45 617.451,-2036.45 619.705,-1923.89 604.761,-1848.04"/>
<polygon fill="green" stroke="green" points="608.143,-1847.12 602.644,-1838.06 601.295,-1848.57 608.143,-1847.12"/>
<text text-anchor="middle" x="598" y="-2040.25" font-family="Times,serif" font-size="14.00">Learn_Assert</text>
</g>
<!-- q9 -->
<g id="node11" class="node"><title>q9</title>
<ellipse fill="none" stroke="green" cx="778" cy="-223.453" rx="18" ry="18"/>
<text text-anchor="middle" x="778" y="-219.753" font-family="Times,serif" font-size="14.00">D</text>
</g>
<!-- q0&#45;&gt;q9 -->
<g id="edge9" class="edge"><title>q0&#45;&gt;q9</title>
<path fill="none" stroke="green" d="M599.152,-1802.3C600.543,-1639.97 611.552,-443.127 634,-414.453 657.861,-383.975 691.025,-419.213 718,-391.453 741.589,-367.179 725.194,-349.53 736,-317.453 744.084,-293.459 755.838,-267.115 764.691,-248.437"/>
<polygon fill="green" stroke="green" points="767.847,-249.95 769.021,-239.421 761.537,-246.92 767.847,-249.95"/>
<text text-anchor="middle" x="676" y="-418.253" font-family="Times,serif" font-size="14.00">gl_read</text>
</g>
<!-- q2 -->
<g id="node4" class="node"><title>q2</title>
<ellipse fill="none" stroke="green" cx="1896" cy="-3454.45" rx="18" ry="18"/>
<text text-anchor="middle" x="1896" y="-3450.75" font-family="Times,serif" font-size="14.00">D</text>
</g>
<!-- q2&#45;&gt;q1 -->
<g id="edge37" class="edge"><title>q2&#45;&gt;q1</title>
<path fill="none" stroke="green" d="M1894.62,-3472.51C1893.18,-3526.45 1886.72,-3685.35 1860,-3728.45 1838.89,-3762.5 1825.06,-3778.45 1785,-3778.45 597,-3778.45 597,-3778.45 597,-3778.45 398.503,-3778.45 254.68,-2159.62 233.658,-1909.69"/>
<polygon fill="green" stroke="green" points="237.124,-1909.13 232.802,-1899.46 230.148,-1909.72 237.124,-1909.13"/>
<text text-anchor="middle" x="1288" y="-3782.25" font-family="Times,serif" font-size="14.00">Learn_Assert</text>
</g>
<!-- q2&#45;&gt;q0 -->
<g id="edge26" class="edge"><title>q2&#45;&gt;q0</title>
<path fill="none" stroke="green" d="M1894.55,-3472.45C1892.97,-3522.53 1886.26,-3662.25 1860,-3698.45 1838.18,-3728.54 1822.17,-3735.45 1785,-3735.45 777,-3735.45 777,-3735.45 777,-3735.45 711.351,-3735.45 674.67,-3749.99 634,-3698.45 604.061,-3660.52 599.556,-2081.69 599.055,-1848.98"/>
<polygon fill="green" stroke="green" points="602.554,-1848.64 599.033,-1838.64 595.554,-1848.65 602.554,-1848.64"/>
<text text-anchor="middle" x="1390" y="-3739.25" font-family="Times,serif" font-size="14.00">inspect</text>
</g>
<!-- q2&#45;&gt;q0 -->
<g id="edge27" class="edge"><title>q2&#45;&gt;q0</title>
<path fill="none" stroke="green" d="M1893.77,-3472.61C1890.57,-3515.18 1880.75,-3619.92 1860,-3647.45 1837.63,-3677.13 1822.17,-3684.45 1785,-3684.45 777,-3684.45 777,-3684.45 777,-3684.45 711.351,-3684.45 674.683,-3698.98 634,-3647.45 604.879,-3610.57 599.68,-2076.19 599.069,-1848.56"/>
<polygon fill="green" stroke="green" points="602.568,-1848.43 599.042,-1838.44 595.568,-1848.45 602.568,-1848.43"/>
<text text-anchor="middle" x="1390" y="-3688.25" font-family="Times,serif" font-size="14.00">__list_add</text>
</g>
<!-- q2&#45;&gt;q0 -->
<g id="edge28" class="edge"><title>q2&#45;&gt;q0</title>
<path fill="none" stroke="black" d="M1895.21,-3472.71C1894.6,-3501.99 1889.43,-3559.84 1860,-3596.45 1836.71,-3625.42 1822.17,-3633.45 1785,-3633.45 777,-3633.45 777,-3633.45 777,-3633.45 711.351,-3633.45 674.698,-3647.96 634,-3596.45 605.725,-3560.67 599.817,-2073.63 599.085,-1848.8"/>
<polygon fill="black" stroke="black" points="602.584,-1848.5 599.052,-1838.51 595.584,-1848.52 602.584,-1848.5"/>
<text text-anchor="middle" x="1390" y="-3637.25" font-family="Times,serif" font-size="14.00">__list_del</text>
</g>
<!-- q2&#45;&gt;q0 -->
<g id="edge29" class="edge"><title>q2&#45;&gt;q0</title>
<path fill="none" stroke="green" d="M1892.16,-3472.23C1888.15,-3492.21 1879.06,-3524.58 1860,-3545.45 1834.94,-3572.91 1822.17,-3582.45 1785,-3582.45 777,-3582.45 777,-3582.45 777,-3582.45 711.351,-3582.45 674.713,-3596.95 634,-3545.45 606.555,-3510.74 599.952,-2069.36 599.102,-1848.67"/>
<polygon fill="green" stroke="green" points="602.601,-1848.54 599.063,-1838.55 595.601,-1848.57 602.601,-1848.54"/>
<text text-anchor="middle" x="1390" y="-3586.25" font-family="Times,serif" font-size="14.00">list_add</text>
</g>
<!-- q2&#45;&gt;q0 -->
<g id="edge30" class="edge"><title>q2&#45;&gt;q0</title>
<path fill="none" stroke="black" d="M1884.55,-3468.58C1866.78,-3490.81 1828.36,-3531.45 1785,-3531.45 777,-3531.45 777,-3531.45 777,-3531.45 711.351,-3531.45 674.729,-3545.94 634,-3494.45 607.397,-3460.82 600.097,-2066.29 599.12,-1848.83"/>
<polygon fill="black" stroke="black" points="602.619,-1848.56 599.075,-1838.57 595.619,-1848.59 602.619,-1848.56"/>
<text text-anchor="middle" x="1390" y="-3535.25" font-family="Times,serif" font-size="14.00">list_move</text>
</g>
<!-- q2&#45;&gt;q0 -->
<g id="edge31" class="edge"><title>q2&#45;&gt;q0</title>
<path fill="none" stroke="black" d="M1878.88,-3460.75C1857.69,-3468.44 1819.14,-3480.45 1785,-3480.45 777,-3480.45 777,-3480.45 777,-3480.45 711.351,-3480.45 674.745,-3494.93 634,-3443.45 608.223,-3410.89 600.239,-2061.62 599.138,-1848.63"/>
<polygon fill="black" stroke="black" points="602.638,-1848.55 599.087,-1838.57 595.638,-1848.58 602.638,-1848.55"/>
<text text-anchor="middle" x="1390" y="-3484.25" font-family="Times,serif" font-size="14.00">gl_sort_pass</text>
</g>
<!-- q2&#45;&gt;q0 -->
<g id="edge32" class="edge"><title>q2&#45;&gt;q0</title>
<path fill="none" stroke="green" d="M1878.86,-3448.4C1857.65,-3441 1819.08,-3429.45 1785,-3429.45 777,-3429.45 777,-3429.45 777,-3429.45 711.351,-3429.45 674.763,-3443.91 634,-3392.45 609.06,-3360.97 600.392,-2058.06 599.159,-1848.71"/>
<polygon fill="green" stroke="green" points="602.658,-1848.51 599.1,-1838.53 595.658,-1848.55 602.658,-1848.51"/>
<text text-anchor="middle" x="1390" y="-3433.25" font-family="Times,serif" font-size="14.00">gl_insert</text>
</g>
<!-- q2&#45;&gt;q0 -->
<g id="edge33" class="edge"><title>q2&#45;&gt;q0</title>
<path fill="none" stroke="green" d="M1884.51,-3440.51C1866.68,-3418.57 1828.17,-3378.45 1785,-3378.45 777,-3378.45 777,-3378.45 777,-3378.45 711.351,-3378.45 674.783,-3392.9 634,-3341.45 609.895,-3311.05 600.549,-2054.23 599.181,-1848.73"/>
<polygon fill="green" stroke="green" points="602.679,-1848.45 599.113,-1838.47 595.679,-1848.5 602.679,-1848.45"/>
<text text-anchor="middle" x="1390" y="-3382.25" font-family="Times,serif" font-size="14.00">gl_read</text>
</g>
<!-- q2&#45;&gt;q0 -->
<g id="edge34" class="edge"><title>q2&#45;&gt;q0</title>
<path fill="none" stroke="black" d="M1889.42,-3437.59C1876.8,-3403.04 1842.61,-3327.45 1785,-3327.45 777,-3327.45 777,-3327.45 777,-3327.45 711.351,-3327.45 674.803,-3341.88 634,-3290.45 610.727,-3261.12 600.71,-2050.2 599.204,-1848.73"/>
<polygon fill="black" stroke="black" points="602.703,-1848.62 599.129,-1838.64 595.703,-1848.67 602.703,-1848.62"/>
<text text-anchor="middle" x="1390" y="-3331.25" font-family="Times,serif" font-size="14.00">gl_destroy</text>
</g>
<!-- q2&#45;&gt;q0 -->
<g id="edge35" class="edge"><title>q2&#45;&gt;q0</title>
<path fill="none" stroke="black" d="M1892.61,-3436.74C1885.46,-3391.71 1859.83,-3276.45 1785,-3276.45 777,-3276.45 777,-3276.45 777,-3276.45 711.351,-3276.45 674.825,-3290.86 634,-3239.45 611.557,-3211.19 600.876,-2045.83 599.228,-1848.65"/>
<polygon fill="black" stroke="black" points="602.727,-1848.49 599.144,-1838.52 595.727,-1848.55 602.727,-1848.49"/>
<text text-anchor="middle" x="1390" y="-3280.25" font-family="Times,serif" font-size="14.00">val_from_node</text>
</g>
<!-- q2&#45;&gt;q0 -->
<g id="edge36" class="edge"><title>q2&#45;&gt;q0</title>
<path fill="none" stroke="black" d="M1894.66,-3436.48C1892.58,-3382.5 1878.5,-3225.45 1785,-3225.45 777,-3225.45 777,-3225.45 777,-3225.45 710.884,-3225.45 674.465,-3236.74 634,-3184.45 612.812,-3157.07 601.129,-2041.68 599.265,-1848.74"/>
<polygon fill="black" stroke="black" points="602.763,-1848.53 599.168,-1838.56 595.764,-1848.6 602.763,-1848.53"/>
<text text-anchor="middle" x="1390" y="-3229.25" font-family="Times,serif" font-size="14.00">gl_sort</text>
</g>
<!-- q3 -->
<g id="node5" class="node"><title>q3</title>
<ellipse fill="none" stroke="black" cx="1784" cy="-2989.45" rx="18" ry="18"/>
<text text-anchor="middle" x="1784" y="-2985.75" font-family="Times,serif" font-size="14.00">D</text>
</g>
<!-- q3&#45;&gt;q0 -->
<g id="edge39" class="edge"><title>q3&#45;&gt;q0</title>
<path fill="none" stroke="green" d="M1781.59,-3007.33C1778.19,-3045.74 1768.31,-3134.32 1748,-3155.45 1717.82,-3186.85 1696.55,-3179.45 1653,-3179.45 777,-3179.45 777,-3179.45 777,-3179.45 712.556,-3179.45 676.269,-3204.1 634,-3155.45 611.787,-3129.89 600.961,-2038.33 599.245,-1848.46"/>
<polygon fill="green" stroke="green" points="602.744,-1848.41 599.155,-1838.44 595.745,-1848.47 602.744,-1848.41"/>
<text text-anchor="middle" x="1288" y="-3183.25" font-family="Times,serif" font-size="14.00">__list_add</text>
</g>
<!-- q3&#45;&gt;q0 -->
<g id="edge40" class="edge"><title>q3&#45;&gt;q0</title>
<path fill="none" stroke="black" d="M1783.43,-3007.54C1783.05,-3035.21 1778.1,-3087.93 1748,-3117.45 1716.91,-3147.95 1696.55,-3141.45 1653,-3141.45 777,-3141.45 777,-3141.45 777,-3141.45 712.556,-3141.45 676.287,-3166.08 634,-3117.45 612.466,-3092.69 601.128,-2037.63 599.273,-1849.12"/>
<polygon fill="black" stroke="black" points="602.771,-1848.87 599.173,-1838.9 595.771,-1848.94 602.771,-1848.87"/>
<text text-anchor="middle" x="1288" y="-3145.25" font-family="Times,serif" font-size="14.00">__list_del</text>
</g>
<!-- q3&#45;&gt;q0 -->
<g id="edge41" class="edge"><title>q3&#45;&gt;q0</title>
<path fill="none" stroke="green" d="M1780.92,-3007.44C1777.58,-3027.87 1769.11,-3060.8 1748,-3079.45 1715.37,-3108.29 1696.55,-3103.45 1653,-3103.45 777,-3103.45 777,-3103.45 777,-3103.45 712.556,-3103.45 676.307,-3128.07 634,-3079.45 613.108,-3055.45 601.264,-2033.42 599.294,-1848.86"/>
<polygon fill="green" stroke="green" points="602.794,-1848.81 599.188,-1838.84 595.794,-1848.88 602.794,-1848.81"/>
<text text-anchor="middle" x="1288" y="-3107.25" font-family="Times,serif" font-size="14.00">list_add</text>
</g>
<!-- q3&#45;&gt;q0 -->
<g id="edge42" class="edge"><title>q3&#45;&gt;q0</title>
<path fill="none" stroke="black" d="M1775.88,-3005.92C1770.03,-3017.54 1760.64,-3032.56 1748,-3041.45 1712.38,-3066.5 1696.55,-3065.45 1653,-3065.45 777,-3065.45 777,-3065.45 777,-3065.45 712.556,-3065.45 676.328,-3090.05 634,-3041.45 593.582,-2995.05 597.686,-2028.8 598.802,-1849.09"/>
<polygon fill="black" stroke="black" points="602.303,-1848.87 598.868,-1838.85 595.304,-1848.83 602.303,-1848.87"/>
<text text-anchor="middle" x="1288" y="-3069.25" font-family="Times,serif" font-size="14.00">list_move</text>
</g>
<!-- q3&#45;&gt;q0 -->
<g id="edge43" class="edge"><title>q3&#45;&gt;q0</title>
<path fill="none" stroke="black" d="M1767.42,-2997.14C1743.45,-3008.25 1695.8,-3027.45 1653,-3027.45 777,-3027.45 777,-3027.45 777,-3027.45 712.556,-3027.45 676.35,-3052.03 634,-3003.45 594.86,-2958.56 597.91,-2024.3 598.831,-1848.75"/>
<polygon fill="black" stroke="black" points="602.331,-1848.76 598.886,-1838.74 595.331,-1848.72 602.331,-1848.76"/>
<text text-anchor="middle" x="1288" y="-3031.25" font-family="Times,serif" font-size="14.00">gl_sort_pass</text>
</g>
<!-- q3&#45;&gt;q0 -->
<g id="edge44" class="edge"><title>q3&#45;&gt;q0</title>
<path fill="none" stroke="green" d="M1765.76,-2989.45C1740.86,-2989.45 1693.4,-2989.45 1653,-2989.45 777,-2989.45 777,-2989.45 777,-2989.45 712.556,-2989.45 676.374,-3014.01 634,-2965.45 596.153,-2922.09 598.136,-2020.56 598.861,-1848.64"/>
<polygon fill="green" stroke="green" points="602.361,-1848.62 598.905,-1838.6 595.361,-1848.58 602.361,-1848.62"/>
<text text-anchor="middle" x="1288" y="-2993.25" font-family="Times,serif" font-size="14.00">gl_insert</text>
</g>
<!-- q3&#45;&gt;q0 -->
<g id="edge45" class="edge"><title>q3&#45;&gt;q0</title>
<path fill="none" stroke="green" d="M1767.42,-2981.76C1743.45,-2970.66 1695.8,-2951.45 1653,-2951.45 777,-2951.45 777,-2951.45 777,-2951.45 712.556,-2951.45 676.4,-2975.99 634,-2927.45 597.443,-2885.61 598.369,-2016.63 598.892,-1848.49"/>
<polygon fill="green" stroke="green" points="602.392,-1848.45 598.926,-1838.44 595.392,-1848.43 602.392,-1848.45"/>
<text text-anchor="middle" x="1288" y="-2955.25" font-family="Times,serif" font-size="14.00">gl_read</text>
</g>
<!-- q3&#45;&gt;q0 -->
<g id="edge46" class="edge"><title>q3&#45;&gt;q0</title>
<path fill="none" stroke="black" d="M1772.59,-2975.34C1766.2,-2967.47 1757.45,-2957.97 1748,-2951.45 1710.56,-2925.65 1698.47,-2913.45 1653,-2913.45 777,-2913.45 777,-2913.45 777,-2913.45 712.556,-2913.45 676.427,-2937.96 634,-2889.45 598.784,-2849.19 598.608,-2015.12 598.924,-1849.06"/>
<polygon fill="black" stroke="black" points="602.425,-1848.7 598.946,-1838.69 595.425,-1848.68 602.425,-1848.7"/>
<text text-anchor="middle" x="1288" y="-2917.25" font-family="Times,serif" font-size="14.00">gl_destroy</text>
</g>
<!-- q3&#45;&gt;q0 -->
<g id="edge47" class="edge"><title>q3&#45;&gt;q0</title>
<path fill="none" stroke="black" d="M1778.94,-2971.84C1774.19,-2954.83 1764.74,-2929.36 1748,-2913.45 1715.03,-2882.13 1698.47,-2875.45 1653,-2875.45 777,-2875.45 777,-2875.45 777,-2875.45 712.556,-2875.45 676.456,-2899.94 634,-2851.45 600.047,-2812.68 598.856,-2009.9 598.96,-1848.55"/>
<polygon fill="black" stroke="black" points="602.46,-1848.47 598.969,-1838.47 595.46,-1848.46 602.46,-1848.47"/>
<text text-anchor="middle" x="1288" y="-2879.25" font-family="Times,serif" font-size="14.00">val_from_node</text>
</g>
<!-- q3&#45;&gt;q0 -->
<g id="edge48" class="edge"><title>q3&#45;&gt;q0</title>
<path fill="none" stroke="black" d="M1782.26,-2971.52C1780.31,-2946.65 1773.25,-2901.7 1748,-2874.45 1717.2,-2841.22 1698.31,-2837.45 1653,-2837.45 777,-2837.45 777,-2837.45 777,-2837.45 712.556,-2837.45 676.488,-2861.91 634,-2813.45 601.375,-2776.25 599.117,-2007.74 598.999,-1848.99"/>
<polygon fill="black" stroke="black" points="602.499,-1848.63 598.993,-1838.63 595.499,-1848.64 602.499,-1848.63"/>
<text text-anchor="middle" x="1288" y="-2841.25" font-family="Times,serif" font-size="14.00">gl_sort</text>
</g>
<!-- q3&#45;&gt;q0 -->
<g id="edge49" class="edge"><title>q3&#45;&gt;q0</title>
<path fill="none" stroke="green" d="M1781.07,-2971.66C1776.84,-2935.63 1765.68,-2855.78 1748,-2835.45 1718.36,-2801.39 1698.15,-2799.45 1653,-2799.45 777,-2799.45 777,-2799.45 777,-2799.45 710.1,-2799.45 674.241,-2805.9 634,-2752.45 606.177,-2715.5 600.137,-2001.8 599.161,-1849.07"/>
<polygon fill="green" stroke="green" points="602.659,-1848.65 599.097,-1838.67 595.659,-1848.69 602.659,-1848.65"/>
<text text-anchor="middle" x="1288" y="-2803.25" font-family="Times,serif" font-size="14.00">Learn_Assert</text>
</g>
<!-- q3&#45;&gt;q2 -->
<g id="edge38" class="edge"><title>q3&#45;&gt;q2</title>
<path fill="none" stroke="green" d="M1792.25,-3005.72C1807.3,-3040.17 1842.01,-3123.33 1860,-3196.45 1880.19,-3278.51 1889.55,-3378.3 1893.14,-3426.17"/>
<polygon fill="green" stroke="green" points="1889.67,-3426.66 1893.87,-3436.38 1896.65,-3426.15 1889.67,-3426.66"/>
<text text-anchor="middle" x="1840" y="-3200.25" font-family="Times,serif" font-size="14.00">inspect</text>
</g>
<!-- q4 -->
<g id="node6" class="node"><title>q4</title>
<ellipse fill="none" stroke="black" cx="1652" cy="-2501.45" rx="18" ry="18"/>
<text text-anchor="middle" x="1652" y="-2497.75" font-family="Times,serif" font-size="14.00">D</text>
</g>
<!-- q4&#45;&gt;q0 -->
<g id="edge50" class="edge"><title>q4&#45;&gt;q0</title>
<path fill="none" stroke="green" d="M1650.06,-2519.55C1647.31,-2566 1637.94,-2687.99 1614,-2719.45 1590.52,-2750.31 1573.77,-2756.45 1535,-2756.45 777,-2756.45 777,-2756.45 777,-2756.45 711.351,-2756.45 675.19,-2770.57 634,-2719.45 606.034,-2684.75 600.113,-1997.04 599.158,-1848.56"/>
<polygon fill="green" stroke="green" points="602.658,-1848.42 599.096,-1838.44 595.658,-1848.46 602.658,-1848.42"/>
<text text-anchor="middle" x="1186" y="-2760.25" font-family="Times,serif" font-size="14.00">inspect</text>
</g>
<!-- q4&#45;&gt;q0 -->
<g id="edge52" class="edge"><title>q4&#45;&gt;q0</title>
<path fill="none" stroke="black" d="M1651.91,-2519.46C1652.62,-2552.64 1649.55,-2624.07 1614,-2668.45 1589.76,-2698.71 1573.77,-2705.45 1535,-2705.45 777,-2705.45 777,-2705.45 777,-2705.45 711.351,-2705.45 675.25,-2719.52 634,-2668.45 607.691,-2635.88 600.508,-1992.47 599.229,-1848.76"/>
<polygon fill="black" stroke="black" points="602.727,-1848.53 599.141,-1838.56 595.727,-1848.59 602.727,-1848.53"/>
<text text-anchor="middle" x="1186" y="-2709.25" font-family="Times,serif" font-size="14.00">__list_del</text>
</g>
<!-- q4&#45;&gt;q0 -->
<g id="edge53" class="edge"><title>q4&#45;&gt;q0</title>
<path fill="none" stroke="green" d="M1649.7,-2519.32C1647.02,-2544.15 1638.83,-2589.18 1614,-2617.45 1588.41,-2646.58 1573.77,-2654.45 1535,-2654.45 777,-2654.45 777,-2654.45 777,-2654.45 711.351,-2654.45 675.317,-2668.47 634,-2617.45 609.334,-2587 600.923,-1987.22 599.307,-1848.79"/>
<polygon fill="green" stroke="green" points="602.804,-1848.54 599.19,-1838.58 595.805,-1848.62 602.804,-1848.54"/>
<text text-anchor="middle" x="1186" y="-2658.25" font-family="Times,serif" font-size="14.00">list_add</text>
</g>
<!-- q4&#45;&gt;q0 -->
<g id="edge54" class="edge"><title>q4&#45;&gt;q0</title>
<path fill="none" stroke="black" d="M1644.82,-2518.29C1638.82,-2532.66 1628.5,-2553.06 1614,-2566.45 1585.52,-2592.76 1573.77,-2603.45 1535,-2603.45 777,-2603.45 777,-2603.45 777,-2603.45 711.351,-2603.45 675.394,-2617.41 634,-2566.45 610.965,-2538.1 601.359,-1981.29 599.393,-1848.64"/>
<polygon fill="black" stroke="black" points="602.89,-1848.43 599.245,-1838.48 595.891,-1848.53 602.89,-1848.43"/>
<text text-anchor="middle" x="1186" y="-2607.25" font-family="Times,serif" font-size="14.00">list_move</text>
</g>
<!-- q4&#45;&gt;q0 -->
<g id="edge55" class="edge"><title>q4&#45;&gt;q0</title>
<path fill="none" stroke="black" d="M1637.22,-2512.02C1616.32,-2526.96 1574.82,-2552.45 1535,-2552.45 777,-2552.45 777,-2552.45 777,-2552.45 711.351,-2552.45 675.481,-2566.34 634,-2515.45 612.605,-2489.21 601.839,-1975.8 599.495,-1848.72"/>
<polygon fill="black" stroke="black" points="602.993,-1848.55 599.312,-1838.62 595.994,-1848.68 602.993,-1848.55"/>
<text text-anchor="middle" x="1186" y="-2556.25" font-family="Times,serif" font-size="14.00">gl_sort_pass</text>
</g>
<!-- q4&#45;&gt;q0 -->
<g id="edge56" class="edge"><title>q4&#45;&gt;q0</title>
<path fill="none" stroke="green" d="M1633.71,-2501.45C1611.04,-2501.45 1570.04,-2501.45 1535,-2501.45 777,-2501.45 777,-2501.45 777,-2501.45 711.351,-2501.45 675.582,-2515.25 634,-2464.45 614.248,-2440.32 602.367,-1970.42 599.617,-1848.93"/>
<polygon fill="green" stroke="green" points="603.109,-1848.51 599.386,-1838.59 596.11,-1848.67 603.109,-1848.51"/>
<text text-anchor="middle" x="1186" y="-2505.25" font-family="Times,serif" font-size="14.00">gl_insert</text>
</g>
<!-- q4&#45;&gt;q0 -->
<g id="edge57" class="edge"><title>q4&#45;&gt;q0</title>
<path fill="none" stroke="green" d="M1637.22,-2490.89C1616.32,-2475.95 1574.82,-2450.45 1535,-2450.45 777,-2450.45 777,-2450.45 777,-2450.45 711.351,-2450.45 675.701,-2464.16 634,-2413.45 597.863,-2369.51 598.019,-1960.77 598.751,-1848.74"/>
<polygon fill="green" stroke="green" points="602.252,-1848.58 598.824,-1838.55 595.252,-1848.53 602.252,-1848.58"/>
<text text-anchor="middle" x="1186" y="-2454.25" font-family="Times,serif" font-size="14.00">gl_read</text>
</g>
<!-- q4&#45;&gt;q0 -->
<g id="edge58" class="edge"><title>q4&#45;&gt;q0</title>
<path fill="none" stroke="black" d="M1642.79,-2485.96C1626.41,-2457.43 1586.76,-2399.45 1535,-2399.45 777,-2399.45 777,-2399.45 777,-2399.45 711.351,-2399.45 675.841,-2413.04 634,-2362.45 601.097,-2322.67 598.875,-1954.3 598.92,-1848.65"/>
<polygon fill="black" stroke="black" points="602.42,-1848.45 598.932,-1838.45 595.42,-1848.45 602.42,-1848.45"/>
<text text-anchor="middle" x="1186" y="-2403.25" font-family="Times,serif" font-size="14.00">gl_destroy</text>
</g>
<!-- q4&#45;&gt;q0 -->
<g id="edge59" class="edge"><title>q4&#45;&gt;q0</title>
<path fill="none" stroke="black" d="M1646.76,-2484.2C1635.8,-2444.19 1602.5,-2348.45 1535,-2348.45 777,-2348.45 777,-2348.45 777,-2348.45 711.351,-2348.45 676.009,-2361.9 634,-2311.45 604.35,-2275.85 599.818,-1948.2 599.125,-1848.87"/>
<polygon fill="black" stroke="black" points="602.624,-1848.66 599.062,-1838.68 595.624,-1848.71 602.624,-1848.66"/>
<text text-anchor="middle" x="1186" y="-2352.25" font-family="Times,serif" font-size="14.00">val_from_node</text>
</g>
<!-- q4&#45;&gt;q0 -->
<g id="edge60" class="edge"><title>q4&#45;&gt;q0</title>
<path fill="none" stroke="black" d="M1650.35,-2483.1C1648.49,-2453.57 1641.34,-2394.74 1614,-2354.45 1589.69,-2318.63 1578.3,-2297.45 1535,-2297.45 777,-2297.45 777,-2297.45 777,-2297.45 711.351,-2297.45 676.216,-2310.73 634,-2260.45 607.571,-2228.98 600.858,-1941.27 599.377,-1848.87"/>
<polygon fill="black" stroke="black" points="602.873,-1848.55 599.222,-1838.61 595.874,-1848.66 602.873,-1848.55"/>
<text text-anchor="middle" x="1186" y="-2301.25" font-family="Times,serif" font-size="14.00">gl_sort</text>
</g>
<!-- q4&#45;&gt;q0 -->
<g id="edge61" class="edge"><title>q4&#45;&gt;q0</title>
<path fill="none" stroke="green" d="M1651.06,-2483.11C1650.21,-2424.65 1639.08,-2246.45 1535,-2246.45 777,-2246.45 777,-2246.45 777,-2246.45 710.76,-2246.45 676.063,-2255.62 634,-2204.45 611.5,-2177.08 602.277,-1932.34 599.76,-1848.49"/>
<polygon fill="green" stroke="green" points="603.256,-1848.32 599.467,-1838.42 596.259,-1848.52 603.256,-1848.32"/>
<text text-anchor="middle" x="1186" y="-2250.25" font-family="Times,serif" font-size="14.00">Learn_Assert</text>
</g>
<!-- q4&#45;&gt;q3 -->
<g id="edge51" class="edge"><title>q4&#45;&gt;q3</title>
<path fill="none" stroke="green" d="M1659.96,-2517.81C1677.34,-2559.3 1723.04,-2672.29 1748,-2770.45 1765.19,-2838.08 1775.58,-2919.71 1780.19,-2961.62"/>
<polygon fill="green" stroke="green" points="1776.71,-2962.06 1781.26,-2971.63 1783.67,-2961.32 1776.71,-2962.06"/>
<text text-anchor="middle" x="1719" y="-2774.25" font-family="Times,serif" font-size="14.00">__list_add</text>
</g>
<!-- q5 -->
<g id="node7" class="node"><title>q5</title>
<ellipse fill="none" stroke="black" cx="1534" cy="-2010.45" rx="18" ry="18"/>
<text text-anchor="middle" x="1534" y="-2006.75" font-family="Times,serif" font-size="14.00">D</text>
</g>
<!-- q5&#45;&gt;q0 -->
<g id="edge62" class="edge"><title>q5&#45;&gt;q0</title>
<path fill="none" stroke="green" d="M1531.63,-2028.38C1528.32,-2066.86 1518.59,-2155.6 1498,-2176.45 1463.76,-2211.14 1439.74,-2200.45 1391,-2200.45 777,-2200.45 777,-2200.45 777,-2200.45 712.556,-2200.45 677.987,-2223.55 634,-2176.45 611.784,-2152.67 602.482,-1929.1 599.842,-1848.91"/>
<polygon fill="green" stroke="green" points="603.33,-1848.47 599.513,-1838.58 596.333,-1848.69 603.33,-1848.47"/>
<text text-anchor="middle" x="1084" y="-2204.25" font-family="Times,serif" font-size="14.00">inspect</text>
</g>
<!-- q5&#45;&gt;q0 -->
<g id="edge63" class="edge"><title>q5&#45;&gt;q0</title>
<path fill="none" stroke="green" d="M1533.52,-2028.64C1533.28,-2056.44 1528.49,-2109.34 1498,-2138.45 1462.75,-2172.11 1439.74,-2162.45 1391,-2162.45 777,-2162.45 777,-2162.45 777,-2162.45 712.556,-2162.45 678.26,-2185.29 634,-2138.45 614.271,-2117.57 603.572,-1922.77 600.192,-1848.78"/>
<polygon fill="green" stroke="green" points="603.671,-1848.21 599.729,-1838.38 596.678,-1848.52 603.671,-1848.21"/>
<text text-anchor="middle" x="1084" y="-2166.25" font-family="Times,serif" font-size="14.00">__list_add</text>
</g>
<!-- q5&#45;&gt;q0 -->
<g id="edge64" class="edge"><title>q5&#45;&gt;q0</title>
<path fill="none" stroke="black" d="M1531.01,-2028.54C1527.75,-2049.07 1519.35,-2082.09 1498,-2100.45 1461.05,-2132.23 1439.74,-2124.45 1391,-2124.45 777,-2124.45 777,-2124.45 777,-2124.45 712.556,-2124.45 678.604,-2146.97 634,-2100.45 599.944,-2064.94 597.784,-1912.76 598.433,-1848.87"/>
<polygon fill="black" stroke="black" points="601.934,-1848.75 598.568,-1838.71 594.935,-1848.66 601.934,-1848.75"/>
<text text-anchor="middle" x="1084" y="-2128.25" font-family="Times,serif" font-size="14.00">__list_del</text>
</g>
<!-- q5&#45;&gt;q0 -->
<g id="edge66" class="edge"><title>q5&#45;&gt;q0</title>
<path fill="none" stroke="black" d="M1525.95,-2027.02C1520.13,-2038.69 1510.76,-2053.73 1498,-2062.45 1457.76,-2089.95 1439.74,-2086.45 1391,-2086.45 777,-2086.45 777,-2086.45 777,-2086.45 712.556,-2086.45 679.05,-2108.54 634,-2062.45 604.867,-2032.65 599.834,-1906.21 599.07,-1848.9"/>
<polygon fill="black" stroke="black" points="602.568,-1848.69 598.97,-1838.72 595.569,-1848.76 602.568,-1848.69"/>
<text text-anchor="middle" x="1084" y="-2090.25" font-family="Times,serif" font-size="14.00">list_move</text>
</g>
<!-- q5&#45;&gt;q0 -->
<g id="edge67" class="edge"><title>q5&#45;&gt;q0</title>
<path fill="none" stroke="black" d="M1517.19,-2017.6C1491.35,-2028.61 1438.21,-2048.45 1391,-2048.45 777,-2048.45 777,-2048.45 777,-2048.45 712.556,-2048.45 679.652,-2069.94 634,-2024.45 609.692,-2000.23 602.173,-1898.61 599.922,-1848.56"/>
<polygon fill="black" stroke="black" points="603.414,-1848.27 599.507,-1838.42 596.419,-1848.56 603.414,-1848.27"/>
<text text-anchor="middle" x="1084" y="-2052.25" font-family="Times,serif" font-size="14.00">gl_sort_pass</text>
</g>
<!-- q5&#45;&gt;q0 -->
<g id="edge68" class="edge"><title>q5&#45;&gt;q0</title>
<path fill="none" stroke="green" d="M1515.95,-2010.45C1489.29,-2010.45 1436.11,-2010.45 1391,-2010.45 777,-2010.45 777,-2010.45 777,-2010.45 712.556,-2010.45 680.505,-2031.07 634,-1986.45 614.545,-1967.79 605.017,-1890.93 601.167,-1848.65"/>
<polygon fill="green" stroke="green" points="604.634,-1848.12 600.287,-1838.46 597.66,-1848.72 604.634,-1848.12"/>
<text text-anchor="middle" x="1084" y="-2014.25" font-family="Times,serif" font-size="14.00">gl_insert</text>
</g>
<!-- q5&#45;&gt;q0 -->
<g id="edge69" class="edge"><title>q5&#45;&gt;q0</title>
<path fill="none" stroke="green" d="M1517.19,-2003.31C1491.35,-1992.3 1438.21,-1972.45 1391,-1972.45 777,-1972.45 777,-1972.45 777,-1972.45 712.556,-1972.45 681.803,-1991.67 634,-1948.45 606.148,-1923.27 599.573,-1878.27 598.473,-1848.9"/>
<polygon fill="green" stroke="green" points="601.972,-1848.78 598.286,-1838.84 594.973,-1848.91 601.972,-1848.78"/>
<text text-anchor="middle" x="1084" y="-1976.25" font-family="Times,serif" font-size="14.00">gl_read</text>
</g>
<!-- q5&#45;&gt;q0 -->
<g id="edge70" class="edge"><title>q5&#45;&gt;q0</title>
<path fill="none" stroke="black" d="M1521.72,-1997.2C1515.32,-1990.3 1506.83,-1982.14 1498,-1976.45 1455.06,-1948.78 1442.09,-1934.45 1391,-1934.45 777,-1934.45 777,-1934.45 777,-1934.45 712.556,-1934.45 683.985,-1951.13 634,-1910.45 615.286,-1895.22 606.552,-1868.68 602.491,-1848.35"/>
<polygon fill="black" stroke="black" points="605.92,-1847.63 600.765,-1838.38 599.022,-1848.83 605.92,-1847.63"/>
<text text-anchor="middle" x="1084" y="-1938.25" font-family="Times,serif" font-size="14.00">gl_destroy</text>
</g>
<!-- q5&#45;&gt;q0 -->
<g id="edge71" class="edge"><title>q5&#45;&gt;q0</title>
<path fill="none" stroke="black" d="M1527.88,-1993.31C1522.58,-1978.18 1512.95,-1956.4 1498,-1942.45 1460.15,-1907.14 1442.76,-1896.45 1391,-1896.45 777,-1896.45 777,-1896.45 777,-1896.45 712.556,-1896.45 688.175,-1907.36 634,-1872.45 624.156,-1866.11 616.403,-1855.91 610.723,-1846.22"/>
<polygon fill="black" stroke="black" points="613.715,-1844.39 605.912,-1837.23 607.543,-1847.69 613.715,-1844.39"/>
<text text-anchor="middle" x="1084" y="-1900.25" font-family="Times,serif" font-size="14.00">val_from_node</text>
</g>
<!-- q5&#45;&gt;q0 -->
<g id="edge72" class="edge"><title>q5&#45;&gt;q0</title>
<path fill="none" stroke="black" d="M1531.74,-1992.46C1529.19,-1968.94 1521.44,-1927.76 1498,-1902.45 1463.06,-1864.73 1442.42,-1858.45 1391,-1858.45 777,-1858.45 777,-1858.45 777,-1858.45 712.556,-1858.45 696.051,-1851.85 634,-1834.45 630.786,-1833.55 627.464,-1832.45 624.204,-1831.27"/>
<polygon fill="black" stroke="black" points="625.369,-1827.97 614.781,-1827.6 622.826,-1834.49 625.369,-1827.97"/>
<text text-anchor="middle" x="1084" y="-1862.25" font-family="Times,serif" font-size="14.00">gl_sort</text>
</g>
<!-- q5&#45;&gt;q0 -->
<g id="edge73" class="edge"><title>q5&#45;&gt;q0</title>
<path fill="none" stroke="green" d="M1533.87,-1991.97C1534.29,-1961.13 1530.68,-1898.88 1498,-1861.45 1464.5,-1823.09 1441.93,-1820.45 1391,-1820.45 777,-1820.45 777,-1820.45 777,-1820.45 723.74,-1820.45 661.515,-1820.45 626.537,-1820.45"/>
<polygon fill="green" stroke="green" points="626.183,-1816.95 616.183,-1820.45 626.183,-1823.95 626.183,-1816.95"/>
<text text-anchor="middle" x="1084" y="-1824.25" font-family="Times,serif" font-size="14.00">Learn_Assert</text>
</g>
<!-- q5&#45;&gt;q4 -->
<g id="edge65" class="edge"><title>q5&#45;&gt;q4</title>
<path fill="none" stroke="green" d="M1542.58,-2026.4C1558.49,-2060.58 1595.42,-2143.79 1614,-2217.45 1637.16,-2309.28 1646.34,-2421.66 1649.52,-2473.19"/>
<polygon fill="green" stroke="green" points="1646.03,-2473.46 1650.11,-2483.23 1653.02,-2473.05 1646.03,-2473.46"/>
<text text-anchor="middle" x="1592" y="-2221.25" font-family="Times,serif" font-size="14.00">list_add</text>
</g>
<!-- q6 -->
<g id="node8" class="node"><title>q6</title>
<ellipse fill="none" stroke="green" cx="1390" cy="-1573.45" rx="18" ry="18"/>
<text text-anchor="middle" x="1390" y="-1569.75" font-family="Times,serif" font-size="14.00">D</text>
</g>
<!-- q6&#45;&gt;q0 -->
<g id="edge75" class="edge"><title>q6&#45;&gt;q0</title>
<path fill="none" stroke="green" d="M1387.99,-1591.53C1385.06,-1625.79 1373.74,-1700.34 1330,-1740.45 1281.62,-1784.83 1252.65,-1777.45 1187,-1777.45 777,-1777.45 777,-1777.45 777,-1777.45 712.151,-1777.45 696.136,-1787.89 634,-1806.45 630.802,-1807.41 627.489,-1808.54 624.234,-1809.74"/>
<polygon fill="green" stroke="green" points="622.851,-1806.52 614.815,-1813.42 625.403,-1813.04 622.851,-1806.52"/>
<text text-anchor="middle" x="982" y="-1781.25" font-family="Times,serif" font-size="14.00">__list_add</text>
</g>
<!-- q6&#45;&gt;q0 -->
<g id="edge76" class="edge"><title>q6&#45;&gt;q0</title>
<path fill="none" stroke="black" d="M1384.98,-1590.89C1378.18,-1616.46 1361.88,-1663.84 1330,-1689.45 1278.82,-1730.57 1252.65,-1726.45 1187,-1726.45 777,-1726.45 777,-1726.45 777,-1726.45 709.523,-1726.45 689.109,-1738.52 634,-1777.45 626.428,-1782.8 619.6,-1790.21 614.027,-1797.38"/>
<polygon fill="black" stroke="black" points="611.145,-1795.39 608.093,-1805.53 616.806,-1799.51 611.145,-1795.39"/>
<text text-anchor="middle" x="982" y="-1730.25" font-family="Times,serif" font-size="14.00">__list_del</text>
</g>
<!-- q6&#45;&gt;q0 -->
<g id="edge77" class="edge"><title>q6&#45;&gt;q0</title>
<path fill="none" stroke="green" d="M1379.52,-1588.14C1369.15,-1603.05 1351.13,-1625.69 1330,-1638.45 1273.81,-1672.4 1252.65,-1675.45 1187,-1675.45 777,-1675.45 777,-1675.45 777,-1675.45 709.22,-1675.45 682.133,-1680.73 634,-1728.45 616.639,-1745.67 607.751,-1772.37 603.288,-1792.59"/>
<polygon fill="green" stroke="green" points="599.838,-1791.99 601.337,-1802.48 606.706,-1793.35 599.838,-1791.99"/>
<text text-anchor="middle" x="982" y="-1679.25" font-family="Times,serif" font-size="14.00">list_add</text>
</g>
<!-- q6&#45;&gt;q0 -->
<g id="edge78" class="edge"><title>q6&#45;&gt;q0</title>
<path fill="none" stroke="black" d="M1373.11,-1580.33C1339.46,-1594.25 1258.25,-1624.45 1187,-1624.45 777,-1624.45 777,-1624.45 777,-1624.45 709.671,-1624.45 679.143,-1624.5 634,-1674.45 604.638,-1706.94 598.741,-1759.67 598.156,-1792.08"/>
<polygon fill="black" stroke="black" points="594.656,-1792.23 598.135,-1802.23 601.656,-1792.24 594.656,-1792.23"/>
<text text-anchor="middle" x="982" y="-1628.25" font-family="Times,serif" font-size="14.00">list_move</text>
</g>
<!-- q6&#45;&gt;q0 -->
<g id="edge79" class="edge"><title>q6&#45;&gt;q0</title>
<path fill="none" stroke="black" d="M1371.97,-1573.45C1337.21,-1573.45 1255.56,-1573.45 1187,-1573.45 777,-1573.45 777,-1573.45 777,-1573.45 709.817,-1573.45 677.681,-1571.41 634,-1622.45 612.53,-1647.54 603.678,-1743.69 600.52,-1792.16"/>
<polygon fill="black" stroke="black" points="597.018,-1792.1 599.899,-1802.29 604.005,-1792.53 597.018,-1792.1"/>
<text text-anchor="middle" x="982" y="-1577.25" font-family="Times,serif" font-size="14.00">gl_sort_pass</text>
</g>
<!-- q6&#45;&gt;q0 -->
<g id="edge81" class="edge"><title>q6&#45;&gt;q0</title>
<path fill="none" stroke="green" d="M1373.11,-1566.58C1339.46,-1552.65 1258.25,-1522.45 1187,-1522.45 777,-1522.45 777,-1522.45 777,-1522.45 709.817,-1522.45 676.773,-1519.65 634,-1571.45 606.65,-1604.58 600.666,-1733.95 599.362,-1791.99"/>
<polygon fill="green" stroke="green" points="595.857,-1792.22 599.163,-1802.28 602.855,-1792.35 595.857,-1792.22"/>
<text text-anchor="middle" x="982" y="-1526.25" font-family="Times,serif" font-size="14.00">gl_read</text>
</g>
<!-- q6&#45;&gt;q0 -->
<g id="edge82" class="edge"><title>q6&#45;&gt;q0</title>
<path fill="none" stroke="black" d="M1375.97,-1561.35C1345.46,-1534.33 1265.97,-1471.45 1187,-1471.45 777,-1471.45 777,-1471.45 777,-1471.45 709.817,-1471.45 676.161,-1468.15 634,-1520.45 600.646,-1561.83 598.169,-1725.79 598.583,-1792.25"/>
<polygon fill="black" stroke="black" points="595.084,-1792.44 598.674,-1802.41 602.084,-1792.37 595.084,-1792.44"/>
<text text-anchor="middle" x="982" y="-1475.25" font-family="Times,serif" font-size="14.00">gl_destroy</text>
</g>
<!-- q6&#45;&gt;q0 -->
<g id="edge83" class="edge"><title>q6&#45;&gt;q0</title>
<path fill="none" stroke="black" d="M1382.52,-1556.8C1373.6,-1535.87 1355.69,-1500.1 1330,-1478.45 1277.55,-1434.26 1255.58,-1420.45 1187,-1420.45 777,-1420.45 777,-1420.45 777,-1420.45 709.817,-1420.45 675.722,-1416.8 634,-1469.45 614.114,-1494.55 603.359,-1712.95 600.089,-1792.02"/>
<polygon fill="black" stroke="black" points="596.584,-1792.09 599.677,-1802.22 603.578,-1792.37 596.584,-1792.09"/>
<text text-anchor="middle" x="982" y="-1424.25" font-family="Times,serif" font-size="14.00">val_from_node</text>
</g>
<!-- q6&#45;&gt;q0 -->
<g id="edge84" class="edge"><title>q6&#45;&gt;q0</title>
<path fill="none" stroke="black" d="M1386.73,-1555.64C1381.87,-1524.65 1367.65,-1460.6 1330,-1423.45 1281.63,-1375.74 1254.94,-1369.45 1187,-1369.45 777,-1369.45 777,-1369.45 777,-1369.45 709.817,-1369.45 675.391,-1365.53 634,-1418.45 611.054,-1447.79 602.079,-1705.78 599.697,-1792.31"/>
<polygon fill="black" stroke="black" points="596.195,-1792.34 599.427,-1802.43 603.192,-1792.53 596.195,-1792.34"/>
<text text-anchor="middle" x="982" y="-1373.25" font-family="Times,serif" font-size="14.00">gl_sort</text>
</g>
<!-- q6&#45;&gt;q0 -->
<g id="edge85" class="edge"><title>q6&#45;&gt;q0</title>
<path fill="none" stroke="green" d="M1388.94,-1555.38C1387.84,-1516.39 1379.79,-1423.64 1330,-1370.45 1283.78,-1321.08 1254.63,-1318.45 1187,-1318.45 777,-1318.45 777,-1318.45 777,-1318.45 709.817,-1318.45 675.132,-1314.33 634,-1367.45 608.015,-1401.01 600.984,-1698.34 599.403,-1792.2"/>
<polygon fill="green" stroke="green" points="595.901,-1792.3 599.24,-1802.36 602.9,-1792.42 595.901,-1792.3"/>
<text text-anchor="middle" x="982" y="-1322.25" font-family="Times,serif" font-size="14.00">Learn_Assert</text>
</g>
<!-- q6&#45;&gt;q2 -->
<g id="edge74" class="edge"><title>q6&#45;&gt;q2</title>
<path fill="none" stroke="green" d="M1406.23,-1581.89C1431.68,-1595.17 1484.8,-1619.45 1533,-1619.45 1533,-1619.45 1533,-1619.45 1785,-1619.45 1879.59,-1619.45 1893.33,-3193.73 1894.84,-3425.97"/>
<polygon fill="green" stroke="green" points="1891.34,-3426.31 1894.9,-3436.29 1898.34,-3426.27 1891.34,-3426.31"/>
<text text-anchor="middle" x="1652" y="-1623.25" font-family="Times,serif" font-size="14.00">inspect</text>
</g>
<!-- q6&#45;&gt;q5 -->
<g id="edge80" class="edge"><title>q6&#45;&gt;q5</title>
<path fill="none" stroke="green" d="M1400.3,-1588.39C1421.28,-1622.8 1472.42,-1710.88 1498,-1791.45 1519.11,-1857.96 1527.87,-1940.05 1531.19,-1982.34"/>
<polygon fill="green" stroke="green" points="1527.71,-1982.72 1531.94,-1992.44 1534.69,-1982.21 1527.71,-1982.72"/>
<text text-anchor="middle" x="1474" y="-1795.25" font-family="Times,serif" font-size="14.00">gl_insert</text>
</g>
<!-- q7 -->
<g id="node9" class="node"><title>q7</title>
<ellipse fill="none" stroke="green" cx="1186" cy="-1082.45" rx="18" ry="18"/>
<text text-anchor="middle" x="1186" y="-1078.75" font-family="Times,serif" font-size="14.00">D</text>
</g>
<!-- q7&#45;&gt;q0 -->
<g id="edge86" class="edge"><title>q7&#45;&gt;q0</title>
<path fill="none" stroke="green" d="M1184.47,-1100.45C1182.39,-1135.25 1172.46,-1211.55 1126,-1248.45 1039.84,-1316.9 710.015,-1224.89 634,-1304.45 600.187,-1339.84 598.583,-1689.31 598.85,-1792.14"/>
<polygon fill="green" stroke="green" points="595.351,-1792.38 598.885,-1802.37 602.351,-1792.35 595.351,-1792.38"/>
<text text-anchor="middle" x="880" y="-1278.25" font-family="Times,serif" font-size="14.00">inspect</text>
</g>
<!-- q7&#45;&gt;q0 -->
<g id="edge88" class="edge"><title>q7&#45;&gt;q0</title>
<path fill="none" stroke="black" d="M1182.35,-1100.38C1177.11,-1128.83 1162.6,-1183.82 1126,-1210.45 1036.97,-1275.25 709.657,-1189.44 634,-1269.45 597.867,-1307.67 597.964,-1685.3 598.727,-1792.32"/>
<polygon fill="black" stroke="black" points="595.228,-1792.39 598.807,-1802.36 602.227,-1792.34 595.228,-1792.39"/>
<text text-anchor="middle" x="880" y="-1240.25" font-family="Times,serif" font-size="14.00">__list_del</text>
</g>
<!-- q7&#45;&gt;q0 -->
<g id="edge89" class="edge"><title>q7&#45;&gt;q0</title>
<path fill="none" stroke="green" d="M1179.07,-1099.31C1170.74,-1120.27 1153.44,-1155.37 1126,-1172.45 1032.48,-1230.69 709.378,-1153.11 634,-1233.45 595.469,-1274.52 597.358,-1680.88 598.614,-1792.32"/>
<polygon fill="green" stroke="green" points="595.115,-1792.49 598.736,-1802.45 602.115,-1792.4 595.115,-1792.49"/>
<text text-anchor="middle" x="880" y="-1200.25" font-family="Times,serif" font-size="14.00">list_add</text>
</g>
<!-- q7&#45;&gt;q0 -->
<g id="edge90" class="edge"><title>q7&#45;&gt;q0</title>
<path fill="none" stroke="black" d="M1173.91,-1096.05C1163.08,-1108.3 1145.41,-1125.69 1126,-1134.45 1025.55,-1179.78 709.175,-1115.88 634,-1196.45 613.431,-1218.5 602.192,-1672.82 599.59,-1792.02"/>
<polygon fill="black" stroke="black" points="596.088,-1792.11 599.372,-1802.18 603.086,-1792.26 596.088,-1792.11"/>
<text text-anchor="middle" x="880" y="-1157.25" font-family="Times,serif" font-size="14.00">list_move</text>
</g>
<!-- q7&#45;&gt;q0 -->
<g id="edge91" class="edge"><title>q7&#45;&gt;q0</title>
<path fill="none" stroke="black" d="M1168.32,-1086.93C1156.56,-1089.96 1140.4,-1093.86 1126,-1096.45 1017.57,-1115.98 709.104,-1076.85 634,-1157.45 612.047,-1181.01 601.748,-1668.8 599.488,-1792.26"/>
<polygon fill="black" stroke="black" points="595.985,-1792.35 599.305,-1802.42 602.984,-1792.48 595.985,-1792.35"/>
<text text-anchor="middle" x="880" y="-1109.25" font-family="Times,serif" font-size="14.00">gl_sort_pass</text>
</g>
<!-- q7&#45;&gt;q0 -->
<g id="edge92" class="edge"><title>q7&#45;&gt;q0</title>
<path fill="none" stroke="green" d="M1167.92,-1080.49C1082.93,-1071.14 706.842,-1034.84 634,-1115.45 610.948,-1140.96 601.413,-1663.72 599.413,-1792.14"/>
<polygon fill="green" stroke="green" points="595.911,-1792.3 599.257,-1802.35 602.91,-1792.4 595.911,-1792.3"/>
<text text-anchor="middle" x="880" y="-1069.25" font-family="Times,serif" font-size="14.00">gl_insert</text>
</g>
<!-- q7&#45;&gt;q0 -->
<g id="edge93" class="edge"><title>q7&#45;&gt;q0</title>
<path fill="none" stroke="green" d="M1168.63,-1077.25C1156.88,-1073.7 1140.61,-1069.17 1126,-1066.45 1018.49,-1046.48 707.4,-994.396 634,-1075.45 609.511,-1102.5 601.012,-1659.53 599.331,-1792.25"/>
<polygon fill="green" stroke="green" points="595.829,-1792.37 599.205,-1802.41 602.829,-1792.46 595.829,-1792.37"/>
<text text-anchor="middle" x="880" y="-1041.25" font-family="Times,serif" font-size="14.00">gl_read</text>
</g>
<!-- q7&#45;&gt;q0 -->
<g id="edge94" class="edge"><title>q7&#45;&gt;q0</title>
<path fill="none" stroke="black" d="M1170.62,-1072.6C1159.06,-1065.13 1142.14,-1055.21 1126,-1049.45 1022.97,-1012.74 708.873,-955.719 634,-1035.45 607.604,-1063.56 600.532,-1654.49 599.24,-1792.03"/>
<polygon fill="black" stroke="black" points="595.739,-1792.15 599.148,-1802.18 602.739,-1792.22 595.739,-1792.15"/>
<text text-anchor="middle" x="880" y="-1008.25" font-family="Times,serif" font-size="14.00">gl_destroy</text>
</g>
<!-- q7&#45;&gt;q0 -->
<g id="edge95" class="edge"><title>q7&#45;&gt;q0</title>
<path fill="none" stroke="black" d="M1174.97,-1068.22C1164.41,-1054.34 1146.48,-1033.72 1126,-1022.45 1030.09,-969.669 709.436,-918.119 634,-997.453 606.055,-1026.84 600.153,-1650.43 599.171,-1792.03"/>
<polygon fill="black" stroke="black" points="595.668,-1792.43 599.102,-1802.45 602.668,-1792.47 595.668,-1792.43"/>
<text text-anchor="middle" x="880" y="-970.253" font-family="Times,serif" font-size="14.00">val_from_node</text>
</g>
<!-- q7&#45;&gt;q0 -->
<g id="edge96" class="edge"><title>q7&#45;&gt;q0</title>
<path fill="none" stroke="black" d="M1179.1,-1065.72C1170.7,-1044.41 1153.23,-1008.02 1126,-988.453 1037.05,-924.549 709.202,-879.83 634,-959.453 604.779,-990.392 599.852,-1646.72 599.118,-1792.1"/>
<polygon fill="black" stroke="black" points="595.617,-1792.39 599.069,-1802.41 602.617,-1792.42 595.617,-1792.39"/>
<text text-anchor="middle" x="880" y="-929.253" font-family="Times,serif" font-size="14.00">gl_sort</text>
</g>
<!-- q7&#45;&gt;q0 -->
<g id="edge97" class="edge"><title>q7&#45;&gt;q0</title>
<path fill="none" stroke="green" d="M1182.32,-1064.67C1176.99,-1035.77 1162.29,-978.763 1126,-948.453 1041.95,-878.25 708.93,-840.591 634,-920.453 603.469,-952.994 599.557,-1643.19 599.068,-1792.24"/>
<polygon fill="green" stroke="green" points="595.568,-1792.38 599.038,-1802.39 602.568,-1792.41 595.568,-1792.38"/>
<text text-anchor="middle" x="880" y="-887.253" font-family="Times,serif" font-size="14.00">Learn_Assert</text>
</g>
<!-- q7&#45;&gt;q6 -->
<g id="edge87" class="edge"><title>q7&#45;&gt;q6</title>
<path fill="none" stroke="green" d="M1198.77,-1095.37C1226.31,-1126.36 1295.26,-1208.35 1330,-1289.45 1367.95,-1378.05 1382.13,-1492.91 1386.87,-1545.24"/>
<polygon fill="green" stroke="green" points="1383.41,-1545.76 1387.75,-1555.43 1390.38,-1545.17 1383.41,-1545.76"/>
<text text-anchor="middle" x="1288" y="-1293.25" font-family="Times,serif" font-size="14.00">__list_add</text>
</g>
<!-- q8 -->
<g id="node10" class="node"><title>q8</title>
<ellipse fill="none" stroke="green" cx="982" cy="-594.453" rx="18" ry="18"/>
<text text-anchor="middle" x="982" y="-590.753" font-family="Times,serif" font-size="14.00">D</text>
</g>
<!-- q8&#45;&gt;q0 -->
<g id="edge98" class="edge"><title>q8&#45;&gt;q0</title>
<path fill="none" stroke="green" d="M981.866,-612.752C982.78,-654.59 978.804,-757.825 922,-812.453 827.35,-903.479 717.723,-777.286 634,-878.453 604.162,-914.508 599.702,-1638.42 599.091,-1791.98"/>
<polygon fill="green" stroke="green" points="595.589,-1792.41 599.052,-1802.42 602.589,-1792.43 595.589,-1792.41"/>
<text text-anchor="middle" x="778" y="-851.253" font-family="Times,serif" font-size="14.00">inspect</text>
</g>
<!-- q8&#45;&gt;q0 -->
<g id="edge99" class="edge"><title>q8&#45;&gt;q0</title>
<path fill="none" stroke="green" d="M980.016,-612.562C977.142,-646.881 965.902,-721.521 922,-761.453 824.397,-850.232 717.027,-730.913 634,-833.453 603.048,-871.68 599.463,-1634.55 599.052,-1792.13"/>
<polygon fill="green" stroke="green" points="595.552,-1792.4 599.028,-1802.41 602.552,-1792.42 595.552,-1792.4"/>
<text text-anchor="middle" x="778" y="-801.253" font-family="Times,serif" font-size="14.00">__list_add</text>
</g>
<!-- q8&#45;&gt;q0 -->
<g id="edge100" class="edge"><title>q8&#45;&gt;q0</title>
<path fill="none" stroke="black" d="M976.98,-611.888C970.163,-637.445 953.863,-684.818 922,-710.453 818.945,-793.368 716.646,-682.183 634,-785.453 601.673,-825.847 599.183,-1630.56 599.01,-1792.29"/>
<polygon fill="black" stroke="black" points="595.51,-1792.4 599.001,-1802.4 602.51,-1792.4 595.51,-1792.4"/>
<text text-anchor="middle" x="778" y="-748.253" font-family="Times,serif" font-size="14.00">__list_del</text>
</g>
<!-- q8&#45;&gt;q0 -->
<g id="edge102" class="edge"><title>q8&#45;&gt;q0</title>
<path fill="none" stroke="black" d="M971.512,-609.124C961.123,-624.011 943.101,-646.635 922,-659.453 808.857,-728.182 716.468,-631.897 634,-735.453 600.143,-777.968 598.884,-1624.99 598.966,-1792"/>
<polygon fill="black" stroke="black" points="595.466,-1792.42 598.973,-1802.42 602.466,-1792.41 595.466,-1792.42"/>
<text text-anchor="middle" x="778" y="-691.253" font-family="Times,serif" font-size="14.00">list_move</text>
</g>
<!-- q8&#45;&gt;q0 -->
<g id="edge103" class="edge"><title>q8&#45;&gt;q0</title>
<path fill="none" stroke="black" d="M964.406,-598.472C895.667,-615.137 636.702,-678.097 634,-681.453 598.107,-726.027 598.506,-1620.78 598.913,-1792.2"/>
<polygon fill="black" stroke="black" points="595.414,-1792.44 598.94,-1802.43 602.414,-1792.42 595.414,-1792.44"/>
<text text-anchor="middle" x="778" y="-657.253" font-family="Times,serif" font-size="14.00">gl_sort_pass</text>
</g>
<!-- q8&#45;&gt;q0 -->
<g id="edge104" class="edge"><title>q8&#45;&gt;q0</title>
<path fill="none" stroke="green" d="M964.214,-590.689C905.721,-578.682 710.287,-548.128 634,-656.453 600.309,-704.294 598.931,-1617.74 598.975,-1791.9"/>
<polygon fill="green" stroke="green" points="595.475,-1792.07 598.979,-1802.07 602.475,-1792.07 595.475,-1792.07"/>
<text text-anchor="middle" x="778" y="-593.253" font-family="Times,serif" font-size="14.00">gl_insert</text>
</g>
<!-- q8&#45;&gt;q0 -->
<g id="edge105" class="edge"><title>q8&#45;&gt;q0</title>
<path fill="none" stroke="green" d="M965.117,-587.255C907.975,-562.535 712.122,-488.26 634,-593.453 597.131,-643.099 598.348,-1611.64 598.895,-1791.76"/>
<polygon fill="green" stroke="green" points="595.395,-1792.03 598.928,-1802.02 602.395,-1792.01 595.395,-1792.03"/>
<text text-anchor="middle" x="778" y="-547.253" font-family="Times,serif" font-size="14.00">gl_read</text>
</g>
<!-- q8&#45;&gt;q0 -->
<g id="edge106" class="edge"><title>q8&#45;&gt;q0</title>
<path fill="none" stroke="black" d="M969.158,-581.4C958.063,-569.966 940.462,-553.763 922,-544.453 864.849,-515.634 675.344,-491.592 634,-540.453 613.079,-565.178 601.238,-1606.18 599.288,-1792.17"/>
<polygon fill="black" stroke="black" points="595.787,-1792.21 599.183,-1802.25 602.787,-1792.29 595.787,-1792.21"/>
<text text-anchor="middle" x="778" y="-522.253" font-family="Times,serif" font-size="14.00">gl_destroy</text>
</g>
<!-- q8&#45;&gt;q0 -->
<g id="edge107" class="edge"><title>q8&#45;&gt;q0</title>
<path fill="none" stroke="black" d="M973.129,-578.542C963.529,-560.84 945.617,-532.726 922,-517.453 868.238,-482.686 676.262,-461.359 634,-509.453 612.08,-534.398 601.041,-1603.16 599.259,-1792.07"/>
<polygon fill="black" stroke="black" points="595.757,-1792.27 599.163,-1802.3 602.756,-1792.33 595.757,-1792.27"/>
<text text-anchor="middle" x="778" y="-491.253" font-family="Times,serif" font-size="14.00">val_from_node</text>
</g>
<!-- q8&#45;&gt;q0 -->
<g id="edge108" class="edge"><title>q8&#45;&gt;q0</title>
<path fill="none" stroke="black" d="M976.255,-577.101C968.791,-553.175 951.977,-510.414 922,-487.453 855.782,-436.735 819.019,-454.391 736,-462.453 690.02,-466.919 663.819,-447.17 634,-482.453 612.09,-508.378 601.014,-1602.14 599.251,-1792.39"/>
<polygon fill="black" stroke="black" points="595.751,-1792.4 599.159,-1802.43 602.751,-1792.46 595.751,-1792.4"/>
<text text-anchor="middle" x="778" y="-466.253" font-family="Times,serif" font-size="14.00">gl_sort</text>
</g>
<!-- q8&#45;&gt;q0 -->
<g id="edge109" class="edge"><title>q8&#45;&gt;q0</title>
<path fill="none" stroke="green" d="M979.296,-576.371C975.313,-545.082 962.415,-481.157 922,-449.453 856.747,-398.265 818.426,-425.275 736,-434.453 689.814,-439.596 663.486,-421.534 634,-457.453 612.05,-484.193 600.997,-1599.28 599.248,-1792.17"/>
<polygon fill="green" stroke="green" points="595.747,-1792.32 599.157,-1802.35 602.746,-1792.38 595.747,-1792.32"/>
<text text-anchor="middle" x="778" y="-438.253" font-family="Times,serif" font-size="14.00">Learn_Assert</text>
</g>
<!-- q8&#45;&gt;q7 -->
<g id="edge101" class="edge"><title>q8&#45;&gt;q7</title>
<path fill="none" stroke="green" d="M992.475,-609.341C1017.45,-649.135 1085.91,-761.86 1126,-863.453 1152.32,-930.141 1171.04,-1012.75 1179.67,-1054.89"/>
<polygon fill="green" stroke="green" points="1176.23,-1055.59 1181.64,-1064.7 1183.1,-1054.21 1176.23,-1055.59"/>
<text text-anchor="middle" x="1084" y="-867.253" font-family="Times,serif" font-size="14.00">list_add</text>
</g>
<!-- q9&#45;&gt;q0 -->
<g id="edge110" class="edge"><title>q9&#45;&gt;q0</title>
<path fill="none" stroke="green" d="M769.883,-239.628C754.716,-274.032 720.39,-351.506 718,-353.453 688.324,-377.628 658.254,-342.842 634,-372.453 610.653,-400.958 600.714,-1591.66 599.206,-1791.99"/>
<polygon fill="green" stroke="green" points="595.704,-1792.25 599.13,-1802.27 602.704,-1792.3 595.704,-1792.25"/>
<text text-anchor="middle" x="676" y="-376.253" font-family="Times,serif" font-size="14.00">inspect</text>
</g>
<!-- q9&#45;&gt;q0 -->
<g id="edge111" class="edge"><title>q9&#45;&gt;q0</title>
<path fill="none" stroke="green" d="M770.892,-240.252C762.372,-261.219 744.877,-296.608 718,-315.453 686.66,-337.428 658.245,-304.834 634,-334.453 610.012,-363.758 600.584,-1589.43 599.187,-1792.18"/>
<polygon fill="green" stroke="green" points="595.686,-1792.3 599.118,-1802.32 602.686,-1792.35 595.686,-1792.3"/>
<text text-anchor="middle" x="676" y="-338.253" font-family="Times,serif" font-size="14.00">__list_add</text>
</g>
<!-- q9&#45;&gt;q0 -->
<g id="edge112" class="edge"><title>q9&#45;&gt;q0</title>
<path fill="none" stroke="black" d="M765.812,-237.14C754.905,-249.559 737.196,-267.416 718,-277.453 684.081,-295.19 658.236,-266.827 634,-296.453 609.382,-326.546 600.465,-1586.15 599.17,-1792.11"/>
<polygon fill="black" stroke="black" points="595.669,-1792.37 599.106,-1802.39 602.668,-1792.42 595.669,-1792.37"/>
<text text-anchor="middle" x="676" y="-300.253" font-family="Times,serif" font-size="14.00">__list_del</text>
</g>
<!-- q9&#45;&gt;q0 -->
<g id="edge113" class="edge"><title>q9&#45;&gt;q0</title>
<path fill="none" stroke="green" d="M760.518,-228.124C748.713,-231.42 732.419,-235.869 718,-239.453 680.854,-248.687 658.228,-228.82 634,-258.453 608.739,-289.351 600.34,-1584.3 599.153,-1792.37"/>
<polygon fill="green" stroke="green" points="595.652,-1792.46 599.096,-1802.48 602.652,-1792.5 595.652,-1792.46"/>
<text text-anchor="middle" x="676" y="-262.253" font-family="Times,serif" font-size="14.00">list_add</text>
</g>
<!-- q9&#45;&gt;q0 -->
<g id="edge114" class="edge"><title>q9&#45;&gt;q0</title>
<path fill="none" stroke="black" d="M760.242,-220.277C726.359,-214.29 651.439,-203.392 634,-220.453 604.749,-249.071 599.693,-1580.77 599.074,-1792.28"/>
<polygon fill="black" stroke="black" points="595.574,-1792.27 599.045,-1802.28 602.574,-1792.29 595.574,-1792.27"/>
<text text-anchor="middle" x="676" y="-224.253" font-family="Times,serif" font-size="14.00">list_move</text>
</g>
<!-- q9&#45;&gt;q0 -->
<g id="edge115" class="edge"><title>q9&#45;&gt;q0</title>
<path fill="none" stroke="black" d="M762.98,-213.404C734.504,-194.3 669.583,-157.627 634,-192.453 604.228,-221.593 599.608,-1577.99 599.063,-1792.12"/>
<polygon fill="black" stroke="black" points="595.563,-1792.23 599.039,-1802.24 602.563,-1792.25 595.563,-1792.23"/>
<text text-anchor="middle" x="676" y="-196.253" font-family="Times,serif" font-size="14.00">gl_sort_pass</text>
</g>
<!-- q9&#45;&gt;q0 -->
<g id="edge117" class="edge"><title>q9&#45;&gt;q0</title>
<path fill="none" stroke="green" d="M768.231,-208.166C758.312,-192.583 740.562,-169.34 718,-159.453 683.806,-144.469 660.675,-133.334 634,-159.453 603.599,-189.22 599.505,-1575.96 599.051,-1792.23"/>
<polygon fill="green" stroke="green" points="595.55,-1792.43 599.03,-1802.43 602.55,-1792.44 595.55,-1792.43"/>
<text text-anchor="middle" x="676" y="-163.253" font-family="Times,serif" font-size="14.00">gl_read</text>
</g>
<!-- q9&#45;&gt;q0 -->
<g id="edge118" class="edge"><title>q9&#45;&gt;q0</title>
<path fill="none" stroke="black" d="M772.355,-206.157C765.091,-182.976 748.601,-142.749 718,-125.453 685.499,-107.084 660.67,-99.3286 634,-125.453 602.952,-155.867 599.401,-1573.84 599.038,-1792.32"/>
<polygon fill="black" stroke="black" points="595.538,-1792.34 599.023,-1802.35 602.538,-1792.35 595.538,-1792.34"/>
<text text-anchor="middle" x="676" y="-129.253" font-family="Times,serif" font-size="14.00">gl_destroy</text>
</g>
<!-- q9&#45;&gt;q0 -->
<g id="edge119" class="edge"><title>q9&#45;&gt;q0</title>
<path fill="none" stroke="black" d="M775.082,-205.288C770.828,-175.303 757.599,-116.207 718,-90.4533 686.703,-70.099 660.664,-64.323 634,-90.4533 602.301,-121.517 599.3,-1570.25 599.027,-1792.09"/>
<polygon fill="black" stroke="black" points="595.527,-1792.25 599.015,-1802.26 602.527,-1792.26 595.527,-1792.25"/>
<text text-anchor="middle" x="676" y="-94.2533" font-family="Times,serif" font-size="14.00">val_from_node</text>
</g>
<!-- q9&#45;&gt;q0 -->
<g id="edge120" class="edge"><title>q9&#45;&gt;q0</title>
<path fill="none" stroke="black" d="M776.963,-205.216C775.78,-169.23 767.41,-89.5384 718,-54.4533 687.56,-32.8387 660.659,-28.3175 634,-54.4533 601.615,-86.2033 599.195,-1568.13 599.015,-1792.2"/>
<polygon fill="black" stroke="black" points="595.514,-1792.46 599.007,-1802.46 602.514,-1792.46 595.514,-1792.46"/>
<text text-anchor="middle" x="676" y="-58.2533" font-family="Times,serif" font-size="14.00">gl_sort</text>
</g>
<!-- q9&#45;&gt;q0 -->
<g id="edge121" class="edge"><title>q9&#45;&gt;q0</title>
<path fill="none" stroke="green" d="M774.615,-205.673C768.108,-160.157 748.476,-41.3953 718,-18.4533 688.173,3.99983 660.654,7.68774 634,-18.4533 600.928,-50.8897 599.093,-1566.06 599.003,-1792.32"/>
<polygon fill="green" stroke="green" points="595.503,-1792.38 599,-1802.38 602.503,-1792.38 595.503,-1792.38"/>
<text text-anchor="middle" x="676" y="-22.2533" font-family="Times,serif" font-size="14.00">Learn_Assert</text>
</g>
<!-- q9&#45;&gt;q8 -->
<g id="edge116" class="edge"><title>q9&#45;&gt;q8</title>
<path fill="none" stroke="green" d="M795.312,-228.499C825.477,-238.722 889.83,-264.866 922,-310.453 951.163,-351.779 970.886,-503.116 978.028,-566.371"/>
<polygon fill="green" stroke="green" points="974.562,-566.872 979.141,-576.427 981.52,-566.102 974.562,-566.872"/>
<text text-anchor="middle" x="880" y="-314.253" font-family="Times,serif" font-size="14.00">gl_insert</text>
</g>
<!-- iq0 -->
<g id="node12" class="node"><title>iq0</title>
</g>
<!-- iq0&#45;&gt;q0 -->
<g id="edge1" class="edge"><title>iq0&#45;&gt;q0</title>
<path fill="none" stroke="blue" d="M257.046,-1612.29C318.908,-1604.01 475.908,-1592.64 562,-1673.45 579.017,-1689.43 589.287,-1754.21 593.968,-1792.24"/>
<polygon fill="blue" stroke="blue" points="590.548,-1793.12 595.192,-1802.64 597.5,-1792.3 590.548,-1793.12"/>
</g>
</g>
</svg>
