<?xml version="1.0" encoding="UTF-8" standalone="no"?>
<!DOCTYPE svg PUBLIC "-//W3C//DTD SVG 1.1//EN"
 "http://www.w3.org/Graphics/SVG/1.1/DTD/svg11.dtd">
<!-- Generated by graphviz version 2.34.0 (20141125.1709)
 -->
<!-- Title: finite_automaton Pages: 1 -->
<svg width="576pt" height="39pt"
 viewBox="0.00 0.00 576.00 39.27" xmlns="http://www.w3.org/2000/svg" xmlns:xlink="http://www.w3.org/1999/xlink">
<g id="graph0" class="graph" transform="scale(0.284585 0.284585) rotate(0) translate(4 134)">
<title>finite_automaton</title>
<polygon fill="white" stroke="white" points="-4,4 -4,-134 2020,-134 2020,4 -4,4"/>
<!-- dom_edges -->
<g id="node1" class="node"><title>dom_edges</title>
<polygon fill="none" stroke="green" points="459.5,-64 0.5,-64 0.5,-28 459.5,-28 459.5,-64"/>
<text text-anchor="middle" x="230" y="-42.3" font-family="Times,serif" font-size="14.00">Dominating edges: inspect, __list_add, list_add, gl_insert, gl_read, Learn_Assert</text>
</g>
<!-- q1 -->
<g id="node2" class="node"><title>q1</title>
<ellipse fill="none" stroke="green" cx="1994" cy="-72" rx="18" ry="18"/>
<ellipse fill="none" stroke="green" cx="1994" cy="-72" rx="22" ry="22"/>
<text text-anchor="middle" x="1994" y="-68.3" font-family="Times,serif" font-size="14.00">D</text>
</g>
<!-- q0 -->
<g id="node3" class="node"><title>q0</title>
<ellipse fill="none" stroke="green" cx="516" cy="-100" rx="18" ry="18"/>
</g>
<!-- q12 -->
<g id="node14" class="node"><title>q12</title>
<ellipse fill="none" stroke="green" cx="630" cy="-100" rx="18" ry="18"/>
</g>
<!-- q0&#45;&gt;q12 -->
<g id="edge2" class="edge"><title>q0&#45;&gt;q12</title>
<path fill="none" stroke="green" d="M534.01,-100C551.937,-100 580.445,-100 601.558,-100"/>
<polygon fill="green" stroke="green" points="601.83,-103.5 611.83,-100 601.829,-96.5001 601.83,-103.5"/>
<text text-anchor="middle" x="573" y="-103.8" font-family="Times,serif" font-size="14.00">gl_read</text>
</g>
<!-- q2 -->
<g id="node4" class="node"><title>q2</title>
<ellipse fill="none" stroke="green" cx="1844" cy="-72" rx="18" ry="18"/>
</g>
<!-- q2&#45;&gt;q1 -->
<g id="edge3" class="edge"><title>q2&#45;&gt;q1</title>
<path fill="none" stroke="green" d="M1862.27,-72C1886.55,-72 1931.2,-72 1961.49,-72"/>
<polygon fill="green" stroke="green" points="1961.55,-75.5001 1971.55,-72 1961.55,-68.5001 1961.55,-75.5001"/>
<text text-anchor="middle" x="1917" y="-75.8" font-family="Times,serif" font-size="14.00">Learn_Assert</text>
</g>
<!-- q3 -->
<g id="node5" class="node"><title>q3</title>
<ellipse fill="none" stroke="black" cx="1732" cy="-24" rx="18" ry="18"/>
</g>
<!-- q3&#45;&gt;q2 -->
<g id="edge4" class="edge"><title>q3&#45;&gt;q2</title>
<path fill="none" stroke="green" d="M1750.14,-26.1355C1765.86,-28.5944 1789.44,-33.5707 1808,-43 1813.19,-45.6358 1818.29,-49.1597 1822.93,-52.8413"/>
<polygon fill="green" stroke="green" points="1820.82,-55.6395 1830.69,-59.4807 1825.37,-50.3204 1820.82,-55.6395"/>
<text text-anchor="middle" x="1788" y="-46.8" font-family="Times,serif" font-size="14.00">inspect</text>
</g>
<!-- q4 -->
<g id="node6" class="node"><title>q4</title>
<ellipse fill="none" stroke="black" cx="1600" cy="-18" rx="18" ry="18"/>
</g>
<!-- q4&#45;&gt;q3 -->
<g id="edge5" class="edge"><title>q4&#45;&gt;q3</title>
<path fill="none" stroke="green" d="M1618,-18.7844C1639.8,-19.7906 1677.87,-21.548 1703.74,-22.742"/>
<polygon fill="green" stroke="green" points="1703.85,-26.2505 1714,-23.2154 1704.17,-19.258 1703.85,-26.2505"/>
<text text-anchor="middle" x="1667" y="-26.8" font-family="Times,serif" font-size="14.00">__list_add</text>
</g>
<!-- q5 -->
<g id="node7" class="node"><title>q5</title>
<ellipse fill="none" stroke="black" cx="1482" cy="-24" rx="18" ry="18"/>
</g>
<!-- q5&#45;&gt;q4 -->
<g id="edge6" class="edge"><title>q5&#45;&gt;q4</title>
<path fill="none" stroke="green" d="M1500.12,-23.1147C1518.96,-22.1398 1549.53,-20.5588 1571.7,-19.4123"/>
<polygon fill="green" stroke="green" points="1572.01,-22.9009 1581.81,-18.889 1571.65,-15.9103 1572.01,-22.9009"/>
<text text-anchor="middle" x="1540" y="-26.8" font-family="Times,serif" font-size="14.00">list_add</text>
</g>
<!-- q6 -->
<g id="node8" class="node"><title>q6</title>
<ellipse fill="none" stroke="black" cx="1362" cy="-69" rx="18" ry="18"/>
</g>
<!-- q6&#45;&gt;q2 -->
<g id="edge7" class="edge"><title>q6&#45;&gt;q2</title>
<path fill="none" stroke="green" d="M1380.19,-69.711C1403.16,-70.5981 1445.14,-72 1481,-72 1481,-72 1481,-72 1733,-72 1761.23,-72 1793.53,-72 1815.79,-72"/>
<polygon fill="green" stroke="green" points="1815.85,-75.5001 1825.85,-72 1815.85,-68.5001 1815.85,-75.5001"/>
<text text-anchor="middle" x="1600" y="-75.8" font-family="Times,serif" font-size="14.00">inspect</text>
</g>
<!-- q6&#45;&gt;q5 -->
<g id="edge8" class="edge"><title>q6&#45;&gt;q5</title>
<path fill="none" stroke="green" d="M1376.13,-57.2104C1382.37,-52.1638 1390.16,-46.6128 1398,-43 1415.62,-34.8771 1436.99,-30.089 1453.63,-27.3515"/>
<polygon fill="green" stroke="green" points="1454.43,-30.7719 1463.8,-25.8342 1453.39,-23.8486 1454.43,-30.7719"/>
<text text-anchor="middle" x="1422" y="-46.8" font-family="Times,serif" font-size="14.00">gl_insert</text>
</g>
<!-- q7 -->
<g id="node9" class="node"><title>q7</title>
<ellipse fill="none" stroke="black" cx="1232" cy="-69" rx="18" ry="18"/>
</g>
<!-- q7&#45;&gt;q6 -->
<g id="edge9" class="edge"><title>q7&#45;&gt;q6</title>
<path fill="none" stroke="green" d="M1250.26,-69C1271.64,-69 1308.31,-69 1333.56,-69"/>
<polygon fill="green" stroke="green" points="1333.6,-72.5001 1343.6,-69 1333.6,-65.5001 1333.6,-72.5001"/>
<text text-anchor="middle" x="1297" y="-72.8" font-family="Times,serif" font-size="14.00">__list_add</text>
</g>
<!-- q8 -->
<g id="node10" class="node"><title>q8</title>
<ellipse fill="none" stroke="black" cx="1116" cy="-69" rx="18" ry="18"/>
</g>
<!-- q8&#45;&gt;q7 -->
<g id="edge10" class="edge"><title>q8&#45;&gt;q7</title>
<path fill="none" stroke="green" d="M1134.31,-69C1152.75,-69 1182.18,-69 1203.74,-69"/>
<polygon fill="green" stroke="green" points="1203.9,-72.5001 1213.9,-69 1203.9,-65.5001 1203.9,-72.5001"/>
<text text-anchor="middle" x="1174" y="-72.8" font-family="Times,serif" font-size="14.00">list_add</text>
</g>
<!-- q9 -->
<g id="node11" class="node"><title>q9</title>
<ellipse fill="none" stroke="green" cx="996" cy="-100" rx="18" ry="18"/>
</g>
<!-- q9&#45;&gt;q2 -->
<g id="edge11" class="edge"><title>q9&#45;&gt;q2</title>
<path fill="none" stroke="green" d="M1013.72,-103.479C1036.51,-107.91 1078.65,-115 1115,-115 1115,-115 1115,-115 1733,-115 1764.61,-115 1798.05,-99.4021 1819.64,-86.995"/>
<polygon fill="green" stroke="green" points="1821.62,-89.8916 1828.41,-81.7574 1818.03,-83.8827 1821.62,-89.8916"/>
<text text-anchor="middle" x="1422" y="-118.8" font-family="Times,serif" font-size="14.00">inspect</text>
</g>
<!-- q9&#45;&gt;q8 -->
<g id="edge12" class="edge"><title>q9&#45;&gt;q8</title>
<path fill="none" stroke="green" d="M1012.82,-92.9776C1018.75,-90.5288 1025.61,-87.9169 1032,-86 1050.38,-80.4908 1071.57,-76.1825 1087.95,-73.2815"/>
<polygon fill="green" stroke="green" points="1088.66,-76.7103 1097.93,-71.5799 1087.48,-69.8098 1088.66,-76.7103"/>
<text text-anchor="middle" x="1056" y="-89.8" font-family="Times,serif" font-size="14.00">gl_insert</text>
</g>
<!-- q10 -->
<g id="node12" class="node"><title>q10</title>
<ellipse fill="none" stroke="green" cx="866" cy="-100" rx="18" ry="18"/>
</g>
<!-- q10&#45;&gt;q9 -->
<g id="edge13" class="edge"><title>q10&#45;&gt;q9</title>
<path fill="none" stroke="green" d="M884.263,-100C905.639,-100 942.309,-100 967.558,-100"/>
<polygon fill="green" stroke="green" points="967.602,-103.5 977.602,-100 967.602,-96.5001 967.602,-103.5"/>
<text text-anchor="middle" x="931" y="-103.8" font-family="Times,serif" font-size="14.00">__list_add</text>
</g>
<!-- q11 -->
<g id="node13" class="node"><title>q11</title>
<ellipse fill="none" stroke="green" cx="750" cy="-100" rx="18" ry="18"/>
</g>
<!-- q11&#45;&gt;q10 -->
<g id="edge14" class="edge"><title>q11&#45;&gt;q10</title>
<path fill="none" stroke="green" d="M768.314,-100C786.751,-100 816.184,-100 837.738,-100"/>
<polygon fill="green" stroke="green" points="837.896,-103.5 847.896,-100 837.896,-96.5001 837.896,-103.5"/>
<text text-anchor="middle" x="808" y="-103.8" font-family="Times,serif" font-size="14.00">list_add</text>
</g>
<!-- q12&#45;&gt;q11 -->
<g id="edge15" class="edge"><title>q12&#45;&gt;q11</title>
<path fill="none" stroke="green" d="M648.158,-100C667.472,-100 699.109,-100 721.799,-100"/>
<polygon fill="green" stroke="green" points="721.821,-103.5 731.821,-100 721.821,-96.5001 721.821,-103.5"/>
<text text-anchor="middle" x="690" y="-103.8" font-family="Times,serif" font-size="14.00">gl_insert</text>
</g>
<!-- iq0 -->
<g id="node15" class="node"><title>iq0</title>
</g>
<!-- iq0&#45;&gt;q0 -->
<g id="edge1" class="edge"><title>iq0&#45;&gt;q0</title>
<path fill="none" stroke="blue" d="M257.209,-100C310.908,-100 432.965,-100 487.632,-100"/>
<polygon fill="blue" stroke="blue" points="487.927,-103.5 497.927,-100 487.927,-96.5001 487.927,-103.5"/>
</g>
</g>
</svg>
