<?xml version="1.0" encoding="UTF-8" standalone="no"?>
<!DOCTYPE svg PUBLIC "-//W3C//DTD SVG 1.1//EN"
 "http://www.w3.org/Graphics/SVG/1.1/DTD/svg11.dtd">
<!-- Generated by graphviz version 2.34.0 (20141125.1709)
 -->
<!-- Title: finite_automaton Pages: 1 -->
<svg width="576pt" height="36pt"
 viewBox="0.00 0.00 576.00 36.13" xmlns="http://www.w3.org/2000/svg" xmlns:xlink="http://www.w3.org/1999/xlink">
<g id="graph0" class="graph" transform="scale(0.347407 0.347407) rotate(0) translate(4 100)">
<title>finite_automaton</title>
<polygon fill="white" stroke="white" points="-4,4 -4,-100 1654,-100 1654,4 -4,4"/>
<!-- dom_edges -->
<g id="node1" class="node"><title>dom_edges</title>
<polygon fill="none" stroke="green" points="459.5,-36 0.5,-36 0.5,-0 459.5,-0 459.5,-36"/>
<text text-anchor="middle" x="230" y="-14.3" font-family="Times,serif" font-size="14.00">Dominating edges: inspect, __list_add, list_add, gl_insert, gl_read, Learn_Assert</text>
</g>
<!-- q1 -->
<g id="node2" class="node"><title>q1</title>
<ellipse fill="none" stroke="green" cx="1628" cy="-61" rx="18" ry="18"/>
<ellipse fill="none" stroke="green" cx="1628" cy="-61" rx="22" ry="22"/>
<text text-anchor="middle" x="1628" y="-57.3" font-family="Times,serif" font-size="14.00">D</text>
</g>
<!-- q0 -->
<g id="node3" class="node"><title>q0</title>
<ellipse fill="none" stroke="green" cx="516" cy="-72" rx="18" ry="18"/>
</g>
<!-- q9 -->
<g id="node11" class="node"><title>q9</title>
<ellipse fill="none" stroke="green" cx="630" cy="-72" rx="18" ry="18"/>
</g>
<!-- q0&#45;&gt;q9 -->
<g id="edge2" class="edge"><title>q0&#45;&gt;q9</title>
<path fill="none" stroke="green" d="M534.01,-72C551.937,-72 580.445,-72 601.558,-72"/>
<polygon fill="green" stroke="green" points="601.83,-75.5001 611.83,-72 601.829,-68.5001 601.83,-75.5001"/>
<text text-anchor="middle" x="573" y="-75.8" font-family="Times,serif" font-size="14.00">gl_read</text>
</g>
<!-- q2 -->
<g id="node4" class="node"><title>q2</title>
<ellipse fill="none" stroke="green" cx="1478" cy="-61" rx="18" ry="18"/>
</g>
<!-- q2&#45;&gt;q1 -->
<g id="edge3" class="edge"><title>q2&#45;&gt;q1</title>
<path fill="none" stroke="green" d="M1496.27,-61C1520.55,-61 1565.2,-61 1595.49,-61"/>
<polygon fill="green" stroke="green" points="1595.55,-64.5001 1605.55,-61 1595.55,-57.5001 1595.55,-64.5001"/>
<text text-anchor="middle" x="1551" y="-64.8" font-family="Times,serif" font-size="14.00">Learn_Assert</text>
</g>
<!-- q3 -->
<g id="node5" class="node"><title>q3</title>
<ellipse fill="none" stroke="black" cx="1366" cy="-33" rx="18" ry="18"/>
</g>
<!-- q3&#45;&gt;q2 -->
<g id="edge4" class="edge"><title>q3&#45;&gt;q2</title>
<path fill="none" stroke="green" d="M1383.69,-37.2089C1398.89,-41.0477 1421.96,-46.8843 1442,-52 1444.7,-52.689 1447.52,-53.4098 1450.33,-54.1306"/>
<polygon fill="green" stroke="green" points="1449.71,-57.5863 1460.27,-56.6846 1451.45,-50.8064 1449.71,-57.5863"/>
<text text-anchor="middle" x="1422" y="-55.8" font-family="Times,serif" font-size="14.00">inspect</text>
</g>
<!-- q4 -->
<g id="node6" class="node"><title>q4</title>
<ellipse fill="none" stroke="black" cx="1234" cy="-27" rx="18" ry="18"/>
</g>
<!-- q4&#45;&gt;q3 -->
<g id="edge5" class="edge"><title>q4&#45;&gt;q3</title>
<path fill="none" stroke="green" d="M1252,-27.7844C1273.8,-28.7906 1311.87,-30.548 1337.74,-31.742"/>
<polygon fill="green" stroke="green" points="1337.85,-35.2505 1348,-32.2154 1338.17,-28.258 1337.85,-35.2505"/>
<text text-anchor="middle" x="1301" y="-34.8" font-family="Times,serif" font-size="14.00">__list_add</text>
</g>
<!-- q5 -->
<g id="node7" class="node"><title>q5</title>
<ellipse fill="none" stroke="black" cx="1116" cy="-33" rx="18" ry="18"/>
</g>
<!-- q5&#45;&gt;q4 -->
<g id="edge6" class="edge"><title>q5&#45;&gt;q4</title>
<path fill="none" stroke="green" d="M1134.12,-32.1147C1152.96,-31.1398 1183.53,-29.5588 1205.7,-28.4123"/>
<polygon fill="green" stroke="green" points="1206.01,-31.9009 1215.81,-27.889 1205.65,-24.9103 1206.01,-31.9009"/>
<text text-anchor="middle" x="1174" y="-34.8" font-family="Times,serif" font-size="14.00">list_add</text>
</g>
<!-- q6 -->
<g id="node8" class="node"><title>q6</title>
<ellipse fill="none" stroke="green" cx="996" cy="-72" rx="18" ry="18"/>
</g>
<!-- q6&#45;&gt;q2 -->
<g id="edge7" class="edge"><title>q6&#45;&gt;q2</title>
<path fill="none" stroke="green" d="M1014.17,-74.1329C1037.11,-76.7943 1079.05,-81 1115,-81 1115,-81 1115,-81 1367,-81 1395.99,-81 1428.59,-74.1931 1450.73,-68.5215"/>
<polygon fill="green" stroke="green" points="1451.64,-71.901 1460.4,-65.9438 1449.83,-65.137 1451.64,-71.901"/>
<text text-anchor="middle" x="1234" y="-84.8" font-family="Times,serif" font-size="14.00">inspect</text>
</g>
<!-- q6&#45;&gt;q5 -->
<g id="edge8" class="edge"><title>q6&#45;&gt;q5</title>
<path fill="none" stroke="green" d="M1011.51,-62.4307C1017.63,-58.7369 1024.96,-54.748 1032,-52 1050.07,-44.9461 1071.43,-40.1309 1087.96,-37.1131"/>
<polygon fill="green" stroke="green" points="1088.77,-40.5248 1098.03,-35.384 1087.59,-33.6256 1088.77,-40.5248"/>
<text text-anchor="middle" x="1056" y="-55.8" font-family="Times,serif" font-size="14.00">gl_insert</text>
</g>
<!-- q7 -->
<g id="node9" class="node"><title>q7</title>
<ellipse fill="none" stroke="green" cx="866" cy="-72" rx="18" ry="18"/>
</g>
<!-- q7&#45;&gt;q6 -->
<g id="edge9" class="edge"><title>q7&#45;&gt;q6</title>
<path fill="none" stroke="green" d="M884.263,-72C905.639,-72 942.309,-72 967.558,-72"/>
<polygon fill="green" stroke="green" points="967.602,-75.5001 977.602,-72 967.602,-68.5001 967.602,-75.5001"/>
<text text-anchor="middle" x="931" y="-75.8" font-family="Times,serif" font-size="14.00">__list_add</text>
</g>
<!-- q8 -->
<g id="node10" class="node"><title>q8</title>
<ellipse fill="none" stroke="green" cx="750" cy="-72" rx="18" ry="18"/>
</g>
<!-- q8&#45;&gt;q7 -->
<g id="edge10" class="edge"><title>q8&#45;&gt;q7</title>
<path fill="none" stroke="green" d="M768.314,-72C786.751,-72 816.184,-72 837.738,-72"/>
<polygon fill="green" stroke="green" points="837.896,-75.5001 847.896,-72 837.896,-68.5001 837.896,-75.5001"/>
<text text-anchor="middle" x="808" y="-75.8" font-family="Times,serif" font-size="14.00">list_add</text>
</g>
<!-- q9&#45;&gt;q8 -->
<g id="edge11" class="edge"><title>q9&#45;&gt;q8</title>
<path fill="none" stroke="green" d="M648.158,-72C667.472,-72 699.109,-72 721.799,-72"/>
<polygon fill="green" stroke="green" points="721.821,-75.5001 731.821,-72 721.821,-68.5001 721.821,-75.5001"/>
<text text-anchor="middle" x="690" y="-75.8" font-family="Times,serif" font-size="14.00">gl_insert</text>
</g>
<!-- iq0 -->
<g id="node12" class="node"><title>iq0</title>
</g>
<!-- iq0&#45;&gt;q0 -->
<g id="edge1" class="edge"><title>iq0&#45;&gt;q0</title>
<path fill="none" stroke="blue" d="M257.209,-72C310.908,-72 432.965,-72 487.632,-72"/>
<polygon fill="blue" stroke="blue" points="487.927,-75.5001 497.927,-72 487.927,-68.5001 487.927,-75.5001"/>
</g>
</g>
</svg>
