<?xml version="1.0" encoding="UTF-8" standalone="no"?>
<!DOCTYPE svg PUBLIC "-//W3C//DTD SVG 1.1//EN"
 "http://www.w3.org/Graphics/SVG/1.1/DTD/svg11.dtd">
<!-- Generated by graphviz version 2.34.0 (20141125.1709)
 -->
<!-- Title: finite_automaton Pages: 1 -->
<svg width="271pt" height="576pt"
 viewBox="0.00 0.00 270.85 576.00" xmlns="http://www.w3.org/2000/svg" xmlns:xlink="http://www.w3.org/1999/xlink">
<g id="graph0" class="graph" transform="scale(0.112292 0.112292) rotate(0) translate(4 5125.48)">
<title>finite_automaton</title>
<polygon fill="white" stroke="white" points="-4,4 -4,-5125.48 2408,-5125.48 2408,4 -4,4"/>
<!-- dom_edges -->
<g id="node1" class="node"><title>dom_edges</title>
<polygon fill="none" stroke="green" points="459.5,-2230.48 0.5,-2230.48 0.5,-2194.48 459.5,-2194.48 459.5,-2230.48"/>
<text text-anchor="middle" x="230" y="-2208.78" font-family="Times,serif" font-size="14.00">Dominating edges: inspect, __list_add, list_add, gl_insert, gl_read, Learn_Assert</text>
</g>
<!-- q1 -->
<g id="node2" class="node"><title>q1</title>
<ellipse fill="none" stroke="green" cx="230" cy="-2527.48" rx="18" ry="18"/>
<ellipse fill="none" stroke="green" cx="230" cy="-2527.48" rx="22" ry="22"/>
<text text-anchor="middle" x="230" y="-2523.78" font-family="Times,serif" font-size="14.00">D</text>
</g>
<!-- q0 -->
<g id="node3" class="node"><title>q0</title>
<ellipse fill="none" stroke="green" cx="598" cy="-2470.48" rx="18" ry="18"/>
<text text-anchor="middle" x="598" y="-2466.78" font-family="Times,serif" font-size="14.00">D</text>
</g>
<!-- q1&#45;&gt;q0 -->
<g id="edge14" class="edge"><title>q1&#45;&gt;q0</title>
<path fill="none" stroke="green" d="M244.31,-2544.33C291.808,-2602.49 455.789,-2786.45 562,-2695.48 591.204,-2670.47 596.235,-2553.55 596.967,-2498.84"/>
<polygon fill="green" stroke="green" points="600.467,-2498.81 597.062,-2488.78 593.467,-2498.74 600.467,-2498.81"/>
<text text-anchor="middle" x="520" y="-2723.28" font-family="Times,serif" font-size="14.00">inspect</text>
</g>
<!-- q1&#45;&gt;q0 -->
<g id="edge15" class="edge"><title>q1&#45;&gt;q0</title>
<path fill="none" stroke="green" d="M248.069,-2540.3C286.569,-2568.3 384.148,-2634.29 478,-2657.48 514.243,-2666.44 533.276,-2681.33 562,-2657.48 585.93,-2637.62 593.593,-2545.78 595.972,-2498.61"/>
<polygon fill="green" stroke="green" points="599.476,-2498.61 596.437,-2488.46 592.483,-2498.29 599.476,-2498.61"/>
<text text-anchor="middle" x="520" y="-2673.28" font-family="Times,serif" font-size="14.00">__list_add</text>
</g>
<!-- q1&#45;&gt;q0 -->
<g id="edge16" class="edge"><title>q1&#45;&gt;q0</title>
<path fill="none" stroke="black" d="M250.322,-2537.08C313.362,-2567.77 511.862,-2659.21 562,-2619.48 580.657,-2604.7 590.342,-2537.63 594.475,-2498.7"/>
<polygon fill="black" stroke="black" points="597.98,-2498.84 595.497,-2488.54 591.015,-2498.14 597.98,-2498.84"/>
<text text-anchor="middle" x="520" y="-2632.28" font-family="Times,serif" font-size="14.00">__list_del</text>
</g>
<!-- q1&#45;&gt;q0 -->
<g id="edge17" class="edge"><title>q1&#45;&gt;q0</title>
<path fill="none" stroke="green" d="M251.195,-2534.49C315.137,-2556.13 511.875,-2618.24 562,-2581.48 587.636,-2562.69 594.982,-2525.07 596.835,-2498.87"/>
<polygon fill="green" stroke="green" points="600.337,-2498.92 597.322,-2488.76 593.345,-2498.58 600.337,-2498.92"/>
<text text-anchor="middle" x="520" y="-2596.28" font-family="Times,serif" font-size="14.00">list_add</text>
</g>
<!-- q1&#45;&gt;q0 -->
<g id="edge18" class="edge"><title>q1&#45;&gt;q0</title>
<path fill="none" stroke="black" d="M251.942,-2531.53C316.351,-2543.53 510.269,-2576.05 562,-2543.48 577.709,-2533.59 586.525,-2514.48 591.379,-2498.29"/>
<polygon fill="black" stroke="black" points="594.874,-2498.76 594.029,-2488.2 588.103,-2496.98 594.874,-2498.76"/>
<text text-anchor="middle" x="520" y="-2561.28" font-family="Times,serif" font-size="14.00">list_move</text>
</g>
<!-- q1&#45;&gt;q0 -->
<g id="edge19" class="edge"><title>q1&#45;&gt;q0</title>
<path fill="none" stroke="black" d="M252.046,-2527.99C315.893,-2529.24 506.406,-2530.7 562,-2505.48 568.625,-2502.48 574.696,-2497.63 579.854,-2492.49"/>
<polygon fill="black" stroke="black" points="582.588,-2494.69 586.718,-2484.93 577.405,-2489.98 582.588,-2494.69"/>
<text text-anchor="middle" x="520" y="-2524.28" font-family="Times,serif" font-size="14.00">gl_sort_pass</text>
</g>
<!-- q1&#45;&gt;q0 -->
<g id="edge20" class="edge"><title>q1&#45;&gt;q0</title>
<path fill="none" stroke="green" d="M251.784,-2523.81C294.229,-2516.36 393.961,-2499.1 478,-2486.48 509.463,-2481.76 545.708,-2476.98 569.849,-2473.89"/>
<polygon fill="green" stroke="green" points="570.55,-2477.33 580.029,-2472.6 569.668,-2470.39 570.55,-2477.33"/>
<text text-anchor="middle" x="520" y="-2490.28" font-family="Times,serif" font-size="14.00">gl_insert</text>
</g>
<!-- q1&#45;&gt;q0 -->
<g id="edge21" class="edge"><title>q1&#45;&gt;q0</title>
<path fill="none" stroke="green" d="M250.745,-2519.63C292.084,-2503.67 391.111,-2467.89 478,-2455.48 514.959,-2450.21 525.429,-2447.98 562,-2455.48 565.473,-2456.2 569.026,-2457.27 572.475,-2458.52"/>
<polygon fill="green" stroke="green" points="571.18,-2461.77 581.759,-2462.36 573.857,-2455.3 571.18,-2461.77"/>
<text text-anchor="middle" x="520" y="-2459.28" font-family="Times,serif" font-size="14.00">gl_read</text>
</g>
<!-- q1&#45;&gt;q0 -->
<g id="edge22" class="edge"><title>q1&#45;&gt;q0</title>
<path fill="none" stroke="black" d="M249.809,-2517.36C290.172,-2496.27 388.693,-2448.23 478,-2431.48 514.694,-2424.6 527.907,-2416.27 562,-2431.48 569.711,-2434.92 576.431,-2441 581.865,-2447.34"/>
<polygon fill="black" stroke="black" points="579.159,-2449.56 588.039,-2455.34 584.702,-2445.29 579.159,-2449.56"/>
<text text-anchor="middle" x="520" y="-2435.28" font-family="Times,serif" font-size="14.00">gl_destroy</text>
</g>
<!-- q1&#45;&gt;q0 -->
<g id="edge23" class="edge"><title>q1&#45;&gt;q0</title>
<path fill="none" stroke="black" d="M248.464,-2515.05C287.372,-2488.21 385.087,-2425.5 478,-2403.48 514.328,-2394.88 530.069,-2384.14 562,-2403.48 576.318,-2412.16 585.057,-2428.82 590.222,-2443.36"/>
<polygon fill="black" stroke="black" points="586.905,-2444.48 593.252,-2452.96 593.58,-2442.37 586.905,-2444.48"/>
<text text-anchor="middle" x="520" y="-2407.28" font-family="Times,serif" font-size="14.00">val_from_node</text>
</g>
<!-- q1&#45;&gt;q0 -->
<g id="edge24" class="edge"><title>q1&#45;&gt;q0</title>
<path fill="none" stroke="black" d="M246.782,-2513.08C283.772,-2480.43 380.348,-2401.43 478,-2373.48 513.892,-2363.21 531.448,-2352.03 562,-2373.48 584.007,-2388.94 592.239,-2419.65 595.284,-2442.4"/>
<polygon fill="black" stroke="black" points="591.822,-2442.95 596.374,-2452.51 598.782,-2442.2 591.822,-2442.95"/>
<text text-anchor="middle" x="520" y="-2377.28" font-family="Times,serif" font-size="14.00">gl_sort</text>
</g>
<!-- q1&#45;&gt;q0 -->
<g id="edge25" class="edge"><title>q1&#45;&gt;q0</title>
<path fill="none" stroke="green" d="M245.088,-2511.31C279.895,-2472.75 374.654,-2376.04 478,-2341.48 513.406,-2329.64 532.346,-2318.8 562,-2341.48 577.925,-2353.66 588.298,-2408.18 593.359,-2442.32"/>
<polygon fill="green" stroke="green" points="589.948,-2443.2 594.815,-2452.61 596.879,-2442.22 589.948,-2443.2"/>
<text text-anchor="middle" x="520" y="-2345.28" font-family="Times,serif" font-size="14.00">Learn_Assert</text>
</g>
<!-- q0&#45;&gt;q0 -->
<g id="edge2" class="edge"><title>q0&#45;&gt;q0</title>
<path fill="none" stroke="green" d="M596.553,-2488.64C596.33,-2498.02 596.812,-2506.48 598,-2506.48 598.724,-2506.48 599.185,-2503.34 599.385,-2498.76"/>
<polygon fill="green" stroke="green" points="602.886,-2498.66 599.447,-2488.64 595.886,-2498.61 602.886,-2498.66"/>
<text text-anchor="middle" x="598" y="-2510.28" font-family="Times,serif" font-size="14.00">inspect</text>
</g>
<!-- q0&#45;&gt;q0 -->
<g id="edge3" class="edge"><title>q0&#45;&gt;q0</title>
<path fill="none" stroke="green" d="M595.595,-2488.46C594.308,-2505.68 595.109,-2524.48 598,-2524.48 600.326,-2524.48 601.299,-2512.31 600.92,-2498.58"/>
<polygon fill="green" stroke="green" points="604.409,-2498.27 600.405,-2488.46 597.418,-2498.63 604.409,-2498.27"/>
<text text-anchor="middle" x="598" y="-2528.28" font-family="Times,serif" font-size="14.00">__list_add</text>
</g>
<!-- q0&#45;&gt;q0 -->
<g id="edge4" class="edge"><title>q0&#45;&gt;q0</title>
<path fill="none" stroke="black" d="M594.964,-2488.56C592.277,-2512.89 593.289,-2542.48 598,-2542.48 602.067,-2542.48 603.377,-2520.43 601.931,-2498.75"/>
<polygon fill="black" stroke="black" points="605.398,-2498.22 601.036,-2488.56 598.425,-2498.83 605.398,-2498.22"/>
<text text-anchor="middle" x="598" y="-2546.28" font-family="Times,serif" font-size="14.00">__list_del</text>
</g>
<!-- q0&#45;&gt;q0 -->
<g id="edge5" class="edge"><title>q0&#45;&gt;q0</title>
<path fill="none" stroke="green" d="M594.523,-2488.6C590.247,-2519.72 591.406,-2560.48 598,-2560.48 603.898,-2560.48 605.448,-2527.87 602.649,-2498.71"/>
<polygon fill="green" stroke="green" points="606.105,-2498.13 601.477,-2488.6 599.151,-2498.93 606.105,-2498.13"/>
<text text-anchor="middle" x="598" y="-2564.28" font-family="Times,serif" font-size="14.00">list_add</text>
</g>
<!-- q0&#45;&gt;q0 -->
<g id="edge6" class="edge"><title>q0&#45;&gt;q0</title>
<path fill="none" stroke="black" d="M594.249,-2488.28C588.215,-2526.03 589.465,-2578.48 598,-2578.48 605.802,-2578.48 607.517,-2534.66 603.145,-2498.3"/>
<polygon fill="black" stroke="black" points="606.596,-2497.7 601.751,-2488.28 599.663,-2498.67 606.596,-2497.7"/>
<text text-anchor="middle" x="598" y="-2582.28" font-family="Times,serif" font-size="14.00">list_move</text>
</g>
<!-- q0&#45;&gt;q0 -->
<g id="edge7" class="edge"><title>q0&#45;&gt;q0</title>
<path fill="none" stroke="black" d="M594.01,-2488.25C586.193,-2532.46 587.523,-2596.48 598,-2596.48 607.699,-2596.48 609.559,-2541.61 603.579,-2498.39"/>
<polygon fill="black" stroke="black" points="606.997,-2497.59 601.99,-2488.25 600.081,-2498.67 606.997,-2497.59"/>
<text text-anchor="middle" x="598" y="-2600.28" font-family="Times,serif" font-size="14.00">gl_sort_pass</text>
</g>
<!-- q0&#45;&gt;q0 -->
<g id="edge8" class="edge"><title>q0&#45;&gt;q0</title>
<path fill="none" stroke="green" d="M593.845,-2488.1C584.174,-2538.67 585.559,-2614.48 598,-2614.48 609.64,-2614.48 611.602,-2548.13 603.887,-2498.17"/>
<polygon fill="green" stroke="green" points="607.301,-2497.36 602.155,-2488.1 600.402,-2498.55 607.301,-2497.36"/>
<text text-anchor="middle" x="598" y="-2618.28" font-family="Times,serif" font-size="14.00">gl_insert</text>
</g>
<!-- q0&#45;&gt;q0 -->
<g id="edge10" class="edge"><title>q0&#45;&gt;q0</title>
<path fill="none" stroke="black" d="M593.695,-2488.07C582.159,-2544.93 583.594,-2632.48 598,-2632.48 611.59,-2632.48 613.637,-2554.56 604.14,-2498"/>
<polygon fill="black" stroke="black" points="607.563,-2497.27 602.305,-2488.07 600.68,-2498.54 607.563,-2497.27"/>
<text text-anchor="middle" x="598" y="-2636.28" font-family="Times,serif" font-size="14.00">gl_destroy</text>
</g>
<!-- q0&#45;&gt;q0 -->
<g id="edge11" class="edge"><title>q0&#45;&gt;q0</title>
<path fill="none" stroke="black" d="M593.584,-2487.98C580.145,-2551.08 581.617,-2650.48 598,-2650.48 613.551,-2650.48 615.667,-2560.92 604.348,-2497.85"/>
<polygon fill="black" stroke="black" points="607.771,-2497.12 602.416,-2487.98 600.901,-2498.46 607.771,-2497.12"/>
<text text-anchor="middle" x="598" y="-2654.28" font-family="Times,serif" font-size="14.00">val_from_node</text>
</g>
<!-- q0&#45;&gt;q0 -->
<g id="edge12" class="edge"><title>q0&#45;&gt;q0</title>
<path fill="none" stroke="black" d="M593.482,-2487.95C578.135,-2557.25 579.641,-2668.48 598,-2668.48 615.499,-2668.48 617.687,-2567.43 604.565,-2497.95"/>
<polygon fill="black" stroke="black" points="607.951,-2497.04 602.518,-2487.95 601.094,-2498.45 607.951,-2497.04"/>
<text text-anchor="middle" x="598" y="-2672.28" font-family="Times,serif" font-size="14.00">gl_sort</text>
</g>
<!-- q0&#45;&gt;q0 -->
<g id="edge13" class="edge"><title>q0&#45;&gt;q0</title>
<path fill="none" stroke="green" d="M593.356,-2488.09C576.128,-2563.59 577.676,-2686.48 598,-2686.48 617.451,-2686.48 619.705,-2573.92 604.761,-2498.07"/>
<polygon fill="green" stroke="green" points="608.143,-2497.15 602.644,-2488.09 601.295,-2498.6 608.143,-2497.15"/>
<text text-anchor="middle" x="598" y="-2690.28" font-family="Times,serif" font-size="14.00">Learn_Assert</text>
</g>
<!-- q12 -->
<g id="node14" class="node"><title>q12</title>
<ellipse fill="none" stroke="green" cx="778" cy="-223.483" rx="18" ry="18"/>
<text text-anchor="middle" x="778" y="-219.783" font-family="Times,serif" font-size="14.00">D</text>
</g>
<!-- q0&#45;&gt;q12 -->
<g id="edge9" class="edge"><title>q0&#45;&gt;q12</title>
<path fill="none" stroke="green" d="M599.006,-2452.48C599.105,-2252.71 600.917,-457.086 634,-414.483 657.741,-383.911 691.025,-419.243 718,-391.483 741.589,-367.209 725.194,-349.56 736,-317.483 744.084,-293.489 755.838,-267.145 764.691,-248.467"/>
<polygon fill="green" stroke="green" points="767.847,-249.98 769.021,-239.451 761.537,-246.95 767.847,-249.98"/>
<text text-anchor="middle" x="676" y="-418.283" font-family="Times,serif" font-size="14.00">gl_read</text>
</g>
<!-- q2 -->
<g id="node4" class="node"><title>q2</title>
<ellipse fill="none" stroke="green" cx="2386" cy="-4832.48" rx="18" ry="18"/>
<text text-anchor="middle" x="2386" y="-4828.78" font-family="Times,serif" font-size="14.00">D</text>
</g>
<!-- q2&#45;&gt;q1 -->
<g id="edge37" class="edge"><title>q2&#45;&gt;q1</title>
<path fill="none" stroke="green" d="M2384.19,-4850.64C2381.76,-4898.53 2373.19,-5026.92 2350,-5061.48 2328.34,-5093.76 2313.87,-5106.48 2275,-5106.48 597,-5106.48 597,-5106.48 597,-5106.48 326.741,-5106.48 242.076,-2857.77 232.047,-2559.92"/>
<polygon fill="green" stroke="green" points="235.54,-2559.66 231.709,-2549.78 228.544,-2559.89 235.54,-2559.66"/>
<text text-anchor="middle" x="1594" y="-5110.28" font-family="Times,serif" font-size="14.00">Learn_Assert</text>
</g>
<!-- q2&#45;&gt;q0 -->
<g id="edge26" class="edge"><title>q2&#45;&gt;q0</title>
<path fill="none" stroke="green" d="M2384.25,-4850.56C2382.03,-4895.15 2374.1,-5008.75 2350,-5036.48 2327.04,-5062.9 2310,-5060.48 2275,-5060.48 777,-5060.48 777,-5060.48 777,-5060.48 712.556,-5060.48 675.962,-5085.39 634,-5036.48 612.239,-5011.12 600.514,-2777.24 599.137,-2498.85"/>
<polygon fill="green" stroke="green" points="602.637,-2498.74 599.088,-2488.75 595.637,-2498.77 602.637,-2498.74"/>
<text text-anchor="middle" x="1696" y="-5064.28" font-family="Times,serif" font-size="14.00">inspect</text>
</g>
<!-- q2&#45;&gt;q0 -->
<g id="edge27" class="edge"><title>q2&#45;&gt;q0</title>
<path fill="none" stroke="green" d="M2383.46,-4850.56C2379.84,-4888.93 2369.59,-4976.79 2350,-4998.48 2326.54,-5024.46 2310,-5022.48 2275,-5022.48 777,-5022.48 777,-5022.48 777,-5022.48 712.556,-5022.48 675.967,-5047.39 634,-4998.48 612.569,-4973.51 600.566,-2774.87 599.143,-2498.84"/>
<polygon fill="green" stroke="green" points="602.641,-2498.46 599.09,-2488.48 595.641,-2498.5 602.641,-2498.46"/>
<text text-anchor="middle" x="1696" y="-5026.28" font-family="Times,serif" font-size="14.00">__list_add</text>
</g>
<!-- q2&#45;&gt;q0 -->
<g id="edge28" class="edge"><title>q2&#45;&gt;q0</title>
<path fill="none" stroke="black" d="M2385.19,-4850.8C2384.46,-4878.28 2379.01,-4930.21 2350,-4960.48 2325.79,-4985.75 2310,-4984.48 2275,-4984.48 777,-4984.48 777,-4984.48 777,-4984.48 712.556,-4984.48 675.972,-5009.39 634,-4960.48 591.82,-4911.34 597.942,-2771.61 598.894,-2498.96"/>
<polygon fill="black" stroke="black" points="602.395,-2498.72 598.931,-2488.71 595.395,-2498.7 602.395,-2498.72"/>
<text text-anchor="middle" x="1696" y="-4988.28" font-family="Times,serif" font-size="14.00">__list_del</text>
</g>
<!-- q2&#45;&gt;q0 -->
<g id="edge29" class="edge"><title>q2&#45;&gt;q0</title>
<path fill="none" stroke="green" d="M2382.71,-4850.24C2379.18,-4870.46 2370.52,-4903.19 2350,-4922.48 2324.51,-4946.46 2310,-4946.48 2275,-4946.48 777,-4946.48 777,-4946.48 777,-4946.48 712.556,-4946.48 675.977,-4971.38 634,-4922.48 592.48,-4874.12 598.018,-2769.19 598.901,-2498.94"/>
<polygon fill="green" stroke="green" points="602.401,-2498.78 598.935,-2488.77 595.401,-2498.76 602.401,-2498.78"/>
<text text-anchor="middle" x="1696" y="-4950.28" font-family="Times,serif" font-size="14.00">list_add</text>
</g>
<!-- q2&#45;&gt;q0 -->
<g id="edge30" class="edge"><title>q2&#45;&gt;q0</title>
<path fill="none" stroke="black" d="M2377.71,-4848.71C2371.77,-4860.22 2362.36,-4875.21 2350,-4884.48 2322.01,-4905.5 2310,-4908.48 2275,-4908.48 777,-4908.48 777,-4908.48 777,-4908.48 712.556,-4908.48 675.983,-4933.38 634,-4884.48 593.118,-4836.87 598.1,-2764.56 598.909,-2498.5"/>
<polygon fill="black" stroke="black" points="602.409,-2498.5 598.94,-2488.49 595.409,-2498.48 602.409,-2498.5"/>
<text text-anchor="middle" x="1696" y="-4912.28" font-family="Times,serif" font-size="14.00">list_move</text>
</g>
<!-- q2&#45;&gt;q0 -->
<g id="edge31" class="edge"><title>q2&#45;&gt;q0</title>
<path fill="none" stroke="black" d="M2369.91,-4841.3C2349.22,-4852.52 2310.56,-4870.48 2275,-4870.48 777,-4870.48 777,-4870.48 777,-4870.48 712.556,-4870.48 675.989,-4895.37 634,-4846.48 593.797,-4799.67 598.173,-2764.04 598.914,-2498.86"/>
<polygon fill="black" stroke="black" points="602.415,-2498.55 598.944,-2488.54 595.415,-2498.53 602.415,-2498.55"/>
<text text-anchor="middle" x="1696" y="-4874.28" font-family="Times,serif" font-size="14.00">gl_sort_pass</text>
</g>
<!-- q2&#45;&gt;q0 -->
<g id="edge32" class="edge"><title>q2&#45;&gt;q0</title>
<path fill="none" stroke="green" d="M2367.85,-4832.48C2346.21,-4832.48 2307.85,-4832.48 2275,-4832.48 777,-4832.48 777,-4832.48 777,-4832.48 712.556,-4832.48 675.994,-4857.37 634,-4808.48 594.454,-4762.45 598.252,-2761.41 598.921,-2498.81"/>
<polygon fill="green" stroke="green" points="602.422,-2498.59 598.948,-2488.58 595.422,-2498.57 602.422,-2498.59"/>
<text text-anchor="middle" x="1696" y="-4836.28" font-family="Times,serif" font-size="14.00">gl_insert</text>
</g>
<!-- q2&#45;&gt;q0 -->
<g id="edge33" class="edge"><title>q2&#45;&gt;q0</title>
<path fill="none" stroke="green" d="M2369.91,-4823.67C2349.22,-4812.44 2310.56,-4794.48 2275,-4794.48 777,-4794.48 777,-4794.48 777,-4794.48 712.556,-4794.48 676,-4819.36 634,-4770.48 595.111,-4725.23 598.332,-2758.71 598.929,-2498.75"/>
<polygon fill="green" stroke="green" points="602.429,-2498.62 598.953,-2488.61 595.429,-2498.61 602.429,-2498.62"/>
<text text-anchor="middle" x="1696" y="-4798.28" font-family="Times,serif" font-size="14.00">gl_read</text>
</g>
<!-- q2&#45;&gt;q0 -->
<g id="edge34" class="edge"><title>q2&#45;&gt;q0</title>
<path fill="none" stroke="black" d="M2374.51,-4818.54C2356.68,-4796.6 2318.17,-4756.48 2275,-4756.48 777,-4756.48 777,-4756.48 777,-4756.48 712.556,-4756.48 676.007,-4781.36 634,-4732.48 595.768,-4688 598.414,-2755.94 598.936,-2498.68"/>
<polygon fill="black" stroke="black" points="602.436,-2498.65 598.957,-2488.64 595.436,-2498.63 602.436,-2498.65"/>
<text text-anchor="middle" x="1696" y="-4760.28" font-family="Times,serif" font-size="14.00">gl_destroy</text>
</g>
<!-- q2&#45;&gt;q0 -->
<g id="edge35" class="edge"><title>q2&#45;&gt;q0</title>
<path fill="none" stroke="black" d="M2379.77,-4815.3C2374.34,-4799.76 2364.58,-4777.01 2350,-4761.48 2323.69,-4733.48 2313.42,-4718.48 2275,-4718.48 777,-4718.48 777,-4718.48 777,-4718.48 712.556,-4718.48 676.013,-4743.35 634,-4694.48 596.442,-4650.8 598.495,-2754.99 598.943,-2498.98"/>
<polygon fill="black" stroke="black" points="602.444,-2498.66 598.962,-2488.66 595.444,-2498.65 602.444,-2498.66"/>
<text text-anchor="middle" x="1696" y="-4722.28" font-family="Times,serif" font-size="14.00">val_from_node</text>
</g>
<!-- q2&#45;&gt;q0 -->
<g id="edge36" class="edge"><title>q2&#45;&gt;q0</title>
<path fill="none" stroke="black" d="M2383.45,-4814.38C2380.56,-4790.64 2372.45,-4748.8 2350,-4721.48 2325.88,-4692.14 2312.99,-4680.48 2275,-4680.48 777,-4680.48 777,-4680.48 777,-4680.48 710.1,-4680.48 673.668,-4687.35 634,-4633.48 600.811,-4588.41 599.084,-2750.63 599.003,-2498.93"/>
<polygon fill="black" stroke="black" points="602.503,-2498.77 599,-2488.77 595.503,-2498.77 602.503,-2498.77"/>
<text text-anchor="middle" x="1696" y="-4684.28" font-family="Times,serif" font-size="14.00">gl_sort</text>
</g>
<!-- q3 -->
<g id="node5" class="node"><title>q3</title>
<ellipse fill="none" stroke="black" cx="2274" cy="-4382.48" rx="18" ry="18"/>
<text text-anchor="middle" x="2274" y="-4378.78" font-family="Times,serif" font-size="14.00">D</text>
</g>
<!-- q3&#45;&gt;q0 -->
<g id="edge39" class="edge"><title>q3&#45;&gt;q0</title>
<path fill="none" stroke="green" d="M2272.35,-4400.67C2270.35,-4447.32 2262.8,-4569.77 2238,-4600.48 2209.53,-4635.74 2188.31,-4637.48 2143,-4637.48 777,-4637.48 777,-4637.48 777,-4637.48 711.351,-4637.48 674.613,-4652.06 634,-4600.48 599.901,-4557.18 598.959,-2746.5 598.99,-2498.52"/>
<polygon fill="green" stroke="green" points="602.49,-2498.5 598.992,-2488.5 595.49,-2498.5 602.49,-2498.5"/>
<text text-anchor="middle" x="1594" y="-4641.28" font-family="Times,serif" font-size="14.00">__list_add</text>
</g>
<!-- q3&#45;&gt;q0 -->
<g id="edge40" class="edge"><title>q3&#45;&gt;q0</title>
<path fill="none" stroke="black" d="M2271.37,-4400.58C2267.58,-4439 2257.01,-4527.05 2238,-4549.48 2208.71,-4584.05 2188.31,-4586.48 2143,-4586.48 777,-4586.48 777,-4586.48 777,-4586.48 711.351,-4586.48 674.624,-4601.05 634,-4549.48 600.759,-4507.29 599.075,-2745.29 599.002,-2498.96"/>
<polygon fill="black" stroke="black" points="602.502,-2498.69 599,-2488.69 595.502,-2498.69 602.502,-2498.69"/>
<text text-anchor="middle" x="1594" y="-4590.28" font-family="Times,serif" font-size="14.00">__list_del</text>
</g>
<!-- q3&#45;&gt;q0 -->
<g id="edge41" class="edge"><title>q3&#45;&gt;q0</title>
<path fill="none" stroke="green" d="M2272.31,-4400.57C2270.41,-4425.65 2263.42,-4470.99 2238,-4498.48 2207.24,-4531.75 2188.31,-4535.48 2143,-4535.48 777,-4535.48 777,-4535.48 777,-4535.48 711.351,-4535.48 674.635,-4550.04 634,-4498.48 601.583,-4457.35 599.19,-2740.33 599.014,-2498.64"/>
<polygon fill="green" stroke="green" points="602.514,-2498.55 599.007,-2488.55 595.514,-2498.56 602.514,-2498.55"/>
<text text-anchor="middle" x="1594" y="-4539.28" font-family="Times,serif" font-size="14.00">list_add</text>
</g>
<!-- q3&#45;&gt;q0 -->
<g id="edge42" class="edge"><title>q3&#45;&gt;q0</title>
<path fill="none" stroke="black" d="M2267.59,-4399.56C2262.2,-4414.08 2252.59,-4434.58 2238,-4447.48 2204.06,-4477.5 2188.31,-4484.48 2143,-4484.48 777,-4484.48 777,-4484.48 777,-4484.48 711.351,-4484.48 674.646,-4499.04 634,-4447.48 602.437,-4407.45 599.313,-2738.66 599.027,-2499.02"/>
<polygon fill="black" stroke="black" points="602.527,-2498.7 599.016,-2488.7 595.527,-2498.71 602.527,-2498.7"/>
<text text-anchor="middle" x="1594" y="-4488.28" font-family="Times,serif" font-size="14.00">list_move</text>
</g>
<!-- q3&#45;&gt;q0 -->
<g id="edge43" class="edge"><title>q3&#45;&gt;q0</title>
<path fill="none" stroke="black" d="M2258.52,-4392.32C2235.25,-4407.14 2187.61,-4433.48 2143,-4433.48 777,-4433.48 777,-4433.48 777,-4433.48 711.351,-4433.48 674.658,-4448.03 634,-4396.48 603.258,-4357.51 599.433,-2733.43 599.04,-2498.65"/>
<polygon fill="black" stroke="black" points="602.54,-2498.53 599.024,-2488.53 595.54,-2498.54 602.54,-2498.53"/>
<text text-anchor="middle" x="1594" y="-4437.28" font-family="Times,serif" font-size="14.00">gl_sort_pass</text>
</g>
<!-- q3&#45;&gt;q0 -->
<g id="edge44" class="edge"><title>q3&#45;&gt;q0</title>
<path fill="none" stroke="green" d="M2255.76,-4382.48C2230.86,-4382.48 2183.4,-4382.48 2143,-4382.48 777,-4382.48 777,-4382.48 777,-4382.48 711.351,-4382.48 674.671,-4397.02 634,-4345.48 604.108,-4307.61 599.563,-2731.3 599.055,-2498.97"/>
<polygon fill="green" stroke="green" points="602.555,-2498.64 599.033,-2488.64 595.555,-2498.65 602.555,-2498.64"/>
<text text-anchor="middle" x="1594" y="-4386.28" font-family="Times,serif" font-size="14.00">gl_insert</text>
</g>
<!-- q3&#45;&gt;q0 -->
<g id="edge45" class="edge"><title>q3&#45;&gt;q0</title>
<path fill="none" stroke="green" d="M2258.52,-4372.65C2235.25,-4357.83 2187.61,-4331.48 2143,-4331.48 777,-4331.48 777,-4331.48 777,-4331.48 711.351,-4331.48 674.684,-4346.01 634,-4294.48 604.941,-4257.68 599.692,-2727.39 599.07,-2498.9"/>
<polygon fill="green" stroke="green" points="602.57,-2498.72 599.043,-2488.73 595.57,-2498.74 602.57,-2498.72"/>
<text text-anchor="middle" x="1594" y="-4335.28" font-family="Times,serif" font-size="14.00">gl_read</text>
</g>
<!-- q3&#45;&gt;q0 -->
<g id="edge46" class="edge"><title>q3&#45;&gt;q0</title>
<path fill="none" stroke="black" d="M2264.49,-4366.63C2258.21,-4356.01 2248.89,-4342.24 2238,-4332.48 2202.15,-4300.37 2191.13,-4280.48 2143,-4280.48 777,-4280.48 777,-4280.48 777,-4280.48 711.351,-4280.48 674.698,-4294.99 634,-4243.48 605.772,-4207.76 599.824,-2723.23 599.086,-2498.78"/>
<polygon fill="black" stroke="black" points="602.585,-2498.5 599.053,-2488.51 595.585,-2498.52 602.585,-2498.5"/>
<text text-anchor="middle" x="1594" y="-4284.28" font-family="Times,serif" font-size="14.00">gl_destroy</text>
</g>
<!-- q3&#45;&gt;q0 -->
<g id="edge47" class="edge"><title>q3&#45;&gt;q0</title>
<path fill="none" stroke="black" d="M2270.68,-4364.69C2267.06,-4343.09 2258.25,-4306.55 2238,-4282.48 2206.88,-4245.48 2191.35,-4229.48 2143,-4229.48 777,-4229.48 777,-4229.48 777,-4229.48 711.351,-4229.48 674.714,-4243.98 634,-4192.48 606.602,-4157.83 599.96,-2718.95 599.102,-2498.65"/>
<polygon fill="black" stroke="black" points="602.602,-2498.54 599.064,-2488.55 595.602,-2498.56 602.602,-2498.54"/>
<text text-anchor="middle" x="1594" y="-4233.28" font-family="Times,serif" font-size="14.00">val_from_node</text>
</g>
<!-- q3&#45;&gt;q0 -->
<g id="edge48" class="edge"><title>q3&#45;&gt;q0</title>
<path fill="none" stroke="black" d="M2273.41,-4364.11C2273.16,-4333.35 2268.57,-4270.85 2238,-4230.48 2208.94,-4192.11 2191.13,-4178.48 2143,-4178.48 777,-4178.48 777,-4178.48 777,-4178.48 711.351,-4178.48 674.729,-4192.97 634,-4141.48 607.444,-4107.91 600.105,-2715.88 599.121,-2498.81"/>
<polygon fill="black" stroke="black" points="602.62,-2498.55 599.075,-2488.57 595.62,-2498.59 602.62,-2498.55"/>
<text text-anchor="middle" x="1594" y="-4182.28" font-family="Times,serif" font-size="14.00">gl_sort</text>
</g>
<!-- q3&#45;&gt;q0 -->
<g id="edge49" class="edge"><title>q3&#45;&gt;q0</title>
<path fill="none" stroke="green" d="M2271.91,-4364.33C2268.93,-4320.11 2259.42,-4208.23 2238,-4178.48 2210,-4139.59 2190.92,-4127.48 2143,-4127.48 777,-4127.48 777,-4127.48 777,-4127.48 710.884,-4127.48 674.36,-4138.85 634,-4086.48 608.757,-4053.73 600.323,-2710.56 599.148,-2498.53"/>
<polygon fill="green" stroke="green" points="602.648,-2498.49 599.093,-2488.51 595.648,-2498.53 602.648,-2498.49"/>
<text text-anchor="middle" x="1594" y="-4131.28" font-family="Times,serif" font-size="14.00">Learn_Assert</text>
</g>
<!-- q3&#45;&gt;q2 -->
<g id="edge38" class="edge"><title>q3&#45;&gt;q2</title>
<path fill="none" stroke="green" d="M2280.31,-4399.67C2293.32,-4442.11 2327.37,-4555.45 2350,-4651.48 2362.71,-4705.41 2374.23,-4769.16 2380.36,-4804.8"/>
<polygon fill="green" stroke="green" points="2376.96,-4805.64 2382.09,-4814.91 2383.86,-4804.46 2376.96,-4805.64"/>
<text text-anchor="middle" x="2330" y="-4655.28" font-family="Times,serif" font-size="14.00">inspect</text>
</g>
<!-- q4 -->
<g id="node6" class="node"><title>q4</title>
<ellipse fill="none" stroke="black" cx="2142" cy="-3891.48" rx="18" ry="18"/>
<text text-anchor="middle" x="2142" y="-3887.78" font-family="Times,serif" font-size="14.00">D</text>
</g>
<!-- q4&#45;&gt;q0 -->
<g id="edge50" class="edge"><title>q4&#45;&gt;q0</title>
<path fill="none" stroke="green" d="M2139.28,-3909.3C2135.25,-3947.58 2123.97,-4035.94 2104,-4057.48 2079.05,-4084.39 2061.7,-4081.48 2025,-4081.48 777,-4081.48 777,-4081.48 777,-4081.48 712.556,-4081.48 676.167,-4106.22 634,-4057.48 607.455,-4026.8 600.128,-2709.16 599.126,-2498.7"/>
<polygon fill="green" stroke="green" points="602.625,-2498.46 599.079,-2488.48 595.625,-2498.49 602.625,-2498.46"/>
<text text-anchor="middle" x="1492" y="-4085.28" font-family="Times,serif" font-size="14.00">inspect</text>
</g>
<!-- q4&#45;&gt;q0 -->
<g id="edge52" class="edge"><title>q4&#45;&gt;q0</title>
<path fill="none" stroke="black" d="M2140.92,-3909.87C2139.79,-3937.46 2133.57,-3989.51 2104,-4019.48 2078.23,-4045.61 2061.7,-4043.48 2025,-4043.48 777,-4043.48 777,-4043.48 777,-4043.48 712.556,-4043.48 676.18,-4068.21 634,-4019.48 608.109,-3989.58 600.245,-2706.13 599.142,-2498.67"/>
<polygon fill="black" stroke="black" points="602.641,-2498.56 599.089,-2488.58 595.641,-2498.6 602.641,-2498.56"/>
<text text-anchor="middle" x="1492" y="-4047.28" font-family="Times,serif" font-size="14.00">__list_del</text>
</g>
<!-- q4&#45;&gt;q0 -->
<g id="edge53" class="edge"><title>q4&#45;&gt;q0</title>
<path fill="none" stroke="green" d="M2138.33,-3909.31C2134.37,-3929.6 2125,-3962.39 2104,-3981.48 2076.85,-4006.17 2061.7,-4005.48 2025,-4005.48 777,-4005.48 777,-4005.48 777,-4005.48 712.556,-4005.48 676.194,-4030.19 634,-3981.48 608.774,-3952.36 600.372,-2704.2 599.16,-2498.92"/>
<polygon fill="green" stroke="green" points="602.658,-2498.64 599.1,-2488.66 595.658,-2498.68 602.658,-2498.64"/>
<text text-anchor="middle" x="1492" y="-4009.28" font-family="Times,serif" font-size="14.00">list_add</text>
</g>
<!-- q4&#45;&gt;q0 -->
<g id="edge54" class="edge"><title>q4&#45;&gt;q0</title>
<path fill="none" stroke="black" d="M2133.12,-3907.77C2126.76,-3919.3 2116.77,-3934.29 2104,-3943.48 2074.21,-3964.91 2061.7,-3967.48 2025,-3967.48 777,-3967.48 777,-3967.48 777,-3967.48 712.556,-3967.48 676.209,-3992.18 634,-3943.48 609.413,-3915.12 600.484,-2699.6 599.174,-2498.52"/>
<polygon fill="black" stroke="black" points="602.674,-2498.44 599.11,-2488.46 595.674,-2498.49 602.674,-2498.44"/>
<text text-anchor="middle" x="1492" y="-3971.28" font-family="Times,serif" font-size="14.00">list_move</text>
</g>
<!-- q4&#45;&gt;q0 -->
<g id="edge55" class="edge"><title>q4&#45;&gt;q0</title>
<path fill="none" stroke="black" d="M2125.76,-3899.92C2104.07,-3911.11 2062.72,-3929.48 2025,-3929.48 777,-3929.48 777,-3929.48 777,-3929.48 712.556,-3929.48 676.224,-3954.17 634,-3905.48 610.075,-3877.9 600.617,-2697.34 599.194,-2498.71"/>
<polygon fill="black" stroke="black" points="602.692,-2498.49 599.122,-2488.51 595.693,-2498.54 602.692,-2498.49"/>
<text text-anchor="middle" x="1492" y="-3933.28" font-family="Times,serif" font-size="14.00">gl_sort_pass</text>
</g>
<!-- q4&#45;&gt;q0 -->
<g id="edge56" class="edge"><title>q4&#45;&gt;q0</title>
<path fill="none" stroke="green" d="M2123.71,-3891.48C2101.04,-3891.48 2060.04,-3891.48 2025,-3891.48 777,-3891.48 777,-3891.48 777,-3891.48 712.556,-3891.48 676.24,-3916.15 634,-3867.48 610.724,-3840.66 600.743,-2693.74 599.212,-2498.57"/>
<polygon fill="green" stroke="green" points="602.712,-2498.51 599.134,-2488.54 595.712,-2498.56 602.712,-2498.51"/>
<text text-anchor="middle" x="1492" y="-3895.28" font-family="Times,serif" font-size="14.00">gl_insert</text>
</g>
<!-- q4&#45;&gt;q0 -->
<g id="edge57" class="edge"><title>q4&#45;&gt;q0</title>
<path fill="none" stroke="green" d="M2125.76,-3883.05C2104.07,-3871.85 2062.72,-3853.48 2025,-3853.48 777,-3853.48 777,-3853.48 777,-3853.48 712.556,-3853.48 676.257,-3878.14 634,-3829.48 611.382,-3803.44 600.882,-2691.11 599.233,-2498.69"/>
<polygon fill="green" stroke="green" points="602.732,-2498.51 599.147,-2488.54 595.732,-2498.57 602.732,-2498.51"/>
<text text-anchor="middle" x="1492" y="-3857.28" font-family="Times,serif" font-size="14.00">gl_read</text>
</g>
<!-- q4&#45;&gt;q0 -->
<g id="edge58" class="edge"><title>q4&#45;&gt;q0</title>
<path fill="none" stroke="black" d="M2130.07,-3877.9C2111.17,-3856.04 2070.02,-3815.48 2025,-3815.48 777,-3815.48 777,-3815.48 777,-3815.48 712.556,-3815.48 676.275,-3840.12 634,-3791.48 612.04,-3766.22 601.024,-2688.34 599.255,-2498.8"/>
<polygon fill="black" stroke="black" points="602.755,-2498.74 599.163,-2488.78 595.755,-2498.81 602.755,-2498.74"/>
<text text-anchor="middle" x="1492" y="-3819.28" font-family="Times,serif" font-size="14.00">gl_destroy</text>
</g>
<!-- q4&#45;&gt;q0 -->
<g id="edge59" class="edge"><title>q4&#45;&gt;q0</title>
<path fill="none" stroke="black" d="M2135.72,-3874.29C2130.06,-3858.2 2119.7,-3834.33 2104,-3818.48 2076.16,-3790.38 2064.56,-3777.48 2025,-3777.48 777,-3777.48 777,-3777.48 777,-3777.48 712.556,-3777.48 676.294,-3802.11 634,-3753.48 612.694,-3728.99 601.169,-2685.31 599.278,-2498.84"/>
<polygon fill="black" stroke="black" points="602.777,-2498.7 599.177,-2488.73 595.778,-2498.77 602.777,-2498.7"/>
<text text-anchor="middle" x="1492" y="-3781.28" font-family="Times,serif" font-size="14.00">val_from_node</text>
</g>
<!-- q4&#45;&gt;q0 -->
<g id="edge60" class="edge"><title>q4&#45;&gt;q0</title>
<path fill="none" stroke="black" d="M2139.39,-3873.32C2136.36,-3849.05 2127.8,-3805.93 2104,-3778.48 2078.35,-3748.9 2064.16,-3739.48 2025,-3739.48 777,-3739.48 777,-3739.48 777,-3739.48 712.556,-3739.48 676.315,-3764.09 634,-3715.48 613.347,-3691.76 601.318,-2682.09 599.303,-2498.85"/>
<polygon fill="black" stroke="black" points="602.801,-2498.63 599.192,-2488.67 595.801,-2498.71 602.801,-2498.63"/>
<text text-anchor="middle" x="1492" y="-3743.28" font-family="Times,serif" font-size="14.00">gl_sort</text>
</g>
<!-- q4&#45;&gt;q0 -->
<g id="edge61" class="edge"><title>q4&#45;&gt;q0</title>
<path fill="none" stroke="green" d="M2141.36,-3873.41C2141.02,-3842.54 2136.13,-3779.17 2104,-3739.48 2079.48,-3709.2 2063.96,-3701.48 2025,-3701.48 777,-3701.48 777,-3701.48 777,-3701.48 710.1,-3701.48 674.028,-3708.09 634,-3654.48 598.352,-3606.74 598.564,-2674.89 598.923,-2498.99"/>
<polygon fill="green" stroke="green" points="602.424,-2498.74 598.946,-2488.73 595.424,-2498.73 602.424,-2498.74"/>
<text text-anchor="middle" x="1492" y="-3705.28" font-family="Times,serif" font-size="14.00">Learn_Assert</text>
</g>
<!-- q4&#45;&gt;q3 -->
<g id="edge51" class="edge"><title>q4&#45;&gt;q3</title>
<path fill="none" stroke="green" d="M2151.98,-3906.69C2171.26,-3940.11 2216.58,-4022.97 2238,-4098.48 2263.89,-4189.73 2270.63,-4302.83 2272.38,-4354.44"/>
<polygon fill="green" stroke="green" points="2268.89,-4354.6 2272.69,-4364.49 2275.88,-4354.39 2268.89,-4354.6"/>
<text text-anchor="middle" x="2209" y="-4102.28" font-family="Times,serif" font-size="14.00">__list_add</text>
</g>
<!-- q5 -->
<g id="node7" class="node"><title>q5</title>
<ellipse fill="none" stroke="black" cx="2024" cy="-3403.48" rx="18" ry="18"/>
<text text-anchor="middle" x="2024" y="-3399.78" font-family="Times,serif" font-size="14.00">D</text>
</g>
<!-- q5&#45;&gt;q0 -->
<g id="edge62" class="edge"><title>q5&#45;&gt;q0</title>
<path fill="none" stroke="green" d="M2022.27,-3421.6C2020.06,-3468.1 2012.06,-3590.18 1988,-3621.48 1963.39,-3653.51 1945.39,-3658.48 1905,-3658.48 777,-3658.48 777,-3658.48 777,-3658.48 711.351,-3658.48 674.972,-3672.78 634,-3621.48 597.888,-3576.28 598.468,-2671.33 598.908,-2498.77"/>
<polygon fill="green" stroke="green" points="602.409,-2498.71 598.936,-2488.7 595.409,-2498.69 602.409,-2498.71"/>
<text text-anchor="middle" x="1390" y="-3662.28" font-family="Times,serif" font-size="14.00">inspect</text>
</g>
<!-- q5&#45;&gt;q0 -->
<g id="edge63" class="edge"><title>q5&#45;&gt;q0</title>
<path fill="none" stroke="green" d="M2021.29,-3421.51C2017.34,-3459.8 2006.46,-3547.6 1988,-3570.48 1962.63,-3601.91 1945.39,-3607.48 1905,-3607.48 777,-3607.48 777,-3607.48 777,-3607.48 711.351,-3607.48 675.009,-3621.75 634,-3570.48 599.547,-3527.41 598.771,-2666.95 598.95,-2498.83"/>
<polygon fill="green" stroke="green" points="602.45,-2498.77 598.963,-2488.77 595.45,-2498.77 602.45,-2498.77"/>
<text text-anchor="middle" x="1390" y="-3611.28" font-family="Times,serif" font-size="14.00">__list_add</text>
</g>
<!-- q5&#45;&gt;q0 -->
<g id="edge64" class="edge"><title>q5&#45;&gt;q0</title>
<path fill="none" stroke="black" d="M2022.13,-3421.4C2020,-3446.28 2012.75,-3491.39 1988,-3519.48 1961.3,-3549.79 1945.39,-3556.48 1905,-3556.48 777,-3556.48 777,-3556.48 777,-3556.48 711.351,-3556.48 675.048,-3570.72 634,-3519.48 601.213,-3478.56 599.091,-2662.95 598.996,-2499.03"/>
<polygon fill="black" stroke="black" points="602.496,-2498.78 598.992,-2488.78 595.496,-2498.78 602.496,-2498.78"/>
<text text-anchor="middle" x="1390" y="-3560.28" font-family="Times,serif" font-size="14.00">__list_del</text>
</g>
<!-- q5&#45;&gt;q0 -->
<g id="edge66" class="edge"><title>q5&#45;&gt;q0</title>
<path fill="none" stroke="black" d="M2017.43,-3420.39C2011.94,-3434.8 2002.28,-3455.23 1988,-3468.48 1958.4,-3495.96 1945.39,-3505.48 1905,-3505.48 777,-3505.48 777,-3505.48 777,-3505.48 711.351,-3505.48 675.092,-3519.68 634,-3468.48 602.87,-3429.7 599.426,-2658.43 599.047,-2499.12"/>
<polygon fill="black" stroke="black" points="602.546,-2498.72 599.024,-2488.73 595.546,-2498.73 602.546,-2498.72"/>
<text text-anchor="middle" x="1390" y="-3509.28" font-family="Times,serif" font-size="14.00">list_move</text>
</g>
<!-- q5&#45;&gt;q0 -->
<g id="edge67" class="edge"><title>q5&#45;&gt;q0</title>
<path fill="none" stroke="black" d="M2008.95,-3414.05C1987.66,-3428.99 1945.39,-3454.48 1905,-3454.48 777,-3454.48 777,-3454.48 777,-3454.48 711.351,-3454.48 675.14,-3468.64 634,-3417.48 604.487,-3380.78 599.768,-2651.94 599.101,-2498.63"/>
<polygon fill="black" stroke="black" points="602.601,-2498.59 599.06,-2488.6 595.601,-2498.62 602.601,-2498.59"/>
<text text-anchor="middle" x="1390" y="-3458.28" font-family="Times,serif" font-size="14.00">gl_sort_pass</text>
</g>
<!-- q5&#45;&gt;q0 -->
<g id="edge68" class="edge"><title>q5&#45;&gt;q0</title>
<path fill="none" stroke="green" d="M2005.8,-3403.48C1982.83,-3403.48 1940.85,-3403.48 1905,-3403.48 777,-3403.48 777,-3403.48 777,-3403.48 711.351,-3403.48 675.194,-3417.6 634,-3366.48 606.155,-3331.93 600.145,-2647.95 599.165,-2498.97"/>
<polygon fill="green" stroke="green" points="602.664,-2498.79 599.1,-2488.81 595.664,-2498.83 602.664,-2498.79"/>
<text text-anchor="middle" x="1390" y="-3407.28" font-family="Times,serif" font-size="14.00">gl_insert</text>
</g>
<!-- q5&#45;&gt;q0 -->
<g id="edge69" class="edge"><title>q5&#45;&gt;q0</title>
<path fill="none" stroke="green" d="M2008.95,-3392.92C1987.66,-3377.98 1945.39,-3352.48 1905,-3352.48 777,-3352.48 777,-3352.48 777,-3352.48 711.351,-3352.48 675.254,-3366.55 634,-3315.48 607.781,-3283.03 600.528,-2641.9 599.232,-2498.69"/>
<polygon fill="green" stroke="green" points="602.731,-2498.5 599.143,-2488.53 595.731,-2498.56 602.731,-2498.5"/>
<text text-anchor="middle" x="1390" y="-3356.28" font-family="Times,serif" font-size="14.00">gl_read</text>
</g>
<!-- q5&#45;&gt;q0 -->
<g id="edge70" class="edge"><title>q5&#45;&gt;q0</title>
<path fill="none" stroke="black" d="M2014.57,-3387.99C1997.79,-3359.46 1957.26,-3301.48 1905,-3301.48 777,-3301.48 777,-3301.48 777,-3301.48 711.351,-3301.48 675.322,-3315.5 634,-3264.48 609.425,-3234.14 600.944,-2636.62 599.31,-2498.71"/>
<polygon fill="black" stroke="black" points="602.808,-2498.5 599.193,-2488.54 595.809,-2498.58 602.808,-2498.5"/>
<text text-anchor="middle" x="1390" y="-3305.28" font-family="Times,serif" font-size="14.00">gl_destroy</text>
</g>
<!-- q5&#45;&gt;q0 -->
<g id="edge71" class="edge"><title>q5&#45;&gt;q0</title>
<path fill="none" stroke="black" d="M2020.14,-3385.55C2016.05,-3364.53 2006.82,-3329.52 1988,-3305.48 1960.72,-3270.64 1949.25,-3250.48 1905,-3250.48 777,-3250.48 777,-3250.48 777,-3250.48 711.351,-3250.48 675.399,-3264.43 634,-3213.48 611.079,-3185.27 601.402,-2631.87 599.403,-2498.99"/>
<polygon fill="black" stroke="black" points="602.9,-2498.75 599.253,-2488.8 595.901,-2498.85 602.9,-2498.75"/>
<text text-anchor="middle" x="1390" y="-3254.28" font-family="Times,serif" font-size="14.00">val_from_node</text>
</g>
<!-- q5&#45;&gt;q0 -->
<g id="edge72" class="edge"><title>q5&#45;&gt;q0</title>
<path fill="none" stroke="black" d="M2023.07,-3385.44C2022.33,-3355.21 2017.04,-3293.58 1988,-3252.48 1962.74,-3216.74 1948.77,-3199.48 1905,-3199.48 777,-3199.48 777,-3199.48 777,-3199.48 711.351,-3199.48 675.487,-3213.36 634,-3162.48 612.694,-3136.35 601.861,-2625.16 599.499,-2498.63"/>
<polygon fill="black" stroke="black" points="602.998,-2498.5 599.314,-2488.57 595.999,-2498.63 602.998,-2498.5"/>
<text text-anchor="middle" x="1390" y="-3203.28" font-family="Times,serif" font-size="14.00">gl_sort</text>
</g>
<!-- q5&#45;&gt;q0 -->
<g id="edge73" class="edge"><title>q5&#45;&gt;q0</title>
<path fill="none" stroke="green" d="M2021.74,-3385.61C2018.39,-3342.03 2008.11,-3231.71 1988,-3201.48 1963.76,-3165.04 1948.77,-3148.48 1905,-3148.48 777,-3148.48 777,-3148.48 777,-3148.48 711.673,-3148.48 675.876,-3164.62 634,-3114.48 614.011,-3090.55 602.305,-2620.5 599.605,-2498.97"/>
<polygon fill="green" stroke="green" points="603.097,-2498.55 599.378,-2488.63 596.098,-2498.7 603.097,-2498.55"/>
<text text-anchor="middle" x="1390" y="-3152.28" font-family="Times,serif" font-size="14.00">Learn_Assert</text>
</g>
<!-- q5&#45;&gt;q4 -->
<g id="edge65" class="edge"><title>q5&#45;&gt;q4</title>
<path fill="none" stroke="green" d="M2030.69,-3420.29C2044.78,-3462.36 2081.7,-3575.73 2104,-3672.48 2119.69,-3740.58 2131.71,-3822.01 2137.39,-3863.77"/>
<polygon fill="green" stroke="green" points="2133.93,-3864.3 2138.73,-3873.74 2140.87,-3863.37 2133.93,-3864.3"/>
<text text-anchor="middle" x="2082" y="-3676.28" font-family="Times,serif" font-size="14.00">list_add</text>
</g>
<!-- q6 -->
<g id="node8" class="node"><title>q6</title>
<ellipse fill="none" stroke="black" cx="1904" cy="-2950.48" rx="18" ry="18"/>
<text text-anchor="middle" x="1904" y="-2946.78" font-family="Times,serif" font-size="14.00">D</text>
</g>
<!-- q6&#45;&gt;q0 -->
<g id="edge75" class="edge"><title>q6&#45;&gt;q0</title>
<path fill="none" stroke="green" d="M1903.41,-2968.55C1903.01,-2996.2 1898.02,-3048.89 1868,-3078.48 1837.6,-3108.45 1817.69,-3102.48 1775,-3102.48 1491,-3102.48 1491,-3102.48 1491,-3102.48 1355.84,-3102.48 1322.16,-3110.48 1187,-3110.48 777,-3110.48 777,-3110.48 777,-3110.48 712.556,-3110.48 677.007,-3134.48 634,-3086.48 614.136,-3064.31 602.378,-2616.11 599.627,-2498.53"/>
<polygon fill="green" stroke="green" points="603.125,-2498.42 599.396,-2488.51 596.127,-2498.58 603.125,-2498.42"/>
<text text-anchor="middle" x="1288" y="-3113.28" font-family="Times,serif" font-size="14.00">__list_add</text>
</g>
<!-- q6&#45;&gt;q0 -->
<g id="edge76" class="edge"><title>q6&#45;&gt;q0</title>
<path fill="none" stroke="black" d="M1900.9,-2968.45C1897.55,-2988.87 1889.06,-3021.78 1868,-3040.48 1836.08,-3068.83 1817.69,-3064.48 1775,-3064.48 1491,-3064.48 1491,-3064.48 1491,-3064.48 1355.84,-3064.48 1322.16,-3072.48 1187,-3072.48 777,-3072.48 777,-3072.48 777,-3072.48 712.556,-3072.48 677.096,-3096.4 634,-3048.48 596.956,-3007.3 597.755,-2608.57 598.693,-2498.5"/>
<polygon fill="black" stroke="black" points="602.193,-2498.52 598.786,-2488.49 595.194,-2498.46 602.193,-2498.52"/>
<text text-anchor="middle" x="1288" y="-3075.28" font-family="Times,serif" font-size="14.00">__list_del</text>
</g>
<!-- q6&#45;&gt;q0 -->
<g id="edge77" class="edge"><title>q6&#45;&gt;q0</title>
<path fill="none" stroke="green" d="M1895.87,-2966.93C1890.01,-2978.54 1880.62,-2993.56 1868,-3002.48 1833.15,-3027.13 1817.69,-3026.48 1775,-3026.48 1491,-3026.48 1491,-3026.48 1491,-3026.48 1355.84,-3026.48 1322.16,-3034.48 1187,-3034.48 777,-3034.48 777,-3034.48 777,-3034.48 712.556,-3034.48 677.197,-3058.31 634,-3010.48 599.522,-2972.31 598.42,-2604.26 598.821,-2498.67"/>
<polygon fill="green" stroke="green" points="602.322,-2498.49 598.868,-2488.47 595.322,-2498.46 602.322,-2498.49"/>
<text text-anchor="middle" x="1288" y="-3037.28" font-family="Times,serif" font-size="14.00">list_add</text>
</g>
<!-- q6&#45;&gt;q0 -->
<g id="edge78" class="edge"><title>q6&#45;&gt;q0</title>
<path fill="none" stroke="black" d="M1887.67,-2958.17C1864.09,-2969.28 1817.19,-2988.48 1775,-2988.48 1491,-2988.48 1491,-2988.48 1491,-2988.48 1355.84,-2988.48 1322.16,-2996.48 1187,-2996.48 777,-2996.48 777,-2996.48 777,-2996.48 712.556,-2996.48 677.314,-3020.2 634,-2972.48 602.061,-2937.3 599.13,-2599.32 598.97,-2498.64"/>
<polygon fill="black" stroke="black" points="602.47,-2498.61 598.962,-2488.61 595.47,-2498.61 602.47,-2498.61"/>
<text text-anchor="middle" x="1288" y="-2999.28" font-family="Times,serif" font-size="14.00">list_move</text>
</g>
<!-- q6&#45;&gt;q0 -->
<g id="edge79" class="edge"><title>q6&#45;&gt;q0</title>
<path fill="none" stroke="black" d="M1885.61,-2950.48C1860.99,-2950.48 1814.56,-2950.48 1775,-2950.48 1491,-2950.48 1491,-2950.48 1491,-2950.48 1310.52,-2950.48 1265.48,-2958.48 1085,-2958.48 777,-2958.48 777,-2958.48 777,-2958.48 712.556,-2958.48 677.449,-2982.08 634,-2934.48 604.598,-2902.28 599.895,-2594.29 599.143,-2498.66"/>
<polygon fill="black" stroke="black" points="602.642,-2498.56 599.072,-2488.58 595.643,-2498.61 602.642,-2498.56"/>
<text text-anchor="middle" x="1288" y="-2959.28" font-family="Times,serif" font-size="14.00">gl_sort_pass</text>
</g>
<!-- q6&#45;&gt;q0 -->
<g id="edge81" class="edge"><title>q6&#45;&gt;q0</title>
<path fill="none" stroke="green" d="M1887.67,-2942.79C1864.09,-2931.69 1817.19,-2912.48 1775,-2912.48 1491,-2912.48 1491,-2912.48 1491,-2912.48 1310.52,-2912.48 1265.48,-2920.48 1085,-2920.48 777,-2920.48 777,-2920.48 777,-2920.48 712.556,-2920.48 677.608,-2943.93 634,-2896.48 607.129,-2867.25 600.724,-2589.08 599.347,-2498.7"/>
<polygon fill="green" stroke="green" points="602.846,-2498.58 599.203,-2488.64 595.846,-2498.69 602.846,-2498.58"/>
<text text-anchor="middle" x="1288" y="-2921.28" font-family="Times,serif" font-size="14.00">gl_read</text>
</g>
<!-- q6&#45;&gt;q0 -->
<g id="edge82" class="edge"><title>q6&#45;&gt;q0</title>
<path fill="none" stroke="black" d="M1892.66,-2935.98C1886.3,-2927.9 1877.55,-2918.15 1868,-2911.48 1831.51,-2886.04 1819.48,-2874.48 1775,-2874.48 1491,-2874.48 1491,-2874.48 1491,-2874.48 1310.52,-2874.48 1265.48,-2882.48 1085,-2882.48 777,-2882.48 777,-2882.48 777,-2882.48 712.556,-2882.48 677.797,-2905.76 634,-2858.48 609.67,-2832.22 601.644,-2584.01 599.595,-2498.94"/>
<polygon fill="black" stroke="black" points="603.09,-2498.64 599.36,-2488.72 596.091,-2498.8 603.09,-2498.64"/>
<text text-anchor="middle" x="1288" y="-2883.28" font-family="Times,serif" font-size="14.00">gl_destroy</text>
</g>
<!-- q6&#45;&gt;q0 -->
<g id="edge83" class="edge"><title>q6&#45;&gt;q0</title>
<path fill="none" stroke="black" d="M1898.92,-2932.9C1894.15,-2915.9 1884.68,-2890.45 1868,-2874.48 1835.75,-2843.61 1819.65,-2836.48 1775,-2836.48 1491,-2836.48 1491,-2836.48 1491,-2836.48 1310.52,-2836.48 1265.48,-2844.48 1085,-2844.48 777,-2844.48 777,-2844.48 777,-2844.48 712.556,-2844.48 678.026,-2867.54 634,-2820.48 612.185,-2797.16 602.653,-2578.31 599.895,-2499"/>
<polygon fill="black" stroke="black" points="603.386,-2498.65 599.551,-2488.77 596.39,-2498.89 603.386,-2498.65"/>
<text text-anchor="middle" x="1288" y="-2845.28" font-family="Times,serif" font-size="14.00">val_from_node</text>
</g>
<!-- q6&#45;&gt;q0 -->
<g id="edge84" class="edge"><title>q6&#45;&gt;q0</title>
<path fill="none" stroke="black" d="M1902.32,-2932.39C1900.43,-2907.3 1893.45,-2861.95 1868,-2834.48 1837.88,-2801.97 1819.32,-2798.48 1775,-2798.48 1389,-2798.48 1389,-2798.48 1389,-2798.48 1253.84,-2798.48 1220.16,-2806.48 1085,-2806.48 777,-2806.48 777,-2806.48 777,-2806.48 712.556,-2806.48 678.309,-2829.28 634,-2782.48 614.662,-2762.06 603.755,-2571.75 600.255,-2498.78"/>
<polygon fill="black" stroke="black" points="603.738,-2498.33 599.774,-2488.51 596.745,-2498.66 603.738,-2498.33"/>
<text text-anchor="middle" x="1288" y="-2805.28" font-family="Times,serif" font-size="14.00">gl_sort</text>
</g>
<!-- q6&#45;&gt;q0 -->
<g id="edge85" class="edge"><title>q6&#45;&gt;q0</title>
<path fill="none" stroke="green" d="M1901.09,-2932.57C1896.9,-2896.31 1885.8,-2815.92 1868,-2795.48 1839,-2762.18 1819.16,-2760.48 1775,-2760.48 1389,-2760.48 1389,-2760.48 1389,-2760.48 1253.84,-2760.48 1220.16,-2768.48 1085,-2768.48 777,-2768.48 777,-2768.48 777,-2768.48 710.1,-2768.48 676.888,-2772.83 634,-2721.48 606.177,-2688.17 600.451,-2557.14 599.288,-2498.78"/>
<polygon fill="green" stroke="green" points="602.782,-2498.39 599.115,-2488.45 595.783,-2498.51 602.782,-2498.39"/>
<text text-anchor="middle" x="1288" y="-2767.28" font-family="Times,serif" font-size="14.00">Learn_Assert</text>
</g>
<!-- q6&#45;&gt;q2 -->
<g id="edge74" class="edge"><title>q6&#45;&gt;q2</title>
<path fill="none" stroke="green" d="M1920.62,-2958.03C1942.83,-2968.05 1985.05,-2984.48 2023,-2984.48 2023,-2984.48 2023,-2984.48 2275,-2984.48 2370.31,-2984.48 2383.44,-4571.56 2384.85,-4804.16"/>
<polygon fill="green" stroke="green" points="2381.35,-4804.51 2384.91,-4814.49 2388.35,-4804.47 2381.35,-4804.51"/>
<text text-anchor="middle" x="2142" y="-2988.28" font-family="Times,serif" font-size="14.00">inspect</text>
</g>
<!-- q6&#45;&gt;q5 -->
<g id="edge80" class="edge"><title>q6&#45;&gt;q5</title>
<path fill="none" stroke="green" d="M1914.61,-2965.61C1932.35,-2994.35 1970.08,-3059.34 1988,-3119.48 2015.08,-3210.38 2021.24,-3323.66 2022.62,-3375.38"/>
<polygon fill="green" stroke="green" points="2019.12,-3375.53 2022.84,-3385.45 2026.12,-3375.37 2019.12,-3375.53"/>
<text text-anchor="middle" x="1964" y="-3123.28" font-family="Times,serif" font-size="14.00">gl_insert</text>
</g>
<!-- q7 -->
<g id="node9" class="node"><title>q7</title>
<ellipse fill="none" stroke="black" cx="1774" cy="-2470.48" rx="18" ry="18"/>
<text text-anchor="middle" x="1774" y="-2466.78" font-family="Times,serif" font-size="14.00">D</text>
</g>
<!-- q7&#45;&gt;q0 -->
<g id="edge86" class="edge"><title>q7&#45;&gt;q0</title>
<path fill="none" stroke="green" d="M1772.88,-2488.46C1772.16,-2535.78 1767.45,-2661.91 1738,-2688.48 1684.05,-2737.17 1157.67,-2725.48 1085,-2725.48 777,-2725.48 777,-2725.48 777,-2725.48 711.351,-2725.48 678.188,-2737.03 634,-2688.48 609.129,-2661.16 601.868,-2551.36 599.799,-2498.8"/>
<polygon fill="green" stroke="green" points="603.286,-2498.37 599.432,-2488.5 596.29,-2498.62 603.286,-2498.37"/>
<text text-anchor="middle" x="1186" y="-2730.28" font-family="Times,serif" font-size="14.00">inspect</text>
</g>
<!-- q7&#45;&gt;q0 -->
<g id="edge88" class="edge"><title>q7&#45;&gt;q0</title>
<path fill="none" stroke="black" d="M1771.59,-2488.46C1768.21,-2527.08 1758.35,-2616.16 1738,-2637.48 1692.67,-2684.97 1660.65,-2674.48 1595,-2674.48 777,-2674.48 777,-2674.48 777,-2674.48 711.351,-2674.48 679.326,-2684.97 634,-2637.48 615.279,-2617.87 605.435,-2540.91 601.345,-2498.65"/>
<polygon fill="black" stroke="black" points="604.81,-2498.1 600.406,-2488.46 597.839,-2498.74 604.81,-2498.1"/>
<text text-anchor="middle" x="1186" y="-2678.28" font-family="Times,serif" font-size="14.00">__list_del</text>
</g>
<!-- q7&#45;&gt;q0 -->
<g id="edge89" class="edge"><title>q7&#45;&gt;q0</title>
<path fill="none" stroke="green" d="M1772.77,-2488.57C1771.44,-2514.08 1765.15,-2560.39 1738,-2586.48 1690.66,-2631.97 1660.65,-2623.48 1595,-2623.48 777,-2623.48 777,-2623.48 777,-2623.48 711.351,-2623.48 681.336,-2631.97 634,-2586.48 610.137,-2563.55 602.386,-2525 599.955,-2498.68"/>
<polygon fill="green" stroke="green" points="603.437,-2498.29 599.226,-2488.57 596.455,-2498.8 603.437,-2498.29"/>
<text text-anchor="middle" x="1186" y="-2627.28" font-family="Times,serif" font-size="14.00">list_add</text>
</g>
<!-- q7&#45;&gt;q0 -->
<g id="edge90" class="edge"><title>q7&#45;&gt;q0</title>
<path fill="none" stroke="black" d="M1768.06,-2487.71C1762.92,-2502.53 1753.43,-2523.38 1738,-2535.48 1686.34,-2575.99 1660.65,-2572.48 1595,-2572.48 777,-2572.48 777,-2572.48 777,-2572.48 711.351,-2572.48 685.659,-2575.99 634,-2535.48 621.704,-2525.84 613.181,-2510.64 607.627,-2497.36"/>
<polygon fill="black" stroke="black" points="610.778,-2495.8 603.944,-2487.71 604.238,-2498.3 610.778,-2495.8"/>
<text text-anchor="middle" x="1186" y="-2576.28" font-family="Times,serif" font-size="14.00">list_move</text>
</g>
<!-- q7&#45;&gt;q0 -->
<g id="edge91" class="edge"><title>q7&#45;&gt;q0</title>
<path fill="none" stroke="black" d="M1757.24,-2478.23C1726.71,-2492.5 1657.04,-2521.48 1595,-2521.48 777,-2521.48 777,-2521.48 777,-2521.48 720.532,-2521.48 657.749,-2497.47 623.905,-2482.4"/>
<polygon fill="black" stroke="black" points="625.313,-2479.19 614.762,-2478.23 622.408,-2485.56 625.313,-2479.19"/>
<text text-anchor="middle" x="1186" y="-2525.28" font-family="Times,serif" font-size="14.00">gl_sort_pass</text>
</g>
<!-- q7&#45;&gt;q0 -->
<g id="edge92" class="edge"><title>q7&#45;&gt;q0</title>
<path fill="none" stroke="green" d="M1755.82,-2470.48C1724.06,-2470.48 1654.02,-2470.48 1595,-2470.48 777,-2470.48 777,-2470.48 777,-2470.48 723.74,-2470.48 661.515,-2470.48 626.537,-2470.48"/>
<polygon fill="green" stroke="green" points="626.183,-2466.98 616.183,-2470.48 626.183,-2473.98 626.183,-2466.98"/>
<text text-anchor="middle" x="1186" y="-2474.28" font-family="Times,serif" font-size="14.00">gl_insert</text>
</g>
<!-- q7&#45;&gt;q0 -->
<g id="edge93" class="edge"><title>q7&#45;&gt;q0</title>
<path fill="none" stroke="green" d="M1757.24,-2462.74C1726.71,-2448.47 1657.04,-2419.48 1595,-2419.48 777,-2419.48 777,-2419.48 777,-2419.48 720.532,-2419.48 657.749,-2443.5 623.905,-2458.57"/>
<polygon fill="green" stroke="green" points="622.408,-2455.4 614.762,-2462.74 625.313,-2461.77 622.408,-2455.4"/>
<text text-anchor="middle" x="1186" y="-2423.28" font-family="Times,serif" font-size="14.00">gl_read</text>
</g>
<!-- q7&#45;&gt;q0 -->
<g id="edge94" class="edge"><title>q7&#45;&gt;q0</title>
<path fill="none" stroke="black" d="M1764.76,-2454.79C1758.61,-2444.38 1749.32,-2431.11 1738,-2422.48 1683.95,-2381.32 1662.94,-2368.48 1595,-2368.48 777,-2368.48 777,-2368.48 777,-2368.48 709.064,-2368.48 688.045,-2381.32 634,-2422.48 625.597,-2428.88 618.315,-2437.85 612.603,-2446.3"/>
<polygon fill="black" stroke="black" points="609.62,-2444.46 607.237,-2454.79 615.538,-2448.2 609.62,-2444.46"/>
<text text-anchor="middle" x="1186" y="-2372.28" font-family="Times,serif" font-size="14.00">gl_destroy</text>
</g>
<!-- q7&#45;&gt;q0 -->
<g id="edge95" class="edge"><title>q7&#45;&gt;q0</title>
<path fill="none" stroke="black" d="M1771.33,-2452.54C1768.35,-2430.44 1760.17,-2393.06 1738,-2370.48 1690.51,-2322.12 1662.78,-2317.48 1595,-2317.48 777,-2317.48 777,-2317.48 777,-2317.48 709.22,-2317.48 681.488,-2322.12 634,-2370.48 614.951,-2389.88 606.231,-2420.22 602.263,-2442.39"/>
<polygon fill="black" stroke="black" points="598.764,-2442.12 600.672,-2452.54 605.679,-2443.2 598.764,-2442.12"/>
<text text-anchor="middle" x="1186" y="-2321.28" font-family="Times,serif" font-size="14.00">val_from_node</text>
</g>
<!-- q7&#45;&gt;q0 -->
<g id="edge96" class="edge"><title>q7&#45;&gt;q0</title>
<path fill="none" stroke="black" d="M1771.11,-2452.65C1766.96,-2416.56 1755.94,-2336.58 1738,-2316.48 1693.15,-2266.26 1662.33,-2266.48 1595,-2266.48 1287,-2266.48 1287,-2266.48 1287,-2266.48 1141.46,-2266.48 744.191,-2221.41 634,-2316.48 615.269,-2332.64 605.554,-2402.54 601.452,-2442.39"/>
<polygon fill="black" stroke="black" points="597.95,-2442.23 600.462,-2452.53 604.917,-2442.91 597.95,-2442.23"/>
<text text-anchor="middle" x="1186" y="-2268.28" font-family="Times,serif" font-size="14.00">gl_sort</text>
</g>
<!-- q7&#45;&gt;q0 -->
<g id="edge97" class="edge"><title>q7&#45;&gt;q0</title>
<path fill="none" stroke="green" d="M1772.24,-2452.26C1770,-2407.31 1762.02,-2292.75 1738,-2264.48 1694.49,-2213.29 1662.18,-2215.48 1595,-2215.48 1287,-2215.48 1287,-2215.48 1287,-2215.48 806.872,-2215.48 660.257,-2248.53 634,-2274.48 610.746,-2297.47 602.747,-2393.53 600.156,-2442.1"/>
<polygon fill="green" stroke="green" points="596.652,-2442.09 599.656,-2452.25 603.643,-2442.44 596.652,-2442.09"/>
<text text-anchor="middle" x="1186" y="-2221.28" font-family="Times,serif" font-size="14.00">Learn_Assert</text>
</g>
<!-- q7&#45;&gt;q6 -->
<g id="edge87" class="edge"><title>q7&#45;&gt;q6</title>
<path fill="none" stroke="green" d="M1781.94,-2486.65C1799.07,-2527.12 1843.69,-2636.41 1868,-2731.48 1885.29,-2799.08 1895.64,-2880.72 1900.21,-2922.65"/>
<polygon fill="green" stroke="green" points="1896.74,-2923.08 1901.27,-2932.66 1903.7,-2922.34 1896.74,-2923.08"/>
<text text-anchor="middle" x="1839" y="-2735.28" font-family="Times,serif" font-size="14.00">__list_add</text>
</g>
<!-- q8 -->
<g id="node10" class="node"><title>q8</title>
<ellipse fill="none" stroke="black" cx="1594" cy="-1979.48" rx="18" ry="18"/>
<text text-anchor="middle" x="1594" y="-1975.78" font-family="Times,serif" font-size="14.00">D</text>
</g>
<!-- q8&#45;&gt;q0 -->
<g id="edge98" class="edge"><title>q8&#45;&gt;q0</title>
<path fill="none" stroke="green" d="M1592.55,-1997.59C1590.62,-2032.57 1580.93,-2109.18 1534,-2145.48 1454.6,-2206.91 706.865,-2155.43 634,-2224.48 603.186,-2253.68 599.065,-2383.39 598.806,-2441.8"/>
<polygon fill="green" stroke="green" points="595.306,-2442.16 598.798,-2452.16 602.306,-2442.16 595.306,-2442.16"/>
<text text-anchor="middle" x="1084" y="-2187.28" font-family="Times,serif" font-size="14.00">inspect</text>
</g>
<!-- q8&#45;&gt;q0 -->
<g id="edge99" class="edge"><title>q8&#45;&gt;q0</title>
<path fill="none" stroke="green" d="M1590.42,-1997.51C1585.27,-2026.09 1570.89,-2081.25 1534,-2107.48 1452.12,-2165.71 706.075,-2125.48 634,-2195.48 599.325,-2229.16 597.517,-2379.31 598.346,-2442.41"/>
<polygon fill="green" stroke="green" points="594.847,-2442.51 598.511,-2452.45 601.846,-2442.39 594.847,-2442.51"/>
<text text-anchor="middle" x="1084" y="-2152.28" font-family="Times,serif" font-size="14.00">__list_add</text>
</g>
<!-- q8&#45;&gt;q0 -->
<g id="edge100" class="edge"><title>q8&#45;&gt;q0</title>
<path fill="none" stroke="black" d="M1587.11,-1996.42C1578.83,-2017.46 1561.58,-2052.64 1534,-2069.48 1448.18,-2121.9 705.354,-2094.61 634,-2165.48 614.531,-2184.82 603.737,-2370.4 600.259,-2442.26"/>
<polygon fill="black" stroke="black" points="596.756,-2442.24 599.781,-2452.39 603.748,-2442.57 596.756,-2442.24"/>
<text text-anchor="middle" x="1084" y="-2116.28" font-family="Times,serif" font-size="14.00">__list_del</text>
</g>
<!-- q8&#45;&gt;q0 -->
<g id="edge102" class="edge"><title>q8&#45;&gt;q0</title>
<path fill="none" stroke="black" d="M1581.94,-1993.14C1571.12,-2005.43 1553.47,-2022.85 1534,-2031.48 1441.99,-2072.28 704.35,-2062.5 634,-2134.48 612.658,-2156.32 602.877,-2364.99 599.971,-2442.06"/>
<polygon fill="black" stroke="black" points="596.459,-2442.32 599.592,-2452.44 603.455,-2442.58 596.459,-2442.32"/>
<text text-anchor="middle" x="1084" y="-2077.28" font-family="Times,serif" font-size="14.00">list_move</text>
</g>
<!-- q8&#45;&gt;q0 -->
<g id="edge103" class="edge"><title>q8&#45;&gt;q0</title>
<path fill="none" stroke="black" d="M1576.32,-1983.99C1564.57,-1987.04 1548.41,-1990.95 1534,-1993.48 1317.2,-2031.63 1260.6,-2024.6 1042,-2050.48 905.959,-2066.59 871.863,-2069.95 736,-2087.48 690.618,-2093.34 665.672,-2068.46 634,-2101.48 610.555,-2125.93 602,-2359.76 599.701,-2442.03"/>
<polygon fill="black" stroke="black" points="596.199,-2442.07 599.428,-2452.16 603.196,-2442.26 596.199,-2442.07"/>
<text text-anchor="middle" x="1084" y="-2054.28" font-family="Times,serif" font-size="14.00">gl_sort_pass</text>
</g>
<!-- q8&#45;&gt;q0 -->
<g id="edge104" class="edge"><title>q8&#45;&gt;q0</title>
<path fill="none" stroke="green" d="M1575.67,-1979.98C1451.63,-1983.73 701.655,-2009.24 634,-2080.48 609.198,-2106.6 601.474,-2356.77 599.549,-2442.12"/>
<polygon fill="green" stroke="green" points="596.05,-2442.06 599.333,-2452.13 603.048,-2442.21 596.05,-2442.06"/>
<text text-anchor="middle" x="1084" y="-2012.28" font-family="Times,serif" font-size="14.00">gl_insert</text>
</g>
<!-- q8&#45;&gt;q0 -->
<g id="edge105" class="edge"><title>q8&#45;&gt;q0</title>
<path fill="none" stroke="green" d="M1575.88,-1977.69C1457.87,-1965.7 765.56,-1902.18 634,-2046.48 607.371,-2075.69 600.804,-2352.48 599.366,-2442.41"/>
<polygon fill="green" stroke="green" points="595.867,-2442.37 599.215,-2452.42 602.866,-2442.48 595.867,-2442.37"/>
<text text-anchor="middle" x="1084" y="-1958.28" font-family="Times,serif" font-size="14.00">gl_read</text>
</g>
<!-- q8&#45;&gt;q0 -->
<g id="edge106" class="edge"><title>q8&#45;&gt;q0</title>
<path fill="none" stroke="black" d="M1576.66,-1974.13C1564.92,-1970.52 1548.65,-1965.97 1534,-1963.48 1505.57,-1958.67 1210.59,-1925.01 1042,-1934.48 950.903,-1939.6 928.59,-1946.6 838,-1957.48 746.432,-1968.48 693.554,-1925.06 634,-1995.48 605.144,-2029.6 600.065,-2344.79 599.183,-2442.04"/>
<polygon fill="black" stroke="black" points="595.681,-2442.26 599.098,-2452.29 602.68,-2442.32 595.681,-2442.26"/>
<text text-anchor="middle" x="1084" y="-1938.28" font-family="Times,serif" font-size="14.00">gl_destroy</text>
</g>
<!-- q8&#45;&gt;q0 -->
<g id="edge107" class="edge"><title>q8&#45;&gt;q0</title>
<path fill="none" stroke="black" d="M1578.08,-1970.27C1566.5,-1963.6 1549.81,-1954.98 1534,-1950.48 1490.19,-1938.01 1477.36,-1944.63 1432,-1940.48 1255.39,-1924.32 758.092,-1823.78 634,-1950.48 599.452,-1985.76 598.373,-2338.92 598.805,-2442.23"/>
<polygon fill="black" stroke="black" points="595.305,-2442.26 598.856,-2452.24 602.305,-2442.22 595.305,-2442.26"/>
<text text-anchor="middle" x="1084" y="-1906.28" font-family="Times,serif" font-size="14.00">val_from_node</text>
</g>
<!-- q8&#45;&gt;q0 -->
<g id="edge108" class="edge"><title>q8&#45;&gt;q0</title>
<path fill="none" stroke="black" d="M1579.97,-1967.79C1568.64,-1958.31 1551.37,-1945.43 1534,-1938.48 1203.97,-1806.57 1089.79,-1852.5 736,-1886.48 690.323,-1890.87 664.886,-1868.55 634,-1902.48 597.434,-1942.66 597.865,-2333.08 598.711,-2442.25"/>
<polygon fill="black" stroke="black" points="595.213,-2442.51 598.799,-2452.48 602.213,-2442.45 595.213,-2442.51"/>
<text text-anchor="middle" x="1084" y="-1858.28" font-family="Times,serif" font-size="14.00">gl_sort</text>
</g>
<!-- q8&#45;&gt;q0 -->
<g id="edge109" class="edge"><title>q8&#45;&gt;q0</title>
<path fill="none" stroke="green" d="M1584.67,-1963.95C1574.77,-1946.93 1556.7,-1920 1534,-1904.48 1494.89,-1877.74 1477.97,-1884.95 1432,-1873.48 1259.93,-1830.58 755.711,-1750.51 634,-1879.48 595.086,-1920.72 597.252,-2329.93 598.592,-2442.15"/>
<polygon fill="green" stroke="green" points="595.095,-2442.39 598.721,-2452.35 602.094,-2442.31 595.095,-2442.39"/>
<text text-anchor="middle" x="1084" y="-1825.28" font-family="Times,serif" font-size="14.00">Learn_Assert</text>
</g>
<!-- q8&#45;&gt;q7 -->
<g id="edge101" class="edge"><title>q8&#45;&gt;q7</title>
<path fill="none" stroke="green" d="M1607.22,-1992.22C1635.73,-2022.81 1706.62,-2104.02 1738,-2186.48 1771.73,-2275.13 1774.62,-2389.51 1773.9,-2441.94"/>
<polygon fill="green" stroke="green" points="1770.4,-2442.09 1773.71,-2452.16 1777.4,-2442.22 1770.4,-2442.09"/>
<text text-anchor="middle" x="1696" y="-2190.28" font-family="Times,serif" font-size="14.00">list_add</text>
</g>
<!-- q9 -->
<g id="node11" class="node"><title>q9</title>
<ellipse fill="none" stroke="green" cx="1390" cy="-1573.48" rx="18" ry="18"/>
<text text-anchor="middle" x="1390" y="-1569.78" font-family="Times,serif" font-size="14.00">D</text>
</g>
<!-- q9&#45;&gt;q0 -->
<g id="edge111" class="edge"><title>q9&#45;&gt;q0</title>
<path fill="none" stroke="green" d="M1387.91,-1591.49C1384.86,-1624.39 1373.35,-1693.91 1330,-1727.48 1206.93,-1822.79 740.697,-1693.14 634,-1806.48 611.894,-1829.97 601.709,-2318.57 599.48,-2442.24"/>
<polygon fill="green" stroke="green" points="595.978,-2442.35 599.3,-2452.41 602.976,-2442.48 595.978,-2442.35"/>
<text text-anchor="middle" x="982" y="-1766.28" font-family="Times,serif" font-size="14.00">__list_add</text>
</g>
<!-- q9&#45;&gt;q0 -->
<g id="edge112" class="edge"><title>q9&#45;&gt;q0</title>
<path fill="none" stroke="black" d="M1385.55,-1591.11C1379.4,-1617.37 1363.87,-1666.16 1330,-1689.48 1201.9,-1777.7 740.834,-1650.44 634,-1763.48 610.317,-1788.54 601.257,-2313.17 599.384,-2442.07"/>
<polygon fill="black" stroke="black" points="595.881,-2442.26 599.239,-2452.31 602.881,-2442.36 595.881,-2442.26"/>
<text text-anchor="middle" x="982" y="-1723.28" font-family="Times,serif" font-size="14.00">__list_del</text>
</g>
<!-- q9&#45;&gt;q0 -->
<g id="edge113" class="edge"><title>q9&#45;&gt;q0</title>
<path fill="none" stroke="green" d="M1379.52,-1588.17C1369.15,-1603.08 1351.13,-1625.72 1330,-1638.48 1273.81,-1672.43 1252.65,-1675.48 1187,-1675.48 777,-1675.48 777,-1675.48 777,-1675.48 710.372,-1675.48 674.655,-1667.7 634,-1720.48 611.589,-1749.58 601.509,-2308.92 599.42,-2442.17"/>
<polygon fill="green" stroke="green" points="595.917,-2442.32 599.262,-2452.37 602.916,-2442.43 595.917,-2442.32"/>
<text text-anchor="middle" x="982" y="-1679.28" font-family="Times,serif" font-size="14.00">list_add</text>
</g>
<!-- q9&#45;&gt;q0 -->
<g id="edge114" class="edge"><title>q9&#45;&gt;q0</title>
<path fill="none" stroke="black" d="M1373.11,-1580.36C1339.46,-1594.28 1258.25,-1624.48 1187,-1624.48 777,-1624.48 777,-1624.48 777,-1624.48 709.96,-1624.48 674.326,-1618.93 634,-1672.48 610.397,-1703.83 601.169,-2303.7 599.349,-2442.15"/>
<polygon fill="black" stroke="black" points="595.847,-2442.31 599.218,-2452.36 602.847,-2442.4 595.847,-2442.31"/>
<text text-anchor="middle" x="982" y="-1628.28" font-family="Times,serif" font-size="14.00">list_move</text>
</g>
<!-- q9&#45;&gt;q0 -->
<g id="edge115" class="edge"><title>q9&#45;&gt;q0</title>
<path fill="none" stroke="black" d="M1371.97,-1573.48C1337.21,-1573.48 1255.56,-1573.48 1187,-1573.48 777,-1573.48 777,-1573.48 777,-1573.48 709.96,-1573.48 674.255,-1567.87 634,-1621.48 608.829,-1655 600.763,-2298.46 599.272,-2442.18"/>
<polygon fill="black" stroke="black" points="595.77,-2442.34 599.168,-2452.38 602.769,-2442.41 595.77,-2442.34"/>
<text text-anchor="middle" x="982" y="-1577.28" font-family="Times,serif" font-size="14.00">gl_sort_pass</text>
</g>
<!-- q9&#45;&gt;q0 -->
<g id="edge117" class="edge"><title>q9&#45;&gt;q0</title>
<path fill="none" stroke="green" d="M1373.11,-1566.61C1339.46,-1552.68 1258.25,-1522.48 1187,-1522.48 777,-1522.48 777,-1522.48 777,-1522.48 709.96,-1522.48 674.193,-1516.83 634,-1570.48 607.249,-1606.2 600.376,-2293.91 599.201,-2442.38"/>
<polygon fill="green" stroke="green" points="595.701,-2442.47 599.123,-2452.5 602.7,-2442.52 595.701,-2442.47"/>
<text text-anchor="middle" x="982" y="-1526.28" font-family="Times,serif" font-size="14.00">gl_read</text>
</g>
<!-- q9&#45;&gt;q0 -->
<g id="edge118" class="edge"><title>q9&#45;&gt;q0</title>
<path fill="none" stroke="black" d="M1375.97,-1561.38C1345.46,-1534.36 1265.97,-1471.48 1187,-1471.48 777,-1471.48 777,-1471.48 777,-1471.48 709.96,-1471.48 674.137,-1465.79 634,-1519.48 605.686,-1557.36 600.021,-2288.48 599.141,-2442.25"/>
<polygon fill="black" stroke="black" points="595.641,-2442.29 599.086,-2452.31 602.641,-2442.33 595.641,-2442.29"/>
<text text-anchor="middle" x="982" y="-1475.28" font-family="Times,serif" font-size="14.00">gl_destroy</text>
</g>
<!-- q9&#45;&gt;q0 -->
<g id="edge119" class="edge"><title>q9&#45;&gt;q0</title>
<path fill="none" stroke="black" d="M1382.52,-1556.83C1373.6,-1535.9 1355.69,-1500.13 1330,-1478.48 1277.55,-1434.29 1255.58,-1420.48 1187,-1420.48 777,-1420.48 777,-1420.48 777,-1420.48 709.96,-1420.48 674.086,-1414.75 634,-1468.48 604.143,-1508.51 599.69,-2282.01 599.088,-2441.77"/>
<polygon fill="black" stroke="black" points="595.586,-2442.18 599.051,-2452.19 602.586,-2442.2 595.586,-2442.18"/>
<text text-anchor="middle" x="982" y="-1424.28" font-family="Times,serif" font-size="14.00">val_from_node</text>
</g>
<!-- q9&#45;&gt;q0 -->
<g id="edge120" class="edge"><title>q9&#45;&gt;q0</title>
<path fill="none" stroke="black" d="M1386.73,-1555.67C1381.87,-1524.68 1367.65,-1460.62 1330,-1423.48 1281.63,-1375.77 1254.94,-1369.48 1187,-1369.48 777,-1369.48 777,-1369.48 777,-1369.48 709.96,-1369.48 674.041,-1363.71 634,-1417.48 602.562,-1459.7 599.363,-2277.52 599.037,-2441.86"/>
<polygon fill="black" stroke="black" points="595.537,-2442.13 599.019,-2452.14 602.536,-2442.14 595.537,-2442.13"/>
<text text-anchor="middle" x="982" y="-1373.28" font-family="Times,serif" font-size="14.00">gl_sort</text>
</g>
<!-- q9&#45;&gt;q0 -->
<g id="edge121" class="edge"><title>q9&#45;&gt;q0</title>
<path fill="none" stroke="green" d="M1388.94,-1555.41C1387.84,-1516.42 1379.79,-1423.67 1330,-1370.48 1283.78,-1321.11 1254.63,-1318.48 1187,-1318.48 777,-1318.48 777,-1318.48 777,-1318.48 709.96,-1318.48 674,-1312.68 634,-1366.48 600.973,-1410.91 599.051,-2273.54 598.991,-2442.07"/>
<polygon fill="green" stroke="green" points="595.491,-2442.15 598.989,-2452.15 602.491,-2442.15 595.491,-2442.15"/>
<text text-anchor="middle" x="982" y="-1322.28" font-family="Times,serif" font-size="14.00">Learn_Assert</text>
</g>
<!-- q9&#45;&gt;q2 -->
<g id="edge110" class="edge"><title>q9&#45;&gt;q2</title>
<path fill="none" stroke="green" d="M1407.29,-1578.82C1441.36,-1589.51 1522.82,-1612.48 1593,-1612.48 1593,-1612.48 1593,-1612.48 2275,-1612.48 2359.56,-1612.48 2382.53,-4487.12 2384.8,-4804.18"/>
<polygon fill="green" stroke="green" points="2381.31,-4804.4 2384.88,-4814.37 2388.31,-4804.35 2381.31,-4804.4"/>
<text text-anchor="middle" x="1964" y="-1616.28" font-family="Times,serif" font-size="14.00">inspect</text>
</g>
<!-- q9&#45;&gt;q8 -->
<g id="edge116" class="edge"><title>q9&#45;&gt;q8</title>
<path fill="none" stroke="green" d="M1403.35,-1585.89C1430.91,-1614.27 1497.86,-1687.17 1534,-1760.48 1565.78,-1824.95 1582.24,-1908.82 1589.06,-1951.65"/>
<polygon fill="green" stroke="green" points="1585.62,-1952.27 1590.6,-1961.62 1592.54,-1951.21 1585.62,-1952.27"/>
<text text-anchor="middle" x="1492" y="-1764.28" font-family="Times,serif" font-size="14.00">gl_insert</text>
</g>
<!-- q10 -->
<g id="node12" class="node"><title>q10</title>
<ellipse fill="none" stroke="green" cx="1186" cy="-1082.48" rx="18" ry="18"/>
<text text-anchor="middle" x="1186" y="-1078.78" font-family="Times,serif" font-size="14.00">D</text>
</g>
<!-- q10&#45;&gt;q0 -->
<g id="edge122" class="edge"><title>q10&#45;&gt;q0</title>
<path fill="none" stroke="green" d="M1184.47,-1100.48C1182.39,-1135.28 1172.46,-1211.58 1126,-1248.48 1039.84,-1316.93 708.501,-1223.5 634,-1304.48 594.274,-1347.67 597.792,-2268.46 598.814,-2442.31"/>
<polygon fill="green" stroke="green" points="595.315,-2442.47 598.876,-2452.44 602.314,-2442.42 595.315,-2442.47"/>
<text text-anchor="middle" x="880" y="-1278.28" font-family="Times,serif" font-size="14.00">inspect</text>
</g>
<!-- q10&#45;&gt;q0 -->
<g id="edge124" class="edge"><title>q10&#45;&gt;q0</title>
<path fill="none" stroke="black" d="M1182.35,-1100.41C1177.11,-1128.86 1162.6,-1183.85 1126,-1210.48 1036.97,-1275.28 708.274,-1188.19 634,-1269.48 593.173,-1314.17 597.61,-2265.37 598.791,-2442.29"/>
<polygon fill="black" stroke="black" points="595.292,-2442.4 598.861,-2452.37 602.292,-2442.35 595.292,-2442.4"/>
<text text-anchor="middle" x="880" y="-1239.28" font-family="Times,serif" font-size="14.00">__list_del</text>
</g>
<!-- q10&#45;&gt;q0 -->
<g id="edge125" class="edge"><title>q10&#45;&gt;q0</title>
<path fill="none" stroke="green" d="M1179.07,-1099.34C1170.74,-1120.3 1153.44,-1155.4 1126,-1172.48 1032.48,-1230.72 708.113,-1151.97 634,-1233.48 612.976,-1256.61 601.25,-2260.16 599.294,-2442.29"/>
<polygon fill="green" stroke="green" points="595.793,-2442.37 599.186,-2452.41 602.792,-2442.44 595.793,-2442.37"/>
<text text-anchor="middle" x="880" y="-1199.28" font-family="Times,serif" font-size="14.00">list_add</text>
</g>
<!-- q10&#45;&gt;q0 -->
<g id="edge126" class="edge"><title>q10&#45;&gt;q0</title>
<path fill="none" stroke="black" d="M1173.91,-1096.08C1163.08,-1108.33 1145.41,-1125.72 1126,-1134.48 1025.55,-1179.81 708.016,-1114.84 634,-1196.48 612.348,-1220.37 601.107,-2257.08 599.27,-2442.31"/>
<polygon fill="black" stroke="black" points="595.77,-2442.32 599.172,-2452.35 602.77,-2442.39 595.77,-2442.32"/>
<text text-anchor="middle" x="880" y="-1156.28" font-family="Times,serif" font-size="14.00">list_move</text>
</g>
<!-- q10&#45;&gt;q0 -->
<g id="edge127" class="edge"><title>q10&#45;&gt;q0</title>
<path fill="none" stroke="black" d="M1168.32,-1086.96C1156.56,-1089.99 1140.4,-1093.89 1126,-1096.48 1017.57,-1116.01 708.046,-1075.91 634,-1157.48 611.648,-1182.11 600.964,-2252.79 599.249,-2442.05"/>
<polygon fill="black" stroke="black" points="595.747,-2442.26 599.157,-2452.29 602.746,-2442.33 595.747,-2442.26"/>
<text text-anchor="middle" x="880" y="-1109.28" font-family="Times,serif" font-size="14.00">gl_sort_pass</text>
</g>
<!-- q10&#45;&gt;q0 -->
<g id="edge128" class="edge"><title>q10&#45;&gt;q0</title>
<path fill="none" stroke="green" d="M1167.89,-1080.46C1082.75,-1070.8 706.065,-1033.19 634,-1114.48 611.181,-1140.22 600.856,-2249.14 599.231,-2442.03"/>
<polygon fill="green" stroke="green" points="595.729,-2442.18 599.146,-2452.21 602.729,-2442.24 595.729,-2442.18"/>
<text text-anchor="middle" x="880" y="-1068.28" font-family="Times,serif" font-size="14.00">gl_insert</text>
</g>
<!-- q10&#45;&gt;q0 -->
<g id="edge129" class="edge"><title>q10&#45;&gt;q0</title>
<path fill="none" stroke="green" d="M1168.66,-1076.93C1156.92,-1073.14 1140.65,-1068.32 1126,-1065.48 1018.65,-1044.66 706.702,-991.805 634,-1073.48 610.389,-1100.01 600.686,-2247.18 599.205,-2442.39"/>
<polygon fill="green" stroke="green" points="595.705,-2442.4 599.129,-2452.42 602.704,-2442.45 595.705,-2442.4"/>
<text text-anchor="middle" x="880" y="-1039.28" font-family="Times,serif" font-size="14.00">gl_read</text>
</g>
<!-- q10&#45;&gt;q0 -->
<g id="edge130" class="edge"><title>q10&#45;&gt;q0</title>
<path fill="none" stroke="black" d="M1170.71,-1072C1159.2,-1064.06 1142.3,-1053.53 1126,-1047.48 1023.44,-1009.46 708.262,-952.171 634,-1032.48 609.158,-1059.35 600.463,-2243.02 599.174,-2442.18"/>
<polygon fill="black" stroke="black" points="595.673,-2442.38 599.109,-2452.41 602.673,-2442.43 595.673,-2442.38"/>
<text text-anchor="middle" x="880" y="-1005.28" font-family="Times,serif" font-size="14.00">gl_destroy</text>
</g>
<!-- q10&#45;&gt;q0 -->
<g id="edge131" class="edge"><title>q10&#45;&gt;q0</title>
<path fill="none" stroke="black" d="M1175.07,-1067.79C1164.58,-1053.46 1146.71,-1032.16 1126,-1020.48 1030.64,-966.686 708.695,-914.435 634,-994.483 608.337,-1021.99 600.306,-2240.75 599.152,-2442.37"/>
<polygon fill="black" stroke="black" points="595.652,-2442.43 599.096,-2452.45 602.652,-2442.47 595.652,-2442.43"/>
<text text-anchor="middle" x="880" y="-967.283" font-family="Times,serif" font-size="14.00">val_from_node</text>
</g>
<!-- q10&#45;&gt;q0 -->
<g id="edge132" class="edge"><title>q10&#45;&gt;q0</title>
<path fill="none" stroke="black" d="M1179.39,-1065.6C1171.21,-1043.67 1153.87,-1005.81 1126,-985.483 1037.49,-920.948 708.705,-875.375 634,-955.483 607.64,-983.749 600.18,-2237.3 599.135,-2442.27"/>
<polygon fill="black" stroke="black" points="595.634,-2442.49 599.084,-2452.51 602.634,-2442.53 595.634,-2442.49"/>
<text text-anchor="middle" x="880" y="-925.283" font-family="Times,serif" font-size="14.00">gl_sort</text>
</g>
<!-- q10&#45;&gt;q0 -->
<g id="edge133" class="edge"><title>q10&#45;&gt;q0</title>
<path fill="none" stroke="green" d="M1182.51,-1064.81C1177.41,-1035.45 1162.97,-976.764 1126,-945.483 1042.38,-874.73 708.487,-835.172 634,-915.483 606.996,-944.599 600.065,-2233.78 599.12,-2442.17"/>
<polygon fill="green" stroke="green" points="595.619,-2442.29 599.075,-2452.31 602.619,-2442.32 595.619,-2442.29"/>
<text text-anchor="middle" x="880" y="-883.283" font-family="Times,serif" font-size="14.00">Learn_Assert</text>
</g>
<!-- q10&#45;&gt;q9 -->
<g id="edge123" class="edge"><title>q10&#45;&gt;q9</title>
<path fill="none" stroke="green" d="M1198.77,-1095.4C1226.31,-1126.38 1295.26,-1208.38 1330,-1289.48 1367.95,-1378.08 1382.13,-1492.94 1386.87,-1545.27"/>
<polygon fill="green" stroke="green" points="1383.41,-1545.79 1387.75,-1555.46 1390.38,-1545.2 1383.41,-1545.79"/>
<text text-anchor="middle" x="1288" y="-1293.28" font-family="Times,serif" font-size="14.00">__list_add</text>
</g>
<!-- q11 -->
<g id="node13" class="node"><title>q11</title>
<ellipse fill="none" stroke="green" cx="982" cy="-594.483" rx="18" ry="18"/>
<text text-anchor="middle" x="982" y="-590.783" font-family="Times,serif" font-size="14.00">D</text>
</g>
<!-- q11&#45;&gt;q0 -->
<g id="edge134" class="edge"><title>q11&#45;&gt;q0</title>
<path fill="none" stroke="green" d="M981.866,-612.782C982.78,-654.619 978.804,-757.855 922,-812.483 827.35,-903.509 716.954,-776.684 634,-878.483 608.292,-910.032 600.262,-2231.18 599.142,-2442.19"/>
<polygon fill="green" stroke="green" points="595.641,-2442.42 599.089,-2452.44 602.641,-2442.46 595.641,-2442.42"/>
<text text-anchor="middle" x="778" y="-851.283" font-family="Times,serif" font-size="14.00">inspect</text>
</g>
<!-- q11&#45;&gt;q0 -->
<g id="edge135" class="edge"><title>q11&#45;&gt;q0</title>
<path fill="none" stroke="green" d="M980.016,-612.592C977.142,-646.911 965.902,-721.551 922,-761.483 824.397,-850.262 716.304,-730.362 634,-833.483 607.856,-866.24 600.175,-2228.64 599.13,-2442.39"/>
<polygon fill="green" stroke="green" points="595.63,-2442.47 599.081,-2452.49 602.63,-2442.51 595.63,-2442.47"/>
<text text-anchor="middle" x="778" y="-801.283" font-family="Times,serif" font-size="14.00">__list_add</text>
</g>
<!-- q11&#45;&gt;q0 -->
<g id="edge136" class="edge"><title>q11&#45;&gt;q0</title>
<path fill="none" stroke="black" d="M976.98,-611.918C970.163,-637.475 953.863,-684.848 922,-710.483 818.945,-793.398 715.972,-681.677 634,-785.483 607.238,-819.374 600.068,-2224.43 599.116,-2442.24"/>
<polygon fill="black" stroke="black" points="595.616,-2442.23 599.073,-2452.25 602.616,-2442.26 595.616,-2442.23"/>
<text text-anchor="middle" x="778" y="-748.283" font-family="Times,serif" font-size="14.00">__list_del</text>
</g>
<!-- q11&#45;&gt;q0 -->
<g id="edge138" class="edge"><title>q11&#45;&gt;q0</title>
<path fill="none" stroke="black" d="M971.512,-609.154C961.123,-624.041 943.101,-646.665 922,-659.483 808.857,-728.212 715.841,-631.431 634,-735.483 606.482,-770.469 599.941,-2220.15 599.1,-2442.1"/>
<polygon fill="black" stroke="black" points="595.6,-2442.27 599.063,-2452.28 602.6,-2442.29 595.6,-2442.27"/>
<text text-anchor="middle" x="778" y="-691.283" font-family="Times,serif" font-size="14.00">list_move</text>
</g>
<!-- q11&#45;&gt;q0 -->
<g id="edge139" class="edge"><title>q11&#45;&gt;q0</title>
<path fill="none" stroke="black" d="M964.405,-598.501C895.662,-615.163 636.684,-678.112 634,-681.483 605.371,-717.445 599.76,-2216.93 599.078,-2442.26"/>
<polygon fill="black" stroke="black" points="595.578,-2442.28 599.049,-2452.29 602.578,-2442.31 595.578,-2442.28"/>
<text text-anchor="middle" x="778" y="-657.283" font-family="Times,serif" font-size="14.00">gl_sort_pass</text>
</g>
<!-- q11&#45;&gt;q0 -->
<g id="edge140" class="edge"><title>q11&#45;&gt;q0</title>
<path fill="none" stroke="green" d="M964.173,-590.69C905.541,-578.585 709.703,-547.749 634,-656.483 607.355,-694.754 600.053,-2215.23 599.111,-2442.25"/>
<polygon fill="green" stroke="green" points="595.61,-2442.34 599.07,-2452.35 602.61,-2442.37 595.61,-2442.34"/>
<text text-anchor="middle" x="778" y="-593.283" font-family="Times,serif" font-size="14.00">gl_insert</text>
</g>
<!-- q11&#45;&gt;q0 -->
<g id="edge141" class="edge"><title>q11&#45;&gt;q0</title>
<path fill="none" stroke="green" d="M965.081,-587.259C907.818,-562.449 711.602,-487.906 634,-593.483 605.394,-632.402 599.753,-2209.53 599.076,-2441.99"/>
<polygon fill="green" stroke="green" points="595.575,-2442.3 599.047,-2452.31 602.575,-2442.32 595.575,-2442.3"/>
<text text-anchor="middle" x="778" y="-547.283" font-family="Times,serif" font-size="14.00">gl_read</text>
</g>
<!-- q11&#45;&gt;q0 -->
<g id="edge142" class="edge"><title>q11&#45;&gt;q0</title>
<path fill="none" stroke="black" d="M969.23,-581.119C958.185,-569.424 940.615,-552.876 922,-543.483 864.858,-514.652 675.117,-491.434 634,-540.483 602.045,-578.602 599.257,-2206.86 599.021,-2442.24"/>
<polygon fill="black" stroke="black" points="595.521,-2442.38 599.012,-2452.39 602.521,-2442.39 595.521,-2442.38"/>
<text text-anchor="middle" x="778" y="-521.283" font-family="Times,serif" font-size="14.00">gl_destroy</text>
</g>
<!-- q11&#45;&gt;q0 -->
<g id="edge143" class="edge"><title>q11&#45;&gt;q0</title>
<path fill="none" stroke="black" d="M973.378,-578.647C963.893,-560.699 945.977,-531.936 922,-516.483 868.189,-481.802 676.046,-461.207 634,-509.483 600.79,-547.615 599.077,-2204.25 599.002,-2442.15"/>
<polygon fill="black" stroke="black" points="595.502,-2442.39 598.999,-2452.39 602.502,-2442.39 595.502,-2442.39"/>
<text text-anchor="middle" x="778" y="-490.283" font-family="Times,serif" font-size="14.00">val_from_node</text>
</g>
<!-- q11&#45;&gt;q0 -->
<g id="edge144" class="edge"><title>q11&#45;&gt;q0</title>
<path fill="none" stroke="black" d="M976.455,-577.338C969.147,-553.226 952.424,-509.657 922,-486.483 855.693,-435.977 818.962,-454.427 736,-462.483 690.02,-466.949 663.668,-447.073 634,-482.483 601.062,-521.797 599.116,-2202.42 599.006,-2442.14"/>
<polygon fill="black" stroke="black" points="595.506,-2442.46 599.002,-2452.46 602.506,-2442.46 595.506,-2442.46"/>
<text text-anchor="middle" x="778" y="-466.283" font-family="Times,serif" font-size="14.00">gl_sort</text>
</g>
<!-- q11&#45;&gt;q0 -->
<g id="edge145" class="edge"><title>q11&#45;&gt;q0</title>
<path fill="none" stroke="green" d="M979.296,-576.401C975.313,-545.112 962.415,-481.187 922,-449.483 856.747,-398.295 818.426,-425.305 736,-434.483 689.814,-439.626 663.336,-421.442 634,-457.483 601.199,-497.78 599.136,-2200.8 599.008,-2442.15"/>
<polygon fill="green" stroke="green" points="595.508,-2442.23 599.004,-2452.23 602.508,-2442.24 595.508,-2442.23"/>
<text text-anchor="middle" x="778" y="-438.283" font-family="Times,serif" font-size="14.00">Learn_Assert</text>
</g>
<!-- q11&#45;&gt;q10 -->
<g id="edge137" class="edge"><title>q11&#45;&gt;q10</title>
<path fill="none" stroke="green" d="M992.475,-609.371C1017.45,-649.165 1085.91,-761.89 1126,-863.483 1152.32,-930.171 1171.04,-1012.78 1179.67,-1054.92"/>
<polygon fill="green" stroke="green" points="1176.23,-1055.62 1181.64,-1064.73 1183.1,-1054.24 1176.23,-1055.62"/>
<text text-anchor="middle" x="1084" y="-867.283" font-family="Times,serif" font-size="14.00">list_add</text>
</g>
<!-- q12&#45;&gt;q0 -->
<g id="edge146" class="edge"><title>q12&#45;&gt;q0</title>
<path fill="none" stroke="green" d="M769.883,-239.658C754.716,-274.062 720.39,-351.536 718,-353.483 688.324,-377.658 658.143,-342.781 634,-372.483 599.791,-414.57 598.941,-2194.93 598.988,-2442.12"/>
<polygon fill="green" stroke="green" points="595.488,-2442.42 598.991,-2452.42 602.488,-2442.42 595.488,-2442.42"/>
<text text-anchor="middle" x="676" y="-376.283" font-family="Times,serif" font-size="14.00">inspect</text>
</g>
<!-- q12&#45;&gt;q0 -->
<g id="edge147" class="edge"><title>q12&#45;&gt;q0</title>
<path fill="none" stroke="green" d="M770.892,-240.282C762.372,-261.249 744.877,-296.638 718,-315.483 686.66,-337.458 658.138,-304.778 634,-334.483 599.142,-377.381 598.855,-2193.62 598.979,-2442.36"/>
<polygon fill="green" stroke="green" points="595.479,-2442.41 598.985,-2452.41 602.479,-2442.41 595.479,-2442.41"/>
<text text-anchor="middle" x="676" y="-338.283" font-family="Times,serif" font-size="14.00">__list_add</text>
</g>
<!-- q12&#45;&gt;q0 -->
<g id="edge148" class="edge"><title>q12&#45;&gt;q0</title>
<path fill="none" stroke="black" d="M765.812,-237.17C754.905,-249.589 737.196,-267.446 718,-277.483 684.081,-295.22 658.134,-266.774 634,-296.483 598.51,-340.171 598.771,-2190.6 598.971,-2442.26"/>
<polygon fill="black" stroke="black" points="595.471,-2442.41 598.98,-2452.41 602.471,-2442.4 595.471,-2442.41"/>
<text text-anchor="middle" x="676" y="-300.283" font-family="Times,serif" font-size="14.00">__list_del</text>
</g>
<!-- q12&#45;&gt;q0 -->
<g id="edge149" class="edge"><title>q12&#45;&gt;q0</title>
<path fill="none" stroke="green" d="M760.518,-228.154C748.713,-231.45 732.419,-235.899 718,-239.483 680.854,-248.717 658.13,-228.771 634,-258.483 597.878,-302.963 598.688,-2187.65 598.963,-2442.16"/>
<polygon fill="green" stroke="green" points="595.463,-2442.42 598.975,-2452.42 602.463,-2442.41 595.463,-2442.42"/>
<text text-anchor="middle" x="676" y="-262.283" font-family="Times,serif" font-size="14.00">list_add</text>
</g>
<!-- q12&#45;&gt;q0 -->
<g id="edge150" class="edge"><title>q12&#45;&gt;q0</title>
<path fill="none" stroke="black" d="M760.234,-220.299C726.334,-214.294 651.385,-203.367 634,-220.483 592.426,-261.416 597.969,-2186.1 598.892,-2442.39"/>
<polygon fill="black" stroke="black" points="595.392,-2442.41 598.929,-2452.39 602.392,-2442.38 595.392,-2442.41"/>
<text text-anchor="middle" x="676" y="-224.283" font-family="Times,serif" font-size="14.00">list_move</text>
</g>
<!-- q12&#45;&gt;q0 -->
<g id="edge151" class="edge"><title>q12&#45;&gt;q0</title>
<path fill="none" stroke="black" d="M762.963,-213.416C734.453,-194.279 669.476,-157.548 634,-192.483 591.891,-233.95 597.906,-2184.57 598.886,-2442.44"/>
<polygon fill="black" stroke="black" points="595.387,-2442.51 598.925,-2452.5 602.387,-2442.48 595.387,-2442.51"/>
<text text-anchor="middle" x="676" y="-196.283" font-family="Times,serif" font-size="14.00">gl_sort_pass</text>
</g>
<!-- q12&#45;&gt;q0 -->
<g id="edge153" class="edge"><title>q12&#45;&gt;q0</title>
<path fill="none" stroke="green" d="M768.231,-208.196C758.312,-192.613 740.562,-169.37 718,-159.483 683.806,-144.499 660.598,-133.285 634,-159.483 612.632,-180.53 600.639,-2179.7 599.157,-2442.17"/>
<polygon fill="green" stroke="green" points="595.655,-2442.37 599.099,-2452.39 602.655,-2442.41 595.655,-2442.37"/>
<text text-anchor="middle" x="676" y="-163.283" font-family="Times,serif" font-size="14.00">gl_read</text>
</g>
<!-- q12&#45;&gt;q0 -->
<g id="edge154" class="edge"><title>q12&#45;&gt;q0</title>
<path fill="none" stroke="black" d="M772.355,-206.187C765.091,-183.006 748.601,-142.779 718,-125.483 685.499,-107.114 660.595,-99.2824 634,-125.483 612.309,-146.853 600.586,-2177.52 599.15,-2442.16"/>
<polygon fill="black" stroke="black" points="595.649,-2442.44 599.095,-2452.46 602.649,-2442.48 595.649,-2442.44"/>
<text text-anchor="middle" x="676" y="-129.283" font-family="Times,serif" font-size="14.00">gl_destroy</text>
</g>
<!-- q12&#45;&gt;q0 -->
<g id="edge155" class="edge"><title>q12&#45;&gt;q0</title>
<path fill="none" stroke="black" d="M775.082,-205.318C770.828,-175.333 757.599,-116.237 718,-90.4833 686.703,-70.1289 660.592,-64.2795 634,-90.4833 611.976,-112.185 600.533,-2175.19 599.144,-2442.14"/>
<polygon fill="black" stroke="black" points="595.644,-2442.17 599.092,-2452.19 602.644,-2442.21 595.644,-2442.17"/>
<text text-anchor="middle" x="676" y="-94.2833" font-family="Times,serif" font-size="14.00">val_from_node</text>
</g>
<!-- q12&#45;&gt;q0 -->
<g id="edge156" class="edge"><title>q12&#45;&gt;q0</title>
<path fill="none" stroke="black" d="M776.963,-205.246C775.78,-169.26 767.41,-89.5684 718,-54.4833 687.56,-32.8687 660.589,-28.2765 634,-54.4833 611.634,-76.5273 600.479,-2172.88 599.138,-2442.13"/>
<polygon fill="black" stroke="black" points="595.637,-2442.24 599.088,-2452.26 602.637,-2442.28 595.637,-2442.24"/>
<text text-anchor="middle" x="676" y="-58.2833" font-family="Times,serif" font-size="14.00">gl_sort</text>
</g>
<!-- q12&#45;&gt;q0 -->
<g id="edge157" class="edge"><title>q12&#45;&gt;q0</title>
<path fill="none" stroke="green" d="M774.615,-205.703C768.108,-160.187 748.476,-41.4252 718,-18.4833 688.173,3.96986 660.586,7.72628 634,-18.4833 611.292,-40.8697 600.425,-2170.63 599.132,-2442.12"/>
<polygon fill="green" stroke="green" points="595.631,-2442.32 599.083,-2452.33 602.631,-2442.35 595.631,-2442.32"/>
<text text-anchor="middle" x="676" y="-22.2833" font-family="Times,serif" font-size="14.00">Learn_Assert</text>
</g>
<!-- q12&#45;&gt;q11 -->
<g id="edge152" class="edge"><title>q12&#45;&gt;q11</title>
<path fill="none" stroke="green" d="M795.312,-228.529C825.477,-238.752 889.83,-264.896 922,-310.483 951.163,-351.809 970.886,-503.146 978.028,-566.401"/>
<polygon fill="green" stroke="green" points="974.562,-566.902 979.141,-576.457 981.52,-566.132 974.562,-566.902"/>
<text text-anchor="middle" x="880" y="-314.283" font-family="Times,serif" font-size="14.00">gl_insert</text>
</g>
<!-- iq0 -->
<g id="node15" class="node"><title>iq0</title>
</g>
<!-- iq0&#45;&gt;q0 -->
<g id="edge1" class="edge"><title>iq0&#45;&gt;q0</title>
<path fill="none" stroke="blue" d="M257.046,-2262.32C318.908,-2254.04 475.908,-2242.67 562,-2323.48 579.017,-2339.46 589.287,-2404.24 593.968,-2442.27"/>
<polygon fill="blue" stroke="blue" points="590.548,-2443.15 595.192,-2452.67 597.5,-2442.33 590.548,-2443.15"/>
</g>
</g>
</svg>
