<?xml version="1.0" encoding="UTF-8" standalone="no"?>
<!DOCTYPE svg PUBLIC "-//W3C//DTD SVG 1.1//EN"
 "http://www.w3.org/Graphics/SVG/1.1/DTD/svg11.dtd">
<!-- Generated by graphviz version 2.34.0 (20141125.1709)
 -->
<!-- Title: finite_automaton Pages: 1 -->
<svg width="576pt" height="18pt"
 viewBox="0.00 0.00 576.00 17.56" xmlns="http://www.w3.org/2000/svg" xmlns:xlink="http://www.w3.org/1999/xlink">
<g id="graph0" class="graph" transform="scale(0.159645 0.159645) rotate(0) translate(4 106)">
<title>finite_automaton</title>
<polygon fill="white" stroke="white" points="-4,4 -4,-106 3604,-106 3604,4 -4,4"/>
<!-- dom_edges -->
<g id="node1" class="node"><title>dom_edges</title>
<polygon fill="none" stroke="green" points="1130,-36 0,-36 0,-0 1130,-0 1130,-36"/>
<text text-anchor="middle" x="565" y="-14.3" font-family="Times,serif" font-size="14.00">Dominating edges: rt_OneStep, DockingApproachExample_Ext, DockingApproachExample_Ext_initialize, DockingApproachExample_Ext_output, DockingApproachExample_Ext_update, Learn_Assert</text>
</g>
<!-- q1 -->
<g id="node2" class="node"><title>q1</title>
<ellipse fill="none" stroke="green" cx="3578" cy="-68" rx="18" ry="18"/>
<ellipse fill="none" stroke="green" cx="3578" cy="-68" rx="22" ry="22"/>
<text text-anchor="middle" x="3578" y="-64.3" font-family="Times,serif" font-size="14.00">D</text>
</g>
<!-- q0 -->
<g id="node3" class="node"><title>q0</title>
<ellipse fill="none" stroke="green" cx="1186" cy="-72" rx="18" ry="18"/>
</g>
<!-- q6 -->
<g id="node8" class="node"><title>q6</title>
<ellipse fill="none" stroke="green" cx="1434" cy="-72" rx="18" ry="18"/>
</g>
<!-- q0&#45;&gt;q6 -->
<g id="edge2" class="edge"><title>q0&#45;&gt;q6</title>
<path fill="none" stroke="green" d="M1204.3,-72C1246.38,-72 1354.37,-72 1405.45,-72"/>
<polygon fill="green" stroke="green" points="1405.72,-75.5001 1415.72,-72 1405.72,-68.5001 1405.72,-75.5001"/>
<text text-anchor="middle" x="1310" y="-75.8" font-family="Times,serif" font-size="14.00">DockingApproachExample_Ext</text>
</g>
<!-- q2 -->
<g id="node4" class="node"><title>q2</title>
<ellipse fill="none" stroke="green" cx="2448" cy="-72" rx="18" ry="18"/>
</g>
<!-- q2&#45;&gt;q1 -->
<g id="edge4" class="edge"><title>q2&#45;&gt;q1</title>
<path fill="none" stroke="green" d="M2466.02,-75.1811C2491.09,-79.5842 2539.48,-87 2581,-87 2581,-87 2581,-87 3429,-87 3469.61,-87 3515.97,-79.8766 3545.82,-74.3531"/>
<polygon fill="green" stroke="green" points="3546.86,-77.7178 3556.03,-72.4067 3545.55,-70.8417 3546.86,-77.7178"/>
<text text-anchor="middle" x="3004" y="-90.8" font-family="Times,serif" font-size="14.00">Learn_Assert</text>
</g>
<!-- q10 -->
<g id="node12" class="node"><title>q10</title>
<ellipse fill="none" stroke="black" cx="2582" cy="-41" rx="18" ry="18"/>
</g>
<!-- q2&#45;&gt;q10 -->
<g id="edge3" class="edge"><title>q2&#45;&gt;q10</title>
<path fill="none" stroke="green" d="M2464.79,-64.8784C2470.72,-62.4189 2477.58,-59.8255 2484,-58 2507.17,-51.4119 2534.22,-46.9259 2553.86,-44.2239"/>
<polygon fill="green" stroke="green" points="2554.48,-47.6732 2563.94,-42.9043 2553.57,-40.7325 2554.48,-47.6732"/>
<text text-anchor="middle" x="2515" y="-61.8" font-family="Times,serif" font-size="14.00">rt_OneStep</text>
</g>
<!-- q3 -->
<g id="node5" class="node"><title>q3</title>
<ellipse fill="none" stroke="green" cx="2158" cy="-72" rx="18" ry="18"/>
</g>
<!-- q3&#45;&gt;q2 -->
<g id="edge5" class="edge"><title>q3&#45;&gt;q2</title>
<path fill="none" stroke="green" d="M2176.15,-72C2224.28,-72 2360.86,-72 2419.59,-72"/>
<polygon fill="green" stroke="green" points="2419.94,-75.5001 2429.94,-72 2419.94,-68.5001 2419.94,-75.5001"/>
<text text-anchor="middle" x="2303" y="-75.8" font-family="Times,serif" font-size="14.00">DockingApproachExample_Ext_update</text>
</g>
<!-- q4 -->
<g id="node6" class="node"><title>q4</title>
<ellipse fill="none" stroke="green" cx="1870" cy="-72" rx="18" ry="18"/>
</g>
<!-- q4&#45;&gt;q3 -->
<g id="edge6" class="edge"><title>q4&#45;&gt;q3</title>
<path fill="none" stroke="green" d="M1888.03,-72C1935.71,-72 2070.82,-72 2129.37,-72"/>
<polygon fill="green" stroke="green" points="2129.69,-75.5001 2139.69,-72 2129.69,-68.5001 2129.69,-75.5001"/>
<text text-anchor="middle" x="2014" y="-75.8" font-family="Times,serif" font-size="14.00">DockingApproachExample_Ext_output</text>
</g>
<!-- q5 -->
<g id="node7" class="node"><title>q5</title>
<ellipse fill="none" stroke="green" cx="1736" cy="-72" rx="18" ry="18"/>
</g>
<!-- q5&#45;&gt;q4 -->
<g id="edge7" class="edge"><title>q5&#45;&gt;q4</title>
<path fill="none" stroke="green" d="M1754.26,-72C1776.49,-72 1815.4,-72 1841.68,-72"/>
<polygon fill="green" stroke="green" points="1841.74,-75.5001 1851.74,-72 1841.74,-68.5001 1841.74,-75.5001"/>
<text text-anchor="middle" x="1803" y="-75.8" font-family="Times,serif" font-size="14.00">rt_OneStep</text>
</g>
<!-- q6&#45;&gt;q5 -->
<g id="edge8" class="edge"><title>q6&#45;&gt;q5</title>
<path fill="none" stroke="green" d="M1452.43,-72C1502.46,-72 1646.85,-72 1707.58,-72"/>
<polygon fill="green" stroke="green" points="1707.9,-75.5001 1717.9,-72 1707.9,-68.5001 1707.9,-75.5001"/>
<text text-anchor="middle" x="1585" y="-75.8" font-family="Times,serif" font-size="14.00">DockingApproachExample_Ext_initialize</text>
</g>
<!-- q7 -->
<g id="node9" class="node"><title>q7</title>
<ellipse fill="none" stroke="black" cx="3428" cy="-41" rx="18" ry="18"/>
</g>
<!-- q7&#45;&gt;q1 -->
<g id="edge9" class="edge"><title>q7&#45;&gt;q1</title>
<path fill="none" stroke="green" d="M3446.08,-43.1461C3467.62,-45.9705 3505.73,-51.3631 3538,-58 3540.82,-58.5809 3543.75,-59.2342 3546.67,-59.9216"/>
<polygon fill="green" stroke="green" points="3545.89,-63.3341 3556.44,-62.3337 3547.57,-56.5382 3545.89,-63.3341"/>
<text text-anchor="middle" x="3501" y="-61.8" font-family="Times,serif" font-size="14.00">Learn_Assert</text>
</g>
<!-- q8 -->
<g id="node10" class="node"><title>q8</title>
<ellipse fill="none" stroke="black" cx="3138" cy="-41" rx="18" ry="18"/>
</g>
<!-- q8&#45;&gt;q7 -->
<g id="edge10" class="edge"><title>q8&#45;&gt;q7</title>
<path fill="none" stroke="green" d="M3156.15,-41C3204.28,-41 3340.86,-41 3399.59,-41"/>
<polygon fill="green" stroke="green" points="3399.94,-44.5001 3409.94,-41 3399.94,-37.5001 3399.94,-44.5001"/>
<text text-anchor="middle" x="3283" y="-44.8" font-family="Times,serif" font-size="14.00">DockingApproachExample_Ext_update</text>
</g>
<!-- q9 -->
<g id="node11" class="node"><title>q9</title>
<ellipse fill="none" stroke="black" cx="2870" cy="-41" rx="18" ry="18"/>
</g>
<!-- q9&#45;&gt;q8 -->
<g id="edge11" class="edge"><title>q9&#45;&gt;q8</title>
<path fill="none" stroke="black" d="M2888.04,-41C2932.98,-41 3054.97,-41 3109.74,-41"/>
<polygon fill="black" stroke="black" points="3109.75,-44.5001 3119.75,-41 3109.75,-37.5001 3109.75,-44.5001"/>
<text text-anchor="middle" x="3004" y="-44.8" font-family="Times,serif" font-size="14.00">DockingAppro_MissionPhaseStates</text>
</g>
<!-- q10&#45;&gt;q9 -->
<g id="edge12" class="edge"><title>q10&#45;&gt;q9</title>
<path fill="none" stroke="green" d="M2600.03,-41C2647.71,-41 2782.82,-41 2841.37,-41"/>
<polygon fill="green" stroke="green" points="2841.69,-44.5001 2851.69,-41 2841.69,-37.5001 2841.69,-44.5001"/>
<text text-anchor="middle" x="2726" y="-44.8" font-family="Times,serif" font-size="14.00">DockingApproachExample_Ext_output</text>
</g>
<!-- iq0 -->
<g id="node13" class="node"><title>iq0</title>
</g>
<!-- iq0&#45;&gt;q0 -->
<g id="edge1" class="edge"><title>iq0&#45;&gt;q0</title>
<path fill="none" stroke="blue" d="M592.202,-72C693,-72 1055.23,-72 1157.77,-72"/>
<polygon fill="blue" stroke="blue" points="1157.92,-75.5001 1167.92,-72 1157.92,-68.5001 1157.92,-75.5001"/>
</g>
</g>
</svg>
