<?xml version="1.0" encoding="UTF-8" standalone="no"?>
<!DOCTYPE svg PUBLIC "-//W3C//DTD SVG 1.1//EN"
 "http://www.w3.org/Graphics/SVG/1.1/DTD/svg11.dtd">
<!-- Generated by graphviz version 2.34.0 (20141125.1709)
 -->
<!-- Title: finite_automaton Pages: 1 -->
<svg width="576pt" height="17pt"
 viewBox="0.00 0.00 576.00 16.62" xmlns="http://www.w3.org/2000/svg" xmlns:xlink="http://www.w3.org/1999/xlink">
<g id="graph0" class="graph" transform="scale(0.151102 0.151102) rotate(0) translate(4 106)">
<title>finite_automaton</title>
<polygon fill="white" stroke="white" points="-4,4 -4,-106 3808,-106 3808,4 -4,4"/>
<!-- dom_edges -->
<g id="node1" class="node"><title>dom_edges</title>
<polygon fill="none" stroke="green" points="1333.5,-36 0.5,-36 0.5,-0 1333.5,-0 1333.5,-36"/>
<text text-anchor="middle" x="667" y="-14.3" font-family="Times,serif" font-size="14.00">Dominating edges: rt_OneStep, DockingAppro_MissionPhaseStates, DockingApproachExample_Ext, DockingApproachExample_Ext_initialize, DockingApproachExample_Ext_output, DockingApproachExample_Ext_update, Learn_Assert</text>
</g>
<!-- q1 -->
<g id="node2" class="node"><title>q1</title>
<ellipse fill="none" stroke="green" cx="3782" cy="-68" rx="18" ry="18"/>
<ellipse fill="none" stroke="green" cx="3782" cy="-68" rx="22" ry="22"/>
<text text-anchor="middle" x="3782" y="-64.3" font-family="Times,serif" font-size="14.00">D</text>
</g>
<!-- q0 -->
<g id="node3" class="node"><title>q0</title>
<ellipse fill="none" stroke="green" cx="1390" cy="-72" rx="18" ry="18"/>
</g>
<!-- q10 -->
<g id="node12" class="node"><title>q10</title>
<ellipse fill="none" stroke="green" cx="1638" cy="-72" rx="18" ry="18"/>
</g>
<!-- q0&#45;&gt;q10 -->
<g id="edge2" class="edge"><title>q0&#45;&gt;q10</title>
<path fill="none" stroke="green" d="M1408.3,-72C1450.38,-72 1558.37,-72 1609.45,-72"/>
<polygon fill="green" stroke="green" points="1609.72,-75.5001 1619.72,-72 1609.72,-68.5001 1609.72,-75.5001"/>
<text text-anchor="middle" x="1514" y="-75.8" font-family="Times,serif" font-size="14.00">DockingApproachExample_Ext</text>
</g>
<!-- q2 -->
<g id="node4" class="node"><title>q2</title>
<ellipse fill="none" stroke="black" cx="3632" cy="-41" rx="18" ry="18"/>
</g>
<!-- q2&#45;&gt;q1 -->
<g id="edge3" class="edge"><title>q2&#45;&gt;q1</title>
<path fill="none" stroke="green" d="M3650.08,-43.1461C3671.62,-45.9705 3709.73,-51.3631 3742,-58 3744.82,-58.5809 3747.75,-59.2342 3750.67,-59.9216"/>
<polygon fill="green" stroke="green" points="3749.89,-63.3341 3760.44,-62.3337 3751.57,-56.5382 3749.89,-63.3341"/>
<text text-anchor="middle" x="3705" y="-61.8" font-family="Times,serif" font-size="14.00">Learn_Assert</text>
</g>
<!-- q3 -->
<g id="node5" class="node"><title>q3</title>
<ellipse fill="none" stroke="black" cx="3342" cy="-41" rx="18" ry="18"/>
</g>
<!-- q3&#45;&gt;q2 -->
<g id="edge4" class="edge"><title>q3&#45;&gt;q2</title>
<path fill="none" stroke="green" d="M3360.15,-41C3408.28,-41 3544.86,-41 3603.59,-41"/>
<polygon fill="green" stroke="green" points="3603.94,-44.5001 3613.94,-41 3603.94,-37.5001 3603.94,-44.5001"/>
<text text-anchor="middle" x="3487" y="-44.8" font-family="Times,serif" font-size="14.00">DockingApproachExample_Ext_update</text>
</g>
<!-- q4 -->
<g id="node6" class="node"><title>q4</title>
<ellipse fill="none" stroke="black" cx="3074" cy="-41" rx="18" ry="18"/>
</g>
<!-- q4&#45;&gt;q3 -->
<g id="edge5" class="edge"><title>q4&#45;&gt;q3</title>
<path fill="none" stroke="green" d="M3092.04,-41C3136.98,-41 3258.97,-41 3313.74,-41"/>
<polygon fill="green" stroke="green" points="3313.75,-44.5001 3323.75,-41 3313.75,-37.5001 3313.75,-44.5001"/>
<text text-anchor="middle" x="3208" y="-44.8" font-family="Times,serif" font-size="14.00">DockingAppro_MissionPhaseStates</text>
</g>
<!-- q5 -->
<g id="node7" class="node"><title>q5</title>
<ellipse fill="none" stroke="black" cx="2786" cy="-41" rx="18" ry="18"/>
</g>
<!-- q5&#45;&gt;q4 -->
<g id="edge6" class="edge"><title>q5&#45;&gt;q4</title>
<path fill="none" stroke="green" d="M2804.03,-41C2851.71,-41 2986.82,-41 3045.37,-41"/>
<polygon fill="green" stroke="green" points="3045.69,-44.5001 3055.69,-41 3045.69,-37.5001 3045.69,-44.5001"/>
<text text-anchor="middle" x="2930" y="-44.8" font-family="Times,serif" font-size="14.00">DockingApproachExample_Ext_output</text>
</g>
<!-- q6 -->
<g id="node8" class="node"><title>q6</title>
<ellipse fill="none" stroke="green" cx="2652" cy="-72" rx="18" ry="18"/>
</g>
<!-- q6&#45;&gt;q1 -->
<g id="edge8" class="edge"><title>q6&#45;&gt;q1</title>
<path fill="none" stroke="green" d="M2670.02,-75.1811C2695.09,-79.5842 2743.48,-87 2785,-87 2785,-87 2785,-87 3633,-87 3673.61,-87 3719.97,-79.8766 3749.82,-74.3531"/>
<polygon fill="green" stroke="green" points="3750.86,-77.7178 3760.03,-72.4067 3749.55,-70.8417 3750.86,-77.7178"/>
<text text-anchor="middle" x="3208" y="-90.8" font-family="Times,serif" font-size="14.00">Learn_Assert</text>
</g>
<!-- q6&#45;&gt;q5 -->
<g id="edge7" class="edge"><title>q6&#45;&gt;q5</title>
<path fill="none" stroke="green" d="M2668.79,-64.8784C2674.72,-62.4189 2681.58,-59.8255 2688,-58 2711.17,-51.4119 2738.22,-46.9259 2757.86,-44.2239"/>
<polygon fill="green" stroke="green" points="2758.48,-47.6732 2767.94,-42.9043 2757.57,-40.7325 2758.48,-47.6732"/>
<text text-anchor="middle" x="2719" y="-61.8" font-family="Times,serif" font-size="14.00">rt_OneStep</text>
</g>
<!-- q7 -->
<g id="node9" class="node"><title>q7</title>
<ellipse fill="none" stroke="green" cx="2362" cy="-72" rx="18" ry="18"/>
</g>
<!-- q7&#45;&gt;q6 -->
<g id="edge9" class="edge"><title>q7&#45;&gt;q6</title>
<path fill="none" stroke="green" d="M2380.15,-72C2428.28,-72 2564.86,-72 2623.59,-72"/>
<polygon fill="green" stroke="green" points="2623.94,-75.5001 2633.94,-72 2623.94,-68.5001 2623.94,-75.5001"/>
<text text-anchor="middle" x="2507" y="-75.8" font-family="Times,serif" font-size="14.00">DockingApproachExample_Ext_update</text>
</g>
<!-- q8 -->
<g id="node10" class="node"><title>q8</title>
<ellipse fill="none" stroke="green" cx="2074" cy="-72" rx="18" ry="18"/>
</g>
<!-- q8&#45;&gt;q7 -->
<g id="edge10" class="edge"><title>q8&#45;&gt;q7</title>
<path fill="none" stroke="green" d="M2092.03,-72C2139.71,-72 2274.82,-72 2333.37,-72"/>
<polygon fill="green" stroke="green" points="2333.69,-75.5001 2343.69,-72 2333.69,-68.5001 2333.69,-75.5001"/>
<text text-anchor="middle" x="2218" y="-75.8" font-family="Times,serif" font-size="14.00">DockingApproachExample_Ext_output</text>
</g>
<!-- q9 -->
<g id="node11" class="node"><title>q9</title>
<ellipse fill="none" stroke="green" cx="1940" cy="-72" rx="18" ry="18"/>
</g>
<!-- q9&#45;&gt;q8 -->
<g id="edge11" class="edge"><title>q9&#45;&gt;q8</title>
<path fill="none" stroke="green" d="M1958.26,-72C1980.49,-72 2019.4,-72 2045.68,-72"/>
<polygon fill="green" stroke="green" points="2045.74,-75.5001 2055.74,-72 2045.74,-68.5001 2045.74,-75.5001"/>
<text text-anchor="middle" x="2007" y="-75.8" font-family="Times,serif" font-size="14.00">rt_OneStep</text>
</g>
<!-- q10&#45;&gt;q9 -->
<g id="edge12" class="edge"><title>q10&#45;&gt;q9</title>
<path fill="none" stroke="green" d="M1656.43,-72C1706.46,-72 1850.85,-72 1911.58,-72"/>
<polygon fill="green" stroke="green" points="1911.9,-75.5001 1921.9,-72 1911.9,-68.5001 1911.9,-75.5001"/>
<text text-anchor="middle" x="1789" y="-75.8" font-family="Times,serif" font-size="14.00">DockingApproachExample_Ext_initialize</text>
</g>
<!-- iq0 -->
<g id="node13" class="node"><title>iq0</title>
</g>
<!-- iq0&#45;&gt;q0 -->
<g id="edge1" class="edge"><title>iq0&#45;&gt;q0</title>
<path fill="none" stroke="blue" d="M694.087,-72C806.345,-72 1247.75,-72 1361.92,-72"/>
<polygon fill="blue" stroke="blue" points="1361.93,-75.5001 1371.93,-72 1361.93,-68.5001 1361.93,-75.5001"/>
</g>
</g>
</svg>
