<?xml version="1.0" encoding="UTF-8" standalone="no"?>
<!DOCTYPE svg PUBLIC "-//W3C//DTD SVG 1.1//EN"
 "http://www.w3.org/Graphics/SVG/1.1/DTD/svg11.dtd">
<!-- Generated by graphviz version 2.34.0 (20141125.1709)
 -->
<!-- Title: finite_automaton Pages: 1 -->
<svg width="576pt" height="452pt"
 viewBox="0.00 0.00 576.00 451.65" xmlns="http://www.w3.org/2000/svg" xmlns:xlink="http://www.w3.org/1999/xlink">
<g id="graph0" class="graph" transform="scale(0.174545 0.174545) rotate(0) translate(4 2583.59)">
<title>finite_automaton</title>
<polygon fill="white" stroke="white" points="-4,4 -4,-2583.59 3296,-2583.59 3296,4 -4,4"/>
<!-- dom_edges -->
<g id="node1" class="node"><title>dom_edges</title>
<polygon fill="none" stroke="green" points="1130,-982.594 0,-982.594 0,-946.594 1130,-946.594 1130,-982.594"/>
<text text-anchor="middle" x="565" y="-960.894" font-family="Times,serif" font-size="14.00">Dominating edges: rt_OneStep, DockingApproachExample_Ext, DockingApproachExample_Ext_initialize, DockingApproachExample_Ext_output, DockingApproachExample_Ext_update, Learn_Assert</text>
</g>
<!-- q1 -->
<g id="node2" class="node"><title>q1</title>
<ellipse fill="none" stroke="green" cx="565" cy="-1298.59" rx="18" ry="18"/>
<ellipse fill="none" stroke="green" cx="565" cy="-1298.59" rx="22" ry="22"/>
<text text-anchor="middle" x="565" y="-1294.89" font-family="Times,serif" font-size="14.00">D</text>
</g>
<!-- q0 -->
<g id="node3" class="node"><title>q0</title>
<ellipse fill="none" stroke="green" cx="1414" cy="-1241.59" rx="18" ry="18"/>
<text text-anchor="middle" x="1414" y="-1237.89" font-family="Times,serif" font-size="14.00">D</text>
</g>
<!-- q1&#45;&gt;q0 -->
<g id="edge15" class="edge"><title>q1&#45;&gt;q0</title>
<path fill="none" stroke="green" d="M582.838,-1311.64C675.446,-1381.73 1127.67,-1702.58 1378,-1485.59 1409.82,-1458.01 1413.4,-1328.62 1413.36,-1270.27"/>
<polygon fill="green" stroke="green" points="1416.85,-1269.9 1413.31,-1259.91 1409.85,-1269.93 1416.85,-1269.9"/>
<text text-anchor="middle" x="1263" y="-1563.39" font-family="Times,serif" font-size="14.00">rt_OneStep</text>
</g>
<!-- q1&#45;&gt;q0 -->
<g id="edge16" class="edge"><title>q1&#45;&gt;q0</title>
<path fill="none" stroke="black" d="M586.005,-1305.68C659.589,-1331.31 922.667,-1419.21 1148,-1447.59 1198.71,-1453.98 1338.95,-1480.57 1378,-1447.59 1404.59,-1425.14 1410.98,-1320.64 1412.52,-1269.69"/>
<polygon fill="black" stroke="black" points="1416.02,-1269.76 1412.78,-1259.67 1409.02,-1269.58 1416.02,-1269.76"/>
<text text-anchor="middle" x="1263" y="-1467.39" font-family="Times,serif" font-size="14.00">DockingApproach_DockingApproach</text>
</g>
<!-- q1&#45;&gt;q0 -->
<g id="edge17" class="edge"><title>q1&#45;&gt;q0</title>
<path fill="none" stroke="black" d="M586.418,-1303.94C660.897,-1323.14 925.266,-1388.54 1148,-1409.59 1198.88,-1414.4 1338.34,-1441.84 1378,-1409.59 1399.31,-1392.27 1408.08,-1312.75 1411.32,-1269.62"/>
<polygon fill="black" stroke="black" points="1414.82,-1269.72 1412.03,-1259.5 1407.84,-1269.23 1414.82,-1269.72"/>
<text text-anchor="middle" x="1263" y="-1428.39" font-family="Times,serif" font-size="14.00">DockingAppro_InertialNavigation</text>
</g>
<!-- q1&#45;&gt;q0 -->
<g id="edge18" class="edge"><title>q1&#45;&gt;q0</title>
<path fill="none" stroke="black" d="M587.031,-1302.17C708.127,-1322.51 1313.33,-1421.15 1378,-1371.59 1394.14,-1359.22 1404.51,-1303.61 1409.5,-1269.26"/>
<polygon fill="black" stroke="black" points="1412.96,-1269.73 1410.87,-1259.35 1406.03,-1268.77 1412.96,-1269.73"/>
<text text-anchor="middle" x="1263" y="-1388.39" font-family="Times,serif" font-size="14.00">DockingAppro_MissionPhaseStates</text>
</g>
<!-- q1&#45;&gt;q0 -->
<g id="edge19" class="edge"><title>q1&#45;&gt;q0</title>
<path fill="none" stroke="green" d="M586.964,-1300.98C707.684,-1314.56 1311.13,-1379.7 1378,-1333.59 1398.58,-1319.4 1407.07,-1291.39 1410.56,-1269.99"/>
<polygon fill="green" stroke="green" points="1414.07,-1270.18 1411.94,-1259.8 1407.13,-1269.24 1414.07,-1270.18"/>
<text text-anchor="middle" x="1263" y="-1353.39" font-family="Times,serif" font-size="14.00">DockingApproachExample_Ext</text>
</g>
<!-- q1&#45;&gt;q0 -->
<g id="edge20" class="edge"><title>q1&#45;&gt;q0</title>
<path fill="none" stroke="black" d="M587.099,-1299.08C711.24,-1301.87 1342.31,-1315.08 1378,-1295.59 1389.15,-1289.51 1397.3,-1278.18 1402.91,-1267.46"/>
<polygon fill="black" stroke="black" points="1406.11,-1268.88 1407.21,-1258.35 1399.78,-1265.9 1406.11,-1268.88"/>
<text text-anchor="middle" x="1263" y="-1309.39" font-family="Times,serif" font-size="14.00">DockingAppr_OrbitalState_Active</text>
</g>
<!-- q1&#45;&gt;q0 -->
<g id="edge21" class="edge"><title>q1&#45;&gt;q0</title>
<path fill="none" stroke="black" d="M586.986,-1297.76C710.478,-1292.81 1338.45,-1267.26 1378,-1257.59 1381.48,-1256.74 1385.04,-1255.55 1388.49,-1254.19"/>
<polygon fill="black" stroke="black" points="1390.05,-1257.32 1397.77,-1250.07 1387.21,-1250.92 1390.05,-1257.32"/>
<text text-anchor="middle" x="1263" y="-1275.39" font-family="Times,serif" font-size="14.00">D_exit_internal_CaptureApproach</text>
</g>
<!-- q1&#45;&gt;q0 -->
<g id="edge22" class="edge"><title>q1&#45;&gt;q0</title>
<path fill="none" stroke="black" d="M586.819,-1295.66C662.138,-1285.23 927.615,-1249.92 1148,-1238.59 1250.09,-1233.35 1275.87,-1234.23 1378,-1238.59 1380.56,-1238.7 1383.22,-1238.86 1385.88,-1239.04"/>
<polygon fill="black" stroke="black" points="1385.68,-1242.53 1395.93,-1239.84 1386.24,-1235.56 1385.68,-1242.53"/>
<text text-anchor="middle" x="1263" y="-1242.39" font-family="Times,serif" font-size="14.00">D_exit_internal_DockingApproach</text>
</g>
<!-- q1&#45;&gt;q0 -->
<g id="edge23" class="edge"><title>q1&#45;&gt;q0</title>
<path fill="none" stroke="green" d="M586.765,-1294.54C661.898,-1280.12 926.822,-1231.29 1148,-1215.59 1249.97,-1208.36 1280.95,-1183.49 1378,-1215.59 1383.08,-1217.27 1388.02,-1220.01 1392.52,-1223.09"/>
<polygon fill="green" stroke="green" points="1390.46,-1225.92 1400.53,-1229.25 1394.73,-1220.38 1390.46,-1225.92"/>
<text text-anchor="middle" x="1263" y="-1219.39" font-family="Times,serif" font-size="14.00">DockingApproachExample_Ext_initialize</text>
</g>
<!-- q1&#45;&gt;q0 -->
<g id="edge24" class="edge"><title>q1&#45;&gt;q0</title>
<path fill="none" stroke="green" d="M586.388,-1292.86C660.765,-1272.28 924.827,-1202.18 1148,-1179.59 1249.7,-1169.3 1289.72,-1128.06 1378,-1179.59 1391.01,-1187.19 1399.57,-1201.62 1404.96,-1214.64"/>
<polygon fill="green" stroke="green" points="1401.74,-1216.02 1408.49,-1224.19 1408.31,-1213.6 1401.74,-1216.02"/>
<text text-anchor="middle" x="1263" y="-1183.39" font-family="Times,serif" font-size="14.00">DockingApproachExample_Ext_output</text>
</g>
<!-- q1&#45;&gt;q0 -->
<g id="edge25" class="edge"><title>q1&#45;&gt;q0</title>
<path fill="none" stroke="green" d="M585.679,-1290.9C658.658,-1262.82 921.306,-1165.92 1148,-1134.59 1198.63,-1127.6 1336.62,-1104.59 1378,-1134.59 1402.65,-1152.46 1410.26,-1188.19 1412.44,-1213.44"/>
<polygon fill="green" stroke="green" points="1408.95,-1213.77 1413.08,-1223.53 1415.94,-1213.33 1408.95,-1213.77"/>
<text text-anchor="middle" x="1263" y="-1138.39" font-family="Times,serif" font-size="14.00">DockingApproachExample_Ext_update</text>
</g>
<!-- q1&#45;&gt;q0 -->
<g id="edge26" class="edge"><title>q1&#45;&gt;q0</title>
<path fill="none" stroke="black" d="M585.484,-1289.27C657.783,-1255.23 918.36,-1137.77 1148,-1099.59 1198.42,-1091.21 1337.77,-1068.07 1378,-1099.59 1395.69,-1113.45 1405.65,-1176.05 1410.11,-1213.35"/>
<polygon fill="black" stroke="black" points="1406.67,-1214.04 1411.28,-1223.58 1413.62,-1213.25 1406.67,-1214.04"/>
<text text-anchor="middle" x="1263" y="-1103.39" font-family="Times,serif" font-size="14.00">enter_internal_OrbitalState_Act</text>
</g>
<!-- q1&#45;&gt;q0 -->
<g id="edge27" class="edge"><title>q1&#45;&gt;q0</title>
<path fill="none" stroke="green" d="M584.761,-1287.87C655.545,-1248.09 914.275,-1109 1148,-1063.59 1248.35,-1044.1 1299.05,-998.658 1378,-1063.59 1400.69,-1082.25 1408.9,-1168.24 1411.68,-1213.52"/>
<polygon fill="green" stroke="green" points="1408.19,-1213.78 1412.25,-1223.57 1415.18,-1213.39 1408.19,-1213.78"/>
<text text-anchor="middle" x="1263" y="-1067.39" font-family="Times,serif" font-size="14.00">Learn_Assert</text>
</g>
<!-- q0&#45;&gt;q0 -->
<g id="edge2" class="edge"><title>q0&#45;&gt;q0</title>
<path fill="none" stroke="green" d="M1411.83,-1259.75C1411.5,-1269.13 1412.22,-1277.59 1414,-1277.59 1415.09,-1277.59 1415.78,-1274.45 1416.08,-1269.87"/>
<polygon fill="green" stroke="green" points="1419.58,-1269.78 1416.17,-1259.75 1412.58,-1269.71 1419.58,-1269.78"/>
<text text-anchor="middle" x="1414" y="-1281.39" font-family="Times,serif" font-size="14.00">rt_OneStep</text>
</g>
<!-- q0&#45;&gt;q0 -->
<g id="edge3" class="edge"><title>q0&#45;&gt;q0</title>
<path fill="none" stroke="black" d="M1410.42,-1259.29C1408.45,-1276.59 1409.64,-1295.59 1414,-1295.59 1417.51,-1295.59 1418.96,-1283.29 1418.37,-1269.47"/>
<polygon fill="black" stroke="black" points="1421.84,-1268.99 1417.58,-1259.29 1414.87,-1269.54 1421.84,-1268.99"/>
<text text-anchor="middle" x="1414" y="-1299.39" font-family="Times,serif" font-size="14.00">DockingApproach_DockingApproach</text>
</g>
<!-- q0&#45;&gt;q0 -->
<g id="edge4" class="edge"><title>q0&#45;&gt;q0</title>
<path fill="none" stroke="black" d="M1409.51,-1259.31C1405.4,-1283.71 1406.9,-1313.59 1414,-1313.59 1420.16,-1313.59 1422.1,-1291.12 1419.83,-1269.24"/>
<polygon fill="black" stroke="black" points="1423.3,-1268.75 1418.49,-1259.31 1416.36,-1269.69 1423.3,-1268.75"/>
<text text-anchor="middle" x="1414" y="-1317.39" font-family="Times,serif" font-size="14.00">DockingAppro_InertialNavigation</text>
</g>
<!-- q0&#45;&gt;q0 -->
<g id="edge5" class="edge"><title>q0&#45;&gt;q0</title>
<path fill="none" stroke="black" d="M1408.88,-1259.26C1402.35,-1290.45 1404.06,-1331.59 1414,-1331.59 1422.89,-1331.59 1425.19,-1298.67 1420.91,-1269.4"/>
<polygon fill="black" stroke="black" points="1424.31,-1268.5 1419.12,-1259.26 1417.41,-1269.72 1424.31,-1268.5"/>
<text text-anchor="middle" x="1414" y="-1335.39" font-family="Times,serif" font-size="14.00">DockingAppro_MissionPhaseStates</text>
</g>
<!-- q0&#45;&gt;q0 -->
<g id="edge7" class="edge"><title>q0&#45;&gt;q0</title>
<path fill="none" stroke="black" d="M1408.5,-1258.87C1399.3,-1296.66 1401.14,-1349.59 1414,-1349.59 1425.76,-1349.59 1428.3,-1305.37 1421.63,-1268.91"/>
<polygon fill="black" stroke="black" points="1425,-1267.93 1419.5,-1258.87 1418.15,-1269.38 1425,-1267.93"/>
<text text-anchor="middle" x="1414" y="-1353.39" font-family="Times,serif" font-size="14.00">DockingAppr_OrbitalState_Active</text>
</g>
<!-- q0&#45;&gt;q0 -->
<g id="edge8" class="edge"><title>q0&#45;&gt;q0</title>
<path fill="none" stroke="black" d="M1408.17,-1258.77C1396.27,-1302.99 1398.21,-1367.59 1414,-1367.59 1428.64,-1367.59 1431.37,-1311.99 1422.19,-1268.65"/>
<polygon fill="black" stroke="black" points="1425.56,-1267.68 1419.83,-1258.77 1418.75,-1269.31 1425.56,-1267.68"/>
<text text-anchor="middle" x="1414" y="-1371.39" font-family="Times,serif" font-size="14.00">D_exit_internal_CaptureApproach</text>
</g>
<!-- q0&#45;&gt;q0 -->
<g id="edge9" class="edge"><title>q0&#45;&gt;q0</title>
<path fill="none" stroke="black" d="M1407.86,-1258.88C1393.25,-1309.45 1395.3,-1385.59 1414,-1385.59 1431.53,-1385.59 1434.43,-1318.67 1422.68,-1268.63"/>
<polygon fill="black" stroke="black" points="1426.05,-1267.67 1420.14,-1258.88 1419.27,-1269.44 1426.05,-1267.67"/>
<text text-anchor="middle" x="1414" y="-1389.39" font-family="Times,serif" font-size="14.00">D_exit_internal_DockingApproach</text>
</g>
<!-- q0&#45;&gt;q0 -->
<g id="edge10" class="edge"><title>q0&#45;&gt;q0</title>
<path fill="none" stroke="green" d="M1407.66,-1258.81C1390.23,-1315.66 1392.34,-1403.59 1414,-1403.59 1434.43,-1403.59 1437.47,-1325.34 1423.12,-1268.75"/>
<polygon fill="green" stroke="green" points="1426.4,-1267.5 1420.34,-1258.81 1419.66,-1269.38 1426.4,-1267.5"/>
<text text-anchor="middle" x="1414" y="-1407.39" font-family="Times,serif" font-size="14.00">DockingApproachExample_Ext_initialize</text>
</g>
<!-- q0&#45;&gt;q0 -->
<g id="edge11" class="edge"><title>q0&#45;&gt;q0</title>
<path fill="none" stroke="green" d="M1407.51,-1258.68C1387.21,-1321.76 1389.37,-1421.59 1414,-1421.59 1437.38,-1421.59 1440.51,-1331.64 1423.41,-1268.56"/>
<polygon fill="green" stroke="green" points="1426.68,-1267.28 1420.49,-1258.68 1419.97,-1269.26 1426.68,-1267.28"/>
<text text-anchor="middle" x="1414" y="-1425.39" font-family="Times,serif" font-size="14.00">DockingApproachExample_Ext_output</text>
</g>
<!-- q0&#45;&gt;q0 -->
<g id="edge12" class="edge"><title>q0&#45;&gt;q0</title>
<path fill="none" stroke="green" d="M1407.37,-1258.62C1384.19,-1327.89 1386.4,-1439.59 1414,-1439.59 1440.36,-1439.59 1443.56,-1337.7 1423.6,-1268.2"/>
<polygon fill="green" stroke="green" points="1426.93,-1267.13 1420.63,-1258.62 1420.25,-1269.21 1426.93,-1267.13"/>
<text text-anchor="middle" x="1414" y="-1443.39" font-family="Times,serif" font-size="14.00">DockingApproachExample_Ext_update</text>
</g>
<!-- q0&#45;&gt;q0 -->
<g id="edge13" class="edge"><title>q0&#45;&gt;q0</title>
<path fill="none" stroke="black" d="M1407.2,-1258.73C1381.18,-1334.18 1383.45,-1457.59 1414,-1457.59 1443.24,-1457.59 1446.57,-1344.55 1424,-1268.7"/>
<polygon fill="black" stroke="black" points="1427.19,-1267.18 1420.8,-1258.73 1420.52,-1269.32 1427.19,-1267.18"/>
<text text-anchor="middle" x="1414" y="-1461.39" font-family="Times,serif" font-size="14.00">enter_internal_OrbitalState_Act</text>
</g>
<!-- q0&#45;&gt;q0 -->
<g id="edge14" class="edge"><title>q0&#45;&gt;q0</title>
<path fill="none" stroke="green" d="M1407.21,-1258.35C1378.16,-1339.91 1380.43,-1475.59 1414,-1475.59 1446.26,-1475.59 1449.61,-1350.3 1424.05,-1268.15"/>
<polygon fill="green" stroke="green" points="1427.27,-1266.73 1420.79,-1258.35 1420.63,-1268.95 1427.27,-1266.73"/>
<text text-anchor="middle" x="1414" y="-1479.39" font-family="Times,serif" font-size="14.00">Learn_Assert</text>
</g>
<!-- q6 -->
<g id="node8" class="node"><title>q6</title>
<ellipse fill="none" stroke="green" cx="1801" cy="-293.594" rx="18" ry="18"/>
<text text-anchor="middle" x="1801" y="-289.894" font-family="Times,serif" font-size="14.00">D</text>
</g>
<!-- q0&#45;&gt;q6 -->
<g id="edge6" class="edge"><title>q0&#45;&gt;q6</title>
<path fill="none" stroke="green" d="M1415.2,-1223.35C1416.5,-1112.26 1424.52,-530.587 1450,-503.594 1483.44,-468.169 1631.33,-512.665 1668,-480.594 1693.48,-458.31 1669.35,-436.065 1686,-406.594 1709.15,-365.612 1751.38,-329.517 1777.43,-309.701"/>
<polygon fill="green" stroke="green" points="1779.67,-312.402 1785.6,-303.622 1775.49,-306.787 1779.67,-312.402"/>
<text text-anchor="middle" x="1559" y="-507.394" font-family="Times,serif" font-size="14.00">DockingApproachExample_Ext</text>
</g>
<!-- q2 -->
<g id="node4" class="node"><title>q2</title>
<ellipse fill="none" stroke="green" cx="3274" cy="-2309.59" rx="18" ry="18"/>
<text text-anchor="middle" x="3274" y="-2305.89" font-family="Times,serif" font-size="14.00">D</text>
</g>
<!-- q2&#45;&gt;q1 -->
<g id="edge40" class="edge"><title>q2&#45;&gt;q1</title>
<path fill="none" stroke="green" d="M3272.76,-2327.87C3271.74,-2375.32 3266.35,-2500.73 3238,-2528.59 3157,-2608.21 3098.58,-2564.59 2985,-2564.59 1413,-2564.59 1413,-2564.59 1413,-2564.59 799.858,-2564.59 602.574,-1526.1 570.818,-1330.24"/>
<polygon fill="green" stroke="green" points="574.264,-1329.63 569.232,-1320.3 567.351,-1330.73 574.264,-1329.63"/>
<text text-anchor="middle" x="2297" y="-2568.39" font-family="Times,serif" font-size="14.00">Learn_Assert</text>
</g>
<!-- q2&#45;&gt;q0 -->
<g id="edge28" class="edge"><title>q2&#45;&gt;q0</title>
<path fill="none" stroke="green" d="M3272.26,-2327.53C3270.12,-2369.52 3262.46,-2472.3 3238,-2494.59 3154.53,-2570.69 3097.95,-2518.59 2985,-2518.59 1800,-2518.59 1800,-2518.59 1800,-2518.59 1722.04,-2518.59 1504,-2550.83 1450,-2494.59 1428.07,-2471.76 1417.09,-1454.75 1415.27,-1270.17"/>
<polygon fill="green" stroke="green" points="1418.77,-1269.88 1415.17,-1259.91 1411.77,-1269.95 1418.77,-1269.88"/>
<text text-anchor="middle" x="2545" y="-2522.39" font-family="Times,serif" font-size="14.00">rt_OneStep</text>
</g>
<!-- q2&#45;&gt;q0 -->
<g id="edge29" class="edge"><title>q2&#45;&gt;q0</title>
<path fill="none" stroke="black" d="M3271.3,-2327.52C3267.56,-2362.91 3257.35,-2439.77 3238,-2456.59 3195.39,-2493.65 3041.47,-2480.59 2985,-2480.59 1800,-2480.59 1800,-2480.59 1800,-2480.59 1722.04,-2480.59 1504.02,-2512.8 1450,-2456.59 1428.75,-2434.49 1417.23,-1450.36 1415.29,-1269.87"/>
<polygon fill="black" stroke="black" points="1418.79,-1269.79 1415.19,-1259.83 1411.79,-1269.87 1418.79,-1269.79"/>
<text text-anchor="middle" x="2545" y="-2484.39" font-family="Times,serif" font-size="14.00">DockingApproach_DockingApproach</text>
</g>
<!-- q2&#45;&gt;q0 -->
<g id="edge30" class="edge"><title>q2&#45;&gt;q0</title>
<path fill="none" stroke="black" d="M3272.91,-2327.61C3271.72,-2352.39 3265.57,-2396.42 3238,-2418.59 3193.99,-2453.99 3041.47,-2442.59 2985,-2442.59 1800,-2442.59 1800,-2442.59 1800,-2442.59 1722.04,-2442.59 1504.05,-2474.78 1450,-2418.59 1429.44,-2397.22 1417.39,-1446.79 1415.32,-1269.81"/>
<polygon fill="black" stroke="black" points="1418.82,-1269.68 1415.2,-1259.72 1411.82,-1269.76 1418.82,-1269.68"/>
<text text-anchor="middle" x="2545" y="-2446.39" font-family="Times,serif" font-size="14.00">DockingAppro_InertialNavigation</text>
</g>
<!-- q2&#45;&gt;q0 -->
<g id="edge31" class="edge"><title>q2&#45;&gt;q0</title>
<path fill="none" stroke="black" d="M3269.48,-2327.11C3265.13,-2343.81 3255.99,-2368.19 3238,-2380.59 3145.01,-2444.71 3097.95,-2404.59 2985,-2404.59 1800,-2404.59 1800,-2404.59 1800,-2404.59 1722.04,-2404.59 1504.08,-2436.75 1450,-2380.59 1410.28,-2339.35 1413.78,-1441.01 1414.81,-1269.68"/>
<polygon fill="black" stroke="black" points="1418.31,-1269.7 1414.87,-1259.68 1411.31,-1269.66 1418.31,-1269.7"/>
<text text-anchor="middle" x="2545" y="-2408.39" font-family="Times,serif" font-size="14.00">DockingAppro_MissionPhaseStates</text>
</g>
<!-- q2&#45;&gt;q0 -->
<g id="edge32" class="edge"><title>q2&#45;&gt;q0</title>
<path fill="none" stroke="green" d="M3262.2,-2323.46C3255.94,-2330.45 3247.43,-2338.32 3238,-2342.59 3135.11,-2389.19 3097.95,-2366.59 2985,-2366.59 1800,-2366.59 1800,-2366.59 1800,-2366.59 1722.04,-2366.59 1504.11,-2398.72 1450,-2342.59 1411.69,-2302.85 1414.02,-1438.89 1414.84,-1270.06"/>
<polygon fill="green" stroke="green" points="1418.34,-1269.98 1414.89,-1259.96 1411.34,-1269.94 1418.34,-1269.98"/>
<text text-anchor="middle" x="2545" y="-2370.39" font-family="Times,serif" font-size="14.00">DockingApproachExample_Ext</text>
</g>
<!-- q2&#45;&gt;q0 -->
<g id="edge33" class="edge"><title>q2&#45;&gt;q0</title>
<path fill="none" stroke="black" d="M3255.82,-2311.52C3211.21,-2316.35 3087.97,-2328.59 2985,-2328.59 1800,-2328.59 1800,-2328.59 1800,-2328.59 1722.04,-2328.59 1504.14,-2360.69 1450,-2304.59 1413.06,-2266.32 1414.26,-1435.52 1414.87,-1270.09"/>
<polygon fill="black" stroke="black" points="1418.37,-1269.77 1414.91,-1259.76 1411.37,-1269.75 1418.37,-1269.77"/>
<text text-anchor="middle" x="2545" y="-2332.39" font-family="Times,serif" font-size="14.00">DockingAppr_OrbitalState_Active</text>
</g>
<!-- q2&#45;&gt;q0 -->
<g id="edge34" class="edge"><title>q2&#45;&gt;q0</title>
<path fill="none" stroke="black" d="M3255.82,-2307.67C3211.21,-2302.84 3087.97,-2290.59 2985,-2290.59 1800,-2290.59 1800,-2290.59 1800,-2290.59 1722.04,-2290.59 1504.17,-2322.66 1450,-2266.59 1414.43,-2229.79 1414.52,-1431.98 1414.91,-1270.1"/>
<polygon fill="black" stroke="black" points="1418.41,-1269.97 1414.94,-1259.96 1411.41,-1269.95 1418.41,-1269.97"/>
<text text-anchor="middle" x="2545" y="-2294.39" font-family="Times,serif" font-size="14.00">D_exit_internal_CaptureApproach</text>
</g>
<!-- q2&#45;&gt;q0 -->
<g id="edge35" class="edge"><title>q2&#45;&gt;q0</title>
<path fill="none" stroke="black" d="M3259.48,-2298.65C3253.28,-2294.2 3245.63,-2289.44 3238,-2286.59 3131.72,-2246.89 3098.46,-2252.59 2985,-2252.59 1800,-2252.59 1800,-2252.59 1800,-2252.59 1722.04,-2252.59 1504.21,-2284.62 1450,-2228.59 1415.8,-2193.24 1414.79,-1428.09 1414.95,-1270.01"/>
<polygon fill="black" stroke="black" points="1418.45,-1269.7 1414.96,-1259.7 1411.45,-1269.69 1418.45,-1269.7"/>
<text text-anchor="middle" x="2545" y="-2256.39" font-family="Times,serif" font-size="14.00">D_exit_internal_DockingApproach</text>
</g>
<!-- q2&#45;&gt;q0 -->
<g id="edge36" class="edge"><title>q2&#45;&gt;q0</title>
<path fill="none" stroke="green" d="M3268.08,-2292.41C3263,-2277.99 3253.58,-2258.1 3238,-2247.59 3143.98,-2184.19 3098.4,-2214.59 2985,-2214.59 1800,-2214.59 1800,-2214.59 1800,-2214.59 1722.04,-2214.59 1504.25,-2246.58 1450,-2190.59 1417.16,-2156.7 1415.07,-1424.04 1414.99,-1269.9"/>
<polygon fill="green" stroke="green" points="1418.49,-1269.82 1414.99,-1259.82 1411.49,-1269.82 1418.49,-1269.82"/>
<text text-anchor="middle" x="2545" y="-2218.39" font-family="Times,serif" font-size="14.00">DockingApproachExample_Ext_initialize</text>
</g>
<!-- q2&#45;&gt;q0 -->
<g id="edge37" class="edge"><title>q2&#45;&gt;q0</title>
<path fill="none" stroke="green" d="M3272.75,-2291.52C3271.35,-2267.15 3264.93,-2224.31 3238,-2202.59 3150,-2131.65 3098.04,-2176.59 2985,-2176.59 1800,-2176.59 1800,-2176.59 1800,-2176.59 1722.04,-2176.59 1504.29,-2208.54 1450,-2152.59 1418.55,-2120.18 1415.36,-1421.14 1415.04,-1270.17"/>
<polygon fill="green" stroke="green" points="1418.54,-1269.88 1415.02,-1259.89 1411.54,-1269.89 1418.54,-1269.88"/>
<text text-anchor="middle" x="2545" y="-2180.39" font-family="Times,serif" font-size="14.00">DockingApproachExample_Ext_output</text>
</g>
<!-- q2&#45;&gt;q0 -->
<g id="edge38" class="edge"><title>q2&#45;&gt;q0</title>
<path fill="none" stroke="green" d="M3271.48,-2291.59C3268,-2255.21 3258.18,-2174.93 3238,-2157.59 3152.47,-2084.12 3097.76,-2138.59 2985,-2138.59 1800,-2138.59 1800,-2138.59 1800,-2138.59 1722.04,-2138.59 1504.34,-2170.5 1450,-2114.59 1419.9,-2083.62 1415.65,-1416.51 1415.08,-1269.91"/>
<polygon fill="green" stroke="green" points="1418.58,-1269.89 1415.05,-1259.9 1411.58,-1269.92 1418.58,-1269.89"/>
<text text-anchor="middle" x="2545" y="-2142.39" font-family="Times,serif" font-size="14.00">DockingApproachExample_Ext_update</text>
</g>
<!-- q2&#45;&gt;q0 -->
<g id="edge39" class="edge"><title>q2&#45;&gt;q0</title>
<path fill="none" stroke="black" d="M3272.51,-2291.6C3270.9,-2247.86 3264.28,-2137.84 3238,-2114.59 3195.82,-2077.29 3041.31,-2100.59 2985,-2100.59 1800,-2100.59 1800,-2100.59 1800,-2100.59 1721.83,-2100.59 1503.67,-2122.42 1450,-2065.59 1422.09,-2036.04 1416.16,-1410.55 1415.17,-1269.63"/>
<polygon fill="black" stroke="black" points="1418.67,-1269.59 1415.1,-1259.62 1411.67,-1269.64 1418.67,-1269.59"/>
<text text-anchor="middle" x="2545" y="-2104.39" font-family="Times,serif" font-size="14.00">enter_internal_OrbitalState_Act</text>
</g>
<!-- q3 -->
<g id="node5" class="node"><title>q3</title>
<ellipse fill="none" stroke="green" cx="2984" cy="-1777.59" rx="18" ry="18"/>
<text text-anchor="middle" x="2984" y="-1773.89" font-family="Times,serif" font-size="14.00">D</text>
</g>
<!-- q3&#45;&gt;q0 -->
<g id="edge41" class="edge"><title>q3&#45;&gt;q0</title>
<path fill="none" stroke="green" d="M2983.07,-1795.6C2982.89,-1846.37 2979.52,-1988.97 2948,-2020.59 2868.4,-2100.46 2809.76,-2057.59 2697,-2057.59 1800,-2057.59 1800,-2057.59 1800,-2057.59 1643.58,-2057.59 1557.22,-2134.49 1450,-2020.59 1423.77,-1992.73 1416.57,-1406.29 1415.25,-1269.8"/>
<polygon fill="green" stroke="green" points="1418.75,-1269.69 1415.15,-1259.73 1411.75,-1269.76 1418.75,-1269.69"/>
<text text-anchor="middle" x="2297" y="-2061.39" font-family="Times,serif" font-size="14.00">rt_OneStep</text>
</g>
<!-- q3&#45;&gt;q0 -->
<g id="edge42" class="edge"><title>q3&#45;&gt;q0</title>
<path fill="none" stroke="black" d="M2982.3,-1795.8C2980.25,-1838.97 2972.73,-1945.69 2948,-1969.59 2866.92,-2047.96 2809.76,-2006.59 2697,-2006.59 1800,-2006.59 1800,-2006.59 1800,-2006.59 1721.79,-2006.59 1503.7,-2026.46 1450,-1969.59 1425.55,-1943.7 1417.03,-1400.14 1415.34,-1269.6"/>
<polygon fill="black" stroke="black" points="1418.84,-1269.54 1415.21,-1259.59 1411.84,-1269.63 1418.84,-1269.54"/>
<text text-anchor="middle" x="2297" y="-2010.39" font-family="Times,serif" font-size="14.00">DockingApproach_DockingApproach</text>
</g>
<!-- q3&#45;&gt;q0 -->
<g id="edge43" class="edge"><title>q3&#45;&gt;q0</title>
<path fill="none" stroke="black" d="M2981.02,-1795.51C2976.88,-1829.66 2966.12,-1902.15 2948,-1918.59 2864.5,-1994.37 2809.76,-1955.59 2697,-1955.59 1800,-1955.59 1800,-1955.59 1800,-1955.59 1721.79,-1955.59 1503.8,-1975.36 1450,-1918.59 1427.36,-1894.7 1417.56,-1395.42 1415.45,-1269.99"/>
<polygon fill="black" stroke="black" points="1418.94,-1269.62 1415.28,-1259.67 1411.94,-1269.73 1418.94,-1269.62"/>
<text text-anchor="middle" x="2297" y="-1959.39" font-family="Times,serif" font-size="14.00">DockingAppro_InertialNavigation</text>
</g>
<!-- q3&#45;&gt;q0 -->
<g id="edge44" class="edge"><title>q3&#45;&gt;q0</title>
<path fill="none" stroke="black" d="M2981.3,-1795.59C2978.31,-1816.37 2970.15,-1849.93 2948,-1867.59 2859.84,-1937.89 2809.76,-1904.59 2697,-1904.59 1800,-1904.59 1800,-1904.59 1800,-1904.59 1721.79,-1904.59 1503.92,-1924.25 1450,-1867.59 1429.12,-1845.66 1418.09,-1388.76 1415.57,-1269.74"/>
<polygon fill="black" stroke="black" points="1419.06,-1269.53 1415.36,-1259.6 1412.07,-1269.67 1419.06,-1269.53"/>
<text text-anchor="middle" x="2297" y="-1908.39" font-family="Times,serif" font-size="14.00">DockingAppro_MissionPhaseStates</text>
</g>
<!-- q3&#45;&gt;q0 -->
<g id="edge45" class="edge"><title>q3&#45;&gt;q0</title>
<path fill="none" stroke="green" d="M2973.48,-1792.57C2967.28,-1801.03 2958.42,-1811 2948,-1816.59 2848.66,-1869.95 2809.76,-1853.59 2697,-1853.59 1800,-1853.59 1800,-1853.59 1800,-1853.59 1721.79,-1853.59 1504.06,-1873.12 1450,-1816.59 1411.95,-1776.81 1413.46,-1380.16 1414.63,-1269.9"/>
<polygon fill="green" stroke="green" points="1418.13,-1269.9 1414.74,-1259.86 1411.13,-1269.82 1418.13,-1269.9"/>
<text text-anchor="middle" x="2297" y="-1857.39" font-family="Times,serif" font-size="14.00">DockingApproachExample_Ext</text>
</g>
<!-- q3&#45;&gt;q0 -->
<g id="edge46" class="edge"><title>q3&#45;&gt;q0</title>
<path fill="none" stroke="black" d="M2965.96,-1780.13C2921.7,-1786.48 2799.43,-1802.59 2697,-1802.59 1800,-1802.59 1800,-1802.59 1800,-1802.59 1721.79,-1802.59 1504.23,-1821.96 1450,-1765.59 1415.47,-1729.7 1414.39,-1373.3 1414.81,-1269.7"/>
<polygon fill="black" stroke="black" points="1418.31,-1269.69 1414.86,-1259.67 1411.31,-1269.66 1418.31,-1269.69"/>
<text text-anchor="middle" x="2297" y="-1806.39" font-family="Times,serif" font-size="14.00">DockingAppr_OrbitalState_Active</text>
</g>
<!-- q3&#45;&gt;q0 -->
<g id="edge47" class="edge"><title>q3&#45;&gt;q0</title>
<path fill="none" stroke="black" d="M2965.96,-1774.96C2921.72,-1768.35 2799.46,-1751.59 2697,-1751.59 1800,-1751.59 1800,-1751.59 1800,-1751.59 1721.79,-1751.59 1504.43,-1770.76 1450,-1714.59 1419.03,-1682.64 1415.41,-1367.39 1415.03,-1270.06"/>
<polygon fill="black" stroke="black" points="1418.53,-1269.8 1415,-1259.81 1411.53,-1269.82 1418.53,-1269.8"/>
<text text-anchor="middle" x="2297" y="-1755.39" font-family="Times,serif" font-size="14.00">D_exit_internal_CaptureApproach</text>
</g>
<!-- q3&#45;&gt;q0 -->
<g id="edge48" class="edge"><title>q3&#45;&gt;q0</title>
<path fill="none" stroke="black" d="M2971.19,-1764.7C2964.89,-1758.6 2956.66,-1751.74 2948,-1747.59 2845.65,-1698.55 2810.49,-1700.59 2697,-1700.59 1800,-1700.59 1800,-1700.59 1800,-1700.59 1721.79,-1700.59 1504.68,-1719.52 1450,-1663.59 1422.53,-1635.49 1416.53,-1359.91 1415.3,-1269.89"/>
<polygon fill="black" stroke="black" points="1418.8,-1269.57 1415.17,-1259.62 1411.8,-1269.66 1418.8,-1269.57"/>
<text text-anchor="middle" x="2297" y="-1704.39" font-family="Times,serif" font-size="14.00">D_exit_internal_DockingApproach</text>
</g>
<!-- q3&#45;&gt;q0 -->
<g id="edge49" class="edge"><title>q3&#45;&gt;q0</title>
<path fill="none" stroke="green" d="M2980.29,-1759.8C2976.47,-1741.11 2967.63,-1712.27 2948,-1696.59 2859.32,-1625.76 2810.49,-1649.59 2697,-1649.59 1800,-1649.59 1800,-1649.59 1800,-1649.59 1721.79,-1649.59 1504.99,-1668.21 1450,-1612.59 1426,-1588.32 1417.79,-1351.97 1415.64,-1269.68"/>
<polygon fill="green" stroke="green" points="1419.14,-1269.46 1415.39,-1259.56 1412.14,-1269.64 1419.14,-1269.46"/>
<text text-anchor="middle" x="2297" y="-1653.39" font-family="Times,serif" font-size="14.00">DockingApproachExample_Ext_initialize</text>
</g>
<!-- q3&#45;&gt;q0 -->
<g id="edge50" class="edge"><title>q3&#45;&gt;q0</title>
<path fill="none" stroke="green" d="M2980.83,-1759.83C2976.41,-1726.74 2965.31,-1657.53 2948,-1641.59 2864.75,-1564.92 2810.18,-1598.59 2697,-1598.59 1800,-1598.59 1800,-1598.59 1800,-1598.59 1721.79,-1598.59 1505.4,-1616.8 1450,-1561.59 1429.48,-1541.15 1419.24,-1343.98 1416.09,-1269.71"/>
<polygon fill="green" stroke="green" points="1419.59,-1269.52 1415.68,-1259.67 1412.59,-1269.81 1419.59,-1269.52"/>
<text text-anchor="middle" x="2297" y="-1602.39" font-family="Times,serif" font-size="14.00">DockingApproachExample_Ext_output</text>
</g>
<!-- q3&#45;&gt;q0 -->
<g id="edge52" class="edge"><title>q3&#45;&gt;q0</title>
<path fill="none" stroke="black" d="M2982.27,-1759.49C2980.16,-1716.58 2972.52,-1610.46 2948,-1586.59 2867.1,-1507.85 2809.89,-1547.59 2697,-1547.59 1800,-1547.59 1800,-1547.59 1800,-1547.59 1721.79,-1547.59 1505.96,-1565.23 1450,-1510.59 1416.3,-1477.7 1413.89,-1332.03 1414.45,-1269.86"/>
<polygon fill="black" stroke="black" points="1417.96,-1269.65 1414.58,-1259.61 1410.96,-1269.57 1417.96,-1269.65"/>
<text text-anchor="middle" x="2297" y="-1551.39" font-family="Times,serif" font-size="14.00">enter_internal_OrbitalState_Act</text>
</g>
<!-- q3&#45;&gt;q0 -->
<g id="edge53" class="edge"><title>q3&#45;&gt;q0</title>
<path fill="none" stroke="green" d="M2983.1,-1759.43C2983,-1708.24 2979.82,-1564.43 2948,-1532.59 2868.33,-1452.88 2809.7,-1496.59 2697,-1496.59 1800,-1496.59 1800,-1496.59 1800,-1496.59 1721.69,-1496.59 1506.62,-1509.69 1450,-1455.59 1423.83,-1430.59 1417.23,-1322.38 1415.56,-1270.09"/>
<polygon fill="green" stroke="green" points="1419.05,-1269.73 1415.28,-1259.83 1412.06,-1269.92 1419.05,-1269.73"/>
<text text-anchor="middle" x="2297" y="-1500.39" font-family="Times,serif" font-size="14.00">Learn_Assert</text>
</g>
<!-- q3&#45;&gt;q2 -->
<g id="edge51" class="edge"><title>q3&#45;&gt;q2</title>
<path fill="none" stroke="green" d="M2998.67,-1788.4C3042.21,-1823.68 3178.29,-1940.81 3238,-2071.59 3270.12,-2141.94 3274.08,-2235.03 3273.82,-2281.16"/>
<polygon fill="green" stroke="green" points="3270.32,-2281.27 3273.69,-2291.32 3277.32,-2281.36 3270.32,-2281.27"/>
<text text-anchor="middle" x="3129" y="-2075.39" font-family="Times,serif" font-size="14.00">DockingApproachExample_Ext_update</text>
</g>
<!-- q4 -->
<g id="node6" class="node"><title>q4</title>
<ellipse fill="none" stroke="green" cx="2696" cy="-1241.59" rx="18" ry="18"/>
<text text-anchor="middle" x="2696" y="-1237.89" font-family="Times,serif" font-size="14.00">D</text>
</g>
<!-- q4&#45;&gt;q0 -->
<g id="edge54" class="edge"><title>q4&#45;&gt;q0</title>
<path fill="none" stroke="green" d="M2694.39,-1259.68C2692.53,-1301.99 2685.44,-1405.43 2660,-1426.59 2535.98,-1529.78 2095.33,-1428.93 1934,-1428.59 1826.44,-1428.37 1532.68,-1495.39 1450,-1426.59 1426.4,-1406.96 1418.59,-1316.51 1416.1,-1269.76"/>
<polygon fill="green" stroke="green" points="1419.59,-1269.5 1415.61,-1259.68 1412.6,-1269.84 1419.59,-1269.5"/>
<text text-anchor="middle" x="2049" y="-1453.39" font-family="Times,serif" font-size="14.00">rt_OneStep</text>
</g>
<!-- q4&#45;&gt;q0 -->
<g id="edge55" class="edge"><title>q4&#45;&gt;q0</title>
<path fill="none" stroke="black" d="M2693.43,-1259.67C2689.91,-1295.33 2680.09,-1372.66 2660,-1388.59 2596.8,-1438.72 2014.67,-1390.76 1934,-1390.59 1826.44,-1390.37 1534.27,-1455.44 1450,-1388.59 1431.64,-1374.03 1421.86,-1308.17 1417.62,-1269.72"/>
<polygon fill="black" stroke="black" points="1421.09,-1269.26 1416.57,-1259.67 1414.13,-1269.98 1421.09,-1269.26"/>
<text text-anchor="middle" x="2049" y="-1405.39" font-family="Times,serif" font-size="14.00">DockingApproach_DockingApproach</text>
</g>
<!-- q4&#45;&gt;q0 -->
<g id="edge56" class="edge"><title>q4&#45;&gt;q0</title>
<path fill="none" stroke="black" d="M2695.18,-1259.96C2694.31,-1285.16 2688.54,-1329.69 2660,-1350.59 2594.92,-1398.25 2014.67,-1352.76 1934,-1352.59 1826.44,-1352.37 1536.77,-1414.14 1450,-1350.59 1425.03,-1332.3 1417.48,-1295.92 1415.41,-1270.23"/>
<polygon fill="black" stroke="black" points="1418.89,-1269.75 1414.82,-1259.96 1411.9,-1270.15 1418.89,-1269.75"/>
<text text-anchor="middle" x="2049" y="-1367.39" font-family="Times,serif" font-size="14.00">DockingAppro_InertialNavigation</text>
</g>
<!-- q4&#45;&gt;q0 -->
<g id="edge57" class="edge"><title>q4&#45;&gt;q0</title>
<path fill="none" stroke="black" d="M2691.79,-1259.14C2687.66,-1276.12 2678.65,-1300.94 2660,-1312.59 2591.59,-1355.33 2014.67,-1314.76 1934,-1314.59 1826.44,-1314.37 1541.22,-1369.59 1450,-1312.59 1434.7,-1303.04 1425.89,-1284.62 1420.94,-1268.93"/>
<polygon fill="black" stroke="black" points="1424.26,-1267.84 1418.21,-1259.14 1417.52,-1269.72 1424.26,-1267.84"/>
<text text-anchor="middle" x="2049" y="-1327.39" font-family="Times,serif" font-size="14.00">DockingAppro_MissionPhaseStates</text>
</g>
<!-- q4&#45;&gt;q0 -->
<g id="edge58" class="edge"><title>q4&#45;&gt;q0</title>
<path fill="none" stroke="green" d="M2684.35,-1255.8C2678.13,-1262.89 2669.62,-1270.75 2660,-1274.59 2510.18,-1334.44 2095.33,-1276.93 1934,-1276.59 1718.89,-1276.15 1649.76,-1354.4 1450,-1274.59 1443.69,-1272.07 1437.85,-1267.82 1432.83,-1263.19"/>
<polygon fill="green" stroke="green" points="1435.13,-1260.54 1425.65,-1255.8 1430.11,-1265.41 1435.13,-1260.54"/>
<text text-anchor="middle" x="2049" y="-1292.39" font-family="Times,serif" font-size="14.00">DockingApproachExample_Ext</text>
</g>
<!-- q4&#45;&gt;q0 -->
<g id="edge59" class="edge"><title>q4&#45;&gt;q0</title>
<path fill="none" stroke="black" d="M2677.93,-1241.59C2540.42,-1241.59 1613.96,-1241.59 1442.32,-1241.59"/>
<polygon fill="black" stroke="black" points="1442.13,-1238.09 1432.13,-1241.59 1442.13,-1245.09 1442.13,-1238.09"/>
<text text-anchor="middle" x="2049" y="-1245.39" font-family="Times,serif" font-size="14.00">DockingAppr_OrbitalState_Active</text>
</g>
<!-- q4&#45;&gt;q0 -->
<g id="edge60" class="edge"><title>q4&#45;&gt;q0</title>
<path fill="none" stroke="black" d="M2677.94,-1239.35C2672.24,-1238.68 2665.86,-1238.02 2660,-1237.59 2338.1,-1214.37 2256.7,-1217.59 1934,-1222.59 1718.81,-1225.93 1664.65,-1222.03 1450,-1237.59 1447.44,-1237.78 1444.77,-1238.01 1442.11,-1238.27"/>
<polygon fill="black" stroke="black" points="1441.63,-1234.8 1432.06,-1239.36 1442.38,-1241.76 1441.63,-1234.8"/>
<text text-anchor="middle" x="2049" y="-1226.39" font-family="Times,serif" font-size="14.00">D_exit_internal_CaptureApproach</text>
</g>
<!-- q4&#45;&gt;q0 -->
<g id="edge61" class="edge"><title>q4&#45;&gt;q0</title>
<path fill="none" stroke="black" d="M2681.52,-1230.8C2675.34,-1226.48 2667.68,-1221.98 2660,-1219.59 2351.7,-1123.98 2256.71,-1192.26 1934,-1199.59 1718.72,-1204.48 1656.81,-1161.61 1450,-1221.59 1446.03,-1222.75 1442.03,-1224.43 1438.22,-1226.34"/>
<polygon fill="black" stroke="black" points="1436.28,-1223.42 1429.29,-1231.38 1439.72,-1229.52 1436.28,-1223.42"/>
<text text-anchor="middle" x="2049" y="-1203.39" font-family="Times,serif" font-size="14.00">D_exit_internal_DockingApproach</text>
</g>
<!-- q4&#45;&gt;q0 -->
<g id="edge62" class="edge"><title>q4&#45;&gt;q0</title>
<path fill="none" stroke="green" d="M2692.07,-1223.69C2688.14,-1206.03 2679.26,-1179.95 2660,-1167.59 2567.23,-1108.06 2522.23,-1165.26 2412,-1164.59 2198.18,-1163.3 1634.41,-1076.37 1450,-1184.59 1438.34,-1191.44 1430.05,-1203.84 1424.47,-1215.34"/>
<polygon fill="green" stroke="green" points="1421.21,-1214.07 1420.41,-1224.63 1427.62,-1216.87 1421.21,-1214.07"/>
<text text-anchor="middle" x="2049" y="-1152.39" font-family="Times,serif" font-size="14.00">DockingApproachExample_Ext_initialize</text>
</g>
<!-- q4&#45;&gt;q0 -->
<g id="edge64" class="edge"><title>q4&#45;&gt;q0</title>
<path fill="none" stroke="green" d="M2694.88,-1223.45C2693.62,-1199.03 2687.37,-1156.27 2660,-1135.59 2571.98,-1069.08 2274.3,-1116.93 2164,-1114.59 2084.67,-1112.92 1513.2,-1081.61 1450,-1129.59 1424.48,-1148.98 1417.1,-1186.83 1415.21,-1213.14"/>
<polygon fill="green" stroke="green" points="1411.71,-1213.12 1414.71,-1223.28 1418.7,-1213.46 1411.71,-1213.12"/>
<text text-anchor="middle" x="2049" y="-1118.39" font-family="Times,serif" font-size="14.00">DockingApproachExample_Ext_update</text>
</g>
<!-- q4&#45;&gt;q0 -->
<g id="edge65" class="edge"><title>q4&#45;&gt;q0</title>
<path fill="none" stroke="black" d="M2693.39,-1223.66C2689.8,-1188.28 2679.86,-1111.55 2660,-1095.59 2534.22,-994.54 2095.33,-1084.43 1934,-1086.59 1826.42,-1088.04 1533.8,-1032.11 1450,-1099.59 1432.5,-1113.69 1422.46,-1176.19 1417.94,-1213.41"/>
<polygon fill="black" stroke="black" points="1414.43,-1213.29 1416.76,-1223.63 1421.38,-1214.1 1414.43,-1213.29"/>
<text text-anchor="middle" x="2049" y="-1090.39" font-family="Times,serif" font-size="14.00">enter_internal_OrbitalState_Act</text>
</g>
<!-- q4&#45;&gt;q0 -->
<g id="edge66" class="edge"><title>q4&#45;&gt;q0</title>
<path fill="none" stroke="green" d="M2694.59,-1223.51C2693.16,-1179.57 2686.91,-1069.1 2660,-1046.59 2598.13,-994.837 2014.66,-1045.34 1934,-1046.59 1826.41,-1048.26 1531.96,-991.872 1450,-1061.59 1427.38,-1080.83 1419.14,-1167.61 1416.34,-1213.28"/>
<polygon fill="green" stroke="green" points="1412.83,-1213.24 1415.76,-1223.42 1419.82,-1213.63 1412.83,-1213.24"/>
<text text-anchor="middle" x="2049" y="-1050.39" font-family="Times,serif" font-size="14.00">Learn_Assert</text>
</g>
<!-- q4&#45;&gt;q3 -->
<g id="edge63" class="edge"><title>q4&#45;&gt;q3</title>
<path fill="none" stroke="green" d="M2712.29,-1249.89C2757.59,-1275.38 2891.41,-1357.57 2948,-1467.59 2973.11,-1516.41 2980.4,-1682.3 2982.35,-1749.24"/>
<polygon fill="green" stroke="green" points="2978.85,-1749.56 2982.62,-1759.46 2985.85,-1749.37 2978.85,-1749.56"/>
<text text-anchor="middle" x="2840" y="-1471.39" font-family="Times,serif" font-size="14.00">DockingApproachExample_Ext_output</text>
</g>
<!-- q5 -->
<g id="node7" class="node"><title>q5</title>
<ellipse fill="none" stroke="green" cx="2297" cy="-708.594" rx="18" ry="18"/>
<text text-anchor="middle" x="2297" y="-704.894" font-family="Times,serif" font-size="14.00">D</text>
</g>
<!-- q5&#45;&gt;q0 -->
<g id="edge68" class="edge"><title>q5&#45;&gt;q0</title>
<path fill="none" stroke="black" d="M2292.41,-726.288C2281.99,-772.639 2247,-897.796 2164,-952.594 2031.03,-1040.39 1566.19,-909.555 1450,-1018.59 1422.26,-1044.62 1416.47,-1159.41 1415.28,-1213.37"/>
<polygon fill="black" stroke="black" points="1411.78,-1213.55 1415.1,-1223.61 1418.78,-1213.68 1411.78,-1213.55"/>
<text text-anchor="middle" x="1801" y="-987.394" font-family="Times,serif" font-size="14.00">DockingApproach_DockingApproach</text>
</g>
<!-- q5&#45;&gt;q0 -->
<g id="edge69" class="edge"><title>q5&#45;&gt;q0</title>
<path fill="none" stroke="black" d="M2290.18,-725.467C2275.79,-764.349 2234.48,-860.084 2164,-901.594 2026.68,-982.467 1564.58,-857.836 1450,-968.594 1415.57,-1001.87 1413.6,-1150.35 1414.36,-1213.27"/>
<polygon fill="black" stroke="black" points="1410.86,-1213.35 1414.52,-1223.29 1417.86,-1213.24 1410.86,-1213.35"/>
<text text-anchor="middle" x="1801" y="-933.394" font-family="Times,serif" font-size="14.00">DockingAppro_InertialNavigation</text>
</g>
<!-- q5&#45;&gt;q0 -->
<g id="edge70" class="edge"><title>q5&#45;&gt;q0</title>
<path fill="none" stroke="black" d="M2287.12,-724.006C2268.66,-754.401 2222.9,-821.63 2164,-850.594 2021.01,-920.909 1563.52,-804.776 1450,-916.594 1429.05,-937.233 1419.08,-1137.56 1416.04,-1213.03"/>
<polygon fill="black" stroke="black" points="1412.54,-1213.09 1415.65,-1223.22 1419.53,-1213.37 1412.54,-1213.09"/>
<text text-anchor="middle" x="1801" y="-877.394" font-family="Times,serif" font-size="14.00">DockingAppro_MissionPhaseStates</text>
</g>
<!-- q5&#45;&gt;q0 -->
<g id="edge71" class="edge"><title>q5&#45;&gt;q0</title>
<path fill="none" stroke="green" d="M2283.43,-720.698C2261.35,-741.113 2213.24,-781.892 2164,-799.594 2014.13,-853.471 1562.91,-749.272 1450,-861.594 1425.2,-886.269 1417.5,-1128.96 1415.56,-1213.07"/>
<polygon fill="green" stroke="green" points="1412.06,-1213.11 1415.34,-1223.18 1419.06,-1213.26 1412.06,-1213.11"/>
<text text-anchor="middle" x="1801" y="-817.394" font-family="Times,serif" font-size="14.00">DockingApproachExample_Ext</text>
</g>
<!-- q5&#45;&gt;q0 -->
<g id="edge72" class="edge"><title>q5&#45;&gt;q0</title>
<path fill="none" stroke="black" d="M2280.02,-714.673C2255.48,-723.728 2206.83,-740.554 2164,-748.594 2085.8,-763.274 1506.34,-747.411 1450,-803.594 1421,-832.512 1416.02,-1121.13 1415.17,-1213.39"/>
<polygon fill="black" stroke="black" points="1411.67,-1213.37 1415.09,-1223.4 1418.67,-1213.43 1411.67,-1213.37"/>
<text text-anchor="middle" x="1801" y="-769.394" font-family="Times,serif" font-size="14.00">DockingAppr_OrbitalState_Active</text>
</g>
<!-- q5&#45;&gt;q0 -->
<g id="edge73" class="edge"><title>q5&#45;&gt;q0</title>
<path fill="none" stroke="black" d="M2278.93,-708.347C2164.37,-706.862 1510.01,-701.114 1450,-762.594 1418.46,-794.909 1415.24,-1115.53 1414.99,-1213.38"/>
<polygon fill="black" stroke="black" points="1411.49,-1213.42 1414.97,-1223.42 1418.49,-1213.43 1411.49,-1213.42"/>
<text text-anchor="middle" x="1801" y="-723.394" font-family="Times,serif" font-size="14.00">D_exit_internal_CaptureApproach</text>
</g>
<!-- q5&#45;&gt;q0 -->
<g id="edge74" class="edge"><title>q5&#45;&gt;q0</title>
<path fill="none" stroke="black" d="M2278.91,-705.69C2169.49,-687.532 1568.11,-594.285 1450,-717.594 1415.55,-753.563 1414.41,-1109.91 1414.82,-1213.5"/>
<polygon fill="black" stroke="black" points="1411.32,-1213.53 1414.86,-1223.52 1418.32,-1213.5 1411.32,-1213.53"/>
<text text-anchor="middle" x="1801" y="-665.394" font-family="Times,serif" font-size="14.00">D_exit_internal_DockingApproach</text>
</g>
<!-- q5&#45;&gt;q0 -->
<g id="edge75" class="edge"><title>q5&#45;&gt;q0</title>
<path fill="none" stroke="green" d="M2280.16,-701.155C2255.8,-690.073 2207.38,-669.475 2164,-659.594 2086.65,-641.974 1505.75,-597.147 1450,-653.594 1430.12,-673.727 1418.45,-1098.68 1415.66,-1213.31"/>
<polygon fill="green" stroke="green" points="1412.16,-1213.33 1415.41,-1223.42 1419.15,-1213.5 1412.16,-1213.33"/>
<text text-anchor="middle" x="1801" y="-638.394" font-family="Times,serif" font-size="14.00">DockingApproachExample_Ext_initialize</text>
</g>
<!-- q5&#45;&gt;q0 -->
<g id="edge76" class="edge"><title>q5&#45;&gt;q0</title>
<path fill="none" stroke="green" d="M2282.29,-698.035C2259.29,-680.956 2210.82,-647.666 2164,-632.594 2088.48,-608.282 1505.91,-566.296 1450,-622.594 1428.92,-643.818 1418.06,-1094.98 1415.56,-1213.36"/>
<polygon fill="green" stroke="green" points="1412.06,-1213.38 1415.35,-1223.45 1419.06,-1213.52 1412.06,-1213.38"/>
<text text-anchor="middle" x="1801" y="-607.394" font-family="Times,serif" font-size="14.00">DockingApproachExample_Ext_output</text>
</g>
<!-- q5&#45;&gt;q0 -->
<g id="edge77" class="edge"><title>q5&#45;&gt;q0</title>
<path fill="none" stroke="green" d="M2284.54,-695.183C2263.43,-671.544 2215.82,-622.946 2164,-601.594 1967.31,-520.553 1898.54,-567.604 1686,-576.594 1633.41,-578.818 1486.65,-558.817 1450,-596.594 1428.23,-619.033 1417.83,-1091.89 1415.51,-1213.35"/>
<polygon fill="green" stroke="green" points="1412.01,-1213.3 1415.32,-1223.37 1419.01,-1213.44 1412.01,-1213.3"/>
<text text-anchor="middle" x="1801" y="-580.394" font-family="Times,serif" font-size="14.00">DockingApproachExample_Ext_update</text>
</g>
<!-- q5&#45;&gt;q0 -->
<g id="edge78" class="edge"><title>q5&#45;&gt;q0</title>
<path fill="none" stroke="black" d="M2288.32,-692.677C2271.31,-659.425 2226.89,-583.072 2164,-551.594 1973.94,-456.471 1895.79,-503.55 1686,-537.594 1677.68,-538.945 1676.22,-541.715 1668,-543.594 1620.39,-554.479 1483.21,-535.778 1450,-571.594 1427.87,-595.457 1417.7,-1088.35 1415.48,-1213.1"/>
<polygon fill="black" stroke="black" points="1411.98,-1213.31 1415.3,-1223.37 1418.97,-1213.43 1411.98,-1213.31"/>
<text text-anchor="middle" x="1801" y="-541.394" font-family="Times,serif" font-size="14.00">enter_internal_OrbitalState_Act</text>
</g>
<!-- q5&#45;&gt;q0 -->
<g id="edge79" class="edge"><title>q5&#45;&gt;q0</title>
<path fill="none" stroke="green" d="M2291.53,-691.376C2279.42,-648.607 2241.52,-537.673 2164,-491.594 2072.66,-437.3 1775.5,-422.327 1686,-479.594 1669.92,-489.883 1683.39,-507.3 1668,-518.594 1589.24,-576.386 1516.35,-474.899 1450,-546.594 1427,-571.445 1417.44,-1085.9 1415.42,-1213.26"/>
<polygon fill="green" stroke="green" points="1411.92,-1213.34 1415.26,-1223.39 1418.92,-1213.45 1411.92,-1213.34"/>
<text text-anchor="middle" x="1801" y="-483.394" font-family="Times,serif" font-size="14.00">Learn_Assert</text>
</g>
<!-- q5&#45;&gt;q4 -->
<g id="edge67" class="edge"><title>q5&#45;&gt;q4</title>
<path fill="none" stroke="green" d="M2313.79,-716.006C2371.58,-744.048 2572.72,-849.912 2660,-1003.59 2680.11,-1039 2689.89,-1158.56 2693.41,-1213.53"/>
<polygon fill="green" stroke="green" points="2689.92,-1213.85 2694.03,-1223.61 2696.91,-1213.42 2689.92,-1213.85"/>
<text text-anchor="middle" x="2545" y="-1007.39" font-family="Times,serif" font-size="14.00">rt_OneStep</text>
</g>
<!-- q6&#45;&gt;q0 -->
<g id="edge80" class="edge"><title>q6&#45;&gt;q0</title>
<path fill="none" stroke="green" d="M1786.28,-304.597C1763.3,-323.546 1716.56,-364.386 1686,-406.594 1675.51,-421.083 1682.79,-432.537 1668,-442.594 1627.78,-469.933 1483.65,-426.493 1450,-461.594 1423.48,-489.251 1416.5,-1076.63 1415.24,-1213.34"/>
<polygon fill="green" stroke="green" points="1411.73,-1213.4 1415.14,-1223.43 1418.73,-1213.46 1411.73,-1213.4"/>
<text text-anchor="middle" x="1559" y="-465.394" font-family="Times,serif" font-size="14.00">rt_OneStep</text>
</g>
<!-- q6&#45;&gt;q0 -->
<g id="edge81" class="edge"><title>q6&#45;&gt;q0</title>
<path fill="none" stroke="black" d="M1789.01,-307.192C1768.31,-331.682 1720.83,-382.689 1668,-404.594 1623.08,-423.22 1483.62,-388.458 1450,-423.594 1422.14,-452.716 1416.17,-1072.49 1415.17,-1213.31"/>
<polygon fill="black" stroke="black" points="1411.67,-1213.29 1415.11,-1223.32 1418.67,-1213.34 1411.67,-1213.29"/>
<text text-anchor="middle" x="1559" y="-427.394" font-family="Times,serif" font-size="14.00">DockingApproach_DockingApproach</text>
</g>
<!-- q6&#45;&gt;q0 -->
<g id="edge82" class="edge"><title>q6&#45;&gt;q0</title>
<path fill="none" stroke="black" d="M1785.87,-304.063C1762.64,-320.631 1714.34,-352.46 1668,-366.594 1621.49,-380.781 1483.58,-350.426 1450,-385.594 1420.81,-416.16 1415.86,-1067.43 1415.12,-1212.94"/>
<polygon fill="black" stroke="black" points="1411.62,-1213.24 1415.07,-1223.26 1418.62,-1213.28 1411.62,-1213.24"/>
<text text-anchor="middle" x="1559" y="-389.394" font-family="Times,serif" font-size="14.00">DockingAppro_InertialNavigation</text>
</g>
<!-- q6&#45;&gt;q0 -->
<g id="edge83" class="edge"><title>q6&#45;&gt;q0</title>
<path fill="none" stroke="black" d="M1783.53,-298.943C1758.75,-306.768 1710.27,-321.205 1668,-328.594 1644.05,-332.781 1466.78,-329.995 1450,-347.594 1419.45,-379.642 1415.55,-1063.99 1415.07,-1213.08"/>
<polygon fill="black" stroke="black" points="1411.57,-1213.24 1415.04,-1223.25 1418.57,-1213.26 1411.57,-1213.24"/>
<text text-anchor="middle" x="1559" y="-351.394" font-family="Times,serif" font-size="14.00">DockingAppro_MissionPhaseStates</text>
</g>
<!-- q6&#45;&gt;q0 -->
<g id="edge84" class="edge"><title>q6&#45;&gt;q0</title>
<path fill="none" stroke="green" d="M1782.58,-293.045C1715.11,-291.097 1473.56,-285.842 1450,-309.594 1417.43,-342.434 1415.12,-1059.36 1415,-1212.84"/>
<polygon fill="green" stroke="green" points="1411.5,-1213.28 1414.99,-1223.28 1418.5,-1213.29 1411.5,-1213.28"/>
<text text-anchor="middle" x="1559" y="-313.394" font-family="Times,serif" font-size="14.00">DockingApproachExample_Ext</text>
</g>
<!-- q6&#45;&gt;q0 -->
<g id="edge85" class="edge"><title>q6&#45;&gt;q0</title>
<path fill="none" stroke="black" d="M1783.19,-289.505C1720.01,-274.586 1497.98,-226.32 1450,-272.594 1415.28,-306.083 1414.68,-1056.65 1414.93,-1213.16"/>
<polygon fill="black" stroke="black" points="1411.43,-1213.39 1414.95,-1223.38 1418.43,-1213.37 1411.43,-1213.39"/>
<text text-anchor="middle" x="1559" y="-276.394" font-family="Times,serif" font-size="14.00">DockingAppr_OrbitalState_Active</text>
</g>
<!-- q6&#45;&gt;q0 -->
<g id="edge86" class="edge"><title>q6&#45;&gt;q0</title>
<path fill="none" stroke="black" d="M1785.27,-284.505C1761.6,-270.494 1713.17,-244.23 1668,-234.594 1620.62,-224.488 1484.85,-200.939 1450,-234.594 1413.87,-269.493 1414.4,-1052.73 1414.89,-1213.07"/>
<polygon fill="black" stroke="black" points="1411.39,-1213.54 1414.92,-1223.52 1418.39,-1213.51 1411.39,-1213.54"/>
<text text-anchor="middle" x="1559" y="-238.394" font-family="Times,serif" font-size="14.00">D_exit_internal_CaptureApproach</text>
</g>
<!-- q6&#45;&gt;q0 -->
<g id="edge87" class="edge"><title>q6&#45;&gt;q0</title>
<path fill="none" stroke="black" d="M1788.04,-280.844C1766.53,-258.947 1718.79,-214.97 1668,-198.594 1621.89,-183.728 1484.83,-164.918 1450,-198.594 1412.52,-234.837 1414.15,-1049.34 1414.85,-1213.08"/>
<polygon fill="black" stroke="black" points="1411.35,-1213.33 1414.9,-1223.31 1418.35,-1213.3 1411.35,-1213.33"/>
<text text-anchor="middle" x="1559" y="-202.394" font-family="Times,serif" font-size="14.00">D_exit_internal_DockingApproach</text>
</g>
<!-- q6&#45;&gt;q0 -->
<g id="edge89" class="edge"><title>q6&#45;&gt;q0</title>
<path fill="none" stroke="green" d="M1790.74,-278.351C1771.94,-249.053 1726.09,-185.655 1668,-161.594 1623.24,-143.055 1484.81,-127.898 1450,-161.594 1411.13,-199.223 1413.89,-1046.11 1414.82,-1213.13"/>
<polygon fill="green" stroke="green" points="1411.32,-1213.57 1414.88,-1223.55 1418.32,-1213.53 1411.32,-1213.57"/>
<text text-anchor="middle" x="1559" y="-165.394" font-family="Times,serif" font-size="14.00">DockingApproachExample_Ext_output</text>
</g>
<!-- q6&#45;&gt;q0 -->
<g id="edge90" class="edge"><title>q6&#45;&gt;q0</title>
<path fill="none" stroke="green" d="M1793.33,-277.197C1777.72,-241.305 1734.95,-156.373 1668,-123.594 1624.49,-102.292 1484.79,-89.8789 1450,-123.594 1409.7,-162.648 1413.64,-1042.85 1414.79,-1213.19"/>
<polygon fill="green" stroke="green" points="1411.29,-1213.4 1414.86,-1223.37 1418.29,-1213.35 1411.29,-1213.4"/>
<text text-anchor="middle" x="1559" y="-127.394" font-family="Times,serif" font-size="14.00">DockingApproachExample_Ext_update</text>
</g>
<!-- q6&#45;&gt;q0 -->
<g id="edge91" class="edge"><title>q6&#45;&gt;q0</title>
<path fill="none" stroke="black" d="M1795.36,-276.458C1782.97,-234.479 1744.67,-126.854 1668,-84.5941 1625.57,-61.2097 1484.77,-50.8605 1450,-84.5941 1429.1,-104.875 1417.34,-1037.78 1415.32,-1213.29"/>
<polygon fill="black" stroke="black" points="1411.82,-1213.26 1415.2,-1223.3 1418.82,-1213.34 1411.82,-1213.26"/>
<text text-anchor="middle" x="1559" y="-88.3941" font-family="Times,serif" font-size="14.00">enter_internal_OrbitalState_Act</text>
</g>
<!-- q6&#45;&gt;q0 -->
<g id="edge92" class="edge"><title>q6&#45;&gt;q0</title>
<path fill="none" stroke="green" d="M1796.95,-275.805C1787.68,-228.017 1754.99,-96.9374 1668,-44.5941 1584.98,5.35885 1519.5,22.9081 1450,-44.5941 1428.34,-65.6313 1417.16,-1034.82 1415.29,-1213.45"/>
<polygon fill="green" stroke="green" points="1411.78,-1213.58 1415.18,-1223.62 1418.78,-1213.65 1411.78,-1213.58"/>
<text text-anchor="middle" x="1559" y="-48.3941" font-family="Times,serif" font-size="14.00">Learn_Assert</text>
</g>
<!-- q6&#45;&gt;q5 -->
<g id="edge88" class="edge"><title>q6&#45;&gt;q5</title>
<path fill="none" stroke="green" d="M1819.17,-293.696C1875.79,-294.942 2058.95,-306.343 2164,-399.594 2250.84,-476.679 2282.44,-620.701 2292.2,-680.965"/>
<polygon fill="green" stroke="green" points="2288.75,-681.532 2293.73,-690.882 2295.67,-680.465 2288.75,-681.532"/>
<text text-anchor="middle" x="2049" y="-403.394" font-family="Times,serif" font-size="14.00">DockingApproachExample_Ext_initialize</text>
</g>
<!-- iq0 -->
<g id="node9" class="node"><title>iq0</title>
</g>
<!-- iq0&#45;&gt;q0 -->
<g id="edge1" class="edge"><title>iq0&#45;&gt;q0</title>
<path fill="none" stroke="blue" d="M592.127,-1017.11C724.51,-1009.82 1317.31,-980.317 1378,-1032.59 1404.8,-1055.68 1411.09,-1162.04 1412.56,-1213.52"/>
<polygon fill="blue" stroke="blue" points="1409.06,-1213.71 1412.8,-1223.62 1416.06,-1213.54 1409.06,-1213.71"/>
</g>
</g>
</svg>
