<?xml version="1.0" encoding="UTF-8" standalone="no"?>
<!DOCTYPE svg PUBLIC "-//W3C//DTD SVG 1.1//EN"
 "http://www.w3.org/Graphics/SVG/1.1/DTD/svg11.dtd">
<!-- Generated by graphviz version 2.34.0 (20141125.1709)
 -->
<!-- Title: finite_automaton Pages: 1 -->
<svg width="576pt" height="37pt"
 viewBox="0.00 0.00 576.00 36.56" xmlns="http://www.w3.org/2000/svg" xmlns:xlink="http://www.w3.org/1999/xlink">
<g id="graph0" class="graph" transform="scale(0.250435 0.250435) rotate(0) translate(4 142)">
<title>finite_automaton</title>
<polygon fill="white" stroke="white" points="-4,4 -4,-142 2296,-142 2296,4 -4,4"/>
<!-- dom_edges -->
<g id="node1" class="node"><title>dom_edges</title>
<polygon fill="none" stroke="green" points="590,-45 0,-45 0,-9 590,-9 590,-45"/>
<text text-anchor="middle" x="295" y="-23.3" font-family="Times,serif" font-size="14.00">Dominating edges: Exception_handler, if_line_71, else_line_99, if_line_100, else_line_66, Learn_Assert</text>
</g>
<!-- q1 -->
<g id="node2" class="node"><title>q1</title>
<ellipse fill="none" stroke="green" cx="2270" cy="-69" rx="18" ry="18"/>
<ellipse fill="none" stroke="green" cx="2270" cy="-69" rx="22" ry="22"/>
<text text-anchor="middle" x="2270" y="-65.3" font-family="Times,serif" font-size="14.00">D</text>
</g>
<!-- q0 -->
<g id="node3" class="node"><title>q0</title>
<ellipse fill="none" stroke="green" cx="646" cy="-81" rx="18" ry="18"/>
</g>
<!-- q7 -->
<g id="node9" class="node"><title>q7</title>
<ellipse fill="none" stroke="green" cx="788" cy="-81" rx="18" ry="18"/>
</g>
<!-- q0&#45;&gt;q7 -->
<g id="edge2" class="edge"><title>q0&#45;&gt;q7</title>
<path fill="none" stroke="green" d="M664.167,-81C687.993,-81 731.342,-81 759.651,-81"/>
<polygon fill="green" stroke="green" points="759.693,-84.5001 769.693,-81 759.693,-77.5001 759.693,-84.5001"/>
<text text-anchor="middle" x="717" y="-84.8" font-family="Times,serif" font-size="14.00">else_line_66</text>
</g>
<!-- q2 -->
<g id="node4" class="node"><title>q2</title>
<ellipse fill="none" stroke="green" cx="2120" cy="-69" rx="18" ry="18"/>
</g>
<!-- q2&#45;&gt;q1 -->
<g id="edge3" class="edge"><title>q2&#45;&gt;q1</title>
<path fill="none" stroke="green" d="M2138.27,-69C2162.55,-69 2207.2,-69 2237.49,-69"/>
<polygon fill="green" stroke="green" points="2237.55,-72.5001 2247.55,-69 2237.55,-65.5001 2237.55,-72.5001"/>
<text text-anchor="middle" x="2193" y="-72.8" font-family="Times,serif" font-size="14.00">Learn_Assert</text>
</g>
<!-- q3 -->
<g id="node5" class="node"><title>q3</title>
<ellipse fill="none" stroke="green" cx="1944" cy="-69" rx="18" ry="18"/>
</g>
<!-- q3&#45;&gt;q2 -->
<g id="edge4" class="edge"><title>q3&#45;&gt;q2</title>
<path fill="none" stroke="green" d="M1962,-69C1992.15,-69 2055.21,-69 2091.57,-69"/>
<polygon fill="green" stroke="green" points="2091.93,-72.5001 2101.93,-69 2091.93,-65.5001 2091.93,-72.5001"/>
<text text-anchor="middle" x="2032" y="-72.8" font-family="Times,serif" font-size="14.00">Exception_handler</text>
</g>
<!-- q4 -->
<g id="node6" class="node"><title>q4</title>
<ellipse fill="none" stroke="black" cx="1348" cy="-106" rx="18" ry="18"/>
</g>
<!-- q4&#45;&gt;q3 -->
<g id="edge5" class="edge"><title>q4&#45;&gt;q3</title>
<path fill="none" stroke="black" d="M1366.01,-109.278C1393.16,-114.218 1448.05,-123 1495,-123 1495,-123 1495,-123 1809,-123 1850.55,-123 1894.44,-100.388 1920.24,-84.4291"/>
<polygon fill="black" stroke="black" points="1922.34,-87.237 1928.89,-78.9044 1918.57,-81.3377 1922.34,-87.237"/>
<text text-anchor="middle" x="1658" y="-126.8" font-family="Times,serif" font-size="14.00">if_line_101</text>
</g>
<!-- q10 -->
<g id="node12" class="node"><title>q10</title>
<ellipse fill="none" stroke="black" cx="1496" cy="-75" rx="18" ry="18"/>
</g>
<!-- q4&#45;&gt;q10 -->
<g id="edge6" class="edge"><title>q4&#45;&gt;q10</title>
<path fill="none" stroke="black" d="M1365.22,-99.8325C1371.07,-97.7673 1377.78,-95.5887 1384,-94 1412.16,-86.8112 1445.05,-81.564 1467.68,-78.4279"/>
<polygon fill="black" stroke="black" points="1468.45,-81.8559 1477.9,-77.0586 1467.52,-74.9179 1468.45,-81.8559"/>
<text text-anchor="middle" x="1422" y="-97.8" font-family="Times,serif" font-size="14.00">else_line_106</text>
</g>
<!-- q5 -->
<g id="node7" class="node"><title>q5</title>
<ellipse fill="none" stroke="black" cx="1206" cy="-106" rx="18" ry="18"/>
</g>
<!-- q5&#45;&gt;q4 -->
<g id="edge7" class="edge"><title>q5&#45;&gt;q4</title>
<path fill="none" stroke="green" d="M1224.17,-106C1247.99,-106 1291.34,-106 1319.65,-106"/>
<polygon fill="green" stroke="green" points="1319.69,-109.5 1329.69,-106 1319.69,-102.5 1319.69,-109.5"/>
<text text-anchor="middle" x="1277" y="-109.8" font-family="Times,serif" font-size="14.00">if_line_100</text>
</g>
<!-- q6 -->
<g id="node8" class="node"><title>q6</title>
<ellipse fill="none" stroke="green" cx="1064" cy="-75" rx="18" ry="18"/>
</g>
<!-- q6&#45;&gt;q5 -->
<g id="edge9" class="edge"><title>q6&#45;&gt;q5</title>
<path fill="none" stroke="green" d="M1081.89,-78.7393C1105.75,-84.0227 1149.58,-93.7286 1177.99,-100.02"/>
<polygon fill="green" stroke="green" points="1177.53,-103.503 1188.05,-102.247 1179.05,-96.6682 1177.53,-103.503"/>
<text text-anchor="middle" x="1135" y="-100.8" font-family="Times,serif" font-size="14.00">else_line_99</text>
</g>
<!-- q13 -->
<g id="node15" class="node"><title>q13</title>
<ellipse fill="none" stroke="black" cx="1206" cy="-52" rx="18" ry="18"/>
</g>
<!-- q6&#45;&gt;q13 -->
<g id="edge8" class="edge"><title>q6&#45;&gt;q13</title>
<path fill="none" stroke="black" d="M1081.25,-69.7893C1087.11,-68.0616 1093.81,-66.2601 1100,-65 1126.18,-59.6735 1156.5,-56.2035 1177.81,-54.1996"/>
<polygon fill="black" stroke="black" points="1178.12,-57.6853 1187.77,-53.3076 1177.5,-50.7132 1178.12,-57.6853"/>
<text text-anchor="middle" x="1135" y="-68.8" font-family="Times,serif" font-size="14.00">if_line_72</text>
</g>
<!-- q7&#45;&gt;q6 -->
<g id="edge10" class="edge"><title>q7&#45;&gt;q6</title>
<path fill="none" stroke="green" d="M806.155,-82.2765C845.499,-84.9411 945.211,-90.1978 1028,-82 1030.74,-81.7289 1033.58,-81.3411 1036.41,-80.8855"/>
<polygon fill="green" stroke="green" points="1037.18,-84.3017 1046.37,-79.0241 1035.89,-77.4208 1037.18,-84.3017"/>
<text text-anchor="middle" x="926" y="-89.8" font-family="Times,serif" font-size="14.00">if_line_71</text>
</g>
<!-- q11 -->
<g id="node13" class="node"><title>q11</title>
<ellipse fill="none" stroke="black" cx="926" cy="-42" rx="18" ry="18"/>
</g>
<!-- q7&#45;&gt;q11 -->
<g id="edge11" class="edge"><title>q7&#45;&gt;q11</title>
<path fill="none" stroke="black" d="M804.861,-74.1182C810.799,-71.6846 817.646,-69.0464 824,-67 848.745,-59.0305 877.587,-52.1206 898.1,-47.5976"/>
<polygon fill="black" stroke="black" points="898.967,-50.991 908.002,-45.4569 897.488,-44.1491 898.967,-50.991"/>
<text text-anchor="middle" x="852" y="-70.8" font-family="Times,serif" font-size="14.00">if_line_68</text>
</g>
<!-- q8 -->
<g id="node10" class="node"><title>q8</title>
<ellipse fill="none" stroke="black" cx="1808" cy="-69" rx="18" ry="18"/>
</g>
<!-- q8&#45;&gt;q3 -->
<g id="edge12" class="edge"><title>q8&#45;&gt;q3</title>
<path fill="none" stroke="black" d="M1826.24,-69C1848.86,-69 1888.8,-69 1915.58,-69"/>
<polygon fill="black" stroke="black" points="1915.82,-72.5001 1925.82,-69 1915.82,-65.5001 1915.82,-72.5001"/>
<text text-anchor="middle" x="1876" y="-72.8" font-family="Times,serif" font-size="14.00">if_line_115</text>
</g>
<!-- q9 -->
<g id="node11" class="node"><title>q9</title>
<ellipse fill="none" stroke="black" cx="1658" cy="-69" rx="18" ry="18"/>
</g>
<!-- q9&#45;&gt;q8 -->
<g id="edge13" class="edge"><title>q9&#45;&gt;q8</title>
<path fill="none" stroke="black" d="M1676.27,-69C1701.67,-69 1749.35,-69 1779.57,-69"/>
<polygon fill="black" stroke="black" points="1779.84,-72.5001 1789.84,-69 1779.84,-65.5001 1779.84,-72.5001"/>
<text text-anchor="middle" x="1740" y="-72.8" font-family="Times,serif" font-size="14.00">if_line_114</text>
</g>
<!-- q10&#45;&gt;q9 -->
<g id="edge14" class="edge"><title>q10&#45;&gt;q9</title>
<path fill="none" stroke="black" d="M1514.12,-74.3579C1541.79,-73.3204 1596.56,-71.2663 1629.67,-70.0248"/>
<polygon fill="black" stroke="black" points="1630.14,-73.5099 1640,-69.6375 1629.88,-66.5148 1630.14,-73.5099"/>
<text text-anchor="middle" x="1570" y="-76.8" font-family="Times,serif" font-size="14.00">else_line_113</text>
</g>
<!-- q11&#45;&gt;q6 -->
<g id="edge15" class="edge"><title>q11&#45;&gt;q6</title>
<path fill="none" stroke="green" d="M943.676,-46.0464C966.821,-51.6626 1008.93,-61.8806 1036.43,-68.5536"/>
<polygon fill="green" stroke="green" points="1035.64,-71.9636 1046.19,-70.9205 1037.29,-65.161 1035.64,-71.9636"/>
<text text-anchor="middle" x="1000" y="-69.8" font-family="Times,serif" font-size="14.00">if_line_71</text>
</g>
<!-- q12 -->
<g id="node14" class="node"><title>q12</title>
<ellipse fill="none" stroke="black" cx="1348" cy="-18" rx="18" ry="18"/>
</g>
<!-- q12&#45;&gt;q3 -->
<g id="edge16" class="edge"><title>q12&#45;&gt;q3</title>
<path fill="none" stroke="black" d="M1366.08,-18C1393.34,-18 1448.36,-18 1495,-18 1495,-18 1495,-18 1809,-18 1850.01,-18 1893.74,-39.1263 1919.7,-54.1845"/>
<polygon fill="black" stroke="black" points="1918.04,-57.2725 1928.42,-59.4073 1921.64,-51.267 1918.04,-57.2725"/>
<text text-anchor="middle" x="1658" y="-21.8" font-family="Times,serif" font-size="14.00">if_line_81</text>
</g>
<!-- q12&#45;&gt;q12 -->
<g id="edge17" class="edge"><title>q12&#45;&gt;q12</title>
<path fill="none" stroke="black" d="M1336.57,-32.0417C1332.3,-42.9126 1336.11,-54 1348,-54 1356.18,-54 1360.53,-48.7595 1361.07,-41.9516"/>
<polygon fill="black" stroke="black" points="1364.51,-41.3366 1359.43,-32.0417 1357.61,-42.4788 1364.51,-41.3366"/>
<text text-anchor="middle" x="1348" y="-57.8" font-family="Times,serif" font-size="14.00">if_line_77</text>
</g>
<!-- q13&#45;&gt;q12 -->
<g id="edge18" class="edge"><title>q13&#45;&gt;q12</title>
<path fill="none" stroke="black" d="M1223.97,-49.7938C1244.92,-46.8354 1281.54,-40.9024 1312,-32 1315.2,-31.0636 1318.52,-29.9447 1321.78,-28.7531"/>
<polygon fill="black" stroke="black" points="1323.16,-31.9712 1331.2,-25.0704 1320.61,-25.4517 1323.16,-31.9712"/>
<text text-anchor="middle" x="1277" y="-49.8" font-family="Times,serif" font-size="14.00">if_line_73</text>
</g>
<!-- q13&#45;&gt;q12 -->
<g id="edge19" class="edge"><title>q13&#45;&gt;q12</title>
<path fill="none" stroke="black" d="M1215.96,-36.8581C1222.07,-28.1094 1231.03,-17.8934 1242,-13 1266.92,-1.88003 1298.55,-5.45645 1320.55,-10.3547"/>
<polygon fill="black" stroke="black" points="1319.96,-13.8134 1330.51,-12.8068 1321.64,-7.01658 1319.96,-13.8134"/>
<text text-anchor="middle" x="1277" y="-16.8" font-family="Times,serif" font-size="14.00">else_line_76</text>
</g>
<!-- iq0 -->
<g id="node16" class="node"><title>iq0</title>
</g>
<!-- iq0&#45;&gt;q0 -->
<g id="edge1" class="edge"><title>iq0&#45;&gt;q0</title>
<path fill="none" stroke="blue" d="M322.232,-81C386.519,-81 551.462,-81 617.277,-81"/>
<polygon fill="blue" stroke="blue" points="617.665,-84.5001 627.665,-81 617.665,-77.5001 617.665,-84.5001"/>
</g>
</g>
</svg>
