<?xml version="1.0" encoding="UTF-8" standalone="no"?>
<!DOCTYPE svg PUBLIC "-//W3C//DTD SVG 1.1//EN"
 "http://www.w3.org/Graphics/SVG/1.1/DTD/svg11.dtd">
<!-- Generated by graphviz version 2.34.0 (20141125.1709)
 -->
<!-- Title: finite_automaton Pages: 1 -->
<svg width="576pt" height="50pt"
 viewBox="0.00 0.00 576.00 50.32" xmlns="http://www.w3.org/2000/svg" xmlns:xlink="http://www.w3.org/1999/xlink">
<g id="graph0" class="graph" transform="scale(0.258065 0.258065) rotate(0) translate(4 191)">
<title>finite_automaton</title>
<polygon fill="white" stroke="white" points="-4,4 -4,-191 2228,-191 2228,4 -4,4"/>
<!-- dom_edges -->
<g id="node1" class="node"><title>dom_edges</title>
<polygon fill="none" stroke="green" points="508,-76 -2.84217e-14,-76 -2.84217e-14,-40 508,-40 508,-76"/>
<text text-anchor="middle" x="254" y="-54.3" font-family="Times,serif" font-size="14.00">Dominating edges: Exception_handler, if_line_72, if_line_71, else_line_66, Learn_Assert</text>
</g>
<!-- q1 -->
<g id="node2" class="node"><title>q1</title>
<ellipse fill="none" stroke="green" cx="2202" cy="-95" rx="18" ry="18"/>
<ellipse fill="none" stroke="green" cx="2202" cy="-95" rx="22" ry="22"/>
<text text-anchor="middle" x="2202" y="-91.3" font-family="Times,serif" font-size="14.00">D</text>
</g>
<!-- q0 -->
<g id="node3" class="node"><title>q0</title>
<ellipse fill="none" stroke="green" cx="564" cy="-112" rx="18" ry="18"/>
</g>
<!-- q7 -->
<g id="node9" class="node"><title>q7</title>
<ellipse fill="none" stroke="green" cx="706" cy="-112" rx="18" ry="18"/>
</g>
<!-- q0&#45;&gt;q7 -->
<g id="edge2" class="edge"><title>q0&#45;&gt;q7</title>
<path fill="none" stroke="green" d="M582.167,-112C605.993,-112 649.342,-112 677.651,-112"/>
<polygon fill="green" stroke="green" points="677.693,-115.5 687.693,-112 677.693,-108.5 677.693,-115.5"/>
<text text-anchor="middle" x="635" y="-115.8" font-family="Times,serif" font-size="14.00">else_line_66</text>
</g>
<!-- q2 -->
<g id="node4" class="node"><title>q2</title>
<ellipse fill="none" stroke="green" cx="2052" cy="-95" rx="18" ry="18"/>
</g>
<!-- q2&#45;&gt;q1 -->
<g id="edge3" class="edge"><title>q2&#45;&gt;q1</title>
<path fill="none" stroke="green" d="M2070.27,-95C2094.55,-95 2139.2,-95 2169.49,-95"/>
<polygon fill="green" stroke="green" points="2169.55,-98.5001 2179.55,-95 2169.55,-91.5001 2169.55,-98.5001"/>
<text text-anchor="middle" x="2125" y="-98.8" font-family="Times,serif" font-size="14.00">Learn_Assert</text>
</g>
<!-- q3 -->
<g id="node5" class="node"><title>q3</title>
<ellipse fill="none" stroke="green" cx="1876" cy="-95" rx="18" ry="18"/>
</g>
<!-- q3&#45;&gt;q2 -->
<g id="edge4" class="edge"><title>q3&#45;&gt;q2</title>
<path fill="none" stroke="green" d="M1894,-95C1924.15,-95 1987.21,-95 2023.57,-95"/>
<polygon fill="green" stroke="green" points="2023.93,-98.5001 2033.93,-95 2023.93,-91.5001 2023.93,-98.5001"/>
<text text-anchor="middle" x="1964" y="-98.8" font-family="Times,serif" font-size="14.00">Exception_handler</text>
</g>
<!-- q4 -->
<g id="node6" class="node"><title>q4</title>
<ellipse fill="none" stroke="black" cx="1730" cy="-169" rx="18" ry="18"/>
</g>
<!-- q4&#45;&gt;q3 -->
<g id="edge5" class="edge"><title>q4&#45;&gt;q3</title>
<path fill="none" stroke="black" d="M1747.99,-165.901C1770.43,-161.236 1810.56,-150.878 1840,-132 1846.3,-127.959 1852.26,-122.545 1857.42,-117.107"/>
<polygon fill="black" stroke="black" points="1860.34,-119.089 1864.35,-109.281 1855.1,-114.45 1860.34,-119.089"/>
<text text-anchor="middle" x="1808" y="-161.8" font-family="Times,serif" font-size="14.00">if_line_81</text>
</g>
<!-- q5 -->
<g id="node7" class="node"><title>q5</title>
<ellipse fill="none" stroke="black" cx="1408" cy="-126" rx="18" ry="18"/>
</g>
<!-- q5&#45;&gt;q4 -->
<g id="edge6" class="edge"><title>q5&#45;&gt;q4</title>
<path fill="none" stroke="black" d="M1423.44,-135.418C1429.55,-138.978 1436.89,-142.716 1444,-145 1534.92,-174.209 1650.08,-173.076 1701.75,-170.706"/>
<polygon fill="black" stroke="black" points="1701.97,-174.199 1711.78,-170.191 1701.61,-167.208 1701.97,-174.199"/>
<text text-anchor="middle" x="1570" y="-173.8" font-family="Times,serif" font-size="14.00">if_line_73</text>
</g>
<!-- q14 -->
<g id="node16" class="node"><title>q14</title>
<ellipse fill="none" stroke="black" cx="1570" cy="-126" rx="18" ry="18"/>
</g>
<!-- q5&#45;&gt;q14 -->
<g id="edge7" class="edge"><title>q5&#45;&gt;q14</title>
<path fill="none" stroke="black" d="M1426.12,-126C1453.65,-126 1507.99,-126 1541.15,-126"/>
<polygon fill="black" stroke="black" points="1541.52,-129.5 1551.52,-126 1541.52,-122.5 1541.52,-129.5"/>
<text text-anchor="middle" x="1482" y="-129.8" font-family="Times,serif" font-size="14.00">else_line_76</text>
</g>
<!-- q6 -->
<g id="node8" class="node"><title>q6</title>
<ellipse fill="none" stroke="green" cx="982" cy="-106" rx="18" ry="18"/>
</g>
<!-- q6&#45;&gt;q5 -->
<g id="edge8" class="edge"><title>q6&#45;&gt;q5</title>
<path fill="none" stroke="green" d="M1000.05,-108.796C1005.74,-109.633 1012.13,-110.469 1018,-111 1153.25,-123.235 1315.84,-125.505 1379.52,-125.915"/>
<polygon fill="green" stroke="green" points="1379.88,-129.417 1389.9,-125.97 1379.92,-122.417 1379.88,-129.417"/>
<text text-anchor="middle" x="1192" y="-125.8" font-family="Times,serif" font-size="14.00">if_line_72</text>
</g>
<!-- q12 -->
<g id="node14" class="node"><title>q12</title>
<ellipse fill="none" stroke="black" cx="1124" cy="-75" rx="18" ry="18"/>
</g>
<!-- q6&#45;&gt;q12 -->
<g id="edge9" class="edge"><title>q6&#45;&gt;q12</title>
<path fill="none" stroke="black" d="M999.309,-101.044C1005.17,-99.3405 1011.86,-97.489 1018,-96 1044.43,-89.5926 1074.94,-83.6508 1096.24,-79.7347"/>
<polygon fill="black" stroke="black" points="1096.96,-83.1601 1106.18,-77.9309 1095.71,-76.2725 1096.96,-83.1601"/>
<text text-anchor="middle" x="1053" y="-99.8" font-family="Times,serif" font-size="14.00">else_line_99</text>
</g>
<!-- q7&#45;&gt;q6 -->
<g id="edge10" class="edge"><title>q7&#45;&gt;q6</title>
<path fill="none" stroke="green" d="M724.155,-113.277C763.499,-115.941 863.211,-121.198 946,-113 948.738,-112.729 951.58,-112.341 954.406,-111.885"/>
<polygon fill="green" stroke="green" points="955.179,-115.302 964.366,-110.024 953.893,-108.421 955.179,-115.302"/>
<text text-anchor="middle" x="844" y="-120.8" font-family="Times,serif" font-size="14.00">if_line_71</text>
</g>
<!-- q13 -->
<g id="node15" class="node"><title>q13</title>
<ellipse fill="none" stroke="black" cx="844" cy="-73" rx="18" ry="18"/>
</g>
<!-- q7&#45;&gt;q13 -->
<g id="edge11" class="edge"><title>q7&#45;&gt;q13</title>
<path fill="none" stroke="black" d="M722.861,-105.118C728.799,-102.685 735.646,-100.046 742,-98 766.745,-90.0305 795.587,-83.1206 816.1,-78.5976"/>
<polygon fill="black" stroke="black" points="816.967,-81.991 826.002,-76.4569 815.488,-75.1491 816.967,-81.991"/>
<text text-anchor="middle" x="770" y="-101.8" font-family="Times,serif" font-size="14.00">if_line_68</text>
</g>
<!-- q8 -->
<g id="node10" class="node"><title>q8</title>
<ellipse fill="none" stroke="black" cx="1730" cy="-24" rx="18" ry="18"/>
</g>
<!-- q8&#45;&gt;q3 -->
<g id="edge12" class="edge"><title>q8&#45;&gt;q3</title>
<path fill="none" stroke="black" d="M1748.36,-23.0081C1771.22,-22.5442 1811.8,-24.7053 1840,-43 1849.82,-49.3731 1857.57,-59.5764 1863.26,-69.2638"/>
<polygon fill="black" stroke="black" points="1860.26,-71.0902 1868.07,-78.2517 1866.43,-67.7842 1860.26,-71.0902"/>
<text text-anchor="middle" x="1808" y="-46.8" font-family="Times,serif" font-size="14.00">if_line_115</text>
</g>
<!-- q9 -->
<g id="node11" class="node"><title>q9</title>
<ellipse fill="none" stroke="black" cx="1570" cy="-18" rx="18" ry="18"/>
</g>
<!-- q9&#45;&gt;q8 -->
<g id="edge13" class="edge"><title>q9&#45;&gt;q8</title>
<path fill="none" stroke="black" d="M1588.21,-18.6535C1615.52,-19.6905 1669.01,-21.7217 1701.62,-22.9602"/>
<polygon fill="black" stroke="black" points="1701.69,-26.4652 1711.81,-23.3473 1701.95,-19.4702 1701.69,-26.4652"/>
<text text-anchor="middle" x="1652" y="-26.8" font-family="Times,serif" font-size="14.00">if_line_114</text>
</g>
<!-- q10 -->
<g id="node12" class="node"><title>q10</title>
<ellipse fill="none" stroke="black" cx="1408" cy="-22" rx="18" ry="18"/>
</g>
<!-- q10&#45;&gt;q9 -->
<g id="edge14" class="edge"><title>q10&#45;&gt;q9</title>
<path fill="none" stroke="black" d="M1426.12,-21.5719C1453.79,-20.8802 1508.56,-19.5109 1541.67,-18.6832"/>
<polygon fill="black" stroke="black" points="1542.09,-22.1739 1552,-18.425 1541.92,-15.1761 1542.09,-22.1739"/>
<text text-anchor="middle" x="1482" y="-25.8" font-family="Times,serif" font-size="14.00">else_line_113</text>
</g>
<!-- q11 -->
<g id="node13" class="node"><title>q11</title>
<ellipse fill="none" stroke="black" cx="1260" cy="-72" rx="18" ry="18"/>
</g>
<!-- q11&#45;&gt;q3 -->
<g id="edge15" class="edge"><title>q11&#45;&gt;q3</title>
<path fill="none" stroke="black" d="M1278.08,-72C1305.34,-72 1360.36,-72 1407,-72 1407,-72 1407,-72 1731,-72 1772.31,-72 1819.45,-81.3423 1848.22,-88.1187"/>
<polygon fill="black" stroke="black" points="1847.75,-91.6062 1858.29,-90.5654 1849.4,-84.804 1847.75,-91.6062"/>
<text text-anchor="middle" x="1570" y="-75.8" font-family="Times,serif" font-size="14.00">if_line_101</text>
</g>
<!-- q11&#45;&gt;q10 -->
<g id="edge16" class="edge"><title>q11&#45;&gt;q10</title>
<path fill="none" stroke="black" d="M1273.2,-59.2578C1279.48,-53.4325 1287.57,-46.9615 1296,-43 1322.66,-30.4663 1356.25,-25.4111 1379.46,-23.3735"/>
<polygon fill="black" stroke="black" points="1379.92,-26.8486 1389.64,-22.6147 1379.4,-19.868 1379.92,-26.8486"/>
<text text-anchor="middle" x="1334" y="-46.8" font-family="Times,serif" font-size="14.00">else_line_106</text>
</g>
<!-- q12&#45;&gt;q11 -->
<g id="edge17" class="edge"><title>q12&#45;&gt;q11</title>
<path fill="none" stroke="black" d="M1142.24,-74.6139C1164.86,-74.1077 1204.8,-73.2135 1231.58,-72.6139"/>
<polygon fill="black" stroke="black" points="1231.9,-76.1076 1241.82,-72.3846 1231.75,-69.1094 1231.9,-76.1076"/>
<text text-anchor="middle" x="1192" y="-77.8" font-family="Times,serif" font-size="14.00">if_line_100</text>
</g>
<!-- q13&#45;&gt;q6 -->
<g id="edge18" class="edge"><title>q13&#45;&gt;q6</title>
<path fill="none" stroke="green" d="M861.676,-77.0464C884.821,-82.6626 926.932,-92.8806 954.433,-99.5536"/>
<polygon fill="green" stroke="green" points="953.644,-102.964 964.187,-101.92 955.295,-96.161 953.644,-102.964"/>
<text text-anchor="middle" x="918" y="-100.8" font-family="Times,serif" font-size="14.00">if_line_71</text>
</g>
<!-- q14&#45;&gt;q3 -->
<g id="edge19" class="edge"><title>q14&#45;&gt;q3</title>
<path fill="none" stroke="black" d="M1588.22,-124.244C1638.69,-119.097 1786.61,-104.013 1847.91,-97.7626"/>
<polygon fill="black" stroke="black" points="1848.38,-101.233 1857.97,-96.7363 1847.67,-94.2689 1848.38,-101.233"/>
<text text-anchor="middle" x="1730" y="-115.8" font-family="Times,serif" font-size="14.00">if_line_81</text>
</g>
<!-- q14&#45;&gt;q4 -->
<g id="edge20" class="edge"><title>q14&#45;&gt;q4</title>
<path fill="none" stroke="black" d="M1588.03,-129.173C1610.32,-133.493 1650.47,-141.86 1684,-152 1690.4,-153.936 1697.2,-156.323 1703.52,-158.691"/>
<polygon fill="black" stroke="black" points="1702.35,-161.989 1712.94,-162.327 1704.87,-155.459 1702.35,-161.989"/>
<text text-anchor="middle" x="1652" y="-155.8" font-family="Times,serif" font-size="14.00">if_line_77</text>
</g>
<!-- iq0 -->
<g id="node17" class="node"><title>iq0</title>
</g>
<!-- iq0&#45;&gt;q0 -->
<g id="edge1" class="edge"><title>iq0&#45;&gt;q0</title>
<path fill="none" stroke="blue" d="M281.26,-112C339.07,-112 476.864,-112 535.658,-112"/>
<polygon fill="blue" stroke="blue" points="535.998,-115.5 545.998,-112 535.998,-108.5 535.998,-115.5"/>
</g>
</g>
</svg>
