<?xml version="1.0" encoding="UTF-8" standalone="no"?>
<!DOCTYPE svg PUBLIC "-//W3C//DTD SVG 1.1//EN"
 "http://www.w3.org/Graphics/SVG/1.1/DTD/svg11.dtd">
<!-- Generated by graphviz version 2.34.0 (20141125.1709)
 -->
<!-- Title: finite_automaton Pages: 1 -->
<svg width="576pt" height="196pt"
 viewBox="0.00 0.00 576.00 195.51" xmlns="http://www.w3.org/2000/svg" xmlns:xlink="http://www.w3.org/1999/xlink">
<g id="graph0" class="graph" transform="scale(0.356436 0.356436) rotate(0) translate(4 544.51)">
<title>finite_automaton</title>
<polygon fill="white" stroke="white" points="-4,4 -4,-544.51 1612,-544.51 1612,4 -4,4"/>
<!-- dom_edges -->
<g id="node1" class="node"><title>dom_edges</title>
<polygon fill="none" stroke="green" points="361.5,-461.51 0.5,-461.51 0.5,-425.51 361.5,-425.51 361.5,-461.51"/>
<text text-anchor="middle" x="181" y="-439.81" font-family="Times,serif" font-size="14.00">Dominating edges: inspect_before, inspect_after, Learn_Assert</text>
</g>
<!-- q1 -->
<g id="node2" class="node"><title>q1</title>
<ellipse fill="none" stroke="green" cx="1586" cy="-344.51" rx="18" ry="18"/>
<ellipse fill="none" stroke="green" cx="1586" cy="-344.51" rx="22" ry="22"/>
<text text-anchor="middle" x="1586" y="-340.81" font-family="Times,serif" font-size="14.00">D</text>
</g>
<!-- q0 -->
<g id="node3" class="node"><title>q0</title>
<ellipse fill="none" stroke="green" cx="418" cy="-497.51" rx="18" ry="18"/>
</g>
<!-- q3 -->
<g id="node5" class="node"><title>q3</title>
<ellipse fill="none" stroke="green" cx="570" cy="-497.51" rx="18" ry="18"/>
</g>
<!-- q0&#45;&gt;q3 -->
<g id="edge2" class="edge"><title>q0&#45;&gt;q3</title>
<path fill="none" stroke="green" d="M436.207,-497.51C462.09,-497.51 511.273,-497.51 541.974,-497.51"/>
<polygon fill="green" stroke="green" points="541.994,-501.01 551.994,-497.51 541.994,-494.01 541.994,-501.01"/>
<text text-anchor="middle" x="494" y="-501.31" font-family="Times,serif" font-size="14.00">inspect_before</text>
</g>
<!-- q2 -->
<g id="node4" class="node"><title>q2</title>
<ellipse fill="none" stroke="green" cx="1436" cy="-344.51" rx="18" ry="18"/>
</g>
<!-- q2&#45;&gt;q1 -->
<g id="edge3" class="edge"><title>q2&#45;&gt;q1</title>
<path fill="none" stroke="green" d="M1454.27,-344.51C1478.55,-344.51 1523.2,-344.51 1553.49,-344.51"/>
<polygon fill="green" stroke="green" points="1553.55,-348.01 1563.55,-344.51 1553.55,-341.01 1553.55,-348.01"/>
<text text-anchor="middle" x="1509" y="-348.31" font-family="Times,serif" font-size="14.00">Learn_Assert</text>
</g>
<!-- q3&#45;&gt;q2 -->
<g id="edge5" class="edge"><title>q3&#45;&gt;q2</title>
<path fill="none" stroke="green" d="M587.239,-503.18C593.098,-505.075 599.796,-507.069 606,-508.51 654.614,-519.802 667.091,-525.51 717,-525.51 717,-525.51 717,-525.51 1278,-525.51 1340.29,-525.51 1360.86,-504.968 1400,-456.51 1419.51,-432.352 1428.2,-397.251 1432.03,-372.805"/>
<polygon fill="green" stroke="green" points="1435.52,-373.11 1433.43,-362.723 1428.59,-372.146 1435.52,-373.11"/>
<text text-anchor="middle" x="956" y="-529.31" font-family="Times,serif" font-size="14.00">inspect_after</text>
</g>
<!-- q7 -->
<g id="node9" class="node"><title>q7</title>
<ellipse fill="none" stroke="black" cx="718" cy="-466.51" rx="18" ry="18"/>
</g>
<!-- q3&#45;&gt;q7 -->
<g id="edge4" class="edge"><title>q3&#45;&gt;q7</title>
<path fill="none" stroke="black" d="M587.748,-493.954C612.697,-488.656 659.889,-478.636 689.823,-472.28"/>
<polygon fill="black" stroke="black" points="690.943,-475.621 699.998,-470.12 689.489,-468.773 690.943,-475.621"/>
<text text-anchor="middle" x="644" y="-493.31" font-family="Times,serif" font-size="14.00">seq_sort_core</text>
</g>
<!-- q4 -->
<g id="node6" class="node"><title>q4</title>
<ellipse fill="none" stroke="black" cx="1277" cy="-238.51" rx="18" ry="18"/>
</g>
<!-- q4&#45;&gt;q2 -->
<g id="edge6" class="edge"><title>q4&#45;&gt;q2</title>
<path fill="none" stroke="green" d="M1293.05,-247.158C1316.5,-260.816 1362.9,-288.6 1400,-315.51 1404.71,-318.927 1409.61,-322.781 1414.2,-326.539"/>
<polygon fill="green" stroke="green" points="1412.11,-329.349 1422.02,-333.08 1416.6,-323.979 1412.11,-329.349"/>
<text text-anchor="middle" x="1365" y="-319.31" font-family="Times,serif" font-size="14.00">inspect_after</text>
</g>
<!-- q5 -->
<g id="node7" class="node"><title>q5</title>
<ellipse fill="none" stroke="black" cx="1063" cy="-200.51" rx="18" ry="18"/>
</g>
<!-- q5&#45;&gt;q2 -->
<g id="edge9" class="edge"><title>q5&#45;&gt;q2</title>
<path fill="none" stroke="green" d="M1080.1,-194.19C1090.23,-190.56 1103.67,-186.364 1116,-184.51 1202.3,-171.532 1231.74,-162.223 1312,-196.51 1357.96,-216.144 1369.35,-227.039 1400,-266.51 1411.87,-281.8 1420.73,-301.757 1426.57,-317.656"/>
<polygon fill="green" stroke="green" points="1423.38,-319.133 1429.97,-327.429 1429.99,-316.834 1423.38,-319.133"/>
<text text-anchor="middle" x="1277" y="-200.31" font-family="Times,serif" font-size="14.00">inspect_after</text>
</g>
<!-- q5&#45;&gt;q4 -->
<g id="edge7" class="edge"><title>q5&#45;&gt;q4</title>
<path fill="none" stroke="black" d="M1080.21,-206.241C1090.38,-209.649 1103.83,-213.818 1116,-216.51 1162.04,-226.688 1216.64,-232.988 1248.68,-236.112"/>
<polygon fill="black" stroke="black" points="1248.74,-239.633 1259.02,-237.086 1249.4,-232.664 1248.74,-239.633"/>
<text text-anchor="middle" x="1170" y="-237.31" font-family="Times,serif" font-size="14.00">merge_single_node</text>
</g>
<!-- q5&#45;&gt;q4 -->
<g id="edge8" class="edge"><title>q5&#45;&gt;q4</title>
<path fill="none" stroke="black" d="M1080.95,-196.465C1110.82,-190.139 1174.39,-180.304 1224,-197.51 1236.27,-201.764 1247.83,-210.242 1256.92,-218.39"/>
<polygon fill="black" stroke="black" points="1254.58,-220.991 1264.23,-225.352 1259.4,-215.921 1254.58,-220.991"/>
<text text-anchor="middle" x="1170" y="-201.31" font-family="Times,serif" font-size="14.00">seq_sort_core</text>
</g>
<!-- q6 -->
<g id="node8" class="node"><title>q6</title>
<ellipse fill="none" stroke="black" cx="866" cy="-200.51" rx="18" ry="18"/>
</g>
<!-- q6&#45;&gt;q2 -->
<g id="edge13" class="edge"><title>q6&#45;&gt;q2</title>
<path fill="none" stroke="green" d="M871.37,-183.041C876.363,-166.089 885.986,-140.501 902,-123.51 1006.02,-13.1377 1075.18,18.7532 1224,-10.5098 1310.21,-27.4609 1351.75,-27.0908 1400,-100.51 1423.02,-135.535 1431.3,-259.809 1433.92,-316.251"/>
<polygon fill="green" stroke="green" points="1430.43,-316.439 1434.36,-326.277 1437.42,-316.133 1430.43,-316.439"/>
<text text-anchor="middle" x="1170" y="-14.3098" font-family="Times,serif" font-size="14.00">inspect_after</text>
</g>
<!-- q6&#45;&gt;q5 -->
<g id="edge11" class="edge"><title>q6&#45;&gt;q5</title>
<path fill="none" stroke="black" d="M884.305,-200.51C918.274,-200.51 993.913,-200.51 1034.69,-200.51"/>
<polygon fill="black" stroke="black" points="1034.73,-204.01 1044.73,-200.51 1034.73,-197.01 1034.73,-204.01"/>
<text text-anchor="middle" x="956" y="-204.31" font-family="Times,serif" font-size="14.00">merge_pair</text>
</g>
<!-- q8 -->
<g id="node10" class="node"><title>q8</title>
<ellipse fill="none" stroke="black" cx="1063" cy="-276.51" rx="18" ry="18"/>
</g>
<!-- q6&#45;&gt;q8 -->
<g id="edge12" class="edge"><title>q6&#45;&gt;q8</title>
<path fill="none" stroke="black" d="M882.074,-209.358C888.157,-212.752 895.307,-216.523 902,-219.51 947.724,-239.917 1003.19,-258.33 1035.35,-268.416"/>
<polygon fill="black" stroke="black" points="1034.73,-271.888 1045.32,-271.508 1036.8,-265.202 1034.73,-271.888"/>
<text text-anchor="middle" x="956" y="-264.31" font-family="Times,serif" font-size="14.00">seq_sort_core</text>
</g>
<!-- q11 -->
<g id="node13" class="node"><title>q11</title>
<ellipse fill="none" stroke="black" cx="1063" cy="-99.5098" rx="18" ry="18"/>
</g>
<!-- q6&#45;&gt;q11 -->
<g id="edge10" class="edge"><title>q6&#45;&gt;q11</title>
<path fill="none" stroke="black" d="M882.291,-192.107C888.403,-188.775 895.518,-184.93 902,-181.51 949.786,-156.299 1006.1,-127.692 1037.56,-111.808"/>
<polygon fill="black" stroke="black" points="1039.14,-114.932 1046.49,-107.304 1035.99,-108.682 1039.14,-114.932"/>
<text text-anchor="middle" x="956" y="-185.31" font-family="Times,serif" font-size="14.00">merge_single_node</text>
</g>
<!-- q7&#45;&gt;q2 -->
<g id="edge16" class="edge"><title>q7&#45;&gt;q2</title>
<path fill="none" stroke="green" d="M736.016,-469.595C763.185,-474.244 818.082,-482.51 865,-482.51 865,-482.51 865,-482.51 1278,-482.51 1340.74,-482.51 1356.66,-456.872 1400,-411.51 1411.05,-399.941 1419.52,-384.194 1425.35,-370.874"/>
<polygon fill="green" stroke="green" points="1428.73,-371.849 1429.3,-361.269 1422.26,-369.188 1428.73,-371.849"/>
<text text-anchor="middle" x="1063" y="-486.31" font-family="Times,serif" font-size="14.00">inspect_after</text>
</g>
<!-- q7&#45;&gt;q6 -->
<g id="edge14" class="edge"><title>q7&#45;&gt;q6</title>
<path fill="none" stroke="black" d="M727.481,-451.059C751.823,-406.708 822.061,-278.742 851.629,-224.871"/>
<polygon fill="black" stroke="black" points="854.753,-226.454 856.496,-216.003 848.616,-223.086 854.753,-226.454"/>
<text text-anchor="middle" x="792" y="-406.31" font-family="Times,serif" font-size="14.00">merge_pair</text>
</g>
<!-- q10 -->
<g id="node12" class="node"><title>q10</title>
<ellipse fill="none" stroke="black" cx="866" cy="-436.51" rx="18" ry="18"/>
</g>
<!-- q7&#45;&gt;q10 -->
<g id="edge15" class="edge"><title>q7&#45;&gt;q10</title>
<path fill="none" stroke="black" d="M734.811,-459.859C740.744,-457.571 747.6,-455.17 754,-453.51 782.056,-446.232 814.962,-441.674 837.622,-439.131"/>
<polygon fill="black" stroke="black" points="838.284,-442.58 847.857,-438.041 837.543,-435.62 838.284,-442.58"/>
<text text-anchor="middle" x="792" y="-457.31" font-family="Times,serif" font-size="14.00">seq_sort_core</text>
</g>
<!-- q8&#45;&gt;q2 -->
<g id="edge18" class="edge"><title>q8&#45;&gt;q2</title>
<path fill="none" stroke="green" d="M1073.49,-291.469C1082.63,-304.397 1097.73,-322.263 1116,-330.51 1167.57,-353.791 1339.73,-348.845 1407.38,-345.885"/>
<polygon fill="green" stroke="green" points="1407.83,-349.368 1417.66,-345.415 1407.51,-342.376 1407.83,-349.368"/>
<text text-anchor="middle" x="1277" y="-352.31" font-family="Times,serif" font-size="14.00">inspect_after</text>
</g>
<!-- q8&#45;&gt;q4 -->
<g id="edge17" class="edge"><title>q8&#45;&gt;q4</title>
<path fill="none" stroke="black" d="M1080.93,-274.615C1110.25,-271.19 1172.31,-263.308 1224,-252.51 1232.37,-250.762 1241.39,-248.478 1249.53,-246.263"/>
<polygon fill="black" stroke="black" points="1250.57,-249.606 1259.26,-243.539 1248.68,-242.865 1250.57,-249.606"/>
<text text-anchor="middle" x="1170" y="-274.31" font-family="Times,serif" font-size="14.00">merge_pair</text>
</g>
<!-- q9 -->
<g id="node11" class="node"><title>q9</title>
<ellipse fill="none" stroke="black" cx="1063" cy="-386.51" rx="18" ry="18"/>
</g>
<!-- q9&#45;&gt;q2 -->
<g id="edge21" class="edge"><title>q9&#45;&gt;q2</title>
<path fill="none" stroke="green" d="M1080.8,-389.352C1090.96,-390.925 1104.18,-392.718 1116,-393.51 1242.89,-402.012 1278.08,-394.682 1400,-358.51 1403.2,-357.56 1406.51,-356.434 1409.77,-355.238"/>
<polygon fill="green" stroke="green" points="1411.15,-358.456 1419.19,-351.552 1408.6,-351.937 1411.15,-358.456"/>
<text text-anchor="middle" x="1277" y="-399.31" font-family="Times,serif" font-size="14.00">inspect_after</text>
</g>
<!-- q9&#45;&gt;q4 -->
<g id="edge19" class="edge"><title>q9&#45;&gt;q4</title>
<path fill="none" stroke="black" d="M1080.66,-382.636C1116.94,-373.947 1201.58,-352.2 1224,-333.51 1245.44,-315.633 1259.51,-286.534 1267.54,-265.245"/>
<polygon fill="black" stroke="black" points="1270.84,-266.388 1270.9,-255.794 1264.25,-264.04 1270.84,-266.388"/>
<text text-anchor="middle" x="1170" y="-378.31" font-family="Times,serif" font-size="14.00">merge_single_node</text>
</g>
<!-- q9&#45;&gt;q4 -->
<g id="edge20" class="edge"><title>q9&#45;&gt;q4</title>
<path fill="none" stroke="black" d="M1071.31,-370.414C1079.71,-353.804 1095.07,-328.418 1116,-314.51 1157.04,-287.246 1180.8,-313.199 1224,-289.51 1237.12,-282.314 1249.23,-270.87 1258.45,-260.645"/>
<polygon fill="black" stroke="black" points="1261.32,-262.672 1265.19,-252.81 1256.02,-258.106 1261.32,-262.672"/>
<text text-anchor="middle" x="1170" y="-318.31" font-family="Times,serif" font-size="14.00">merge_pair</text>
</g>
<!-- q10&#45;&gt;q2 -->
<g id="edge23" class="edge"><title>q10&#45;&gt;q2</title>
<path fill="none" stroke="green" d="M884.202,-437.486C944.017,-440.498 1148.22,-447.553 1312,-414.51 1352.79,-406.279 1365.36,-405.581 1400,-382.51 1406.57,-378.134 1412.76,-372.276 1418.05,-366.473"/>
<polygon fill="green" stroke="green" points="1420.83,-368.611 1424.67,-358.736 1415.51,-364.062 1420.83,-368.611"/>
<text text-anchor="middle" x="1170" y="-441.31" font-family="Times,serif" font-size="14.00">inspect_after</text>
</g>
<!-- q10&#45;&gt;q9 -->
<g id="edge22" class="edge"><title>q10&#45;&gt;q9</title>
<path fill="none" stroke="black" d="M879.106,-423.559C885.362,-417.684 893.465,-411.232 902,-407.51 945.607,-388.494 1001.76,-385.465 1034.63,-385.581"/>
<polygon fill="black" stroke="black" points="1034.78,-389.084 1044.83,-385.723 1034.88,-382.085 1034.78,-389.084"/>
<text text-anchor="middle" x="956" y="-411.31" font-family="Times,serif" font-size="14.00">merge_pair</text>
</g>
<!-- q11&#45;&gt;q2 -->
<g id="edge27" class="edge"><title>q11&#45;&gt;q2</title>
<path fill="none" stroke="green" d="M1072.85,-84.0743C1081.75,-70.2675 1096.88,-50.9468 1116,-42.5098 1159.91,-23.1295 1179.2,-25.271 1224,-42.5098 1322.38,-80.3689 1345.98,-110.989 1400,-201.51 1421.47,-237.477 1429.79,-285.994 1433,-316.255"/>
<polygon fill="green" stroke="green" points="1429.55,-316.894 1433.97,-326.521 1436.52,-316.237 1429.55,-316.894"/>
<text text-anchor="middle" x="1277" y="-91.3098" font-family="Times,serif" font-size="14.00">inspect_after</text>
</g>
<!-- q11&#45;&gt;q4 -->
<g id="edge24" class="edge"><title>q11&#45;&gt;q4</title>
<path fill="none" stroke="black" d="M1080.2,-105.395C1115.94,-118.561 1200.21,-150.713 1224,-169.51 1239.59,-181.832 1252.98,-199.883 1262.26,-214.431"/>
<polygon fill="black" stroke="black" points="1259.28,-216.264 1267.49,-222.955 1265.24,-212.602 1259.28,-216.264"/>
<text text-anchor="middle" x="1170" y="-173.31" font-family="Times,serif" font-size="14.00">merge_single_node</text>
</g>
<!-- q11&#45;&gt;q4 -->
<g id="edge25" class="edge"><title>q11&#45;&gt;q4</title>
<path fill="none" stroke="black" d="M1080.28,-93.7881C1111.94,-83.799 1182.34,-67.3169 1224,-101.51 1253.85,-126.01 1227.18,-150.851 1242,-186.51 1246.35,-196.968 1252.85,-207.595 1259,-216.493"/>
<polygon fill="black" stroke="black" points="1256.27,-218.68 1264.95,-224.745 1261.94,-214.586 1256.27,-218.68"/>
<text text-anchor="middle" x="1170" y="-105.31" font-family="Times,serif" font-size="14.00">merge_pair</text>
</g>
<!-- q11&#45;&gt;q4 -->
<g id="edge26" class="edge"><title>q11&#45;&gt;q4</title>
<path fill="none" stroke="black" d="M1076.42,-87.2484C1086.25,-78.4652 1100.8,-67.365 1116,-62.5098 1161.72,-47.9029 1187.7,-31.101 1224,-62.5098 1245.06,-80.7297 1232.15,-160.466 1242,-186.51 1246.01,-197.103 1252.45,-207.754 1258.65,-216.634"/>
<polygon fill="black" stroke="black" points="1255.94,-218.858 1264.67,-224.855 1261.59,-214.72 1255.94,-218.858"/>
<text text-anchor="middle" x="1170" y="-66.3098" font-family="Times,serif" font-size="14.00">seq_sort_core</text>
</g>
<!-- iq0 -->
<g id="node14" class="node"><title>iq0</title>
</g>
<!-- iq0&#45;&gt;q0 -->
<g id="edge1" class="edge"><title>iq0&#45;&gt;q0</title>
<path fill="none" stroke="blue" d="M208.047,-497.51C252.853,-497.51 344.092,-497.51 389.729,-497.51"/>
<polygon fill="blue" stroke="blue" points="389.778,-501.01 399.778,-497.51 389.778,-494.01 389.778,-501.01"/>
</g>
</g>
</svg>
