<?xml version="1.0" encoding="UTF-8" standalone="no"?>
<!DOCTYPE svg PUBLIC "-//W3C//DTD SVG 1.1//EN"
 "http://www.w3.org/Graphics/SVG/1.1/DTD/svg11.dtd">
<!-- Generated by graphviz version 2.34.0 (20141125.1709)
 -->
<!-- Title: finite_automaton Pages: 1 -->
<svg width="576pt" height="89pt"
 viewBox="0.00 0.00 576.00 89.03" xmlns="http://www.w3.org/2000/svg" xmlns:xlink="http://www.w3.org/1999/xlink">
<g id="graph0" class="graph" transform="scale(0.410256 0.410256) rotate(0) translate(4 213)">
<title>finite_automaton</title>
<polygon fill="white" stroke="white" points="-4,4 -4,-213 1400,-213 1400,4 -4,4"/>
<!-- dom_edges -->
<g id="node1" class="node"><title>dom_edges</title>
<polygon fill="none" stroke="green" points="361.5,-135 0.5,-135 0.5,-99 361.5,-99 361.5,-135"/>
<text text-anchor="middle" x="181" y="-113.3" font-family="Times,serif" font-size="14.00">Dominating edges: inspect_before, inspect_after, Learn_Assert</text>
</g>
<!-- q1 -->
<g id="node2" class="node"><title>q1</title>
<ellipse fill="none" stroke="green" cx="1374" cy="-120" rx="18" ry="18"/>
<ellipse fill="none" stroke="green" cx="1374" cy="-120" rx="22" ry="22"/>
<text text-anchor="middle" x="1374" y="-116.3" font-family="Times,serif" font-size="14.00">D</text>
</g>
<!-- q0 -->
<g id="node3" class="node"><title>q0</title>
<ellipse fill="none" stroke="green" cx="418" cy="-171" rx="18" ry="18"/>
</g>
<!-- q3 -->
<g id="node5" class="node"><title>q3</title>
<ellipse fill="none" stroke="green" cx="570" cy="-171" rx="18" ry="18"/>
</g>
<!-- q0&#45;&gt;q3 -->
<g id="edge2" class="edge"><title>q0&#45;&gt;q3</title>
<path fill="none" stroke="green" d="M436.207,-171C462.09,-171 511.273,-171 541.974,-171"/>
<polygon fill="green" stroke="green" points="541.994,-174.5 551.994,-171 541.994,-167.5 541.994,-174.5"/>
<text text-anchor="middle" x="494" y="-174.8" font-family="Times,serif" font-size="14.00">inspect_before</text>
</g>
<!-- q2 -->
<g id="node4" class="node"><title>q2</title>
<ellipse fill="none" stroke="green" cx="1224" cy="-120" rx="18" ry="18"/>
</g>
<!-- q2&#45;&gt;q1 -->
<g id="edge3" class="edge"><title>q2&#45;&gt;q1</title>
<path fill="none" stroke="green" d="M1242.27,-120C1266.55,-120 1311.2,-120 1341.49,-120"/>
<polygon fill="green" stroke="green" points="1341.55,-123.5 1351.55,-120 1341.55,-116.5 1341.55,-123.5"/>
<text text-anchor="middle" x="1297" y="-123.8" font-family="Times,serif" font-size="14.00">Learn_Assert</text>
</g>
<!-- q3&#45;&gt;q2 -->
<g id="edge5" class="edge"><title>q3&#45;&gt;q2</title>
<path fill="none" stroke="green" d="M587.507,-175.326C614.423,-181.989 669.529,-194 717,-194 717,-194 717,-194 1066,-194 1118.7,-194 1172.68,-159.457 1201.58,-137.572"/>
<polygon fill="green" stroke="green" points="1203.98,-140.143 1209.72,-131.239 1199.68,-134.619 1203.98,-140.143"/>
<text text-anchor="middle" x="886" y="-197.8" font-family="Times,serif" font-size="14.00">inspect_after</text>
</g>
<!-- q6 -->
<g id="node7" class="node"><title>q6</title>
<ellipse fill="none" stroke="black" cx="718" cy="-105" rx="18" ry="18"/>
</g>
<!-- q3&#45;&gt;q6 -->
<g id="edge4" class="edge"><title>q3&#45;&gt;q6</title>
<path fill="none" stroke="black" d="M586.625,-163.937C611.739,-152.584 661.33,-130.166 691.588,-116.488"/>
<polygon fill="black" stroke="black" points="693.375,-119.521 701.045,-112.212 690.491,-113.142 693.375,-119.521"/>
<text text-anchor="middle" x="644" y="-158.8" font-family="Times,serif" font-size="14.00">seq_sort_core</text>
</g>
<!-- q5 -->
<g id="node6" class="node"><title>q5</title>
<ellipse fill="none" stroke="black" cx="886" cy="-18" rx="18" ry="18"/>
</g>
<!-- q5&#45;&gt;q2 -->
<g id="edge9" class="edge"><title>q5&#45;&gt;q2</title>
<path fill="none" stroke="green" d="M904.08,-15.7934C940.903,-11.6609 1030.09,-5.02973 1100,-27 1144.23,-40.8982 1152.24,-53.4927 1188,-83 1193.77,-87.7645 1199.56,-93.424 1204.71,-98.8656"/>
<polygon fill="green" stroke="green" points="1202.41,-101.534 1211.74,-106.552 1207.57,-96.8103 1202.41,-101.534"/>
<text text-anchor="middle" x="1065" y="-30.8" font-family="Times,serif" font-size="14.00">inspect_after</text>
</g>
<!-- q5&#45;&gt;q5 -->
<g id="edge6" class="edge"><title>q5&#45;&gt;q5</title>
<path fill="none" stroke="black" d="M872.355,-30.1718C865.28,-41.6016 869.828,-54 886,-54 897.624,-54 903.242,-47.5949 902.856,-39.7481"/>
<polygon fill="black" stroke="black" points="906.143,-38.54 899.645,-30.1718 899.506,-40.7657 906.143,-38.54"/>
<text text-anchor="middle" x="886" y="-57.8" font-family="Times,serif" font-size="14.00">merge_single_node</text>
</g>
<!-- q5&#45;&gt;q6 -->
<g id="edge8" class="edge"><title>q5&#45;&gt;q6</title>
<path fill="none" stroke="black" d="M869.316,-24.877C835.113,-39.8836 756.643,-74.3634 754,-76 749.052,-79.0635 744.05,-82.7688 739.436,-86.4917"/>
<polygon fill="black" stroke="black" points="737.022,-83.9487 731.645,-93.0773 741.541,-89.2948 737.022,-83.9487"/>
<text text-anchor="middle" x="792" y="-79.8" font-family="Times,serif" font-size="14.00">seq_sort_core</text>
</g>
<!-- q7 -->
<g id="node8" class="node"><title>q7</title>
<ellipse fill="none" stroke="black" cx="1065" cy="-69" rx="18" ry="18"/>
</g>
<!-- q5&#45;&gt;q7 -->
<g id="edge7" class="edge"><title>q5&#45;&gt;q7</title>
<path fill="none" stroke="black" d="M903.652,-22.798C934.434,-31.6674 1000.47,-50.6937 1037.47,-61.3566"/>
<polygon fill="black" stroke="black" points="1036.94,-64.8463 1047.52,-64.2519 1038.88,-58.12 1036.94,-64.8463"/>
<text text-anchor="middle" x="977" y="-57.8" font-family="Times,serif" font-size="14.00">merge_pair</text>
</g>
<!-- q6&#45;&gt;q2 -->
<g id="edge12" class="edge"><title>q6&#45;&gt;q2</title>
<path fill="none" stroke="green" d="M735.658,-108.812C741.438,-110.006 747.978,-111.216 754,-112 906.675,-131.876 946.047,-130.749 1100,-129 1139.12,-128.556 1149.12,-131.297 1188,-127 1190.74,-126.698 1193.57,-126.29 1196.4,-125.822"/>
<polygon fill="green" stroke="green" points="1197.18,-129.237 1206.36,-123.946 1195.88,-122.358 1197.18,-129.237"/>
<text text-anchor="middle" x="977" y="-132.8" font-family="Times,serif" font-size="14.00">inspect_after</text>
</g>
<!-- q6&#45;&gt;q5 -->
<g id="edge10" class="edge"><title>q6&#45;&gt;q5</title>
<path fill="none" stroke="black" d="M721.239,-87.016C724.673,-67.8601 733.201,-38.3628 754,-24 784.732,-2.77816 829.869,-6.29024 858.331,-11.5516"/>
<polygon fill="black" stroke="black" points="857.859,-15.0275 868.358,-13.6058 859.264,-8.16995 857.859,-15.0275"/>
<text text-anchor="middle" x="792" y="-27.8" font-family="Times,serif" font-size="14.00">merge_pair</text>
</g>
<!-- q6&#45;&gt;q6 -->
<g id="edge11" class="edge"><title>q6&#45;&gt;q6</title>
<path fill="none" stroke="black" d="M706.076,-118.667C701.307,-129.656 705.281,-141 718,-141 726.744,-141 731.355,-135.638 731.834,-128.716"/>
<polygon fill="black" stroke="black" points="735.229,-127.838 729.924,-118.667 728.352,-129.145 735.229,-127.838"/>
<text text-anchor="middle" x="718" y="-144.8" font-family="Times,serif" font-size="14.00">seq_sort_core</text>
</g>
<!-- q7&#45;&gt;q2 -->
<g id="edge15" class="edge"><title>q7&#45;&gt;q2</title>
<path fill="none" stroke="green" d="M1082.51,-74.3615C1109.78,-83.223 1164.49,-100.993 1197,-111.555"/>
<polygon fill="green" stroke="green" points="1196.12,-114.95 1206.72,-114.71 1198.29,-108.292 1196.12,-114.95"/>
<text text-anchor="middle" x="1153" y="-111.8" font-family="Times,serif" font-size="14.00">inspect_after</text>
</g>
<!-- q7&#45;&gt;q6 -->
<g id="edge14" class="edge"><title>q7&#45;&gt;q6</title>
<path fill="none" stroke="black" d="M1046.79,-70.796C990.885,-76.6294 814.106,-95.0759 746.061,-102.176"/>
<polygon fill="black" stroke="black" points="745.691,-98.6957 736.109,-103.215 746.418,-105.658 745.691,-98.6957"/>
<text text-anchor="middle" x="886" y="-95.8" font-family="Times,serif" font-size="14.00">seq_sort_core</text>
</g>
<!-- q7&#45;&gt;q7 -->
<g id="edge13" class="edge"><title>q7&#45;&gt;q7</title>
<path fill="none" stroke="black" d="M1051.66,-81.1718C1044.74,-92.6016 1049.19,-105 1065,-105 1076.37,-105 1081.86,-98.5949 1081.48,-90.7481"/>
<polygon fill="black" stroke="black" points="1084.78,-89.5835 1078.34,-81.1718 1078.13,-91.7645 1084.78,-89.5835"/>
<text text-anchor="middle" x="1065" y="-108.8" font-family="Times,serif" font-size="14.00">merge_single_node</text>
</g>
<!-- iq0 -->
<g id="node9" class="node"><title>iq0</title>
</g>
<!-- iq0&#45;&gt;q0 -->
<g id="edge1" class="edge"><title>iq0&#45;&gt;q0</title>
<path fill="none" stroke="blue" d="M208.047,-171C252.853,-171 344.092,-171 389.729,-171"/>
<polygon fill="blue" stroke="blue" points="389.778,-174.5 399.778,-171 389.778,-167.5 389.778,-174.5"/>
</g>
</g>
</svg>
