<?xml version="1.0" encoding="UTF-8" standalone="no"?>
<!DOCTYPE svg PUBLIC "-//W3C//DTD SVG 1.1//EN"
 "http://www.w3.org/Graphics/SVG/1.1/DTD/svg11.dtd">
<!-- Generated by graphviz version 2.34.0 (20141125.1709)
 -->
<!-- Title: finite_automaton Pages: 1 -->
<svg width="576pt" height="125pt"
 viewBox="0.00 0.00 576.00 125.23" xmlns="http://www.w3.org/2000/svg" xmlns:xlink="http://www.w3.org/1999/xlink">
<g id="graph0" class="graph" transform="scale(0.341232 0.341232) rotate(0) translate(4 363)">
<title>finite_automaton</title>
<polygon fill="white" stroke="white" points="-4,4 -4,-363 1684,-363 1684,4 -4,4"/>
<!-- dom_edges -->
<g id="node1" class="node"><title>dom_edges</title>
<polygon fill="none" stroke="green" points="361.5,-57 0.5,-57 0.5,-21 361.5,-21 361.5,-57"/>
<text text-anchor="middle" x="181" y="-35.3" font-family="Times,serif" font-size="14.00">Dominating edges: inspect_before, inspect_after, Learn_Assert</text>
</g>
<!-- q1 -->
<g id="node2" class="node"><title>q1</title>
<ellipse fill="none" stroke="green" cx="1658" cy="-212" rx="18" ry="18"/>
<ellipse fill="none" stroke="green" cx="1658" cy="-212" rx="22" ry="22"/>
<text text-anchor="middle" x="1658" y="-208.3" font-family="Times,serif" font-size="14.00">D</text>
</g>
<!-- q0 -->
<g id="node3" class="node"><title>q0</title>
<ellipse fill="none" stroke="green" cx="418" cy="-93" rx="18" ry="18"/>
</g>
<!-- q3 -->
<g id="node5" class="node"><title>q3</title>
<ellipse fill="none" stroke="green" cx="570" cy="-93" rx="18" ry="18"/>
</g>
<!-- q0&#45;&gt;q3 -->
<g id="edge2" class="edge"><title>q0&#45;&gt;q3</title>
<path fill="none" stroke="green" d="M436.207,-93C462.09,-93 511.273,-93 541.974,-93"/>
<polygon fill="green" stroke="green" points="541.994,-96.5001 551.994,-93 541.994,-89.5001 541.994,-96.5001"/>
<text text-anchor="middle" x="494" y="-96.8" font-family="Times,serif" font-size="14.00">inspect_before</text>
</g>
<!-- q2 -->
<g id="node4" class="node"><title>q2</title>
<ellipse fill="none" stroke="green" cx="1508" cy="-212" rx="18" ry="18"/>
</g>
<!-- q2&#45;&gt;q1 -->
<g id="edge3" class="edge"><title>q2&#45;&gt;q1</title>
<path fill="none" stroke="green" d="M1526.27,-212C1550.55,-212 1595.2,-212 1625.49,-212"/>
<polygon fill="green" stroke="green" points="1625.55,-215.5 1635.55,-212 1625.55,-208.5 1625.55,-215.5"/>
<text text-anchor="middle" x="1581" y="-215.8" font-family="Times,serif" font-size="14.00">Learn_Assert</text>
</g>
<!-- q3&#45;&gt;q2 -->
<g id="edge5" class="edge"><title>q3&#45;&gt;q2</title>
<path fill="none" stroke="green" d="M572.789,-111.051C579.578,-168.603 609.118,-344 717,-344 717,-344 717,-344 1350,-344 1411.23,-344 1428.87,-323.464 1472,-280 1483.59,-268.32 1492.16,-252.014 1497.92,-238.297"/>
<polygon fill="green" stroke="green" points="1501.22,-239.458 1501.62,-228.87 1494.71,-236.901 1501.22,-239.458"/>
<text text-anchor="middle" x="1028" y="-347.8" font-family="Times,serif" font-size="14.00">inspect_after</text>
</g>
<!-- q8 -->
<g id="node9" class="node"><title>q8</title>
<ellipse fill="none" stroke="black" cx="718" cy="-186" rx="18" ry="18"/>
</g>
<!-- q3&#45;&gt;q8 -->
<g id="edge4" class="edge"><title>q3&#45;&gt;q8</title>
<path fill="none" stroke="black" d="M585.533,-102.257C610.894,-118.412 663.427,-151.875 693.849,-171.253"/>
<polygon fill="black" stroke="black" points="692.211,-174.36 702.526,-176.78 695.972,-168.456 692.211,-174.36"/>
<text text-anchor="middle" x="644" y="-166.8" font-family="Times,serif" font-size="14.00">seq_sort_core</text>
</g>
<!-- q5 -->
<g id="node6" class="node"><title>q5</title>
<ellipse fill="none" stroke="black" cx="1349" cy="-74" rx="18" ry="18"/>
</g>
<!-- q5&#45;&gt;q2 -->
<g id="edge8" class="edge"><title>q5&#45;&gt;q2</title>
<path fill="none" stroke="green" d="M1366.95,-72.4577C1392.94,-71.0719 1442.68,-72.4302 1472,-99 1495.7,-120.48 1503.52,-157.65 1506.01,-183.468"/>
<polygon fill="green" stroke="green" points="1502.54,-184.048 1506.78,-193.759 1509.52,-183.525 1502.54,-184.048"/>
<text text-anchor="middle" x="1437" y="-102.8" font-family="Times,serif" font-size="14.00">inspect_after</text>
</g>
<!-- q5&#45;&gt;q3 -->
<g id="edge6" class="edge"><title>q5&#45;&gt;q3</title>
<path fill="none" stroke="black" d="M1334.78,-62.3639C1324.78,-54.1342 1310.35,-43.4563 1296,-37 1229.44,-7.04923 1208.99,-7.10543e-15 1136,-0 717,-0 717,-0 717,-0 664.998,-0 646.858,-4.83105 606,-37 595.828,-45.0088 587.82,-56.8481 582.046,-67.5804"/>
<polygon fill="black" stroke="black" points="578.877,-66.0916 577.548,-76.6028 585.142,-69.2145 578.877,-66.0916"/>
<text text-anchor="middle" x="902" y="-3.8" font-family="Times,serif" font-size="14.00">merge_single_node</text>
</g>
<!-- q5&#45;&gt;q3 -->
<g id="edge7" class="edge"><title>q5&#45;&gt;q3</title>
<path fill="none" stroke="black" d="M1331.03,-70.8981C1295.16,-64.6201 1208.93,-51 1136,-51 717,-51 717,-51 717,-51 673.116,-51 624.603,-68.7413 596.015,-81.1627"/>
<polygon fill="black" stroke="black" points="594.474,-78.018 586.775,-85.2966 597.332,-84.4078 594.474,-78.018"/>
<text text-anchor="middle" x="902" y="-54.8" font-family="Times,serif" font-size="14.00">seq_sort_core</text>
</g>
<!-- q6 -->
<g id="node7" class="node"><title>q6</title>
<ellipse fill="none" stroke="black" cx="1135" cy="-128" rx="18" ry="18"/>
</g>
<!-- q6&#45;&gt;q2 -->
<g id="edge12" class="edge"><title>q6&#45;&gt;q2</title>
<path fill="none" stroke="green" d="M1153,-128.193C1182.44,-128.813 1244.66,-131.39 1296,-142 1365.02,-156.264 1442.93,-185.795 1481.93,-201.555"/>
<polygon fill="green" stroke="green" points="1480.62,-204.8 1491.2,-205.339 1483.27,-198.319 1480.62,-204.8"/>
<text text-anchor="middle" x="1349" y="-167.8" font-family="Times,serif" font-size="14.00">inspect_after</text>
</g>
<!-- q6&#45;&gt;q5 -->
<g id="edge10" class="edge"><title>q6&#45;&gt;q5</title>
<path fill="none" stroke="black" d="M1150.36,-118.158C1160.46,-111.712 1174.51,-103.648 1188,-99 1232.9,-83.5283 1288.2,-77.5897 1320.63,-75.3396"/>
<polygon fill="black" stroke="black" points="1320.95,-78.827 1330.71,-74.7096 1320.51,-71.8407 1320.95,-78.827"/>
<text text-anchor="middle" x="1242" y="-102.8" font-family="Times,serif" font-size="14.00">merge_pair</text>
</g>
<!-- q6&#45;&gt;q8 -->
<g id="edge9" class="edge"><title>q6&#45;&gt;q8</title>
<path fill="none" stroke="black" d="M1116.86,-129.64C1072.37,-133.984 949.582,-146.521 848,-162 812.57,-167.399 771.968,-175.226 745.931,-180.458"/>
<polygon fill="black" stroke="black" points="745.156,-177.044 736.05,-182.46 746.546,-183.904 745.156,-177.044"/>
<text text-anchor="middle" x="902" y="-165.8" font-family="Times,serif" font-size="14.00">merge_single_node</text>
</g>
<!-- q6&#45;&gt;q8 -->
<g id="edge11" class="edge"><title>q6&#45;&gt;q8</title>
<path fill="none" stroke="black" d="M1117.07,-126.033C1072.58,-121.287 948.831,-110.815 848,-128 804.352,-135.439 793.296,-140.595 754,-161 749.514,-163.329 744.954,-166.175 740.672,-169.1"/>
<polygon fill="black" stroke="black" points="738.448,-166.389 732.386,-175.078 742.544,-172.065 738.448,-166.389"/>
<text text-anchor="middle" x="902" y="-131.8" font-family="Times,serif" font-size="14.00">seq_sort_core</text>
</g>
<!-- q7 -->
<g id="node8" class="node"><title>q7</title>
<ellipse fill="none" stroke="black" cx="902" cy="-204" rx="18" ry="18"/>
</g>
<!-- q7&#45;&gt;q2 -->
<g id="edge16" class="edge"><title>q7&#45;&gt;q2</title>
<path fill="none" stroke="green" d="M919.813,-207.924C934.128,-211.061 955.288,-215.218 974,-217 1124.44,-231.328 1162.88,-219.333 1314,-220 1384.22,-220.31 1402.22,-227.873 1472,-220 1474.75,-219.69 1477.6,-219.246 1480.43,-218.725"/>
<polygon fill="green" stroke="green" points="1481.35,-222.109 1490.4,-216.598 1479.89,-215.263 1481.35,-222.109"/>
<text text-anchor="middle" x="1242" y="-225.8" font-family="Times,serif" font-size="14.00">inspect_after</text>
</g>
<!-- q7&#45;&gt;q6 -->
<g id="edge13" class="edge"><title>q7&#45;&gt;q6</title>
<path fill="none" stroke="black" d="M918.479,-196.101C932.656,-189.091 954.36,-178.915 974,-172 1020.77,-155.531 1034.29,-157.517 1082,-144 1090.53,-141.584 1099.79,-138.789 1108.11,-136.218"/>
<polygon fill="black" stroke="black" points="1109.16,-139.555 1117.66,-133.233 1107.07,-132.874 1109.16,-139.555"/>
<text text-anchor="middle" x="1028" y="-175.8" font-family="Times,serif" font-size="14.00">merge_single_node</text>
</g>
<!-- q7&#45;&gt;q8 -->
<g id="edge15" class="edge"><title>q7&#45;&gt;q8</title>
<path fill="none" stroke="black" d="M884.553,-198.942C870.285,-194.825 848.997,-189.329 830,-187 801.562,-183.513 768.717,-183.739 746.176,-184.541"/>
<polygon fill="black" stroke="black" points="745.847,-181.052 736.003,-184.968 746.14,-188.046 745.847,-181.052"/>
<text text-anchor="middle" x="792" y="-190.8" font-family="Times,serif" font-size="14.00">seq_sort_core</text>
</g>
<!-- q9 -->
<g id="node10" class="node"><title>q9</title>
<ellipse fill="none" stroke="black" cx="1135" cy="-188" rx="18" ry="18"/>
</g>
<!-- q7&#45;&gt;q9 -->
<g id="edge14" class="edge"><title>q7&#45;&gt;q9</title>
<path fill="none" stroke="black" d="M919.986,-202.823C959.701,-200.073 1058.9,-193.202 1107,-189.87"/>
<polygon fill="black" stroke="black" points="1107.25,-193.361 1116.99,-189.178 1106.77,-186.378 1107.25,-193.361"/>
<text text-anchor="middle" x="1028" y="-201.8" font-family="Times,serif" font-size="14.00">merge_pair</text>
</g>
<!-- q8&#45;&gt;q2 -->
<g id="edge19" class="edge"><title>q8&#45;&gt;q2</title>
<path fill="none" stroke="green" d="M725.232,-202.582C730.924,-215.703 740.515,-233.649 754,-245 807.487,-290.022 831.086,-301 901,-301 901,-301 901,-301 1350,-301 1405.61,-301 1459.57,-258.223 1487.44,-231.982"/>
<polygon fill="green" stroke="green" points="1490.16,-234.222 1494.91,-224.752 1485.29,-229.193 1490.16,-234.222"/>
<text text-anchor="middle" x="1135" y="-304.8" font-family="Times,serif" font-size="14.00">inspect_after</text>
</g>
<!-- q8&#45;&gt;q7 -->
<g id="edge17" class="edge"><title>q8&#45;&gt;q7</title>
<path fill="none" stroke="black" d="M734.194,-194.611C740.173,-197.549 747.221,-200.476 754,-202 795.029,-211.226 844.138,-209.405 873.93,-206.934"/>
<polygon fill="black" stroke="black" points="874.342,-210.411 883.981,-206.014 873.703,-203.441 874.342,-210.411"/>
<text text-anchor="middle" x="792" y="-211.8" font-family="Times,serif" font-size="14.00">merge_pair</text>
</g>
<!-- q8&#45;&gt;q8 -->
<g id="edge18" class="edge"><title>q8&#45;&gt;q8</title>
<path fill="none" stroke="black" d="M706.076,-199.667C701.307,-210.656 705.281,-222 718,-222 726.744,-222 731.355,-216.638 731.834,-209.716"/>
<polygon fill="black" stroke="black" points="735.229,-208.838 729.924,-199.667 728.352,-210.145 735.229,-208.838"/>
<text text-anchor="middle" x="718" y="-225.8" font-family="Times,serif" font-size="14.00">seq_sort_core</text>
</g>
<!-- q9&#45;&gt;q2 -->
<g id="edge22" class="edge"><title>q9&#45;&gt;q2</title>
<path fill="none" stroke="green" d="M1153.4,-189.125C1212.67,-192.96 1407.07,-205.535 1479.49,-210.22"/>
<polygon fill="green" stroke="green" points="1479.44,-213.724 1489.64,-210.877 1479.89,-206.739 1479.44,-213.724"/>
<text text-anchor="middle" x="1349" y="-206.8" font-family="Times,serif" font-size="14.00">inspect_after</text>
</g>
<!-- q9&#45;&gt;q5 -->
<g id="edge20" class="edge"><title>q9&#45;&gt;q5</title>
<path fill="none" stroke="black" d="M1151.32,-179.95C1161.6,-174.647 1175.5,-167.663 1188,-162 1235.21,-140.617 1251.67,-144.851 1296,-118 1307.42,-111.082 1318.89,-101.706 1328.13,-93.3864"/>
<polygon fill="black" stroke="black" points="1330.67,-95.8011 1335.63,-86.4356 1325.92,-90.6678 1330.67,-95.8011"/>
<text text-anchor="middle" x="1242" y="-165.8" font-family="Times,serif" font-size="14.00">merge_single_node</text>
</g>
<!-- q9&#45;&gt;q8 -->
<g id="edge21" class="edge"><title>q9&#45;&gt;q8</title>
<path fill="none" stroke="black" d="M1119.7,-198.033C1109.64,-204.565 1095.59,-212.653 1082,-217 982.77,-248.752 952.162,-233.215 848,-231 806.194,-230.111 791.591,-245.315 754,-227 746.073,-223.138 739.24,-216.565 733.769,-209.8"/>
<polygon fill="black" stroke="black" points="736.307,-207.338 727.589,-201.317 730.649,-211.461 736.307,-207.338"/>
<text text-anchor="middle" x="902" y="-239.8" font-family="Times,serif" font-size="14.00">seq_sort_core</text>
</g>
<!-- iq0 -->
<g id="node11" class="node"><title>iq0</title>
</g>
<!-- iq0&#45;&gt;q0 -->
<g id="edge1" class="edge"><title>iq0&#45;&gt;q0</title>
<path fill="none" stroke="blue" d="M208.047,-93C252.853,-93 344.092,-93 389.729,-93"/>
<polygon fill="blue" stroke="blue" points="389.778,-96.5001 399.778,-93 389.778,-89.5001 389.778,-96.5001"/>
</g>
</g>
</svg>
