<?xml version="1.0" encoding="UTF-8" standalone="no"?>
<!DOCTYPE svg PUBLIC "-//W3C//DTD SVG 1.1//EN"
 "http://www.w3.org/Graphics/SVG/1.1/DTD/svg11.dtd">
<!-- Generated by graphviz version 2.34.0 (20141125.1709)
 -->
<!-- Title: finite_automaton Pages: 1 -->
<svg width="576pt" height="326pt"
 viewBox="0.00 0.00 576.00 325.75" xmlns="http://www.w3.org/2000/svg" xmlns:xlink="http://www.w3.org/1999/xlink">
<g id="graph0" class="graph" transform="scale(0.417997 0.417997) rotate(0) translate(4 775.316)">
<title>finite_automaton</title>
<polygon fill="white" stroke="white" points="-4,4 -4,-775.316 1374,-775.316 1374,4 -4,4"/>
<!-- dom_edges -->
<g id="node1" class="node"><title>dom_edges</title>
<polygon fill="none" stroke="green" points="361.5,-328.316 0.5,-328.316 0.5,-292.316 361.5,-292.316 361.5,-328.316"/>
<text text-anchor="middle" x="181" y="-306.616" font-family="Times,serif" font-size="14.00">Dominating edges: inspect_before, inspect_after, Learn_Assert</text>
</g>
<!-- q1 -->
<g id="node2" class="node"><title>q1</title>
<ellipse fill="none" stroke="green" cx="181" cy="-368.316" rx="18" ry="18"/>
<ellipse fill="none" stroke="green" cx="181" cy="-368.316" rx="22" ry="22"/>
<text text-anchor="middle" x="181" y="-364.616" font-family="Times,serif" font-size="14.00">D</text>
</g>
<!-- q0 -->
<g id="node3" class="node"><title>q0</title>
<ellipse fill="none" stroke="green" cx="524" cy="-349.316" rx="18" ry="18"/>
<text text-anchor="middle" x="524" y="-345.616" font-family="Times,serif" font-size="14.00">D</text>
</g>
<!-- q1&#45;&gt;q0 -->
<g id="edge8" class="edge"><title>q1&#45;&gt;q0</title>
<path fill="none" stroke="black" d="M203.037,-371.497C240.387,-375.854 318.439,-378.938 362,-337.316 388.977,-311.54 350.925,-278.701 380,-255.316 417.403,-225.233 448.579,-227.93 488,-255.316 509.139,-270.003 517.536,-299.067 520.857,-321.01"/>
<polygon fill="black" stroke="black" points="517.406,-321.624 522.113,-331.116 524.353,-320.761 517.406,-321.624"/>
<text text-anchor="middle" x="434" y="-259.116" font-family="Times,serif" font-size="14.00">merge_single_node</text>
</g>
<!-- q1&#45;&gt;q0 -->
<g id="edge9" class="edge"><title>q1&#45;&gt;q0</title>
<path fill="none" stroke="black" d="M200.224,-379.605C250.383,-409.085 393.043,-482.096 488,-422.316 503.709,-412.427 512.525,-393.312 517.379,-377.123"/>
<polygon fill="black" stroke="black" points="520.874,-377.595 520.029,-367.033 514.103,-375.816 520.874,-377.595"/>
<text text-anchor="middle" x="434" y="-448.116" font-family="Times,serif" font-size="14.00">merge_pair</text>
</g>
<!-- q1&#45;&gt;q0 -->
<g id="edge10" class="edge"><title>q1&#45;&gt;q0</title>
<path fill="none" stroke="black" d="M203.091,-371.751C263.543,-381.232 436.394,-405.692 488,-384.316 494.828,-381.488 501.018,-376.61 506.228,-371.379"/>
<polygon fill="black" stroke="black" points="509.072,-373.45 513.122,-363.66 503.85,-368.787 509.072,-373.45"/>
<text text-anchor="middle" x="434" y="-396.116" font-family="Times,serif" font-size="14.00">seq_sort_core</text>
</g>
<!-- q1&#45;&gt;q0 -->
<g id="edge11" class="edge"><title>q1&#45;&gt;q0</title>
<path fill="none" stroke="green" d="M203.074,-367.142C262.22,-363.847 429.742,-354.513 495.768,-350.834"/>
<polygon fill="green" stroke="green" points="496.025,-354.325 505.815,-350.274 495.636,-347.336 496.025,-354.325"/>
<text text-anchor="middle" x="434" y="-360.116" font-family="Times,serif" font-size="14.00">inspect_before</text>
</g>
<!-- q1&#45;&gt;q0 -->
<g id="edge12" class="edge"><title>q1&#45;&gt;q0</title>
<path fill="none" stroke="green" d="M203.002,-365.749C236.81,-361.382 305.258,-351.573 362,-337.316 370.179,-335.262 371.676,-332.667 380,-331.316 427.38,-323.628 441.347,-320.023 488,-331.316 491.74,-332.222 495.528,-333.6 499.162,-335.199"/>
<polygon fill="green" stroke="green" points="497.775,-338.419 508.283,-339.774 500.914,-332.162 497.775,-338.419"/>
<text text-anchor="middle" x="434" y="-335.116" font-family="Times,serif" font-size="14.00">inspect_after</text>
</g>
<!-- q1&#45;&gt;q0 -->
<g id="edge13" class="edge"><title>q1&#45;&gt;q0</title>
<path fill="none" stroke="green" d="M203.043,-370.192C239.048,-372.294 313.29,-371.686 362,-337.316 375.333,-327.909 365.914,-313.554 380,-305.316 421.434,-281.084 444.766,-284.463 488,-305.316 496.594,-309.462 503.728,-316.856 509.264,-324.415"/>
<polygon fill="green" stroke="green" points="506.604,-326.741 515.02,-333.178 512.455,-322.898 506.604,-326.741"/>
<text text-anchor="middle" x="434" y="-309.116" font-family="Times,serif" font-size="14.00">Learn_Assert</text>
</g>
<!-- q0&#45;&gt;q0 -->
<g id="edge2" class="edge"><title>q0&#45;&gt;q0</title>
<path fill="none" stroke="black" d="M520.764,-367.098C520.214,-376.631 521.293,-385.316 524,-385.316 525.65,-385.316 526.694,-382.091 527.135,-377.415"/>
<polygon fill="black" stroke="black" points="530.638,-377.132 527.236,-367.098 523.638,-377.063 530.638,-377.132"/>
<text text-anchor="middle" x="524" y="-389.116" font-family="Times,serif" font-size="14.00">merge_single_node</text>
</g>
<!-- q0&#45;&gt;q0 -->
<g id="edge3" class="edge"><title>q0&#45;&gt;q0</title>
<path fill="none" stroke="black" d="M518.684,-366.737C515.654,-384.107 517.426,-403.316 524,-403.316 529.29,-403.316 531.471,-390.878 530.542,-376.968"/>
<polygon fill="black" stroke="black" points="533.981,-376.249 529.316,-366.737 527.031,-377.082 533.981,-376.249"/>
<text text-anchor="middle" x="524" y="-407.116" font-family="Times,serif" font-size="14.00">merge_pair</text>
</g>
<!-- q0&#45;&gt;q0 -->
<g id="edge4" class="edge"><title>q0&#45;&gt;q0</title>
<path fill="none" stroke="black" d="M517.444,-366.309C511.057,-390.836 513.242,-421.316 524,-421.316 533.329,-421.316 536.211,-398.395 532.647,-376.311"/>
<polygon fill="black" stroke="black" points="536.028,-375.381 530.556,-366.309 529.176,-376.813 536.028,-375.381"/>
<text text-anchor="middle" x="524" y="-425.116" font-family="Times,serif" font-size="14.00">seq_sort_core</text>
</g>
<!-- q0&#45;&gt;q0 -->
<g id="edge6" class="edge"><title>q0&#45;&gt;q0</title>
<path fill="none" stroke="green" d="M516.594,-366.107C506.484,-397.389 508.953,-439.316 524,-439.316 537.519,-439.316 540.884,-405.473 534.097,-375.913"/>
<polygon fill="green" stroke="green" points="537.428,-374.824 531.406,-366.107 530.677,-376.677 537.428,-374.824"/>
<text text-anchor="middle" x="524" y="-443.116" font-family="Times,serif" font-size="14.00">inspect_after</text>
</g>
<!-- q0&#45;&gt;q0 -->
<g id="edge7" class="edge"><title>q0&#45;&gt;q0</title>
<path fill="none" stroke="green" d="M516.129,-365.568C501.909,-403.415 504.532,-457.316 524,-457.316 541.871,-457.316 545.548,-411.896 535.03,-375.168"/>
<polygon fill="green" stroke="green" points="538.322,-373.973 531.871,-365.568 531.673,-376.161 538.322,-373.973"/>
<text text-anchor="middle" x="524" y="-461.116" font-family="Times,serif" font-size="14.00">Learn_Assert</text>
</g>
<!-- q3 -->
<g id="node5" class="node"><title>q3</title>
<ellipse fill="none" stroke="green" cx="740" cy="-103.316" rx="18" ry="18"/>
<text text-anchor="middle" x="740" y="-99.6165" font-family="Times,serif" font-size="14.00">D</text>
</g>
<!-- q0&#45;&gt;q3 -->
<g id="edge5" class="edge"><title>q0&#45;&gt;q3</title>
<path fill="none" stroke="green" d="M524.589,-331.086C523.827,-278.272 524.811,-126.973 560,-96.3165 602.837,-58.9979 675.684,-78.5031 713.9,-92.738"/>
<polygon fill="green" stroke="green" points="712.681,-96.0192 723.27,-96.3837 715.22,-89.4957 712.681,-96.0192"/>
<text text-anchor="middle" x="614" y="-100.116" font-family="Times,serif" font-size="14.00">inspect_before</text>
</g>
<!-- q2 -->
<g id="node4" class="node"><title>q2</title>
<ellipse fill="none" stroke="green" cx="1352" cy="-560.316" rx="18" ry="18"/>
<text text-anchor="middle" x="1352" y="-556.616" font-family="Times,serif" font-size="14.00">D</text>
</g>
<!-- q2&#45;&gt;q1 -->
<g id="edge19" class="edge"><title>q2&#45;&gt;q1</title>
<path fill="none" stroke="green" d="M1351.72,-578.498C1351.94,-608.847 1348.03,-670.155 1316,-707.316 1277.85,-751.579 1252.43,-756.316 1194,-756.316 523,-756.316 523,-756.316 523,-756.316 368.143,-756.316 475.094,-553.101 362,-447.316 318.943,-407.042 252.026,-385.148 213.061,-375.168"/>
<polygon fill="green" stroke="green" points="213.401,-371.648 202.855,-372.664 211.733,-378.446 213.401,-371.648"/>
<text text-anchor="middle" x="866" y="-760.116" font-family="Times,serif" font-size="14.00">Learn_Assert</text>
</g>
<!-- q2&#45;&gt;q0 -->
<g id="edge14" class="edge"><title>q2&#45;&gt;q0</title>
<path fill="none" stroke="black" d="M1350.6,-578.682C1349.04,-604.09 1342.46,-649.821 1316,-676.316 1275.96,-716.41 1250.66,-713.316 1194,-713.316 739,-713.316 739,-713.316 739,-713.316 657.763,-713.316 614.585,-736.483 560,-676.316 540.072,-654.351 529.436,-452.625 526.136,-377.412"/>
<polygon fill="black" stroke="black" points="529.627,-377.11 525.703,-367.269 522.633,-377.41 529.627,-377.11"/>
<text text-anchor="middle" x="992" y="-717.116" font-family="Times,serif" font-size="14.00">merge_single_node</text>
</g>
<!-- q2&#45;&gt;q0 -->
<g id="edge15" class="edge"><title>q2&#45;&gt;q0</title>
<path fill="none" stroke="black" d="M1345.93,-577.386C1340.72,-592.108 1331.18,-612.9 1316,-625.316 1272.14,-661.193 1250.66,-662.316 1194,-662.316 739,-662.316 739,-662.316 739,-662.316 657.763,-662.316 615.169,-684.948 560,-625.316 527.132,-589.79 524.275,-440.744 524.585,-377.685"/>
<polygon fill="black" stroke="black" points="528.085,-377.671 524.665,-367.643 521.085,-377.615 528.085,-377.671"/>
<text text-anchor="middle" x="992" y="-666.116" font-family="Times,serif" font-size="14.00">merge_pair</text>
</g>
<!-- q2&#45;&gt;q0 -->
<g id="edge16" class="edge"><title>q2&#45;&gt;q0</title>
<path fill="none" stroke="black" d="M1335.93,-568.738C1308.56,-583.224 1248.45,-611.316 1194,-611.316 739,-611.316 739,-611.316 739,-611.316 657.763,-611.316 616.004,-633.164 560,-574.316 533.547,-546.521 527.087,-431.499 525.51,-377.523"/>
<polygon fill="black" stroke="black" points="529.002,-377.192 525.248,-367.285 522.005,-377.371 529.002,-377.192"/>
<text text-anchor="middle" x="992" y="-615.116" font-family="Times,serif" font-size="14.00">seq_sort_core</text>
</g>
<!-- q2&#45;&gt;q0 -->
<g id="edge17" class="edge"><title>q2&#45;&gt;q0</title>
<path fill="none" stroke="green" d="M1333.58,-560.316C1304.6,-560.316 1244.7,-560.316 1194,-560.316 739,-560.316 739,-560.316 739,-560.316 657.763,-560.316 617.29,-580.913 560,-523.316 539.875,-503.084 530.549,-421.038 526.932,-377.22"/>
<polygon fill="green" stroke="green" points="530.418,-376.914 526.15,-367.217 523.44,-377.459 530.418,-376.914"/>
<text text-anchor="middle" x="992" y="-564.116" font-family="Times,serif" font-size="14.00">inspect_before</text>
</g>
<!-- q2&#45;&gt;q0 -->
<g id="edge18" class="edge"><title>q2&#45;&gt;q0</title>
<path fill="none" stroke="green" d="M1335.93,-551.895C1308.56,-537.409 1248.45,-509.316 1194,-509.316 739,-509.316 739,-509.316 739,-509.316 655.642,-509.316 619.571,-511.625 560,-453.316 539.457,-433.209 530.972,-400.674 527.466,-377.347"/>
<polygon fill="green" stroke="green" points="530.928,-376.827 526.181,-367.355 523.986,-377.72 530.928,-376.827"/>
<text text-anchor="middle" x="992" y="-513.116" font-family="Times,serif" font-size="14.00">inspect_after</text>
</g>
<!-- q3&#45;&gt;q0 -->
<g id="edge20" class="edge"><title>q3&#45;&gt;q0</title>
<path fill="none" stroke="black" d="M726.09,-91.3214C712.721,-79.7887 690.648,-63.1336 668,-56.3165 622.037,-42.4817 595.898,-24.4518 560,-56.3165 540.407,-73.7083 529.779,-250.381 526.298,-320.684"/>
<polygon fill="black" stroke="black" points="522.786,-320.856 525.801,-331.013 529.778,-321.193 522.786,-320.856"/>
<text text-anchor="middle" x="614" y="-60.1165" font-family="Times,serif" font-size="14.00">merge_single_node</text>
</g>
<!-- q3&#45;&gt;q0 -->
<g id="edge21" class="edge"><title>q3&#45;&gt;q0</title>
<path fill="none" stroke="black" d="M731.037,-87.4728C719.999,-67.5023 697.969,-34.1185 668,-20.3165 624.401,-0.237713 595.691,11.7792 560,-20.3165 537.814,-40.2677 528.585,-244.567 525.896,-320.821"/>
<polygon fill="black" stroke="black" points="522.388,-320.992 525.546,-331.105 529.384,-321.23 522.388,-320.992"/>
<text text-anchor="middle" x="614" y="-24.1165" font-family="Times,serif" font-size="14.00">merge_pair</text>
</g>
<!-- q3&#45;&gt;q0 -->
<g id="edge23" class="edge"><title>q3&#45;&gt;q0</title>
<path fill="none" stroke="green" d="M725.438,-114.278C711.741,-124.805 689.578,-140.387 668,-149.316 622.653,-168.082 594.448,-137.362 560,-172.316 539.586,-193.031 530.372,-276.82 526.851,-321.283"/>
<polygon fill="green" stroke="green" points="523.348,-321.189 526.093,-331.422 530.328,-321.711 523.348,-321.189"/>
<text text-anchor="middle" x="614" y="-176.116" font-family="Times,serif" font-size="14.00">inspect_before</text>
</g>
<!-- q3&#45;&gt;q0 -->
<g id="edge25" class="edge"><title>q3&#45;&gt;q0</title>
<path fill="none" stroke="green" d="M721.84,-105.352C678.152,-110.608 565.747,-124.619 560,-130.316 533.586,-156.5 527.106,-267.884 525.517,-320.965"/>
<polygon fill="green" stroke="green" points="522.015,-320.97 525.253,-331.058 529.013,-321.153 522.015,-320.97"/>
<text text-anchor="middle" x="614" y="-134.116" font-family="Times,serif" font-size="14.00">Learn_Assert</text>
</g>
<!-- q3&#45;&gt;q2 -->
<g id="edge24" class="edge"><title>q3&#45;&gt;q2</title>
<path fill="none" stroke="green" d="M758.022,-102.089C839.715,-97.2648 1192.67,-88.8168 1316,-291.316 1340.33,-331.265 1347.98,-471.173 1350.18,-531.868"/>
<polygon fill="green" stroke="green" points="1346.69,-532.361 1350.53,-542.237 1353.69,-532.124 1346.69,-532.361"/>
<text text-anchor="middle" x="1102" y="-156.116" font-family="Times,serif" font-size="14.00">inspect_after</text>
</g>
<!-- q5 -->
<g id="node7" class="node"><title>q5</title>
<ellipse fill="none" stroke="black" cx="992" cy="-217.316" rx="18" ry="18"/>
<text text-anchor="middle" x="992" y="-213.616" font-family="Times,serif" font-size="14.00">D</text>
</g>
<!-- q3&#45;&gt;q5 -->
<g id="edge22" class="edge"><title>q3&#45;&gt;q5</title>
<path fill="none" stroke="black" d="M758.11,-105.922C800.117,-112.408 905.936,-129.333 920,-137.316 943.87,-150.867 963.846,-175.44 976.466,-193.79"/>
<polygon fill="black" stroke="black" points="973.613,-195.821 982.055,-202.222 979.448,-191.953 973.613,-195.821"/>
<text text-anchor="middle" x="866" y="-141.116" font-family="Times,serif" font-size="14.00">seq_sort_core</text>
</g>
<!-- q4 -->
<g id="node6" class="node"><title>q4</title>
<ellipse fill="none" stroke="black" cx="1193" cy="-368.316" rx="18" ry="18"/>
<text text-anchor="middle" x="1193" y="-364.616" font-family="Times,serif" font-size="14.00">D</text>
</g>
<!-- q4&#45;&gt;q0 -->
<g id="edge26" class="edge"><title>q4&#45;&gt;q0</title>
<path fill="none" stroke="black" d="M1178.91,-379.561C1168.97,-387.332 1154.56,-397.014 1140,-401.316 1046.23,-429.023 1017.78,-402.872 920,-403.316 759.999,-404.044 700.937,-477.062 560,-401.316 549.359,-395.597 541.365,-385.059 535.723,-374.958"/>
<polygon fill="black" stroke="black" points="538.815,-373.315 531.195,-365.954 532.561,-376.461 538.815,-373.315"/>
<text text-anchor="middle" x="866" y="-417.116" font-family="Times,serif" font-size="14.00">merge_single_node</text>
</g>
<!-- q4&#45;&gt;q0 -->
<g id="edge27" class="edge"><title>q4&#45;&gt;q0</title>
<path fill="none" stroke="black" d="M1174.8,-369.04C1086.38,-372.629 682.466,-387.406 560,-363.316 556.725,-362.672 553.366,-361.729 550.086,-360.632"/>
<polygon fill="black" stroke="black" points="551.238,-357.325 540.648,-357.021 548.737,-363.863 551.238,-357.325"/>
<text text-anchor="middle" x="866" y="-380.116" font-family="Times,serif" font-size="14.00">merge_pair</text>
</g>
<!-- q4&#45;&gt;q0 -->
<g id="edge28" class="edge"><title>q4&#45;&gt;q0</title>
<path fill="none" stroke="black" d="M1174.82,-367.401C1131.88,-365.147 1016.38,-359.296 920,-356.316 781.965,-352.049 616.709,-350.164 552.444,-349.554"/>
<polygon fill="black" stroke="black" points="552.362,-346.053 542.33,-349.461 552.297,-353.053 552.362,-346.053"/>
<text text-anchor="middle" x="866" y="-360.116" font-family="Times,serif" font-size="14.00">seq_sort_core</text>
</g>
<!-- q4&#45;&gt;q0 -->
<g id="edge29" class="edge"><title>q4&#45;&gt;q0</title>
<path fill="none" stroke="green" d="M1175.22,-364.303C1165.07,-361.991 1151.85,-359.184 1140,-357.316 995.646,-334.566 958.101,-331.129 812,-334.316 699.92,-336.762 671.76,-336.502 560,-345.316 557.439,-345.518 554.777,-345.762 552.115,-346.028"/>
<polygon fill="green" stroke="green" points="551.628,-342.56 542.067,-347.123 552.387,-349.519 551.628,-342.56"/>
<text text-anchor="middle" x="866" y="-338.116" font-family="Times,serif" font-size="14.00">inspect_before</text>
</g>
<!-- q4&#45;&gt;q0 -->
<g id="edge31" class="edge"><title>q4&#45;&gt;q0</title>
<path fill="none" stroke="green" d="M1182.43,-382.956C1173.23,-395.616 1158.09,-413.133 1140,-421.316 956.003,-504.566 887.826,-447.515 686,-440.316 629.893,-438.315 605.715,-463.907 560,-431.316 542.429,-418.79 533.615,-395.588 529.232,-377.053"/>
<polygon fill="green" stroke="green" points="532.621,-376.154 527.178,-367.064 525.765,-377.565 532.621,-376.154"/>
<text text-anchor="middle" x="866" y="-468.116" font-family="Times,serif" font-size="14.00">Learn_Assert</text>
</g>
<!-- q4&#45;&gt;q2 -->
<g id="edge30" class="edge"><title>q4&#45;&gt;q2</title>
<path fill="none" stroke="green" d="M1208.21,-378.229C1232.97,-396.124 1284.41,-436.097 1316,-480.316 1327.68,-496.662 1336.64,-517.518 1342.57,-533.837"/>
<polygon fill="green" stroke="green" points="1339.28,-535.034 1345.87,-543.331 1345.9,-532.736 1339.28,-535.034"/>
<text text-anchor="middle" x="1281" y="-484.116" font-family="Times,serif" font-size="14.00">inspect_after</text>
</g>
<!-- q5&#45;&gt;q0 -->
<g id="edge32" class="edge"><title>q5&#45;&gt;q0</title>
<path fill="none" stroke="black" d="M973.588,-216.262C901.066,-212.241 623.803,-200.665 560,-254.316 540.231,-270.94 531.625,-299.783 527.88,-321.338"/>
<polygon fill="black" stroke="black" points="524.416,-320.843 526.405,-331.249 531.339,-321.874 524.416,-320.843"/>
<text text-anchor="middle" x="740" y="-223.116" font-family="Times,serif" font-size="14.00">merge_single_node</text>
</g>
<!-- q5&#45;&gt;q0 -->
<g id="edge35" class="edge"><title>q5&#45;&gt;q0</title>
<path fill="none" stroke="green" d="M973.931,-214.414C901.579,-202.528 621.131,-160.813 560,-217.316 531.469,-243.688 525.123,-290.387 524.251,-320.583"/>
<polygon fill="green" stroke="green" points="520.748,-320.857 524.146,-330.892 527.748,-320.928 520.748,-320.857"/>
<text text-anchor="middle" x="740" y="-196.116" font-family="Times,serif" font-size="14.00">inspect_before</text>
</g>
<!-- q5&#45;&gt;q0 -->
<g id="edge37" class="edge"><title>q5&#45;&gt;q0</title>
<path fill="none" stroke="green" d="M974.15,-219.658C898.891,-230.219 595.627,-273.927 560,-297.316 550.211,-303.743 542.467,-313.955 536.779,-323.634"/>
<polygon fill="green" stroke="green" points="533.606,-322.145 531.956,-332.61 539.772,-325.458 533.606,-322.145"/>
<text text-anchor="middle" x="740" y="-269.116" font-family="Times,serif" font-size="14.00">Learn_Assert</text>
</g>
<!-- q5&#45;&gt;q2 -->
<g id="edge36" class="edge"><title>q5&#45;&gt;q2</title>
<path fill="none" stroke="green" d="M1009.79,-214.289C1038.08,-209.997 1096.44,-204.682 1140,-224.316 1242.29,-270.427 1262.53,-306.672 1316,-405.316 1337.97,-445.846 1346.17,-499.509 1349.22,-531.89"/>
<polygon fill="green" stroke="green" points="1345.74,-532.333 1350.07,-542.006 1352.72,-531.748 1345.74,-532.333"/>
<text text-anchor="middle" x="1193" y="-280.116" font-family="Times,serif" font-size="14.00">inspect_after</text>
</g>
<!-- q5&#45;&gt;q4 -->
<g id="edge33" class="edge"><title>q5&#45;&gt;q4</title>
<path fill="none" stroke="black" d="M1007.14,-227.067C1021.09,-236.348 1043.28,-250.213 1064,-259.316 1096.31,-273.514 1112.13,-260.668 1140,-282.316 1159.83,-297.72 1173.8,-322.983 1182.23,-342.153"/>
<polygon fill="black" stroke="black" points="1179.06,-343.65 1186.13,-351.537 1185.52,-340.96 1179.06,-343.65"/>
<text text-anchor="middle" x="1102" y="-286.116" font-family="Times,serif" font-size="14.00">merge_pair</text>
</g>
<!-- q5&#45;&gt;q4 -->
<g id="edge34" class="edge"><title>q5&#45;&gt;q4</title>
<path fill="none" stroke="black" d="M1010.17,-217.924C1044.53,-219.465 1120.16,-224.595 1140,-240.316 1170.81,-264.727 1183.48,-310.337 1188.61,-340.002"/>
<polygon fill="black" stroke="black" points="1185.19,-340.794 1190.18,-350.141 1192.11,-339.723 1185.19,-340.794"/>
<text text-anchor="middle" x="1102" y="-244.116" font-family="Times,serif" font-size="14.00">seq_sort_core</text>
</g>
<!-- iq0 -->
<g id="node8" class="node"><title>iq0</title>
</g>
<!-- iq0&#45;&gt;q0 -->
<g id="edge1" class="edge"><title>iq0&#45;&gt;q0</title>
<path fill="none" stroke="blue" d="M208.278,-482.138C265.737,-497.504 404.107,-524.828 488,-460.316 513.2,-440.938 520.645,-403.457 522.641,-377.441"/>
<polygon fill="blue" stroke="blue" points="526.137,-377.594 523.187,-367.418 519.148,-377.212 526.137,-377.594"/>
</g>
</g>
</svg>
