<?xml version="1.0" encoding="UTF-8" standalone="no"?>
<!DOCTYPE svg PUBLIC "-//W3C//DTD SVG 1.1//EN"
 "http://www.w3.org/Graphics/SVG/1.1/DTD/svg11.dtd">
<!-- Generated by graphviz version 2.34.0 (20141125.1709)
 -->
<!-- Title: finite_automaton Pages: 1 -->
<svg width="576pt" height="312pt"
 viewBox="0.00 0.00 576.00 312.09" xmlns="http://www.w3.org/2000/svg" xmlns:xlink="http://www.w3.org/1999/xlink">
<g id="graph0" class="graph" transform="scale(0.385027 0.385027) rotate(0) translate(4 806.576)">
<title>finite_automaton</title>
<polygon fill="white" stroke="white" points="-4,4 -4,-806.576 1492,-806.576 1492,4 -4,4"/>
<!-- dom_edges -->
<g id="node1" class="node"><title>dom_edges</title>
<polygon fill="none" stroke="green" points="513.5,-388.576 0.5,-388.576 0.5,-352.576 513.5,-352.576 513.5,-388.576"/>
<text text-anchor="middle" x="257" y="-366.876" font-family="Times,serif" font-size="14.00">Dominating edges: merge_pair, seq_sort_core, inspect_before, inspect_after, Learn_Assert</text>
</g>
<!-- q1 -->
<g id="node2" class="node"><title>q1</title>
<ellipse fill="none" stroke="green" cx="257" cy="-428.576" rx="18" ry="18"/>
<ellipse fill="none" stroke="green" cx="257" cy="-428.576" rx="22" ry="22"/>
<text text-anchor="middle" x="257" y="-424.876" font-family="Times,serif" font-size="14.00">D</text>
</g>
<!-- q0 -->
<g id="node3" class="node"><title>q0</title>
<ellipse fill="none" stroke="green" cx="676" cy="-390.576" rx="18" ry="18"/>
<text text-anchor="middle" x="676" y="-386.876" font-family="Times,serif" font-size="14.00">D</text>
</g>
<!-- q1&#45;&gt;q0 -->
<g id="edge8" class="edge"><title>q1&#45;&gt;q0</title>
<path fill="none" stroke="black" d="M278.79,-433.209C326.971,-442.613 447.238,-458.244 514,-397.576 541.614,-372.483 502.925,-338.961 532,-315.576 569.403,-285.493 599.513,-289.792 640,-315.576 656.259,-325.931 665.089,-346.03 669.811,-362.817"/>
<polygon fill="black" stroke="black" points="666.461,-363.851 672.25,-372.724 673.258,-362.177 666.461,-363.851"/>
<text text-anchor="middle" x="586" y="-319.376" font-family="Times,serif" font-size="14.00">merge_single_node</text>
</g>
<!-- q1&#45;&gt;q0 -->
<g id="edge9" class="edge"><title>q1&#45;&gt;q0</title>
<path fill="none" stroke="green" d="M276.355,-439.259C335.218,-471.97 522.271,-563.749 640,-482.576 660.581,-468.386 669.069,-440.373 672.565,-418.967"/>
<polygon fill="green" stroke="green" points="676.071,-419.162 673.943,-408.783 669.134,-418.223 676.071,-419.162"/>
<text text-anchor="middle" x="586" y="-519.376" font-family="Times,serif" font-size="14.00">merge_pair</text>
</g>
<!-- q1&#45;&gt;q0 -->
<g id="edge10" class="edge"><title>q1&#45;&gt;q0</title>
<path fill="none" stroke="green" d="M278.939,-432.216C349.424,-444.045 577.161,-478.732 640,-444.576 651.16,-438.511 659.311,-427.182 664.924,-416.461"/>
<polygon fill="green" stroke="green" points="668.123,-417.882 669.215,-407.343 661.79,-414.901 668.123,-417.882"/>
<text text-anchor="middle" x="586" y="-463.376" font-family="Times,serif" font-size="14.00">seq_sort_core</text>
</g>
<!-- q1&#45;&gt;q0 -->
<g id="edge11" class="edge"><title>q1&#45;&gt;q0</title>
<path fill="none" stroke="green" d="M279.109,-430.055C337.53,-433.575 505.892,-439.844 640,-406.576 643.477,-405.714 647.034,-404.511 650.483,-403.147"/>
<polygon fill="green" stroke="green" points="652.045,-406.283 659.768,-399.031 649.208,-399.884 652.045,-406.283"/>
<text text-anchor="middle" x="586" y="-429.376" font-family="Times,serif" font-size="14.00">inspect_before</text>
</g>
<!-- q1&#45;&gt;q0 -->
<g id="edge12" class="edge"><title>q1&#45;&gt;q0</title>
<path fill="none" stroke="green" d="M279.158,-428.734C323.735,-428.482 430.112,-424.8 514,-397.576 522.705,-394.752 523.141,-389.872 532,-387.576 571.219,-377.414 618.532,-381.424 647.692,-385.669"/>
<polygon fill="green" stroke="green" points="647.502,-389.182 657.924,-387.278 648.589,-382.267 647.502,-389.182"/>
<text text-anchor="middle" x="586" y="-391.376" font-family="Times,serif" font-size="14.00">inspect_after</text>
</g>
<!-- q1&#45;&gt;q0 -->
<g id="edge13" class="edge"><title>q1&#45;&gt;q0</title>
<path fill="none" stroke="green" d="M278.842,-432.119C325.6,-438.879 440.515,-448.734 514,-397.576 528.356,-387.582 517.068,-371.688 532,-362.576 572.974,-337.574 594.706,-346.688 640,-362.576 645.415,-364.476 650.615,-367.605 655.275,-371.097"/>
<polygon fill="green" stroke="green" points="653.098,-373.84 663.007,-377.589 657.599,-368.478 653.098,-373.84"/>
<text text-anchor="middle" x="586" y="-366.376" font-family="Times,serif" font-size="14.00">Learn_Assert</text>
</g>
<!-- q0&#45;&gt;q0 -->
<g id="edge2" class="edge"><title>q0&#45;&gt;q0</title>
<path fill="none" stroke="black" d="M672.764,-408.358C672.214,-417.891 673.293,-426.576 676,-426.576 677.65,-426.576 678.694,-423.351 679.135,-418.675"/>
<polygon fill="black" stroke="black" points="682.638,-418.392 679.236,-408.358 675.638,-418.323 682.638,-418.392"/>
<text text-anchor="middle" x="676" y="-430.376" font-family="Times,serif" font-size="14.00">merge_single_node</text>
</g>
<!-- q0&#45;&gt;q0 -->
<g id="edge3" class="edge"><title>q0&#45;&gt;q0</title>
<path fill="none" stroke="green" d="M670.684,-407.997C667.654,-425.367 669.426,-444.576 676,-444.576 681.29,-444.576 683.471,-432.138 682.542,-418.228"/>
<polygon fill="green" stroke="green" points="685.981,-417.509 681.316,-407.997 679.031,-418.342 685.981,-417.509"/>
<text text-anchor="middle" x="676" y="-448.376" font-family="Times,serif" font-size="14.00">merge_pair</text>
</g>
<!-- q0&#45;&gt;q0 -->
<g id="edge4" class="edge"><title>q0&#45;&gt;q0</title>
<path fill="none" stroke="green" d="M669.444,-407.569C663.057,-432.096 665.242,-462.576 676,-462.576 685.329,-462.576 688.211,-439.655 684.647,-417.571"/>
<polygon fill="green" stroke="green" points="688.028,-416.641 682.556,-407.569 681.176,-418.073 688.028,-416.641"/>
<text text-anchor="middle" x="676" y="-466.376" font-family="Times,serif" font-size="14.00">seq_sort_core</text>
</g>
<!-- q0&#45;&gt;q0 -->
<g id="edge6" class="edge"><title>q0&#45;&gt;q0</title>
<path fill="none" stroke="green" d="M668.594,-407.367C658.484,-438.649 660.953,-480.576 676,-480.576 689.519,-480.576 692.884,-446.733 686.097,-417.173"/>
<polygon fill="green" stroke="green" points="689.428,-416.084 683.406,-407.367 682.677,-417.937 689.428,-416.084"/>
<text text-anchor="middle" x="676" y="-484.376" font-family="Times,serif" font-size="14.00">inspect_after</text>
</g>
<!-- q0&#45;&gt;q0 -->
<g id="edge7" class="edge"><title>q0&#45;&gt;q0</title>
<path fill="none" stroke="green" d="M668.129,-406.828C653.909,-444.675 656.532,-498.576 676,-498.576 693.871,-498.576 697.548,-453.156 687.03,-416.428"/>
<polygon fill="green" stroke="green" points="690.322,-415.233 683.871,-406.828 683.673,-417.421 690.322,-415.233"/>
<text text-anchor="middle" x="676" y="-502.376" font-family="Times,serif" font-size="14.00">Learn_Assert</text>
</g>
<!-- q5 -->
<g id="node7" class="node"><title>q5</title>
<ellipse fill="none" stroke="green" cx="892" cy="-262.576" rx="18" ry="18"/>
<text text-anchor="middle" x="892" y="-258.876" font-family="Times,serif" font-size="14.00">D</text>
</g>
<!-- q0&#45;&gt;q5 -->
<g id="edge5" class="edge"><title>q0&#45;&gt;q5</title>
<path fill="none" stroke="green" d="M676.511,-372.476C676.89,-346.04 681.938,-297.43 712,-273.576 734.757,-255.519 819.453,-257.943 863.694,-260.583"/>
<polygon fill="green" stroke="green" points="863.551,-264.081 873.755,-261.229 864,-257.095 863.551,-264.081"/>
<text text-anchor="middle" x="766" y="-277.376" font-family="Times,serif" font-size="14.00">inspect_before</text>
</g>
<!-- q2 -->
<g id="node4" class="node"><title>q2</title>
<ellipse fill="none" stroke="green" cx="1470" cy="-563.576" rx="18" ry="18"/>
<text text-anchor="middle" x="1470" y="-559.876" font-family="Times,serif" font-size="14.00">D</text>
</g>
<!-- q2&#45;&gt;q1 -->
<g id="edge19" class="edge"><title>q2&#45;&gt;q1</title>
<path fill="none" stroke="green" d="M1469.72,-581.758C1469.94,-612.107 1466.03,-673.415 1434,-710.576 1395.85,-754.839 1370.43,-759.576 1312,-759.576 675,-759.576 675,-759.576 675,-759.576 480.484,-759.576 323.977,-535.897 274.436,-456.29"/>
<polygon fill="green" stroke="green" points="277.144,-454.012 268.929,-447.321 271.179,-457.674 277.144,-454.012"/>
<text text-anchor="middle" x="1004" y="-763.376" font-family="Times,serif" font-size="14.00">Learn_Assert</text>
</g>
<!-- q2&#45;&gt;q0 -->
<g id="edge14" class="edge"><title>q2&#45;&gt;q0</title>
<path fill="none" stroke="black" d="M1468.6,-581.942C1467.04,-607.35 1460.46,-653.081 1434,-679.576 1393.96,-719.67 1368.66,-716.576 1312,-716.576 891,-716.576 891,-716.576 891,-716.576 809.763,-716.576 767.001,-739.362 712,-679.576 677.551,-642.13 675.64,-484.806 676.394,-419.343"/>
<polygon fill="black" stroke="black" points="679.9,-418.996 676.546,-408.946 672.9,-418.893 679.9,-418.996"/>
<text text-anchor="middle" x="1116" y="-720.376" font-family="Times,serif" font-size="14.00">merge_single_node</text>
</g>
<!-- q2&#45;&gt;q0 -->
<g id="edge15" class="edge"><title>q2&#45;&gt;q0</title>
<path fill="none" stroke="green" d="M1463.93,-580.646C1458.72,-595.368 1449.18,-616.16 1434,-628.576 1390.14,-664.453 1368.66,-665.576 1312,-665.576 891,-665.576 891,-665.576 891,-665.576 809.763,-665.576 767.759,-687.656 712,-628.576 683.926,-598.83 678.323,-475.269 677.239,-418.871"/>
<polygon fill="green" stroke="green" points="680.738,-418.79 677.081,-408.847 673.739,-418.901 680.738,-418.79"/>
<text text-anchor="middle" x="1116" y="-669.376" font-family="Times,serif" font-size="14.00">merge_pair</text>
</g>
<!-- q2&#45;&gt;q0 -->
<g id="edge16" class="edge"><title>q2&#45;&gt;q0</title>
<path fill="none" stroke="green" d="M1453.93,-571.998C1426.56,-586.483 1366.45,-614.576 1312,-614.576 891,-614.576 891,-614.576 891,-614.576 809.763,-614.576 768.901,-635.558 712,-577.576 690.269,-555.433 681.584,-465.083 678.5,-418.558"/>
<polygon fill="green" stroke="green" points="681.991,-418.301 677.878,-408.537 675.004,-418.735 681.991,-418.301"/>
<text text-anchor="middle" x="1116" y="-618.376" font-family="Times,serif" font-size="14.00">seq_sort_core</text>
</g>
<!-- q2&#45;&gt;q0 -->
<g id="edge17" class="edge"><title>q2&#45;&gt;q0</title>
<path fill="none" stroke="green" d="M1451.58,-563.576C1422.6,-563.576 1362.7,-563.576 1312,-563.576 891,-563.576 891,-563.576 891,-563.576 809.763,-563.576 770.807,-582.623 712,-526.576 682.793,-498.741 676.721,-450.061 676.079,-419.118"/>
<polygon fill="green" stroke="green" points="679.578,-418.966 676.049,-408.976 672.578,-418.987 679.578,-418.966"/>
<text text-anchor="middle" x="1116" y="-567.376" font-family="Times,serif" font-size="14.00">inspect_before</text>
</g>
<!-- q2&#45;&gt;q0 -->
<g id="edge18" class="edge"><title>q2&#45;&gt;q0</title>
<path fill="none" stroke="green" d="M1453.93,-555.155C1426.56,-540.669 1366.45,-512.576 1312,-512.576 891,-512.576 891,-512.576 891,-512.576 809.384,-512.576 774.735,-523.782 712,-471.576 695.857,-458.143 686.966,-435.868 682.19,-418.073"/>
<polygon fill="green" stroke="green" points="685.562,-417.125 679.83,-408.215 678.754,-418.755 685.562,-417.125"/>
<text text-anchor="middle" x="1116" y="-516.376" font-family="Times,serif" font-size="14.00">inspect_after</text>
</g>
<!-- q3 -->
<g id="node5" class="node"><title>q3</title>
<ellipse fill="none" stroke="black" cx="1311" cy="-390.576" rx="18" ry="18"/>
<text text-anchor="middle" x="1311" y="-386.876" font-family="Times,serif" font-size="14.00">D</text>
</g>
<!-- q3&#45;&gt;q0 -->
<g id="edge21" class="edge"><title>q3&#45;&gt;q0</title>
<path fill="none" stroke="green" d="M1300.09,-405.631C1290.87,-418.142 1275.89,-435.066 1258,-442.576 1146.12,-489.532 818.876,-500.016 712,-442.576 701.359,-436.857 693.365,-426.319 687.723,-416.218"/>
<polygon fill="green" stroke="green" points="690.815,-414.575 683.195,-407.214 684.561,-417.72 690.815,-414.575"/>
<text text-anchor="middle" x="1004" y="-486.376" font-family="Times,serif" font-size="14.00">merge_pair</text>
</g>
<!-- q3&#45;&gt;q0 -->
<g id="edge22" class="edge"><title>q3&#45;&gt;q0</title>
<path fill="none" stroke="green" d="M1293.82,-396.011C1283.66,-399.152 1270.22,-402.819 1258,-404.576 1065.27,-432.309 1014.7,-412.354 820,-414.576 772.003,-415.124 757.849,-428.786 712,-414.576 707.236,-413.1 702.545,-410.727 698.221,-408.034"/>
<polygon fill="green" stroke="green" points="700.153,-405.114 689.954,-402.242 696.136,-410.847 700.153,-405.114"/>
<text text-anchor="middle" x="1004" y="-423.376" font-family="Times,serif" font-size="14.00">seq_sort_core</text>
</g>
<!-- q3&#45;&gt;q0 -->
<g id="edge23" class="edge"><title>q3&#45;&gt;q0</title>
<path fill="none" stroke="green" d="M1292.76,-390.576C1205.44,-390.576 812,-390.576 704.319,-390.576"/>
<polygon fill="green" stroke="green" points="704.26,-387.077 694.26,-390.576 704.259,-394.077 704.26,-387.077"/>
<text text-anchor="middle" x="1004" y="-394.376" font-family="Times,serif" font-size="14.00">inspect_before</text>
</g>
<!-- q3&#45;&gt;q0 -->
<g id="edge25" class="edge"><title>q3&#45;&gt;q0</title>
<path fill="none" stroke="green" d="M1292.67,-389.214C1282.56,-388.426 1269.56,-387.426 1258,-386.576 1127.52,-376.985 1094.77,-367.253 964,-371.576 868.45,-374.736 755.298,-383.796 704.313,-388.164"/>
<polygon fill="green" stroke="green" points="703.786,-384.697 694.125,-389.046 704.39,-391.671 703.786,-384.697"/>
<text text-anchor="middle" x="1004" y="-375.376" font-family="Times,serif" font-size="14.00">Learn_Assert</text>
</g>
<!-- q3&#45;&gt;q2 -->
<g id="edge24" class="edge"><title>q3&#45;&gt;q2</title>
<path fill="none" stroke="green" d="M1327.11,-398.668C1352.32,-412.842 1403.23,-444.414 1434,-483.576 1446.41,-499.371 1455.35,-520.247 1461.09,-536.713"/>
<polygon fill="green" stroke="green" points="1457.8,-537.907 1464.25,-546.31 1464.44,-535.717 1457.8,-537.907"/>
<text text-anchor="middle" x="1399" y="-487.376" font-family="Times,serif" font-size="14.00">inspect_after</text>
</g>
<!-- q3&#45;&gt;q5 -->
<g id="edge20" class="edge"><title>q3&#45;&gt;q5</title>
<path fill="none" stroke="black" d="M1299.68,-376.37C1290.2,-364.403 1275.07,-347.801 1258,-338.576 1198.7,-306.539 994.328,-276.331 920.162,-266.178"/>
<polygon fill="black" stroke="black" points="920.576,-262.702 910.197,-264.827 919.636,-269.638 920.576,-262.702"/>
<text text-anchor="middle" x="1116" y="-313.376" font-family="Times,serif" font-size="14.00">merge_single_node</text>
</g>
<!-- q4 -->
<g id="node6" class="node"><title>q4</title>
<ellipse fill="none" stroke="black" cx="1116" cy="-189.576" rx="18" ry="18"/>
<text text-anchor="middle" x="1116" y="-185.876" font-family="Times,serif" font-size="14.00">D</text>
</g>
<!-- q4&#45;&gt;q0 -->
<g id="edge26" class="edge"><title>q4&#45;&gt;q0</title>
<path fill="none" stroke="black" d="M1098.24,-186.553C1029.65,-174.586 771.189,-133.555 712,-183.576 685.296,-206.144 678.96,-311.146 677.461,-362.35"/>
<polygon fill="black" stroke="black" points="673.961,-362.326 677.209,-372.411 680.959,-362.502 673.961,-362.326"/>
<text text-anchor="middle" x="892" y="-169.376" font-family="Times,serif" font-size="14.00">merge_single_node</text>
</g>
<!-- q4&#45;&gt;q0 -->
<g id="edge28" class="edge"><title>q4&#45;&gt;q0</title>
<path fill="none" stroke="green" d="M1099.88,-181.396C1040.68,-150.576 822.408,-48.5886 712,-156.576 683.299,-184.648 678.022,-306.275 677.131,-362.224"/>
<polygon fill="green" stroke="green" points="673.628,-362.448 677.006,-372.49 680.628,-362.534 673.628,-362.448"/>
<text text-anchor="middle" x="892" y="-125.376" font-family="Times,serif" font-size="14.00">seq_sort_core</text>
</g>
<!-- q4&#45;&gt;q0 -->
<g id="edge29" class="edge"><title>q4&#45;&gt;q0</title>
<path fill="none" stroke="green" d="M1109.36,-172.414C1100.02,-146.764 1078.82,-98.7561 1044,-73.5764 924.427,12.8818 812.591,34.3778 712,-73.5764 692.523,-94.4795 681.701,-287.747 678.239,-361.847"/>
<polygon fill="green" stroke="green" points="674.722,-362.128 677.764,-372.277 681.715,-362.446 674.722,-362.128"/>
<text text-anchor="middle" x="892" y="-20.3764" font-family="Times,serif" font-size="14.00">inspect_before</text>
</g>
<!-- q4&#45;&gt;q0 -->
<g id="edge31" class="edge"><title>q4&#45;&gt;q0</title>
<path fill="none" stroke="green" d="M1103.72,-176.179C1090.69,-161.451 1067.94,-137.974 1044,-123.576 1004.49,-99.8169 991.461,-97.2386 946,-89.5764 843.176,-72.2463 785.308,-32.4212 712,-106.576 676.838,-142.144 675.336,-297.452 676.297,-362.139"/>
<polygon fill="green" stroke="green" points="672.802,-362.48 676.482,-372.415 679.801,-362.353 672.802,-362.48"/>
<text text-anchor="middle" x="892" y="-93.3764" font-family="Times,serif" font-size="14.00">Learn_Assert</text>
</g>
<!-- q4&#45;&gt;q2 -->
<g id="edge30" class="edge"><title>q4&#45;&gt;q2</title>
<path fill="none" stroke="green" d="M1133.95,-185.945C1187.25,-175.625 1352.75,-152.161 1434,-238.576 1454.15,-260.003 1464.62,-459.847 1467.87,-535.098"/>
<polygon fill="green" stroke="green" points="1464.38,-535.417 1468.3,-545.261 1471.37,-535.122 1464.38,-535.417"/>
<text text-anchor="middle" x="1311" y="-192.376" font-family="Times,serif" font-size="14.00">inspect_after</text>
</g>
<!-- q4&#45;&gt;q3 -->
<g id="edge27" class="edge"><title>q4&#45;&gt;q3</title>
<path fill="none" stroke="green" d="M1126.55,-204.222C1138.78,-221.886 1161.59,-251.346 1188,-268.576 1215.43,-286.47 1233,-270.422 1258,-291.576 1280.36,-310.5 1294.43,-341.51 1302.21,-363.784"/>
<polygon fill="green" stroke="green" points="1298.9,-364.923 1305.35,-373.328 1305.55,-362.735 1298.9,-364.923"/>
<text text-anchor="middle" x="1223" y="-295.376" font-family="Times,serif" font-size="14.00">merge_pair</text>
</g>
<!-- q5&#45;&gt;q0 -->
<g id="edge32" class="edge"><title>q5&#45;&gt;q0</title>
<path fill="none" stroke="black" d="M875.842,-254.161C842.305,-236.798 760.93,-201.749 712,-240.576 693.148,-255.536 683.503,-323.614 679.438,-362.719"/>
<polygon fill="black" stroke="black" points="675.954,-362.386 678.458,-372.681 682.92,-363.072 675.954,-362.386"/>
<text text-anchor="middle" x="766" y="-244.376" font-family="Times,serif" font-size="14.00">merge_single_node</text>
</g>
<!-- q5&#45;&gt;q0 -->
<g id="edge33" class="edge"><title>q5&#45;&gt;q0</title>
<path fill="none" stroke="green" d="M879.841,-249.144C867.081,-234.941 844.737,-213.396 820,-204.576 774.788,-188.457 748.946,-173.934 712,-204.576 688.243,-224.28 680.505,-315.233 678.069,-362.251"/>
<polygon fill="green" stroke="green" points="674.567,-362.23 677.592,-372.384 681.559,-362.56 674.567,-362.23"/>
<text text-anchor="middle" x="766" y="-208.376" font-family="Times,serif" font-size="14.00">merge_pair</text>
</g>
<!-- q5&#45;&gt;q0 -->
<g id="edge35" class="edge"><title>q5&#45;&gt;q0</title>
<path fill="none" stroke="green" d="M879.943,-276.104C867.108,-290.865 844.539,-314.058 820,-326.576 776.283,-348.877 754.169,-324.471 712,-349.576 704.536,-354.02 697.884,-360.631 692.436,-367.253"/>
<polygon fill="green" stroke="green" points="689.45,-365.399 686.209,-375.485 695.033,-369.622 689.45,-365.399"/>
<text text-anchor="middle" x="766" y="-353.376" font-family="Times,serif" font-size="14.00">inspect_before</text>
</g>
<!-- q5&#45;&gt;q0 -->
<g id="edge37" class="edge"><title>q5&#45;&gt;q0</title>
<path fill="none" stroke="green" d="M875.187,-269.284C860.968,-275.094 839.396,-283.363 820,-288.576 772.933,-301.228 750.112,-277.199 712,-307.576 695.053,-321.084 686.198,-344.288 681.64,-362.733"/>
<polygon fill="green" stroke="green" points="678.185,-362.15 679.474,-372.666 685.024,-363.641 678.185,-362.15"/>
<text text-anchor="middle" x="766" y="-311.376" font-family="Times,serif" font-size="14.00">Learn_Assert</text>
</g>
<!-- q5&#45;&gt;q2 -->
<g id="edge36" class="edge"><title>q5&#45;&gt;q2</title>
<path fill="none" stroke="green" d="M910.067,-260.151C973.285,-251.443 1193.77,-223.622 1258,-249.576 1358.83,-290.322 1379.91,-325.23 1434,-419.576 1454.97,-456.153 1463.44,-504.909 1466.81,-535.263"/>
<polygon fill="green" stroke="green" points="1463.36,-535.955 1467.84,-545.557 1470.33,-535.259 1463.36,-535.955"/>
<text text-anchor="middle" x="1223" y="-253.376" font-family="Times,serif" font-size="14.00">inspect_after</text>
</g>
<!-- q5&#45;&gt;q4 -->
<g id="edge34" class="edge"><title>q5&#45;&gt;q4</title>
<path fill="none" stroke="green" d="M907.377,-253.097C921.325,-244.291 943.35,-231.394 964,-223.576 1005.81,-207.747 1057.06,-198.132 1087.81,-193.34"/>
<polygon fill="green" stroke="green" points="1088.42,-196.788 1097.79,-191.843 1087.38,-189.866 1088.42,-196.788"/>
<text text-anchor="middle" x="1004" y="-227.376" font-family="Times,serif" font-size="14.00">seq_sort_core</text>
</g>
<!-- iq0 -->
<g id="node8" class="node"><title>iq0</title>
</g>
<!-- iq0&#45;&gt;q0 -->
<g id="edge1" class="edge"><title>iq0&#45;&gt;q0</title>
<path fill="none" stroke="blue" d="M284.226,-775.335C354.009,-749.336 545.358,-668.595 640,-534.576 664.56,-499.798 671.993,-449.808 674.179,-418.807"/>
<polygon fill="blue" stroke="blue" points="677.681,-418.872 674.752,-408.69 670.692,-418.476 677.681,-418.872"/>
</g>
</g>
</svg>
