<?xml version="1.0" encoding="UTF-8" standalone="no"?>
<!DOCTYPE svg PUBLIC "-//W3C//DTD SVG 1.1//EN"
 "http://www.w3.org/Graphics/SVG/1.1/DTD/svg11.dtd">
<!-- Generated by graphviz version 2.34.0 (20141125.1709)
 -->
<!-- Title: finite_automaton Pages: 1 -->
<svg width="576pt" height="345pt"
 viewBox="0.00 0.00 576.00 344.90" xmlns="http://www.w3.org/2000/svg" xmlns:xlink="http://www.w3.org/1999/xlink">
<g id="graph0" class="graph" transform="scale(0.324324 0.324324) rotate(0) translate(4 1059.46)">
<title>finite_automaton</title>
<polygon fill="white" stroke="white" points="-4,4 -4,-1059.46 1772,-1059.46 1772,4 -4,4"/>
<!-- dom_edges -->
<g id="node1" class="node"><title>dom_edges</title>
<polygon fill="none" stroke="green" points="513.5,-500.456 0.5,-500.456 0.5,-464.456 513.5,-464.456 513.5,-500.456"/>
<text text-anchor="middle" x="257" y="-478.756" font-family="Times,serif" font-size="14.00">Dominating edges: merge_pair, seq_sort_core, inspect_before, inspect_after, Learn_Assert</text>
</g>
<!-- q1 -->
<g id="node2" class="node"><title>q1</title>
<ellipse fill="none" stroke="green" cx="257" cy="-540.456" rx="18" ry="18"/>
<ellipse fill="none" stroke="green" cx="257" cy="-540.456" rx="22" ry="22"/>
<text text-anchor="middle" x="257" y="-536.756" font-family="Times,serif" font-size="14.00">D</text>
</g>
<!-- q0 -->
<g id="node3" class="node"><title>q0</title>
<ellipse fill="none" stroke="green" cx="676" cy="-502.456" rx="18" ry="18"/>
<text text-anchor="middle" x="676" y="-498.756" font-family="Times,serif" font-size="14.00">D</text>
</g>
<!-- q1&#45;&gt;q0 -->
<g id="edge8" class="edge"><title>q1&#45;&gt;q0</title>
<path fill="none" stroke="black" d="M278.79,-545.088C326.971,-554.493 447.238,-570.124 514,-509.456 541.614,-484.363 502.925,-450.841 532,-427.456 569.403,-397.373 599.513,-401.672 640,-427.456 656.259,-437.811 665.089,-457.91 669.811,-474.697"/>
<polygon fill="black" stroke="black" points="666.461,-475.73 672.25,-484.604 673.258,-474.057 666.461,-475.73"/>
<text text-anchor="middle" x="586" y="-431.256" font-family="Times,serif" font-size="14.00">merge_single_node</text>
</g>
<!-- q1&#45;&gt;q0 -->
<g id="edge9" class="edge"><title>q1&#45;&gt;q0</title>
<path fill="none" stroke="green" d="M276.355,-551.138C335.218,-583.849 522.271,-675.628 640,-594.456 660.581,-580.266 669.069,-552.252 672.565,-530.847"/>
<polygon fill="green" stroke="green" points="676.071,-531.041 673.943,-520.662 669.134,-530.102 676.071,-531.041"/>
<text text-anchor="middle" x="586" y="-631.256" font-family="Times,serif" font-size="14.00">merge_pair</text>
</g>
<!-- q1&#45;&gt;q0 -->
<g id="edge10" class="edge"><title>q1&#45;&gt;q0</title>
<path fill="none" stroke="green" d="M278.939,-544.095C349.424,-555.925 577.161,-590.611 640,-556.456 651.16,-550.39 659.311,-539.061 664.924,-528.34"/>
<polygon fill="green" stroke="green" points="668.123,-529.762 669.215,-519.223 661.79,-526.78 668.123,-529.762"/>
<text text-anchor="middle" x="586" y="-575.256" font-family="Times,serif" font-size="14.00">seq_sort_core</text>
</g>
<!-- q1&#45;&gt;q0 -->
<g id="edge11" class="edge"><title>q1&#45;&gt;q0</title>
<path fill="none" stroke="green" d="M279.109,-541.934C337.53,-545.455 505.892,-551.723 640,-518.456 643.477,-517.594 647.034,-516.39 650.483,-515.027"/>
<polygon fill="green" stroke="green" points="652.045,-518.163 659.768,-510.91 649.208,-511.764 652.045,-518.163"/>
<text text-anchor="middle" x="586" y="-541.256" font-family="Times,serif" font-size="14.00">inspect_before</text>
</g>
<!-- q1&#45;&gt;q0 -->
<g id="edge12" class="edge"><title>q1&#45;&gt;q0</title>
<path fill="none" stroke="green" d="M279.158,-540.613C323.735,-540.362 430.112,-536.68 514,-509.456 522.705,-506.631 523.141,-501.752 532,-499.456 571.219,-489.293 618.532,-493.303 647.692,-497.548"/>
<polygon fill="green" stroke="green" points="647.502,-501.061 657.924,-499.158 648.589,-494.146 647.502,-501.061"/>
<text text-anchor="middle" x="586" y="-503.256" font-family="Times,serif" font-size="14.00">inspect_after</text>
</g>
<!-- q1&#45;&gt;q0 -->
<g id="edge13" class="edge"><title>q1&#45;&gt;q0</title>
<path fill="none" stroke="green" d="M278.842,-543.999C325.6,-550.758 440.515,-560.614 514,-509.456 528.356,-499.462 517.068,-483.568 532,-474.456 572.974,-449.453 594.706,-458.568 640,-474.456 645.415,-476.356 650.615,-479.485 655.275,-482.977"/>
<polygon fill="green" stroke="green" points="653.098,-485.719 663.007,-489.468 657.599,-480.358 653.098,-485.719"/>
<text text-anchor="middle" x="586" y="-478.256" font-family="Times,serif" font-size="14.00">Learn_Assert</text>
</g>
<!-- q0&#45;&gt;q0 -->
<g id="edge2" class="edge"><title>q0&#45;&gt;q0</title>
<path fill="none" stroke="black" d="M672.764,-520.238C672.214,-529.771 673.293,-538.456 676,-538.456 677.65,-538.456 678.694,-535.231 679.135,-530.554"/>
<polygon fill="black" stroke="black" points="682.638,-530.272 679.236,-520.238 675.638,-530.203 682.638,-530.272"/>
<text text-anchor="middle" x="676" y="-542.256" font-family="Times,serif" font-size="14.00">merge_single_node</text>
</g>
<!-- q0&#45;&gt;q0 -->
<g id="edge3" class="edge"><title>q0&#45;&gt;q0</title>
<path fill="none" stroke="green" d="M670.684,-519.876C667.654,-537.247 669.426,-556.456 676,-556.456 681.29,-556.456 683.471,-544.018 682.542,-530.108"/>
<polygon fill="green" stroke="green" points="685.981,-529.389 681.316,-519.876 679.031,-530.222 685.981,-529.389"/>
<text text-anchor="middle" x="676" y="-560.256" font-family="Times,serif" font-size="14.00">merge_pair</text>
</g>
<!-- q0&#45;&gt;q0 -->
<g id="edge4" class="edge"><title>q0&#45;&gt;q0</title>
<path fill="none" stroke="green" d="M669.444,-519.448C663.057,-543.976 665.242,-574.456 676,-574.456 685.329,-574.456 688.211,-551.534 684.647,-529.451"/>
<polygon fill="green" stroke="green" points="688.028,-528.52 682.556,-519.448 681.176,-529.953 688.028,-528.52"/>
<text text-anchor="middle" x="676" y="-578.256" font-family="Times,serif" font-size="14.00">seq_sort_core</text>
</g>
<!-- q0&#45;&gt;q0 -->
<g id="edge6" class="edge"><title>q0&#45;&gt;q0</title>
<path fill="none" stroke="green" d="M668.594,-519.247C658.484,-550.529 660.953,-592.456 676,-592.456 689.519,-592.456 692.884,-558.613 686.097,-529.052"/>
<polygon fill="green" stroke="green" points="689.428,-527.964 683.406,-519.247 682.677,-529.817 689.428,-527.964"/>
<text text-anchor="middle" x="676" y="-596.256" font-family="Times,serif" font-size="14.00">inspect_after</text>
</g>
<!-- q0&#45;&gt;q0 -->
<g id="edge7" class="edge"><title>q0&#45;&gt;q0</title>
<path fill="none" stroke="green" d="M668.129,-518.708C653.909,-556.555 656.532,-610.456 676,-610.456 693.871,-610.456 697.548,-565.035 687.03,-528.307"/>
<polygon fill="green" stroke="green" points="690.322,-527.112 683.871,-518.708 683.673,-529.301 690.322,-527.112"/>
<text text-anchor="middle" x="676" y="-614.256" font-family="Times,serif" font-size="14.00">Learn_Assert</text>
</g>
<!-- q6 -->
<g id="node8" class="node"><title>q6</title>
<ellipse fill="none" stroke="green" cx="892" cy="-170.456" rx="18" ry="18"/>
<text text-anchor="middle" x="892" y="-166.756" font-family="Times,serif" font-size="14.00">D</text>
</g>
<!-- q0&#45;&gt;q6 -->
<g id="edge5" class="edge"><title>q0&#45;&gt;q6</title>
<path fill="none" stroke="green" d="M677.541,-484.139C679.687,-417.757 688.648,-192.587 712,-171.456 733.607,-151.904 819.618,-160.462 864.077,-166.437"/>
<polygon fill="green" stroke="green" points="863.78,-169.93 874.167,-167.846 864.747,-162.997 863.78,-169.93"/>
<text text-anchor="middle" x="766" y="-175.256" font-family="Times,serif" font-size="14.00">inspect_before</text>
</g>
<!-- q2 -->
<g id="node4" class="node"><title>q2</title>
<ellipse fill="none" stroke="green" cx="1750" cy="-814.456" rx="18" ry="18"/>
<text text-anchor="middle" x="1750" y="-810.756" font-family="Times,serif" font-size="14.00">D</text>
</g>
<!-- q2&#45;&gt;q1 -->
<g id="edge19" class="edge"><title>q2&#45;&gt;q1</title>
<path fill="none" stroke="green" d="M1747.13,-832.401C1743,-868.72 1732.01,-949.205 1714,-969.456 1675.79,-1012.41 1649.49,-1012.46 1592,-1012.46 675,-1012.46 675,-1012.46 675,-1012.46 438.492,-1012.46 303.955,-675.507 267.913,-570.993"/>
<polygon fill="green" stroke="green" points="271.167,-569.692 264.64,-561.346 264.538,-571.941 271.167,-569.692"/>
<text text-anchor="middle" x="1144" y="-1016.26" font-family="Times,serif" font-size="14.00">Learn_Assert</text>
</g>
<!-- q2&#45;&gt;q0 -->
<g id="edge14" class="edge"><title>q2&#45;&gt;q0</title>
<path fill="none" stroke="black" d="M1749.62,-832.742C1749.49,-860.675 1744.87,-913.747 1714,-942.456 1673.53,-980.087 1647.26,-966.456 1592,-966.456 891,-966.456 891,-966.456 891,-966.456 810.733,-966.456 767.207,-1000.72 712,-942.456 683.701,-912.589 678.251,-623.152 677.229,-530.695"/>
<polygon fill="black" stroke="black" points="680.726,-530.391 677.125,-520.427 673.727,-530.462 680.726,-530.391"/>
<text text-anchor="middle" x="1270" y="-970.256" font-family="Times,serif" font-size="14.00">merge_single_node</text>
</g>
<!-- q2&#45;&gt;q0 -->
<g id="edge15" class="edge"><title>q2&#45;&gt;q0</title>
<path fill="none" stroke="green" d="M1747.15,-832.272C1744.02,-852.871 1735.72,-886.267 1714,-904.456 1671.63,-939.933 1647.26,-928.456 1592,-928.456 891,-928.456 891,-928.456 891,-928.456 810.733,-928.456 767.425,-962.516 712,-904.456 686.283,-877.516 679.14,-617.94 677.459,-530.811"/>
<polygon fill="green" stroke="green" points="680.954,-530.543 677.272,-520.609 673.956,-530.671 680.954,-530.543"/>
<text text-anchor="middle" x="1270" y="-932.256" font-family="Times,serif" font-size="14.00">merge_pair</text>
</g>
<!-- q2&#45;&gt;q0 -->
<g id="edge16" class="edge"><title>q2&#45;&gt;q0</title>
<path fill="none" stroke="green" d="M1742.02,-831.121C1736.23,-842.842 1726.87,-857.906 1714,-866.456 1667.97,-897.032 1647.26,-890.456 1592,-890.456 891,-890.456 891,-890.456 891,-890.456 810.733,-890.456 767.686,-924.266 712,-866.456 688.864,-842.438 680.129,-612.633 677.74,-531.029"/>
<polygon fill="green" stroke="green" points="681.225,-530.432 677.445,-520.534 674.228,-530.629 681.225,-530.432"/>
<text text-anchor="middle" x="1270" y="-894.256" font-family="Times,serif" font-size="14.00">seq_sort_core</text>
</g>
<!-- q2&#45;&gt;q0 -->
<g id="edge17" class="edge"><title>q2&#45;&gt;q0</title>
<path fill="none" stroke="green" d="M1733.19,-821.506C1727.26,-823.957 1720.4,-826.564 1714,-828.456 1661,-844.119 1647.26,-852.456 1592,-852.456 891,-852.456 891,-852.456 891,-852.456 810.733,-852.456 768.006,-885.956 712,-828.456 691.369,-807.275 681.171,-605.718 678.062,-530.542"/>
<polygon fill="green" stroke="green" points="681.553,-530.255 677.654,-520.404 674.559,-530.536 681.553,-530.255"/>
<text text-anchor="middle" x="1270" y="-856.256" font-family="Times,serif" font-size="14.00">inspect_before</text>
</g>
<!-- q2&#45;&gt;q0 -->
<g id="edge18" class="edge"><title>q2&#45;&gt;q0</title>
<path fill="none" stroke="green" d="M1731.58,-814.456C1702.6,-814.456 1642.7,-814.456 1592,-814.456 891,-814.456 891,-814.456 891,-814.456 808.969,-814.456 766.546,-830.724 712,-769.456 680.988,-734.622 677.056,-591.902 676.831,-530.623"/>
<polygon fill="green" stroke="green" points="680.331,-530.505 676.825,-520.507 673.331,-530.509 680.331,-530.505"/>
<text text-anchor="middle" x="1270" y="-818.256" font-family="Times,serif" font-size="14.00">inspect_after</text>
</g>
<!-- q3 -->
<g id="node5" class="node"><title>q3</title>
<ellipse fill="none" stroke="black" cx="1591" cy="-593.456" rx="18" ry="18"/>
<text text-anchor="middle" x="1591" y="-589.756" font-family="Times,serif" font-size="14.00">D</text>
</g>
<!-- q3&#45;&gt;q0 -->
<g id="edge20" class="edge"><title>q3&#45;&gt;q0</title>
<path fill="none" stroke="black" d="M1588.68,-611.634C1585.48,-641.832 1574.6,-702.198 1538,-734.456 1483.24,-782.713 1450.99,-771.456 1378,-771.456 891,-771.456 891,-771.456 891,-771.456 809.763,-771.456 767.869,-793.432 712,-734.456 684.687,-705.624 678.676,-586.106 677.362,-530.785"/>
<polygon fill="black" stroke="black" points="680.858,-530.55 677.157,-520.623 673.86,-530.691 680.858,-530.55"/>
<text text-anchor="middle" x="1144" y="-775.256" font-family="Times,serif" font-size="14.00">merge_single_node</text>
</g>
<!-- q3&#45;&gt;q0 -->
<g id="edge21" class="edge"><title>q3&#45;&gt;q0</title>
<path fill="none" stroke="green" d="M1584.81,-610.563C1577.67,-631.111 1562.8,-665.101 1538,-683.456 1479.33,-726.872 1450.99,-720.456 1378,-720.456 891,-720.456 891,-720.456 891,-720.456 809.763,-720.456 769.074,-741.267 712,-683.456 691.027,-662.212 682.035,-575.82 678.7,-530.505"/>
<polygon fill="green" stroke="green" points="682.186,-530.187 678.003,-520.453 675.203,-530.671 682.186,-530.187"/>
<text text-anchor="middle" x="1144" y="-724.256" font-family="Times,serif" font-size="14.00">merge_pair</text>
</g>
<!-- q3&#45;&gt;q0 -->
<g id="edge22" class="edge"><title>q3&#45;&gt;q0</title>
<path fill="none" stroke="green" d="M1577.31,-605.384C1567.35,-614.119 1552.73,-625.603 1538,-632.456 1471.82,-663.239 1450.99,-669.456 1378,-669.456 891,-669.456 891,-669.456 891,-669.456 809.763,-669.456 771.117,-688.175 712,-632.456 684.127,-606.185 677.597,-560.277 676.507,-530.639"/>
<polygon fill="green" stroke="green" points="680.004,-530.456 676.322,-520.522 673.005,-530.584 680.004,-530.456"/>
<text text-anchor="middle" x="1144" y="-673.256" font-family="Times,serif" font-size="14.00">seq_sort_core</text>
</g>
<!-- q3&#45;&gt;q0 -->
<g id="edge23" class="edge"><title>q3&#45;&gt;q0</title>
<path fill="none" stroke="green" d="M1573.04,-596.828C1537.19,-603.652 1451.01,-618.456 1378,-618.456 891,-618.456 891,-618.456 891,-618.456 809.763,-618.456 775.23,-632.461 712,-581.456 696.239,-568.743 687.369,-547.472 682.503,-530.203"/>
<polygon fill="green" stroke="green" points="685.793,-528.93 679.966,-520.081 679.003,-530.631 685.793,-528.93"/>
<text text-anchor="middle" x="1144" y="-622.256" font-family="Times,serif" font-size="14.00">inspect_before</text>
</g>
<!-- q3&#45;&gt;q0 -->
<g id="edge25" class="edge"><title>q3&#45;&gt;q0</title>
<path fill="none" stroke="green" d="M1573.32,-590.004C1537.65,-582.931 1451.24,-567.456 1378,-567.456 891,-567.456 891,-567.456 891,-567.456 809.076,-567.456 787.749,-554.658 712,-523.456 707.946,-521.786 703.807,-519.697 699.861,-517.488"/>
<polygon fill="green" stroke="green" points="701.511,-514.397 691.134,-512.26 697.914,-520.402 701.511,-514.397"/>
<text text-anchor="middle" x="1144" y="-571.256" font-family="Times,serif" font-size="14.00">Learn_Assert</text>
</g>
<!-- q3&#45;&gt;q2 -->
<g id="edge24" class="edge"><title>q3&#45;&gt;q2</title>
<path fill="none" stroke="green" d="M1602.3,-607.957C1629.03,-645.588 1700.78,-746.584 1732.98,-791.903"/>
<polygon fill="green" stroke="green" points="1730.22,-794.064 1738.86,-800.19 1735.93,-790.01 1730.22,-794.064"/>
<text text-anchor="middle" x="1679" y="-765.256" font-family="Times,serif" font-size="14.00">inspect_after</text>
</g>
<!-- q4 -->
<g id="node6" class="node"><title>q4</title>
<ellipse fill="none" stroke="black" cx="1377" cy="-369.456" rx="18" ry="18"/>
<text text-anchor="middle" x="1377" y="-365.756" font-family="Times,serif" font-size="14.00">D</text>
</g>
<!-- q4&#45;&gt;q0 -->
<g id="edge29" class="edge"><title>q4&#45;&gt;q0</title>
<path fill="none" stroke="green" d="M1369.98,-352.571C1362.1,-332.487 1346.57,-298.979 1324,-277.456 1117.19,-80.2733 922.236,113.065 712,-80.4561 683.056,-107.099 678.045,-384.213 677.18,-474.32"/>
<polygon fill="green" stroke="green" points="673.68,-474.322 677.094,-484.352 680.68,-474.382 673.68,-474.322"/>
<text text-anchor="middle" x="1018" y="-65.2561" font-family="Times,serif" font-size="14.00">inspect_before</text>
</g>
<!-- q4&#45;&gt;q0 -->
<g id="edge31" class="edge"><title>q4&#45;&gt;q0</title>
<path fill="none" stroke="green" d="M1358.8,-368.658C1259.75,-364.214 764.738,-344.155 712,-384.456 684.871,-405.188 677.972,-446.012 676.619,-473.768"/>
<polygon fill="green" stroke="green" points="673.113,-473.962 676.339,-484.053 680.11,-474.152 673.113,-473.962"/>
<text text-anchor="middle" x="1018" y="-364.256" font-family="Times,serif" font-size="14.00">Learn_Assert</text>
</g>
<!-- q4&#45;&gt;q2 -->
<g id="edge30" class="edge"><title>q4&#45;&gt;q2</title>
<path fill="none" stroke="green" d="M1394.85,-366.677C1425.12,-362.49 1490.01,-357.236 1538,-379.456 1640.4,-426.872 1664.72,-460.942 1714,-562.456 1732.94,-601.465 1743.41,-728.876 1747.27,-786.137"/>
<polygon fill="green" stroke="green" points="1743.79,-786.541 1747.93,-796.292 1750.77,-786.085 1743.79,-786.541"/>
<text text-anchor="middle" x="1591" y="-434.256" font-family="Times,serif" font-size="14.00">inspect_after</text>
</g>
<!-- q4&#45;&gt;q3 -->
<g id="edge26" class="edge"><title>q4&#45;&gt;q3</title>
<path fill="none" stroke="black" d="M1395.1,-372.116C1435.34,-378.45 1533.03,-394.282 1538,-399.456 1557.28,-419.546 1547.82,-496.84 1556,-523.456 1560.92,-539.46 1569.04,-556.372 1576.12,-569.564"/>
<polygon fill="black" stroke="black" points="1573.12,-571.383 1581.02,-578.445 1579.25,-567.999 1573.12,-571.383"/>
<text text-anchor="middle" x="1484" y="-403.256" font-family="Times,serif" font-size="14.00">merge_single_node</text>
</g>
<!-- q4&#45;&gt;q3 -->
<g id="edge27" class="edge"><title>q4&#45;&gt;q3</title>
<path fill="none" stroke="green" d="M1384.6,-385.951C1392.76,-404.431 1408.26,-434.184 1430,-452.456 1469.68,-485.807 1499.47,-461.784 1538,-496.456 1543.91,-501.778 1564.14,-541.23 1577.56,-568.152"/>
<polygon fill="green" stroke="green" points="1574.57,-570.013 1582.15,-577.417 1580.84,-566.903 1574.57,-570.013"/>
<text text-anchor="middle" x="1484" y="-500.256" font-family="Times,serif" font-size="14.00">merge_pair</text>
</g>
<!-- q4&#45;&gt;q3 -->
<g id="edge28" class="edge"><title>q4&#45;&gt;q3</title>
<path fill="none" stroke="green" d="M1389.44,-382.675C1399.16,-393.015 1414.04,-406.87 1430,-414.456 1474.02,-435.38 1503.14,-399.397 1538,-433.456 1567.18,-461.963 1542.98,-484.796 1556,-523.456 1561.31,-539.22 1569.37,-556.012 1576.32,-569.197"/>
<polygon fill="green" stroke="green" points="1573.29,-570.956 1581.12,-578.094 1579.45,-567.631 1573.29,-570.956"/>
<text text-anchor="middle" x="1484" y="-437.256" font-family="Times,serif" font-size="14.00">seq_sort_core</text>
</g>
<!-- q5 -->
<g id="node7" class="node"><title>q5</title>
<ellipse fill="none" stroke="black" cx="1144" cy="-275.456" rx="18" ry="18"/>
<text text-anchor="middle" x="1144" y="-271.756" font-family="Times,serif" font-size="14.00">D</text>
</g>
<!-- q5&#45;&gt;q0 -->
<g id="edge32" class="edge"><title>q5&#45;&gt;q0</title>
<path fill="none" stroke="black" d="M1126.08,-278.858C1111.71,-281.733 1090.51,-285.934 1072,-289.456 992.1,-304.657 770.999,-299.472 712,-355.456 695.069,-371.522 684.765,-436.271 680.056,-474.267"/>
<polygon fill="black" stroke="black" points="676.525,-474.322 678.824,-484.664 683.476,-475.145 676.525,-474.322"/>
<text text-anchor="middle" x="892" y="-316.256" font-family="Times,serif" font-size="14.00">merge_single_node</text>
</g>
<!-- q5&#45;&gt;q0 -->
<g id="edge35" class="edge"><title>q5&#45;&gt;q0</title>
<path fill="none" stroke="green" d="M1125.69,-274.572C1078.99,-272.474 946.613,-268.431 838,-283.456 834.423,-283.951 714.471,-312.823 712,-315.456 690.824,-338.026 681.895,-427.762 678.631,-474.232"/>
<polygon fill="green" stroke="green" points="675.136,-474.043 677.968,-484.252 682.121,-474.505 675.136,-474.043"/>
<text text-anchor="middle" x="892" y="-287.256" font-family="Times,serif" font-size="14.00">inspect_before</text>
</g>
<!-- q5&#45;&gt;q0 -->
<g id="edge37" class="edge"><title>q5&#45;&gt;q0</title>
<path fill="none" stroke="green" d="M1125.92,-273.133C1091.8,-268.625 1012.78,-258.837 946,-255.456 898.061,-253.029 885.177,-246.606 838,-255.456 829.564,-257.039 828.168,-259.819 820,-262.456 772.811,-277.691 745.449,-253.85 712,-290.456 687.861,-316.873 680.246,-422.763 677.945,-474.17"/>
<polygon fill="green" stroke="green" points="674.443,-474.13 677.53,-484.265 681.437,-474.417 674.443,-474.13"/>
<text text-anchor="middle" x="892" y="-259.256" font-family="Times,serif" font-size="14.00">Learn_Assert</text>
</g>
<!-- q5&#45;&gt;q2 -->
<g id="edge36" class="edge"><title>q5&#45;&gt;q2</title>
<path fill="none" stroke="green" d="M1162,-273.622C1243.55,-265.897 1595.64,-245.05 1714,-445.456 1748,-503.02 1749.86,-710.227 1749.36,-786.241"/>
<polygon fill="green" stroke="green" points="1745.86,-786.441 1749.27,-796.471 1752.86,-786.501 1745.86,-786.441"/>
<text text-anchor="middle" x="1484" y="-315.256" font-family="Times,serif" font-size="14.00">inspect_after</text>
</g>
<!-- q5&#45;&gt;q4 -->
<g id="edge33" class="edge"><title>q5&#45;&gt;q4</title>
<path fill="none" stroke="green" d="M1162.17,-276.429C1201.47,-278.91 1296.68,-286.442 1324,-302.456 1340.94,-312.385 1354.34,-330.145 1363.29,-344.886"/>
<polygon fill="green" stroke="green" points="1360.27,-346.649 1368.28,-353.577 1366.34,-343.163 1360.27,-346.649"/>
<text text-anchor="middle" x="1270" y="-306.256" font-family="Times,serif" font-size="14.00">merge_pair</text>
</g>
<!-- q7 -->
<g id="node9" class="node"><title>q7</title>
<ellipse fill="none" stroke="black" cx="1377" cy="-483.456" rx="18" ry="18"/>
<text text-anchor="middle" x="1377" y="-479.756" font-family="Times,serif" font-size="14.00">D</text>
</g>
<!-- q5&#45;&gt;q7 -->
<g id="edge34" class="edge"><title>q5&#45;&gt;q7</title>
<path fill="none" stroke="green" d="M1159.91,-284.393C1174.24,-292.955 1196.53,-306.203 1216,-317.456 1263.73,-345.047 1286.09,-338.431 1324,-378.456 1345.23,-400.87 1359.56,-433.608 1367.72,-456.554"/>
<polygon fill="green" stroke="green" points="1364.51,-457.987 1371.03,-466.335 1371.13,-455.741 1364.51,-457.987"/>
<text text-anchor="middle" x="1270" y="-382.256" font-family="Times,serif" font-size="14.00">seq_sort_core</text>
</g>
<!-- q6&#45;&gt;q0 -->
<g id="edge38" class="edge"><title>q6&#45;&gt;q0</title>
<path fill="none" stroke="black" d="M876.507,-161.153C842.912,-140.87 759.007,-97.7752 712,-140.456 687.445,-162.752 679.62,-392.315 677.604,-473.887"/>
<polygon fill="black" stroke="black" points="674.093,-474.299 677.356,-484.378 681.091,-474.464 674.093,-474.299"/>
<text text-anchor="middle" x="766" y="-144.256" font-family="Times,serif" font-size="14.00">merge_single_node</text>
</g>
<!-- q6&#45;&gt;q0 -->
<g id="edge39" class="edge"><title>q6&#45;&gt;q0</title>
<path fill="none" stroke="green" d="M880.979,-155.875C868.769,-139.539 846.461,-113.97 820,-103.456 775.392,-85.7317 747.393,-71.0318 712,-103.456 684.741,-128.428 678.618,-387.236 677.326,-474.161"/>
<polygon fill="green" stroke="green" points="673.824,-474.292 677.185,-484.34 680.823,-474.389 673.824,-474.292"/>
<text text-anchor="middle" x="766" y="-107.256" font-family="Times,serif" font-size="14.00">merge_pair</text>
</g>
<!-- q6&#45;&gt;q0 -->
<g id="edge41" class="edge"><title>q6&#45;&gt;q0</title>
<path fill="none" stroke="green" d="M875.22,-178.142C864.156,-183.954 849.371,-192.6 838,-202.456 828.453,-210.731 830.787,-217.88 820,-224.456 778.096,-250.001 745.405,-211.504 712,-247.456 681.862,-279.892 677.411,-414.91 676.937,-474.259"/>
<polygon fill="green" stroke="green" points="673.437,-474.403 676.89,-484.419 680.437,-474.435 673.437,-474.403"/>
<text text-anchor="middle" x="766" y="-251.256" font-family="Times,serif" font-size="14.00">inspect_before</text>
</g>
<!-- q6&#45;&gt;q0 -->
<g id="edge43" class="edge"><title>q6&#45;&gt;q0</title>
<path fill="none" stroke="green" d="M874.407,-174.43C860.048,-177.812 838.707,-182.705 820,-186.456 796.107,-191.247 728.735,-187.742 712,-205.456 693.724,-224.801 682.272,-403.669 678.436,-474.126"/>
<polygon fill="green" stroke="green" points="674.923,-474.29 677.886,-484.462 681.913,-474.662 674.923,-474.29"/>
<text text-anchor="middle" x="766" y="-209.256" font-family="Times,serif" font-size="14.00">Learn_Assert</text>
</g>
<!-- q6&#45;&gt;q2 -->
<g id="edge42" class="edge"><title>q6&#45;&gt;q2</title>
<path fill="none" stroke="green" d="M908.361,-162.858C946.855,-144.542 1050.96,-99.4561 1143,-99.4561 1143,-99.4561 1143,-99.4561 1592,-99.4561 1735.24,-99.4561 1747.95,-653.807 1748.95,-786.274"/>
<polygon fill="green" stroke="green" points="1745.45,-786.445 1749,-796.424 1752.45,-786.404 1745.45,-786.445"/>
<text text-anchor="middle" x="1377" y="-103.256" font-family="Times,serif" font-size="14.00">inspect_after</text>
</g>
<!-- q6&#45;&gt;q5 -->
<g id="edge40" class="edge"><title>q6&#45;&gt;q5</title>
<path fill="none" stroke="green" d="M909.97,-169.086C943.214,-167.174 1018.34,-166.708 1072,-195.456 1096.19,-208.419 1116.12,-233.083 1128.64,-251.614"/>
<polygon fill="green" stroke="green" points="1125.8,-253.661 1134.18,-260.141 1131.67,-249.848 1125.8,-253.661"/>
<text text-anchor="middle" x="1018" y="-199.256" font-family="Times,serif" font-size="14.00">seq_sort_core</text>
</g>
<!-- q7&#45;&gt;q0 -->
<g id="edge44" class="edge"><title>q7&#45;&gt;q0</title>
<path fill="none" stroke="black" d="M1359.83,-488.955C1349.67,-492.119 1336.23,-495.789 1324,-497.456 1085.74,-529.931 793.533,-511.59 704.208,-504.711"/>
<polygon fill="black" stroke="black" points="704.353,-501.212 694.109,-503.915 703.802,-508.19 704.353,-501.212"/>
<text text-anchor="middle" x="1018" y="-520.256" font-family="Times,serif" font-size="14.00">merge_single_node</text>
</g>
<!-- q7&#45;&gt;q0 -->
<g id="edge46" class="edge"><title>q7&#45;&gt;q0</title>
<path fill="none" stroke="green" d="M1359.3,-478.175C1349.19,-475.173 1335.96,-471.596 1324,-469.456 1213.29,-449.653 1184.35,-451.573 1072,-446.456 911.84,-439.162 858.162,-403.569 712,-469.456 705.804,-472.249 700.011,-476.601 694.991,-481.238"/>
<polygon fill="green" stroke="green" points="692.295,-478.988 687.79,-488.577 697.292,-483.89 692.295,-478.988"/>
<text text-anchor="middle" x="1018" y="-450.256" font-family="Times,serif" font-size="14.00">seq_sort_core</text>
</g>
<!-- q7&#45;&gt;q0 -->
<g id="edge47" class="edge"><title>q7&#45;&gt;q0</title>
<path fill="none" stroke="green" d="M1362.32,-472.396C1352.31,-464.925 1338.08,-455.531 1324,-450.456 1217.79,-412.179 1184.67,-425.581 1072,-418.456 912.215,-408.352 845.731,-343.425 712,-431.456 697.028,-441.312 688.227,-459.555 683.195,-475.081"/>
<polygon fill="green" stroke="green" points="679.807,-474.197 680.406,-484.775 686.534,-476.133 679.807,-474.197"/>
<text text-anchor="middle" x="1018" y="-422.256" font-family="Times,serif" font-size="14.00">inspect_before</text>
</g>
<!-- q7&#45;&gt;q0 -->
<g id="edge49" class="edge"><title>q7&#45;&gt;q0</title>
<path fill="none" stroke="green" d="M1358.81,-483.913C1282.82,-485.934 969.352,-494.291 712,-501.456 709.448,-501.527 706.791,-501.602 704.133,-501.677"/>
<polygon fill="green" stroke="green" points="703.986,-498.18 694.09,-501.963 704.185,-505.177 703.986,-498.18"/>
<text text-anchor="middle" x="1018" y="-499.256" font-family="Times,serif" font-size="14.00">Learn_Assert</text>
</g>
<!-- q7&#45;&gt;q2 -->
<g id="edge48" class="edge"><title>q7&#45;&gt;q2</title>
<path fill="none" stroke="green" d="M1394.79,-486.412C1444.25,-495.369 1588.23,-523.317 1626,-551.456 1677.89,-590.117 1686.36,-608.946 1714,-667.456 1732.45,-706.498 1741.64,-756.103 1745.85,-786.549"/>
<polygon fill="green" stroke="green" points="1742.38,-787.005 1747.14,-796.47 1749.33,-786.102 1742.38,-787.005"/>
<text text-anchor="middle" x="1591" y="-555.256" font-family="Times,serif" font-size="14.00">inspect_after</text>
</g>
<!-- q7&#45;&gt;q3 -->
<g id="edge45" class="edge"><title>q7&#45;&gt;q3</title>
<path fill="none" stroke="green" d="M1391.87,-493.816C1401.96,-500.888 1416.22,-509.941 1430,-515.456 1475.56,-533.693 1495.21,-514.428 1538,-538.456 1552.2,-546.429 1564.84,-559.571 1574.1,-571.009"/>
<polygon fill="green" stroke="green" points="1571.34,-573.161 1580.22,-578.938 1576.88,-568.884 1571.34,-573.161"/>
<text text-anchor="middle" x="1484" y="-542.256" font-family="Times,serif" font-size="14.00">merge_pair</text>
</g>
<!-- iq0 -->
<g id="node10" class="node"><title>iq0</title>
</g>
<!-- iq0&#45;&gt;q0 -->
<g id="edge1" class="edge"><title>iq0&#45;&gt;q0</title>
<path fill="none" stroke="blue" d="M283.409,-1019.4C352.399,-968.96 544.425,-818.899 640,-646.456 660.438,-609.58 669.052,-560.908 672.605,-530.653"/>
<polygon fill="blue" stroke="blue" points="676.119,-530.71 673.697,-520.395 669.158,-529.968 676.119,-530.71"/>
</g>
</g>
</svg>
