<?xml version="1.0" encoding="UTF-8" standalone="no"?>
<!DOCTYPE svg PUBLIC "-//W3C//DTD SVG 1.1//EN"
 "http://www.w3.org/Graphics/SVG/1.1/DTD/svg11.dtd">
<!-- Generated by graphviz version 2.34.0 (20141125.1709)
 -->
<!-- Title: finite_automaton Pages: 1 -->
<svg width="576pt" height="127pt"
 viewBox="0.00 0.00 576.00 127.43" xmlns="http://www.w3.org/2000/svg" xmlns:xlink="http://www.w3.org/1999/xlink">
<g id="graph0" class="graph" transform="scale(0.571429 0.571429) rotate(0) translate(4 219)">
<title>finite_automaton</title>
<polygon fill="white" stroke="white" points="-4,4 -4,-219 1004,-219 1004,4 -4,4"/>
<!-- dom_edges -->
<g id="node1" class="node"><title>dom_edges</title>
<polygon fill="none" stroke="green" points="443.5,-36 0.5,-36 0.5,-0 443.5,-0 443.5,-36"/>
<text text-anchor="middle" x="222" y="-14.3" font-family="Times,serif" font-size="14.00">Dominating edges: seq_sort_core, inspect_before, inspect_after, Learn_Assert</text>
</g>
<!-- q1 -->
<g id="node2" class="node"><title>q1</title>
<ellipse fill="none" stroke="green" cx="978" cy="-191" rx="18" ry="18"/>
<ellipse fill="none" stroke="green" cx="978" cy="-191" rx="22" ry="22"/>
<text text-anchor="middle" x="978" y="-187.3" font-family="Times,serif" font-size="14.00">D</text>
</g>
<!-- q0 -->
<g id="node3" class="node"><title>q0</title>
<ellipse fill="none" stroke="green" cx="500" cy="-72" rx="18" ry="18"/>
</g>
<!-- q4 -->
<g id="node6" class="node"><title>q4</title>
<ellipse fill="none" stroke="green" cx="669" cy="-148" rx="18" ry="18"/>
</g>
<!-- q0&#45;&gt;q4 -->
<g id="edge2" class="edge"><title>q0&#45;&gt;q4</title>
<path fill="none" stroke="green" d="M518.116,-71.2071C541.626,-70.8584 584.568,-72.9277 616,-90 630.918,-98.1029 643.709,-112.205 652.872,-124.475"/>
<polygon fill="green" stroke="green" points="650.25,-126.829 658.882,-132.973 655.966,-122.788 650.25,-126.829"/>
<text text-anchor="middle" x="576" y="-93.8" font-family="Times,serif" font-size="14.00">inspect_before</text>
</g>
<!-- q2 -->
<g id="node4" class="node"><title>q2</title>
<ellipse fill="none" stroke="green" cx="828" cy="-191" rx="18" ry="18"/>
</g>
<!-- q2&#45;&gt;q1 -->
<g id="edge3" class="edge"><title>q2&#45;&gt;q1</title>
<path fill="none" stroke="green" d="M846.267,-191C870.55,-191 915.201,-191 945.489,-191"/>
<polygon fill="green" stroke="green" points="945.546,-194.5 955.546,-191 945.546,-187.5 945.546,-194.5"/>
<text text-anchor="middle" x="901" y="-194.8" font-family="Times,serif" font-size="14.00">Learn_Assert</text>
</g>
<!-- q3 -->
<g id="node5" class="node"><title>q3</title>
<ellipse fill="none" stroke="black" cx="500" cy="-167" rx="18" ry="18"/>
</g>
<!-- q3&#45;&gt;q2 -->
<g id="edge6" class="edge"><title>q3&#45;&gt;q2</title>
<path fill="none" stroke="green" d="M515.31,-177.145C521.401,-180.926 528.761,-184.826 536,-187 615.337,-210.83 639.204,-196.332 722,-199 753.095,-200.002 761.085,-202.488 792,-199 794.75,-198.69 797.6,-198.246 800.431,-197.725"/>
<polygon fill="green" stroke="green" points="801.348,-201.109 810.397,-195.598 799.886,-194.263 801.348,-201.109"/>
<text text-anchor="middle" x="669" y="-203.8" font-family="Times,serif" font-size="14.00">inspect_after</text>
</g>
<!-- q3&#45;&gt;q4 -->
<g id="edge4" class="edge"><title>q3&#45;&gt;q4</title>
<path fill="none" stroke="black" d="M518.282,-168.002C540.903,-168.983 581.705,-169.615 616,-164 624.748,-162.568 634.069,-160.036 642.369,-157.402"/>
<polygon fill="black" stroke="black" points="643.514,-160.71 651.879,-154.207 641.285,-154.074 643.514,-160.71"/>
<text text-anchor="middle" x="576" y="-171.8" font-family="Times,serif" font-size="14.00">merge_pair</text>
</g>
<!-- q3&#45;&gt;q4 -->
<g id="edge5" class="edge"><title>q3&#45;&gt;q4</title>
<path fill="none" stroke="green" d="M514.432,-156.061C520.611,-151.715 528.276,-147.226 536,-145 571.39,-134.801 614.353,-138.586 641.443,-142.819"/>
<polygon fill="green" stroke="green" points="640.892,-146.276 651.337,-144.497 642.063,-139.374 640.892,-146.276"/>
<text text-anchor="middle" x="576" y="-148.8" font-family="Times,serif" font-size="14.00">seq_sort_core</text>
</g>
<!-- q4&#45;&gt;q2 -->
<g id="edge8" class="edge"><title>q4&#45;&gt;q2</title>
<path fill="none" stroke="green" d="M686.505,-152.52C713.642,-159.953 767.919,-174.818 800.492,-183.74"/>
<polygon fill="green" stroke="green" points="799.674,-187.145 810.244,-186.411 801.523,-180.393 799.674,-187.145"/>
<text text-anchor="middle" x="757" y="-183.8" font-family="Times,serif" font-size="14.00">inspect_after</text>
</g>
<!-- q4&#45;&gt;q3 -->
<g id="edge7" class="edge"><title>q4&#45;&gt;q3</title>
<path fill="none" stroke="green" d="M653.84,-137.484C643.838,-130.736 629.806,-122.589 616,-119 581.589,-110.053 567.694,-102.885 536,-119 526.448,-123.857 518.883,-132.679 513.267,-141.447"/>
<polygon fill="green" stroke="green" points="510.072,-139.983 508.118,-150.396 516.139,-143.474 510.072,-139.983"/>
<text text-anchor="middle" x="576" y="-122.8" font-family="Times,serif" font-size="14.00">seq_sort_core</text>
</g>
<!-- iq0 -->
<g id="node7" class="node"><title>iq0</title>
</g>
<!-- iq0&#45;&gt;q0 -->
<g id="edge1" class="edge"><title>iq0&#45;&gt;q0</title>
<path fill="none" stroke="blue" d="M249.464,-72C301.974,-72 418.837,-72 471.879,-72"/>
<polygon fill="blue" stroke="blue" points="471.891,-75.5001 481.891,-72 471.891,-68.5001 471.891,-75.5001"/>
</g>
</g>
</svg>
