<?xml version="1.0" encoding="UTF-8" standalone="no"?>
<!DOCTYPE svg PUBLIC "-//W3C//DTD SVG 1.1//EN"
 "http://www.w3.org/Graphics/SVG/1.1/DTD/svg11.dtd">
<!-- Generated by graphviz version 2.34.0 (20141125.1709)
 -->
<!-- Title: finite_automaton Pages: 1 -->
<svg width="576pt" height="263pt"
 viewBox="0.00 0.00 576.00 263.09" xmlns="http://www.w3.org/2000/svg" xmlns:xlink="http://www.w3.org/1999/xlink">
<g id="graph0" class="graph" transform="scale(0.610169 0.610169) rotate(0) translate(4 427.173)">
<title>finite_automaton</title>
<polygon fill="white" stroke="white" points="-4,4 -4,-427.173 940,-427.173 940,4 -4,4"/>
<!-- dom_edges -->
<g id="node1" class="node"><title>dom_edges</title>
<polygon fill="none" stroke="green" points="361.5,-73.1732 0.5,-73.1732 0.5,-37.1732 361.5,-37.1732 361.5,-73.1732"/>
<text text-anchor="middle" x="181" y="-51.4732" font-family="Times,serif" font-size="14.00">Dominating edges: inspect_before, inspect_after, Learn_Assert</text>
</g>
<!-- q1 -->
<g id="node2" class="node"><title>q1</title>
<ellipse fill="none" stroke="green" cx="181" cy="-256.173" rx="18" ry="18"/>
<ellipse fill="none" stroke="green" cx="181" cy="-256.173" rx="22" ry="22"/>
<text text-anchor="middle" x="181" y="-252.473" font-family="Times,serif" font-size="14.00">D</text>
</g>
<!-- q0 -->
<g id="node3" class="node"><title>q0</title>
<ellipse fill="none" stroke="green" cx="524" cy="-199.173" rx="18" ry="18"/>
<text text-anchor="middle" x="524" y="-195.473" font-family="Times,serif" font-size="14.00">D</text>
</g>
<!-- q1&#45;&gt;q0 -->
<g id="edge8" class="edge"><title>q1&#45;&gt;q0</title>
<path fill="none" stroke="black" d="M199.961,-267.707C250.659,-298.661 397.075,-376.841 488,-310.173 513.636,-291.376 520.982,-253.761 522.835,-227.556"/>
<polygon fill="black" stroke="black" points="526.337,-227.611 523.322,-217.454 519.345,-227.274 526.337,-227.611"/>
<text text-anchor="middle" x="434" y="-339.973" font-family="Times,serif" font-size="14.00">merge_single_node</text>
</g>
<!-- q1&#45;&gt;q0 -->
<g id="edge9" class="edge"><title>q1&#45;&gt;q0</title>
<path fill="none" stroke="black" d="M202.639,-260.254C263.425,-271.816 440.505,-302.074 488,-272.173 503.709,-262.284 512.525,-243.169 517.379,-226.98"/>
<polygon fill="black" stroke="black" points="520.874,-227.451 520.029,-216.89 514.103,-225.673 520.874,-227.451"/>
<text text-anchor="middle" x="434" y="-287.973" font-family="Times,serif" font-size="14.00">merge_pair</text>
</g>
<!-- q1&#45;&gt;q0 -->
<g id="edge10" class="edge"><title>q1&#45;&gt;q0</title>
<path fill="none" stroke="black" d="M203.162,-256.549C263.808,-257.33 437.133,-257.415 488,-234.173 494.617,-231.15 500.685,-226.299 505.843,-221.159"/>
<polygon fill="black" stroke="black" points="508.575,-223.357 512.709,-213.602 503.394,-218.65 508.575,-223.357"/>
<text text-anchor="middle" x="434" y="-254.973" font-family="Times,serif" font-size="14.00">seq_sort_core</text>
</g>
<!-- q1&#45;&gt;q0 -->
<g id="edge11" class="edge"><title>q1&#45;&gt;q0</title>
<path fill="none" stroke="green" d="M202.693,-251.227C238.593,-242.794 314.824,-225.544 380,-215.173 420.033,-208.803 466.77,-204.08 495.628,-201.475"/>
<polygon fill="green" stroke="green" points="496.107,-204.947 505.761,-200.582 495.492,-197.974 496.107,-204.947"/>
<text text-anchor="middle" x="434" y="-218.973" font-family="Times,serif" font-size="14.00">inspect_before</text>
</g>
<!-- q1&#45;&gt;q0 -->
<g id="edge12" class="edge"><title>q1&#45;&gt;q0</title>
<path fill="none" stroke="green" d="M201.031,-246.557C235.599,-229.691 311.473,-195.403 380,-183.173 427.253,-174.74 441.099,-172.961 488,-183.173 491.501,-183.935 495.071,-185.08 498.527,-186.414"/>
<polygon fill="green" stroke="green" points="497.254,-189.678 507.816,-190.513 500.08,-183.274 497.254,-189.678"/>
<text text-anchor="middle" x="434" y="-186.973" font-family="Times,serif" font-size="14.00">inspect_after</text>
</g>
<!-- q1&#45;&gt;q0 -->
<g id="edge13" class="edge"><title>q1&#45;&gt;q0</title>
<path fill="none" stroke="green" d="M199.451,-243.761C232.661,-220.99 308.072,-173.306 380,-156.173 426.694,-145.051 444.65,-135.563 488,-156.173 496.498,-160.213 503.609,-167.437 509.153,-174.825"/>
<polygon fill="green" stroke="green" points="506.438,-177.058 514.932,-183.391 512.241,-173.144 506.438,-177.058"/>
<text text-anchor="middle" x="434" y="-159.973" font-family="Times,serif" font-size="14.00">Learn_Assert</text>
</g>
<!-- q0&#45;&gt;q0 -->
<g id="edge2" class="edge"><title>q0&#45;&gt;q0</title>
<path fill="none" stroke="black" d="M520.764,-216.955C520.214,-226.488 521.293,-235.173 524,-235.173 525.65,-235.173 526.694,-231.948 527.135,-227.271"/>
<polygon fill="black" stroke="black" points="530.638,-226.989 527.236,-216.955 523.638,-226.92 530.638,-226.989"/>
<text text-anchor="middle" x="524" y="-238.973" font-family="Times,serif" font-size="14.00">merge_single_node</text>
</g>
<!-- q0&#45;&gt;q0 -->
<g id="edge3" class="edge"><title>q0&#45;&gt;q0</title>
<path fill="none" stroke="black" d="M518.684,-216.593C515.654,-233.964 517.426,-253.173 524,-253.173 529.29,-253.173 531.471,-240.735 530.542,-226.825"/>
<polygon fill="black" stroke="black" points="533.981,-226.106 529.316,-216.593 527.031,-226.939 533.981,-226.106"/>
<text text-anchor="middle" x="524" y="-256.973" font-family="Times,serif" font-size="14.00">merge_pair</text>
</g>
<!-- q0&#45;&gt;q0 -->
<g id="edge4" class="edge"><title>q0&#45;&gt;q0</title>
<path fill="none" stroke="black" d="M517.444,-216.165C511.057,-240.693 513.242,-271.173 524,-271.173 533.329,-271.173 536.211,-248.251 532.647,-226.168"/>
<polygon fill="black" stroke="black" points="536.028,-225.237 530.556,-216.165 529.176,-226.67 536.028,-225.237"/>
<text text-anchor="middle" x="524" y="-274.973" font-family="Times,serif" font-size="14.00">seq_sort_core</text>
</g>
<!-- q0&#45;&gt;q0 -->
<g id="edge6" class="edge"><title>q0&#45;&gt;q0</title>
<path fill="none" stroke="green" d="M516.594,-215.964C506.484,-247.246 508.953,-289.173 524,-289.173 537.519,-289.173 540.884,-255.33 534.097,-225.769"/>
<polygon fill="green" stroke="green" points="537.428,-224.681 531.406,-215.964 530.677,-226.534 537.428,-224.681"/>
<text text-anchor="middle" x="524" y="-292.973" font-family="Times,serif" font-size="14.00">inspect_after</text>
</g>
<!-- q0&#45;&gt;q0 -->
<g id="edge7" class="edge"><title>q0&#45;&gt;q0</title>
<path fill="none" stroke="green" d="M516.129,-215.425C501.909,-253.272 504.532,-307.173 524,-307.173 541.871,-307.173 545.548,-261.752 535.03,-225.024"/>
<polygon fill="green" stroke="green" points="538.322,-223.829 531.871,-215.425 531.673,-226.018 538.322,-223.829"/>
<text text-anchor="middle" x="524" y="-310.973" font-family="Times,serif" font-size="14.00">Learn_Assert</text>
</g>
<!-- q3 -->
<g id="node5" class="node"><title>q3</title>
<ellipse fill="none" stroke="green" cx="740" cy="-230.173" rx="18" ry="18"/>
<text text-anchor="middle" x="740" y="-226.473" font-family="Times,serif" font-size="14.00">D</text>
</g>
<!-- q0&#45;&gt;q3 -->
<g id="edge5" class="edge"><title>q0&#45;&gt;q3</title>
<path fill="none" stroke="green" d="M527.423,-216.95C532.042,-247.866 543.168,-309.463 560,-322.173 598.305,-351.099 624.921,-343.343 668,-322.173 695.918,-308.453 715.962,-277.888 727.489,-255.745"/>
<polygon fill="green" stroke="green" points="730.742,-257.064 732.045,-246.55 724.469,-253.956 730.742,-257.064"/>
<text text-anchor="middle" x="614" y="-343.973" font-family="Times,serif" font-size="14.00">inspect_before</text>
</g>
<!-- q2 -->
<g id="node4" class="node"><title>q2</title>
<ellipse fill="none" stroke="green" cx="918" cy="-147.173" rx="18" ry="18"/>
<text text-anchor="middle" x="918" y="-143.473" font-family="Times,serif" font-size="14.00">D</text>
</g>
<!-- q2&#45;&gt;q1 -->
<g id="edge19" class="edge"><title>q2&#45;&gt;q1</title>
<path fill="none" stroke="green" d="M913.954,-164.94C905.112,-210.121 874.737,-328.818 794,-371.173 588.501,-478.981 297.343,-325.144 208.654,-272.64"/>
<polygon fill="green" stroke="green" points="210.389,-269.599 200.012,-267.463 206.792,-275.604 210.389,-269.599"/>
<text text-anchor="middle" x="614" y="-411.973" font-family="Times,serif" font-size="14.00">Learn_Assert</text>
</g>
<!-- q2&#45;&gt;q0 -->
<g id="edge14" class="edge"><title>q2&#45;&gt;q0</title>
<path fill="none" stroke="black" d="M910.938,-163.991C905.127,-178.458 895.278,-199.287 882,-214.173 805.527,-299.912 777.832,-325.468 668,-359.173 622.112,-373.255 597.392,-389.27 560,-359.173 539.776,-342.895 530.596,-268.432 526.994,-227.073"/>
<polygon fill="black" stroke="black" points="530.481,-226.766 526.177,-217.085 523.504,-227.337 530.481,-226.766"/>
<text text-anchor="middle" x="740" y="-355.973" font-family="Times,serif" font-size="14.00">merge_single_node</text>
</g>
<!-- q2&#45;&gt;q0 -->
<g id="edge15" class="edge"><title>q2&#45;&gt;q0</title>
<path fill="none" stroke="black" d="M900.084,-144.901C837.461,-136.812 619.359,-111.588 560,-144.173 548.643,-150.408 540.445,-162.063 534.851,-173.045"/>
<polygon fill="black" stroke="black" points="531.563,-171.82 530.592,-182.37 537.93,-174.728 531.563,-171.82"/>
<text text-anchor="middle" x="740" y="-136.973" font-family="Times,serif" font-size="14.00">merge_pair</text>
</g>
<!-- q2&#45;&gt;q0 -->
<g id="edge16" class="edge"><title>q2&#45;&gt;q0</title>
<path fill="none" stroke="black" d="M901.558,-139.416C895.549,-136.583 888.546,-133.505 882,-131.173 843.919,-117.608 834.095,-113.326 794,-108.173 690.637,-94.8886 644.277,-61.8727 560,-123.173 544.24,-134.636 535.386,-154.957 530.528,-171.703"/>
<polygon fill="black" stroke="black" points="527.095,-171 527.994,-181.557 533.874,-172.744 527.095,-171"/>
<text text-anchor="middle" x="740" y="-111.973" font-family="Times,serif" font-size="14.00">seq_sort_core</text>
</g>
<!-- q2&#45;&gt;q0 -->
<g id="edge17" class="edge"><title>q2&#45;&gt;q0</title>
<path fill="none" stroke="green" d="M907.099,-132.301C900.763,-123.718 891.892,-113.256 882,-106.173 847.776,-81.6701 835.339,-79.0924 794,-71.1732 691.7,-51.5759 640.394,-17.9449 560,-84.1732 534.517,-105.166 527.164,-144.131 525.264,-170.838"/>
<polygon fill="green" stroke="green" points="521.755,-170.939 524.757,-181.1 528.746,-171.285 521.755,-170.939"/>
<text text-anchor="middle" x="740" y="-74.9732" font-family="Times,serif" font-size="14.00">inspect_before</text>
</g>
<!-- q2&#45;&gt;q0 -->
<g id="edge18" class="edge"><title>q2&#45;&gt;q0</title>
<path fill="none" stroke="green" d="M912.719,-129.79C907.793,-112.952 898.22,-87.6169 882,-71.1732 851.567,-40.3194 836.268,-38.7427 794,-29.1732 692.434,-6.17818 638.024,27.7958 560,-41.1732 540.918,-58.0407 531.31,-130.261 527.327,-170.973"/>
<polygon fill="green" stroke="green" points="523.829,-170.79 526.391,-181.071 530.799,-171.436 523.829,-170.79"/>
<text text-anchor="middle" x="740" y="-32.9732" font-family="Times,serif" font-size="14.00">inspect_after</text>
</g>
<!-- q3&#45;&gt;q0 -->
<g id="edge20" class="edge"><title>q3&#45;&gt;q0</title>
<path fill="none" stroke="black" d="M726.928,-243.427C713.891,-256.664 691.774,-276.16 668,-284.173 622.515,-299.505 599.883,-310.882 560,-284.173 541.117,-271.527 532.412,-246.648 528.404,-227.059"/>
<polygon fill="black" stroke="black" points="531.835,-226.36 526.667,-217.111 524.94,-227.564 531.835,-226.36"/>
<text text-anchor="middle" x="614" y="-303.973" font-family="Times,serif" font-size="14.00">merge_single_node</text>
</g>
<!-- q3&#45;&gt;q0 -->
<g id="edge21" class="edge"><title>q3&#45;&gt;q0</title>
<path fill="none" stroke="black" d="M723.117,-236.92C690.544,-249.657 614.65,-273.615 560,-246.173 550.553,-241.43 543.009,-232.794 537.379,-224.207"/>
<polygon fill="black" stroke="black" points="540.303,-222.274 532.206,-215.441 534.274,-225.832 540.303,-222.274"/>
<text text-anchor="middle" x="614" y="-261.973" font-family="Times,serif" font-size="14.00">merge_pair</text>
</g>
<!-- q3&#45;&gt;q0 -->
<g id="edge22" class="edge"><title>q3&#45;&gt;q0</title>
<path fill="none" stroke="black" d="M721.857,-228.81C689.851,-226.101 618.914,-219.32 560,-208.173 557.262,-207.655 554.422,-207.046 551.595,-206.393"/>
<polygon fill="black" stroke="black" points="552.185,-202.933 541.636,-203.92 550.498,-209.727 552.185,-202.933"/>
<text text-anchor="middle" x="614" y="-226.973" font-family="Times,serif" font-size="14.00">seq_sort_core</text>
</g>
<!-- q3&#45;&gt;q0 -->
<g id="edge23" class="edge"><title>q3&#45;&gt;q0</title>
<path fill="none" stroke="green" d="M725.302,-219.308C711.677,-209.248 689.723,-194.995 668,-189.173 621.636,-176.748 607.536,-182.516 560,-189.173 557.066,-189.584 554.034,-190.18 551.036,-190.879"/>
<polygon fill="green" stroke="green" points="549.923,-187.554 541.179,-193.535 551.745,-194.313 549.923,-187.554"/>
<text text-anchor="middle" x="614" y="-192.973" font-family="Times,serif" font-size="14.00">inspect_before</text>
</g>
<!-- q3&#45;&gt;q0 -->
<g id="edge25" class="edge"><title>q3&#45;&gt;q0</title>
<path fill="none" stroke="green" d="M729.247,-215.675C717.135,-199.115 694.767,-172.923 668,-162.173 623.458,-144.284 604.087,-143.19 560,-162.173 552.742,-165.299 546.285,-170.751 540.956,-176.526"/>
<polygon fill="green" stroke="green" points="538.106,-174.479 534.417,-184.41 543.495,-178.947 538.106,-174.479"/>
<text text-anchor="middle" x="614" y="-165.973" font-family="Times,serif" font-size="14.00">Learn_Assert</text>
</g>
<!-- q3&#45;&gt;q2 -->
<g id="edge24" class="edge"><title>q3&#45;&gt;q2</title>
<path fill="none" stroke="green" d="M756.619,-222.807C787.278,-208.349 855.547,-176.154 892.352,-158.797"/>
<polygon fill="green" stroke="green" points="893.864,-161.953 901.416,-154.522 890.879,-155.622 893.864,-161.953"/>
<text text-anchor="middle" x="847" y="-198.973" font-family="Times,serif" font-size="14.00">inspect_after</text>
</g>
<!-- iq0 -->
<g id="node6" class="node"><title>iq0</title>
</g>
<!-- iq0&#45;&gt;q0 -->
<g id="edge1" class="edge"><title>iq0&#45;&gt;q0</title>
<path fill="none" stroke="blue" d="M208.304,-104.309C264.635,-95.3741 399.031,-82.1185 488,-139.173 500.095,-146.93 508.513,-160.463 514.057,-172.716"/>
<polygon fill="blue" stroke="blue" points="510.882,-174.198 517.902,-182.133 517.362,-171.552 510.882,-174.198"/>
</g>
</g>
</svg>
