<?xml version="1.0" encoding="UTF-8" standalone="no"?>
<!DOCTYPE svg PUBLIC "-//W3C//DTD SVG 1.1//EN"
 "http://www.w3.org/Graphics/SVG/1.1/DTD/svg11.dtd">
<!-- Generated by graphviz version 2.34.0 (20141125.1709)
 -->
<!-- Title: finite_automaton Pages: 1 -->
<svg width="576pt" height="236pt"
 viewBox="0.00 0.00 576.00 235.53" xmlns="http://www.w3.org/2000/svg" xmlns:xlink="http://www.w3.org/1999/xlink">
<g id="graph0" class="graph" transform="scale(0.610169 0.610169) rotate(0) translate(4 382)">
<title>finite_automaton</title>
<polygon fill="white" stroke="white" points="-4,4 -4,-382 940,-382 940,4 -4,4"/>
<!-- dom_edges -->
<g id="node1" class="node"><title>dom_edges</title>
<polygon fill="none" stroke="green" points="361.5,-36 0.5,-36 0.5,-0 361.5,-0 361.5,-36"/>
<text text-anchor="middle" x="181" y="-14.3" font-family="Times,serif" font-size="14.00">Dominating edges: inspect_before, inspect_after, Learn_Assert</text>
</g>
<!-- q1 -->
<g id="node2" class="node"><title>q1</title>
<ellipse fill="none" stroke="green" cx="181" cy="-219" rx="18" ry="18"/>
<ellipse fill="none" stroke="green" cx="181" cy="-219" rx="22" ry="22"/>
<text text-anchor="middle" x="181" y="-215.3" font-family="Times,serif" font-size="14.00">D</text>
</g>
<!-- q0 -->
<g id="node3" class="node"><title>q0</title>
<ellipse fill="none" stroke="green" cx="524" cy="-162" rx="18" ry="18"/>
<text text-anchor="middle" x="524" y="-158.3" font-family="Times,serif" font-size="14.00">D</text>
</g>
<!-- q1&#45;&gt;q0 -->
<g id="edge8" class="edge"><title>q1&#45;&gt;q0</title>
<path fill="none" stroke="black" d="M199.961,-230.534C250.659,-261.487 397.075,-339.668 488,-273 513.636,-254.203 520.982,-216.588 522.835,-190.383"/>
<polygon fill="black" stroke="black" points="526.337,-190.438 523.322,-180.281 519.345,-190.101 526.337,-190.438"/>
<text text-anchor="middle" x="434" y="-302.8" font-family="Times,serif" font-size="14.00">merge_single_node</text>
</g>
<!-- q1&#45;&gt;q0 -->
<g id="edge9" class="edge"><title>q1&#45;&gt;q0</title>
<path fill="none" stroke="black" d="M202.639,-223.081C263.425,-234.642 440.505,-264.9 488,-235 503.709,-225.111 512.525,-205.996 517.379,-189.807"/>
<polygon fill="black" stroke="black" points="520.874,-190.278 520.029,-179.717 514.103,-188.5 520.874,-190.278"/>
<text text-anchor="middle" x="434" y="-250.8" font-family="Times,serif" font-size="14.00">merge_pair</text>
</g>
<!-- q1&#45;&gt;q0 -->
<g id="edge10" class="edge"><title>q1&#45;&gt;q0</title>
<path fill="none" stroke="black" d="M203.162,-219.376C263.808,-220.157 437.133,-220.242 488,-197 494.617,-193.977 500.685,-189.126 505.843,-183.986"/>
<polygon fill="black" stroke="black" points="508.575,-186.184 512.709,-176.429 503.394,-181.477 508.575,-186.184"/>
<text text-anchor="middle" x="434" y="-217.8" font-family="Times,serif" font-size="14.00">seq_sort_core</text>
</g>
<!-- q1&#45;&gt;q0 -->
<g id="edge11" class="edge"><title>q1&#45;&gt;q0</title>
<path fill="none" stroke="green" d="M202.693,-214.054C238.593,-205.621 314.824,-188.371 380,-178 420.033,-171.63 466.77,-166.907 495.628,-164.302"/>
<polygon fill="green" stroke="green" points="496.107,-167.773 505.761,-163.409 495.492,-160.801 496.107,-167.773"/>
<text text-anchor="middle" x="434" y="-181.8" font-family="Times,serif" font-size="14.00">inspect_before</text>
</g>
<!-- q1&#45;&gt;q0 -->
<g id="edge12" class="edge"><title>q1&#45;&gt;q0</title>
<path fill="none" stroke="green" d="M201.031,-209.384C235.599,-192.518 311.473,-158.23 380,-146 427.253,-137.567 441.099,-135.788 488,-146 491.501,-146.762 495.071,-147.907 498.527,-149.241"/>
<polygon fill="green" stroke="green" points="497.254,-152.505 507.816,-153.34 500.08,-146.101 497.254,-152.505"/>
<text text-anchor="middle" x="434" y="-149.8" font-family="Times,serif" font-size="14.00">inspect_after</text>
</g>
<!-- q1&#45;&gt;q0 -->
<g id="edge13" class="edge"><title>q1&#45;&gt;q0</title>
<path fill="none" stroke="green" d="M199.451,-206.587C232.661,-183.816 308.072,-136.133 380,-119 426.694,-107.878 444.65,-98.3899 488,-119 496.498,-123.04 503.609,-130.264 509.153,-137.652"/>
<polygon fill="green" stroke="green" points="506.438,-139.885 514.932,-146.218 512.241,-135.971 506.438,-139.885"/>
<text text-anchor="middle" x="434" y="-122.8" font-family="Times,serif" font-size="14.00">Learn_Assert</text>
</g>
<!-- q0&#45;&gt;q0 -->
<g id="edge2" class="edge"><title>q0&#45;&gt;q0</title>
<path fill="none" stroke="black" d="M520.764,-179.782C520.214,-189.315 521.293,-198 524,-198 525.65,-198 526.694,-194.775 527.135,-190.098"/>
<polygon fill="black" stroke="black" points="530.638,-189.816 527.236,-179.782 523.638,-189.747 530.638,-189.816"/>
<text text-anchor="middle" x="524" y="-201.8" font-family="Times,serif" font-size="14.00">merge_single_node</text>
</g>
<!-- q0&#45;&gt;q0 -->
<g id="edge3" class="edge"><title>q0&#45;&gt;q0</title>
<path fill="none" stroke="black" d="M518.684,-179.42C515.654,-196.791 517.426,-216 524,-216 529.29,-216 531.471,-203.562 530.542,-189.652"/>
<polygon fill="black" stroke="black" points="533.981,-188.933 529.316,-179.42 527.031,-189.766 533.981,-188.933"/>
<text text-anchor="middle" x="524" y="-219.8" font-family="Times,serif" font-size="14.00">merge_pair</text>
</g>
<!-- q0&#45;&gt;q0 -->
<g id="edge4" class="edge"><title>q0&#45;&gt;q0</title>
<path fill="none" stroke="black" d="M517.444,-178.992C511.057,-203.52 513.242,-234 524,-234 533.329,-234 536.211,-211.078 532.647,-188.995"/>
<polygon fill="black" stroke="black" points="536.028,-188.064 530.556,-178.992 529.176,-189.497 536.028,-188.064"/>
<text text-anchor="middle" x="524" y="-237.8" font-family="Times,serif" font-size="14.00">seq_sort_core</text>
</g>
<!-- q0&#45;&gt;q0 -->
<g id="edge6" class="edge"><title>q0&#45;&gt;q0</title>
<path fill="none" stroke="green" d="M516.594,-178.791C506.484,-210.073 508.953,-252 524,-252 537.519,-252 540.884,-218.157 534.097,-188.596"/>
<polygon fill="green" stroke="green" points="537.428,-187.508 531.406,-178.791 530.677,-189.36 537.428,-187.508"/>
<text text-anchor="middle" x="524" y="-255.8" font-family="Times,serif" font-size="14.00">inspect_after</text>
</g>
<!-- q0&#45;&gt;q0 -->
<g id="edge7" class="edge"><title>q0&#45;&gt;q0</title>
<path fill="none" stroke="green" d="M516.129,-178.252C501.909,-216.099 504.532,-270 524,-270 541.871,-270 545.548,-224.579 535.03,-187.851"/>
<polygon fill="green" stroke="green" points="538.322,-186.656 531.871,-178.252 531.673,-188.845 538.322,-186.656"/>
<text text-anchor="middle" x="524" y="-273.8" font-family="Times,serif" font-size="14.00">Learn_Assert</text>
</g>
<!-- q3 -->
<g id="node5" class="node"><title>q3</title>
<ellipse fill="none" stroke="green" cx="740" cy="-243" rx="18" ry="18"/>
<text text-anchor="middle" x="740" y="-239.3" font-family="Times,serif" font-size="14.00">D</text>
</g>
<!-- q0&#45;&gt;q3 -->
<g id="edge5" class="edge"><title>q0&#45;&gt;q3</title>
<path fill="none" stroke="green" d="M526.439,-180.013C529.757,-216.388 539.301,-296.55 560,-313 597.578,-342.864 623.589,-331.211 668,-313 691.049,-303.549 710.621,-282.602 723.342,-266.071"/>
<polygon fill="green" stroke="green" points="726.238,-268.04 729.351,-257.913 720.602,-263.888 726.238,-268.04"/>
<text text-anchor="middle" x="614" y="-334.8" font-family="Times,serif" font-size="14.00">inspect_before</text>
</g>
<!-- q2 -->
<g id="node4" class="node"><title>q2</title>
<ellipse fill="none" stroke="green" cx="918" cy="-125" rx="18" ry="18"/>
<text text-anchor="middle" x="918" y="-121.3" font-family="Times,serif" font-size="14.00">D</text>
</g>
<!-- q2&#45;&gt;q1 -->
<g id="edge19" class="edge"><title>q2&#45;&gt;q1</title>
<path fill="none" stroke="green" d="M915.622,-142.977C912.902,-168.047 904.942,-213.923 882,-245 819.078,-330.233 771.948,-329.536 668,-350 541.638,-374.877 500.027,-364.689 380,-318 316.767,-293.403 246.586,-255.651 209.11,-234.584"/>
<polygon fill="green" stroke="green" points="210.738,-231.484 200.311,-229.606 207.291,-237.576 210.738,-231.484"/>
<text text-anchor="middle" x="614" y="-366.8" font-family="Times,serif" font-size="14.00">Learn_Assert</text>
</g>
<!-- q2&#45;&gt;q0 -->
<g id="edge14" class="edge"><title>q2&#45;&gt;q0</title>
<path fill="none" stroke="black" d="M901.31,-132.505C895.39,-135.006 888.511,-137.527 882,-139 819.338,-153.172 624.809,-159.459 552.465,-161.35"/>
<polygon fill="black" stroke="black" points="552.233,-157.855 542.325,-161.607 552.41,-164.852 552.233,-157.855"/>
<text text-anchor="middle" x="740" y="-159.8" font-family="Times,serif" font-size="14.00">merge_single_node</text>
</g>
<!-- q2&#45;&gt;q0 -->
<g id="edge15" class="edge"><title>q2&#45;&gt;q0</title>
<path fill="none" stroke="black" d="M899.848,-124.587C861.441,-123.85 765.64,-123.056 686,-131 629.433,-136.642 615.571,-141.023 560,-153 557.276,-153.587 554.445,-154.241 551.624,-154.921"/>
<polygon fill="black" stroke="black" points="550.514,-151.592 541.671,-157.427 552.223,-158.38 550.514,-151.592"/>
<text text-anchor="middle" x="740" y="-134.8" font-family="Times,serif" font-size="14.00">merge_pair</text>
</g>
<!-- q2&#45;&gt;q0 -->
<g id="edge16" class="edge"><title>q2&#45;&gt;q0</title>
<path fill="none" stroke="black" d="M899.994,-121.342C876.357,-116.464 832.169,-108.083 794,-105 689.794,-96.5832 653.109,-81.4563 560,-129 553.947,-132.091 548.206,-136.551 543.19,-141.197"/>
<polygon fill="black" stroke="black" points="540.521,-138.918 535.964,-148.483 545.491,-143.848 540.521,-138.918"/>
<text text-anchor="middle" x="740" y="-108.8" font-family="Times,serif" font-size="14.00">seq_sort_core</text>
</g>
<!-- q2&#45;&gt;q0 -->
<g id="edge17" class="edge"><title>q2&#45;&gt;q0</title>
<path fill="none" stroke="green" d="M903.248,-114.608C897.01,-110.258 889.387,-105.427 882,-102 802.285,-65.0222 773.699,-70.4541 686,-76 629.663,-79.5627 606.05,-59.3512 560,-92 545.771,-102.088 537.011,-119.661 531.814,-134.676"/>
<polygon fill="green" stroke="green" points="528.374,-133.95 528.761,-144.538 535.061,-136.02 528.374,-133.95"/>
<text text-anchor="middle" x="740" y="-79.8" font-family="Times,serif" font-size="14.00">inspect_before</text>
</g>
<!-- q2&#45;&gt;q0 -->
<g id="edge18" class="edge"><title>q2&#45;&gt;q0</title>
<path fill="none" stroke="green" d="M909.942,-108.446C904.12,-96.7807 894.746,-81.7371 882,-73 809.776,-23.4913 773.389,-47.4737 686,-53 629.663,-56.5627 604.296,-34.0085 560,-69 540.197,-84.6432 531.597,-112.776 527.864,-134.016"/>
<polygon fill="green" stroke="green" points="524.374,-133.691 526.357,-144.098 531.297,-134.725 524.374,-133.691"/>
<text text-anchor="middle" x="740" y="-56.8" font-family="Times,serif" font-size="14.00">inspect_after</text>
</g>
<!-- q3&#45;&gt;q0 -->
<g id="edge20" class="edge"><title>q3&#45;&gt;q0</title>
<path fill="none" stroke="black" d="M724.347,-252.302C691.488,-271.859 610.823,-312.463 560,-275 533.847,-255.721 526.651,-217.116 524.971,-190.433"/>
<polygon fill="black" stroke="black" points="528.457,-190.015 524.555,-180.165 521.462,-190.298 528.457,-190.015"/>
<text text-anchor="middle" x="614" y="-293.8" font-family="Times,serif" font-size="14.00">merge_single_node</text>
</g>
<!-- q3&#45;&gt;q0 -->
<g id="edge21" class="edge"><title>q3&#45;&gt;q0</title>
<path fill="none" stroke="black" d="M721.964,-244.622C682.503,-248.039 586.203,-254.311 560,-237 543.916,-226.374 535.078,-206.288 530.308,-189.575"/>
<polygon fill="black" stroke="black" points="533.664,-188.568 527.836,-179.72 526.874,-190.271 533.664,-188.568"/>
<text text-anchor="middle" x="614" y="-251.8" font-family="Times,serif" font-size="14.00">merge_pair</text>
</g>
<!-- q3&#45;&gt;q0 -->
<g id="edge23" class="edge"><title>q3&#45;&gt;q0</title>
<path fill="none" stroke="green" d="M723.161,-236.578C708.924,-231.009 687.341,-223.07 668,-218 620.855,-205.643 602.918,-222.094 560,-199 553.148,-195.313 546.871,-189.789 541.583,-184.126"/>
<polygon fill="green" stroke="green" points="544.191,-181.791 535.025,-176.478 538.877,-186.347 544.191,-181.791"/>
<text text-anchor="middle" x="614" y="-221.8" font-family="Times,serif" font-size="14.00">inspect_before</text>
</g>
<!-- q3&#45;&gt;q0 -->
<g id="edge25" class="edge"><title>q3&#45;&gt;q0</title>
<path fill="none" stroke="green" d="M726.13,-231.224C706.621,-213.426 671.452,-181.564 668,-180 647.965,-170.921 588.003,-165.822 552.404,-163.519"/>
<polygon fill="green" stroke="green" points="552.406,-160.013 542.21,-162.893 551.977,-167 552.406,-160.013"/>
<text text-anchor="middle" x="614" y="-183.8" font-family="Times,serif" font-size="14.00">Learn_Assert</text>
</g>
<!-- q3&#45;&gt;q2 -->
<g id="edge24" class="edge"><title>q3&#45;&gt;q2</title>
<path fill="none" stroke="green" d="M758.183,-240.538C786.914,-235.627 845.176,-222.18 882,-190 893.69,-179.785 902.153,-164.685 907.826,-151.609"/>
<polygon fill="green" stroke="green" points="911.158,-152.704 911.627,-142.119 904.66,-150.101 911.158,-152.704"/>
<text text-anchor="middle" x="847" y="-229.8" font-family="Times,serif" font-size="14.00">inspect_after</text>
</g>
<!-- q3&#45;&gt;q3 -->
<g id="edge22" class="edge"><title>q3&#45;&gt;q3</title>
<path fill="none" stroke="black" d="M725.094,-253.688C715.156,-265.5 720.125,-279 740,-279 754.906,-279 761.428,-271.406 759.564,-262.626"/>
<polygon fill="black" stroke="black" points="762.632,-260.938 754.906,-253.688 756.424,-264.173 762.632,-260.938"/>
<text text-anchor="middle" x="740" y="-282.8" font-family="Times,serif" font-size="14.00">seq_sort_core</text>
</g>
<!-- iq0 -->
<g id="node6" class="node"><title>iq0</title>
</g>
<!-- iq0&#45;&gt;q0 -->
<g id="edge1" class="edge"><title>iq0&#45;&gt;q0</title>
<path fill="none" stroke="blue" d="M208.304,-67.136C264.635,-58.2009 399.031,-44.9453 488,-102 500.095,-109.756 508.513,-123.29 514.057,-135.543"/>
<polygon fill="blue" stroke="blue" points="510.882,-137.025 517.902,-144.96 517.362,-134.379 510.882,-137.025"/>
</g>
</g>
</svg>
