<?xml version="1.0" encoding="UTF-8" standalone="no"?>
<!DOCTYPE svg PUBLIC "-//W3C//DTD SVG 1.1//EN"
 "http://www.w3.org/Graphics/SVG/1.1/DTD/svg11.dtd">
<!-- Generated by graphviz version 2.34.0 (20141125.1709)
 -->
<!-- Title: finite_automaton Pages: 1 -->
<svg width="576pt" height="290pt"
 viewBox="0.00 0.00 576.00 289.71" xmlns="http://www.w3.org/2000/svg" xmlns:xlink="http://www.w3.org/1999/xlink">
<g id="graph0" class="graph" transform="scale(0.464516 0.464516) rotate(0) translate(4 619.672)">
<title>finite_automaton</title>
<polygon fill="white" stroke="white" points="-4,4 -4,-619.672 1236,-619.672 1236,4 -4,4"/>
<!-- dom_edges -->
<g id="node1" class="node"><title>dom_edges</title>
<polygon fill="none" stroke="green" points="443.5,-156.672 0.5,-156.672 0.5,-120.672 443.5,-120.672 443.5,-156.672"/>
<text text-anchor="middle" x="222" y="-134.972" font-family="Times,serif" font-size="14.00">Dominating edges: seq_sort_core, inspect_before, inspect_after, Learn_Assert</text>
</g>
<!-- q1 -->
<g id="node2" class="node"><title>q1</title>
<ellipse fill="none" stroke="green" cx="222" cy="-339.672" rx="18" ry="18"/>
<ellipse fill="none" stroke="green" cx="222" cy="-339.672" rx="22" ry="22"/>
<text text-anchor="middle" x="222" y="-335.972" font-family="Times,serif" font-size="14.00">D</text>
</g>
<!-- q0 -->
<g id="node3" class="node"><title>q0</title>
<ellipse fill="none" stroke="green" cx="606" cy="-282.672" rx="18" ry="18"/>
<text text-anchor="middle" x="606" y="-278.972" font-family="Times,serif" font-size="14.00">D</text>
</g>
<!-- q1&#45;&gt;q0 -->
<g id="edge8" class="edge"><title>q1&#45;&gt;q0</title>
<path fill="none" stroke="black" d="M241.383,-350.911C296.999,-383.321 466.01,-469.919 570,-393.672 595.636,-374.875 602.982,-337.26 604.835,-311.055"/>
<polygon fill="black" stroke="black" points="608.337,-311.109 605.322,-300.952 601.345,-310.772 608.337,-311.109"/>
<text text-anchor="middle" x="516" y="-427.472" font-family="Times,serif" font-size="14.00">merge_single_node</text>
</g>
<!-- q1&#45;&gt;q0 -->
<g id="edge9" class="edge"><title>q1&#45;&gt;q0</title>
<path fill="none" stroke="black" d="M244.011,-343.684C310.562,-355.931 515.519,-389.97 570,-355.672 585.709,-345.782 594.525,-326.667 599.379,-310.478"/>
<polygon fill="black" stroke="black" points="602.874,-310.95 602.029,-300.388 596.103,-309.171 602.874,-310.95"/>
<text text-anchor="middle" x="516" y="-373.472" font-family="Times,serif" font-size="14.00">merge_pair</text>
</g>
<!-- q1&#45;&gt;q0 -->
<g id="edge10" class="edge"><title>q1&#45;&gt;q0</title>
<path fill="none" stroke="green" d="M244.123,-340.258C310.099,-341.794 511.414,-344.141 570,-317.672 576.63,-314.676 582.702,-309.835 587.861,-304.695"/>
<polygon fill="green" stroke="green" points="590.595,-306.89 594.723,-297.133 585.411,-302.186 590.595,-306.89"/>
<text text-anchor="middle" x="516" y="-339.472" font-family="Times,serif" font-size="14.00">seq_sort_core</text>
</g>
<!-- q1&#45;&gt;q0 -->
<g id="edge11" class="edge"><title>q1&#45;&gt;q0</title>
<path fill="none" stroke="green" d="M243.716,-335.697C285.085,-327.854 380.926,-310.151 462,-298.672 502.137,-292.988 548.846,-288.081 577.67,-285.25"/>
<polygon fill="green" stroke="green" points="578.174,-288.718 587.79,-284.269 577.499,-281.75 578.174,-288.718"/>
<text text-anchor="middle" x="516" y="-302.472" font-family="Times,serif" font-size="14.00">inspect_before</text>
</g>
<!-- q1&#45;&gt;q0 -->
<g id="edge12" class="edge"><title>q1&#45;&gt;q0</title>
<path fill="none" stroke="green" d="M242.68,-331.466C282.966,-315.165 378.112,-279.197 462,-266.672 509.474,-259.583 523.099,-256.46 570,-266.672 573.501,-267.434 577.071,-268.579 580.527,-269.913"/>
<polygon fill="green" stroke="green" points="579.254,-273.177 589.816,-274.011 582.08,-266.772 579.254,-273.177"/>
<text text-anchor="middle" x="516" y="-270.472" font-family="Times,serif" font-size="14.00">inspect_after</text>
</g>
<!-- q1&#45;&gt;q0 -->
<g id="edge13" class="edge"><title>q1&#45;&gt;q0</title>
<path fill="none" stroke="green" d="M241.405,-329.071C280.471,-307.254 375.224,-257.933 462,-240.672 509.078,-231.307 526.532,-220.312 570,-240.672 578.279,-244.549 585.282,-251.454 590.798,-258.559"/>
<polygon fill="green" stroke="green" points="587.978,-260.634 596.577,-266.823 593.714,-256.622 587.978,-260.634"/>
<text text-anchor="middle" x="516" y="-244.472" font-family="Times,serif" font-size="14.00">Learn_Assert</text>
</g>
<!-- q0&#45;&gt;q0 -->
<g id="edge2" class="edge"><title>q0&#45;&gt;q0</title>
<path fill="none" stroke="black" d="M602.764,-300.453C602.214,-309.986 603.293,-318.672 606,-318.672 607.65,-318.672 608.694,-315.446 609.135,-310.77"/>
<polygon fill="black" stroke="black" points="612.638,-310.487 609.236,-300.453 605.638,-310.418 612.638,-310.487"/>
<text text-anchor="middle" x="606" y="-322.472" font-family="Times,serif" font-size="14.00">merge_single_node</text>
</g>
<!-- q0&#45;&gt;q0 -->
<g id="edge3" class="edge"><title>q0&#45;&gt;q0</title>
<path fill="none" stroke="black" d="M600.684,-300.092C597.654,-317.462 599.426,-336.672 606,-336.672 611.29,-336.672 613.471,-324.233 612.542,-310.324"/>
<polygon fill="black" stroke="black" points="615.981,-309.604 611.316,-300.092 609.031,-310.437 615.981,-309.604"/>
<text text-anchor="middle" x="606" y="-340.472" font-family="Times,serif" font-size="14.00">merge_pair</text>
</g>
<!-- q0&#45;&gt;q0 -->
<g id="edge4" class="edge"><title>q0&#45;&gt;q0</title>
<path fill="none" stroke="green" d="M599.444,-299.664C593.057,-324.191 595.242,-354.672 606,-354.672 615.329,-354.672 618.211,-331.75 614.647,-309.666"/>
<polygon fill="green" stroke="green" points="618.028,-308.736 612.556,-299.664 611.176,-310.168 618.028,-308.736"/>
<text text-anchor="middle" x="606" y="-358.472" font-family="Times,serif" font-size="14.00">seq_sort_core</text>
</g>
<!-- q0&#45;&gt;q0 -->
<g id="edge6" class="edge"><title>q0&#45;&gt;q0</title>
<path fill="none" stroke="green" d="M598.594,-299.462C588.484,-330.744 590.953,-372.672 606,-372.672 619.519,-372.672 622.884,-338.828 616.097,-309.268"/>
<polygon fill="green" stroke="green" points="619.428,-308.179 613.406,-299.462 612.677,-310.032 619.428,-308.179"/>
<text text-anchor="middle" x="606" y="-376.472" font-family="Times,serif" font-size="14.00">inspect_after</text>
</g>
<!-- q0&#45;&gt;q0 -->
<g id="edge7" class="edge"><title>q0&#45;&gt;q0</title>
<path fill="none" stroke="green" d="M598.129,-298.923C583.909,-336.77 586.532,-390.672 606,-390.672 623.871,-390.672 627.548,-345.251 617.03,-308.523"/>
<polygon fill="green" stroke="green" points="620.322,-307.328 613.871,-298.923 613.673,-309.516 620.322,-307.328"/>
<text text-anchor="middle" x="606" y="-394.472" font-family="Times,serif" font-size="14.00">Learn_Assert</text>
</g>
<!-- q4 -->
<g id="node6" class="node"><title>q4</title>
<ellipse fill="none" stroke="green" cx="822" cy="-92.6715" rx="18" ry="18"/>
<text text-anchor="middle" x="822" y="-88.9715" font-family="Times,serif" font-size="14.00">D</text>
</g>
<!-- q0&#45;&gt;q4 -->
<g id="edge5" class="edge"><title>q0&#45;&gt;q4</title>
<path fill="none" stroke="green" d="M606.791,-264.544C607.527,-237.959 613.026,-188.638 642,-161.672 677.924,-128.236 704.653,-157.437 750,-138.672 767.701,-131.347 785.795,-119.545 799.287,-109.73"/>
<polygon fill="green" stroke="green" points="801.526,-112.426 807.438,-103.633 797.334,-106.82 801.526,-112.426"/>
<text text-anchor="middle" x="696" y="-165.472" font-family="Times,serif" font-size="14.00">inspect_before</text>
</g>
<!-- q2 -->
<g id="node4" class="node"><title>q2</title>
<ellipse fill="none" stroke="green" cx="1214" cy="-459.672" rx="18" ry="18"/>
<text text-anchor="middle" x="1214" y="-455.972" font-family="Times,serif" font-size="14.00">D</text>
</g>
<!-- q2&#45;&gt;q1 -->
<g id="edge19" class="edge"><title>q2&#45;&gt;q1</title>
<path fill="none" stroke="green" d="M1210.57,-477.549C1206.9,-497.966 1198.11,-531.185 1178,-551.672 1137.06,-593.368 1114.43,-600.672 1056,-600.672 605,-600.672 605,-600.672 605,-600.672 439.345,-600.672 292.671,-431.274 241.911,-365.421"/>
<polygon fill="green" stroke="green" points="244.5,-363.043 235.661,-357.202 238.928,-367.28 244.5,-363.043"/>
<text text-anchor="middle" x="822" y="-604.472" font-family="Times,serif" font-size="14.00">Learn_Assert</text>
</g>
<!-- q2&#45;&gt;q0 -->
<g id="edge14" class="edge"><title>q2&#45;&gt;q0</title>
<path fill="none" stroke="black" d="M1209.77,-477.193C1205.63,-494.148 1196.61,-518.953 1178,-530.672 1127.61,-562.412 686.803,-569.909 642,-530.672 609.666,-502.354 606.399,-369.874 606.588,-310.998"/>
<polygon fill="black" stroke="black" points="610.088,-310.926 606.657,-300.902 603.088,-310.878 610.088,-310.926"/>
<text text-anchor="middle" x="948" y="-560.472" font-family="Times,serif" font-size="14.00">merge_single_node</text>
</g>
<!-- q2&#45;&gt;q0 -->
<g id="edge15" class="edge"><title>q2&#45;&gt;q0</title>
<path fill="none" stroke="black" d="M1202.34,-473.853C1196.11,-480.931 1187.6,-488.795 1178,-492.672 1122.77,-514.965 687.289,-531.347 642,-492.672 614.972,-469.591 608.8,-362.669 607.402,-310.904"/>
<polygon fill="black" stroke="black" points="610.898,-310.663 607.171,-300.746 603.9,-310.823 610.898,-310.663"/>
<text text-anchor="middle" x="948" y="-519.472" font-family="Times,serif" font-size="14.00">merge_pair</text>
</g>
<!-- q2&#45;&gt;q0 -->
<g id="edge16" class="edge"><title>q2&#45;&gt;q0</title>
<path fill="none" stroke="green" d="M1196.02,-462.249C1110.63,-474.818 728.823,-526.242 642,-454.672 620.223,-436.72 611.636,-354.701 608.553,-310.724"/>
<polygon fill="green" stroke="green" points="612.041,-310.43 607.898,-300.679 605.056,-310.885 612.041,-310.43"/>
<text text-anchor="middle" x="948" y="-494.472" font-family="Times,serif" font-size="14.00">seq_sort_core</text>
</g>
<!-- q2&#45;&gt;q0 -->
<g id="edge17" class="edge"><title>q2&#45;&gt;q0</title>
<path fill="none" stroke="green" d="M1195.86,-459.546C1105.36,-458.732 685.561,-453.009 642,-416.672 625.895,-403.237 615.486,-345.885 610.489,-310.71"/>
<polygon fill="green" stroke="green" points="613.927,-310.016 609.112,-300.579 606.991,-310.959 613.927,-310.016"/>
<text text-anchor="middle" x="948" y="-458.472" font-family="Times,serif" font-size="14.00">inspect_before</text>
</g>
<!-- q2&#45;&gt;q0 -->
<g id="edge18" class="edge"><title>q2&#45;&gt;q0</title>
<path fill="none" stroke="green" d="M1196.06,-456.769C1103.82,-440.912 665.276,-364.831 642,-347.672 629.34,-338.338 620.775,-323.017 615.288,-309.592"/>
<polygon fill="green" stroke="green" points="618.427,-307.992 611.675,-299.827 611.862,-310.421 618.427,-307.992"/>
<text text-anchor="middle" x="948" y="-425.472" font-family="Times,serif" font-size="14.00">inspect_after</text>
</g>
<!-- q3 -->
<g id="node5" class="node"><title>q3</title>
<ellipse fill="none" stroke="black" cx="1055" cy="-257.672" rx="18" ry="18"/>
<text text-anchor="middle" x="1055" y="-253.972" font-family="Times,serif" font-size="14.00">D</text>
</g>
<!-- q3&#45;&gt;q0 -->
<g id="edge20" class="edge"><title>q3&#45;&gt;q0</title>
<path fill="none" stroke="black" d="M1046.41,-273.547C1037.98,-289.175 1022.77,-312.179 1002,-322.672 930.597,-358.75 714.181,-357.167 642,-322.672 634.273,-318.979 627.548,-312.706 622.115,-306.209"/>
<polygon fill="black" stroke="black" points="624.764,-303.909 615.945,-298.038 619.177,-308.127 624.764,-303.909"/>
<text text-anchor="middle" x="822" y="-352.472" font-family="Times,serif" font-size="14.00">merge_single_node</text>
</g>
<!-- q3&#45;&gt;q0 -->
<g id="edge21" class="edge"><title>q3&#45;&gt;q0</title>
<path fill="none" stroke="black" d="M1037.81,-263.034C1027.64,-266.147 1014.2,-269.811 1002,-271.672 865.125,-292.544 698.561,-287.343 634.193,-284.206"/>
<polygon fill="black" stroke="black" points="634.239,-280.704 624.073,-283.688 633.881,-287.695 634.239,-280.704"/>
<text text-anchor="middle" x="822" y="-290.472" font-family="Times,serif" font-size="14.00">merge_pair</text>
</g>
<!-- q3&#45;&gt;q0 -->
<g id="edge22" class="edge"><title>q3&#45;&gt;q0</title>
<path fill="none" stroke="green" d="M1036.89,-257.573C992.469,-257.429 869.832,-257.746 768,-264.672 720.81,-267.881 666.141,-274.641 634.184,-278.903"/>
<polygon fill="green" stroke="green" points="633.319,-275.488 623.878,-280.296 634.256,-282.425 633.319,-275.488"/>
<text text-anchor="middle" x="822" y="-268.472" font-family="Times,serif" font-size="14.00">seq_sort_core</text>
</g>
<!-- q3&#45;&gt;q0 -->
<g id="edge23" class="edge"><title>q3&#45;&gt;q0</title>
<path fill="none" stroke="green" d="M1036.9,-254.964C992.484,-248.3 869.868,-232.241 768,-240.672 711.421,-245.354 695.276,-242.056 642,-261.672 637.885,-263.186 633.715,-265.196 629.757,-267.372"/>
<polygon fill="green" stroke="green" points="627.81,-264.458 621.03,-272.599 631.407,-270.464 627.81,-264.458"/>
<text text-anchor="middle" x="822" y="-244.472" font-family="Times,serif" font-size="14.00">inspect_before</text>
</g>
<!-- q3&#45;&gt;q0 -->
<g id="edge25" class="edge"><title>q3&#45;&gt;q0</title>
<path fill="none" stroke="green" d="M1038.46,-249.807C1028.32,-245.005 1014.67,-239.139 1002,-235.672 901.426,-208.142 871.982,-210.876 768,-218.672 711.525,-222.906 690.872,-209.056 642,-237.672 633.56,-242.613 626.422,-250.444 620.837,-258.198"/>
<polygon fill="green" stroke="green" points="617.775,-256.483 615.205,-266.761 623.624,-260.33 617.775,-256.483"/>
<text text-anchor="middle" x="822" y="-222.472" font-family="Times,serif" font-size="14.00">Learn_Assert</text>
</g>
<!-- q3&#45;&gt;q2 -->
<g id="edge24" class="edge"><title>q3&#45;&gt;q2</title>
<path fill="none" stroke="green" d="M1070.3,-267.972C1095.21,-286.558 1146.88,-328.036 1178,-373.672 1190.38,-391.817 1199.49,-415.01 1205.31,-432.737"/>
<polygon fill="green" stroke="green" points="1202.03,-433.966 1208.36,-442.463 1208.71,-431.874 1202.03,-433.966"/>
<text text-anchor="middle" x="1143" y="-377.472" font-family="Times,serif" font-size="14.00">inspect_after</text>
</g>
<!-- q4&#45;&gt;q0 -->
<g id="edge26" class="edge"><title>q4&#45;&gt;q0</title>
<path fill="none" stroke="black" d="M803.857,-94.7248C760.21,-100.023 647.896,-114.129 642,-119.672 622.745,-137.771 613.152,-212.984 609.233,-254.623"/>
<polygon fill="black" stroke="black" points="605.739,-254.402 608.336,-264.674 612.711,-255.024 605.739,-254.402"/>
<text text-anchor="middle" x="696" y="-123.472" font-family="Times,serif" font-size="14.00">merge_single_node</text>
</g>
<!-- q4&#45;&gt;q0 -->
<g id="edge27" class="edge"><title>q4&#45;&gt;q0</title>
<path fill="none" stroke="black" d="M804.27,-88.95C764.57,-80.5448 666.188,-62.3492 642,-82.6715 616.291,-104.272 609.463,-204.495 607.652,-254.351"/>
<polygon fill="black" stroke="black" points="604.15,-254.354 607.329,-264.461 611.147,-254.578 604.15,-254.354"/>
<text text-anchor="middle" x="696" y="-86.4715" font-family="Times,serif" font-size="14.00">merge_pair</text>
</g>
<!-- q4&#45;&gt;q0 -->
<g id="edge29" class="edge"><title>q4&#45;&gt;q0</title>
<path fill="none" stroke="green" d="M806.967,-82.7337C773.994,-60.6996 690.698,-12.8783 642,-54.6715 612.37,-80.1004 607.572,-199.079 606.968,-254.336"/>
<polygon fill="green" stroke="green" points="603.467,-254.467 606.897,-264.491 610.467,-254.516 603.467,-254.467"/>
<text text-anchor="middle" x="696" y="-58.4715" font-family="Times,serif" font-size="14.00">inspect_before</text>
</g>
<!-- q4&#45;&gt;q0 -->
<g id="edge31" class="edge"><title>q4&#45;&gt;q0</title>
<path fill="none" stroke="green" d="M811.719,-77.4508C799.911,-59.7199 777.687,-31.3656 750,-19.6715 705.782,-0.995229 678.11,11.9518 642,-19.6715 607.43,-49.9454 605.486,-192.783 606.311,-254.337"/>
<polygon fill="green" stroke="green" points="602.814,-254.563 606.483,-264.503 609.813,-254.445 602.814,-254.563"/>
<text text-anchor="middle" x="696" y="-23.4715" font-family="Times,serif" font-size="14.00">Learn_Assert</text>
</g>
<!-- q4&#45;&gt;q2 -->
<g id="edge30" class="edge"><title>q4&#45;&gt;q2</title>
<path fill="none" stroke="green" d="M839.828,-90.1134C872.823,-85.9034 947.535,-80.3939 1002,-106.672 1105.38,-156.548 1124.99,-193.863 1178,-295.672 1200.81,-339.478 1208.76,-397.242 1211.52,-431.229"/>
<polygon fill="green" stroke="green" points="1208.05,-431.657 1212.25,-441.381 1215.03,-431.156 1208.05,-431.657"/>
<text text-anchor="middle" x="1055" y="-166.472" font-family="Times,serif" font-size="14.00">inspect_after</text>
</g>
<!-- q4&#45;&gt;q3 -->
<g id="edge28" class="edge"><title>q4&#45;&gt;q3</title>
<path fill="none" stroke="green" d="M840.099,-95.4623C883.64,-102.63 995.72,-121.485 1002,-126.672 1033.09,-152.345 1045.7,-199.236 1050.74,-229.398"/>
<polygon fill="green" stroke="green" points="1047.34,-230.309 1052.27,-239.683 1054.26,-229.276 1047.34,-230.309"/>
<text text-anchor="middle" x="948" y="-130.472" font-family="Times,serif" font-size="14.00">seq_sort_core</text>
</g>
<!-- iq0 -->
<g id="node7" class="node"><title>iq0</title>
</g>
<!-- iq0&#45;&gt;q0 -->
<g id="edge1" class="edge"><title>iq0&#45;&gt;q0</title>
<path fill="none" stroke="blue" d="M249.44,-187.602C311.04,-177.279 466.709,-159.927 570,-224.672 581.6,-231.942 589.887,-244.593 595.476,-256.228"/>
<polygon fill="blue" stroke="blue" points="592.36,-257.84 599.55,-265.622 598.782,-255.055 592.36,-257.84"/>
</g>
</g>
</svg>
