<?xml version="1.0" encoding="UTF-8" standalone="no"?>
<!DOCTYPE svg PUBLIC "-//W3C//DTD SVG 1.1//EN"
 "http://www.w3.org/Graphics/SVG/1.1/DTD/svg11.dtd">
<!-- Generated by graphviz version 2.34.0 (20141125.1709)
 -->
<!-- Title: finite_automaton Pages: 1 -->
<svg width="576pt" height="341pt"
 viewBox="0.00 0.00 576.00 340.84" xmlns="http://www.w3.org/2000/svg" xmlns:xlink="http://www.w3.org/1999/xlink">
<g id="graph0" class="graph" transform="scale(0.419825 0.419825) rotate(0) translate(4 807.873)">
<title>finite_automaton</title>
<polygon fill="white" stroke="white" points="-4,4 -4,-807.873 1368,-807.873 1368,4 -4,4"/>
<!-- dom_edges -->
<g id="node1" class="node"><title>dom_edges</title>
<polygon fill="none" stroke="green" points="361.5,-278.873 0.5,-278.873 0.5,-242.873 361.5,-242.873 361.5,-278.873"/>
<text text-anchor="middle" x="181" y="-257.173" font-family="Times,serif" font-size="14.00">Dominating edges: inspect_before, inspect_after, Learn_Assert</text>
</g>
<!-- q1 -->
<g id="node2" class="node"><title>q1</title>
<ellipse fill="none" stroke="green" cx="181" cy="-461.873" rx="18" ry="18"/>
<ellipse fill="none" stroke="green" cx="181" cy="-461.873" rx="22" ry="22"/>
<text text-anchor="middle" x="181" y="-458.173" font-family="Times,serif" font-size="14.00">D</text>
</g>
<!-- q0 -->
<g id="node3" class="node"><title>q0</title>
<ellipse fill="none" stroke="green" cx="524" cy="-404.873" rx="18" ry="18"/>
<text text-anchor="middle" x="524" y="-401.173" font-family="Times,serif" font-size="14.00">D</text>
</g>
<!-- q1&#45;&gt;q0 -->
<g id="edge8" class="edge"><title>q1&#45;&gt;q0</title>
<path fill="none" stroke="black" d="M199.961,-473.406C250.659,-504.36 397.075,-582.54 488,-515.873 513.636,-497.076 520.982,-459.461 522.835,-433.256"/>
<polygon fill="black" stroke="black" points="526.337,-433.31 523.322,-423.153 519.345,-432.973 526.337,-433.31"/>
<text text-anchor="middle" x="434" y="-545.673" font-family="Times,serif" font-size="14.00">merge_single_node</text>
</g>
<!-- q1&#45;&gt;q0 -->
<g id="edge9" class="edge"><title>q1&#45;&gt;q0</title>
<path fill="none" stroke="black" d="M202.639,-465.954C263.425,-477.515 440.505,-507.773 488,-477.873 503.709,-467.983 512.525,-448.869 517.379,-432.679"/>
<polygon fill="black" stroke="black" points="520.874,-433.151 520.029,-422.59 514.103,-431.372 520.874,-433.151"/>
<text text-anchor="middle" x="434" y="-493.673" font-family="Times,serif" font-size="14.00">merge_pair</text>
</g>
<!-- q1&#45;&gt;q0 -->
<g id="edge10" class="edge"><title>q1&#45;&gt;q0</title>
<path fill="none" stroke="black" d="M203.162,-462.248C263.808,-463.029 437.133,-463.114 488,-439.873 494.617,-436.849 500.685,-431.998 505.843,-426.859"/>
<polygon fill="black" stroke="black" points="508.575,-429.057 512.709,-419.302 503.394,-424.35 508.575,-429.057"/>
<text text-anchor="middle" x="434" y="-460.673" font-family="Times,serif" font-size="14.00">seq_sort_core</text>
</g>
<!-- q1&#45;&gt;q0 -->
<g id="edge11" class="edge"><title>q1&#45;&gt;q0</title>
<path fill="none" stroke="green" d="M202.693,-456.926C238.593,-448.494 314.824,-431.244 380,-420.873 420.033,-414.502 466.77,-409.779 495.628,-407.175"/>
<polygon fill="green" stroke="green" points="496.107,-410.646 505.761,-406.281 495.492,-403.673 496.107,-410.646"/>
<text text-anchor="middle" x="434" y="-424.673" font-family="Times,serif" font-size="14.00">inspect_before</text>
</g>
<!-- q1&#45;&gt;q0 -->
<g id="edge12" class="edge"><title>q1&#45;&gt;q0</title>
<path fill="none" stroke="green" d="M201.031,-452.257C235.599,-435.39 311.473,-401.103 380,-388.873 427.253,-380.439 441.099,-378.661 488,-388.873 491.501,-389.635 495.071,-390.78 498.527,-392.114"/>
<polygon fill="green" stroke="green" points="497.254,-395.378 507.816,-396.212 500.08,-388.973 497.254,-395.378"/>
<text text-anchor="middle" x="434" y="-392.673" font-family="Times,serif" font-size="14.00">inspect_after</text>
</g>
<!-- q1&#45;&gt;q0 -->
<g id="edge13" class="edge"><title>q1&#45;&gt;q0</title>
<path fill="none" stroke="green" d="M199.451,-449.46C232.661,-426.689 308.072,-379.006 380,-361.873 426.694,-350.75 444.65,-341.263 488,-361.873 496.498,-365.913 503.609,-373.137 509.153,-380.524"/>
<polygon fill="green" stroke="green" points="506.438,-382.758 514.932,-389.091 512.241,-378.843 506.438,-382.758"/>
<text text-anchor="middle" x="434" y="-365.673" font-family="Times,serif" font-size="14.00">Learn_Assert</text>
</g>
<!-- q0&#45;&gt;q0 -->
<g id="edge2" class="edge"><title>q0&#45;&gt;q0</title>
<path fill="none" stroke="black" d="M520.764,-422.654C520.214,-432.188 521.293,-440.873 524,-440.873 525.65,-440.873 526.694,-437.648 527.135,-432.971"/>
<polygon fill="black" stroke="black" points="530.638,-432.688 527.236,-422.654 523.638,-432.62 530.638,-432.688"/>
<text text-anchor="middle" x="524" y="-444.673" font-family="Times,serif" font-size="14.00">merge_single_node</text>
</g>
<!-- q0&#45;&gt;q0 -->
<g id="edge3" class="edge"><title>q0&#45;&gt;q0</title>
<path fill="none" stroke="black" d="M518.684,-422.293C515.654,-439.664 517.426,-458.873 524,-458.873 529.29,-458.873 531.471,-446.434 530.542,-432.525"/>
<polygon fill="black" stroke="black" points="533.981,-431.805 529.316,-422.293 527.031,-432.638 533.981,-431.805"/>
<text text-anchor="middle" x="524" y="-462.673" font-family="Times,serif" font-size="14.00">merge_pair</text>
</g>
<!-- q0&#45;&gt;q0 -->
<g id="edge4" class="edge"><title>q0&#45;&gt;q0</title>
<path fill="none" stroke="black" d="M517.444,-421.865C511.057,-446.392 513.242,-476.873 524,-476.873 533.329,-476.873 536.211,-453.951 532.647,-431.867"/>
<polygon fill="black" stroke="black" points="536.028,-430.937 530.556,-421.865 529.176,-432.37 536.028,-430.937"/>
<text text-anchor="middle" x="524" y="-480.673" font-family="Times,serif" font-size="14.00">seq_sort_core</text>
</g>
<!-- q0&#45;&gt;q0 -->
<g id="edge6" class="edge"><title>q0&#45;&gt;q0</title>
<path fill="none" stroke="green" d="M516.594,-421.663C506.484,-452.945 508.953,-494.873 524,-494.873 537.519,-494.873 540.884,-461.029 534.097,-431.469"/>
<polygon fill="green" stroke="green" points="537.428,-430.38 531.406,-421.663 530.677,-432.233 537.428,-430.38"/>
<text text-anchor="middle" x="524" y="-498.673" font-family="Times,serif" font-size="14.00">inspect_after</text>
</g>
<!-- q0&#45;&gt;q0 -->
<g id="edge7" class="edge"><title>q0&#45;&gt;q0</title>
<path fill="none" stroke="green" d="M516.129,-421.124C501.909,-458.971 504.532,-512.873 524,-512.873 541.871,-512.873 545.548,-467.452 535.03,-430.724"/>
<polygon fill="green" stroke="green" points="538.322,-429.529 531.871,-421.124 531.673,-431.717 538.322,-429.529"/>
<text text-anchor="middle" x="524" y="-516.673" font-family="Times,serif" font-size="14.00">Learn_Assert</text>
</g>
<!-- q3 -->
<g id="node5" class="node"><title>q3</title>
<ellipse fill="none" stroke="green" cx="740" cy="-461.873" rx="18" ry="18"/>
<text text-anchor="middle" x="740" y="-458.173" font-family="Times,serif" font-size="14.00">D</text>
</g>
<!-- q0&#45;&gt;q3 -->
<g id="edge5" class="edge"><title>q0&#45;&gt;q3</title>
<path fill="none" stroke="green" d="M524.678,-423.153C525.342,-448.738 530.832,-494.486 560,-515.873 598.71,-544.255 622.515,-531.205 668,-515.873 687.688,-509.236 706.239,-494.726 719.439,-482.416"/>
<polygon fill="green" stroke="green" points="722.203,-484.61 726.928,-475.127 717.321,-479.594 722.203,-484.61"/>
<text text-anchor="middle" x="614" y="-535.673" font-family="Times,serif" font-size="14.00">inspect_before</text>
</g>
<!-- q2 -->
<g id="node4" class="node"><title>q2</title>
<ellipse fill="none" stroke="green" cx="1346" cy="-592.873" rx="18" ry="18"/>
<text text-anchor="middle" x="1346" y="-589.173" font-family="Times,serif" font-size="14.00">D</text>
</g>
<!-- q2&#45;&gt;q1 -->
<g id="edge19" class="edge"><title>q2&#45;&gt;q1</title>
<path fill="none" stroke="green" d="M1345.72,-611.054C1345.94,-641.403 1342.03,-702.711 1310,-739.873 1271.85,-784.135 1246.43,-788.873 1188,-788.873 523,-788.873 523,-788.873 523,-788.873 351.918,-788.873 233.25,-571.798 195.156,-491.377"/>
<polygon fill="green" stroke="green" points="198.108,-489.423 190.713,-481.836 191.762,-492.378 198.108,-489.423"/>
<text text-anchor="middle" x="866" y="-792.673" font-family="Times,serif" font-size="14.00">Learn_Assert</text>
</g>
<!-- q2&#45;&gt;q0 -->
<g id="edge14" class="edge"><title>q2&#45;&gt;q0</title>
<path fill="none" stroke="black" d="M1344.6,-611.238C1343.04,-636.646 1336.46,-682.377 1310,-708.873 1269.96,-748.967 1244.66,-745.873 1188,-745.873 739,-745.873 739,-745.873 739,-745.873 657.763,-745.873 614.825,-768.82 560,-708.873 541.542,-688.69 530.132,-504.267 526.375,-432.896"/>
<polygon fill="black" stroke="black" points="529.866,-432.643 525.857,-422.836 522.876,-433.003 529.866,-432.643"/>
<text text-anchor="middle" x="992" y="-749.673" font-family="Times,serif" font-size="14.00">merge_single_node</text>
</g>
<!-- q2&#45;&gt;q0 -->
<g id="edge15" class="edge"><title>q2&#45;&gt;q0</title>
<path fill="none" stroke="black" d="M1339.93,-609.942C1334.72,-624.664 1325.18,-645.456 1310,-657.873 1266.14,-693.749 1244.66,-694.873 1188,-694.873 739,-694.873 739,-694.873 739,-694.873 657.763,-694.873 615.506,-717.19 560,-657.873 530.052,-625.868 525.486,-492.414 524.959,-433.285"/>
<polygon fill="black" stroke="black" points="528.459,-433.131 524.903,-423.15 521.459,-433.17 528.459,-433.131"/>
<text text-anchor="middle" x="992" y="-698.673" font-family="Times,serif" font-size="14.00">merge_pair</text>
</g>
<!-- q2&#45;&gt;q0 -->
<g id="edge16" class="edge"><title>q2&#45;&gt;q0</title>
<path fill="none" stroke="black" d="M1329.93,-601.294C1302.56,-615.78 1242.45,-643.873 1188,-643.873 739,-643.873 739,-643.873 739,-643.873 657.763,-643.873 616.509,-665.235 560,-606.873 536.415,-582.514 528.55,-482.531 526.069,-432.978"/>
<polygon fill="black" stroke="black" points="529.563,-432.762 525.606,-422.934 522.57,-433.085 529.563,-432.762"/>
<text text-anchor="middle" x="992" y="-647.673" font-family="Times,serif" font-size="14.00">seq_sort_core</text>
</g>
<!-- q2&#45;&gt;q0 -->
<g id="edge17" class="edge"><title>q2&#45;&gt;q0</title>
<path fill="none" stroke="green" d="M1327.58,-592.873C1298.6,-592.873 1238.7,-592.873 1188,-592.873 739,-592.873 739,-592.873 739,-592.873 659.201,-592.873 619.72,-631.8 560,-578.873 538.643,-559.945 529.868,-477.315 526.649,-433.075"/>
<polygon fill="green" stroke="green" points="530.133,-432.712 525.962,-422.972 523.149,-433.187 530.133,-432.712"/>
<text text-anchor="middle" x="992" y="-596.673" font-family="Times,serif" font-size="14.00">inspect_before</text>
</g>
<!-- q2&#45;&gt;q0 -->
<g id="edge18" class="edge"><title>q2&#45;&gt;q0</title>
<path fill="none" stroke="green" d="M1328.2,-590.118C1282.85,-582.827 1154.03,-563.089 1046,-555.873 1039.26,-555.423 565.279,-555.08 560,-550.873 541.787,-536.357 531.947,-470.966 527.665,-432.799"/>
<polygon fill="green" stroke="green" points="531.141,-432.394 526.602,-422.82 524.181,-433.135 531.141,-432.394"/>
<text text-anchor="middle" x="992" y="-559.673" font-family="Times,serif" font-size="14.00">inspect_after</text>
</g>
<!-- q3&#45;&gt;q0 -->
<g id="edge20" class="edge"><title>q3&#45;&gt;q0</title>
<path fill="none" stroke="black" d="M723.399,-469.14C690.372,-483.354 612.147,-510.702 560,-477.873 544.291,-467.983 535.475,-448.869 530.621,-432.679"/>
<polygon fill="black" stroke="black" points="533.897,-431.372 527.971,-422.59 527.126,-433.151 533.897,-431.372"/>
<text text-anchor="middle" x="614" y="-496.673" font-family="Times,serif" font-size="14.00">merge_single_node</text>
</g>
<!-- q3&#45;&gt;q0 -->
<g id="edge21" class="edge"><title>q3&#45;&gt;q0</title>
<path fill="none" stroke="black" d="M721.971,-461.186C682.969,-459.391 588.352,-453.703 560,-439.873 553.462,-436.683 547.42,-431.776 542.262,-426.635"/>
<polygon fill="black" stroke="black" points="544.713,-424.129 535.382,-419.11 539.547,-428.852 544.713,-424.129"/>
<text text-anchor="middle" x="614" y="-460.673" font-family="Times,serif" font-size="14.00">merge_pair</text>
</g>
<!-- q3&#45;&gt;q0 -->
<g id="edge23" class="edge"><title>q3&#45;&gt;q0</title>
<path fill="none" stroke="green" d="M725.145,-451.535C711.403,-441.867 689.365,-427.895 668,-420.873 629.279,-408.146 581.829,-405.142 552.505,-404.638"/>
<polygon fill="green" stroke="green" points="552.238,-401.136 542.209,-404.552 552.18,-408.135 552.238,-401.136"/>
<text text-anchor="middle" x="614" y="-424.673" font-family="Times,serif" font-size="14.00">inspect_before</text>
</g>
<!-- q3&#45;&gt;q0 -->
<g id="edge25" class="edge"><title>q3&#45;&gt;q0</title>
<path fill="none" stroke="green" d="M730.337,-446.496C718.85,-427.869 696.647,-397.424 668,-384.873 624.035,-365.609 606.392,-372.553 560,-384.873 555.815,-385.984 551.608,-387.727 547.635,-389.73"/>
<polygon fill="green" stroke="green" points="545.861,-386.712 538.907,-394.705 549.328,-392.794 545.861,-386.712"/>
<text text-anchor="middle" x="614" y="-388.673" font-family="Times,serif" font-size="14.00">Learn_Assert</text>
</g>
<!-- q3&#45;&gt;q2 -->
<g id="edge24" class="edge"><title>q3&#45;&gt;q2</title>
<path fill="none" stroke="green" d="M757.779,-458.673C830.929,-445.69 1126.49,-403.356 1310,-527.873 1323.14,-536.79 1331.76,-552.305 1337.16,-565.941"/>
<polygon fill="green" stroke="green" points="1333.88,-567.173 1340.54,-575.417 1340.48,-564.822 1333.88,-567.173"/>
<text text-anchor="middle" x="1099" y="-459.673" font-family="Times,serif" font-size="14.00">inspect_after</text>
</g>
<!-- q5 -->
<g id="node7" class="node"><title>q5</title>
<ellipse fill="none" stroke="black" cx="992" cy="-155.873" rx="18" ry="18"/>
<text text-anchor="middle" x="992" y="-152.173" font-family="Times,serif" font-size="14.00">D</text>
</g>
<!-- q3&#45;&gt;q5 -->
<g id="edge22" class="edge"><title>q3&#45;&gt;q5</title>
<path fill="none" stroke="black" d="M743.172,-444.048C750.204,-389.321 774.115,-225.279 812,-189.873 817.546,-184.69 915.441,-168.159 964.056,-160.216"/>
<polygon fill="black" stroke="black" points="964.871,-163.629 974.18,-158.569 963.748,-156.72 964.871,-163.629"/>
<text text-anchor="middle" x="866" y="-193.673" font-family="Times,serif" font-size="14.00">seq_sort_core</text>
</g>
<!-- q4 -->
<g id="node6" class="node"><title>q4</title>
<ellipse fill="none" stroke="black" cx="1187" cy="-302.873" rx="18" ry="18"/>
<text text-anchor="middle" x="1187" y="-299.173" font-family="Times,serif" font-size="14.00">D</text>
</g>
<!-- q4&#45;&gt;q0 -->
<g id="edge26" class="edge"><title>q4&#45;&gt;q0</title>
<path fill="none" stroke="black" d="M1176.06,-317.861C1166.82,-330.329 1151.84,-347.228 1134,-354.873 1075.36,-380.003 618.46,-343.33 560,-368.873 553.131,-371.874 546.927,-376.922 541.716,-382.302"/>
<polygon fill="black" stroke="black" points="538.75,-380.379 534.832,-390.223 544.033,-384.971 538.75,-380.379"/>
<text text-anchor="middle" x="866" y="-366.673" font-family="Times,serif" font-size="14.00">merge_single_node</text>
</g>
<!-- q4&#45;&gt;q0 -->
<g id="edge27" class="edge"><title>q4&#45;&gt;q0</title>
<path fill="none" stroke="black" d="M1169.32,-308.262C1159.21,-311.303 1145.99,-314.882 1134,-316.873 1007.89,-337.813 671.374,-292.122 560,-354.873 550.168,-360.412 542.46,-369.996 536.809,-379.3"/>
<polygon fill="black" stroke="black" points="533.584,-377.901 531.842,-388.352 539.721,-381.269 533.584,-377.901"/>
<text text-anchor="middle" x="866" y="-324.673" font-family="Times,serif" font-size="14.00">merge_pair</text>
</g>
<!-- q4&#45;&gt;q0 -->
<g id="edge28" class="edge"><title>q4&#45;&gt;q0</title>
<path fill="none" stroke="black" d="M1168.89,-302.264C1073.56,-299.02 610.502,-285.249 560,-321.873 542.268,-334.732 533.462,-358.365 529.123,-377.134"/>
<polygon fill="black" stroke="black" points="525.687,-376.467 527.144,-386.961 532.549,-377.849 525.687,-376.467"/>
<text text-anchor="middle" x="866" y="-301.673" font-family="Times,serif" font-size="14.00">seq_sort_core</text>
</g>
<!-- q4&#45;&gt;q0 -->
<g id="edge29" class="edge"><title>q4&#45;&gt;q0</title>
<path fill="none" stroke="green" d="M1168.97,-300.042C1078.79,-285.448 657.563,-222.284 560,-298.873 536.496,-317.324 528.608,-352 526.052,-376.664"/>
<polygon fill="green" stroke="green" points="522.544,-376.623 525.234,-386.871 529.521,-377.182 522.544,-376.623"/>
<text text-anchor="middle" x="866" y="-272.673" font-family="Times,serif" font-size="14.00">inspect_before</text>
</g>
<!-- q4&#45;&gt;q0 -->
<g id="edge31" class="edge"><title>q4&#45;&gt;q0</title>
<path fill="none" stroke="green" d="M1170.37,-295.565C1160.2,-291.06 1146.54,-285.475 1134,-281.873 1041.16,-255.198 1016.23,-252.35 920,-243.873 760.395,-229.812 682.318,-159.386 560,-262.873 542.843,-277.388 532.678,-339.73 528.039,-376.813"/>
<polygon fill="green" stroke="green" points="524.535,-376.642 526.826,-386.986 531.486,-377.471 524.535,-376.642"/>
<text text-anchor="middle" x="866" y="-247.673" font-family="Times,serif" font-size="14.00">Learn_Assert</text>
</g>
<!-- q4&#45;&gt;q2 -->
<g id="edge30" class="edge"><title>q4&#45;&gt;q2</title>
<path fill="none" stroke="green" d="M1200.91,-314.45C1225.92,-337.617 1281.07,-392.404 1310,-449.873 1328.73,-487.081 1337.8,-534.874 1341.91,-564.692"/>
<polygon fill="green" stroke="green" points="1338.47,-565.34 1343.22,-574.812 1345.41,-564.447 1338.47,-565.34"/>
<text text-anchor="middle" x="1275" y="-453.673" font-family="Times,serif" font-size="14.00">inspect_after</text>
</g>
<!-- q5&#45;&gt;q0 -->
<g id="edge32" class="edge"><title>q5&#45;&gt;q0</title>
<path fill="none" stroke="black" d="M973.858,-155.512C901.207,-154.363 619.71,-153.834 560,-212.873 537.312,-235.305 529.064,-328.643 526.288,-376.42"/>
<polygon fill="black" stroke="black" points="522.777,-376.527 525.735,-386.701 529.767,-376.903 522.777,-376.527"/>
<text text-anchor="middle" x="740" y="-173.673" font-family="Times,serif" font-size="14.00">merge_single_node</text>
</g>
<!-- q5&#45;&gt;q0 -->
<g id="edge34" class="edge"><title>q5&#45;&gt;q0</title>
<path fill="none" stroke="black" d="M974.899,-149.613C910.834,-125.869 672.066,-48.6608 560,-169.873 532.632,-199.474 526.652,-320.878 525.355,-376.635"/>
<polygon fill="black" stroke="black" points="521.851,-376.797 525.153,-386.865 528.85,-376.936 521.851,-376.797"/>
<text text-anchor="middle" x="740" y="-111.673" font-family="Times,serif" font-size="14.00">seq_sort_core</text>
</g>
<!-- q5&#45;&gt;q0 -->
<g id="edge35" class="edge"><title>q5&#45;&gt;q0</title>
<path fill="none" stroke="green" d="M978.01,-143.632C964.578,-131.721 942.458,-114.108 920,-104.873 846.01,-74.4444 614.754,-49.5417 560,-107.873 541.786,-127.276 530.297,-306.109 526.444,-376.549"/>
<polygon fill="green" stroke="green" points="522.93,-376.71 525.891,-386.883 529.92,-377.084 522.93,-376.71"/>
<text text-anchor="middle" x="740" y="-81.6726" font-family="Times,serif" font-size="14.00">inspect_before</text>
</g>
<!-- q5&#45;&gt;q0 -->
<g id="edge37" class="edge"><title>q5&#45;&gt;q0</title>
<path fill="none" stroke="green" d="M981.82,-140.616C969.958,-122.336 947.526,-92.2558 920,-76.8726 780.312,1.19301 671.46,43.948 560,-70.8726 538.857,-92.6536 528.951,-300.036 525.992,-376.629"/>
<polygon fill="green" stroke="green" points="522.482,-376.819 525.605,-386.943 529.477,-377.081 522.482,-376.819"/>
<text text-anchor="middle" x="740" y="-20.6726" font-family="Times,serif" font-size="14.00">Learn_Assert</text>
</g>
<!-- q5&#45;&gt;q2 -->
<g id="edge36" class="edge"><title>q5&#45;&gt;q2</title>
<path fill="none" stroke="green" d="M1010.06,-154.288C1037.62,-152.475 1093,-151.965 1134,-171.873 1234.08,-220.466 1260.47,-250.253 1310,-349.873 1328.55,-387.174 1339.18,-509.183 1343.17,-564.796"/>
<polygon fill="green" stroke="green" points="1339.69,-565.256 1343.88,-574.989 1346.67,-564.77 1339.69,-565.256"/>
<text text-anchor="middle" x="1187" y="-227.673" font-family="Times,serif" font-size="14.00">inspect_after</text>
</g>
<!-- q5&#45;&gt;q4 -->
<g id="edge33" class="edge"><title>q5&#45;&gt;q4</title>
<path fill="none" stroke="black" d="M1009.68,-160.041C1044.87,-168.952 1124.31,-189.705 1134,-197.873 1157.85,-217.969 1171.78,-251.654 1179.12,-275.443"/>
<polygon fill="black" stroke="black" points="1175.83,-276.64 1181.96,-285.279 1182.55,-274.7 1175.83,-276.64"/>
<text text-anchor="middle" x="1099" y="-201.673" font-family="Times,serif" font-size="14.00">merge_pair</text>
</g>
<!-- iq0 -->
<g id="node8" class="node"><title>iq0</title>
</g>
<!-- iq0&#45;&gt;q0 -->
<g id="edge1" class="edge"><title>iq0&#45;&gt;q0</title>
<path fill="none" stroke="blue" d="M208.304,-310.009C264.635,-301.074 399.031,-287.818 488,-344.873 500.095,-352.629 508.513,-366.163 514.057,-378.415"/>
<polygon fill="blue" stroke="blue" points="510.882,-379.898 517.902,-387.833 517.362,-377.251 510.882,-379.898"/>
</g>
</g>
</svg>
