<?xml version="1.0" encoding="UTF-8" standalone="no"?>
<!DOCTYPE svg PUBLIC "-//W3C//DTD SVG 1.1//EN"
 "http://www.w3.org/Graphics/SVG/1.1/DTD/svg11.dtd">
<!-- Generated by graphviz version 2.34.0 (20141125.1709)
 -->
<!-- Title: finite_automaton Pages: 1 -->
<svg width="576pt" height="85pt"
 viewBox="0.00 0.00 576.00 84.60" xmlns="http://www.w3.org/2000/svg" xmlns:xlink="http://www.w3.org/1999/xlink">
<g id="graph0" class="graph" transform="scale(0.332564 0.332564) rotate(0) translate(4 250.381)">
<title>finite_automaton</title>
<polygon fill="white" stroke="white" points="-4,4 -4,-250.381 1728,-250.381 1728,4 -4,4"/>
<!-- dom_edges -->
<g id="node1" class="node"><title>dom_edges</title>
<polygon fill="none" stroke="green" points="398,-76.3813 0,-76.3813 0,-40.3813 398,-40.3813 398,-76.3813"/>
<text text-anchor="middle" x="199" y="-54.6813" font-family="Times,serif" font-size="14.00">Dominating edges: new_list, init_prio_queue, initialize, Learn_Assert</text>
</g>
<!-- q1 -->
<g id="node2" class="node"><title>q1</title>
<ellipse fill="none" stroke="green" cx="1702" cy="-105.381" rx="18" ry="18"/>
<ellipse fill="none" stroke="green" cx="1702" cy="-105.381" rx="22" ry="22"/>
<text text-anchor="middle" x="1702" y="-101.681" font-family="Times,serif" font-size="14.00">D</text>
</g>
<!-- q0 -->
<g id="node3" class="node"><title>q0</title>
<ellipse fill="none" stroke="green" cx="454" cy="-112.381" rx="18" ry="18"/>
</g>
<!-- q5 -->
<g id="node7" class="node"><title>q5</title>
<ellipse fill="none" stroke="green" cx="574" cy="-112.381" rx="18" ry="18"/>
</g>
<!-- q0&#45;&gt;q5 -->
<g id="edge2" class="edge"><title>q0&#45;&gt;q5</title>
<path fill="none" stroke="green" d="M472.158,-112.381C491.472,-112.381 523.109,-112.381 545.799,-112.381"/>
<polygon fill="green" stroke="green" points="545.821,-115.881 555.821,-112.381 545.821,-108.881 545.821,-115.881"/>
<text text-anchor="middle" x="514" y="-116.181" font-family="Times,serif" font-size="14.00">initialize</text>
</g>
<!-- q2 -->
<g id="node4" class="node"><title>q2</title>
<ellipse fill="none" stroke="black" cx="1533" cy="-156.381" rx="18" ry="18"/>
</g>
<!-- q2&#45;&gt;q1 -->
<g id="edge3" class="edge"><title>q2&#45;&gt;q1</title>
<path fill="none" stroke="green" d="M1550.67,-151.925C1575.2,-145.286 1622.39,-132.203 1662,-119.381 1665.15,-118.362 1668.42,-117.257 1671.68,-116.131"/>
<polygon fill="green" stroke="green" points="1672.98,-119.383 1681.24,-112.747 1670.65,-112.783 1672.98,-119.383"/>
<text text-anchor="middle" x="1625" y="-144.181" font-family="Times,serif" font-size="14.00">Learn_Assert</text>
</g>
<!-- q3 -->
<g id="node5" class="node"><title>q3</title>
<ellipse fill="none" stroke="green" cx="850" cy="-112.381" rx="18" ry="18"/>
</g>
<!-- q3&#45;&gt;q1 -->
<g id="edge10" class="edge"><title>q3&#45;&gt;q1</title>
<path fill="none" stroke="green" d="M853.092,-94.3556C856.421,-74.31 864.88,-42.504 886,-25.3813 929.818,10.1439 954.591,-3.38131 1011,-3.38131 1011,-3.38131 1011,-3.38131 1534,-3.38131 1593.57,-3.38131 1649.88,-51.227 1679.45,-81.3802"/>
<polygon fill="green" stroke="green" points="1677.28,-84.1787 1686.72,-88.9932 1682.34,-79.3441 1677.28,-84.1787"/>
<text text-anchor="middle" x="1277" y="-7.18131" font-family="Times,serif" font-size="14.00">Learn_Assert</text>
</g>
<!-- q3&#45;&gt;q2 -->
<g id="edge6" class="edge"><title>q3&#45;&gt;q2</title>
<path fill="none" stroke="black" d="M853.967,-129.999C858.011,-148.594 867.043,-177.499 886,-194.381 929.267,-232.914 953.062,-231.381 1011,-231.381 1011,-231.381 1011,-231.381 1351,-231.381 1409.79,-231.381 1425.02,-219.866 1478,-194.381 1489.39,-188.903 1500.98,-181.095 1510.5,-173.981"/>
<polygon fill="black" stroke="black" points="1512.81,-176.615 1518.58,-167.728 1508.53,-171.078 1512.81,-176.615"/>
<text text-anchor="middle" x="1167" y="-235.181" font-family="Times,serif" font-size="14.00">finish_all_processes</text>
</g>
<!-- q3&#45;&gt;q2 -->
<g id="edge7" class="edge"><title>q3&#45;&gt;q2</title>
<path fill="none" stroke="black" d="M860.215,-127.462C866.42,-136.343 875.394,-147.046 886,-153.381 934.794,-182.528 954.163,-180.381 1011,-180.381 1011,-180.381 1011,-180.381 1351,-180.381 1406.16,-180.381 1469.95,-169.294 1505.16,-162.191"/>
<polygon fill="black" stroke="black" points="1506.05,-165.582 1515.13,-160.131 1504.63,-158.727 1506.05,-165.582"/>
<text text-anchor="middle" x="1167" y="-184.181" font-family="Times,serif" font-size="14.00">unblock_process</text>
</g>
<!-- q9 -->
<g id="node10" class="node"><title>q9</title>
<ellipse fill="none" stroke="black" cx="1012" cy="-131.381" rx="18" ry="18"/>
</g>
<!-- q3&#45;&gt;q9 -->
<g id="edge4" class="edge"><title>q3&#45;&gt;q9</title>
<path fill="none" stroke="black" d="M866.203,-120.955C872.183,-123.889 879.229,-126.822 886,-128.381 918.947,-135.97 958.073,-135.435 983.664,-133.853"/>
<polygon fill="black" stroke="black" points="984.021,-137.336 993.745,-133.131 983.521,-130.354 984.021,-137.336"/>
<text text-anchor="middle" x="931" y="-138.181" font-family="Times,serif" font-size="14.00">new_process</text>
</g>
<!-- q10 -->
<g id="node11" class="node"><title>q10</title>
<ellipse fill="none" stroke="black" cx="1012" cy="-75.3813" rx="18" ry="18"/>
</g>
<!-- q3&#45;&gt;q10 -->
<g id="edge5" class="edge"><title>q3&#45;&gt;q10</title>
<path fill="none" stroke="black" d="M868.273,-110.618C892.662,-107.842 938.411,-101.58 976,-90.3813 979.398,-89.3691 982.907,-88.1228 986.334,-86.7848"/>
<polygon fill="black" stroke="black" points="987.741,-89.99 995.605,-82.8898 985.029,-83.5364 987.741,-89.99"/>
<text text-anchor="middle" x="931" y="-111.181" font-family="Times,serif" font-size="14.00">finish_process</text>
</g>
<!-- q3&#45;&gt;q10 -->
<g id="edge8" class="edge"><title>q3&#45;&gt;q10</title>
<path fill="none" stroke="black" d="M859.511,-96.8999C865.556,-87.6204 874.612,-76.6331 886,-71.3813 917.366,-56.9167 958.019,-61.9737 984.305,-67.8759"/>
<polygon fill="black" stroke="black" points="983.744,-71.3419 994.289,-70.3148 985.405,-64.5418 983.744,-71.3419"/>
<text text-anchor="middle" x="931" y="-75.1813" font-family="Times,serif" font-size="14.00">quantum_expire</text>
</g>
<!-- q3&#45;&gt;q10 -->
<g id="edge9" class="edge"><title>q3&#45;&gt;q10</title>
<path fill="none" stroke="black" d="M854.352,-94.7394C858.572,-77.9914 867.623,-53.739 886,-42.3813 920.026,-21.3521 938.824,-27.6189 976,-42.3813 982.316,-44.8894 988.153,-49.1374 993.178,-53.7657"/>
<polygon fill="black" stroke="black" points="990.879,-56.4219 1000.36,-61.1565 995.9,-51.5446 990.879,-56.4219"/>
<text text-anchor="middle" x="931" y="-46.1813" font-family="Times,serif" font-size="14.00">block_process</text>
</g>
<!-- q4 -->
<g id="node6" class="node"><title>q4</title>
<ellipse fill="none" stroke="green" cx="732" cy="-112.381" rx="18" ry="18"/>
</g>
<!-- q4&#45;&gt;q3 -->
<g id="edge11" class="edge"><title>q4&#45;&gt;q3</title>
<path fill="none" stroke="green" d="M750.116,-112.381C768.964,-112.381 799.531,-112.381 821.696,-112.381"/>
<polygon fill="green" stroke="green" points="821.814,-115.881 831.814,-112.381 821.814,-108.881 821.814,-115.881"/>
<text text-anchor="middle" x="791" y="-116.181" font-family="Times,serif" font-size="14.00">new_list</text>
</g>
<!-- q5&#45;&gt;q4 -->
<g id="edge12" class="edge"><title>q5&#45;&gt;q4</title>
<path fill="none" stroke="green" d="M592.291,-112.381C619.232,-112.381 671.46,-112.381 703.577,-112.381"/>
<polygon fill="green" stroke="green" points="703.632,-115.881 713.632,-112.381 703.632,-108.881 703.632,-115.881"/>
<text text-anchor="middle" x="653" y="-116.181" font-family="Times,serif" font-size="14.00">init_prio_queue</text>
</g>
<!-- q7 -->
<g id="node8" class="node"><title>q7</title>
<ellipse fill="none" stroke="black" cx="1350" cy="-126.381" rx="18" ry="18"/>
</g>
<!-- q7&#45;&gt;q1 -->
<g id="edge14" class="edge"><title>q7&#45;&gt;q1</title>
<path fill="none" stroke="green" d="M1367.95,-124.764C1395,-122.232 1449.62,-117.318 1496,-114.381 1557.39,-110.495 1629.23,-107.757 1669.49,-106.386"/>
<polygon fill="green" stroke="green" points="1669.86,-109.876 1679.74,-106.044 1669.63,-102.88 1669.86,-109.876"/>
<text text-anchor="middle" x="1533" y="-118.181" font-family="Times,serif" font-size="14.00">Learn_Assert</text>
</g>
<!-- q7&#45;&gt;q2 -->
<g id="edge13" class="edge"><title>q7&#45;&gt;q2</title>
<path fill="none" stroke="black" d="M1368.03,-129.204C1399.51,-134.421 1467.03,-145.613 1504.87,-151.885"/>
<polygon fill="black" stroke="black" points="1504.71,-155.406 1515.15,-153.588 1505.86,-148.5 1504.71,-155.406"/>
<text text-anchor="middle" x="1432" y="-150.181" font-family="Times,serif" font-size="14.00">unblock_process</text>
</g>
<!-- q8 -->
<g id="node9" class="node"><title>q8</title>
<ellipse fill="none" stroke="black" cx="1167" cy="-126.381" rx="18" ry="18"/>
</g>
<!-- q8&#45;&gt;q7 -->
<g id="edge15" class="edge"><title>q8&#45;&gt;q7</title>
<path fill="none" stroke="black" d="M1185.03,-126.381C1216.43,-126.381 1283.69,-126.381 1321.58,-126.381"/>
<polygon fill="black" stroke="black" points="1321.89,-129.881 1331.89,-126.381 1321.89,-122.881 1321.89,-129.881"/>
<text text-anchor="middle" x="1277" y="-130.181" font-family="Times,serif" font-size="14.00">append_ele</text>
</g>
<!-- q9&#45;&gt;q8 -->
<g id="edge16" class="edge"><title>q9&#45;&gt;q8</title>
<path fill="none" stroke="black" d="M1030.25,-130.817C1056.54,-129.958 1106.87,-128.314 1138.31,-127.286"/>
<polygon fill="black" stroke="black" points="1138.69,-130.776 1148.57,-126.951 1138.47,-123.779 1138.69,-130.776"/>
<text text-anchor="middle" x="1071" y="-133.181" font-family="Times,serif" font-size="14.00">new_ele</text>
</g>
<!-- q10&#45;&gt;q2 -->
<g id="edge17" class="edge"><title>q10&#45;&gt;q2</title>
<path fill="none" stroke="black" d="M1030.13,-75.389C1081.62,-75.6576 1239.38,-78.2765 1368,-99.3813 1417.89,-107.568 1430.83,-110.19 1478,-128.381 1488.09,-132.273 1498.75,-137.533 1507.91,-142.443"/>
<polygon fill="black" stroke="black" points="1506.38,-145.594 1516.82,-147.361 1509.76,-139.465 1506.38,-145.594"/>
<text text-anchor="middle" x="1277" y="-95.1813" font-family="Times,serif" font-size="14.00">schedule</text>
</g>
<!-- iq0 -->
<g id="node12" class="node"><title>iq0</title>
</g>
<!-- iq0&#45;&gt;q0 -->
<g id="edge1" class="edge"><title>iq0&#45;&gt;q0</title>
<path fill="none" stroke="blue" d="M226.123,-112.381C274.246,-112.381 376.462,-112.381 425.557,-112.381"/>
<polygon fill="blue" stroke="blue" points="425.738,-115.881 435.738,-112.381 425.738,-108.881 425.738,-115.881"/>
</g>
</g>
</svg>
