<?xml version="1.0" encoding="UTF-8" standalone="no"?>
<!DOCTYPE svg PUBLIC "-//W3C//DTD SVG 1.1//EN"
 "http://www.w3.org/Graphics/SVG/1.1/DTD/svg11.dtd">
<!-- Generated by graphviz version 2.34.0 (20141125.1709)
 -->
<!-- Title: finite_automaton Pages: 1 -->
<svg width="576pt" height="99pt"
 viewBox="0.00 0.00 576.00 98.52" xmlns="http://www.w3.org/2000/svg" xmlns:xlink="http://www.w3.org/1999/xlink">
<g id="graph0" class="graph" transform="scale(0.203246 0.203246) rotate(0) translate(4 480.756)">
<title>finite_automaton</title>
<polygon fill="white" stroke="white" points="-4,4 -4,-480.756 2830,-480.756 2830,4 -4,4"/>
<!-- dom_edges -->
<g id="node1" class="node"><title>dom_edges</title>
<polygon fill="none" stroke="green" points="900,-319.756 0,-319.756 0,-283.756 900,-283.756 900,-319.756"/>
<text text-anchor="middle" x="450" y="-298.056" font-family="Times,serif" font-size="14.00">Dominating edges: new_ele, new_list, new_process, append_ele, del_ele, finish_process, schedule, finish_all_processes, init_prio_queue, initialize, Learn_Assert</text>
</g>
<!-- q1 -->
<g id="node2" class="node"><title>q1</title>
<ellipse fill="none" stroke="green" cx="2804" cy="-251.756" rx="18" ry="18"/>
<ellipse fill="none" stroke="green" cx="2804" cy="-251.756" rx="22" ry="22"/>
<text text-anchor="middle" x="2804" y="-248.056" font-family="Times,serif" font-size="14.00">D</text>
</g>
<!-- q0 -->
<g id="node3" class="node"><title>q0</title>
<ellipse fill="none" stroke="green" cx="956" cy="-355.756" rx="18" ry="18"/>
</g>
<!-- q12 -->
<g id="node14" class="node"><title>q12</title>
<ellipse fill="none" stroke="green" cx="1076" cy="-355.756" rx="18" ry="18"/>
</g>
<!-- q0&#45;&gt;q12 -->
<g id="edge2" class="edge"><title>q0&#45;&gt;q12</title>
<path fill="none" stroke="green" d="M974.158,-355.756C993.472,-355.756 1025.11,-355.756 1047.8,-355.756"/>
<polygon fill="green" stroke="green" points="1047.82,-359.256 1057.82,-355.756 1047.82,-352.256 1047.82,-359.256"/>
<text text-anchor="middle" x="1016" y="-359.556" font-family="Times,serif" font-size="14.00">initialize</text>
</g>
<!-- q2 -->
<g id="node4" class="node"><title>q2</title>
<ellipse fill="none" stroke="black" cx="2654" cy="-251.756" rx="18" ry="18"/>
</g>
<!-- q2&#45;&gt;q1 -->
<g id="edge3" class="edge"><title>q2&#45;&gt;q1</title>
<path fill="none" stroke="green" d="M2672.27,-251.756C2696.55,-251.756 2741.2,-251.756 2771.49,-251.756"/>
<polygon fill="green" stroke="green" points="2771.55,-255.256 2781.55,-251.756 2771.55,-248.256 2771.55,-255.256"/>
<text text-anchor="middle" x="2727" y="-255.556" font-family="Times,serif" font-size="14.00">Learn_Assert</text>
</g>
<!-- q3 -->
<g id="node5" class="node"><title>q3</title>
<ellipse fill="none" stroke="black" cx="2523" cy="-205.756" rx="18" ry="18"/>
</g>
<!-- q3&#45;&gt;q2 -->
<g id="edge4" class="edge"><title>q3&#45;&gt;q2</title>
<path fill="none" stroke="black" d="M2541.08,-206.256C2560.54,-207.399 2592.89,-211.074 2618,-222.756 2623.28,-225.211 2628.42,-228.658 2633.06,-232.322"/>
<polygon fill="black" stroke="black" points="2630.95,-235.119 2640.81,-238.984 2635.51,-229.811 2630.95,-235.119"/>
<text text-anchor="middle" x="2595" y="-226.556" font-family="Times,serif" font-size="14.00">free_ele</text>
</g>
<!-- q4 -->
<g id="node6" class="node"><title>q4</title>
<ellipse fill="none" stroke="black" cx="2357" cy="-205.756" rx="18" ry="18"/>
</g>
<!-- q4&#45;&gt;q3 -->
<g id="edge5" class="edge"><title>q4&#45;&gt;q3</title>
<path fill="none" stroke="green" d="M2375.24,-205.756C2403.74,-205.756 2460.88,-205.756 2494.84,-205.756"/>
<polygon fill="green" stroke="green" points="2494.99,-209.256 2504.99,-205.756 2494.99,-202.256 2494.99,-209.256"/>
<text text-anchor="middle" x="2443" y="-209.556" font-family="Times,serif" font-size="14.00">del_ele</text>
</g>
<!-- q5 -->
<g id="node7" class="node"><title>q5</title>
<ellipse fill="none" stroke="black" cx="2174" cy="-205.756" rx="18" ry="18"/>
</g>
<!-- q5&#45;&gt;q4 -->
<g id="edge6" class="edge"><title>q5&#45;&gt;q4</title>
<path fill="none" stroke="green" d="M2192.03,-205.756C2223.43,-205.756 2290.69,-205.756 2328.58,-205.756"/>
<polygon fill="green" stroke="green" points="2328.89,-209.256 2338.89,-205.756 2328.89,-202.256 2328.89,-209.256"/>
<text text-anchor="middle" x="2256" y="-209.556" font-family="Times,serif" font-size="14.00">schedule</text>
</g>
<!-- q6 -->
<g id="node8" class="node"><title>q6</title>
<ellipse fill="none" stroke="black" cx="1985" cy="-154.756" rx="18" ry="18"/>
</g>
<!-- q6&#45;&gt;q5 -->
<g id="edge7" class="edge"><title>q6&#45;&gt;q5</title>
<path fill="none" stroke="green" d="M2003.14,-154.972C2032.07,-155.894 2091.96,-160.237 2138,-179.756 2142.93,-181.845 2147.8,-184.762 2152.28,-187.891"/>
<polygon fill="green" stroke="green" points="2150.23,-190.729 2160.3,-194.008 2154.47,-185.162 2150.23,-190.729"/>
<text text-anchor="middle" x="2098" y="-183.556" font-family="Times,serif" font-size="14.00">finish_process</text>
</g>
<!-- q7 -->
<g id="node9" class="node"><title>q7</title>
<ellipse fill="none" stroke="black" cx="1766" cy="-154.756" rx="18" ry="18"/>
</g>
<!-- q7&#45;&gt;q1 -->
<g id="edge13" class="edge"><title>q7&#45;&gt;q1</title>
<path fill="none" stroke="green" d="M1767.77,-136.836C1769.78,-113.043 1776.92,-71.2967 1802,-47.7562 1862.92,9.41495 1900.46,-0.756187 1984,-0.756187 1984,-0.756187 1984,-0.756187 2655,-0.756187 2755.6,-0.756187 2789.21,-152.215 2799.21,-219.826"/>
<polygon fill="green" stroke="green" points="2795.77,-220.5 2800.61,-229.921 2802.7,-219.533 2795.77,-220.5"/>
<text text-anchor="middle" x="2357" y="-4.55619" font-family="Times,serif" font-size="14.00">Learn_Assert</text>
</g>
<!-- q7&#45;&gt;q2 -->
<g id="edge10" class="edge"><title>q7&#45;&gt;q2</title>
<path fill="none" stroke="black" d="M1775.51,-170.183C1781.66,-179.993 1790.85,-192.222 1802,-199.756 1871.71,-246.842 1899.87,-251.756 1984,-251.756 1984,-251.756 1984,-251.756 2524,-251.756 2559.08,-251.756 2599.52,-251.756 2625.63,-251.756"/>
<polygon fill="black" stroke="black" points="2625.89,-255.256 2635.89,-251.756 2625.89,-248.256 2625.89,-255.256"/>
<text text-anchor="middle" x="2256" y="-255.556" font-family="Times,serif" font-size="14.00">unblock_process</text>
</g>
<!-- q7&#45;&gt;q5 -->
<g id="edge8" class="edge"><title>q7&#45;&gt;q5</title>
<path fill="none" stroke="green" d="M1781.4,-164.312C1787.5,-167.892 1794.85,-171.609 1802,-173.756 1926.12,-211.025 2083.35,-209.548 2145.72,-207.153"/>
<polygon fill="green" stroke="green" points="2146.06,-210.642 2155.9,-206.72 2145.76,-203.649 2146.06,-210.642"/>
<text text-anchor="middle" x="1985" y="-211.556" font-family="Times,serif" font-size="14.00">finish_process</text>
</g>
<!-- q7&#45;&gt;q6 -->
<g id="edge9" class="edge"><title>q7&#45;&gt;q6</title>
<path fill="none" stroke="green" d="M1784.03,-154.756C1821.49,-154.756 1911.32,-154.756 1956.74,-154.756"/>
<polygon fill="green" stroke="green" points="1956.75,-158.256 1966.75,-154.756 1956.75,-151.256 1956.75,-158.256"/>
<text text-anchor="middle" x="1857" y="-158.556" font-family="Times,serif" font-size="14.00">finish_all_processes</text>
</g>
<!-- q16 -->
<g id="node17" class="node"><title>q16</title>
<ellipse fill="none" stroke="black" cx="1985" cy="-100.756" rx="18" ry="18"/>
</g>
<!-- q7&#45;&gt;q16 -->
<g id="edge11" class="edge"><title>q7&#45;&gt;q16</title>
<path fill="none" stroke="black" d="M1781.52,-145.57C1787.64,-142.047 1794.97,-138.272 1802,-135.756 1854.99,-116.794 1920.53,-107.405 1956.73,-103.359"/>
<polygon fill="black" stroke="black" points="1957.41,-106.807 1966.98,-102.27 1956.67,-99.8464 1957.41,-106.807"/>
<text text-anchor="middle" x="1857" y="-139.556" font-family="Times,serif" font-size="14.00">quantum_expire</text>
</g>
<!-- q20 -->
<g id="node21" class="node"><title>q20</title>
<ellipse fill="none" stroke="black" cx="1985" cy="-46.7562" rx="18" ry="18"/>
</g>
<!-- q7&#45;&gt;q20 -->
<g id="edge12" class="edge"><title>q7&#45;&gt;q20</title>
<path fill="none" stroke="black" d="M1772.16,-137.733C1777.39,-123.355 1786.89,-103.312 1802,-91.7562 1848,-56.5661 1917.98,-48.5546 1956.38,-46.9408"/>
<polygon fill="black" stroke="black" points="1956.89,-50.4274 1966.78,-46.6299 1956.68,-43.4305 1956.89,-50.4274"/>
<text text-anchor="middle" x="1857" y="-95.5562" font-family="Times,serif" font-size="14.00">block_process</text>
</g>
<!-- q8 -->
<g id="node10" class="node"><title>q8</title>
<ellipse fill="none" stroke="black" cx="1632" cy="-172.756" rx="18" ry="18"/>
</g>
<!-- q8&#45;&gt;q7 -->
<g id="edge14" class="edge"><title>q8&#45;&gt;q7</title>
<path fill="none" stroke="green" d="M1649.99,-170.44C1672.26,-167.402 1711.61,-162.037 1737.99,-158.439"/>
<polygon fill="green" stroke="green" points="1738.64,-161.883 1748.08,-157.064 1737.7,-154.947 1738.64,-161.883"/>
<text text-anchor="middle" x="1699" y="-172.556" font-family="Times,serif" font-size="14.00">append_ele</text>
</g>
<!-- q9 -->
<g id="node11" class="node"><title>q9</title>
<ellipse fill="none" stroke="black" cx="1514" cy="-203.756" rx="18" ry="18"/>
</g>
<!-- q9&#45;&gt;q8 -->
<g id="edge15" class="edge"><title>q9&#45;&gt;q8</title>
<path fill="none" stroke="green" d="M1531.62,-199.315C1550.66,-194.227 1582.1,-185.823 1604.52,-179.832"/>
<polygon fill="green" stroke="green" points="1605.65,-183.153 1614.41,-177.189 1603.85,-176.39 1605.65,-183.153"/>
<text text-anchor="middle" x="1573" y="-197.556" font-family="Times,serif" font-size="14.00">new_ele</text>
</g>
<!-- q10 -->
<g id="node12" class="node"><title>q10</title>
<ellipse fill="none" stroke="green" cx="1352" cy="-355.756" rx="18" ry="18"/>
</g>
<!-- q10&#45;&gt;q1 -->
<g id="edge22" class="edge"><title>q10&#45;&gt;q1</title>
<path fill="none" stroke="green" d="M1355.74,-373.499C1359.6,-392.157 1368.47,-420.956 1388,-436.756 1432.05,-472.388 1456.34,-461.756 1513,-461.756 1513,-461.756 1513,-461.756 2655,-461.756 2741.26,-461.756 2781.65,-341.916 2796.25,-283.296"/>
<polygon fill="green" stroke="green" points="2799.69,-283.979 2798.61,-273.439 2792.88,-282.352 2799.69,-283.979"/>
<text text-anchor="middle" x="2098" y="-465.556" font-family="Times,serif" font-size="14.00">Learn_Assert</text>
</g>
<!-- q10&#45;&gt;q2 -->
<g id="edge18" class="edge"><title>q10&#45;&gt;q2</title>
<path fill="none" stroke="green" d="M1367.78,-346.74C1373.82,-343.552 1381.02,-340.361 1388,-338.756 1426.98,-329.79 1438,-338.361 1478,-338.756 1702.92,-340.979 1759.07,-348.756 1984,-348.756 1984,-348.756 1984,-348.756 2524,-348.756 2568.9,-348.756 2583.92,-340.983 2618,-311.756 2628.66,-302.618 2636.86,-289.384 2642.63,-277.67"/>
<polygon fill="green" stroke="green" points="2645.94,-278.859 2646.92,-268.309 2639.57,-275.947 2645.94,-278.859"/>
<text text-anchor="middle" x="1985" y="-352.556" font-family="Times,serif" font-size="14.00">finish_all_processes</text>
</g>
<!-- q10&#45;&gt;q2 -->
<g id="edge19" class="edge"><title>q10&#45;&gt;q2</title>
<path fill="none" stroke="black" d="M1366.17,-344.059C1372.42,-339.031 1380.21,-333.469 1388,-329.756 1439.77,-305.083 1455.65,-297.756 1513,-297.756 1513,-297.756 1513,-297.756 2524,-297.756 2562.58,-297.756 2604.08,-279.274 2629.3,-265.74"/>
<polygon fill="black" stroke="black" points="2631.08,-268.755 2638.13,-260.844 2627.69,-262.634 2631.08,-268.755"/>
<text text-anchor="middle" x="1985" y="-301.556" font-family="Times,serif" font-size="14.00">unblock_process</text>
</g>
<!-- q10&#45;&gt;q9 -->
<g id="edge16" class="edge"><title>q10&#45;&gt;q9</title>
<path fill="none" stroke="green" d="M1356.28,-338.133C1360.63,-319.041 1369.95,-288.65 1388,-268.756 1414.96,-239.041 1458.7,-220.718 1486.64,-211.389"/>
<polygon fill="green" stroke="green" points="1488.04,-214.617 1496.51,-208.249 1485.91,-207.947 1488.04,-214.617"/>
<text text-anchor="middle" x="1433" y="-272.556" font-family="Times,serif" font-size="14.00">new_process</text>
</g>
<!-- q21 -->
<g id="node22" class="node"><title>q21</title>
<ellipse fill="none" stroke="black" cx="1514" cy="-392.756" rx="18" ry="18"/>
</g>
<!-- q10&#45;&gt;q21 -->
<g id="edge17" class="edge"><title>q10&#45;&gt;q21</title>
<path fill="none" stroke="green" d="M1368.34,-363.825C1374.34,-366.696 1381.36,-369.719 1388,-371.756 1420.77,-381.806 1459.93,-387.401 1485.58,-390.241"/>
<polygon fill="green" stroke="green" points="1485.38,-393.739 1495.69,-391.295 1486.1,-386.776 1485.38,-393.739"/>
<text text-anchor="middle" x="1433" y="-392.556" font-family="Times,serif" font-size="14.00">finish_process</text>
</g>
<!-- q10&#45;&gt;q21 -->
<g id="edge20" class="edge"><title>q10&#45;&gt;q21</title>
<path fill="none" stroke="black" d="M1369.69,-350.954C1394.55,-344.743 1442.22,-336.521 1478,-352.756 1485.8,-356.295 1492.54,-362.526 1497.97,-369.031"/>
<polygon fill="black" stroke="black" points="1495.33,-371.336 1504.13,-377.236 1500.93,-367.136 1495.33,-371.336"/>
<text text-anchor="middle" x="1433" y="-356.556" font-family="Times,serif" font-size="14.00">quantum_expire</text>
</g>
<!-- q10&#45;&gt;q21 -->
<g id="edge21" class="edge"><title>q10&#45;&gt;q21</title>
<path fill="none" stroke="black" d="M1359.18,-372.425C1364.69,-384.644 1374.07,-400.341 1388,-407.756 1423.31,-426.552 1438.82,-415.799 1478,-407.756 1481.47,-407.043 1485.03,-405.971 1488.47,-404.721"/>
<polygon fill="black" stroke="black" points="1489.86,-407.937 1497.76,-400.879 1487.18,-401.469 1489.86,-407.937"/>
<text text-anchor="middle" x="1433" y="-421.556" font-family="Times,serif" font-size="14.00">block_process</text>
</g>
<!-- q11 -->
<g id="node13" class="node"><title>q11</title>
<ellipse fill="none" stroke="green" cx="1234" cy="-355.756" rx="18" ry="18"/>
</g>
<!-- q11&#45;&gt;q10 -->
<g id="edge23" class="edge"><title>q11&#45;&gt;q10</title>
<path fill="none" stroke="green" d="M1252.12,-355.756C1270.96,-355.756 1301.53,-355.756 1323.7,-355.756"/>
<polygon fill="green" stroke="green" points="1323.81,-359.256 1333.81,-355.756 1323.81,-352.256 1323.81,-359.256"/>
<text text-anchor="middle" x="1293" y="-359.556" font-family="Times,serif" font-size="14.00">new_list</text>
</g>
<!-- q12&#45;&gt;q11 -->
<g id="edge24" class="edge"><title>q12&#45;&gt;q11</title>
<path fill="none" stroke="green" d="M1094.29,-355.756C1121.23,-355.756 1173.46,-355.756 1205.58,-355.756"/>
<polygon fill="green" stroke="green" points="1205.63,-359.256 1215.63,-355.756 1205.63,-352.256 1205.63,-359.256"/>
<text text-anchor="middle" x="1155" y="-359.556" font-family="Times,serif" font-size="14.00">init_prio_queue</text>
</g>
<!-- q14 -->
<g id="node15" class="node"><title>q14</title>
<ellipse fill="none" stroke="black" cx="2443" cy="-151.756" rx="18" ry="18"/>
</g>
<!-- q14&#45;&gt;q2 -->
<g id="edge25" class="edge"><title>q14&#45;&gt;q2</title>
<path fill="none" stroke="green" d="M2461.35,-151.127C2483.52,-150.884 2522.78,-152.356 2554,-163.756 2586.19,-175.511 2592.94,-183.381 2618,-206.756 2624.97,-213.259 2631.65,-221.238 2637.27,-228.662"/>
<polygon fill="green" stroke="green" points="2634.62,-230.973 2643.34,-237.001 2640.28,-226.855 2634.62,-230.973"/>
<text text-anchor="middle" x="2523" y="-167.556" font-family="Times,serif" font-size="14.00">append_ele</text>
</g>
<!-- q15 -->
<g id="node16" class="node"><title>q15</title>
<ellipse fill="none" stroke="black" cx="2174" cy="-147.756" rx="18" ry="18"/>
</g>
<!-- q15&#45;&gt;q14 -->
<g id="edge26" class="edge"><title>q15&#45;&gt;q14</title>
<path fill="none" stroke="green" d="M2192.11,-148.012C2237.21,-148.688 2359.66,-150.523 2414.64,-151.346"/>
<polygon fill="green" stroke="green" points="2414.64,-154.847 2424.69,-151.497 2414.74,-147.847 2414.64,-154.847"/>
<text text-anchor="middle" x="2256" y="-153.556" font-family="Times,serif" font-size="14.00">del_ele</text>
</g>
<!-- q16&#45;&gt;q15 -->
<g id="edge27" class="edge"><title>q16&#45;&gt;q15</title>
<path fill="none" stroke="green" d="M2003.2,-102.961C2031.71,-106.905 2090.37,-116.237 2138,-131.756 2141.41,-132.866 2144.92,-134.213 2148.35,-135.649"/>
<polygon fill="green" stroke="green" points="2147.07,-138.909 2157.62,-139.809 2149.93,-132.523 2147.07,-138.909"/>
<text text-anchor="middle" x="2098" y="-135.556" font-family="Times,serif" font-size="14.00">schedule</text>
</g>
<!-- q17 -->
<g id="node18" class="node"><title>q17</title>
<ellipse fill="none" stroke="black" cx="2523" cy="-99.7562" rx="18" ry="18"/>
</g>
<!-- q17&#45;&gt;q2 -->
<g id="edge28" class="edge"><title>q17&#45;&gt;q2</title>
<path fill="none" stroke="green" d="M2541.06,-99.6691C2562.05,-100.512 2597.4,-105.174 2618,-125.756 2643.92,-151.65 2651.07,-194.97 2652.81,-223.455"/>
<polygon fill="green" stroke="green" points="2649.32,-223.736 2653.25,-233.578 2656.32,-223.438 2649.32,-223.736"/>
<text text-anchor="middle" x="2595" y="-129.556" font-family="Times,serif" font-size="14.00">new_list</text>
</g>
<!-- q18 -->
<g id="node19" class="node"><title>q18</title>
<ellipse fill="none" stroke="black" cx="2357" cy="-93.7562" rx="18" ry="18"/>
</g>
<!-- q18&#45;&gt;q17 -->
<g id="edge29" class="edge"><title>q18&#45;&gt;q17</title>
<path fill="none" stroke="green" d="M2375.24,-94.387C2403.74,-95.4295 2460.88,-97.52 2494.84,-98.7626"/>
<polygon fill="green" stroke="green" points="2494.87,-102.266 2504.99,-99.1339 2495.12,-95.2705 2494.87,-102.266"/>
<text text-anchor="middle" x="2443" y="-102.556" font-family="Times,serif" font-size="14.00">append_ele</text>
</g>
<!-- q19 -->
<g id="node20" class="node"><title>q19</title>
<ellipse fill="none" stroke="black" cx="2174" cy="-85.7562" rx="18" ry="18"/>
</g>
<!-- q19&#45;&gt;q18 -->
<g id="edge30" class="edge"><title>q19&#45;&gt;q18</title>
<path fill="none" stroke="green" d="M2192.03,-86.5088C2223.43,-87.8966 2290.69,-90.8694 2328.58,-92.5444"/>
<polygon fill="green" stroke="green" points="2328.74,-96.0547 2338.89,-92.9997 2329.05,-89.0615 2328.74,-96.0547"/>
<text text-anchor="middle" x="2256" y="-95.5562" font-family="Times,serif" font-size="14.00">del_ele</text>
</g>
<!-- q20&#45;&gt;q19 -->
<g id="edge31" class="edge"><title>q20&#45;&gt;q19</title>
<path fill="none" stroke="green" d="M2002.92,-50.286C2035.47,-57.073 2107,-71.9918 2146.13,-80.1524"/>
<polygon fill="green" stroke="green" points="2145.74,-83.6471 2156.25,-82.2625 2147.17,-76.7945 2145.74,-83.6471"/>
<text text-anchor="middle" x="2098" y="-82.5562" font-family="Times,serif" font-size="14.00">schedule</text>
</g>
<!-- q21&#45;&gt;q2 -->
<g id="edge32" class="edge"><title>q21&#45;&gt;q2</title>
<path fill="none" stroke="green" d="M1532.29,-392.756C1554.96,-392.756 1595.96,-392.756 1631,-392.756 1631,-392.756 1631,-392.756 2524,-392.756 2567.85,-392.756 2587.04,-393.82 2618,-362.756 2640.09,-340.589 2648.26,-304.617 2651.27,-279.657"/>
<polygon fill="green" stroke="green" points="2654.75,-280.006 2652.27,-269.706 2647.79,-279.307 2654.75,-280.006"/>
<text text-anchor="middle" x="2098" y="-396.556" font-family="Times,serif" font-size="14.00">schedule</text>
</g>
<!-- iq0 -->
<g id="node23" class="node"><title>iq0</title>
</g>
<!-- iq0&#45;&gt;q0 -->
<g id="edge1" class="edge"><title>iq0&#45;&gt;q0</title>
<path fill="none" stroke="blue" d="M477.036,-355.756C563.338,-355.756 839.525,-355.756 927.681,-355.756"/>
<polygon fill="blue" stroke="blue" points="927.703,-359.256 937.703,-355.756 927.702,-352.256 927.703,-359.256"/>
</g>
</g>
</svg>
