<?xml version="1.0" encoding="UTF-8" standalone="no"?>
<!DOCTYPE svg PUBLIC "-//W3C//DTD SVG 1.1//EN"
 "http://www.w3.org/Graphics/SVG/1.1/DTD/svg11.dtd">
<!-- Generated by graphviz version 2.34.0 (20141125.1709)
 -->
<!-- Title: finite_automaton Pages: 1 -->
<svg width="576pt" height="81pt"
 viewBox="0.00 0.00 576.00 81.35" xmlns="http://www.w3.org/2000/svg" xmlns:xlink="http://www.w3.org/1999/xlink">
<g id="graph0" class="graph" transform="scale(0.317181 0.317181) rotate(0) translate(4 252.487)">
<title>finite_automaton</title>
<polygon fill="white" stroke="white" points="-4,4 -4,-252.487 1812,-252.487 1812,4 -4,4"/>
<!-- dom_edges -->
<g id="node1" class="node"><title>dom_edges</title>
<polygon fill="none" stroke="green" points="482,-77.4871 0,-77.4871 0,-41.4871 482,-41.4871 482,-77.4871"/>
<text text-anchor="middle" x="241" y="-55.7871" font-family="Times,serif" font-size="14.00">Dominating edges: new_list, block_process, init_prio_queue, initialize, Learn_Assert</text>
</g>
<!-- q1 -->
<g id="node2" class="node"><title>q1</title>
<ellipse fill="none" stroke="green" cx="1786" cy="-116.487" rx="18" ry="18"/>
<ellipse fill="none" stroke="green" cx="1786" cy="-116.487" rx="22" ry="22"/>
<text text-anchor="middle" x="1786" y="-112.787" font-family="Times,serif" font-size="14.00">D</text>
</g>
<!-- q0 -->
<g id="node3" class="node"><title>q0</title>
<ellipse fill="none" stroke="green" cx="538" cy="-113.487" rx="18" ry="18"/>
</g>
<!-- q6 -->
<g id="node8" class="node"><title>q6</title>
<ellipse fill="none" stroke="green" cx="658" cy="-113.487" rx="18" ry="18"/>
</g>
<!-- q0&#45;&gt;q6 -->
<g id="edge2" class="edge"><title>q0&#45;&gt;q6</title>
<path fill="none" stroke="green" d="M556.158,-113.487C575.472,-113.487 607.109,-113.487 629.799,-113.487"/>
<polygon fill="green" stroke="green" points="629.821,-116.987 639.821,-113.487 629.821,-109.987 629.821,-116.987"/>
<text text-anchor="middle" x="598" y="-117.287" font-family="Times,serif" font-size="14.00">initialize</text>
</g>
<!-- q2 -->
<g id="node4" class="node"><title>q2</title>
<ellipse fill="none" stroke="black" cx="1617" cy="-116.487" rx="18" ry="18"/>
</g>
<!-- q2&#45;&gt;q1 -->
<g id="edge3" class="edge"><title>q2&#45;&gt;q1</title>
<path fill="none" stroke="green" d="M1635.24,-116.487C1663.19,-116.487 1718.76,-116.487 1753.79,-116.487"/>
<polygon fill="green" stroke="green" points="1753.95,-119.987 1763.95,-116.487 1753.95,-112.987 1753.95,-119.987"/>
<text text-anchor="middle" x="1709" y="-120.287" font-family="Times,serif" font-size="14.00">Learn_Assert</text>
</g>
<!-- q3 -->
<g id="node5" class="node"><title>q3</title>
<ellipse fill="none" stroke="black" cx="1096" cy="-81.4871" rx="18" ry="18"/>
</g>
<!-- q3&#45;&gt;q2 -->
<g id="edge4" class="edge"><title>q3&#45;&gt;q2</title>
<path fill="none" stroke="black" d="M1113.97,-82.6317C1189.51,-87.7257 1495.5,-108.361 1588.84,-114.655"/>
<polygon fill="black" stroke="black" points="1588.68,-118.153 1598.89,-115.334 1589.15,-111.169 1588.68,-118.153"/>
<text text-anchor="middle" x="1361" y="-104.287" font-family="Times,serif" font-size="14.00">schedule</text>
</g>
<!-- q4 -->
<g id="node6" class="node"><title>q4</title>
<ellipse fill="none" stroke="green" cx="934" cy="-113.487" rx="18" ry="18"/>
</g>
<!-- q4&#45;&gt;q1 -->
<g id="edge11" class="edge"><title>q4&#45;&gt;q1</title>
<path fill="none" stroke="green" d="M939.176,-131.055C943.982,-147.696 953.43,-172.333 970,-187.487 1013.68,-227.439 1035.8,-233.487 1095,-233.487 1095,-233.487 1095,-233.487 1618,-233.487 1681.15,-233.487 1737.38,-176.679 1765.67,-142.231"/>
<polygon fill="green" stroke="green" points="1768.74,-143.999 1772.25,-134.003 1763.27,-139.628 1768.74,-143.999"/>
<text text-anchor="middle" x="1361" y="-237.287" font-family="Times,serif" font-size="14.00">Learn_Assert</text>
</g>
<!-- q4&#45;&gt;q2 -->
<g id="edge7" class="edge"><title>q4&#45;&gt;q2</title>
<path fill="none" stroke="black" d="M943.809,-129.069C949.972,-138.616 959.048,-150.336 970,-157.487 1018.11,-188.902 1037.54,-190.487 1095,-190.487 1095,-190.487 1095,-190.487 1435,-190.487 1493.79,-190.487 1508.86,-178.64 1562,-153.487 1573.32,-148.126 1584.91,-140.521 1594.43,-133.598"/>
<polygon fill="black" stroke="black" points="1596.64,-136.32 1602.53,-127.516 1592.43,-130.723 1596.64,-136.32"/>
<text text-anchor="middle" x="1251" y="-194.287" font-family="Times,serif" font-size="14.00">finish_all_processes</text>
</g>
<!-- q4&#45;&gt;q2 -->
<g id="edge8" class="edge"><title>q4&#45;&gt;q2</title>
<path fill="none" stroke="black" d="M950.694,-120.671C956.614,-123.016 963.493,-125.318 970,-126.487 1009.37,-133.562 1020,-126.607 1060,-126.487 1283.11,-125.82 1339.39,-138.523 1562,-123.487 1570.85,-122.889 1580.47,-121.789 1589.1,-120.635"/>
<polygon fill="black" stroke="black" points="1589.62,-124.097 1599.03,-119.231 1588.64,-117.166 1589.62,-124.097"/>
<text text-anchor="middle" x="1251" y="-133.287" font-family="Times,serif" font-size="14.00">unblock_process</text>
</g>
<!-- q4&#45;&gt;q3 -->
<g id="edge6" class="edge"><title>q4&#45;&gt;q3</title>
<path fill="none" stroke="black" d="M952.096,-111.055C976.276,-107.485 1021.78,-100.286 1060,-91.4871 1062.89,-90.8226 1065.89,-90.0661 1068.87,-89.2737"/>
<polygon fill="black" stroke="black" points="1070.02,-92.5859 1078.71,-86.5222 1068.14,-85.8444 1070.02,-92.5859"/>
<text text-anchor="middle" x="1015" y="-111.287" font-family="Times,serif" font-size="14.00">finish_process</text>
</g>
<!-- q4&#45;&gt;q3 -->
<g id="edge9" class="edge"><title>q4&#45;&gt;q3</title>
<path fill="none" stroke="black" d="M943.511,-98.0057C949.556,-88.7261 958.612,-77.7389 970,-72.4871 1001.75,-57.8476 1042.88,-65.1295 1069.12,-72.5827"/>
<polygon fill="black" stroke="black" points="1068.13,-75.9419 1078.72,-75.509 1070.17,-69.2459 1068.13,-75.9419"/>
<text text-anchor="middle" x="1015" y="-76.2871" font-family="Times,serif" font-size="14.00">quantum_expire</text>
</g>
<!-- q4&#45;&gt;q3 -->
<g id="edge10" class="edge"><title>q4&#45;&gt;q3</title>
<path fill="none" stroke="green" d="M938.509,-95.7762C942.821,-79.2731 951.915,-55.5924 970,-44.4871 1004.09,-23.5563 1023.26,-28.6681 1060,-44.4871 1067.26,-47.6124 1073.71,-53.0653 1079.04,-58.8396"/>
<polygon fill="green" stroke="green" points="1076.51,-61.261 1085.58,-66.7244 1081.89,-56.7926 1076.51,-61.261"/>
<text text-anchor="middle" x="1015" y="-48.2871" font-family="Times,serif" font-size="14.00">block_process</text>
</g>
<!-- q10 -->
<g id="node11" class="node"><title>q10</title>
<ellipse fill="none" stroke="black" cx="1096" cy="-22.4871" rx="18" ry="18"/>
</g>
<!-- q4&#45;&gt;q10 -->
<g id="edge5" class="edge"><title>q4&#45;&gt;q10</title>
<path fill="none" stroke="black" d="M935.348,-95.2077C936.902,-71.6021 943.542,-31.3199 970,-12.4871 999.095,8.22308 1042.23,-1.71476 1069.46,-11.5265"/>
<polygon fill="black" stroke="black" points="1068.47,-14.8944 1079.06,-15.2166 1070.98,-8.36072 1068.47,-14.8944"/>
<text text-anchor="middle" x="1015" y="-16.2871" font-family="Times,serif" font-size="14.00">new_process</text>
</g>
<!-- q5 -->
<g id="node7" class="node"><title>q5</title>
<ellipse fill="none" stroke="green" cx="816" cy="-113.487" rx="18" ry="18"/>
</g>
<!-- q5&#45;&gt;q4 -->
<g id="edge12" class="edge"><title>q5&#45;&gt;q4</title>
<path fill="none" stroke="green" d="M834.116,-113.487C852.964,-113.487 883.531,-113.487 905.696,-113.487"/>
<polygon fill="green" stroke="green" points="905.814,-116.987 915.814,-113.487 905.814,-109.987 905.814,-116.987"/>
<text text-anchor="middle" x="875" y="-117.287" font-family="Times,serif" font-size="14.00">new_list</text>
</g>
<!-- q6&#45;&gt;q5 -->
<g id="edge13" class="edge"><title>q6&#45;&gt;q5</title>
<path fill="none" stroke="green" d="M676.291,-113.487C703.232,-113.487 755.46,-113.487 787.577,-113.487"/>
<polygon fill="green" stroke="green" points="787.632,-116.987 797.632,-113.487 787.632,-109.987 787.632,-116.987"/>
<text text-anchor="middle" x="737" y="-117.287" font-family="Times,serif" font-size="14.00">init_prio_queue</text>
</g>
<!-- q8 -->
<g id="node9" class="node"><title>q8</title>
<ellipse fill="none" stroke="black" cx="1434" cy="-30.4871" rx="18" ry="18"/>
</g>
<!-- q8&#45;&gt;q1 -->
<g id="edge15" class="edge"><title>q8&#45;&gt;q1</title>
<path fill="none" stroke="green" d="M1452.02,-31.2674C1476.55,-32.6387 1523.17,-36.1692 1562,-44.4871 1633.26,-59.7542 1713.99,-88.9105 1756.04,-105.042"/>
<polygon fill="green" stroke="green" points="1754.79,-108.313 1765.38,-108.657 1757.32,-101.784 1754.79,-108.313"/>
<text text-anchor="middle" x="1617" y="-72.2871" font-family="Times,serif" font-size="14.00">Learn_Assert</text>
</g>
<!-- q8&#45;&gt;q2 -->
<g id="edge14" class="edge"><title>q8&#45;&gt;q2</title>
<path fill="none" stroke="black" d="M1451.32,-35.8379C1457.19,-37.7026 1463.87,-39.7591 1470,-41.4871 1510.57,-52.9217 1525.13,-44.068 1562,-64.4871 1575.79,-72.1245 1588.62,-84.1757 1598.31,-94.7543"/>
<polygon fill="black" stroke="black" points="1595.85,-97.2522 1605.07,-102.459 1601.11,-92.6346 1595.85,-97.2522"/>
<text text-anchor="middle" x="1516" y="-68.2871" font-family="Times,serif" font-size="14.00">unblock_process</text>
</g>
<!-- q9 -->
<g id="node10" class="node"><title>q9</title>
<ellipse fill="none" stroke="black" cx="1251" cy="-26.4871" rx="18" ry="18"/>
</g>
<!-- q9&#45;&gt;q8 -->
<g id="edge16" class="edge"><title>q9&#45;&gt;q8</title>
<path fill="none" stroke="black" d="M1269.03,-26.8634C1300.43,-27.5573 1367.69,-29.0437 1405.58,-29.8812"/>
<polygon fill="black" stroke="black" points="1405.81,-33.387 1415.89,-30.1089 1405.97,-26.3887 1405.81,-33.387"/>
<text text-anchor="middle" x="1361" y="-34.2871" font-family="Times,serif" font-size="14.00">append_ele</text>
</g>
<!-- q10&#45;&gt;q9 -->
<g id="edge17" class="edge"><title>q10&#45;&gt;q9</title>
<path fill="none" stroke="black" d="M1114.25,-22.9382C1140.54,-23.6254 1190.87,-24.9412 1222.31,-25.7632"/>
<polygon fill="black" stroke="black" points="1222.49,-29.2689 1232.57,-26.0315 1222.67,-22.2713 1222.49,-29.2689"/>
<text text-anchor="middle" x="1155" y="-28.2871" font-family="Times,serif" font-size="14.00">new_ele</text>
</g>
<!-- iq0 -->
<g id="node12" class="node"><title>iq0</title>
</g>
<!-- iq0&#45;&gt;q0 -->
<g id="edge1" class="edge"><title>iq0&#45;&gt;q0</title>
<path fill="none" stroke="blue" d="M268.179,-113.487C323.702,-113.487 452.814,-113.487 509.491,-113.487"/>
<polygon fill="blue" stroke="blue" points="509.817,-116.987 519.817,-113.487 509.817,-109.987 509.817,-116.987"/>
</g>
</g>
</svg>
