<?xml version="1.0" encoding="UTF-8" standalone="no"?>
<!DOCTYPE svg PUBLIC "-//W3C//DTD SVG 1.1//EN"
 "http://www.w3.org/Graphics/SVG/1.1/DTD/svg11.dtd">
<!-- Generated by graphviz version 2.34.0 (20141125.1709)
 -->
<!-- Title: finite_automaton Pages: 1 -->
<svg width="576pt" height="103pt"
 viewBox="0.00 0.00 576.00 102.97" xmlns="http://www.w3.org/2000/svg" xmlns:xlink="http://www.w3.org/1999/xlink">
<g id="graph0" class="graph" transform="scale(0.261343 0.261343) rotate(0) translate(4 390)">
<title>finite_automaton</title>
<polygon fill="white" stroke="white" points="-4,4 -4,-390 2200,-390 2200,4 -4,4"/>
<!-- dom_edges -->
<g id="node1" class="node"><title>dom_edges</title>
<polygon fill="none" stroke="green" points="482,-235 0,-235 0,-199 482,-199 482,-235"/>
<text text-anchor="middle" x="241" y="-213.3" font-family="Times,serif" font-size="14.00">Dominating edges: new_list, block_process, init_prio_queue, initialize, Learn_Assert</text>
</g>
<!-- q1 -->
<g id="node2" class="node"><title>q1</title>
<ellipse fill="none" stroke="green" cx="2174" cy="-43" rx="18" ry="18"/>
<ellipse fill="none" stroke="green" cx="2174" cy="-43" rx="22" ry="22"/>
<text text-anchor="middle" x="2174" y="-39.3" font-family="Times,serif" font-size="14.00">D</text>
</g>
<!-- q0 -->
<g id="node3" class="node"><title>q0</title>
<ellipse fill="none" stroke="green" cx="538" cy="-271" rx="18" ry="18"/>
</g>
<!-- q6 -->
<g id="node8" class="node"><title>q6</title>
<ellipse fill="none" stroke="green" cx="658" cy="-271" rx="18" ry="18"/>
</g>
<!-- q0&#45;&gt;q6 -->
<g id="edge2" class="edge"><title>q0&#45;&gt;q6</title>
<path fill="none" stroke="green" d="M556.158,-271C575.472,-271 607.109,-271 629.799,-271"/>
<polygon fill="green" stroke="green" points="629.821,-274.5 639.821,-271 629.821,-267.5 629.821,-274.5"/>
<text text-anchor="middle" x="598" y="-274.8" font-family="Times,serif" font-size="14.00">initialize</text>
</g>
<!-- q2 -->
<g id="node4" class="node"><title>q2</title>
<ellipse fill="none" stroke="black" cx="2024" cy="-197" rx="18" ry="18"/>
</g>
<!-- q2&#45;&gt;q1 -->
<g id="edge3" class="edge"><title>q2&#45;&gt;q1</title>
<path fill="none" stroke="green" d="M2037.11,-184.398C2062.04,-158.461 2119.38,-98.7896 2151.03,-65.8598"/>
<polygon fill="green" stroke="green" points="2153.71,-68.1222 2158.12,-58.4868 2148.66,-63.2717 2153.71,-68.1222"/>
<text text-anchor="middle" x="2097" y="-163.8" font-family="Times,serif" font-size="14.00">Learn_Assert</text>
</g>
<!-- q3 -->
<g id="node5" class="node"><title>q3</title>
<ellipse fill="none" stroke="black" cx="1096" cy="-333" rx="18" ry="18"/>
</g>
<!-- q3&#45;&gt;q2 -->
<g id="edge4" class="edge"><title>q3&#45;&gt;q2</title>
<path fill="none" stroke="black" d="M1114.28,-331.79C1136.94,-330.31 1177.93,-328 1213,-328 1213,-328 1213,-328 1891,-328 1936.98,-328 1955.52,-324.555 1988,-292 2006.05,-273.903 2014.89,-245.709 2019.16,-224.73"/>
<polygon fill="black" stroke="black" points="2022.62,-225.261 2020.95,-214.798 2015.73,-224.017 2022.62,-225.261"/>
<text text-anchor="middle" x="1549" y="-331.8" font-family="Times,serif" font-size="14.00">schedule</text>
</g>
<!-- q4 -->
<g id="node6" class="node"><title>q4</title>
<ellipse fill="none" stroke="green" cx="934" cy="-271" rx="18" ry="18"/>
</g>
<!-- q4&#45;&gt;q1 -->
<g id="edge11" class="edge"><title>q4&#45;&gt;q1</title>
<path fill="none" stroke="green" d="M936.854,-253.219C944.214,-192.929 976.985,-0 1095,-0 1095,-0 1095,-0 2025,-0 2068.03,-0 2115.4,-16.9696 2144.68,-29.588"/>
<polygon fill="green" stroke="green" points="2143.32,-32.8147 2153.89,-33.6696 2146.16,-26.4158 2143.32,-32.8147"/>
<text text-anchor="middle" x="1549" y="-3.8" font-family="Times,serif" font-size="14.00">Learn_Assert</text>
</g>
<!-- q4&#45;&gt;q2 -->
<g id="edge7" class="edge"><title>q4&#45;&gt;q2</title>
<path fill="none" stroke="black" d="M952.032,-271.915C988.864,-273.813 1078.68,-278 1154,-278 1154,-278 1154,-278 1891,-278 1935.41,-278 1952.15,-280.212 1988,-254 1998.66,-246.207 2006.75,-234.094 2012.46,-223.034"/>
<polygon fill="black" stroke="black" points="2015.75,-224.258 2016.86,-213.721 2009.42,-221.265 2015.75,-224.258"/>
<text text-anchor="middle" x="1439" y="-281.8" font-family="Times,serif" font-size="14.00">finish_all_processes</text>
</g>
<!-- q4&#45;&gt;q2 -->
<g id="edge8" class="edge"><title>q4&#45;&gt;q2</title>
<path fill="none" stroke="black" d="M951.61,-265.6C980.452,-256.719 1041.81,-240 1095,-240 1095,-240 1095,-240 1891,-240 1930.11,-240 1972.67,-222.723 1998.6,-210.072"/>
<polygon fill="black" stroke="black" points="2000.33,-213.122 2007.68,-205.495 1997.18,-206.871 2000.33,-213.122"/>
<text text-anchor="middle" x="1439" y="-243.8" font-family="Times,serif" font-size="14.00">unblock_process</text>
</g>
<!-- q4&#45;&gt;q3 -->
<g id="edge6" class="edge"><title>q4&#45;&gt;q3</title>
<path fill="none" stroke="black" d="M936.48,-288.978C939.251,-309.616 947.201,-342.597 970,-358 1003.14,-380.392 1021.91,-370.207 1060,-358 1064.9,-356.43 1069.69,-353.896 1074.09,-351.029"/>
<polygon fill="black" stroke="black" points="1076.47,-353.625 1082.45,-344.881 1072.32,-347.986 1076.47,-353.625"/>
<text text-anchor="middle" x="1015" y="-374.8" font-family="Times,serif" font-size="14.00">finish_process</text>
</g>
<!-- q4&#45;&gt;q3 -->
<g id="edge9" class="edge"><title>q4&#45;&gt;q3</title>
<path fill="none" stroke="black" d="M942.255,-287.53C948.069,-298.674 957.351,-312.638 970,-320 999.998,-337.459 1040.98,-338.24 1067.72,-336.328"/>
<polygon fill="black" stroke="black" points="1068.24,-339.796 1077.89,-335.421 1067.62,-332.823 1068.24,-339.796"/>
<text text-anchor="middle" x="1015" y="-340.8" font-family="Times,serif" font-size="14.00">quantum_expire</text>
</g>
<!-- q4&#45;&gt;q3 -->
<g id="edge10" class="edge"><title>q4&#45;&gt;q3</title>
<path fill="none" stroke="green" d="M951.287,-276.477C957.15,-278.354 963.839,-280.385 970,-282 1009.55,-292.363 1023.63,-282.327 1060,-301 1065.72,-303.939 1071.22,-308.066 1076.08,-312.382"/>
<polygon fill="green" stroke="green" points="1073.99,-315.224 1083.62,-319.647 1078.85,-310.186 1073.99,-315.224"/>
<text text-anchor="middle" x="1015" y="-304.8" font-family="Times,serif" font-size="14.00">block_process</text>
</g>
<!-- q10 -->
<g id="node11" class="node"><title>q10</title>
<ellipse fill="none" stroke="black" cx="1096" cy="-169" rx="18" ry="18"/>
</g>
<!-- q4&#45;&gt;q10 -->
<g id="edge5" class="edge"><title>q4&#45;&gt;q10</title>
<path fill="none" stroke="black" d="M940.93,-254.263C946.496,-240.811 956.067,-222.346 970,-211 998.522,-187.773 1040.48,-177.157 1067.77,-172.472"/>
<polygon fill="black" stroke="black" points="1068.46,-175.907 1077.8,-170.904 1067.38,-168.991 1068.46,-175.907"/>
<text text-anchor="middle" x="1015" y="-214.8" font-family="Times,serif" font-size="14.00">new_process</text>
</g>
<!-- q5 -->
<g id="node7" class="node"><title>q5</title>
<ellipse fill="none" stroke="green" cx="816" cy="-271" rx="18" ry="18"/>
</g>
<!-- q5&#45;&gt;q4 -->
<g id="edge12" class="edge"><title>q5&#45;&gt;q4</title>
<path fill="none" stroke="green" d="M834.116,-271C852.964,-271 883.531,-271 905.696,-271"/>
<polygon fill="green" stroke="green" points="905.814,-274.5 915.814,-271 905.814,-267.5 905.814,-274.5"/>
<text text-anchor="middle" x="875" y="-274.8" font-family="Times,serif" font-size="14.00">new_list</text>
</g>
<!-- q6&#45;&gt;q5 -->
<g id="edge13" class="edge"><title>q6&#45;&gt;q5</title>
<path fill="none" stroke="green" d="M676.291,-271C703.232,-271 755.46,-271 787.577,-271"/>
<polygon fill="green" stroke="green" points="787.632,-274.5 797.632,-271 787.632,-267.5 787.632,-274.5"/>
<text text-anchor="middle" x="737" y="-274.8" font-family="Times,serif" font-size="14.00">init_prio_queue</text>
</g>
<!-- q8 -->
<g id="node9" class="node"><title>q8</title>
<ellipse fill="none" stroke="black" cx="1348" cy="-143" rx="18" ry="18"/>
</g>
<!-- q8&#45;&gt;q1 -->
<g id="edge17" class="edge"><title>q8&#45;&gt;q1</title>
<path fill="none" stroke="green" d="M1356.65,-126.874C1362.65,-115.852 1372,-101.716 1384,-93 1445.66,-48.2298 1471.8,-43 1548,-43 1548,-43 1548,-43 2025,-43 2065.28,-43 2111.72,-43 2141.67,-43"/>
<polygon fill="green" stroke="green" points="2141.92,-46.5001 2151.92,-43 2141.92,-39.5001 2141.92,-46.5001"/>
<text text-anchor="middle" x="1817" y="-46.8" font-family="Times,serif" font-size="14.00">Learn_Assert</text>
</g>
<!-- q8&#45;&gt;q2 -->
<g id="edge15" class="edge"><title>q8&#45;&gt;q2</title>
<path fill="none" stroke="black" d="M1363.54,-152.114C1369.67,-155.627 1377,-159.413 1384,-162 1453.91,-187.822 1473.47,-197 1548,-197 1548,-197 1548,-197 1891,-197 1927.25,-197 1969.11,-197 1995.8,-197"/>
<polygon fill="black" stroke="black" points="1995.91,-200.5 2005.91,-197 1995.91,-193.5 1995.91,-200.5"/>
<text text-anchor="middle" x="1716" y="-200.8" font-family="Times,serif" font-size="14.00">unblock_process</text>
</g>
<!-- q13 -->
<g id="node14" class="node"><title>q13</title>
<ellipse fill="none" stroke="black" cx="1549" cy="-143" rx="18" ry="18"/>
</g>
<!-- q8&#45;&gt;q13 -->
<g id="edge14" class="edge"><title>q8&#45;&gt;q13</title>
<path fill="none" stroke="black" d="M1366.31,-143C1400.95,-143 1479.01,-143 1520.64,-143"/>
<polygon fill="black" stroke="black" points="1520.87,-146.5 1530.87,-143 1520.87,-139.5 1520.87,-146.5"/>
<text text-anchor="middle" x="1439" y="-146.8" font-family="Times,serif" font-size="14.00">finish_process</text>
</g>
<!-- q16 -->
<g id="node17" class="node"><title>q16</title>
<ellipse fill="none" stroke="black" cx="1549" cy="-89" rx="18" ry="18"/>
</g>
<!-- q8&#45;&gt;q16 -->
<g id="edge16" class="edge"><title>q8&#45;&gt;q16</title>
<path fill="none" stroke="black" d="M1363.54,-133.886C1369.67,-130.373 1377,-126.587 1384,-124 1430.37,-106.872 1487.38,-97.0672 1520.52,-92.4064"/>
<polygon fill="black" stroke="black" points="1521.34,-95.8263 1530.79,-91.0198 1520.41,-88.8892 1521.34,-95.8263"/>
<text text-anchor="middle" x="1439" y="-127.8" font-family="Times,serif" font-size="14.00">quantum_expire</text>
</g>
<!-- q9 -->
<g id="node10" class="node"><title>q9</title>
<ellipse fill="none" stroke="black" cx="1214" cy="-152" rx="18" ry="18"/>
</g>
<!-- q9&#45;&gt;q8 -->
<g id="edge18" class="edge"><title>q9&#45;&gt;q8</title>
<path fill="none" stroke="black" d="M1231.99,-150.842C1254.14,-149.331 1293.17,-146.67 1319.55,-144.871"/>
<polygon fill="black" stroke="black" points="1319.92,-148.355 1329.66,-144.182 1319.44,-141.371 1319.92,-148.355"/>
<text text-anchor="middle" x="1281" y="-153.8" font-family="Times,serif" font-size="14.00">append_ele</text>
</g>
<!-- q10&#45;&gt;q9 -->
<g id="edge19" class="edge"><title>q10&#45;&gt;q9</title>
<path fill="none" stroke="black" d="M1114.12,-166.492C1132.96,-163.729 1163.53,-159.25 1185.7,-156.002"/>
<polygon fill="black" stroke="black" points="1186.43,-159.432 1195.81,-154.519 1185.41,-152.506 1186.43,-159.432"/>
<text text-anchor="middle" x="1155" y="-167.8" font-family="Times,serif" font-size="14.00">new_ele</text>
</g>
<!-- q11 -->
<g id="node12" class="node"><title>q11</title>
<ellipse fill="none" stroke="black" cx="1890" cy="-149" rx="18" ry="18"/>
</g>
<!-- q11&#45;&gt;q2 -->
<g id="edge20" class="edge"><title>q11&#45;&gt;q2</title>
<path fill="none" stroke="black" d="M1908.27,-149.814C1928.32,-151.327 1961.95,-155.651 1988,-168 1993.26,-170.493 1998.39,-173.956 2003.04,-177.624"/>
<polygon fill="black" stroke="black" points="2000.92,-180.422 2010.79,-184.281 2005.48,-175.111 2000.92,-180.422"/>
<text text-anchor="middle" x="1957" y="-171.8" font-family="Times,serif" font-size="14.00">free_ele</text>
</g>
<!-- q12 -->
<g id="node13" class="node"><title>q12</title>
<ellipse fill="none" stroke="black" cx="1716" cy="-143" rx="18" ry="18"/>
</g>
<!-- q12&#45;&gt;q11 -->
<g id="edge21" class="edge"><title>q12&#45;&gt;q11</title>
<path fill="none" stroke="black" d="M1734.12,-143.597C1764,-144.639 1825.89,-146.798 1861.73,-148.049"/>
<polygon fill="black" stroke="black" points="1861.83,-151.554 1871.95,-148.405 1862.08,-144.559 1861.83,-151.554"/>
<text text-anchor="middle" x="1817" y="-151.8" font-family="Times,serif" font-size="14.00">del_ele</text>
</g>
<!-- q13&#45;&gt;q12 -->
<g id="edge22" class="edge"><title>q13&#45;&gt;q12</title>
<path fill="none" stroke="black" d="M1567.04,-143C1595.57,-143 1653.25,-143 1687.56,-143"/>
<polygon fill="black" stroke="black" points="1687.81,-146.5 1697.81,-143 1687.81,-139.5 1687.81,-146.5"/>
<text text-anchor="middle" x="1628" y="-146.8" font-family="Times,serif" font-size="14.00">schedule</text>
</g>
<!-- q14 -->
<g id="node15" class="node"><title>q14</title>
<ellipse fill="none" stroke="black" cx="1890" cy="-94" rx="18" ry="18"/>
</g>
<!-- q14&#45;&gt;q2 -->
<g id="edge23" class="edge"><title>q14&#45;&gt;q2</title>
<path fill="none" stroke="black" d="M1907.94,-97.1446C1928.9,-101.789 1964.66,-112.267 1988,-133 1999.39,-143.12 2007.81,-157.866 2013.53,-170.654"/>
<polygon fill="black" stroke="black" points="2010.32,-172.046 2017.38,-179.942 2016.78,-169.364 2010.32,-172.046"/>
<text text-anchor="middle" x="1957" y="-136.8" font-family="Times,serif" font-size="14.00">append_ele</text>
</g>
<!-- q15 -->
<g id="node16" class="node"><title>q15</title>
<ellipse fill="none" stroke="black" cx="1716" cy="-89" rx="18" ry="18"/>
</g>
<!-- q15&#45;&gt;q14 -->
<g id="edge24" class="edge"><title>q15&#45;&gt;q14</title>
<path fill="none" stroke="black" d="M1734.12,-89.4977C1764,-90.3662 1825.89,-92.1653 1861.73,-93.2072"/>
<polygon fill="black" stroke="black" points="1861.85,-96.7122 1871.95,-93.5043 1862.05,-89.7151 1861.85,-96.7122"/>
<text text-anchor="middle" x="1817" y="-96.8" font-family="Times,serif" font-size="14.00">del_ele</text>
</g>
<!-- q16&#45;&gt;q15 -->
<g id="edge25" class="edge"><title>q16&#45;&gt;q15</title>
<path fill="none" stroke="black" d="M1567.04,-89C1595.57,-89 1653.25,-89 1687.56,-89"/>
<polygon fill="black" stroke="black" points="1687.81,-92.5001 1697.81,-89 1687.81,-85.5001 1687.81,-92.5001"/>
<text text-anchor="middle" x="1628" y="-92.8" font-family="Times,serif" font-size="14.00">schedule</text>
</g>
<!-- iq0 -->
<g id="node18" class="node"><title>iq0</title>
</g>
<!-- iq0&#45;&gt;q0 -->
<g id="edge1" class="edge"><title>iq0&#45;&gt;q0</title>
<path fill="none" stroke="blue" d="M268.179,-271C323.702,-271 452.814,-271 509.491,-271"/>
<polygon fill="blue" stroke="blue" points="509.817,-274.5 519.817,-271 509.817,-267.5 509.817,-274.5"/>
</g>
</g>
</svg>
