<?xml version="1.0" encoding="UTF-8" standalone="no"?>
<!DOCTYPE svg PUBLIC "-//W3C//DTD SVG 1.1//EN"
 "http://www.w3.org/Graphics/SVG/1.1/DTD/svg11.dtd">
<!-- Generated by graphviz version 2.34.0 (20141125.1709)
 -->
<!-- Title: finite_automaton Pages: 1 -->
<svg width="576pt" height="108pt"
 viewBox="0.00 0.00 576.00 107.81" xmlns="http://www.w3.org/2000/svg" xmlns:xlink="http://www.w3.org/1999/xlink">
<g id="graph0" class="graph" transform="scale(0.238411 0.238411) rotate(0) translate(4 448.191)">
<title>finite_automaton</title>
<polygon fill="white" stroke="white" points="-4,4 -4,-448.191 2412,-448.191 2412,4 -4,4"/>
<!-- dom_edges -->
<g id="node1" class="node"><title>dom_edges</title>
<polygon fill="none" stroke="green" points="482,-269.191 0,-269.191 0,-233.191 482,-233.191 482,-269.191"/>
<text text-anchor="middle" x="241" y="-247.491" font-family="Times,serif" font-size="14.00">Dominating edges: new_list, block_process, init_prio_queue, initialize, Learn_Assert</text>
</g>
<!-- q1 -->
<g id="node2" class="node"><title>q1</title>
<ellipse fill="none" stroke="green" cx="2386" cy="-243.191" rx="18" ry="18"/>
<ellipse fill="none" stroke="green" cx="2386" cy="-243.191" rx="22" ry="22"/>
<text text-anchor="middle" x="2386" y="-239.491" font-family="Times,serif" font-size="14.00">D</text>
</g>
<!-- q0 -->
<g id="node3" class="node"><title>q0</title>
<ellipse fill="none" stroke="green" cx="538" cy="-305.191" rx="18" ry="18"/>
</g>
<!-- q6 -->
<g id="node8" class="node"><title>q6</title>
<ellipse fill="none" stroke="green" cx="658" cy="-305.191" rx="18" ry="18"/>
</g>
<!-- q0&#45;&gt;q6 -->
<g id="edge2" class="edge"><title>q0&#45;&gt;q6</title>
<path fill="none" stroke="green" d="M556.158,-305.191C575.472,-305.191 607.109,-305.191 629.799,-305.191"/>
<polygon fill="green" stroke="green" points="629.821,-308.691 639.821,-305.191 629.821,-301.691 629.821,-308.691"/>
<text text-anchor="middle" x="598" y="-308.991" font-family="Times,serif" font-size="14.00">initialize</text>
</g>
<!-- q2 -->
<g id="node4" class="node"><title>q2</title>
<ellipse fill="none" stroke="black" cx="2236" cy="-243.191" rx="18" ry="18"/>
</g>
<!-- q2&#45;&gt;q1 -->
<g id="edge3" class="edge"><title>q2&#45;&gt;q1</title>
<path fill="none" stroke="green" d="M2254.27,-243.191C2278.55,-243.191 2323.2,-243.191 2353.49,-243.191"/>
<polygon fill="green" stroke="green" points="2353.55,-246.691 2363.55,-243.191 2353.55,-239.691 2353.55,-246.691"/>
<text text-anchor="middle" x="2309" y="-246.991" font-family="Times,serif" font-size="14.00">Learn_Assert</text>
</g>
<!-- q3 -->
<g id="node5" class="node"><title>q3</title>
<ellipse fill="none" stroke="black" cx="1096" cy="-278.191" rx="18" ry="18"/>
</g>
<!-- q3&#45;&gt;q2 -->
<g id="edge4" class="edge"><title>q3&#45;&gt;q2</title>
<path fill="none" stroke="black" d="M1113.86,-280.798C1136.39,-284.05 1177.6,-289.191 1213,-289.191 1213,-289.191 1213,-289.191 2106,-289.191 2144.58,-289.191 2186.08,-270.709 2211.3,-257.175"/>
<polygon fill="black" stroke="black" points="2213.08,-260.19 2220.13,-252.279 2209.69,-254.068 2213.08,-260.19"/>
<text text-anchor="middle" x="1680" y="-292.991" font-family="Times,serif" font-size="14.00">schedule</text>
</g>
<!-- q4 -->
<g id="node6" class="node"><title>q4</title>
<ellipse fill="none" stroke="green" cx="934" cy="-305.191" rx="18" ry="18"/>
</g>
<!-- q4&#45;&gt;q1 -->
<g id="edge11" class="edge"><title>q4&#45;&gt;q1</title>
<path fill="none" stroke="green" d="M939.093,-322.599C943.876,-339.408 953.344,-364.553 970,-380.191 1013.5,-421.034 1035.33,-429.191 1095,-429.191 1095,-429.191 1095,-429.191 2237,-429.191 2315.51,-429.191 2359.06,-326.476 2376.26,-273.705"/>
<polygon fill="green" stroke="green" points="2379.6,-274.755 2379.26,-264.166 2372.92,-272.656 2379.6,-274.755"/>
<text text-anchor="middle" x="1680" y="-432.991" font-family="Times,serif" font-size="14.00">Learn_Assert</text>
</g>
<!-- q4&#45;&gt;q2 -->
<g id="edge7" class="edge"><title>q4&#45;&gt;q2</title>
<path fill="none" stroke="black" d="M943.882,-320.662C950.075,-330.165 959.156,-341.878 970,-349.191 1018.04,-381.584 1037.06,-386.191 1095,-386.191 1095,-386.191 1095,-386.191 2106,-386.191 2150.9,-386.191 2169.16,-381.816 2200,-349.191 2220.09,-327.942 2228.66,-294.916 2232.3,-271.379"/>
<polygon fill="black" stroke="black" points="2235.79,-271.685 2233.66,-261.308 2228.86,-270.753 2235.79,-271.685"/>
<text text-anchor="middle" x="1567" y="-389.991" font-family="Times,serif" font-size="14.00">finish_all_processes</text>
</g>
<!-- q4&#45;&gt;q2 -->
<g id="edge8" class="edge"><title>q4&#45;&gt;q2</title>
<path fill="none" stroke="black" d="M951.194,-311.45C957.049,-313.524 963.755,-315.685 970,-317.191 1024.56,-330.35 1038.87,-335.191 1095,-335.191 1095,-335.191 1095,-335.191 2106,-335.191 2153.86,-335.191 2196.26,-292.689 2218.51,-265.461"/>
<polygon fill="black" stroke="black" points="2221.29,-267.581 2224.75,-257.566 2215.8,-263.24 2221.29,-267.581"/>
<text text-anchor="middle" x="1567" y="-338.991" font-family="Times,serif" font-size="14.00">unblock_process</text>
</g>
<!-- q4&#45;&gt;q3 -->
<g id="edge6" class="edge"><title>q4&#45;&gt;q3</title>
<path fill="none" stroke="black" d="M944.417,-290.428C950.582,-282.207 959.442,-272.737 970,-268.191 1001.99,-254.418 1042.8,-261.762 1068.93,-269.21"/>
<polygon fill="black" stroke="black" points="1068.24,-272.66 1078.83,-272.239 1070.29,-265.966 1068.24,-272.66"/>
<text text-anchor="middle" x="1015" y="-271.991" font-family="Times,serif" font-size="14.00">finish_process</text>
</g>
<!-- q4&#45;&gt;q3 -->
<g id="edge9" class="edge"><title>q4&#45;&gt;q3</title>
<path fill="none" stroke="black" d="M939.16,-287.84C943.846,-272.552 953.115,-251.202 970,-241.191 1004.41,-220.791 1023.26,-225.372 1060,-241.191 1067.26,-244.316 1073.71,-249.769 1079.04,-255.543"/>
<polygon fill="black" stroke="black" points="1076.51,-257.965 1085.58,-263.428 1081.89,-253.496 1076.51,-257.965"/>
<text text-anchor="middle" x="1015" y="-244.991" font-family="Times,serif" font-size="14.00">quantum_expire</text>
</g>
<!-- q4&#45;&gt;q3 -->
<g id="edge10" class="edge"><title>q4&#45;&gt;q3</title>
<path fill="none" stroke="green" d="M951.82,-302.352C979.476,-297.685 1034.79,-288.351 1067.99,-282.749"/>
<polygon fill="green" stroke="green" points="1068.65,-286.188 1077.92,-281.072 1067.48,-279.285 1068.65,-286.188"/>
<text text-anchor="middle" x="1015" y="-301.991" font-family="Times,serif" font-size="14.00">block_process</text>
</g>
<!-- q10 -->
<g id="node11" class="node"><title>q10</title>
<ellipse fill="none" stroke="black" cx="1096" cy="-169.191" rx="18" ry="18"/>
</g>
<!-- q4&#45;&gt;q10 -->
<g id="edge5" class="edge"><title>q4&#45;&gt;q10</title>
<path fill="none" stroke="black" d="M936.834,-287.042C939.955,-265.564 948.254,-230.086 970,-209.191 996.543,-183.686 1039.37,-174.442 1067.35,-171.092"/>
<polygon fill="black" stroke="black" points="1068.04,-174.54 1077.64,-170.046 1067.34,-167.576 1068.04,-174.54"/>
<text text-anchor="middle" x="1015" y="-212.991" font-family="Times,serif" font-size="14.00">new_process</text>
</g>
<!-- q5 -->
<g id="node7" class="node"><title>q5</title>
<ellipse fill="none" stroke="green" cx="816" cy="-305.191" rx="18" ry="18"/>
</g>
<!-- q5&#45;&gt;q4 -->
<g id="edge12" class="edge"><title>q5&#45;&gt;q4</title>
<path fill="none" stroke="green" d="M834.116,-305.191C852.964,-305.191 883.531,-305.191 905.696,-305.191"/>
<polygon fill="green" stroke="green" points="905.814,-308.691 915.814,-305.191 905.814,-301.691 905.814,-308.691"/>
<text text-anchor="middle" x="875" y="-308.991" font-family="Times,serif" font-size="14.00">new_list</text>
</g>
<!-- q6&#45;&gt;q5 -->
<g id="edge13" class="edge"><title>q6&#45;&gt;q5</title>
<path fill="none" stroke="green" d="M676.291,-305.191C703.232,-305.191 755.46,-305.191 787.577,-305.191"/>
<polygon fill="green" stroke="green" points="787.632,-308.691 797.632,-305.191 787.632,-301.691 787.632,-308.691"/>
<text text-anchor="middle" x="737" y="-308.991" font-family="Times,serif" font-size="14.00">init_prio_queue</text>
</g>
<!-- q8 -->
<g id="node9" class="node"><title>q8</title>
<ellipse fill="none" stroke="black" cx="1348" cy="-151.191" rx="18" ry="18"/>
</g>
<!-- q8&#45;&gt;q1 -->
<g id="edge19" class="edge"><title>q8&#45;&gt;q1</title>
<path fill="none" stroke="green" d="M1350.72,-133.361C1353.75,-111.863 1361.96,-76.0304 1384,-55.1907 1445.41,2.86064 1481.5,-0.190709 1566,-0.190709 1566,-0.190709 1566,-0.190709 2237,-0.190709 2334.56,-0.190709 2369.68,-144.829 2380.63,-210.927"/>
<polygon fill="green" stroke="green" points="2377.23,-211.861 2382.24,-221.197 2384.15,-210.776 2377.23,-211.861"/>
<text text-anchor="middle" x="1939" y="-3.99071" font-family="Times,serif" font-size="14.00">Learn_Assert</text>
</g>
<!-- q8&#45;&gt;q2 -->
<g id="edge16" class="edge"><title>q8&#45;&gt;q2</title>
<path fill="none" stroke="black" d="M1363.47,-160.528C1369.58,-164.074 1376.92,-167.825 1384,-170.191 1461.56,-196.093 1484.23,-197.191 1566,-197.191 1566,-197.191 1566,-197.191 2106,-197.191 2144.58,-197.191 2186.08,-215.673 2211.3,-229.207"/>
<polygon fill="black" stroke="black" points="2209.69,-232.313 2220.13,-234.103 2213.08,-226.192 2209.69,-232.313"/>
<text text-anchor="middle" x="1838" y="-200.991" font-family="Times,serif" font-size="14.00">unblock_process</text>
</g>
<!-- q13 -->
<g id="node14" class="node"><title>q13</title>
<ellipse fill="none" stroke="black" cx="1756" cy="-97.1907" rx="18" ry="18"/>
</g>
<!-- q8&#45;&gt;q13 -->
<g id="edge14" class="edge"><title>q8&#45;&gt;q13</title>
<path fill="none" stroke="black" d="M1357.23,-135.486C1363.38,-125.077 1372.67,-111.801 1384,-103.191 1432.38,-66.4325 1452.22,-66.0313 1512,-55.1907 1560.1,-46.4677 1573.68,-47.7428 1622,-55.1907 1660.45,-61.1177 1703.03,-76.1492 1729.4,-86.522"/>
<polygon fill="black" stroke="black" points="1728.42,-89.8984 1739,-90.3743 1731.03,-83.4019 1728.42,-89.8984"/>
<text text-anchor="middle" x="1567" y="-58.9907" font-family="Times,serif" font-size="14.00">finish_process</text>
</g>
<!-- q17 -->
<g id="node18" class="node"><title>q17</title>
<ellipse fill="none" stroke="black" cx="1567" cy="-151.191" rx="18" ry="18"/>
</g>
<!-- q8&#45;&gt;q17 -->
<g id="edge18" class="edge"><title>q8&#45;&gt;q17</title>
<path fill="none" stroke="green" d="M1366.03,-151.191C1403.49,-151.191 1493.32,-151.191 1538.74,-151.191"/>
<polygon fill="green" stroke="green" points="1538.75,-154.691 1548.75,-151.191 1538.75,-147.691 1538.75,-154.691"/>
<text text-anchor="middle" x="1439" y="-154.991" font-family="Times,serif" font-size="14.00">block_process</text>
</g>
<!-- q18 -->
<g id="node19" class="node"><title>q18</title>
<ellipse fill="none" stroke="black" cx="1567" cy="-97.1907" rx="18" ry="18"/>
</g>
<!-- q8&#45;&gt;q18 -->
<g id="edge15" class="edge"><title>q8&#45;&gt;q18</title>
<path fill="none" stroke="black" d="M1363.52,-142.005C1369.64,-138.481 1376.97,-134.707 1384,-132.191 1436.99,-113.228 1502.53,-103.839 1538.73,-99.7935"/>
<polygon fill="black" stroke="black" points="1539.41,-103.242 1548.98,-98.7048 1538.67,-96.2809 1539.41,-103.242"/>
<text text-anchor="middle" x="1439" y="-135.991" font-family="Times,serif" font-size="14.00">finish_all_processes</text>
</g>
<!-- q21 -->
<g id="node22" class="node"><title>q21</title>
<ellipse fill="none" stroke="black" cx="1567" cy="-243.191" rx="18" ry="18"/>
</g>
<!-- q8&#45;&gt;q21 -->
<g id="edge17" class="edge"><title>q8&#45;&gt;q21</title>
<path fill="none" stroke="black" d="M1354.4,-168.215C1359.69,-182.03 1369.16,-200.852 1384,-211.191 1430.84,-243.817 1500.49,-246.548 1538.62,-245.18"/>
<polygon fill="black" stroke="black" points="1539.11,-248.66 1548.93,-244.68 1538.78,-241.669 1539.11,-248.66"/>
<text text-anchor="middle" x="1439" y="-247.991" font-family="Times,serif" font-size="14.00">quantum_expire</text>
</g>
<!-- q9 -->
<g id="node10" class="node"><title>q9</title>
<ellipse fill="none" stroke="black" cx="1214" cy="-154.191" rx="18" ry="18"/>
</g>
<!-- q9&#45;&gt;q8 -->
<g id="edge20" class="edge"><title>q9&#45;&gt;q8</title>
<path fill="none" stroke="black" d="M1232.26,-153.799C1254.49,-153.293 1293.4,-152.409 1319.68,-151.812"/>
<polygon fill="black" stroke="black" points="1319.82,-155.309 1329.74,-151.583 1319.66,-148.311 1319.82,-155.309"/>
<text text-anchor="middle" x="1281" y="-157.991" font-family="Times,serif" font-size="14.00">append_ele</text>
</g>
<!-- q10&#45;&gt;q9 -->
<g id="edge21" class="edge"><title>q10&#45;&gt;q9</title>
<path fill="none" stroke="black" d="M1114.12,-166.977C1132.96,-164.54 1163.53,-160.588 1185.7,-157.721"/>
<polygon fill="black" stroke="black" points="1186.35,-161.167 1195.81,-156.413 1185.45,-154.225 1186.35,-161.167"/>
<text text-anchor="middle" x="1155" y="-168.991" font-family="Times,serif" font-size="14.00">new_ele</text>
</g>
<!-- q11 -->
<g id="node12" class="node"><title>q11</title>
<ellipse fill="none" stroke="black" cx="2105" cy="-97.1907" rx="18" ry="18"/>
</g>
<!-- q11&#45;&gt;q2 -->
<g id="edge22" class="edge"><title>q11&#45;&gt;q2</title>
<path fill="none" stroke="black" d="M2123.06,-99.2149C2144.03,-102.595 2179.37,-111.333 2200,-133.191 2221.09,-155.534 2229.47,-190.567 2232.8,-215.078"/>
<polygon fill="black" stroke="black" points="2229.35,-215.662 2233.98,-225.193 2236.3,-214.856 2229.35,-215.662"/>
<text text-anchor="middle" x="2177" y="-136.991" font-family="Times,serif" font-size="14.00">free_ele</text>
</g>
<!-- q12 -->
<g id="node13" class="node"><title>q12</title>
<ellipse fill="none" stroke="black" cx="1939" cy="-97.1907" rx="18" ry="18"/>
</g>
<!-- q12&#45;&gt;q11 -->
<g id="edge23" class="edge"><title>q12&#45;&gt;q11</title>
<path fill="none" stroke="black" d="M1957.24,-97.1907C1985.74,-97.1907 2042.88,-97.1907 2076.84,-97.1907"/>
<polygon fill="black" stroke="black" points="2076.99,-100.691 2086.99,-97.1907 2076.99,-93.6908 2076.99,-100.691"/>
<text text-anchor="middle" x="2025" y="-100.991" font-family="Times,serif" font-size="14.00">del_ele</text>
</g>
<!-- q13&#45;&gt;q12 -->
<g id="edge24" class="edge"><title>q13&#45;&gt;q12</title>
<path fill="none" stroke="black" d="M1774.03,-97.1907C1805.43,-97.1907 1872.69,-97.1907 1910.58,-97.1907"/>
<polygon fill="black" stroke="black" points="1910.89,-100.691 1920.89,-97.1907 1910.89,-93.6908 1910.89,-100.691"/>
<text text-anchor="middle" x="1838" y="-100.991" font-family="Times,serif" font-size="14.00">schedule</text>
</g>
<!-- q14 -->
<g id="node15" class="node"><title>q14</title>
<ellipse fill="none" stroke="black" cx="2105" cy="-151.191" rx="18" ry="18"/>
</g>
<!-- q14&#45;&gt;q2 -->
<g id="edge25" class="edge"><title>q14&#45;&gt;q2</title>
<path fill="none" stroke="green" d="M2123.14,-149.831C2143.54,-149.132 2177.67,-150.982 2200,-168.191 2215.03,-179.774 2223.87,-199.367 2228.9,-215.623"/>
<polygon fill="green" stroke="green" points="2225.65,-216.998 2231.69,-225.705 2232.4,-215.134 2225.65,-216.998"/>
<text text-anchor="middle" x="2177" y="-171.991" font-family="Times,serif" font-size="14.00">new_list</text>
</g>
<!-- q15 -->
<g id="node16" class="node"><title>q15</title>
<ellipse fill="none" stroke="black" cx="1939" cy="-151.191" rx="18" ry="18"/>
</g>
<!-- q15&#45;&gt;q14 -->
<g id="edge26" class="edge"><title>q15&#45;&gt;q14</title>
<path fill="none" stroke="black" d="M1957.24,-151.191C1985.74,-151.191 2042.88,-151.191 2076.84,-151.191"/>
<polygon fill="black" stroke="black" points="2076.99,-154.691 2086.99,-151.191 2076.99,-147.691 2076.99,-154.691"/>
<text text-anchor="middle" x="2025" y="-154.991" font-family="Times,serif" font-size="14.00">append_ele</text>
</g>
<!-- q16 -->
<g id="node17" class="node"><title>q16</title>
<ellipse fill="none" stroke="black" cx="1756" cy="-151.191" rx="18" ry="18"/>
</g>
<!-- q16&#45;&gt;q15 -->
<g id="edge27" class="edge"><title>q16&#45;&gt;q15</title>
<path fill="none" stroke="black" d="M1774.03,-151.191C1805.43,-151.191 1872.69,-151.191 1910.58,-151.191"/>
<polygon fill="black" stroke="black" points="1910.89,-154.691 1920.89,-151.191 1910.89,-147.691 1910.89,-154.691"/>
<text text-anchor="middle" x="1838" y="-154.991" font-family="Times,serif" font-size="14.00">del_ele</text>
</g>
<!-- q17&#45;&gt;q16 -->
<g id="edge28" class="edge"><title>q17&#45;&gt;q16</title>
<path fill="none" stroke="black" d="M1585.26,-151.191C1617.82,-151.191 1688.56,-151.191 1727.65,-151.191"/>
<polygon fill="black" stroke="black" points="1727.78,-154.691 1737.78,-151.191 1727.78,-147.691 1727.78,-154.691"/>
<text text-anchor="middle" x="1680" y="-154.991" font-family="Times,serif" font-size="14.00">schedule</text>
</g>
<!-- q18&#45;&gt;q13 -->
<g id="edge29" class="edge"><title>q18&#45;&gt;q13</title>
<path fill="none" stroke="black" d="M1585.26,-97.1907C1617.82,-97.1907 1688.56,-97.1907 1727.65,-97.1907"/>
<polygon fill="black" stroke="black" points="1727.78,-100.691 1737.78,-97.1907 1727.78,-93.6908 1727.78,-100.691"/>
<text text-anchor="middle" x="1680" y="-100.991" font-family="Times,serif" font-size="14.00">finish_process</text>
</g>
<!-- q19 -->
<g id="node20" class="node"><title>q19</title>
<ellipse fill="none" stroke="black" cx="2025" cy="-243.191" rx="18" ry="18"/>
</g>
<!-- q19&#45;&gt;q2 -->
<g id="edge30" class="edge"><title>q19&#45;&gt;q2</title>
<path fill="none" stroke="black" d="M2043.1,-243.191C2079.32,-243.191 2164.02,-243.191 2207.77,-243.191"/>
<polygon fill="black" stroke="black" points="2207.95,-246.691 2217.95,-243.191 2207.95,-239.691 2207.95,-246.691"/>
<text text-anchor="middle" x="2105" y="-246.991" font-family="Times,serif" font-size="14.00">append_ele</text>
</g>
<!-- q20 -->
<g id="node21" class="node"><title>q20</title>
<ellipse fill="none" stroke="black" cx="1756" cy="-243.191" rx="18" ry="18"/>
</g>
<!-- q20&#45;&gt;q19 -->
<g id="edge31" class="edge"><title>q20&#45;&gt;q19</title>
<path fill="none" stroke="black" d="M1774.11,-243.191C1819.21,-243.191 1941.66,-243.191 1996.64,-243.191"/>
<polygon fill="black" stroke="black" points="1996.69,-246.691 2006.69,-243.191 1996.69,-239.691 1996.69,-246.691"/>
<text text-anchor="middle" x="1838" y="-246.991" font-family="Times,serif" font-size="14.00">del_ele</text>
</g>
<!-- q21&#45;&gt;q20 -->
<g id="edge32" class="edge"><title>q21&#45;&gt;q20</title>
<path fill="none" stroke="black" d="M1585.26,-243.191C1617.82,-243.191 1688.56,-243.191 1727.65,-243.191"/>
<polygon fill="black" stroke="black" points="1727.78,-246.691 1737.78,-243.191 1727.78,-239.691 1727.78,-246.691"/>
<text text-anchor="middle" x="1680" y="-246.991" font-family="Times,serif" font-size="14.00">schedule</text>
</g>
<!-- iq0 -->
<g id="node23" class="node"><title>iq0</title>
</g>
<!-- iq0&#45;&gt;q0 -->
<g id="edge1" class="edge"><title>iq0&#45;&gt;q0</title>
<path fill="none" stroke="blue" d="M268.179,-305.191C323.702,-305.191 452.814,-305.191 509.491,-305.191"/>
<polygon fill="blue" stroke="blue" points="509.817,-308.691 519.817,-305.191 509.817,-301.691 509.817,-308.691"/>
</g>
</g>
</svg>
