<?xml version="1.0" encoding="UTF-8" standalone="no"?>
<!DOCTYPE svg PUBLIC "-//W3C//DTD SVG 1.1//EN"
 "http://www.w3.org/Graphics/SVG/1.1/DTD/svg11.dtd">
<!-- Generated by graphviz version 2.34.0 (20141125.1709)
 -->
<!-- Title: finite_automaton Pages: 1 -->
<svg width="503pt" height="576pt"
 viewBox="0.00 0.00 503.49 576.00" xmlns="http://www.w3.org/2000/svg" xmlns:xlink="http://www.w3.org/1999/xlink">
<g id="graph0" class="graph" transform="scale(0.157833 0.157833) rotate(0) translate(4 3645.43)">
<title>finite_automaton</title>
<polygon fill="white" stroke="white" points="-4,4 -4,-3645.43 3186,-3645.43 3186,4 -4,4"/>
<!-- dom_edges -->
<g id="node1" class="node"><title>dom_edges</title>
<polygon fill="none" stroke="green" points="764,-1611.43 0,-1611.43 0,-1575.43 764,-1575.43 764,-1611.43"/>
<text text-anchor="middle" x="382" y="-1589.73" font-family="Times,serif" font-size="14.00">Dominating edges: chain_node, create_sll, init_back_link, reverse_dll, remove_fw_link, check_seq_next, check_seq_prev, Learn_Assert</text>
</g>
<!-- q1 -->
<g id="node2" class="node"><title>q1</title>
<ellipse fill="none" stroke="green" cx="382" cy="-1832.43" rx="18" ry="18"/>
<ellipse fill="none" stroke="green" cx="382" cy="-1832.43" rx="22" ry="22"/>
<text text-anchor="middle" x="382" y="-1828.73" font-family="Times,serif" font-size="14.00">D</text>
</g>
<!-- q0 -->
<g id="node3" class="node"><title>q0</title>
<ellipse fill="none" stroke="green" cx="910" cy="-1775.43" rx="18" ry="18"/>
<text text-anchor="middle" x="910" y="-1771.73" font-family="Times,serif" font-size="14.00">D</text>
</g>
<!-- q1&#45;&gt;q0 -->
<g id="edge10" class="edge"><title>q1&#45;&gt;q0</title>
<path fill="none" stroke="green" d="M400.526,-1844.41C469.324,-1889.81 724.453,-2042.92 874,-1924.43 892.657,-1909.65 902.342,-1842.58 906.475,-1803.65"/>
<polygon fill="green" stroke="green" points="909.98,-1803.78 907.497,-1793.48 903.015,-1803.08 909.98,-1803.78"/>
<text text-anchor="middle" x="828" y="-1965.23" font-family="Times,serif" font-size="14.00">chain_node</text>
</g>
<!-- q1&#45;&gt;q0 -->
<g id="edge11" class="edge"><title>q1&#45;&gt;q0</title>
<path fill="none" stroke="green" d="M403.748,-1836.36C492.258,-1852.88 835.487,-1914.67 874,-1886.43 899.636,-1867.63 906.982,-1830.02 908.835,-1803.81"/>
<polygon fill="green" stroke="green" points="912.337,-1803.87 909.322,-1793.71 905.345,-1803.53 912.337,-1803.87"/>
<text text-anchor="middle" x="828" y="-1897.23" font-family="Times,serif" font-size="14.00">create_sll</text>
</g>
<!-- q1&#45;&gt;q0 -->
<g id="edge12" class="edge"><title>q1&#45;&gt;q0</title>
<path fill="none" stroke="green" d="M403.961,-1834.48C492.588,-1842.96 833.852,-1873.71 874,-1848.43 889.709,-1838.54 898.525,-1819.43 903.379,-1803.24"/>
<polygon fill="green" stroke="green" points="906.874,-1803.71 906.029,-1793.15 900.103,-1801.93 906.874,-1803.71"/>
<text text-anchor="middle" x="828" y="-1861.23" font-family="Times,serif" font-size="14.00">init_back_link</text>
</g>
<!-- q1&#45;&gt;q0 -->
<g id="edge13" class="edge"><title>q1&#45;&gt;q0</title>
<path fill="none" stroke="green" d="M404.089,-1832.38C492.49,-1832.05 830.615,-1829.55 874,-1810.43 880.657,-1807.5 886.739,-1802.68 891.897,-1797.54"/>
<polygon fill="green" stroke="green" points="894.638,-1799.73 898.755,-1789.96 889.449,-1795.03 894.638,-1799.73"/>
<text text-anchor="middle" x="828" y="-1825.23" font-family="Times,serif" font-size="14.00">reverse_dll</text>
</g>
<!-- q1&#45;&gt;q0 -->
<g id="edge14" class="edge"><title>q1&#45;&gt;q0</title>
<path fill="none" stroke="green" d="M403.944,-1830.16C486.469,-1821.22 789.155,-1788.42 881.843,-1778.37"/>
<polygon fill="green" stroke="green" points="882.274,-1781.85 891.838,-1777.29 881.519,-1774.89 882.274,-1781.85"/>
<text text-anchor="middle" x="828" y="-1791.23" font-family="Times,serif" font-size="14.00">remove_fw_link</text>
</g>
<!-- q1&#45;&gt;q0 -->
<g id="edge15" class="edge"><title>q1&#45;&gt;q0</title>
<path fill="none" stroke="green" d="M403.587,-1827.3C462.238,-1812.97 635.423,-1772.73 782,-1759.43 822.722,-1755.74 834.047,-1750.73 874,-1759.43 877.501,-1760.19 881.071,-1761.34 884.527,-1762.67"/>
<polygon fill="green" stroke="green" points="883.254,-1765.94 893.816,-1766.77 886.08,-1759.53 883.254,-1765.94"/>
<text text-anchor="middle" x="828" y="-1763.23" font-family="Times,serif" font-size="14.00">check_seq_next</text>
</g>
<!-- q1&#45;&gt;q0 -->
<g id="edge16" class="edge"><title>q1&#45;&gt;q0</title>
<path fill="none" stroke="green" d="M403.033,-1825.75C460.914,-1806.85 633.711,-1753.2 782,-1735.43 822.599,-1730.57 836.765,-1718.54 874,-1735.43 881.799,-1738.97 888.543,-1745.2 893.973,-1751.71"/>
<polygon fill="green" stroke="green" points="891.327,-1754.01 900.127,-1759.91 896.927,-1749.81 891.327,-1754.01"/>
<text text-anchor="middle" x="828" y="-1739.23" font-family="Times,serif" font-size="14.00">check_seq_prev</text>
</g>
<!-- q1&#45;&gt;q0 -->
<g id="edge17" class="edge"><title>q1&#45;&gt;q0</title>
<path fill="none" stroke="green" d="M402.423,-1824.01C459.355,-1799.83 631.313,-1730.48 782,-1707.43 822.419,-1701.25 839.093,-1686.14 874,-1707.43 888.552,-1716.31 897.31,-1733.38 902.427,-1748.2"/>
<polygon fill="green" stroke="green" points="899.143,-1749.43 905.413,-1757.97 905.837,-1747.38 899.143,-1749.43"/>
<text text-anchor="middle" x="828" y="-1711.23" font-family="Times,serif" font-size="14.00">Learn_Assert</text>
</g>
<!-- q0&#45;&gt;q0 -->
<g id="edge2" class="edge"><title>q0&#45;&gt;q0</title>
<path fill="none" stroke="green" d="M907.881,-1793.58C907.555,-1802.97 908.261,-1811.43 910,-1811.43 911.06,-1811.43 911.736,-1808.29 912.029,-1803.71"/>
<polygon fill="green" stroke="green" points="915.53,-1803.62 912.119,-1793.58 908.53,-1803.55 915.53,-1803.62"/>
<text text-anchor="middle" x="910" y="-1815.23" font-family="Times,serif" font-size="14.00">chain_node</text>
</g>
<!-- q0&#45;&gt;q0 -->
<g id="edge4" class="edge"><title>q0&#45;&gt;q0</title>
<path fill="none" stroke="green" d="M906.509,-1793.13C904.581,-1810.43 905.744,-1829.43 910,-1829.43 913.424,-1829.43 914.847,-1817.13 914.267,-1803.31"/>
<polygon fill="green" stroke="green" points="917.741,-1802.84 913.491,-1793.13 910.762,-1803.37 917.741,-1802.84"/>
<text text-anchor="middle" x="910" y="-1833.23" font-family="Times,serif" font-size="14.00">init_back_link</text>
</g>
<!-- q0&#45;&gt;q0 -->
<g id="edge5" class="edge"><title>q0&#45;&gt;q0</title>
<path fill="none" stroke="green" d="M905.613,-1793.15C901.605,-1817.55 903.068,-1847.43 910,-1847.43 916.012,-1847.43 917.91,-1824.96 915.694,-1803.08"/>
<polygon fill="green" stroke="green" points="919.163,-1802.6 914.387,-1793.15 912.222,-1803.52 919.163,-1802.6"/>
<text text-anchor="middle" x="910" y="-1851.23" font-family="Times,serif" font-size="14.00">reverse_dll</text>
</g>
<!-- q0&#45;&gt;q0 -->
<g id="edge6" class="edge"><title>q0&#45;&gt;q0</title>
<path fill="none" stroke="green" d="M904.998,-1793.1C898.632,-1824.28 900.299,-1865.43 910,-1865.43 918.678,-1865.43 920.927,-1832.51 916.748,-1803.24"/>
<polygon fill="green" stroke="green" points="920.149,-1802.36 915.002,-1793.1 913.25,-1803.55 920.149,-1802.36"/>
<text text-anchor="middle" x="910" y="-1869.23" font-family="Times,serif" font-size="14.00">remove_fw_link</text>
</g>
<!-- q0&#45;&gt;q0 -->
<g id="edge7" class="edge"><title>q0&#45;&gt;q0</title>
<path fill="none" stroke="green" d="M904.63,-1792.71C895.655,-1830.5 897.445,-1883.43 910,-1883.43 921.476,-1883.43 923.958,-1839.21 917.446,-1802.75"/>
<polygon fill="green" stroke="green" points="920.823,-1801.8 915.37,-1792.71 913.968,-1803.21 920.823,-1801.8"/>
<text text-anchor="middle" x="910" y="-1887.23" font-family="Times,serif" font-size="14.00">check_seq_next</text>
</g>
<!-- q0&#45;&gt;q0 -->
<g id="edge8" class="edge"><title>q0&#45;&gt;q0</title>
<path fill="none" stroke="green" d="M904.312,-1792.61C892.695,-1836.83 894.591,-1901.43 910,-1901.43 924.296,-1901.43 926.961,-1845.83 917.995,-1802.48"/>
<polygon fill="green" stroke="green" points="921.371,-1801.55 915.688,-1792.61 914.555,-1803.14 921.371,-1801.55"/>
<text text-anchor="middle" x="910" y="-1905.23" font-family="Times,serif" font-size="14.00">check_seq_prev</text>
</g>
<!-- q0&#45;&gt;q0 -->
<g id="edge9" class="edge"><title>q0&#45;&gt;q0</title>
<path fill="none" stroke="green" d="M904.009,-1792.72C889.745,-1843.28 891.742,-1919.43 910,-1919.43 927.117,-1919.43 929.942,-1852.5 918.475,-1802.47"/>
<polygon fill="green" stroke="green" points="921.85,-1801.54 915.991,-1792.72 915.066,-1803.27 921.85,-1801.54"/>
<text text-anchor="middle" x="910" y="-1923.23" font-family="Times,serif" font-size="14.00">Learn_Assert</text>
</g>
<!-- q13 -->
<g id="node15" class="node"><title>q13</title>
<ellipse fill="none" stroke="green" cx="1102" cy="-157.432" rx="18" ry="18"/>
<text text-anchor="middle" x="1102" y="-153.732" font-family="Times,serif" font-size="14.00">D</text>
</g>
<!-- q0&#45;&gt;q13 -->
<g id="edge3" class="edge"><title>q0&#45;&gt;q13</title>
<path fill="none" stroke="green" d="M911.117,-1757.36C912.241,-1589.17 921.625,-302.913 946,-272.432 972.323,-239.515 1004.97,-275.617 1038,-249.432 1051.71,-238.564 1046.54,-229.143 1056,-214.432 1064.07,-201.881 1074.3,-188.752 1082.96,-178.261"/>
<polygon fill="green" stroke="green" points="1085.75,-180.383 1089.51,-170.476 1080.39,-175.88 1085.75,-180.383"/>
<text text-anchor="middle" x="992" y="-276.232" font-family="Times,serif" font-size="14.00">create_sll</text>
</g>
<!-- q2 -->
<g id="node4" class="node"><title>q2</title>
<ellipse fill="none" stroke="green" cx="3164" cy="-3430.43" rx="18" ry="18"/>
<text text-anchor="middle" x="3164" y="-3426.73" font-family="Times,serif" font-size="14.00">D</text>
</g>
<!-- q2&#45;&gt;q1 -->
<g id="edge25" class="edge"><title>q2&#45;&gt;q1</title>
<path fill="none" stroke="green" d="M3163.8,-3448.77C3164.13,-3479.37 3160.39,-3541.17 3128,-3578.43 3089.51,-3622.72 3063.68,-3626.43 3005,-3626.43 909,-3626.43 909,-3626.43 909,-3626.43 526.61,-3626.43 402.525,-2106.59 385.198,-1864.7"/>
<polygon fill="green" stroke="green" points="388.671,-1864.2 384.474,-1854.47 381.688,-1864.69 388.671,-1864.2"/>
<text text-anchor="middle" x="2088" y="-3630.23" font-family="Times,serif" font-size="14.00">Learn_Assert</text>
</g>
<!-- q2&#45;&gt;q0 -->
<g id="edge18" class="edge"><title>q2&#45;&gt;q0</title>
<path fill="none" stroke="green" d="M3162.61,-3448.81C3161.06,-3474.22 3154.49,-3519.97 3128,-3546.43 3087.62,-3586.78 3062.09,-3583.43 3005,-3583.43 1101,-3583.43 1101,-3583.43 1101,-3583.43 1030.18,-3583.43 990.43,-3601.59 946,-3546.43 917.468,-3511.01 911.778,-2027.93 911.081,-1803.71"/>
<polygon fill="green" stroke="green" points="914.58,-1803.43 911.05,-1793.44 907.58,-1803.45 914.58,-1803.43"/>
<text text-anchor="middle" x="2198" y="-3587.23" font-family="Times,serif" font-size="14.00">chain_node</text>
</g>
<!-- q2&#45;&gt;q0 -->
<g id="edge19" class="edge"><title>q2&#45;&gt;q0</title>
<path fill="none" stroke="green" d="M3157.94,-3447.51C3152.73,-3462.24 3143.19,-3483.03 3128,-3495.43 3083.77,-3531.53 3062.09,-3532.43 3005,-3532.43 1101,-3532.43 1101,-3532.43 1101,-3532.43 1030.18,-3532.43 990.446,-3550.57 946,-3495.43 918.308,-3461.08 911.915,-2023.65 911.097,-1803.57"/>
<polygon fill="green" stroke="green" points="914.597,-1803.47 911.061,-1793.48 907.597,-1803.49 914.597,-1803.47"/>
<text text-anchor="middle" x="2198" y="-3536.23" font-family="Times,serif" font-size="14.00">create_sll</text>
</g>
<!-- q2&#45;&gt;q0 -->
<g id="edge20" class="edge"><title>q2&#45;&gt;q0</title>
<path fill="none" stroke="green" d="M3147.83,-3438.85C3120.27,-3453.34 3059.77,-3481.43 3005,-3481.43 1101,-3481.43 1101,-3481.43 1101,-3481.43 1030.18,-3481.43 990.463,-3499.56 946,-3444.43 919.16,-3411.15 912.061,-2020.58 911.116,-1803.73"/>
<polygon fill="green" stroke="green" points="914.615,-1803.48 911.072,-1793.5 907.615,-1803.51 914.615,-1803.48"/>
<text text-anchor="middle" x="2198" y="-3485.23" font-family="Times,serif" font-size="14.00">init_back_link</text>
</g>
<!-- q2&#45;&gt;q0 -->
<g id="edge21" class="edge"><title>q2&#45;&gt;q0</title>
<path fill="none" stroke="green" d="M3145.93,-3430.43C3116.96,-3430.43 3056.3,-3430.43 3005,-3430.43 1101,-3430.43 1101,-3430.43 1101,-3430.43 1030.18,-3430.43 990.482,-3448.55 946,-3393.43 919.996,-3361.21 912.203,-2015.89 911.134,-1803.53"/>
<polygon fill="green" stroke="green" points="914.634,-1803.47 911.084,-1793.49 907.634,-1803.51 914.634,-1803.47"/>
<text text-anchor="middle" x="2198" y="-3434.23" font-family="Times,serif" font-size="14.00">reverse_dll</text>
</g>
<!-- q2&#45;&gt;q0 -->
<g id="edge22" class="edge"><title>q2&#45;&gt;q0</title>
<path fill="none" stroke="green" d="M3147.83,-3422.01C3120.27,-3407.52 3059.77,-3379.43 3005,-3379.43 1101,-3379.43 1101,-3379.43 1101,-3379.43 1030.18,-3379.43 990.501,-3397.53 946,-3342.43 920.843,-3311.28 912.357,-2012.32 911.155,-1803.6"/>
<polygon fill="green" stroke="green" points="914.654,-1803.44 911.097,-1793.46 907.654,-1803.48 914.654,-1803.44"/>
<text text-anchor="middle" x="2198" y="-3383.23" font-family="Times,serif" font-size="14.00">remove_fw_link</text>
</g>
<!-- q2&#45;&gt;q0 -->
<g id="edge23" class="edge"><title>q2&#45;&gt;q0</title>
<path fill="none" stroke="green" d="M3155.49,-3414.48C3149.45,-3403.11 3139.99,-3388.18 3128,-3378.43 3082.2,-3341.22 3064.01,-3328.43 3005,-3328.43 1101,-3328.43 1101,-3328.43 1101,-3328.43 1030.18,-3328.43 990.522,-3346.51 946,-3291.43 921.701,-3261.37 912.524,-2009.79 911.178,-1803.94"/>
<polygon fill="green" stroke="green" points="914.677,-1803.64 911.112,-1793.66 907.677,-1803.68 914.677,-1803.64"/>
<text text-anchor="middle" x="2198" y="-3332.23" font-family="Times,serif" font-size="14.00">check_seq_next</text>
</g>
<!-- q2&#45;&gt;q0 -->
<g id="edge24" class="edge"><title>q2&#45;&gt;q0</title>
<path fill="none" stroke="green" d="M3161.49,-3412.27C3158.68,-3389.44 3150.66,-3350.36 3128,-3326.43 3087.54,-3283.7 3063.84,-3277.43 3005,-3277.43 1101,-3277.43 1101,-3277.43 1101,-3277.43 1029.74,-3277.43 990.143,-3292.37 946,-3236.43 922.946,-3207.22 912.747,-2003.76 911.208,-1803.53"/>
<polygon fill="green" stroke="green" points="914.708,-1803.48 911.132,-1793.51 907.708,-1803.54 914.708,-1803.48"/>
<text text-anchor="middle" x="2198" y="-3281.23" font-family="Times,serif" font-size="14.00">check_seq_prev</text>
</g>
<!-- q3 -->
<g id="node5" class="node"><title>q3</title>
<ellipse fill="none" stroke="green" cx="3004" cy="-3117.43" rx="18" ry="18"/>
<text text-anchor="middle" x="3004" y="-3113.73" font-family="Times,serif" font-size="14.00">D</text>
</g>
<!-- q3&#45;&gt;q0 -->
<g id="edge26" class="edge"><title>q3&#45;&gt;q0</title>
<path fill="none" stroke="green" d="M3001.17,-3135.28C2998.06,-3155.9 2989.79,-3189.32 2968,-3207.43 2923.82,-3244.14 2898.44,-3231.43 2841,-3231.43 1101,-3231.43 1101,-3231.43 1101,-3231.43 1031.29,-3231.43 992.008,-3259.8 946,-3207.43 921.951,-3180.06 912.596,-2001.84 911.191,-1803.6"/>
<polygon fill="green" stroke="green" points="914.69,-1803.4 911.12,-1793.42 907.69,-1803.45 914.69,-1803.4"/>
<text text-anchor="middle" x="2088" y="-3235.23" font-family="Times,serif" font-size="14.00">chain_node</text>
</g>
<!-- q3&#45;&gt;q0 -->
<g id="edge27" class="edge"><title>q3&#45;&gt;q0</title>
<path fill="none" stroke="green" d="M2996.04,-3134.13C2990.26,-3145.86 2980.9,-3160.93 2968,-3169.43 2920.03,-3201.04 2898.44,-3193.43 2841,-3193.43 1101,-3193.43 1101,-3193.43 1101,-3193.43 1031.29,-3193.43 992.025,-3221.79 946,-3169.43 922.604,-3142.82 912.723,-1998.23 911.209,-1803.46"/>
<polygon fill="green" stroke="green" points="914.709,-1803.42 911.132,-1793.45 907.709,-1803.48 914.709,-1803.42"/>
<text text-anchor="middle" x="2088" y="-3197.23" font-family="Times,serif" font-size="14.00">create_sll</text>
</g>
<!-- q3&#45;&gt;q0 -->
<g id="edge28" class="edge"><title>q3&#45;&gt;q0</title>
<path fill="none" stroke="green" d="M2987.2,-3124.51C2981.27,-3126.96 2974.41,-3129.56 2968,-3131.43 2912.85,-3147.51 2898.44,-3155.43 2841,-3155.43 1101,-3155.43 1101,-3155.43 1101,-3155.43 1031.29,-3155.43 992.044,-3183.77 946,-3131.43 923.279,-3105.6 912.873,-1996.76 911.233,-1803.89"/>
<polygon fill="green" stroke="green" points="914.731,-1803.67 911.147,-1793.7 907.732,-1803.73 914.731,-1803.67"/>
<text text-anchor="middle" x="2088" y="-3159.23" font-family="Times,serif" font-size="14.00">init_back_link</text>
</g>
<!-- q3&#45;&gt;q0 -->
<g id="edge29" class="edge"><title>q3&#45;&gt;q0</title>
<path fill="none" stroke="green" d="M2985.97,-3117.43C2956.46,-3117.43 2893.88,-3117.43 2841,-3117.43 1101,-3117.43 1101,-3117.43 1101,-3117.43 1031.29,-3117.43 992.063,-3145.75 946,-3093.43 923.94,-3068.37 913.016,-1993.89 911.255,-1803.97"/>
<polygon fill="green" stroke="green" points="914.753,-1803.65 911.161,-1793.68 907.753,-1803.72 914.753,-1803.65"/>
<text text-anchor="middle" x="2088" y="-3121.23" font-family="Times,serif" font-size="14.00">reverse_dll</text>
</g>
<!-- q3&#45;&gt;q0 -->
<g id="edge30" class="edge"><title>q3&#45;&gt;q0</title>
<path fill="none" stroke="green" d="M2986.74,-3110.99C2957.88,-3100.14 2895.6,-3079.43 2841,-3079.43 1101,-3079.43 1101,-3079.43 1101,-3079.43 1031.29,-3079.43 992.084,-3107.74 946,-3055.43 924.589,-3031.13 913.151,-1989.78 911.276,-1803.73"/>
<polygon fill="green" stroke="green" points="914.775,-1803.61 911.175,-1793.64 907.775,-1803.68 914.775,-1803.61"/>
<text text-anchor="middle" x="2088" y="-3083.23" font-family="Times,serif" font-size="14.00">remove_fw_link</text>
</g>
<!-- q3&#45;&gt;q0 -->
<g id="edge31" class="edge"><title>q3&#45;&gt;q0</title>
<path fill="none" stroke="green" d="M2993.28,-3102.56C2987,-3094.06 2978.14,-3083.85 2968,-3077.43 2918.42,-3046.06 2899.67,-3041.43 2841,-3041.43 1101,-3041.43 1101,-3041.43 1101,-3041.43 1031.29,-3041.43 992.106,-3069.72 946,-3017.43 925.246,-2993.9 913.299,-1986.55 911.3,-1803.73"/>
<polygon fill="green" stroke="green" points="914.798,-1803.54 911.19,-1793.58 907.799,-1803.61 914.798,-1803.54"/>
<text text-anchor="middle" x="2088" y="-3045.23" font-family="Times,serif" font-size="14.00">check_seq_next</text>
</g>
<!-- q3&#45;&gt;q0 -->
<g id="edge33" class="edge"><title>q3&#45;&gt;q0</title>
<path fill="none" stroke="green" d="M2999.75,-3099.72C2995.53,-3081.72 2986.41,-3054.3 2968,-3038.43 2923.65,-3000.21 2899.55,-3003.43 2841,-3003.43 1101,-3003.43 1101,-3003.43 1101,-3003.43 1029.01,-3003.43 989.737,-3013.61 946,-2956.43 909.892,-2909.23 910.477,-1979.4 910.911,-1803.88"/>
<polygon fill="green" stroke="green" points="914.411,-1803.65 910.938,-1793.64 907.412,-1803.63 914.411,-1803.65"/>
<text text-anchor="middle" x="2088" y="-3007.23" font-family="Times,serif" font-size="14.00">Learn_Assert</text>
</g>
<!-- q3&#45;&gt;q2 -->
<g id="edge32" class="edge"><title>q3&#45;&gt;q2</title>
<path fill="none" stroke="green" d="M3019.11,-3127.9C3045.2,-3148.07 3100.77,-3195.08 3128,-3248.43 3153.56,-3298.51 3160.54,-3365.03 3162.39,-3402.2"/>
<polygon fill="green" stroke="green" points="3158.89,-3402.46 3162.8,-3412.31 3165.89,-3402.18 3158.89,-3402.46"/>
<text text-anchor="middle" x="3084" y="-3252.23" font-family="Times,serif" font-size="14.00">check_seq_prev</text>
</g>
<!-- q4 -->
<g id="node6" class="node"><title>q4</title>
<ellipse fill="none" stroke="green" cx="2840" cy="-2807.43" rx="18" ry="18"/>
<text text-anchor="middle" x="2840" y="-2803.73" font-family="Times,serif" font-size="14.00">D</text>
</g>
<!-- q4&#45;&gt;q0 -->
<g id="edge34" class="edge"><title>q4&#45;&gt;q0</title>
<path fill="none" stroke="green" d="M2838.61,-2825.81C2837.06,-2851.22 2830.49,-2896.97 2804,-2923.43 2763.62,-2963.78 2738.09,-2960.43 2681,-2960.43 1101,-2960.43 1101,-2960.43 1101,-2960.43 1030.18,-2960.43 990.725,-2978.35 946,-2923.43 909.557,-2878.68 910.405,-1975.82 910.899,-1803.66"/>
<polygon fill="green" stroke="green" points="914.399,-1803.61 910.93,-1793.6 907.399,-1803.59 914.399,-1803.61"/>
<text text-anchor="middle" x="1980" y="-2964.23" font-family="Times,serif" font-size="14.00">chain_node</text>
</g>
<!-- q4&#45;&gt;q0 -->
<g id="edge35" class="edge"><title>q4&#45;&gt;q0</title>
<path fill="none" stroke="green" d="M2833.94,-2824.51C2828.73,-2839.24 2819.19,-2860.03 2804,-2872.43 2759.77,-2908.53 2738.09,-2909.43 2681,-2909.43 1101,-2909.43 1101,-2909.43 1101,-2909.43 1030.18,-2909.43 990.764,-2927.32 946,-2872.43 911.235,-2829.81 910.71,-1971.42 910.941,-1803.71"/>
<polygon fill="green" stroke="green" points="914.441,-1803.68 910.957,-1793.67 907.441,-1803.67 914.441,-1803.68"/>
<text text-anchor="middle" x="1980" y="-2913.23" font-family="Times,serif" font-size="14.00">create_sll</text>
</g>
<!-- q4&#45;&gt;q0 -->
<g id="edge36" class="edge"><title>q4&#45;&gt;q0</title>
<path fill="none" stroke="green" d="M2823.83,-2815.85C2796.27,-2830.34 2735.77,-2858.43 2681,-2858.43 1101,-2858.43 1101,-2858.43 1101,-2858.43 1030.18,-2858.43 990.807,-2876.28 946,-2821.43 912.922,-2780.94 911.032,-1967.41 910.987,-1803.91"/>
<polygon fill="green" stroke="green" points="914.487,-1803.68 910.986,-1793.68 907.487,-1803.68 914.487,-1803.68"/>
<text text-anchor="middle" x="1980" y="-2862.23" font-family="Times,serif" font-size="14.00">init_back_link</text>
</g>
<!-- q4&#45;&gt;q0 -->
<g id="edge37" class="edge"><title>q4&#45;&gt;q0</title>
<path fill="none" stroke="green" d="M2821.93,-2807.43C2792.96,-2807.43 2732.3,-2807.43 2681,-2807.43 1101,-2807.43 1101,-2807.43 1101,-2807.43 1030.18,-2807.43 990.853,-2825.24 946,-2770.43 914.598,-2732.06 911.37,-1962.87 911.038,-1803.99"/>
<polygon fill="green" stroke="green" points="914.537,-1803.62 911.019,-1793.63 907.537,-1803.63 914.537,-1803.62"/>
<text text-anchor="middle" x="1980" y="-2811.23" font-family="Times,serif" font-size="14.00">reverse_dll</text>
</g>
<!-- q4&#45;&gt;q0 -->
<g id="edge39" class="edge"><title>q4&#45;&gt;q0</title>
<path fill="none" stroke="green" d="M2823.83,-2799.01C2796.27,-2784.52 2735.77,-2756.43 2681,-2756.43 1101,-2756.43 1101,-2756.43 1101,-2756.43 1030.18,-2756.43 990.905,-2774.2 946,-2719.43 916.264,-2683.16 911.724,-1957.83 911.094,-1803.96"/>
<polygon fill="green" stroke="green" points="914.593,-1803.49 911.054,-1793.5 907.593,-1803.52 914.593,-1803.49"/>
<text text-anchor="middle" x="1980" y="-2760.23" font-family="Times,serif" font-size="14.00">check_seq_next</text>
</g>
<!-- q4&#45;&gt;q0 -->
<g id="edge40" class="edge"><title>q4&#45;&gt;q0</title>
<path fill="none" stroke="green" d="M2831.49,-2791.48C2825.45,-2780.11 2815.99,-2765.18 2804,-2755.43 2758.2,-2718.22 2740.01,-2705.43 2681,-2705.43 1101,-2705.43 1101,-2705.43 1101,-2705.43 1030.18,-2705.43 990.963,-2723.15 946,-2668.43 917.922,-2634.26 912.094,-1952.36 911.156,-1803.83"/>
<polygon fill="green" stroke="green" points="914.656,-1803.68 911.095,-1793.7 907.656,-1803.72 914.656,-1803.68"/>
<text text-anchor="middle" x="1980" y="-2709.23" font-family="Times,serif" font-size="14.00">check_seq_prev</text>
</g>
<!-- q4&#45;&gt;q0 -->
<g id="edge41" class="edge"><title>q4&#45;&gt;q0</title>
<path fill="none" stroke="green" d="M2837.49,-2789.27C2834.68,-2766.44 2826.66,-2727.36 2804,-2703.43 2763.54,-2660.7 2739.84,-2654.43 2681,-2654.43 1101,-2654.43 1101,-2654.43 1101,-2654.43 1029.74,-2654.43 990.639,-2668.98 946,-2613.43 920.108,-2581.21 912.611,-1946.77 911.248,-1803.86"/>
<polygon fill="green" stroke="green" points="914.746,-1803.68 911.153,-1793.71 907.747,-1803.74 914.746,-1803.68"/>
<text text-anchor="middle" x="1980" y="-2658.23" font-family="Times,serif" font-size="14.00">Learn_Assert</text>
</g>
<!-- q4&#45;&gt;q3 -->
<g id="edge38" class="edge"><title>q4&#45;&gt;q3</title>
<path fill="none" stroke="green" d="M2853.59,-2820.03C2879.15,-2846.33 2937.26,-2910 2968,-2974.43 2985.94,-3012.03 2995.22,-3059.72 2999.6,-3089.41"/>
<polygon fill="green" stroke="green" points="2996.16,-3090.05 3001,-3099.48 3003.09,-3089.09 2996.16,-3090.05"/>
<text text-anchor="middle" x="2922" y="-2978.23" font-family="Times,serif" font-size="14.00">remove_fw_link</text>
</g>
<!-- q5 -->
<g id="node7" class="node"><title>q5</title>
<ellipse fill="none" stroke="green" cx="2680" cy="-2494.43" rx="18" ry="18"/>
<text text-anchor="middle" x="2680" y="-2490.73" font-family="Times,serif" font-size="14.00">D</text>
</g>
<!-- q5&#45;&gt;q0 -->
<g id="edge42" class="edge"><title>q5&#45;&gt;q0</title>
<path fill="none" stroke="green" d="M2677.15,-2512.25C2674.03,-2532.86 2665.74,-2566.26 2644,-2584.43 2601.27,-2620.16 2576.7,-2608.43 2521,-2608.43 1101,-2608.43 1101,-2608.43 1101,-2608.43 1031.29,-2608.43 992.498,-2636.37 946,-2584.43 919.438,-2554.76 912.476,-1943.69 911.228,-1803.79"/>
<polygon fill="green" stroke="green" points="914.725,-1803.45 911.139,-1793.48 907.725,-1803.51 914.725,-1803.45"/>
<text text-anchor="middle" x="1872" y="-2612.23" font-family="Times,serif" font-size="14.00">chain_node</text>
</g>
<!-- q5&#45;&gt;q0 -->
<g id="edge43" class="edge"><title>q5&#45;&gt;q0</title>
<path fill="none" stroke="green" d="M2672.02,-2511.1C2666.24,-2522.83 2656.88,-2537.89 2644,-2546.43 2597.58,-2577.21 2576.7,-2570.43 2521,-2570.43 1101,-2570.43 1101,-2570.43 1101,-2570.43 1031.29,-2570.43 992.553,-2598.32 946,-2546.43 920.734,-2518.27 912.806,-1939.54 911.29,-1803.76"/>
<polygon fill="green" stroke="green" points="914.79,-1803.69 911.181,-1793.73 907.79,-1803.77 914.79,-1803.69"/>
<text text-anchor="middle" x="1872" y="-2574.23" font-family="Times,serif" font-size="14.00">create_sll</text>
</g>
<!-- q5&#45;&gt;q0 -->
<g id="edge44" class="edge"><title>q5&#45;&gt;q0</title>
<path fill="none" stroke="green" d="M2663.19,-2501.49C2657.26,-2503.94 2650.4,-2506.54 2644,-2508.43 2590.57,-2524.18 2576.7,-2532.43 2521,-2532.43 1101,-2532.43 1101,-2532.43 1101,-2532.43 1031.29,-2532.43 992.614,-2560.26 946,-2508.43 922.022,-2481.77 913.147,-1934.93 911.357,-1803.6"/>
<polygon fill="green" stroke="green" points="914.856,-1803.49 911.223,-1793.53 907.857,-1803.58 914.856,-1803.49"/>
<text text-anchor="middle" x="1872" y="-2536.23" font-family="Times,serif" font-size="14.00">init_back_link</text>
</g>
<!-- q5&#45;&gt;q0 -->
<g id="edge45" class="edge"><title>q5&#45;&gt;q0</title>
<path fill="none" stroke="green" d="M2661.93,-2494.43C2632.96,-2494.43 2572.3,-2494.43 2521,-2494.43 1101,-2494.43 1101,-2494.43 1101,-2494.43 1031.29,-2494.43 992.682,-2522.2 946,-2470.43 923.325,-2445.28 913.521,-1931.06 911.436,-1803.75"/>
<polygon fill="green" stroke="green" points="914.934,-1803.57 911.273,-1793.63 907.935,-1803.68 914.934,-1803.57"/>
<text text-anchor="middle" x="1872" y="-2498.23" font-family="Times,serif" font-size="14.00">reverse_dll</text>
</g>
<!-- q5&#45;&gt;q0 -->
<g id="edge46" class="edge"><title>q5&#45;&gt;q0</title>
<path fill="none" stroke="green" d="M2663.15,-2487.99C2635.03,-2477.14 2574.32,-2456.43 2521,-2456.43 1101,-2456.43 1101,-2456.43 1101,-2456.43 1031.29,-2456.43 992.757,-2484.14 946,-2432.43 924.619,-2408.79 913.911,-1926.68 911.522,-1803.76"/>
<polygon fill="green" stroke="green" points="915.019,-1803.56 911.328,-1793.63 908.02,-1803.7 915.019,-1803.56"/>
<text text-anchor="middle" x="1872" y="-2460.23" font-family="Times,serif" font-size="14.00">remove_fw_link</text>
</g>
<!-- q5&#45;&gt;q0 -->
<g id="edge48" class="edge"><title>q5&#45;&gt;q0</title>
<path fill="none" stroke="green" d="M2669.26,-2479.59C2662.98,-2471.1 2654.11,-2460.89 2644,-2454.43 2595.99,-2423.77 2577.96,-2418.43 2521,-2418.43 1101,-2418.43 1101,-2418.43 1101,-2418.43 1031.29,-2418.43 992.841,-2446.06 946,-2394.43 925.902,-2372.28 914.316,-1921.8 911.615,-1803.62"/>
<polygon fill="green" stroke="green" points="915.112,-1803.47 911.388,-1793.55 908.114,-1803.62 915.112,-1803.47"/>
<text text-anchor="middle" x="1872" y="-2422.23" font-family="Times,serif" font-size="14.00">check_seq_prev</text>
</g>
<!-- q5&#45;&gt;q0 -->
<g id="edge49" class="edge"><title>q5&#45;&gt;q0</title>
<path fill="none" stroke="green" d="M2675.73,-2476.75C2671.49,-2458.77 2662.34,-2431.37 2644,-2415.43 2601.1,-2378.15 2577.84,-2380.43 2521,-2380.43 1101,-2380.43 1101,-2380.43 1101,-2380.43 1029.01,-2380.43 990.675,-2389.88 946,-2333.43 912.949,-2291.67 910.843,-1911.42 910.916,-1803.73"/>
<polygon fill="green" stroke="green" points="914.416,-1803.63 910.93,-1793.63 907.416,-1803.62 914.416,-1803.63"/>
<text text-anchor="middle" x="1872" y="-2384.23" font-family="Times,serif" font-size="14.00">Learn_Assert</text>
</g>
<!-- q5&#45;&gt;q4 -->
<g id="edge47" class="edge"><title>q5&#45;&gt;q4</title>
<path fill="none" stroke="green" d="M2695.11,-2504.9C2721.2,-2525.07 2776.77,-2572.08 2804,-2625.43 2829.56,-2675.51 2836.54,-2742.03 2838.39,-2779.2"/>
<polygon fill="green" stroke="green" points="2834.89,-2779.46 2838.8,-2789.31 2841.89,-2779.18 2834.89,-2779.46"/>
<text text-anchor="middle" x="2760" y="-2629.23" font-family="Times,serif" font-size="14.00">check_seq_next</text>
</g>
<!-- q6 -->
<g id="node8" class="node"><title>q6</title>
<ellipse fill="none" stroke="green" cx="2520" cy="-2184.43" rx="18" ry="18"/>
<text text-anchor="middle" x="2520" y="-2180.73" font-family="Times,serif" font-size="14.00">D</text>
</g>
<!-- q6&#45;&gt;q0 -->
<g id="edge50" class="edge"><title>q6&#45;&gt;q0</title>
<path fill="none" stroke="green" d="M2518.34,-2202.54C2516.47,-2227.65 2509.52,-2273.03 2484,-2300.43 2452.56,-2334.2 2433.14,-2337.43 2387,-2337.43 1101,-2337.43 1101,-2337.43 1101,-2337.43 1030.18,-2337.43 991.709,-2354.53 946,-2300.43 913.826,-2262.35 911.073,-1907.47 910.96,-1803.76"/>
<polygon fill="green" stroke="green" points="914.46,-1803.45 910.957,-1793.46 907.46,-1803.46 914.46,-1803.45"/>
<text text-anchor="middle" x="1762" y="-2341.23" font-family="Times,serif" font-size="14.00">chain_node</text>
</g>
<!-- q6&#45;&gt;q0 -->
<g id="edge51" class="edge"><title>q6&#45;&gt;q0</title>
<path fill="none" stroke="green" d="M2513.61,-2201.53C2508.23,-2216.07 2498.64,-2236.58 2484,-2249.43 2449.33,-2279.88 2433.14,-2286.43 2387,-2286.43 1101,-2286.43 1101,-2286.43 1101,-2286.43 1030.18,-2286.43 991.901,-2303.37 946,-2249.43 917.099,-2215.47 912.051,-1900.89 911.179,-1803.82"/>
<polygon fill="green" stroke="green" points="914.677,-1803.56 911.096,-1793.59 907.678,-1803.62 914.677,-1803.56"/>
<text text-anchor="middle" x="1762" y="-2290.23" font-family="Times,serif" font-size="14.00">create_sll</text>
</g>
<!-- q6&#45;&gt;q0 -->
<g id="edge52" class="edge"><title>q6&#45;&gt;q0</title>
<path fill="none" stroke="green" d="M2504.66,-2194.02C2481.15,-2208.8 2432.45,-2235.43 2387,-2235.43 1101,-2235.43 1101,-2235.43 1101,-2235.43 1030.18,-2235.43 992.14,-2252.16 946,-2198.43 920.337,-2168.55 913.126,-1893.46 911.447,-1803.65"/>
<polygon fill="green" stroke="green" points="914.942,-1803.35 911.265,-1793.41 907.944,-1803.47 914.942,-1803.35"/>
<text text-anchor="middle" x="1762" y="-2239.23" font-family="Times,serif" font-size="14.00">init_back_link</text>
</g>
<!-- q6&#45;&gt;q0 -->
<g id="edge53" class="edge"><title>q6&#45;&gt;q0</title>
<path fill="none" stroke="green" d="M2501.91,-2184.43C2476.75,-2184.43 2428.25,-2184.43 2387,-2184.43 1101,-2184.43 1101,-2184.43 1101,-2184.43 1030.18,-2184.43 992.441,-2200.9 946,-2147.43 923.611,-2121.65 914.375,-1886.65 911.801,-1804.01"/>
<polygon fill="green" stroke="green" points="915.294,-1803.72 911.494,-1793.83 908.297,-1803.93 915.294,-1803.72"/>
<text text-anchor="middle" x="1762" y="-2188.23" font-family="Times,serif" font-size="14.00">reverse_dll</text>
</g>
<!-- q6&#45;&gt;q0 -->
<g id="edge54" class="edge"><title>q6&#45;&gt;q0</title>
<path fill="none" stroke="green" d="M2504.66,-2174.84C2481.15,-2160.07 2432.45,-2133.43 2387,-2133.43 1101,-2133.43 1101,-2133.43 1101,-2133.43 1030.18,-2133.43 992.836,-2149.56 946,-2096.43 926.787,-2074.64 915.74,-1877.64 912.232,-1803.49"/>
<polygon fill="green" stroke="green" points="915.727,-1803.3 911.769,-1793.48 908.735,-1803.63 915.727,-1803.3"/>
<text text-anchor="middle" x="1762" y="-2137.23" font-family="Times,serif" font-size="14.00">remove_fw_link</text>
</g>
<!-- q6&#45;&gt;q0 -->
<g id="edge55" class="edge"><title>q6&#45;&gt;q0</title>
<path fill="none" stroke="green" d="M2510.52,-2168.54C2504.25,-2157.91 2494.93,-2144.14 2484,-2134.43 2447.42,-2101.95 2435.92,-2082.43 2387,-2082.43 1101,-2082.43 1101,-2082.43 1101,-2082.43 1031.07,-2082.43 994.242,-2106.05 946,-2055.43 912.054,-2019.81 909.831,-1867.69 910.448,-1803.83"/>
<polygon fill="green" stroke="green" points="913.949,-1803.72 910.578,-1793.67 906.95,-1803.63 913.949,-1803.72"/>
<text text-anchor="middle" x="1762" y="-2086.23" font-family="Times,serif" font-size="14.00">check_seq_next</text>
</g>
<!-- q6&#45;&gt;q0 -->
<g id="edge57" class="edge"><title>q6&#45;&gt;q0</title>
<path fill="none" stroke="green" d="M2516.8,-2166.41C2513.29,-2144.53 2504.59,-2107.58 2484,-2083.43 2452.26,-2046.21 2435.92,-2031.43 2387,-2031.43 1871,-2031.43 1871,-2031.43 1871,-2031.43 1676.28,-2031.43 1627.72,-2041.43 1433,-2041.43 1101,-2041.43 1101,-2041.43 1101,-2041.43 1030.57,-2041.43 994.27,-2059.72 946,-2008.43 918.667,-1979.39 912.667,-1859.4 911.359,-1803.87"/>
<polygon fill="green" stroke="green" points="914.854,-1803.59 911.155,-1793.67 907.856,-1803.73 914.854,-1803.59"/>
<text text-anchor="middle" x="1762" y="-2037.23" font-family="Times,serif" font-size="14.00">Learn_Assert</text>
</g>
<!-- q6&#45;&gt;q5 -->
<g id="edge56" class="edge"><title>q6&#45;&gt;q5</title>
<path fill="none" stroke="green" d="M2533.18,-2197.12C2557.89,-2223.57 2614.1,-2287.5 2644,-2351.43 2661.65,-2389.17 2671.01,-2436.82 2675.48,-2466.46"/>
<polygon fill="green" stroke="green" points="2672.04,-2467.11 2676.92,-2476.52 2678.97,-2466.12 2672.04,-2467.11"/>
<text text-anchor="middle" x="2600" y="-2355.23" font-family="Times,serif" font-size="14.00">check_seq_prev</text>
</g>
<!-- q7 -->
<g id="node9" class="node"><title>q7</title>
<ellipse fill="none" stroke="green" cx="2386" cy="-1871.43" rx="18" ry="18"/>
<text text-anchor="middle" x="2386" y="-1867.73" font-family="Times,serif" font-size="14.00">D</text>
</g>
<!-- q7&#45;&gt;q0 -->
<g id="edge58" class="edge"><title>q7&#45;&gt;q0</title>
<path fill="none" stroke="green" d="M2383.26,-1889.39C2380.24,-1910.12 2372.05,-1943.64 2350,-1961.43 2297.11,-2004.09 2266.95,-1985.43 2199,-1985.43 1871,-1985.43 1871,-1985.43 1871,-1985.43 1676.17,-1985.43 1627.83,-2003.43 1433,-2003.43 1101,-2003.43 1101,-2003.43 1101,-2003.43 1031.29,-2003.43 995.692,-2028.32 946,-1979.43 921.539,-1955.37 914.096,-1853.67 911.893,-1803.56"/>
<polygon fill="green" stroke="green" points="915.384,-1803.27 911.488,-1793.42 908.389,-1803.55 915.384,-1803.27"/>
<text text-anchor="middle" x="1652" y="-2001.23" font-family="Times,serif" font-size="14.00">chain_node</text>
</g>
<!-- q7&#45;&gt;q0 -->
<g id="edge59" class="edge"><title>q7&#45;&gt;q0</title>
<path fill="none" stroke="green" d="M2378.35,-1887.74C2372.63,-1899.6 2363.21,-1915 2350,-1923.43 2292.72,-1959.99 2266.95,-1947.43 2199,-1947.43 1871,-1947.43 1871,-1947.43 1871,-1947.43 1676.17,-1947.43 1627.83,-1965.43 1433,-1965.43 1101,-1965.43 1101,-1965.43 1101,-1965.43 1031.29,-1965.43 996.609,-1989.37 946,-1941.43 926.428,-1922.89 916.95,-1845.98 913.138,-1803.66"/>
<polygon fill="green" stroke="green" points="916.605,-1803.12 912.268,-1793.46 909.63,-1803.72 916.605,-1803.12"/>
<text text-anchor="middle" x="1652" y="-1963.23" font-family="Times,serif" font-size="14.00">create_sll</text>
</g>
<!-- q7&#45;&gt;q0 -->
<g id="edge60" class="edge"><title>q7&#45;&gt;q0</title>
<path fill="none" stroke="green" d="M2369.23,-1878.61C2363.3,-1881.07 2356.44,-1883.66 2350,-1885.43 2284.49,-1903.5 2266.95,-1909.43 2199,-1909.43 1871,-1909.43 1871,-1909.43 1871,-1909.43 1676.17,-1909.43 1627.83,-1927.43 1433,-1927.43 1101,-1927.43 1101,-1927.43 1101,-1927.43 1031.29,-1927.43 998.004,-1949.85 946,-1903.43 917.989,-1878.43 911.458,-1833.38 910.41,-1803.94"/>
<polygon fill="green" stroke="green" points="913.909,-1803.81 910.243,-1793.87 906.91,-1803.93 913.909,-1803.81"/>
<text text-anchor="middle" x="1652" y="-1925.23" font-family="Times,serif" font-size="14.00">init_back_link</text>
</g>
<!-- q7&#45;&gt;q0 -->
<g id="edge62" class="edge"><title>q7&#45;&gt;q0</title>
<path fill="none" stroke="green" d="M2367.82,-1871.43C2335.01,-1871.43 2261.16,-1871.43 2199,-1871.43 1871,-1871.43 1871,-1871.43 1871,-1871.43 1676.17,-1871.43 1627.83,-1889.43 1433,-1889.43 1101,-1889.43 1101,-1889.43 1101,-1889.43 1031.29,-1889.43 1000.35,-1909.09 946,-1865.43 927.19,-1850.32 918.468,-1823.76 914.436,-1803.39"/>
<polygon fill="green" stroke="green" points="917.863,-1802.67 912.726,-1793.4 910.963,-1803.85 917.863,-1802.67"/>
<text text-anchor="middle" x="1652" y="-1887.23" font-family="Times,serif" font-size="14.00">remove_fw_link</text>
</g>
<!-- q7&#45;&gt;q0 -->
<g id="edge63" class="edge"><title>q7&#45;&gt;q0</title>
<path fill="none" stroke="green" d="M2368.81,-1865.82C2336.79,-1855.25 2262.94,-1833.43 2199,-1833.43 1871,-1833.43 1871,-1833.43 1871,-1833.43 1676.17,-1833.43 1627.83,-1851.43 1433,-1851.43 1101,-1851.43 1101,-1851.43 1101,-1851.43 1031.29,-1851.43 1004.84,-1864.81 946,-1827.43 935.977,-1821.06 928.139,-1810.68 922.445,-1800.85"/>
<polygon fill="green" stroke="green" points="925.406,-1798.96 917.641,-1791.76 919.216,-1802.23 925.406,-1798.96"/>
<text text-anchor="middle" x="1652" y="-1849.23" font-family="Times,serif" font-size="14.00">check_seq_next</text>
</g>
<!-- q7&#45;&gt;q0 -->
<g id="edge64" class="edge"><title>q7&#45;&gt;q0</title>
<path fill="none" stroke="green" d="M2374.42,-1857.3C2368.11,-1849.78 2359.48,-1840.98 2350,-1835.43 2290.07,-1800.38 2268.43,-1795.43 2199,-1795.43 1761,-1795.43 1761,-1795.43 1761,-1795.43 1615,-1795.43 1579,-1813.43 1433,-1813.43 1101,-1813.43 1101,-1813.43 1101,-1813.43 1031.29,-1813.43 1013.24,-1807.83 946,-1789.43 942.781,-1788.55 939.455,-1787.47 936.193,-1786.29"/>
<polygon fill="green" stroke="green" points="937.357,-1782.99 926.769,-1782.62 934.818,-1789.51 937.357,-1782.99"/>
<text text-anchor="middle" x="1652" y="-1806.23" font-family="Times,serif" font-size="14.00">check_seq_prev</text>
</g>
<!-- q7&#45;&gt;q0 -->
<g id="edge65" class="edge"><title>q7&#45;&gt;q0</title>
<path fill="none" stroke="green" d="M2381.64,-1853.72C2377.35,-1836.09 2368.2,-1809.52 2350,-1794.43 2296.81,-1750.33 2268.1,-1757.43 2199,-1757.43 1761,-1757.43 1761,-1757.43 1761,-1757.43 1615,-1757.43 1579,-1775.43 1433,-1775.43 1101,-1775.43 1101,-1775.43 1101,-1775.43 1043.16,-1775.43 975.406,-1775.43 938.463,-1775.43"/>
<polygon fill="green" stroke="green" points="938.032,-1771.93 928.032,-1775.43 938.032,-1778.93 938.032,-1771.93"/>
<text text-anchor="middle" x="1652" y="-1768.23" font-family="Times,serif" font-size="14.00">Learn_Assert</text>
</g>
<!-- q7&#45;&gt;q6 -->
<g id="edge61" class="edge"><title>q7&#45;&gt;q6</title>
<path fill="none" stroke="green" d="M2399.37,-1883.94C2420.33,-1905.9 2462.61,-1953.72 2484,-2002.43 2506.54,-2053.78 2514.61,-2119.57 2517.47,-2156.34"/>
<polygon fill="green" stroke="green" points="2513.98,-2156.61 2518.17,-2166.34 2520.96,-2156.12 2513.98,-2156.61"/>
<text text-anchor="middle" x="2453" y="-2006.23" font-family="Times,serif" font-size="14.00">reverse_dll</text>
</g>
<!-- q8 -->
<g id="node10" class="node"><title>q8</title>
<ellipse fill="none" stroke="green" cx="2198" cy="-1579.43" rx="18" ry="18"/>
<text text-anchor="middle" x="2198" y="-1575.73" font-family="Times,serif" font-size="14.00">D</text>
</g>
<!-- q8&#45;&gt;q0 -->
<g id="edge66" class="edge"><title>q8&#45;&gt;q0</title>
<path fill="none" stroke="green" d="M2193.2,-1596.89C2186.42,-1623.39 2169.47,-1673.05 2134,-1695.43 2068.04,-1737.06 1511,-1732.43 1433,-1732.43 1101,-1732.43 1101,-1732.43 1101,-1732.43 1030.92,-1732.43 1013.3,-1741.88 946,-1761.43 942.795,-1762.36 939.478,-1763.48 936.22,-1764.67"/>
<polygon fill="green" stroke="green" points="934.84,-1761.45 926.799,-1768.35 937.387,-1767.97 934.84,-1761.45"/>
<text text-anchor="middle" x="1542" y="-1736.23" font-family="Times,serif" font-size="14.00">chain_node</text>
</g>
<!-- q8&#45;&gt;q0 -->
<g id="edge67" class="edge"><title>q8&#45;&gt;q0</title>
<path fill="none" stroke="green" d="M2186.9,-1593.9C2175.7,-1608.85 2156.24,-1631.72 2134,-1644.43 2073.26,-1679.14 2050.96,-1681.43 1981,-1681.43 1101,-1681.43 1101,-1681.43 1101,-1681.43 1028.48,-1681.43 1005.74,-1691.32 946,-1732.43 938.363,-1737.69 931.518,-1745.07 925.951,-1752.25"/>
<polygon fill="green" stroke="green" points="923.059,-1750.27 920.031,-1760.42 928.73,-1754.38 923.059,-1750.27"/>
<text text-anchor="middle" x="1542" y="-1685.23" font-family="Times,serif" font-size="14.00">create_sll</text>
</g>
<!-- q8&#45;&gt;q0 -->
<g id="edge68" class="edge"><title>q8&#45;&gt;q0</title>
<path fill="none" stroke="green" d="M2181.05,-1585.89C2145.67,-1599.61 2057.68,-1630.43 1981,-1630.43 1101,-1630.43 1101,-1630.43 1101,-1630.43 1028.48,-1630.43 998.26,-1631.15 946,-1681.43 927.858,-1698.89 919.044,-1726.61 914.809,-1747.43"/>
<polygon fill="green" stroke="green" points="911.357,-1746.85 913.031,-1757.31 918.247,-1748.09 911.357,-1746.85"/>
<text text-anchor="middle" x="1542" y="-1634.23" font-family="Times,serif" font-size="14.00">init_back_link</text>
</g>
<!-- q8&#45;&gt;q0 -->
<g id="edge69" class="edge"><title>q8&#45;&gt;q0</title>
<path fill="none" stroke="green" d="M2179.92,-1579.43C2143.41,-1579.43 2055.06,-1579.43 1981,-1579.43 1101,-1579.43 1101,-1579.43 1101,-1579.43 1028.62,-1579.43 995.182,-1576.32 946,-1629.43 930.284,-1646.4 919.537,-1710.02 914.423,-1747.44"/>
<polygon fill="green" stroke="green" points="910.909,-1747.32 913.073,-1757.69 917.849,-1748.23 910.909,-1747.32"/>
<text text-anchor="middle" x="1542" y="-1583.23" font-family="Times,serif" font-size="14.00">reverse_dll</text>
</g>
<!-- q8&#45;&gt;q0 -->
<g id="edge70" class="edge"><title>q8&#45;&gt;q0</title>
<path fill="none" stroke="green" d="M2181.05,-1572.97C2145.67,-1559.25 2057.68,-1528.43 1981,-1528.43 1101,-1528.43 1101,-1528.43 1101,-1528.43 1028.75,-1528.43 993.628,-1523.1 946,-1577.43 924.232,-1602.26 915.522,-1698.53 912.459,-1747.09"/>
<polygon fill="green" stroke="green" points="908.956,-1747.05 911.858,-1757.24 915.944,-1747.46 908.956,-1747.05"/>
<text text-anchor="middle" x="1542" y="-1532.23" font-family="Times,serif" font-size="14.00">remove_fw_link</text>
</g>
<!-- q8&#45;&gt;q0 -->
<g id="edge71" class="edge"><title>q8&#45;&gt;q0</title>
<path fill="none" stroke="green" d="M2183.84,-1567.44C2171.65,-1556.82 2152.63,-1541.49 2134,-1531.43 2070.55,-1497.16 2053.11,-1477.43 1981,-1477.43 1101,-1477.43 1101,-1477.43 1101,-1477.43 1028.88,-1477.43 992.722,-1470.5 946,-1525.43 918.058,-1558.28 912.393,-1688.39 911.267,-1746.79"/>
<polygon fill="green" stroke="green" points="907.762,-1747.09 911.101,-1757.14 914.761,-1747.2 907.762,-1747.09"/>
<text text-anchor="middle" x="1542" y="-1481.23" font-family="Times,serif" font-size="14.00">check_seq_next</text>
</g>
<!-- q8&#45;&gt;q0 -->
<g id="edge73" class="edge"><title>q8&#45;&gt;q0</title>
<path fill="none" stroke="green" d="M2190.39,-1562.83C2180.97,-1541.18 2161.69,-1503.48 2134,-1481.43 2077.46,-1436.43 2053.26,-1426.43 1981,-1426.43 1651,-1426.43 1651,-1426.43 1651,-1426.43 1493.97,-1426.43 1059.66,-1366.08 946,-1474.43 926.442,-1493.08 915.733,-1675.67 912.267,-1747.04"/>
<polygon fill="green" stroke="green" points="908.767,-1746.96 911.79,-1757.12 915.759,-1747.29 908.767,-1746.96"/>
<text text-anchor="middle" x="1542" y="-1429.23" font-family="Times,serif" font-size="14.00">Learn_Assert</text>
</g>
<!-- q8&#45;&gt;q7 -->
<g id="edge72" class="edge"><title>q8&#45;&gt;q7</title>
<path fill="none" stroke="green" d="M2213.2,-1589.14C2243.37,-1610.56 2314.02,-1665.01 2350,-1728.43 2370.67,-1764.86 2379.22,-1813.25 2382.69,-1843.36"/>
<polygon fill="green" stroke="green" points="2379.24,-1843.98 2383.76,-1853.57 2386.2,-1843.26 2379.24,-1843.98"/>
<text text-anchor="middle" x="2306" y="-1732.23" font-family="Times,serif" font-size="14.00">check_seq_prev</text>
</g>
<!-- q9 -->
<g id="node11" class="node"><title>q9</title>
<ellipse fill="none" stroke="green" cx="1980" cy="-1266.43" rx="18" ry="18"/>
<text text-anchor="middle" x="1980" y="-1262.73" font-family="Times,serif" font-size="14.00">D</text>
</g>
<!-- q9&#45;&gt;q0 -->
<g id="edge74" class="edge"><title>q9&#45;&gt;q0</title>
<path fill="none" stroke="green" d="M1973,-1283.18C1964.42,-1304.37 1946.48,-1340.07 1918,-1356.43 1824.14,-1410.36 1023.72,-1347.08 946,-1422.43 922.826,-1444.9 914.135,-1667.29 911.748,-1747.1"/>
<polygon fill="green" stroke="green" points="908.241,-1747.29 911.452,-1757.38 915.238,-1747.49 908.241,-1747.29"/>
<text text-anchor="middle" x="1432" y="-1386.23" font-family="Times,serif" font-size="14.00">chain_node</text>
</g>
<!-- q9&#45;&gt;q0 -->
<g id="edge75" class="edge"><title>q9&#45;&gt;q0</title>
<path fill="none" stroke="green" d="M1967.54,-1280.26C1956.34,-1292.67 1938.08,-1310.18 1918,-1318.43 1817.82,-1359.61 1022.61,-1315.86 946,-1392.43 921.004,-1417.42 913.414,-1663.04 911.536,-1747.26"/>
<polygon fill="green" stroke="green" points="908.034,-1747.3 911.321,-1757.37 915.033,-1747.45 908.034,-1747.3"/>
<text text-anchor="middle" x="1432" y="-1347.23" font-family="Times,serif" font-size="14.00">create_sll</text>
</g>
<!-- q9&#45;&gt;q0 -->
<g id="edge76" class="edge"><title>q9&#45;&gt;q0</title>
<path fill="none" stroke="green" d="M1962.56,-1270.9C1950.35,-1274.04 1933.25,-1278.09 1918,-1280.43 1916.52,-1280.66 1057.5,-1348.3 1056,-1348.43 1007.06,-1352.81 980.468,-1324.42 946,-1359.43 918.85,-1387.01 912.64,-1658.16 911.328,-1747.24"/>
<polygon fill="green" stroke="green" points="907.826,-1747.35 911.188,-1757.4 914.826,-1747.45 907.826,-1747.35"/>
<text text-anchor="middle" x="1432" y="-1326.23" font-family="Times,serif" font-size="14.00">init_back_link</text>
</g>
<!-- q9&#45;&gt;q0 -->
<g id="edge77" class="edge"><title>q9&#45;&gt;q0</title>
<path fill="none" stroke="green" d="M1961.62,-1266.29C1832.09,-1265.44 1020.35,-1263.1 946,-1338.43 917.324,-1367.48 912.13,-1654.73 911.2,-1747.03"/>
<polygon fill="green" stroke="green" points="907.698,-1747.26 911.107,-1757.29 914.698,-1747.32 907.698,-1747.26"/>
<text text-anchor="middle" x="1432" y="-1280.23" font-family="Times,serif" font-size="14.00">reverse_dll</text>
</g>
<!-- q9&#45;&gt;q0 -->
<g id="edge78" class="edge"><title>q9&#45;&gt;q0</title>
<path fill="none" stroke="green" d="M1961.92,-1265.11C1949.7,-1264.21 1932.84,-1263.07 1918,-1262.43 1558.28,-1246.97 1497.88,-1247.52 1386,-1253.43 1238.72,-1261.22 1202.42,-1270.69 1056,-1288.43 1007.02,-1294.37 979.8,-1267.49 946,-1303.43 915.58,-1335.78 911.578,-1650.05 911.069,-1747.06"/>
<polygon fill="green" stroke="green" points="907.568,-1747.26 911.024,-1757.28 914.568,-1747.29 907.568,-1747.26"/>
<text text-anchor="middle" x="1432" y="-1257.23" font-family="Times,serif" font-size="14.00">remove_fw_link</text>
</g>
<!-- q9&#45;&gt;q0 -->
<g id="edge80" class="edge"><title>q9&#45;&gt;q0</title>
<path fill="none" stroke="green" d="M1962.25,-1262.83C1950.04,-1260.35 1933.07,-1257.19 1918,-1255.43 1703.39,-1230.33 1095.67,-1124.6 946,-1280.43 913.608,-1314.16 910.985,-1646.71 910.935,-1746.97"/>
<polygon fill="green" stroke="green" points="907.435,-1747.24 910.939,-1757.24 914.435,-1747.23 907.435,-1747.24"/>
<text text-anchor="middle" x="1432" y="-1208.23" font-family="Times,serif" font-size="14.00">check_seq_prev</text>
</g>
<!-- q9&#45;&gt;q0 -->
<g id="edge81" class="edge"><title>q9&#45;&gt;q0</title>
<path fill="none" stroke="green" d="M1963.37,-1258.39C1951.28,-1252.52 1933.98,-1244.84 1918,-1240.43 1548.31,-1138.43 1435.79,-1148.23 1056,-1201.43 1006.44,-1208.37 978.608,-1187.48 946,-1225.43 911.826,-1265.21 910.516,-1640.25 910.844,-1747.13"/>
<polygon fill="green" stroke="green" points="907.345,-1747.46 910.883,-1757.44 914.345,-1747.43 907.345,-1747.46"/>
<text text-anchor="middle" x="1432" y="-1168.23" font-family="Times,serif" font-size="14.00">Learn_Assert</text>
</g>
<!-- q9&#45;&gt;q8 -->
<g id="edge79" class="edge"><title>q9&#45;&gt;q8</title>
<path fill="none" stroke="green" d="M1995.92,-1275.31C2026.23,-1294.09 2095.41,-1340.79 2134,-1397.43 2167.15,-1446.1 2184.51,-1513.94 2192.11,-1551.54"/>
<polygon fill="green" stroke="green" points="2188.75,-1552.59 2194.08,-1561.75 2195.62,-1551.26 2188.75,-1552.59"/>
<text text-anchor="middle" x="2088" y="-1401.23" font-family="Times,serif" font-size="14.00">check_seq_next</text>
</g>
<!-- q10 -->
<g id="node12" class="node"><title>q10</title>
<ellipse fill="none" stroke="green" cx="1762" cy="-974.432" rx="18" ry="18"/>
<text text-anchor="middle" x="1762" y="-970.732" font-family="Times,serif" font-size="14.00">D</text>
</g>
<!-- q10&#45;&gt;q0 -->
<g id="edge82" class="edge"><title>q10&#45;&gt;q0</title>
<path fill="none" stroke="green" d="M1756.99,-992.173C1750.01,-1018.58 1732.88,-1067.56 1698,-1090.43 1557.72,-1182.42 1062.76,-1035.98 946,-1156.43 925.181,-1177.91 914.126,-1628.88 911.577,-1747.21"/>
<polygon fill="green" stroke="green" points="908.076,-1747.22 911.363,-1757.29 915.075,-1747.37 908.076,-1747.22"/>
<text text-anchor="middle" x="1322" y="-1120.23" font-family="Times,serif" font-size="14.00">chain_node</text>
</g>
<!-- q10&#45;&gt;q0 -->
<g id="edge83" class="edge"><title>q10&#45;&gt;q0</title>
<path fill="none" stroke="green" d="M1750.91,-988.915C1739.71,-1003.87 1720.26,-1026.76 1698,-1039.43 1636.46,-1074.48 1613.82,-1076.43 1543,-1076.43 1101,-1076.43 1101,-1076.43 1101,-1076.43 1030.28,-1076.43 991.434,-1058.23 946,-1112.43 925.312,-1137.11 914.069,-1624.06 911.549,-1747.29"/>
<polygon fill="green" stroke="green" points="908.047,-1747.36 911.344,-1757.43 915.045,-1747.5 908.047,-1747.36"/>
<text text-anchor="middle" x="1322" y="-1080.23" font-family="Times,serif" font-size="14.00">create_sll</text>
</g>
<!-- q10&#45;&gt;q0 -->
<g id="edge85" class="edge"><title>q10&#45;&gt;q0</title>
<path fill="none" stroke="green" d="M1744.89,-980.891C1709.17,-994.614 1620.35,-1025.43 1543,-1025.43 1101,-1025.43 1101,-1025.43 1101,-1025.43 1029.27,-1025.43 990.485,-1014.16 946,-1070.43 924.678,-1097.4 913.839,-1619.05 911.492,-1747.19"/>
<polygon fill="green" stroke="green" points="907.989,-1747.31 911.308,-1757.37 914.988,-1747.43 907.989,-1747.31"/>
<text text-anchor="middle" x="1322" y="-1029.23" font-family="Times,serif" font-size="14.00">reverse_dll</text>
</g>
<!-- q10&#45;&gt;q0 -->
<g id="edge86" class="edge"><title>q10&#45;&gt;q0</title>
<path fill="none" stroke="green" d="M1743.76,-974.432C1706.91,-974.432 1617.75,-974.432 1543,-974.432 1101,-974.432 1101,-974.432 1101,-974.432 1029.01,-974.432 990.215,-964.624 946,-1021.43 923.321,-1050.57 913.445,-1612.98 911.408,-1746.96"/>
<polygon fill="green" stroke="green" points="907.905,-1747.17 911.255,-1757.22 914.904,-1747.28 907.905,-1747.17"/>
<text text-anchor="middle" x="1322" y="-978.232" font-family="Times,serif" font-size="14.00">remove_fw_link</text>
</g>
<!-- q10&#45;&gt;q0 -->
<g id="edge87" class="edge"><title>q10&#45;&gt;q0</title>
<path fill="none" stroke="green" d="M1744.89,-967.972C1709.17,-954.249 1620.35,-923.432 1543,-923.432 1101,-923.432 1101,-923.432 1101,-923.432 1029.01,-923.432 990.131,-913.559 946,-970.432 921.733,-1001.7 913.016,-1607.11 911.323,-1746.83"/>
<polygon fill="green" stroke="green" points="907.82,-1747.1 911.201,-1757.14 914.819,-1747.18 907.82,-1747.1"/>
<text text-anchor="middle" x="1322" y="-927.232" font-family="Times,serif" font-size="14.00">check_seq_next</text>
</g>
<!-- q10&#45;&gt;q0 -->
<g id="edge88" class="edge"><title>q10&#45;&gt;q0</title>
<path fill="none" stroke="green" d="M1747.85,-962.418C1735.66,-951.79 1716.65,-936.456 1698,-926.432 1633.74,-891.896 1615.95,-872.432 1543,-872.432 1101,-872.432 1101,-872.432 1101,-872.432 1029.01,-872.432 990.058,-862.502 946,-919.432 920.133,-952.856 912.607,-1601.91 911.245,-1746.88"/>
<polygon fill="green" stroke="green" points="907.743,-1747.13 911.151,-1757.17 914.743,-1747.2 907.743,-1747.13"/>
<text text-anchor="middle" x="1322" y="-876.232" font-family="Times,serif" font-size="14.00">check_seq_prev</text>
</g>
<!-- q10&#45;&gt;q0 -->
<g id="edge89" class="edge"><title>q10&#45;&gt;q0</title>
<path fill="none" stroke="green" d="M1754.34,-958.004C1744.86,-936.582 1725.53,-899.274 1698,-877.432 1640.62,-831.904 1616.25,-821.432 1543,-821.432 1101,-821.432 1101,-821.432 1101,-821.432 1029.01,-821.432 989.992,-811.452 946,-868.432 918.519,-904.025 912.218,-1597.39 911.176,-1747.1"/>
<polygon fill="green" stroke="green" points="907.674,-1747.27 911.107,-1757.3 914.674,-1747.32 907.674,-1747.27"/>
<text text-anchor="middle" x="1322" y="-825.232" font-family="Times,serif" font-size="14.00">Learn_Assert</text>
</g>
<!-- q10&#45;&gt;q9 -->
<g id="edge84" class="edge"><title>q10&#45;&gt;q9</title>
<path fill="none" stroke="green" d="M1777.25,-984.883C1806.96,-1007.3 1876.23,-1062.92 1918,-1123.43 1943.37,-1160.19 1961.43,-1209.18 1971.03,-1239.23"/>
<polygon fill="green" stroke="green" points="1967.76,-1240.51 1974.07,-1249.02 1974.45,-1238.43 1967.76,-1240.51"/>
<text text-anchor="middle" x="1872" y="-1127.23" font-family="Times,serif" font-size="14.00">init_back_link</text>
</g>
<!-- q11 -->
<g id="node13" class="node"><title>q11</title>
<ellipse fill="none" stroke="green" cx="1542" cy="-680.432" rx="18" ry="18"/>
<text text-anchor="middle" x="1542" y="-676.732" font-family="Times,serif" font-size="14.00">D</text>
</g>
<!-- q11&#45;&gt;q0 -->
<g id="edge91" class="edge"><title>q11&#45;&gt;q0</title>
<path fill="none" stroke="green" d="M1532.33,-695.646C1521.83,-712.467 1502.47,-738.847 1478,-751.432 1372.28,-805.793 1027.12,-720.535 946,-807.432 913.116,-842.657 911.06,-1591.05 910.989,-1747.08"/>
<polygon fill="green" stroke="green" points="907.489,-1747.27 910.987,-1757.28 914.489,-1747.28 907.489,-1747.27"/>
<text text-anchor="middle" x="1212" y="-773.232" font-family="Times,serif" font-size="14.00">create_sll</text>
</g>
<!-- q11&#45;&gt;q0 -->
<g id="edge92" class="edge"><title>q11&#45;&gt;q0</title>
<path fill="none" stroke="green" d="M1526.66,-689.97C1514.31,-697.676 1495.73,-708.086 1478,-713.432 1364.2,-747.733 1027.12,-681.571 946,-768.432 911.711,-805.145 910.778,-1586.94 910.947,-1746.97"/>
<polygon fill="green" stroke="green" points="907.447,-1747.4 910.961,-1757.4 914.447,-1747.39 907.447,-1747.4"/>
<text text-anchor="middle" x="1212" y="-726.232" font-family="Times,serif" font-size="14.00">init_back_link</text>
</g>
<!-- q11&#45;&gt;q0 -->
<g id="edge93" class="edge"><title>q11&#45;&gt;q0</title>
<path fill="none" stroke="green" d="M1523.89,-680.407C1430.62,-680.449 986.333,-682.94 946,-726.432 910.344,-764.879 910.513,-1582.47 910.908,-1746.81"/>
<polygon fill="green" stroke="green" points="907.409,-1747.09 910.936,-1757.09 914.409,-1747.08 907.409,-1747.09"/>
<text text-anchor="middle" x="1212" y="-694.232" font-family="Times,serif" font-size="14.00">reverse_dll</text>
</g>
<!-- q11&#45;&gt;q0 -->
<g id="edge94" class="edge"><title>q11&#45;&gt;q0</title>
<path fill="none" stroke="green" d="M1524.03,-677.884C1435.18,-664.978 1024.71,-610.769 946,-698.432 909.995,-738.531 910.451,-1579.22 910.9,-1746.6"/>
<polygon fill="green" stroke="green" points="907.402,-1747.06 910.931,-1757.05 914.402,-1747.04 907.402,-1747.06"/>
<text text-anchor="middle" x="1212" y="-656.232" font-family="Times,serif" font-size="14.00">remove_fw_link</text>
</g>
<!-- q11&#45;&gt;q0 -->
<g id="edge96" class="edge"><title>q11&#45;&gt;q0</title>
<path fill="none" stroke="green" d="M1525.26,-673.523C1512.7,-668.298 1494.54,-661.371 1478,-657.432 1363,-630.038 1026.1,-569.484 946,-656.432 907.944,-697.739 910.078,-1576.94 910.85,-1747.07"/>
<polygon fill="green" stroke="green" points="907.351,-1747.25 910.898,-1757.23 914.351,-1747.22 907.351,-1747.25"/>
<text text-anchor="middle" x="1212" y="-623.232" font-family="Times,serif" font-size="14.00">check_seq_prev</text>
</g>
<!-- q11&#45;&gt;q0 -->
<g id="edge97" class="edge"><title>q11&#45;&gt;q0</title>
<path fill="none" stroke="green" d="M1528.03,-668.572C1515.96,-658.207 1497.03,-643.577 1478,-635.432 1369.23,-588.874 1026.9,-528.095 946,-614.432 906.095,-657.02 909.743,-1572.27 910.805,-1746.81"/>
<polygon fill="green" stroke="green" points="907.306,-1747.03 910.869,-1757.01 914.306,-1746.98 907.306,-1747.03"/>
<text text-anchor="middle" x="1212" y="-586.232" font-family="Times,serif" font-size="14.00">Learn_Assert</text>
</g>
<!-- q11&#45;&gt;q10 -->
<g id="edge95" class="edge"><title>q11&#45;&gt;q10</title>
<path fill="none" stroke="green" d="M1558.63,-687.628C1589.66,-702.685 1659.38,-740.472 1698,-792.432 1733.22,-839.816 1749.83,-908.418 1756.74,-946.426"/>
<polygon fill="green" stroke="green" points="1753.37,-947.476 1758.51,-956.738 1760.27,-946.289 1753.37,-947.476"/>
<text text-anchor="middle" x="1652" y="-796.232" font-family="Times,serif" font-size="14.00">check_seq_next</text>
</g>
<!-- q11&#45;&gt;q11 -->
<g id="edge90" class="edge"><title>q11&#45;&gt;q11</title>
<path fill="none" stroke="green" d="M1526.86,-690.751C1516.11,-702.649 1521.16,-716.432 1542,-716.432 1557.79,-716.432 1564.52,-708.516 1562.17,-699.504"/>
<polygon fill="green" stroke="green" points="1565.16,-697.678 1557.14,-690.751 1559.09,-701.165 1565.16,-697.678"/>
<text text-anchor="middle" x="1542" y="-720.232" font-family="Times,serif" font-size="14.00">chain_node</text>
</g>
<!-- q12 -->
<g id="node14" class="node"><title>q12</title>
<ellipse fill="none" stroke="green" cx="1322" cy="-389.432" rx="18" ry="18"/>
<text text-anchor="middle" x="1322" y="-385.732" font-family="Times,serif" font-size="14.00">D</text>
</g>
<!-- q12&#45;&gt;q0 -->
<g id="edge99" class="edge"><title>q12&#45;&gt;q0</title>
<path fill="none" stroke="green" d="M1316.63,-406.655C1309.17,-432.384 1291.43,-480.494 1258,-505.432 1144.39,-590.173 1036.84,-462.635 946,-571.432 907.109,-618.01 909.971,-1570.14 910.842,-1747.22"/>
<polygon fill="green" stroke="green" points="907.342,-1747.32 910.894,-1757.31 914.342,-1747.29 907.342,-1747.32"/>
<text text-anchor="middle" x="1102" y="-540.232" font-family="Times,serif" font-size="14.00">create_sll</text>
</g>
<!-- q12&#45;&gt;q0 -->
<g id="edge100" class="edge"><title>q12&#45;&gt;q0</title>
<path fill="none" stroke="green" d="M1310.97,-404.016C1299.82,-419.055 1280.4,-442.01 1258,-454.432 1133.96,-523.207 1036.67,-412.372 946,-521.432 905.535,-570.104 909.702,-1564.71 910.808,-1746.9"/>
<polygon fill="green" stroke="green" points="907.309,-1747.06 910.871,-1757.04 914.308,-1747.01 907.309,-1747.06"/>
<text text-anchor="middle" x="1102" y="-482.232" font-family="Times,serif" font-size="14.00">init_back_link</text>
</g>
<!-- q12&#45;&gt;q0 -->
<g id="edge101" class="edge"><title>q12&#45;&gt;q0</title>
<path fill="none" stroke="green" d="M1304.17,-393.25C1291.49,-396.108 1273.67,-400.084 1258,-403.432 1188.79,-418.22 991.466,-413.19 946,-467.432 924.717,-492.822 913.153,-1558.72 911.274,-1747.13"/>
<polygon fill="green" stroke="green" points="907.772,-1747.29 911.173,-1757.33 914.772,-1747.36 907.772,-1747.29"/>
<text text-anchor="middle" x="1102" y="-429.232" font-family="Times,serif" font-size="14.00">reverse_dll</text>
</g>
<!-- q12&#45;&gt;q0 -->
<g id="edge102" class="edge"><title>q12&#45;&gt;q0</title>
<path fill="none" stroke="green" d="M1303.96,-388.066C1236.68,-383.095 990.988,-369.08 946,-425.432 924.633,-452.195 913.108,-1555.27 911.264,-1747.13"/>
<polygon fill="green" stroke="green" points="907.763,-1747.22 911.167,-1757.25 914.763,-1747.29 907.763,-1747.22"/>
<text text-anchor="middle" x="1102" y="-392.232" font-family="Times,serif" font-size="14.00">remove_fw_link</text>
</g>
<!-- q12&#45;&gt;q0 -->
<g id="edge103" class="edge"><title>q12&#45;&gt;q0</title>
<path fill="none" stroke="green" d="M1304.02,-386.146C1236.95,-373.625 991.963,-332.299 946,-387.432 923.419,-414.518 912.87,-1552.5 911.229,-1747.23"/>
<polygon fill="green" stroke="green" points="907.729,-1747.22 911.146,-1757.25 914.729,-1747.28 907.729,-1747.22"/>
<text text-anchor="middle" x="1102" y="-368.232" font-family="Times,serif" font-size="14.00">check_seq_next</text>
</g>
<!-- q12&#45;&gt;q0 -->
<g id="edge104" class="edge"><title>q12&#45;&gt;q0</title>
<path fill="none" stroke="green" d="M1305.56,-381.697C1293.02,-375.69 1274.73,-367.547 1258,-362.432 1191.69,-342.153 992.243,-304.755 946,-356.432 921.934,-383.325 912.601,-1549.82 911.193,-1747.2"/>
<polygon fill="green" stroke="green" points="907.692,-1747.32 911.121,-1757.34 914.692,-1747.37 907.692,-1747.32"/>
<text text-anchor="middle" x="1102" y="-343.232" font-family="Times,serif" font-size="14.00">check_seq_prev</text>
</g>
<!-- q12&#45;&gt;q0 -->
<g id="edge105" class="edge"><title>q12&#45;&gt;q0</title>
<path fill="none" stroke="green" d="M1308.67,-376.632C1296.76,-364.993 1277.66,-348.189 1258,-338.432 1195.85,-307.591 992.255,-274.715 946,-326.432 921.407,-353.928 912.498,-1547.49 911.178,-1747.22"/>
<polygon fill="green" stroke="green" points="907.678,-1747.2 911.113,-1757.22 914.678,-1747.25 907.678,-1747.2"/>
<text text-anchor="middle" x="1102" y="-312.232" font-family="Times,serif" font-size="14.00">Learn_Assert</text>
</g>
<!-- q12&#45;&gt;q11 -->
<g id="edge98" class="edge"><title>q12&#45;&gt;q11</title>
<path fill="none" stroke="green" d="M1335.93,-400.98C1364.28,-426.77 1432.96,-491.871 1478,-556.432 1500.08,-588.077 1519.14,-628.527 1530.35,-654.462"/>
<polygon fill="green" stroke="green" points="1527.25,-656.133 1534.39,-663.969 1533.7,-653.396 1527.25,-656.133"/>
<text text-anchor="middle" x="1432" y="-560.232" font-family="Times,serif" font-size="14.00">chain_node</text>
</g>
<!-- q13&#45;&gt;q0 -->
<g id="edge107" class="edge"><title>q13&#45;&gt;q0</title>
<path fill="none" stroke="green" d="M1089.35,-170.705C1077.64,-183.186 1058.43,-201.406 1038,-211.432 1000.52,-229.823 972.734,-198.361 946,-230.432 920.737,-260.738 912.346,-1540.47 911.154,-1747.33"/>
<polygon fill="green" stroke="green" points="907.654,-1747.37 911.097,-1757.39 914.654,-1747.41 907.654,-1747.37"/>
<text text-anchor="middle" x="992" y="-234.232" font-family="Times,serif" font-size="14.00">create_sll</text>
</g>
<!-- q13&#45;&gt;q0 -->
<g id="edge108" class="edge"><title>q13&#45;&gt;q0</title>
<path fill="none" stroke="green" d="M1084.47,-161.847C1071.79,-165.18 1053.84,-169.787 1038,-173.432 997.312,-182.795 972.725,-160.354 946,-192.432 920.111,-223.506 912.239,-1536.06 911.14,-1746.97"/>
<polygon fill="green" stroke="green" points="907.639,-1747.2 911.088,-1757.22 914.639,-1747.24 907.639,-1747.2"/>
<text text-anchor="middle" x="992" y="-196.232" font-family="Times,serif" font-size="14.00">init_back_link</text>
</g>
<!-- q13&#45;&gt;q0 -->
<g id="edge109" class="edge"><title>q13&#45;&gt;q0</title>
<path fill="none" stroke="green" d="M1084.22,-154.266C1048.18,-147.903 965.14,-135.701 946,-154.432 916.354,-183.444 911.628,-1534.01 911.066,-1747.22"/>
<polygon fill="green" stroke="green" points="907.566,-1747.29 911.04,-1757.3 914.566,-1747.31 907.566,-1747.29"/>
<text text-anchor="middle" x="992" y="-158.232" font-family="Times,serif" font-size="14.00">reverse_dll</text>
</g>
<!-- q13&#45;&gt;q0 -->
<g id="edge110" class="edge"><title>q13&#45;&gt;q0</title>
<path fill="none" stroke="green" d="M1086.72,-147.525C1056.32,-127.752 984.827,-88.4198 946,-126.432 915.832,-155.966 911.543,-1531.27 911.055,-1747.07"/>
<polygon fill="green" stroke="green" points="907.555,-1747.26 911.033,-1757.26 914.555,-1747.27 907.555,-1747.26"/>
<text text-anchor="middle" x="992" y="-130.232" font-family="Times,serif" font-size="14.00">remove_fw_link</text>
</g>
<!-- q13&#45;&gt;q0 -->
<g id="edge111" class="edge"><title>q13&#45;&gt;q0</title>
<path fill="none" stroke="green" d="M1091.83,-142.463C1081.15,-126.621 1061.88,-102.542 1038,-92.4316 1000.35,-76.4895 975.212,-63.8209 946,-92.4316 915.185,-122.613 911.439,-1529.16 911.043,-1747.17"/>
<polygon fill="green" stroke="green" points="907.542,-1747.45 911.025,-1757.45 914.542,-1747.46 907.542,-1747.45"/>
<text text-anchor="middle" x="992" y="-96.2316" font-family="Times,serif" font-size="14.00">check_seq_next</text>
</g>
<!-- q13&#45;&gt;q0 -->
<g id="edge112" class="edge"><title>q13&#45;&gt;q0</title>
<path fill="none" stroke="green" d="M1096.11,-140.387C1088.26,-116.608 1070.35,-74.3789 1038,-56.4316 1002.25,-36.594 975.206,-27.8146 946,-56.4316 914.501,-87.2962 911.331,-1526.82 911.03,-1747.24"/>
<polygon fill="green" stroke="green" points="907.53,-1747.35 911.017,-1757.35 914.53,-1747.36 907.53,-1747.35"/>
<text text-anchor="middle" x="992" y="-60.2316" font-family="Times,serif" font-size="14.00">check_seq_prev</text>
</g>
<!-- q13&#45;&gt;q0 -->
<g id="edge113" class="edge"><title>q13&#45;&gt;q0</title>
<path fill="none" stroke="green" d="M1098.92,-139.552C1094.26,-108.738 1079.87,-46.3457 1038,-19.4316 1003.6,2.67692 975.199,9.19168 946,-19.4316 913.813,-50.9836 911.225,-1523 911.018,-1746.99"/>
<polygon fill="green" stroke="green" points="907.518,-1747.25 911.009,-1757.25 914.518,-1747.25 907.518,-1747.25"/>
<text text-anchor="middle" x="992" y="-23.2316" font-family="Times,serif" font-size="14.00">Learn_Assert</text>
</g>
<!-- q13&#45;&gt;q12 -->
<g id="edge106" class="edge"><title>q13&#45;&gt;q12</title>
<path fill="none" stroke="green" d="M1120.19,-158.14C1151.77,-160.365 1219.31,-169.552 1258,-207.432 1300.79,-249.321 1314.54,-321.666 1318.94,-361.358"/>
<polygon fill="green" stroke="green" points="1315.47,-361.795 1319.93,-371.404 1322.44,-361.109 1315.47,-361.795"/>
<text text-anchor="middle" x="1212" y="-211.232" font-family="Times,serif" font-size="14.00">chain_node</text>
</g>
<!-- iq0 -->
<g id="node16" class="node"><title>iq0</title>
</g>
<!-- iq0&#45;&gt;q0 -->
<g id="edge1" class="edge"><title>iq0&#45;&gt;q0</title>
<path fill="none" stroke="blue" d="M409.12,-1646.41C499.751,-1643.36 799.212,-1637.72 874,-1692.43 891.679,-1705.36 900.489,-1728.99 904.844,-1747.74"/>
<polygon fill="blue" stroke="blue" points="901.417,-1748.45 906.833,-1757.55 908.277,-1747.06 901.417,-1748.45"/>
</g>
</g>
</svg>
