<?xml version="1.0" encoding="UTF-8" standalone="no"?>
<!DOCTYPE svg PUBLIC "-//W3C//DTD SVG 1.1//EN"
 "http://www.w3.org/Graphics/SVG/1.1/DTD/svg11.dtd">
<!-- Generated by graphviz version 2.34.0 (20141125.1709)
 -->
<!-- Title: finite_automaton Pages: 1 -->
<svg width="495pt" height="576pt"
 viewBox="0.00 0.00 494.67 576.00" xmlns="http://www.w3.org/2000/svg" xmlns:xlink="http://www.w3.org/1999/xlink">
<g id="graph0" class="graph" transform="scale(0.147487 0.147487) rotate(0) translate(4 3901.44)">
<title>finite_automaton</title>
<polygon fill="white" stroke="white" points="-4,4 -4,-3901.44 3350,-3901.44 3350,4 -4,4"/>
<!-- dom_edges -->
<g id="node1" class="node"><title>dom_edges</title>
<polygon fill="none" stroke="green" points="764,-1742.44 0,-1742.44 0,-1706.44 764,-1706.44 764,-1742.44"/>
<text text-anchor="middle" x="382" y="-1720.74" font-family="Times,serif" font-size="14.00">Dominating edges: chain_node, create_sll, init_back_link, reverse_dll, remove_fw_link, check_seq_next, check_seq_prev, Learn_Assert</text>
</g>
<!-- q1 -->
<g id="node2" class="node"><title>q1</title>
<ellipse fill="none" stroke="green" cx="382" cy="-1963.44" rx="18" ry="18"/>
<ellipse fill="none" stroke="green" cx="382" cy="-1963.44" rx="22" ry="22"/>
<text text-anchor="middle" x="382" y="-1959.74" font-family="Times,serif" font-size="14.00">D</text>
</g>
<!-- q0 -->
<g id="node3" class="node"><title>q0</title>
<ellipse fill="none" stroke="green" cx="910" cy="-1906.44" rx="18" ry="18"/>
<text text-anchor="middle" x="910" y="-1902.74" font-family="Times,serif" font-size="14.00">D</text>
</g>
<!-- q1&#45;&gt;q0 -->
<g id="edge10" class="edge"><title>q1&#45;&gt;q0</title>
<path fill="none" stroke="green" d="M400.526,-1975.42C469.324,-2020.82 724.453,-2173.93 874,-2055.44 892.657,-2040.66 902.342,-1973.59 906.475,-1934.66"/>
<polygon fill="green" stroke="green" points="909.98,-1934.79 907.497,-1924.49 903.015,-1934.09 909.98,-1934.79"/>
<text text-anchor="middle" x="828" y="-2096.24" font-family="Times,serif" font-size="14.00">chain_node</text>
</g>
<!-- q1&#45;&gt;q0 -->
<g id="edge11" class="edge"><title>q1&#45;&gt;q0</title>
<path fill="none" stroke="green" d="M403.748,-1967.37C492.258,-1983.89 835.487,-2045.68 874,-2017.44 899.636,-1998.64 906.982,-1961.03 908.835,-1934.82"/>
<polygon fill="green" stroke="green" points="912.337,-1934.88 909.322,-1924.72 905.345,-1934.54 912.337,-1934.88"/>
<text text-anchor="middle" x="828" y="-2028.24" font-family="Times,serif" font-size="14.00">create_sll</text>
</g>
<!-- q1&#45;&gt;q0 -->
<g id="edge12" class="edge"><title>q1&#45;&gt;q0</title>
<path fill="none" stroke="green" d="M403.961,-1965.49C492.588,-1973.97 833.852,-2004.72 874,-1979.44 889.709,-1969.55 898.525,-1950.44 903.379,-1934.25"/>
<polygon fill="green" stroke="green" points="906.874,-1934.72 906.029,-1924.16 900.103,-1932.94 906.874,-1934.72"/>
<text text-anchor="middle" x="828" y="-1992.24" font-family="Times,serif" font-size="14.00">init_back_link</text>
</g>
<!-- q1&#45;&gt;q0 -->
<g id="edge13" class="edge"><title>q1&#45;&gt;q0</title>
<path fill="none" stroke="green" d="M404.089,-1963.39C492.49,-1963.06 830.615,-1960.56 874,-1941.44 880.657,-1938.51 886.739,-1933.69 891.897,-1928.55"/>
<polygon fill="green" stroke="green" points="894.638,-1930.73 898.755,-1920.97 889.449,-1926.04 894.638,-1930.73"/>
<text text-anchor="middle" x="828" y="-1956.24" font-family="Times,serif" font-size="14.00">reverse_dll</text>
</g>
<!-- q1&#45;&gt;q0 -->
<g id="edge14" class="edge"><title>q1&#45;&gt;q0</title>
<path fill="none" stroke="green" d="M403.944,-1961.17C486.469,-1952.23 789.155,-1919.43 881.843,-1909.38"/>
<polygon fill="green" stroke="green" points="882.274,-1912.86 891.838,-1908.3 881.519,-1905.9 882.274,-1912.86"/>
<text text-anchor="middle" x="828" y="-1922.24" font-family="Times,serif" font-size="14.00">remove_fw_link</text>
</g>
<!-- q1&#45;&gt;q0 -->
<g id="edge15" class="edge"><title>q1&#45;&gt;q0</title>
<path fill="none" stroke="green" d="M403.587,-1958.31C462.238,-1943.98 635.423,-1903.74 782,-1890.44 822.722,-1886.75 834.047,-1881.74 874,-1890.44 877.501,-1891.2 881.071,-1892.35 884.527,-1893.68"/>
<polygon fill="green" stroke="green" points="883.254,-1896.95 893.816,-1897.78 886.08,-1890.54 883.254,-1896.95"/>
<text text-anchor="middle" x="828" y="-1894.24" font-family="Times,serif" font-size="14.00">check_seq_next</text>
</g>
<!-- q1&#45;&gt;q0 -->
<g id="edge16" class="edge"><title>q1&#45;&gt;q0</title>
<path fill="none" stroke="green" d="M403.033,-1956.76C460.914,-1937.86 633.711,-1884.21 782,-1866.44 822.599,-1861.58 836.765,-1849.54 874,-1866.44 881.799,-1869.98 888.543,-1876.21 893.973,-1882.72"/>
<polygon fill="green" stroke="green" points="891.327,-1885.02 900.127,-1890.92 896.927,-1880.82 891.327,-1885.02"/>
<text text-anchor="middle" x="828" y="-1870.24" font-family="Times,serif" font-size="14.00">check_seq_prev</text>
</g>
<!-- q1&#45;&gt;q0 -->
<g id="edge17" class="edge"><title>q1&#45;&gt;q0</title>
<path fill="none" stroke="green" d="M402.423,-1955.02C459.355,-1930.84 631.313,-1861.49 782,-1838.44 822.419,-1832.26 839.093,-1817.15 874,-1838.44 888.552,-1847.32 897.31,-1864.39 902.427,-1879.21"/>
<polygon fill="green" stroke="green" points="899.143,-1880.44 905.413,-1888.98 905.837,-1878.39 899.143,-1880.44"/>
<text text-anchor="middle" x="828" y="-1842.24" font-family="Times,serif" font-size="14.00">Learn_Assert</text>
</g>
<!-- q0&#45;&gt;q0 -->
<g id="edge2" class="edge"><title>q0&#45;&gt;q0</title>
<path fill="none" stroke="green" d="M907.881,-1924.59C907.555,-1933.98 908.261,-1942.44 910,-1942.44 911.06,-1942.44 911.736,-1939.3 912.029,-1934.72"/>
<polygon fill="green" stroke="green" points="915.53,-1934.62 912.119,-1924.59 908.53,-1934.56 915.53,-1934.62"/>
<text text-anchor="middle" x="910" y="-1946.24" font-family="Times,serif" font-size="14.00">chain_node</text>
</g>
<!-- q0&#45;&gt;q0 -->
<g id="edge4" class="edge"><title>q0&#45;&gt;q0</title>
<path fill="none" stroke="green" d="M906.509,-1924.14C904.581,-1941.44 905.744,-1960.44 910,-1960.44 913.424,-1960.44 914.847,-1948.13 914.267,-1934.32"/>
<polygon fill="green" stroke="green" points="917.741,-1933.84 913.491,-1924.14 910.762,-1934.38 917.741,-1933.84"/>
<text text-anchor="middle" x="910" y="-1964.24" font-family="Times,serif" font-size="14.00">init_back_link</text>
</g>
<!-- q0&#45;&gt;q0 -->
<g id="edge5" class="edge"><title>q0&#45;&gt;q0</title>
<path fill="none" stroke="green" d="M905.613,-1924.16C901.605,-1948.55 903.068,-1978.44 910,-1978.44 916.012,-1978.44 917.91,-1955.97 915.694,-1934.08"/>
<polygon fill="green" stroke="green" points="919.163,-1933.61 914.387,-1924.16 912.222,-1934.53 919.163,-1933.61"/>
<text text-anchor="middle" x="910" y="-1982.24" font-family="Times,serif" font-size="14.00">reverse_dll</text>
</g>
<!-- q0&#45;&gt;q0 -->
<g id="edge6" class="edge"><title>q0&#45;&gt;q0</title>
<path fill="none" stroke="green" d="M904.998,-1924.11C898.632,-1955.29 900.299,-1996.44 910,-1996.44 918.678,-1996.44 920.927,-1963.51 916.748,-1934.25"/>
<polygon fill="green" stroke="green" points="920.149,-1933.37 915.002,-1924.11 913.25,-1934.56 920.149,-1933.37"/>
<text text-anchor="middle" x="910" y="-2000.24" font-family="Times,serif" font-size="14.00">remove_fw_link</text>
</g>
<!-- q0&#45;&gt;q0 -->
<g id="edge7" class="edge"><title>q0&#45;&gt;q0</title>
<path fill="none" stroke="green" d="M904.63,-1923.72C895.655,-1961.51 897.445,-2014.44 910,-2014.44 921.476,-2014.44 923.958,-1970.21 917.446,-1933.76"/>
<polygon fill="green" stroke="green" points="920.823,-1932.81 915.37,-1923.72 913.968,-1934.22 920.823,-1932.81"/>
<text text-anchor="middle" x="910" y="-2018.24" font-family="Times,serif" font-size="14.00">check_seq_next</text>
</g>
<!-- q0&#45;&gt;q0 -->
<g id="edge8" class="edge"><title>q0&#45;&gt;q0</title>
<path fill="none" stroke="green" d="M904.312,-1923.62C892.695,-1967.84 894.591,-2032.44 910,-2032.44 924.296,-2032.44 926.961,-1976.84 917.995,-1933.49"/>
<polygon fill="green" stroke="green" points="921.371,-1932.56 915.688,-1923.62 914.555,-1934.15 921.371,-1932.56"/>
<text text-anchor="middle" x="910" y="-2036.24" font-family="Times,serif" font-size="14.00">check_seq_prev</text>
</g>
<!-- q0&#45;&gt;q0 -->
<g id="edge9" class="edge"><title>q0&#45;&gt;q0</title>
<path fill="none" stroke="green" d="M904.009,-1923.72C889.745,-1974.29 891.742,-2050.44 910,-2050.44 927.117,-2050.44 929.942,-1983.51 918.475,-1933.48"/>
<polygon fill="green" stroke="green" points="921.85,-1932.55 915.991,-1923.72 915.066,-1934.28 921.85,-1932.55"/>
<text text-anchor="middle" x="910" y="-2054.24" font-family="Times,serif" font-size="14.00">Learn_Assert</text>
</g>
<!-- q14 -->
<g id="node16" class="node"><title>q14</title>
<ellipse fill="none" stroke="green" cx="1102" cy="-157.44" rx="18" ry="18"/>
<text text-anchor="middle" x="1102" y="-153.74" font-family="Times,serif" font-size="14.00">D</text>
</g>
<!-- q0&#45;&gt;q14 -->
<g id="edge3" class="edge"><title>q0&#45;&gt;q14</title>
<path fill="none" stroke="green" d="M911.083,-1888.2C911.927,-1711.27 919.463,-305.688 946,-272.44 972.292,-239.499 1004.97,-275.626 1038,-249.44 1051.71,-238.573 1046.54,-229.151 1056,-214.44 1064.07,-201.89 1074.3,-188.761 1082.96,-178.27"/>
<polygon fill="green" stroke="green" points="1085.75,-180.392 1089.51,-170.484 1080.39,-175.889 1085.75,-180.392"/>
<text text-anchor="middle" x="992" y="-276.24" font-family="Times,serif" font-size="14.00">create_sll</text>
</g>
<!-- q2 -->
<g id="node4" class="node"><title>q2</title>
<ellipse fill="none" stroke="green" cx="3328" cy="-3722.44" rx="18" ry="18"/>
<text text-anchor="middle" x="3328" y="-3718.74" font-family="Times,serif" font-size="14.00">D</text>
</g>
<!-- q2&#45;&gt;q1 -->
<g id="edge25" class="edge"><title>q2&#45;&gt;q1</title>
<path fill="none" stroke="green" d="M3326.42,-3740.63C3324.64,-3765.82 3317.8,-3811.3 3292,-3838.44 3252,-3880.52 3227.06,-3882.44 3169,-3882.44 909,-3882.44 909,-3882.44 909,-3882.44 500.96,-3882.44 398.077,-2248.28 384.625,-1995.98"/>
<polygon fill="green" stroke="green" points="388.102,-1995.46 384.083,-1985.66 381.112,-1995.82 388.102,-1995.46"/>
<text text-anchor="middle" x="2198" y="-3886.24" font-family="Times,serif" font-size="14.00">Learn_Assert</text>
</g>
<!-- q2&#45;&gt;q0 -->
<g id="edge18" class="edge"><title>q2&#45;&gt;q0</title>
<path fill="none" stroke="green" d="M3325.15,-3740.26C3322.03,-3760.87 3313.74,-3794.27 3292,-3812.44 3249.27,-3848.16 3224.7,-3836.44 3169,-3836.44 1101,-3836.44 1101,-3836.44 1101,-3836.44 1031.29,-3836.44 991.849,-3864.95 946,-3812.44 913.708,-3775.46 911.209,-2168.55 911.016,-1934.7"/>
<polygon fill="green" stroke="green" points="914.516,-1934.61 911.009,-1924.62 907.516,-1934.62 914.516,-1934.61"/>
<text text-anchor="middle" x="2308" y="-3840.24" font-family="Times,serif" font-size="14.00">chain_node</text>
</g>
<!-- q2&#45;&gt;q0 -->
<g id="edge19" class="edge"><title>q2&#45;&gt;q0</title>
<path fill="none" stroke="green" d="M3320.02,-3739.11C3314.24,-3750.84 3304.88,-3765.9 3292,-3774.44 3245.58,-3805.22 3224.7,-3798.44 3169,-3798.44 1101,-3798.44 1101,-3798.44 1101,-3798.44 1031.29,-3798.44 991.858,-3826.94 946,-3774.44 914.377,-3738.24 911.308,-2166.51 911.027,-1934.84"/>
<polygon fill="green" stroke="green" points="914.527,-1934.55 911.015,-1924.55 907.527,-1934.55 914.527,-1934.55"/>
<text text-anchor="middle" x="2308" y="-3802.24" font-family="Times,serif" font-size="14.00">create_sll</text>
</g>
<!-- q2&#45;&gt;q0 -->
<g id="edge20" class="edge"><title>q2&#45;&gt;q0</title>
<path fill="none" stroke="green" d="M3311.19,-3729.5C3305.26,-3731.95 3298.4,-3734.55 3292,-3736.44 3238.57,-3752.19 3224.7,-3760.44 3169,-3760.44 1101,-3760.44 1101,-3760.44 1101,-3760.44 1031.29,-3760.44 991.869,-3788.93 946,-3736.44 915.03,-3701 911.405,-2162.82 911.038,-1934.62"/>
<polygon fill="green" stroke="green" points="914.538,-1934.47 911.022,-1924.47 907.538,-1934.48 914.538,-1934.47"/>
<text text-anchor="middle" x="2308" y="-3764.24" font-family="Times,serif" font-size="14.00">init_back_link</text>
</g>
<!-- q2&#45;&gt;q0 -->
<g id="edge21" class="edge"><title>q2&#45;&gt;q0</title>
<path fill="none" stroke="green" d="M3309.93,-3722.44C3280.96,-3722.44 3220.3,-3722.44 3169,-3722.44 1101,-3722.44 1101,-3722.44 1101,-3722.44 1031.29,-3722.44 991.879,-3750.92 946,-3698.44 915.697,-3663.78 911.509,-2160.62 911.05,-1934.73"/>
<polygon fill="green" stroke="green" points="914.55,-1934.67 911.03,-1924.67 907.55,-1934.68 914.55,-1934.67"/>
<text text-anchor="middle" x="2308" y="-3726.24" font-family="Times,serif" font-size="14.00">reverse_dll</text>
</g>
<!-- q2&#45;&gt;q0 -->
<g id="edge22" class="edge"><title>q2&#45;&gt;q0</title>
<path fill="none" stroke="green" d="M3311.15,-3715.99C3283.03,-3705.15 3222.32,-3684.44 3169,-3684.44 1101,-3684.44 1101,-3684.44 1101,-3684.44 1031.29,-3684.44 991.89,-3712.91 946,-3660.44 916.362,-3626.55 911.614,-2158.22 911.062,-1934.81"/>
<polygon fill="green" stroke="green" points="914.562,-1934.56 911.038,-1924.57 907.562,-1934.58 914.562,-1934.56"/>
<text text-anchor="middle" x="2308" y="-3688.24" font-family="Times,serif" font-size="14.00">remove_fw_link</text>
</g>
<!-- q2&#45;&gt;q0 -->
<g id="edge23" class="edge"><title>q2&#45;&gt;q0</title>
<path fill="none" stroke="green" d="M3317.26,-3707.6C3310.98,-3699.11 3302.11,-3688.9 3292,-3682.44 3243.99,-3651.78 3225.96,-3646.44 3169,-3646.44 1101,-3646.44 1101,-3646.44 1101,-3646.44 1031.29,-3646.44 991.902,-3674.9 946,-3622.44 917.012,-3589.31 911.716,-2154.26 911.074,-1934.54"/>
<polygon fill="green" stroke="green" points="914.574,-1934.45 911.046,-1924.46 907.574,-1934.47 914.574,-1934.45"/>
<text text-anchor="middle" x="2308" y="-3650.24" font-family="Times,serif" font-size="14.00">check_seq_next</text>
</g>
<!-- q2&#45;&gt;q0 -->
<g id="edge24" class="edge"><title>q2&#45;&gt;q0</title>
<path fill="none" stroke="green" d="M3323.73,-3704.76C3319.49,-3686.78 3310.34,-3659.38 3292,-3643.44 3249.1,-3606.16 3225.84,-3608.44 3169,-3608.44 1101,-3608.44 1101,-3608.44 1101,-3608.44 1029.01,-3608.44 989.494,-3618.8 946,-3561.44 920.399,-3527.68 912.26,-2150.84 911.14,-1934.83"/>
<polygon fill="green" stroke="green" points="914.639,-1934.61 911.088,-1924.62 907.639,-1934.64 914.639,-1934.61"/>
<text text-anchor="middle" x="2308" y="-3612.24" font-family="Times,serif" font-size="14.00">check_seq_prev</text>
</g>
<!-- q3 -->
<g id="node5" class="node"><title>q3</title>
<ellipse fill="none" stroke="green" cx="3168" cy="-3412.44" rx="18" ry="18"/>
<text text-anchor="middle" x="3168" y="-3408.74" font-family="Times,serif" font-size="14.00">D</text>
</g>
<!-- q3&#45;&gt;q0 -->
<g id="edge26" class="edge"><title>q3&#45;&gt;q0</title>
<path fill="none" stroke="green" d="M3166.67,-3430.42C3165.2,-3455.79 3158.75,-3501.94 3132,-3528.44 3090.23,-3569.81 3063.79,-3565.44 3005,-3565.44 1101,-3565.44 1101,-3565.44 1101,-3565.44 1030.18,-3565.44 990.48,-3583.56 946,-3528.44 919.933,-3496.14 912.193,-2147.5 911.133,-1934.61"/>
<polygon fill="green" stroke="green" points="914.632,-1934.53 911.083,-1924.54 907.633,-1934.56 914.632,-1934.53"/>
<text text-anchor="middle" x="2198" y="-3569.24" font-family="Times,serif" font-size="14.00">chain_node</text>
</g>
<!-- q3&#45;&gt;q0 -->
<g id="edge27" class="edge"><title>q3&#45;&gt;q0</title>
<path fill="none" stroke="green" d="M3161.97,-3429.55C3156.77,-3444.3 3147.25,-3465.11 3132,-3477.44 3086.29,-3514.42 3063.79,-3514.44 3005,-3514.44 1101,-3514.44 1101,-3514.44 1101,-3514.44 1030.18,-3514.44 990.499,-3532.54 946,-3477.44 920.78,-3446.21 912.347,-2143.93 911.153,-1934.68"/>
<polygon fill="green" stroke="green" points="914.652,-1934.49 911.096,-1924.51 907.653,-1934.53 914.652,-1934.49"/>
<text text-anchor="middle" x="2198" y="-3518.24" font-family="Times,serif" font-size="14.00">create_sll</text>
</g>
<!-- q3&#45;&gt;q0 -->
<g id="edge28" class="edge"><title>q3&#45;&gt;q0</title>
<path fill="none" stroke="green" d="M3151.86,-3420.63C3123.78,-3435.05 3061.32,-3463.44 3005,-3463.44 1101,-3463.44 1101,-3463.44 1101,-3463.44 1030.18,-3463.44 990.52,-3481.52 946,-3426.44 921.625,-3396.28 912.505,-2140.1 911.175,-1934.71"/>
<polygon fill="green" stroke="green" points="914.673,-1934.43 911.11,-1924.45 907.674,-1934.47 914.673,-1934.43"/>
<text text-anchor="middle" x="2198" y="-3467.24" font-family="Times,serif" font-size="14.00">init_back_link</text>
</g>
<!-- q3&#45;&gt;q0 -->
<g id="edge29" class="edge"><title>q3&#45;&gt;q0</title>
<path fill="none" stroke="green" d="M3149.97,-3412.44C3120.46,-3412.44 3057.88,-3412.44 3005,-3412.44 1101,-3412.44 1101,-3412.44 1101,-3412.44 1030.18,-3412.44 990.542,-3430.51 946,-3375.44 922.467,-3346.35 912.667,-2136.06 911.198,-1934.7"/>
<polygon fill="green" stroke="green" points="914.698,-1934.6 911.125,-1924.62 907.698,-1934.65 914.698,-1934.6"/>
<text text-anchor="middle" x="2198" y="-3416.24" font-family="Times,serif" font-size="14.00">reverse_dll</text>
</g>
<!-- q3&#45;&gt;q0 -->
<g id="edge30" class="edge"><title>q3&#45;&gt;q0</title>
<path fill="none" stroke="green" d="M3151.86,-3404.25C3123.78,-3389.83 3061.32,-3361.44 3005,-3361.44 1101,-3361.44 1101,-3361.44 1101,-3361.44 1030.18,-3361.44 990.566,-3379.49 946,-3324.44 923.307,-3296.41 912.833,-2131.7 911.222,-1934.62"/>
<polygon fill="green" stroke="green" points="914.721,-1934.47 911.14,-1924.5 907.721,-1934.53 914.721,-1934.47"/>
<text text-anchor="middle" x="2198" y="-3365.24" font-family="Times,serif" font-size="14.00">remove_fw_link</text>
</g>
<!-- q3&#45;&gt;q0 -->
<g id="edge31" class="edge"><title>q3&#45;&gt;q0</title>
<path fill="none" stroke="green" d="M3159.53,-3396.45C3153.5,-3385.06 3144.05,-3370.12 3132,-3360.44 3084.71,-3322.45 3065.66,-3310.44 3005,-3310.44 1101,-3310.44 1101,-3310.44 1101,-3310.44 1030.18,-3310.44 990.591,-3328.47 946,-3273.44 924.156,-3246.48 913.016,-2128.23 911.25,-1934.8"/>
<polygon fill="green" stroke="green" points="914.749,-1934.56 911.158,-1924.6 907.749,-1934.63 914.749,-1934.56"/>
<text text-anchor="middle" x="2198" y="-3314.24" font-family="Times,serif" font-size="14.00">check_seq_next</text>
</g>
<!-- q3&#45;&gt;q0 -->
<g id="edge33" class="edge"><title>q3&#45;&gt;q0</title>
<path fill="none" stroke="green" d="M3165.54,-3394.24C3162.76,-3371.37 3154.79,-3332.25 3132,-3308.44 3090.16,-3264.74 3065.5,-3259.44 3005,-3259.44 1101,-3259.44 1101,-3259.44 1101,-3259.44 1029.74,-3259.44 990.219,-3274.32 946,-3218.44 904.799,-3166.38 909.611,-2121.29 910.801,-1934.79"/>
<polygon fill="green" stroke="green" points="914.302,-1934.71 910.868,-1924.68 907.302,-1934.66 914.302,-1934.71"/>
<text text-anchor="middle" x="2198" y="-3263.24" font-family="Times,serif" font-size="14.00">Learn_Assert</text>
</g>
<!-- q3&#45;&gt;q2 -->
<g id="edge32" class="edge"><title>q3&#45;&gt;q2</title>
<path fill="none" stroke="green" d="M3181.18,-3425.13C3205.89,-3451.58 3262.1,-3515.51 3292,-3579.44 3309.65,-3617.18 3319.01,-3664.82 3323.48,-3694.47"/>
<polygon fill="green" stroke="green" points="3320.04,-3695.12 3324.92,-3704.52 3326.97,-3694.13 3320.04,-3695.12"/>
<text text-anchor="middle" x="3248" y="-3583.24" font-family="Times,serif" font-size="14.00">check_seq_prev</text>
</g>
<!-- q4 -->
<g id="node6" class="node"><title>q4</title>
<ellipse fill="none" stroke="green" cx="3004" cy="-3099.44" rx="18" ry="18"/>
<text text-anchor="middle" x="3004" y="-3095.74" font-family="Times,serif" font-size="14.00">D</text>
</g>
<!-- q4&#45;&gt;q0 -->
<g id="edge34" class="edge"><title>q4&#45;&gt;q0</title>
<path fill="none" stroke="green" d="M3001.15,-3117.26C2998.03,-3137.87 2989.74,-3171.27 2968,-3189.44 2925.27,-3225.16 2900.7,-3213.44 2845,-3213.44 1101,-3213.44 1101,-3213.44 1101,-3213.44 1031.29,-3213.44 992.082,-3241.75 946,-3189.44 924.54,-3165.08 913.142,-2121.3 911.275,-1934.8"/>
<polygon fill="green" stroke="green" points="914.774,-1934.66 911.175,-1924.69 907.774,-1934.73 914.774,-1934.66"/>
<text text-anchor="middle" x="2090" y="-3217.24" font-family="Times,serif" font-size="14.00">chain_node</text>
</g>
<!-- q4&#45;&gt;q0 -->
<g id="edge35" class="edge"><title>q4&#45;&gt;q0</title>
<path fill="none" stroke="green" d="M2996.02,-3116.11C2990.24,-3127.84 2980.88,-3142.9 2968,-3151.44 2921.58,-3182.22 2900.7,-3175.44 2845,-3175.44 1101,-3175.44 1101,-3175.44 1101,-3175.44 1031.29,-3175.44 992.104,-3203.73 946,-3151.44 925.197,-3127.85 913.29,-2118.07 911.299,-1934.81"/>
<polygon fill="green" stroke="green" points="914.797,-1934.59 911.189,-1924.63 907.797,-1934.67 914.797,-1934.59"/>
<text text-anchor="middle" x="2090" y="-3179.24" font-family="Times,serif" font-size="14.00">create_sll</text>
</g>
<!-- q4&#45;&gt;q0 -->
<g id="edge36" class="edge"><title>q4&#45;&gt;q0</title>
<path fill="none" stroke="green" d="M2987.19,-3106.5C2981.26,-3108.95 2974.4,-3111.55 2968,-3113.44 2914.57,-3129.19 2900.7,-3137.44 2845,-3137.44 1101,-3137.44 1101,-3137.44 1101,-3137.44 1031.29,-3137.44 992.127,-3165.71 946,-3113.44 905.748,-3067.83 909.717,-2112.45 910.806,-1934.75"/>
<polygon fill="green" stroke="green" points="914.307,-1934.65 910.871,-1924.63 907.307,-1934.61 914.307,-1934.65"/>
<text text-anchor="middle" x="2090" y="-3141.24" font-family="Times,serif" font-size="14.00">init_back_link</text>
</g>
<!-- q4&#45;&gt;q0 -->
<g id="edge37" class="edge"><title>q4&#45;&gt;q0</title>
<path fill="none" stroke="green" d="M2985.93,-3099.44C2956.96,-3099.44 2896.3,-3099.44 2845,-3099.44 1101,-3099.44 1101,-3099.44 1101,-3099.44 1031.29,-3099.44 992.152,-3127.68 946,-3075.44 907.054,-3031.35 909.94,-2108.84 910.835,-1934.67"/>
<polygon fill="green" stroke="green" points="914.335,-1934.53 910.889,-1924.51 907.336,-1934.49 914.335,-1934.53"/>
<text text-anchor="middle" x="2090" y="-3103.24" font-family="Times,serif" font-size="14.00">reverse_dll</text>
</g>
<!-- q4&#45;&gt;q0 -->
<g id="edge39" class="edge"><title>q4&#45;&gt;q0</title>
<path fill="none" stroke="green" d="M2987.15,-3092.99C2959.03,-3082.15 2898.32,-3061.44 2845,-3061.44 1101,-3061.44 1101,-3061.44 1101,-3061.44 1031.29,-3061.44 992.178,-3089.66 946,-3037.44 908.377,-2994.89 910.168,-2106.03 910.864,-1934.83"/>
<polygon fill="green" stroke="green" points="914.364,-1934.84 910.907,-1924.82 907.364,-1934.81 914.364,-1934.84"/>
<text text-anchor="middle" x="2090" y="-3065.24" font-family="Times,serif" font-size="14.00">check_seq_next</text>
</g>
<!-- q4&#45;&gt;q0 -->
<g id="edge40" class="edge"><title>q4&#45;&gt;q0</title>
<path fill="none" stroke="green" d="M2993.26,-3084.6C2986.98,-3076.11 2978.11,-3065.9 2968,-3059.44 2919.99,-3028.78 2901.96,-3023.44 2845,-3023.44 1101,-3023.44 1101,-3023.44 1101,-3023.44 1031.29,-3023.44 992.206,-3051.64 946,-2999.44 909.674,-2958.41 910.405,-2102 910.896,-1934.65"/>
<polygon fill="green" stroke="green" points="914.396,-1934.65 910.928,-1924.64 907.396,-1934.63 914.396,-1934.65"/>
<text text-anchor="middle" x="2090" y="-3027.24" font-family="Times,serif" font-size="14.00">check_seq_prev</text>
</g>
<!-- q4&#45;&gt;q0 -->
<g id="edge41" class="edge"><title>q4&#45;&gt;q0</title>
<path fill="none" stroke="green" d="M2999.73,-3081.76C2995.49,-3063.78 2986.34,-3036.38 2968,-3020.44 2925.1,-2983.16 2901.84,-2985.44 2845,-2985.44 1101,-2985.44 1101,-2985.44 1101,-2985.44 1029.01,-2985.44 989.859,-2995.52 946,-2938.44 914.569,-2897.53 911.364,-2095.65 911.037,-1934.5"/>
<polygon fill="green" stroke="green" points="914.537,-1934.42 911.019,-1924.43 907.537,-1934.44 914.537,-1934.42"/>
<text text-anchor="middle" x="2090" y="-2989.24" font-family="Times,serif" font-size="14.00">Learn_Assert</text>
</g>
<!-- q4&#45;&gt;q3 -->
<g id="edge38" class="edge"><title>q4&#45;&gt;q3</title>
<path fill="none" stroke="green" d="M3019.16,-3109.48C3045.92,-3129.29 3103.77,-3176.21 3132,-3230.44 3157.96,-3280.32 3164.79,-3346.91 3166.51,-3384.15"/>
<polygon fill="green" stroke="green" points="3163.01,-3384.41 3166.88,-3394.28 3170.01,-3384.16 3163.01,-3384.41"/>
<text text-anchor="middle" x="3086" y="-3234.24" font-family="Times,serif" font-size="14.00">remove_fw_link</text>
</g>
<!-- q5 -->
<g id="node7" class="node"><title>q5</title>
<ellipse fill="none" stroke="green" cx="2844" cy="-2789.44" rx="18" ry="18"/>
<text text-anchor="middle" x="2844" y="-2785.74" font-family="Times,serif" font-size="14.00">D</text>
</g>
<!-- q5&#45;&gt;q0 -->
<g id="edge42" class="edge"><title>q5&#45;&gt;q0</title>
<path fill="none" stroke="green" d="M2842.61,-2807.81C2841.06,-2833.23 2834.49,-2878.98 2808,-2905.44 2767.62,-2945.79 2742.09,-2942.44 2685,-2942.44 1101,-2942.44 1101,-2942.44 1101,-2942.44 1030.18,-2942.44 990.85,-2960.25 946,-2905.44 914.474,-2866.91 911.344,-2094.64 911.034,-1935.12"/>
<polygon fill="green" stroke="green" points="914.533,-1934.7 911.016,-1924.71 907.533,-1934.71 914.533,-1934.7"/>
<text text-anchor="middle" x="1982" y="-2946.24" font-family="Times,serif" font-size="14.00">chain_node</text>
</g>
<!-- q5&#45;&gt;q0 -->
<g id="edge43" class="edge"><title>q5&#45;&gt;q0</title>
<path fill="none" stroke="green" d="M2837.94,-2806.52C2832.73,-2821.25 2823.19,-2842.04 2808,-2854.44 2763.77,-2890.54 2742.09,-2891.44 2685,-2891.44 1101,-2891.44 1101,-2891.44 1101,-2891.44 1030.18,-2891.44 990.901,-2909.21 946,-2854.44 916.111,-2817.98 911.689,-2088.15 911.088,-1934.63"/>
<polygon fill="green" stroke="green" points="914.588,-1934.57 911.052,-1924.59 907.588,-1934.6 914.588,-1934.57"/>
<text text-anchor="middle" x="1982" y="-2895.24" font-family="Times,serif" font-size="14.00">create_sll</text>
</g>
<!-- q5&#45;&gt;q0 -->
<g id="edge44" class="edge"><title>q5&#45;&gt;q0</title>
<path fill="none" stroke="green" d="M2827.83,-2797.86C2800.27,-2812.35 2739.77,-2840.44 2685,-2840.44 1101,-2840.44 1101,-2840.44 1101,-2840.44 1030.18,-2840.44 990.959,-2858.17 946,-2803.44 917.799,-2769.11 912.068,-2084.16 911.152,-1934.97"/>
<polygon fill="green" stroke="green" points="914.651,-1934.77 911.092,-1924.79 907.651,-1934.81 914.651,-1934.77"/>
<text text-anchor="middle" x="1982" y="-2844.24" font-family="Times,serif" font-size="14.00">init_back_link</text>
</g>
<!-- q5&#45;&gt;q0 -->
<g id="edge45" class="edge"><title>q5&#45;&gt;q0</title>
<path fill="none" stroke="green" d="M2825.93,-2789.44C2796.96,-2789.44 2736.3,-2789.44 2685,-2789.44 1101,-2789.44 1101,-2789.44 1101,-2789.44 1030.18,-2789.44 991.023,-2807.11 946,-2752.44 919.446,-2720.2 912.453,-2078.11 911.219,-1934.69"/>
<polygon fill="green" stroke="green" points="914.718,-1934.48 911.135,-1924.51 907.718,-1934.54 914.718,-1934.48"/>
<text text-anchor="middle" x="1982" y="-2793.24" font-family="Times,serif" font-size="14.00">reverse_dll</text>
</g>
<!-- q5&#45;&gt;q0 -->
<g id="edge46" class="edge"><title>q5&#45;&gt;q0</title>
<path fill="none" stroke="green" d="M2827.83,-2781.02C2800.27,-2766.53 2739.77,-2738.44 2685,-2738.44 1101,-2738.44 1101,-2738.44 1101,-2738.44 1030.18,-2738.44 991.095,-2756.05 946,-2701.44 921.109,-2671.3 912.871,-2072.84 911.298,-1934.71"/>
<polygon fill="green" stroke="green" points="914.796,-1934.49 911.184,-1924.53 907.796,-1934.56 914.796,-1934.49"/>
<text text-anchor="middle" x="1982" y="-2742.24" font-family="Times,serif" font-size="14.00">remove_fw_link</text>
</g>
<!-- q5&#45;&gt;q0 -->
<g id="edge48" class="edge"><title>q5&#45;&gt;q0</title>
<path fill="none" stroke="green" d="M2835.49,-2773.49C2829.45,-2762.12 2819.99,-2747.18 2808,-2737.44 2762.2,-2700.23 2744.01,-2687.44 2685,-2687.44 1101,-2687.44 1101,-2687.44 1101,-2687.44 1030.18,-2687.44 991.177,-2704.98 946,-2650.44 922.759,-2622.38 913.31,-2066.9 911.384,-1934.56"/>
<polygon fill="green" stroke="green" points="914.882,-1934.38 911.239,-1924.43 907.883,-1934.48 914.882,-1934.38"/>
<text text-anchor="middle" x="1982" y="-2691.24" font-family="Times,serif" font-size="14.00">check_seq_prev</text>
</g>
<!-- q5&#45;&gt;q0 -->
<g id="edge49" class="edge"><title>q5&#45;&gt;q0</title>
<path fill="none" stroke="green" d="M2841.49,-2771.28C2838.68,-2748.45 2830.66,-2709.37 2808,-2685.44 2767.54,-2642.71 2743.84,-2636.44 2685,-2636.44 1101,-2636.44 1101,-2636.44 1101,-2636.44 1030.28,-2636.44 991.37,-2654.69 946,-2600.44 924.309,-2574.5 913.765,-2061.64 911.482,-1934.68"/>
<polygon fill="green" stroke="green" points="914.979,-1934.52 911.303,-1924.58 907.98,-1934.64 914.979,-1934.52"/>
<text text-anchor="middle" x="1982" y="-2640.24" font-family="Times,serif" font-size="14.00">Learn_Assert</text>
</g>
<!-- q5&#45;&gt;q4 -->
<g id="edge47" class="edge"><title>q5&#45;&gt;q4</title>
<path fill="none" stroke="green" d="M2857.18,-2802.13C2881.89,-2828.58 2938.1,-2892.51 2968,-2956.44 2985.65,-2994.18 2995.01,-3041.82 2999.48,-3071.47"/>
<polygon fill="green" stroke="green" points="2996.04,-3072.12 3000.92,-3081.52 3002.97,-3071.13 2996.04,-3072.12"/>
<text text-anchor="middle" x="2924" y="-2960.24" font-family="Times,serif" font-size="14.00">check_seq_next</text>
</g>
<!-- q6 -->
<g id="node8" class="node"><title>q6</title>
<ellipse fill="none" stroke="green" cx="2684" cy="-2476.44" rx="18" ry="18"/>
<text text-anchor="middle" x="2684" y="-2472.74" font-family="Times,serif" font-size="14.00">D</text>
</g>
<!-- q6&#45;&gt;q0 -->
<g id="edge50" class="edge"><title>q6&#45;&gt;q0</title>
<path fill="none" stroke="green" d="M2680.93,-2494.44C2677.62,-2514.89 2669.15,-2547.84 2648,-2566.44 2614.65,-2595.77 2595.41,-2590.44 2551,-2590.44 2089,-2590.44 2089,-2590.44 2089,-2590.44 1944.09,-2590.44 1907.91,-2595.44 1763,-2595.44 1101,-2595.44 1101,-2595.44 1101,-2595.44 1031.29,-2595.44 992.74,-2623.16 946,-2571.44 924.343,-2547.48 913.824,-2058.47 911.502,-1934.71"/>
<polygon fill="green" stroke="green" points="914.998,-1934.46 911.314,-1924.52 907.999,-1934.58 914.998,-1934.46"/>
<text text-anchor="middle" x="1872" y="-2598.24" font-family="Times,serif" font-size="14.00">chain_node</text>
</g>
<!-- q6&#45;&gt;q0 -->
<g id="edge51" class="edge"><title>q6&#45;&gt;q0</title>
<path fill="none" stroke="green" d="M2675.89,-2492.92C2670.05,-2504.55 2660.66,-2519.58 2648,-2528.44 2611.61,-2553.9 2595.41,-2552.44 2551,-2552.44 2089,-2552.44 2089,-2552.44 2089,-2552.44 1944.09,-2552.44 1907.91,-2557.44 1763,-2557.44 1101,-2557.44 1101,-2557.44 1101,-2557.44 1031.29,-2557.44 992.822,-2585.08 946,-2533.44 925.628,-2510.97 914.225,-2053.71 911.593,-1934.6"/>
<polygon fill="green" stroke="green" points="915.089,-1934.38 911.372,-1924.46 908.091,-1934.53 915.089,-1934.38"/>
<text text-anchor="middle" x="1872" y="-2560.24" font-family="Times,serif" font-size="14.00">create_sll</text>
</g>
<!-- q6&#45;&gt;q0 -->
<g id="edge52" class="edge"><title>q6&#45;&gt;q0</title>
<path fill="none" stroke="green" d="M2667.57,-2483.95C2643.34,-2495.02 2594.64,-2514.44 2551,-2514.44 2089,-2514.44 2089,-2514.44 2089,-2514.44 1944.09,-2514.44 1907.91,-2519.44 1763,-2519.44 1101,-2519.44 1101,-2519.44 1101,-2519.44 1031.29,-2519.44 992.915,-2547 946,-2495.44 907.97,-2453.65 909.496,-2046.32 910.642,-1934.64"/>
<polygon fill="green" stroke="green" points="914.144,-1934.53 910.754,-1924.49 907.144,-1934.45 914.144,-1934.53"/>
<text text-anchor="middle" x="1872" y="-2522.24" font-family="Times,serif" font-size="14.00">init_back_link</text>
</g>
<!-- q6&#45;&gt;q0 -->
<g id="edge53" class="edge"><title>q6&#45;&gt;q0</title>
<path fill="none" stroke="green" d="M2665.91,-2476.44C2640.75,-2476.44 2592.25,-2476.44 2551,-2476.44 2089,-2476.44 2089,-2476.44 2089,-2476.44 1895.21,-2476.44 1846.79,-2481.44 1653,-2481.44 1101,-2481.44 1101,-2481.44 1101,-2481.44 1031.29,-2481.44 993.02,-2508.9 946,-2457.44 910.527,-2418.62 910.152,-2041.41 910.768,-1934.54"/>
<polygon fill="green" stroke="green" points="914.268,-1934.53 910.833,-1924.5 907.268,-1934.48 914.268,-1934.53"/>
<text text-anchor="middle" x="1872" y="-2483.24" font-family="Times,serif" font-size="14.00">reverse_dll</text>
</g>
<!-- q6&#45;&gt;q0 -->
<g id="edge54" class="edge"><title>q6&#45;&gt;q0</title>
<path fill="none" stroke="green" d="M2667.57,-2468.93C2643.34,-2457.86 2594.64,-2438.44 2551,-2438.44 2089,-2438.44 2089,-2438.44 2089,-2438.44 1895.21,-2438.44 1846.79,-2443.44 1653,-2443.44 1101,-2443.44 1101,-2443.44 1101,-2443.44 1031.29,-2443.44 993.141,-2470.79 946,-2419.44 913.128,-2383.63 910.856,-2037.39 910.91,-1934.89"/>
<polygon fill="green" stroke="green" points="914.41,-1934.69 910.923,-1924.68 907.41,-1934.68 914.41,-1934.69"/>
<text text-anchor="middle" x="1872" y="-2445.24" font-family="Times,serif" font-size="14.00">remove_fw_link</text>
</g>
<!-- q6&#45;&gt;q0 -->
<g id="edge55" class="edge"><title>q6&#45;&gt;q0</title>
<path fill="none" stroke="green" d="M2672.7,-2461.89C2666.35,-2453.78 2657.6,-2444.03 2648,-2437.44 2609.97,-2411.31 2597.14,-2400.44 2551,-2400.44 2089,-2400.44 2089,-2400.44 2089,-2400.44 1895.21,-2400.44 1846.79,-2405.44 1653,-2405.44 1101,-2405.44 1101,-2405.44 1101,-2405.44 1031.29,-2405.44 993.28,-2432.67 946,-2381.44 915.658,-2348.57 911.604,-2031.83 911.075,-1934.65"/>
<polygon fill="green" stroke="green" points="914.574,-1934.4 911.029,-1924.42 907.574,-1934.44 914.574,-1934.4"/>
<text text-anchor="middle" x="1872" y="-2407.24" font-family="Times,serif" font-size="14.00">check_seq_next</text>
</g>
<!-- q6&#45;&gt;q0 -->
<g id="edge57" class="edge"><title>q6&#45;&gt;q0</title>
<path fill="none" stroke="green" d="M2679.15,-2458.86C2674.51,-2441.58 2665.12,-2415.53 2648,-2399.44 2614.37,-2367.84 2597.14,-2362.44 2551,-2362.44 1981,-2362.44 1981,-2362.44 1981,-2362.44 1835.21,-2362.44 1798.79,-2367.44 1653,-2367.44 1101,-2367.44 1101,-2367.44 1101,-2367.44 1029.01,-2367.44 991.285,-2376.4 946,-2320.44 921.797,-2290.53 913.626,-2022.93 911.575,-1934.59"/>
<polygon fill="green" stroke="green" points="915.073,-1934.42 911.35,-1924.51 908.074,-1934.58 915.073,-1934.42"/>
<text text-anchor="middle" x="1872" y="-2368.24" font-family="Times,serif" font-size="14.00">Learn_Assert</text>
</g>
<!-- q6&#45;&gt;q5 -->
<g id="edge56" class="edge"><title>q6&#45;&gt;q5</title>
<path fill="none" stroke="green" d="M2699.11,-2486.91C2725.2,-2507.08 2780.77,-2554.09 2808,-2607.44 2833.56,-2657.52 2840.54,-2724.04 2842.39,-2761.21"/>
<polygon fill="green" stroke="green" points="2838.89,-2761.47 2842.8,-2771.32 2845.89,-2761.19 2838.89,-2761.47"/>
<text text-anchor="middle" x="2764" y="-2611.24" font-family="Times,serif" font-size="14.00">check_seq_prev</text>
</g>
<!-- q7 -->
<g id="node9" class="node"><title>q7</title>
<ellipse fill="none" stroke="green" cx="2550" cy="-2171.44" rx="18" ry="18"/>
<text text-anchor="middle" x="2550" y="-2167.74" font-family="Times,serif" font-size="14.00">D</text>
</g>
<!-- q7&#45;&gt;q0 -->
<g id="edge58" class="edge"><title>q7&#45;&gt;q0</title>
<path fill="none" stroke="green" d="M2548.61,-2189.81C2547.06,-2215.23 2540.49,-2260.98 2514,-2287.44 2473.62,-2327.79 2448.09,-2324.44 2391,-2324.44 1101,-2324.44 1101,-2324.44 1101,-2324.44 1030.18,-2324.44 992.382,-2340.96 946,-2287.44 923.027,-2260.93 914.136,-2018.75 911.729,-1934.88"/>
<polygon fill="green" stroke="green" points="915.225,-1934.69 911.449,-1924.79 908.228,-1934.89 915.225,-1934.69"/>
<text text-anchor="middle" x="1762" y="-2328.24" font-family="Times,serif" font-size="14.00">chain_node</text>
</g>
<!-- q7&#45;&gt;q0 -->
<g id="edge59" class="edge"><title>q7&#45;&gt;q0</title>
<path fill="none" stroke="green" d="M2543.94,-2188.52C2538.73,-2203.25 2529.19,-2224.04 2514,-2236.44 2469.77,-2272.54 2448.09,-2273.44 2391,-2273.44 1101,-2273.44 1101,-2273.44 1101,-2273.44 1030.18,-2273.44 992.757,-2289.64 946,-2236.44 926.242,-2213.96 915.5,-2010.58 912.155,-1934.76"/>
<polygon fill="green" stroke="green" points="915.641,-1934.38 911.714,-1924.54 908.648,-1934.68 915.641,-1934.38"/>
<text text-anchor="middle" x="1762" y="-2277.24" font-family="Times,serif" font-size="14.00">create_sll</text>
</g>
<!-- q7&#45;&gt;q0 -->
<g id="edge60" class="edge"><title>q7&#45;&gt;q0</title>
<path fill="none" stroke="green" d="M2533.83,-2179.86C2506.27,-2194.35 2445.77,-2222.44 2391,-2222.44 1101,-2222.44 1101,-2222.44 1101,-2222.44 1030.18,-2222.44 993.264,-2238.19 946,-2185.44 913.279,-2148.92 910.359,-1997.93 910.618,-1934.6"/>
<polygon fill="green" stroke="green" points="914.119,-1934.55 910.69,-1924.52 907.119,-1934.5 914.119,-1934.55"/>
<text text-anchor="middle" x="1762" y="-2226.24" font-family="Times,serif" font-size="14.00">init_back_link</text>
</g>
<!-- q7&#45;&gt;q0 -->
<g id="edge62" class="edge"><title>q7&#45;&gt;q0</title>
<path fill="none" stroke="green" d="M2531.93,-2171.44C2502.96,-2171.44 2442.3,-2171.44 2391,-2171.44 1101,-2171.44 1101,-2171.44 1101,-2171.44 1030.18,-2171.44 993.985,-2186.53 946,-2134.44 919.609,-2105.79 913.116,-1989.03 911.52,-1934.61"/>
<polygon fill="green" stroke="green" points="915.019,-1934.51 911.262,-1924.6 908.021,-1934.69 915.019,-1934.51"/>
<text text-anchor="middle" x="1762" y="-2175.24" font-family="Times,serif" font-size="14.00">remove_fw_link</text>
</g>
<!-- q7&#45;&gt;q0 -->
<g id="edge63" class="edge"><title>q7&#45;&gt;q0</title>
<path fill="none" stroke="green" d="M2533.83,-2163.02C2506.27,-2148.53 2445.77,-2120.44 2391,-2120.44 1101,-2120.44 1101,-2120.44 1101,-2120.44 1030.92,-2120.44 995.607,-2140.95 946,-2091.44 924.366,-2069.85 915.662,-1981.08 912.542,-1934.8"/>
<polygon fill="green" stroke="green" points="916.018,-1934.31 911.896,-1924.55 909.032,-1934.75 916.018,-1934.31"/>
<text text-anchor="middle" x="1762" y="-2124.24" font-family="Times,serif" font-size="14.00">check_seq_next</text>
</g>
<!-- q7&#45;&gt;q0 -->
<g id="edge64" class="edge"><title>q7&#45;&gt;q0</title>
<path fill="none" stroke="green" d="M2541.49,-2155.49C2535.45,-2144.12 2525.99,-2129.18 2514,-2119.44 2468.2,-2082.23 2450.01,-2069.44 2391,-2069.44 1871,-2069.44 1871,-2069.44 1871,-2069.44 1676.3,-2069.44 1627.7,-2077.44 1433,-2077.44 1101,-2077.44 1101,-2077.44 1101,-2077.44 1031.29,-2077.44 997.227,-2100.72 946,-2053.44 928.848,-2037.61 918.631,-1972.77 913.994,-1934.7"/>
<polygon fill="green" stroke="green" points="917.414,-1933.8 912.783,-1924.28 910.461,-1934.61 917.414,-1933.8"/>
<text text-anchor="middle" x="1762" y="-2074.24" font-family="Times,serif" font-size="14.00">check_seq_prev</text>
</g>
<!-- q7&#45;&gt;q0 -->
<g id="edge65" class="edge"><title>q7&#45;&gt;q0</title>
<path fill="none" stroke="green" d="M2547.49,-2153.28C2544.68,-2130.45 2536.66,-2091.37 2514,-2067.44 2473.54,-2024.71 2449.84,-2018.44 2391,-2018.44 1871,-2018.44 1871,-2018.44 1871,-2018.44 1676.11,-2018.44 1627.89,-2039.44 1433,-2039.44 1101,-2039.44 1101,-2039.44 1101,-2039.44 1030.38,-2039.44 998.865,-2051.27 946,-2004.44 926.01,-1986.73 917.436,-1956.8 913.759,-1934.67"/>
<polygon fill="green" stroke="green" points="917.189,-1933.92 912.319,-1924.51 910.258,-1934.91 917.189,-1933.92"/>
<text text-anchor="middle" x="1762" y="-2027.24" font-family="Times,serif" font-size="14.00">Learn_Assert</text>
</g>
<!-- q7&#45;&gt;q6 -->
<g id="edge61" class="edge"><title>q7&#45;&gt;q6</title>
<path fill="none" stroke="green" d="M2561.36,-2185.41C2581.04,-2212.56 2623.96,-2274.92 2648,-2333.44 2663.83,-2371.97 2673.69,-2419.4 2678.76,-2448.78"/>
<polygon fill="green" stroke="green" points="2675.33,-2449.45 2680.42,-2458.74 2682.23,-2448.3 2675.33,-2449.45"/>
<text text-anchor="middle" x="2617" y="-2337.24" font-family="Times,serif" font-size="14.00">reverse_dll</text>
</g>
<!-- q8 -->
<g id="node10" class="node"><title>q8</title>
<ellipse fill="none" stroke="green" cx="2390" cy="-1858.44" rx="18" ry="18"/>
<text text-anchor="middle" x="2390" y="-1854.74" font-family="Times,serif" font-size="14.00">D</text>
</g>
<!-- q8&#45;&gt;q0 -->
<g id="edge66" class="edge"><title>q8&#45;&gt;q0</title>
<path fill="none" stroke="green" d="M2387.27,-1876.41C2384.27,-1897.16 2376.09,-1930.7 2354,-1948.44 2299.65,-1992.1 2268.71,-1972.44 2199,-1972.44 1871,-1972.44 1871,-1972.44 1871,-1972.44 1724.65,-1972.44 1689.35,-2001.44 1543,-2001.44 1101,-2001.44 1101,-2001.44 1101,-2001.44 1031.29,-2001.44 1002.2,-2018.69 946,-1977.44 931.778,-1967 923.018,-1949.18 917.819,-1934"/>
<polygon fill="green" stroke="green" points="921.043,-1932.57 914.765,-1924.04 914.35,-1934.63 921.043,-1932.57"/>
<text text-anchor="middle" x="1652" y="-2002.24" font-family="Times,serif" font-size="14.00">chain_node</text>
</g>
<!-- q8&#45;&gt;q0 -->
<g id="edge67" class="edge"><title>q8&#45;&gt;q0</title>
<path fill="none" stroke="green" d="M2382.36,-1874.77C2376.65,-1886.63 2367.23,-1902.04 2354,-1910.44 2295.16,-1947.82 2268.71,-1934.44 2199,-1934.44 1871,-1934.44 1871,-1934.44 1871,-1934.44 1675.91,-1934.44 1628.09,-1963.44 1433,-1963.44 1101,-1963.44 1101,-1963.44 1101,-1963.44 1031.29,-1963.44 1008.62,-1970.06 946,-1939.44 939.895,-1936.46 934.135,-1932.03 929.117,-1927.39"/>
<polygon fill="green" stroke="green" points="931.418,-1924.74 921.9,-1920.09 926.438,-1929.66 931.418,-1924.74"/>
<text text-anchor="middle" x="1652" y="-1957.24" font-family="Times,serif" font-size="14.00">create_sll</text>
</g>
<!-- q8&#45;&gt;q0 -->
<g id="edge68" class="edge"><title>q8&#45;&gt;q0</title>
<path fill="none" stroke="green" d="M2373.23,-1865.63C2367.3,-1868.1 2360.44,-1870.68 2354,-1872.44 2286.76,-1890.84 2268.71,-1896.44 2199,-1896.44 1871,-1896.44 1871,-1896.44 1871,-1896.44 1675.91,-1896.44 1628.09,-1925.44 1433,-1925.44 1101,-1925.44 1101,-1925.44 1101,-1925.44 1042.62,-1925.44 974.641,-1916.45 937.902,-1910.84"/>
<polygon fill="green" stroke="green" points="938.395,-1907.37 927.975,-1909.28 937.314,-1914.29 938.395,-1907.37"/>
<text text-anchor="middle" x="1652" y="-1919.24" font-family="Times,serif" font-size="14.00">init_back_link</text>
</g>
<!-- q8&#45;&gt;q0 -->
<g id="edge69" class="edge"><title>q8&#45;&gt;q0</title>
<path fill="none" stroke="green" d="M2371.97,-1858.44C2338.72,-1858.44 2262.83,-1858.44 2199,-1858.44 1871,-1858.44 1871,-1858.44 1871,-1858.44 1675.91,-1858.44 1628.09,-1887.44 1433,-1887.44 1101,-1887.44 1101,-1887.44 1101,-1887.44 1042.62,-1887.44 974.641,-1896.43 937.902,-1902.04"/>
<polygon fill="green" stroke="green" points="937.314,-1898.59 927.975,-1903.6 938.395,-1905.51 937.314,-1898.59"/>
<text text-anchor="middle" x="1652" y="-1881.24" font-family="Times,serif" font-size="14.00">reverse_dll</text>
</g>
<!-- q8&#45;&gt;q0 -->
<g id="edge70" class="edge"><title>q8&#45;&gt;q0</title>
<path fill="none" stroke="green" d="M2372.7,-1852.91C2340.11,-1842.38 2264.43,-1820.44 2199,-1820.44 1871,-1820.44 1871,-1820.44 1871,-1820.44 1675.91,-1820.44 1628.09,-1849.44 1433,-1849.44 1101,-1849.44 1101,-1849.44 1101,-1849.44 1030.18,-1849.44 1011.86,-1860.39 946,-1886.44 942.156,-1887.96 938.223,-1889.84 934.447,-1891.84"/>
<polygon fill="green" stroke="green" points="932.493,-1888.93 925.521,-1896.9 935.946,-1895.02 932.493,-1888.93"/>
<text text-anchor="middle" x="1652" y="-1843.24" font-family="Times,serif" font-size="14.00">remove_fw_link</text>
</g>
<!-- q8&#45;&gt;q0 -->
<g id="edge71" class="edge"><title>q8&#45;&gt;q0</title>
<path fill="none" stroke="green" d="M2378.82,-1844.23C2372.52,-1836.41 2363.77,-1827.16 2354,-1821.44 2292.7,-1785.54 2270.04,-1782.44 2199,-1782.44 1871,-1782.44 1871,-1782.44 1871,-1782.44 1675.91,-1782.44 1628.09,-1811.44 1433,-1811.44 1101,-1811.44 1101,-1811.44 1101,-1811.44 1030.07,-1811.44 1003.3,-1807.64 946,-1849.44 935.334,-1857.22 927.238,-1869.33 921.534,-1880.4"/>
<polygon fill="green" stroke="green" points="918.24,-1879.17 917.132,-1889.71 924.569,-1882.17 918.24,-1879.17"/>
<text text-anchor="middle" x="1652" y="-1805.24" font-family="Times,serif" font-size="14.00">check_seq_next</text>
</g>
<!-- q8&#45;&gt;q0 -->
<g id="edge73" class="edge"><title>q8&#45;&gt;q0</title>
<path fill="none" stroke="green" d="M2385.82,-1840.79C2381.65,-1822.9 2372.57,-1795.72 2354,-1780.44 2299.39,-1735.5 2269.72,-1744.44 2199,-1744.44 1871,-1744.44 1871,-1744.44 1871,-1744.44 1675.91,-1744.44 1628.09,-1773.44 1433,-1773.44 1101,-1773.44 1101,-1773.44 1101,-1773.44 1030.38,-1773.44 998.865,-1761.61 946,-1808.44 926.01,-1826.15 917.436,-1856.08 913.759,-1878.21"/>
<polygon fill="green" stroke="green" points="910.258,-1877.97 912.319,-1888.37 917.189,-1878.96 910.258,-1877.97"/>
<text text-anchor="middle" x="1652" y="-1768.24" font-family="Times,serif" font-size="14.00">Learn_Assert</text>
</g>
<!-- q8&#45;&gt;q7 -->
<g id="edge72" class="edge"><title>q8&#45;&gt;q7</title>
<path fill="none" stroke="green" d="M2405.11,-1868.91C2431.2,-1889.08 2486.77,-1936.09 2514,-1989.44 2539.56,-2039.52 2546.54,-2106.04 2548.39,-2143.21"/>
<polygon fill="green" stroke="green" points="2544.89,-2143.47 2548.8,-2153.32 2551.89,-2143.19 2544.89,-2143.47"/>
<text text-anchor="middle" x="2470" y="-1993.24" font-family="Times,serif" font-size="14.00">check_seq_prev</text>
</g>
<!-- q9 -->
<g id="node11" class="node"><title>q9</title>
<ellipse fill="none" stroke="green" cx="2198" cy="-1577.44" rx="18" ry="18"/>
<text text-anchor="middle" x="2198" y="-1573.74" font-family="Times,serif" font-size="14.00">D</text>
</g>
<!-- q9&#45;&gt;q0 -->
<g id="edge74" class="edge"><title>q9&#45;&gt;q0</title>
<path fill="none" stroke="green" d="M2192.14,-1594.83C2184.32,-1619.15 2166.45,-1662.57 2134,-1682.44 2100.71,-1702.82 1472.04,-1730.44 1433,-1730.44 1101,-1730.44 1101,-1730.44 1101,-1730.44 1030.92,-1730.44 996.751,-1711.11 946,-1759.44 929.098,-1775.54 918.783,-1840.27 914.064,-1878.26"/>
<polygon fill="green" stroke="green" points="910.533,-1878.31 912.829,-1888.65 917.484,-1879.14 910.533,-1878.31"/>
<text text-anchor="middle" x="1542" y="-1732.24" font-family="Times,serif" font-size="14.00">chain_node</text>
</g>
<!-- q9&#45;&gt;q0 -->
<g id="edge75" class="edge"><title>q9&#45;&gt;q0</title>
<path fill="none" stroke="green" d="M2187.53,-1592.46C2176.72,-1608.09 2157.46,-1631.77 2134,-1642.44 1992,-1707.03 1588.99,-1679.44 1433,-1679.44 1101,-1679.44 1101,-1679.44 1101,-1679.44 1029.39,-1679.44 994.37,-1670.63 946,-1723.44 925.621,-1745.69 916.357,-1832.68 912.831,-1878.25"/>
<polygon fill="green" stroke="green" points="909.33,-1878.13 912.09,-1888.36 916.312,-1878.64 909.33,-1878.13"/>
<text text-anchor="middle" x="1542" y="-1687.24" font-family="Times,serif" font-size="14.00">create_sll</text>
</g>
<!-- q9&#45;&gt;q0 -->
<g id="edge76" class="edge"><title>q9&#45;&gt;q0</title>
<path fill="none" stroke="green" d="M2180.94,-1584C2145.72,-1597.78 2058.81,-1628.44 1983,-1628.44 1101,-1628.44 1101,-1628.44 1101,-1628.44 1029.01,-1628.44 993.107,-1621.01 946,-1675.44 920.12,-1705.34 913.359,-1823.72 911.606,-1878.44"/>
<polygon fill="green" stroke="green" points="908.106,-1878.39 911.319,-1888.49 915.104,-1878.59 908.106,-1878.39"/>
<text text-anchor="middle" x="1542" y="-1632.24" font-family="Times,serif" font-size="14.00">init_back_link</text>
</g>
<!-- q9&#45;&gt;q0 -->
<g id="edge77" class="edge"><title>q9&#45;&gt;q0</title>
<path fill="none" stroke="green" d="M2179.8,-1577.44C2143.46,-1577.44 2056.19,-1577.44 1983,-1577.44 1101,-1577.44 1101,-1577.44 1101,-1577.44 1028.88,-1577.44 992.304,-1570.15 946,-1625.44 914.296,-1663.3 910.797,-1814.76 910.76,-1878.23"/>
<polygon fill="green" stroke="green" points="907.26,-1878.33 910.783,-1888.33 914.26,-1878.32 907.26,-1878.33"/>
<text text-anchor="middle" x="1542" y="-1581.24" font-family="Times,serif" font-size="14.00">reverse_dll</text>
</g>
<!-- q9&#45;&gt;q0 -->
<g id="edge78" class="edge"><title>q9&#45;&gt;q0</title>
<path fill="none" stroke="green" d="M2180.94,-1570.88C2145.72,-1557.1 2058.81,-1526.44 1983,-1526.44 1101,-1526.44 1101,-1526.44 1101,-1526.44 1028.88,-1526.44 991.78,-1518.72 946,-1574.44 926.888,-1597.7 915.743,-1801.91 912.223,-1878.02"/>
<polygon fill="green" stroke="green" points="908.715,-1878.13 911.759,-1888.28 915.707,-1878.45 908.715,-1878.13"/>
<text text-anchor="middle" x="1542" y="-1530.24" font-family="Times,serif" font-size="14.00">remove_fw_link</text>
</g>
<!-- q9&#45;&gt;q0 -->
<g id="edge80" class="edge"><title>q9&#45;&gt;q0</title>
<path fill="none" stroke="green" d="M2183.55,-1565.74C2151.31,-1538.95 2066.14,-1475.44 1983,-1475.44 1101,-1475.44 1101,-1475.44 1101,-1475.44 1028.88,-1475.44 991.392,-1467.4 946,-1523.44 923.806,-1550.84 914.408,-1793.8 911.8,-1877.92"/>
<polygon fill="green" stroke="green" points="908.298,-1877.94 911.496,-1888.04 915.295,-1878.15 908.298,-1877.94"/>
<text text-anchor="middle" x="1542" y="-1479.24" font-family="Times,serif" font-size="14.00">check_seq_prev</text>
</g>
<!-- q9&#45;&gt;q0 -->
<g id="edge81" class="edge"><title>q9&#45;&gt;q0</title>
<path fill="none" stroke="green" d="M2189.72,-1561.12C2179.83,-1540.61 2160.3,-1505.57 2134,-1484.44 2077.7,-1439.21 2055.22,-1424.44 1983,-1424.44 1651,-1424.44 1651,-1424.44 1651,-1424.44 1493.97,-1424.44 1057.73,-1362.1 946,-1472.44 917.154,-1500.93 912.075,-1786.45 911.187,-1878.21"/>
<polygon fill="green" stroke="green" points="907.685,-1878.37 911.098,-1888.4 914.685,-1878.44 907.685,-1878.37"/>
<text text-anchor="middle" x="1542" y="-1426.24" font-family="Times,serif" font-size="14.00">Learn_Assert</text>
</g>
<!-- q9&#45;&gt;q8 -->
<g id="edge79" class="edge"><title>q9&#45;&gt;q8</title>
<path fill="none" stroke="green" d="M2214.07,-1586.36C2245.34,-1605.69 2317.4,-1654.62 2354,-1715.44 2375.6,-1751.33 2383.88,-1799.87 2387.05,-1830.16"/>
<polygon fill="green" stroke="green" points="2383.6,-1830.8 2388.01,-1840.43 2390.57,-1830.15 2383.6,-1830.8"/>
<text text-anchor="middle" x="2308" y="-1719.24" font-family="Times,serif" font-size="14.00">check_seq_next</text>
</g>
<!-- q10 -->
<g id="node12" class="node"><title>q10</title>
<ellipse fill="none" stroke="green" cx="1982" cy="-1245.44" rx="18" ry="18"/>
<text text-anchor="middle" x="1982" y="-1241.74" font-family="Times,serif" font-size="14.00">D</text>
</g>
<!-- q10&#45;&gt;q0 -->
<g id="edge82" class="edge"><title>q10&#45;&gt;q0</title>
<path fill="none" stroke="green" d="M1976.59,-1262.63C1969.15,-1287.67 1951.55,-1333.48 1918,-1354.44 1826.17,-1411.79 1022.64,-1345.98 946,-1422.44 913.664,-1454.7 910.997,-1779.65 910.937,-1878.23"/>
<polygon fill="green" stroke="green" points="907.437,-1878.34 910.94,-1888.34 914.437,-1878.34 907.437,-1878.34"/>
<text text-anchor="middle" x="1432" y="-1385.24" font-family="Times,serif" font-size="14.00">chain_node</text>
</g>
<!-- q10&#45;&gt;q0 -->
<g id="edge83" class="edge"><title>q10&#45;&gt;q0</title>
<path fill="none" stroke="green" d="M1972.39,-1260.78C1961.95,-1277.72 1942.65,-1304.2 1918,-1316.44 1820.97,-1364.6 1022.06,-1314.32 946,-1391.44 911.695,-1426.22 910.437,-1775.4 910.818,-1878.14"/>
<polygon fill="green" stroke="green" points="907.319,-1878.38 910.864,-1888.37 914.319,-1878.35 907.319,-1878.38"/>
<text text-anchor="middle" x="1432" y="-1348.24" font-family="Times,serif" font-size="14.00">create_sll</text>
</g>
<!-- q10&#45;&gt;q0 -->
<g id="edge85" class="edge"><title>q10&#45;&gt;q0</title>
<path fill="none" stroke="green" d="M1966.69,-1255.08C1954.36,-1262.85 1935.79,-1273.29 1918,-1278.44 1865.95,-1293.51 983.625,-1320.45 946,-1359.44 909.788,-1396.97 909.929,-1771.34 910.717,-1878.14"/>
<polygon fill="green" stroke="green" points="907.218,-1878.2 910.799,-1888.17 914.217,-1878.14 907.218,-1878.2"/>
<text text-anchor="middle" x="1432" y="-1316.24" font-family="Times,serif" font-size="14.00">reverse_dll</text>
</g>
<!-- q10&#45;&gt;q0 -->
<g id="edge86" class="edge"><title>q10&#45;&gt;q0</title>
<path fill="none" stroke="green" d="M1963.71,-1246.31C1831.34,-1253.09 982.726,-1297.93 946,-1336.44 908.374,-1375.89 909.566,-1768.31 910.648,-1878.06"/>
<polygon fill="green" stroke="green" points="907.151,-1878.37 910.758,-1888.34 914.151,-1878.3 907.151,-1878.37"/>
<text text-anchor="middle" x="1432" y="-1286.24" font-family="Times,serif" font-size="14.00">remove_fw_link</text>
</g>
<!-- q10&#45;&gt;q0 -->
<g id="edge87" class="edge"><title>q10&#45;&gt;q0</title>
<path fill="none" stroke="green" d="M1963.96,-1245.16C1835.22,-1243.23 1018.62,-1234.06 946,-1311.44 926.384,-1332.34 914.502,-1762.9 911.663,-1878.23"/>
<polygon fill="green" stroke="green" points="908.161,-1878.3 911.417,-1888.38 915.159,-1878.47 908.161,-1878.3"/>
<text text-anchor="middle" x="1432" y="-1254.24" font-family="Times,serif" font-size="14.00">check_seq_next</text>
</g>
<!-- q10&#45;&gt;q0 -->
<g id="edge88" class="edge"><title>q10&#45;&gt;q0</title>
<path fill="none" stroke="green" d="M1964.14,-1242.9C1841.66,-1224.85 1089.27,-1121.22 946,-1276.44 925.331,-1298.83 914.147,-1758.42 911.578,-1878.13"/>
<polygon fill="green" stroke="green" points="908.075,-1878.26 911.362,-1888.33 915.073,-1878.4 908.075,-1878.26"/>
<text text-anchor="middle" x="1432" y="-1199.24" font-family="Times,serif" font-size="14.00">check_seq_prev</text>
</g>
<!-- q10&#45;&gt;q0 -->
<g id="edge89" class="edge"><title>q10&#45;&gt;q0</title>
<path fill="none" stroke="green" d="M1965.3,-1238.17C1952.77,-1232.68 1934.61,-1225.44 1918,-1221.44 1870.19,-1209.93 1856.9,-1214.7 1808,-1209.44 1617.52,-1188.95 1069.95,-1077.36 946,-1223.44 924.495,-1248.79 913.829,-1752.57 911.497,-1878.23"/>
<polygon fill="green" stroke="green" points="907.997,-1878.17 911.314,-1888.24 914.996,-1878.3 907.997,-1878.17"/>
<text text-anchor="middle" x="1432" y="-1169.24" font-family="Times,serif" font-size="14.00">Learn_Assert</text>
</g>
<!-- q10&#45;&gt;q9 -->
<g id="edge84" class="edge"><title>q10&#45;&gt;q9</title>
<path fill="none" stroke="green" d="M1997.19,-1255.85C2026.73,-1278.2 2095.27,-1333.8 2134,-1395.44 2165.25,-1445.17 2183.28,-1512.35 2191.51,-1549.61"/>
<polygon fill="green" stroke="green" points="2188.16,-1550.68 2193.67,-1559.73 2195.01,-1549.22 2188.16,-1550.68"/>
<text text-anchor="middle" x="2090" y="-1399.24" font-family="Times,serif" font-size="14.00">init_back_link</text>
</g>
<!-- q11 -->
<g id="node13" class="node"><title>q11</title>
<ellipse fill="none" stroke="black" cx="1762" cy="-974.44" rx="18" ry="18"/>
<text text-anchor="middle" x="1762" y="-970.74" font-family="Times,serif" font-size="14.00">D</text>
</g>
<!-- q11&#45;&gt;q0 -->
<g id="edge90" class="edge"><title>q11&#45;&gt;q0</title>
<path fill="none" stroke="green" d="M1756.89,-991.873C1749.77,-1017.82 1732.47,-1065.95 1698,-1088.44 1557.47,-1180.12 1062.04,-1035.24 946,-1156.44 920.601,-1182.97 912.795,-1744.27 911.292,-1878.02"/>
<polygon fill="green" stroke="green" points="907.789,-1878.22 911.18,-1888.26 914.789,-1878.3 907.789,-1878.22"/>
<text text-anchor="middle" x="1322" y="-1119.24" font-family="Times,serif" font-size="14.00">chain_node</text>
</g>
<!-- q11&#45;&gt;q0 -->
<g id="edge91" class="edge"><title>q11&#45;&gt;q0</title>
<path fill="none" stroke="green" d="M1751.44,-989.263C1740.55,-1004.74 1721.23,-1028.27 1698,-1039.44 1546.71,-1112.19 1061.61,-989.72 946,-1111.44 919.078,-1139.78 912.401,-1739.62 911.216,-1878.09"/>
<polygon fill="green" stroke="green" points="907.715,-1878.28 911.132,-1888.31 914.714,-1878.34 907.715,-1878.28"/>
<text text-anchor="middle" x="1322" y="-1064.24" font-family="Times,serif" font-size="14.00">create_sll</text>
</g>
<!-- q11&#45;&gt;q0 -->
<g id="edge92" class="edge"><title>q11&#45;&gt;q0</title>
<path fill="none" stroke="green" d="M1744.89,-980.9C1709.17,-994.623 1620.35,-1025.44 1543,-1025.44 1101,-1025.44 1101,-1025.44 1101,-1025.44 1030.07,-1025.44 990.926,-1008.55 946,-1063.44 919.636,-1095.65 912.495,-1735.4 911.227,-1878.3"/>
<polygon fill="green" stroke="green" points="907.726,-1878.4 911.139,-1888.43 914.725,-1878.46 907.726,-1878.4"/>
<text text-anchor="middle" x="1322" y="-1029.24" font-family="Times,serif" font-size="14.00">init_back_link</text>
</g>
<!-- q11&#45;&gt;q0 -->
<g id="edge93" class="edge"><title>q11&#45;&gt;q0</title>
<path fill="none" stroke="green" d="M1743.76,-974.44C1706.91,-974.44 1617.75,-974.44 1543,-974.44 1101,-974.44 1101,-974.44 1101,-974.44 1029.27,-974.44 990.198,-962.941 946,-1019.44 918.932,-1054.04 912.315,-1730.84 911.193,-1878.25"/>
<polygon fill="green" stroke="green" points="907.692,-1878.28 911.118,-1888.31 914.692,-1878.33 907.692,-1878.28"/>
<text text-anchor="middle" x="1322" y="-978.24" font-family="Times,serif" font-size="14.00">reverse_dll</text>
</g>
<!-- q11&#45;&gt;q0 -->
<g id="edge94" class="edge"><title>q11&#45;&gt;q0</title>
<path fill="none" stroke="green" d="M1744.89,-967.981C1709.17,-954.258 1620.35,-923.44 1543,-923.44 1101,-923.44 1101,-923.44 1101,-923.44 1029.01,-923.44 989.958,-913.434 946,-970.44 917.634,-1007.23 912.021,-1724.24 911.143,-1877.69"/>
<polygon fill="green" stroke="green" points="907.64,-1878.12 911.085,-1888.14 914.64,-1878.16 907.64,-1878.12"/>
<text text-anchor="middle" x="1322" y="-927.24" font-family="Times,serif" font-size="14.00">remove_fw_link</text>
</g>
<!-- q11&#45;&gt;q0 -->
<g id="edge96" class="edge"><title>q11&#45;&gt;q0</title>
<path fill="none" stroke="green" d="M1747.85,-962.427C1735.66,-951.799 1716.65,-936.465 1698,-926.44 1633.74,-891.905 1615.95,-872.44 1543,-872.44 1101,-872.44 1101,-872.44 1101,-872.44 1029.01,-872.44 989.903,-862.392 946,-919.44 916.002,-958.42 911.661,-1720.7 911.083,-1878.14"/>
<polygon fill="green" stroke="green" points="907.582,-1878.4 911.048,-1888.41 914.582,-1878.42 907.582,-1878.4"/>
<text text-anchor="middle" x="1322" y="-876.24" font-family="Times,serif" font-size="14.00">check_seq_prev</text>
</g>
<!-- q11&#45;&gt;q0 -->
<g id="edge97" class="edge"><title>q11&#45;&gt;q0</title>
<path fill="none" stroke="green" d="M1754.34,-958.013C1744.86,-936.591 1725.53,-899.283 1698,-877.44 1640.62,-831.913 1616.25,-821.44 1543,-821.44 1101,-821.44 1101,-821.44 1101,-821.44 1029.01,-821.44 989.854,-811.354 946,-868.44 914.391,-909.588 911.328,-1716.13 911.032,-1878.21"/>
<polygon fill="green" stroke="green" points="907.532,-1878.34 911.015,-1888.35 914.532,-1878.35 907.532,-1878.34"/>
<text text-anchor="middle" x="1322" y="-825.24" font-family="Times,serif" font-size="14.00">Learn_Assert</text>
</g>
<!-- q11&#45;&gt;q10 -->
<g id="edge95" class="edge"><title>q11&#45;&gt;q10</title>
<path fill="none" stroke="green" d="M1776.94,-984.934C1806.07,-1007.4 1874.31,-1062.88 1918,-1121.44 1941.07,-1152.37 1959.89,-1193 1970.77,-1219.17"/>
<polygon fill="green" stroke="green" points="1967.67,-1220.82 1974.68,-1228.77 1974.15,-1218.19 1967.67,-1220.82"/>
<text text-anchor="middle" x="1872" y="-1125.24" font-family="Times,serif" font-size="14.00">check_seq_next</text>
</g>
<!-- q12 -->
<g id="node14" class="node"><title>q12</title>
<ellipse fill="none" stroke="green" cx="1542" cy="-699.44" rx="18" ry="18"/>
<text text-anchor="middle" x="1542" y="-695.74" font-family="Times,serif" font-size="14.00">D</text>
</g>
<!-- q12&#45;&gt;q0 -->
<g id="edge99" class="edge"><title>q12&#45;&gt;q0</title>
<path fill="none" stroke="green" d="M1529.45,-712.654C1517.82,-724.992 1498.66,-742.767 1478,-751.44 1368.39,-797.454 1026.93,-720.37 946,-807.44 908.484,-847.802 910.172,-1709.63 910.862,-1878.05"/>
<polygon fill="green" stroke="green" points="907.362,-1878.14 910.905,-1888.12 914.362,-1878.11 907.362,-1878.14"/>
<text text-anchor="middle" x="1212" y="-770.24" font-family="Times,serif" font-size="14.00">create_sll</text>
</g>
<!-- q12&#45;&gt;q0 -->
<g id="edge100" class="edge"><title>q12&#45;&gt;q0</title>
<path fill="none" stroke="green" d="M1524.26,-703.734C1511.62,-706.835 1493.82,-710.906 1478,-713.44 1419.34,-722.837 986.531,-723.012 946,-766.44 906.899,-808.336 909.896,-1706.96 910.827,-1878.34"/>
<polygon fill="green" stroke="green" points="907.327,-1878.37 910.883,-1888.35 914.326,-1878.33 907.327,-1878.37"/>
<text text-anchor="middle" x="1212" y="-734.24" font-family="Times,serif" font-size="14.00">init_back_link</text>
</g>
<!-- q12&#45;&gt;q0 -->
<g id="edge101" class="edge"><title>q12&#45;&gt;q0</title>
<path fill="none" stroke="green" d="M1524.02,-697.577C1435.14,-688.236 1024.54,-650.355 946,-738.44 906.885,-782.311 909.908,-1704.18 910.83,-1878.23"/>
<polygon fill="green" stroke="green" points="907.331,-1878.4 910.886,-1888.38 914.331,-1878.36 907.331,-1878.4"/>
<text text-anchor="middle" x="1212" y="-687.24" font-family="Times,serif" font-size="14.00">reverse_dll</text>
</g>
<!-- q12&#45;&gt;q0 -->
<g id="edge102" class="edge"><title>q12&#45;&gt;q0</title>
<path fill="none" stroke="green" d="M1524.57,-694.508C1511.95,-690.904 1494.02,-686.185 1478,-683.44 1361.45,-663.472 1024.84,-606.313 946,-694.44 905.273,-739.964 909.628,-1699.53 910.794,-1878"/>
<polygon fill="green" stroke="green" points="907.295,-1878.19 910.863,-1888.17 914.295,-1878.15 907.295,-1878.19"/>
<text text-anchor="middle" x="1212" y="-656.24" font-family="Times,serif" font-size="14.00">remove_fw_link</text>
</g>
<!-- q12&#45;&gt;q0 -->
<g id="edge104" class="edge"><title>q12&#45;&gt;q0</title>
<path fill="none" stroke="green" d="M1526.61,-689.894C1514.23,-682.127 1495.63,-671.495 1478,-665.44 1366.14,-627.032 1026.57,-563.863 946,-650.44 924.371,-673.681 913.131,-1693.85 911.276,-1878.08"/>
<polygon fill="green" stroke="green" points="907.776,-1878.05 911.176,-1888.08 914.776,-1878.12 907.776,-1878.05"/>
<text text-anchor="middle" x="1212" y="-621.24" font-family="Times,serif" font-size="14.00">check_seq_prev</text>
</g>
<!-- q12&#45;&gt;q0 -->
<g id="edge105" class="edge"><title>q12&#45;&gt;q0</title>
<path fill="none" stroke="green" d="M1530.61,-685.269C1519.3,-670.924 1499.89,-649.226 1478,-637.44 1373.75,-581.309 1027.4,-522.463 946,-608.44 923.396,-632.315 912.919,-1691.16 911.243,-1878.32"/>
<polygon fill="green" stroke="green" points="907.742,-1878.42 911.153,-1888.45 914.741,-1878.48 907.742,-1878.42"/>
<text text-anchor="middle" x="1212" y="-580.24" font-family="Times,serif" font-size="14.00">Learn_Assert</text>
</g>
<!-- q12&#45;&gt;q10 -->
<g id="edge103" class="edge"><title>q12&#45;&gt;q10</title>
<path fill="none" stroke="green" d="M1560.27,-698.742C1590.52,-698.324 1654.07,-701.102 1698,-728.44 1836.56,-814.669 1845.71,-876.123 1918,-1022.44 1950.61,-1088.44 1968.79,-1174.03 1976.51,-1217.48"/>
<polygon fill="green" stroke="green" points="1973.1,-1218.32 1978.25,-1227.58 1980,-1217.13 1973.1,-1218.32"/>
<text text-anchor="middle" x="1762" y="-823.24" font-family="Times,serif" font-size="14.00">check_seq_next</text>
</g>
<!-- q12&#45;&gt;q11 -->
<g id="edge98" class="edge"><title>q12&#45;&gt;q11</title>
<path fill="none" stroke="green" d="M1558.37,-706.953C1593.49,-724.371 1678.07,-767.892 1698,-792.44 1735.37,-838.477 1751.19,-908.062 1757.39,-946.483"/>
<polygon fill="green" stroke="green" points="1753.94,-947.082 1758.9,-956.448 1760.87,-946.038 1753.94,-947.082"/>
<text text-anchor="middle" x="1652" y="-796.24" font-family="Times,serif" font-size="14.00">chain_node</text>
</g>
<!-- q13 -->
<g id="node15" class="node"><title>q13</title>
<ellipse fill="none" stroke="green" cx="1322" cy="-389.44" rx="18" ry="18"/>
<text text-anchor="middle" x="1322" y="-385.74" font-family="Times,serif" font-size="14.00">D</text>
</g>
<!-- q13&#45;&gt;q0 -->
<g id="edge107" class="edge"><title>q13&#45;&gt;q0</title>
<path fill="none" stroke="green" d="M1316.63,-406.664C1309.17,-432.393 1291.43,-480.503 1258,-505.44 1144.39,-590.182 1036.69,-462.514 946,-571.44 924.331,-597.468 913.056,-1688.64 911.257,-1878.44"/>
<polygon fill="green" stroke="green" points="907.757,-1878.43 911.163,-1888.46 914.757,-1878.49 907.757,-1878.43"/>
<text text-anchor="middle" x="1102" y="-540.24" font-family="Times,serif" font-size="14.00">create_sll</text>
</g>
<!-- q13&#45;&gt;q0 -->
<g id="edge108" class="edge"><title>q13&#45;&gt;q0</title>
<path fill="none" stroke="green" d="M1310.97,-404.025C1299.82,-419.063 1280.4,-442.019 1258,-454.44 1133.96,-523.216 1036.53,-412.261 946,-521.44 923.551,-548.515 912.902,-1682.87 911.234,-1878.01"/>
<polygon fill="green" stroke="green" points="907.732,-1878.27 911.147,-1888.3 914.732,-1878.33 907.732,-1878.27"/>
<text text-anchor="middle" x="1102" y="-482.24" font-family="Times,serif" font-size="14.00">init_back_link</text>
</g>
<!-- q13&#45;&gt;q0 -->
<g id="edge109" class="edge"><title>q13&#45;&gt;q0</title>
<path fill="none" stroke="green" d="M1304.17,-393.259C1291.49,-396.117 1273.67,-400.093 1258,-403.44 1188.79,-418.229 991.4,-413.143 946,-467.44 922.512,-495.532 912.691,-1679.02 911.203,-1878.14"/>
<polygon fill="green" stroke="green" points="907.702,-1878.34 911.128,-1888.37 914.701,-1878.39 907.702,-1878.34"/>
<text text-anchor="middle" x="1102" y="-429.24" font-family="Times,serif" font-size="14.00">reverse_dll</text>
</g>
<!-- q13&#45;&gt;q0 -->
<g id="edge110" class="edge"><title>q13&#45;&gt;q0</title>
<path fill="none" stroke="green" d="M1303.96,-388.071C1236.67,-383.089 990.924,-369.037 946,-425.44 922.485,-454.964 912.662,-1676.25 911.196,-1878.27"/>
<polygon fill="green" stroke="green" points="907.696,-1878.35 911.124,-1888.38 914.696,-1878.4 907.696,-1878.35"/>
<text text-anchor="middle" x="1102" y="-392.24" font-family="Times,serif" font-size="14.00">remove_fw_link</text>
</g>
<!-- q13&#45;&gt;q0 -->
<g id="edge111" class="edge"><title>q13&#45;&gt;q0</title>
<path fill="none" stroke="green" d="M1304.01,-386.152C1236.94,-373.62 991.903,-332.258 946,-387.44 921.218,-417.232 912.438,-1672.88 911.167,-1878.19"/>
<polygon fill="green" stroke="green" points="907.666,-1878.42 911.104,-1888.44 914.665,-1878.46 907.666,-1878.42"/>
<text text-anchor="middle" x="1102" y="-368.24" font-family="Times,serif" font-size="14.00">check_seq_next</text>
</g>
<!-- q13&#45;&gt;q0 -->
<g id="edge112" class="edge"><title>q13&#45;&gt;q0</title>
<path fill="none" stroke="green" d="M1305.56,-381.706C1293.02,-375.699 1274.73,-367.556 1258,-362.44 1191.69,-342.162 992.189,-304.716 946,-356.44 919.635,-385.965 912.168,-1670.58 911.132,-1878.23"/>
<polygon fill="green" stroke="green" points="907.632,-1878.31 911.083,-1888.33 914.632,-1878.35 907.632,-1878.31"/>
<text text-anchor="middle" x="1102" y="-343.24" font-family="Times,serif" font-size="14.00">check_seq_prev</text>
</g>
<!-- q13&#45;&gt;q0 -->
<g id="edge113" class="edge"><title>q13&#45;&gt;q0</title>
<path fill="none" stroke="green" d="M1308.67,-376.641C1296.76,-365.002 1277.66,-348.198 1258,-338.44 1195.85,-307.599 992.204,-274.677 946,-326.44 919.118,-356.557 912.079,-1667.38 911.121,-1878.01"/>
<polygon fill="green" stroke="green" points="907.62,-1878.23 911.075,-1888.25 914.62,-1878.27 907.62,-1878.23"/>
<text text-anchor="middle" x="1102" y="-312.24" font-family="Times,serif" font-size="14.00">Learn_Assert</text>
</g>
<!-- q13&#45;&gt;q12 -->
<g id="edge106" class="edge"><title>q13&#45;&gt;q12</title>
<path fill="none" stroke="green" d="M1336.2,-400.808C1365.08,-426.237 1434.76,-490.663 1478,-556.44 1502.66,-593.955 1521.77,-642.725 1532.19,-672.522"/>
<polygon fill="green" stroke="green" points="1528.96,-673.894 1535.51,-682.221 1535.58,-671.626 1528.96,-673.894"/>
<text text-anchor="middle" x="1432" y="-560.24" font-family="Times,serif" font-size="14.00">chain_node</text>
</g>
<!-- q14&#45;&gt;q0 -->
<g id="edge115" class="edge"><title>q14&#45;&gt;q0</title>
<path fill="none" stroke="green" d="M1089.35,-170.714C1077.64,-183.195 1058.43,-201.415 1038,-211.44 1000.52,-229.832 972.705,-198.346 946,-230.44 918.54,-263.441 911.964,-1660.2 911.104,-1878.01"/>
<polygon fill="green" stroke="green" points="907.604,-1878.28 911.065,-1888.29 914.603,-1878.31 907.604,-1878.28"/>
<text text-anchor="middle" x="992" y="-234.24" font-family="Times,serif" font-size="14.00">create_sll</text>
</g>
<!-- q14&#45;&gt;q0 -->
<g id="edge116" class="edge"><title>q14&#45;&gt;q0</title>
<path fill="none" stroke="green" d="M1084.47,-161.856C1071.79,-165.189 1053.84,-169.796 1038,-173.44 997.312,-182.804 972.698,-160.34 946,-192.44 917.882,-226.248 911.849,-1659.02 911.09,-1878.39"/>
<polygon fill="green" stroke="green" points="907.59,-1878.44 911.056,-1888.45 914.59,-1878.46 907.59,-1878.44"/>
<text text-anchor="middle" x="992" y="-196.24" font-family="Times,serif" font-size="14.00">init_back_link</text>
</g>
<!-- q14&#45;&gt;q0 -->
<g id="edge117" class="edge"><title>q14&#45;&gt;q0</title>
<path fill="none" stroke="green" d="M1084.21,-154.272C1048.18,-147.905 965.125,-135.694 946,-154.44 913.885,-185.92 911.236,-1654.59 911.019,-1878.06"/>
<polygon fill="green" stroke="green" points="907.519,-1878.3 911.01,-1888.3 914.519,-1878.31 907.519,-1878.3"/>
<text text-anchor="middle" x="992" y="-158.24" font-family="Times,serif" font-size="14.00">reverse_dll</text>
</g>
<!-- q14&#45;&gt;q0 -->
<g id="edge118" class="edge"><title>q14&#45;&gt;q0</title>
<path fill="none" stroke="green" d="M1086.71,-147.53C1056.3,-127.747 984.797,-88.3983 946,-126.44 913.344,-158.46 911.155,-1653.6 911.01,-1878.3"/>
<polygon fill="green" stroke="green" points="907.51,-1878.3 911.004,-1888.3 914.51,-1878.3 907.51,-1878.3"/>
<text text-anchor="middle" x="992" y="-130.24" font-family="Times,serif" font-size="14.00">remove_fw_link</text>
</g>
<!-- q14&#45;&gt;q0 -->
<g id="edge119" class="edge"><title>q14&#45;&gt;q0</title>
<path fill="none" stroke="green" d="M1091.83,-142.472C1081.15,-126.63 1061.88,-102.55 1038,-92.4404 1000.35,-76.4983 975.19,-63.8079 946,-92.4404 912.709,-125.095 911.06,-1650.35 910.999,-1878.11"/>
<polygon fill="green" stroke="green" points="907.5,-1878.25 910.998,-1888.25 914.5,-1878.25 907.5,-1878.25"/>
<text text-anchor="middle" x="992" y="-96.2404" font-family="Times,serif" font-size="14.00">check_seq_next</text>
</g>
<!-- q14&#45;&gt;q0 -->
<g id="edge120" class="edge"><title>q14&#45;&gt;q0</title>
<path fill="none" stroke="green" d="M1096.11,-140.396C1088.26,-116.616 1070.35,-74.3877 1038,-56.4404 1002.25,-36.6029 975.185,-27.8024 946,-56.4404 912.038,-89.7663 910.961,-1646.89 910.989,-1877.91"/>
<polygon fill="green" stroke="green" points="907.488,-1878.19 910.991,-1888.18 914.488,-1878.18 907.488,-1878.19"/>
<text text-anchor="middle" x="992" y="-60.2404" font-family="Times,serif" font-size="14.00">check_seq_prev</text>
</g>
<!-- q14&#45;&gt;q0 -->
<g id="edge121" class="edge"><title>q14&#45;&gt;q0</title>
<path fill="none" stroke="green" d="M1098.92,-139.561C1094.26,-108.746 1079.87,-46.3546 1038,-19.4404 1003.6,2.66809 975.18,9.20304 946,-19.4404 911.329,-53.4743 910.86,-1644.99 910.978,-1878.07"/>
<polygon fill="green" stroke="green" points="907.478,-1878.42 910.984,-1888.42 914.478,-1878.42 907.478,-1878.42"/>
<text text-anchor="middle" x="992" y="-23.2404" font-family="Times,serif" font-size="14.00">Learn_Assert</text>
</g>
<!-- q14&#45;&gt;q13 -->
<g id="edge114" class="edge"><title>q14&#45;&gt;q13</title>
<path fill="none" stroke="green" d="M1120.19,-158.149C1151.77,-160.374 1219.31,-169.561 1258,-207.44 1300.79,-249.33 1314.54,-321.675 1318.94,-361.367"/>
<polygon fill="green" stroke="green" points="1315.47,-361.804 1319.93,-371.412 1322.44,-361.117 1315.47,-361.804"/>
<text text-anchor="middle" x="1212" y="-211.24" font-family="Times,serif" font-size="14.00">chain_node</text>
</g>
<!-- iq0 -->
<g id="node17" class="node"><title>iq0</title>
</g>
<!-- iq0&#45;&gt;q0 -->
<g id="edge1" class="edge"><title>iq0&#45;&gt;q0</title>
<path fill="none" stroke="blue" d="M409.12,-1777.42C499.751,-1774.37 799.212,-1768.73 874,-1823.44 891.679,-1836.37 900.489,-1860 904.844,-1878.75"/>
<polygon fill="blue" stroke="blue" points="901.417,-1879.46 906.833,-1888.56 908.277,-1878.07 901.417,-1879.46"/>
</g>
</g>
</svg>
