<?xml version="1.0" encoding="UTF-8" standalone="no"?>
<!DOCTYPE svg PUBLIC "-//W3C//DTD SVG 1.1//EN"
 "http://www.w3.org/Graphics/SVG/1.1/DTD/svg11.dtd">
<!-- Generated by graphviz version 2.34.0 (20141125.1709)
 -->
<!-- Title: finite_automaton Pages: 1 -->
<svg width="508pt" height="576pt"
 viewBox="0.00 0.00 508.28 576.00" xmlns="http://www.w3.org/2000/svg" xmlns:xlink="http://www.w3.org/1999/xlink">
<g id="graph0" class="graph" transform="scale(0.117602 0.117602) rotate(0) translate(4 4893.86)">
<title>finite_automaton</title>
<polygon fill="white" stroke="white" points="-4,4 -4,-4893.86 4318,-4893.86 4318,4 -4,4"/>
<!-- dom_edges -->
<g id="node1" class="node"><title>dom_edges</title>
<polygon fill="none" stroke="green" points="764,-2078.86 0,-2078.86 0,-2042.86 764,-2042.86 764,-2078.86"/>
<text text-anchor="middle" x="382" y="-2057.16" font-family="Times,serif" font-size="14.00">Dominating edges: chain_node, create_sll, init_back_link, reverse_dll, remove_fw_link, check_seq_next, check_seq_prev, Learn_Assert</text>
</g>
<!-- q1 -->
<g id="node2" class="node"><title>q1</title>
<ellipse fill="none" stroke="green" cx="382" cy="-2299.86" rx="18" ry="18"/>
<ellipse fill="none" stroke="green" cx="382" cy="-2299.86" rx="22" ry="22"/>
<text text-anchor="middle" x="382" y="-2296.16" font-family="Times,serif" font-size="14.00">D</text>
</g>
<!-- q0 -->
<g id="node3" class="node"><title>q0</title>
<ellipse fill="none" stroke="green" cx="910" cy="-2242.86" rx="18" ry="18"/>
<text text-anchor="middle" x="910" y="-2239.16" font-family="Times,serif" font-size="14.00">D</text>
</g>
<!-- q1&#45;&gt;q0 -->
<g id="edge10" class="edge"><title>q1&#45;&gt;q0</title>
<path fill="none" stroke="green" d="M400.526,-2311.84C469.324,-2357.24 724.453,-2510.35 874,-2391.86 892.657,-2377.08 902.342,-2310.02 906.475,-2271.08"/>
<polygon fill="green" stroke="green" points="909.98,-2271.22 907.497,-2260.92 903.015,-2270.52 909.98,-2271.22"/>
<text text-anchor="middle" x="828" y="-2432.66" font-family="Times,serif" font-size="14.00">chain_node</text>
</g>
<!-- q1&#45;&gt;q0 -->
<g id="edge11" class="edge"><title>q1&#45;&gt;q0</title>
<path fill="none" stroke="green" d="M403.748,-2303.79C492.258,-2320.32 835.487,-2382.1 874,-2353.86 899.636,-2335.07 906.982,-2297.45 908.835,-2271.25"/>
<polygon fill="green" stroke="green" points="912.337,-2271.3 909.322,-2261.14 905.345,-2270.96 912.337,-2271.3"/>
<text text-anchor="middle" x="828" y="-2364.66" font-family="Times,serif" font-size="14.00">create_sll</text>
</g>
<!-- q1&#45;&gt;q0 -->
<g id="edge12" class="edge"><title>q1&#45;&gt;q0</title>
<path fill="none" stroke="green" d="M403.961,-2301.91C492.588,-2310.39 833.852,-2341.14 874,-2315.86 889.709,-2305.97 898.525,-2286.86 903.379,-2270.67"/>
<polygon fill="green" stroke="green" points="906.874,-2271.14 906.029,-2260.58 900.103,-2269.36 906.874,-2271.14"/>
<text text-anchor="middle" x="828" y="-2328.66" font-family="Times,serif" font-size="14.00">init_back_link</text>
</g>
<!-- q1&#45;&gt;q0 -->
<g id="edge13" class="edge"><title>q1&#45;&gt;q0</title>
<path fill="none" stroke="green" d="M404.089,-2299.81C492.49,-2299.49 830.615,-2296.98 874,-2277.86 880.657,-2274.93 886.739,-2270.11 891.897,-2264.97"/>
<polygon fill="green" stroke="green" points="894.638,-2267.16 898.755,-2257.4 889.449,-2262.46 894.638,-2267.16"/>
<text text-anchor="middle" x="828" y="-2292.66" font-family="Times,serif" font-size="14.00">reverse_dll</text>
</g>
<!-- q1&#45;&gt;q0 -->
<g id="edge14" class="edge"><title>q1&#45;&gt;q0</title>
<path fill="none" stroke="green" d="M403.944,-2297.59C486.469,-2288.65 789.155,-2255.85 881.843,-2245.81"/>
<polygon fill="green" stroke="green" points="882.274,-2249.28 891.838,-2244.72 881.519,-2242.32 882.274,-2249.28"/>
<text text-anchor="middle" x="828" y="-2258.66" font-family="Times,serif" font-size="14.00">remove_fw_link</text>
</g>
<!-- q1&#45;&gt;q0 -->
<g id="edge15" class="edge"><title>q1&#45;&gt;q0</title>
<path fill="none" stroke="green" d="M403.587,-2294.73C462.238,-2280.4 635.423,-2240.16 782,-2226.86 822.722,-2223.17 834.047,-2218.17 874,-2226.86 877.501,-2227.63 881.071,-2228.77 884.527,-2230.11"/>
<polygon fill="green" stroke="green" points="883.254,-2233.37 893.816,-2234.2 886.08,-2226.96 883.254,-2233.37"/>
<text text-anchor="middle" x="828" y="-2230.66" font-family="Times,serif" font-size="14.00">check_seq_next</text>
</g>
<!-- q1&#45;&gt;q0 -->
<g id="edge16" class="edge"><title>q1&#45;&gt;q0</title>
<path fill="none" stroke="green" d="M403.033,-2293.18C460.914,-2274.28 633.711,-2220.63 782,-2202.86 822.599,-2198 836.765,-2185.97 874,-2202.86 881.799,-2206.4 888.543,-2212.63 893.973,-2219.14"/>
<polygon fill="green" stroke="green" points="891.327,-2221.44 900.127,-2227.34 896.927,-2217.24 891.327,-2221.44"/>
<text text-anchor="middle" x="828" y="-2206.66" font-family="Times,serif" font-size="14.00">check_seq_prev</text>
</g>
<!-- q1&#45;&gt;q0 -->
<g id="edge17" class="edge"><title>q1&#45;&gt;q0</title>
<path fill="none" stroke="green" d="M402.423,-2291.44C459.355,-2267.26 631.313,-2197.92 782,-2174.86 822.419,-2168.68 839.093,-2153.57 874,-2174.86 888.552,-2183.74 897.31,-2200.81 902.427,-2215.63"/>
<polygon fill="green" stroke="green" points="899.143,-2216.86 905.413,-2225.4 905.837,-2214.81 899.143,-2216.86"/>
<text text-anchor="middle" x="828" y="-2178.66" font-family="Times,serif" font-size="14.00">Learn_Assert</text>
</g>
<!-- q0&#45;&gt;q0 -->
<g id="edge2" class="edge"><title>q0&#45;&gt;q0</title>
<path fill="none" stroke="green" d="M907.881,-2261.02C907.555,-2270.4 908.261,-2278.86 910,-2278.86 911.06,-2278.86 911.736,-2275.72 912.029,-2271.14"/>
<polygon fill="green" stroke="green" points="915.53,-2271.05 912.119,-2261.02 908.53,-2270.99 915.53,-2271.05"/>
<text text-anchor="middle" x="910" y="-2282.66" font-family="Times,serif" font-size="14.00">chain_node</text>
</g>
<!-- q0&#45;&gt;q0 -->
<g id="edge4" class="edge"><title>q0&#45;&gt;q0</title>
<path fill="none" stroke="green" d="M906.509,-2260.56C904.581,-2277.86 905.744,-2296.86 910,-2296.86 913.424,-2296.86 914.847,-2284.56 914.267,-2270.74"/>
<polygon fill="green" stroke="green" points="917.741,-2270.27 913.491,-2260.56 910.762,-2270.8 917.741,-2270.27"/>
<text text-anchor="middle" x="910" y="-2300.66" font-family="Times,serif" font-size="14.00">init_back_link</text>
</g>
<!-- q0&#45;&gt;q0 -->
<g id="edge5" class="edge"><title>q0&#45;&gt;q0</title>
<path fill="none" stroke="green" d="M905.613,-2260.58C901.605,-2284.98 903.068,-2314.86 910,-2314.86 916.012,-2314.86 917.91,-2292.39 915.694,-2270.51"/>
<polygon fill="green" stroke="green" points="919.163,-2270.04 914.387,-2260.58 912.222,-2270.95 919.163,-2270.04"/>
<text text-anchor="middle" x="910" y="-2318.66" font-family="Times,serif" font-size="14.00">reverse_dll</text>
</g>
<!-- q0&#45;&gt;q0 -->
<g id="edge6" class="edge"><title>q0&#45;&gt;q0</title>
<path fill="none" stroke="green" d="M904.998,-2260.53C898.632,-2291.72 900.299,-2332.86 910,-2332.86 918.678,-2332.86 920.927,-2299.94 916.748,-2270.67"/>
<polygon fill="green" stroke="green" points="920.149,-2269.8 915.002,-2260.53 913.25,-2270.98 920.149,-2269.8"/>
<text text-anchor="middle" x="910" y="-2336.66" font-family="Times,serif" font-size="14.00">remove_fw_link</text>
</g>
<!-- q0&#45;&gt;q0 -->
<g id="edge7" class="edge"><title>q0&#45;&gt;q0</title>
<path fill="none" stroke="green" d="M904.63,-2260.15C895.655,-2297.93 897.445,-2350.86 910,-2350.86 921.476,-2350.86 923.958,-2306.64 917.446,-2270.18"/>
<polygon fill="green" stroke="green" points="920.823,-2269.23 915.37,-2260.15 913.968,-2270.65 920.823,-2269.23"/>
<text text-anchor="middle" x="910" y="-2354.66" font-family="Times,serif" font-size="14.00">check_seq_next</text>
</g>
<!-- q0&#45;&gt;q0 -->
<g id="edge8" class="edge"><title>q0&#45;&gt;q0</title>
<path fill="none" stroke="green" d="M904.312,-2260.04C892.695,-2304.26 894.591,-2368.86 910,-2368.86 924.296,-2368.86 926.961,-2313.26 917.995,-2269.92"/>
<polygon fill="green" stroke="green" points="921.371,-2268.98 915.688,-2260.04 914.555,-2270.58 921.371,-2268.98"/>
<text text-anchor="middle" x="910" y="-2372.66" font-family="Times,serif" font-size="14.00">check_seq_prev</text>
</g>
<!-- q0&#45;&gt;q0 -->
<g id="edge9" class="edge"><title>q0&#45;&gt;q0</title>
<path fill="none" stroke="green" d="M904.009,-2260.15C889.745,-2310.72 891.742,-2386.86 910,-2386.86 927.117,-2386.86 929.942,-2319.94 918.475,-2269.9"/>
<polygon fill="green" stroke="green" points="921.85,-2268.98 915.991,-2260.15 915.066,-2270.7 921.85,-2268.98"/>
<text text-anchor="middle" x="910" y="-2390.66" font-family="Times,serif" font-size="14.00">Learn_Assert</text>
</g>
<!-- q17 -->
<g id="node19" class="node"><title>q17</title>
<ellipse fill="none" stroke="green" cx="1102" cy="-565.864" rx="18" ry="18"/>
<text text-anchor="middle" x="1102" y="-562.164" font-family="Times,serif" font-size="14.00">D</text>
</g>
<!-- q0&#45;&gt;q17 -->
<g id="edge3" class="edge"><title>q0&#45;&gt;q17</title>
<path fill="none" stroke="green" d="M911.122,-2224.74C912.286,-2057.38 921.909,-786.982 946,-756.864 972.327,-723.951 1009.93,-765.308 1038,-733.864 1078.6,-688.377 1024.54,-650.093 1056,-597.864 1060.83,-589.837 1068.54,-583.274 1076.21,-578.228"/>
<polygon fill="green" stroke="green" points="1078.22,-581.11 1085.04,-573.004 1074.65,-575.086 1078.22,-581.11"/>
<text text-anchor="middle" x="992" y="-760.664" font-family="Times,serif" font-size="14.00">create_sll</text>
</g>
<!-- q2 -->
<g id="node4" class="node"><title>q2</title>
<ellipse fill="none" stroke="green" cx="4296" cy="-4678.86" rx="18" ry="18"/>
<text text-anchor="middle" x="4296" y="-4675.16" font-family="Times,serif" font-size="14.00">D</text>
</g>
<!-- q2&#45;&gt;q1 -->
<g id="edge25" class="edge"><title>q2&#45;&gt;q1</title>
<path fill="none" stroke="green" d="M4295.8,-4697.2C4296.13,-4727.8 4292.39,-4789.6 4260,-4826.86 4221.51,-4871.16 4195.68,-4874.86 4137,-4874.86 909,-4874.86 909,-4874.86 909,-4874.86 636.179,-4874.86 414.017,-2627.32 385.984,-2331.79"/>
<polygon fill="green" stroke="green" points="389.459,-2331.36 385.034,-2321.74 382.49,-2332.02 389.459,-2331.36"/>
<text text-anchor="middle" x="2748" y="-4878.66" font-family="Times,serif" font-size="14.00">Learn_Assert</text>
</g>
<!-- q2&#45;&gt;q0 -->
<g id="edge18" class="edge"><title>q2&#45;&gt;q0</title>
<path fill="none" stroke="green" d="M4294.61,-4697.24C4293.06,-4722.66 4286.49,-4768.4 4260,-4794.86 4219.62,-4835.21 4194.09,-4831.86 4137,-4831.86 1101,-4831.86 1101,-4831.86 1101,-4831.86 1030.18,-4831.86 990.263,-4850.15 946,-4794.86 904.476,-4743 910.042,-2546.88 910.905,-2271.19"/>
<polygon fill="green" stroke="green" points="914.405,-2271.19 910.937,-2261.18 907.405,-2271.17 914.405,-2271.19"/>
<text text-anchor="middle" x="2858" y="-4835.66" font-family="Times,serif" font-size="14.00">chain_node</text>
</g>
<!-- q2&#45;&gt;q0 -->
<g id="edge19" class="edge"><title>q2&#45;&gt;q0</title>
<path fill="none" stroke="green" d="M4289.94,-4695.94C4284.73,-4710.67 4275.19,-4731.46 4260,-4743.86 4215.77,-4779.96 4194.09,-4780.86 4137,-4780.86 1101,-4780.86 1101,-4780.86 1101,-4780.86 1030.18,-4780.86 990.271,-4799.15 946,-4743.86 905.339,-4693.09 910.136,-2545.14 910.913,-2271.45"/>
<polygon fill="green" stroke="green" points="914.414,-2271.17 910.943,-2261.16 907.414,-2271.15 914.414,-2271.17"/>
<text text-anchor="middle" x="2858" y="-4784.66" font-family="Times,serif" font-size="14.00">create_sll</text>
</g>
<!-- q2&#45;&gt;q0 -->
<g id="edge20" class="edge"><title>q2&#45;&gt;q0</title>
<path fill="none" stroke="green" d="M4279.83,-4687.29C4252.27,-4701.77 4191.77,-4729.86 4137,-4729.86 1101,-4729.86 1101,-4729.86 1101,-4729.86 1030.18,-4729.86 990.279,-4748.14 946,-4692.86 906.181,-4643.16 910.236,-2541.15 910.922,-2271.28"/>
<polygon fill="green" stroke="green" points="914.422,-2271.14 910.948,-2261.13 907.422,-2271.12 914.422,-2271.14"/>
<text text-anchor="middle" x="2858" y="-4733.66" font-family="Times,serif" font-size="14.00">init_back_link</text>
</g>
<!-- q2&#45;&gt;q0 -->
<g id="edge21" class="edge"><title>q2&#45;&gt;q0</title>
<path fill="none" stroke="green" d="M4277.93,-4678.86C4248.96,-4678.86 4188.3,-4678.86 4137,-4678.86 1101,-4678.86 1101,-4678.86 1101,-4678.86 1030.18,-4678.86 990.287,-4697.13 946,-4641.86 907.023,-4593.22 910.339,-2537.05 910.931,-2271.1"/>
<polygon fill="green" stroke="green" points="914.431,-2271.09 910.954,-2261.08 907.431,-2271.07 914.431,-2271.09"/>
<text text-anchor="middle" x="2858" y="-4682.66" font-family="Times,serif" font-size="14.00">reverse_dll</text>
</g>
<!-- q2&#45;&gt;q0 -->
<g id="edge22" class="edge"><title>q2&#45;&gt;q0</title>
<path fill="none" stroke="green" d="M4279.83,-4670.44C4252.27,-4655.96 4191.77,-4627.86 4137,-4627.86 1101,-4627.86 1101,-4627.86 1101,-4627.86 1030.18,-4627.86 990.296,-4646.13 946,-4590.86 907.882,-4543.31 910.44,-2534.86 910.94,-2271.29"/>
<polygon fill="green" stroke="green" points="914.44,-2271.03 910.96,-2261.03 907.44,-2271.02 914.44,-2271.03"/>
<text text-anchor="middle" x="2858" y="-4631.66" font-family="Times,serif" font-size="14.00">remove_fw_link</text>
</g>
<!-- q2&#45;&gt;q0 -->
<g id="edge23" class="edge"><title>q2&#45;&gt;q0</title>
<path fill="none" stroke="green" d="M4287.49,-4662.91C4281.45,-4651.54 4271.99,-4636.61 4260,-4626.86 4214.2,-4589.66 4196.01,-4576.86 4137,-4576.86 1101,-4576.86 1101,-4576.86 1101,-4576.86 1030.18,-4576.86 990.305,-4595.12 946,-4539.86 908.721,-4493.37 910.545,-2530.55 910.95,-2271.08"/>
<polygon fill="green" stroke="green" points="914.45,-2270.97 910.966,-2260.96 907.45,-2270.95 914.45,-2270.97"/>
<text text-anchor="middle" x="2858" y="-4580.66" font-family="Times,serif" font-size="14.00">check_seq_next</text>
</g>
<!-- q2&#45;&gt;q0 -->
<g id="edge24" class="edge"><title>q2&#45;&gt;q0</title>
<path fill="none" stroke="green" d="M4293.49,-4660.7C4290.68,-4637.88 4282.66,-4598.79 4260,-4574.86 4219.54,-4532.14 4195.84,-4525.86 4137,-4525.86 1101,-4525.86 1101,-4525.86 1101,-4525.86 1029.74,-4525.86 989.909,-4540.99 946,-4484.86 910.195,-4439.1 910.734,-2527.47 910.968,-2271.17"/>
<polygon fill="green" stroke="green" points="914.468,-2270.85 910.978,-2260.85 907.468,-2270.84 914.468,-2270.85"/>
<text text-anchor="middle" x="2858" y="-4529.66" font-family="Times,serif" font-size="14.00">check_seq_prev</text>
</g>
<!-- q3 -->
<g id="node5" class="node"><title>q3</title>
<ellipse fill="none" stroke="green" cx="4136" cy="-4365.86" rx="18" ry="18"/>
<text text-anchor="middle" x="4136" y="-4362.16" font-family="Times,serif" font-size="14.00">D</text>
</g>
<!-- q3&#45;&gt;q0 -->
<g id="edge26" class="edge"><title>q3&#45;&gt;q0</title>
<path fill="none" stroke="green" d="M4133.17,-4383.71C4130.06,-4404.33 4121.79,-4437.76 4100,-4455.86 4055.82,-4492.58 4030.44,-4479.86 3973,-4479.86 1101,-4479.86 1101,-4479.86 1101,-4479.86 1031.29,-4479.86 991.782,-4508.43 946,-4455.86 908.352,-4412.63 910.482,-2525.99 910.942,-2271.22"/>
<polygon fill="green" stroke="green" points="914.443,-2270.96 910.961,-2260.95 907.443,-2270.94 914.443,-2270.96"/>
<text text-anchor="middle" x="2748" y="-4483.66" font-family="Times,serif" font-size="14.00">chain_node</text>
</g>
<!-- q3&#45;&gt;q0 -->
<g id="edge27" class="edge"><title>q3&#45;&gt;q0</title>
<path fill="none" stroke="green" d="M4128.04,-4382.56C4122.26,-4394.29 4112.9,-4409.36 4100,-4417.86 4052.03,-4449.47 4030.44,-4441.86 3973,-4441.86 1101,-4441.86 1101,-4441.86 1101,-4441.86 1031.29,-4441.86 991.789,-4470.43 946,-4417.86 909.011,-4375.4 910.567,-2523.05 910.95,-2271.12"/>
<polygon fill="green" stroke="green" points="914.45,-2270.96 910.966,-2260.96 907.45,-2270.95 914.45,-2270.96"/>
<text text-anchor="middle" x="2748" y="-4445.66" font-family="Times,serif" font-size="14.00">create_sll</text>
</g>
<!-- q3&#45;&gt;q0 -->
<g id="edge28" class="edge"><title>q3&#45;&gt;q0</title>
<path fill="none" stroke="green" d="M4119.2,-4372.94C4113.27,-4375.39 4106.41,-4378 4100,-4379.86 4044.85,-4395.94 4030.44,-4403.86 3973,-4403.86 1101,-4403.86 1101,-4403.86 1101,-4403.86 1031.29,-4403.86 991.796,-4432.42 946,-4379.86 909.67,-4338.17 910.653,-2520.03 910.959,-2271.01"/>
<polygon fill="green" stroke="green" points="914.459,-2270.96 910.972,-2260.96 907.459,-2270.95 914.459,-2270.96"/>
<text text-anchor="middle" x="2748" y="-4407.66" font-family="Times,serif" font-size="14.00">init_back_link</text>
</g>
<!-- q3&#45;&gt;q0 -->
<g id="edge29" class="edge"><title>q3&#45;&gt;q0</title>
<path fill="none" stroke="green" d="M4117.97,-4365.86C4088.46,-4365.86 4025.88,-4365.86 3973,-4365.86 1101,-4365.86 1101,-4365.86 1101,-4365.86 1031.29,-4365.86 991.804,-4394.41 946,-4341.86 910.346,-4300.96 910.74,-2518.71 910.967,-2271.26"/>
<polygon fill="green" stroke="green" points="914.467,-2270.95 910.977,-2260.95 907.467,-2270.95 914.467,-2270.95"/>
<text text-anchor="middle" x="2748" y="-4369.66" font-family="Times,serif" font-size="14.00">reverse_dll</text>
</g>
<!-- q3&#45;&gt;q0 -->
<g id="edge30" class="edge"><title>q3&#45;&gt;q0</title>
<path fill="none" stroke="green" d="M4118.74,-4359.42C4089.88,-4348.58 4027.6,-4327.86 3973,-4327.86 1101,-4327.86 1101,-4327.86 1101,-4327.86 1031.29,-4327.86 991.812,-4356.41 946,-4303.86 911.003,-4263.73 910.829,-2515.53 910.976,-2271.12"/>
<polygon fill="green" stroke="green" points="914.476,-2270.93 910.983,-2260.93 907.476,-2270.93 914.476,-2270.93"/>
<text text-anchor="middle" x="2748" y="-4331.66" font-family="Times,serif" font-size="14.00">remove_fw_link</text>
</g>
<!-- q3&#45;&gt;q0 -->
<g id="edge31" class="edge"><title>q3&#45;&gt;q0</title>
<path fill="none" stroke="green" d="M4125.28,-4350.99C4119,-4342.49 4110.14,-4332.28 4100,-4325.86 4050.42,-4294.5 4031.67,-4289.86 3973,-4289.86 1101,-4289.86 1101,-4289.86 1101,-4289.86 1031.29,-4289.86 991.821,-4318.4 946,-4265.86 911.66,-4226.49 910.919,-2512.28 910.985,-2270.98"/>
<polygon fill="green" stroke="green" points="914.485,-2270.91 910.989,-2260.91 907.485,-2270.9 914.485,-2270.91"/>
<text text-anchor="middle" x="2748" y="-4293.66" font-family="Times,serif" font-size="14.00">check_seq_next</text>
</g>
<!-- q3&#45;&gt;q0 -->
<g id="edge33" class="edge"><title>q3&#45;&gt;q0</title>
<path fill="none" stroke="green" d="M4131.75,-4348.15C4127.53,-4330.15 4118.41,-4302.73 4100,-4286.86 4055.65,-4248.64 4031.55,-4251.86 3973,-4251.86 1101,-4251.86 1101,-4251.86 1101,-4251.86 1029.01,-4251.86 989.399,-4262.3 946,-4204.86 915.499,-4164.5 911.466,-2508.91 911.044,-2271.18"/>
<polygon fill="green" stroke="green" points="914.543,-2270.94 911.026,-2260.94 907.543,-2270.95 914.543,-2270.94"/>
<text text-anchor="middle" x="2748" y="-4255.66" font-family="Times,serif" font-size="14.00">Learn_Assert</text>
</g>
<!-- q3&#45;&gt;q2 -->
<g id="edge32" class="edge"><title>q3&#45;&gt;q2</title>
<path fill="none" stroke="green" d="M4151.11,-4376.33C4177.2,-4396.5 4232.77,-4443.51 4260,-4496.86 4285.56,-4546.95 4292.54,-4613.46 4294.39,-4650.64"/>
<polygon fill="green" stroke="green" points="4290.89,-4650.89 4294.8,-4660.74 4297.89,-4650.61 4290.89,-4650.89"/>
<text text-anchor="middle" x="4216" y="-4500.66" font-family="Times,serif" font-size="14.00">check_seq_prev</text>
</g>
<!-- q4 -->
<g id="node6" class="node"><title>q4</title>
<ellipse fill="none" stroke="green" cx="3972" cy="-4055.86" rx="18" ry="18"/>
<text text-anchor="middle" x="3972" y="-4052.16" font-family="Times,serif" font-size="14.00">D</text>
</g>
<!-- q4&#45;&gt;q0 -->
<g id="edge34" class="edge"><title>q4&#45;&gt;q0</title>
<path fill="none" stroke="green" d="M3970.61,-4074.24C3969.06,-4099.66 3962.49,-4145.4 3936,-4171.86 3895.62,-4212.21 3870.09,-4208.86 3813,-4208.86 1101,-4208.86 1101,-4208.86 1101,-4208.86 1030.18,-4208.86 990.385,-4227.06 946,-4171.86 914.844,-4133.12 911.373,-2506.26 911.034,-2271.08"/>
<polygon fill="green" stroke="green" points="914.534,-2270.94 911.02,-2260.95 907.534,-2270.95 914.534,-2270.94"/>
<text text-anchor="middle" x="2640" y="-4212.66" font-family="Times,serif" font-size="14.00">chain_node</text>
</g>
<!-- q4&#45;&gt;q0 -->
<g id="edge35" class="edge"><title>q4&#45;&gt;q0</title>
<path fill="none" stroke="green" d="M3965.94,-4072.94C3960.73,-4087.67 3951.19,-4108.46 3936,-4120.86 3891.77,-4156.96 3870.09,-4157.86 3813,-4157.86 1101,-4157.86 1101,-4157.86 1101,-4157.86 1030.18,-4157.86 990.399,-4176.04 946,-4120.86 915.704,-4083.21 911.504,-2504.14 911.049,-2271.4"/>
<polygon fill="green" stroke="green" points="914.548,-2271.05 911.029,-2261.06 907.548,-2271.06 914.548,-2271.05"/>
<text text-anchor="middle" x="2640" y="-4161.66" font-family="Times,serif" font-size="14.00">create_sll</text>
</g>
<!-- q4&#45;&gt;q0 -->
<g id="edge36" class="edge"><title>q4&#45;&gt;q0</title>
<path fill="none" stroke="green" d="M3955.83,-4064.29C3928.27,-4078.77 3867.77,-4106.86 3813,-4106.86 1101,-4106.86 1101,-4106.86 1101,-4106.86 1030.18,-4106.86 990.413,-4125.03 946,-4069.86 916.533,-4033.26 911.629,-2498.64 911.063,-2270.98"/>
<polygon fill="green" stroke="green" points="914.563,-2270.84 911.038,-2260.85 907.563,-2270.86 914.563,-2270.84"/>
<text text-anchor="middle" x="2640" y="-4110.66" font-family="Times,serif" font-size="14.00">init_back_link</text>
</g>
<!-- q4&#45;&gt;q0 -->
<g id="edge37" class="edge"><title>q4&#45;&gt;q0</title>
<path fill="none" stroke="green" d="M3953.93,-4055.86C3924.96,-4055.86 3864.3,-4055.86 3813,-4055.86 1101,-4055.86 1101,-4055.86 1101,-4055.86 1030.18,-4055.86 990.429,-4074.02 946,-4018.86 917.389,-3983.34 911.766,-2496.08 911.079,-2271.22"/>
<polygon fill="green" stroke="green" points="914.579,-2270.91 911.049,-2260.92 907.579,-2270.93 914.579,-2270.91"/>
<text text-anchor="middle" x="2640" y="-4059.66" font-family="Times,serif" font-size="14.00">reverse_dll</text>
</g>
<!-- q4&#45;&gt;q0 -->
<g id="edge39" class="edge"><title>q4&#45;&gt;q0</title>
<path fill="none" stroke="green" d="M3955.83,-4047.44C3928.27,-4032.96 3867.77,-4004.86 3813,-4004.86 1101,-4004.86 1101,-4004.86 1101,-4004.86 1030.18,-4004.86 990.445,-4023.01 946,-3967.86 918.229,-3933.41 911.902,-2491.81 911.096,-2271.09"/>
<polygon fill="green" stroke="green" points="914.595,-2270.95 911.06,-2260.97 907.596,-2270.98 914.595,-2270.95"/>
<text text-anchor="middle" x="2640" y="-4008.66" font-family="Times,serif" font-size="14.00">check_seq_next</text>
</g>
<!-- q4&#45;&gt;q0 -->
<g id="edge40" class="edge"><title>q4&#45;&gt;q0</title>
<path fill="none" stroke="green" d="M3963.49,-4039.91C3957.45,-4028.54 3947.99,-4013.61 3936,-4003.86 3890.2,-3966.66 3872.01,-3953.86 3813,-3953.86 1101,-3953.86 1101,-3953.86 1101,-3953.86 1030.18,-3953.86 990.462,-3971.99 946,-3916.86 919.081,-3883.49 912.048,-2488.74 911.114,-2271.25"/>
<polygon fill="green" stroke="green" points="914.613,-2270.97 911.071,-2260.99 907.613,-2271 914.613,-2270.97"/>
<text text-anchor="middle" x="2640" y="-3957.66" font-family="Times,serif" font-size="14.00">check_seq_prev</text>
</g>
<!-- q4&#45;&gt;q0 -->
<g id="edge41" class="edge"><title>q4&#45;&gt;q0</title>
<path fill="none" stroke="green" d="M3969.49,-4037.7C3966.68,-4014.88 3958.66,-3975.79 3936,-3951.86 3895.54,-3909.14 3871.84,-3902.86 3813,-3902.86 1101,-3902.86 1101,-3902.86 1101,-3902.86 1029.74,-3902.86 990.077,-3917.85 946,-3861.86 920.374,-3829.31 912.263,-2483.42 911.141,-2270.97"/>
<polygon fill="green" stroke="green" points="914.641,-2270.91 911.089,-2260.93 907.641,-2270.95 914.641,-2270.91"/>
<text text-anchor="middle" x="2640" y="-3906.66" font-family="Times,serif" font-size="14.00">Learn_Assert</text>
</g>
<!-- q4&#45;&gt;q3 -->
<g id="edge38" class="edge"><title>q4&#45;&gt;q3</title>
<path fill="none" stroke="green" d="M3985.59,-4068.47C4011.15,-4094.77 4069.26,-4158.43 4100,-4222.86 4117.94,-4260.46 4127.22,-4308.15 4131.6,-4337.84"/>
<polygon fill="green" stroke="green" points="4128.16,-4338.49 4133,-4347.91 4135.09,-4337.52 4128.16,-4338.49"/>
<text text-anchor="middle" x="4054" y="-4226.66" font-family="Times,serif" font-size="14.00">remove_fw_link</text>
</g>
<!-- q5 -->
<g id="node7" class="node"><title>q5</title>
<ellipse fill="none" stroke="green" cx="3812" cy="-3742.86" rx="18" ry="18"/>
<text text-anchor="middle" x="3812" y="-3739.16" font-family="Times,serif" font-size="14.00">D</text>
</g>
<!-- q5&#45;&gt;q0 -->
<g id="edge42" class="edge"><title>q5&#45;&gt;q0</title>
<path fill="none" stroke="green" d="M3809.15,-3760.69C3806.03,-3781.29 3797.74,-3814.69 3776,-3832.86 3733.27,-3868.59 3708.7,-3856.86 3653,-3856.86 1101,-3856.86 1101,-3856.86 1101,-3856.86 1031.29,-3856.86 991.944,-3885.29 946,-3832.86 919.211,-3802.3 912.089,-2482.02 911.122,-2271.14"/>
<polygon fill="green" stroke="green" points="914.621,-2270.88 911.076,-2260.89 907.621,-2270.91 914.621,-2270.88"/>
<text text-anchor="middle" x="2532" y="-3860.66" font-family="Times,serif" font-size="14.00">chain_node</text>
</g>
<!-- q5&#45;&gt;q0 -->
<g id="edge43" class="edge"><title>q5&#45;&gt;q0</title>
<path fill="none" stroke="green" d="M3804.02,-3759.54C3798.24,-3771.26 3788.88,-3786.32 3776,-3794.86 3729.58,-3825.65 3708.7,-3818.86 3653,-3818.86 1101,-3818.86 1101,-3818.86 1101,-3818.86 1031.29,-3818.86 991.958,-3847.28 946,-3794.86 919.87,-3765.06 912.206,-2478.99 911.137,-2271.11"/>
<polygon fill="green" stroke="green" points="914.637,-2270.98 911.086,-2261 907.637,-2271.01 914.637,-2270.98"/>
<text text-anchor="middle" x="2532" y="-3822.66" font-family="Times,serif" font-size="14.00">create_sll</text>
</g>
<!-- q5&#45;&gt;q0 -->
<g id="edge44" class="edge"><title>q5&#45;&gt;q0</title>
<path fill="none" stroke="green" d="M3795.19,-3749.92C3789.26,-3752.37 3782.4,-3754.98 3776,-3756.86 3722.57,-3772.61 3708.7,-3780.86 3653,-3780.86 1101,-3780.86 1101,-3780.86 1101,-3780.86 1031.29,-3780.86 991.973,-3809.27 946,-3756.86 920.541,-3727.85 912.334,-2477.08 911.155,-2271.36"/>
<polygon fill="green" stroke="green" points="914.653,-2271.06 911.097,-2261.08 907.653,-2271.1 914.653,-2271.06"/>
<text text-anchor="middle" x="2532" y="-3784.66" font-family="Times,serif" font-size="14.00">init_back_link</text>
</g>
<!-- q5&#45;&gt;q0 -->
<g id="edge45" class="edge"><title>q5&#45;&gt;q0</title>
<path fill="none" stroke="green" d="M3793.93,-3742.86C3764.96,-3742.86 3704.3,-3742.86 3653,-3742.86 1101,-3742.86 1101,-3742.86 1101,-3742.86 1031.29,-3742.86 991.989,-3771.25 946,-3718.86 921.184,-3690.6 912.446,-2472.47 911.17,-2270.96"/>
<polygon fill="green" stroke="green" points="914.669,-2270.86 911.107,-2260.88 907.669,-2270.91 914.669,-2270.86"/>
<text text-anchor="middle" x="2532" y="-3746.66" font-family="Times,serif" font-size="14.00">reverse_dll</text>
</g>
<!-- q5&#45;&gt;q0 -->
<g id="edge46" class="edge"><title>q5&#45;&gt;q0</title>
<path fill="none" stroke="green" d="M3795.15,-3736.42C3767.03,-3725.58 3706.32,-3704.86 3653,-3704.86 1101,-3704.86 1101,-3704.86 1101,-3704.86 1031.29,-3704.86 992.005,-3733.24 946,-3680.86 921.851,-3653.37 912.579,-2470.22 911.189,-2271.15"/>
<polygon fill="green" stroke="green" points="914.688,-2270.91 911.119,-2260.93 907.688,-2270.96 914.688,-2270.91"/>
<text text-anchor="middle" x="2532" y="-3708.66" font-family="Times,serif" font-size="14.00">remove_fw_link</text>
</g>
<!-- q5&#45;&gt;q0 -->
<g id="edge48" class="edge"><title>q5&#45;&gt;q0</title>
<path fill="none" stroke="green" d="M3801.26,-3728.03C3794.98,-3719.53 3786.11,-3709.32 3776,-3702.86 3727.99,-3672.21 3709.96,-3666.86 3653,-3666.86 1101,-3666.86 1101,-3666.86 1101,-3666.86 1031.29,-3666.86 992.022,-3695.22 946,-3642.86 922.505,-3616.13 912.706,-2466.62 911.207,-2271.02"/>
<polygon fill="green" stroke="green" points="914.707,-2270.93 911.131,-2260.96 907.707,-2270.99 914.707,-2270.93"/>
<text text-anchor="middle" x="2532" y="-3670.66" font-family="Times,serif" font-size="14.00">check_seq_prev</text>
</g>
<!-- q5&#45;&gt;q0 -->
<g id="edge49" class="edge"><title>q5&#45;&gt;q0</title>
<path fill="none" stroke="green" d="M3807.73,-3725.18C3803.49,-3707.21 3794.34,-3679.81 3776,-3663.86 3733.1,-3626.58 3709.84,-3628.86 3653,-3628.86 1101,-3628.86 1101,-3628.86 1101,-3628.86 1029.01,-3628.86 989.637,-3639.12 946,-3581.86 904.882,-3527.92 909.643,-2459.76 910.808,-2271.18"/>
<polygon fill="green" stroke="green" points="914.309,-2271 910.873,-2260.98 907.309,-2270.95 914.309,-2271"/>
<text text-anchor="middle" x="2532" y="-3632.66" font-family="Times,serif" font-size="14.00">Learn_Assert</text>
</g>
<!-- q5&#45;&gt;q4 -->
<g id="edge47" class="edge"><title>q5&#45;&gt;q4</title>
<path fill="none" stroke="green" d="M3827.11,-3753.33C3853.2,-3773.5 3908.77,-3820.51 3936,-3873.86 3961.56,-3923.95 3968.54,-3990.46 3970.39,-4027.64"/>
<polygon fill="green" stroke="green" points="3966.89,-4027.89 3970.8,-4037.74 3973.89,-4027.61 3966.89,-4027.89"/>
<text text-anchor="middle" x="3892" y="-3877.66" font-family="Times,serif" font-size="14.00">check_seq_next</text>
</g>
<!-- q6 -->
<g id="node8" class="node"><title>q6</title>
<ellipse fill="none" stroke="green" cx="3652" cy="-3432.86" rx="18" ry="18"/>
<text text-anchor="middle" x="3652" y="-3429.16" font-family="Times,serif" font-size="14.00">D</text>
</g>
<!-- q6&#45;&gt;q0 -->
<g id="edge50" class="edge"><title>q6&#45;&gt;q0</title>
<path fill="none" stroke="green" d="M3650.34,-3450.98C3648.47,-3476.08 3641.52,-3521.46 3616,-3548.86 3584.56,-3582.63 3565.14,-3585.86 3519,-3585.86 1101,-3585.86 1101,-3585.86 1101,-3585.86 1030.18,-3585.86 990.624,-3603.86 946,-3548.86 925.157,-3523.18 913.231,-2459.18 911.284,-2271.12"/>
<polygon fill="green" stroke="green" points="914.782,-2270.9 911.179,-2260.94 907.782,-2270.97 914.782,-2270.9"/>
<text text-anchor="middle" x="2422" y="-3589.66" font-family="Times,serif" font-size="14.00">chain_node</text>
</g>
<!-- q6&#45;&gt;q0 -->
<g id="edge51" class="edge"><title>q6&#45;&gt;q0</title>
<path fill="none" stroke="green" d="M3645.61,-3449.97C3640.23,-3464.5 3630.64,-3485.01 3616,-3497.86 3581.33,-3528.31 3565.14,-3534.86 3519,-3534.86 1101,-3534.86 1101,-3534.86 1101,-3534.86 1030.18,-3534.86 990.654,-3552.84 946,-3497.86 906.061,-3448.69 909.798,-2453.67 910.821,-2271.41"/>
<polygon fill="green" stroke="green" points="914.322,-2271.29 910.88,-2261.27 907.322,-2271.25 914.322,-2271.29"/>
<text text-anchor="middle" x="2422" y="-3538.66" font-family="Times,serif" font-size="14.00">create_sll</text>
</g>
<!-- q6&#45;&gt;q0 -->
<g id="edge52" class="edge"><title>q6&#45;&gt;q0</title>
<path fill="none" stroke="green" d="M3636.66,-3442.46C3613.15,-3457.23 3564.45,-3483.86 3519,-3483.86 1101,-3483.86 1101,-3483.86 1101,-3483.86 1030.18,-3483.86 990.686,-3501.81 946,-3446.86 907.714,-3399.79 910.083,-2448.07 910.858,-2271.07"/>
<polygon fill="green" stroke="green" points="914.358,-2271 910.904,-2260.98 907.358,-2270.97 914.358,-2271"/>
<text text-anchor="middle" x="2422" y="-3487.66" font-family="Times,serif" font-size="14.00">init_back_link</text>
</g>
<!-- q6&#45;&gt;q0 -->
<g id="edge53" class="edge"><title>q6&#45;&gt;q0</title>
<path fill="none" stroke="green" d="M3633.91,-3432.86C3608.75,-3432.86 3560.25,-3432.86 3519,-3432.86 1101,-3432.86 1101,-3432.86 1101,-3432.86 1030.18,-3432.86 990.721,-3450.78 946,-3395.86 909.401,-3350.92 910.375,-2444.12 910.895,-2271.21"/>
<polygon fill="green" stroke="green" points="914.395,-2271.13 910.928,-2261.12 907.395,-2271.1 914.395,-2271.13"/>
<text text-anchor="middle" x="2422" y="-3436.66" font-family="Times,serif" font-size="14.00">reverse_dll</text>
</g>
<!-- q6&#45;&gt;q0 -->
<g id="edge54" class="edge"><title>q6&#45;&gt;q0</title>
<path fill="none" stroke="green" d="M3636.66,-3423.27C3613.15,-3408.5 3564.45,-3381.86 3519,-3381.86 1101,-3381.86 1101,-3381.86 1101,-3381.86 1030.18,-3381.86 990.76,-3399.75 946,-3344.86 911.08,-3302.04 910.68,-2439.75 910.937,-2271.27"/>
<polygon fill="green" stroke="green" points="914.437,-2271.2 910.954,-2261.19 907.437,-2271.18 914.437,-2271.2"/>
<text text-anchor="middle" x="2422" y="-3385.66" font-family="Times,serif" font-size="14.00">remove_fw_link</text>
</g>
<!-- q6&#45;&gt;q0 -->
<g id="edge55" class="edge"><title>q6&#45;&gt;q0</title>
<path fill="none" stroke="green" d="M3642.52,-3416.98C3636.25,-3406.34 3626.93,-3392.57 3616,-3382.86 3579.42,-3350.39 3567.92,-3330.86 3519,-3330.86 1101,-3330.86 1101,-3330.86 1101,-3330.86 1031.07,-3330.86 991.879,-3356.63 946,-3303.86 911.166,-3263.8 910.685,-2436.05 910.935,-2271.25"/>
<polygon fill="green" stroke="green" points="914.436,-2270.97 910.953,-2260.96 907.436,-2270.95 914.436,-2270.97"/>
<text text-anchor="middle" x="2422" y="-3334.66" font-family="Times,serif" font-size="14.00">check_seq_next</text>
</g>
<!-- q6&#45;&gt;q0 -->
<g id="edge57" class="edge"><title>q6&#45;&gt;q0</title>
<path fill="none" stroke="green" d="M3648.8,-3414.84C3645.29,-3392.96 3636.59,-3356.01 3616,-3331.86 3584.26,-3294.65 3567.92,-3279.86 3519,-3279.86 2531,-3279.86 2531,-3279.86 2531,-3279.86 2336.28,-3279.86 2287.72,-3289.86 2093,-3289.86 1101,-3289.86 1101,-3289.86 1101,-3289.86 1030.57,-3289.86 991.254,-3310.84 946,-3256.86 913.467,-3218.06 911.14,-2430.72 911.003,-2270.99"/>
<polygon fill="green" stroke="green" points="914.503,-2270.99 910.997,-2260.99 907.503,-2270.99 914.503,-2270.99"/>
<text text-anchor="middle" x="2422" y="-3285.66" font-family="Times,serif" font-size="14.00">Learn_Assert</text>
</g>
<!-- q6&#45;&gt;q5 -->
<g id="edge56" class="edge"><title>q6&#45;&gt;q5</title>
<path fill="none" stroke="green" d="M3665.18,-3445.55C3689.89,-3472 3746.1,-3535.93 3776,-3599.86 3793.65,-3637.6 3803.01,-3685.25 3807.48,-3714.89"/>
<polygon fill="green" stroke="green" points="3804.04,-3715.54 3808.92,-3724.95 3810.97,-3714.55 3804.04,-3715.54"/>
<text text-anchor="middle" x="3732" y="-3603.66" font-family="Times,serif" font-size="14.00">check_seq_prev</text>
</g>
<!-- q7 -->
<g id="node9" class="node"><title>q7</title>
<ellipse fill="none" stroke="green" cx="3518" cy="-3119.86" rx="18" ry="18"/>
<text text-anchor="middle" x="3518" y="-3116.16" font-family="Times,serif" font-size="14.00">D</text>
</g>
<!-- q7&#45;&gt;q0 -->
<g id="edge58" class="edge"><title>q7&#45;&gt;q0</title>
<path fill="none" stroke="green" d="M3515.15,-3137.69C3512.03,-3158.29 3503.74,-3191.69 3482,-3209.86 3439.27,-3245.59 3414.7,-3233.86 3359,-3233.86 2531,-3233.86 2531,-3233.86 2531,-3233.86 2336.17,-3233.86 2287.83,-3251.86 2093,-3251.86 1101,-3251.86 1101,-3251.86 1101,-3251.86 1031.29,-3251.86 992.297,-3279.98 946,-3227.86 913.399,-3191.17 911.122,-2428.69 910.999,-2271.18"/>
<polygon fill="green" stroke="green" points="914.499,-2270.9 910.994,-2260.9 907.499,-2270.9 914.499,-2270.9"/>
<text text-anchor="middle" x="2312" y="-3249.66" font-family="Times,serif" font-size="14.00">chain_node</text>
</g>
<!-- q7&#45;&gt;q0 -->
<g id="edge59" class="edge"><title>q7&#45;&gt;q0</title>
<path fill="none" stroke="green" d="M3510.02,-3136.54C3504.24,-3148.26 3494.88,-3163.32 3482,-3171.86 3435.58,-3202.65 3414.7,-3195.86 3359,-3195.86 2531,-3195.86 2531,-3195.86 2531,-3195.86 2336.17,-3195.86 2287.83,-3213.86 2093,-3213.86 1101,-3213.86 1101,-3213.86 1101,-3213.86 1031.29,-3213.86 992.334,-3241.95 946,-3189.86 914.697,-3154.68 911.39,-2424.64 911.041,-2271.06"/>
<polygon fill="green" stroke="green" points="914.541,-2271.01 911.021,-2261.02 907.541,-2271.03 914.541,-2271.01"/>
<text text-anchor="middle" x="2312" y="-3211.66" font-family="Times,serif" font-size="14.00">create_sll</text>
</g>
<!-- q7&#45;&gt;q0 -->
<g id="edge60" class="edge"><title>q7&#45;&gt;q0</title>
<path fill="none" stroke="green" d="M3501.19,-3126.92C3495.26,-3129.37 3488.4,-3131.98 3482,-3133.86 3428.57,-3149.61 3414.7,-3157.86 3359,-3157.86 2531,-3157.86 2531,-3157.86 2531,-3157.86 2336.17,-3157.86 2287.83,-3175.86 2093,-3175.86 1101,-3175.86 1101,-3175.86 1101,-3175.86 1031.29,-3175.86 992.375,-3203.91 946,-3151.86 916.019,-3118.22 911.677,-2421.73 911.088,-2271.33"/>
<polygon fill="green" stroke="green" points="914.587,-2271.07 911.05,-2261.09 907.587,-2271.1 914.587,-2271.07"/>
<text text-anchor="middle" x="2312" y="-3173.66" font-family="Times,serif" font-size="14.00">init_back_link</text>
</g>
<!-- q7&#45;&gt;q0 -->
<g id="edge62" class="edge"><title>q7&#45;&gt;q0</title>
<path fill="none" stroke="green" d="M3499.93,-3119.86C3470.96,-3119.86 3410.3,-3119.86 3359,-3119.86 2531,-3119.86 2531,-3119.86 2531,-3119.86 2336.17,-3119.86 2287.83,-3137.86 2093,-3137.86 1101,-3137.86 1101,-3137.86 1101,-3137.86 1031.29,-3137.86 992.418,-3165.87 946,-3113.86 917.334,-3081.75 911.975,-2418.44 911.138,-2271.51"/>
<polygon fill="green" stroke="green" points="914.636,-2271.08 911.082,-2261.1 907.636,-2271.12 914.636,-2271.08"/>
<text text-anchor="middle" x="2312" y="-3135.66" font-family="Times,serif" font-size="14.00">remove_fw_link</text>
</g>
<!-- q7&#45;&gt;q0 -->
<g id="edge63" class="edge"><title>q7&#45;&gt;q0</title>
<path fill="none" stroke="green" d="M3501.15,-3113.42C3473.03,-3102.58 3412.32,-3081.86 3359,-3081.86 2531,-3081.86 2531,-3081.86 2531,-3081.86 2336.17,-3081.86 2287.83,-3099.86 2093,-3099.86 1101,-3099.86 1101,-3099.86 1101,-3099.86 1031.29,-3099.86 992.466,-3127.83 946,-3075.86 918.613,-3045.24 912.273,-2413.5 911.191,-2271.17"/>
<polygon fill="green" stroke="green" points="914.69,-2271.04 911.116,-2261.07 907.69,-2271.09 914.69,-2271.04"/>
<text text-anchor="middle" x="2312" y="-3097.66" font-family="Times,serif" font-size="14.00">check_seq_next</text>
</g>
<!-- q7&#45;&gt;q0 -->
<g id="edge64" class="edge"><title>q7&#45;&gt;q0</title>
<path fill="none" stroke="green" d="M3507.26,-3105.03C3500.98,-3096.53 3492.11,-3086.32 3482,-3079.86 3433.99,-3049.21 3415.96,-3043.86 3359,-3043.86 2531,-3043.86 2531,-3043.86 2531,-3043.86 2336.17,-3043.86 2287.83,-3061.86 2093,-3061.86 1101,-3061.86 1101,-3061.86 1101,-3061.86 1031.29,-3061.86 992.518,-3089.78 946,-3037.86 919.913,-3008.75 912.594,-2409.51 911.25,-2271.18"/>
<polygon fill="green" stroke="green" points="914.748,-2270.94 911.153,-2260.98 907.748,-2271.01 914.748,-2270.94"/>
<text text-anchor="middle" x="2312" y="-3059.66" font-family="Times,serif" font-size="14.00">check_seq_prev</text>
</g>
<!-- q7&#45;&gt;q0 -->
<g id="edge65" class="edge"><title>q7&#45;&gt;q0</title>
<path fill="none" stroke="green" d="M3513.73,-3102.18C3509.49,-3084.21 3500.34,-3056.81 3482,-3040.86 3439.1,-3003.58 3415.84,-3005.86 3359,-3005.86 2531,-3005.86 2531,-3005.86 2531,-3005.86 2336.17,-3005.86 2287.83,-3023.86 2093,-3023.86 1101,-3023.86 1101,-3023.86 1101,-3023.86 1029.01,-3023.86 990.251,-3033.64 946,-2976.86 923.927,-2948.54 913.606,-2402.19 911.44,-2271"/>
<polygon fill="green" stroke="green" points="914.939,-2270.89 911.277,-2260.95 907.94,-2271 914.939,-2270.89"/>
<text text-anchor="middle" x="2312" y="-3021.66" font-family="Times,serif" font-size="14.00">Learn_Assert</text>
</g>
<!-- q7&#45;&gt;q6 -->
<g id="edge61" class="edge"><title>q7&#45;&gt;q6</title>
<path fill="none" stroke="green" d="M3531.37,-3132.37C3552.33,-3154.34 3594.61,-3202.15 3616,-3250.86 3638.54,-3302.22 3646.61,-3368.01 3649.47,-3404.77"/>
<polygon fill="green" stroke="green" points="3645.98,-3405.04 3650.17,-3414.77 3652.96,-3404.55 3645.98,-3405.04"/>
<text text-anchor="middle" x="3585" y="-3254.66" font-family="Times,serif" font-size="14.00">reverse_dll</text>
</g>
<!-- q8 -->
<g id="node10" class="node"><title>q8</title>
<ellipse fill="none" stroke="green" cx="3358" cy="-2827.86" rx="18" ry="18"/>
<text text-anchor="middle" x="3358" y="-2824.16" font-family="Times,serif" font-size="14.00">D</text>
</g>
<!-- q8&#45;&gt;q0 -->
<g id="edge66" class="edge"><title>q8&#45;&gt;q0</title>
<path fill="none" stroke="green" d="M3356.99,-2846.18C3355.91,-2871.96 3349.93,-2918.61 3322,-2943.86 3280.69,-2981.22 3254.7,-2967.86 3199,-2967.86 2531,-2967.86 2531,-2967.86 2531,-2967.86 2336.25,-2967.86 2287.75,-2980.86 2093,-2980.86 1101,-2980.86 1101,-2980.86 1101,-2980.86 1030.18,-2980.86 991.256,-2998.34 946,-2943.86 924.154,-2917.57 913.71,-2398.48 911.468,-2270.97"/>
<polygon fill="green" stroke="green" points="914.965,-2270.78 911.293,-2260.84 907.966,-2270.9 914.965,-2270.78"/>
<text text-anchor="middle" x="2202" y="-2983.66" font-family="Times,serif" font-size="14.00">chain_node</text>
</g>
<!-- q8&#45;&gt;q0 -->
<g id="edge67" class="edge"><title>q8&#45;&gt;q0</title>
<path fill="none" stroke="green" d="M3351.94,-2844.94C3346.73,-2859.67 3337.19,-2880.46 3322,-2892.86 3277.77,-2928.96 3256.09,-2929.86 3199,-2929.86 1101,-2929.86 1101,-2929.86 1101,-2929.86 1030.18,-2929.86 991.362,-2947.26 946,-2892.86 925.8,-2868.64 914.213,-2392.29 911.58,-2270.85"/>
<polygon fill="green" stroke="green" points="915.079,-2270.77 911.366,-2260.84 908.08,-2270.92 915.079,-2270.77"/>
<text text-anchor="middle" x="2202" y="-2933.66" font-family="Times,serif" font-size="14.00">create_sll</text>
</g>
<!-- q8&#45;&gt;q0 -->
<g id="edge68" class="edge"><title>q8&#45;&gt;q0</title>
<path fill="none" stroke="green" d="M3341.83,-2836.29C3314.27,-2850.77 3253.77,-2878.86 3199,-2878.86 1101,-2878.86 1101,-2878.86 1101,-2878.86 1030.18,-2878.86 991.486,-2896.15 946,-2841.86 909.054,-2797.77 909.808,-2383.79 910.71,-2271.08"/>
<polygon fill="green" stroke="green" points="914.212,-2270.88 910.799,-2260.85 907.212,-2270.82 914.212,-2270.88"/>
<text text-anchor="middle" x="2202" y="-2882.66" font-family="Times,serif" font-size="14.00">init_back_link</text>
</g>
<!-- q8&#45;&gt;q0 -->
<g id="edge69" class="edge"><title>q8&#45;&gt;q0</title>
<path fill="none" stroke="green" d="M3339.93,-2827.86C3310.96,-2827.86 3250.3,-2827.86 3199,-2827.86 1101,-2827.86 1101,-2827.86 1101,-2827.86 1030.18,-2827.86 991.633,-2845.03 946,-2790.86 912.37,-2750.95 910.665,-2378.29 910.875,-2271.4"/>
<polygon fill="green" stroke="green" points="914.375,-2271.08 910.903,-2261.07 907.375,-2271.06 914.375,-2271.08"/>
<text text-anchor="middle" x="2202" y="-2831.66" font-family="Times,serif" font-size="14.00">reverse_dll</text>
</g>
<!-- q8&#45;&gt;q0 -->
<g id="edge70" class="edge"><title>q8&#45;&gt;q0</title>
<path fill="none" stroke="green" d="M3341.83,-2819.44C3314.27,-2804.96 3253.77,-2776.86 3199,-2776.86 1101,-2776.86 1101,-2776.86 1101,-2776.86 1031.29,-2776.86 993.151,-2804.21 946,-2752.86 913.312,-2717.27 910.911,-2373.05 910.922,-2271.15"/>
<polygon fill="green" stroke="green" points="914.422,-2271 910.931,-2261 907.422,-2271 914.422,-2271"/>
<text text-anchor="middle" x="2202" y="-2780.66" font-family="Times,serif" font-size="14.00">remove_fw_link</text>
</g>
<!-- q8&#45;&gt;q0 -->
<g id="edge71" class="edge"><title>q8&#45;&gt;q0</title>
<path fill="none" stroke="green" d="M3349.49,-2811.91C3343.45,-2800.54 3333.99,-2785.61 3322,-2775.86 3276.2,-2738.66 3258.01,-2725.86 3199,-2725.86 2311,-2725.86 2311,-2725.86 2311,-2725.86 2116.25,-2725.86 2067.75,-2738.86 1873,-2738.86 1101,-2738.86 1101,-2738.86 1101,-2738.86 1031.29,-2738.86 993.292,-2766.08 946,-2714.86 915.874,-2682.24 911.67,-2368.16 911.09,-2271.22"/>
<polygon fill="green" stroke="green" points="914.589,-2270.99 911.038,-2261.01 907.589,-2271.02 914.589,-2270.99"/>
<text text-anchor="middle" x="2202" y="-2732.66" font-family="Times,serif" font-size="14.00">check_seq_next</text>
</g>
<!-- q8&#45;&gt;q0 -->
<g id="edge73" class="edge"><title>q8&#45;&gt;q0</title>
<path fill="none" stroke="green" d="M3355.49,-2809.7C3352.68,-2786.88 3344.66,-2747.79 3322,-2723.86 3281.54,-2681.14 3257.84,-2674.86 3199,-2674.86 2311,-2674.86 2311,-2674.86 2311,-2674.86 2115.99,-2674.86 2068.01,-2700.86 1873,-2700.86 1101,-2700.86 1101,-2700.86 1101,-2700.86 1030.57,-2700.86 992.527,-2720.74 946,-2667.86 919.829,-2638.12 912.954,-2360.99 911.403,-2270.97"/>
<polygon fill="green" stroke="green" points="914.903,-2270.89 911.24,-2260.94 907.903,-2271 914.903,-2270.89"/>
<text text-anchor="middle" x="2202" y="-2684.66" font-family="Times,serif" font-size="14.00">Learn_Assert</text>
</g>
<!-- q8&#45;&gt;q7 -->
<g id="edge72" class="edge"><title>q8&#45;&gt;q7</title>
<path fill="none" stroke="green" d="M3372.01,-2839.62C3397.23,-2863.12 3452.82,-2918.7 3482,-2976.86 3500.68,-3014.1 3509.76,-3061.88 3513.9,-3091.69"/>
<polygon fill="green" stroke="green" points="3510.45,-3092.34 3515.2,-3101.81 3517.39,-3091.44 3510.45,-3092.34"/>
<text text-anchor="middle" x="3438" y="-2980.66" font-family="Times,serif" font-size="14.00">check_seq_prev</text>
</g>
<!-- q9 -->
<g id="node11" class="node"><title>q9</title>
<ellipse fill="none" stroke="green" cx="3198" cy="-2514.86" rx="18" ry="18"/>
<text text-anchor="middle" x="3198" y="-2511.16" font-family="Times,serif" font-size="14.00">D</text>
</g>
<!-- q9&#45;&gt;q0 -->
<g id="edge74" class="edge"><title>q9&#45;&gt;q0</title>
<path fill="none" stroke="green" d="M3195.11,-2532.64C3191.95,-2553.19 3183.62,-2586.55 3162,-2604.86 3122.16,-2638.61 3099.21,-2628.86 3047,-2628.86 2311,-2628.86 2311,-2628.86 2311,-2628.86 2115.75,-2628.86 2068.25,-2662.86 1873,-2662.86 1101,-2662.86 1101,-2662.86 1101,-2662.86 1031.29,-2662.86 993.653,-2689.74 946,-2638.86 920.946,-2612.11 913.372,-2357.12 911.519,-2271.07"/>
<polygon fill="green" stroke="green" points="915.017,-2270.91 911.312,-2260.98 908.019,-2271.05 915.017,-2270.91"/>
<text text-anchor="middle" x="2092" y="-2655.66" font-family="Times,serif" font-size="14.00">chain_node</text>
</g>
<!-- q9&#45;&gt;q0 -->
<g id="edge75" class="edge"><title>q9&#45;&gt;q0</title>
<path fill="none" stroke="green" d="M3189.99,-2531.49C3184.19,-2543.18 3174.82,-2558.24 3162,-2566.86 3118.67,-2596 3099.21,-2590.86 3047,-2590.86 2311,-2590.86 2311,-2590.86 2311,-2590.86 2115.75,-2590.86 2068.25,-2624.86 1873,-2624.86 1101,-2624.86 1101,-2624.86 1101,-2624.86 1031.29,-2624.86 993.889,-2651.52 946,-2600.86 923.516,-2577.08 914.385,-2352.17 911.816,-2271.49"/>
<polygon fill="green" stroke="green" points="915.302,-2270.99 911.496,-2261.1 908.305,-2271.21 915.302,-2270.99"/>
<text text-anchor="middle" x="2092" y="-2617.66" font-family="Times,serif" font-size="14.00">create_sll</text>
</g>
<!-- q9&#45;&gt;q0 -->
<g id="edge76" class="edge"><title>q9&#45;&gt;q0</title>
<path fill="none" stroke="green" d="M3181.13,-2521.66C3154.12,-2532.59 3097.24,-2552.86 3047,-2552.86 2311,-2552.86 2311,-2552.86 2311,-2552.86 2115.75,-2552.86 2068.25,-2586.86 1873,-2586.86 1101,-2586.86 1101,-2586.86 1101,-2586.86 1031.29,-2586.86 994.179,-2613.25 946,-2562.86 925.982,-2541.93 915.433,-2345.06 912.144,-2270.92"/>
<polygon fill="green" stroke="green" points="915.64,-2270.75 911.712,-2260.91 908.647,-2271.05 915.64,-2270.75"/>
<text text-anchor="middle" x="2092" y="-2579.66" font-family="Times,serif" font-size="14.00">init_back_link</text>
</g>
<!-- q9&#45;&gt;q0 -->
<g id="edge77" class="edge"><title>q9&#45;&gt;q0</title>
<path fill="none" stroke="green" d="M3179.9,-2514.86C3152.06,-2514.86 3095.18,-2514.86 3047,-2514.86 2311,-2514.86 2311,-2514.86 2311,-2514.86 2115.75,-2514.86 2068.25,-2548.86 1873,-2548.86 1101,-2548.86 1101,-2548.86 1101,-2548.86 1031.29,-2548.86 994.544,-2574.89 946,-2524.86 911.413,-2489.22 909.581,-2335.19 910.376,-2271.06"/>
<polygon fill="green" stroke="green" points="913.878,-2270.92 910.534,-2260.87 906.879,-2270.81 913.878,-2270.92"/>
<text text-anchor="middle" x="2092" y="-2541.66" font-family="Times,serif" font-size="14.00">reverse_dll</text>
</g>
<!-- q9&#45;&gt;q0 -->
<g id="edge78" class="edge"><title>q9&#45;&gt;q0</title>
<path fill="none" stroke="green" d="M3181.13,-2508.07C3154.12,-2497.14 3097.24,-2476.86 3047,-2476.86 2311,-2476.86 2311,-2476.86 2311,-2476.86 2115.75,-2476.86 2068.25,-2510.86 1873,-2510.86 1101,-2510.86 1101,-2510.86 1101,-2510.86 1031.29,-2510.86 995.017,-2536.43 946,-2486.86 916.388,-2456.92 911.621,-2328.8 910.999,-2271.16"/>
<polygon fill="green" stroke="green" points="914.497,-2270.91 910.925,-2260.94 907.498,-2270.96 914.497,-2270.91"/>
<text text-anchor="middle" x="2092" y="-2503.66" font-family="Times,serif" font-size="14.00">remove_fw_link</text>
</g>
<!-- q9&#45;&gt;q0 -->
<g id="edge80" class="edge"><title>q9&#45;&gt;q0</title>
<path fill="none" stroke="green" d="M3187.12,-2500.5C3180.79,-2492.26 3171.92,-2482.3 3162,-2475.86 3116.95,-2446.65 3100.69,-2438.86 3047,-2438.86 2311,-2438.86 2311,-2438.86 2311,-2438.86 2115.75,-2438.86 2068.25,-2472.86 1873,-2472.86 1101,-2472.86 1101,-2472.86 1101,-2472.86 1031.29,-2472.86 995.653,-2497.79 946,-2448.86 921.326,-2424.55 913.987,-2321.86 911.851,-2271.27"/>
<polygon fill="green" stroke="green" points="915.339,-2270.89 911.46,-2261.03 908.344,-2271.15 915.339,-2270.89"/>
<text text-anchor="middle" x="2092" y="-2465.66" font-family="Times,serif" font-size="14.00">check_seq_prev</text>
</g>
<!-- q9&#45;&gt;q0 -->
<g id="edge81" class="edge"><title>q9&#45;&gt;q0</title>
<path fill="none" stroke="green" d="M3193.67,-2497.25C3189.38,-2479.33 3180.2,-2451.97 3162,-2435.86 3122,-2400.45 3100.43,-2400.86 3047,-2400.86 2201,-2400.86 2201,-2400.86 2201,-2400.86 2054.44,-2400.86 2019.56,-2434.86 1873,-2434.86 1101,-2434.86 1101,-2434.86 1101,-2434.86 1029.01,-2434.86 995.416,-2440.21 946,-2387.86 930.265,-2371.2 919.555,-2308.24 914.445,-2270.99"/>
<polygon fill="green" stroke="green" points="917.876,-2270.23 913.096,-2260.78 910.936,-2271.15 917.876,-2270.23"/>
<text text-anchor="middle" x="2092" y="-2418.66" font-family="Times,serif" font-size="14.00">Learn_Assert</text>
</g>
<!-- q9&#45;&gt;q8 -->
<g id="edge79" class="edge"><title>q9&#45;&gt;q8</title>
<path fill="none" stroke="green" d="M3213.11,-2525.33C3239.2,-2545.5 3294.77,-2592.51 3322,-2645.86 3347.56,-2695.95 3354.54,-2762.46 3356.39,-2799.64"/>
<polygon fill="green" stroke="green" points="3352.89,-2799.89 3356.8,-2809.74 3359.89,-2799.61 3352.89,-2799.89"/>
<text text-anchor="middle" x="3278" y="-2649.66" font-family="Times,serif" font-size="14.00">check_seq_next</text>
</g>
<!-- q10 -->
<g id="node12" class="node"><title>q10</title>
<ellipse fill="none" stroke="green" cx="3046" cy="-2085.86" rx="18" ry="18"/>
<text text-anchor="middle" x="3046" y="-2082.16" font-family="Times,serif" font-size="14.00">D</text>
</g>
<!-- q10&#45;&gt;q0 -->
<g id="edge82" class="edge"><title>q10&#45;&gt;q0</title>
<path fill="none" stroke="green" d="M3045.17,-2104.21C3045.26,-2156.67 3042.59,-2305.61 3010,-2338.86 2962.44,-2387.4 2926.95,-2362.86 2859,-2362.86 2311,-2362.86 2311,-2362.86 2311,-2362.86 2193.01,-2362.86 2163.72,-2370.89 2046,-2378.86 1969.07,-2384.08 1950.11,-2391.86 1873,-2391.86 1101,-2391.86 1101,-2391.86 1101,-2391.86 1030.18,-2391.86 997.767,-2403.2 946,-2354.86 922.808,-2333.21 914.881,-2296.45 912.229,-2270.98"/>
<polygon fill="green" stroke="green" points="915.702,-2270.5 911.386,-2260.83 908.726,-2271.08 915.702,-2270.5"/>
<text text-anchor="middle" x="1982" y="-2392.66" font-family="Times,serif" font-size="14.00">chain_node</text>
</g>
<!-- q10&#45;&gt;q0 -->
<g id="edge83" class="edge"><title>q10&#45;&gt;q0</title>
<path fill="none" stroke="green" d="M3044.67,-2104.12C3043.44,-2150.91 3037.6,-2273.37 3010,-2300.86 2961.86,-2348.82 2926.95,-2324.86 2859,-2324.86 2311,-2324.86 2311,-2324.86 2311,-2324.86 2116.2,-2324.86 2067.8,-2340.86 1873,-2340.86 1101,-2340.86 1101,-2340.86 1101,-2340.86 1031.07,-2340.86 1001.98,-2355.77 946,-2313.86 931.877,-2303.29 923.117,-2285.47 917.893,-2270.32"/>
<polygon fill="green" stroke="green" points="921.119,-2268.91 914.818,-2260.39 914.432,-2270.98 921.119,-2268.91"/>
<text text-anchor="middle" x="1982" y="-2343.66" font-family="Times,serif" font-size="14.00">create_sll</text>
</g>
<!-- q10&#45;&gt;q0 -->
<g id="edge85" class="edge"><title>q10&#45;&gt;q0</title>
<path fill="none" stroke="green" d="M3043.64,-2103.89C3040.36,-2142.6 3030.69,-2231.87 3010,-2252.86 2961.72,-2301.87 2927.79,-2286.86 2859,-2286.86 2311,-2286.86 2311,-2286.86 2311,-2286.86 1969.62,-2286.86 1884.38,-2299.86 1543,-2299.86 1101,-2299.86 1101,-2299.86 1101,-2299.86 1031.29,-2299.86 1008.62,-2306.49 946,-2275.86 939.895,-2272.88 934.135,-2268.46 929.117,-2263.81"/>
<polygon fill="green" stroke="green" points="931.418,-2261.16 921.9,-2256.51 926.438,-2266.08 931.418,-2261.16"/>
<text text-anchor="middle" x="1982" y="-2296.66" font-family="Times,serif" font-size="14.00">reverse_dll</text>
</g>
<!-- q10&#45;&gt;q0 -->
<g id="edge86" class="edge"><title>q10&#45;&gt;q0</title>
<path fill="none" stroke="green" d="M3044.82,-2104C3043.55,-2129.56 3037.32,-2175.95 3010,-2201.86 2959.87,-2249.42 2928.1,-2238.86 2859,-2238.86 2091,-2238.86 2091,-2238.86 2091,-2238.86 1798.38,-2238.86 1725.62,-2261.86 1433,-2261.86 1101,-2261.86 1101,-2261.86 1101,-2261.86 1042.62,-2261.86 974.641,-2252.87 937.902,-2247.26"/>
<polygon fill="green" stroke="green" points="938.395,-2243.79 927.975,-2245.71 937.314,-2250.71 938.395,-2243.79"/>
<text text-anchor="middle" x="1982" y="-2244.66" font-family="Times,serif" font-size="14.00">remove_fw_link</text>
</g>
<!-- q10&#45;&gt;q0 -->
<g id="edge87" class="edge"><title>q10&#45;&gt;q0</title>
<path fill="none" stroke="green" d="M3040.09,-2103.14C3034.98,-2117.99 3025.51,-2138.86 3010,-2150.86 2955.35,-2193.15 2928.1,-2187.86 2859,-2187.86 2091,-2187.86 2091,-2187.86 2091,-2187.86 1798.12,-2187.86 1725.88,-2223.86 1433,-2223.86 1101,-2223.86 1101,-2223.86 1101,-2223.86 1042.62,-2223.86 974.641,-2232.86 937.902,-2238.47"/>
<polygon fill="green" stroke="green" points="937.314,-2235.02 927.975,-2240.02 938.395,-2241.93 937.314,-2235.02"/>
<text text-anchor="middle" x="1982" y="-2194.66" font-family="Times,serif" font-size="14.00">check_seq_next</text>
</g>
<!-- q10&#45;&gt;q0 -->
<g id="edge88" class="edge"><title>q10&#45;&gt;q0</title>
<path fill="none" stroke="green" d="M3029.47,-2093.17C2998.04,-2107.27 2924.29,-2136.86 2859,-2136.86 2091,-2136.86 2091,-2136.86 2091,-2136.86 1964.84,-2136.86 1933.81,-2149.45 1808,-2158.86 1641.37,-2171.34 1600.1,-2185.86 1433,-2185.86 1101,-2185.86 1101,-2185.86 1101,-2185.86 1030.18,-2185.86 1011.86,-2196.81 946,-2222.86 942.156,-2224.38 938.223,-2226.27 934.447,-2228.27"/>
<polygon fill="green" stroke="green" points="932.493,-2225.35 925.521,-2233.33 935.946,-2231.44 932.493,-2225.35"/>
<text text-anchor="middle" x="1982" y="-2148.66" font-family="Times,serif" font-size="14.00">check_seq_prev</text>
</g>
<!-- q10&#45;&gt;q0 -->
<g id="edge89" class="edge"><title>q10&#45;&gt;q0</title>
<path fill="none" stroke="green" d="M3027.82,-2085.86C2995.01,-2085.86 2921.16,-2085.86 2859,-2085.86 2091,-2085.86 2091,-2085.86 2091,-2085.86 1797.26,-2085.86 1726.74,-2147.86 1433,-2147.86 1101,-2147.86 1101,-2147.86 1101,-2147.86 1030.07,-2147.86 1003.3,-2144.06 946,-2185.86 935.334,-2193.65 927.238,-2205.76 921.534,-2216.82"/>
<polygon fill="green" stroke="green" points="918.24,-2215.6 917.132,-2226.13 924.569,-2218.59 918.24,-2215.6"/>
<text text-anchor="middle" x="1982" y="-2096.66" font-family="Times,serif" font-size="14.00">Learn_Assert</text>
</g>
<!-- q10&#45;&gt;q9 -->
<g id="edge84" class="edge"><title>q10&#45;&gt;q9</title>
<path fill="none" stroke="green" d="M3054.44,-2102.01C3074.09,-2145.09 3128.16,-2266.66 3162,-2371.86 3174.68,-2411.3 3185.34,-2458.13 3191.45,-2487.18"/>
<polygon fill="green" stroke="green" points="3188.03,-2487.94 3193.49,-2497.03 3194.89,-2486.52 3188.03,-2487.94"/>
<text text-anchor="middle" x="3122" y="-2375.66" font-family="Times,serif" font-size="14.00">init_back_link</text>
</g>
<!-- q11 -->
<g id="node13" class="node"><title>q11</title>
<ellipse fill="none" stroke="black" cx="2422" cy="-1925.86" rx="18" ry="18"/>
<text text-anchor="middle" x="2422" y="-1922.16" font-family="Times,serif" font-size="14.00">D</text>
</g>
<!-- q11&#45;&gt;q0 -->
<g id="edge91" class="edge"><title>q11&#45;&gt;q0</title>
<path fill="none" stroke="green" d="M2414.56,-1942.48C2405.44,-1963.53 2386.62,-1999.07 2358,-2015.86 2346.86,-2022.4 1445.91,-2109.86 1433,-2109.86 1101,-2109.86 1101,-2109.86 1101,-2109.86 1031.29,-2109.86 999.008,-2088.59 946,-2133.86 922.593,-2153.86 914.698,-2189.55 912.112,-2214.63"/>
<polygon fill="green" stroke="green" points="908.619,-2214.41 911.3,-2224.66 915.596,-2214.97 908.619,-2214.41"/>
<text text-anchor="middle" x="1652" y="-2097.66" font-family="Times,serif" font-size="14.00">create_sll</text>
</g>
<!-- q11&#45;&gt;q0 -->
<g id="edge92" class="edge"><title>q11&#45;&gt;q0</title>
<path fill="none" stroke="green" d="M2409.46,-1939.09C2397.83,-1951.44 2378.68,-1969.23 2358,-1977.86 2262.67,-2017.68 1536.31,-2071.86 1433,-2071.86 1101,-2071.86 1101,-2071.86 1101,-2071.86 1030.83,-2071.86 996.892,-2053.56 946,-2101.86 929.85,-2117.19 919.328,-2178.45 914.353,-2214.99"/>
<polygon fill="green" stroke="green" points="910.868,-2214.65 913.042,-2225.02 917.809,-2215.56 910.868,-2214.65"/>
<text text-anchor="middle" x="1652" y="-2066.66" font-family="Times,serif" font-size="14.00">init_back_link</text>
</g>
<!-- q11&#45;&gt;q0 -->
<g id="edge93" class="edge"><title>q11&#45;&gt;q0</title>
<path fill="none" stroke="green" d="M2404.26,-1930.15C2391.62,-1933.24 2373.82,-1937.31 2358,-1939.86 1950.05,-2005.69 1846.23,-2033.86 1433,-2033.86 1101,-2033.86 1101,-2033.86 1101,-2033.86 1030.75,-2033.86 995.596,-2015.11 946,-2064.86 925.357,-2085.57 916.246,-2169.89 912.799,-2214.65"/>
<polygon fill="green" stroke="green" points="909.291,-2214.62 912.058,-2224.85 916.273,-2215.13 909.291,-2214.62"/>
<text text-anchor="middle" x="1652" y="-2035.66" font-family="Times,serif" font-size="14.00">reverse_dll</text>
</g>
<!-- q11&#45;&gt;q0 -->
<g id="edge94" class="edge"><title>q11&#45;&gt;q0</title>
<path fill="none" stroke="green" d="M2403.73,-1927.42C2288.84,-1937.75 1633.55,-1995.86 1433,-1995.86 1101,-1995.86 1101,-1995.86 1101,-1995.86 1030.75,-1995.86 994.755,-1976.28 946,-2026.86 920.648,-2053.17 913.634,-2161.85 911.714,-2214.3"/>
<polygon fill="green" stroke="green" points="908.206,-2214.48 911.376,-2224.59 915.202,-2214.71 908.206,-2214.48"/>
<text text-anchor="middle" x="1652" y="-1993.66" font-family="Times,serif" font-size="14.00">remove_fw_link</text>
</g>
<!-- q11&#45;&gt;q0 -->
<g id="edge96" class="edge"><title>q11&#45;&gt;q0</title>
<path fill="none" stroke="green" d="M2403.8,-1925.96C2375.19,-1926.14 2316.04,-1926.64 2266,-1927.86 1895.65,-1936.92 1803.46,-1957.86 1433,-1957.86 1101,-1957.86 1101,-1957.86 1101,-1957.86 1030.75,-1957.86 994.152,-1937.71 946,-1988.86 915.769,-2020.98 911.369,-2155.57 910.923,-2214.75"/>
<polygon fill="green" stroke="green" points="907.423,-2214.86 910.881,-2224.88 914.423,-2214.89 907.423,-2214.86"/>
<text text-anchor="middle" x="1652" y="-1960.66" font-family="Times,serif" font-size="14.00">check_seq_prev</text>
</g>
<!-- q11&#45;&gt;q0 -->
<g id="edge97" class="edge"><title>q11&#45;&gt;q0</title>
<path fill="none" stroke="green" d="M2403.89,-1924.84C2391.23,-1924.14 2373.54,-1923.26 2358,-1922.86 1947.02,-1912.42 1844.11,-1919.86 1433,-1919.86 1101,-1919.86 1101,-1919.86 1101,-1919.86 1030.75,-1919.86 993.699,-1899.29 946,-1950.86 910.946,-1988.77 909.434,-2149.02 910.345,-2214.66"/>
<polygon fill="green" stroke="green" points="906.846,-2214.76 910.514,-2224.7 913.845,-2214.64 906.846,-2214.76"/>
<text text-anchor="middle" x="1652" y="-1923.66" font-family="Times,serif" font-size="14.00">Learn_Assert</text>
</g>
<!-- q11&#45;&gt;q10 -->
<g id="edge95" class="edge"><title>q11&#45;&gt;q10</title>
<path fill="none" stroke="green" d="M2440.05,-1929.21C2510.89,-1943.31 2788.63,-2000.43 3010,-2071.86 3013.18,-2072.89 3016.48,-2074.06 3019.72,-2075.28"/>
<polygon fill="green" stroke="green" points="3018.55,-2078.58 3029.14,-2078.99 3021.11,-2072.07 3018.55,-2078.58"/>
<text text-anchor="middle" x="2748" y="-2012.66" font-family="Times,serif" font-size="14.00">check_seq_next</text>
</g>
<!-- q18 -->
<g id="node20" class="node"><title>q18</title>
<ellipse fill="none" stroke="black" cx="2640" cy="-432.864" rx="18" ry="18"/>
<text text-anchor="middle" x="2640" y="-429.164" font-family="Times,serif" font-size="14.00">D</text>
</g>
<!-- q11&#45;&gt;q18 -->
<g id="edge90" class="edge"><title>q11&#45;&gt;q18</title>
<path fill="none" stroke="green" d="M2425.48,-1907.93C2433.88,-1847.4 2462.01,-1645.02 2486,-1477.86 2544.03,-1073.53 2616.93,-581.554 2634.87,-460.667"/>
<polygon fill="green" stroke="green" points="2638.34,-461.154 2636.34,-450.749 2631.41,-460.126 2638.34,-461.154"/>
<text text-anchor="middle" x="2532" y="-1481.66" font-family="Times,serif" font-size="14.00">chain_node</text>
</g>
<!-- q12 -->
<g id="node14" class="node"><title>q12</title>
<ellipse fill="none" stroke="black" cx="2202" cy="-1735.86" rx="18" ry="18"/>
<text text-anchor="middle" x="2202" y="-1732.16" font-family="Times,serif" font-size="14.00">D</text>
</g>
<!-- q12&#45;&gt;q0 -->
<g id="edge99" class="edge"><title>q12&#45;&gt;q0</title>
<path fill="none" stroke="green" d="M2189.41,-1748.98C2177.75,-1761.25 2158.57,-1778.98 2138,-1787.86 2065.52,-1819.18 1511.96,-1876.86 1433,-1876.86 1101,-1876.86 1101,-1876.86 1101,-1876.86 1030.92,-1876.86 993.498,-1854.33 946,-1905.86 925.245,-1928.38 915.096,-2137.29 912.032,-2214.42"/>
<polygon fill="green" stroke="green" points="908.52,-2214.68 911.631,-2224.81 915.515,-2214.95 908.52,-2214.68"/>
<text text-anchor="middle" x="1542" y="-1877.66" font-family="Times,serif" font-size="14.00">create_sll</text>
</g>
<!-- q12&#45;&gt;q0 -->
<g id="edge100" class="edge"><title>q12&#45;&gt;q0</title>
<path fill="none" stroke="green" d="M2184.25,-1740.12C2171.61,-1743.2 2153.81,-1747.26 2138,-1749.86 1827.03,-1801.01 1748.15,-1825.86 1433,-1825.86 1101,-1825.86 1101,-1825.86 1101,-1825.86 1029.51,-1825.86 991.877,-1814.04 946,-1868.86 923.922,-1895.25 914.46,-2132.27 911.817,-2214.73"/>
<polygon fill="green" stroke="green" points="908.314,-2214.77 911.502,-2224.87 915.311,-2214.99 908.314,-2214.77"/>
<text text-anchor="middle" x="1542" y="-1829.66" font-family="Times,serif" font-size="14.00">init_back_link</text>
</g>
<!-- q12&#45;&gt;q0 -->
<g id="edge101" class="edge"><title>q12&#45;&gt;q0</title>
<path fill="none" stroke="green" d="M2183.95,-1736.4C2037.23,-1741.12 992.275,-1776.26 946,-1821.86 918.076,-1849.39 912.381,-2124.66 911.263,-2214.6"/>
<polygon fill="green" stroke="green" points="907.76,-2214.81 911.146,-2224.85 914.76,-2214.89 907.76,-2214.81"/>
<text text-anchor="middle" x="1542" y="-1769.66" font-family="Times,serif" font-size="14.00">reverse_dll</text>
</g>
<!-- q12&#45;&gt;q0 -->
<g id="edge102" class="edge"><title>q12&#45;&gt;q0</title>
<path fill="none" stroke="green" d="M2183.7,-1735.33C2039.2,-1731.07 1036.2,-1704.9 946,-1797.86 916.996,-1827.76 912.023,-2121.28 911.174,-2214.56"/>
<polygon fill="green" stroke="green" points="907.673,-2214.64 911.091,-2224.67 914.673,-2214.7 907.673,-2214.64"/>
<text text-anchor="middle" x="1542" y="-1735.66" font-family="Times,serif" font-size="14.00">remove_fw_link</text>
</g>
<!-- q12&#45;&gt;q0 -->
<g id="edge104" class="edge"><title>q12&#45;&gt;q0</title>
<path fill="none" stroke="green" d="M2183.92,-1733.6C2171.27,-1732.01 2153.59,-1729.98 2138,-1728.86 1862.57,-1709.09 1687.76,-1703.32 1496,-1710.86 1348.99,-1716.65 1312.65,-1725.09 1166,-1736.86 1067.91,-1744.74 1013.04,-1689.83 946,-1761.86 915.108,-1795.06 911.436,-2116.5 911.037,-2214.59"/>
<polygon fill="green" stroke="green" points="907.537,-2214.64 911.005,-2224.65 914.537,-2214.66 907.537,-2214.64"/>
<text text-anchor="middle" x="1542" y="-1714.66" font-family="Times,serif" font-size="14.00">check_seq_prev</text>
</g>
<!-- q12&#45;&gt;q0 -->
<g id="edge105" class="edge"><title>q12&#45;&gt;q0</title>
<path fill="none" stroke="green" d="M2188.45,-1723.66C2156.83,-1694.26 2070.13,-1621.86 1983,-1621.86 1651,-1621.86 1651,-1621.86 1651,-1621.86 1571.9,-1621.86 999.868,-1662.94 946,-1720.86 912.244,-1757.16 910.607,-2111.12 910.857,-2214.59"/>
<polygon fill="green" stroke="green" points="907.358,-2214.89 910.891,-2224.88 914.358,-2214.87 907.358,-2214.89"/>
<text text-anchor="middle" x="1542" y="-1634.66" font-family="Times,serif" font-size="14.00">Learn_Assert</text>
</g>
<!-- q12&#45;&gt;q10 -->
<g id="edge103" class="edge"><title>q12&#45;&gt;q10</title>
<path fill="none" stroke="green" d="M2219.94,-1737.56C2256.57,-1741.09 2345.93,-1748.86 2421,-1748.86 2421,-1748.86 2421,-1748.86 2859,-1748.86 2999.7,-1748.86 3034.78,-1976.82 3042.8,-2057.77"/>
<polygon fill="green" stroke="green" points="3039.32,-2058.11 3043.72,-2067.75 3046.29,-2057.47 3039.32,-2058.11"/>
<text text-anchor="middle" x="2640" y="-1752.66" font-family="Times,serif" font-size="14.00">check_seq_next</text>
</g>
<!-- q12&#45;&gt;q11 -->
<g id="edge98" class="edge"><title>q12&#45;&gt;q11</title>
<path fill="none" stroke="green" d="M2218.57,-1743.11C2253.31,-1759.48 2335.83,-1799.53 2358,-1820.86 2381.73,-1843.69 2399.8,-1877.33 2410.38,-1900.34"/>
<polygon fill="green" stroke="green" points="2407.19,-1901.78 2414.45,-1909.49 2413.59,-1898.93 2407.19,-1901.78"/>
<text text-anchor="middle" x="2312" y="-1824.66" font-family="Times,serif" font-size="14.00">chain_node</text>
</g>
<!-- q13 -->
<g id="node15" class="node"><title>q13</title>
<ellipse fill="none" stroke="black" cx="1982" cy="-1499.86" rx="18" ry="18"/>
<text text-anchor="middle" x="1982" y="-1496.16" font-family="Times,serif" font-size="14.00">D</text>
</g>
<!-- q13&#45;&gt;q0 -->
<g id="edge107" class="edge"><title>q13&#45;&gt;q0</title>
<path fill="none" stroke="green" d="M1969.45,-1513.07C1957.81,-1525.39 1938.65,-1543.16 1918,-1551.86 1905.49,-1557.14 955.369,-1647.04 946,-1656.86 907.21,-1697.56 909.286,-2103.45 910.599,-2214.76"/>
<polygon fill="green" stroke="green" points="907.101,-2214.92 910.726,-2224.88 914.1,-2214.83 907.101,-2214.92"/>
<text text-anchor="middle" x="1432" y="-1610.66" font-family="Times,serif" font-size="14.00">create_sll</text>
</g>
<!-- q13&#45;&gt;q0 -->
<g id="edge108" class="edge"><title>q13&#45;&gt;q0</title>
<path fill="none" stroke="green" d="M1964.24,-1504.05C1951.6,-1507.09 1933.79,-1511.14 1918,-1513.86 1683.22,-1554.42 1622.23,-1548.84 1386,-1579.86 1288.13,-1592.72 1012.96,-1568.34 946,-1640.86 926.327,-1662.17 914.487,-2097.68 911.66,-2214.33"/>
<polygon fill="green" stroke="green" points="908.155,-2214.52 911.415,-2224.6 915.153,-2214.69 908.155,-2214.52"/>
<text text-anchor="middle" x="1432" y="-1583.66" font-family="Times,serif" font-size="14.00">init_back_link</text>
</g>
<!-- q13&#45;&gt;q0 -->
<g id="edge109" class="edge"><title>q13&#45;&gt;q0</title>
<path fill="none" stroke="green" d="M1963.7,-1500.85C1831.29,-1508.51 982.437,-1559.04 946,-1597.86 924.606,-1620.66 913.925,-2093.25 911.528,-2214.64"/>
<polygon fill="green" stroke="green" points="908.028,-2214.58 911.333,-2224.65 915.027,-2214.72 908.028,-2214.58"/>
<text text-anchor="middle" x="1432" y="-1543.66" font-family="Times,serif" font-size="14.00">reverse_dll</text>
</g>
<!-- q13&#45;&gt;q0 -->
<g id="edge110" class="edge"><title>q13&#45;&gt;q0</title>
<path fill="none" stroke="green" d="M1963.95,-1499.7C1835.13,-1498.62 1018.05,-1494.89 946,-1572.86 923.915,-1596.76 913.715,-2089.63 911.481,-2214.37"/>
<polygon fill="green" stroke="green" points="907.977,-2214.58 911.301,-2224.64 914.976,-2214.7 907.977,-2214.58"/>
<text text-anchor="middle" x="1432" y="-1512.66" font-family="Times,serif" font-size="14.00">remove_fw_link</text>
</g>
<!-- q13&#45;&gt;q0 -->
<g id="edge112" class="edge"><title>q13&#45;&gt;q0</title>
<path fill="none" stroke="green" d="M1963.9,-1498.58C1951.23,-1497.68 1933.55,-1496.52 1918,-1495.86 1554.34,-1480.61 1497.05,-1480.99 1386,-1486.86 1238.72,-1494.65 1202.42,-1504.12 1056,-1521.86 1007.02,-1527.8 979.358,-1500.51 946,-1536.86 922.722,-1562.24 913.357,-2085.86 911.403,-2214.51"/>
<polygon fill="green" stroke="green" points="907.9,-2214.68 911.251,-2224.73 914.899,-2214.78 907.9,-2214.68"/>
<text text-anchor="middle" x="1432" y="-1490.66" font-family="Times,serif" font-size="14.00">check_seq_prev</text>
</g>
<!-- q13&#45;&gt;q0 -->
<g id="edge113" class="edge"><title>q13&#45;&gt;q0</title>
<path fill="none" stroke="green" d="M1964.23,-1496.38C1951.58,-1493.89 1933.77,-1490.67 1918,-1488.86 1703.32,-1464.35 1093.9,-1356.35 946,-1513.86 921.588,-1539.86 913.043,-2084.11 911.338,-2214.82"/>
<polygon fill="green" stroke="green" points="907.838,-2214.8 911.211,-2224.85 914.838,-2214.89 907.838,-2214.8"/>
<text text-anchor="middle" x="1432" y="-1441.66" font-family="Times,serif" font-size="14.00">Learn_Assert</text>
</g>
<!-- q13&#45;&gt;q10 -->
<g id="edge111" class="edge"><title>q13&#45;&gt;q10</title>
<path fill="none" stroke="green" d="M1999.93,-1501.83C2036.55,-1505.89 2125.89,-1514.86 2201,-1514.86 2201,-1514.86 2201,-1514.86 2859,-1514.86 2988.05,-1514.86 2968.5,-1640.67 3010,-1762.86 3028.47,-1817.24 3039.7,-1989.44 3043.52,-2057.65"/>
<polygon fill="green" stroke="green" points="3040.03,-2057.87 3044.07,-2067.67 3047.02,-2057.49 3040.03,-2057.87"/>
<text text-anchor="middle" x="2532" y="-1518.66" font-family="Times,serif" font-size="14.00">check_seq_next</text>
</g>
<!-- q13&#45;&gt;q12 -->
<g id="edge106" class="edge"><title>q13&#45;&gt;q12</title>
<path fill="none" stroke="green" d="M1998.5,-1507.62C2033.48,-1525.37 2117.14,-1569.21 2138,-1592.86 2167.98,-1626.87 2185.67,-1677.41 2194.33,-1708.41"/>
<polygon fill="green" stroke="green" points="2190.97,-1709.37 2196.93,-1718.12 2197.73,-1707.56 2190.97,-1709.37"/>
<text text-anchor="middle" x="2092" y="-1596.66" font-family="Times,serif" font-size="14.00">chain_node</text>
</g>
<!-- q14 -->
<g id="node16" class="node"><title>q14</title>
<ellipse fill="none" stroke="black" cx="1762" cy="-1271.86" rx="18" ry="18"/>
<text text-anchor="middle" x="1762" y="-1268.16" font-family="Times,serif" font-size="14.00">D</text>
</g>
<!-- q14&#45;&gt;q0 -->
<g id="edge115" class="edge"><title>q14&#45;&gt;q0</title>
<path fill="none" stroke="green" d="M1749.39,-1284.92C1737.7,-1297.15 1718.51,-1314.84 1698,-1323.86 1688.35,-1328.11 953.092,-1421.06 946,-1428.86 919.056,-1458.52 912.388,-2073.52 911.213,-2214.32"/>
<polygon fill="green" stroke="green" points="907.71,-2214.67 911.129,-2224.69 914.71,-2214.72 907.71,-2214.67"/>
<text text-anchor="middle" x="1322" y="-1384.66" font-family="Times,serif" font-size="14.00">create_sll</text>
</g>
<!-- q14&#45;&gt;q0 -->
<g id="edge116" class="edge"><title>q14&#45;&gt;q0</title>
<path fill="none" stroke="green" d="M1744.22,-1275.91C1731.56,-1278.88 1713.75,-1282.91 1698,-1285.86 1630.19,-1298.61 961.702,-1392.83 946,-1410.86 919.049,-1441.81 912.372,-2072.52 911.207,-2214.6"/>
<polygon fill="green" stroke="green" points="907.707,-2214.66 911.127,-2224.69 914.706,-2214.72 907.707,-2214.66"/>
<text text-anchor="middle" x="1322" y="-1354.66" font-family="Times,serif" font-size="14.00">init_back_link</text>
</g>
<!-- q14&#45;&gt;q0 -->
<g id="edge117" class="edge"><title>q14&#45;&gt;q0</title>
<path fill="none" stroke="green" d="M1743.68,-1271.37C1635.44,-1268.7 1053.13,-1260.38 946,-1386.86 918.683,-1419.11 912.282,-2069.08 911.191,-2214.27"/>
<polygon fill="green" stroke="green" points="907.689,-2214.54 911.116,-2224.57 914.689,-2214.59 907.689,-2214.54"/>
<text text-anchor="middle" x="1322" y="-1290.66" font-family="Times,serif" font-size="14.00">reverse_dll</text>
</g>
<!-- q14&#45;&gt;q0 -->
<g id="edge118" class="edge"><title>q14&#45;&gt;q0</title>
<path fill="none" stroke="green" d="M1743.95,-1269.97C1636.11,-1258.44 1050.12,-1202.22 946,-1329.86 917.39,-1364.94 911.973,-2063.49 911.136,-2214.32"/>
<polygon fill="green" stroke="green" points="907.635,-2214.57 911.081,-2224.59 914.634,-2214.61 907.635,-2214.57"/>
<text text-anchor="middle" x="1322" y="-1252.66" font-family="Times,serif" font-size="14.00">remove_fw_link</text>
</g>
<!-- q14&#45;&gt;q0 -->
<g id="edge120" class="edge"><title>q14&#45;&gt;q0</title>
<path fill="none" stroke="green" d="M1744.63,-1266.2C1732.04,-1262.08 1714.12,-1256.75 1698,-1253.86 1417.12,-1203.64 1337.8,-1210.11 1056,-1254.86 1006.76,-1262.68 978.302,-1238.89 946,-1276.86 914.843,-1313.5 911.421,-2059.18 911.046,-2214.62"/>
<polygon fill="green" stroke="green" points="907.546,-2214.77 911.024,-2224.78 914.546,-2214.78 907.546,-2214.77"/>
<text text-anchor="middle" x="1322" y="-1228.66" font-family="Times,serif" font-size="14.00">check_seq_prev</text>
</g>
<!-- q14&#45;&gt;q0 -->
<g id="edge121" class="edge"><title>q14&#45;&gt;q0</title>
<path fill="none" stroke="green" d="M1746.8,-1261.25C1734.54,-1252.66 1716.01,-1241.01 1698,-1234.86 1651.36,-1218.95 1636.99,-1226.21 1588,-1220.86 1446.02,-1205.38 1041.01,-1144.23 946,-1250.86 913.113,-1287.77 911.062,-2055.71 910.99,-2214.35"/>
<polygon fill="green" stroke="green" points="907.49,-2214.7 910.988,-2224.7 914.49,-2214.7 907.49,-2214.7"/>
<text text-anchor="middle" x="1322" y="-1200.66" font-family="Times,serif" font-size="14.00">Learn_Assert</text>
</g>
<!-- q14&#45;&gt;q10 -->
<g id="edge119" class="edge"><title>q14&#45;&gt;q10</title>
<path fill="none" stroke="green" d="M1779.94,-1273.56C1816.57,-1277.09 1905.93,-1284.86 1981,-1284.86 1981,-1284.86 1981,-1284.86 2859,-1284.86 2986.15,-1284.86 2971.29,-1406.75 3010,-1527.86 3042.04,-1628.12 3044.91,-1958.97 3045.04,-2057.77"/>
<polygon fill="green" stroke="green" points="3041.54,-2057.88 3045.05,-2067.87 3048.54,-2057.87 3041.54,-2057.88"/>
<text text-anchor="middle" x="2422" y="-1288.66" font-family="Times,serif" font-size="14.00">check_seq_next</text>
</g>
<!-- q14&#45;&gt;q13 -->
<g id="edge114" class="edge"><title>q14&#45;&gt;q13</title>
<path fill="none" stroke="green" d="M1778.76,-1278.92C1813.91,-1294.89 1897.21,-1334.19 1918,-1356.86 1948.8,-1390.46 1966.31,-1441.55 1974.71,-1472.7"/>
<polygon fill="green" stroke="green" points="1971.33,-1473.63 1977.21,-1482.45 1978.11,-1471.89 1971.33,-1473.63"/>
<text text-anchor="middle" x="1872" y="-1360.66" font-family="Times,serif" font-size="14.00">chain_node</text>
</g>
<!-- q15 -->
<g id="node17" class="node"><title>q15</title>
<ellipse fill="none" stroke="green" cx="1542" cy="-1022.86" rx="18" ry="18"/>
<text text-anchor="middle" x="1542" y="-1019.16" font-family="Times,serif" font-size="14.00">D</text>
</g>
<!-- q15&#45;&gt;q0 -->
<g id="edge123" class="edge"><title>q15&#45;&gt;q0</title>
<path fill="none" stroke="green" d="M1528.74,-1035.96C1516.87,-1047.86 1497.81,-1065.01 1478,-1074.86 1395.38,-1115.97 1359.9,-1084.45 1276,-1122.86 1267.03,-1126.97 1267.14,-1132.14 1258,-1135.86 1128.17,-1188.85 1039.22,-1078.1 946,-1182.86 910.741,-1222.49 910.6,-2049.78 910.923,-2214.49"/>
<polygon fill="green" stroke="green" points="907.423,-2214.78 910.945,-2224.78 914.423,-2214.77 907.423,-2214.78"/>
<text text-anchor="middle" x="1212" y="-1155.66" font-family="Times,serif" font-size="14.00">create_sll</text>
</g>
<!-- q15&#45;&gt;q0 -->
<g id="edge124" class="edge"><title>q15&#45;&gt;q0</title>
<path fill="none" stroke="green" d="M1524.6,-1028.08C1481.42,-1041.63 1360.85,-1078.24 1258,-1097.86 1189.42,-1110.95 993.19,-1083.41 946,-1134.86 908.411,-1175.85 910.169,-2046.34 910.863,-2214.78"/>
<polygon fill="green" stroke="green" points="907.363,-2214.86 910.907,-2224.85 914.363,-2214.83 907.363,-2214.86"/>
<text text-anchor="middle" x="1212" y="-1106.66" font-family="Times,serif" font-size="14.00">init_back_link</text>
</g>
<!-- q15&#45;&gt;q0 -->
<g id="edge125" class="edge"><title>q15&#45;&gt;q0</title>
<path fill="none" stroke="green" d="M1523.77,-1024.49C1495.12,-1027.26 1435.91,-1033.23 1386,-1039.86 1328.92,-1047.45 1314.98,-1051.58 1258,-1059.86 1188.77,-1069.93 992.852,-1049.91 946,-1101.86 907.587,-1144.46 910.028,-2043.34 910.845,-2214.76"/>
<polygon fill="green" stroke="green" points="907.345,-2214.79 910.895,-2224.77 914.345,-2214.75 907.345,-2214.79"/>
<text text-anchor="middle" x="1212" y="-1067.66" font-family="Times,serif" font-size="14.00">reverse_dll</text>
</g>
<!-- q15&#45;&gt;q0 -->
<g id="edge126" class="edge"><title>q15&#45;&gt;q0</title>
<path fill="none" stroke="green" d="M1523.88,-1022.74C1430.58,-1022.25 986.141,-1022.23 946,-1065.86 905.902,-1109.45 909.722,-2038.93 910.804,-2214.42"/>
<polygon fill="green" stroke="green" points="907.305,-2214.68 910.869,-2224.65 914.305,-2214.63 907.305,-2214.68"/>
<text text-anchor="middle" x="1212" y="-1034.66" font-family="Times,serif" font-size="14.00">remove_fw_link</text>
</g>
<!-- q15&#45;&gt;q0 -->
<g id="edge128" class="edge"><title>q15&#45;&gt;q0</title>
<path fill="none" stroke="green" d="M1524.03,-1020.22C1435.19,-1006.8 1024.74,-950.254 946,-1037.86 905.403,-1083.03 909.653,-2037.13 910.797,-2214.59"/>
<polygon fill="green" stroke="green" points="907.298,-2214.72 910.865,-2224.7 914.298,-2214.68 907.298,-2214.72"/>
<text text-anchor="middle" x="1212" y="-996.664" font-family="Times,serif" font-size="14.00">check_seq_prev</text>
</g>
<!-- q15&#45;&gt;q0 -->
<g id="edge129" class="edge"><title>q15&#45;&gt;q0</title>
<path fill="none" stroke="green" d="M1525.29,-1015.66C1512.74,-1010.2 1494.59,-1002.98 1478,-998.864 1363.25,-970.412 1026.16,-908.967 946,-995.864 924.638,-1019.02 913.189,-2030.81 911.285,-2214.44"/>
<polygon fill="green" stroke="green" points="907.783,-2214.6 911.18,-2224.64 914.783,-2214.68 907.783,-2214.6"/>
<text text-anchor="middle" x="1212" y="-963.664" font-family="Times,serif" font-size="14.00">Learn_Assert</text>
</g>
<!-- q15&#45;&gt;q10 -->
<g id="edge127" class="edge"><title>q15&#45;&gt;q10</title>
<path fill="none" stroke="green" d="M1559.93,-1024.83C1596.55,-1028.89 1685.89,-1037.86 1761,-1037.86 1761,-1037.86 1761,-1037.86 2859,-1037.86 2992.63,-1037.86 2972.39,-1169.63 3010,-1297.86 3031.69,-1371.84 3042.3,-1925.31 3044.54,-2057.55"/>
<polygon fill="green" stroke="green" points="3041.05,-2057.74 3044.71,-2067.68 3048.04,-2057.63 3041.05,-2057.74"/>
<text text-anchor="middle" x="2312" y="-1041.66" font-family="Times,serif" font-size="14.00">check_seq_next</text>
</g>
<!-- q15&#45;&gt;q14 -->
<g id="edge122" class="edge"><title>q15&#45;&gt;q14</title>
<path fill="none" stroke="green" d="M1558.55,-1030.58C1593.64,-1048.23 1677.51,-1091.89 1698,-1115.86 1730.36,-1153.73 1747.56,-1210.38 1755.44,-1243.98"/>
<polygon fill="green" stroke="green" points="1752.09,-1245.03 1757.68,-1254.03 1758.92,-1243.5 1752.09,-1245.03"/>
<text text-anchor="middle" x="1652" y="-1119.66" font-family="Times,serif" font-size="14.00">chain_node</text>
</g>
<!-- q16 -->
<g id="node18" class="node"><title>q16</title>
<ellipse fill="none" stroke="green" cx="1322" cy="-772.864" rx="18" ry="18"/>
<text text-anchor="middle" x="1322" y="-769.164" font-family="Times,serif" font-size="14.00">D</text>
</g>
<!-- q16&#45;&gt;q0 -->
<g id="edge131" class="edge"><title>q16&#45;&gt;q0</title>
<path fill="none" stroke="green" d="M1316.63,-790.087C1309.17,-815.817 1291.43,-863.926 1258,-888.864 1201.19,-931.235 991.369,-900.423 946,-954.864 925.136,-979.9 913.248,-2027.28 911.289,-2214.41"/>
<polygon fill="green" stroke="green" points="907.788,-2214.51 911.184,-2224.55 914.787,-2214.59 907.788,-2214.51"/>
<text text-anchor="middle" x="1102" y="-924.664" font-family="Times,serif" font-size="14.00">create_sll</text>
</g>
<!-- q16&#45;&gt;q0 -->
<g id="edge132" class="edge"><title>q16&#45;&gt;q0</title>
<path fill="none" stroke="green" d="M1310.82,-787.183C1299.54,-802 1280.02,-824.771 1258,-837.864 1250.27,-842.463 951.536,-917.771 946,-924.864 904.964,-977.444 909.641,-2027.08 910.805,-2214.39"/>
<polygon fill="green" stroke="green" points="907.306,-2214.56 910.87,-2224.54 914.306,-2214.52 907.306,-2214.56"/>
<text text-anchor="middle" x="1102" y="-895.664" font-family="Times,serif" font-size="14.00">init_back_link</text>
</g>
<!-- q16&#45;&gt;q0 -->
<g id="edge133" class="edge"><title>q16&#45;&gt;q0</title>
<path fill="none" stroke="green" d="M1304.44,-777.064C1249.8,-791.006 1077.48,-835.667 1056,-849.864 1045.46,-856.829 1048.5,-864.833 1038,-871.864 1002.49,-895.652 971.89,-865.857 946,-899.864 904.789,-953.995 909.627,-2025.32 910.806,-2214.46"/>
<polygon fill="green" stroke="green" points="907.307,-2214.72 910.871,-2224.7 914.307,-2214.68 907.307,-2214.72"/>
<text text-anchor="middle" x="1102" y="-853.664" font-family="Times,serif" font-size="14.00">reverse_dll</text>
</g>
<!-- q16&#45;&gt;q0 -->
<g id="edge134" class="edge"><title>q16&#45;&gt;q0</title>
<path fill="none" stroke="green" d="M1303.77,-774.163C1275.13,-776.38 1215.94,-781.207 1166,-786.864 1116.97,-792.418 1094.89,-771.499 1056,-801.864 1039.02,-815.121 1053.87,-832.294 1038,-846.864 1006.52,-875.774 971.882,-840.851 946,-874.864 924.974,-902.495 913.157,-2021.02 911.269,-2214.5"/>
<polygon fill="green" stroke="green" points="907.767,-2214.67 911.17,-2224.7 914.767,-2214.74 907.767,-2214.67"/>
<text text-anchor="middle" x="1102" y="-805.664" font-family="Times,serif" font-size="14.00">remove_fw_link</text>
</g>
<!-- q16&#45;&gt;q0 -->
<g id="edge135" class="edge"><title>q16&#45;&gt;q0</title>
<path fill="none" stroke="green" d="M1303.82,-772.071C1272.73,-770.68 1205.09,-767.854 1148,-766.864 1107.12,-766.155 1089.11,-742.865 1056,-766.864 1035.18,-781.96 1056.38,-803.868 1038,-821.864 1007.46,-851.77 971.874,-815.845 946,-849.864 924.574,-878.034 913.068,-2019.36 911.255,-2214.6"/>
<polygon fill="green" stroke="green" points="907.752,-2214.85 911.16,-2224.88 914.752,-2214.91 907.752,-2214.85"/>
<text text-anchor="middle" x="1102" y="-770.664" font-family="Times,serif" font-size="14.00">check_seq_next</text>
</g>
<!-- q16&#45;&gt;q0 -->
<g id="edge136" class="edge"><title>q16&#45;&gt;q0</title>
<path fill="none" stroke="green" d="M1304.47,-768.369C1273.88,-760.309 1206.24,-743.696 1148,-737.864 1107.31,-733.79 1088.86,-713.533 1056,-737.864 1033.97,-754.178 1057.39,-777.485 1038,-796.864 1007.77,-827.076 971.867,-790.839 946,-824.864 924.174,-853.574 912.98,-2017.72 911.241,-2214.69"/>
<polygon fill="green" stroke="green" points="907.74,-2214.78 911.152,-2224.82 914.74,-2214.85 907.74,-2214.78"/>
<text text-anchor="middle" x="1102" y="-741.664" font-family="Times,serif" font-size="14.00">check_seq_prev</text>
</g>
<!-- q16&#45;&gt;q0 -->
<g id="edge137" class="edge"><title>q16&#45;&gt;q0</title>
<path fill="none" stroke="green" d="M1306.54,-763.14C1294.11,-755.151 1275.49,-744.021 1258,-736.864 1211.21,-717.714 1198.14,-714.362 1148,-707.864 1107.45,-702.609 1088.59,-683.174 1056,-707.864 1032.45,-725.707 1058.67,-750.749 1038,-771.864 1008.1,-802.406 971.859,-765.834 946,-799.864 923.784,-829.1 912.905,-2015 911.23,-2214.51"/>
<polygon fill="green" stroke="green" points="907.728,-2214.73 911.145,-2224.76 914.728,-2214.79 907.728,-2214.73"/>
<text text-anchor="middle" x="1102" y="-711.664" font-family="Times,serif" font-size="14.00">Learn_Assert</text>
</g>
<!-- q16&#45;&gt;q15 -->
<g id="edge130" class="edge"><title>q16&#45;&gt;q15</title>
<path fill="none" stroke="green" d="M1338.76,-780.049C1369.41,-794.734 1437.58,-830.971 1478,-879.864 1506.76,-914.654 1524.75,-964.627 1533.82,-995.351"/>
<polygon fill="green" stroke="green" points="1530.56,-996.694 1536.66,-1005.36 1537.29,-994.784 1530.56,-996.694"/>
<text text-anchor="middle" x="1432" y="-883.664" font-family="Times,serif" font-size="14.00">chain_node</text>
</g>
<!-- q17&#45;&gt;q0 -->
<g id="edge139" class="edge"><title>q17&#45;&gt;q0</title>
<path fill="none" stroke="green" d="M1085.22,-573.118C1075.27,-578.524 1063,-586.868 1056,-597.864 1032.21,-635.215 1068.97,-664.208 1038,-695.864 1008.8,-725.71 972.738,-682.797 946,-714.864 921.024,-744.818 912.4,-2009.17 911.161,-2214.75"/>
<polygon fill="green" stroke="green" points="907.662,-2214.73 911.102,-2224.75 914.661,-2214.78 907.662,-2214.73"/>
<text text-anchor="middle" x="992" y="-718.664" font-family="Times,serif" font-size="14.00">create_sll</text>
</g>
<!-- q17&#45;&gt;q0 -->
<g id="edge140" class="edge"><title>q17&#45;&gt;q0</title>
<path fill="none" stroke="green" d="M1085.61,-573.382C1075.82,-578.9 1063.6,-587.269 1056,-597.864 1039.78,-620.49 1058.53,-639.061 1038,-657.864 1007.21,-686.063 972.729,-644.79 946,-676.864 920.385,-707.602 912.283,-2006.06 911.146,-2214.71"/>
<polygon fill="green" stroke="green" points="907.645,-2214.83 911.091,-2224.85 914.645,-2214.86 907.645,-2214.83"/>
<text text-anchor="middle" x="992" y="-680.664" font-family="Times,serif" font-size="14.00">init_back_link</text>
</g>
<!-- q17&#45;&gt;q0 -->
<g id="edge141" class="edge"><title>q17&#45;&gt;q0</title>
<path fill="none" stroke="green" d="M1086.06,-575.033C1076.92,-580.986 1065.24,-589.224 1056,-597.864 1046.77,-606.49 1048.81,-613.322 1038,-619.864 1002.28,-641.486 972.72,-606.783 946,-638.864 919.745,-670.386 912.169,-2003.03 911.131,-2214.67"/>
<polygon fill="green" stroke="green" points="907.631,-2214.67 911.082,-2224.68 914.631,-2214.7 907.631,-2214.67"/>
<text text-anchor="middle" x="992" y="-642.664" font-family="Times,serif" font-size="14.00">reverse_dll</text>
</g>
<!-- q17&#45;&gt;q0 -->
<g id="edge142" class="edge"><title>q17&#45;&gt;q0</title>
<path fill="none" stroke="green" d="M1084.47,-570.279C1071.79,-573.613 1053.84,-578.22 1038,-581.864 997.312,-591.227 972.712,-568.776 946,-600.864 919.104,-633.173 912.057,-2000.2 911.116,-2214.68"/>
<polygon fill="green" stroke="green" points="907.616,-2214.79 911.072,-2224.81 914.616,-2214.82 907.616,-2214.79"/>
<text text-anchor="middle" x="992" y="-604.664" font-family="Times,serif" font-size="14.00">remove_fw_link</text>
</g>
<!-- q17&#45;&gt;q0 -->
<g id="edge143" class="edge"><title>q17&#45;&gt;q0</title>
<path fill="none" stroke="green" d="M1084.21,-562.697C1048.18,-556.333 965.133,-544.126 946,-562.864 915.255,-592.975 911.451,-1995.58 911.044,-2214.32"/>
<polygon fill="green" stroke="green" points="907.544,-2214.63 911.026,-2224.64 914.544,-2214.64 907.544,-2214.63"/>
<text text-anchor="middle" x="992" y="-566.664" font-family="Times,serif" font-size="14.00">check_seq_next</text>
</g>
<!-- q17&#45;&gt;q0 -->
<g id="edge144" class="edge"><title>q17&#45;&gt;q0</title>
<path fill="none" stroke="green" d="M1086.71,-555.956C1056.31,-536.178 984.813,-496.838 946,-534.864 914.716,-565.513 911.365,-1994.36 911.034,-2214.51"/>
<polygon fill="green" stroke="green" points="907.534,-2214.61 911.02,-2224.62 914.534,-2214.62 907.534,-2214.61"/>
<text text-anchor="middle" x="992" y="-538.664" font-family="Times,serif" font-size="14.00">check_seq_prev</text>
</g>
<!-- q17&#45;&gt;q0 -->
<g id="edge145" class="edge"><title>q17&#45;&gt;q0</title>
<path fill="none" stroke="green" d="M1087.38,-554.641C1078.12,-546.728 1065.81,-535.657 1056,-524.864 1047.03,-514.997 1049.93,-506.827 1038,-500.864 1001.43,-482.578 975.202,-472.243 946,-500.864 914.067,-532.162 911.264,-1992.45 911.022,-2214.65"/>
<polygon fill="green" stroke="green" points="907.522,-2214.83 911.012,-2224.83 914.522,-2214.83 907.522,-2214.83"/>
<text text-anchor="middle" x="992" y="-504.664" font-family="Times,serif" font-size="14.00">Learn_Assert</text>
</g>
<!-- q17&#45;&gt;q16 -->
<g id="edge138" class="edge"><title>q17&#45;&gt;q16</title>
<path fill="none" stroke="green" d="M1120.19,-563.404C1151.48,-559.942 1218.14,-557.375 1258,-590.864 1304.18,-629.661 1316.56,-704.143 1319.84,-744.761"/>
<polygon fill="green" stroke="green" points="1316.36,-745.048 1320.52,-754.789 1323.34,-744.575 1316.36,-745.048"/>
<text text-anchor="middle" x="1212" y="-594.664" font-family="Times,serif" font-size="14.00">chain_node</text>
</g>
<!-- q18&#45;&gt;q0 -->
<g id="edge147" class="edge"><title>q18&#45;&gt;q0</title>
<path fill="none" stroke="green" d="M2629.14,-447.63C2618.35,-462.595 2599.69,-485.283 2578,-497.864 2516.74,-533.407 2493.82,-534.864 2423,-534.864 1871,-534.864 1871,-534.864 1871,-534.864 1508.07,-534.864 1415.35,-534.718 1056,-483.864 1047.89,-482.716 1046.15,-480.758 1038,-479.864 997.355,-475.402 975.198,-451.24 946,-479.864 913.686,-511.543 911.206,-1989.43 911.016,-2214.31"/>
<polygon fill="green" stroke="green" points="907.516,-2214.61 911.008,-2224.61 914.516,-2214.61 907.516,-2214.61"/>
<text text-anchor="middle" x="1762" y="-538.664" font-family="Times,serif" font-size="14.00">create_sll</text>
</g>
<!-- q18&#45;&gt;q0 -->
<g id="edge148" class="edge"><title>q18&#45;&gt;q0</title>
<path fill="none" stroke="green" d="M2623.05,-439.323C2587.67,-453.047 2499.68,-483.864 2423,-483.864 1871,-483.864 1871,-483.864 1871,-483.864 1500.66,-483.864 1408.31,-467.531 1038,-462.864 997.114,-462.349 975.196,-434.237 946,-462.864 913.344,-494.884 911.155,-1990.02 911.01,-2214.72"/>
<polygon fill="green" stroke="green" points="907.51,-2214.72 911.004,-2224.73 914.51,-2214.73 907.51,-2214.72"/>
<text text-anchor="middle" x="1762" y="-487.664" font-family="Times,serif" font-size="14.00">init_back_link</text>
</g>
<!-- q18&#45;&gt;q0 -->
<g id="edge149" class="edge"><title>q18&#45;&gt;q0</title>
<path fill="none" stroke="green" d="M2621.92,-432.864C2585.41,-432.864 2497.06,-432.864 2423,-432.864 1651,-432.864 1651,-432.864 1651,-432.864 1572.65,-432.864 1001.39,-391.453 946,-446.864 913.359,-479.517 911.157,-1989.36 911.01,-2214.83"/>
<polygon fill="green" stroke="green" points="907.51,-2214.85 911.005,-2224.86 914.51,-2214.86 907.51,-2214.85"/>
<text text-anchor="middle" x="1762" y="-436.664" font-family="Times,serif" font-size="14.00">reverse_dll</text>
</g>
<!-- q18&#45;&gt;q0 -->
<g id="edge150" class="edge"><title>q18&#45;&gt;q0</title>
<path fill="none" stroke="green" d="M2623.05,-426.405C2587.67,-412.682 2499.68,-381.864 2423,-381.864 1101,-381.864 1101,-381.864 1101,-381.864 1030.07,-381.864 990.311,-364.48 946,-419.864 916.723,-456.457 911.66,-1986.07 911.067,-2214.46"/>
<polygon fill="green" stroke="green" points="907.566,-2214.61 911.041,-2224.62 914.566,-2214.63 907.566,-2214.61"/>
<text text-anchor="middle" x="1762" y="-385.664" font-family="Times,serif" font-size="14.00">remove_fw_link</text>
</g>
<!-- q18&#45;&gt;q0 -->
<g id="edge152" class="edge"><title>q18&#45;&gt;q0</title>
<path fill="none" stroke="green" d="M2626.33,-420.823C2614.58,-410.177 2596.2,-394.831 2578,-384.864 2514.01,-349.828 2495.95,-330.864 2423,-330.864 1101,-330.864 1101,-330.864 1101,-330.864 1029.27,-330.864 989.611,-318.91 946,-375.864 916.791,-414.01 911.664,-1983.22 911.066,-2214.51"/>
<polygon fill="green" stroke="green" points="907.566,-2214.78 911.041,-2224.79 914.566,-2214.79 907.566,-2214.78"/>
<text text-anchor="middle" x="1762" y="-334.664" font-family="Times,serif" font-size="14.00">check_seq_prev</text>
</g>
<!-- q18&#45;&gt;q0 -->
<g id="edge153" class="edge"><title>q18&#45;&gt;q0</title>
<path fill="none" stroke="green" d="M2632.53,-416.066C2623.45,-394.586 2604.96,-357.577 2578,-335.864 2520.96,-289.917 2496.25,-279.864 2423,-279.864 1101,-279.864 1101,-279.864 1101,-279.864 1029.01,-279.864 989.412,-269.441 946,-326.864 916.236,-366.234 911.577,-1979.7 911.056,-2214.49"/>
<polygon fill="green" stroke="green" points="907.556,-2214.61 911.035,-2224.61 914.556,-2214.62 907.556,-2214.61"/>
<text text-anchor="middle" x="1762" y="-283.664" font-family="Times,serif" font-size="14.00">Learn_Assert</text>
</g>
<!-- q18&#45;&gt;q10 -->
<g id="edge151" class="edge"><title>q18&#45;&gt;q10</title>
<path fill="none" stroke="green" d="M2652.79,-445.706C2706.76,-505.426 2930.91,-764.08 3010,-1023.86 3040.83,-1125.11 3044.51,-1898.29 3044.94,-2057.32"/>
<polygon fill="green" stroke="green" points="3041.44,-2057.7 3044.97,-2067.69 3048.44,-2057.68 3041.44,-2057.7"/>
<text text-anchor="middle" x="2858" y="-787.664" font-family="Times,serif" font-size="14.00">check_seq_next</text>
</g>
<!-- q19 -->
<g id="node21" class="node"><title>q19</title>
<ellipse fill="none" stroke="black" cx="2858" cy="-157.864" rx="18" ry="18"/>
<text text-anchor="middle" x="2858" y="-154.164" font-family="Times,serif" font-size="14.00">D</text>
</g>
<!-- q18&#45;&gt;q19 -->
<g id="edge146" class="edge"><title>q18&#45;&gt;q19</title>
<path fill="none" stroke="green" d="M2652.51,-419.7C2678.52,-389.793 2743.5,-314.18 2794,-247.864 2810.98,-225.566 2829.23,-199.211 2841.69,-180.805"/>
<polygon fill="green" stroke="green" points="2844.63,-182.709 2847.31,-172.46 2838.82,-178.797 2844.63,-182.709"/>
<text text-anchor="middle" x="2748" y="-363.664" font-family="Times,serif" font-size="14.00">chain_node</text>
</g>
<!-- q19&#45;&gt;q0 -->
<g id="edge154" class="edge"><title>q19&#45;&gt;q0</title>
<path fill="none" stroke="green" d="M2845.36,-170.849C2833.64,-183.017 2814.43,-200.67 2794,-209.864 2731.23,-238.108 2709.83,-233.864 2641,-233.864 1101,-233.864 1101,-233.864 1101,-233.864 1029.63,-233.864 989.872,-219.567 946,-275.864 914.823,-315.871 911.369,-1976.07 911.033,-2214.47"/>
<polygon fill="green" stroke="green" points="907.533,-2214.73 911.02,-2224.74 914.533,-2214.74 907.533,-2214.73"/>
<text text-anchor="middle" x="1872" y="-237.664" font-family="Times,serif" font-size="14.00">chain_node</text>
</g>
<!-- q19&#45;&gt;q0 -->
<g id="edge155" class="edge"><title>q19&#45;&gt;q0</title>
<path fill="none" stroke="green" d="M2840.64,-162.754C2804.82,-173.017 2716.58,-195.864 2641,-195.864 1101,-195.864 1101,-195.864 1101,-195.864 1030.57,-195.864 990.79,-174.507 946,-228.864 912.942,-268.984 911.099,-1973.02 911.004,-2214.52"/>
<polygon fill="green" stroke="green" points="907.504,-2214.6 911.001,-2224.6 914.504,-2214.61 907.504,-2214.6"/>
<text text-anchor="middle" x="1872" y="-199.664" font-family="Times,serif" font-size="14.00">create_sll</text>
</g>
<!-- q19&#45;&gt;q0 -->
<g id="edge156" class="edge"><title>q19&#45;&gt;q0</title>
<path fill="none" stroke="green" d="M2839.92,-157.864C2803.41,-157.864 2715.06,-157.864 2641,-157.864 1101,-157.864 1101,-157.864 1101,-157.864 1030.83,-157.864 991.113,-134.121 946,-187.864 911.862,-228.533 910.949,-1971.08 910.989,-2214.7"/>
<polygon fill="green" stroke="green" points="907.489,-2214.86 910.991,-2224.85 914.489,-2214.85 907.489,-2214.86"/>
<text text-anchor="middle" x="1872" y="-161.664" font-family="Times,serif" font-size="14.00">init_back_link</text>
</g>
<!-- q19&#45;&gt;q0 -->
<g id="edge157" class="edge"><title>q19&#45;&gt;q0</title>
<path fill="none" stroke="green" d="M2840.64,-152.974C2804.82,-142.711 2716.58,-119.864 2641,-119.864 1101,-119.864 1101,-119.864 1101,-119.864 1030.92,-119.864 991.218,-95.3184 946,-148.864 911.074,-190.223 910.841,-1967.75 910.978,-2214.54"/>
<polygon fill="green" stroke="green" points="907.478,-2214.83 910.984,-2224.83 914.478,-2214.82 907.478,-2214.83"/>
<text text-anchor="middle" x="1872" y="-123.664" font-family="Times,serif" font-size="14.00">reverse_dll</text>
</g>
<!-- q19&#45;&gt;q0 -->
<g id="edge158" class="edge"><title>q19&#45;&gt;q0</title>
<path fill="none" stroke="green" d="M2842.59,-147.81C2830.2,-139.562 2811.6,-128.103 2794,-120.864 2729.1,-94.1646 2711.17,-81.8641 2641,-81.8641 1101,-81.8641 1101,-81.8641 1101,-81.8641 1030.92,-81.8641 991.21,-57.3116 946,-110.864 910.41,-153.021 910.755,-1966.42 910.969,-2214.79"/>
<polygon fill="green" stroke="green" points="907.469,-2214.82 910.979,-2224.82 914.469,-2214.81 907.469,-2214.82"/>
<text text-anchor="middle" x="1872" y="-85.6641" font-family="Times,serif" font-size="14.00">remove_fw_link</text>
</g>
<!-- q19&#45;&gt;q0 -->
<g id="edge160" class="edge"><title>q19&#45;&gt;q0</title>
<path fill="none" stroke="green" d="M2848.1,-142.683C2837.4,-125.772 2817.86,-98.8461 2794,-83.8641 2734.47,-46.4928 2711.29,-43.8641 2641,-43.8641 1101,-43.8641 1101,-43.8641 1101,-43.8641 1030.92,-43.8641 991.202,-19.3052 946,-72.8641 909.764,-115.8 910.67,-1963.4 910.961,-2214.68"/>
<polygon fill="green" stroke="green" points="907.461,-2214.82 910.973,-2224.82 914.461,-2214.81 907.461,-2214.82"/>
<text text-anchor="middle" x="1872" y="-47.6641" font-family="Times,serif" font-size="14.00">check_seq_prev</text>
</g>
<!-- q19&#45;&gt;q0 -->
<g id="edge161" class="edge"><title>q19&#45;&gt;q0</title>
<path fill="none" stroke="green" d="M2852.37,-140.486C2844.66,-115.029 2826.72,-67.9135 2794,-42.8641 2738.45,-0.33338 2710.96,-5.86415 2641,-5.86415 1101,-5.86415 1101,-5.86415 1101,-5.86415 1030.92,-5.86415 991.195,18.7011 946,-34.8641 909.116,-78.579 910.586,-1960.45 910.953,-2214.58"/>
<polygon fill="green" stroke="green" points="907.453,-2214.83 910.968,-2224.82 914.453,-2214.82 907.453,-2214.83"/>
<text text-anchor="middle" x="1872" y="-9.66415" font-family="Times,serif" font-size="14.00">Learn_Assert</text>
</g>
<!-- q19&#45;&gt;q10 -->
<g id="edge159" class="edge"><title>q19&#45;&gt;q10</title>
<path fill="none" stroke="green" d="M2865.4,-174.355C2889.97,-238.544 2978.37,-478.365 3010,-684.864 3031.47,-825.019 3042.86,-1871.56 3044.73,-2057.62"/>
<polygon fill="green" stroke="green" points="3041.23,-2057.73 3044.83,-2067.7 3048.23,-2057.66 3041.23,-2057.73"/>
<text text-anchor="middle" x="2966" y="-688.664" font-family="Times,serif" font-size="14.00">check_seq_next</text>
</g>
<!-- iq0 -->
<g id="node22" class="node"><title>iq0</title>
</g>
<!-- iq0&#45;&gt;q0 -->
<g id="edge1" class="edge"><title>iq0&#45;&gt;q0</title>
<path fill="none" stroke="blue" d="M409.12,-2113.84C499.751,-2110.8 799.212,-2105.16 874,-2159.86 891.679,-2172.8 900.489,-2196.42 904.844,-2215.17"/>
<polygon fill="blue" stroke="blue" points="901.417,-2215.88 906.833,-2224.98 908.277,-2214.49 901.417,-2215.88"/>
</g>
</g>
</svg>
