<?xml version="1.0" encoding="UTF-8" standalone="no"?>
<!DOCTYPE svg PUBLIC "-//W3C//DTD SVG 1.1//EN"
 "http://www.w3.org/Graphics/SVG/1.1/DTD/svg11.dtd">
<!-- Generated by graphviz version 2.34.0 (20141125.1709)
 -->
<!-- Title: finite_automaton Pages: 1 -->
<svg width="486pt" height="576pt"
 viewBox="0.00 0.00 486.47 576.00" xmlns="http://www.w3.org/2000/svg" xmlns:xlink="http://www.w3.org/1999/xlink">
<g id="graph0" class="graph" transform="scale(0.123407 0.123407) rotate(0) translate(4 4663.47)">
<title>finite_automaton</title>
<polygon fill="white" stroke="white" points="-4,4 -4,-4663.47 3938,-4663.47 3938,4 -4,4"/>
<!-- dom_edges -->
<g id="node1" class="node"><title>dom_edges</title>
<polygon fill="none" stroke="green" points="764,-2097.47 0,-2097.47 0,-2061.47 764,-2061.47 764,-2097.47"/>
<text text-anchor="middle" x="382" y="-2075.77" font-family="Times,serif" font-size="14.00">Dominating edges: chain_node, create_sll, init_back_link, reverse_dll, remove_fw_link, check_seq_next, check_seq_prev, Learn_Assert</text>
</g>
<!-- q1 -->
<g id="node2" class="node"><title>q1</title>
<ellipse fill="none" stroke="green" cx="382" cy="-2318.47" rx="18" ry="18"/>
<ellipse fill="none" stroke="green" cx="382" cy="-2318.47" rx="22" ry="22"/>
<text text-anchor="middle" x="382" y="-2314.77" font-family="Times,serif" font-size="14.00">D</text>
</g>
<!-- q0 -->
<g id="node3" class="node"><title>q0</title>
<ellipse fill="none" stroke="green" cx="910" cy="-2261.47" rx="18" ry="18"/>
<text text-anchor="middle" x="910" y="-2257.77" font-family="Times,serif" font-size="14.00">D</text>
</g>
<!-- q1&#45;&gt;q0 -->
<g id="edge10" class="edge"><title>q1&#45;&gt;q0</title>
<path fill="none" stroke="green" d="M400.526,-2330.45C469.324,-2375.85 724.453,-2528.96 874,-2410.47 892.657,-2395.69 902.342,-2328.63 906.475,-2289.69"/>
<polygon fill="green" stroke="green" points="909.98,-2289.83 907.497,-2279.53 903.015,-2289.13 909.98,-2289.83"/>
<text text-anchor="middle" x="828" y="-2451.27" font-family="Times,serif" font-size="14.00">chain_node</text>
</g>
<!-- q1&#45;&gt;q0 -->
<g id="edge11" class="edge"><title>q1&#45;&gt;q0</title>
<path fill="none" stroke="green" d="M403.748,-2322.4C492.258,-2338.93 835.487,-2400.71 874,-2372.47 899.636,-2353.68 906.982,-2316.06 908.835,-2289.86"/>
<polygon fill="green" stroke="green" points="912.337,-2289.91 909.322,-2279.75 905.345,-2289.57 912.337,-2289.91"/>
<text text-anchor="middle" x="828" y="-2383.27" font-family="Times,serif" font-size="14.00">create_sll</text>
</g>
<!-- q1&#45;&gt;q0 -->
<g id="edge12" class="edge"><title>q1&#45;&gt;q0</title>
<path fill="none" stroke="green" d="M403.961,-2320.52C492.588,-2329 833.852,-2359.75 874,-2334.47 889.709,-2324.58 898.525,-2305.47 903.379,-2289.28"/>
<polygon fill="green" stroke="green" points="906.874,-2289.75 906.029,-2279.19 900.103,-2287.97 906.874,-2289.75"/>
<text text-anchor="middle" x="828" y="-2347.27" font-family="Times,serif" font-size="14.00">init_back_link</text>
</g>
<!-- q1&#45;&gt;q0 -->
<g id="edge13" class="edge"><title>q1&#45;&gt;q0</title>
<path fill="none" stroke="green" d="M404.089,-2318.42C492.49,-2318.1 830.615,-2315.59 874,-2296.47 880.657,-2293.54 886.739,-2288.72 891.897,-2283.58"/>
<polygon fill="green" stroke="green" points="894.638,-2285.77 898.755,-2276.01 889.449,-2281.07 894.638,-2285.77"/>
<text text-anchor="middle" x="828" y="-2311.27" font-family="Times,serif" font-size="14.00">reverse_dll</text>
</g>
<!-- q1&#45;&gt;q0 -->
<g id="edge14" class="edge"><title>q1&#45;&gt;q0</title>
<path fill="none" stroke="green" d="M403.944,-2316.2C486.469,-2307.26 789.155,-2274.46 881.843,-2264.42"/>
<polygon fill="green" stroke="green" points="882.274,-2267.89 891.838,-2263.33 881.519,-2260.93 882.274,-2267.89"/>
<text text-anchor="middle" x="828" y="-2277.27" font-family="Times,serif" font-size="14.00">remove_fw_link</text>
</g>
<!-- q1&#45;&gt;q0 -->
<g id="edge15" class="edge"><title>q1&#45;&gt;q0</title>
<path fill="none" stroke="green" d="M403.587,-2313.34C462.238,-2299.01 635.423,-2258.77 782,-2245.47 822.722,-2241.78 834.047,-2236.77 874,-2245.47 877.501,-2246.24 881.071,-2247.38 884.527,-2248.71"/>
<polygon fill="green" stroke="green" points="883.254,-2251.98 893.816,-2252.81 886.08,-2245.57 883.254,-2251.98"/>
<text text-anchor="middle" x="828" y="-2249.27" font-family="Times,serif" font-size="14.00">check_seq_next</text>
</g>
<!-- q1&#45;&gt;q0 -->
<g id="edge16" class="edge"><title>q1&#45;&gt;q0</title>
<path fill="none" stroke="green" d="M403.033,-2311.79C460.914,-2292.89 633.711,-2239.24 782,-2221.47 822.599,-2216.61 836.765,-2204.58 874,-2221.47 881.799,-2225.01 888.543,-2231.24 893.973,-2237.75"/>
<polygon fill="green" stroke="green" points="891.327,-2240.05 900.127,-2245.95 896.927,-2235.85 891.327,-2240.05"/>
<text text-anchor="middle" x="828" y="-2225.27" font-family="Times,serif" font-size="14.00">check_seq_prev</text>
</g>
<!-- q1&#45;&gt;q0 -->
<g id="edge17" class="edge"><title>q1&#45;&gt;q0</title>
<path fill="none" stroke="green" d="M402.423,-2310.05C459.355,-2285.87 631.313,-2216.53 782,-2193.47 822.419,-2187.29 839.093,-2172.18 874,-2193.47 888.552,-2202.35 897.31,-2219.42 902.427,-2234.24"/>
<polygon fill="green" stroke="green" points="899.143,-2235.47 905.413,-2244.01 905.837,-2233.42 899.143,-2235.47"/>
<text text-anchor="middle" x="828" y="-2197.27" font-family="Times,serif" font-size="14.00">Learn_Assert</text>
</g>
<!-- q0&#45;&gt;q0 -->
<g id="edge2" class="edge"><title>q0&#45;&gt;q0</title>
<path fill="none" stroke="green" d="M907.881,-2279.63C907.555,-2289.01 908.261,-2297.47 910,-2297.47 911.06,-2297.47 911.736,-2294.33 912.029,-2289.75"/>
<polygon fill="green" stroke="green" points="915.53,-2289.66 912.119,-2279.63 908.53,-2289.59 915.53,-2289.66"/>
<text text-anchor="middle" x="910" y="-2301.27" font-family="Times,serif" font-size="14.00">chain_node</text>
</g>
<!-- q0&#45;&gt;q0 -->
<g id="edge4" class="edge"><title>q0&#45;&gt;q0</title>
<path fill="none" stroke="green" d="M906.509,-2279.17C904.581,-2296.47 905.744,-2315.47 910,-2315.47 913.424,-2315.47 914.847,-2303.17 914.267,-2289.35"/>
<polygon fill="green" stroke="green" points="917.741,-2288.88 913.491,-2279.17 910.762,-2289.41 917.741,-2288.88"/>
<text text-anchor="middle" x="910" y="-2319.27" font-family="Times,serif" font-size="14.00">init_back_link</text>
</g>
<!-- q0&#45;&gt;q0 -->
<g id="edge5" class="edge"><title>q0&#45;&gt;q0</title>
<path fill="none" stroke="green" d="M905.613,-2279.19C901.605,-2303.59 903.068,-2333.47 910,-2333.47 916.012,-2333.47 917.91,-2311 915.694,-2289.12"/>
<polygon fill="green" stroke="green" points="919.163,-2288.65 914.387,-2279.19 912.222,-2289.56 919.163,-2288.65"/>
<text text-anchor="middle" x="910" y="-2337.27" font-family="Times,serif" font-size="14.00">reverse_dll</text>
</g>
<!-- q0&#45;&gt;q0 -->
<g id="edge6" class="edge"><title>q0&#45;&gt;q0</title>
<path fill="none" stroke="green" d="M904.998,-2279.14C898.632,-2310.33 900.299,-2351.47 910,-2351.47 918.678,-2351.47 920.927,-2318.55 916.748,-2289.28"/>
<polygon fill="green" stroke="green" points="920.149,-2288.41 915.002,-2279.14 913.25,-2289.59 920.149,-2288.41"/>
<text text-anchor="middle" x="910" y="-2355.27" font-family="Times,serif" font-size="14.00">remove_fw_link</text>
</g>
<!-- q0&#45;&gt;q0 -->
<g id="edge7" class="edge"><title>q0&#45;&gt;q0</title>
<path fill="none" stroke="green" d="M904.63,-2278.75C895.655,-2316.54 897.445,-2369.47 910,-2369.47 921.476,-2369.47 923.958,-2325.25 917.446,-2288.79"/>
<polygon fill="green" stroke="green" points="920.823,-2287.84 915.37,-2278.75 913.968,-2289.26 920.823,-2287.84"/>
<text text-anchor="middle" x="910" y="-2373.27" font-family="Times,serif" font-size="14.00">check_seq_next</text>
</g>
<!-- q0&#45;&gt;q0 -->
<g id="edge8" class="edge"><title>q0&#45;&gt;q0</title>
<path fill="none" stroke="green" d="M904.312,-2278.65C892.695,-2322.87 894.591,-2387.47 910,-2387.47 924.296,-2387.47 926.961,-2331.87 917.995,-2288.53"/>
<polygon fill="green" stroke="green" points="921.371,-2287.59 915.688,-2278.65 914.555,-2289.18 921.371,-2287.59"/>
<text text-anchor="middle" x="910" y="-2391.27" font-family="Times,serif" font-size="14.00">check_seq_prev</text>
</g>
<!-- q0&#45;&gt;q0 -->
<g id="edge9" class="edge"><title>q0&#45;&gt;q0</title>
<path fill="none" stroke="green" d="M904.009,-2278.76C889.745,-2329.33 891.742,-2405.47 910,-2405.47 927.117,-2405.47 929.942,-2338.55 918.475,-2288.51"/>
<polygon fill="green" stroke="green" points="921.85,-2287.59 915.991,-2278.76 915.066,-2289.31 921.85,-2287.59"/>
<text text-anchor="middle" x="910" y="-2409.27" font-family="Times,serif" font-size="14.00">Learn_Assert</text>
</g>
<!-- q17 -->
<g id="node19" class="node"><title>q17</title>
<ellipse fill="none" stroke="green" cx="1102" cy="-158.474" rx="18" ry="18"/>
<text text-anchor="middle" x="1102" y="-154.774" font-family="Times,serif" font-size="14.00">D</text>
</g>
<!-- q0&#45;&gt;q17 -->
<g id="edge3" class="edge"><title>q0&#45;&gt;q17</title>
<path fill="none" stroke="green" d="M911.012,-2243.46C911.179,-2047.27 913.575,-314.257 946,-273.474 972.229,-240.483 1004.97,-276.659 1038,-250.474 1051.71,-239.606 1046.54,-230.185 1056,-215.474 1064.07,-202.924 1074.3,-189.794 1082.96,-179.304"/>
<polygon fill="green" stroke="green" points="1085.75,-181.425 1089.51,-171.518 1080.39,-176.922 1085.75,-181.425"/>
<text text-anchor="middle" x="992" y="-277.274" font-family="Times,serif" font-size="14.00">create_sll</text>
</g>
<!-- q2 -->
<g id="node4" class="node"><title>q2</title>
<ellipse fill="none" stroke="green" cx="3916" cy="-4448.47" rx="18" ry="18"/>
<text text-anchor="middle" x="3916" y="-4444.77" font-family="Times,serif" font-size="14.00">D</text>
</g>
<!-- q2&#45;&gt;q1 -->
<g id="edge25" class="edge"><title>q2&#45;&gt;q1</title>
<path fill="none" stroke="green" d="M3915.8,-4466.81C3916.13,-4497.41 3912.39,-4559.21 3880,-4596.47 3841.51,-4640.77 3815.68,-4644.47 3757,-4644.47 909,-4644.47 909,-4644.47 909,-4644.47 416.177,-4644.47 385.067,-2632.89 383.127,-2351.11"/>
<polygon fill="green" stroke="green" points="386.625,-2350.73 383.064,-2340.75 379.625,-2350.77 386.625,-2350.73"/>
<text text-anchor="middle" x="2528" y="-4648.27" font-family="Times,serif" font-size="14.00">Learn_Assert</text>
</g>
<!-- q2&#45;&gt;q0 -->
<g id="edge18" class="edge"><title>q2&#45;&gt;q0</title>
<path fill="none" stroke="green" d="M3914.61,-4466.85C3913.06,-4492.27 3906.49,-4538.01 3880,-4564.47 3839.62,-4604.82 3814.09,-4601.47 3757,-4601.47 1101,-4601.47 1101,-4601.47 1101,-4601.47 1030.18,-4601.47 990.304,-4619.73 946,-4564.47 908.625,-4517.86 910.533,-2549.91 910.949,-2289.76"/>
<polygon fill="green" stroke="green" points="914.449,-2289.62 910.965,-2279.62 907.449,-2289.61 914.449,-2289.62"/>
<text text-anchor="middle" x="2638" y="-4605.27" font-family="Times,serif" font-size="14.00">chain_node</text>
</g>
<!-- q2&#45;&gt;q0 -->
<g id="edge19" class="edge"><title>q2&#45;&gt;q0</title>
<path fill="none" stroke="green" d="M3909.94,-4465.55C3904.73,-4480.28 3895.19,-4501.07 3880,-4513.47 3835.77,-4549.57 3814.09,-4550.47 3757,-4550.47 1101,-4550.47 1101,-4550.47 1101,-4550.47 1030.18,-4550.47 990.314,-4568.72 946,-4513.47 909.482,-4467.94 910.639,-2547.41 910.958,-2289.91"/>
<polygon fill="green" stroke="green" points="914.459,-2289.54 910.972,-2279.54 907.459,-2289.53 914.459,-2289.54"/>
<text text-anchor="middle" x="2638" y="-4554.27" font-family="Times,serif" font-size="14.00">create_sll</text>
</g>
<!-- q2&#45;&gt;q0 -->
<g id="edge20" class="edge"><title>q2&#45;&gt;q0</title>
<path fill="none" stroke="green" d="M3899.83,-4456.9C3872.27,-4471.38 3811.77,-4499.47 3757,-4499.47 1101,-4499.47 1101,-4499.47 1101,-4499.47 1030.18,-4499.47 990.324,-4517.71 946,-4462.47 910.319,-4418 910.748,-2542.87 910.969,-2289.66"/>
<polygon fill="green" stroke="green" points="914.469,-2289.45 910.979,-2279.45 907.469,-2289.45 914.469,-2289.45"/>
<text text-anchor="middle" x="2638" y="-4503.27" font-family="Times,serif" font-size="14.00">init_back_link</text>
</g>
<!-- q2&#45;&gt;q0 -->
<g id="edge21" class="edge"><title>q2&#45;&gt;q0</title>
<path fill="none" stroke="green" d="M3897.93,-4448.47C3868.96,-4448.47 3808.3,-4448.47 3757,-4448.47 1101,-4448.47 1101,-4448.47 1101,-4448.47 1030.18,-4448.47 990.334,-4466.71 946,-4411.47 911.173,-4368.09 910.859,-2540.13 910.98,-2289.77"/>
<polygon fill="green" stroke="green" points="914.48,-2289.67 910.985,-2279.67 907.48,-2289.66 914.48,-2289.67"/>
<text text-anchor="middle" x="2638" y="-4452.27" font-family="Times,serif" font-size="14.00">reverse_dll</text>
</g>
<!-- q2&#45;&gt;q0 -->
<g id="edge22" class="edge"><title>q2&#45;&gt;q0</title>
<path fill="none" stroke="green" d="M3899.83,-4440.05C3872.27,-4425.57 3811.77,-4397.47 3757,-4397.47 1101,-4397.47 1101,-4397.47 1101,-4397.47 1030.18,-4397.47 990.345,-4415.7 946,-4360.47 912.025,-4318.16 910.973,-2537.13 910.991,-2289.85"/>
<polygon fill="green" stroke="green" points="914.491,-2289.55 910.993,-2279.55 907.491,-2289.55 914.491,-2289.55"/>
<text text-anchor="middle" x="2638" y="-4401.27" font-family="Times,serif" font-size="14.00">remove_fw_link</text>
</g>
<!-- q2&#45;&gt;q0 -->
<g id="edge23" class="edge"><title>q2&#45;&gt;q0</title>
<path fill="none" stroke="green" d="M3907.49,-4432.52C3901.45,-4421.15 3891.99,-4406.22 3880,-4396.47 3834.2,-4359.27 3816.01,-4346.47 3757,-4346.47 1101,-4346.47 1101,-4346.47 1101,-4346.47 1030.18,-4346.47 990.356,-4364.69 946,-4309.47 912.876,-4268.24 911.091,-2534.02 911.003,-2289.91"/>
<polygon fill="green" stroke="green" points="914.504,-2289.72 911.001,-2279.73 907.504,-2289.73 914.504,-2289.72"/>
<text text-anchor="middle" x="2638" y="-4350.27" font-family="Times,serif" font-size="14.00">check_seq_next</text>
</g>
<!-- q2&#45;&gt;q0 -->
<g id="edge24" class="edge"><title>q2&#45;&gt;q0</title>
<path fill="none" stroke="green" d="M3913.49,-4430.31C3910.68,-4407.49 3902.66,-4368.4 3880,-4344.47 3839.54,-4301.75 3815.84,-4295.47 3757,-4295.47 1101,-4295.47 1101,-4295.47 1101,-4295.47 1029.74,-4295.47 989.964,-4310.55 946,-4254.47 914.277,-4214.01 911.29,-2530.07 911.025,-2289.87"/>
<polygon fill="green" stroke="green" points="914.524,-2289.53 911.014,-2279.54 907.524,-2289.54 914.524,-2289.53"/>
<text text-anchor="middle" x="2638" y="-4299.27" font-family="Times,serif" font-size="14.00">check_seq_prev</text>
</g>
<!-- q3 -->
<g id="node5" class="node"><title>q3</title>
<ellipse fill="none" stroke="green" cx="3756" cy="-4135.47" rx="18" ry="18"/>
<text text-anchor="middle" x="3756" y="-4131.77" font-family="Times,serif" font-size="14.00">D</text>
</g>
<!-- q3&#45;&gt;q0 -->
<g id="edge26" class="edge"><title>q3&#45;&gt;q0</title>
<path fill="none" stroke="green" d="M3753.17,-4153.32C3750.06,-4173.94 3741.79,-4207.37 3720,-4225.47 3675.82,-4262.19 3650.44,-4249.47 3593,-4249.47 1101,-4249.47 1101,-4249.47 1101,-4249.47 1031.29,-4249.47 991.834,-4278 946,-4225.47 912.702,-4187.32 911.064,-2528.12 911,-2289.85"/>
<polygon fill="green" stroke="green" points="914.5,-2289.59 910.998,-2279.59 907.5,-2289.59 914.5,-2289.59"/>
<text text-anchor="middle" x="2528" y="-4253.27" font-family="Times,serif" font-size="14.00">chain_node</text>
</g>
<!-- q3&#45;&gt;q0 -->
<g id="edge27" class="edge"><title>q3&#45;&gt;q0</title>
<path fill="none" stroke="green" d="M3748.04,-4152.17C3742.26,-4163.9 3732.9,-4178.97 3720,-4187.47 3672.03,-4219.08 3650.44,-4211.47 3593,-4211.47 1101,-4211.47 1101,-4211.47 1101,-4211.47 1031.29,-4211.47 991.844,-4239.99 946,-4187.47 913.356,-4150.08 911.158,-2524.65 911.01,-2289.67"/>
<polygon fill="green" stroke="green" points="914.511,-2289.54 911.005,-2279.54 907.511,-2289.54 914.511,-2289.54"/>
<text text-anchor="middle" x="2528" y="-4215.27" font-family="Times,serif" font-size="14.00">create_sll</text>
</g>
<!-- q3&#45;&gt;q0 -->
<g id="edge28" class="edge"><title>q3&#45;&gt;q0</title>
<path fill="none" stroke="green" d="M3739.2,-4142.55C3733.27,-4145 3726.41,-4147.61 3720,-4149.47 3664.85,-4165.55 3650.44,-4173.47 3593,-4173.47 1101,-4173.47 1101,-4173.47 1101,-4173.47 1031.29,-4173.47 991.853,-4201.98 946,-4149.47 914.026,-4112.86 911.256,-2522.68 911.021,-2289.82"/>
<polygon fill="green" stroke="green" points="914.521,-2289.48 911.012,-2279.48 907.521,-2289.48 914.521,-2289.48"/>
<text text-anchor="middle" x="2528" y="-4177.27" font-family="Times,serif" font-size="14.00">init_back_link</text>
</g>
<!-- q3&#45;&gt;q0 -->
<g id="edge29" class="edge"><title>q3&#45;&gt;q0</title>
<path fill="none" stroke="green" d="M3737.97,-4135.47C3708.46,-4135.47 3645.88,-4135.47 3593,-4135.47 1101,-4135.47 1101,-4135.47 1101,-4135.47 1031.29,-4135.47 991.863,-4163.97 946,-4111.47 914.695,-4075.64 911.356,-2520.66 911.032,-2289.96"/>
<polygon fill="green" stroke="green" points="914.532,-2289.7 911.019,-2279.7 907.532,-2289.71 914.532,-2289.7"/>
<text text-anchor="middle" x="2528" y="-4139.27" font-family="Times,serif" font-size="14.00">reverse_dll</text>
</g>
<!-- q3&#45;&gt;q0 -->
<g id="edge30" class="edge"><title>q3&#45;&gt;q0</title>
<path fill="none" stroke="green" d="M3738.74,-4129.03C3709.88,-4118.19 3647.6,-4097.47 3593,-4097.47 1101,-4097.47 1101,-4097.47 1101,-4097.47 1031.29,-4097.47 991.874,-4125.96 946,-4073.47 915.347,-4038.4 911.454,-2516.91 911.044,-2289.73"/>
<polygon fill="green" stroke="green" points="914.544,-2289.61 911.026,-2279.62 907.544,-2289.62 914.544,-2289.61"/>
<text text-anchor="middle" x="2528" y="-4101.27" font-family="Times,serif" font-size="14.00">remove_fw_link</text>
</g>
<!-- q3&#45;&gt;q0 -->
<g id="edge31" class="edge"><title>q3&#45;&gt;q0</title>
<path fill="none" stroke="green" d="M3745.28,-4120.6C3739,-4112.1 3730.14,-4101.89 3720,-4095.47 3670.42,-4064.11 3651.67,-4059.47 3593,-4059.47 1101,-4059.47 1101,-4059.47 1101,-4059.47 1031.29,-4059.47 991.884,-4087.95 946,-4035.47 916.013,-4001.18 911.558,-2514.58 911.056,-2289.82"/>
<polygon fill="green" stroke="green" points="914.555,-2289.52 911.034,-2279.52 907.555,-2289.53 914.555,-2289.52"/>
<text text-anchor="middle" x="2528" y="-4063.27" font-family="Times,serif" font-size="14.00">check_seq_next</text>
</g>
<!-- q3&#45;&gt;q0 -->
<g id="edge33" class="edge"><title>q3&#45;&gt;q0</title>
<path fill="none" stroke="green" d="M3751.75,-4117.76C3747.53,-4099.76 3738.41,-4072.34 3720,-4056.47 3675.65,-4018.25 3651.55,-4021.47 3593,-4021.47 1101,-4021.47 1101,-4021.47 1101,-4021.47 1029.01,-4021.47 989.474,-4031.85 946,-3974.47 919.474,-3939.46 912.099,-2510.05 911.119,-2289.83"/>
<polygon fill="green" stroke="green" points="914.619,-2289.71 911.075,-2279.72 907.619,-2289.74 914.619,-2289.71"/>
<text text-anchor="middle" x="2528" y="-4025.27" font-family="Times,serif" font-size="14.00">Learn_Assert</text>
</g>
<!-- q3&#45;&gt;q2 -->
<g id="edge32" class="edge"><title>q3&#45;&gt;q2</title>
<path fill="none" stroke="green" d="M3771.11,-4145.94C3797.2,-4166.11 3852.77,-4213.12 3880,-4266.47 3905.56,-4316.56 3912.54,-4383.07 3914.39,-4420.25"/>
<polygon fill="green" stroke="green" points="3910.89,-4420.5 3914.8,-4430.35 3917.89,-4420.22 3910.89,-4420.5"/>
<text text-anchor="middle" x="3836" y="-4270.27" font-family="Times,serif" font-size="14.00">check_seq_prev</text>
</g>
<!-- q4 -->
<g id="node6" class="node"><title>q4</title>
<ellipse fill="none" stroke="green" cx="3592" cy="-3825.47" rx="18" ry="18"/>
<text text-anchor="middle" x="3592" y="-3821.77" font-family="Times,serif" font-size="14.00">D</text>
</g>
<!-- q4&#45;&gt;q0 -->
<g id="edge34" class="edge"><title>q4&#45;&gt;q0</title>
<path fill="none" stroke="green" d="M3590.61,-3843.85C3589.06,-3869.27 3582.49,-3915.01 3556,-3941.47 3515.62,-3981.82 3490.09,-3978.47 3433,-3978.47 1101,-3978.47 1101,-3978.47 1101,-3978.47 1030.18,-3978.47 990.46,-3996.6 946,-3941.47 918.986,-3907.98 912.033,-2508.23 911.113,-2289.96"/>
<polygon fill="green" stroke="green" points="914.611,-2289.65 911.07,-2279.66 907.612,-2289.67 914.611,-2289.65"/>
<text text-anchor="middle" x="2420" y="-3982.27" font-family="Times,serif" font-size="14.00">chain_node</text>
</g>
<!-- q4&#45;&gt;q0 -->
<g id="edge35" class="edge"><title>q4&#45;&gt;q0</title>
<path fill="none" stroke="green" d="M3585.94,-3842.55C3580.73,-3857.28 3571.19,-3878.07 3556,-3890.47 3511.77,-3926.57 3490.09,-3927.47 3433,-3927.47 1101,-3927.47 1101,-3927.47 1101,-3927.47 1030.18,-3927.47 990.478,-3945.59 946,-3890.47 919.822,-3858.03 912.175,-2503.57 911.131,-2289.76"/>
<polygon fill="green" stroke="green" points="914.63,-2289.64 911.082,-2279.66 907.63,-2289.67 914.63,-2289.64"/>
<text text-anchor="middle" x="2420" y="-3931.27" font-family="Times,serif" font-size="14.00">create_sll</text>
</g>
<!-- q4&#45;&gt;q0 -->
<g id="edge36" class="edge"><title>q4&#45;&gt;q0</title>
<path fill="none" stroke="green" d="M3575.83,-3833.9C3548.27,-3848.38 3487.77,-3876.47 3433,-3876.47 1101,-3876.47 1101,-3876.47 1101,-3876.47 1030.18,-3876.47 990.497,-3894.58 946,-3839.47 920.669,-3808.11 912.329,-2500.02 911.151,-2289.84"/>
<polygon fill="green" stroke="green" points="914.65,-2289.61 911.095,-2279.63 907.65,-2289.64 914.65,-2289.61"/>
<text text-anchor="middle" x="2420" y="-3880.27" font-family="Times,serif" font-size="14.00">init_back_link</text>
</g>
<!-- q4&#45;&gt;q0 -->
<g id="edge37" class="edge"><title>q4&#45;&gt;q0</title>
<path fill="none" stroke="green" d="M3573.93,-3825.47C3544.96,-3825.47 3484.3,-3825.47 3433,-3825.47 1101,-3825.47 1101,-3825.47 1101,-3825.47 1030.18,-3825.47 990.517,-3843.56 946,-3788.47 921.514,-3758.18 912.486,-2496.21 911.173,-2289.87"/>
<polygon fill="green" stroke="green" points="914.671,-2289.54 911.108,-2279.57 907.671,-2289.59 914.671,-2289.54"/>
<text text-anchor="middle" x="2420" y="-3829.27" font-family="Times,serif" font-size="14.00">reverse_dll</text>
</g>
<!-- q4&#45;&gt;q0 -->
<g id="edge39" class="edge"><title>q4&#45;&gt;q0</title>
<path fill="none" stroke="green" d="M3575.83,-3817.05C3548.27,-3802.57 3487.77,-3774.47 3433,-3774.47 1101,-3774.47 1101,-3774.47 1101,-3774.47 1030.18,-3774.47 990.539,-3792.54 946,-3737.47 922.345,-3708.23 912.639,-2490.92 911.194,-2289.55"/>
<polygon fill="green" stroke="green" points="914.693,-2289.46 911.122,-2279.48 907.693,-2289.51 914.693,-2289.46"/>
<text text-anchor="middle" x="2420" y="-3778.27" font-family="Times,serif" font-size="14.00">check_seq_next</text>
</g>
<!-- q4&#45;&gt;q0 -->
<g id="edge40" class="edge"><title>q4&#45;&gt;q0</title>
<path fill="none" stroke="green" d="M3583.49,-3809.52C3577.45,-3798.15 3567.99,-3783.22 3556,-3773.47 3510.2,-3736.27 3492.01,-3723.47 3433,-3723.47 1101,-3723.47 1101,-3723.47 1101,-3723.47 1030.18,-3723.47 990.562,-3741.52 946,-3686.47 923.197,-3658.3 912.815,-2487.84 911.22,-2289.8"/>
<polygon fill="green" stroke="green" points="914.718,-2289.59 911.139,-2279.62 907.719,-2289.65 914.718,-2289.59"/>
<text text-anchor="middle" x="2420" y="-3727.27" font-family="Times,serif" font-size="14.00">check_seq_prev</text>
</g>
<!-- q4&#45;&gt;q0 -->
<g id="edge41" class="edge"><title>q4&#45;&gt;q0</title>
<path fill="none" stroke="green" d="M3589.49,-3807.31C3586.68,-3784.49 3578.66,-3745.4 3556,-3721.47 3515.54,-3678.75 3491.84,-3672.47 3433,-3672.47 1101,-3672.47 1101,-3672.47 1101,-3672.47 1029.74,-3672.47 990.187,-3687.38 946,-3631.47 924.438,-3604.19 913.065,-2483.71 911.257,-2289.89"/>
<polygon fill="green" stroke="green" points="914.755,-2289.63 911.162,-2279.67 907.755,-2289.7 914.755,-2289.63"/>
<text text-anchor="middle" x="2420" y="-3676.27" font-family="Times,serif" font-size="14.00">Learn_Assert</text>
</g>
<!-- q4&#45;&gt;q3 -->
<g id="edge38" class="edge"><title>q4&#45;&gt;q3</title>
<path fill="none" stroke="green" d="M3605.59,-3838.08C3631.15,-3864.38 3689.26,-3928.04 3720,-3992.47 3737.94,-4030.07 3747.22,-4077.76 3751.6,-4107.45"/>
<polygon fill="green" stroke="green" points="3748.16,-4108.1 3753,-4117.52 3755.09,-4107.13 3748.16,-4108.1"/>
<text text-anchor="middle" x="3674" y="-3996.27" font-family="Times,serif" font-size="14.00">remove_fw_link</text>
</g>
<!-- q5 -->
<g id="node7" class="node"><title>q5</title>
<ellipse fill="none" stroke="green" cx="3432" cy="-3512.47" rx="18" ry="18"/>
<text text-anchor="middle" x="3432" y="-3508.77" font-family="Times,serif" font-size="14.00">D</text>
</g>
<!-- q5&#45;&gt;q0 -->
<g id="edge42" class="edge"><title>q5&#45;&gt;q0</title>
<path fill="none" stroke="green" d="M3429.15,-3530.3C3426.03,-3550.9 3417.74,-3584.3 3396,-3602.47 3353.27,-3638.2 3328.7,-3626.47 3273,-3626.47 1101,-3626.47 1101,-3626.47 1101,-3626.47 1031.29,-3626.47 992.051,-3654.81 946,-3602.47 923.527,-3576.94 912.916,-2480.35 911.239,-2289.61"/>
<polygon fill="green" stroke="green" points="914.738,-2289.51 911.151,-2279.54 907.738,-2289.57 914.738,-2289.51"/>
<text text-anchor="middle" x="2312" y="-3630.27" font-family="Times,serif" font-size="14.00">chain_node</text>
</g>
<!-- q5&#45;&gt;q0 -->
<g id="edge43" class="edge"><title>q5&#45;&gt;q0</title>
<path fill="none" stroke="green" d="M3424.02,-3529.14C3418.24,-3540.87 3408.88,-3555.93 3396,-3564.47 3349.58,-3595.25 3328.7,-3588.47 3273,-3588.47 1101,-3588.47 1101,-3588.47 1101,-3588.47 1031.29,-3588.47 992.071,-3616.79 946,-3564.47 924.188,-3539.7 913.059,-2477.45 911.261,-2289.68"/>
<polygon fill="green" stroke="green" points="914.76,-2289.49 911.165,-2279.52 907.76,-2289.55 914.76,-2289.49"/>
<text text-anchor="middle" x="2312" y="-3592.27" font-family="Times,serif" font-size="14.00">create_sll</text>
</g>
<!-- q5&#45;&gt;q0 -->
<g id="edge44" class="edge"><title>q5&#45;&gt;q0</title>
<path fill="none" stroke="green" d="M3415.19,-3519.53C3409.26,-3521.98 3402.4,-3524.59 3396,-3526.47 3342.57,-3542.22 3328.7,-3550.47 3273,-3550.47 1101,-3550.47 1101,-3550.47 1101,-3550.47 1031.29,-3550.47 992.092,-3578.77 946,-3526.47 924.846,-3502.47 913.206,-2474.34 911.285,-2289.71"/>
<polygon fill="green" stroke="green" points="914.782,-2289.43 911.179,-2279.47 907.783,-2289.51 914.782,-2289.43"/>
<text text-anchor="middle" x="2312" y="-3554.27" font-family="Times,serif" font-size="14.00">init_back_link</text>
</g>
<!-- q5&#45;&gt;q0 -->
<g id="edge45" class="edge"><title>q5&#45;&gt;q0</title>
<path fill="none" stroke="green" d="M3413.93,-3512.47C3384.96,-3512.47 3324.3,-3512.47 3273,-3512.47 1101,-3512.47 1101,-3512.47 1101,-3512.47 1031.29,-3512.47 992.115,-3540.75 946,-3488.47 905.049,-3442.05 909.604,-2468.84 910.793,-2289.69"/>
<polygon fill="green" stroke="green" points="914.294,-2289.52 910.863,-2279.49 907.294,-2289.47 914.294,-2289.52"/>
<text text-anchor="middle" x="2312" y="-3516.27" font-family="Times,serif" font-size="14.00">reverse_dll</text>
</g>
<!-- q5&#45;&gt;q0 -->
<g id="edge46" class="edge"><title>q5&#45;&gt;q0</title>
<path fill="none" stroke="green" d="M3415.15,-3506.03C3387.03,-3495.19 3326.32,-3474.47 3273,-3474.47 1101,-3474.47 1101,-3474.47 1101,-3474.47 1031.29,-3474.47 992.138,-3502.73 946,-3450.47 906.38,-3405.6 909.82,-2466.4 910.819,-2289.92"/>
<polygon fill="green" stroke="green" points="914.319,-2289.88 910.878,-2279.85 907.319,-2289.83 914.319,-2289.88"/>
<text text-anchor="middle" x="2312" y="-3478.27" font-family="Times,serif" font-size="14.00">remove_fw_link</text>
</g>
<!-- q5&#45;&gt;q0 -->
<g id="edge48" class="edge"><title>q5&#45;&gt;q0</title>
<path fill="none" stroke="green" d="M3421.26,-3497.63C3414.98,-3489.14 3406.11,-3478.93 3396,-3472.47 3347.99,-3441.82 3329.96,-3436.47 3273,-3436.47 1101,-3436.47 1101,-3436.47 1101,-3436.47 1031.29,-3436.47 992.164,-3464.71 946,-3412.47 907.683,-3369.12 910.046,-2462.67 910.848,-2289.81"/>
<polygon fill="green" stroke="green" points="914.348,-2289.74 910.897,-2279.72 907.348,-2289.7 914.348,-2289.74"/>
<text text-anchor="middle" x="2312" y="-3440.27" font-family="Times,serif" font-size="14.00">check_seq_prev</text>
</g>
<!-- q5&#45;&gt;q0 -->
<g id="edge49" class="edge"><title>q5&#45;&gt;q0</title>
<path fill="none" stroke="green" d="M3427.73,-3494.79C3423.49,-3476.82 3414.34,-3449.42 3396,-3433.47 3353.1,-3396.19 3329.84,-3398.47 3273,-3398.47 1101,-3398.47 1101,-3398.47 1101,-3398.47 1029.01,-3398.47 989.808,-3408.6 946,-3351.47 912.757,-3308.13 911.007,-2456.87 910.984,-2289.79"/>
<polygon fill="green" stroke="green" points="914.484,-2289.58 910.985,-2279.58 907.484,-2289.58 914.484,-2289.58"/>
<text text-anchor="middle" x="2312" y="-3402.27" font-family="Times,serif" font-size="14.00">Learn_Assert</text>
</g>
<!-- q5&#45;&gt;q4 -->
<g id="edge47" class="edge"><title>q5&#45;&gt;q4</title>
<path fill="none" stroke="green" d="M3447.11,-3522.94C3473.2,-3543.11 3528.77,-3590.12 3556,-3643.47 3581.56,-3693.56 3588.54,-3760.07 3590.39,-3797.25"/>
<polygon fill="green" stroke="green" points="3586.89,-3797.5 3590.8,-3807.35 3593.89,-3797.22 3586.89,-3797.5"/>
<text text-anchor="middle" x="3512" y="-3647.27" font-family="Times,serif" font-size="14.00">check_seq_next</text>
</g>
<!-- q6 -->
<g id="node8" class="node"><title>q6</title>
<ellipse fill="none" stroke="green" cx="3272" cy="-3202.47" rx="18" ry="18"/>
<text text-anchor="middle" x="3272" y="-3198.77" font-family="Times,serif" font-size="14.00">D</text>
</g>
<!-- q6&#45;&gt;q0 -->
<g id="edge50" class="edge"><title>q6&#45;&gt;q0</title>
<path fill="none" stroke="green" d="M3270.34,-3220.59C3268.47,-3245.69 3261.52,-3291.07 3236,-3318.47 3204.56,-3352.24 3185.14,-3355.47 3139,-3355.47 1101,-3355.47 1101,-3355.47 1101,-3355.47 1030.18,-3355.47 990.797,-3373.33 946,-3318.47 912.546,-3277.51 910.96,-2453.72 910.977,-2289.72"/>
<polygon fill="green" stroke="green" points="914.477,-2289.48 910.98,-2279.48 907.477,-2289.48 914.477,-2289.48"/>
<text text-anchor="middle" x="2202" y="-3359.27" font-family="Times,serif" font-size="14.00">chain_node</text>
</g>
<!-- q6&#45;&gt;q0 -->
<g id="edge51" class="edge"><title>q6&#45;&gt;q0</title>
<path fill="none" stroke="green" d="M3265.61,-3219.58C3260.23,-3234.11 3250.64,-3254.62 3236,-3267.47 3201.33,-3297.92 3185.14,-3304.47 3139,-3304.47 1101,-3304.47 1101,-3304.47 1101,-3304.47 1030.18,-3304.47 990.843,-3322.29 946,-3267.47 914.225,-3228.63 911.293,-2449.33 911.026,-2289.84"/>
<polygon fill="green" stroke="green" points="914.526,-2289.44 911.011,-2279.45 907.526,-2289.45 914.526,-2289.44"/>
<text text-anchor="middle" x="2202" y="-3308.27" font-family="Times,serif" font-size="14.00">create_sll</text>
</g>
<!-- q6&#45;&gt;q0 -->
<g id="edge52" class="edge"><title>q6&#45;&gt;q0</title>
<path fill="none" stroke="green" d="M3256.66,-3212.07C3233.15,-3226.84 3184.45,-3253.47 3139,-3253.47 1101,-3253.47 1101,-3253.47 1101,-3253.47 1030.18,-3253.47 990.894,-3271.25 946,-3216.47 915.896,-3179.74 911.643,-2444.52 911.081,-2289.87"/>
<polygon fill="green" stroke="green" points="914.581,-2289.74 911.047,-2279.75 907.581,-2289.77 914.581,-2289.74"/>
<text text-anchor="middle" x="2202" y="-3257.27" font-family="Times,serif" font-size="14.00">init_back_link</text>
</g>
<!-- q6&#45;&gt;q0 -->
<g id="edge53" class="edge"><title>q6&#45;&gt;q0</title>
<path fill="none" stroke="green" d="M3253.91,-3202.47C3228.75,-3202.47 3180.25,-3202.47 3139,-3202.47 1101,-3202.47 1101,-3202.47 1101,-3202.47 1030.18,-3202.47 990.95,-3220.21 946,-3165.47 917.555,-3130.84 912.009,-2439.1 911.142,-2289.74"/>
<polygon fill="green" stroke="green" points="914.641,-2289.55 911.085,-2279.57 907.641,-2289.59 914.641,-2289.55"/>
<text text-anchor="middle" x="2202" y="-3206.27" font-family="Times,serif" font-size="14.00">reverse_dll</text>
</g>
<!-- q6&#45;&gt;q0 -->
<g id="edge54" class="edge"><title>q6&#45;&gt;q0</title>
<path fill="none" stroke="green" d="M3256.66,-3192.88C3233.15,-3178.11 3184.45,-3151.47 3139,-3151.47 1101,-3151.47 1101,-3151.47 1101,-3151.47 1030.18,-3151.47 991.014,-3169.15 946,-3114.47 919.232,-3081.96 912.405,-2434.56 911.211,-2289.95"/>
<polygon fill="green" stroke="green" points="914.709,-2289.67 911.129,-2279.7 907.71,-2289.72 914.709,-2289.67"/>
<text text-anchor="middle" x="2202" y="-3155.27" font-family="Times,serif" font-size="14.00">remove_fw_link</text>
</g>
<!-- q6&#45;&gt;q0 -->
<g id="edge55" class="edge"><title>q6&#45;&gt;q0</title>
<path fill="none" stroke="green" d="M3262.52,-3186.59C3256.25,-3175.95 3246.93,-3162.18 3236,-3152.47 3199.42,-3120 3187.92,-3100.47 3139,-3100.47 1101,-3100.47 1101,-3100.47 1101,-3100.47 1031.07,-3100.47 992.145,-3126.01 946,-3073.47 919.623,-3043.44 912.519,-2430.3 911.235,-2289.93"/>
<polygon fill="green" stroke="green" points="914.732,-2289.56 911.143,-2279.59 907.732,-2289.62 914.732,-2289.56"/>
<text text-anchor="middle" x="2202" y="-3104.27" font-family="Times,serif" font-size="14.00">check_seq_next</text>
</g>
<!-- q6&#45;&gt;q0 -->
<g id="edge57" class="edge"><title>q6&#45;&gt;q0</title>
<path fill="none" stroke="green" d="M3268.8,-3184.45C3265.29,-3162.57 3256.59,-3125.62 3236,-3101.47 3204.26,-3064.26 3187.92,-3049.47 3139,-3049.47 2311,-3049.47 2311,-3049.47 2311,-3049.47 2116.28,-3049.47 2067.72,-3059.47 1873,-3059.47 1101,-3059.47 1101,-3059.47 1101,-3059.47 1030.57,-3059.47 991.556,-3080.19 946,-3026.47 921.744,-2997.87 913.055,-2425.3 911.336,-2289.96"/>
<polygon fill="green" stroke="green" points="914.832,-2289.56 911.208,-2279.61 907.832,-2289.65 914.832,-2289.56"/>
<text text-anchor="middle" x="2202" y="-3055.27" font-family="Times,serif" font-size="14.00">Learn_Assert</text>
</g>
<!-- q6&#45;&gt;q5 -->
<g id="edge56" class="edge"><title>q6&#45;&gt;q5</title>
<path fill="none" stroke="green" d="M3285.18,-3215.16C3309.89,-3241.61 3366.1,-3305.54 3396,-3369.47 3413.65,-3407.21 3423.01,-3454.86 3427.48,-3484.5"/>
<polygon fill="green" stroke="green" points="3424.04,-3485.15 3428.92,-3494.56 3430.97,-3484.16 3424.04,-3485.15"/>
<text text-anchor="middle" x="3352" y="-3373.27" font-family="Times,serif" font-size="14.00">check_seq_prev</text>
</g>
<!-- q7 -->
<g id="node9" class="node"><title>q7</title>
<ellipse fill="none" stroke="green" cx="3138" cy="-2889.47" rx="18" ry="18"/>
<text text-anchor="middle" x="3138" y="-2885.77" font-family="Times,serif" font-size="14.00">D</text>
</g>
<!-- q7&#45;&gt;q0 -->
<g id="edge58" class="edge"><title>q7&#45;&gt;q0</title>
<path fill="none" stroke="green" d="M3135.15,-2907.3C3132.03,-2927.9 3123.74,-2961.3 3102,-2979.47 3059.27,-3015.2 3034.7,-3003.47 2979,-3003.47 2311,-3003.47 2311,-3003.47 2311,-3003.47 2116.17,-3003.47 2067.83,-3021.47 1873,-3021.47 1101,-3021.47 1101,-3021.47 1101,-3021.47 1031.29,-3021.47 992.609,-3049.31 946,-2997.47 921.926,-2970.7 913.124,-2421.62 911.353,-2289.76"/>
<polygon fill="green" stroke="green" points="914.851,-2289.6 911.22,-2279.65 907.852,-2289.7 914.851,-2289.6"/>
<text text-anchor="middle" x="2092" y="-3019.27" font-family="Times,serif" font-size="14.00">chain_node</text>
</g>
<!-- q7&#45;&gt;q0 -->
<g id="edge59" class="edge"><title>q7&#45;&gt;q0</title>
<path fill="none" stroke="green" d="M3130.02,-2906.14C3124.24,-2917.87 3114.88,-2932.93 3102,-2941.47 3055.58,-2972.25 3034.7,-2965.47 2979,-2965.47 2311,-2965.47 2311,-2965.47 2311,-2965.47 2116.17,-2965.47 2067.83,-2983.47 1873,-2983.47 1101,-2983.47 1101,-2983.47 1101,-2983.47 1031.29,-2983.47 992.676,-3011.25 946,-2959.47 923.23,-2934.22 913.498,-2417.77 911.432,-2289.91"/>
<polygon fill="green" stroke="green" points="914.929,-2289.69 911.27,-2279.75 907.93,-2289.8 914.929,-2289.69"/>
<text text-anchor="middle" x="2092" y="-2981.27" font-family="Times,serif" font-size="14.00">create_sll</text>
</g>
<!-- q7&#45;&gt;q0 -->
<g id="edge60" class="edge"><title>q7&#45;&gt;q0</title>
<path fill="none" stroke="green" d="M3121.19,-2896.53C3115.26,-2898.98 3108.4,-2901.59 3102,-2903.47 3048.57,-2919.22 3034.7,-2927.47 2979,-2927.47 2311,-2927.47 2311,-2927.47 2311,-2927.47 2116.17,-2927.47 2067.83,-2945.47 1873,-2945.47 1101,-2945.47 1101,-2945.47 1101,-2945.47 1031.29,-2945.47 992.751,-2973.18 946,-2921.47 924.524,-2897.72 913.887,-2413.41 911.517,-2289.93"/>
<polygon fill="green" stroke="green" points="915.013,-2289.69 911.325,-2279.76 908.015,-2289.82 915.013,-2289.69"/>
<text text-anchor="middle" x="2092" y="-2943.27" font-family="Times,serif" font-size="14.00">init_back_link</text>
</g>
<!-- q7&#45;&gt;q0 -->
<g id="edge62" class="edge"><title>q7&#45;&gt;q0</title>
<path fill="none" stroke="green" d="M3119.93,-2889.47C3090.96,-2889.47 3030.3,-2889.47 2979,-2889.47 2311,-2889.47 2311,-2889.47 2311,-2889.47 2116.17,-2889.47 2067.83,-2907.47 1873,-2907.47 1101,-2907.47 1101,-2907.47 1101,-2907.47 1031.29,-2907.47 992.834,-2935.11 946,-2883.47 925.807,-2861.21 914.291,-2408.56 911.61,-2289.8"/>
<polygon fill="green" stroke="green" points="915.106,-2289.6 911.385,-2279.68 908.108,-2289.75 915.106,-2289.6"/>
<text text-anchor="middle" x="2092" y="-2905.27" font-family="Times,serif" font-size="14.00">remove_fw_link</text>
</g>
<!-- q7&#45;&gt;q0 -->
<g id="edge63" class="edge"><title>q7&#45;&gt;q0</title>
<path fill="none" stroke="green" d="M3121.15,-2883.03C3093.03,-2872.19 3032.32,-2851.47 2979,-2851.47 2311,-2851.47 2311,-2851.47 2311,-2851.47 2116.17,-2851.47 2067.83,-2869.47 1873,-2869.47 1101,-2869.47 1101,-2869.47 1101,-2869.47 1031.29,-2869.47 992.928,-2897.02 946,-2845.47 908.323,-2804.09 909.579,-2401.06 910.657,-2289.8"/>
<polygon fill="green" stroke="green" points="914.158,-2289.71 910.762,-2279.68 907.158,-2289.64 914.158,-2289.71"/>
<text text-anchor="middle" x="2092" y="-2867.27" font-family="Times,serif" font-size="14.00">check_seq_next</text>
</g>
<!-- q7&#45;&gt;q0 -->
<g id="edge64" class="edge"><title>q7&#45;&gt;q0</title>
<path fill="none" stroke="green" d="M3127.26,-2874.63C3120.98,-2866.14 3112.11,-2855.93 3102,-2849.47 3053.99,-2818.82 3035.96,-2813.47 2979,-2813.47 2201,-2813.47 2201,-2813.47 2201,-2813.47 2055,-2813.47 2019,-2831.47 1873,-2831.47 1101,-2831.47 1101,-2831.47 1101,-2831.47 1031.29,-2831.47 993.035,-2858.92 946,-2807.47 910.911,-2769.09 910.243,-2396.8 910.783,-2289.99"/>
<polygon fill="green" stroke="green" points="914.285,-2289.69 910.843,-2279.67 907.285,-2289.65 914.285,-2289.69"/>
<text text-anchor="middle" x="2092" y="-2824.27" font-family="Times,serif" font-size="14.00">check_seq_prev</text>
</g>
<!-- q7&#45;&gt;q0 -->
<g id="edge65" class="edge"><title>q7&#45;&gt;q0</title>
<path fill="none" stroke="green" d="M3133.73,-2871.79C3129.49,-2853.82 3120.34,-2826.42 3102,-2810.47 3059.1,-2773.19 3035.84,-2775.47 2979,-2775.47 2201,-2775.47 2201,-2775.47 2201,-2775.47 2055,-2775.47 2019,-2793.47 1873,-2793.47 1101,-2793.47 1101,-2793.47 1101,-2793.47 1029.01,-2793.47 990.94,-2802.71 946,-2746.47 917.426,-2710.72 912.147,-2387.48 911.2,-2289.5"/>
<polygon fill="green" stroke="green" points="914.7,-2289.42 911.111,-2279.46 907.7,-2289.49 914.7,-2289.42"/>
<text text-anchor="middle" x="2092" y="-2786.27" font-family="Times,serif" font-size="14.00">Learn_Assert</text>
</g>
<!-- q7&#45;&gt;q6 -->
<g id="edge61" class="edge"><title>q7&#45;&gt;q6</title>
<path fill="none" stroke="green" d="M3151.37,-2901.98C3172.33,-2923.94 3214.61,-2971.76 3236,-3020.47 3258.54,-3071.82 3266.61,-3137.62 3269.47,-3174.38"/>
<polygon fill="green" stroke="green" points="3265.98,-3174.65 3270.17,-3184.38 3272.96,-3174.16 3265.98,-3174.65"/>
<text text-anchor="middle" x="3205" y="-3024.27" font-family="Times,serif" font-size="14.00">reverse_dll</text>
</g>
<!-- q8 -->
<g id="node10" class="node"><title>q8</title>
<ellipse fill="none" stroke="green" cx="2978" cy="-2597.47" rx="18" ry="18"/>
<text text-anchor="middle" x="2978" y="-2593.77" font-family="Times,serif" font-size="14.00">D</text>
</g>
<!-- q8&#45;&gt;q0 -->
<g id="edge66" class="edge"><title>q8&#45;&gt;q0</title>
<path fill="none" stroke="green" d="M2976.99,-2615.79C2975.91,-2641.57 2969.93,-2688.22 2942,-2713.47 2900.69,-2750.83 2874.7,-2737.47 2819,-2737.47 2311,-2737.47 2311,-2737.47 2311,-2737.47 2116.25,-2737.47 2067.75,-2750.47 1873,-2750.47 1101,-2750.47 1101,-2750.47 1101,-2750.47 1030.18,-2750.47 991.998,-2767.33 946,-2713.47 918.495,-2681.27 912.5,-2383.73 911.288,-2289.77"/>
<polygon fill="green" stroke="green" points="914.785,-2289.55 911.165,-2279.59 907.786,-2289.63 914.785,-2289.55"/>
<text text-anchor="middle" x="1982" y="-2753.27" font-family="Times,serif" font-size="14.00">chain_node</text>
</g>
<!-- q8&#45;&gt;q0 -->
<g id="edge67" class="edge"><title>q8&#45;&gt;q0</title>
<path fill="none" stroke="green" d="M2971.94,-2614.55C2966.73,-2629.28 2957.19,-2650.07 2942,-2662.47 2897.77,-2698.57 2876.09,-2699.47 2819,-2699.47 1101,-2699.47 1101,-2699.47 1101,-2699.47 1030.18,-2699.47 992.261,-2716.1 946,-2662.47 921.733,-2634.34 913.631,-2376.24 911.583,-2289.65"/>
<polygon fill="green" stroke="green" points="915.079,-2289.43 911.353,-2279.51 908.081,-2289.59 915.079,-2289.43"/>
<text text-anchor="middle" x="1982" y="-2703.27" font-family="Times,serif" font-size="14.00">create_sll</text>
</g>
<!-- q8&#45;&gt;q0 -->
<g id="edge68" class="edge"><title>q8&#45;&gt;q0</title>
<path fill="none" stroke="green" d="M2961.83,-2605.9C2934.27,-2620.38 2873.77,-2648.47 2819,-2648.47 1101,-2648.47 1101,-2648.47 1101,-2648.47 1030.18,-2648.47 992.598,-2664.81 946,-2611.47 924.991,-2587.43 914.948,-2369.03 911.976,-2289.92"/>
<polygon fill="green" stroke="green" points="915.466,-2289.58 911.604,-2279.72 908.471,-2289.84 915.466,-2289.58"/>
<text text-anchor="middle" x="1982" y="-2652.27" font-family="Times,serif" font-size="14.00">init_back_link</text>
</g>
<!-- q8&#45;&gt;q0 -->
<g id="edge69" class="edge"><title>q8&#45;&gt;q0</title>
<path fill="none" stroke="green" d="M2959.93,-2597.47C2930.96,-2597.47 2870.3,-2597.47 2819,-2597.47 1101,-2597.47 1101,-2597.47 1101,-2597.47 1030.18,-2597.47 993.046,-2613.42 946,-2560.47 910.812,-2520.88 909.405,-2356.51 910.344,-2289.8"/>
<polygon fill="green" stroke="green" points="913.847,-2289.66 910.518,-2279.6 906.848,-2289.54 913.847,-2289.66"/>
<text text-anchor="middle" x="1982" y="-2601.27" font-family="Times,serif" font-size="14.00">reverse_dll</text>
</g>
<!-- q8&#45;&gt;q0 -->
<g id="edge70" class="edge"><title>q8&#45;&gt;q0</title>
<path fill="none" stroke="green" d="M2961.83,-2589.05C2934.27,-2574.57 2873.77,-2546.47 2819,-2546.47 1101,-2546.47 1101,-2546.47 1101,-2546.47 1031.29,-2546.47 994.789,-2572.26 946,-2522.47 914.155,-2489.97 910.671,-2350.22 910.698,-2289.65"/>
<polygon fill="green" stroke="green" points="914.198,-2289.65 910.735,-2279.64 907.198,-2289.63 914.198,-2289.65"/>
<text text-anchor="middle" x="1982" y="-2550.27" font-family="Times,serif" font-size="14.00">remove_fw_link</text>
</g>
<!-- q8&#45;&gt;q0 -->
<g id="edge71" class="edge"><title>q8&#45;&gt;q0</title>
<path fill="none" stroke="green" d="M2969.49,-2581.52C2963.45,-2570.15 2953.99,-2555.22 2942,-2545.47 2896.2,-2508.27 2878.01,-2495.47 2819,-2495.47 2091,-2495.47 2091,-2495.47 2091,-2495.47 1896.25,-2495.47 1847.75,-2508.47 1653,-2508.47 1101,-2508.47 1101,-2508.47 1101,-2508.47 1031.29,-2508.47 995.343,-2533.72 946,-2484.47 919.14,-2457.67 912.889,-2343.81 911.437,-2289.94"/>
<polygon fill="green" stroke="green" points="914.931,-2289.62 911.2,-2279.71 907.933,-2289.79 914.931,-2289.62"/>
<text text-anchor="middle" x="1982" y="-2502.27" font-family="Times,serif" font-size="14.00">check_seq_next</text>
</g>
<!-- q8&#45;&gt;q0 -->
<g id="edge73" class="edge"><title>q8&#45;&gt;q0</title>
<path fill="none" stroke="green" d="M2975.49,-2579.31C2972.68,-2556.49 2964.66,-2517.4 2942,-2493.47 2901.54,-2450.75 2877.84,-2444.47 2819,-2444.47 2091,-2444.47 2091,-2444.47 2091,-2444.47 1895.99,-2444.47 1848.01,-2470.47 1653,-2470.47 1101,-2470.47 1101,-2470.47 1101,-2470.47 1030.47,-2470.47 995.406,-2486.8 946,-2436.47 925.898,-2416 916.563,-2333.54 912.937,-2289.51"/>
<polygon fill="green" stroke="green" points="916.42,-2289.16 912.154,-2279.46 909.441,-2289.7 916.42,-2289.16"/>
<text text-anchor="middle" x="1982" y="-2454.27" font-family="Times,serif" font-size="14.00">Learn_Assert</text>
</g>
<!-- q8&#45;&gt;q7 -->
<g id="edge72" class="edge"><title>q8&#45;&gt;q7</title>
<path fill="none" stroke="green" d="M2992.01,-2609.22C3017.23,-2632.73 3072.82,-2688.31 3102,-2746.47 3120.68,-2783.71 3129.76,-2831.49 3133.9,-2861.3"/>
<polygon fill="green" stroke="green" points="3130.45,-2861.95 3135.2,-2871.42 3137.39,-2861.05 3130.45,-2861.95"/>
<text text-anchor="middle" x="3058" y="-2750.27" font-family="Times,serif" font-size="14.00">check_seq_prev</text>
</g>
<!-- q9 -->
<g id="node11" class="node"><title>q9</title>
<ellipse fill="none" stroke="green" cx="2818" cy="-2284.47" rx="18" ry="18"/>
<text text-anchor="middle" x="2818" y="-2280.77" font-family="Times,serif" font-size="14.00">D</text>
</g>
<!-- q9&#45;&gt;q0 -->
<g id="edge74" class="edge"><title>q9&#45;&gt;q0</title>
<path fill="none" stroke="green" d="M2815.23,-2302.4C2812.19,-2323.1 2803.98,-2356.59 2782,-2374.47 2732.02,-2415.15 2703.44,-2398.47 2639,-2398.47 2091,-2398.47 2091,-2398.47 2091,-2398.47 1895.75,-2398.47 1848.25,-2432.47 1653,-2432.47 1101,-2432.47 1101,-2432.47 1101,-2432.47 1031.29,-2432.47 997.227,-2455.75 946,-2408.47 928.848,-2392.64 918.631,-2327.8 913.994,-2289.73"/>
<polygon fill="green" stroke="green" points="917.414,-2288.84 912.783,-2279.31 910.461,-2289.65 917.414,-2288.84"/>
<text text-anchor="middle" x="1872" y="-2425.27" font-family="Times,serif" font-size="14.00">chain_node</text>
</g>
<!-- q9&#45;&gt;q0 -->
<g id="edge75" class="edge"><title>q9&#45;&gt;q0</title>
<path fill="none" stroke="green" d="M2810.09,-2301.25C2804.34,-2313.02 2794.99,-2328.1 2782,-2336.47 2727.83,-2371.38 2703.44,-2360.47 2639,-2360.47 2091,-2360.47 2091,-2360.47 2091,-2360.47 1895.75,-2360.47 1848.25,-2394.47 1653,-2394.47 1101,-2394.47 1101,-2394.47 1101,-2394.47 1031.29,-2394.47 999.008,-2415.75 946,-2370.47 922.593,-2350.48 914.698,-2314.79 912.112,-2289.7"/>
<polygon fill="green" stroke="green" points="915.596,-2289.36 911.3,-2279.68 908.619,-2289.93 915.596,-2289.36"/>
<text text-anchor="middle" x="1872" y="-2387.27" font-family="Times,serif" font-size="14.00">create_sll</text>
</g>
<!-- q9&#45;&gt;q0 -->
<g id="edge76" class="edge"><title>q9&#45;&gt;q0</title>
<path fill="none" stroke="green" d="M2801.22,-2291.62C2795.29,-2294.08 2788.43,-2296.67 2782,-2298.47 2719.95,-2315.87 2703.44,-2322.47 2639,-2322.47 2091,-2322.47 2091,-2322.47 2091,-2322.47 1895.75,-2322.47 1848.25,-2356.47 1653,-2356.47 1101,-2356.47 1101,-2356.47 1101,-2356.47 1031.29,-2356.47 1002.2,-2373.72 946,-2332.47 931.778,-2322.03 923.018,-2304.21 917.819,-2289.03"/>
<polygon fill="green" stroke="green" points="921.043,-2287.61 914.765,-2279.07 914.35,-2289.66 921.043,-2287.61"/>
<text text-anchor="middle" x="1872" y="-2349.27" font-family="Times,serif" font-size="14.00">init_back_link</text>
</g>
<!-- q9&#45;&gt;q0 -->
<g id="edge77" class="edge"><title>q9&#45;&gt;q0</title>
<path fill="none" stroke="green" d="M2799.82,-2284.47C2768.06,-2284.47 2698.02,-2284.47 2639,-2284.47 2091,-2284.47 2091,-2284.47 2091,-2284.47 1895.75,-2284.47 1848.25,-2318.47 1653,-2318.47 1101,-2318.47 1101,-2318.47 1101,-2318.47 1031.29,-2318.47 1008.62,-2325.1 946,-2294.47 939.895,-2291.49 934.135,-2287.07 929.117,-2282.42"/>
<polygon fill="green" stroke="green" points="931.418,-2279.77 921.9,-2275.12 926.438,-2284.69 931.418,-2279.77"/>
<text text-anchor="middle" x="1872" y="-2311.27" font-family="Times,serif" font-size="14.00">reverse_dll</text>
</g>
<!-- q9&#45;&gt;q0 -->
<g id="edge78" class="edge"><title>q9&#45;&gt;q0</title>
<path fill="none" stroke="green" d="M2800.56,-2278.54C2769.46,-2267.85 2699.67,-2246.47 2639,-2246.47 2091,-2246.47 2091,-2246.47 2091,-2246.47 1895.75,-2246.47 1848.25,-2280.47 1653,-2280.47 1101,-2280.47 1101,-2280.47 1101,-2280.47 1042.62,-2280.47 974.641,-2271.48 937.902,-2265.87"/>
<polygon fill="green" stroke="green" points="938.395,-2262.4 927.975,-2264.32 937.314,-2269.32 938.395,-2262.4"/>
<text text-anchor="middle" x="1872" y="-2273.27" font-family="Times,serif" font-size="14.00">remove_fw_link</text>
</g>
<!-- q9&#45;&gt;q0 -->
<g id="edge80" class="edge"><title>q9&#45;&gt;q0</title>
<path fill="none" stroke="green" d="M2806.39,-2270.39C2800.07,-2262.89 2791.44,-2254.08 2782,-2248.47 2725.26,-2214.76 2705,-2208.47 2639,-2208.47 2091,-2208.47 2091,-2208.47 2091,-2208.47 1895.75,-2208.47 1848.25,-2242.47 1653,-2242.47 1101,-2242.47 1101,-2242.47 1101,-2242.47 1042.62,-2242.47 974.641,-2251.47 937.902,-2257.08"/>
<polygon fill="green" stroke="green" points="937.314,-2253.63 927.975,-2258.63 938.395,-2260.54 937.314,-2253.63"/>
<text text-anchor="middle" x="1872" y="-2235.27" font-family="Times,serif" font-size="14.00">check_seq_prev</text>
</g>
<!-- q9&#45;&gt;q0 -->
<g id="edge81" class="edge"><title>q9&#45;&gt;q0</title>
<path fill="none" stroke="green" d="M2813.43,-2266.74C2809.01,-2249.38 2799.78,-2223.44 2782,-2208.47 2731.68,-2166.14 2704.76,-2170.47 2639,-2170.47 2091,-2170.47 2091,-2170.47 2091,-2170.47 1895.75,-2170.47 1848.25,-2204.47 1653,-2204.47 1101,-2204.47 1101,-2204.47 1101,-2204.47 1030.18,-2204.47 1011.86,-2215.42 946,-2241.47 942.156,-2242.99 938.223,-2244.88 934.447,-2246.88"/>
<polygon fill="green" stroke="green" points="932.493,-2243.96 925.521,-2251.94 935.946,-2250.05 932.493,-2243.96"/>
<text text-anchor="middle" x="1872" y="-2197.27" font-family="Times,serif" font-size="14.00">Learn_Assert</text>
</g>
<!-- q9&#45;&gt;q8 -->
<g id="edge79" class="edge"><title>q9&#45;&gt;q8</title>
<path fill="none" stroke="green" d="M2833.11,-2294.94C2859.2,-2315.11 2914.77,-2362.12 2942,-2415.47 2967.56,-2465.56 2974.54,-2532.07 2976.39,-2569.25"/>
<polygon fill="green" stroke="green" points="2972.89,-2569.5 2976.8,-2579.35 2979.89,-2569.22 2972.89,-2569.5"/>
<text text-anchor="middle" x="2898" y="-2419.27" font-family="Times,serif" font-size="14.00">check_seq_next</text>
</g>
<!-- q10 -->
<g id="node12" class="node"><title>q10</title>
<ellipse fill="none" stroke="green" cx="2638" cy="-1906.47" rx="18" ry="18"/>
<text text-anchor="middle" x="2638" y="-1902.77" font-family="Times,serif" font-size="14.00">D</text>
</g>
<!-- q10&#45;&gt;q0 -->
<g id="edge82" class="edge"><title>q10&#45;&gt;q0</title>
<path fill="none" stroke="green" d="M2637.26,-1924.65C2636.75,-1964.66 2629.48,-2060.59 2574,-2108.47 2521.89,-2153.45 2489.83,-2132.47 2421,-2132.47 2091,-2132.47 2091,-2132.47 2091,-2132.47 1972.98,-2132.47 1943.76,-2141.61 1826,-2149.47 1749.1,-2154.61 1730.07,-2161.47 1653,-2161.47 1101,-2161.47 1101,-2161.47 1101,-2161.47 1030.92,-2161.47 1001.84,-2148.12 946,-2190.47 931.943,-2201.13 923.183,-2218.96 917.942,-2234.08"/>
<polygon fill="green" stroke="green" points="914.486,-2233.41 914.854,-2243.99 921.17,-2235.49 914.486,-2233.41"/>
<text text-anchor="middle" x="1762" y="-2162.27" font-family="Times,serif" font-size="14.00">chain_node</text>
</g>
<!-- q10&#45;&gt;q0 -->
<g id="edge83" class="edge"><title>q10&#45;&gt;q0</title>
<path fill="none" stroke="green" d="M2635.78,-1924.39C2632.4,-1958.66 2619.9,-2033.37 2574,-2070.47 2520.47,-2113.74 2489.83,-2094.47 2421,-2094.47 2091,-2094.47 2091,-2094.47 2091,-2094.47 1896.2,-2094.47 1847.8,-2110.47 1653,-2110.47 1101,-2110.47 1101,-2110.47 1101,-2110.47 1029.27,-2110.47 997.637,-2105.68 946,-2155.47 924.829,-2175.89 916.459,-2209.35 913.153,-2233.22"/>
<polygon fill="green" stroke="green" points="909.644,-2233.09 911.962,-2243.42 916.597,-2233.9 909.644,-2233.09"/>
<text text-anchor="middle" x="1762" y="-2114.27" font-family="Times,serif" font-size="14.00">create_sll</text>
</g>
<!-- q10&#45;&gt;q0 -->
<g id="edge85" class="edge"><title>q10&#45;&gt;q0</title>
<path fill="none" stroke="green" d="M2632.6,-1923.65C2625.1,-1949.33 2607.31,-1997.37 2574,-2022.47 2518.38,-2064.41 2490.66,-2056.47 2421,-2056.47 2091,-2056.47 2091,-2056.47 2091,-2056.47 1896.33,-2056.47 1847.67,-2059.47 1653,-2059.47 1101,-2059.47 1101,-2059.47 1101,-2059.47 1028.88,-2059.47 994.998,-2054.56 946,-2107.47 929.235,-2125.58 918.742,-2194.36 913.99,-2233.6"/>
<polygon fill="green" stroke="green" points="910.507,-2233.25 912.827,-2243.59 917.46,-2234.06 910.507,-2233.25"/>
<text text-anchor="middle" x="1762" y="-2063.27" font-family="Times,serif" font-size="14.00">reverse_dll</text>
</g>
<!-- q10&#45;&gt;q0 -->
<g id="edge86" class="edge"><title>q10&#45;&gt;q0</title>
<path fill="none" stroke="green" d="M2626.9,-1920.94C2615.7,-1935.89 2596.24,-1958.76 2574,-1971.47 2513.26,-2006.18 2490.96,-2008.47 2421,-2008.47 1101,-2008.47 1101,-2008.47 1101,-2008.47 1028.75,-2008.47 993.491,-2003.03 946,-2057.47 923.499,-2083.27 915.104,-2183.66 912.282,-2233.33"/>
<polygon fill="green" stroke="green" points="908.783,-2233.22 911.747,-2243.39 915.773,-2233.59 908.783,-2233.22"/>
<text text-anchor="middle" x="1762" y="-2012.27" font-family="Times,serif" font-size="14.00">remove_fw_link</text>
</g>
<!-- q10&#45;&gt;q0 -->
<g id="edge87" class="edge"><title>q10&#45;&gt;q0</title>
<path fill="none" stroke="green" d="M2621.05,-1912.93C2585.67,-1926.66 2497.68,-1957.47 2421,-1957.47 1871,-1957.47 1871,-1957.47 1871,-1957.47 1676.28,-1957.47 1627.72,-1967.47 1433,-1967.47 1101,-1967.47 1101,-1967.47 1101,-1967.47 1030.07,-1967.47 993.465,-1952.77 946,-2005.47 916.257,-2038.5 911.589,-2173.79 910.998,-2233.24"/>
<polygon fill="green" stroke="green" points="907.497,-2233.39 910.93,-2243.41 914.497,-2233.44 907.497,-2233.39"/>
<text text-anchor="middle" x="1762" y="-1964.27" font-family="Times,serif" font-size="14.00">check_seq_next</text>
</g>
<!-- q10&#45;&gt;q0 -->
<g id="edge88" class="edge"><title>q10&#45;&gt;q0</title>
<path fill="none" stroke="green" d="M2619.92,-1906.47C2583.41,-1906.47 2495.06,-1906.47 2421,-1906.47 1871,-1906.47 1871,-1906.47 1871,-1906.47 1676.07,-1906.47 1627.93,-1929.47 1433,-1929.47 1101,-1929.47 1101,-1929.47 1101,-1929.47 1030.57,-1929.47 993.428,-1910.4 946,-1962.47 910.328,-2001.64 909.204,-2166.26 910.281,-2233.09"/>
<polygon fill="green" stroke="green" points="906.786,-2233.38 910.476,-2243.31 913.785,-2233.24 906.786,-2233.38"/>
<text text-anchor="middle" x="1762" y="-1916.27" font-family="Times,serif" font-size="14.00">check_seq_prev</text>
</g>
<!-- q10&#45;&gt;q0 -->
<g id="edge89" class="edge"><title>q10&#45;&gt;q0</title>
<path fill="none" stroke="green" d="M2621.05,-1900.01C2585.67,-1886.29 2497.68,-1855.47 2421,-1855.47 1871,-1855.47 1871,-1855.47 1871,-1855.47 1675.68,-1855.47 1628.32,-1891.47 1433,-1891.47 1101,-1891.47 1101,-1891.47 1101,-1891.47 1030.75,-1891.47 993.274,-1870.51 946,-1922.47 925.271,-1945.26 915.106,-2155.32 912.035,-2232.88"/>
<polygon fill="green" stroke="green" points="908.52,-2233.19 911.633,-2243.32 915.515,-2233.46 908.52,-2233.19"/>
<text text-anchor="middle" x="1762" y="-1868.27" font-family="Times,serif" font-size="14.00">Learn_Assert</text>
</g>
<!-- q10&#45;&gt;q9 -->
<g id="edge84" class="edge"><title>q10&#45;&gt;q9</title>
<path fill="none" stroke="green" d="M2649.68,-1920.48C2676.02,-1955.69 2744.66,-2051.49 2782,-2141.47 2797.97,-2179.95 2807.79,-2227.4 2812.82,-2256.8"/>
<polygon fill="green" stroke="green" points="2809.38,-2257.46 2814.46,-2266.76 2816.29,-2256.32 2809.38,-2257.46"/>
<text text-anchor="middle" x="2742" y="-2145.27" font-family="Times,serif" font-size="14.00">init_back_link</text>
</g>
<!-- q11 -->
<g id="node13" class="node"><title>q11</title>
<ellipse fill="none" stroke="black" cx="2420" cy="-1695.47" rx="18" ry="18"/>
<text text-anchor="middle" x="2420" y="-1691.77" font-family="Times,serif" font-size="14.00">D</text>
</g>
<!-- q11&#45;&gt;q0 -->
<g id="edge90" class="edge"><title>q11&#45;&gt;q0</title>
<path fill="none" stroke="green" d="M2412.62,-1712.21C2403.75,-1733.05 2385.59,-1768.01 2358,-1785.47 2299.1,-1822.76 2272.71,-1809.47 2203,-1809.47 1871,-1809.47 1871,-1809.47 1871,-1809.47 1675.35,-1809.47 1628.65,-1853.47 1433,-1853.47 1101,-1853.47 1101,-1853.47 1101,-1853.47 1031.29,-1853.47 993.722,-1826.66 946,-1877.47 921.743,-1903.3 913.669,-2149.06 911.602,-2233.3"/>
<polygon fill="green" stroke="green" points="908.1,-2233.34 911.364,-2243.42 915.098,-2233.5 908.1,-2233.34"/>
<text text-anchor="middle" x="1652" y="-1843.27" font-family="Times,serif" font-size="14.00">chain_node</text>
</g>
<!-- q11&#45;&gt;q0 -->
<g id="edge91" class="edge"><title>q11&#45;&gt;q0</title>
<path fill="none" stroke="green" d="M2407.38,-1708.94C2396.07,-1721.1 2377.73,-1738.43 2358,-1747.47 2294.63,-1776.52 2272.71,-1771.47 2203,-1771.47 1871,-1771.47 1871,-1771.47 1871,-1771.47 1675.35,-1771.47 1628.65,-1815.47 1433,-1815.47 1101,-1815.47 1101,-1815.47 1101,-1815.47 1031.07,-1815.47 993.194,-1790.87 946,-1842.47 919.693,-1871.24 912.92,-2143.68 911.397,-2233.16"/>
<polygon fill="green" stroke="green" points="907.895,-2233.31 911.233,-2243.37 914.894,-2233.42 907.895,-2233.31"/>
<text text-anchor="middle" x="1652" y="-1805.27" font-family="Times,serif" font-size="14.00">create_sll</text>
</g>
<!-- q11&#45;&gt;q0 -->
<g id="edge92" class="edge"><title>q11&#45;&gt;q0</title>
<path fill="none" stroke="green" d="M2402.64,-1700.36C2366.82,-1710.63 2278.58,-1733.47 2203,-1733.47 1871,-1733.47 1871,-1733.47 1871,-1733.47 1675.35,-1733.47 1628.65,-1777.47 1433,-1777.47 1101,-1777.47 1101,-1777.47 1101,-1777.47 1030.92,-1777.47 992.805,-1754.31 946,-1806.47 917.499,-1838.24 912.18,-2138.86 911.211,-2233.26"/>
<polygon fill="green" stroke="green" points="907.709,-2233.44 911.115,-2243.47 914.709,-2233.5 907.709,-2233.44"/>
<text text-anchor="middle" x="1652" y="-1767.27" font-family="Times,serif" font-size="14.00">init_back_link</text>
</g>
<!-- q11&#45;&gt;q0 -->
<g id="edge93" class="edge"><title>q11&#45;&gt;q0</title>
<path fill="none" stroke="green" d="M2401.92,-1695.47C2365.41,-1695.47 2277.06,-1695.47 2203,-1695.47 1871,-1695.47 1871,-1695.47 1871,-1695.47 1675.35,-1695.47 1628.65,-1739.47 1433,-1739.47 1101,-1739.47 1101,-1739.47 1101,-1739.47 1030.92,-1739.47 992.651,-1716.17 946,-1768.47 914.999,-1803.23 911.407,-2133.63 911.031,-2233.21"/>
<polygon fill="green" stroke="green" points="907.531,-2233.39 911.001,-2243.4 914.531,-2233.41 907.531,-2233.39"/>
<text text-anchor="middle" x="1652" y="-1729.27" font-family="Times,serif" font-size="14.00">reverse_dll</text>
</g>
<!-- q11&#45;&gt;q0 -->
<g id="edge94" class="edge"><title>q11&#45;&gt;q0</title>
<path fill="none" stroke="green" d="M2402.64,-1690.58C2366.82,-1680.32 2278.58,-1657.47 2203,-1657.47 1871,-1657.47 1871,-1657.47 1871,-1657.47 1675.35,-1657.47 1628.65,-1701.47 1433,-1701.47 1101,-1701.47 1101,-1701.47 1101,-1701.47 1030.92,-1701.47 992.519,-1678.05 946,-1730.47 912.5,-1768.22 910.689,-2128.42 910.877,-2233.08"/>
<polygon fill="green" stroke="green" points="907.377,-2233.22 910.903,-2243.21 914.377,-2233.2 907.377,-2233.22"/>
<text text-anchor="middle" x="1652" y="-1691.27" font-family="Times,serif" font-size="14.00">remove_fw_link</text>
</g>
<!-- q11&#45;&gt;q0 -->
<g id="edge96" class="edge"><title>q11&#45;&gt;q0</title>
<path fill="none" stroke="green" d="M2404.62,-1685.05C2392.66,-1676.8 2374.91,-1665.54 2358,-1658.47 2292.46,-1631.08 2274.04,-1619.47 2203,-1619.47 1871,-1619.47 1871,-1619.47 1871,-1619.47 1675.35,-1619.47 1628.65,-1663.47 1433,-1663.47 1101,-1663.47 1101,-1663.47 1101,-1663.47 1030.92,-1663.47 992.404,-1639.95 946,-1692.47 909.967,-1733.26 910.015,-2123.98 910.743,-2233.22"/>
<polygon fill="green" stroke="green" points="907.245,-2233.48 910.819,-2243.46 914.245,-2233.43 907.245,-2233.48"/>
<text text-anchor="middle" x="1652" y="-1653.27" font-family="Times,serif" font-size="14.00">check_seq_prev</text>
</g>
<!-- q11&#45;&gt;q0 -->
<g id="edge97" class="edge"><title>q11&#45;&gt;q0</title>
<path fill="none" stroke="green" d="M2410.33,-1679.97C2400.04,-1663.03 2381.31,-1636.32 2358,-1621.47 2297.99,-1583.26 2274.15,-1581.47 2203,-1581.47 1871,-1581.47 1871,-1581.47 1871,-1581.47 1675.35,-1581.47 1628.65,-1625.47 1433,-1625.47 1101,-1625.47 1101,-1625.47 1101,-1625.47 1030.92,-1625.47 992.303,-1601.86 946,-1654.47 907.449,-1698.28 909.382,-2119.26 910.625,-2233.17"/>
<polygon fill="green" stroke="green" points="907.126,-2233.26 910.742,-2243.22 914.125,-2233.18 907.126,-2233.26"/>
<text text-anchor="middle" x="1652" y="-1615.27" font-family="Times,serif" font-size="14.00">Learn_Assert</text>
</g>
<!-- q11&#45;&gt;q10 -->
<g id="edge95" class="edge"><title>q11&#45;&gt;q10</title>
<path fill="none" stroke="green" d="M2434.88,-1705.86C2462.72,-1727.02 2526.78,-1777.28 2574,-1826.47 2591.25,-1844.45 2608.6,-1866.87 2620.71,-1883.4"/>
<polygon fill="green" stroke="green" points="2618.17,-1885.86 2626.86,-1891.91 2623.84,-1881.76 2618.17,-1885.86"/>
<text text-anchor="middle" x="2528" y="-1830.27" font-family="Times,serif" font-size="14.00">check_seq_next</text>
</g>
<!-- q12 -->
<g id="node14" class="node"><title>q12</title>
<ellipse fill="none" stroke="black" cx="2202" cy="-1467.47" rx="18" ry="18"/>
<text text-anchor="middle" x="2202" y="-1463.77" font-family="Times,serif" font-size="14.00">D</text>
</g>
<!-- q12&#45;&gt;q0 -->
<g id="edge99" class="edge"><title>q12&#45;&gt;q0</title>
<path fill="none" stroke="green" d="M2189.5,-1480.81C2177.9,-1493.23 2158.77,-1511.07 2138,-1519.47 1918.13,-1608.42 1842,-1537.84 1606,-1561.47 1528.93,-1569.19 1510.45,-1582.47 1433,-1582.47 1101,-1582.47 1101,-1582.47 1101,-1582.47 1030.92,-1582.47 992.203,-1558.78 946,-1611.47 925.208,-1635.19 914.062,-2111.92 911.551,-2233.47"/>
<polygon fill="green" stroke="green" points="908.051,-2233.41 911.347,-2243.48 915.05,-2233.55 908.051,-2233.41"/>
<text text-anchor="middle" x="1542" y="-1583.27" font-family="Times,serif" font-size="14.00">create_sll</text>
</g>
<!-- q12&#45;&gt;q0 -->
<g id="edge100" class="edge"><title>q12&#45;&gt;q0</title>
<path fill="none" stroke="green" d="M2184.28,-1471.9C2171.65,-1475.07 2153.85,-1479.16 2138,-1481.47 1827.16,-1526.78 1747.12,-1531.47 1433,-1531.47 1101,-1531.47 1101,-1531.47 1101,-1531.47 1029.63,-1531.47 990.796,-1517.91 946,-1573.47 924.962,-1599.57 913.927,-2107.72 911.512,-2233.5"/>
<polygon fill="green" stroke="green" points="908.012,-2233.43 911.322,-2243.5 915.011,-2233.57 908.012,-2233.43"/>
<text text-anchor="middle" x="1542" y="-1535.27" font-family="Times,serif" font-size="14.00">init_back_link</text>
</g>
<!-- q12&#45;&gt;q0 -->
<g id="edge101" class="edge"><title>q12&#45;&gt;q0</title>
<path fill="none" stroke="green" d="M2183.97,-1467.98C2101.37,-1470.36 1734.04,-1480.47 1433,-1480.47 1101,-1480.47 1101,-1480.47 1101,-1480.47 1029.14,-1480.47 990.338,-1469.92 946,-1526.47 923.814,-1554.77 913.579,-2101.92 911.435,-2233.29"/>
<polygon fill="green" stroke="green" points="907.935,-2233.31 911.274,-2243.37 914.934,-2233.42 907.935,-2233.31"/>
<text text-anchor="middle" x="1542" y="-1484.27" font-family="Times,serif" font-size="14.00">reverse_dll</text>
</g>
<!-- q12&#45;&gt;q0 -->
<g id="edge102" class="edge"><title>q12&#45;&gt;q0</title>
<path fill="none" stroke="green" d="M2184.49,-1462.58C2148.33,-1452.32 2059.26,-1429.47 1983,-1429.47 1101,-1429.47 1101,-1429.47 1101,-1429.47 1029.01,-1429.47 990.163,-1419.63 946,-1476.47 922.344,-1506.92 913.171,-2096.06 911.352,-2233.14"/>
<polygon fill="green" stroke="green" points="907.851,-2233.22 911.22,-2243.27 914.85,-2233.31 907.851,-2233.22"/>
<text text-anchor="middle" x="1542" y="-1433.27" font-family="Times,serif" font-size="14.00">remove_fw_link</text>
</g>
<!-- q12&#45;&gt;q0 -->
<g id="edge104" class="edge"><title>q12&#45;&gt;q0</title>
<path fill="none" stroke="green" d="M2187.02,-1457.26C2153.57,-1433.89 2065.58,-1378.47 1983,-1378.47 1651,-1378.47 1651,-1378.47 1651,-1378.47 1572.49,-1378.47 1000.82,-1369.28 946,-1425.47 917.206,-1454.99 911.955,-2089.95 911.137,-2233.01"/>
<polygon fill="green" stroke="green" points="907.636,-2233.16 911.081,-2243.18 914.636,-2233.19 907.636,-2233.16"/>
<text text-anchor="middle" x="1542" y="-1382.27" font-family="Times,serif" font-size="14.00">check_seq_prev</text>
</g>
<!-- q12&#45;&gt;q0 -->
<g id="edge105" class="edge"><title>q12&#45;&gt;q0</title>
<path fill="none" stroke="green" d="M2192.5,-1451.97C2181.91,-1433.94 2162.21,-1404.37 2138,-1386.47 2078.73,-1342.65 2056.71,-1327.47 1983,-1327.47 1651,-1327.47 1651,-1327.47 1651,-1327.47 1572.31,-1327.47 1000.11,-1337.34 946,-1394.47 916.534,-1425.59 911.797,-2086.52 911.109,-2232.92"/>
<polygon fill="green" stroke="green" points="907.607,-2233.28 911.063,-2243.3 914.607,-2233.31 907.607,-2233.28"/>
<text text-anchor="middle" x="1542" y="-1334.27" font-family="Times,serif" font-size="14.00">Learn_Assert</text>
</g>
<!-- q12&#45;&gt;q10 -->
<g id="edge103" class="edge"><title>q12&#45;&gt;q10</title>
<path fill="none" stroke="green" d="M2220.05,-1466.84C2249.98,-1466.49 2313.03,-1469.12 2358,-1494.47 2485.33,-1566.26 2498.64,-1617.23 2574,-1742.47 2600.96,-1787.28 2620.07,-1845.63 2629.74,-1879.28"/>
<polygon fill="green" stroke="green" points="2626.48,-1880.61 2632.55,-1889.29 2633.22,-1878.72 2626.48,-1880.61"/>
<text text-anchor="middle" x="2420" y="-1576.27" font-family="Times,serif" font-size="14.00">check_seq_next</text>
</g>
<!-- q12&#45;&gt;q11 -->
<g id="edge98" class="edge"><title>q12&#45;&gt;q11</title>
<path fill="none" stroke="green" d="M2218.78,-1474.51C2253.96,-1490.45 2337.34,-1529.67 2358,-1552.47 2388.29,-1585.9 2405.03,-1636.62 2413,-1667.81"/>
<polygon fill="green" stroke="green" points="2409.61,-1668.7 2415.37,-1677.59 2416.41,-1667.05 2409.61,-1668.7"/>
<text text-anchor="middle" x="2312" y="-1556.27" font-family="Times,serif" font-size="14.00">chain_node</text>
</g>
<!-- q13 -->
<g id="node15" class="node"><title>q13</title>
<ellipse fill="none" stroke="black" cx="1982" cy="-1205.47" rx="18" ry="18"/>
<text text-anchor="middle" x="1982" y="-1201.77" font-family="Times,serif" font-size="14.00">D</text>
</g>
<!-- q13&#45;&gt;q0 -->
<g id="edge107" class="edge"><title>q13&#45;&gt;q0</title>
<path fill="none" stroke="green" d="M1969.5,-1218.8C1957.9,-1231.23 1938.77,-1249.07 1918,-1257.47 1892.89,-1267.63 964.752,-1314.93 946,-1334.47 914.147,-1367.67 911.272,-2080.34 911.022,-2232.89"/>
<polygon fill="green" stroke="green" points="907.522,-2233.27 911.008,-2243.27 914.522,-2233.28 907.522,-2233.27"/>
<text text-anchor="middle" x="1432" y="-1299.27" font-family="Times,serif" font-size="14.00">create_sll</text>
</g>
<!-- q13&#45;&gt;q0 -->
<g id="edge108" class="edge"><title>q13&#45;&gt;q0</title>
<path fill="none" stroke="green" d="M1964.26,-1209.78C1951.63,-1212.89 1933.82,-1216.97 1918,-1219.47 1683.4,-1256.64 1622.29,-1246.26 1386,-1270.47 1288.15,-1280.5 1013.02,-1246.48 946,-1318.47 914.047,-1352.8 911.253,-2080.31 911.02,-2233.37"/>
<polygon fill="green" stroke="green" points="907.52,-2233.38 911.007,-2243.38 914.52,-2233.39 907.52,-2233.38"/>
<text text-anchor="middle" x="1432" y="-1274.27" font-family="Times,serif" font-size="14.00">init_back_link</text>
</g>
<!-- q13&#45;&gt;q0 -->
<g id="edge109" class="edge"><title>q13&#45;&gt;q0</title>
<path fill="none" stroke="green" d="M1963.97,-1205.31C1835.28,-1204.22 1018.97,-1200.37 946,-1277.47 912.294,-1313.09 910.893,-2075.62 910.964,-2233.15"/>
<polygon fill="green" stroke="green" points="907.464,-2233.43 910.971,-2243.43 914.464,-2233.43 907.464,-2233.43"/>
<text text-anchor="middle" x="1432" y="-1218.27" font-family="Times,serif" font-size="14.00">reverse_dll</text>
</g>
<!-- q13&#45;&gt;q0 -->
<g id="edge110" class="edge"><title>q13&#45;&gt;q0</title>
<path fill="none" stroke="green" d="M1963.9,-1204.19C1951.23,-1203.29 1933.55,-1202.13 1918,-1201.47 1554.34,-1186.22 1497.05,-1186.6 1386,-1192.47 1238.72,-1200.26 1202.5,-1210.38 1056,-1227.47 1007.05,-1233.18 979.204,-1205.05 946,-1241.47 911.684,-1279.11 910.777,-2072.22 910.948,-2233.14"/>
<polygon fill="green" stroke="green" points="907.448,-2233.22 910.961,-2243.22 914.448,-2233.21 907.448,-2233.22"/>
<text text-anchor="middle" x="1432" y="-1196.27" font-family="Times,serif" font-size="14.00">remove_fw_link</text>
</g>
<!-- q13&#45;&gt;q0 -->
<g id="edge112" class="edge"><title>q13&#45;&gt;q0</title>
<path fill="none" stroke="green" d="M1964.23,-1201.99C1951.58,-1199.5 1933.77,-1196.27 1918,-1194.47 1703.33,-1169.97 1092.94,-1060.06 946,-1218.47 910.544,-1256.7 910.553,-2069.62 910.915,-2233.02"/>
<polygon fill="green" stroke="green" points="907.415,-2233.24 910.94,-2243.23 914.415,-2233.22 907.415,-2233.24"/>
<text text-anchor="middle" x="1432" y="-1146.27" font-family="Times,serif" font-size="14.00">check_seq_prev</text>
</g>
<!-- q13&#45;&gt;q0 -->
<g id="edge113" class="edge"><title>q13&#45;&gt;q0</title>
<path fill="none" stroke="green" d="M1965.59,-1197.82C1953.07,-1191.92 1934.79,-1184.02 1918,-1179.47 1547.8,-1079.17 1435.92,-1085.84 1056,-1138.47 1006.43,-1145.34 978.002,-1124.01 946,-1162.47 910.758,-1204.84 910.617,-2065.06 910.927,-2233.14"/>
<polygon fill="green" stroke="green" points="907.427,-2233.2 910.948,-2243.19 914.427,-2233.18 907.427,-2233.2"/>
<text text-anchor="middle" x="1432" y="-1106.27" font-family="Times,serif" font-size="14.00">Learn_Assert</text>
</g>
<!-- q13&#45;&gt;q10 -->
<g id="edge111" class="edge"><title>q13&#45;&gt;q10</title>
<path fill="none" stroke="green" d="M2000.07,-1207.97C2029.49,-1212.75 2091.1,-1224.87 2138,-1248.47 2358.48,-1359.43 2446.77,-1380.96 2574,-1592.47 2630.14,-1685.8 2637.25,-1820.14 2637.5,-1878.09"/>
<polygon fill="green" stroke="green" points="2634,-1878.31 2637.47,-1888.31 2641,-1878.32 2634,-1878.31"/>
<text text-anchor="middle" x="2312" y="-1365.27" font-family="Times,serif" font-size="14.00">check_seq_next</text>
</g>
<!-- q13&#45;&gt;q12 -->
<g id="edge106" class="edge"><title>q13&#45;&gt;q12</title>
<path fill="none" stroke="green" d="M1997.24,-1215.8C2009.83,-1224.79 2028.82,-1237.98 2046,-1248.47 2085.71,-1272.73 2107.49,-1263.33 2138,-1298.47 2173.87,-1339.8 2190.13,-1403.45 2196.83,-1439.7"/>
<polygon fill="green" stroke="green" points="2193.39,-1440.33 2198.55,-1449.58 2200.28,-1439.13 2193.39,-1440.33"/>
<text text-anchor="middle" x="2092" y="-1302.27" font-family="Times,serif" font-size="14.00">chain_node</text>
</g>
<!-- q14 -->
<g id="node16" class="node"><title>q14</title>
<ellipse fill="none" stroke="black" cx="1762" cy="-975.474" rx="18" ry="18"/>
<text text-anchor="middle" x="1762" y="-971.774" font-family="Times,serif" font-size="14.00">D</text>
</g>
<!-- q14&#45;&gt;q0 -->
<g id="edge115" class="edge"><title>q14&#45;&gt;q0</title>
<path fill="none" stroke="green" d="M1749.57,-989.21C1738.01,-1002.03 1718.92,-1020.5 1698,-1029.47 1543.63,-1095.71 1060.45,-983.507 946,-1106.47 906.444,-1148.98 909.809,-2059.38 910.814,-2233.01"/>
<polygon fill="green" stroke="green" points="907.315,-2233.17 910.875,-2243.15 914.315,-2233.13 907.315,-2233.17"/>
<text text-anchor="middle" x="1322" y="-1053.27" font-family="Times,serif" font-size="14.00">create_sll</text>
</g>
<!-- q14&#45;&gt;q0 -->
<g id="edge116" class="edge"><title>q14&#45;&gt;q0</title>
<path fill="none" stroke="green" d="M1744.27,-979.837C1731.64,-982.974 1713.84,-987.059 1698,-989.474 1414.93,-1032.63 1340.76,-1013.39 1056,-1043.47 1006.99,-1048.65 979.108,-1020.97 946,-1057.47 905.235,-1102.42 909.621,-2055.88 910.793,-2233.22"/>
<polygon fill="green" stroke="green" points="907.294,-2233.34 910.862,-2243.32 914.294,-2233.3 907.294,-2233.34"/>
<text text-anchor="middle" x="1322" y="-1030.27" font-family="Times,serif" font-size="14.00">init_back_link</text>
</g>
<!-- q14&#45;&gt;q0 -->
<g id="edge117" class="edge"><title>q14&#45;&gt;q0</title>
<path fill="none" stroke="green" d="M1743.76,-975.474C1706.91,-975.474 1617.75,-975.474 1543,-975.474 1101,-975.474 1101,-975.474 1101,-975.474 1027.29,-975.474 988.697,-974.388 946,-1034.47 910.18,-1084.88 910.543,-2052.81 910.922,-2232.8"/>
<polygon fill="green" stroke="green" points="907.422,-2233.06 910.945,-2243.05 914.422,-2233.04 907.422,-2233.06"/>
<text text-anchor="middle" x="1322" y="-979.274" font-family="Times,serif" font-size="14.00">reverse_dll</text>
</g>
<!-- q14&#45;&gt;q0 -->
<g id="edge118" class="edge"><title>q14&#45;&gt;q0</title>
<path fill="none" stroke="green" d="M1744.89,-969.015C1709.17,-955.291 1620.35,-924.474 1543,-924.474 1101,-924.474 1101,-924.474 1101,-924.474 1028.62,-924.474 989.4,-916.543 946,-974.474 906.991,-1026.54 909.989,-2048.75 910.85,-2233.11"/>
<polygon fill="green" stroke="green" points="907.35,-2233.13 910.899,-2243.11 914.35,-2233.1 907.35,-2233.13"/>
<text text-anchor="middle" x="1322" y="-928.274" font-family="Times,serif" font-size="14.00">remove_fw_link</text>
</g>
<!-- q14&#45;&gt;q0 -->
<g id="edge120" class="edge"><title>q14&#45;&gt;q0</title>
<path fill="none" stroke="green" d="M1747.85,-963.46C1735.66,-952.832 1716.65,-937.498 1698,-927.474 1633.74,-892.939 1615.95,-873.474 1543,-873.474 1101,-873.474 1101,-873.474 1101,-873.474 1028.88,-873.474 989.546,-863.989 946,-921.474 905.011,-975.583 909.666,-2044.44 910.811,-2233.14"/>
<polygon fill="green" stroke="green" points="907.312,-2233.37 910.875,-2243.35 914.312,-2233.33 907.312,-2233.37"/>
<text text-anchor="middle" x="1322" y="-877.274" font-family="Times,serif" font-size="14.00">check_seq_prev</text>
</g>
<!-- q14&#45;&gt;q0 -->
<g id="edge121" class="edge"><title>q14&#45;&gt;q0</title>
<path fill="none" stroke="green" d="M1754.34,-959.046C1744.86,-937.624 1725.53,-900.316 1698,-878.474 1640.62,-832.946 1616.25,-822.474 1543,-822.474 1101,-822.474 1101,-822.474 1101,-822.474 1029.01,-822.474 989.609,-812.2 946,-869.474 924.575,-897.613 913.068,-2038.13 911.255,-2233.23"/>
<polygon fill="green" stroke="green" points="907.752,-2233.47 911.16,-2243.5 914.752,-2233.54 907.752,-2233.47"/>
<text text-anchor="middle" x="1322" y="-826.274" font-family="Times,serif" font-size="14.00">Learn_Assert</text>
</g>
<!-- q14&#45;&gt;q10 -->
<g id="edge119" class="edge"><title>q14&#45;&gt;q10</title>
<path fill="none" stroke="green" d="M1779.88,-978.873C1816.39,-985.92 1905.53,-1001.47 1981,-1001.47 1981,-1001.47 1981,-1001.47 2421,-1001.47 2605.77,-1001.47 2632.8,-1724.22 2636.46,-1877.94"/>
<polygon fill="green" stroke="green" points="2632.97,-1878.48 2636.69,-1888.4 2639.97,-1878.32 2632.97,-1878.48"/>
<text text-anchor="middle" x="2202" y="-1005.27" font-family="Times,serif" font-size="14.00">check_seq_next</text>
</g>
<!-- q14&#45;&gt;q13 -->
<g id="edge114" class="edge"><title>q14&#45;&gt;q13</title>
<path fill="none" stroke="green" d="M1777.28,-985.078C1789.9,-993.436 1808.9,-1005.71 1826,-1015.47 1865.87,-1038.25 1886.48,-1029.09 1918,-1062.47 1949.29,-1095.61 1966.65,-1146.85 1974.88,-1178.15"/>
<polygon fill="green" stroke="green" points="1971.51,-1179.09 1977.33,-1187.95 1978.3,-1177.4 1971.51,-1179.09"/>
<text text-anchor="middle" x="1872" y="-1066.27" font-family="Times,serif" font-size="14.00">chain_node</text>
</g>
<!-- q15 -->
<g id="node17" class="node"><title>q15</title>
<ellipse fill="none" stroke="green" cx="1542" cy="-700.474" rx="18" ry="18"/>
<text text-anchor="middle" x="1542" y="-696.774" font-family="Times,serif" font-size="14.00">D</text>
</g>
<!-- q15&#45;&gt;q0 -->
<g id="edge123" class="edge"><title>q15&#45;&gt;q0</title>
<path fill="none" stroke="green" d="M1529.45,-713.687C1517.82,-726.025 1498.66,-743.8 1478,-752.474 1368.39,-798.487 1026.59,-721.09 946,-808.474 920.92,-835.666 912.416,-2032.9 911.168,-2233.19"/>
<polygon fill="green" stroke="green" points="907.666,-2233.45 911.104,-2243.47 914.666,-2233.49 907.666,-2233.45"/>
<text text-anchor="middle" x="1212" y="-771.274" font-family="Times,serif" font-size="14.00">create_sll</text>
</g>
<!-- q15&#45;&gt;q0 -->
<g id="edge124" class="edge"><title>q15&#45;&gt;q0</title>
<path fill="none" stroke="green" d="M1524.26,-704.768C1511.62,-707.868 1493.82,-711.939 1478,-714.474 1419.34,-723.871 986.373,-723.899 946,-767.474 920.109,-795.418 912.263,-2030.24 911.146,-2233.34"/>
<polygon fill="green" stroke="green" points="907.645,-2233.47 911.091,-2243.49 914.645,-2233.51 907.645,-2233.47"/>
<text text-anchor="middle" x="1212" y="-734.274" font-family="Times,serif" font-size="14.00">init_back_link</text>
</g>
<!-- q15&#45;&gt;q0 -->
<g id="edge125" class="edge"><title>q15&#45;&gt;q0</title>
<path fill="none" stroke="green" d="M1524.02,-698.574C1435.12,-689.043 1024.42,-650.299 946,-738.474 920.18,-767.507 912.268,-2027.16 911.146,-2233.13"/>
<polygon fill="green" stroke="green" points="907.645,-2233.39 911.091,-2243.41 914.645,-2233.43 907.645,-2233.39"/>
<text text-anchor="middle" x="1212" y="-687.274" font-family="Times,serif" font-size="14.00">reverse_dll</text>
</g>
<!-- q15&#45;&gt;q0 -->
<g id="edge126" class="edge"><title>q15&#45;&gt;q0</title>
<path fill="none" stroke="green" d="M1524.6,-695.21C1511.98,-691.368 1494.06,-686.348 1478,-683.474 1361.6,-662.64 1024.55,-606.089 946,-694.474 919.403,-724.4 912.125,-2024.39 911.127,-2233.28"/>
<polygon fill="green" stroke="green" points="907.626,-2233.42 911.079,-2243.43 914.626,-2233.45 907.626,-2233.42"/>
<text text-anchor="middle" x="1212" y="-656.274" font-family="Times,serif" font-size="14.00">remove_fw_link</text>
</g>
<!-- q15&#45;&gt;q0 -->
<g id="edge128" class="edge"><title>q15&#45;&gt;q0</title>
<path fill="none" stroke="green" d="M1526.65,-690.632C1514.3,-682.627 1495.71,-671.677 1478,-665.474 1366.38,-626.383 1026.31,-563.65 946,-650.474 918.008,-680.737 911.889,-2021.77 911.097,-2233.47"/>
<polygon fill="green" stroke="green" points="907.597,-2233.46 911.06,-2243.47 914.597,-2233.48 907.597,-2233.46"/>
<text text-anchor="middle" x="1212" y="-621.274" font-family="Times,serif" font-size="14.00">check_seq_prev</text>
</g>
<!-- q15&#45;&gt;q0 -->
<g id="edge129" class="edge"><title>q15&#45;&gt;q0</title>
<path fill="none" stroke="green" d="M1530.66,-686.07C1519.4,-671.491 1500.02,-649.442 1478,-637.474 1373.98,-580.926 1027.15,-522.261 946,-608.474 916.993,-639.29 911.725,-2016.91 911.077,-2233.07"/>
<polygon fill="green" stroke="green" points="907.576,-2233.27 911.047,-2243.28 914.576,-2233.29 907.576,-2233.27"/>
<text text-anchor="middle" x="1212" y="-580.274" font-family="Times,serif" font-size="14.00">Learn_Assert</text>
</g>
<!-- q15&#45;&gt;q10 -->
<g id="edge127" class="edge"><title>q15&#45;&gt;q10</title>
<path fill="none" stroke="green" d="M1559.93,-702.435C1596.55,-706.501 1685.89,-715.474 1761,-715.474 1761,-715.474 1761,-715.474 2421,-715.474 2577.84,-715.474 2533.64,-881.914 2574,-1033.47 2617.97,-1198.61 2633.31,-1747.5 2636.38,-1878.31"/>
<polygon fill="green" stroke="green" points="2632.89,-1878.42 2636.62,-1888.33 2639.88,-1878.25 2632.89,-1878.42"/>
<text text-anchor="middle" x="2092" y="-719.274" font-family="Times,serif" font-size="14.00">check_seq_next</text>
</g>
<!-- q15&#45;&gt;q14 -->
<g id="edge122" class="edge"><title>q15&#45;&gt;q14</title>
<path fill="none" stroke="green" d="M1558.37,-707.986C1593.49,-725.404 1678.07,-768.925 1698,-793.474 1735.37,-839.511 1751.19,-909.096 1757.39,-947.517"/>
<polygon fill="green" stroke="green" points="1753.94,-948.115 1758.9,-957.482 1760.87,-947.071 1753.94,-948.115"/>
<text text-anchor="middle" x="1652" y="-797.274" font-family="Times,serif" font-size="14.00">chain_node</text>
</g>
<!-- q16 -->
<g id="node18" class="node"><title>q16</title>
<ellipse fill="none" stroke="green" cx="1322" cy="-390.474" rx="18" ry="18"/>
<text text-anchor="middle" x="1322" y="-386.774" font-family="Times,serif" font-size="14.00">D</text>
</g>
<!-- q16&#45;&gt;q0 -->
<g id="edge131" class="edge"><title>q16&#45;&gt;q0</title>
<path fill="none" stroke="green" d="M1316.63,-407.697C1309.17,-433.427 1291.43,-481.536 1258,-506.474 1144.39,-591.216 1036.39,-463.299 946,-572.474 918.395,-605.817 911.937,-2014.8 911.101,-2233.17"/>
<polygon fill="green" stroke="green" points="907.6,-2233.45 911.062,-2243.47 914.6,-2233.48 907.6,-2233.45"/>
<text text-anchor="middle" x="1102" y="-541.274" font-family="Times,serif" font-size="14.00">create_sll</text>
</g>
<!-- q16&#45;&gt;q0 -->
<g id="edge132" class="edge"><title>q16&#45;&gt;q0</title>
<path fill="none" stroke="green" d="M1310.97,-405.058C1299.82,-420.097 1280.4,-443.052 1258,-455.474 1133.96,-524.25 1036.25,-413.062 946,-522.474 917.613,-556.89 911.808,-2010.46 911.085,-2233.01"/>
<polygon fill="green" stroke="green" points="907.584,-2233.21 911.053,-2243.22 914.584,-2233.23 907.584,-2233.21"/>
<text text-anchor="middle" x="1102" y="-483.274" font-family="Times,serif" font-size="14.00">init_back_link</text>
</g>
<!-- q16&#45;&gt;q0 -->
<g id="edge133" class="edge"><title>q16&#45;&gt;q0</title>
<path fill="none" stroke="green" d="M1304.17,-394.292C1291.49,-397.15 1273.67,-401.126 1258,-404.474 1188.79,-419.262 991.27,-414.068 946,-468.474 916.534,-503.887 911.634,-2007.26 911.064,-2233.18"/>
<polygon fill="green" stroke="green" points="907.564,-2233.23 911.039,-2243.24 914.564,-2233.25 907.564,-2233.23"/>
<text text-anchor="middle" x="1102" y="-430.274" font-family="Times,serif" font-size="14.00">reverse_dll</text>
</g>
<!-- q16&#45;&gt;q0 -->
<g id="edge134" class="edge"><title>q16&#45;&gt;q0</title>
<path fill="none" stroke="green" d="M1303.95,-389.099C1236.63,-384.094 990.795,-369.968 946,-426.474 916.68,-463.458 911.651,-2004.61 911.065,-2233.24"/>
<polygon fill="green" stroke="green" points="907.565,-2233.4 911.04,-2243.41 914.565,-2233.42 907.565,-2233.4"/>
<text text-anchor="middle" x="1102" y="-393.274" font-family="Times,serif" font-size="14.00">remove_fw_link</text>
</g>
<!-- q16&#45;&gt;q0 -->
<g id="edge135" class="edge"><title>q16&#45;&gt;q0</title>
<path fill="none" stroke="green" d="M1304.01,-387.18C1236.9,-374.625 991.783,-333.192 946,-388.474 915.257,-425.595 911.438,-2000.83 911.041,-2233.01"/>
<polygon fill="green" stroke="green" points="907.541,-2233.32 911.025,-2243.32 914.541,-2233.33 907.541,-2233.32"/>
<text text-anchor="middle" x="1102" y="-369.274" font-family="Times,serif" font-size="14.00">check_seq_next</text>
</g>
<!-- q16&#45;&gt;q0 -->
<g id="edge136" class="edge"><title>q16&#45;&gt;q0</title>
<path fill="none" stroke="green" d="M1305.55,-382.779C1293,-376.795 1274.71,-368.662 1258,-363.474 1191.77,-342.905 991.849,-305.447 946,-357.474 913.573,-394.27 911.189,-1999.62 911.014,-2233.24"/>
<polygon fill="green" stroke="green" points="907.514,-2233.31 911.007,-2243.31 914.514,-2233.32 907.514,-2233.31"/>
<text text-anchor="middle" x="1102" y="-343.274" font-family="Times,serif" font-size="14.00">check_seq_prev</text>
</g>
<!-- q16&#45;&gt;q0 -->
<g id="edge137" class="edge"><title>q16&#45;&gt;q0</title>
<path fill="none" stroke="green" d="M1308.67,-377.674C1296.76,-366.035 1277.66,-349.232 1258,-339.474 1195.85,-308.633 992.099,-275.617 946,-327.474 912.884,-364.726 911.089,-1997.17 911.003,-2233.16"/>
<polygon fill="green" stroke="green" points="907.503,-2233.33 911,-2243.33 914.503,-2233.33 907.503,-2233.33"/>
<text text-anchor="middle" x="1102" y="-313.274" font-family="Times,serif" font-size="14.00">Learn_Assert</text>
</g>
<!-- q16&#45;&gt;q15 -->
<g id="edge130" class="edge"><title>q16&#45;&gt;q15</title>
<path fill="none" stroke="green" d="M1336.2,-401.842C1365.08,-427.27 1434.76,-491.697 1478,-557.474 1502.66,-594.988 1521.77,-643.759 1532.19,-673.555"/>
<polygon fill="green" stroke="green" points="1528.96,-674.927 1535.51,-683.254 1535.58,-672.659 1528.96,-674.927"/>
<text text-anchor="middle" x="1432" y="-561.274" font-family="Times,serif" font-size="14.00">chain_node</text>
</g>
<!-- q17&#45;&gt;q0 -->
<g id="edge139" class="edge"><title>q17&#45;&gt;q0</title>
<path fill="none" stroke="green" d="M1089.35,-171.748C1077.64,-184.228 1058.43,-202.448 1038,-212.474 1000.52,-230.865 972.647,-199.331 946,-231.474 912.541,-271.833 911.043,-1991.25 910.998,-2233.28"/>
<polygon fill="green" stroke="green" points="907.499,-2233.38 910.997,-2243.38 914.499,-2233.38 907.499,-2233.38"/>
<text text-anchor="middle" x="992" y="-235.274" font-family="Times,serif" font-size="14.00">create_sll</text>
</g>
<!-- q17&#45;&gt;q0 -->
<g id="edge140" class="edge"><title>q17&#45;&gt;q0</title>
<path fill="none" stroke="green" d="M1084.47,-162.889C1071.79,-166.223 1053.84,-170.83 1038,-174.474 997.312,-183.837 972.642,-161.327 946,-193.474 911.904,-234.615 910.955,-1988 910.989,-2233.13"/>
<polygon fill="green" stroke="green" points="907.489,-2233.35 910.991,-2243.35 914.489,-2233.35 907.489,-2233.35"/>
<text text-anchor="middle" x="992" y="-197.274" font-family="Times,serif" font-size="14.00">init_back_link</text>
</g>
<!-- q17&#45;&gt;q0 -->
<g id="edge141" class="edge"><title>q17&#45;&gt;q0</title>
<path fill="none" stroke="green" d="M1084.21,-155.301C1048.16,-148.924 965.093,-136.695 946,-155.474 907.184,-193.65 910.301,-1984.31 910.921,-2232.94"/>
<polygon fill="green" stroke="green" points="907.422,-2233.31 910.948,-2243.3 914.422,-2233.29 907.422,-2233.31"/>
<text text-anchor="middle" x="992" y="-159.274" font-family="Times,serif" font-size="14.00">reverse_dll</text>
</g>
<!-- q17&#45;&gt;q0 -->
<g id="edge142" class="edge"><title>q17&#45;&gt;q0</title>
<path fill="none" stroke="green" d="M1086.71,-148.415C1056.3,-128.328 984.784,-88.3203 946,-126.474 906.615,-165.219 910.234,-1984.17 910.916,-2233.31"/>
<polygon fill="green" stroke="green" points="907.416,-2233.38 910.944,-2243.37 914.416,-2233.36 907.416,-2233.38"/>
<text text-anchor="middle" x="992" y="-130.274" font-family="Times,serif" font-size="14.00">remove_fw_link</text>
</g>
<!-- q17&#45;&gt;q0 -->
<g id="edge143" class="edge"><title>q17&#45;&gt;q0</title>
<path fill="none" stroke="green" d="M1091.89,-143.282C1081.25,-127.202 1062.03,-102.756 1038,-92.4738 1000.41,-76.3882 975.145,-63.7952 946,-92.4738 905.972,-131.861 910.154,-1981.66 910.908,-2233.25"/>
<polygon fill="green" stroke="green" points="907.408,-2233.41 910.939,-2243.4 914.408,-2233.39 907.408,-2233.41"/>
<text text-anchor="middle" x="992" y="-96.2738" font-family="Times,serif" font-size="14.00">check_seq_next</text>
</g>
<!-- q17&#45;&gt;q0 -->
<g id="edge144" class="edge"><title>q17&#45;&gt;q0</title>
<path fill="none" stroke="green" d="M1096.16,-141.267C1088.37,-117.259 1070.54,-74.621 1038,-56.4738 1002.29,-36.5573 975.141,-27.7913 946,-56.4738 905.292,-96.5408 910.069,-1978.96 910.9,-2233.18"/>
<polygon fill="green" stroke="green" points="907.401,-2233.44 910.935,-2243.43 914.401,-2233.41 907.401,-2233.44"/>
<text text-anchor="middle" x="992" y="-60.2738" font-family="Times,serif" font-size="14.00">check_seq_prev</text>
</g>
<!-- q17&#45;&gt;q0 -->
<g id="edge145" class="edge"><title>q17&#45;&gt;q0</title>
<path fill="none" stroke="green" d="M1098.96,-140.47C1094.37,-109.439 1080.09,-46.6067 1038,-19.4738 1003.63,2.68153 975.138,9.2125 946,-19.4738 904.593,-60.2394 909.983,-1976.2 910.892,-2233.1"/>
<polygon fill="green" stroke="green" points="907.394,-2233.46 910.93,-2243.45 914.393,-2233.44 907.394,-2233.46"/>
<text text-anchor="middle" x="992" y="-23.2738" font-family="Times,serif" font-size="14.00">Learn_Assert</text>
</g>
<!-- q17&#45;&gt;q16 -->
<g id="edge138" class="edge"><title>q17&#45;&gt;q16</title>
<path fill="none" stroke="green" d="M1120.19,-159.183C1151.77,-161.407 1219.31,-170.594 1258,-208.474 1300.79,-250.363 1314.54,-322.708 1318.94,-362.4"/>
<polygon fill="green" stroke="green" points="1315.47,-362.837 1319.93,-372.446 1322.44,-362.151 1315.47,-362.837"/>
<text text-anchor="middle" x="1212" y="-212.274" font-family="Times,serif" font-size="14.00">chain_node</text>
</g>
<!-- iq0 -->
<g id="node20" class="node"><title>iq0</title>
</g>
<!-- iq0&#45;&gt;q0 -->
<g id="edge1" class="edge"><title>iq0&#45;&gt;q0</title>
<path fill="none" stroke="blue" d="M409.12,-2132.45C499.751,-2129.41 799.212,-2123.77 874,-2178.47 891.679,-2191.41 900.489,-2215.03 904.844,-2233.78"/>
<polygon fill="blue" stroke="blue" points="901.417,-2234.49 906.833,-2243.59 908.277,-2233.1 901.417,-2234.49"/>
</g>
</g>
</svg>
