<?xml version="1.0" encoding="UTF-8" standalone="no"?>
<!DOCTYPE svg PUBLIC "-//W3C//DTD SVG 1.1//EN"
 "http://www.w3.org/Graphics/SVG/1.1/DTD/svg11.dtd">
<!-- Generated by graphviz version 2.34.0 (20141125.1709)
 -->
<!-- Title: finite_automaton Pages: 1 -->
<svg width="491pt" height="576pt"
 viewBox="0.00 0.00 490.88 576.00" xmlns="http://www.w3.org/2000/svg" xmlns:xlink="http://www.w3.org/1999/xlink">
<g id="graph0" class="graph" transform="scale(0.131463 0.131463) rotate(0) translate(4 4377.45)">
<title>finite_automaton</title>
<polygon fill="white" stroke="white" points="-4,4 -4,-4377.45 3730,-4377.45 3730,4 -4,4"/>
<!-- dom_edges -->
<g id="node1" class="node"><title>dom_edges</title>
<polygon fill="none" stroke="green" points="764,-1967.45 0,-1967.45 0,-1931.45 764,-1931.45 764,-1967.45"/>
<text text-anchor="middle" x="382" y="-1945.75" font-family="Times,serif" font-size="14.00">Dominating edges: chain_node, create_sll, init_back_link, reverse_dll, remove_fw_link, check_seq_next, check_seq_prev, Learn_Assert</text>
</g>
<!-- q1 -->
<g id="node2" class="node"><title>q1</title>
<ellipse fill="none" stroke="green" cx="382" cy="-2188.45" rx="18" ry="18"/>
<ellipse fill="none" stroke="green" cx="382" cy="-2188.45" rx="22" ry="22"/>
<text text-anchor="middle" x="382" y="-2184.75" font-family="Times,serif" font-size="14.00">D</text>
</g>
<!-- q0 -->
<g id="node3" class="node"><title>q0</title>
<ellipse fill="none" stroke="green" cx="910" cy="-2131.45" rx="18" ry="18"/>
<text text-anchor="middle" x="910" y="-2127.75" font-family="Times,serif" font-size="14.00">D</text>
</g>
<!-- q1&#45;&gt;q0 -->
<g id="edge10" class="edge"><title>q1&#45;&gt;q0</title>
<path fill="none" stroke="green" d="M400.526,-2200.43C469.324,-2245.83 724.453,-2398.94 874,-2280.45 892.657,-2265.67 902.342,-2198.6 906.475,-2159.67"/>
<polygon fill="green" stroke="green" points="909.98,-2159.81 907.497,-2149.51 903.015,-2159.11 909.98,-2159.81"/>
<text text-anchor="middle" x="828" y="-2321.25" font-family="Times,serif" font-size="14.00">chain_node</text>
</g>
<!-- q1&#45;&gt;q0 -->
<g id="edge11" class="edge"><title>q1&#45;&gt;q0</title>
<path fill="none" stroke="green" d="M403.748,-2192.38C492.258,-2208.9 835.487,-2270.69 874,-2242.45 899.636,-2223.66 906.982,-2186.04 908.835,-2159.84"/>
<polygon fill="green" stroke="green" points="912.337,-2159.89 909.322,-2149.73 905.345,-2159.55 912.337,-2159.89"/>
<text text-anchor="middle" x="828" y="-2253.25" font-family="Times,serif" font-size="14.00">create_sll</text>
</g>
<!-- q1&#45;&gt;q0 -->
<g id="edge12" class="edge"><title>q1&#45;&gt;q0</title>
<path fill="none" stroke="green" d="M403.961,-2190.5C492.588,-2198.98 833.852,-2229.73 874,-2204.45 889.709,-2194.56 898.525,-2175.45 903.379,-2159.26"/>
<polygon fill="green" stroke="green" points="906.874,-2159.73 906.029,-2149.17 900.103,-2157.95 906.874,-2159.73"/>
<text text-anchor="middle" x="828" y="-2217.25" font-family="Times,serif" font-size="14.00">init_back_link</text>
</g>
<!-- q1&#45;&gt;q0 -->
<g id="edge13" class="edge"><title>q1&#45;&gt;q0</title>
<path fill="none" stroke="green" d="M404.089,-2188.4C492.49,-2188.08 830.615,-2185.57 874,-2166.45 880.657,-2163.52 886.739,-2158.7 891.897,-2153.56"/>
<polygon fill="green" stroke="green" points="894.638,-2155.75 898.755,-2145.99 889.449,-2151.05 894.638,-2155.75"/>
<text text-anchor="middle" x="828" y="-2181.25" font-family="Times,serif" font-size="14.00">reverse_dll</text>
</g>
<!-- q1&#45;&gt;q0 -->
<g id="edge14" class="edge"><title>q1&#45;&gt;q0</title>
<path fill="none" stroke="green" d="M403.944,-2186.18C486.469,-2177.24 789.155,-2144.44 881.843,-2134.4"/>
<polygon fill="green" stroke="green" points="882.274,-2137.87 891.838,-2133.31 881.519,-2130.91 882.274,-2137.87"/>
<text text-anchor="middle" x="828" y="-2147.25" font-family="Times,serif" font-size="14.00">remove_fw_link</text>
</g>
<!-- q1&#45;&gt;q0 -->
<g id="edge15" class="edge"><title>q1&#45;&gt;q0</title>
<path fill="none" stroke="green" d="M403.587,-2183.32C462.238,-2168.99 635.423,-2128.75 782,-2115.45 822.722,-2111.76 834.047,-2106.75 874,-2115.45 877.501,-2116.22 881.071,-2117.36 884.527,-2118.69"/>
<polygon fill="green" stroke="green" points="883.254,-2121.96 893.816,-2122.79 886.08,-2115.55 883.254,-2121.96"/>
<text text-anchor="middle" x="828" y="-2119.25" font-family="Times,serif" font-size="14.00">check_seq_next</text>
</g>
<!-- q1&#45;&gt;q0 -->
<g id="edge16" class="edge"><title>q1&#45;&gt;q0</title>
<path fill="none" stroke="green" d="M403.033,-2181.77C460.914,-2162.87 633.711,-2109.22 782,-2091.45 822.599,-2086.59 836.765,-2074.56 874,-2091.45 881.799,-2094.99 888.543,-2101.22 893.973,-2107.73"/>
<polygon fill="green" stroke="green" points="891.327,-2110.03 900.127,-2115.93 896.927,-2105.83 891.327,-2110.03"/>
<text text-anchor="middle" x="828" y="-2095.25" font-family="Times,serif" font-size="14.00">check_seq_prev</text>
</g>
<!-- q1&#45;&gt;q0 -->
<g id="edge17" class="edge"><title>q1&#45;&gt;q0</title>
<path fill="none" stroke="green" d="M402.423,-2180.03C459.355,-2155.85 631.313,-2086.5 782,-2063.45 822.419,-2057.27 839.093,-2042.16 874,-2063.45 888.552,-2072.33 897.31,-2089.4 902.427,-2104.22"/>
<polygon fill="green" stroke="green" points="899.143,-2105.45 905.413,-2113.99 905.837,-2103.4 899.143,-2105.45"/>
<text text-anchor="middle" x="828" y="-2067.25" font-family="Times,serif" font-size="14.00">Learn_Assert</text>
</g>
<!-- q0&#45;&gt;q0 -->
<g id="edge2" class="edge"><title>q0&#45;&gt;q0</title>
<path fill="none" stroke="green" d="M907.881,-2149.61C907.555,-2158.99 908.261,-2167.45 910,-2167.45 911.06,-2167.45 911.736,-2164.31 912.029,-2159.73"/>
<polygon fill="green" stroke="green" points="915.53,-2159.64 912.119,-2149.61 908.53,-2159.57 915.53,-2159.64"/>
<text text-anchor="middle" x="910" y="-2171.25" font-family="Times,serif" font-size="14.00">chain_node</text>
</g>
<!-- q0&#45;&gt;q0 -->
<g id="edge4" class="edge"><title>q0&#45;&gt;q0</title>
<path fill="none" stroke="green" d="M906.509,-2149.15C904.581,-2166.45 905.744,-2185.45 910,-2185.45 913.424,-2185.45 914.847,-2173.15 914.267,-2159.33"/>
<polygon fill="green" stroke="green" points="917.741,-2158.86 913.491,-2149.15 910.762,-2159.39 917.741,-2158.86"/>
<text text-anchor="middle" x="910" y="-2189.25" font-family="Times,serif" font-size="14.00">init_back_link</text>
</g>
<!-- q0&#45;&gt;q0 -->
<g id="edge5" class="edge"><title>q0&#45;&gt;q0</title>
<path fill="none" stroke="green" d="M905.613,-2149.17C901.605,-2173.57 903.068,-2203.45 910,-2203.45 916.012,-2203.45 917.91,-2180.98 915.694,-2159.1"/>
<polygon fill="green" stroke="green" points="919.163,-2158.63 914.387,-2149.17 912.222,-2159.54 919.163,-2158.63"/>
<text text-anchor="middle" x="910" y="-2207.25" font-family="Times,serif" font-size="14.00">reverse_dll</text>
</g>
<!-- q0&#45;&gt;q0 -->
<g id="edge6" class="edge"><title>q0&#45;&gt;q0</title>
<path fill="none" stroke="green" d="M904.998,-2149.12C898.632,-2180.31 900.299,-2221.45 910,-2221.45 918.678,-2221.45 920.927,-2188.53 916.748,-2159.26"/>
<polygon fill="green" stroke="green" points="920.149,-2158.38 915.002,-2149.12 913.25,-2159.57 920.149,-2158.38"/>
<text text-anchor="middle" x="910" y="-2225.25" font-family="Times,serif" font-size="14.00">remove_fw_link</text>
</g>
<!-- q0&#45;&gt;q0 -->
<g id="edge7" class="edge"><title>q0&#45;&gt;q0</title>
<path fill="none" stroke="green" d="M904.63,-2148.73C895.655,-2186.52 897.445,-2239.45 910,-2239.45 921.476,-2239.45 923.958,-2195.23 917.446,-2158.77"/>
<polygon fill="green" stroke="green" points="920.823,-2157.82 915.37,-2148.73 913.968,-2159.24 920.823,-2157.82"/>
<text text-anchor="middle" x="910" y="-2243.25" font-family="Times,serif" font-size="14.00">check_seq_next</text>
</g>
<!-- q0&#45;&gt;q0 -->
<g id="edge8" class="edge"><title>q0&#45;&gt;q0</title>
<path fill="none" stroke="green" d="M904.312,-2148.63C892.695,-2192.85 894.591,-2257.45 910,-2257.45 924.296,-2257.45 926.961,-2201.85 917.995,-2158.5"/>
<polygon fill="green" stroke="green" points="921.371,-2157.57 915.688,-2148.63 914.555,-2159.16 921.371,-2157.57"/>
<text text-anchor="middle" x="910" y="-2261.25" font-family="Times,serif" font-size="14.00">check_seq_prev</text>
</g>
<!-- q0&#45;&gt;q0 -->
<g id="edge9" class="edge"><title>q0&#45;&gt;q0</title>
<path fill="none" stroke="green" d="M904.009,-2148.74C889.745,-2199.3 891.742,-2275.45 910,-2275.45 927.117,-2275.45 929.942,-2208.53 918.475,-2158.49"/>
<polygon fill="green" stroke="green" points="921.85,-2157.56 915.991,-2148.74 915.066,-2159.29 921.85,-2157.56"/>
<text text-anchor="middle" x="910" y="-2279.25" font-family="Times,serif" font-size="14.00">Learn_Assert</text>
</g>
<!-- q16 -->
<g id="node18" class="node"><title>q16</title>
<ellipse fill="none" stroke="green" cx="1102" cy="-157.453" rx="18" ry="18"/>
<text text-anchor="middle" x="1102" y="-153.753" font-family="Times,serif" font-size="14.00">D</text>
</g>
<!-- q0&#45;&gt;q16 -->
<g id="edge3" class="edge"><title>q0&#45;&gt;q16</title>
<path fill="none" stroke="green" d="M911.035,-2113.45C911.433,-1924.44 915.718,-310.494 946,-272.453 972.25,-239.478 1004.97,-275.639 1038,-249.453 1051.71,-238.585 1046.54,-229.164 1056,-214.453 1064.07,-201.903 1074.3,-188.773 1082.96,-178.283"/>
<polygon fill="green" stroke="green" points="1085.75,-180.405 1089.51,-170.497 1080.39,-175.902 1085.75,-180.405"/>
<text text-anchor="middle" x="992" y="-276.253" font-family="Times,serif" font-size="14.00">create_sll</text>
</g>
<!-- q2 -->
<g id="node4" class="node"><title>q2</title>
<ellipse fill="none" stroke="green" cx="3708" cy="-4198.45" rx="18" ry="18"/>
<text text-anchor="middle" x="3708" y="-4194.75" font-family="Times,serif" font-size="14.00">D</text>
</g>
<!-- q2&#45;&gt;q1 -->
<g id="edge25" class="edge"><title>q2&#45;&gt;q1</title>
<path fill="none" stroke="green" d="M3706.42,-4216.64C3704.64,-4241.84 3697.8,-4287.32 3672,-4314.45 3632,-4356.53 3607.06,-4358.45 3549,-4358.45 909,-4358.45 909,-4358.45 909,-4358.45 448.751,-4358.45 389.765,-2491.41 383.635,-2220.95"/>
<polygon fill="green" stroke="green" points="387.127,-2220.56 383.41,-2210.64 380.129,-2220.71 387.127,-2220.56"/>
<text text-anchor="middle" x="2418" y="-4362.25" font-family="Times,serif" font-size="14.00">Learn_Assert</text>
</g>
<!-- q2&#45;&gt;q0 -->
<g id="edge18" class="edge"><title>q2&#45;&gt;q0</title>
<path fill="none" stroke="green" d="M3705.15,-4216.28C3702.03,-4236.88 3693.74,-4270.28 3672,-4288.45 3629.27,-4324.18 3604.7,-4312.45 3549,-4312.45 1101,-4312.45 1101,-4312.45 1101,-4312.45 1031.29,-4312.45 991.792,-4341.01 946,-4288.45 909.333,-4246.37 910.607,-2411.21 910.954,-2159.87"/>
<polygon fill="green" stroke="green" points="914.454,-2159.72 910.969,-2149.72 907.454,-2159.71 914.454,-2159.72"/>
<text text-anchor="middle" x="2528" y="-4316.25" font-family="Times,serif" font-size="14.00">chain_node</text>
</g>
<!-- q2&#45;&gt;q0 -->
<g id="edge19" class="edge"><title>q2&#45;&gt;q0</title>
<path fill="none" stroke="green" d="M3700.02,-4215.12C3694.24,-4226.85 3684.88,-4241.91 3672,-4250.45 3625.58,-4281.23 3604.7,-4274.45 3549,-4274.45 1101,-4274.45 1101,-4274.45 1101,-4274.45 1031.29,-4274.45 991.8,-4303.01 946,-4250.45 909.992,-4209.14 910.694,-2408.15 910.963,-2159.75"/>
<polygon fill="green" stroke="green" points="914.463,-2159.72 910.974,-2149.71 907.463,-2159.71 914.463,-2159.72"/>
<text text-anchor="middle" x="2528" y="-4278.25" font-family="Times,serif" font-size="14.00">create_sll</text>
</g>
<!-- q2&#45;&gt;q0 -->
<g id="edge20" class="edge"><title>q2&#45;&gt;q0</title>
<path fill="none" stroke="green" d="M3691.19,-4205.51C3685.26,-4207.96 3678.4,-4210.57 3672,-4212.45 3618.57,-4228.2 3604.7,-4236.45 3549,-4236.45 1101,-4236.45 1101,-4236.45 1101,-4236.45 1031.29,-4236.45 991.808,-4265 946,-4212.45 910.667,-4171.92 910.782,-2406.76 910.971,-2159.99"/>
<polygon fill="green" stroke="green" points="914.471,-2159.7 910.98,-2149.7 907.471,-2159.69 914.471,-2159.7"/>
<text text-anchor="middle" x="2528" y="-4240.25" font-family="Times,serif" font-size="14.00">init_back_link</text>
</g>
<!-- q2&#45;&gt;q0 -->
<g id="edge21" class="edge"><title>q2&#45;&gt;q0</title>
<path fill="none" stroke="green" d="M3689.93,-4198.45C3660.96,-4198.45 3600.3,-4198.45 3549,-4198.45 1101,-4198.45 1101,-4198.45 1101,-4198.45 1031.29,-4198.45 991.816,-4226.99 946,-4174.45 911.324,-4134.69 910.872,-2403.53 910.98,-2159.84"/>
<polygon fill="green" stroke="green" points="914.48,-2159.67 910.986,-2149.67 907.48,-2159.67 914.48,-2159.67"/>
<text text-anchor="middle" x="2528" y="-4202.25" font-family="Times,serif" font-size="14.00">reverse_dll</text>
</g>
<!-- q2&#45;&gt;q0 -->
<g id="edge22" class="edge"><title>q2&#45;&gt;q0</title>
<path fill="none" stroke="green" d="M3691.15,-4192.01C3663.03,-4181.17 3602.32,-4160.45 3549,-4160.45 1101,-4160.45 1101,-4160.45 1101,-4160.45 1031.29,-4160.45 991.825,-4188.98 946,-4136.45 911.98,-4097.45 910.963,-2400.23 910.99,-2159.69"/>
<polygon fill="green" stroke="green" points="914.49,-2159.64 910.992,-2149.64 907.49,-2159.64 914.49,-2159.64"/>
<text text-anchor="middle" x="2528" y="-4164.25" font-family="Times,serif" font-size="14.00">remove_fw_link</text>
</g>
<!-- q2&#45;&gt;q0 -->
<g id="edge23" class="edge"><title>q2&#45;&gt;q0</title>
<path fill="none" stroke="green" d="M3697.26,-4183.61C3690.98,-4175.12 3682.11,-4164.91 3672,-4158.45 3623.99,-4127.79 3605.96,-4122.45 3549,-4122.45 1101,-4122.45 1101,-4122.45 1101,-4122.45 1031.29,-4122.45 991.834,-4150.98 946,-4098.45 912.652,-4060.24 911.057,-2398.51 911,-2159.87"/>
<polygon fill="green" stroke="green" points="914.5,-2159.6 910.998,-2149.6 907.5,-2159.6 914.5,-2159.6"/>
<text text-anchor="middle" x="2528" y="-4126.25" font-family="Times,serif" font-size="14.00">check_seq_next</text>
</g>
<!-- q2&#45;&gt;q0 -->
<g id="edge24" class="edge"><title>q2&#45;&gt;q0</title>
<path fill="none" stroke="green" d="M3703.73,-4180.77C3699.49,-4162.8 3690.34,-4135.39 3672,-4119.45 3629.1,-4082.17 3605.84,-4084.45 3549,-4084.45 1101,-4084.45 1101,-4084.45 1101,-4084.45 1029.01,-4084.45 989.414,-4094.87 946,-4037.45 916.39,-3998.29 911.599,-2393.24 911.059,-2159.68"/>
<polygon fill="green" stroke="green" points="914.559,-2159.6 911.036,-2149.61 907.559,-2159.62 914.559,-2159.6"/>
<text text-anchor="middle" x="2528" y="-4088.25" font-family="Times,serif" font-size="14.00">check_seq_prev</text>
</g>
<!-- q3 -->
<g id="node5" class="node"><title>q3</title>
<ellipse fill="none" stroke="green" cx="3548" cy="-3888.45" rx="18" ry="18"/>
<text text-anchor="middle" x="3548" y="-3884.75" font-family="Times,serif" font-size="14.00">D</text>
</g>
<!-- q3&#45;&gt;q0 -->
<g id="edge26" class="edge"><title>q3&#45;&gt;q0</title>
<path fill="none" stroke="green" d="M3546.67,-3906.43C3545.2,-3931.8 3538.75,-3977.96 3512,-4004.45 3470.23,-4045.83 3443.79,-4041.45 3385,-4041.45 1101,-4041.45 1101,-4041.45 1101,-4041.45 1030.18,-4041.45 990.4,-4059.63 946,-4004.45 915.784,-3966.9 911.515,-2392.04 911.05,-2159.91"/>
<polygon fill="green" stroke="green" points="914.549,-2159.59 911.03,-2149.6 907.549,-2159.6 914.549,-2159.59"/>
<text text-anchor="middle" x="2418" y="-4045.25" font-family="Times,serif" font-size="14.00">chain_node</text>
</g>
<!-- q3&#45;&gt;q0 -->
<g id="edge27" class="edge"><title>q3&#45;&gt;q0</title>
<path fill="none" stroke="green" d="M3541.97,-3905.56C3536.77,-3920.31 3527.25,-3941.12 3512,-3953.45 3466.29,-3990.43 3443.79,-3990.45 3385,-3990.45 1101,-3990.45 1101,-3990.45 1101,-3990.45 1030.18,-3990.45 990.415,-4008.62 946,-3953.45 916.627,-3916.97 911.646,-2388.12 911.065,-2159.84"/>
<polygon fill="green" stroke="green" points="914.565,-2159.68 911.04,-2149.68 907.565,-2159.69 914.565,-2159.68"/>
<text text-anchor="middle" x="2418" y="-3994.25" font-family="Times,serif" font-size="14.00">create_sll</text>
</g>
<!-- q3&#45;&gt;q0 -->
<g id="edge28" class="edge"><title>q3&#45;&gt;q0</title>
<path fill="none" stroke="green" d="M3531.86,-3896.65C3503.78,-3911.06 3441.32,-3939.45 3385,-3939.45 1101,-3939.45 1101,-3939.45 1101,-3939.45 1030.18,-3939.45 990.43,-3957.61 946,-3902.45 917.468,-3867.03 911.778,-2383.95 911.081,-2159.73"/>
<polygon fill="green" stroke="green" points="914.58,-2159.45 911.05,-2149.46 907.58,-2159.47 914.58,-2159.45"/>
<text text-anchor="middle" x="2418" y="-3943.25" font-family="Times,serif" font-size="14.00">init_back_link</text>
</g>
<!-- q3&#45;&gt;q0 -->
<g id="edge29" class="edge"><title>q3&#45;&gt;q0</title>
<path fill="none" stroke="green" d="M3529.97,-3888.45C3500.46,-3888.45 3437.88,-3888.45 3385,-3888.45 1101,-3888.45 1101,-3888.45 1101,-3888.45 1030.18,-3888.45 990.446,-3906.59 946,-3851.45 918.308,-3817.1 911.915,-2379.67 911.097,-2159.6"/>
<polygon fill="green" stroke="green" points="914.597,-2159.49 911.061,-2149.5 907.597,-2159.52 914.597,-2159.49"/>
<text text-anchor="middle" x="2418" y="-3892.25" font-family="Times,serif" font-size="14.00">reverse_dll</text>
</g>
<!-- q3&#45;&gt;q0 -->
<g id="edge30" class="edge"><title>q3&#45;&gt;q0</title>
<path fill="none" stroke="green" d="M3531.86,-3880.26C3503.78,-3865.84 3441.32,-3837.45 3385,-3837.45 1101,-3837.45 1101,-3837.45 1101,-3837.45 1030.18,-3837.45 990.463,-3855.58 946,-3800.45 919.16,-3767.18 912.061,-2376.6 911.116,-2159.75"/>
<polygon fill="green" stroke="green" points="914.615,-2159.51 911.072,-2149.52 907.615,-2159.54 914.615,-2159.51"/>
<text text-anchor="middle" x="2418" y="-3841.25" font-family="Times,serif" font-size="14.00">remove_fw_link</text>
</g>
<!-- q3&#45;&gt;q0 -->
<g id="edge31" class="edge"><title>q3&#45;&gt;q0</title>
<path fill="none" stroke="green" d="M3539.53,-3872.46C3533.5,-3861.07 3524.05,-3846.13 3512,-3836.45 3464.71,-3798.46 3445.66,-3786.45 3385,-3786.45 1101,-3786.45 1101,-3786.45 1101,-3786.45 1030.18,-3786.45 990.482,-3804.57 946,-3749.45 919.996,-3717.23 912.203,-2371.91 911.134,-2159.55"/>
<polygon fill="green" stroke="green" points="914.634,-2159.5 911.084,-2149.51 907.634,-2159.53 914.634,-2159.5"/>
<text text-anchor="middle" x="2418" y="-3790.25" font-family="Times,serif" font-size="14.00">check_seq_next</text>
</g>
<!-- q3&#45;&gt;q0 -->
<g id="edge33" class="edge"><title>q3&#45;&gt;q0</title>
<path fill="none" stroke="green" d="M3545.54,-3870.25C3542.76,-3847.39 3534.79,-3808.26 3512,-3784.45 3470.16,-3740.75 3445.5,-3735.45 3385,-3735.45 1101,-3735.45 1101,-3735.45 1101,-3735.45 1029.74,-3735.45 990.099,-3750.43 946,-3694.45 921.286,-3663.08 912.428,-2367.69 911.163,-2159.54"/>
<polygon fill="green" stroke="green" points="914.662,-2159.41 911.103,-2149.43 907.663,-2159.45 914.662,-2159.41"/>
<text text-anchor="middle" x="2418" y="-3739.25" font-family="Times,serif" font-size="14.00">Learn_Assert</text>
</g>
<!-- q3&#45;&gt;q2 -->
<g id="edge32" class="edge"><title>q3&#45;&gt;q2</title>
<path fill="none" stroke="green" d="M3561.18,-3901.14C3585.89,-3927.59 3642.1,-3991.52 3672,-4055.45 3689.65,-4093.19 3699.01,-4140.84 3703.48,-4170.48"/>
<polygon fill="green" stroke="green" points="3700.04,-4171.13 3704.92,-4180.54 3706.97,-4170.14 3700.04,-4171.13"/>
<text text-anchor="middle" x="3628" y="-4059.25" font-family="Times,serif" font-size="14.00">check_seq_prev</text>
</g>
<!-- q4 -->
<g id="node6" class="node"><title>q4</title>
<ellipse fill="none" stroke="green" cx="3384" cy="-3575.45" rx="18" ry="18"/>
<text text-anchor="middle" x="3384" y="-3571.75" font-family="Times,serif" font-size="14.00">D</text>
</g>
<!-- q4&#45;&gt;q0 -->
<g id="edge34" class="edge"><title>q4&#45;&gt;q0</title>
<path fill="none" stroke="green" d="M3381.15,-3593.28C3378.03,-3613.88 3369.74,-3647.28 3348,-3665.45 3305.27,-3701.18 3280.7,-3689.45 3225,-3689.45 1101,-3689.45 1101,-3689.45 1101,-3689.45 1031.29,-3689.45 991.965,-3717.86 946,-3665.45 920.183,-3636.02 912.263,-2366.17 911.145,-2159.69"/>
<polygon fill="green" stroke="green" points="914.644,-2159.62 911.091,-2149.64 907.645,-2159.66 914.644,-2159.62"/>
<text text-anchor="middle" x="2310" y="-3693.25" font-family="Times,serif" font-size="14.00">chain_node</text>
</g>
<!-- q4&#45;&gt;q0 -->
<g id="edge35" class="edge"><title>q4&#45;&gt;q0</title>
<path fill="none" stroke="green" d="M3376.02,-3592.12C3370.24,-3603.85 3360.88,-3618.91 3348,-3627.45 3301.58,-3658.23 3280.7,-3651.45 3225,-3651.45 1101,-3651.45 1101,-3651.45 1101,-3651.45 1031.29,-3651.45 991.98,-3679.85 946,-3627.45 920.839,-3598.78 912.383,-2362.88 911.161,-2159.61"/>
<polygon fill="green" stroke="green" points="914.66,-2159.43 911.101,-2149.45 907.66,-2159.47 914.66,-2159.43"/>
<text text-anchor="middle" x="2310" y="-3655.25" font-family="Times,serif" font-size="14.00">create_sll</text>
</g>
<!-- q4&#45;&gt;q0 -->
<g id="edge36" class="edge"><title>q4&#45;&gt;q0</title>
<path fill="none" stroke="green" d="M3367.19,-3582.51C3361.26,-3584.96 3354.4,-3587.57 3348,-3589.45 3294.57,-3605.2 3280.7,-3613.45 3225,-3613.45 1101,-3613.45 1101,-3613.45 1101,-3613.45 1031.29,-3613.45 991.996,-3641.83 946,-3589.45 921.495,-3561.55 912.505,-2359.52 911.178,-2159.52"/>
<polygon fill="green" stroke="green" points="914.678,-2159.49 911.112,-2149.51 907.678,-2159.53 914.678,-2159.49"/>
<text text-anchor="middle" x="2310" y="-3617.25" font-family="Times,serif" font-size="14.00">init_back_link</text>
</g>
<!-- q4&#45;&gt;q0 -->
<g id="edge37" class="edge"><title>q4&#45;&gt;q0</title>
<path fill="none" stroke="green" d="M3365.93,-3575.45C3336.96,-3575.45 3276.3,-3575.45 3225,-3575.45 1101,-3575.45 1101,-3575.45 1101,-3575.45 1031.29,-3575.45 992.013,-3603.82 946,-3551.45 922.162,-3524.32 912.639,-2357.19 911.198,-2159.7"/>
<polygon fill="green" stroke="green" points="914.697,-2159.52 911.124,-2149.55 907.697,-2159.57 914.697,-2159.52"/>
<text text-anchor="middle" x="2310" y="-3579.25" font-family="Times,serif" font-size="14.00">reverse_dll</text>
</g>
<!-- q4&#45;&gt;q0 -->
<g id="edge39" class="edge"><title>q4&#45;&gt;q0</title>
<path fill="none" stroke="green" d="M3367.15,-3569.01C3339.03,-3558.17 3278.32,-3537.45 3225,-3537.45 1101,-3537.45 1101,-3537.45 1101,-3537.45 1031.29,-3537.45 992.031,-3565.8 946,-3513.45 922.826,-3487.1 912.777,-2354.65 911.218,-2159.84"/>
<polygon fill="green" stroke="green" points="914.716,-2159.54 911.137,-2149.57 907.716,-2159.6 914.716,-2159.54"/>
<text text-anchor="middle" x="2310" y="-3541.25" font-family="Times,serif" font-size="14.00">check_seq_next</text>
</g>
<!-- q4&#45;&gt;q0 -->
<g id="edge40" class="edge"><title>q4&#45;&gt;q0</title>
<path fill="none" stroke="green" d="M3373.26,-3560.61C3366.98,-3552.12 3358.11,-3541.91 3348,-3535.45 3299.99,-3504.79 3281.96,-3499.45 3225,-3499.45 1101,-3499.45 1101,-3499.45 1101,-3499.45 1031.29,-3499.45 992.05,-3527.79 946,-3475.45 923.477,-3449.86 912.907,-2350.82 911.238,-2159.66"/>
<polygon fill="green" stroke="green" points="914.737,-2159.53 911.15,-2149.56 907.737,-2159.59 914.737,-2159.53"/>
<text text-anchor="middle" x="2310" y="-3503.25" font-family="Times,serif" font-size="14.00">check_seq_prev</text>
</g>
<!-- q4&#45;&gt;q0 -->
<g id="edge41" class="edge"><title>q4&#45;&gt;q0</title>
<path fill="none" stroke="green" d="M3379.73,-3557.77C3375.49,-3539.8 3366.34,-3512.39 3348,-3496.45 3305.1,-3459.17 3281.84,-3461.45 3225,-3461.45 1101,-3461.45 1101,-3461.45 1101,-3461.45 1029.01,-3461.45 989.67,-3471.68 946,-3414.45 906.673,-3362.92 909.925,-2344.59 910.84,-2160.01"/>
<polygon fill="green" stroke="green" points="914.342,-2159.78 910.893,-2149.76 907.342,-2159.74 914.342,-2159.78"/>
<text text-anchor="middle" x="2310" y="-3465.25" font-family="Times,serif" font-size="14.00">Learn_Assert</text>
</g>
<!-- q4&#45;&gt;q3 -->
<g id="edge38" class="edge"><title>q4&#45;&gt;q3</title>
<path fill="none" stroke="green" d="M3399.16,-3585.5C3425.92,-3605.31 3483.77,-3652.22 3512,-3706.45 3537.96,-3756.33 3544.79,-3822.92 3546.51,-3860.16"/>
<polygon fill="green" stroke="green" points="3543.01,-3860.43 3546.88,-3870.29 3550.01,-3860.17 3543.01,-3860.43"/>
<text text-anchor="middle" x="3466" y="-3710.25" font-family="Times,serif" font-size="14.00">remove_fw_link</text>
</g>
<!-- q5 -->
<g id="node7" class="node"><title>q5</title>
<ellipse fill="none" stroke="green" cx="3224" cy="-3265.45" rx="18" ry="18"/>
<text text-anchor="middle" x="3224" y="-3261.75" font-family="Times,serif" font-size="14.00">D</text>
</g>
<!-- q5&#45;&gt;q0 -->
<g id="edge42" class="edge"><title>q5&#45;&gt;q0</title>
<path fill="none" stroke="green" d="M3222.61,-3283.83C3221.06,-3309.24 3214.49,-3354.99 3188,-3381.45 3147.62,-3421.8 3122.09,-3418.45 3065,-3418.45 1101,-3418.45 1101,-3418.45 1101,-3418.45 1030.18,-3418.45 990.657,-3436.42 946,-3381.45 906.217,-3332.48 909.827,-2341.42 910.825,-2159.88"/>
<polygon fill="green" stroke="green" points="914.325,-2159.8 910.882,-2149.78 907.325,-2159.76 914.325,-2159.8"/>
<text text-anchor="middle" x="2202" y="-3422.25" font-family="Times,serif" font-size="14.00">chain_node</text>
</g>
<!-- q5&#45;&gt;q0 -->
<g id="edge43" class="edge"><title>q5&#45;&gt;q0</title>
<path fill="none" stroke="green" d="M3217.94,-3282.53C3212.73,-3297.26 3203.19,-3318.05 3188,-3330.45 3143.77,-3366.55 3122.09,-3367.45 3065,-3367.45 1101,-3367.45 1101,-3367.45 1101,-3367.45 1030.18,-3367.45 990.689,-3385.4 946,-3330.45 907.87,-3283.57 910.113,-2335.8 910.862,-2159.54"/>
<polygon fill="green" stroke="green" points="914.362,-2159.51 910.906,-2149.5 907.362,-2159.48 914.362,-2159.51"/>
<text text-anchor="middle" x="2202" y="-3371.25" font-family="Times,serif" font-size="14.00">create_sll</text>
</g>
<!-- q5&#45;&gt;q0 -->
<g id="edge44" class="edge"><title>q5&#45;&gt;q0</title>
<path fill="none" stroke="green" d="M3207.83,-3273.87C3180.27,-3288.36 3119.77,-3316.45 3065,-3316.45 1101,-3316.45 1101,-3316.45 1101,-3316.45 1030.18,-3316.45 990.725,-3334.37 946,-3279.45 909.557,-3234.71 910.405,-2331.84 910.899,-2159.68"/>
<polygon fill="green" stroke="green" points="914.399,-2159.64 910.93,-2149.63 907.399,-2159.61 914.399,-2159.64"/>
<text text-anchor="middle" x="2202" y="-3320.25" font-family="Times,serif" font-size="14.00">init_back_link</text>
</g>
<!-- q5&#45;&gt;q0 -->
<g id="edge45" class="edge"><title>q5&#45;&gt;q0</title>
<path fill="none" stroke="green" d="M3205.93,-3265.45C3176.96,-3265.45 3116.3,-3265.45 3065,-3265.45 1101,-3265.45 1101,-3265.45 1101,-3265.45 1030.18,-3265.45 990.764,-3283.34 946,-3228.45 911.235,-3185.83 910.71,-2327.44 910.941,-2159.73"/>
<polygon fill="green" stroke="green" points="914.441,-2159.7 910.957,-2149.7 907.441,-2159.69 914.441,-2159.7"/>
<text text-anchor="middle" x="2202" y="-3269.25" font-family="Times,serif" font-size="14.00">reverse_dll</text>
</g>
<!-- q5&#45;&gt;q0 -->
<g id="edge46" class="edge"><title>q5&#45;&gt;q0</title>
<path fill="none" stroke="green" d="M3207.83,-3257.03C3180.27,-3242.55 3119.77,-3214.45 3065,-3214.45 1101,-3214.45 1101,-3214.45 1101,-3214.45 1030.18,-3214.45 990.807,-3232.3 946,-3177.45 912.922,-3136.96 911.032,-2323.43 910.987,-2159.93"/>
<polygon fill="green" stroke="green" points="914.487,-2159.7 910.986,-2149.7 907.487,-2159.7 914.487,-2159.7"/>
<text text-anchor="middle" x="2202" y="-3218.25" font-family="Times,serif" font-size="14.00">remove_fw_link</text>
</g>
<!-- q5&#45;&gt;q0 -->
<g id="edge48" class="edge"><title>q5&#45;&gt;q0</title>
<path fill="none" stroke="green" d="M3215.49,-3249.5C3209.45,-3238.13 3199.99,-3223.2 3188,-3213.45 3142.2,-3176.25 3124.01,-3163.45 3065,-3163.45 1101,-3163.45 1101,-3163.45 1101,-3163.45 1030.18,-3163.45 990.853,-3181.26 946,-3126.45 914.598,-3088.08 911.37,-2318.89 911.038,-2160.01"/>
<polygon fill="green" stroke="green" points="914.537,-2159.64 911.019,-2149.65 907.537,-2159.65 914.537,-2159.64"/>
<text text-anchor="middle" x="2202" y="-3167.25" font-family="Times,serif" font-size="14.00">check_seq_prev</text>
</g>
<!-- q5&#45;&gt;q0 -->
<g id="edge49" class="edge"><title>q5&#45;&gt;q0</title>
<path fill="none" stroke="green" d="M3221.49,-3247.29C3218.68,-3224.47 3210.66,-3185.38 3188,-3161.45 3147.54,-3118.73 3123.84,-3112.45 3065,-3112.45 1101,-3112.45 1101,-3112.45 1101,-3112.45 1030.28,-3112.45 991.007,-3131.01 946,-3076.45 916.093,-3040.2 911.685,-2312.61 911.088,-2159.55"/>
<polygon fill="green" stroke="green" points="914.588,-2159.53 911.051,-2149.54 907.588,-2159.56 914.588,-2159.53"/>
<text text-anchor="middle" x="2202" y="-3116.25" font-family="Times,serif" font-size="14.00">Learn_Assert</text>
</g>
<!-- q5&#45;&gt;q4 -->
<g id="edge47" class="edge"><title>q5&#45;&gt;q4</title>
<path fill="none" stroke="green" d="M3237.18,-3278.14C3261.89,-3304.59 3318.1,-3368.52 3348,-3432.45 3365.65,-3470.19 3375.01,-3517.84 3379.48,-3547.48"/>
<polygon fill="green" stroke="green" points="3376.04,-3548.13 3380.92,-3557.54 3382.97,-3547.14 3376.04,-3548.13"/>
<text text-anchor="middle" x="3304" y="-3436.25" font-family="Times,serif" font-size="14.00">check_seq_next</text>
</g>
<!-- q6 -->
<g id="node8" class="node"><title>q6</title>
<ellipse fill="none" stroke="green" cx="3064" cy="-2952.45" rx="18" ry="18"/>
<text text-anchor="middle" x="3064" y="-2948.75" font-family="Times,serif" font-size="14.00">D</text>
</g>
<!-- q6&#45;&gt;q0 -->
<g id="edge50" class="edge"><title>q6&#45;&gt;q0</title>
<path fill="none" stroke="green" d="M3060.93,-2970.45C3057.62,-2990.91 3049.15,-3023.86 3028,-3042.45 2994.65,-3071.78 2975.41,-3066.45 2931,-3066.45 2309,-3066.45 2309,-3066.45 2309,-3066.45 2115.21,-3066.45 2066.79,-3071.45 1873,-3071.45 1101,-3071.45 1101,-3071.45 1101,-3071.45 1031.29,-3071.45 992.367,-3099.51 946,-3047.45 915.794,-3013.54 911.628,-2311.7 911.08,-2160.14"/>
<polygon fill="green" stroke="green" points="914.579,-2159.8 911.045,-2149.81 907.579,-2159.83 914.579,-2159.8"/>
<text text-anchor="middle" x="2092" y="-3073.25" font-family="Times,serif" font-size="14.00">chain_node</text>
</g>
<!-- q6&#45;&gt;q0 -->
<g id="edge51" class="edge"><title>q6&#45;&gt;q0</title>
<path fill="none" stroke="green" d="M3055.89,-2968.93C3050.05,-2980.56 3040.66,-2995.59 3028,-3004.45 2991.61,-3029.91 2975.41,-3028.45 2931,-3028.45 2309,-3028.45 2309,-3028.45 2309,-3028.45 2115.21,-3028.45 2066.79,-3033.45 1873,-3033.45 1101,-3033.45 1101,-3033.45 1101,-3033.45 1031.29,-3033.45 992.41,-3061.47 946,-3009.45 917.078,-2977.04 911.914,-2307 911.128,-2159.86"/>
<polygon fill="green" stroke="green" points="914.626,-2159.43 911.075,-2149.44 907.626,-2159.46 914.626,-2159.43"/>
<text text-anchor="middle" x="2092" y="-3035.25" font-family="Times,serif" font-size="14.00">create_sll</text>
</g>
<!-- q6&#45;&gt;q0 -->
<g id="edge52" class="edge"><title>q6&#45;&gt;q0</title>
<path fill="none" stroke="green" d="M3047.57,-2959.96C3023.34,-2971.03 2974.64,-2990.45 2931,-2990.45 2309,-2990.45 2309,-2990.45 2309,-2990.45 2115.21,-2990.45 2066.79,-2995.45 1873,-2995.45 1101,-2995.45 1101,-2995.45 1101,-2995.45 1031.29,-2995.45 992.457,-3023.43 946,-2971.45 918.359,-2940.53 912.209,-2302.15 911.179,-2159.54"/>
<polygon fill="green" stroke="green" points="914.678,-2159.4 911.108,-2149.42 907.678,-2159.45 914.678,-2159.4"/>
<text text-anchor="middle" x="2092" y="-2997.25" font-family="Times,serif" font-size="14.00">init_back_link</text>
</g>
<!-- q6&#45;&gt;q0 -->
<g id="edge53" class="edge"><title>q6&#45;&gt;q0</title>
<path fill="none" stroke="green" d="M3045.91,-2952.45C3020.75,-2952.45 2972.25,-2952.45 2931,-2952.45 2201,-2952.45 2201,-2952.45 2201,-2952.45 2055.21,-2952.45 2018.79,-2957.45 1873,-2957.45 1101,-2957.45 1101,-2957.45 1101,-2957.45 1031.29,-2957.45 992.508,-2985.38 946,-2933.45 919.69,-2904.08 912.543,-2299.56 911.241,-2160.02"/>
<polygon fill="green" stroke="green" points="914.738,-2159.69 911.148,-2149.72 907.738,-2159.76 914.738,-2159.69"/>
<text text-anchor="middle" x="2092" y="-2958.25" font-family="Times,serif" font-size="14.00">reverse_dll</text>
</g>
<!-- q6&#45;&gt;q0 -->
<g id="edge54" class="edge"><title>q6&#45;&gt;q0</title>
<path fill="none" stroke="green" d="M3047.57,-2944.95C3023.34,-2933.87 2974.64,-2914.45 2931,-2914.45 2201,-2914.45 2201,-2914.45 2201,-2914.45 2055.21,-2914.45 2018.79,-2919.45 1873,-2919.45 1101,-2919.45 1101,-2919.45 1101,-2919.45 1031.29,-2919.45 992.564,-2947.33 946,-2895.45 920.983,-2867.58 912.875,-2295.23 911.304,-2159.94"/>
<polygon fill="green" stroke="green" points="914.8,-2159.54 911.187,-2149.58 907.801,-2159.62 914.8,-2159.54"/>
<text text-anchor="middle" x="2092" y="-2920.25" font-family="Times,serif" font-size="14.00">remove_fw_link</text>
</g>
<!-- q6&#45;&gt;q0 -->
<g id="edge55" class="edge"><title>q6&#45;&gt;q0</title>
<path fill="none" stroke="green" d="M3052.7,-2937.9C3046.35,-2929.8 3037.6,-2920.05 3028,-2913.45 2989.97,-2887.33 2977.14,-2876.45 2931,-2876.45 2201,-2876.45 2201,-2876.45 2201,-2876.45 2055.21,-2876.45 2018.79,-2881.45 1873,-2881.45 1101,-2881.45 1101,-2881.45 1101,-2881.45 1031.29,-2881.45 992.626,-2909.27 946,-2857.45 922.27,-2831.08 913.22,-2290.6 911.373,-2159.78"/>
<polygon fill="green" stroke="green" points="914.872,-2159.69 911.234,-2149.74 907.873,-2159.79 914.872,-2159.69"/>
<text text-anchor="middle" x="2092" y="-2882.25" font-family="Times,serif" font-size="14.00">check_seq_next</text>
</g>
<!-- q6&#45;&gt;q0 -->
<g id="edge57" class="edge"><title>q6&#45;&gt;q0</title>
<path fill="none" stroke="green" d="M3059.15,-2934.88C3054.51,-2917.6 3045.12,-2891.54 3028,-2875.45 2994.37,-2843.86 2977.14,-2838.45 2931,-2838.45 2201,-2838.45 2201,-2838.45 2201,-2838.45 2055.21,-2838.45 2018.79,-2843.45 1873,-2843.45 1101,-2843.45 1101,-2843.45 1101,-2843.45 1029.01,-2843.45 990.39,-2853.12 946,-2796.45 926.082,-2771.03 914.265,-2283.11 911.586,-2159.65"/>
<polygon fill="green" stroke="green" points="915.082,-2159.41 911.368,-2149.49 908.083,-2159.56 915.082,-2159.41"/>
<text text-anchor="middle" x="2092" y="-2844.25" font-family="Times,serif" font-size="14.00">Learn_Assert</text>
</g>
<!-- q6&#45;&gt;q5 -->
<g id="edge56" class="edge"><title>q6&#45;&gt;q5</title>
<path fill="none" stroke="green" d="M3079.11,-2962.92C3105.2,-2983.09 3160.77,-3030.1 3188,-3083.45 3213.56,-3133.53 3220.54,-3200.05 3222.39,-3237.23"/>
<polygon fill="green" stroke="green" points="3218.89,-3237.48 3222.8,-3247.33 3225.89,-3237.2 3218.89,-3237.48"/>
<text text-anchor="middle" x="3144" y="-3087.25" font-family="Times,serif" font-size="14.00">check_seq_prev</text>
</g>
<!-- q7 -->
<g id="node9" class="node"><title>q7</title>
<ellipse fill="none" stroke="green" cx="2930" cy="-2647.45" rx="18" ry="18"/>
<text text-anchor="middle" x="2930" y="-2643.75" font-family="Times,serif" font-size="14.00">D</text>
</g>
<!-- q7&#45;&gt;q0 -->
<g id="edge58" class="edge"><title>q7&#45;&gt;q0</title>
<path fill="none" stroke="green" d="M2928.61,-2665.83C2927.06,-2691.24 2920.49,-2736.99 2894,-2763.45 2853.62,-2803.8 2828.09,-2800.45 2771,-2800.45 1101,-2800.45 1101,-2800.45 1101,-2800.45 1030.18,-2800.45 991.404,-2817.81 946,-2763.45 906.929,-2716.68 909.291,-2276.37 910.616,-2159.7"/>
<polygon fill="green" stroke="green" points="914.119,-2159.49 910.74,-2149.45 907.12,-2159.41 914.119,-2159.49"/>
<text text-anchor="middle" x="1982" y="-2804.25" font-family="Times,serif" font-size="14.00">chain_node</text>
</g>
<!-- q7&#45;&gt;q0 -->
<g id="edge59" class="edge"><title>q7&#45;&gt;q0</title>
<path fill="none" stroke="green" d="M2923.94,-2664.53C2918.73,-2679.26 2909.19,-2700.05 2894,-2712.45 2849.77,-2748.55 2828.09,-2749.45 2771,-2749.45 1101,-2749.45 1101,-2749.45 1101,-2749.45 1030.18,-2749.45 991.535,-2766.7 946,-2712.45 910.2,-2669.81 910.101,-2269.91 910.766,-2159.55"/>
<polygon fill="green" stroke="green" points="914.266,-2159.53 910.833,-2149.51 907.266,-2159.48 914.266,-2159.53"/>
<text text-anchor="middle" x="1982" y="-2753.25" font-family="Times,serif" font-size="14.00">create_sll</text>
</g>
<!-- q7&#45;&gt;q0 -->
<g id="edge60" class="edge"><title>q7&#45;&gt;q0</title>
<path fill="none" stroke="green" d="M2913.83,-2655.87C2886.27,-2670.36 2825.77,-2698.45 2771,-2698.45 1101,-2698.45 1101,-2698.45 1101,-2698.45 1030.18,-2698.45 991.692,-2715.57 946,-2661.45 913.5,-2622.96 910.982,-2264.02 910.941,-2159.74"/>
<polygon fill="green" stroke="green" points="914.441,-2159.65 910.945,-2149.65 907.441,-2159.65 914.441,-2159.65"/>
<text text-anchor="middle" x="1982" y="-2702.25" font-family="Times,serif" font-size="14.00">init_back_link</text>
</g>
<!-- q7&#45;&gt;q0 -->
<g id="edge62" class="edge"><title>q7&#45;&gt;q0</title>
<path fill="none" stroke="green" d="M2911.93,-2647.45C2882.96,-2647.45 2822.3,-2647.45 2771,-2647.45 1101,-2647.45 1101,-2647.45 1101,-2647.45 1030.18,-2647.45 991.881,-2664.41 946,-2610.45 916.776,-2576.09 911.95,-2257.52 911.156,-2159.81"/>
<polygon fill="green" stroke="green" points="914.653,-2159.5 911.081,-2149.53 907.654,-2159.55 914.653,-2159.5"/>
<text text-anchor="middle" x="1982" y="-2651.25" font-family="Times,serif" font-size="14.00">remove_fw_link</text>
</g>
<!-- q7&#45;&gt;q0 -->
<g id="edge63" class="edge"><title>q7&#45;&gt;q0</title>
<path fill="none" stroke="green" d="M2913.83,-2639.03C2886.27,-2624.55 2825.77,-2596.45 2771,-2596.45 1101,-2596.45 1101,-2596.45 1101,-2596.45 1031.07,-2596.45 993.101,-2621.14 946,-2569.45 918.442,-2539.21 912.493,-2252.07 911.288,-2159.83"/>
<polygon fill="green" stroke="green" points="914.785,-2159.54 911.164,-2149.58 907.786,-2159.62 914.785,-2159.54"/>
<text text-anchor="middle" x="1982" y="-2600.25" font-family="Times,serif" font-size="14.00">check_seq_next</text>
</g>
<!-- q7&#45;&gt;q0 -->
<g id="edge64" class="edge"><title>q7&#45;&gt;q0</title>
<path fill="none" stroke="green" d="M2921.49,-2631.5C2915.45,-2620.13 2905.99,-2605.2 2894,-2595.45 2848.2,-2558.25 2830.01,-2545.45 2771,-2545.45 2091,-2545.45 2091,-2545.45 2091,-2545.45 1896.28,-2545.45 1847.72,-2555.45 1653,-2555.45 1101,-2555.45 1101,-2555.45 1101,-2555.45 1031.29,-2555.45 993.63,-2582.35 946,-2531.45 920.678,-2504.39 913.274,-2246.28 911.493,-2159.64"/>
<polygon fill="green" stroke="green" points="914.989,-2159.43 911.294,-2149.5 907.99,-2159.57 914.989,-2159.43"/>
<text text-anchor="middle" x="1982" y="-2551.25" font-family="Times,serif" font-size="14.00">check_seq_prev</text>
</g>
<!-- q7&#45;&gt;q0 -->
<g id="edge65" class="edge"><title>q7&#45;&gt;q0</title>
<path fill="none" stroke="green" d="M2927.49,-2629.29C2924.68,-2606.47 2916.66,-2567.38 2894,-2543.45 2853.54,-2500.73 2829.84,-2494.45 2771,-2494.45 2091,-2494.45 2091,-2494.45 2091,-2494.45 1896.07,-2494.45 1847.93,-2517.45 1653,-2517.45 1101,-2517.45 1101,-2517.45 1101,-2517.45 1030.57,-2517.45 992.966,-2536.94 946,-2484.45 924.477,-2460.4 914.734,-2239.02 911.91,-2159.62"/>
<polygon fill="green" stroke="green" points="915.4,-2159.27 911.557,-2149.4 908.404,-2159.51 915.4,-2159.27"/>
<text text-anchor="middle" x="1982" y="-2503.25" font-family="Times,serif" font-size="14.00">Learn_Assert</text>
</g>
<!-- q7&#45;&gt;q6 -->
<g id="edge61" class="edge"><title>q7&#45;&gt;q6</title>
<path fill="none" stroke="green" d="M2941.36,-2661.42C2961.04,-2688.57 3003.96,-2750.93 3028,-2809.45 3043.83,-2847.99 3053.69,-2895.42 3058.76,-2924.8"/>
<polygon fill="green" stroke="green" points="3055.33,-2925.46 3060.42,-2934.76 3062.23,-2924.32 3055.33,-2925.46"/>
<text text-anchor="middle" x="2997" y="-2813.25" font-family="Times,serif" font-size="14.00">reverse_dll</text>
</g>
<!-- q8 -->
<g id="node10" class="node"><title>q8</title>
<ellipse fill="none" stroke="green" cx="2770" cy="-2334.45" rx="18" ry="18"/>
<text text-anchor="middle" x="2770" y="-2330.75" font-family="Times,serif" font-size="14.00">D</text>
</g>
<!-- q8&#45;&gt;q0 -->
<g id="edge66" class="edge"><title>q8&#45;&gt;q0</title>
<path fill="none" stroke="green" d="M2767.15,-2352.28C2764.03,-2372.88 2755.74,-2406.28 2734,-2424.45 2691.27,-2460.18 2666.7,-2448.45 2611,-2448.45 2091,-2448.45 2091,-2448.45 2091,-2448.45 1944.57,-2448.45 1909.43,-2479.45 1763,-2479.45 1101,-2479.45 1101,-2479.45 1101,-2479.45 1031.29,-2479.45 994.145,-2505.87 946,-2455.45 925.749,-2434.25 915.345,-2234.92 912.119,-2159.86"/>
<polygon fill="green" stroke="green" points="915.61,-2159.57 911.695,-2149.72 908.616,-2159.86 915.61,-2159.57"/>
<text text-anchor="middle" x="1872" y="-2480.25" font-family="Times,serif" font-size="14.00">chain_node</text>
</g>
<!-- q8&#45;&gt;q0 -->
<g id="edge67" class="edge"><title>q8&#45;&gt;q0</title>
<path fill="none" stroke="green" d="M2762.02,-2351.12C2756.24,-2362.85 2746.88,-2377.91 2734,-2386.45 2687.58,-2417.23 2666.7,-2410.45 2611,-2410.45 2091,-2410.45 2091,-2410.45 2091,-2410.45 1944.57,-2410.45 1909.43,-2441.45 1763,-2441.45 1101,-2441.45 1101,-2441.45 1101,-2441.45 1031.29,-2441.45 994.501,-2467.52 946,-2417.45 910.961,-2381.28 909.388,-2225.08 910.314,-2160.04"/>
<polygon fill="green" stroke="green" points="913.819,-2159.77 910.493,-2149.71 906.82,-2159.65 913.819,-2159.77"/>
<text text-anchor="middle" x="1872" y="-2442.25" font-family="Times,serif" font-size="14.00">create_sll</text>
</g>
<!-- q8&#45;&gt;q0 -->
<g id="edge68" class="edge"><title>q8&#45;&gt;q0</title>
<path fill="none" stroke="green" d="M2753.19,-2341.51C2747.26,-2343.96 2740.4,-2346.57 2734,-2348.45 2680.57,-2364.2 2666.7,-2372.45 2611,-2372.45 2091,-2372.45 2091,-2372.45 2091,-2372.45 1895.85,-2372.45 1848.15,-2403.45 1653,-2403.45 1101,-2403.45 1101,-2403.45 1101,-2403.45 1031.29,-2403.45 994.961,-2429.07 946,-2379.45 915.875,-2348.92 911.395,-2218.16 910.925,-2159.79"/>
<polygon fill="green" stroke="green" points="914.423,-2159.43 910.878,-2149.45 907.423,-2159.47 914.423,-2159.43"/>
<text text-anchor="middle" x="1872" y="-2397.25" font-family="Times,serif" font-size="14.00">init_back_link</text>
</g>
<!-- q8&#45;&gt;q0 -->
<g id="edge69" class="edge"><title>q8&#45;&gt;q0</title>
<path fill="none" stroke="green" d="M2751.93,-2334.45C2722.96,-2334.45 2662.3,-2334.45 2611,-2334.45 2091,-2334.45 2091,-2334.45 2091,-2334.45 1895.85,-2334.45 1848.15,-2365.45 1653,-2365.45 1101,-2365.45 1101,-2365.45 1101,-2365.45 1031.29,-2365.45 995.576,-2390.46 946,-2341.45 920.785,-2316.53 913.706,-2211.02 911.742,-2159.71"/>
<polygon fill="green" stroke="green" points="915.237,-2159.5 911.396,-2149.63 908.241,-2159.74 915.237,-2159.5"/>
<text text-anchor="middle" x="1872" y="-2359.25" font-family="Times,serif" font-size="14.00">reverse_dll</text>
</g>
<!-- q8&#45;&gt;q0 -->
<g id="edge70" class="edge"><title>q8&#45;&gt;q0</title>
<path fill="none" stroke="green" d="M2753.15,-2328.01C2725.03,-2317.17 2664.32,-2296.45 2611,-2296.45 2091,-2296.45 2091,-2296.45 2091,-2296.45 1895.85,-2296.45 1848.15,-2327.45 1653,-2327.45 1101,-2327.45 1101,-2327.45 1101,-2327.45 1031.29,-2327.45 996.44,-2351.57 946,-2303.45 925.673,-2284.06 916.471,-2203.38 912.913,-2159.76"/>
<polygon fill="green" stroke="green" points="916.382,-2159.23 912.126,-2149.52 909.403,-2159.76 916.382,-2159.23"/>
<text text-anchor="middle" x="1872" y="-2321.25" font-family="Times,serif" font-size="14.00">remove_fw_link</text>
</g>
<!-- q8&#45;&gt;q0 -->
<g id="edge71" class="edge"><title>q8&#45;&gt;q0</title>
<path fill="none" stroke="green" d="M2759.26,-2319.61C2752.98,-2311.12 2744.11,-2300.91 2734,-2294.45 2685.99,-2263.79 2667.96,-2258.45 2611,-2258.45 2091,-2258.45 2091,-2258.45 2091,-2258.45 1895.85,-2258.45 1848.15,-2289.45 1653,-2289.45 1101,-2289.45 1101,-2289.45 1101,-2289.45 1031.29,-2289.45 997.738,-2312.17 946,-2265.45 930.434,-2251.4 919.83,-2194.27 914.653,-2159.3"/>
<polygon fill="green" stroke="green" points="918.095,-2158.64 913.222,-2149.23 911.164,-2159.63 918.095,-2158.64"/>
<text text-anchor="middle" x="1872" y="-2283.25" font-family="Times,serif" font-size="14.00">check_seq_next</text>
</g>
<!-- q8&#45;&gt;q0 -->
<g id="edge73" class="edge"><title>q8&#45;&gt;q0</title>
<path fill="none" stroke="green" d="M2765.73,-2316.77C2761.49,-2298.8 2752.34,-2271.39 2734,-2255.45 2691.1,-2218.17 2667.84,-2220.45 2611,-2220.45 2091,-2220.45 2091,-2220.45 2091,-2220.45 1895.85,-2220.45 1848.15,-2251.45 1653,-2251.45 1101,-2251.45 1101,-2251.45 1101,-2251.45 1028.75,-2251.45 1000.81,-2249.52 946,-2202.45 932.7,-2191.03 923.964,-2173.36 918.546,-2158.51"/>
<polygon fill="green" stroke="green" points="921.789,-2157.17 915.31,-2148.79 915.147,-2159.38 921.789,-2157.17"/>
<text text-anchor="middle" x="1872" y="-2245.25" font-family="Times,serif" font-size="14.00">Learn_Assert</text>
</g>
<!-- q8&#45;&gt;q7 -->
<g id="edge72" class="edge"><title>q8&#45;&gt;q7</title>
<path fill="none" stroke="green" d="M2785.11,-2344.92C2811.2,-2365.09 2866.77,-2412.1 2894,-2465.45 2919.56,-2515.53 2926.54,-2582.05 2928.39,-2619.23"/>
<polygon fill="green" stroke="green" points="2924.89,-2619.48 2928.8,-2629.33 2931.89,-2619.2 2924.89,-2619.48"/>
<text text-anchor="middle" x="2850" y="-2469.25" font-family="Times,serif" font-size="14.00">check_seq_prev</text>
</g>
<!-- q9 -->
<g id="node11" class="node"><title>q9</title>
<ellipse fill="none" stroke="green" cx="2610" cy="-2055.45" rx="18" ry="18"/>
<text text-anchor="middle" x="2610" y="-2051.75" font-family="Times,serif" font-size="14.00">D</text>
</g>
<!-- q9&#45;&gt;q0 -->
<g id="edge74" class="edge"><title>q9&#45;&gt;q0</title>
<path fill="none" stroke="green" d="M2608.31,-2073.48C2606.37,-2096.87 2599.31,-2137.2 2574,-2158.45 2520.61,-2203.28 2488.71,-2182.45 2419,-2182.45 2091,-2182.45 2091,-2182.45 2091,-2182.45 1895.99,-2182.45 1848.01,-2208.45 1653,-2208.45 1101,-2208.45 1101,-2208.45 1101,-2208.45 1030.18,-2208.45 1006.63,-2208.06 946,-2171.45 938.779,-2167.09 932.253,-2160.75 926.845,-2154.39"/>
<polygon fill="green" stroke="green" points="929.558,-2152.18 920.627,-2146.48 924.055,-2156.5 929.558,-2152.18"/>
<text text-anchor="middle" x="1762" y="-2210.25" font-family="Times,serif" font-size="14.00">chain_node</text>
</g>
<!-- q9&#45;&gt;q0 -->
<g id="edge75" class="edge"><title>q9&#45;&gt;q0</title>
<path fill="none" stroke="green" d="M2604.44,-2072.76C2599.51,-2087.85 2590.12,-2109.06 2574,-2120.45 2517.07,-2160.69 2488.71,-2144.45 2419,-2144.45 2091,-2144.45 2091,-2144.45 2091,-2144.45 1896.25,-2144.45 1847.75,-2157.45 1653,-2157.45 1101,-2157.45 1101,-2157.45 1101,-2157.45 1042.21,-2157.45 974.133,-2145.08 937.545,-2137.41"/>
<polygon fill="green" stroke="green" points="938.182,-2133.97 927.67,-2135.29 936.713,-2140.81 938.182,-2133.97"/>
<text text-anchor="middle" x="1762" y="-2160.25" font-family="Times,serif" font-size="14.00">create_sll</text>
</g>
<!-- q9&#45;&gt;q0 -->
<g id="edge76" class="edge"><title>q9&#45;&gt;q0</title>
<path fill="none" stroke="green" d="M2593.12,-2062.76C2560.98,-2076.86 2485.6,-2106.45 2419,-2106.45 1101,-2106.45 1101,-2106.45 1101,-2106.45 1042.25,-2106.45 974.158,-2118.35 937.557,-2125.73"/>
<polygon fill="green" stroke="green" points="936.764,-2122.32 927.678,-2127.76 938.179,-2129.17 936.764,-2122.32"/>
<text text-anchor="middle" x="1762" y="-2110.25" font-family="Times,serif" font-size="14.00">init_back_link</text>
</g>
<!-- q9&#45;&gt;q0 -->
<g id="edge77" class="edge"><title>q9&#45;&gt;q0</title>
<path fill="none" stroke="green" d="M2591.97,-2055.45C2558.72,-2055.45 2482.83,-2055.45 2419,-2055.45 1101,-2055.45 1101,-2055.45 1101,-2055.45 1028.48,-2055.45 1010.69,-2073.67 946,-2106.45 941.491,-2108.74 936.92,-2111.56 932.635,-2114.48"/>
<polygon fill="green" stroke="green" points="930.409,-2111.77 924.351,-2120.46 934.507,-2117.45 930.409,-2111.77"/>
<text text-anchor="middle" x="1762" y="-2059.25" font-family="Times,serif" font-size="14.00">reverse_dll</text>
</g>
<!-- q9&#45;&gt;q0 -->
<g id="edge78" class="edge"><title>q9&#45;&gt;q0</title>
<path fill="none" stroke="green" d="M2593.12,-2048.15C2560.98,-2034.04 2485.6,-2004.45 2419,-2004.45 1871,-2004.45 1871,-2004.45 1871,-2004.45 1676.25,-2004.45 1627.75,-2017.45 1433,-2017.45 1101,-2017.45 1101,-2017.45 1101,-2017.45 1029.74,-2017.45 1000.91,-2013.03 946,-2058.45 931.875,-2070.14 923.058,-2088.87 917.806,-2104.43"/>
<polygon fill="green" stroke="green" points="914.429,-2103.5 914.851,-2114.09 921.123,-2105.55 914.429,-2103.5"/>
<text text-anchor="middle" x="1762" y="-2011.25" font-family="Times,serif" font-size="14.00">remove_fw_link</text>
</g>
<!-- q9&#45;&gt;q0 -->
<g id="edge80" class="edge"><title>q9&#45;&gt;q0</title>
<path fill="none" stroke="green" d="M2600.83,-2039.66C2594.71,-2029.22 2585.43,-2015.93 2574,-2007.45 2515.4,-1964 2491.95,-1953.45 2419,-1953.45 1871,-1953.45 1871,-1953.45 1871,-1953.45 1675.99,-1953.45 1628.01,-1979.45 1433,-1979.45 1101,-1979.45 1101,-1979.45 1101,-1979.45 1030.47,-1979.45 997.642,-1965.42 946,-2013.45 921.246,-2036.48 913.721,-2076.11 911.583,-2103.03"/>
<polygon fill="green" stroke="green" points="908.069,-2103.17 910.976,-2113.35 915.057,-2103.58 908.069,-2103.17"/>
<text text-anchor="middle" x="1762" y="-1964.25" font-family="Times,serif" font-size="14.00">check_seq_prev</text>
</g>
<!-- q9&#45;&gt;q0 -->
<g id="edge81" class="edge"><title>q9&#45;&gt;q0</title>
<path fill="none" stroke="green" d="M2607.42,-2037.42C2604.53,-2015.22 2596.45,-1977.74 2574,-1955.45 2522.33,-1904.16 2491.8,-1902.45 2419,-1902.45 1871,-1902.45 1871,-1902.45 1871,-1902.45 1675.56,-1902.45 1628.44,-1941.45 1433,-1941.45 1101,-1941.45 1101,-1941.45 1101,-1941.45 1030.57,-1941.45 996.041,-1924.89 946,-1974.45 928.06,-1992.22 918,-2063.23 913.64,-2103.4"/>
<polygon fill="green" stroke="green" points="910.157,-2103.06 912.606,-2113.36 917.119,-2103.78 910.157,-2103.06"/>
<text text-anchor="middle" x="1762" y="-1916.25" font-family="Times,serif" font-size="14.00">Learn_Assert</text>
</g>
<!-- q9&#45;&gt;q8 -->
<g id="edge79" class="edge"><title>q9&#45;&gt;q8</title>
<path fill="none" stroke="green" d="M2624.45,-2066.25C2649.92,-2087.44 2705.21,-2137.17 2734,-2191.45 2753.52,-2228.25 2762.37,-2276.16 2766.23,-2306.11"/>
<polygon fill="green" stroke="green" points="2762.78,-2306.76 2767.43,-2316.28 2769.73,-2305.94 2762.78,-2306.76"/>
<text text-anchor="middle" x="2690" y="-2195.25" font-family="Times,serif" font-size="14.00">check_seq_next</text>
</g>
<!-- q10 -->
<g id="node12" class="node"><title>q10</title>
<ellipse fill="none" stroke="green" cx="2418" cy="-1685.45" rx="18" ry="18"/>
<text text-anchor="middle" x="2418" y="-1681.75" font-family="Times,serif" font-size="14.00">D</text>
</g>
<!-- q10&#45;&gt;q0 -->
<g id="edge82" class="edge"><title>q10&#45;&gt;q0</title>
<path fill="none" stroke="green" d="M2414.9,-1703.26C2410.16,-1734.76 2395.62,-1800.03 2354,-1832.45 2300.39,-1874.21 2270.95,-1856.45 2203,-1856.45 1871,-1856.45 1871,-1856.45 1871,-1856.45 1675.22,-1856.45 1628.78,-1903.45 1433,-1903.45 1101,-1903.45 1101,-1903.45 1101,-1903.45 1031.29,-1903.45 995.692,-1878.56 946,-1927.45 921.539,-1951.52 914.096,-2053.22 911.893,-2103.32"/>
<polygon fill="green" stroke="green" points="908.389,-2103.33 911.488,-2113.47 915.384,-2103.61 908.389,-2103.33"/>
<text text-anchor="middle" x="1652" y="-1892.25" font-family="Times,serif" font-size="14.00">chain_node</text>
</g>
<!-- q10&#45;&gt;q0 -->
<g id="edge83" class="edge"><title>q10&#45;&gt;q0</title>
<path fill="none" stroke="green" d="M2412.21,-1702.68C2404.4,-1727.33 2386.42,-1772.17 2354,-1794.45 2298,-1832.94 2270.95,-1818.45 2203,-1818.45 1871,-1818.45 1871,-1818.45 1871,-1818.45 1675.22,-1818.45 1628.78,-1865.45 1433,-1865.45 1101,-1865.45 1101,-1865.45 1101,-1865.45 1031,-1865.45 994.684,-1843.15 946,-1893.45 917.554,-1922.84 912.148,-2046.59 911.178,-2103.1"/>
<polygon fill="green" stroke="green" points="907.678,-2103.1 911.04,-2113.14 914.677,-2103.19 907.678,-2103.1"/>
<text text-anchor="middle" x="1652" y="-1854.25" font-family="Times,serif" font-size="14.00">create_sll</text>
</g>
<!-- q10&#45;&gt;q0 -->
<g id="edge85" class="edge"><title>q10&#45;&gt;q0</title>
<path fill="none" stroke="green" d="M2408.01,-1700.73C2397.36,-1717.36 2377.99,-1743.31 2354,-1756.45 2294.41,-1789.11 2270.95,-1780.45 2203,-1780.45 1871,-1780.45 1871,-1780.45 1871,-1780.45 1675.22,-1780.45 1628.78,-1827.45 1433,-1827.45 1101,-1827.45 1101,-1827.45 1101,-1827.45 1030.83,-1827.45 994,-1806.27 946,-1857.45 913.196,-1892.43 910.286,-2039.98 910.582,-2102.87"/>
<polygon fill="green" stroke="green" points="907.085,-2103.27 910.665,-2113.24 914.085,-2103.21 907.085,-2103.27"/>
<text text-anchor="middle" x="1652" y="-1816.25" font-family="Times,serif" font-size="14.00">reverse_dll</text>
</g>
<!-- q10&#45;&gt;q0 -->
<g id="edge86" class="edge"><title>q10&#45;&gt;q0</title>
<path fill="none" stroke="green" d="M2402.08,-1695.05C2389.69,-1702.57 2371.35,-1712.7 2354,-1718.45 2289.5,-1739.83 2270.95,-1742.45 2203,-1742.45 1871,-1742.45 1871,-1742.45 1871,-1742.45 1675.22,-1742.45 1628.78,-1789.45 1433,-1789.45 1101,-1789.45 1101,-1789.45 1101,-1789.45 1030.83,-1789.45 993.606,-1767.91 946,-1819.45 926.918,-1840.12 915.854,-2030.28 912.283,-2103.19"/>
<polygon fill="green" stroke="green" points="908.774,-2103.29 911.793,-2113.45 915.766,-2103.63 908.774,-2103.29"/>
<text text-anchor="middle" x="1652" y="-1778.25" font-family="Times,serif" font-size="14.00">remove_fw_link</text>
</g>
<!-- q10&#45;&gt;q0 -->
<g id="edge87" class="edge"><title>q10&#45;&gt;q0</title>
<path fill="none" stroke="green" d="M2400.12,-1687.98C2364.04,-1693.14 2276.67,-1704.45 2203,-1704.45 1871,-1704.45 1871,-1704.45 1871,-1704.45 1675.22,-1704.45 1628.78,-1751.45 1433,-1751.45 1101,-1751.45 1101,-1751.45 1101,-1751.45 1030.83,-1751.45 993.294,-1729.62 946,-1781.45 924.477,-1805.04 914.76,-2023.73 911.925,-2102.96"/>
<polygon fill="green" stroke="green" points="908.419,-2103.06 911.57,-2113.18 915.415,-2103.31 908.419,-2103.06"/>
<text text-anchor="middle" x="1652" y="-1740.25" font-family="Times,serif" font-size="14.00">check_seq_next</text>
</g>
<!-- q10&#45;&gt;q0 -->
<g id="edge88" class="edge"><title>q10&#45;&gt;q0</title>
<path fill="none" stroke="green" d="M2400.12,-1682.93C2364.04,-1677.76 2276.67,-1666.45 2203,-1666.45 1871,-1666.45 1871,-1666.45 1871,-1666.45 1675.22,-1666.45 1628.78,-1713.45 1433,-1713.45 1101,-1713.45 1101,-1713.45 1101,-1713.45 1030.83,-1713.45 993.042,-1691.39 946,-1743.45 921.999,-1770.01 913.758,-2018.03 911.625,-2103.03"/>
<polygon fill="green" stroke="green" points="908.121,-2103.15 911.379,-2113.23 915.119,-2103.32 908.121,-2103.15"/>
<text text-anchor="middle" x="1652" y="-1702.25" font-family="Times,serif" font-size="14.00">check_seq_prev</text>
</g>
<!-- q10&#45;&gt;q0 -->
<g id="edge89" class="edge"><title>q10&#45;&gt;q0</title>
<path fill="none" stroke="green" d="M2401.28,-1678.23C2366.38,-1662.9 2279.51,-1628.45 2203,-1628.45 1871,-1628.45 1871,-1628.45 1871,-1628.45 1675.22,-1628.45 1628.78,-1675.45 1433,-1675.45 1101,-1675.45 1101,-1675.45 1101,-1675.45 1030.83,-1675.45 992.834,-1653.2 946,-1705.45 919.495,-1735.02 912.844,-2012.97 911.376,-2103.27"/>
<polygon fill="green" stroke="green" points="907.876,-2103.27 911.222,-2113.32 914.875,-2103.37 907.876,-2103.27"/>
<text text-anchor="middle" x="1652" y="-1664.25" font-family="Times,serif" font-size="14.00">Learn_Assert</text>
</g>
<!-- q10&#45;&gt;q9 -->
<g id="edge84" class="edge"><title>q10&#45;&gt;q9</title>
<path fill="none" stroke="green" d="M2432.38,-1697.1C2462.89,-1724.5 2537.8,-1796.52 2574,-1873.45 2597.94,-1924.33 2605.5,-1990.55 2607.89,-2027.47"/>
<polygon fill="green" stroke="green" points="2604.4,-2027.71 2608.46,-2037.5 2611.39,-2027.32 2604.4,-2027.71"/>
<text text-anchor="middle" x="2528" y="-1877.25" font-family="Times,serif" font-size="14.00">init_back_link</text>
</g>
<!-- q11 -->
<g id="node13" class="node"><title>q11</title>
<ellipse fill="none" stroke="black" cx="2202" cy="-1476.45" rx="18" ry="18"/>
<text text-anchor="middle" x="2202" y="-1472.75" font-family="Times,serif" font-size="14.00">D</text>
</g>
<!-- q11&#45;&gt;q0 -->
<g id="edge90" class="edge"><title>q11&#45;&gt;q0</title>
<path fill="none" stroke="green" d="M2194.61,-1493.16C2185.55,-1514.3 2166.79,-1549.95 2138,-1566.45 2035.09,-1625.42 1723.94,-1596.86 1606,-1609.45 1528.87,-1617.69 1510.57,-1632.45 1433,-1632.45 1101,-1632.45 1101,-1632.45 1101,-1632.45 1030.92,-1632.45 992.741,-1609.23 946,-1661.45 916.509,-1694.4 911.867,-2006.83 911.136,-2103.25"/>
<polygon fill="green" stroke="green" points="907.636,-2103.39 911.068,-2113.41 914.635,-2103.43 907.636,-2103.39"/>
<text text-anchor="middle" x="1542" y="-1632.25" font-family="Times,serif" font-size="14.00">chain_node</text>
</g>
<!-- q11&#45;&gt;q0 -->
<g id="edge91" class="edge"><title>q11&#45;&gt;q0</title>
<path fill="none" stroke="green" d="M2189.51,-1489.8C2177.91,-1502.24 2158.79,-1520.09 2138,-1528.45 1846.49,-1645.74 1747.22,-1581.45 1433,-1581.45 1101,-1581.45 1101,-1581.45 1101,-1581.45 1029.63,-1581.45 991.293,-1568.29 946,-1623.45 915.451,-1660.66 911.549,-2002.3 911.065,-2103.4"/>
<polygon fill="green" stroke="green" points="907.565,-2103.45 911.024,-2113.47 914.565,-2103.48 907.565,-2103.45"/>
<text text-anchor="middle" x="1542" y="-1590.25" font-family="Times,serif" font-size="14.00">create_sll</text>
</g>
<!-- q11&#45;&gt;q0 -->
<g id="edge92" class="edge"><title>q11&#45;&gt;q0</title>
<path fill="none" stroke="green" d="M2184.29,-1480.94C2171.67,-1484.14 2153.87,-1488.25 2138,-1490.45 1827.13,-1533.52 1746.84,-1530.45 1433,-1530.45 1101,-1530.45 1101,-1530.45 1101,-1530.45 1029.14,-1530.45 990.772,-1520.25 946,-1576.45 912.997,-1617.89 910.857,-1996.16 910.919,-2103.3"/>
<polygon fill="green" stroke="green" points="907.418,-2103.35 910.931,-2113.35 914.418,-2103.35 907.418,-2103.35"/>
<text text-anchor="middle" x="1542" y="-1535.25" font-family="Times,serif" font-size="14.00">init_back_link</text>
</g>
<!-- q11&#45;&gt;q0 -->
<g id="edge93" class="edge"><title>q11&#45;&gt;q0</title>
<path fill="none" stroke="green" d="M2183.97,-1476.57C2101.36,-1477.12 1734,-1479.45 1433,-1479.45 1101,-1479.45 1101,-1479.45 1101,-1479.45 1029.01,-1479.45 990.538,-1469.9 946,-1526.45 910.053,-1572.1 910.082,-1989.42 910.766,-2103.02"/>
<polygon fill="green" stroke="green" points="907.268,-2103.35 910.835,-2113.33 914.268,-2103.31 907.268,-2103.35"/>
<text text-anchor="middle" x="1542" y="-1483.25" font-family="Times,serif" font-size="14.00">reverse_dll</text>
</g>
<!-- q11&#45;&gt;q0 -->
<g id="edge94" class="edge"><title>q11&#45;&gt;q0</title>
<path fill="none" stroke="green" d="M2184.86,-1470.37C2149.07,-1457.46 2060.12,-1428.45 1983,-1428.45 1101,-1428.45 1101,-1428.45 1101,-1428.45 1029.01,-1428.45 990.411,-1418.8 946,-1475.45 906.895,-1525.34 909.313,-1983.28 910.627,-2102.95"/>
<polygon fill="green" stroke="green" points="907.13,-2103.19 910.746,-2113.15 914.129,-2103.11 907.13,-2103.19"/>
<text text-anchor="middle" x="1542" y="-1432.25" font-family="Times,serif" font-size="14.00">remove_fw_link</text>
</g>
<!-- q11&#45;&gt;q0 -->
<g id="edge96" class="edge"><title>q11&#45;&gt;q0</title>
<path fill="none" stroke="green" d="M2187.78,-1464.95C2175.54,-1454.78 2156.5,-1440.09 2138,-1430.45 2073.43,-1396.83 2055.8,-1377.45 1983,-1377.45 1651,-1377.45 1651,-1377.45 1651,-1377.45 1572.49,-1377.45 1001.04,-1368.47 946,-1424.45 921.828,-1449.04 913.137,-1974.02 911.362,-2103.02"/>
<polygon fill="green" stroke="green" points="907.859,-2103.22 911.224,-2113.27 914.859,-2103.31 907.859,-2103.22"/>
<text text-anchor="middle" x="1542" y="-1381.25" font-family="Times,serif" font-size="14.00">check_seq_prev</text>
</g>
<!-- q11&#45;&gt;q0 -->
<g id="edge97" class="edge"><title>q11&#45;&gt;q0</title>
<path fill="none" stroke="green" d="M2194.04,-1460.18C2184.36,-1439.37 2164.93,-1403.51 2138,-1382.45 2080.29,-1337.34 2056.25,-1326.45 1983,-1326.45 1651,-1326.45 1651,-1326.45 1651,-1326.45 1572.31,-1326.45 1000.31,-1336.51 946,-1393.45 921.083,-1419.58 912.921,-1970.69 911.316,-2103.06"/>
<polygon fill="green" stroke="green" points="907.815,-2103.17 911.196,-2113.21 914.815,-2103.25 907.815,-2103.17"/>
<text text-anchor="middle" x="1542" y="-1334.25" font-family="Times,serif" font-size="14.00">Learn_Assert</text>
</g>
<!-- q11&#45;&gt;q10 -->
<g id="edge95" class="edge"><title>q11&#45;&gt;q10</title>
<path fill="none" stroke="green" d="M2217.33,-1486.23C2245.4,-1505.78 2308.82,-1551.9 2354,-1599.45 2372.45,-1618.88 2390.18,-1643.84 2402.11,-1661.86"/>
<polygon fill="green" stroke="green" points="2399.4,-1664.11 2407.78,-1670.58 2405.26,-1660.29 2399.4,-1664.11"/>
<text text-anchor="middle" x="2310" y="-1603.25" font-family="Times,serif" font-size="14.00">check_seq_next</text>
</g>
<!-- q12 -->
<g id="node14" class="node"><title>q12</title>
<ellipse fill="none" stroke="black" cx="1982" cy="-1204.45" rx="18" ry="18"/>
<text text-anchor="middle" x="1982" y="-1200.75" font-family="Times,serif" font-size="14.00">D</text>
</g>
<!-- q12&#45;&gt;q0 -->
<g id="edge99" class="edge"><title>q12&#45;&gt;q0</title>
<path fill="none" stroke="green" d="M1969.5,-1217.78C1957.9,-1230.21 1938.77,-1248.05 1918,-1256.45 1892.89,-1266.61 964.811,-1313.97 946,-1333.45 918.746,-1361.68 912.324,-1963.95 911.203,-2102.99"/>
<polygon fill="green" stroke="green" points="907.701,-2103.22 911.123,-2113.25 914.701,-2103.27 907.701,-2103.22"/>
<text text-anchor="middle" x="1432" y="-1298.25" font-family="Times,serif" font-size="14.00">create_sll</text>
</g>
<!-- q12&#45;&gt;q0 -->
<g id="edge100" class="edge"><title>q12&#45;&gt;q0</title>
<path fill="none" stroke="green" d="M1964.26,-1208.76C1951.63,-1211.87 1933.82,-1215.95 1918,-1218.45 1683.4,-1255.62 1622.29,-1245.24 1386,-1269.45 1288.15,-1279.48 1013.23,-1245.66 946,-1317.45 918.613,-1346.7 912.287,-1962.01 911.195,-2102.89"/>
<polygon fill="green" stroke="green" points="907.692,-2103.25 911.118,-2113.27 914.692,-2103.3 907.692,-2103.25"/>
<text text-anchor="middle" x="1432" y="-1273.25" font-family="Times,serif" font-size="14.00">init_back_link</text>
</g>
<!-- q12&#45;&gt;q0 -->
<g id="edge101" class="edge"><title>q12&#45;&gt;q0</title>
<path fill="none" stroke="green" d="M1963.71,-1205C1831.35,-1209.27 982.8,-1238.12 946,-1276.45 916.763,-1306.91 911.852,-1957.48 911.119,-2102.83"/>
<polygon fill="green" stroke="green" points="907.617,-2103.12 911.069,-2113.14 914.617,-2103.15 907.617,-2103.12"/>
<text text-anchor="middle" x="1432" y="-1233.25" font-family="Times,serif" font-size="14.00">reverse_dll</text>
</g>
<!-- q12&#45;&gt;q0 -->
<g id="edge102" class="edge"><title>q12&#45;&gt;q0</title>
<path fill="none" stroke="green" d="M1963.96,-1203.87C1835.19,-1199.65 1018.43,-1176.03 946,-1253.45 916.321,-1285.18 911.747,-1955.75 911.1,-2103.02"/>
<polygon fill="green" stroke="green" points="907.598,-2103.43 911.057,-2113.45 914.598,-2103.46 907.598,-2103.43"/>
<text text-anchor="middle" x="1432" y="-1203.25" font-family="Times,serif" font-size="14.00">remove_fw_link</text>
</g>
<!-- q12&#45;&gt;q0 -->
<g id="edge104" class="edge"><title>q12&#45;&gt;q0</title>
<path fill="none" stroke="green" d="M1964.14,-1201.61C1841.67,-1181.37 1089.27,-1064.34 946,-1219.45 915.32,-1252.67 911.525,-1951.88 911.063,-2102.87"/>
<polygon fill="green" stroke="green" points="907.562,-2103.15 911.034,-2113.16 914.562,-2103.17 907.562,-2103.15"/>
<text text-anchor="middle" x="1432" y="-1149.25" font-family="Times,serif" font-size="14.00">check_seq_prev</text>
</g>
<!-- q12&#45;&gt;q0 -->
<g id="edge105" class="edge"><title>q12&#45;&gt;q0</title>
<path fill="none" stroke="green" d="M1965.64,-1196.44C1953.15,-1190.27 1934.88,-1182.05 1918,-1177.45 1870.45,-1164.51 1856.91,-1169.53 1808,-1163.45 1617.9,-1139.84 1070.11,-1021.54 946,-1167.45 914.906,-1204.01 911.434,-1948.14 911.048,-2103.27"/>
<polygon fill="green" stroke="green" points="907.548,-2103.39 911.025,-2113.4 914.548,-2103.41 907.548,-2103.39"/>
<text text-anchor="middle" x="1432" y="-1119.25" font-family="Times,serif" font-size="14.00">Learn_Assert</text>
</g>
<!-- q12&#45;&gt;q10 -->
<g id="edge103" class="edge"><title>q12&#45;&gt;q10</title>
<path fill="none" stroke="green" d="M2000.25,-1203.77C2030.49,-1203.39 2094.01,-1206.21 2138,-1233.45 2303.45,-1335.91 2385.71,-1576.59 2409.51,-1657.99"/>
<polygon fill="green" stroke="green" points="2406.25,-1659.31 2412.37,-1667.96 2412.98,-1657.39 2406.25,-1659.31"/>
<text text-anchor="middle" x="2202" y="-1332.25" font-family="Times,serif" font-size="14.00">check_seq_next</text>
</g>
<!-- q12&#45;&gt;q11 -->
<g id="edge98" class="edge"><title>q12&#45;&gt;q11</title>
<path fill="none" stroke="green" d="M1998.37,-1211.97C2033.46,-1229.41 2118.01,-1272.96 2138,-1297.45 2174.68,-1342.41 2190.71,-1410.23 2197.14,-1448.17"/>
<polygon fill="green" stroke="green" points="2193.75,-1449.16 2198.77,-1458.49 2200.67,-1448.06 2193.75,-1449.16"/>
<text text-anchor="middle" x="2092" y="-1301.25" font-family="Times,serif" font-size="14.00">chain_node</text>
</g>
<!-- q13 -->
<g id="node15" class="node"><title>q13</title>
<ellipse fill="none" stroke="black" cx="1762" cy="-974.453" rx="18" ry="18"/>
<text text-anchor="middle" x="1762" y="-970.753" font-family="Times,serif" font-size="14.00">D</text>
</g>
<!-- q13&#45;&gt;q0 -->
<g id="edge107" class="edge"><title>q13&#45;&gt;q0</title>
<path fill="none" stroke="green" d="M1749.57,-988.189C1738.01,-1001.01 1718.92,-1019.48 1698,-1028.45 1543.63,-1094.69 1060.68,-982.704 946,-1105.45 911.024,-1142.89 910.643,-1941 910.927,-2102.94"/>
<polygon fill="green" stroke="green" points="907.427,-2103.09 910.947,-2113.08 914.427,-2103.07 907.427,-2103.09"/>
<text text-anchor="middle" x="1322" y="-1052.25" font-family="Times,serif" font-size="14.00">create_sll</text>
</g>
<!-- q13&#45;&gt;q0 -->
<g id="edge108" class="edge"><title>q13&#45;&gt;q0</title>
<path fill="none" stroke="green" d="M1744.27,-978.817C1731.64,-981.953 1713.84,-986.038 1698,-988.453 1414.93,-1031.61 1340.76,-1012.37 1056,-1042.45 1006.99,-1047.63 979.172,-1020 946,-1056.45 909.794,-1096.24 910.411,-1935.56 910.894,-2102.67"/>
<polygon fill="green" stroke="green" points="907.396,-2103.11 910.927,-2113.1 914.396,-2103.09 907.396,-2103.11"/>
<text text-anchor="middle" x="1322" y="-1029.25" font-family="Times,serif" font-size="14.00">init_back_link</text>
</g>
<!-- q13&#45;&gt;q0 -->
<g id="edge109" class="edge"><title>q13&#45;&gt;q0</title>
<path fill="none" stroke="green" d="M1743.76,-974.453C1706.91,-974.453 1617.75,-974.453 1543,-974.453 1101,-974.453 1101,-974.453 1101,-974.453 1027.29,-974.453 988.797,-973.439 946,-1033.45 914.035,-1078.28 911.259,-1935.71 911.022,-2103.21"/>
<polygon fill="green" stroke="green" points="907.522,-2103.23 911.009,-2113.23 914.522,-2103.24 907.522,-2103.23"/>
<text text-anchor="middle" x="1322" y="-978.253" font-family="Times,serif" font-size="14.00">reverse_dll</text>
</g>
<!-- q13&#45;&gt;q0 -->
<g id="edge110" class="edge"><title>q13&#45;&gt;q0</title>
<path fill="none" stroke="green" d="M1744.89,-967.994C1709.17,-954.27 1620.35,-923.453 1543,-923.453 1101,-923.453 1101,-923.453 1101,-923.453 1028.62,-923.453 989.488,-915.588 946,-973.453 911.027,-1019.99 910.686,-1929.59 910.94,-2103.02"/>
<polygon fill="green" stroke="green" points="907.44,-2103.15 910.956,-2113.15 914.44,-2103.14 907.44,-2103.15"/>
<text text-anchor="middle" x="1322" y="-927.253" font-family="Times,serif" font-size="14.00">remove_fw_link</text>
</g>
<!-- q13&#45;&gt;q0 -->
<g id="edge112" class="edge"><title>q13&#45;&gt;q0</title>
<path fill="none" stroke="green" d="M1747.85,-962.439C1735.66,-951.812 1716.65,-936.478 1698,-926.453 1633.74,-891.918 1615.95,-872.453 1543,-872.453 1101,-872.453 1101,-872.453 1101,-872.453 1028.88,-872.453 989.626,-863.029 946,-920.453 909.079,-969.052 910.338,-1925.29 910.893,-2103.12"/>
<polygon fill="green" stroke="green" points="907.394,-2103.26 910.927,-2113.25 914.394,-2103.24 907.394,-2103.26"/>
<text text-anchor="middle" x="1322" y="-876.253" font-family="Times,serif" font-size="14.00">check_seq_prev</text>
</g>
<!-- q13&#45;&gt;q0 -->
<g id="edge113" class="edge"><title>q13&#45;&gt;q0</title>
<path fill="none" stroke="green" d="M1754.34,-958.025C1744.86,-936.603 1725.53,-899.295 1698,-877.453 1640.62,-831.925 1616.25,-821.453 1543,-821.453 1101,-821.453 1101,-821.453 1101,-821.453 1029.01,-821.453 989.682,-811.235 946,-868.453 907.275,-919.178 910.034,-1921.63 910.855,-2103.34"/>
<polygon fill="green" stroke="green" points="907.356,-2103.45 910.903,-2113.43 914.356,-2103.41 907.356,-2103.45"/>
<text text-anchor="middle" x="1322" y="-825.253" font-family="Times,serif" font-size="14.00">Learn_Assert</text>
</g>
<!-- q13&#45;&gt;q10 -->
<g id="edge111" class="edge"><title>q13&#45;&gt;q10</title>
<path fill="none" stroke="green" d="M1779.94,-976.814C1809.17,-981.32 1870.5,-992.691 1918,-1014.45 2141.9,-1117.03 2242.17,-1137.03 2354,-1356.45 2405.96,-1458.4 2415.26,-1597.98 2416.79,-1657.13"/>
<polygon fill="green" stroke="green" points="2413.29,-1657.28 2416.99,-1667.21 2420.29,-1657.14 2413.29,-1657.28"/>
<text text-anchor="middle" x="2092" y="-1120.25" font-family="Times,serif" font-size="14.00">check_seq_next</text>
</g>
<!-- q13&#45;&gt;q12 -->
<g id="edge106" class="edge"><title>q13&#45;&gt;q12</title>
<path fill="none" stroke="green" d="M1777.28,-984.058C1789.9,-992.415 1808.9,-1004.69 1826,-1014.45 1865.87,-1037.23 1886.48,-1028.07 1918,-1061.45 1949.29,-1094.59 1966.65,-1145.83 1974.88,-1177.13"/>
<polygon fill="green" stroke="green" points="1971.51,-1178.07 1977.33,-1186.93 1978.3,-1176.38 1971.51,-1178.07"/>
<text text-anchor="middle" x="1872" y="-1065.25" font-family="Times,serif" font-size="14.00">chain_node</text>
</g>
<!-- q14 -->
<g id="node16" class="node"><title>q14</title>
<ellipse fill="none" stroke="green" cx="1542" cy="-699.453" rx="18" ry="18"/>
<text text-anchor="middle" x="1542" y="-695.753" font-family="Times,serif" font-size="14.00">D</text>
</g>
<!-- q14&#45;&gt;q0 -->
<g id="edge115" class="edge"><title>q14&#45;&gt;q0</title>
<path fill="none" stroke="green" d="M1529.45,-712.667C1517.82,-725.005 1498.66,-742.78 1478,-751.453 1368.39,-797.467 1026.7,-720.164 946,-807.453 923.223,-832.09 912.881,-1912.98 911.236,-2103.06"/>
<polygon fill="green" stroke="green" points="907.736,-2103.08 911.15,-2113.11 914.736,-2103.14 907.736,-2103.08"/>
<text text-anchor="middle" x="1212" y="-770.253" font-family="Times,serif" font-size="14.00">create_sll</text>
</g>
<!-- q14&#45;&gt;q0 -->
<g id="edge116" class="edge"><title>q14&#45;&gt;q0</title>
<path fill="none" stroke="green" d="M1524.26,-703.747C1511.62,-706.847 1493.82,-710.919 1478,-713.453 1419.34,-722.85 986.421,-722.923 946,-766.453 922.426,-791.841 912.716,-1909.72 911.212,-2103.1"/>
<polygon fill="green" stroke="green" points="907.71,-2103.28 911.133,-2113.3 914.71,-2103.33 907.71,-2103.28"/>
<text text-anchor="middle" x="1212" y="-733.253" font-family="Times,serif" font-size="14.00">init_back_link</text>
</g>
<!-- q14&#45;&gt;q0 -->
<g id="edge117" class="edge"><title>q14&#45;&gt;q0</title>
<path fill="none" stroke="green" d="M1524.02,-697.556C1435.14,-688.041 1024.51,-649.362 946,-737.453 922.423,-763.907 912.692,-1908.63 911.205,-2103.42"/>
<polygon fill="green" stroke="green" points="907.705,-2103.41 911.13,-2113.43 914.705,-2103.46 907.705,-2103.41"/>
<text text-anchor="middle" x="1212" y="-686.253" font-family="Times,serif" font-size="14.00">reverse_dll</text>
</g>
<!-- q14&#45;&gt;q0 -->
<g id="edge118" class="edge"><title>q14&#45;&gt;q0</title>
<path fill="none" stroke="green" d="M1524.6,-694.189C1511.98,-690.347 1494.06,-685.327 1478,-682.453 1361.6,-661.619 1024.64,-605.147 946,-693.453 921.664,-720.779 912.548,-1904.07 911.185,-2103.16"/>
<polygon fill="green" stroke="green" points="907.684,-2103.36 911.116,-2113.38 914.684,-2103.41 907.684,-2103.36"/>
<text text-anchor="middle" x="1212" y="-655.253" font-family="Times,serif" font-size="14.00">remove_fw_link</text>
</g>
<!-- q14&#45;&gt;q0 -->
<g id="edge120" class="edge"><title>q14&#45;&gt;q0</title>
<path fill="none" stroke="green" d="M1526.65,-689.611C1514.3,-681.606 1495.71,-670.656 1478,-664.453 1366.38,-625.362 1026.39,-562.705 946,-649.453 920.328,-677.156 912.305,-1900.8 911.152,-2103.23"/>
<polygon fill="green" stroke="green" points="907.652,-2103.33 911.095,-2113.35 914.651,-2103.37 907.652,-2103.33"/>
<text text-anchor="middle" x="1212" y="-620.253" font-family="Times,serif" font-size="14.00">check_seq_prev</text>
</g>
<!-- q14&#45;&gt;q0 -->
<g id="edge121" class="edge"><title>q14&#45;&gt;q0</title>
<path fill="none" stroke="green" d="M1530.66,-685.049C1519.4,-670.471 1500.02,-648.421 1478,-636.453 1373.98,-579.905 1027.23,-521.313 946,-607.453 919.326,-635.739 912.128,-1896.86 911.129,-2103.07"/>
<polygon fill="green" stroke="green" points="907.628,-2103.35 911.08,-2113.37 914.628,-2103.39 907.628,-2103.35"/>
<text text-anchor="middle" x="1212" y="-579.253" font-family="Times,serif" font-size="14.00">Learn_Assert</text>
</g>
<!-- q14&#45;&gt;q10 -->
<g id="edge119" class="edge"><title>q14&#45;&gt;q10</title>
<path fill="none" stroke="green" d="M1559.93,-701.414C1596.55,-705.48 1685.89,-714.453 1761,-714.453 1761,-714.453 1761,-714.453 2203,-714.453 2401.29,-714.453 2416.03,-1496.44 2416.97,-1656.89"/>
<polygon fill="green" stroke="green" points="2413.47,-1657.36 2417.01,-1667.35 2420.47,-1657.33 2413.47,-1657.36"/>
<text text-anchor="middle" x="1982" y="-718.253" font-family="Times,serif" font-size="14.00">check_seq_next</text>
</g>
<!-- q14&#45;&gt;q13 -->
<g id="edge114" class="edge"><title>q14&#45;&gt;q13</title>
<path fill="none" stroke="green" d="M1558.37,-706.966C1593.49,-724.383 1678.07,-767.904 1698,-792.453 1735.37,-838.49 1751.19,-908.075 1757.39,-946.496"/>
<polygon fill="green" stroke="green" points="1753.94,-947.095 1758.9,-956.461 1760.87,-946.051 1753.94,-947.095"/>
<text text-anchor="middle" x="1652" y="-796.253" font-family="Times,serif" font-size="14.00">chain_node</text>
</g>
<!-- q15 -->
<g id="node17" class="node"><title>q15</title>
<ellipse fill="none" stroke="green" cx="1322" cy="-389.453" rx="18" ry="18"/>
<text text-anchor="middle" x="1322" y="-385.753" font-family="Times,serif" font-size="14.00">D</text>
</g>
<!-- q15&#45;&gt;q0 -->
<g id="edge123" class="edge"><title>q15&#45;&gt;q0</title>
<path fill="none" stroke="green" d="M1316.63,-406.676C1309.17,-432.406 1291.43,-480.515 1258,-505.453 1144.39,-590.195 1036.48,-462.355 946,-571.453 920.569,-602.117 912.319,-1894.22 911.151,-2103.08"/>
<polygon fill="green" stroke="green" points="907.65,-2103.22 911.095,-2113.24 914.65,-2103.26 907.65,-2103.22"/>
<text text-anchor="middle" x="1102" y="-540.253" font-family="Times,serif" font-size="14.00">create_sll</text>
</g>
<!-- q15&#45;&gt;q0 -->
<g id="edge124" class="edge"><title>q15&#45;&gt;q0</title>
<path fill="none" stroke="green" d="M1310.97,-404.037C1299.82,-419.076 1280.4,-442.031 1258,-454.453 1133.96,-523.229 1036.33,-412.114 946,-521.453 919.773,-553.199 912.173,-1890.8 911.131,-2103.17"/>
<polygon fill="green" stroke="green" points="907.63,-2103.46 911.081,-2113.48 914.63,-2103.5 907.63,-2103.46"/>
<text text-anchor="middle" x="1102" y="-482.253" font-family="Times,serif" font-size="14.00">init_back_link</text>
</g>
<!-- q15&#45;&gt;q0 -->
<g id="edge125" class="edge"><title>q15&#45;&gt;q0</title>
<path fill="none" stroke="green" d="M1304.17,-393.271C1291.49,-396.129 1273.67,-400.105 1258,-403.453 1188.79,-418.241 991.311,-413.081 946,-467.453 918.712,-500.198 911.991,-1886.98 911.108,-2103.23"/>
<polygon fill="green" stroke="green" points="907.607,-2103.42 911.067,-2113.43 914.607,-2103.45 907.607,-2103.42"/>
<text text-anchor="middle" x="1102" y="-429.253" font-family="Times,serif" font-size="14.00">reverse_dll</text>
</g>
<!-- q15&#45;&gt;q0 -->
<g id="edge126" class="edge"><title>q15&#45;&gt;q0</title>
<path fill="none" stroke="green" d="M1303.95,-388.08C1236.64,-383.083 990.836,-368.98 946,-425.453 918.8,-459.713 911.995,-1883.8 911.107,-2103.2"/>
<polygon fill="green" stroke="green" points="907.607,-2103.26 911.067,-2113.27 914.607,-2103.28 907.607,-2103.26"/>
<text text-anchor="middle" x="1102" y="-392.253" font-family="Times,serif" font-size="14.00">remove_fw_link</text>
</g>
<!-- q15&#45;&gt;q0 -->
<g id="edge127" class="edge"><title>q15&#45;&gt;q0</title>
<path fill="none" stroke="green" d="M1304.01,-386.161C1236.92,-373.613 991.821,-332.203 946,-387.453 917.424,-421.91 911.775,-1881.22 911.081,-2103.26"/>
<polygon fill="green" stroke="green" points="907.58,-2103.42 911.05,-2113.43 914.58,-2103.44 907.58,-2103.42"/>
<text text-anchor="middle" x="1102" y="-368.253" font-family="Times,serif" font-size="14.00">check_seq_next</text>
</g>
<!-- q15&#45;&gt;q0 -->
<g id="edge128" class="edge"><title>q15&#45;&gt;q0</title>
<path fill="none" stroke="green" d="M1305.56,-381.719C1293.02,-375.712 1274.73,-367.568 1258,-362.453 1191.69,-342.174 992.115,-304.662 946,-356.453 915.687,-390.497 911.509,-1878.16 911.05,-2103.09"/>
<polygon fill="green" stroke="green" points="907.55,-2103.38 911.03,-2113.39 914.55,-2103.4 907.55,-2103.38"/>
<text text-anchor="middle" x="1102" y="-342.253" font-family="Times,serif" font-size="14.00">check_seq_prev</text>
</g>
<!-- q15&#45;&gt;q0 -->
<g id="edge129" class="edge"><title>q15&#45;&gt;q0</title>
<path fill="none" stroke="green" d="M1308.67,-376.654C1296.76,-365.015 1277.66,-348.211 1258,-338.453 1195.85,-307.612 992.132,-274.626 946,-326.453 915.149,-361.112 911.425,-1876.96 911.04,-2103.3"/>
<polygon fill="green" stroke="green" points="907.54,-2103.37 911.024,-2113.38 914.54,-2103.38 907.54,-2103.37"/>
<text text-anchor="middle" x="1102" y="-312.253" font-family="Times,serif" font-size="14.00">Learn_Assert</text>
</g>
<!-- q15&#45;&gt;q14 -->
<g id="edge122" class="edge"><title>q15&#45;&gt;q14</title>
<path fill="none" stroke="green" d="M1336.2,-400.821C1365.08,-426.25 1434.76,-490.676 1478,-556.453 1502.66,-593.968 1521.77,-642.738 1532.19,-672.535"/>
<polygon fill="green" stroke="green" points="1528.96,-673.906 1535.51,-682.233 1535.58,-671.639 1528.96,-673.906"/>
<text text-anchor="middle" x="1432" y="-560.253" font-family="Times,serif" font-size="14.00">chain_node</text>
</g>
<!-- q16&#45;&gt;q0 -->
<g id="edge131" class="edge"><title>q16&#45;&gt;q0</title>
<path fill="none" stroke="green" d="M1089.35,-170.727C1077.64,-183.207 1058.43,-201.427 1038,-211.453 1000.52,-229.844 972.666,-198.326 946,-230.453 914.725,-268.133 911.357,-1870.15 911.032,-2103.28"/>
<polygon fill="green" stroke="green" points="907.532,-2103.33 911.019,-2113.33 914.532,-2103.34 907.532,-2103.33"/>
<text text-anchor="middle" x="992" y="-234.253" font-family="Times,serif" font-size="14.00">create_sll</text>
</g>
<!-- q16&#45;&gt;q0 -->
<g id="edge132" class="edge"><title>q16&#45;&gt;q0</title>
<path fill="none" stroke="green" d="M1084.47,-161.868C1071.79,-165.202 1053.84,-169.809 1038,-173.453 997.312,-182.816 972.66,-160.321 946,-192.453 914.091,-230.912 911.264,-1866.62 911.022,-2103.08"/>
<polygon fill="green" stroke="green" points="907.522,-2103.27 911.012,-2113.27 914.522,-2103.28 907.522,-2103.27"/>
<text text-anchor="middle" x="992" y="-196.253" font-family="Times,serif" font-size="14.00">init_back_link</text>
</g>
<!-- q16&#45;&gt;q0 -->
<g id="edge133" class="edge"><title>q16&#45;&gt;q0</title>
<path fill="none" stroke="green" d="M1084.21,-154.282C1048.17,-147.908 965.103,-135.685 946,-154.453 909.635,-190.18 910.623,-1862.66 910.953,-2102.85"/>
<polygon fill="green" stroke="green" points="907.453,-2103.19 910.968,-2113.19 914.453,-2103.18 907.453,-2103.19"/>
<text text-anchor="middle" x="992" y="-158.253" font-family="Times,serif" font-size="14.00">reverse_dll</text>
</g>
<!-- q16&#45;&gt;q0 -->
<g id="edge134" class="edge"><title>q16&#45;&gt;q0</title>
<path fill="none" stroke="green" d="M1086.7,-147.536C1056.28,-127.74 984.756,-88.3682 946,-126.453 909.087,-162.727 910.553,-1862.29 910.946,-2103.18"/>
<polygon fill="green" stroke="green" points="907.446,-2103.25 910.963,-2113.24 914.446,-2103.23 907.446,-2103.25"/>
<text text-anchor="middle" x="992" y="-130.253" font-family="Times,serif" font-size="14.00">remove_fw_link</text>
</g>
<!-- q16&#45;&gt;q0 -->
<g id="edge135" class="edge"><title>q16&#45;&gt;q0</title>
<path fill="none" stroke="green" d="M1091.83,-142.485C1081.15,-126.643 1061.88,-102.563 1038,-92.453 1000.35,-76.5109 975.16,-63.7894 946,-92.453 908.448,-129.366 910.467,-1859.52 910.938,-2103.08"/>
<polygon fill="green" stroke="green" points="907.438,-2103.25 910.958,-2113.24 914.438,-2103.24 907.438,-2103.25"/>
<text text-anchor="middle" x="992" y="-96.253" font-family="Times,serif" font-size="14.00">check_seq_next</text>
</g>
<!-- q16&#45;&gt;q0 -->
<g id="edge136" class="edge"><title>q16&#45;&gt;q0</title>
<path fill="none" stroke="green" d="M1096.11,-140.409C1088.26,-116.629 1070.35,-74.4003 1038,-56.453 1002.25,-36.6155 975.156,-27.7851 946,-56.453 907.771,-94.043 910.377,-1856.54 910.929,-2102.96"/>
<polygon fill="green" stroke="green" points="907.429,-2103.24 910.952,-2113.24 914.429,-2103.23 907.429,-2103.24"/>
<text text-anchor="middle" x="992" y="-60.253" font-family="Times,serif" font-size="14.00">check_seq_prev</text>
</g>
<!-- q16&#45;&gt;q0 -->
<g id="edge137" class="edge"><title>q16&#45;&gt;q0</title>
<path fill="none" stroke="green" d="M1098.92,-139.574C1094.26,-108.759 1079.87,-46.3672 1038,-19.453 1003.6,2.65549 975.151,9.21924 946,-19.453 907.055,-57.7576 910.289,-1855.28 910.921,-2103.21"/>
<polygon fill="green" stroke="green" points="907.421,-2103.24 910.947,-2113.23 914.421,-2103.22 907.421,-2103.24"/>
<text text-anchor="middle" x="992" y="-23.253" font-family="Times,serif" font-size="14.00">Learn_Assert</text>
</g>
<!-- q16&#45;&gt;q15 -->
<g id="edge130" class="edge"><title>q16&#45;&gt;q15</title>
<path fill="none" stroke="green" d="M1120.19,-158.162C1151.77,-160.387 1219.31,-169.573 1258,-207.453 1300.79,-249.343 1314.54,-321.687 1318.94,-361.38"/>
<polygon fill="green" stroke="green" points="1315.47,-361.817 1319.93,-371.425 1322.44,-361.13 1315.47,-361.817"/>
<text text-anchor="middle" x="1212" y="-211.253" font-family="Times,serif" font-size="14.00">chain_node</text>
</g>
<!-- iq0 -->
<g id="node19" class="node"><title>iq0</title>
</g>
<!-- iq0&#45;&gt;q0 -->
<g id="edge1" class="edge"><title>iq0&#45;&gt;q0</title>
<path fill="none" stroke="blue" d="M409.12,-2002.43C499.751,-1999.39 799.212,-1993.74 874,-2048.45 891.679,-2061.39 900.489,-2085.01 904.844,-2103.76"/>
<polygon fill="blue" stroke="blue" points="901.417,-2104.47 906.833,-2113.57 908.277,-2103.08 901.417,-2104.47"/>
</g>
</g>
</svg>
