<?xml version="1.0" encoding="UTF-8" standalone="no"?>
<!DOCTYPE svg PUBLIC "-//W3C//DTD SVG 1.1//EN"
 "http://www.w3.org/Graphics/SVG/1.1/DTD/svg11.dtd">
<!-- Generated by graphviz version 2.34.0 (20141125.1709)
 -->
<!-- Title: finite_automaton Pages: 1 -->
<svg width="576pt" height="37pt"
 viewBox="0.00 0.00 576.00 37.34" xmlns="http://www.w3.org/2000/svg" xmlns:xlink="http://www.w3.org/1999/xlink">
<g id="graph0" class="graph" transform="scale(0.164477 0.164477) rotate(0) translate(4 223)">
<title>finite_automaton</title>
<polygon fill="white" stroke="white" points="-4,4 -4,-223 3498,-223 3498,4 -4,4"/>
<!-- dom_edges -->
<g id="node1" class="node"><title>dom_edges</title>
<polygon fill="none" stroke="green" points="764,-153 0,-153 0,-117 764,-117 764,-153"/>
<text text-anchor="middle" x="382" y="-131.3" font-family="Times,serif" font-size="14.00">Dominating edges: chain_node, create_sll, init_back_link, reverse_dll, remove_fw_link, check_seq_next, check_seq_prev, Learn_Assert</text>
</g>
<!-- q1 -->
<g id="node2" class="node"><title>q1</title>
<ellipse fill="none" stroke="green" cx="3472" cy="-115" rx="18" ry="18"/>
<ellipse fill="none" stroke="green" cx="3472" cy="-115" rx="22" ry="22"/>
<text text-anchor="middle" x="3472" y="-111.3" font-family="Times,serif" font-size="14.00">D</text>
</g>
<!-- q0 -->
<g id="node3" class="node"><title>q0</title>
<ellipse fill="none" stroke="green" cx="820" cy="-189" rx="18" ry="18"/>
</g>
<!-- q15 -->
<g id="node17" class="node"><title>q15</title>
<ellipse fill="none" stroke="green" cx="944" cy="-189" rx="18" ry="18"/>
</g>
<!-- q0&#45;&gt;q15 -->
<g id="edge2" class="edge"><title>q0&#45;&gt;q15</title>
<path fill="none" stroke="green" d="M838.221,-189C858.384,-189 892.036,-189 915.753,-189"/>
<polygon fill="green" stroke="green" points="915.867,-192.5 925.867,-189 915.867,-185.5 915.867,-192.5"/>
<text text-anchor="middle" x="882" y="-192.8" font-family="Times,serif" font-size="14.00">create_sll</text>
</g>
<!-- q2 -->
<g id="node4" class="node"><title>q2</title>
<ellipse fill="none" stroke="green" cx="3322" cy="-115" rx="18" ry="18"/>
</g>
<!-- q2&#45;&gt;q1 -->
<g id="edge3" class="edge"><title>q2&#45;&gt;q1</title>
<path fill="none" stroke="green" d="M3340.27,-115C3364.55,-115 3409.2,-115 3439.49,-115"/>
<polygon fill="green" stroke="green" points="3439.55,-118.5 3449.55,-115 3439.55,-111.5 3439.55,-118.5"/>
<text text-anchor="middle" x="3395" y="-118.8" font-family="Times,serif" font-size="14.00">Learn_Assert</text>
</g>
<!-- q3 -->
<g id="node5" class="node"><title>q3</title>
<ellipse fill="none" stroke="green" cx="3162" cy="-115" rx="18" ry="18"/>
</g>
<!-- q3&#45;&gt;q2 -->
<g id="edge4" class="edge"><title>q3&#45;&gt;q2</title>
<path fill="none" stroke="green" d="M3180.21,-115C3207.52,-115 3261.01,-115 3293.62,-115"/>
<polygon fill="green" stroke="green" points="3293.81,-118.5 3303.81,-115 3293.81,-111.5 3293.81,-118.5"/>
<text text-anchor="middle" x="3242" y="-118.8" font-family="Times,serif" font-size="14.00">check_seq_prev</text>
</g>
<!-- q4 -->
<g id="node6" class="node"><title>q4</title>
<ellipse fill="none" stroke="green" cx="2998" cy="-115" rx="18" ry="18"/>
</g>
<!-- q4&#45;&gt;q3 -->
<g id="edge5" class="edge"><title>q4&#45;&gt;q3</title>
<path fill="none" stroke="green" d="M3016.03,-115C3044.03,-115 3100.04,-115 3133.65,-115"/>
<polygon fill="green" stroke="green" points="3133.71,-118.5 3143.71,-115 3133.71,-111.5 3133.71,-118.5"/>
<text text-anchor="middle" x="3080" y="-118.8" font-family="Times,serif" font-size="14.00">remove_fw_link</text>
</g>
<!-- q5 -->
<g id="node7" class="node"><title>q5</title>
<ellipse fill="none" stroke="green" cx="2838" cy="-115" rx="18" ry="18"/>
</g>
<!-- q5&#45;&gt;q4 -->
<g id="edge6" class="edge"><title>q5&#45;&gt;q4</title>
<path fill="none" stroke="green" d="M2856.21,-115C2883.52,-115 2937.01,-115 2969.62,-115"/>
<polygon fill="green" stroke="green" points="2969.81,-118.5 2979.81,-115 2969.81,-111.5 2969.81,-118.5"/>
<text text-anchor="middle" x="2918" y="-118.8" font-family="Times,serif" font-size="14.00">check_seq_next</text>
</g>
<!-- q6 -->
<g id="node8" class="node"><title>q6</title>
<ellipse fill="none" stroke="green" cx="2678" cy="-115" rx="18" ry="18"/>
</g>
<!-- q6&#45;&gt;q5 -->
<g id="edge7" class="edge"><title>q6&#45;&gt;q5</title>
<path fill="none" stroke="green" d="M2696.21,-115C2723.52,-115 2777.01,-115 2809.62,-115"/>
<polygon fill="green" stroke="green" points="2809.81,-118.5 2819.81,-115 2809.81,-111.5 2809.81,-118.5"/>
<text text-anchor="middle" x="2758" y="-118.8" font-family="Times,serif" font-size="14.00">check_seq_prev</text>
</g>
<!-- q7 -->
<g id="node9" class="node"><title>q7</title>
<ellipse fill="none" stroke="green" cx="2544" cy="-115" rx="18" ry="18"/>
</g>
<!-- q7&#45;&gt;q6 -->
<g id="edge8" class="edge"><title>q7&#45;&gt;q6</title>
<path fill="none" stroke="green" d="M2562.26,-115C2584.49,-115 2623.4,-115 2649.68,-115"/>
<polygon fill="green" stroke="green" points="2649.74,-118.5 2659.74,-115 2649.74,-111.5 2649.74,-118.5"/>
<text text-anchor="middle" x="2611" y="-118.8" font-family="Times,serif" font-size="14.00">reverse_dll</text>
</g>
<!-- q8 -->
<g id="node10" class="node"><title>q8</title>
<ellipse fill="none" stroke="green" cx="2384" cy="-115" rx="18" ry="18"/>
</g>
<!-- q8&#45;&gt;q7 -->
<g id="edge9" class="edge"><title>q8&#45;&gt;q7</title>
<path fill="none" stroke="green" d="M2402.21,-115C2429.52,-115 2483.01,-115 2515.62,-115"/>
<polygon fill="green" stroke="green" points="2515.81,-118.5 2525.81,-115 2515.81,-111.5 2515.81,-118.5"/>
<text text-anchor="middle" x="2464" y="-118.8" font-family="Times,serif" font-size="14.00">check_seq_prev</text>
</g>
<!-- q9 -->
<g id="node11" class="node"><title>q9</title>
<ellipse fill="none" stroke="green" cx="2224" cy="-115" rx="18" ry="18"/>
</g>
<!-- q9&#45;&gt;q8 -->
<g id="edge10" class="edge"><title>q9&#45;&gt;q8</title>
<path fill="none" stroke="green" d="M2242.21,-115C2269.52,-115 2323.01,-115 2355.62,-115"/>
<polygon fill="green" stroke="green" points="2355.81,-118.5 2365.81,-115 2355.81,-111.5 2355.81,-118.5"/>
<text text-anchor="middle" x="2304" y="-118.8" font-family="Times,serif" font-size="14.00">check_seq_next</text>
</g>
<!-- q10 -->
<g id="node12" class="node"><title>q10</title>
<ellipse fill="none" stroke="green" cx="2072" cy="-115" rx="18" ry="18"/>
</g>
<!-- q10&#45;&gt;q9 -->
<g id="edge11" class="edge"><title>q10&#45;&gt;q9</title>
<path fill="none" stroke="green" d="M2090.21,-115C2116.09,-115 2165.27,-115 2195.97,-115"/>
<polygon fill="green" stroke="green" points="2195.99,-118.5 2205.99,-115 2195.99,-111.5 2195.99,-118.5"/>
<text text-anchor="middle" x="2148" y="-118.8" font-family="Times,serif" font-size="14.00">init_back_link</text>
</g>
<!-- q11 -->
<g id="node13" class="node"><title>q11</title>
<ellipse fill="none" stroke="black" cx="1488" cy="-115" rx="18" ry="18"/>
</g>
<!-- q11&#45;&gt;q10 -->
<g id="edge13" class="edge"><title>q11&#45;&gt;q10</title>
<path fill="none" stroke="green" d="M1506.1,-115C1588.26,-115 1942.56,-115 2043.86,-115"/>
<polygon fill="green" stroke="green" points="2043.9,-118.5 2053.9,-115 2043.9,-111.5 2043.9,-118.5"/>
<text text-anchor="middle" x="1780" y="-118.8" font-family="Times,serif" font-size="14.00">check_seq_next</text>
</g>
<!-- q16 -->
<g id="node18" class="node"><title>q16</title>
<ellipse fill="none" stroke="black" cx="1674" cy="-69" rx="18" ry="18"/>
</g>
<!-- q11&#45;&gt;q16 -->
<g id="edge12" class="edge"><title>q11&#45;&gt;q16</title>
<path fill="none" stroke="green" d="M1500.76,-102.285C1507.05,-96.3157 1515.29,-89.7116 1524,-86 1563.85,-69.0206 1614.84,-66.9311 1645.66,-67.549"/>
<polygon fill="green" stroke="green" points="1645.56,-71.0475 1655.66,-67.8605 1645.78,-64.0509 1645.56,-71.0475"/>
<text text-anchor="middle" x="1568" y="-89.8" font-family="Times,serif" font-size="14.00">chain_node</text>
</g>
<!-- q12 -->
<g id="node14" class="node"><title>q12</title>
<ellipse fill="none" stroke="black" cx="1352" cy="-158" rx="18" ry="18"/>
</g>
<!-- q12&#45;&gt;q10 -->
<g id="edge15" class="edge"><title>q12&#45;&gt;q10</title>
<path fill="none" stroke="green" d="M1370.34,-158.636C1395.88,-159.517 1445.11,-161 1487,-161 1487,-161 1487,-161 1887,-161 1945.14,-161 2010.61,-139.117 2045.64,-125.537"/>
<polygon fill="green" stroke="green" points="2047.09,-128.73 2055.09,-121.787 2044.5,-122.223 2047.09,-128.73"/>
<text text-anchor="middle" x="1674" y="-164.8" font-family="Times,serif" font-size="14.00">check_seq_next</text>
</g>
<!-- q12&#45;&gt;q11 -->
<g id="edge14" class="edge"><title>q12&#45;&gt;q11</title>
<path fill="none" stroke="green" d="M1365.71,-146.278C1371.98,-141.118 1379.93,-135.456 1388,-132 1410.97,-122.168 1439.23,-118.017 1459.67,-116.267"/>
<polygon fill="green" stroke="green" points="1460.13,-119.743 1469.86,-115.537 1459.63,-112.761 1460.13,-119.743"/>
<text text-anchor="middle" x="1420" y="-135.8" font-family="Times,serif" font-size="14.00">chain_node</text>
</g>
<!-- q13 -->
<g id="node15" class="node"><title>q13</title>
<ellipse fill="none" stroke="green" cx="1216" cy="-189" rx="18" ry="18"/>
</g>
<!-- q13&#45;&gt;q10 -->
<g id="edge17" class="edge"><title>q13&#45;&gt;q10</title>
<path fill="none" stroke="green" d="M1233.85,-192.108C1259.19,-196.502 1308.63,-204 1351,-204 1351,-204 1351,-204 1887,-204 1956.57,-204 1978.11,-194.588 2036,-156 2043.23,-151.182 2049.82,-144.469 2055.28,-137.867"/>
<polygon fill="green" stroke="green" points="2058.23,-139.775 2061.56,-129.717 2052.68,-135.503 2058.23,-139.775"/>
<text text-anchor="middle" x="1568" y="-207.8" font-family="Times,serif" font-size="14.00">check_seq_next</text>
</g>
<!-- q13&#45;&gt;q12 -->
<g id="edge16" class="edge"><title>q13&#45;&gt;q12</title>
<path fill="none" stroke="green" d="M1232.78,-181.866C1238.71,-179.406 1245.58,-176.814 1252,-175 1275.9,-168.25 1303.84,-163.749 1323.94,-161.084"/>
<polygon fill="green" stroke="green" points="1324.46,-164.546 1333.94,-159.822 1323.58,-157.601 1324.46,-164.546"/>
<text text-anchor="middle" x="1284" y="-178.8" font-family="Times,serif" font-size="14.00">chain_node</text>
</g>
<!-- q14 -->
<g id="node16" class="node"><title>q14</title>
<ellipse fill="none" stroke="green" cx="1080" cy="-189" rx="18" ry="18"/>
</g>
<!-- q14&#45;&gt;q13 -->
<g id="edge18" class="edge"><title>q14&#45;&gt;q13</title>
<path fill="none" stroke="green" d="M1098.24,-189C1120.86,-189 1160.8,-189 1187.58,-189"/>
<polygon fill="green" stroke="green" points="1187.82,-192.5 1197.82,-189 1187.82,-185.5 1187.82,-192.5"/>
<text text-anchor="middle" x="1148" y="-192.8" font-family="Times,serif" font-size="14.00">chain_node</text>
</g>
<!-- q15&#45;&gt;q14 -->
<g id="edge19" class="edge"><title>q15&#45;&gt;q14</title>
<path fill="none" stroke="green" d="M962.244,-189C984.858,-189 1024.8,-189 1051.58,-189"/>
<polygon fill="green" stroke="green" points="1051.82,-192.5 1061.82,-189 1051.82,-185.5 1051.82,-192.5"/>
<text text-anchor="middle" x="1012" y="-192.8" font-family="Times,serif" font-size="14.00">chain_node</text>
</g>
<!-- q16&#45;&gt;q10 -->
<g id="edge21" class="edge"><title>q16&#45;&gt;q10</title>
<path fill="none" stroke="green" d="M1692.28,-68.4571C1744.89,-67.2403 1907.42,-66.7196 2036,-101 2039.23,-101.86 2042.55,-102.933 2045.82,-104.1"/>
<polygon fill="green" stroke="green" points="2044.66,-107.403 2055.24,-107.763 2047.19,-100.878 2044.66,-107.403"/>
<text text-anchor="middle" x="1886" y="-84.8" font-family="Times,serif" font-size="14.00">check_seq_next</text>
</g>
<!-- q17 -->
<g id="node19" class="node"><title>q17</title>
<ellipse fill="none" stroke="black" cx="1886" cy="-18" rx="18" ry="18"/>
</g>
<!-- q16&#45;&gt;q17 -->
<g id="edge20" class="edge"><title>q16&#45;&gt;q17</title>
<path fill="none" stroke="green" d="M1690.67,-61.0973C1702.78,-55.2989 1720.09,-47.6541 1736,-43 1777.48,-30.8668 1827.29,-23.9958 1857.52,-20.6394"/>
<polygon fill="green" stroke="green" points="1858.15,-24.0928 1867.72,-19.5586 1857.41,-17.1317 1858.15,-24.0928"/>
<text text-anchor="middle" x="1780" y="-46.8" font-family="Times,serif" font-size="14.00">chain_node</text>
</g>
<!-- q17&#45;&gt;q10 -->
<g id="edge22" class="edge"><title>q17&#45;&gt;q10</title>
<path fill="none" stroke="green" d="M1904.12,-16.1387C1934.01,-13.8296 1996.3,-13.3041 2036,-43 2050.52,-53.8591 2059.33,-72.3428 2064.48,-87.8629"/>
<polygon fill="green" stroke="green" points="2061.14,-88.9401 2067.35,-97.524 2067.85,-86.9409 2061.14,-88.9401"/>
<text text-anchor="middle" x="1992" y="-46.8" font-family="Times,serif" font-size="14.00">check_seq_next</text>
</g>
<!-- iq0 -->
<g id="node20" class="node"><title>iq0</title>
</g>
<!-- iq0&#45;&gt;q0 -->
<g id="edge1" class="edge"><title>iq0&#45;&gt;q0</title>
<path fill="none" stroke="blue" d="M409.292,-189C486.661,-189 713.031,-189 791.69,-189"/>
<polygon fill="blue" stroke="blue" points="791.778,-192.5 801.778,-189 791.778,-185.5 791.778,-192.5"/>
</g>
</g>
</svg>
