<?xml version="1.0" encoding="UTF-8" standalone="no"?>
<!DOCTYPE svg PUBLIC "-//W3C//DTD SVG 1.1//EN"
 "http://www.w3.org/Graphics/SVG/1.1/DTD/svg11.dtd">
<!-- Generated by graphviz version 2.34.0 (20141125.1709)
 -->
<!-- Title: finite_automaton Pages: 1 -->
<svg width="576pt" height="21pt"
 viewBox="0.00 0.00 576.00 20.94" xmlns="http://www.w3.org/2000/svg" xmlns:xlink="http://www.w3.org/1999/xlink">
<g id="graph0" class="graph" transform="scale(0.205274 0.205274) rotate(0) translate(4 98)">
<title>finite_automaton</title>
<polygon fill="white" stroke="white" points="-4,4 -4,-98 2802,-98 2802,4 -4,4"/>
<!-- dom_edges -->
<g id="node1" class="node"><title>dom_edges</title>
<polygon fill="none" stroke="green" points="764,-36 0,-36 0,-0 764,-0 764,-36"/>
<text text-anchor="middle" x="382" y="-14.3" font-family="Times,serif" font-size="14.00">Dominating edges: chain_node, create_sll, init_back_link, reverse_dll, remove_fw_link, check_seq_next, check_seq_prev, Learn_Assert</text>
</g>
<!-- q1 -->
<g id="node2" class="node"><title>q1</title>
<ellipse fill="none" stroke="green" cx="2776" cy="-72" rx="18" ry="18"/>
<ellipse fill="none" stroke="green" cx="2776" cy="-72" rx="22" ry="22"/>
<text text-anchor="middle" x="2776" y="-68.3" font-family="Times,serif" font-size="14.00">D</text>
</g>
<!-- q0 -->
<g id="node3" class="node"><title>q0</title>
<ellipse fill="none" stroke="green" cx="820" cy="-72" rx="18" ry="18"/>
</g>
<!-- q13 -->
<g id="node15" class="node"><title>q13</title>
<ellipse fill="none" stroke="green" cx="944" cy="-72" rx="18" ry="18"/>
</g>
<!-- q0&#45;&gt;q13 -->
<g id="edge2" class="edge"><title>q0&#45;&gt;q13</title>
<path fill="none" stroke="green" d="M838.221,-72C858.384,-72 892.036,-72 915.753,-72"/>
<polygon fill="green" stroke="green" points="915.867,-75.5001 925.867,-72 915.867,-68.5001 915.867,-75.5001"/>
<text text-anchor="middle" x="882" y="-75.8" font-family="Times,serif" font-size="14.00">create_sll</text>
</g>
<!-- q2 -->
<g id="node4" class="node"><title>q2</title>
<ellipse fill="none" stroke="green" cx="2626" cy="-72" rx="18" ry="18"/>
</g>
<!-- q2&#45;&gt;q1 -->
<g id="edge3" class="edge"><title>q2&#45;&gt;q1</title>
<path fill="none" stroke="green" d="M2644.27,-72C2668.55,-72 2713.2,-72 2743.49,-72"/>
<polygon fill="green" stroke="green" points="2743.55,-75.5001 2753.55,-72 2743.55,-68.5001 2743.55,-75.5001"/>
<text text-anchor="middle" x="2699" y="-75.8" font-family="Times,serif" font-size="14.00">Learn_Assert</text>
</g>
<!-- q3 -->
<g id="node5" class="node"><title>q3</title>
<ellipse fill="none" stroke="green" cx="2466" cy="-72" rx="18" ry="18"/>
</g>
<!-- q3&#45;&gt;q2 -->
<g id="edge4" class="edge"><title>q3&#45;&gt;q2</title>
<path fill="none" stroke="green" d="M2484.21,-72C2511.52,-72 2565.01,-72 2597.62,-72"/>
<polygon fill="green" stroke="green" points="2597.81,-75.5001 2607.81,-72 2597.81,-68.5001 2597.81,-75.5001"/>
<text text-anchor="middle" x="2546" y="-75.8" font-family="Times,serif" font-size="14.00">check_seq_prev</text>
</g>
<!-- q4 -->
<g id="node6" class="node"><title>q4</title>
<ellipse fill="none" stroke="green" cx="2302" cy="-72" rx="18" ry="18"/>
</g>
<!-- q4&#45;&gt;q3 -->
<g id="edge5" class="edge"><title>q4&#45;&gt;q3</title>
<path fill="none" stroke="green" d="M2320.03,-72C2348.03,-72 2404.04,-72 2437.65,-72"/>
<polygon fill="green" stroke="green" points="2437.71,-75.5001 2447.71,-72 2437.71,-68.5001 2437.71,-75.5001"/>
<text text-anchor="middle" x="2384" y="-75.8" font-family="Times,serif" font-size="14.00">remove_fw_link</text>
</g>
<!-- q5 -->
<g id="node7" class="node"><title>q5</title>
<ellipse fill="none" stroke="green" cx="2142" cy="-72" rx="18" ry="18"/>
</g>
<!-- q5&#45;&gt;q4 -->
<g id="edge6" class="edge"><title>q5&#45;&gt;q4</title>
<path fill="none" stroke="green" d="M2160.21,-72C2187.52,-72 2241.01,-72 2273.62,-72"/>
<polygon fill="green" stroke="green" points="2273.81,-75.5001 2283.81,-72 2273.81,-68.5001 2273.81,-75.5001"/>
<text text-anchor="middle" x="2222" y="-75.8" font-family="Times,serif" font-size="14.00">check_seq_next</text>
</g>
<!-- q6 -->
<g id="node8" class="node"><title>q6</title>
<ellipse fill="none" stroke="green" cx="1982" cy="-72" rx="18" ry="18"/>
</g>
<!-- q6&#45;&gt;q5 -->
<g id="edge7" class="edge"><title>q6&#45;&gt;q5</title>
<path fill="none" stroke="green" d="M2000.21,-72C2027.52,-72 2081.01,-72 2113.62,-72"/>
<polygon fill="green" stroke="green" points="2113.81,-75.5001 2123.81,-72 2113.81,-68.5001 2113.81,-75.5001"/>
<text text-anchor="middle" x="2062" y="-75.8" font-family="Times,serif" font-size="14.00">check_seq_prev</text>
</g>
<!-- q7 -->
<g id="node9" class="node"><title>q7</title>
<ellipse fill="none" stroke="green" cx="1848" cy="-72" rx="18" ry="18"/>
</g>
<!-- q7&#45;&gt;q6 -->
<g id="edge8" class="edge"><title>q7&#45;&gt;q6</title>
<path fill="none" stroke="green" d="M1866.26,-72C1888.49,-72 1927.4,-72 1953.68,-72"/>
<polygon fill="green" stroke="green" points="1953.74,-75.5001 1963.74,-72 1953.74,-68.5001 1953.74,-75.5001"/>
<text text-anchor="middle" x="1915" y="-75.8" font-family="Times,serif" font-size="14.00">reverse_dll</text>
</g>
<!-- q8 -->
<g id="node10" class="node"><title>q8</title>
<ellipse fill="none" stroke="green" cx="1688" cy="-72" rx="18" ry="18"/>
</g>
<!-- q8&#45;&gt;q7 -->
<g id="edge9" class="edge"><title>q8&#45;&gt;q7</title>
<path fill="none" stroke="green" d="M1706.21,-72C1733.52,-72 1787.01,-72 1819.62,-72"/>
<polygon fill="green" stroke="green" points="1819.81,-75.5001 1829.81,-72 1819.81,-68.5001 1819.81,-75.5001"/>
<text text-anchor="middle" x="1768" y="-75.8" font-family="Times,serif" font-size="14.00">check_seq_prev</text>
</g>
<!-- q9 -->
<g id="node11" class="node"><title>q9</title>
<ellipse fill="none" stroke="green" cx="1528" cy="-72" rx="18" ry="18"/>
</g>
<!-- q9&#45;&gt;q8 -->
<g id="edge10" class="edge"><title>q9&#45;&gt;q8</title>
<path fill="none" stroke="green" d="M1546.21,-72C1573.52,-72 1627.01,-72 1659.62,-72"/>
<polygon fill="green" stroke="green" points="1659.81,-75.5001 1669.81,-72 1659.81,-68.5001 1659.81,-75.5001"/>
<text text-anchor="middle" x="1608" y="-75.8" font-family="Times,serif" font-size="14.00">check_seq_next</text>
</g>
<!-- q10 -->
<g id="node12" class="node"><title>q10</title>
<ellipse fill="none" stroke="green" cx="1376" cy="-72" rx="18" ry="18"/>
</g>
<!-- q10&#45;&gt;q9 -->
<g id="edge11" class="edge"><title>q10&#45;&gt;q9</title>
<path fill="none" stroke="green" d="M1394.21,-72C1420.09,-72 1469.27,-72 1499.97,-72"/>
<polygon fill="green" stroke="green" points="1499.99,-75.5001 1509.99,-72 1499.99,-68.5001 1499.99,-75.5001"/>
<text text-anchor="middle" x="1452" y="-75.8" font-family="Times,serif" font-size="14.00">init_back_link</text>
</g>
<!-- q11 -->
<g id="node13" class="node"><title>q11</title>
<ellipse fill="none" stroke="green" cx="1216" cy="-72" rx="18" ry="18"/>
</g>
<!-- q11&#45;&gt;q10 -->
<g id="edge12" class="edge"><title>q11&#45;&gt;q10</title>
<path fill="none" stroke="green" d="M1234.21,-72C1261.52,-72 1315.01,-72 1347.62,-72"/>
<polygon fill="green" stroke="green" points="1347.81,-75.5001 1357.81,-72 1347.81,-68.5001 1347.81,-75.5001"/>
<text text-anchor="middle" x="1296" y="-75.8" font-family="Times,serif" font-size="14.00">check_seq_next</text>
</g>
<!-- q12 -->
<g id="node14" class="node"><title>q12</title>
<ellipse fill="none" stroke="green" cx="1080" cy="-72" rx="18" ry="18"/>
</g>
<!-- q12&#45;&gt;q11 -->
<g id="edge13" class="edge"><title>q12&#45;&gt;q11</title>
<path fill="none" stroke="green" d="M1098.24,-72C1120.86,-72 1160.8,-72 1187.58,-72"/>
<polygon fill="green" stroke="green" points="1187.82,-75.5001 1197.82,-72 1187.82,-68.5001 1187.82,-75.5001"/>
<text text-anchor="middle" x="1148" y="-75.8" font-family="Times,serif" font-size="14.00">chain_node</text>
</g>
<!-- q13&#45;&gt;q12 -->
<g id="edge14" class="edge"><title>q13&#45;&gt;q12</title>
<path fill="none" stroke="green" d="M962.244,-72C984.858,-72 1024.8,-72 1051.58,-72"/>
<polygon fill="green" stroke="green" points="1051.82,-75.5001 1061.82,-72 1051.82,-68.5001 1051.82,-75.5001"/>
<text text-anchor="middle" x="1012" y="-75.8" font-family="Times,serif" font-size="14.00">chain_node</text>
</g>
<!-- iq0 -->
<g id="node16" class="node"><title>iq0</title>
</g>
<!-- iq0&#45;&gt;q0 -->
<g id="edge1" class="edge"><title>iq0&#45;&gt;q0</title>
<path fill="none" stroke="blue" d="M409.292,-72C486.661,-72 713.031,-72 791.69,-72"/>
<polygon fill="blue" stroke="blue" points="791.778,-75.5001 801.778,-72 791.778,-68.5001 791.778,-75.5001"/>
</g>
</g>
</svg>
