<?xml version="1.0" encoding="UTF-8" standalone="no"?>
<!DOCTYPE svg PUBLIC "-//W3C//DTD SVG 1.1//EN"
 "http://www.w3.org/Graphics/SVG/1.1/DTD/svg11.dtd">
<!-- Generated by graphviz version 2.34.0 (20141125.1709)
 -->
<!-- Title: finite_automaton Pages: 1 -->
<svg width="500pt" height="576pt"
 viewBox="0.00 0.00 499.51 576.00" xmlns="http://www.w3.org/2000/svg" xmlns:xlink="http://www.w3.org/1999/xlink">
<g id="graph0" class="graph" transform="scale(0.133773 0.133773) rotate(0) translate(4 4301.82)">
<title>finite_automaton</title>
<polygon fill="white" stroke="white" points="-4,4 -4,-4301.82 3730,-4301.82 3730,4 -4,4"/>
<!-- dom_edges -->
<g id="node1" class="node"><title>dom_edges</title>
<polygon fill="none" stroke="green" points="764,-1889.82 0,-1889.82 0,-1853.82 764,-1853.82 764,-1889.82"/>
<text text-anchor="middle" x="382" y="-1868.12" font-family="Times,serif" font-size="14.00">Dominating edges: chain_node, create_sll, init_back_link, reverse_dll, remove_fw_link, check_seq_next, check_seq_prev, Learn_Assert</text>
</g>
<!-- q1 -->
<g id="node2" class="node"><title>q1</title>
<ellipse fill="none" stroke="green" cx="382" cy="-2110.82" rx="18" ry="18"/>
<ellipse fill="none" stroke="green" cx="382" cy="-2110.82" rx="22" ry="22"/>
<text text-anchor="middle" x="382" y="-2107.12" font-family="Times,serif" font-size="14.00">D</text>
</g>
<!-- q0 -->
<g id="node3" class="node"><title>q0</title>
<ellipse fill="none" stroke="green" cx="910" cy="-2053.82" rx="18" ry="18"/>
<text text-anchor="middle" x="910" y="-2050.12" font-family="Times,serif" font-size="14.00">D</text>
</g>
<!-- q1&#45;&gt;q0 -->
<g id="edge10" class="edge"><title>q1&#45;&gt;q0</title>
<path fill="none" stroke="green" d="M400.526,-2122.79C469.324,-2168.2 724.453,-2321.3 874,-2202.82 892.657,-2188.03 902.342,-2120.97 906.475,-2082.04"/>
<polygon fill="green" stroke="green" points="909.98,-2082.17 907.497,-2071.87 903.015,-2081.47 909.98,-2082.17"/>
<text text-anchor="middle" x="828" y="-2243.62" font-family="Times,serif" font-size="14.00">chain_node</text>
</g>
<!-- q1&#45;&gt;q0 -->
<g id="edge11" class="edge"><title>q1&#45;&gt;q0</title>
<path fill="none" stroke="green" d="M403.748,-2114.74C492.258,-2131.27 835.487,-2193.05 874,-2164.82 899.636,-2146.02 906.982,-2108.4 908.835,-2082.2"/>
<polygon fill="green" stroke="green" points="912.337,-2082.25 909.322,-2072.1 905.345,-2081.92 912.337,-2082.25"/>
<text text-anchor="middle" x="828" y="-2175.62" font-family="Times,serif" font-size="14.00">create_sll</text>
</g>
<!-- q1&#45;&gt;q0 -->
<g id="edge12" class="edge"><title>q1&#45;&gt;q0</title>
<path fill="none" stroke="green" d="M403.961,-2112.86C492.588,-2121.34 833.852,-2152.09 874,-2126.82 889.709,-2116.93 898.525,-2097.81 903.379,-2081.62"/>
<polygon fill="green" stroke="green" points="906.874,-2082.09 906.029,-2071.53 900.103,-2080.31 906.874,-2082.09"/>
<text text-anchor="middle" x="828" y="-2139.62" font-family="Times,serif" font-size="14.00">init_back_link</text>
</g>
<!-- q1&#45;&gt;q0 -->
<g id="edge13" class="edge"><title>q1&#45;&gt;q0</title>
<path fill="none" stroke="green" d="M404.089,-2110.77C492.49,-2110.44 830.615,-2107.93 874,-2088.82 880.657,-2085.88 886.739,-2081.06 891.897,-2075.92"/>
<polygon fill="green" stroke="green" points="894.638,-2078.11 898.755,-2068.35 889.449,-2073.41 894.638,-2078.11"/>
<text text-anchor="middle" x="828" y="-2103.62" font-family="Times,serif" font-size="14.00">reverse_dll</text>
</g>
<!-- q1&#45;&gt;q0 -->
<g id="edge14" class="edge"><title>q1&#45;&gt;q0</title>
<path fill="none" stroke="green" d="M403.944,-2108.55C486.469,-2099.6 789.155,-2066.8 881.843,-2056.76"/>
<polygon fill="green" stroke="green" points="882.274,-2060.23 891.838,-2055.68 881.519,-2053.27 882.274,-2060.23"/>
<text text-anchor="middle" x="828" y="-2069.62" font-family="Times,serif" font-size="14.00">remove_fw_link</text>
</g>
<!-- q1&#45;&gt;q0 -->
<g id="edge15" class="edge"><title>q1&#45;&gt;q0</title>
<path fill="none" stroke="green" d="M403.587,-2105.68C462.238,-2091.35 635.423,-2051.11 782,-2037.82 822.722,-2034.12 834.047,-2029.12 874,-2037.82 877.501,-2038.58 881.071,-2039.72 884.527,-2041.06"/>
<polygon fill="green" stroke="green" points="883.254,-2044.32 893.816,-2045.16 886.08,-2037.92 883.254,-2044.32"/>
<text text-anchor="middle" x="828" y="-2041.62" font-family="Times,serif" font-size="14.00">check_seq_next</text>
</g>
<!-- q1&#45;&gt;q0 -->
<g id="edge16" class="edge"><title>q1&#45;&gt;q0</title>
<path fill="none" stroke="green" d="M403.033,-2104.14C460.914,-2085.23 633.711,-2031.58 782,-2013.82 822.599,-2008.95 836.765,-1996.92 874,-2013.82 881.799,-2017.35 888.543,-2023.58 893.973,-2030.09"/>
<polygon fill="green" stroke="green" points="891.327,-2032.4 900.127,-2038.3 896.927,-2028.2 891.327,-2032.4"/>
<text text-anchor="middle" x="828" y="-2017.62" font-family="Times,serif" font-size="14.00">check_seq_prev</text>
</g>
<!-- q1&#45;&gt;q0 -->
<g id="edge17" class="edge"><title>q1&#45;&gt;q0</title>
<path fill="none" stroke="green" d="M402.423,-2102.39C459.355,-2078.21 631.313,-2008.87 782,-1985.82 822.419,-1979.63 839.093,-1964.52 874,-1985.82 888.552,-1994.69 897.31,-2011.77 902.427,-2026.58"/>
<polygon fill="green" stroke="green" points="899.143,-2027.81 905.413,-2036.35 905.837,-2025.77 899.143,-2027.81"/>
<text text-anchor="middle" x="828" y="-1989.62" font-family="Times,serif" font-size="14.00">Learn_Assert</text>
</g>
<!-- q0&#45;&gt;q0 -->
<g id="edge2" class="edge"><title>q0&#45;&gt;q0</title>
<path fill="none" stroke="green" d="M907.881,-2071.97C907.555,-2081.35 908.261,-2089.82 910,-2089.82 911.06,-2089.82 911.736,-2086.67 912.029,-2082.09"/>
<polygon fill="green" stroke="green" points="915.53,-2082 912.119,-2071.97 908.53,-2081.94 915.53,-2082"/>
<text text-anchor="middle" x="910" y="-2093.62" font-family="Times,serif" font-size="14.00">chain_node</text>
</g>
<!-- q0&#45;&gt;q0 -->
<g id="edge4" class="edge"><title>q0&#45;&gt;q0</title>
<path fill="none" stroke="green" d="M906.509,-2071.51C904.581,-2088.81 905.744,-2107.82 910,-2107.82 913.424,-2107.82 914.847,-2095.51 914.267,-2081.69"/>
<polygon fill="green" stroke="green" points="917.741,-2081.22 913.491,-2071.51 910.762,-2081.75 917.741,-2081.22"/>
<text text-anchor="middle" x="910" y="-2111.62" font-family="Times,serif" font-size="14.00">init_back_link</text>
</g>
<!-- q0&#45;&gt;q0 -->
<g id="edge5" class="edge"><title>q0&#45;&gt;q0</title>
<path fill="none" stroke="green" d="M905.613,-2071.53C901.605,-2095.93 903.068,-2125.82 910,-2125.82 916.012,-2125.82 917.91,-2103.34 915.694,-2081.46"/>
<polygon fill="green" stroke="green" points="919.163,-2080.99 914.387,-2071.53 912.222,-2081.9 919.163,-2080.99"/>
<text text-anchor="middle" x="910" y="-2129.62" font-family="Times,serif" font-size="14.00">reverse_dll</text>
</g>
<!-- q0&#45;&gt;q0 -->
<g id="edge6" class="edge"><title>q0&#45;&gt;q0</title>
<path fill="none" stroke="green" d="M904.998,-2071.49C898.632,-2102.67 900.299,-2143.82 910,-2143.82 918.678,-2143.82 920.927,-2110.89 916.748,-2081.62"/>
<polygon fill="green" stroke="green" points="920.149,-2080.75 915.002,-2071.49 913.25,-2081.93 920.149,-2080.75"/>
<text text-anchor="middle" x="910" y="-2147.62" font-family="Times,serif" font-size="14.00">remove_fw_link</text>
</g>
<!-- q0&#45;&gt;q0 -->
<g id="edge7" class="edge"><title>q0&#45;&gt;q0</title>
<path fill="none" stroke="green" d="M904.63,-2071.1C895.655,-2108.88 897.445,-2161.82 910,-2161.82 921.476,-2161.82 923.958,-2117.59 917.446,-2081.13"/>
<polygon fill="green" stroke="green" points="920.823,-2080.18 915.37,-2071.1 913.968,-2081.6 920.823,-2080.18"/>
<text text-anchor="middle" x="910" y="-2165.62" font-family="Times,serif" font-size="14.00">check_seq_next</text>
</g>
<!-- q0&#45;&gt;q0 -->
<g id="edge8" class="edge"><title>q0&#45;&gt;q0</title>
<path fill="none" stroke="green" d="M904.312,-2070.99C892.695,-2115.22 894.591,-2179.82 910,-2179.82 924.296,-2179.82 926.961,-2124.21 917.995,-2080.87"/>
<polygon fill="green" stroke="green" points="921.371,-2079.93 915.688,-2070.99 914.555,-2081.53 921.371,-2079.93"/>
<text text-anchor="middle" x="910" y="-2183.62" font-family="Times,serif" font-size="14.00">check_seq_prev</text>
</g>
<!-- q0&#45;&gt;q0 -->
<g id="edge9" class="edge"><title>q0&#45;&gt;q0</title>
<path fill="none" stroke="green" d="M904.009,-2071.1C889.745,-2121.67 891.742,-2197.82 910,-2197.82 927.117,-2197.82 929.942,-2130.89 918.475,-2080.86"/>
<polygon fill="green" stroke="green" points="921.85,-2079.93 915.991,-2071.1 915.066,-2081.65 921.85,-2079.93"/>
<text text-anchor="middle" x="910" y="-2201.62" font-family="Times,serif" font-size="14.00">Learn_Assert</text>
</g>
<!-- q15 -->
<g id="node17" class="node"><title>q15</title>
<ellipse fill="none" stroke="green" cx="1102" cy="-426.815" rx="18" ry="18"/>
<text text-anchor="middle" x="1102" y="-423.115" font-family="Times,serif" font-size="14.00">D</text>
</g>
<!-- q0&#45;&gt;q15 -->
<g id="edge3" class="edge"><title>q0&#45;&gt;q15</title>
<path fill="none" stroke="green" d="M911.125,-2035.85C912.313,-1869.96 922.116,-610.667 946,-580.815 972.331,-547.905 1009.18,-588.572 1038,-557.815 1068.58,-525.18 1032.01,-496.556 1056,-458.815 1061.03,-450.907 1068.78,-444.373 1076.44,-439.316"/>
<polygon fill="green" stroke="green" points="1078.43,-442.201 1085.22,-434.065 1074.84,-436.193 1078.43,-442.201"/>
<text text-anchor="middle" x="992" y="-584.615" font-family="Times,serif" font-size="14.00">create_sll</text>
</g>
<!-- q2 -->
<g id="node4" class="node"><title>q2</title>
<ellipse fill="none" stroke="green" cx="3708" cy="-4122.82" rx="18" ry="18"/>
<text text-anchor="middle" x="3708" y="-4119.12" font-family="Times,serif" font-size="14.00">D</text>
</g>
<!-- q2&#45;&gt;q1 -->
<g id="edge25" class="edge"><title>q2&#45;&gt;q1</title>
<path fill="none" stroke="green" d="M3706.42,-4141C3704.64,-4166.2 3697.8,-4211.68 3672,-4238.82 3632,-4280.89 3607.06,-4282.82 3549,-4282.82 909,-4282.82 909,-4282.82 909,-4282.82 448.35,-4282.82 389.707,-2414.05 383.629,-2143.35"/>
<polygon fill="green" stroke="green" points="387.121,-2142.94 383.405,-2133.02 380.123,-2143.09 387.121,-2142.94"/>
<text text-anchor="middle" x="2418" y="-4286.62" font-family="Times,serif" font-size="14.00">Learn_Assert</text>
</g>
<!-- q2&#45;&gt;q0 -->
<g id="edge18" class="edge"><title>q2&#45;&gt;q0</title>
<path fill="none" stroke="green" d="M3705.15,-4140.64C3702.03,-4161.24 3693.74,-4194.64 3672,-4212.82 3629.27,-4248.54 3604.7,-4236.82 3549,-4236.82 1101,-4236.82 1101,-4236.82 1101,-4236.82 1031.29,-4236.82 991.792,-4265.38 946,-4212.82 909.3,-4170.69 910.603,-2333.83 910.954,-2082.25"/>
<polygon fill="green" stroke="green" points="914.454,-2082.1 910.968,-2072.1 907.454,-2082.09 914.454,-2082.1"/>
<text text-anchor="middle" x="2528" y="-4240.62" font-family="Times,serif" font-size="14.00">chain_node</text>
</g>
<!-- q2&#45;&gt;q0 -->
<g id="edge19" class="edge"><title>q2&#45;&gt;q0</title>
<path fill="none" stroke="green" d="M3700.02,-4139.49C3694.24,-4151.21 3684.88,-4166.28 3672,-4174.82 3625.58,-4205.6 3604.7,-4198.82 3549,-4198.82 1101,-4198.82 1101,-4198.82 1101,-4198.82 1031.29,-4198.82 991.8,-4227.37 946,-4174.82 909.958,-4133.46 910.689,-2330.77 910.962,-2082.14"/>
<polygon fill="green" stroke="green" points="914.462,-2082.09 910.974,-2072.09 907.462,-2082.09 914.462,-2082.09"/>
<text text-anchor="middle" x="2528" y="-4202.62" font-family="Times,serif" font-size="14.00">create_sll</text>
</g>
<!-- q2&#45;&gt;q0 -->
<g id="edge20" class="edge"><title>q2&#45;&gt;q0</title>
<path fill="none" stroke="green" d="M3691.19,-4129.87C3685.26,-4132.32 3678.4,-4134.93 3672,-4136.82 3618.57,-4152.56 3604.7,-4160.82 3549,-4160.82 1101,-4160.82 1101,-4160.82 1101,-4160.82 1031.29,-4160.82 991.808,-4189.36 946,-4136.82 910.633,-4096.25 910.777,-2329.39 910.971,-2082.38"/>
<polygon fill="green" stroke="green" points="914.471,-2082.08 910.979,-2072.08 907.471,-2082.07 914.471,-2082.08"/>
<text text-anchor="middle" x="2528" y="-4164.62" font-family="Times,serif" font-size="14.00">init_back_link</text>
</g>
<!-- q2&#45;&gt;q0 -->
<g id="edge21" class="edge"><title>q2&#45;&gt;q0</title>
<path fill="none" stroke="green" d="M3689.93,-4122.82C3660.96,-4122.82 3600.3,-4122.82 3549,-4122.82 1101,-4122.82 1101,-4122.82 1101,-4122.82 1031.29,-4122.82 991.816,-4151.35 946,-4098.82 911.29,-4059.01 910.867,-2326.16 910.98,-2082.23"/>
<polygon fill="green" stroke="green" points="914.48,-2082.05 910.985,-2072.05 907.48,-2082.05 914.48,-2082.05"/>
<text text-anchor="middle" x="2528" y="-4126.62" font-family="Times,serif" font-size="14.00">reverse_dll</text>
</g>
<!-- q2&#45;&gt;q0 -->
<g id="edge22" class="edge"><title>q2&#45;&gt;q0</title>
<path fill="none" stroke="green" d="M3691.15,-4116.37C3663.03,-4105.53 3602.32,-4084.82 3549,-4084.82 1101,-4084.82 1101,-4084.82 1101,-4084.82 1031.29,-4084.82 991.824,-4113.35 946,-4060.82 911.946,-4021.78 910.958,-2322.86 910.989,-2082.08"/>
<polygon fill="green" stroke="green" points="914.489,-2082.02 910.991,-2072.02 907.489,-2082.02 914.489,-2082.02"/>
<text text-anchor="middle" x="2528" y="-4088.62" font-family="Times,serif" font-size="14.00">remove_fw_link</text>
</g>
<!-- q2&#45;&gt;q0 -->
<g id="edge23" class="edge"><title>q2&#45;&gt;q0</title>
<path fill="none" stroke="green" d="M3697.26,-4107.98C3690.98,-4099.49 3682.11,-4089.27 3672,-4082.82 3623.99,-4052.16 3605.96,-4046.82 3549,-4046.82 1101,-4046.82 1101,-4046.82 1101,-4046.82 1031.29,-4046.82 991.833,-4075.34 946,-4022.82 912.618,-3984.56 911.052,-2321.14 910.999,-2082.27"/>
<polygon fill="green" stroke="green" points="914.499,-2081.98 910.998,-2071.98 907.499,-2081.98 914.499,-2081.98"/>
<text text-anchor="middle" x="2528" y="-4050.62" font-family="Times,serif" font-size="14.00">check_seq_next</text>
</g>
<!-- q2&#45;&gt;q0 -->
<g id="edge24" class="edge"><title>q2&#45;&gt;q0</title>
<path fill="none" stroke="green" d="M3703.73,-4105.13C3699.49,-4087.16 3690.34,-4059.76 3672,-4043.82 3629.1,-4006.53 3605.84,-4008.82 3549,-4008.82 1101,-4008.82 1101,-4008.82 1101,-4008.82 1029.01,-4008.82 989.414,-4019.24 946,-3961.82 916.359,-3922.61 911.595,-2315.88 911.058,-2082.07"/>
<polygon fill="green" stroke="green" points="914.558,-2081.98 911.036,-2071.99 907.558,-2082 914.558,-2081.98"/>
<text text-anchor="middle" x="2528" y="-4012.62" font-family="Times,serif" font-size="14.00">check_seq_prev</text>
</g>
<!-- q3 -->
<g id="node5" class="node"><title>q3</title>
<ellipse fill="none" stroke="green" cx="3548" cy="-3812.82" rx="18" ry="18"/>
<text text-anchor="middle" x="3548" y="-3809.12" font-family="Times,serif" font-size="14.00">D</text>
</g>
<!-- q3&#45;&gt;q0 -->
<g id="edge26" class="edge"><title>q3&#45;&gt;q0</title>
<path fill="none" stroke="green" d="M3546.67,-3830.79C3545.2,-3856.16 3538.75,-3902.32 3512,-3928.82 3470.23,-3970.19 3443.79,-3965.82 3385,-3965.82 1101,-3965.82 1101,-3965.82 1101,-3965.82 1030.18,-3965.82 990.4,-3983.99 946,-3928.82 915.752,-3891.22 911.511,-2314.68 911.049,-2082.3"/>
<polygon fill="green" stroke="green" points="914.549,-2081.97 911.03,-2071.98 907.549,-2081.99 914.549,-2081.97"/>
<text text-anchor="middle" x="2418" y="-3969.62" font-family="Times,serif" font-size="14.00">chain_node</text>
</g>
<!-- q3&#45;&gt;q0 -->
<g id="edge27" class="edge"><title>q3&#45;&gt;q0</title>
<path fill="none" stroke="green" d="M3541.97,-3829.93C3536.77,-3844.67 3527.25,-3865.48 3512,-3877.82 3466.29,-3914.79 3443.79,-3914.82 3385,-3914.82 1101,-3914.82 1101,-3914.82 1101,-3914.82 1030.18,-3914.82 990.414,-3932.98 946,-3877.82 916.596,-3841.29 911.641,-2310.76 911.065,-2082.24"/>
<polygon fill="green" stroke="green" points="914.564,-2082.06 911.04,-2072.07 907.564,-2082.08 914.564,-2082.06"/>
<text text-anchor="middle" x="2418" y="-3918.62" font-family="Times,serif" font-size="14.00">create_sll</text>
</g>
<!-- q3&#45;&gt;q0 -->
<g id="edge28" class="edge"><title>q3&#45;&gt;q0</title>
<path fill="none" stroke="green" d="M3531.86,-3821.01C3503.78,-3835.43 3441.32,-3863.82 3385,-3863.82 1101,-3863.82 1101,-3863.82 1101,-3863.82 1030.18,-3863.82 990.429,-3881.97 946,-3826.82 917.437,-3791.36 911.774,-2306.6 911.08,-2082.12"/>
<polygon fill="green" stroke="green" points="914.579,-2081.83 911.049,-2071.84 907.58,-2081.85 914.579,-2081.83"/>
<text text-anchor="middle" x="2418" y="-3867.62" font-family="Times,serif" font-size="14.00">init_back_link</text>
</g>
<!-- q3&#45;&gt;q0 -->
<g id="edge29" class="edge"><title>q3&#45;&gt;q0</title>
<path fill="none" stroke="green" d="M3529.97,-3812.82C3500.46,-3812.82 3437.88,-3812.82 3385,-3812.82 1101,-3812.82 1101,-3812.82 1101,-3812.82 1030.18,-3812.82 990.446,-3830.96 946,-3775.82 918.277,-3741.42 911.91,-2302.33 911.097,-2081.99"/>
<polygon fill="green" stroke="green" points="914.596,-2081.87 911.06,-2071.89 907.596,-2081.9 914.596,-2081.87"/>
<text text-anchor="middle" x="2418" y="-3816.62" font-family="Times,serif" font-size="14.00">reverse_dll</text>
</g>
<!-- q3&#45;&gt;q0 -->
<g id="edge30" class="edge"><title>q3&#45;&gt;q0</title>
<path fill="none" stroke="green" d="M3531.86,-3804.62C3503.78,-3790.2 3441.32,-3761.82 3385,-3761.82 1101,-3761.82 1101,-3761.82 1101,-3761.82 1030.18,-3761.82 990.463,-3779.94 946,-3724.82 919.128,-3691.5 912.056,-2299.25 911.115,-2082.15"/>
<polygon fill="green" stroke="green" points="914.614,-2081.89 911.072,-2071.9 907.614,-2081.92 914.614,-2081.89"/>
<text text-anchor="middle" x="2418" y="-3765.62" font-family="Times,serif" font-size="14.00">remove_fw_link</text>
</g>
<!-- q3&#45;&gt;q0 -->
<g id="edge31" class="edge"><title>q3&#45;&gt;q0</title>
<path fill="none" stroke="green" d="M3539.53,-3796.82C3533.5,-3785.43 3524.05,-3770.49 3512,-3760.82 3464.71,-3722.83 3445.66,-3710.82 3385,-3710.82 1101,-3710.82 1101,-3710.82 1101,-3710.82 1030.18,-3710.82 990.481,-3728.93 946,-3673.82 919.965,-3641.56 912.198,-2294.57 911.133,-2081.95"/>
<polygon fill="green" stroke="green" points="914.633,-2081.88 911.084,-2071.9 907.633,-2081.91 914.633,-2081.88"/>
<text text-anchor="middle" x="2418" y="-3714.62" font-family="Times,serif" font-size="14.00">check_seq_next</text>
</g>
<!-- q3&#45;&gt;q0 -->
<g id="edge33" class="edge"><title>q3&#45;&gt;q0</title>
<path fill="none" stroke="green" d="M3545.54,-3794.62C3542.76,-3771.75 3534.79,-3732.62 3512,-3708.82 3470.16,-3665.11 3445.5,-3659.82 3385,-3659.82 1101,-3659.82 1101,-3659.82 1101,-3659.82 1029.74,-3659.82 990.098,-3674.79 946,-3618.82 921.254,-3587.41 912.423,-2290.35 911.163,-2081.94"/>
<polygon fill="green" stroke="green" points="914.662,-2081.79 911.102,-2071.81 907.662,-2081.83 914.662,-2081.79"/>
<text text-anchor="middle" x="2418" y="-3663.62" font-family="Times,serif" font-size="14.00">Learn_Assert</text>
</g>
<!-- q3&#45;&gt;q2 -->
<g id="edge32" class="edge"><title>q3&#45;&gt;q2</title>
<path fill="none" stroke="green" d="M3561.18,-3825.5C3585.89,-3851.96 3642.1,-3915.88 3672,-3979.82 3689.65,-4017.55 3699.01,-4065.2 3703.48,-4094.84"/>
<polygon fill="green" stroke="green" points="3700.04,-4095.49 3704.92,-4104.9 3706.97,-4094.5 3700.04,-4095.49"/>
<text text-anchor="middle" x="3628" y="-3983.62" font-family="Times,serif" font-size="14.00">check_seq_prev</text>
</g>
<!-- q4 -->
<g id="node6" class="node"><title>q4</title>
<ellipse fill="none" stroke="green" cx="3384" cy="-3499.82" rx="18" ry="18"/>
<text text-anchor="middle" x="3384" y="-3496.12" font-family="Times,serif" font-size="14.00">D</text>
</g>
<!-- q4&#45;&gt;q0 -->
<g id="edge34" class="edge"><title>q4&#45;&gt;q0</title>
<path fill="none" stroke="green" d="M3381.15,-3517.64C3378.03,-3538.24 3369.74,-3571.64 3348,-3589.82 3305.27,-3625.54 3280.7,-3613.82 3225,-3613.82 1101,-3613.82 1101,-3613.82 1101,-3613.82 1031.29,-3613.82 991.965,-3642.22 946,-3589.82 920.15,-3560.34 912.257,-2288.84 911.144,-2082.09"/>
<polygon fill="green" stroke="green" points="914.644,-2082.01 911.091,-2072.03 907.644,-2082.05 914.644,-2082.01"/>
<text text-anchor="middle" x="2310" y="-3617.62" font-family="Times,serif" font-size="14.00">chain_node</text>
</g>
<!-- q4&#45;&gt;q0 -->
<g id="edge35" class="edge"><title>q4&#45;&gt;q0</title>
<path fill="none" stroke="green" d="M3376.02,-3516.49C3370.24,-3528.21 3360.88,-3543.28 3348,-3551.82 3301.58,-3582.6 3280.7,-3575.82 3225,-3575.82 1101,-3575.82 1101,-3575.82 1101,-3575.82 1031.29,-3575.82 991.98,-3604.21 946,-3551.82 920.806,-3523.11 912.377,-2285.55 911.16,-2082.01"/>
<polygon fill="green" stroke="green" points="914.659,-2081.82 911.1,-2071.84 907.659,-2081.86 914.659,-2081.82"/>
<text text-anchor="middle" x="2310" y="-3579.62" font-family="Times,serif" font-size="14.00">create_sll</text>
</g>
<!-- q4&#45;&gt;q0 -->
<g id="edge36" class="edge"><title>q4&#45;&gt;q0</title>
<path fill="none" stroke="green" d="M3367.19,-3506.87C3361.26,-3509.32 3354.4,-3511.93 3348,-3513.82 3294.57,-3529.56 3280.7,-3537.82 3225,-3537.82 1101,-3537.82 1101,-3537.82 1101,-3537.82 1031.29,-3537.82 991.996,-3566.2 946,-3513.82 921.462,-3485.87 912.5,-2282.19 911.177,-2081.92"/>
<polygon fill="green" stroke="green" points="914.677,-2081.88 911.112,-2071.9 907.677,-2081.92 914.677,-2081.88"/>
<text text-anchor="middle" x="2310" y="-3541.62" font-family="Times,serif" font-size="14.00">init_back_link</text>
</g>
<!-- q4&#45;&gt;q0 -->
<g id="edge37" class="edge"><title>q4&#45;&gt;q0</title>
<path fill="none" stroke="green" d="M3365.93,-3499.82C3336.96,-3499.82 3276.3,-3499.82 3225,-3499.82 1101,-3499.82 1101,-3499.82 1101,-3499.82 1031.29,-3499.82 992.012,-3528.18 946,-3475.82 922.129,-3448.65 912.634,-2279.87 911.197,-2082.1"/>
<polygon fill="green" stroke="green" points="914.696,-2081.91 911.124,-2071.94 907.696,-2081.96 914.696,-2081.91"/>
<text text-anchor="middle" x="2310" y="-3503.62" font-family="Times,serif" font-size="14.00">reverse_dll</text>
</g>
<!-- q4&#45;&gt;q0 -->
<g id="edge39" class="edge"><title>q4&#45;&gt;q0</title>
<path fill="none" stroke="green" d="M3367.15,-3493.37C3339.03,-3482.53 3278.32,-3461.82 3225,-3461.82 1101,-3461.82 1101,-3461.82 1101,-3461.82 1031.29,-3461.82 992.03,-3490.17 946,-3437.82 922.793,-3411.42 912.771,-2277.34 911.218,-2082.24"/>
<polygon fill="green" stroke="green" points="914.715,-2081.93 911.137,-2071.96 907.716,-2081.98 914.715,-2081.93"/>
<text text-anchor="middle" x="2310" y="-3465.62" font-family="Times,serif" font-size="14.00">check_seq_next</text>
</g>
<!-- q4&#45;&gt;q0 -->
<g id="edge40" class="edge"><title>q4&#45;&gt;q0</title>
<path fill="none" stroke="green" d="M3373.26,-3484.98C3366.98,-3476.49 3358.11,-3466.27 3348,-3459.82 3299.99,-3429.16 3281.96,-3423.82 3225,-3423.82 1101,-3423.82 1101,-3423.82 1101,-3423.82 1031.29,-3423.82 992.049,-3452.15 946,-3399.82 923.444,-3374.18 912.901,-2273.51 911.237,-2082.06"/>
<polygon fill="green" stroke="green" points="914.736,-2081.92 911.15,-2071.95 907.736,-2081.98 914.736,-2081.92"/>
<text text-anchor="middle" x="2310" y="-3427.62" font-family="Times,serif" font-size="14.00">check_seq_prev</text>
</g>
<!-- q4&#45;&gt;q0 -->
<g id="edge41" class="edge"><title>q4&#45;&gt;q0</title>
<path fill="none" stroke="green" d="M3379.73,-3482.13C3375.49,-3464.16 3366.34,-3436.76 3348,-3420.82 3305.1,-3383.53 3281.84,-3385.82 3225,-3385.82 1101,-3385.82 1101,-3385.82 1101,-3385.82 1029.01,-3385.82 989.669,-3396.04 946,-3338.82 906.613,-3287.2 909.914,-2267.29 910.839,-2082.42"/>
<polygon fill="green" stroke="green" points="914.34,-2082.17 910.892,-2072.15 907.34,-2082.13 914.34,-2082.17"/>
<text text-anchor="middle" x="2310" y="-3389.62" font-family="Times,serif" font-size="14.00">Learn_Assert</text>
</g>
<!-- q4&#45;&gt;q3 -->
<g id="edge38" class="edge"><title>q4&#45;&gt;q3</title>
<path fill="none" stroke="green" d="M3399.16,-3509.86C3425.92,-3529.67 3483.77,-3576.59 3512,-3630.82 3537.96,-3680.69 3544.79,-3747.28 3546.51,-3784.53"/>
<polygon fill="green" stroke="green" points="3543.01,-3784.79 3546.88,-3794.65 3550.01,-3784.53 3543.01,-3784.79"/>
<text text-anchor="middle" x="3466" y="-3634.62" font-family="Times,serif" font-size="14.00">remove_fw_link</text>
</g>
<!-- q5 -->
<g id="node7" class="node"><title>q5</title>
<ellipse fill="none" stroke="green" cx="3224" cy="-3189.82" rx="18" ry="18"/>
<text text-anchor="middle" x="3224" y="-3186.12" font-family="Times,serif" font-size="14.00">D</text>
</g>
<!-- q5&#45;&gt;q0 -->
<g id="edge42" class="edge"><title>q5&#45;&gt;q0</title>
<path fill="none" stroke="green" d="M3222.61,-3208.19C3221.06,-3233.61 3214.49,-3279.35 3188,-3305.82 3147.62,-3346.16 3122.09,-3342.82 3065,-3342.82 1101,-3342.82 1101,-3342.82 1101,-3342.82 1030.18,-3342.82 990.655,-3360.79 946,-3305.82 906.155,-3256.76 909.816,-2264.12 910.823,-2082.29"/>
<polygon fill="green" stroke="green" points="914.324,-2082.19 910.881,-2072.17 907.324,-2082.15 914.324,-2082.19"/>
<text text-anchor="middle" x="2202" y="-3346.62" font-family="Times,serif" font-size="14.00">chain_node</text>
</g>
<!-- q5&#45;&gt;q0 -->
<g id="edge43" class="edge"><title>q5&#45;&gt;q0</title>
<path fill="none" stroke="green" d="M3217.94,-3206.89C3212.73,-3221.62 3203.19,-3242.42 3188,-3254.82 3143.77,-3290.91 3122.09,-3291.82 3065,-3291.82 1101,-3291.82 1101,-3291.82 1101,-3291.82 1030.18,-3291.82 990.688,-3309.76 946,-3254.82 907.808,-3207.86 910.101,-2258.51 910.86,-2081.95"/>
<polygon fill="green" stroke="green" points="914.36,-2081.9 910.905,-2071.89 907.36,-2081.87 914.36,-2081.9"/>
<text text-anchor="middle" x="2202" y="-3295.62" font-family="Times,serif" font-size="14.00">create_sll</text>
</g>
<!-- q5&#45;&gt;q0 -->
<g id="edge44" class="edge"><title>q5&#45;&gt;q0</title>
<path fill="none" stroke="green" d="M3207.83,-3198.24C3180.27,-3212.72 3119.77,-3240.82 3065,-3240.82 1101,-3240.82 1101,-3240.82 1101,-3240.82 1030.18,-3240.82 990.724,-3258.73 946,-3203.82 909.495,-3158.99 910.393,-2254.55 910.898,-2082.09"/>
<polygon fill="green" stroke="green" points="914.398,-2082.03 910.929,-2072.02 907.398,-2082.01 914.398,-2082.03"/>
<text text-anchor="middle" x="2202" y="-3244.62" font-family="Times,serif" font-size="14.00">init_back_link</text>
</g>
<!-- q5&#45;&gt;q0 -->
<g id="edge45" class="edge"><title>q5&#45;&gt;q0</title>
<path fill="none" stroke="green" d="M3205.93,-3189.82C3176.96,-3189.82 3116.3,-3189.82 3065,-3189.82 1101,-3189.82 1101,-3189.82 1101,-3189.82 1030.18,-3189.82 990.762,-3207.7 946,-3152.82 911.173,-3110.11 910.698,-2250.16 910.939,-2082.14"/>
<polygon fill="green" stroke="green" points="914.439,-2082.1 910.956,-2072.09 907.439,-2082.09 914.439,-2082.1"/>
<text text-anchor="middle" x="2202" y="-3193.62" font-family="Times,serif" font-size="14.00">reverse_dll</text>
</g>
<!-- q5&#45;&gt;q0 -->
<g id="edge46" class="edge"><title>q5&#45;&gt;q0</title>
<path fill="none" stroke="green" d="M3207.83,-3181.39C3180.27,-3166.91 3119.77,-3138.82 3065,-3138.82 1101,-3138.82 1101,-3138.82 1101,-3138.82 1030.18,-3138.82 990.805,-3156.67 946,-3101.82 912.86,-3061.24 911.019,-2246.16 910.985,-2082.34"/>
<polygon fill="green" stroke="green" points="914.485,-2082.1 910.985,-2072.1 907.485,-2082.1 914.485,-2082.1"/>
<text text-anchor="middle" x="2202" y="-3142.62" font-family="Times,serif" font-size="14.00">remove_fw_link</text>
</g>
<!-- q5&#45;&gt;q0 -->
<g id="edge48" class="edge"><title>q5&#45;&gt;q0</title>
<path fill="none" stroke="green" d="M3215.49,-3173.86C3209.45,-3162.49 3199.99,-3147.56 3188,-3137.82 3142.2,-3100.61 3124.01,-3087.82 3065,-3087.82 1101,-3087.82 1101,-3087.82 1101,-3087.82 1030.18,-3087.82 990.852,-3105.63 946,-3050.82 914.536,-3012.36 911.357,-2241.63 911.036,-2082.43"/>
<polygon fill="green" stroke="green" points="914.535,-2082.04 911.018,-2072.05 907.535,-2082.05 914.535,-2082.04"/>
<text text-anchor="middle" x="2202" y="-3091.62" font-family="Times,serif" font-size="14.00">check_seq_prev</text>
</g>
<!-- q5&#45;&gt;q0 -->
<g id="edge49" class="edge"><title>q5&#45;&gt;q0</title>
<path fill="none" stroke="green" d="M3221.49,-3171.65C3218.68,-3148.83 3210.66,-3109.75 3188,-3085.82 3147.54,-3043.09 3123.84,-3036.82 3065,-3036.82 1101,-3036.82 1101,-3036.82 1101,-3036.82 1030.28,-3036.82 991.005,-3055.37 946,-3000.82 916.031,-2964.49 911.672,-2235.35 911.086,-2081.98"/>
<polygon fill="green" stroke="green" points="914.586,-2081.93 911.05,-2071.94 907.586,-2081.96 914.586,-2081.93"/>
<text text-anchor="middle" x="2202" y="-3040.62" font-family="Times,serif" font-size="14.00">Learn_Assert</text>
</g>
<!-- q5&#45;&gt;q4 -->
<g id="edge47" class="edge"><title>q5&#45;&gt;q4</title>
<path fill="none" stroke="green" d="M3237.18,-3202.5C3261.89,-3228.96 3318.1,-3292.88 3348,-3356.82 3365.65,-3394.55 3375.01,-3442.2 3379.48,-3471.84"/>
<polygon fill="green" stroke="green" points="3376.04,-3472.49 3380.92,-3481.9 3382.97,-3471.5 3376.04,-3472.49"/>
<text text-anchor="middle" x="3304" y="-3360.62" font-family="Times,serif" font-size="14.00">check_seq_next</text>
</g>
<!-- q6 -->
<g id="node8" class="node"><title>q6</title>
<ellipse fill="none" stroke="green" cx="3064" cy="-2876.82" rx="18" ry="18"/>
<text text-anchor="middle" x="3064" y="-2873.12" font-family="Times,serif" font-size="14.00">D</text>
</g>
<!-- q6&#45;&gt;q0 -->
<g id="edge50" class="edge"><title>q6&#45;&gt;q0</title>
<path fill="none" stroke="green" d="M3060.93,-2894.82C3057.62,-2915.27 3049.15,-2948.22 3028,-2966.82 2994.65,-2996.14 2975.41,-2990.82 2931,-2990.82 2309,-2990.82 2309,-2990.82 2309,-2990.82 2115.21,-2990.82 2066.79,-2995.82 1873,-2995.82 1101,-2995.82 1101,-2995.82 1101,-2995.82 1031.29,-2995.82 992.365,-3023.87 946,-2971.82 915.697,-2937.79 911.605,-2232.95 911.076,-2082.08"/>
<polygon fill="green" stroke="green" points="914.575,-2081.8 911.042,-2071.81 907.575,-2081.82 914.575,-2081.8"/>
<text text-anchor="middle" x="2092" y="-2997.62" font-family="Times,serif" font-size="14.00">chain_node</text>
</g>
<!-- q6&#45;&gt;q0 -->
<g id="edge51" class="edge"><title>q6&#45;&gt;q0</title>
<path fill="none" stroke="green" d="M3055.89,-2893.3C3050.05,-2904.93 3040.66,-2919.96 3028,-2928.82 2991.61,-2954.27 2975.41,-2952.82 2931,-2952.82 2309,-2952.82 2309,-2952.82 2309,-2952.82 2115.21,-2952.82 2066.79,-2957.82 1873,-2957.82 1101,-2957.82 1101,-2957.82 1101,-2957.82 1031.29,-2957.82 992.408,-2985.83 946,-2933.82 917.014,-2901.33 911.9,-2229.77 911.125,-2082.29"/>
<polygon fill="green" stroke="green" points="914.623,-2081.83 911.073,-2071.85 907.623,-2081.86 914.623,-2081.83"/>
<text text-anchor="middle" x="2092" y="-2959.62" font-family="Times,serif" font-size="14.00">create_sll</text>
</g>
<!-- q6&#45;&gt;q0 -->
<g id="edge52" class="edge"><title>q6&#45;&gt;q0</title>
<path fill="none" stroke="green" d="M3047.57,-2884.32C3023.34,-2895.4 2974.64,-2914.82 2931,-2914.82 2309,-2914.82 2309,-2914.82 2309,-2914.82 2115.21,-2914.82 2066.79,-2919.82 1873,-2919.82 1101,-2919.82 1101,-2919.82 1101,-2919.82 1031.29,-2919.82 992.454,-2947.79 946,-2895.82 918.295,-2864.82 912.195,-2224.92 911.176,-2081.97"/>
<polygon fill="green" stroke="green" points="914.675,-2081.8 911.107,-2071.83 907.675,-2081.85 914.675,-2081.8"/>
<text text-anchor="middle" x="2092" y="-2921.62" font-family="Times,serif" font-size="14.00">init_back_link</text>
</g>
<!-- q6&#45;&gt;q0 -->
<g id="edge53" class="edge"><title>q6&#45;&gt;q0</title>
<path fill="none" stroke="green" d="M3045.91,-2876.82C3020.75,-2876.82 2972.25,-2876.82 2931,-2876.82 2309,-2876.82 2309,-2876.82 2309,-2876.82 2115.21,-2876.82 2066.79,-2881.82 1873,-2881.82 1101,-2881.82 1101,-2881.82 1101,-2881.82 1031.29,-2881.82 992.505,-2909.75 946,-2857.82 919.626,-2828.36 912.528,-2222.34 911.238,-2082.45"/>
<polygon fill="green" stroke="green" points="914.735,-2082.1 911.146,-2072.13 907.736,-2082.16 914.735,-2082.1"/>
<text text-anchor="middle" x="2092" y="-2883.62" font-family="Times,serif" font-size="14.00">reverse_dll</text>
</g>
<!-- q6&#45;&gt;q0 -->
<g id="edge54" class="edge"><title>q6&#45;&gt;q0</title>
<path fill="none" stroke="green" d="M3047.57,-2869.31C3023.34,-2858.23 2974.64,-2838.82 2931,-2838.82 2201,-2838.82 2201,-2838.82 2201,-2838.82 2055.21,-2838.82 2018.79,-2843.82 1873,-2843.82 1101,-2843.82 1101,-2843.82 1101,-2843.82 1031.29,-2843.82 992.561,-2871.7 946,-2819.82 920.919,-2791.87 912.86,-2218.02 911.301,-2082.37"/>
<polygon fill="green" stroke="green" points="914.797,-2081.95 911.185,-2071.99 907.798,-2082.03 914.797,-2081.95"/>
<text text-anchor="middle" x="2092" y="-2844.62" font-family="Times,serif" font-size="14.00">remove_fw_link</text>
</g>
<!-- q6&#45;&gt;q0 -->
<g id="edge55" class="edge"><title>q6&#45;&gt;q0</title>
<path fill="none" stroke="green" d="M3052.7,-2862.26C3046.35,-2854.16 3037.6,-2844.41 3028,-2837.82 2989.97,-2811.69 2977.14,-2800.82 2931,-2800.82 2201,-2800.82 2201,-2800.82 2201,-2800.82 2055.21,-2800.82 2018.79,-2805.82 1873,-2805.82 1101,-2805.82 1101,-2805.82 1101,-2805.82 1031.29,-2805.82 992.623,-2833.64 946,-2781.82 922.18,-2755.34 913.185,-2212.23 911.364,-2081.8"/>
<polygon fill="green" stroke="green" points="914.864,-2081.75 911.227,-2071.79 907.865,-2081.84 914.864,-2081.75"/>
<text text-anchor="middle" x="2092" y="-2806.62" font-family="Times,serif" font-size="14.00">check_seq_next</text>
</g>
<!-- q6&#45;&gt;q0 -->
<g id="edge57" class="edge"><title>q6&#45;&gt;q0</title>
<path fill="none" stroke="green" d="M3059.15,-2859.24C3054.51,-2841.96 3045.12,-2815.9 3028,-2799.82 2994.37,-2768.22 2977.14,-2762.82 2931,-2762.82 2201,-2762.82 2201,-2762.82 2201,-2762.82 2055.21,-2762.82 2018.79,-2767.82 1873,-2767.82 1101,-2767.82 1101,-2767.82 1101,-2767.82 1029.01,-2767.82 990.386,-2777.49 946,-2720.82 926.025,-2695.31 914.25,-2205.93 911.583,-2082.1"/>
<polygon fill="green" stroke="green" points="915.078,-2081.83 911.367,-2071.91 908.08,-2081.98 915.078,-2081.83"/>
<text text-anchor="middle" x="2092" y="-2768.62" font-family="Times,serif" font-size="14.00">Learn_Assert</text>
</g>
<!-- q6&#45;&gt;q5 -->
<g id="edge56" class="edge"><title>q6&#45;&gt;q5</title>
<path fill="none" stroke="green" d="M3079.11,-2887.28C3105.2,-2907.45 3160.77,-2954.47 3188,-3007.82 3213.56,-3057.9 3220.54,-3124.41 3222.39,-3161.59"/>
<polygon fill="green" stroke="green" points="3218.89,-3161.85 3222.8,-3171.69 3225.89,-3161.56 3218.89,-3161.85"/>
<text text-anchor="middle" x="3144" y="-3011.62" font-family="Times,serif" font-size="14.00">check_seq_prev</text>
</g>
<!-- q7 -->
<g id="node9" class="node"><title>q7</title>
<ellipse fill="none" stroke="green" cx="2930" cy="-2571.82" rx="18" ry="18"/>
<text text-anchor="middle" x="2930" y="-2568.12" font-family="Times,serif" font-size="14.00">D</text>
</g>
<!-- q7&#45;&gt;q0 -->
<g id="edge58" class="edge"><title>q7&#45;&gt;q0</title>
<path fill="none" stroke="green" d="M2928.61,-2590.19C2927.06,-2615.61 2920.49,-2661.35 2894,-2687.82 2853.62,-2728.16 2828.09,-2724.82 2771,-2724.82 1101,-2724.82 1101,-2724.82 1101,-2724.82 1030.18,-2724.82 991.399,-2742.18 946,-2687.82 906.81,-2640.89 909.259,-2199.19 910.61,-2082.16"/>
<polygon fill="green" stroke="green" points="914.113,-2081.91 910.736,-2071.87 907.114,-2081.82 914.113,-2081.91"/>
<text text-anchor="middle" x="1982" y="-2728.62" font-family="Times,serif" font-size="14.00">chain_node</text>
</g>
<!-- q7&#45;&gt;q0 -->
<g id="edge59" class="edge"><title>q7&#45;&gt;q0</title>
<path fill="none" stroke="green" d="M2923.94,-2588.89C2918.73,-2603.62 2909.19,-2624.42 2894,-2636.82 2849.77,-2672.91 2828.09,-2673.82 2771,-2673.82 1101,-2673.82 1101,-2673.82 1101,-2673.82 1030.18,-2673.82 991.53,-2691.07 946,-2636.82 910.082,-2594.02 910.068,-2192.75 910.759,-2082"/>
<polygon fill="green" stroke="green" points="914.259,-2081.96 910.829,-2071.93 907.259,-2081.91 914.259,-2081.96"/>
<text text-anchor="middle" x="1982" y="-2677.62" font-family="Times,serif" font-size="14.00">create_sll</text>
</g>
<!-- q7&#45;&gt;q0 -->
<g id="edge60" class="edge"><title>q7&#45;&gt;q0</title>
<path fill="none" stroke="green" d="M2913.83,-2580.24C2886.27,-2594.72 2825.77,-2622.82 2771,-2622.82 1101,-2622.82 1101,-2622.82 1101,-2622.82 1030.18,-2622.82 991.685,-2639.94 946,-2585.82 913.383,-2547.18 910.948,-2186.88 910.934,-2082.21"/>
<polygon fill="green" stroke="green" points="914.434,-2082.08 910.94,-2072.08 907.434,-2082.08 914.434,-2082.08"/>
<text text-anchor="middle" x="1982" y="-2626.62" font-family="Times,serif" font-size="14.00">init_back_link</text>
</g>
<!-- q7&#45;&gt;q0 -->
<g id="edge62" class="edge"><title>q7&#45;&gt;q0</title>
<path fill="none" stroke="green" d="M2911.93,-2571.82C2882.96,-2571.82 2822.3,-2571.82 2771,-2571.82 1101,-2571.82 1101,-2571.82 1101,-2571.82 1030.18,-2571.82 991.873,-2588.78 946,-2534.82 916.631,-2500.27 911.904,-2179.76 911.145,-2081.99"/>
<polygon fill="green" stroke="green" points="914.645,-2081.94 911.075,-2071.97 907.645,-2081.99 914.645,-2081.94"/>
<text text-anchor="middle" x="1982" y="-2575.62" font-family="Times,serif" font-size="14.00">remove_fw_link</text>
</g>
<!-- q7&#45;&gt;q0 -->
<g id="edge63" class="edge"><title>q7&#45;&gt;q0</title>
<path fill="none" stroke="green" d="M2913.83,-2563.39C2886.27,-2548.91 2825.77,-2520.82 2771,-2520.82 1101,-2520.82 1101,-2520.82 1101,-2520.82 1030.92,-2520.82 992.883,-2543.91 946,-2491.82 918.632,-2461.4 912.554,-2174.38 911.303,-2082.18"/>
<polygon fill="green" stroke="green" points="914.8,-2081.89 911.174,-2071.93 907.8,-2081.98 914.8,-2081.89"/>
<text text-anchor="middle" x="1982" y="-2524.62" font-family="Times,serif" font-size="14.00">check_seq_next</text>
</g>
<!-- q7&#45;&gt;q0 -->
<g id="edge64" class="edge"><title>q7&#45;&gt;q0</title>
<path fill="none" stroke="green" d="M2921.49,-2555.86C2915.45,-2544.49 2905.99,-2529.56 2894,-2519.82 2848.2,-2482.61 2830.01,-2469.82 2771,-2469.82 2091,-2469.82 2091,-2469.82 2091,-2469.82 1896.3,-2469.82 1847.7,-2477.82 1653,-2477.82 1101,-2477.82 1101,-2477.82 1101,-2477.82 1031.29,-2477.82 993.63,-2504.72 946,-2453.82 920.678,-2426.76 913.274,-2168.64 911.493,-2082.01"/>
<polygon fill="green" stroke="green" points="914.989,-2081.79 911.294,-2071.86 907.99,-2081.93 914.989,-2081.79"/>
<text text-anchor="middle" x="1982" y="-2474.62" font-family="Times,serif" font-size="14.00">check_seq_prev</text>
</g>
<!-- q7&#45;&gt;q0 -->
<g id="edge65" class="edge"><title>q7&#45;&gt;q0</title>
<path fill="none" stroke="green" d="M2927.49,-2553.65C2924.68,-2530.83 2916.66,-2491.75 2894,-2467.82 2853.54,-2425.09 2829.84,-2418.82 2771,-2418.82 2091,-2418.82 2091,-2418.82 2091,-2418.82 1896.11,-2418.82 1847.89,-2439.82 1653,-2439.82 1101,-2439.82 1101,-2439.82 1101,-2439.82 1030.57,-2439.82 992.966,-2459.3 946,-2406.82 924.477,-2382.76 914.734,-2161.38 911.91,-2081.99"/>
<polygon fill="green" stroke="green" points="915.4,-2081.63 911.557,-2071.76 908.404,-2081.88 915.4,-2081.63"/>
<text text-anchor="middle" x="1982" y="-2427.62" font-family="Times,serif" font-size="14.00">Learn_Assert</text>
</g>
<!-- q7&#45;&gt;q6 -->
<g id="edge61" class="edge"><title>q7&#45;&gt;q6</title>
<path fill="none" stroke="green" d="M2941.36,-2585.79C2961.04,-2612.93 3003.96,-2675.29 3028,-2733.82 3043.83,-2772.35 3053.69,-2819.78 3058.76,-2849.16"/>
<polygon fill="green" stroke="green" points="3055.33,-2849.83 3060.42,-2859.12 3062.23,-2848.68 3055.33,-2849.83"/>
<text text-anchor="middle" x="2997" y="-2737.62" font-family="Times,serif" font-size="14.00">reverse_dll</text>
</g>
<!-- q8 -->
<g id="node10" class="node"><title>q8</title>
<ellipse fill="none" stroke="green" cx="2770" cy="-2258.82" rx="18" ry="18"/>
<text text-anchor="middle" x="2770" y="-2255.12" font-family="Times,serif" font-size="14.00">D</text>
</g>
<!-- q8&#45;&gt;q0 -->
<g id="edge66" class="edge"><title>q8&#45;&gt;q0</title>
<path fill="none" stroke="green" d="M2767.15,-2276.64C2764.03,-2297.24 2755.74,-2330.64 2734,-2348.82 2691.27,-2384.54 2666.7,-2372.82 2611,-2372.82 2091,-2372.82 2091,-2372.82 2091,-2372.82 1895.91,-2372.82 1848.09,-2401.82 1653,-2401.82 1101,-2401.82 1101,-2401.82 1101,-2401.82 1031.29,-2401.82 994.145,-2428.23 946,-2377.82 925.749,-2356.61 915.345,-2157.29 912.119,-2082.22"/>
<polygon fill="green" stroke="green" points="915.61,-2081.93 911.695,-2072.09 908.616,-2082.22 915.61,-2081.93"/>
<text text-anchor="middle" x="1872" y="-2395.62" font-family="Times,serif" font-size="14.00">chain_node</text>
</g>
<!-- q8&#45;&gt;q0 -->
<g id="edge67" class="edge"><title>q8&#45;&gt;q0</title>
<path fill="none" stroke="green" d="M2762.02,-2275.49C2756.24,-2287.21 2746.88,-2302.28 2734,-2310.82 2687.58,-2341.6 2666.7,-2334.82 2611,-2334.82 2091,-2334.82 2091,-2334.82 2091,-2334.82 1895.91,-2334.82 1848.09,-2363.82 1653,-2363.82 1101,-2363.82 1101,-2363.82 1101,-2363.82 1031.29,-2363.82 994.501,-2389.89 946,-2339.82 910.961,-2303.64 909.388,-2147.44 910.314,-2082.4"/>
<polygon fill="green" stroke="green" points="913.819,-2082.13 910.493,-2072.07 906.82,-2082.01 913.819,-2082.13"/>
<text text-anchor="middle" x="1872" y="-2357.62" font-family="Times,serif" font-size="14.00">create_sll</text>
</g>
<!-- q8&#45;&gt;q0 -->
<g id="edge68" class="edge"><title>q8&#45;&gt;q0</title>
<path fill="none" stroke="green" d="M2753.19,-2265.87C2747.26,-2268.32 2740.4,-2270.93 2734,-2272.82 2680.57,-2288.56 2666.7,-2296.82 2611,-2296.82 2091,-2296.82 2091,-2296.82 2091,-2296.82 1895.91,-2296.82 1848.09,-2325.82 1653,-2325.82 1101,-2325.82 1101,-2325.82 1101,-2325.82 1031.29,-2325.82 994.961,-2351.44 946,-2301.82 915.875,-2271.28 911.395,-2140.52 910.925,-2082.15"/>
<polygon fill="green" stroke="green" points="914.423,-2081.8 910.878,-2071.81 907.423,-2081.83 914.423,-2081.8"/>
<text text-anchor="middle" x="1872" y="-2319.62" font-family="Times,serif" font-size="14.00">init_back_link</text>
</g>
<!-- q8&#45;&gt;q0 -->
<g id="edge69" class="edge"><title>q8&#45;&gt;q0</title>
<path fill="none" stroke="green" d="M2751.93,-2258.82C2722.96,-2258.82 2662.3,-2258.82 2611,-2258.82 2091,-2258.82 2091,-2258.82 2091,-2258.82 1895.91,-2258.82 1848.09,-2287.82 1653,-2287.82 1101,-2287.82 1101,-2287.82 1101,-2287.82 1031.29,-2287.82 995.576,-2312.82 946,-2263.82 920.785,-2238.89 913.706,-2133.38 911.742,-2082.07"/>
<polygon fill="green" stroke="green" points="915.237,-2081.86 911.396,-2071.99 908.241,-2082.1 915.237,-2081.86"/>
<text text-anchor="middle" x="1872" y="-2281.62" font-family="Times,serif" font-size="14.00">reverse_dll</text>
</g>
<!-- q8&#45;&gt;q0 -->
<g id="edge70" class="edge"><title>q8&#45;&gt;q0</title>
<path fill="none" stroke="green" d="M2753.15,-2252.37C2725.03,-2241.53 2664.32,-2220.82 2611,-2220.82 2091,-2220.82 2091,-2220.82 2091,-2220.82 1895.91,-2220.82 1848.09,-2249.82 1653,-2249.82 1101,-2249.82 1101,-2249.82 1101,-2249.82 1031.29,-2249.82 996.44,-2273.93 946,-2225.82 925.673,-2206.42 916.471,-2125.75 912.913,-2082.12"/>
<polygon fill="green" stroke="green" points="916.382,-2081.59 912.126,-2071.89 909.403,-2082.13 916.382,-2081.59"/>
<text text-anchor="middle" x="1872" y="-2243.62" font-family="Times,serif" font-size="14.00">remove_fw_link</text>
</g>
<!-- q8&#45;&gt;q0 -->
<g id="edge71" class="edge"><title>q8&#45;&gt;q0</title>
<path fill="none" stroke="green" d="M2759.26,-2243.98C2752.98,-2235.49 2744.11,-2225.27 2734,-2218.82 2685.99,-2188.16 2667.96,-2182.82 2611,-2182.82 2091,-2182.82 2091,-2182.82 2091,-2182.82 1895.91,-2182.82 1848.09,-2211.82 1653,-2211.82 1101,-2211.82 1101,-2211.82 1101,-2211.82 1031.29,-2211.82 997.738,-2234.53 946,-2187.82 930.434,-2173.76 919.83,-2116.63 914.653,-2081.66"/>
<polygon fill="green" stroke="green" points="918.095,-2081 913.222,-2071.6 911.164,-2081.99 918.095,-2081"/>
<text text-anchor="middle" x="1872" y="-2205.62" font-family="Times,serif" font-size="14.00">check_seq_next</text>
</g>
<!-- q8&#45;&gt;q0 -->
<g id="edge73" class="edge"><title>q8&#45;&gt;q0</title>
<path fill="none" stroke="green" d="M2765.73,-2241.13C2761.49,-2223.16 2752.34,-2195.76 2734,-2179.82 2691.1,-2142.53 2667.84,-2144.82 2611,-2144.82 1981,-2144.82 1981,-2144.82 1981,-2144.82 1834.65,-2144.82 1799.35,-2173.82 1653,-2173.82 1101,-2173.82 1101,-2173.82 1101,-2173.82 1028.75,-2173.82 1000.81,-2171.88 946,-2124.82 932.7,-2113.4 923.964,-2095.73 918.546,-2080.87"/>
<polygon fill="green" stroke="green" points="921.789,-2079.53 915.31,-2071.15 915.147,-2081.74 921.789,-2079.53"/>
<text text-anchor="middle" x="1872" y="-2160.62" font-family="Times,serif" font-size="14.00">Learn_Assert</text>
</g>
<!-- q8&#45;&gt;q7 -->
<g id="edge72" class="edge"><title>q8&#45;&gt;q7</title>
<path fill="none" stroke="green" d="M2785.11,-2269.28C2811.2,-2289.45 2866.77,-2336.47 2894,-2389.82 2919.56,-2439.9 2926.54,-2506.41 2928.39,-2543.59"/>
<polygon fill="green" stroke="green" points="2924.89,-2543.85 2928.8,-2553.69 2931.89,-2543.56 2924.89,-2543.85"/>
<text text-anchor="middle" x="2850" y="-2393.62" font-family="Times,serif" font-size="14.00">check_seq_prev</text>
</g>
<!-- q9 -->
<g id="node11" class="node"><title>q9</title>
<ellipse fill="none" stroke="green" cx="2610" cy="-1977.82" rx="18" ry="18"/>
<text text-anchor="middle" x="2610" y="-1974.12" font-family="Times,serif" font-size="14.00">D</text>
</g>
<!-- q9&#45;&gt;q0 -->
<g id="edge74" class="edge"><title>q9&#45;&gt;q0</title>
<path fill="none" stroke="green" d="M2608.45,-1995.78C2606.69,-2019.55 2599.84,-2060.99 2574,-2082.82 2520.74,-2127.79 2488.71,-2106.82 2419,-2106.82 2091,-2106.82 2091,-2106.82 2091,-2106.82 1896.04,-2106.82 1847.96,-2130.82 1653,-2130.82 1101,-2130.82 1101,-2130.82 1101,-2130.82 1030.18,-2130.82 1006.63,-2130.42 946,-2093.82 938.779,-2089.46 932.253,-2083.11 926.845,-2076.75"/>
<polygon fill="green" stroke="green" points="929.558,-2074.54 920.627,-2068.84 924.055,-2078.87 929.558,-2074.54"/>
<text text-anchor="middle" x="1762" y="-2133.62" font-family="Times,serif" font-size="14.00">chain_node</text>
</g>
<!-- q9&#45;&gt;q0 -->
<g id="edge75" class="edge"><title>q9&#45;&gt;q0</title>
<path fill="none" stroke="green" d="M2604.4,-1995.08C2599.45,-2010.13 2590.05,-2031.32 2574,-2042.82 2517.21,-2083.49 2488.85,-2068.82 2419,-2068.82 2091,-2068.82 2091,-2068.82 2091,-2068.82 1896.27,-2068.82 1847.73,-2079.82 1653,-2079.82 1101,-2079.82 1101,-2079.82 1101,-2079.82 1042.21,-2079.82 974.133,-2067.45 937.545,-2059.77"/>
<polygon fill="green" stroke="green" points="938.182,-2056.33 927.67,-2057.65 936.713,-2063.17 938.182,-2056.33"/>
<text text-anchor="middle" x="1762" y="-2082.62" font-family="Times,serif" font-size="14.00">create_sll</text>
</g>
<!-- q9&#45;&gt;q0 -->
<g id="edge76" class="edge"><title>q9&#45;&gt;q0</title>
<path fill="none" stroke="green" d="M2593.12,-1985.12C2560.98,-1999.22 2485.6,-2028.82 2419,-2028.82 1101,-2028.82 1101,-2028.82 1101,-2028.82 1042.25,-2028.82 974.158,-2040.71 937.557,-2048.09"/>
<polygon fill="green" stroke="green" points="936.764,-2044.68 927.678,-2050.13 938.179,-2051.53 936.764,-2044.68"/>
<text text-anchor="middle" x="1762" y="-2032.62" font-family="Times,serif" font-size="14.00">init_back_link</text>
</g>
<!-- q9&#45;&gt;q0 -->
<g id="edge77" class="edge"><title>q9&#45;&gt;q0</title>
<path fill="none" stroke="green" d="M2591.97,-1977.82C2558.72,-1977.82 2482.83,-1977.82 2419,-1977.82 1101,-1977.82 1101,-1977.82 1101,-1977.82 1028.48,-1977.82 1010.69,-1996.03 946,-2028.82 941.491,-2031.1 936.92,-2033.92 932.635,-2036.84"/>
<polygon fill="green" stroke="green" points="930.409,-2034.13 924.351,-2042.82 934.507,-2039.81 930.409,-2034.13"/>
<text text-anchor="middle" x="1762" y="-1981.62" font-family="Times,serif" font-size="14.00">reverse_dll</text>
</g>
<!-- q9&#45;&gt;q0 -->
<g id="edge78" class="edge"><title>q9&#45;&gt;q0</title>
<path fill="none" stroke="green" d="M2593.12,-1970.51C2560.98,-1956.41 2485.6,-1926.82 2419,-1926.82 1101,-1926.82 1101,-1926.82 1101,-1926.82 1028.05,-1926.82 1000.39,-1932.2 946,-1980.82 932.419,-1992.96 923.618,-2011.52 918.239,-2026.88"/>
<polygon fill="green" stroke="green" points="914.901,-2025.83 915.182,-2036.42 921.567,-2027.96 914.901,-2025.83"/>
<text text-anchor="middle" x="1762" y="-1930.62" font-family="Times,serif" font-size="14.00">remove_fw_link</text>
</g>
<!-- q9&#45;&gt;q0 -->
<g id="edge80" class="edge"><title>q9&#45;&gt;q0</title>
<path fill="none" stroke="green" d="M2600.83,-1962.03C2594.71,-1951.58 2585.43,-1938.29 2574,-1929.82 2515.4,-1886.37 2491.95,-1875.82 2419,-1875.82 1101,-1875.82 1101,-1875.82 1101,-1875.82 1028.62,-1875.82 996.016,-1873.49 946,-1925.82 920.31,-1952.69 913.101,-1996.55 911.281,-2025.3"/>
<polygon fill="green" stroke="green" points="907.775,-2025.36 910.82,-2035.51 914.768,-2025.68 907.775,-2025.36"/>
<text text-anchor="middle" x="1762" y="-1879.62" font-family="Times,serif" font-size="14.00">check_seq_prev</text>
</g>
<!-- q9&#45;&gt;q0 -->
<g id="edge81" class="edge"><title>q9&#45;&gt;q0</title>
<path fill="none" stroke="green" d="M2607.42,-1959.78C2604.53,-1937.58 2596.45,-1900.11 2574,-1877.82 2522.33,-1826.52 2491.8,-1824.82 2419,-1824.82 1101,-1824.82 1101,-1824.82 1101,-1824.82 1028.75,-1824.82 994.091,-1819.9 946,-1873.82 926.326,-1895.87 916.778,-1980.64 913.018,-2025.53"/>
<polygon fill="green" stroke="green" points="909.508,-2025.52 912.203,-2035.77 916.486,-2026.08 909.508,-2025.52"/>
<text text-anchor="middle" x="1762" y="-1828.62" font-family="Times,serif" font-size="14.00">Learn_Assert</text>
</g>
<!-- q9&#45;&gt;q8 -->
<g id="edge79" class="edge"><title>q9&#45;&gt;q8</title>
<path fill="none" stroke="green" d="M2624.44,-1988.81C2649.9,-2010.39 2705.18,-2060.99 2734,-2115.82 2753.38,-2152.69 2762.27,-2200.57 2766.17,-2230.5"/>
<polygon fill="green" stroke="green" points="2762.73,-2231.15 2767.39,-2240.66 2769.68,-2230.32 2762.73,-2231.15"/>
<text text-anchor="middle" x="2690" y="-2119.62" font-family="Times,serif" font-size="14.00">check_seq_next</text>
</g>
<!-- q10 -->
<g id="node12" class="node"><title>q10</title>
<ellipse fill="none" stroke="green" cx="2418" cy="-1607.82" rx="18" ry="18"/>
<text text-anchor="middle" x="2418" y="-1604.12" font-family="Times,serif" font-size="14.00">D</text>
</g>
<!-- q10&#45;&gt;q0 -->
<g id="edge82" class="edge"><title>q10&#45;&gt;q0</title>
<path fill="none" stroke="green" d="M2414.9,-1625.63C2410.16,-1657.13 2395.62,-1722.4 2354,-1754.82 2300.39,-1796.57 2270.95,-1778.82 2203,-1778.82 1871,-1778.82 1871,-1778.82 1871,-1778.82 1676.31,-1778.82 1627.69,-1785.82 1433,-1785.82 1101,-1785.82 1101,-1785.82 1101,-1785.82 1031.22,-1785.82 994.924,-1761.06 946,-1810.82 916.592,-1840.72 911.715,-1968.27 911.032,-2025.65"/>
<polygon fill="green" stroke="green" points="907.53,-2025.8 910.946,-2035.83 914.53,-2025.86 907.53,-2025.8"/>
<text text-anchor="middle" x="1652" y="-1787.62" font-family="Times,serif" font-size="14.00">chain_node</text>
</g>
<!-- q10&#45;&gt;q0 -->
<g id="edge83" class="edge"><title>q10&#45;&gt;q0</title>
<path fill="none" stroke="green" d="M2412.21,-1625.04C2404.4,-1649.7 2386.42,-1694.53 2354,-1716.82 2298,-1755.31 2270.95,-1740.82 2203,-1740.82 1871,-1740.82 1871,-1740.82 1871,-1740.82 1676.31,-1740.82 1627.69,-1747.82 1433,-1747.82 1101,-1747.82 1101,-1747.82 1101,-1747.82 1031,-1747.82 994.159,-1725.01 946,-1775.82 912.388,-1811.27 909.975,-1962.26 910.494,-2025.63"/>
<polygon fill="green" stroke="green" points="906.995,-2025.75 910.608,-2035.71 913.995,-2025.67 906.995,-2025.75"/>
<text text-anchor="middle" x="1652" y="-1749.62" font-family="Times,serif" font-size="14.00">create_sll</text>
</g>
<!-- q10&#45;&gt;q0 -->
<g id="edge85" class="edge"><title>q10&#45;&gt;q0</title>
<path fill="none" stroke="green" d="M2408.01,-1623.1C2397.36,-1639.72 2377.99,-1665.67 2354,-1678.82 2294.41,-1711.47 2270.95,-1702.82 2203,-1702.82 1871,-1702.82 1871,-1702.82 1871,-1702.82 1676.31,-1702.82 1627.69,-1709.82 1433,-1709.82 1101,-1709.82 1101,-1709.82 1101,-1709.82 1030.92,-1709.82 993.682,-1687.45 946,-1738.82 926.683,-1759.62 915.763,-1951.65 912.257,-2025.27"/>
<polygon fill="green" stroke="green" points="908.743,-2025.48 911.775,-2035.63 915.736,-2025.81 908.743,-2025.48"/>
<text text-anchor="middle" x="1652" y="-1711.62" font-family="Times,serif" font-size="14.00">reverse_dll</text>
</g>
<!-- q10&#45;&gt;q0 -->
<g id="edge86" class="edge"><title>q10&#45;&gt;q0</title>
<path fill="none" stroke="green" d="M2402.08,-1617.41C2389.69,-1624.93 2371.35,-1635.07 2354,-1640.82 2289.5,-1662.2 2270.95,-1664.82 2203,-1664.82 1871,-1664.82 1871,-1664.82 1871,-1664.82 1676.31,-1664.82 1627.69,-1671.82 1433,-1671.82 1101,-1671.82 1101,-1671.82 1101,-1671.82 1030.83,-1671.82 993.28,-1649.97 946,-1701.82 924.362,-1725.54 914.718,-1945.48 911.913,-2025.16"/>
<polygon fill="green" stroke="green" points="908.406,-2025.32 911.562,-2035.44 915.401,-2025.56 908.406,-2025.32"/>
<text text-anchor="middle" x="1652" y="-1673.62" font-family="Times,serif" font-size="14.00">remove_fw_link</text>
</g>
<!-- q10&#45;&gt;q0 -->
<g id="edge87" class="edge"><title>q10&#45;&gt;q0</title>
<path fill="none" stroke="green" d="M2400.12,-1610.34C2364.04,-1615.51 2276.67,-1626.82 2203,-1626.82 1871,-1626.82 1871,-1626.82 1871,-1626.82 1676.31,-1626.82 1627.69,-1633.82 1433,-1633.82 1101,-1633.82 1101,-1633.82 1101,-1633.82 1030.83,-1633.82 993.03,-1611.74 946,-1663.82 921.858,-1690.55 913.701,-1940.31 911.608,-2025.5"/>
<polygon fill="green" stroke="green" points="908.109,-2025.42 911.372,-2035.5 915.107,-2025.59 908.109,-2025.42"/>
<text text-anchor="middle" x="1652" y="-1635.62" font-family="Times,serif" font-size="14.00">check_seq_next</text>
</g>
<!-- q10&#45;&gt;q0 -->
<g id="edge88" class="edge"><title>q10&#45;&gt;q0</title>
<path fill="none" stroke="green" d="M2400.12,-1605.29C2364.04,-1600.12 2276.67,-1588.82 2203,-1588.82 1871,-1588.82 1871,-1588.82 1871,-1588.82 1676.31,-1588.82 1627.69,-1595.82 1433,-1595.82 1101,-1595.82 1101,-1595.82 1101,-1595.82 1030.83,-1595.82 992.824,-1573.56 946,-1625.82 919.347,-1655.56 912.791,-1935.4 911.362,-2025.8"/>
<polygon fill="green" stroke="green" points="907.862,-2025.8 911.212,-2035.86 914.861,-2025.91 907.862,-2025.8"/>
<text text-anchor="middle" x="1652" y="-1597.62" font-family="Times,serif" font-size="14.00">check_seq_prev</text>
</g>
<!-- q10&#45;&gt;q0 -->
<g id="edge89" class="edge"><title>q10&#45;&gt;q0</title>
<path fill="none" stroke="green" d="M2401.28,-1600.6C2366.38,-1585.26 2279.51,-1550.82 2203,-1550.82 1871,-1550.82 1871,-1550.82 1871,-1550.82 1676.31,-1550.82 1627.69,-1557.82 1433,-1557.82 1101,-1557.82 1101,-1557.82 1101,-1557.82 1030.83,-1557.82 992.651,-1535.4 946,-1587.82 916.882,-1620.53 911.984,-1929.59 911.164,-2025.54"/>
<polygon fill="green" stroke="green" points="907.663,-2025.63 911.086,-2035.66 914.663,-2025.68 907.663,-2025.63"/>
<text text-anchor="middle" x="1652" y="-1559.62" font-family="Times,serif" font-size="14.00">Learn_Assert</text>
</g>
<!-- q10&#45;&gt;q9 -->
<g id="edge84" class="edge"><title>q10&#45;&gt;q9</title>
<path fill="none" stroke="green" d="M2432.38,-1619.47C2462.89,-1646.86 2537.8,-1718.88 2574,-1795.82 2597.94,-1846.69 2605.5,-1912.92 2607.89,-1949.83"/>
<polygon fill="green" stroke="green" points="2604.4,-1950.07 2608.46,-1959.86 2611.39,-1949.68 2604.4,-1950.07"/>
<text text-anchor="middle" x="2528" y="-1799.62" font-family="Times,serif" font-size="14.00">init_back_link</text>
</g>
<!-- q11 -->
<g id="node13" class="node"><title>q11</title>
<ellipse fill="none" stroke="black" cx="1982" cy="-1398.82" rx="18" ry="18"/>
<text text-anchor="middle" x="1982" y="-1395.12" font-family="Times,serif" font-size="14.00">D</text>
</g>
<!-- q11&#45;&gt;q0 -->
<g id="edge91" class="edge"><title>q11&#45;&gt;q0</title>
<path fill="none" stroke="green" d="M1974.65,-1415.6C1965.64,-1436.82 1946.93,-1472.56 1918,-1488.82 1823.85,-1541.72 1541,-1519.82 1433,-1519.82 1101,-1519.82 1101,-1519.82 1101,-1519.82 1031.29,-1519.82 993.151,-1492.47 946,-1543.82 913.312,-1579.41 910.911,-1923.63 910.922,-2025.53"/>
<polygon fill="green" stroke="green" points="907.422,-2025.68 910.931,-2035.68 914.422,-2025.68 907.422,-2025.68"/>
<text text-anchor="middle" x="1432" y="-1523.62" font-family="Times,serif" font-size="14.00">create_sll</text>
</g>
<!-- q11&#45;&gt;q0 -->
<g id="edge92" class="edge"><title>q11&#45;&gt;q0</title>
<path fill="none" stroke="green" d="M1969.53,-1412.22C1957.95,-1424.69 1938.83,-1442.57 1918,-1450.82 1717.17,-1530.32 1649,-1481.82 1433,-1481.82 1101,-1481.82 1101,-1481.82 1101,-1481.82 1031.07,-1481.82 992.696,-1456.77 946,-1508.82 911.335,-1547.45 910.366,-1918.83 910.81,-2025.37"/>
<polygon fill="green" stroke="green" points="907.311,-2025.68 910.861,-2035.66 914.311,-2025.65 907.311,-2025.68"/>
<text text-anchor="middle" x="1432" y="-1485.62" font-family="Times,serif" font-size="14.00">init_back_link</text>
</g>
<!-- q11&#45;&gt;q0 -->
<g id="edge93" class="edge"><title>q11&#45;&gt;q0</title>
<path fill="none" stroke="green" d="M1964.28,-1403.27C1951.66,-1406.46 1933.86,-1410.56 1918,-1412.82 1704.16,-1443.22 1649,-1443.82 1433,-1443.82 1101,-1443.82 1101,-1443.82 1101,-1443.82 1031,-1443.82 992.478,-1419.47 946,-1471.82 908.967,-1513.52 909.758,-1914.84 910.694,-2025.62"/>
<polygon fill="green" stroke="green" points="907.195,-2025.72 910.787,-2035.69 914.195,-2025.66 907.195,-2025.72"/>
<text text-anchor="middle" x="1432" y="-1447.62" font-family="Times,serif" font-size="14.00">reverse_dll</text>
</g>
<!-- q11&#45;&gt;q0 -->
<g id="edge94" class="edge"><title>q11&#45;&gt;q0</title>
<path fill="none" stroke="green" d="M1963.96,-1399.19C1896.58,-1400.65 1642.32,-1405.82 1433,-1405.82 1101,-1405.82 1101,-1405.82 1101,-1405.82 1030.92,-1405.82 992.274,-1382.18 946,-1434.82 926.251,-1457.28 914.408,-1907.52 911.633,-2025.64"/>
<polygon fill="green" stroke="green" points="908.132,-2025.63 911.4,-2035.71 915.13,-2025.79 908.132,-2025.63"/>
<text text-anchor="middle" x="1432" y="-1409.62" font-family="Times,serif" font-size="14.00">remove_fw_link</text>
</g>
<!-- q11&#45;&gt;q0 -->
<g id="edge96" class="edge"><title>q11&#45;&gt;q0</title>
<path fill="none" stroke="green" d="M1963.99,-1397.37C1835.52,-1386.6 1020.5,-1321.54 946,-1396.82 923.576,-1419.47 913.644,-1902.32 911.471,-2025.44"/>
<polygon fill="green" stroke="green" points="907.969,-2025.52 911.295,-2035.58 914.968,-2025.65 907.969,-2025.52"/>
<text text-anchor="middle" x="1432" y="-1370.62" font-family="Times,serif" font-size="14.00">check_seq_prev</text>
</g>
<!-- q11&#45;&gt;q0 -->
<g id="edge97" class="edge"><title>q11&#45;&gt;q0</title>
<path fill="none" stroke="green" d="M1964.55,-1394.21C1951.92,-1390.83 1933.98,-1386.41 1918,-1383.82 1539.69,-1322.35 1438.64,-1336.79 1056,-1358.82 1007.06,-1361.63 980.283,-1331.78 946,-1366.82 922.59,-1390.74 913.339,-1899.75 911.402,-2025.78"/>
<polygon fill="green" stroke="green" points="907.902,-2025.75 911.251,-2035.8 914.901,-2025.86 907.902,-2025.75"/>
<text text-anchor="middle" x="1432" y="-1345.62" font-family="Times,serif" font-size="14.00">Learn_Assert</text>
</g>
<!-- q11&#45;&gt;q10 -->
<g id="edge95" class="edge"><title>q11&#45;&gt;q10</title>
<path fill="none" stroke="green" d="M1999.88,-1402.03C2054.94,-1413.11 2232.67,-1453.71 2354,-1536.82 2372.75,-1549.66 2389.59,-1569.27 2401.13,-1584.63"/>
<polygon fill="green" stroke="green" points="2398.57,-1587.07 2407.28,-1593.1 2404.23,-1582.96 2398.57,-1587.07"/>
<text text-anchor="middle" x="2202" y="-1481.62" font-family="Times,serif" font-size="14.00">check_seq_next</text>
</g>
<!-- q16 -->
<g id="node18" class="node"><title>q16</title>
<ellipse fill="none" stroke="black" cx="2202" cy="-204.815" rx="18" ry="18"/>
<text text-anchor="middle" x="2202" y="-201.115" font-family="Times,serif" font-size="14.00">D</text>
</g>
<!-- q11&#45;&gt;q16 -->
<g id="edge90" class="edge"><title>q11&#45;&gt;q16</title>
<path fill="none" stroke="green" d="M1986.25,-1381.01C2010.71,-1247.03 2165.79,-397.664 2195.93,-232.592"/>
<polygon fill="green" stroke="green" points="2199.38,-233.189 2197.73,-222.723 2192.49,-231.932 2199.38,-233.189"/>
<text text-anchor="middle" x="2092" y="-1050.62" font-family="Times,serif" font-size="14.00">chain_node</text>
</g>
<!-- q12 -->
<g id="node14" class="node"><title>q12</title>
<ellipse fill="none" stroke="black" cx="1762" cy="-1184.82" rx="18" ry="18"/>
<text text-anchor="middle" x="1762" y="-1181.12" font-family="Times,serif" font-size="14.00">D</text>
</g>
<!-- q12&#45;&gt;q0 -->
<g id="edge99" class="edge"><title>q12&#45;&gt;q0</title>
<path fill="none" stroke="green" d="M1750.91,-1199.3C1739.71,-1214.25 1720.26,-1237.14 1698,-1249.82 1636.46,-1284.86 1613.82,-1286.82 1543,-1286.82 1101,-1286.82 1101,-1286.82 1101,-1286.82 1030.92,-1286.82 992.034,-1262.97 946,-1315.82 922.286,-1343.04 913.211,-1893.32 911.369,-2025.47"/>
<polygon fill="green" stroke="green" points="907.867,-2025.55 911.23,-2035.6 914.867,-2025.65 907.867,-2025.55"/>
<text text-anchor="middle" x="1322" y="-1290.62" font-family="Times,serif" font-size="14.00">create_sll</text>
</g>
<!-- q12&#45;&gt;q0 -->
<g id="edge100" class="edge"><title>q12&#45;&gt;q0</title>
<path fill="none" stroke="green" d="M1744.89,-1191.27C1709.17,-1205 1620.35,-1235.82 1543,-1235.82 1101,-1235.82 1101,-1235.82 1101,-1235.82 1029.63,-1235.82 990.636,-1222.12 946,-1277.82 922.161,-1307.56 913.128,-1890.21 911.345,-2025.79"/>
<polygon fill="green" stroke="green" points="907.845,-2025.76 911.216,-2035.81 914.844,-2025.85 907.845,-2025.76"/>
<text text-anchor="middle" x="1322" y="-1239.62" font-family="Times,serif" font-size="14.00">init_back_link</text>
</g>
<!-- q12&#45;&gt;q0 -->
<g id="edge101" class="edge"><title>q12&#45;&gt;q0</title>
<path fill="none" stroke="green" d="M1743.76,-1184.82C1706.91,-1184.82 1617.75,-1184.82 1543,-1184.82 1101,-1184.82 1101,-1184.82 1101,-1184.82 1029.14,-1184.82 990.194,-1174.15 946,-1230.82 921.061,-1262.79 912.838,-1884.29 911.288,-2025.46"/>
<polygon fill="green" stroke="green" points="907.788,-2025.46 911.18,-2035.5 914.788,-2025.53 907.788,-2025.46"/>
<text text-anchor="middle" x="1322" y="-1188.62" font-family="Times,serif" font-size="14.00">reverse_dll</text>
</g>
<!-- q12&#45;&gt;q0 -->
<g id="edge102" class="edge"><title>q12&#45;&gt;q0</title>
<path fill="none" stroke="green" d="M1744.89,-1178.36C1709.17,-1164.63 1620.35,-1133.82 1543,-1133.82 1101,-1133.82 1101,-1133.82 1101,-1133.82 1029.01,-1133.82 990.035,-1123.87 946,-1180.82 919.605,-1214.95 912.48,-1878.27 911.222,-2025.17"/>
<polygon fill="green" stroke="green" points="907.719,-2025.55 911.136,-2035.58 914.719,-2025.61 907.719,-2025.55"/>
<text text-anchor="middle" x="1322" y="-1137.62" font-family="Times,serif" font-size="14.00">remove_fw_link</text>
</g>
<!-- q12&#45;&gt;q0 -->
<g id="edge104" class="edge"><title>q12&#45;&gt;q0</title>
<path fill="none" stroke="green" d="M1748.71,-1172.41C1736.82,-1161.2 1717.74,-1145.21 1698,-1136.82 1652.48,-1117.45 1637.06,-1126.17 1588,-1119.82 1446.5,-1101.5 1043.73,-1025.85 946,-1129.82 914.591,-1163.23 911.368,-1873.33 911.038,-2025.34"/>
<polygon fill="green" stroke="green" points="907.537,-2025.67 911.018,-2035.68 914.537,-2025.69 907.537,-2025.67"/>
<text text-anchor="middle" x="1322" y="-1093.62" font-family="Times,serif" font-size="14.00">check_seq_prev</text>
</g>
<!-- q12&#45;&gt;q0 -->
<g id="edge105" class="edge"><title>q12&#45;&gt;q0</title>
<path fill="none" stroke="green" d="M1751.39,-1169.86C1740.46,-1154.18 1721.1,-1130.15 1698,-1117.82 1445.71,-983.036 1341.28,-1052.08 1056,-1072.82 1007,-1076.38 979.62,-1047.99 946,-1083.82 912.958,-1119.03 911.027,-1869.04 910.984,-2025.4"/>
<polygon fill="green" stroke="green" points="907.484,-2025.62 910.984,-2035.62 914.484,-2025.62 907.484,-2025.62"/>
<text text-anchor="middle" x="1322" y="-1051.62" font-family="Times,serif" font-size="14.00">Learn_Assert</text>
</g>
<!-- q12&#45;&gt;q10 -->
<g id="edge103" class="edge"><title>q12&#45;&gt;q10</title>
<path fill="none" stroke="green" d="M1780.3,-1186.55C1809.54,-1189.91 1870.23,-1198.71 1918,-1217.82 2129.19,-1302.28 2199.26,-1319.1 2354,-1485.82 2380.03,-1513.86 2398.18,-1554.69 2408.1,-1581.25"/>
<polygon fill="green" stroke="green" points="2404.82,-1582.46 2411.5,-1590.68 2411.4,-1580.09 2404.82,-1582.46"/>
<text text-anchor="middle" x="2092" y="-1313.62" font-family="Times,serif" font-size="14.00">check_seq_next</text>
</g>
<!-- q12&#45;&gt;q11 -->
<g id="edge98" class="edge"><title>q12&#45;&gt;q11</title>
<path fill="none" stroke="green" d="M1778.22,-1192.68C1807.93,-1208.58 1874.54,-1247.08 1918,-1293.82 1940.2,-1317.68 1958.4,-1350.62 1969.44,-1373.21"/>
<polygon fill="green" stroke="green" points="1966.4,-1374.96 1973.85,-1382.49 1972.72,-1371.96 1966.4,-1374.96"/>
<text text-anchor="middle" x="1872" y="-1297.62" font-family="Times,serif" font-size="14.00">chain_node</text>
</g>
<!-- q13 -->
<g id="node15" class="node"><title>q13</title>
<ellipse fill="none" stroke="green" cx="1542" cy="-909.815" rx="18" ry="18"/>
<text text-anchor="middle" x="1542" y="-906.115" font-family="Times,serif" font-size="14.00">D</text>
</g>
<!-- q13&#45;&gt;q0 -->
<g id="edge107" class="edge"><title>q13&#45;&gt;q0</title>
<path fill="none" stroke="green" d="M1529.36,-922.81C1517.65,-934.986 1498.44,-952.644 1478,-961.815 1387.73,-1002.31 1355.78,-980.738 1258,-995.815 1188.67,-1006.51 992.591,-991.374 946,-1043.82 912.536,-1081.48 910.947,-1864.94 910.973,-2025.29"/>
<polygon fill="green" stroke="green" points="907.473,-2025.75 910.977,-2035.74 914.473,-2025.74 907.473,-2025.75"/>
<text text-anchor="middle" x="1212" y="-1005.62" font-family="Times,serif" font-size="14.00">create_sll</text>
</g>
<!-- q13&#45;&gt;q0 -->
<g id="edge108" class="edge"><title>q13&#45;&gt;q0</title>
<path fill="none" stroke="green" d="M1524.22,-913.859C1511.56,-916.831 1493.75,-920.852 1478,-923.815 1380.77,-942.112 1355.78,-942.738 1258,-957.815 1188.67,-968.506 992.559,-953.344 946,-1005.82 911.231,-1045 910.691,-1861.19 910.935,-2025.24"/>
<polygon fill="green" stroke="green" points="907.436,-2025.51 910.953,-2035.5 914.436,-2025.5 907.436,-2025.51"/>
<text text-anchor="middle" x="1212" y="-967.615" font-family="Times,serif" font-size="14.00">init_back_link</text>
</g>
<!-- q13&#45;&gt;q0 -->
<g id="edge109" class="edge"><title>q13&#45;&gt;q0</title>
<path fill="none" stroke="green" d="M1523.87,-910.145C1430.52,-912.115 985.888,-923.776 946,-967.815 909.463,-1008.15 910.359,-1858.58 910.889,-2025.52"/>
<polygon fill="green" stroke="green" points="907.389,-2025.73 910.923,-2035.72 914.389,-2025.71 907.389,-2025.73"/>
<text text-anchor="middle" x="1212" y="-930.615" font-family="Times,serif" font-size="14.00">reverse_dll</text>
</g>
<!-- q13&#45;&gt;q0 -->
<g id="edge110" class="edge"><title>q13&#45;&gt;q0</title>
<path fill="none" stroke="green" d="M1523.99,-907.566C1434.97,-896.217 1023.73,-849.182 946,-937.815 909.066,-979.929 910.296,-1856.03 910.882,-2025.55"/>
<polygon fill="green" stroke="green" points="907.382,-2025.69 910.919,-2035.68 914.382,-2025.67 907.382,-2025.69"/>
<text text-anchor="middle" x="1212" y="-890.615" font-family="Times,serif" font-size="14.00">remove_fw_link</text>
</g>
<!-- q13&#45;&gt;q0 -->
<g id="edge112" class="edge"><title>q13&#45;&gt;q0</title>
<path fill="none" stroke="green" d="M1524.93,-903.713C1512.34,-899.18 1494.29,-893.215 1478,-889.815 1362.27,-865.658 1025.67,-806.463 946,-893.815 906.706,-936.9 909.86,-1850.93 910.821,-2025.24"/>
<polygon fill="green" stroke="green" points="907.322,-2025.44 910.88,-2035.42 914.322,-2025.4 907.322,-2025.44"/>
<text text-anchor="middle" x="1212" y="-858.615" font-family="Times,serif" font-size="14.00">check_seq_prev</text>
</g>
<!-- q13&#45;&gt;q0 -->
<g id="edge113" class="edge"><title>q13&#45;&gt;q0</title>
<path fill="none" stroke="green" d="M1527.34,-898.925C1515.11,-889.744 1496.34,-876.988 1478,-869.815 1367.83,-826.731 1026.84,-764.449 946,-850.815 925.262,-872.971 913.333,-1846.19 911.309,-2025.56"/>
<polygon fill="green" stroke="green" points="907.807,-2025.73 911.195,-2035.76 914.807,-2025.8 907.807,-2025.73"/>
<text text-anchor="middle" x="1212" y="-822.615" font-family="Times,serif" font-size="14.00">Learn_Assert</text>
</g>
<!-- q13&#45;&gt;q10 -->
<g id="edge111" class="edge"><title>q13&#45;&gt;q10</title>
<path fill="none" stroke="green" d="M1559.93,-911.776C1596.55,-915.842 1685.89,-924.815 1761,-924.815 1761,-924.815 1761,-924.815 2203,-924.815 2342.61,-924.815 2402.01,-1451.01 2414.45,-1579.68"/>
<polygon fill="green" stroke="green" points="2410.99,-1580.27 2415.41,-1589.9 2417.95,-1579.61 2410.99,-1580.27"/>
<text text-anchor="middle" x="1982" y="-928.615" font-family="Times,serif" font-size="14.00">check_seq_next</text>
</g>
<!-- q13&#45;&gt;q12 -->
<g id="edge106" class="edge"><title>q13&#45;&gt;q12</title>
<path fill="none" stroke="green" d="M1558.37,-917.328C1593.49,-934.746 1678.07,-978.267 1698,-1002.82 1735.37,-1048.85 1751.19,-1118.44 1757.39,-1156.86"/>
<polygon fill="green" stroke="green" points="1753.94,-1157.46 1758.9,-1166.82 1760.87,-1156.41 1753.94,-1157.46"/>
<text text-anchor="middle" x="1652" y="-1006.62" font-family="Times,serif" font-size="14.00">chain_node</text>
</g>
<!-- q14 -->
<g id="node16" class="node"><title>q14</title>
<ellipse fill="none" stroke="green" cx="1322" cy="-633.815" rx="18" ry="18"/>
<text text-anchor="middle" x="1322" y="-630.115" font-family="Times,serif" font-size="14.00">D</text>
</g>
<!-- q14&#45;&gt;q0 -->
<g id="edge115" class="edge"><title>q14&#45;&gt;q0</title>
<path fill="none" stroke="green" d="M1316.63,-651.038C1309.17,-676.768 1291.43,-724.878 1258,-749.815 1144.39,-834.557 1036.8,-706.982 946,-815.815 905.969,-863.798 909.781,-1845.77 910.819,-2025.65"/>
<polygon fill="green" stroke="green" points="907.319,-2025.67 910.878,-2035.65 914.319,-2025.63 907.319,-2025.67"/>
<text text-anchor="middle" x="1102" y="-784.615" font-family="Times,serif" font-size="14.00">create_sll</text>
</g>
<!-- q14&#45;&gt;q0 -->
<g id="edge116" class="edge"><title>q14&#45;&gt;q0</title>
<path fill="none" stroke="green" d="M1310.97,-648.399C1299.82,-663.438 1280.4,-686.393 1258,-698.815 1195.98,-733.203 991.315,-711.269 946,-765.815 925.174,-790.884 913.255,-1838.23 911.29,-2025.36"/>
<polygon fill="green" stroke="green" points="907.789,-2025.47 911.184,-2035.5 914.788,-2025.54 907.789,-2025.47"/>
<text text-anchor="middle" x="1102" y="-732.615" font-family="Times,serif" font-size="14.00">init_back_link</text>
</g>
<!-- q14&#45;&gt;q0 -->
<g id="edge117" class="edge"><title>q14&#45;&gt;q0</title>
<path fill="none" stroke="green" d="M1304.2,-637.735C1232.06,-654.606 951.851,-720.517 946,-727.815 924.981,-754.033 913.19,-1835.28 911.277,-2025.42"/>
<polygon fill="green" stroke="green" points="907.777,-2025.43 911.177,-2035.47 914.777,-2025.5 907.777,-2025.43"/>
<text text-anchor="middle" x="1102" y="-701.615" font-family="Times,serif" font-size="14.00">reverse_dll</text>
</g>
<!-- q14&#45;&gt;q0 -->
<g id="edge118" class="edge"><title>q14&#45;&gt;q0</title>
<path fill="none" stroke="green" d="M1303.8,-635.366C1275.19,-637.944 1216.05,-643.28 1166,-647.815 1117.11,-652.246 1101.98,-640.611 1056,-657.815 1046.76,-661.274 1046.84,-666.43 1038,-670.815 999.711,-689.808 971.886,-664.805 946,-698.815 925.181,-726.167 913.204,-1832.92 911.276,-2025.42"/>
<polygon fill="green" stroke="green" points="907.775,-2025.54 911.175,-2035.58 914.775,-2025.61 907.775,-2025.54"/>
<text text-anchor="middle" x="1102" y="-661.615" font-family="Times,serif" font-size="14.00">remove_fw_link</text>
</g>
<!-- q14&#45;&gt;q0 -->
<g id="edge119" class="edge"><title>q14&#45;&gt;q0</title>
<path fill="none" stroke="green" d="M1303.81,-633.286C1272.73,-632.359 1205.08,-630.475 1148,-629.815 1107.11,-629.343 1094.22,-615.284 1056,-629.815 1046,-633.619 1047.34,-640.58 1038,-645.815 1000.72,-666.719 971.878,-639.799 946,-673.815 924.782,-701.706 913.114,-1831.21 911.262,-2025.51"/>
<polygon fill="green" stroke="green" points="907.76,-2025.72 911.165,-2035.75 914.759,-2025.78 907.76,-2025.72"/>
<text text-anchor="middle" x="1102" y="-633.615" font-family="Times,serif" font-size="14.00">check_seq_next</text>
</g>
<!-- q14&#45;&gt;q0 -->
<g id="edge120" class="edge"><title>q14&#45;&gt;q0</title>
<path fill="none" stroke="green" d="M1303.93,-629.984C1273.03,-623.264 1205.66,-609.615 1148,-604.815 1107.25,-601.424 1094.22,-590.284 1056,-604.815 1046,-608.619 1047.34,-615.58 1038,-620.815 1000.72,-641.719 971.871,-614.793 946,-648.815 924.382,-677.245 913.026,-1829.53 911.248,-2025.6"/>
<polygon fill="green" stroke="green" points="907.747,-2025.65 911.157,-2035.68 914.747,-2025.71 907.747,-2025.65"/>
<text text-anchor="middle" x="1102" y="-608.615" font-family="Times,serif" font-size="14.00">check_seq_prev</text>
</g>
<!-- q14&#45;&gt;q0 -->
<g id="edge121" class="edge"><title>q14&#45;&gt;q0</title>
<path fill="none" stroke="green" d="M1306.17,-625.235C1293.68,-618.324 1275.15,-608.805 1258,-602.815 1172.65,-573.002 1140.01,-545.414 1056,-578.815 1045.77,-582.881 1047.52,-590.289 1038,-595.815 1001.04,-617.28 971.863,-589.788 946,-623.815 923.992,-652.77 912.95,-1826.77 911.237,-2025.41"/>
<polygon fill="green" stroke="green" points="907.735,-2025.58 911.15,-2035.61 914.735,-2025.64 907.735,-2025.58"/>
<text text-anchor="middle" x="1102" y="-582.615" font-family="Times,serif" font-size="14.00">Learn_Assert</text>
</g>
<!-- q14&#45;&gt;q13 -->
<g id="edge114" class="edge"><title>q14&#45;&gt;q13</title>
<path fill="none" stroke="green" d="M1337.73,-643.11C1367.73,-662.69 1436.59,-711.001 1478,-766.815 1504.89,-803.066 1523.44,-852.6 1533.13,-882.839"/>
<polygon fill="green" stroke="green" points="1529.88,-884.166 1536.19,-892.677 1536.56,-882.088 1529.88,-884.166"/>
<text text-anchor="middle" x="1432" y="-770.615" font-family="Times,serif" font-size="14.00">chain_node</text>
</g>
<!-- q15&#45;&gt;q0 -->
<g id="edge123" class="edge"><title>q15&#45;&gt;q0</title>
<path fill="none" stroke="green" d="M1085.6,-434.322C1075.8,-439.835 1063.57,-448.203 1056,-458.815 1039.58,-481.824 1058.8,-500.677 1038,-519.815 1007.27,-548.084 972.741,-506.751 946,-538.815 921.259,-568.482 912.452,-1819.55 911.169,-2025.31"/>
<polygon fill="green" stroke="green" points="907.668,-2025.57 911.106,-2035.59 914.668,-2025.62 907.668,-2025.57"/>
<text text-anchor="middle" x="992" y="-542.615" font-family="Times,serif" font-size="14.00">create_sll</text>
</g>
<!-- q15&#45;&gt;q0 -->
<g id="edge124" class="edge"><title>q15&#45;&gt;q0</title>
<path fill="none" stroke="green" d="M1086,-435.914C1076.83,-441.841 1065.15,-450.075 1056,-458.815 1046.61,-467.781 1049.03,-474.973 1038,-481.815 1002.52,-503.823 972.732,-468.743 946,-500.815 920.608,-531.28 912.325,-1817.64 911.152,-2025.57"/>
<polygon fill="green" stroke="green" points="907.651,-2025.66 911.095,-2035.68 914.651,-2025.7 907.651,-2025.66"/>
<text text-anchor="middle" x="992" y="-504.615" font-family="Times,serif" font-size="14.00">init_back_link</text>
</g>
<!-- q15&#45;&gt;q0 -->
<g id="edge125" class="edge"><title>q15&#45;&gt;q0</title>
<path fill="none" stroke="green" d="M1084.49,-431.561C1071.82,-435.132 1053.87,-440.039 1038,-443.815 997.382,-453.48 972.723,-430.736 946,-462.815 919.968,-494.064 912.21,-1814.61 911.136,-2025.54"/>
<polygon fill="green" stroke="green" points="907.635,-2025.76 911.085,-2035.78 914.635,-2025.8 907.635,-2025.76"/>
<text text-anchor="middle" x="992" y="-466.615" font-family="Times,serif" font-size="14.00">reverse_dll</text>
</g>
<!-- q15&#45;&gt;q0 -->
<g id="edge126" class="edge"><title>q15&#45;&gt;q0</title>
<path fill="none" stroke="green" d="M1084.22,-423.776C1048.18,-417.683 965.137,-406.085 946,-424.815 916.21,-453.973 911.605,-1811.2 911.063,-2025.47"/>
<polygon fill="green" stroke="green" points="907.563,-2025.58 911.038,-2035.59 914.563,-2025.6 907.563,-2025.58"/>
<text text-anchor="middle" x="992" y="-428.615" font-family="Times,serif" font-size="14.00">remove_fw_link</text>
</g>
<!-- q15&#45;&gt;q0 -->
<g id="edge127" class="edge"><title>q15&#45;&gt;q0</title>
<path fill="none" stroke="green" d="M1086.72,-416.909C1056.31,-397.135 984.825,-357.801 946,-395.815 915.653,-425.528 911.513,-1809.76 911.052,-2025.64"/>
<polygon fill="green" stroke="green" points="907.551,-2025.82 911.031,-2035.83 914.551,-2025.83 907.551,-2025.82"/>
<text text-anchor="middle" x="992" y="-399.615" font-family="Times,serif" font-size="14.00">check_seq_next</text>
</g>
<!-- q15&#45;&gt;q0 -->
<g id="edge128" class="edge"><title>q15&#45;&gt;q0</title>
<path fill="none" stroke="green" d="M1091.83,-411.847C1081.15,-396.005 1061.88,-371.925 1038,-361.815 1000.35,-345.873 975.21,-333.203 946,-361.815 915.006,-392.175 911.41,-1807.64 911.039,-2025.73"/>
<polygon fill="green" stroke="green" points="907.539,-2025.73 911.023,-2035.74 914.539,-2025.75 907.539,-2025.73"/>
<text text-anchor="middle" x="992" y="-365.615" font-family="Times,serif" font-size="14.00">check_seq_prev</text>
</g>
<!-- q15&#45;&gt;q0 -->
<g id="edge129" class="edge"><title>q15&#45;&gt;q0</title>
<path fill="none" stroke="green" d="M1096.11,-409.771C1088.26,-385.991 1070.35,-343.763 1038,-325.815 1002.25,-305.978 975.204,-297.197 946,-325.815 914.337,-356.843 911.306,-1803.9 911.027,-2025.48"/>
<polygon fill="green" stroke="green" points="907.527,-2025.64 911.015,-2035.64 914.527,-2025.65 907.527,-2025.64"/>
<text text-anchor="middle" x="992" y="-329.615" font-family="Times,serif" font-size="14.00">Learn_Assert</text>
</g>
<!-- q15&#45;&gt;q14 -->
<g id="edge122" class="edge"><title>q15&#45;&gt;q14</title>
<path fill="none" stroke="green" d="M1120.19,-424.355C1151.48,-420.893 1218.14,-418.327 1258,-451.815 1304.18,-490.612 1316.56,-565.094 1319.84,-605.712"/>
<polygon fill="green" stroke="green" points="1316.36,-606 1320.52,-615.74 1323.34,-605.526 1316.36,-606"/>
<text text-anchor="middle" x="1212" y="-455.615" font-family="Times,serif" font-size="14.00">chain_node</text>
</g>
<!-- q16&#45;&gt;q0 -->
<g id="edge130" class="edge"><title>q16&#45;&gt;q0</title>
<path fill="none" stroke="green" d="M2190.91,-219.299C2179.71,-234.253 2160.26,-257.139 2138,-269.815 2076.46,-304.863 2053.82,-306.815 1983,-306.815 1651,-306.815 1651,-306.815 1651,-306.815 1378.55,-306.815 1310.45,-304.482 1038,-303.815 997.111,-303.715 975.2,-275.193 946,-303.815 913.922,-335.258 911.242,-1802.25 911.02,-2025.47"/>
<polygon fill="green" stroke="green" points="907.52,-2025.69 911.011,-2035.7 914.52,-2025.7 907.52,-2025.69"/>
<text text-anchor="middle" x="1542" y="-310.615" font-family="Times,serif" font-size="14.00">chain_node</text>
</g>
<!-- q16&#45;&gt;q0 -->
<g id="edge131" class="edge"><title>q16&#45;&gt;q0</title>
<path fill="none" stroke="green" d="M2184.89,-211.274C2149.17,-224.998 2060.35,-255.815 1983,-255.815 1101,-255.815 1101,-255.815 1101,-255.815 1030.66,-255.815 990.965,-233.722 946,-287.815 917.024,-322.674 911.714,-1800.42 911.074,-2025.26"/>
<polygon fill="green" stroke="green" points="907.573,-2025.56 911.045,-2035.57 914.573,-2025.58 907.573,-2025.56"/>
<text text-anchor="middle" x="1542" y="-259.615" font-family="Times,serif" font-size="14.00">create_sll</text>
</g>
<!-- q16&#45;&gt;q0 -->
<g id="edge132" class="edge"><title>q16&#45;&gt;q0</title>
<path fill="none" stroke="green" d="M2183.76,-204.815C2146.91,-204.815 2057.75,-204.815 1983,-204.815 1101,-204.815 1101,-204.815 1101,-204.815 1029.51,-204.815 989.82,-191.329 946,-247.815 917.543,-284.498 911.782,-1799.48 911.08,-2025.68"/>
<polygon fill="green" stroke="green" points="907.58,-2025.74 911.05,-2035.75 914.58,-2025.76 907.58,-2025.74"/>
<text text-anchor="middle" x="1542" y="-208.615" font-family="Times,serif" font-size="14.00">init_back_link</text>
</g>
<!-- q16&#45;&gt;q0 -->
<g id="edge133" class="edge"><title>q16&#45;&gt;q0</title>
<path fill="none" stroke="green" d="M2184.89,-198.356C2149.17,-184.633 2060.35,-153.815 1983,-153.815 1101,-153.815 1101,-153.815 1101,-153.815 1029.14,-153.815 989.522,-142.635 946,-199.815 917.119,-237.76 911.716,-1794.37 911.073,-2025.3"/>
<polygon fill="green" stroke="green" points="907.572,-2025.56 911.045,-2035.57 914.572,-2025.58 907.572,-2025.56"/>
<text text-anchor="middle" x="1542" y="-157.615" font-family="Times,serif" font-size="14.00">reverse_dll</text>
</g>
<!-- q16&#45;&gt;q0 -->
<g id="edge134" class="edge"><title>q16&#45;&gt;q0</title>
<path fill="none" stroke="green" d="M2187.85,-192.802C2175.66,-182.174 2156.65,-166.84 2138,-156.815 2073.74,-122.28 2055.95,-102.815 1983,-102.815 1101,-102.815 1101,-102.815 1101,-102.815 1029.01,-102.815 989.415,-92.3943 946,-149.815 916.421,-188.937 911.604,-1792.3 911.059,-2025.62"/>
<polygon fill="green" stroke="green" points="907.559,-2025.67 911.036,-2035.68 914.559,-2025.69 907.559,-2025.67"/>
<text text-anchor="middle" x="1542" y="-106.615" font-family="Times,serif" font-size="14.00">remove_fw_link</text>
</g>
<!-- q16&#45;&gt;q0 -->
<g id="edge136" class="edge"><title>q16&#45;&gt;q0</title>
<path fill="none" stroke="green" d="M2194.34,-188.388C2184.86,-166.966 2165.53,-129.658 2138,-107.815 2080.62,-62.2874 2056.25,-51.8153 1983,-51.8153 1101,-51.8153 1101,-51.8153 1101,-51.8153 1029.01,-51.8153 989.401,-41.3839 946,-98.8153 915.607,-139.034 911.481,-1788.71 911.045,-2025.6"/>
<polygon fill="green" stroke="green" points="907.545,-2025.8 911.027,-2035.8 914.545,-2025.81 907.545,-2025.8"/>
<text text-anchor="middle" x="1542" y="-55.6153" font-family="Times,serif" font-size="14.00">check_seq_prev</text>
</g>
<!-- q16&#45;&gt;q0 -->
<g id="edge137" class="edge"><title>q16&#45;&gt;q0</title>
<path fill="none" stroke="green" d="M2198.37,-186.74C2192.85,-155.326 2177.19,-90.5082 2138,-53.8153 2084.85,-4.05546 2055.8,-0.815277 1983,-0.815277 1101,-0.815277 1101,-0.815277 1101,-0.815277 1029.01,-0.815277 989.388,9.62599 946,-47.8153 914.792,-89.1316 911.362,-1785.23 911.032,-2025.6"/>
<polygon fill="green" stroke="green" points="907.532,-2025.64 911.019,-2035.64 914.532,-2025.65 907.532,-2025.64"/>
<text text-anchor="middle" x="1542" y="-4.61528" font-family="Times,serif" font-size="14.00">Learn_Assert</text>
</g>
<!-- q16&#45;&gt;q10 -->
<g id="edge135" class="edge"><title>q16&#45;&gt;q10</title>
<path fill="none" stroke="green" d="M2207.61,-222.02C2228.19,-299.518 2312.48,-624.214 2354,-895.815 2394.4,-1160.1 2411.42,-1483.84 2415.8,-1579.77"/>
<polygon fill="green" stroke="green" points="2412.31,-1580 2416.25,-1589.83 2419.3,-1579.68 2412.31,-1580"/>
<text text-anchor="middle" x="2310" y="-899.615" font-family="Times,serif" font-size="14.00">check_seq_next</text>
</g>
<!-- iq0 -->
<g id="node19" class="node"><title>iq0</title>
</g>
<!-- iq0&#45;&gt;q0 -->
<g id="edge1" class="edge"><title>iq0&#45;&gt;q0</title>
<path fill="none" stroke="blue" d="M409.12,-1924.79C499.751,-1921.75 799.212,-1916.11 874,-1970.82 891.679,-1983.75 900.489,-2007.37 904.844,-2026.12"/>
<polygon fill="blue" stroke="blue" points="901.417,-2026.83 906.833,-2035.94 908.277,-2025.44 901.417,-2026.83"/>
</g>
</g>
</svg>
