<?xml version="1.0" encoding="UTF-8" standalone="no"?>
<!DOCTYPE svg PUBLIC "-//W3C//DTD SVG 1.1//EN"
 "http://www.w3.org/Graphics/SVG/1.1/DTD/svg11.dtd">
<!-- Generated by graphviz version 2.34.0 (20141125.1709)
 -->
<!-- Title: finite_automaton Pages: 1 -->
<svg width="518pt" height="576pt"
 viewBox="0.00 0.00 517.54 576.00" xmlns="http://www.w3.org/2000/svg" xmlns:xlink="http://www.w3.org/1999/xlink">
<g id="graph0" class="graph" transform="scale(0.138601 0.138601) rotate(0) translate(4 4151.81)">
<title>finite_automaton</title>
<polygon fill="white" stroke="white" points="-4,4 -4,-4151.81 3730,-4151.81 3730,4 -4,4"/>
<!-- dom_edges -->
<g id="node1" class="node"><title>dom_edges</title>
<polygon fill="none" stroke="green" points="764,-1759.81 0,-1759.81 0,-1723.81 764,-1723.81 764,-1759.81"/>
<text text-anchor="middle" x="382" y="-1738.11" font-family="Times,serif" font-size="14.00">Dominating edges: chain_node, create_sll, init_back_link, reverse_dll, remove_fw_link, check_seq_next, check_seq_prev, Learn_Assert</text>
</g>
<!-- q1 -->
<g id="node2" class="node"><title>q1</title>
<ellipse fill="none" stroke="green" cx="382" cy="-1980.81" rx="18" ry="18"/>
<ellipse fill="none" stroke="green" cx="382" cy="-1980.81" rx="22" ry="22"/>
<text text-anchor="middle" x="382" y="-1977.11" font-family="Times,serif" font-size="14.00">D</text>
</g>
<!-- q0 -->
<g id="node3" class="node"><title>q0</title>
<ellipse fill="none" stroke="green" cx="910" cy="-1923.81" rx="18" ry="18"/>
<text text-anchor="middle" x="910" y="-1920.11" font-family="Times,serif" font-size="14.00">D</text>
</g>
<!-- q1&#45;&gt;q0 -->
<g id="edge10" class="edge"><title>q1&#45;&gt;q0</title>
<path fill="none" stroke="green" d="M400.526,-1992.79C469.324,-2038.19 724.453,-2191.3 874,-2072.81 892.657,-2058.03 902.342,-1990.96 906.475,-1952.03"/>
<polygon fill="green" stroke="green" points="909.98,-1952.16 907.497,-1941.86 903.015,-1951.46 909.98,-1952.16"/>
<text text-anchor="middle" x="828" y="-2113.61" font-family="Times,serif" font-size="14.00">chain_node</text>
</g>
<!-- q1&#45;&gt;q0 -->
<g id="edge11" class="edge"><title>q1&#45;&gt;q0</title>
<path fill="none" stroke="green" d="M403.748,-1984.73C492.258,-2001.26 835.487,-2063.05 874,-2034.81 899.636,-2016.01 906.982,-1978.4 908.835,-1952.19"/>
<polygon fill="green" stroke="green" points="912.337,-1952.25 909.322,-1942.09 905.345,-1951.91 912.337,-1952.25"/>
<text text-anchor="middle" x="828" y="-2045.61" font-family="Times,serif" font-size="14.00">create_sll</text>
</g>
<!-- q1&#45;&gt;q0 -->
<g id="edge12" class="edge"><title>q1&#45;&gt;q0</title>
<path fill="none" stroke="green" d="M403.961,-1982.86C492.588,-1991.34 833.852,-2022.08 874,-1996.81 889.709,-1986.92 898.525,-1967.81 903.379,-1951.62"/>
<polygon fill="green" stroke="green" points="906.874,-1952.09 906.029,-1941.53 900.103,-1950.31 906.874,-1952.09"/>
<text text-anchor="middle" x="828" y="-2009.61" font-family="Times,serif" font-size="14.00">init_back_link</text>
</g>
<!-- q1&#45;&gt;q0 -->
<g id="edge13" class="edge"><title>q1&#45;&gt;q0</title>
<path fill="none" stroke="green" d="M404.089,-1980.76C492.49,-1980.43 830.615,-1977.93 874,-1958.81 880.657,-1955.88 886.739,-1951.06 891.897,-1945.92"/>
<polygon fill="green" stroke="green" points="894.638,-1948.1 898.755,-1938.34 889.449,-1943.41 894.638,-1948.1"/>
<text text-anchor="middle" x="828" y="-1973.61" font-family="Times,serif" font-size="14.00">reverse_dll</text>
</g>
<!-- q1&#45;&gt;q0 -->
<g id="edge14" class="edge"><title>q1&#45;&gt;q0</title>
<path fill="none" stroke="green" d="M403.944,-1978.54C486.469,-1969.6 789.155,-1936.8 881.843,-1926.75"/>
<polygon fill="green" stroke="green" points="882.274,-1930.23 891.838,-1925.67 881.519,-1923.27 882.274,-1930.23"/>
<text text-anchor="middle" x="828" y="-1939.61" font-family="Times,serif" font-size="14.00">remove_fw_link</text>
</g>
<!-- q1&#45;&gt;q0 -->
<g id="edge15" class="edge"><title>q1&#45;&gt;q0</title>
<path fill="none" stroke="green" d="M403.587,-1975.68C462.238,-1961.35 635.423,-1921.11 782,-1907.81 822.722,-1904.12 834.047,-1899.11 874,-1907.81 877.501,-1908.57 881.071,-1909.72 884.527,-1911.05"/>
<polygon fill="green" stroke="green" points="883.254,-1914.31 893.816,-1915.15 886.08,-1907.91 883.254,-1914.31"/>
<text text-anchor="middle" x="828" y="-1911.61" font-family="Times,serif" font-size="14.00">check_seq_next</text>
</g>
<!-- q1&#45;&gt;q0 -->
<g id="edge16" class="edge"><title>q1&#45;&gt;q0</title>
<path fill="none" stroke="green" d="M403.033,-1974.13C460.914,-1955.23 633.711,-1901.58 782,-1883.81 822.599,-1878.95 836.765,-1866.91 874,-1883.81 881.799,-1887.35 888.543,-1893.58 893.973,-1900.08"/>
<polygon fill="green" stroke="green" points="891.327,-1902.39 900.127,-1908.29 896.927,-1898.19 891.327,-1902.39"/>
<text text-anchor="middle" x="828" y="-1887.61" font-family="Times,serif" font-size="14.00">check_seq_prev</text>
</g>
<!-- q1&#45;&gt;q0 -->
<g id="edge17" class="edge"><title>q1&#45;&gt;q0</title>
<path fill="none" stroke="green" d="M402.423,-1972.38C459.355,-1948.21 631.313,-1878.86 782,-1855.81 822.419,-1849.63 839.093,-1834.52 874,-1855.81 888.552,-1864.69 897.31,-1881.76 902.427,-1896.58"/>
<polygon fill="green" stroke="green" points="899.143,-1897.81 905.413,-1906.35 905.837,-1895.76 899.143,-1897.81"/>
<text text-anchor="middle" x="828" y="-1859.61" font-family="Times,serif" font-size="14.00">Learn_Assert</text>
</g>
<!-- q0&#45;&gt;q0 -->
<g id="edge2" class="edge"><title>q0&#45;&gt;q0</title>
<path fill="none" stroke="green" d="M907.881,-1941.96C907.555,-1951.35 908.261,-1959.81 910,-1959.81 911.06,-1959.81 911.736,-1956.67 912.029,-1952.09"/>
<polygon fill="green" stroke="green" points="915.53,-1951.99 912.119,-1941.96 908.53,-1951.93 915.53,-1951.99"/>
<text text-anchor="middle" x="910" y="-1963.61" font-family="Times,serif" font-size="14.00">chain_node</text>
</g>
<!-- q0&#45;&gt;q0 -->
<g id="edge4" class="edge"><title>q0&#45;&gt;q0</title>
<path fill="none" stroke="green" d="M906.509,-1941.51C904.581,-1958.81 905.744,-1977.81 910,-1977.81 913.424,-1977.81 914.847,-1965.5 914.267,-1951.68"/>
<polygon fill="green" stroke="green" points="917.741,-1951.21 913.491,-1941.51 910.762,-1951.75 917.741,-1951.21"/>
<text text-anchor="middle" x="910" y="-1981.61" font-family="Times,serif" font-size="14.00">init_back_link</text>
</g>
<!-- q0&#45;&gt;q0 -->
<g id="edge5" class="edge"><title>q0&#45;&gt;q0</title>
<path fill="none" stroke="green" d="M905.613,-1941.52C901.605,-1965.92 903.068,-1995.81 910,-1995.81 916.012,-1995.81 917.91,-1973.34 915.694,-1951.45"/>
<polygon fill="green" stroke="green" points="919.163,-1950.98 914.387,-1941.52 912.222,-1951.9 919.163,-1950.98"/>
<text text-anchor="middle" x="910" y="-1999.61" font-family="Times,serif" font-size="14.00">reverse_dll</text>
</g>
<!-- q0&#45;&gt;q0 -->
<g id="edge6" class="edge"><title>q0&#45;&gt;q0</title>
<path fill="none" stroke="green" d="M904.998,-1941.48C898.632,-1972.66 900.299,-2013.81 910,-2013.81 918.678,-2013.81 920.927,-1980.88 916.748,-1951.62"/>
<polygon fill="green" stroke="green" points="920.149,-1950.74 915.002,-1941.48 913.25,-1951.93 920.149,-1950.74"/>
<text text-anchor="middle" x="910" y="-2017.61" font-family="Times,serif" font-size="14.00">remove_fw_link</text>
</g>
<!-- q0&#45;&gt;q0 -->
<g id="edge7" class="edge"><title>q0&#45;&gt;q0</title>
<path fill="none" stroke="green" d="M904.63,-1941.09C895.655,-1978.88 897.445,-2031.81 910,-2031.81 921.476,-2031.81 923.958,-1987.58 917.446,-1951.12"/>
<polygon fill="green" stroke="green" points="920.823,-1950.17 915.37,-1941.09 913.968,-1951.59 920.823,-1950.17"/>
<text text-anchor="middle" x="910" y="-2035.61" font-family="Times,serif" font-size="14.00">check_seq_next</text>
</g>
<!-- q0&#45;&gt;q0 -->
<g id="edge8" class="edge"><title>q0&#45;&gt;q0</title>
<path fill="none" stroke="green" d="M904.312,-1940.99C892.695,-1985.21 894.591,-2049.81 910,-2049.81 924.296,-2049.81 926.961,-1994.21 917.995,-1950.86"/>
<polygon fill="green" stroke="green" points="921.371,-1949.93 915.688,-1940.99 914.555,-1951.52 921.371,-1949.93"/>
<text text-anchor="middle" x="910" y="-2053.61" font-family="Times,serif" font-size="14.00">check_seq_prev</text>
</g>
<!-- q0&#45;&gt;q0 -->
<g id="edge9" class="edge"><title>q0&#45;&gt;q0</title>
<path fill="none" stroke="green" d="M904.009,-1941.09C889.745,-1991.66 891.742,-2067.81 910,-2067.81 927.117,-2067.81 929.942,-2000.88 918.475,-1950.85"/>
<polygon fill="green" stroke="green" points="921.85,-1949.92 915.991,-1941.09 915.066,-1951.65 921.85,-1949.92"/>
<text text-anchor="middle" x="910" y="-2071.61" font-family="Times,serif" font-size="14.00">Learn_Assert</text>
</g>
<!-- q14 -->
<g id="node16" class="node"><title>q14</title>
<ellipse fill="none" stroke="green" cx="1102" cy="-609.81" rx="18" ry="18"/>
<text text-anchor="middle" x="1102" y="-606.11" font-family="Times,serif" font-size="14.00">D</text>
</g>
<!-- q0&#45;&gt;q14 -->
<g id="edge3" class="edge"><title>q0&#45;&gt;q14</title>
<path fill="none" stroke="green" d="M910.947,-1905.59C910.614,-1764.14 909.847,-845.655 946,-800.81 972.452,-767.997 1009.93,-809.253 1038,-777.81 1078.6,-732.322 1024.54,-694.039 1056,-641.81 1060.83,-633.782 1068.54,-627.22 1076.21,-622.174"/>
<polygon fill="green" stroke="green" points="1078.22,-625.055 1085.04,-616.95 1074.65,-619.031 1078.22,-625.055"/>
<text text-anchor="middle" x="992" y="-804.61" font-family="Times,serif" font-size="14.00">create_sll</text>
</g>
<!-- q2 -->
<g id="node4" class="node"><title>q2</title>
<ellipse fill="none" stroke="green" cx="3708" cy="-3972.81" rx="18" ry="18"/>
<text text-anchor="middle" x="3708" y="-3969.11" font-family="Times,serif" font-size="14.00">D</text>
</g>
<!-- q2&#45;&gt;q1 -->
<g id="edge25" class="edge"><title>q2&#45;&gt;q1</title>
<path fill="none" stroke="green" d="M3706.42,-3991C3704.64,-4016.19 3697.8,-4061.67 3672,-4088.81 3632,-4130.89 3607.06,-4132.81 3549,-4132.81 909,-4132.81 909,-4132.81 909,-4132.81 452.356,-4132.81 390.287,-2281.25 383.692,-2013.04"/>
<polygon fill="green" stroke="green" points="387.185,-2012.72 383.449,-2002.81 380.187,-2012.89 387.185,-2012.72"/>
<text text-anchor="middle" x="2418" y="-4136.61" font-family="Times,serif" font-size="14.00">Learn_Assert</text>
</g>
<!-- q2&#45;&gt;q0 -->
<g id="edge18" class="edge"><title>q2&#45;&gt;q0</title>
<path fill="none" stroke="green" d="M3705.15,-3990.63C3702.03,-4011.24 3693.74,-4044.64 3672,-4062.81 3629.27,-4098.53 3604.7,-4086.81 3549,-4086.81 1101,-4086.81 1101,-4086.81 1101,-4086.81 1031.29,-4086.81 991.796,-4115.37 946,-4062.81 909.636,-4021.08 910.649,-2201.23 910.958,-1951.99"/>
<polygon fill="green" stroke="green" points="914.458,-1951.93 910.971,-1941.92 907.458,-1951.92 914.458,-1951.93"/>
<text text-anchor="middle" x="2528" y="-4090.61" font-family="Times,serif" font-size="14.00">chain_node</text>
</g>
<!-- q2&#45;&gt;q0 -->
<g id="edge19" class="edge"><title>q2&#45;&gt;q0</title>
<path fill="none" stroke="green" d="M3700.02,-3989.48C3694.24,-4001.2 3684.88,-4016.27 3672,-4024.81 3625.58,-4055.59 3604.7,-4048.81 3549,-4048.81 1101,-4048.81 1101,-4048.81 1101,-4048.81 1031.29,-4048.81 991.804,-4077.36 946,-4024.81 910.312,-3983.87 910.735,-2199.92 910.967,-1952.23"/>
<polygon fill="green" stroke="green" points="914.467,-1951.92 910.977,-1941.91 907.467,-1951.91 914.467,-1951.92"/>
<text text-anchor="middle" x="2528" y="-4052.61" font-family="Times,serif" font-size="14.00">create_sll</text>
</g>
<!-- q2&#45;&gt;q0 -->
<g id="edge20" class="edge"><title>q2&#45;&gt;q0</title>
<path fill="none" stroke="green" d="M3691.19,-3979.86C3685.26,-3982.32 3678.4,-3984.92 3672,-3986.81 3618.57,-4002.56 3604.7,-4010.81 3549,-4010.81 1101,-4010.81 1101,-4010.81 1101,-4010.81 1031.29,-4010.81 991.812,-4039.35 946,-3986.81 910.97,-3946.63 910.824,-2196.74 910.976,-1952.1"/>
<polygon fill="green" stroke="green" points="914.476,-1951.9 910.983,-1941.9 907.476,-1951.89 914.476,-1951.9"/>
<text text-anchor="middle" x="2528" y="-4014.61" font-family="Times,serif" font-size="14.00">init_back_link</text>
</g>
<!-- q2&#45;&gt;q0 -->
<g id="edge21" class="edge"><title>q2&#45;&gt;q0</title>
<path fill="none" stroke="green" d="M3689.93,-3972.81C3660.96,-3972.81 3600.3,-3972.81 3549,-3972.81 1101,-3972.81 1101,-3972.81 1101,-3972.81 1031.29,-3972.81 991.82,-4001.34 946,-3948.81 911.626,-3909.4 910.915,-2193.49 910.985,-1951.95"/>
<polygon fill="green" stroke="green" points="914.485,-1951.87 910.989,-1941.87 907.485,-1951.87 914.485,-1951.87"/>
<text text-anchor="middle" x="2528" y="-3976.61" font-family="Times,serif" font-size="14.00">reverse_dll</text>
</g>
<!-- q2&#45;&gt;q0 -->
<g id="edge22" class="edge"><title>q2&#45;&gt;q0</title>
<path fill="none" stroke="green" d="M3691.15,-3966.36C3663.03,-3955.52 3602.32,-3934.81 3549,-3934.81 1101,-3934.81 1101,-3934.81 1101,-3934.81 1031.29,-3934.81 991.829,-3963.34 946,-3910.81 912.299,-3872.18 911.007,-2191.84 910.994,-1952.15"/>
<polygon fill="green" stroke="green" points="914.494,-1951.83 910.995,-1941.83 907.494,-1951.83 914.494,-1951.83"/>
<text text-anchor="middle" x="2528" y="-3938.61" font-family="Times,serif" font-size="14.00">remove_fw_link</text>
</g>
<!-- q2&#45;&gt;q0 -->
<g id="edge23" class="edge"><title>q2&#45;&gt;q0</title>
<path fill="none" stroke="green" d="M3697.26,-3957.97C3690.98,-3949.48 3682.11,-3939.27 3672,-3932.81 3623.99,-3902.15 3605.96,-3896.81 3549,-3896.81 1101,-3896.81 1101,-3896.81 1101,-3896.81 1031.29,-3896.81 991.838,-3925.33 946,-3872.81 912.954,-3834.95 911.1,-2188.42 911.004,-1951.97"/>
<polygon fill="green" stroke="green" points="914.504,-1951.79 911.001,-1941.79 907.504,-1951.79 914.504,-1951.79"/>
<text text-anchor="middle" x="2528" y="-3900.61" font-family="Times,serif" font-size="14.00">check_seq_next</text>
</g>
<!-- q2&#45;&gt;q0 -->
<g id="edge24" class="edge"><title>q2&#45;&gt;q0</title>
<path fill="none" stroke="green" d="M3703.73,-3955.13C3699.49,-3937.15 3690.34,-3909.75 3672,-3893.81 3629.1,-3856.53 3605.84,-3858.81 3549,-3858.81 1101,-3858.81 1101,-3858.81 1101,-3858.81 1029.01,-3858.81 989.419,-3869.23 946,-3811.81 916.681,-3773.04 911.645,-2184.7 911.064,-1952.12"/>
<polygon fill="green" stroke="green" points="914.563,-1951.78 911.039,-1941.79 907.563,-1951.8 914.563,-1951.78"/>
<text text-anchor="middle" x="2528" y="-3862.61" font-family="Times,serif" font-size="14.00">check_seq_prev</text>
</g>
<!-- q3 -->
<g id="node5" class="node"><title>q3</title>
<ellipse fill="none" stroke="green" cx="3548" cy="-3662.81" rx="18" ry="18"/>
<text text-anchor="middle" x="3548" y="-3659.11" font-family="Times,serif" font-size="14.00">D</text>
</g>
<!-- q3&#45;&gt;q0 -->
<g id="edge26" class="edge"><title>q3&#45;&gt;q0</title>
<path fill="none" stroke="green" d="M3546.67,-3680.79C3545.2,-3706.16 3538.75,-3752.31 3512,-3778.81 3470.23,-3820.18 3443.79,-3815.81 3385,-3815.81 1101,-3815.81 1101,-3815.81 1101,-3815.81 1030.18,-3815.81 990.405,-3833.98 946,-3778.81 916.086,-3741.64 911.562,-2183.51 911.055,-1952.35"/>
<polygon fill="green" stroke="green" points="914.555,-1952.07 911.034,-1942.07 907.555,-1952.08 914.555,-1952.07"/>
<text text-anchor="middle" x="2418" y="-3819.61" font-family="Times,serif" font-size="14.00">chain_node</text>
</g>
<!-- q3&#45;&gt;q0 -->
<g id="edge27" class="edge"><title>q3&#45;&gt;q0</title>
<path fill="none" stroke="green" d="M3541.97,-3679.92C3536.77,-3694.67 3527.25,-3715.48 3512,-3727.81 3466.29,-3764.78 3443.79,-3764.81 3385,-3764.81 1101,-3764.81 1101,-3764.81 1101,-3764.81 1030.18,-3764.81 990.42,-3782.97 946,-3727.81 916.914,-3691.69 911.688,-2177.94 911.07,-1951.92"/>
<polygon fill="green" stroke="green" points="914.57,-1951.85 911.043,-1941.86 907.57,-1951.87 914.57,-1951.85"/>
<text text-anchor="middle" x="2418" y="-3768.61" font-family="Times,serif" font-size="14.00">create_sll</text>
</g>
<!-- q3&#45;&gt;q0 -->
<g id="edge28" class="edge"><title>q3&#45;&gt;q0</title>
<path fill="none" stroke="green" d="M3531.86,-3671C3503.78,-3685.42 3441.32,-3713.81 3385,-3713.81 1101,-3713.81 1101,-3713.81 1101,-3713.81 1030.18,-3713.81 990.436,-3731.96 946,-3676.81 917.769,-3641.77 911.828,-2175.27 911.087,-1952.14"/>
<polygon fill="green" stroke="green" points="914.586,-1951.91 911.054,-1941.92 907.586,-1951.93 914.586,-1951.91"/>
<text text-anchor="middle" x="2418" y="-3717.61" font-family="Times,serif" font-size="14.00">init_back_link</text>
</g>
<!-- q3&#45;&gt;q0 -->
<g id="edge29" class="edge"><title>q3&#45;&gt;q0</title>
<path fill="none" stroke="green" d="M3529.97,-3662.81C3500.46,-3662.81 3437.88,-3662.81 3385,-3662.81 1101,-3662.81 1101,-3662.81 1101,-3662.81 1030.18,-3662.81 990.452,-3680.95 946,-3625.81 918.609,-3591.83 911.965,-2170.91 911.104,-1952"/>
<polygon fill="green" stroke="green" points="914.604,-1951.94 911.065,-1941.95 907.604,-1951.96 914.604,-1951.94"/>
<text text-anchor="middle" x="2418" y="-3666.61" font-family="Times,serif" font-size="14.00">reverse_dll</text>
</g>
<!-- q3&#45;&gt;q0 -->
<g id="edge30" class="edge"><title>q3&#45;&gt;q0</title>
<path fill="none" stroke="green" d="M3531.86,-3654.62C3503.78,-3640.2 3441.32,-3611.81 3385,-3611.81 1101,-3611.81 1101,-3611.81 1101,-3611.81 1030.18,-3611.81 990.47,-3629.93 946,-3574.81 919.46,-3541.91 912.113,-2167.74 911.123,-1952.14"/>
<polygon fill="green" stroke="green" points="914.622,-1951.94 911.077,-1941.96 907.622,-1951.97 914.622,-1951.94"/>
<text text-anchor="middle" x="2418" y="-3615.61" font-family="Times,serif" font-size="14.00">remove_fw_link</text>
</g>
<!-- q3&#45;&gt;q0 -->
<g id="edge31" class="edge"><title>q3&#45;&gt;q0</title>
<path fill="none" stroke="green" d="M3539.53,-3646.82C3533.5,-3635.43 3524.05,-3620.49 3512,-3610.81 3464.71,-3572.82 3445.66,-3560.81 3385,-3560.81 1101,-3560.81 1101,-3560.81 1101,-3560.81 1030.18,-3560.81 990.488,-3578.92 946,-3523.81 920.308,-3491.98 912.264,-2164.3 911.143,-1952.24"/>
<polygon fill="green" stroke="green" points="914.641,-1951.92 911.089,-1941.94 907.641,-1951.96 914.641,-1951.92"/>
<text text-anchor="middle" x="2418" y="-3564.61" font-family="Times,serif" font-size="14.00">check_seq_next</text>
</g>
<!-- q3&#45;&gt;q0 -->
<g id="edge33" class="edge"><title>q3&#45;&gt;q0</title>
<path fill="none" stroke="green" d="M3545.54,-3644.61C3542.76,-3621.74 3534.79,-3582.62 3512,-3558.81 3470.16,-3515.11 3445.5,-3509.81 3385,-3509.81 1101,-3509.81 1101,-3509.81 1101,-3509.81 1029.74,-3509.81 990.106,-3524.78 946,-3468.81 921.579,-3437.82 912.483,-2158.66 911.171,-1951.9"/>
<polygon fill="green" stroke="green" points="914.67,-1951.82 911.108,-1941.84 907.67,-1951.87 914.67,-1951.82"/>
<text text-anchor="middle" x="2418" y="-3513.61" font-family="Times,serif" font-size="14.00">Learn_Assert</text>
</g>
<!-- q3&#45;&gt;q2 -->
<g id="edge32" class="edge"><title>q3&#45;&gt;q2</title>
<path fill="none" stroke="green" d="M3561.18,-3675.49C3585.89,-3701.95 3642.1,-3765.88 3672,-3829.81 3689.65,-3867.54 3699.01,-3915.19 3703.48,-3944.84"/>
<polygon fill="green" stroke="green" points="3700.04,-3945.49 3704.92,-3954.89 3706.97,-3944.5 3700.04,-3945.49"/>
<text text-anchor="middle" x="3628" y="-3833.61" font-family="Times,serif" font-size="14.00">check_seq_prev</text>
</g>
<!-- q4 -->
<g id="node6" class="node"><title>q4</title>
<ellipse fill="none" stroke="green" cx="3384" cy="-3349.81" rx="18" ry="18"/>
<text text-anchor="middle" x="3384" y="-3346.11" font-family="Times,serif" font-size="14.00">D</text>
</g>
<!-- q4&#45;&gt;q0 -->
<g id="edge34" class="edge"><title>q4&#45;&gt;q0</title>
<path fill="none" stroke="green" d="M3381.15,-3367.63C3378.03,-3388.24 3369.74,-3421.64 3348,-3439.81 3305.27,-3475.53 3280.7,-3463.81 3225,-3463.81 1101,-3463.81 1101,-3463.81 1101,-3463.81 1031.29,-3463.81 991.972,-3492.21 946,-3439.81 920.494,-3410.74 912.32,-2157.02 911.152,-1952.02"/>
<polygon fill="green" stroke="green" points="914.651,-1951.77 911.095,-1941.79 907.651,-1951.8 914.651,-1951.77"/>
<text text-anchor="middle" x="2310" y="-3467.61" font-family="Times,serif" font-size="14.00">chain_node</text>
</g>
<!-- q4&#45;&gt;q0 -->
<g id="edge35" class="edge"><title>q4&#45;&gt;q0</title>
<path fill="none" stroke="green" d="M3376.02,-3366.48C3370.24,-3378.2 3360.88,-3393.27 3348,-3401.81 3301.58,-3432.59 3280.7,-3425.81 3225,-3425.81 1101,-3425.81 1101,-3425.81 1101,-3425.81 1031.29,-3425.81 991.988,-3454.2 946,-3401.81 921.151,-3373.5 912.441,-2153.73 911.169,-1951.94"/>
<polygon fill="green" stroke="green" points="914.668,-1951.83 911.106,-1941.85 907.669,-1951.88 914.668,-1951.83"/>
<text text-anchor="middle" x="2310" y="-3429.61" font-family="Times,serif" font-size="14.00">create_sll</text>
</g>
<!-- q4&#45;&gt;q0 -->
<g id="edge36" class="edge"><title>q4&#45;&gt;q0</title>
<path fill="none" stroke="green" d="M3367.19,-3356.86C3361.26,-3359.32 3354.4,-3361.92 3348,-3363.81 3294.57,-3379.56 3280.7,-3387.81 3225,-3387.81 1101,-3387.81 1101,-3387.81 1101,-3387.81 1031.29,-3387.81 992.004,-3416.18 946,-3363.81 921.818,-3336.28 912.574,-2151.48 911.188,-1952.14"/>
<polygon fill="green" stroke="green" points="914.687,-1951.88 911.118,-1941.9 907.687,-1951.93 914.687,-1951.88"/>
<text text-anchor="middle" x="2310" y="-3391.61" font-family="Times,serif" font-size="14.00">init_back_link</text>
</g>
<!-- q4&#45;&gt;q0 -->
<g id="edge37" class="edge"><title>q4&#45;&gt;q0</title>
<path fill="none" stroke="green" d="M3365.93,-3349.81C3336.96,-3349.81 3276.3,-3349.81 3225,-3349.81 1101,-3349.81 1101,-3349.81 1101,-3349.81 1031.29,-3349.81 992.022,-3378.17 946,-3325.81 922.472,-3299.04 912.7,-2147.89 911.206,-1952"/>
<polygon fill="green" stroke="green" points="914.706,-1951.9 911.131,-1941.93 907.706,-1951.96 914.706,-1951.9"/>
<text text-anchor="middle" x="2310" y="-3353.61" font-family="Times,serif" font-size="14.00">reverse_dll</text>
</g>
<!-- q4&#45;&gt;q0 -->
<g id="edge39" class="edge"><title>q4&#45;&gt;q0</title>
<path fill="none" stroke="green" d="M3367.15,-3343.36C3339.03,-3332.52 3278.32,-3311.81 3225,-3311.81 1101,-3311.81 1101,-3311.81 1101,-3311.81 1031.29,-3311.81 992.04,-3340.15 946,-3287.81 923.135,-3261.81 912.839,-2145.27 911.227,-1952.13"/>
<polygon fill="green" stroke="green" points="914.726,-1951.91 911.143,-1941.94 907.726,-1951.97 914.726,-1951.91"/>
<text text-anchor="middle" x="2310" y="-3315.61" font-family="Times,serif" font-size="14.00">check_seq_next</text>
</g>
<!-- q4&#45;&gt;q0 -->
<g id="edge40" class="edge"><title>q4&#45;&gt;q0</title>
<path fill="none" stroke="green" d="M3373.26,-3334.97C3366.98,-3326.48 3358.11,-3316.27 3348,-3309.81 3299.99,-3279.15 3281.96,-3273.81 3225,-3273.81 1101,-3273.81 1101,-3273.81 1101,-3273.81 1031.29,-3273.81 992.059,-3302.14 946,-3249.81 923.798,-3224.59 912.982,-2142.52 911.25,-1952.23"/>
<polygon fill="green" stroke="green" points="914.749,-1952.14 911.159,-1942.17 907.749,-1952.2 914.749,-1952.14"/>
<text text-anchor="middle" x="2310" y="-3277.61" font-family="Times,serif" font-size="14.00">check_seq_prev</text>
</g>
<!-- q4&#45;&gt;q0 -->
<g id="edge41" class="edge"><title>q4&#45;&gt;q0</title>
<path fill="none" stroke="green" d="M3379.73,-3332.13C3375.49,-3314.15 3366.34,-3286.75 3348,-3270.81 3305.1,-3233.53 3281.84,-3235.81 3225,-3235.81 1101,-3235.81 1101,-3235.81 1101,-3235.81 1029.01,-3235.81 989.681,-3246.03 946,-3188.81 907.215,-3138 910.023,-2133.96 910.854,-1951.97"/>
<polygon fill="green" stroke="green" points="914.354,-1951.88 910.902,-1941.86 907.354,-1951.84 914.354,-1951.88"/>
<text text-anchor="middle" x="2310" y="-3239.61" font-family="Times,serif" font-size="14.00">Learn_Assert</text>
</g>
<!-- q4&#45;&gt;q3 -->
<g id="edge38" class="edge"><title>q4&#45;&gt;q3</title>
<path fill="none" stroke="green" d="M3399.16,-3359.85C3425.92,-3379.66 3483.77,-3426.58 3512,-3480.81 3537.96,-3530.68 3544.79,-3597.27 3546.51,-3634.52"/>
<polygon fill="green" stroke="green" points="3543.01,-3634.78 3546.88,-3644.65 3550.01,-3634.52 3543.01,-3634.78"/>
<text text-anchor="middle" x="3466" y="-3484.61" font-family="Times,serif" font-size="14.00">remove_fw_link</text>
</g>
<!-- q5 -->
<g id="node7" class="node"><title>q5</title>
<ellipse fill="none" stroke="green" cx="3224" cy="-3039.81" rx="18" ry="18"/>
<text text-anchor="middle" x="3224" y="-3036.11" font-family="Times,serif" font-size="14.00">D</text>
</g>
<!-- q5&#45;&gt;q0 -->
<g id="edge42" class="edge"><title>q5&#45;&gt;q0</title>
<path fill="none" stroke="green" d="M3222.61,-3058.18C3221.06,-3083.6 3214.49,-3129.34 3188,-3155.81 3147.62,-3196.16 3122.09,-3192.81 3065,-3192.81 1101,-3192.81 1101,-3192.81 1101,-3192.81 1030.18,-3192.81 990.668,-3210.77 946,-3155.81 906.799,-3107.57 909.927,-2131.73 910.838,-1952.1"/>
<polygon fill="green" stroke="green" points="914.339,-1951.89 910.892,-1941.88 907.339,-1951.86 914.339,-1951.89"/>
<text text-anchor="middle" x="2202" y="-3196.61" font-family="Times,serif" font-size="14.00">chain_node</text>
</g>
<!-- q5&#45;&gt;q0 -->
<g id="edge43" class="edge"><title>q5&#45;&gt;q0</title>
<path fill="none" stroke="green" d="M3217.94,-3056.89C3212.73,-3071.61 3203.19,-3092.41 3188,-3104.81 3143.77,-3140.91 3122.09,-3141.81 3065,-3141.81 1101,-3141.81 1101,-3141.81 1101,-3141.81 1030.18,-3141.81 990.702,-3159.74 946,-3104.81 908.49,-3058.71 910.212,-2127.99 910.873,-1952.29"/>
<polygon fill="green" stroke="green" points="914.374,-1952.05 910.914,-1942.04 907.374,-1952.03 914.374,-1952.05"/>
<text text-anchor="middle" x="2202" y="-3145.61" font-family="Times,serif" font-size="14.00">create_sll</text>
</g>
<!-- q5&#45;&gt;q0 -->
<g id="edge44" class="edge"><title>q5&#45;&gt;q0</title>
<path fill="none" stroke="green" d="M3207.83,-3048.23C3180.27,-3062.72 3119.77,-3090.81 3065,-3090.81 1101,-3090.81 1101,-3090.81 1101,-3090.81 1030.18,-3090.81 990.738,-3108.71 946,-3053.81 910.173,-3009.84 910.51,-2123.82 910.913,-1952.39"/>
<polygon fill="green" stroke="green" points="914.413,-1952.16 910.939,-1942.15 907.413,-1952.14 914.413,-1952.16"/>
<text text-anchor="middle" x="2202" y="-3094.61" font-family="Times,serif" font-size="14.00">init_back_link</text>
</g>
<!-- q5&#45;&gt;q0 -->
<g id="edge45" class="edge"><title>q5&#45;&gt;q0</title>
<path fill="none" stroke="green" d="M3205.93,-3039.81C3176.96,-3039.81 3116.3,-3039.81 3065,-3039.81 1101,-3039.81 1101,-3039.81 1101,-3039.81 1030.18,-3039.81 990.778,-3057.68 946,-3002.81 911.864,-2960.98 910.824,-2120.06 910.956,-1952.65"/>
<polygon fill="green" stroke="green" points="914.457,-1952.2 910.967,-1942.19 907.457,-1952.19 914.457,-1952.2"/>
<text text-anchor="middle" x="2202" y="-3043.61" font-family="Times,serif" font-size="14.00">reverse_dll</text>
</g>
<!-- q5&#45;&gt;q0 -->
<g id="edge46" class="edge"><title>q5&#45;&gt;q0</title>
<path fill="none" stroke="green" d="M3207.83,-3031.39C3180.27,-3016.9 3119.77,-2988.81 3065,-2988.81 1101,-2988.81 1101,-2988.81 1101,-2988.81 1030.18,-2988.81 990.823,-3006.65 946,-2951.81 913.513,-2912.06 911.149,-2114.18 911.004,-1952.31"/>
<polygon fill="green" stroke="green" points="914.504,-1952.17 910.998,-1942.17 907.504,-1952.18 914.504,-1952.17"/>
<text text-anchor="middle" x="2202" y="-2992.61" font-family="Times,serif" font-size="14.00">remove_fw_link</text>
</g>
<!-- q5&#45;&gt;q0 -->
<g id="edge48" class="edge"><title>q5&#45;&gt;q0</title>
<path fill="none" stroke="green" d="M3215.49,-3023.85C3209.45,-3012.49 3199.99,-2997.55 3188,-2987.81 3142.2,-2950.6 3124.01,-2937.81 3065,-2937.81 1101,-2937.81 1101,-2937.81 1101,-2937.81 1030.18,-2937.81 990.871,-2955.61 946,-2900.81 915.186,-2863.18 911.493,-2109.47 911.057,-1952.35"/>
<polygon fill="green" stroke="green" points="914.557,-1952.08 911.031,-1942.09 907.557,-1952.1 914.557,-1952.08"/>
<text text-anchor="middle" x="2202" y="-2941.61" font-family="Times,serif" font-size="14.00">check_seq_prev</text>
</g>
<!-- q5&#45;&gt;q0 -->
<g id="edge49" class="edge"><title>q5&#45;&gt;q0</title>
<path fill="none" stroke="green" d="M3221.49,-3021.65C3218.68,-2998.82 3210.66,-2959.74 3188,-2935.81 3147.54,-2893.08 3123.84,-2886.81 3065,-2886.81 1101,-2886.81 1101,-2886.81 1101,-2886.81 1030.28,-2886.81 991.026,-2905.35 946,-2850.81 916.709,-2815.33 911.822,-2104.46 911.111,-1952.31"/>
<polygon fill="green" stroke="green" points="914.609,-1951.94 911.065,-1941.96 907.609,-1951.97 914.609,-1951.94"/>
<text text-anchor="middle" x="2202" y="-2890.61" font-family="Times,serif" font-size="14.00">Learn_Assert</text>
</g>
<!-- q5&#45;&gt;q4 -->
<g id="edge47" class="edge"><title>q5&#45;&gt;q4</title>
<path fill="none" stroke="green" d="M3237.18,-3052.49C3261.89,-3078.95 3318.1,-3142.88 3348,-3206.81 3365.65,-3244.54 3375.01,-3292.19 3379.48,-3321.84"/>
<polygon fill="green" stroke="green" points="3376.04,-3322.49 3380.92,-3331.89 3382.97,-3321.5 3376.04,-3322.49"/>
<text text-anchor="middle" x="3304" y="-3210.61" font-family="Times,serif" font-size="14.00">check_seq_next</text>
</g>
<!-- q6 -->
<g id="node8" class="node"><title>q6</title>
<ellipse fill="none" stroke="green" cx="3064" cy="-2726.81" rx="18" ry="18"/>
<text text-anchor="middle" x="3064" y="-2723.11" font-family="Times,serif" font-size="14.00">D</text>
</g>
<!-- q6&#45;&gt;q0 -->
<g id="edge50" class="edge"><title>q6&#45;&gt;q0</title>
<path fill="none" stroke="green" d="M3060.93,-2744.81C3057.62,-2765.26 3049.15,-2798.21 3028,-2816.81 2994.65,-2846.13 2975.41,-2840.81 2931,-2840.81 2309,-2840.81 2309,-2840.81 2309,-2840.81 2115.21,-2840.81 2066.79,-2845.81 1873,-2845.81 1101,-2845.81 1101,-2845.81 1101,-2845.81 1031.29,-2845.81 992.387,-2873.85 946,-2821.81 916.374,-2788.58 911.753,-2100.51 911.1,-1951.93"/>
<polygon fill="green" stroke="green" points="914.6,-1951.8 911.058,-1941.81 907.6,-1951.83 914.6,-1951.8"/>
<text text-anchor="middle" x="2092" y="-2847.61" font-family="Times,serif" font-size="14.00">chain_node</text>
</g>
<!-- q6&#45;&gt;q0 -->
<g id="edge51" class="edge"><title>q6&#45;&gt;q0</title>
<path fill="none" stroke="green" d="M3055.89,-2743.29C3050.05,-2754.92 3040.66,-2769.95 3028,-2778.81 2991.61,-2804.27 2975.41,-2802.81 2931,-2802.81 2309,-2802.81 2309,-2802.81 2309,-2802.81 2115.21,-2802.81 2066.79,-2807.81 1873,-2807.81 1101,-2807.81 1101,-2807.81 1101,-2807.81 1031.29,-2807.81 992.432,-2835.81 946,-2783.81 917.687,-2752.1 912.054,-2097.17 911.152,-1952.1"/>
<polygon fill="green" stroke="green" points="914.65,-1951.8 911.09,-1941.82 907.65,-1951.84 914.65,-1951.8"/>
<text text-anchor="middle" x="2092" y="-2809.61" font-family="Times,serif" font-size="14.00">create_sll</text>
</g>
<!-- q6&#45;&gt;q0 -->
<g id="edge52" class="edge"><title>q6&#45;&gt;q0</title>
<path fill="none" stroke="green" d="M3047.57,-2734.32C3023.34,-2745.39 2974.64,-2764.81 2931,-2764.81 2309,-2764.81 2309,-2764.81 2309,-2764.81 2115.21,-2764.81 2066.79,-2769.81 1873,-2769.81 1101,-2769.81 1101,-2769.81 1101,-2769.81 1031.29,-2769.81 992.48,-2797.76 946,-2745.81 918.995,-2715.63 912.367,-2093.53 911.208,-1952.2"/>
<polygon fill="green" stroke="green" points="914.707,-1952.12 911.128,-1942.15 907.708,-1952.18 914.707,-1952.12"/>
<text text-anchor="middle" x="2092" y="-2771.61" font-family="Times,serif" font-size="14.00">init_back_link</text>
</g>
<!-- q6&#45;&gt;q0 -->
<g id="edge53" class="edge"><title>q6&#45;&gt;q0</title>
<path fill="none" stroke="green" d="M3045.91,-2726.81C3020.75,-2726.81 2972.25,-2726.81 2931,-2726.81 2201,-2726.81 2201,-2726.81 2201,-2726.81 2055.21,-2726.81 2018.79,-2731.81 1873,-2731.81 1101,-2731.81 1101,-2731.81 1101,-2731.81 1031.29,-2731.81 992.534,-2759.71 946,-2707.81 920.292,-2679.13 912.692,-2089.42 911.268,-1952.17"/>
<polygon fill="green" stroke="green" points="914.767,-1952 911.166,-1942.04 907.767,-1952.08 914.767,-1952"/>
<text text-anchor="middle" x="2092" y="-2732.61" font-family="Times,serif" font-size="14.00">reverse_dll</text>
</g>
<!-- q6&#45;&gt;q0 -->
<g id="edge54" class="edge"><title>q6&#45;&gt;q0</title>
<path fill="none" stroke="green" d="M3047.57,-2719.3C3023.34,-2708.23 2974.64,-2688.81 2931,-2688.81 2201,-2688.81 2201,-2688.81 2201,-2688.81 2055.21,-2688.81 2018.79,-2693.81 1873,-2693.81 1101,-2693.81 1101,-2693.81 1101,-2693.81 1031.29,-2693.81 992.593,-2721.66 946,-2669.81 921.582,-2642.64 913.029,-2084.93 911.334,-1952.05"/>
<polygon fill="green" stroke="green" points="914.831,-1951.83 911.207,-1941.87 907.832,-1951.91 914.831,-1951.83"/>
<text text-anchor="middle" x="2092" y="-2694.61" font-family="Times,serif" font-size="14.00">remove_fw_link</text>
</g>
<!-- q6&#45;&gt;q0 -->
<g id="edge55" class="edge"><title>q6&#45;&gt;q0</title>
<path fill="none" stroke="green" d="M3052.7,-2712.25C3046.35,-2704.15 3037.6,-2694.4 3028,-2687.81 2989.97,-2661.68 2977.14,-2650.81 2931,-2650.81 2201,-2650.81 2201,-2650.81 2201,-2650.81 2055.21,-2650.81 2018.79,-2655.81 1873,-2655.81 1101,-2655.81 1101,-2655.81 1101,-2655.81 1031.29,-2655.81 992.658,-2683.6 946,-2631.81 922.889,-2606.16 913.398,-2081.21 911.411,-1952.24"/>
<polygon fill="green" stroke="green" points="914.907,-1951.94 911.256,-1941.99 907.907,-1952.04 914.907,-1951.94"/>
<text text-anchor="middle" x="2092" y="-2656.61" font-family="Times,serif" font-size="14.00">check_seq_next</text>
</g>
<!-- q6&#45;&gt;q0 -->
<g id="edge57" class="edge"><title>q6&#45;&gt;q0</title>
<path fill="none" stroke="green" d="M3059.15,-2709.23C3054.51,-2691.95 3045.12,-2665.9 3028,-2649.81 2994.37,-2618.21 2977.14,-2612.81 2931,-2612.81 2201,-2612.81 2201,-2612.81 2201,-2612.81 2055.21,-2612.81 2018.79,-2617.81 1873,-2617.81 1101,-2617.81 1101,-2617.81 1101,-2617.81 1029.01,-2617.81 990.432,-2627.45 946,-2570.81 907.411,-2521.62 909.449,-2069.95 910.654,-1951.92"/>
<polygon fill="green" stroke="green" points="914.154,-1951.9 910.763,-1941.86 907.155,-1951.83 914.154,-1951.9"/>
<text text-anchor="middle" x="2092" y="-2618.61" font-family="Times,serif" font-size="14.00">Learn_Assert</text>
</g>
<!-- q6&#45;&gt;q5 -->
<g id="edge56" class="edge"><title>q6&#45;&gt;q5</title>
<path fill="none" stroke="green" d="M3079.11,-2737.28C3105.2,-2757.45 3160.77,-2804.46 3188,-2857.81 3213.56,-2907.89 3220.54,-2974.41 3222.39,-3011.58"/>
<polygon fill="green" stroke="green" points="3218.89,-3011.84 3222.8,-3021.69 3225.89,-3011.56 3218.89,-3011.84"/>
<text text-anchor="middle" x="3144" y="-2861.61" font-family="Times,serif" font-size="14.00">check_seq_prev</text>
</g>
<!-- q7 -->
<g id="node9" class="node"><title>q7</title>
<ellipse fill="none" stroke="green" cx="2930" cy="-2421.81" rx="18" ry="18"/>
<text text-anchor="middle" x="2930" y="-2418.11" font-family="Times,serif" font-size="14.00">D</text>
</g>
<!-- q7&#45;&gt;q0 -->
<g id="edge58" class="edge"><title>q7&#45;&gt;q0</title>
<path fill="none" stroke="green" d="M2928.61,-2440.18C2927.06,-2465.6 2920.49,-2511.34 2894,-2537.81 2853.62,-2578.16 2828.09,-2574.81 2771,-2574.81 1101,-2574.81 1101,-2574.81 1101,-2574.81 1030.18,-2574.81 991.448,-2592.13 946,-2537.81 908.084,-2492.49 909.57,-2066.47 910.666,-1952"/>
<polygon fill="green" stroke="green" points="914.167,-1951.96 910.77,-1941.92 907.167,-1951.89 914.167,-1951.96"/>
<text text-anchor="middle" x="1982" y="-2578.61" font-family="Times,serif" font-size="14.00">chain_node</text>
</g>
<!-- q7&#45;&gt;q0 -->
<g id="edge59" class="edge"><title>q7&#45;&gt;q0</title>
<path fill="none" stroke="green" d="M2923.94,-2438.89C2918.73,-2453.61 2909.19,-2474.41 2894,-2486.81 2849.77,-2522.91 2828.09,-2523.81 2771,-2523.81 1101,-2523.81 1101,-2523.81 1101,-2523.81 1030.18,-2523.81 991.587,-2541.01 946,-2486.81 911.377,-2445.64 910.403,-2060.46 910.823,-1952.07"/>
<polygon fill="green" stroke="green" points="914.324,-1951.92 910.87,-1941.91 907.324,-1951.89 914.324,-1951.92"/>
<text text-anchor="middle" x="1982" y="-2527.61" font-family="Times,serif" font-size="14.00">create_sll</text>
</g>
<!-- q7&#45;&gt;q0 -->
<g id="edge60" class="edge"><title>q7&#45;&gt;q0</title>
<path fill="none" stroke="green" d="M2913.83,-2430.23C2886.27,-2444.72 2825.77,-2472.81 2771,-2472.81 1101,-2472.81 1101,-2472.81 1101,-2472.81 1030.18,-2472.81 991.754,-2489.87 946,-2435.81 914.658,-2398.78 911.312,-2054.12 911.012,-1952.12"/>
<polygon fill="green" stroke="green" points="914.512,-1951.95 910.99,-1941.96 907.512,-1951.97 914.512,-1951.95"/>
<text text-anchor="middle" x="1982" y="-2476.61" font-family="Times,serif" font-size="14.00">init_back_link</text>
</g>
<!-- q7&#45;&gt;q0 -->
<g id="edge62" class="edge"><title>q7&#45;&gt;q0</title>
<path fill="none" stroke="green" d="M2911.93,-2421.81C2882.96,-2421.81 2822.3,-2421.81 2771,-2421.81 1101,-2421.81 1101,-2421.81 1101,-2421.81 1030.18,-2421.81 991.957,-2438.7 946,-2384.81 917.916,-2351.88 912.31,-2047.19 911.241,-1952.05"/>
<polygon fill="green" stroke="green" points="914.741,-1951.98 911.137,-1942.01 907.741,-1952.05 914.741,-1951.98"/>
<text text-anchor="middle" x="1982" y="-2425.61" font-family="Times,serif" font-size="14.00">remove_fw_link</text>
</g>
<!-- q7&#45;&gt;q0 -->
<g id="edge63" class="edge"><title>q7&#45;&gt;q0</title>
<path fill="none" stroke="green" d="M2913.83,-2413.39C2886.27,-2398.9 2825.77,-2370.81 2771,-2370.81 1101,-2370.81 1101,-2370.81 1101,-2370.81 1030.92,-2370.81 992.981,-2393.81 946,-2341.81 919.932,-2312.95 912.999,-2041.27 911.417,-1952.05"/>
<polygon fill="green" stroke="green" points="914.914,-1951.81 911.246,-1941.87 907.915,-1951.92 914.914,-1951.81"/>
<text text-anchor="middle" x="1982" y="-2374.61" font-family="Times,serif" font-size="14.00">check_seq_next</text>
</g>
<!-- q7&#45;&gt;q0 -->
<g id="edge64" class="edge"><title>q7&#45;&gt;q0</title>
<path fill="none" stroke="green" d="M2921.49,-2405.85C2915.45,-2394.49 2905.99,-2379.55 2894,-2369.81 2848.2,-2332.6 2830.01,-2319.81 2771,-2319.81 2091,-2319.81 2091,-2319.81 2091,-2319.81 1896.3,-2319.81 1847.7,-2327.81 1653,-2327.81 1101,-2327.81 1101,-2327.81 1101,-2327.81 1031.29,-2327.81 993.747,-2354.6 946,-2303.81 922.036,-2278.32 913.789,-2036.16 911.638,-1952.26"/>
<polygon fill="green" stroke="green" points="915.135,-1952.08 911.389,-1942.17 908.137,-1952.25 915.135,-1952.08"/>
<text text-anchor="middle" x="1982" y="-2324.61" font-family="Times,serif" font-size="14.00">check_seq_prev</text>
</g>
<!-- q7&#45;&gt;q0 -->
<g id="edge65" class="edge"><title>q7&#45;&gt;q0</title>
<path fill="none" stroke="green" d="M2927.49,-2403.65C2924.68,-2380.82 2916.66,-2341.74 2894,-2317.81 2853.54,-2275.08 2829.84,-2268.81 2771,-2268.81 2091,-2268.81 2091,-2268.81 2091,-2268.81 1896.11,-2268.81 1847.89,-2289.81 1653,-2289.81 1101,-2289.81 1101,-2289.81 1101,-2289.81 1030.57,-2289.81 993.12,-2309.16 946,-2256.81 925.798,-2234.37 915.333,-2028.98 912.107,-1952.41"/>
<polygon fill="green" stroke="green" points="915.591,-1951.93 911.684,-1942.09 908.597,-1952.22 915.591,-1951.93"/>
<text text-anchor="middle" x="1982" y="-2277.61" font-family="Times,serif" font-size="14.00">Learn_Assert</text>
</g>
<!-- q7&#45;&gt;q6 -->
<g id="edge61" class="edge"><title>q7&#45;&gt;q6</title>
<path fill="none" stroke="green" d="M2941.36,-2435.78C2961.04,-2462.93 3003.96,-2525.29 3028,-2583.81 3043.83,-2622.34 3053.69,-2669.77 3058.76,-2699.15"/>
<polygon fill="green" stroke="green" points="3055.33,-2699.82 3060.42,-2709.11 3062.23,-2698.67 3055.33,-2699.82"/>
<text text-anchor="middle" x="2997" y="-2587.61" font-family="Times,serif" font-size="14.00">reverse_dll</text>
</g>
<!-- q8 -->
<g id="node10" class="node"><title>q8</title>
<ellipse fill="none" stroke="green" cx="2770" cy="-2108.81" rx="18" ry="18"/>
<text text-anchor="middle" x="2770" y="-2105.11" font-family="Times,serif" font-size="14.00">D</text>
</g>
<!-- q8&#45;&gt;q0 -->
<g id="edge66" class="edge"><title>q8&#45;&gt;q0</title>
<path fill="none" stroke="green" d="M2767.15,-2126.63C2764.03,-2147.24 2755.74,-2180.64 2734,-2198.81 2691.27,-2234.53 2666.7,-2222.81 2611,-2222.81 2091,-2222.81 2091,-2222.81 2091,-2222.81 1895.91,-2222.81 1848.09,-2251.81 1653,-2251.81 1101,-2251.81 1101,-2251.81 1101,-2251.81 1031.29,-2251.81 994.322,-2278.05 946,-2227.81 927.041,-2208.1 915.936,-2023.39 912.317,-1951.89"/>
<polygon fill="green" stroke="green" points="915.809,-1951.62 911.819,-1941.81 908.817,-1951.97 915.809,-1951.62"/>
<text text-anchor="middle" x="1872" y="-2245.61" font-family="Times,serif" font-size="14.00">chain_node</text>
</g>
<!-- q8&#45;&gt;q0 -->
<g id="edge67" class="edge"><title>q8&#45;&gt;q0</title>
<path fill="none" stroke="green" d="M2762.02,-2125.48C2756.24,-2137.2 2746.88,-2152.27 2734,-2160.81 2687.58,-2191.59 2666.7,-2184.81 2611,-2184.81 2091,-2184.81 2091,-2184.81 2091,-2184.81 1895.91,-2184.81 1848.09,-2213.81 1653,-2213.81 1101,-2213.81 1101,-2213.81 1101,-2213.81 1031.29,-2213.81 994.727,-2239.66 946,-2189.81 913.519,-2156.58 910.408,-2013.57 910.616,-1952.09"/>
<polygon fill="green" stroke="green" points="914.117,-1951.96 910.684,-1941.93 907.117,-1951.91 914.117,-1951.96"/>
<text text-anchor="middle" x="1872" y="-2207.61" font-family="Times,serif" font-size="14.00">create_sll</text>
</g>
<!-- q8&#45;&gt;q0 -->
<g id="edge68" class="edge"><title>q8&#45;&gt;q0</title>
<path fill="none" stroke="green" d="M2753.19,-2115.86C2747.26,-2118.32 2740.4,-2120.92 2734,-2122.81 2680.57,-2138.56 2666.7,-2146.81 2611,-2146.81 2091,-2146.81 2091,-2146.81 2091,-2146.81 1895.91,-2146.81 1848.09,-2175.81 1653,-2175.81 1101,-2175.81 1101,-2175.81 1101,-2175.81 1031.29,-2175.81 995.26,-2201.13 946,-2151.81 918.475,-2124.25 912.572,-2006.92 911.324,-1952.17"/>
<polygon fill="green" stroke="green" points="914.822,-1952.02 911.131,-1942.09 907.823,-1952.16 914.822,-1952.02"/>
<text text-anchor="middle" x="1872" y="-2169.61" font-family="Times,serif" font-size="14.00">init_back_link</text>
</g>
<!-- q8&#45;&gt;q0 -->
<g id="edge69" class="edge"><title>q8&#45;&gt;q0</title>
<path fill="none" stroke="green" d="M2751.93,-2108.81C2722.96,-2108.81 2662.3,-2108.81 2611,-2108.81 2091,-2108.81 2091,-2108.81 2091,-2108.81 1895.91,-2108.81 1848.09,-2137.81 1653,-2137.81 1101,-2137.81 1101,-2137.81 1101,-2137.81 1031.29,-2137.81 995.991,-2162.39 946,-2113.81 923.35,-2091.8 915.084,-1999.34 912.296,-1952"/>
<polygon fill="green" stroke="green" points="915.78,-1951.61 911.74,-1941.82 908.79,-1951.99 915.78,-1951.61"/>
<text text-anchor="middle" x="1872" y="-2131.61" font-family="Times,serif" font-size="14.00">reverse_dll</text>
</g>
<!-- q8&#45;&gt;q0 -->
<g id="edge70" class="edge"><title>q8&#45;&gt;q0</title>
<path fill="none" stroke="green" d="M2753.15,-2102.36C2725.03,-2091.52 2664.32,-2070.81 2611,-2070.81 2091,-2070.81 2091,-2070.81 2091,-2070.81 1895.91,-2070.81 1848.09,-2099.81 1653,-2099.81 1101,-2099.81 1101,-2099.81 1101,-2099.81 1031.29,-2099.81 997.051,-2123.28 946,-2075.81 928.152,-2059.21 918.1,-1990.81 913.704,-1951.66"/>
<polygon fill="green" stroke="green" points="917.181,-1951.26 912.636,-1941.69 910.221,-1952.01 917.181,-1951.26"/>
<text text-anchor="middle" x="1872" y="-2093.61" font-family="Times,serif" font-size="14.00">remove_fw_link</text>
</g>
<!-- q8&#45;&gt;q0 -->
<g id="edge71" class="edge"><title>q8&#45;&gt;q0</title>
<path fill="none" stroke="green" d="M2759.26,-2093.97C2752.98,-2085.48 2744.11,-2075.27 2734,-2068.81 2685.99,-2038.15 2667.96,-2032.81 2611,-2032.81 2091,-2032.81 2091,-2032.81 2091,-2032.81 1895.91,-2032.81 1848.09,-2061.81 1653,-2061.81 1101,-2061.81 1101,-2061.81 1101,-2061.81 1031.29,-2061.81 998.717,-2083.42 946,-2037.81 921.368,-2016.5 913.793,-1978.33 911.613,-1952.07"/>
<polygon fill="green" stroke="green" points="915.099,-1951.73 910.988,-1941.96 908.112,-1952.16 915.099,-1951.73"/>
<text text-anchor="middle" x="1872" y="-2055.61" font-family="Times,serif" font-size="14.00">check_seq_next</text>
</g>
<!-- q8&#45;&gt;q0 -->
<g id="edge73" class="edge"><title>q8&#45;&gt;q0</title>
<path fill="none" stroke="green" d="M2765.73,-2091.13C2761.49,-2073.15 2752.34,-2045.75 2734,-2029.81 2691.1,-1992.53 2667.84,-1994.81 2611,-1994.81 2091,-1994.81 2091,-1994.81 2091,-1994.81 1895.91,-1994.81 1848.09,-2023.81 1653,-2023.81 1101,-2023.81 1101,-2023.81 1101,-2023.81 1029.74,-2023.81 1002.86,-2025.76 946,-1982.81 934.938,-1974.45 926.699,-1961.5 921.004,-1949.85"/>
<polygon fill="green" stroke="green" points="924.098,-1948.2 916.811,-1940.51 917.712,-1951.07 924.098,-1948.2"/>
<text text-anchor="middle" x="1872" y="-2017.61" font-family="Times,serif" font-size="14.00">Learn_Assert</text>
</g>
<!-- q8&#45;&gt;q7 -->
<g id="edge72" class="edge"><title>q8&#45;&gt;q7</title>
<path fill="none" stroke="green" d="M2785.11,-2119.28C2811.2,-2139.45 2866.77,-2186.46 2894,-2239.81 2919.56,-2289.89 2926.54,-2356.41 2928.39,-2393.58"/>
<polygon fill="green" stroke="green" points="2924.89,-2393.84 2928.8,-2403.69 2931.89,-2393.56 2924.89,-2393.84"/>
<text text-anchor="middle" x="2850" y="-2243.61" font-family="Times,serif" font-size="14.00">check_seq_prev</text>
</g>
<!-- q9 -->
<g id="node11" class="node"><title>q9</title>
<ellipse fill="none" stroke="green" cx="2610" cy="-1827.81" rx="18" ry="18"/>
<text text-anchor="middle" x="2610" y="-1824.11" font-family="Times,serif" font-size="14.00">D</text>
</g>
<!-- q9&#45;&gt;q0 -->
<g id="edge74" class="edge"><title>q9&#45;&gt;q0</title>
<path fill="none" stroke="green" d="M2608.45,-1845.77C2606.69,-1869.54 2599.84,-1910.99 2574,-1932.81 2520.74,-1977.79 2488.71,-1956.81 2419,-1956.81 2091,-1956.81 2091,-1956.81 2091,-1956.81 1896.04,-1956.81 1847.96,-1980.81 1653,-1980.81 1101,-1980.81 1101,-1980.81 1101,-1980.81 1031.29,-1980.81 1008.62,-1987.43 946,-1956.81 939.895,-1953.82 934.135,-1949.4 929.117,-1944.76"/>
<polygon fill="green" stroke="green" points="931.418,-1942.11 921.9,-1937.45 926.438,-1947.03 931.418,-1942.11"/>
<text text-anchor="middle" x="1762" y="-1983.61" font-family="Times,serif" font-size="14.00">chain_node</text>
</g>
<!-- q9&#45;&gt;q0 -->
<g id="edge75" class="edge"><title>q9&#45;&gt;q0</title>
<path fill="none" stroke="green" d="M2604.4,-1845.07C2599.45,-1860.13 2590.05,-1881.32 2574,-1892.81 2517.21,-1933.48 2488.85,-1918.81 2419,-1918.81 2091,-1918.81 2091,-1918.81 2091,-1918.81 1630.17,-1918.81 1068.12,-1922.67 938.539,-1923.61"/>
<polygon fill="green" stroke="green" points="938.297,-1920.11 928.323,-1923.68 938.348,-1927.11 938.297,-1920.11"/>
<text text-anchor="middle" x="1762" y="-1922.61" font-family="Times,serif" font-size="14.00">create_sll</text>
</g>
<!-- q9&#45;&gt;q0 -->
<g id="edge76" class="edge"><title>q9&#45;&gt;q0</title>
<path fill="none" stroke="green" d="M2593.12,-1835.12C2560.98,-1849.22 2485.6,-1878.81 2419,-1878.81 1871,-1878.81 1871,-1878.81 1871,-1878.81 1459.5,-1878.81 1355.73,-1880.78 946,-1918.81 943.433,-1919.05 940.766,-1919.34 938.102,-1919.67"/>
<polygon fill="green" stroke="green" points="937.49,-1916.22 928.05,-1921.03 938.429,-1923.16 937.49,-1916.22"/>
<text text-anchor="middle" x="1762" y="-1882.61" font-family="Times,serif" font-size="14.00">init_back_link</text>
</g>
<!-- q9&#45;&gt;q0 -->
<g id="edge77" class="edge"><title>q9&#45;&gt;q0</title>
<path fill="none" stroke="green" d="M2591.97,-1827.81C2558.72,-1827.81 2482.83,-1827.81 2419,-1827.81 1871,-1827.81 1871,-1827.81 1871,-1827.81 1767.86,-1827.81 1045.14,-1877.35 946,-1905.81 942.302,-1906.87 938.537,-1908.34 934.914,-1909.98"/>
<polygon fill="green" stroke="green" points="933.153,-1906.95 925.797,-1914.57 936.302,-1913.2 933.153,-1906.95"/>
<text text-anchor="middle" x="1762" y="-1837.61" font-family="Times,serif" font-size="14.00">reverse_dll</text>
</g>
<!-- q9&#45;&gt;q0 -->
<g id="edge78" class="edge"><title>q9&#45;&gt;q0</title>
<path fill="none" stroke="green" d="M2593.12,-1820.5C2560.98,-1806.4 2485.6,-1776.81 2419,-1776.81 1871,-1776.81 1871,-1776.81 1871,-1776.81 1819.25,-1776.81 992.238,-1863.57 946,-1886.81 939.048,-1890.3 932.739,-1895.77 927.454,-1901.43"/>
<polygon fill="green" stroke="green" points="924.729,-1899.24 920.916,-1909.12 930.061,-1903.77 924.729,-1899.24"/>
<text text-anchor="middle" x="1762" y="-1794.61" font-family="Times,serif" font-size="14.00">remove_fw_link</text>
</g>
<!-- q9&#45;&gt;q0 -->
<g id="edge80" class="edge"><title>q9&#45;&gt;q0</title>
<path fill="none" stroke="green" d="M2600.48,-1811.93C2594.31,-1801.78 2585.13,-1789.03 2574,-1780.81 2515.19,-1737.4 2492.1,-1725.81 2419,-1725.81 1871,-1725.81 1871,-1725.81 1871,-1725.81 1792.64,-1725.81 1775.28,-1746.83 1698,-1759.81 1531.6,-1787.76 1086.48,-1771.35 946,-1864.81 934.38,-1872.54 926.064,-1885.56 920.463,-1897.4"/>
<polygon fill="green" stroke="green" points="917.101,-1896.36 916.383,-1906.93 923.536,-1899.11 917.101,-1896.36"/>
<text text-anchor="middle" x="1762" y="-1760.61" font-family="Times,serif" font-size="14.00">check_seq_prev</text>
</g>
<!-- q9&#45;&gt;q0 -->
<g id="edge81" class="edge"><title>q9&#45;&gt;q0</title>
<path fill="none" stroke="green" d="M2607.42,-1809.78C2604.53,-1787.58 2596.45,-1750.1 2574,-1727.81 2522.33,-1676.51 2491.8,-1674.81 2419,-1674.81 1871,-1674.81 1871,-1674.81 1871,-1674.81 1799.96,-1674.81 1777.79,-1678.76 1716,-1713.81 1706.16,-1719.39 1708.21,-1726.93 1698,-1731.81 1644.37,-1757.46 1225.1,-1782.42 1166,-1788.81 1117.11,-1794.1 1104.6,-1793.31 1056,-1800.81 1006.73,-1808.41 983.571,-1790.04 946,-1822.81 924.993,-1841.13 916.588,-1872.73 913.229,-1895.71"/>
<polygon fill="green" stroke="green" points="909.723,-1895.54 911.983,-1905.89 916.672,-1896.39 909.723,-1895.54"/>
<text text-anchor="middle" x="1762" y="-1717.61" font-family="Times,serif" font-size="14.00">Learn_Assert</text>
</g>
<!-- q9&#45;&gt;q8 -->
<g id="edge79" class="edge"><title>q9&#45;&gt;q8</title>
<path fill="none" stroke="green" d="M2624.44,-1838.81C2649.9,-1860.39 2705.18,-1910.98 2734,-1965.81 2753.38,-2002.68 2762.27,-2050.57 2766.17,-2080.5"/>
<polygon fill="green" stroke="green" points="2762.73,-2081.15 2767.39,-2090.66 2769.68,-2080.31 2762.73,-2081.15"/>
<text text-anchor="middle" x="2690" y="-1969.61" font-family="Times,serif" font-size="14.00">check_seq_next</text>
</g>
<!-- q10 -->
<g id="node12" class="node"><title>q10</title>
<ellipse fill="none" stroke="green" cx="2418" cy="-1457.81" rx="18" ry="18"/>
<text text-anchor="middle" x="2418" y="-1454.11" font-family="Times,serif" font-size="14.00">D</text>
</g>
<!-- q10&#45;&gt;q0 -->
<g id="edge82" class="edge"><title>q10&#45;&gt;q0</title>
<path fill="none" stroke="green" d="M2414.9,-1475.62C2410.16,-1507.12 2395.62,-1572.39 2354,-1604.81 2300.39,-1646.57 2270.95,-1628.81 2203,-1628.81 1871,-1628.81 1871,-1628.81 1871,-1628.81 1801.29,-1628.81 1772.79,-1612.38 1716,-1652.81 1702.07,-1662.73 1712.33,-1677.49 1698,-1686.81 1557.56,-1778.11 1071.22,-1627.55 946,-1738.81 923.047,-1759.2 914.933,-1849.3 912.24,-1895.81"/>
<polygon fill="green" stroke="green" points="908.743,-1895.66 911.705,-1905.83 915.733,-1896.03 908.743,-1895.66"/>
<text text-anchor="middle" x="1652" y="-1718.61" font-family="Times,serif" font-size="14.00">chain_node</text>
</g>
<!-- q10&#45;&gt;q0 -->
<g id="edge83" class="edge"><title>q10&#45;&gt;q0</title>
<path fill="none" stroke="green" d="M2412.21,-1475.03C2404.4,-1499.69 2386.42,-1544.52 2354,-1566.81 2298,-1605.3 2270.95,-1590.81 2203,-1590.81 1871,-1590.81 1871,-1590.81 1871,-1590.81 1800.75,-1590.81 1774.37,-1582.72 1716,-1621.81 1704.02,-1629.83 1710.48,-1641.59 1698,-1648.81 1625.52,-1690.75 1007.76,-1642.26 946,-1698.81 917.642,-1724.78 912.172,-1841.2 911.18,-1895.61"/>
<polygon fill="green" stroke="green" points="907.68,-1895.58 911.036,-1905.62 914.679,-1895.68 907.68,-1895.58"/>
<text text-anchor="middle" x="1652" y="-1668.61" font-family="Times,serif" font-size="14.00">create_sll</text>
</g>
<!-- q10&#45;&gt;q0 -->
<g id="edge85" class="edge"><title>q10&#45;&gt;q0</title>
<path fill="none" stroke="green" d="M2408.01,-1473.09C2397.36,-1489.71 2377.99,-1515.66 2354,-1528.81 2294.41,-1561.47 2270.95,-1552.81 2203,-1552.81 1871,-1552.81 1871,-1552.81 1871,-1552.81 1800.47,-1552.81 1775.32,-1548.66 1716,-1586.81 1704.79,-1594.02 1709.67,-1604.36 1698,-1610.81 1624.62,-1651.36 1006.93,-1615.22 946,-1672.81 914.394,-1702.68 910.73,-1836.11 910.701,-1895.33"/>
<polygon fill="green" stroke="green" points="907.202,-1895.49 910.732,-1905.48 914.202,-1895.47 907.202,-1895.49"/>
<text text-anchor="middle" x="1652" y="-1630.61" font-family="Times,serif" font-size="14.00">reverse_dll</text>
</g>
<!-- q10&#45;&gt;q0 -->
<g id="edge86" class="edge"><title>q10&#45;&gt;q0</title>
<path fill="none" stroke="green" d="M2402.08,-1467.4C2389.69,-1474.93 2371.35,-1485.06 2354,-1490.81 2289.5,-1512.19 2270.95,-1514.81 2203,-1514.81 1871,-1514.81 1871,-1514.81 1871,-1514.81 1800.38,-1514.81 1775.67,-1512.03 1716,-1549.81 1705.03,-1556.75 1709.38,-1566.57 1698,-1572.81 1624.38,-1613.13 1006.22,-1586.33 946,-1644.81 910.824,-1678.97 909.302,-1831.31 910.277,-1895.33"/>
<polygon fill="green" stroke="green" points="906.781,-1895.58 910.465,-1905.51 913.78,-1895.45 906.781,-1895.58"/>
<text text-anchor="middle" x="1652" y="-1593.61" font-family="Times,serif" font-size="14.00">remove_fw_link</text>
</g>
<!-- q10&#45;&gt;q0 -->
<g id="edge87" class="edge"><title>q10&#45;&gt;q0</title>
<path fill="none" stroke="green" d="M2400.12,-1460.33C2364.04,-1465.5 2276.67,-1476.81 2203,-1476.81 1871,-1476.81 1871,-1476.81 1871,-1476.81 1800.28,-1476.81 1776.05,-1475.44 1716,-1512.81 1705.27,-1519.48 1709.11,-1528.8 1698,-1534.81 1624.1,-1574.82 1005.6,-1556.56 946,-1615.81 926.352,-1635.34 915.666,-1822.75 912.238,-1895.31"/>
<polygon fill="green" stroke="green" points="908.731,-1895.39 911.767,-1905.54 915.723,-1895.71 908.731,-1895.39"/>
<text text-anchor="middle" x="1652" y="-1556.61" font-family="Times,serif" font-size="14.00">check_seq_next</text>
</g>
<!-- q10&#45;&gt;q0 -->
<g id="edge88" class="edge"><title>q10&#45;&gt;q0</title>
<path fill="none" stroke="green" d="M2400.12,-1455.29C2364.04,-1450.12 2276.67,-1438.81 2203,-1438.81 1871,-1438.81 1871,-1438.81 1871,-1438.81 1800.28,-1438.81 1776.47,-1438.13 1716,-1474.81 1705.49,-1481.18 1708.84,-1490.02 1698,-1495.81 1623.78,-1535.46 1005.03,-1525.83 946,-1585.81 924.455,-1607.7 914.801,-1817.66 911.95,-1895.21"/>
<polygon fill="green" stroke="green" points="908.436,-1895.54 911.578,-1905.65 915.432,-1895.79 908.436,-1895.54"/>
<text text-anchor="middle" x="1652" y="-1517.61" font-family="Times,serif" font-size="14.00">check_seq_prev</text>
</g>
<!-- q10&#45;&gt;q0 -->
<g id="edge89" class="edge"><title>q10&#45;&gt;q0</title>
<path fill="none" stroke="green" d="M2401.28,-1450.59C2366.38,-1435.25 2279.51,-1400.81 2203,-1400.81 1871,-1400.81 1871,-1400.81 1871,-1400.81 1792.18,-1400.81 1775.37,-1424.77 1698,-1439.81 1649.37,-1449.26 1636.94,-1450.11 1588,-1457.81 1445.47,-1480.24 1045.16,-1450 946,-1554.81 922.721,-1579.41 914.059,-1813.15 911.717,-1895.37"/>
<polygon fill="green" stroke="green" points="908.215,-1895.4 911.439,-1905.5 915.212,-1895.6 908.215,-1895.4"/>
<text text-anchor="middle" x="1652" y="-1459.61" font-family="Times,serif" font-size="14.00">Learn_Assert</text>
</g>
<!-- q10&#45;&gt;q9 -->
<g id="edge84" class="edge"><title>q10&#45;&gt;q9</title>
<path fill="none" stroke="green" d="M2432.38,-1469.46C2462.89,-1496.85 2537.8,-1568.87 2574,-1645.81 2597.94,-1696.69 2605.5,-1762.91 2607.89,-1799.82"/>
<polygon fill="green" stroke="green" points="2604.4,-1800.07 2608.46,-1809.85 2611.39,-1799.67 2604.4,-1800.07"/>
<text text-anchor="middle" x="2528" y="-1649.61" font-family="Times,serif" font-size="14.00">init_back_link</text>
</g>
<!-- q11 -->
<g id="node13" class="node"><title>q11</title>
<ellipse fill="none" stroke="black" cx="1762" cy="-1290.81" rx="18" ry="18"/>
<text text-anchor="middle" x="1762" y="-1287.11" font-family="Times,serif" font-size="14.00">D</text>
</g>
<!-- q11&#45;&gt;q0 -->
<g id="edge91" class="edge"><title>q11&#45;&gt;q0</title>
<path fill="none" stroke="green" d="M1754.04,-1307.32C1741.61,-1336.08 1715.28,-1393.57 1698,-1406.81 1641.78,-1449.89 1613.82,-1443.81 1543,-1443.81 1101,-1443.81 1101,-1443.81 1101,-1443.81 1030.92,-1443.81 992.823,-1420.66 946,-1472.81 917.768,-1504.25 912.268,-1801.61 911.232,-1895.53"/>
<polygon fill="green" stroke="green" points="907.731,-1895.66 911.129,-1905.7 914.73,-1895.73 907.731,-1895.66"/>
<text text-anchor="middle" x="1322" y="-1447.61" font-family="Times,serif" font-size="14.00">create_sll</text>
</g>
<!-- q11&#45;&gt;q0 -->
<g id="edge92" class="edge"><title>q11&#45;&gt;q0</title>
<path fill="none" stroke="green" d="M1750.91,-1305.29C1739.71,-1320.25 1720.26,-1343.13 1698,-1355.81 1636.46,-1390.86 1613.82,-1392.81 1543,-1392.81 1101,-1392.81 1101,-1392.81 1101,-1392.81 1029.63,-1392.81 991.367,-1379.71 946,-1434.81 916.668,-1470.43 911.915,-1796.64 911.147,-1895.52"/>
<polygon fill="green" stroke="green" points="907.647,-1895.64 911.077,-1905.66 914.646,-1895.69 907.647,-1895.64"/>
<text text-anchor="middle" x="1322" y="-1396.61" font-family="Times,serif" font-size="14.00">init_back_link</text>
</g>
<!-- q11&#45;&gt;q0 -->
<g id="edge93" class="edge"><title>q11&#45;&gt;q0</title>
<path fill="none" stroke="green" d="M1744.25,-1295.05C1731.61,-1298.13 1713.81,-1302.19 1698,-1304.81 1615.07,-1318.56 1004.1,-1327.05 946,-1387.81 910.753,-1424.67 910.187,-1789.93 910.769,-1895.42"/>
<polygon fill="green" stroke="green" points="907.27,-1895.64 910.833,-1905.62 914.27,-1895.6 907.27,-1895.64"/>
<text text-anchor="middle" x="1322" y="-1335.61" font-family="Times,serif" font-size="14.00">reverse_dll</text>
</g>
<!-- q11&#45;&gt;q0 -->
<g id="edge94" class="edge"><title>q11&#45;&gt;q0</title>
<path fill="none" stroke="green" d="M1743.8,-1290.79C1631.19,-1290.86 1001.98,-1293.98 946,-1354.81 909.148,-1394.85 909.784,-1786.1 910.694,-1895.51"/>
<polygon fill="green" stroke="green" points="907.197,-1895.8 910.788,-1905.76 914.196,-1895.73 907.197,-1895.8"/>
<text text-anchor="middle" x="1322" y="-1306.61" font-family="Times,serif" font-size="14.00">remove_fw_link</text>
</g>
<!-- q11&#45;&gt;q0 -->
<g id="edge96" class="edge"><title>q11&#45;&gt;q0</title>
<path fill="none" stroke="green" d="M1743.81,-1288.41C1636.37,-1273.84 1058.1,-1201.76 946,-1321.81 926.187,-1343.03 914.43,-1779.55 911.645,-1895.65"/>
<polygon fill="green" stroke="green" points="908.141,-1895.78 911.403,-1905.86 915.139,-1895.95 908.141,-1895.78"/>
<text text-anchor="middle" x="1322" y="-1259.61" font-family="Times,serif" font-size="14.00">check_seq_prev</text>
</g>
<!-- q11&#45;&gt;q0 -->
<g id="edge97" class="edge"><title>q11&#45;&gt;q0</title>
<path fill="none" stroke="green" d="M1745.25,-1284.15C1732.68,-1279.13 1714.51,-1272.49 1698,-1268.81 1419.44,-1206.72 1339.03,-1219.19 1056,-1255.81 1006.87,-1262.17 979.08,-1236.93 946,-1273.81 924.94,-1297.29 913.993,-1774.2 911.538,-1895.79"/>
<polygon fill="green" stroke="green" points="908.038,-1895.74 911.338,-1905.81 915.037,-1895.88 908.038,-1895.74"/>
<text text-anchor="middle" x="1322" y="-1234.61" font-family="Times,serif" font-size="14.00">Learn_Assert</text>
</g>
<!-- q11&#45;&gt;q10 -->
<g id="edge95" class="edge"><title>q11&#45;&gt;q10</title>
<path fill="none" stroke="green" d="M1780.3,-1289.58C1854.52,-1285.11 2151.36,-1275.31 2354,-1386.81 2374.22,-1397.94 2391.17,-1418.14 2402.38,-1434.16"/>
<polygon fill="green" stroke="green" points="2399.53,-1436.19 2408,-1442.54 2405.34,-1432.29 2399.53,-1436.19"/>
<text text-anchor="middle" x="2092" y="-1316.61" font-family="Times,serif" font-size="14.00">check_seq_next</text>
</g>
<!-- q15 -->
<g id="node17" class="node"><title>q15</title>
<ellipse fill="none" stroke="black" cx="1982" cy="-463.81" rx="18" ry="18"/>
<text text-anchor="middle" x="1982" y="-460.11" font-family="Times,serif" font-size="14.00">D</text>
</g>
<!-- q11&#45;&gt;q15 -->
<g id="edge90" class="edge"><title>q11&#45;&gt;q15</title>
<path fill="none" stroke="green" d="M1767.55,-1273.54C1795.15,-1168.85 1939.94,-619.571 1973.88,-490.829"/>
<polygon fill="green" stroke="green" points="1977.31,-491.549 1976.47,-480.988 1970.54,-489.765 1977.31,-491.549"/>
<text text-anchor="middle" x="1872" y="-1050.61" font-family="Times,serif" font-size="14.00">chain_node</text>
</g>
<!-- q12 -->
<g id="node14" class="node"><title>q12</title>
<ellipse fill="none" stroke="green" cx="1542" cy="-1066.81" rx="18" ry="18"/>
<text text-anchor="middle" x="1542" y="-1063.11" font-family="Times,serif" font-size="14.00">D</text>
</g>
<!-- q12&#45;&gt;q0 -->
<g id="edge99" class="edge"><title>q12&#45;&gt;q0</title>
<path fill="none" stroke="green" d="M1528.74,-1079.9C1516.87,-1091.8 1497.81,-1108.95 1478,-1118.81 1395.38,-1159.91 1360.61,-1129.97 1276,-1166.81 1267.18,-1170.65 1266.96,-1175.33 1258,-1178.81 1127.21,-1229.59 1039.99,-1122.65 946,-1226.81 923.25,-1252.02 913.502,-1767.74 911.433,-1895.41"/>
<polygon fill="green" stroke="green" points="907.931,-1895.51 911.271,-1905.56 914.93,-1895.62 907.931,-1895.51"/>
<text text-anchor="middle" x="1212" y="-1197.61" font-family="Times,serif" font-size="14.00">create_sll</text>
</g>
<!-- q12&#45;&gt;q0 -->
<g id="edge100" class="edge"><title>q12&#45;&gt;q0</title>
<path fill="none" stroke="green" d="M1524.59,-1071.93C1481.39,-1085.24 1360.76,-1121.21 1258,-1140.81 1189.39,-1153.9 993.521,-1127.62 946,-1178.81 921.177,-1205.55 912.932,-1762.81 911.316,-1895.59"/>
<polygon fill="green" stroke="green" points="907.815,-1895.72 911.196,-1905.76 914.814,-1895.8 907.815,-1895.72"/>
<text text-anchor="middle" x="1212" y="-1149.61" font-family="Times,serif" font-size="14.00">init_back_link</text>
</g>
<!-- q12&#45;&gt;q0 -->
<g id="edge101" class="edge"><title>q12&#45;&gt;q0</title>
<path fill="none" stroke="green" d="M1523.76,-1068.29C1495.11,-1070.83 1435.9,-1076.34 1386,-1082.81 1328.9,-1090.21 1314.98,-1094.52 1258,-1102.81 1188.77,-1112.88 993.221,-1093.19 946,-1144.81 920.171,-1173.04 912.664,-1759.2 911.263,-1895.61"/>
<polygon fill="green" stroke="green" points="907.763,-1895.65 911.163,-1905.69 914.763,-1895.72 907.763,-1895.65"/>
<text text-anchor="middle" x="1212" y="-1110.61" font-family="Times,serif" font-size="14.00">reverse_dll</text>
</g>
<!-- q12&#45;&gt;q0 -->
<g id="edge102" class="edge"><title>q12&#45;&gt;q0</title>
<path fill="none" stroke="green" d="M1523.89,-1066.67C1430.64,-1066.05 986.424,-1065.44 946,-1108.81 918.646,-1138.16 912.294,-1754.17 911.196,-1895.22"/>
<polygon fill="green" stroke="green" points="907.694,-1895.58 911.118,-1905.61 914.693,-1895.64 907.694,-1895.58"/>
<text text-anchor="middle" x="1212" y="-1077.61" font-family="Times,serif" font-size="14.00">remove_fw_link</text>
</g>
<!-- q12&#45;&gt;q0 -->
<g id="edge104" class="edge"><title>q12&#45;&gt;q0</title>
<path fill="none" stroke="green" d="M1524.06,-1064.16C1435.35,-1050.69 1025.48,-993.872 946,-1080.81 917.915,-1111.53 912.11,-1752.43 911.162,-1895.61"/>
<polygon fill="green" stroke="green" points="907.661,-1895.75 911.097,-1905.77 914.661,-1895.79 907.661,-1895.75"/>
<text text-anchor="middle" x="1212" y="-1040.61" font-family="Times,serif" font-size="14.00">check_seq_prev</text>
</g>
<!-- q12&#45;&gt;q0 -->
<g id="edge105" class="edge"><title>q12&#45;&gt;q0</title>
<path fill="none" stroke="green" d="M1525.28,-1059.62C1512.74,-1054.18 1494.58,-1046.96 1478,-1042.81 1363.31,-1014.1 1026.66,-952.372 946,-1038.81 916.096,-1070.86 911.696,-1748.07 911.091,-1895.6"/>
<polygon fill="green" stroke="green" points="907.591,-1895.65 911.053,-1905.66 914.591,-1895.67 907.591,-1895.65"/>
<text text-anchor="middle" x="1212" y="-1007.61" font-family="Times,serif" font-size="14.00">Learn_Assert</text>
</g>
<!-- q12&#45;&gt;q10 -->
<g id="edge103" class="edge"><title>q12&#45;&gt;q10</title>
<path fill="none" stroke="green" d="M1559.93,-1068.77C1596.55,-1072.84 1685.89,-1081.81 1761,-1081.81 1761,-1081.81 1761,-1081.81 2203,-1081.81 2363.07,-1081.81 2404.94,-1342.38 2414.47,-1429.69"/>
<polygon fill="green" stroke="green" points="2410.99,-1430.09 2415.5,-1439.67 2417.96,-1429.37 2410.99,-1430.09"/>
<text text-anchor="middle" x="1982" y="-1085.61" font-family="Times,serif" font-size="14.00">check_seq_next</text>
</g>
<!-- q12&#45;&gt;q11 -->
<g id="edge98" class="edge"><title>q12&#45;&gt;q11</title>
<path fill="none" stroke="green" d="M1558.45,-1074.62C1593.32,-1092.46 1676.75,-1136.5 1698,-1159.81 1725.87,-1190.37 1743.87,-1235.48 1753.22,-1264"/>
<polygon fill="green" stroke="green" points="1749.93,-1265.21 1756.28,-1273.69 1756.61,-1263.1 1749.93,-1265.21"/>
<text text-anchor="middle" x="1652" y="-1163.61" font-family="Times,serif" font-size="14.00">chain_node</text>
</g>
<!-- q13 -->
<g id="node15" class="node"><title>q13</title>
<ellipse fill="none" stroke="green" cx="1322" cy="-816.81" rx="18" ry="18"/>
<text text-anchor="middle" x="1322" y="-813.11" font-family="Times,serif" font-size="14.00">D</text>
</g>
<!-- q13&#45;&gt;q0 -->
<g id="edge107" class="edge"><title>q13&#45;&gt;q0</title>
<path fill="none" stroke="green" d="M1316.63,-834.033C1309.17,-859.762 1291.43,-907.872 1258,-932.81 1201.19,-975.18 991.658,-944.61 946,-998.81 916.423,-1033.92 911.761,-1743.49 911.101,-1895.36"/>
<polygon fill="green" stroke="green" points="907.6,-1895.68 911.058,-1905.69 914.6,-1895.71 907.6,-1895.68"/>
<text text-anchor="middle" x="1102" y="-968.61" font-family="Times,serif" font-size="14.00">create_sll</text>
</g>
<!-- q13&#45;&gt;q0 -->
<g id="edge108" class="edge"><title>q13&#45;&gt;q0</title>
<path fill="none" stroke="green" d="M1310.82,-831.128C1299.54,-845.945 1280.02,-868.717 1258,-881.81 1250.27,-886.408 951.571,-961.745 946,-968.81 916.592,-1006.1 911.79,-1740.88 911.104,-1895.43"/>
<polygon fill="green" stroke="green" points="907.604,-1895.53 911.062,-1905.54 914.604,-1895.56 907.604,-1895.53"/>
<text text-anchor="middle" x="1102" y="-940.61" font-family="Times,serif" font-size="14.00">init_back_link</text>
</g>
<!-- q13&#45;&gt;q0 -->
<g id="edge109" class="edge"><title>q13&#45;&gt;q0</title>
<path fill="none" stroke="green" d="M1304.44,-821.01C1249.8,-834.951 1077.48,-879.613 1056,-893.81 1045.46,-900.774 1048.5,-908.778 1038,-915.81 1002.49,-939.598 972.054,-909.928 946,-943.81 916.261,-982.484 911.717,-1737.77 911.092,-1895.21"/>
<polygon fill="green" stroke="green" points="907.592,-1895.48 911.054,-1905.49 914.591,-1895.5 907.592,-1895.48"/>
<text text-anchor="middle" x="1102" y="-897.61" font-family="Times,serif" font-size="14.00">reverse_dll</text>
</g>
<!-- q13&#45;&gt;q0 -->
<g id="edge110" class="edge"><title>q13&#45;&gt;q0</title>
<path fill="none" stroke="green" d="M1303.77,-818.108C1275.13,-820.325 1215.94,-825.153 1166,-830.81 1116.97,-836.364 1094.89,-815.444 1056,-845.81 1039.02,-859.066 1053.87,-876.239 1038,-890.81 1006.52,-919.719 972.039,-884.916 946,-918.81 915.489,-958.525 911.554,-1734.68 911.067,-1894.99"/>
<polygon fill="green" stroke="green" points="907.565,-1895.44 911.037,-1905.45 914.565,-1895.46 907.565,-1895.44"/>
<text text-anchor="middle" x="1102" y="-849.61" font-family="Times,serif" font-size="14.00">remove_fw_link</text>
</g>
<!-- q13&#45;&gt;q0 -->
<g id="edge111" class="edge"><title>q13&#45;&gt;q0</title>
<path fill="none" stroke="green" d="M1303.82,-816.016C1272.73,-814.625 1205.09,-811.799 1148,-810.81 1107.12,-810.101 1089.11,-786.811 1056,-810.81 1035.18,-825.905 1056.38,-847.813 1038,-865.81 1007.46,-895.715 972.024,-859.905 946,-893.81 914.683,-934.609 911.387,-1733.27 911.041,-1895.29"/>
<polygon fill="green" stroke="green" points="907.54,-1895.42 911.021,-1905.43 914.54,-1895.44 907.54,-1895.42"/>
<text text-anchor="middle" x="1102" y="-814.61" font-family="Times,serif" font-size="14.00">check_seq_next</text>
</g>
<!-- q13&#45;&gt;q0 -->
<g id="edge112" class="edge"><title>q13&#45;&gt;q0</title>
<path fill="none" stroke="green" d="M1304.47,-812.314C1273.88,-804.254 1206.24,-787.642 1148,-781.81 1107.31,-777.735 1088.86,-757.478 1056,-781.81 1033.97,-798.123 1057.39,-821.43 1038,-840.81 1007.77,-871.022 972.011,-834.895 946,-868.81 913.907,-910.655 911.23,-1730.39 911.017,-1895.12"/>
<polygon fill="green" stroke="green" points="907.517,-1895.42 911.006,-1905.42 914.517,-1895.42 907.517,-1895.42"/>
<text text-anchor="middle" x="1102" y="-785.61" font-family="Times,serif" font-size="14.00">check_seq_prev</text>
</g>
<!-- q13&#45;&gt;q0 -->
<g id="edge113" class="edge"><title>q13&#45;&gt;q0</title>
<path fill="none" stroke="green" d="M1306.54,-807.086C1294.11,-799.096 1275.49,-787.967 1258,-780.81 1211.21,-761.66 1198.14,-758.308 1148,-751.81 1107.45,-746.554 1088.59,-727.119 1056,-751.81 1032.45,-769.652 1058.67,-794.695 1038,-815.81 1008.1,-846.352 971.998,-809.885 946,-843.81 913.129,-886.704 911.076,-1727.59 910.994,-1894.98"/>
<polygon fill="green" stroke="green" points="907.494,-1895.43 910.991,-1905.43 914.494,-1895.43 907.494,-1895.43"/>
<text text-anchor="middle" x="1102" y="-755.61" font-family="Times,serif" font-size="14.00">Learn_Assert</text>
</g>
<!-- q13&#45;&gt;q12 -->
<g id="edge106" class="edge"><title>q13&#45;&gt;q12</title>
<path fill="none" stroke="green" d="M1338.76,-823.994C1369.41,-838.679 1437.58,-874.917 1478,-923.81 1506.76,-958.599 1524.75,-1008.57 1533.82,-1039.3"/>
<polygon fill="green" stroke="green" points="1530.56,-1040.64 1536.66,-1049.3 1537.29,-1038.73 1530.56,-1040.64"/>
<text text-anchor="middle" x="1432" y="-927.61" font-family="Times,serif" font-size="14.00">chain_node</text>
</g>
<!-- q14&#45;&gt;q0 -->
<g id="edge115" class="edge"><title>q14&#45;&gt;q0</title>
<path fill="none" stroke="green" d="M1085.22,-617.063C1075.27,-622.469 1063,-630.813 1056,-641.81 1032.21,-679.16 1068.97,-708.153 1038,-739.81 1008.8,-769.656 972.852,-726.838 946,-758.81 908.296,-803.702 910.175,-1722.29 910.868,-1895.7"/>
<polygon fill="green" stroke="green" points="907.369,-1895.83 910.911,-1905.82 914.368,-1895.8 907.369,-1895.83"/>
<text text-anchor="middle" x="992" y="-762.61" font-family="Times,serif" font-size="14.00">create_sll</text>
</g>
<!-- q14&#45;&gt;q0 -->
<g id="edge116" class="edge"><title>q14&#45;&gt;q0</title>
<path fill="none" stroke="green" d="M1085.61,-617.327C1075.82,-622.845 1063.6,-631.214 1056,-641.81 1039.78,-664.435 1058.53,-683.006 1038,-701.81 1007.21,-730.008 972.837,-688.825 946,-720.81 907.029,-767.255 909.956,-1718.67 910.84,-1895.62"/>
<polygon fill="green" stroke="green" points="907.34,-1895.72 910.892,-1905.7 914.34,-1895.68 907.34,-1895.72"/>
<text text-anchor="middle" x="992" y="-724.61" font-family="Times,serif" font-size="14.00">init_back_link</text>
</g>
<!-- q14&#45;&gt;q0 -->
<g id="edge117" class="edge"><title>q14&#45;&gt;q0</title>
<path fill="none" stroke="green" d="M1086.06,-618.978C1076.92,-624.931 1065.24,-633.169 1056,-641.81 1046.77,-650.436 1048.81,-657.267 1038,-663.81 1002.28,-685.432 972.823,-650.813 946,-682.81 905.758,-730.814 909.743,-1715.24 910.813,-1895.57"/>
<polygon fill="green" stroke="green" points="907.313,-1895.62 910.875,-1905.6 914.313,-1895.58 907.313,-1895.62"/>
<text text-anchor="middle" x="992" y="-686.61" font-family="Times,serif" font-size="14.00">reverse_dll</text>
</g>
<!-- q14&#45;&gt;q0 -->
<g id="edge118" class="edge"><title>q14&#45;&gt;q0</title>
<path fill="none" stroke="green" d="M1084.47,-614.225C1071.79,-617.558 1053.84,-622.165 1038,-625.81 997.312,-635.173 972.809,-612.802 946,-644.81 925.22,-669.619 913.263,-1709.72 911.291,-1895.55"/>
<polygon fill="green" stroke="green" points="907.791,-1895.59 911.185,-1905.62 914.79,-1895.66 907.791,-1895.59"/>
<text text-anchor="middle" x="992" y="-648.61" font-family="Times,serif" font-size="14.00">remove_fw_link</text>
</g>
<!-- q14&#45;&gt;q0 -->
<g id="edge119" class="edge"><title>q14&#45;&gt;q0</title>
<path fill="none" stroke="green" d="M1084.22,-606.651C1048.2,-600.302 965.186,-588.126 946,-606.81 922.089,-630.094 912.681,-1706.28 911.21,-1895.54"/>
<polygon fill="green" stroke="green" points="907.71,-1895.52 911.133,-1905.54 914.71,-1895.57 907.71,-1895.52"/>
<text text-anchor="middle" x="992" y="-610.61" font-family="Times,serif" font-size="14.00">check_seq_next</text>
</g>
<!-- q14&#45;&gt;q0 -->
<g id="edge120" class="edge"><title>q14&#45;&gt;q0</title>
<path fill="none" stroke="green" d="M1086.73,-599.918C1056.36,-580.172 984.918,-540.891 946,-578.81 921.562,-602.62 912.574,-1703.96 911.194,-1895.54"/>
<polygon fill="green" stroke="green" points="907.693,-1895.63 911.122,-1905.66 914.693,-1895.68 907.693,-1895.63"/>
<text text-anchor="middle" x="992" y="-582.61" font-family="Times,serif" font-size="14.00">check_seq_prev</text>
</g>
<!-- q14&#45;&gt;q0 -->
<g id="edge121" class="edge"><title>q14&#45;&gt;q0</title>
<path fill="none" stroke="green" d="M1091.83,-594.841C1081.15,-578.999 1061.88,-554.92 1038,-544.81 1000.35,-528.867 975.277,-516.266 946,-544.81 920.926,-569.255 912.45,-1700.78 911.176,-1895.44"/>
<polygon fill="green" stroke="green" points="907.675,-1895.69 911.11,-1905.71 914.674,-1895.73 907.675,-1895.69"/>
<text text-anchor="middle" x="992" y="-548.61" font-family="Times,serif" font-size="14.00">Learn_Assert</text>
</g>
<!-- q14&#45;&gt;q13 -->
<g id="edge114" class="edge"><title>q14&#45;&gt;q13</title>
<path fill="none" stroke="green" d="M1120.19,-607.349C1151.48,-603.887 1218.14,-601.321 1258,-634.81 1304.18,-673.606 1316.56,-748.089 1319.84,-788.706"/>
<polygon fill="green" stroke="green" points="1316.36,-788.994 1320.52,-798.734 1323.34,-788.52 1316.36,-788.994"/>
<text text-anchor="middle" x="1212" y="-638.61" font-family="Times,serif" font-size="14.00">chain_node</text>
</g>
<!-- q15&#45;&gt;q0 -->
<g id="edge123" class="edge"><title>q15&#45;&gt;q0</title>
<path fill="none" stroke="green" d="M1969.36,-476.803C1957.65,-488.978 1938.44,-506.635 1918,-515.81 1854.4,-544.351 1832.71,-539.81 1763,-539.81 1211,-539.81 1211,-539.81 1211,-539.81 1133.78,-539.81 1115.13,-527.369 1038,-523.81 997.155,-521.925 975.272,-495.26 946,-523.81 920.523,-548.658 912.368,-1699.73 911.164,-1895.62"/>
<polygon fill="green" stroke="green" points="907.664,-1895.67 911.103,-1905.69 914.664,-1895.71 907.664,-1895.67"/>
<text text-anchor="middle" x="1432" y="-543.61" font-family="Times,serif" font-size="14.00">create_sll</text>
</g>
<!-- q15&#45;&gt;q0 -->
<g id="edge124" class="edge"><title>q15&#45;&gt;q0</title>
<path fill="none" stroke="green" d="M1964.49,-468.7C1928.33,-478.963 1839.26,-501.81 1763,-501.81 1211,-501.81 1211,-501.81 1211,-501.81 1152.1,-501.81 987.769,-465.283 946,-506.81 920.443,-532.218 912.348,-1698.27 911.161,-1895.59"/>
<polygon fill="green" stroke="green" points="907.66,-1895.71 911.101,-1905.73 914.66,-1895.75 907.66,-1895.71"/>
<text text-anchor="middle" x="1432" y="-505.61" font-family="Times,serif" font-size="14.00">init_back_link</text>
</g>
<!-- q15&#45;&gt;q0 -->
<g id="edge125" class="edge"><title>q15&#45;&gt;q0</title>
<path fill="none" stroke="green" d="M1963.76,-463.81C1926.91,-463.81 1837.75,-463.81 1763,-463.81 1211,-463.81 1211,-463.81 1211,-463.81 1092.89,-463.81 1027.36,-398.188 946,-483.81 920.759,-510.372 912.395,-1695.98 911.166,-1895.46"/>
<polygon fill="green" stroke="green" points="907.665,-1895.68 911.104,-1905.7 914.664,-1895.72 907.665,-1895.68"/>
<text text-anchor="middle" x="1432" y="-467.61" font-family="Times,serif" font-size="14.00">reverse_dll</text>
</g>
<!-- q15&#45;&gt;q0 -->
<g id="edge126" class="edge"><title>q15&#45;&gt;q0</title>
<path fill="none" stroke="green" d="M1964.49,-458.919C1928.33,-448.656 1839.26,-425.81 1763,-425.81 1101,-425.81 1101,-425.81 1101,-425.81 1031.83,-425.81 993.257,-389.301 946,-439.81 920.161,-467.426 912.277,-1692.82 911.149,-1895.54"/>
<polygon fill="green" stroke="green" points="907.648,-1895.66 911.093,-1905.68 914.648,-1895.7 907.648,-1895.66"/>
<text text-anchor="middle" x="1432" y="-429.61" font-family="Times,serif" font-size="14.00">remove_fw_link</text>
</g>
<!-- q15&#45;&gt;q0 -->
<g id="edge128" class="edge"><title>q15&#45;&gt;q0</title>
<path fill="none" stroke="green" d="M1966.6,-453.741C1954.21,-445.485 1935.61,-434.021 1918,-426.81 1852.26,-399.884 1834.04,-387.81 1763,-387.81 1101,-387.81 1101,-387.81 1101,-387.81 1031.42,-387.81 992.216,-357.797 946,-409.81 920.358,-438.667 912.303,-1689.57 911.151,-1895.31"/>
<polygon fill="green" stroke="green" points="907.65,-1895.57 911.095,-1905.59 914.65,-1895.61 907.65,-1895.57"/>
<text text-anchor="middle" x="1432" y="-391.61" font-family="Times,serif" font-size="14.00">check_seq_prev</text>
</g>
<!-- q15&#45;&gt;q0 -->
<g id="edge129" class="edge"><title>q15&#45;&gt;q0</title>
<path fill="none" stroke="green" d="M1972.11,-448.615C1961.42,-431.691 1941.89,-404.754 1918,-389.81 1857.68,-352.076 1834.15,-349.81 1763,-349.81 1101,-349.81 1101,-349.81 1101,-349.81 1031.15,-349.81 991.722,-323.001 946,-375.81 920.124,-405.696 912.247,-1688.31 911.142,-1895.64"/>
<polygon fill="green" stroke="green" points="907.642,-1895.71 911.089,-1905.73 914.642,-1895.74 907.642,-1895.71"/>
<text text-anchor="middle" x="1432" y="-353.61" font-family="Times,serif" font-size="14.00">Learn_Assert</text>
</g>
<!-- q15&#45;&gt;q10 -->
<g id="edge127" class="edge"><title>q15&#45;&gt;q10</title>
<path fill="none" stroke="green" d="M1994.1,-477.229C2045.02,-539.566 2257.84,-808.807 2354,-1067.81 2401.95,-1196.97 2413.44,-1363.56 2416.16,-1429.32"/>
<polygon fill="green" stroke="green" points="2412.68,-1429.83 2416.56,-1439.69 2419.68,-1429.57 2412.68,-1429.83"/>
<text text-anchor="middle" x="2202" y="-848.61" font-family="Times,serif" font-size="14.00">check_seq_next</text>
</g>
<!-- q16 -->
<g id="node18" class="node"><title>q16</title>
<ellipse fill="none" stroke="black" cx="2202" cy="-204.81" rx="18" ry="18"/>
<text text-anchor="middle" x="2202" y="-201.11" font-family="Times,serif" font-size="14.00">D</text>
</g>
<!-- q15&#45;&gt;q16 -->
<g id="edge122" class="edge"><title>q15&#45;&gt;q16</title>
<path fill="none" stroke="green" d="M1996.84,-453.592C2025.79,-431.723 2093.69,-377.719 2138,-320.81 2160.15,-292.362 2178.87,-255.07 2190.01,-230.547"/>
<polygon fill="green" stroke="green" points="2193.3,-231.754 2194.17,-221.195 2186.91,-228.908 2193.3,-231.754"/>
<text text-anchor="middle" x="2092" y="-417.61" font-family="Times,serif" font-size="14.00">chain_node</text>
</g>
<!-- q16&#45;&gt;q0 -->
<g id="edge130" class="edge"><title>q16&#45;&gt;q0</title>
<path fill="none" stroke="green" d="M2190.91,-219.293C2179.71,-234.248 2160.26,-257.133 2138,-269.81 2076.46,-304.858 2053.82,-306.81 1983,-306.81 1101,-306.81 1101,-306.81 1101,-306.81 1030.57,-306.81 990.918,-285.558 946,-339.81 920.19,-370.983 912.252,-1684.3 911.142,-1895.33"/>
<polygon fill="green" stroke="green" points="907.641,-1895.57 911.089,-1905.59 914.641,-1895.6 907.641,-1895.57"/>
<text text-anchor="middle" x="1542" y="-310.61" font-family="Times,serif" font-size="14.00">chain_node</text>
</g>
<!-- q16&#45;&gt;q0 -->
<g id="edge131" class="edge"><title>q16&#45;&gt;q0</title>
<path fill="none" stroke="green" d="M2184.89,-211.269C2149.17,-224.992 2060.35,-255.81 1983,-255.81 1101,-255.81 1101,-255.81 1101,-255.81 1029.51,-255.81 989.881,-242.37 946,-298.81 920.477,-331.637 912.279,-1682.38 911.143,-1895.6"/>
<polygon fill="green" stroke="green" points="907.643,-1895.66 911.09,-1905.68 914.643,-1895.7 907.643,-1895.66"/>
<text text-anchor="middle" x="1542" y="-259.61" font-family="Times,serif" font-size="14.00">create_sll</text>
</g>
<!-- q16&#45;&gt;q0 -->
<g id="edge132" class="edge"><title>q16&#45;&gt;q0</title>
<path fill="none" stroke="green" d="M2183.76,-204.81C2146.91,-204.81 2057.75,-204.81 1983,-204.81 1101,-204.81 1101,-204.81 1101,-204.81 1029.14,-204.81 989.58,-193.674 946,-250.81 920.01,-284.884 912.193,-1678.19 911.131,-1895.45"/>
<polygon fill="green" stroke="green" points="907.63,-1895.69 911.082,-1905.71 914.63,-1895.72 907.63,-1895.69"/>
<text text-anchor="middle" x="1542" y="-208.61" font-family="Times,serif" font-size="14.00">init_back_link</text>
</g>
<!-- q16&#45;&gt;q0 -->
<g id="edge133" class="edge"><title>q16&#45;&gt;q0</title>
<path fill="none" stroke="green" d="M2184.89,-198.35C2149.17,-184.627 2060.35,-153.81 1983,-153.81 1101,-153.81 1101,-153.81 1101,-153.81 1029.01,-153.81 989.47,-143.43 946,-200.81 919.307,-236.043 912.068,-1675.28 911.115,-1895.63"/>
<polygon fill="green" stroke="green" points="907.615,-1895.72 911.072,-1905.74 914.614,-1895.75 907.615,-1895.72"/>
<text text-anchor="middle" x="1542" y="-157.61" font-family="Times,serif" font-size="14.00">reverse_dll</text>
</g>
<!-- q16&#45;&gt;q0 -->
<g id="edge134" class="edge"><title>q16&#45;&gt;q0</title>
<path fill="none" stroke="green" d="M2187.85,-192.796C2175.66,-182.168 2156.65,-166.834 2138,-156.81 2073.74,-122.274 2055.95,-102.81 1983,-102.81 1101,-102.81 1101,-102.81 1101,-102.81 1029.01,-102.81 989.454,-92.4178 946,-149.81 918.499,-186.131 911.934,-1671.01 911.098,-1895.5"/>
<polygon fill="green" stroke="green" points="907.598,-1895.77 911.061,-1905.78 914.598,-1895.79 907.598,-1895.77"/>
<text text-anchor="middle" x="1542" y="-106.61" font-family="Times,serif" font-size="14.00">remove_fw_link</text>
</g>
<!-- q16&#45;&gt;q0 -->
<g id="edge136" class="edge"><title>q16&#45;&gt;q0</title>
<path fill="none" stroke="green" d="M2194.34,-188.382C2184.86,-166.96 2165.53,-129.652 2138,-107.81 2080.62,-62.2816 2056.25,-51.8095 1983,-51.8095 1101,-51.8095 1101,-51.8095 1101,-51.8095 1029.01,-51.8095 989.438,-41.4058 946,-98.8095 917.691,-136.221 911.804,-1666.85 911.083,-1895.39"/>
<polygon fill="green" stroke="green" points="907.582,-1895.55 911.051,-1905.56 914.582,-1895.57 907.582,-1895.55"/>
<text text-anchor="middle" x="1542" y="-55.6095" font-family="Times,serif" font-size="14.00">check_seq_prev</text>
</g>
<!-- q16&#45;&gt;q0 -->
<g id="edge137" class="edge"><title>q16&#45;&gt;q0</title>
<path fill="none" stroke="green" d="M2198.37,-186.734C2192.85,-155.32 2177.19,-90.5024 2138,-53.8095 2084.85,-4.04973 2055.8,-0.809539 1983,-0.809539 1101,-0.809539 1101,-0.809539 1101,-0.809539 1029.01,-0.809539 989.423,9.6055 946,-47.8095 916.88,-86.3134 911.677,-1662.94 911.068,-1895.32"/>
<polygon fill="green" stroke="green" points="907.567,-1895.64 911.042,-1905.65 914.567,-1895.65 907.567,-1895.64"/>
<text text-anchor="middle" x="1542" y="-4.60954" font-family="Times,serif" font-size="14.00">Learn_Assert</text>
</g>
<!-- q16&#45;&gt;q10 -->
<g id="edge135" class="edge"><title>q16&#45;&gt;q10</title>
<path fill="none" stroke="green" d="M2209.19,-221.506C2232.61,-285.431 2316.35,-521.149 2354,-722.81 2404.81,-994.932 2414.73,-1331.51 2416.59,-1429.7"/>
<polygon fill="green" stroke="green" points="2413.09,-1429.79 2416.77,-1439.72 2420.09,-1429.66 2413.09,-1429.79"/>
<text text-anchor="middle" x="2310" y="-726.61" font-family="Times,serif" font-size="14.00">check_seq_next</text>
</g>
<!-- iq0 -->
<g id="node19" class="node"><title>iq0</title>
</g>
<!-- iq0&#45;&gt;q0 -->
<g id="edge1" class="edge"><title>iq0&#45;&gt;q0</title>
<path fill="none" stroke="blue" d="M409.12,-1794.79C499.751,-1791.74 799.212,-1786.1 874,-1840.81 891.679,-1853.74 900.489,-1877.37 904.844,-1896.12"/>
<polygon fill="blue" stroke="blue" points="901.417,-1896.82 906.833,-1905.93 908.277,-1895.43 901.417,-1896.82"/>
</g>
</g>
</svg>
