<?xml version="1.0" encoding="UTF-8" standalone="no"?>
<!DOCTYPE svg PUBLIC "-//W3C//DTD SVG 1.1//EN"
 "http://www.w3.org/Graphics/SVG/1.1/DTD/svg11.dtd">
<!-- Generated by graphviz version 2.34.0 (20141125.1709)
 -->
<!-- Title: finite_automaton Pages: 1 -->
<svg width="491pt" height="576pt"
 viewBox="0.00 0.00 491.30 576.00" xmlns="http://www.w3.org/2000/svg" xmlns:xlink="http://www.w3.org/1999/xlink">
<g id="graph0" class="graph" transform="scale(0.13762 0.13762) rotate(0) translate(4 4181.45)">
<title>finite_automaton</title>
<polygon fill="white" stroke="white" points="-4,4 -4,-4181.45 3566,-4181.45 3566,4 -4,4"/>
<!-- dom_edges -->
<g id="node1" class="node"><title>dom_edges</title>
<polygon fill="none" stroke="green" points="764,-1843.45 0,-1843.45 0,-1807.45 764,-1807.45 764,-1843.45"/>
<text text-anchor="middle" x="382" y="-1821.75" font-family="Times,serif" font-size="14.00">Dominating edges: chain_node, create_sll, init_back_link, reverse_dll, remove_fw_link, check_seq_next, check_seq_prev, Learn_Assert</text>
</g>
<!-- q1 -->
<g id="node2" class="node"><title>q1</title>
<ellipse fill="none" stroke="green" cx="382" cy="-2064.45" rx="18" ry="18"/>
<ellipse fill="none" stroke="green" cx="382" cy="-2064.45" rx="22" ry="22"/>
<text text-anchor="middle" x="382" y="-2060.75" font-family="Times,serif" font-size="14.00">D</text>
</g>
<!-- q0 -->
<g id="node3" class="node"><title>q0</title>
<ellipse fill="none" stroke="green" cx="910" cy="-2007.45" rx="18" ry="18"/>
<text text-anchor="middle" x="910" y="-2003.75" font-family="Times,serif" font-size="14.00">D</text>
</g>
<!-- q1&#45;&gt;q0 -->
<g id="edge10" class="edge"><title>q1&#45;&gt;q0</title>
<path fill="none" stroke="green" d="M400.526,-2076.42C469.324,-2121.83 724.453,-2274.94 874,-2156.45 892.657,-2141.66 902.342,-2074.6 906.475,-2035.67"/>
<polygon fill="green" stroke="green" points="909.98,-2035.8 907.497,-2025.5 903.015,-2035.1 909.98,-2035.8"/>
<text text-anchor="middle" x="828" y="-2197.25" font-family="Times,serif" font-size="14.00">chain_node</text>
</g>
<!-- q1&#45;&gt;q0 -->
<g id="edge11" class="edge"><title>q1&#45;&gt;q0</title>
<path fill="none" stroke="green" d="M403.748,-2068.37C492.258,-2084.9 835.487,-2146.68 874,-2118.45 899.636,-2099.65 906.982,-2062.03 908.835,-2035.83"/>
<polygon fill="green" stroke="green" points="912.337,-2035.88 909.322,-2025.73 905.345,-2035.55 912.337,-2035.88"/>
<text text-anchor="middle" x="828" y="-2129.25" font-family="Times,serif" font-size="14.00">create_sll</text>
</g>
<!-- q1&#45;&gt;q0 -->
<g id="edge12" class="edge"><title>q1&#45;&gt;q0</title>
<path fill="none" stroke="green" d="M403.961,-2066.5C492.588,-2074.97 833.852,-2105.72 874,-2080.45 889.709,-2070.56 898.525,-2051.44 903.379,-2035.25"/>
<polygon fill="green" stroke="green" points="906.874,-2035.72 906.029,-2025.16 900.103,-2033.95 906.874,-2035.72"/>
<text text-anchor="middle" x="828" y="-2093.25" font-family="Times,serif" font-size="14.00">init_back_link</text>
</g>
<!-- q1&#45;&gt;q0 -->
<g id="edge13" class="edge"><title>q1&#45;&gt;q0</title>
<path fill="none" stroke="green" d="M404.089,-2064.4C492.49,-2064.07 830.615,-2061.57 874,-2042.45 880.657,-2039.51 886.739,-2034.69 891.897,-2029.55"/>
<polygon fill="green" stroke="green" points="894.638,-2031.74 898.755,-2021.98 889.449,-2027.04 894.638,-2031.74"/>
<text text-anchor="middle" x="828" y="-2057.25" font-family="Times,serif" font-size="14.00">reverse_dll</text>
</g>
<!-- q1&#45;&gt;q0 -->
<g id="edge14" class="edge"><title>q1&#45;&gt;q0</title>
<path fill="none" stroke="green" d="M403.944,-2062.18C486.469,-2053.23 789.155,-2020.43 881.843,-2010.39"/>
<polygon fill="green" stroke="green" points="882.274,-2013.86 891.838,-2009.31 881.519,-2006.9 882.274,-2013.86"/>
<text text-anchor="middle" x="828" y="-2023.25" font-family="Times,serif" font-size="14.00">remove_fw_link</text>
</g>
<!-- q1&#45;&gt;q0 -->
<g id="edge15" class="edge"><title>q1&#45;&gt;q0</title>
<path fill="none" stroke="green" d="M403.587,-2059.31C462.238,-2044.99 635.423,-2004.74 782,-1991.45 822.722,-1987.75 834.047,-1982.75 874,-1991.45 877.501,-1992.21 881.071,-1993.35 884.527,-1994.69"/>
<polygon fill="green" stroke="green" points="883.254,-1997.95 893.816,-1998.79 886.08,-1991.55 883.254,-1997.95"/>
<text text-anchor="middle" x="828" y="-1995.25" font-family="Times,serif" font-size="14.00">check_seq_next</text>
</g>
<!-- q1&#45;&gt;q0 -->
<g id="edge16" class="edge"><title>q1&#45;&gt;q0</title>
<path fill="none" stroke="green" d="M403.033,-2057.77C460.914,-2038.86 633.711,-1985.21 782,-1967.45 822.599,-1962.58 836.765,-1950.55 874,-1967.45 881.799,-1970.99 888.543,-1977.22 893.973,-1983.72"/>
<polygon fill="green" stroke="green" points="891.327,-1986.03 900.127,-1991.93 896.927,-1981.83 891.327,-1986.03"/>
<text text-anchor="middle" x="828" y="-1971.25" font-family="Times,serif" font-size="14.00">check_seq_prev</text>
</g>
<!-- q1&#45;&gt;q0 -->
<g id="edge17" class="edge"><title>q1&#45;&gt;q0</title>
<path fill="none" stroke="green" d="M402.423,-2056.02C459.355,-2031.84 631.313,-1962.5 782,-1939.45 822.419,-1933.26 839.093,-1918.15 874,-1939.45 888.552,-1948.32 897.31,-1965.4 902.427,-1980.21"/>
<polygon fill="green" stroke="green" points="899.143,-1981.44 905.413,-1989.98 905.837,-1979.4 899.143,-1981.44"/>
<text text-anchor="middle" x="828" y="-1943.25" font-family="Times,serif" font-size="14.00">Learn_Assert</text>
</g>
<!-- q0&#45;&gt;q0 -->
<g id="edge2" class="edge"><title>q0&#45;&gt;q0</title>
<path fill="none" stroke="green" d="M907.881,-2025.6C907.555,-2034.99 908.261,-2043.45 910,-2043.45 911.06,-2043.45 911.736,-2040.3 912.029,-2035.73"/>
<polygon fill="green" stroke="green" points="915.53,-2035.63 912.119,-2025.6 908.53,-2035.57 915.53,-2035.63"/>
<text text-anchor="middle" x="910" y="-2047.25" font-family="Times,serif" font-size="14.00">chain_node</text>
</g>
<!-- q0&#45;&gt;q0 -->
<g id="edge4" class="edge"><title>q0&#45;&gt;q0</title>
<path fill="none" stroke="green" d="M906.509,-2025.15C904.581,-2042.44 905.744,-2061.45 910,-2061.45 913.424,-2061.45 914.847,-2049.14 914.267,-2035.32"/>
<polygon fill="green" stroke="green" points="917.741,-2034.85 913.491,-2025.15 910.762,-2035.38 917.741,-2034.85"/>
<text text-anchor="middle" x="910" y="-2065.25" font-family="Times,serif" font-size="14.00">init_back_link</text>
</g>
<!-- q0&#45;&gt;q0 -->
<g id="edge5" class="edge"><title>q0&#45;&gt;q0</title>
<path fill="none" stroke="green" d="M905.613,-2025.16C901.605,-2049.56 903.068,-2079.45 910,-2079.45 916.012,-2079.45 917.91,-2056.97 915.694,-2035.09"/>
<polygon fill="green" stroke="green" points="919.163,-2034.62 914.387,-2025.16 912.222,-2035.53 919.163,-2034.62"/>
<text text-anchor="middle" x="910" y="-2083.25" font-family="Times,serif" font-size="14.00">reverse_dll</text>
</g>
<!-- q0&#45;&gt;q0 -->
<g id="edge6" class="edge"><title>q0&#45;&gt;q0</title>
<path fill="none" stroke="green" d="M904.998,-2025.12C898.632,-2056.3 900.299,-2097.45 910,-2097.45 918.678,-2097.45 920.927,-2064.52 916.748,-2035.26"/>
<polygon fill="green" stroke="green" points="920.149,-2034.38 915.002,-2025.12 913.25,-2035.57 920.149,-2034.38"/>
<text text-anchor="middle" x="910" y="-2101.25" font-family="Times,serif" font-size="14.00">remove_fw_link</text>
</g>
<!-- q0&#45;&gt;q0 -->
<g id="edge7" class="edge"><title>q0&#45;&gt;q0</title>
<path fill="none" stroke="green" d="M904.63,-2024.73C895.655,-2062.51 897.445,-2115.45 910,-2115.45 921.476,-2115.45 923.958,-2071.22 917.446,-2034.76"/>
<polygon fill="green" stroke="green" points="920.823,-2033.81 915.37,-2024.73 913.968,-2035.23 920.823,-2033.81"/>
<text text-anchor="middle" x="910" y="-2119.25" font-family="Times,serif" font-size="14.00">check_seq_next</text>
</g>
<!-- q0&#45;&gt;q0 -->
<g id="edge8" class="edge"><title>q0&#45;&gt;q0</title>
<path fill="none" stroke="green" d="M904.312,-2024.62C892.695,-2068.85 894.591,-2133.45 910,-2133.45 924.296,-2133.45 926.961,-2077.85 917.995,-2034.5"/>
<polygon fill="green" stroke="green" points="921.371,-2033.56 915.688,-2024.62 914.555,-2035.16 921.371,-2033.56"/>
<text text-anchor="middle" x="910" y="-2137.25" font-family="Times,serif" font-size="14.00">check_seq_prev</text>
</g>
<!-- q0&#45;&gt;q0 -->
<g id="edge9" class="edge"><title>q0&#45;&gt;q0</title>
<path fill="none" stroke="green" d="M904.009,-2024.73C889.745,-2075.3 891.742,-2151.45 910,-2151.45 927.117,-2151.45 929.942,-2084.52 918.475,-2034.49"/>
<polygon fill="green" stroke="green" points="921.85,-2033.56 915.991,-2024.73 915.066,-2035.29 921.85,-2033.56"/>
<text text-anchor="middle" x="910" y="-2155.25" font-family="Times,serif" font-size="14.00">Learn_Assert</text>
</g>
<!-- q15 -->
<g id="node17" class="node"><title>q15</title>
<ellipse fill="none" stroke="green" cx="1102" cy="-157.446" rx="18" ry="18"/>
<text text-anchor="middle" x="1102" y="-153.746" font-family="Times,serif" font-size="14.00">D</text>
</g>
<!-- q0&#45;&gt;q15 -->
<g id="edge3" class="edge"><title>q0&#45;&gt;q15</title>
<path fill="none" stroke="green" d="M911.06,-1989.24C911.698,-1806.44 917.787,-307.84 946,-272.446 972.272,-239.489 1004.97,-275.632 1038,-249.446 1051.71,-238.579 1046.54,-229.158 1056,-214.446 1064.07,-201.896 1074.3,-188.767 1082.96,-178.276"/>
<polygon fill="green" stroke="green" points="1085.75,-180.398 1089.51,-170.49 1080.39,-175.895 1085.75,-180.398"/>
<text text-anchor="middle" x="992" y="-276.246" font-family="Times,serif" font-size="14.00">create_sll</text>
</g>
<!-- q2 -->
<g id="node4" class="node"><title>q2</title>
<ellipse fill="none" stroke="green" cx="3544" cy="-3966.45" rx="18" ry="18"/>
<text text-anchor="middle" x="3544" y="-3962.75" font-family="Times,serif" font-size="14.00">D</text>
</g>
<!-- q2&#45;&gt;q1 -->
<g id="edge25" class="edge"><title>q2&#45;&gt;q1</title>
<path fill="none" stroke="green" d="M3543.8,-3984.78C3544.13,-4015.39 3540.39,-4077.18 3508,-4114.45 3469.51,-4158.74 3443.68,-4162.45 3385,-4162.45 909,-4162.45 909,-4162.45 909,-4162.45 463.624,-4162.45 392.001,-2361.09 383.887,-2096.69"/>
<polygon fill="green" stroke="green" points="387.382,-2096.48 383.585,-2086.59 380.385,-2096.69 387.382,-2096.48"/>
<text text-anchor="middle" x="2308" y="-4166.25" font-family="Times,serif" font-size="14.00">Learn_Assert</text>
</g>
<!-- q2&#45;&gt;q0 -->
<g id="edge18" class="edge"><title>q2&#45;&gt;q0</title>
<path fill="none" stroke="green" d="M3542.61,-3984.82C3541.06,-4010.24 3534.49,-4055.98 3508,-4082.45 3467.62,-4122.8 3442.09,-4119.45 3385,-4119.45 1101,-4119.45 1101,-4119.45 1101,-4119.45 1030.18,-4119.45 990.35,-4137.67 946,-4082.45 912.427,-4040.65 911.028,-2281.77 910.997,-2035.88"/>
<polygon fill="green" stroke="green" points="914.497,-2035.62 910.996,-2025.62 907.497,-2035.62 914.497,-2035.62"/>
<text text-anchor="middle" x="2418" y="-4123.25" font-family="Times,serif" font-size="14.00">chain_node</text>
</g>
<!-- q2&#45;&gt;q0 -->
<g id="edge19" class="edge"><title>q2&#45;&gt;q0</title>
<path fill="none" stroke="green" d="M3537.94,-3983.52C3532.73,-3998.25 3523.19,-4019.05 3508,-4031.45 3463.77,-4067.54 3442.09,-4068.45 3385,-4068.45 1101,-4068.45 1101,-4068.45 1101,-4068.45 1030.18,-4068.45 990.362,-4086.66 946,-4031.45 913.26,-3990.7 911.145,-2276.8 911.009,-2035.55"/>
<polygon fill="green" stroke="green" points="914.509,-2035.48 911.004,-2025.48 907.509,-2035.49 914.509,-2035.48"/>
<text text-anchor="middle" x="2418" y="-4072.25" font-family="Times,serif" font-size="14.00">create_sll</text>
</g>
<!-- q2&#45;&gt;q0 -->
<g id="edge20" class="edge"><title>q2&#45;&gt;q0</title>
<path fill="none" stroke="green" d="M3527.83,-3974.87C3500.27,-3989.35 3439.77,-4017.45 3385,-4017.45 1101,-4017.45 1101,-4017.45 1101,-4017.45 1030.18,-4017.45 990.374,-4035.65 946,-3980.45 914.125,-3940.79 911.268,-2275.12 911.022,-2035.93"/>
<polygon fill="green" stroke="green" points="914.522,-2035.63 911.013,-2025.63 907.522,-2035.64 914.522,-2035.63"/>
<text text-anchor="middle" x="2418" y="-4021.25" font-family="Times,serif" font-size="14.00">init_back_link</text>
</g>
<!-- q2&#45;&gt;q0 -->
<g id="edge21" class="edge"><title>q2&#45;&gt;q0</title>
<path fill="none" stroke="green" d="M3525.93,-3966.45C3496.96,-3966.45 3436.3,-3966.45 3385,-3966.45 1101,-3966.45 1101,-3966.45 1101,-3966.45 1030.18,-3966.45 990.387,-3984.64 946,-3929.45 914.955,-3890.85 911.389,-2269.89 911.036,-2035.56"/>
<polygon fill="green" stroke="green" points="914.536,-2035.46 911.021,-2025.46 907.536,-2035.47 914.536,-2035.46"/>
<text text-anchor="middle" x="2418" y="-3970.25" font-family="Times,serif" font-size="14.00">reverse_dll</text>
</g>
<!-- q2&#45;&gt;q0 -->
<g id="edge22" class="edge"><title>q2&#45;&gt;q0</title>
<path fill="none" stroke="green" d="M3527.83,-3958.02C3500.27,-3943.54 3439.77,-3915.45 3385,-3915.45 1101,-3915.45 1101,-3915.45 1101,-3915.45 1030.18,-3915.45 990.401,-3933.62 946,-3878.45 915.816,-3840.94 911.52,-2267.75 911.051,-2035.87"/>
<polygon fill="green" stroke="green" points="914.55,-2035.56 911.03,-2025.57 907.55,-2035.58 914.55,-2035.56"/>
<text text-anchor="middle" x="2418" y="-3919.25" font-family="Times,serif" font-size="14.00">remove_fw_link</text>
</g>
<!-- q2&#45;&gt;q0 -->
<g id="edge23" class="edge"><title>q2&#45;&gt;q0</title>
<path fill="none" stroke="green" d="M3535.49,-3950.49C3529.45,-3939.12 3519.99,-3924.19 3508,-3914.45 3462.2,-3877.24 3444.01,-3864.45 3385,-3864.45 1101,-3864.45 1101,-3864.45 1101,-3864.45 1030.18,-3864.45 990.415,-3882.61 946,-3827.45 916.659,-3791 911.65,-2263.83 911.066,-2035.8"/>
<polygon fill="green" stroke="green" points="914.565,-2035.65 911.04,-2025.66 907.565,-2035.67 914.565,-2035.65"/>
<text text-anchor="middle" x="2418" y="-3868.25" font-family="Times,serif" font-size="14.00">check_seq_next</text>
</g>
<!-- q2&#45;&gt;q0 -->
<g id="edge24" class="edge"><title>q2&#45;&gt;q0</title>
<path fill="none" stroke="green" d="M3541.49,-3948.29C3538.68,-3925.46 3530.66,-3886.38 3508,-3862.45 3467.54,-3819.72 3443.84,-3813.45 3385,-3813.45 1101,-3813.45 1101,-3813.45 1101,-3813.45 1029.74,-3813.45 990.027,-3828.48 946,-3772.45 918.009,-3736.82 911.864,-2260.57 911.091,-2035.97"/>
<polygon fill="green" stroke="green" points="914.59,-2035.66 911.056,-2025.68 907.59,-2035.69 914.59,-2035.66"/>
<text text-anchor="middle" x="2418" y="-3817.25" font-family="Times,serif" font-size="14.00">check_seq_prev</text>
</g>
<!-- q3 -->
<g id="node5" class="node"><title>q3</title>
<ellipse fill="none" stroke="green" cx="3384" cy="-3653.45" rx="18" ry="18"/>
<text text-anchor="middle" x="3384" y="-3649.75" font-family="Times,serif" font-size="14.00">D</text>
</g>
<!-- q3&#45;&gt;q0 -->
<g id="edge26" class="edge"><title>q3&#45;&gt;q0</title>
<path fill="none" stroke="green" d="M3381.17,-3671.29C3378.06,-3691.92 3369.79,-3725.34 3348,-3743.45 3303.82,-3780.16 3278.44,-3767.45 3221,-3767.45 1101,-3767.45 1101,-3767.45 1101,-3767.45 1031.29,-3767.45 991.896,-3795.92 946,-3743.45 916.678,-3709.92 911.665,-2258.15 911.069,-2035.87"/>
<polygon fill="green" stroke="green" points="914.568,-2035.67 911.042,-2025.68 907.568,-2035.69 914.568,-2035.67"/>
<text text-anchor="middle" x="2308" y="-3771.25" font-family="Times,serif" font-size="14.00">chain_node</text>
</g>
<!-- q3&#45;&gt;q0 -->
<g id="edge27" class="edge"><title>q3&#45;&gt;q0</title>
<path fill="none" stroke="green" d="M3376.04,-3670.14C3370.26,-3681.88 3360.9,-3696.94 3348,-3705.45 3300.03,-3737.05 3278.44,-3729.45 3221,-3729.45 1101,-3729.45 1101,-3729.45 1101,-3729.45 1031.29,-3729.45 991.908,-3757.91 946,-3705.45 917.327,-3672.68 911.768,-2254.14 911.081,-2035.59"/>
<polygon fill="green" stroke="green" points="914.581,-2035.55 911.05,-2025.56 907.581,-2035.57 914.581,-2035.55"/>
<text text-anchor="middle" x="2308" y="-3733.25" font-family="Times,serif" font-size="14.00">create_sll</text>
</g>
<!-- q3&#45;&gt;q0 -->
<g id="edge28" class="edge"><title>q3&#45;&gt;q0</title>
<path fill="none" stroke="green" d="M3367.2,-3660.52C3361.27,-3662.98 3354.41,-3665.58 3348,-3667.45 3292.85,-3683.52 3278.44,-3691.45 3221,-3691.45 1101,-3691.45 1101,-3691.45 1101,-3691.45 1031.29,-3691.45 991.92,-3719.89 946,-3667.45 917.99,-3635.45 911.878,-2251.44 911.094,-2035.61"/>
<polygon fill="green" stroke="green" points="914.594,-2035.42 911.058,-2025.43 907.594,-2035.44 914.594,-2035.42"/>
<text text-anchor="middle" x="2308" y="-3695.25" font-family="Times,serif" font-size="14.00">init_back_link</text>
</g>
<!-- q3&#45;&gt;q0 -->
<g id="edge29" class="edge"><title>q3&#45;&gt;q0</title>
<path fill="none" stroke="green" d="M3365.97,-3653.45C3336.46,-3653.45 3273.88,-3653.45 3221,-3653.45 1101,-3653.45 1101,-3653.45 1101,-3653.45 1031.29,-3653.45 991.933,-3681.88 946,-3629.45 918.651,-3598.23 911.99,-2248.67 911.109,-2035.63"/>
<polygon fill="green" stroke="green" points="914.609,-2035.55 911.068,-2025.56 907.609,-2035.58 914.609,-2035.55"/>
<text text-anchor="middle" x="2308" y="-3657.25" font-family="Times,serif" font-size="14.00">reverse_dll</text>
</g>
<!-- q3&#45;&gt;q0 -->
<g id="edge30" class="edge"><title>q3&#45;&gt;q0</title>
<path fill="none" stroke="green" d="M3366.74,-3647C3337.88,-3636.16 3275.6,-3615.45 3221,-3615.45 1101,-3615.45 1101,-3615.45 1101,-3615.45 1031.29,-3615.45 991.946,-3643.87 946,-3591.45 919.325,-3561.01 912.113,-2247.07 911.125,-2035.94"/>
<polygon fill="green" stroke="green" points="914.624,-2035.66 911.078,-2025.68 907.624,-2035.7 914.624,-2035.66"/>
<text text-anchor="middle" x="2308" y="-3619.25" font-family="Times,serif" font-size="14.00">remove_fw_link</text>
</g>
<!-- q3&#45;&gt;q0 -->
<g id="edge31" class="edge"><title>q3&#45;&gt;q0</title>
<path fill="none" stroke="green" d="M3373.28,-3638.58C3367,-3630.07 3358.14,-3619.86 3348,-3613.45 3298.42,-3582.08 3279.67,-3577.45 3221,-3577.45 1101,-3577.45 1101,-3577.45 1101,-3577.45 1031.29,-3577.45 991.961,-3605.86 946,-3553.45 919.97,-3523.76 912.222,-2242.66 911.139,-2035.58"/>
<polygon fill="green" stroke="green" points="914.639,-2035.49 911.087,-2025.51 907.639,-2035.53 914.639,-2035.49"/>
<text text-anchor="middle" x="2308" y="-3581.25" font-family="Times,serif" font-size="14.00">check_seq_next</text>
</g>
<!-- q3&#45;&gt;q0 -->
<g id="edge33" class="edge"><title>q3&#45;&gt;q0</title>
<path fill="none" stroke="green" d="M3379.75,-3635.73C3375.53,-3617.73 3366.41,-3590.31 3348,-3574.45 3303.65,-3536.22 3279.55,-3539.45 3221,-3539.45 1101,-3539.45 1101,-3539.45 1101,-3539.45 1029.01,-3539.45 989.564,-3549.75 946,-3492.45 923.097,-3462.32 912.763,-2238.17 911.209,-2035.68"/>
<polygon fill="green" stroke="green" points="914.708,-2035.53 911.132,-2025.55 907.708,-2035.58 914.708,-2035.53"/>
<text text-anchor="middle" x="2308" y="-3543.25" font-family="Times,serif" font-size="14.00">Learn_Assert</text>
</g>
<!-- q3&#45;&gt;q2 -->
<g id="edge32" class="edge"><title>q3&#45;&gt;q2</title>
<path fill="none" stroke="green" d="M3399.11,-3663.91C3425.2,-3684.08 3480.77,-3731.1 3508,-3784.45 3533.56,-3834.53 3540.54,-3901.04 3542.39,-3938.22"/>
<polygon fill="green" stroke="green" points="3538.89,-3938.48 3542.8,-3948.33 3545.89,-3938.19 3538.89,-3938.48"/>
<text text-anchor="middle" x="3464" y="-3788.25" font-family="Times,serif" font-size="14.00">check_seq_prev</text>
</g>
<!-- q4 -->
<g id="node6" class="node"><title>q4</title>
<ellipse fill="none" stroke="green" cx="3220" cy="-3343.45" rx="18" ry="18"/>
<text text-anchor="middle" x="3220" y="-3339.75" font-family="Times,serif" font-size="14.00">D</text>
</g>
<!-- q4&#45;&gt;q0 -->
<g id="edge34" class="edge"><title>q4&#45;&gt;q0</title>
<path fill="none" stroke="green" d="M3218.61,-3361.82C3217.06,-3387.24 3210.49,-3432.98 3184,-3459.45 3143.62,-3499.8 3118.09,-3496.45 3061,-3496.45 1101,-3496.45 1101,-3496.45 1101,-3496.45 1030.18,-3496.45 990.55,-3514.5 946,-3459.45 922.747,-3430.71 912.722,-2235.6 911.206,-2035.68"/>
<polygon fill="green" stroke="green" points="914.704,-2035.39 911.129,-2025.42 907.704,-2035.44 914.704,-2035.39"/>
<text text-anchor="middle" x="2200" y="-3500.25" font-family="Times,serif" font-size="14.00">chain_node</text>
</g>
<!-- q4&#45;&gt;q0 -->
<g id="edge35" class="edge"><title>q4&#45;&gt;q0</title>
<path fill="none" stroke="green" d="M3213.94,-3360.52C3208.73,-3375.25 3199.19,-3396.05 3184,-3408.45 3139.77,-3444.54 3118.09,-3445.45 3061,-3445.45 1101,-3445.45 1101,-3445.45 1101,-3445.45 1030.18,-3445.45 990.574,-3463.49 946,-3408.45 923.587,-3380.77 912.89,-2231.21 911.231,-2035.6"/>
<polygon fill="green" stroke="green" points="914.73,-2035.51 911.146,-2025.54 907.73,-2035.57 914.73,-2035.51"/>
<text text-anchor="middle" x="2200" y="-3449.25" font-family="Times,serif" font-size="14.00">create_sll</text>
</g>
<!-- q4&#45;&gt;q0 -->
<g id="edge36" class="edge"><title>q4&#45;&gt;q0</title>
<path fill="none" stroke="green" d="M3203.83,-3351.87C3176.27,-3366.35 3115.77,-3394.45 3061,-3394.45 1101,-3394.45 1101,-3394.45 1101,-3394.45 1030.18,-3394.45 990.6,-3412.46 946,-3357.45 924.434,-3330.84 913.074,-2227.64 911.259,-2035.76"/>
<polygon fill="green" stroke="green" points="914.758,-2035.59 911.164,-2025.63 907.758,-2035.66 914.758,-2035.59"/>
<text text-anchor="middle" x="2200" y="-3398.25" font-family="Times,serif" font-size="14.00">init_back_link</text>
</g>
<!-- q4&#45;&gt;q0 -->
<g id="edge37" class="edge"><title>q4&#45;&gt;q0</title>
<path fill="none" stroke="green" d="M3201.93,-3343.45C3172.96,-3343.45 3112.3,-3343.45 3061,-3343.45 1101,-3343.45 1101,-3343.45 1101,-3343.45 1030.18,-3343.45 990.628,-3361.44 946,-3306.45 925.267,-3280.9 913.251,-2222.6 911.287,-2035.55"/>
<polygon fill="green" stroke="green" points="914.785,-2035.39 911.181,-2025.42 907.786,-2035.46 914.785,-2035.39"/>
<text text-anchor="middle" x="2200" y="-3347.25" font-family="Times,serif" font-size="14.00">reverse_dll</text>
</g>
<!-- q4&#45;&gt;q0 -->
<g id="edge39" class="edge"><title>q4&#45;&gt;q0</title>
<path fill="none" stroke="green" d="M3203.83,-3335.02C3176.27,-3320.54 3115.77,-3292.45 3061,-3292.45 1101,-3292.45 1101,-3292.45 1101,-3292.45 1030.18,-3292.45 990.658,-3310.42 946,-3255.45 906.28,-3206.55 909.838,-2217.08 910.827,-2035.83"/>
<polygon fill="green" stroke="green" points="914.327,-2035.77 910.883,-2025.75 907.327,-2035.73 914.327,-2035.77"/>
<text text-anchor="middle" x="2200" y="-3296.25" font-family="Times,serif" font-size="14.00">check_seq_next</text>
</g>
<!-- q4&#45;&gt;q0 -->
<g id="edge40" class="edge"><title>q4&#45;&gt;q0</title>
<path fill="none" stroke="green" d="M3211.49,-3327.49C3205.45,-3316.12 3195.99,-3301.19 3184,-3291.45 3138.2,-3254.24 3120.01,-3241.45 3061,-3241.45 1101,-3241.45 1101,-3241.45 1101,-3241.45 1030.18,-3241.45 990.691,-3259.39 946,-3204.45 907.933,-3157.65 910.124,-2211.46 910.863,-2035.48"/>
<polygon fill="green" stroke="green" points="914.363,-2035.47 910.908,-2025.46 907.363,-2035.44 914.363,-2035.47"/>
<text text-anchor="middle" x="2200" y="-3245.25" font-family="Times,serif" font-size="14.00">check_seq_prev</text>
</g>
<!-- q4&#45;&gt;q0 -->
<g id="edge41" class="edge"><title>q4&#45;&gt;q0</title>
<path fill="none" stroke="green" d="M3217.49,-3325.29C3214.68,-3302.46 3206.66,-3263.38 3184,-3239.45 3143.54,-3196.72 3119.84,-3190.45 3061,-3190.45 1101,-3190.45 1101,-3190.45 1101,-3190.45 1029.74,-3190.45 990.33,-3205.24 946,-3149.45 910.304,-3104.52 910.544,-2207.6 910.919,-2035.77"/>
<polygon fill="green" stroke="green" points="914.419,-2035.52 910.943,-2025.52 907.419,-2035.51 914.419,-2035.52"/>
<text text-anchor="middle" x="2200" y="-3194.25" font-family="Times,serif" font-size="14.00">Learn_Assert</text>
</g>
<!-- q4&#45;&gt;q3 -->
<g id="edge38" class="edge"><title>q4&#45;&gt;q3</title>
<path fill="none" stroke="green" d="M3233.59,-3356.05C3259.15,-3382.35 3317.26,-3446.01 3348,-3510.45 3365.94,-3548.05 3375.22,-3595.73 3379.6,-3625.42"/>
<polygon fill="green" stroke="green" points="3376.16,-3626.07 3381,-3635.49 3383.09,-3625.11 3376.16,-3626.07"/>
<text text-anchor="middle" x="3302" y="-3514.25" font-family="Times,serif" font-size="14.00">remove_fw_link</text>
</g>
<!-- q5 -->
<g id="node7" class="node"><title>q5</title>
<ellipse fill="none" stroke="green" cx="3060" cy="-3030.45" rx="18" ry="18"/>
<text text-anchor="middle" x="3060" y="-3026.75" font-family="Times,serif" font-size="14.00">D</text>
</g>
<!-- q5&#45;&gt;q0 -->
<g id="edge42" class="edge"><title>q5&#45;&gt;q0</title>
<path fill="none" stroke="green" d="M3057.15,-3048.27C3054.03,-3068.87 3045.74,-3102.27 3024,-3120.45 2981.27,-3156.17 2956.7,-3144.45 2901,-3144.45 1101,-3144.45 1101,-3144.45 1101,-3144.45 1031.29,-3144.45 992.191,-3172.66 946,-3120.45 908.983,-3078.61 910.28,-2204.73 910.879,-2035.64"/>
<polygon fill="green" stroke="green" points="914.38,-2035.55 910.917,-2025.53 907.38,-2035.52 914.38,-2035.55"/>
<text text-anchor="middle" x="2092" y="-3148.25" font-family="Times,serif" font-size="14.00">chain_node</text>
</g>
<!-- q5&#45;&gt;q0 -->
<g id="edge43" class="edge"><title>q5&#45;&gt;q0</title>
<path fill="none" stroke="green" d="M3052.02,-3047.12C3046.24,-3058.84 3036.88,-3073.91 3024,-3082.45 2977.58,-3113.23 2956.7,-3106.45 2901,-3106.45 1101,-3106.45 1101,-3106.45 1101,-3106.45 1031.29,-3106.45 992.22,-3134.63 946,-3082.45 910.335,-3042.18 910.519,-2203.25 910.911,-2036.22"/>
<polygon fill="green" stroke="green" points="914.412,-2035.8 910.937,-2025.79 907.412,-2035.78 914.412,-2035.8"/>
<text text-anchor="middle" x="2092" y="-3110.25" font-family="Times,serif" font-size="14.00">create_sll</text>
</g>
<!-- q5&#45;&gt;q0 -->
<g id="edge44" class="edge"><title>q5&#45;&gt;q0</title>
<path fill="none" stroke="green" d="M3043.19,-3037.5C3037.26,-3039.95 3030.4,-3042.56 3024,-3044.45 2970.57,-3060.19 2956.7,-3068.45 2901,-3068.45 1101,-3068.45 1101,-3068.45 1101,-3068.45 1031.29,-3068.45 992.251,-3096.6 946,-3044.45 911.607,-3005.66 910.767,-2198.04 910.947,-2035.72"/>
<polygon fill="green" stroke="green" points="914.447,-2035.57 910.961,-2025.57 907.447,-2035.56 914.447,-2035.57"/>
<text text-anchor="middle" x="2092" y="-3072.25" font-family="Times,serif" font-size="14.00">init_back_link</text>
</g>
<!-- q5&#45;&gt;q0 -->
<g id="edge45" class="edge"><title>q5&#45;&gt;q0</title>
<path fill="none" stroke="green" d="M3041.93,-3030.45C3012.96,-3030.45 2952.3,-3030.45 2901,-3030.45 1101,-3030.45 1101,-3030.45 1101,-3030.45 1031.29,-3030.45 992.284,-3058.57 946,-3006.45 912.946,-2969.22 911.028,-2195.91 910.985,-2036.16"/>
<polygon fill="green" stroke="green" points="914.485,-2035.74 910.985,-2025.74 907.485,-2035.74 914.485,-2035.74"/>
<text text-anchor="middle" x="2092" y="-3034.25" font-family="Times,serif" font-size="14.00">reverse_dll</text>
</g>
<!-- q5&#45;&gt;q0 -->
<g id="edge46" class="edge"><title>q5&#45;&gt;q0</title>
<path fill="none" stroke="green" d="M3043.15,-3024C3015.03,-3013.16 2954.32,-2992.45 2901,-2992.45 1101,-2992.45 1101,-2992.45 1101,-2992.45 1031.29,-2992.45 992.32,-3020.54 946,-2968.45 914.211,-2932.69 911.289,-2190.33 911.025,-2035.56"/>
<polygon fill="green" stroke="green" points="914.525,-2035.45 911.011,-2025.46 907.525,-2035.46 914.525,-2035.45"/>
<text text-anchor="middle" x="2092" y="-2996.25" font-family="Times,serif" font-size="14.00">remove_fw_link</text>
</g>
<!-- q5&#45;&gt;q0 -->
<g id="edge48" class="edge"><title>q5&#45;&gt;q0</title>
<path fill="none" stroke="green" d="M3049.26,-3015.61C3042.98,-3007.12 3034.11,-2996.9 3024,-2990.45 2975.99,-2959.79 2957.96,-2954.45 2901,-2954.45 1101,-2954.45 1101,-2954.45 1101,-2954.45 1031.29,-2954.45 992.359,-2982.51 946,-2930.45 915.536,-2896.24 911.57,-2187.56 911.07,-2035.86"/>
<polygon fill="green" stroke="green" points="914.569,-2035.53 911.039,-2025.54 907.569,-2035.55 914.569,-2035.53"/>
<text text-anchor="middle" x="2092" y="-2958.25" font-family="Times,serif" font-size="14.00">check_seq_prev</text>
</g>
<!-- q5&#45;&gt;q0 -->
<g id="edge49" class="edge"><title>q5&#45;&gt;q0</title>
<path fill="none" stroke="green" d="M3055.73,-3012.76C3051.49,-2994.79 3042.34,-2967.39 3024,-2951.45 2981.1,-2914.16 2957.84,-2916.45 2901,-2916.45 1101,-2916.45 1101,-2916.45 1101,-2916.45 1029.01,-2916.45 990.05,-2926.38 946,-2869.45 919.929,-2835.75 912.551,-2180.78 911.234,-2035.73"/>
<polygon fill="green" stroke="green" points="914.732,-2035.42 911.144,-2025.45 907.732,-2035.48 914.732,-2035.42"/>
<text text-anchor="middle" x="2092" y="-2920.25" font-family="Times,serif" font-size="14.00">Learn_Assert</text>
</g>
<!-- q5&#45;&gt;q4 -->
<g id="edge47" class="edge"><title>q5&#45;&gt;q4</title>
<path fill="none" stroke="green" d="M3075.11,-3040.91C3101.2,-3061.08 3156.77,-3108.1 3184,-3161.45 3209.56,-3211.53 3216.54,-3278.04 3218.39,-3315.22"/>
<polygon fill="green" stroke="green" points="3214.89,-3315.48 3218.8,-3325.33 3221.89,-3315.19 3214.89,-3315.48"/>
<text text-anchor="middle" x="3140" y="-3165.25" font-family="Times,serif" font-size="14.00">check_seq_next</text>
</g>
<!-- q6 -->
<g id="node8" class="node"><title>q6</title>
<ellipse fill="none" stroke="green" cx="2900" cy="-2720.45" rx="18" ry="18"/>
<text text-anchor="middle" x="2900" y="-2716.75" font-family="Times,serif" font-size="14.00">D</text>
</g>
<!-- q6&#45;&gt;q0 -->
<g id="edge50" class="edge"><title>q6&#45;&gt;q0</title>
<path fill="none" stroke="green" d="M2898.34,-2738.56C2896.47,-2763.67 2889.52,-2809.04 2864,-2836.45 2832.56,-2870.22 2813.14,-2873.45 2767,-2873.45 1101,-2873.45 1101,-2873.45 1101,-2873.45 1030.18,-2873.45 991.046,-2891.1 946,-2836.45 919.993,-2804.89 912.585,-2177.02 911.243,-2035.58"/>
<polygon fill="green" stroke="green" points="914.743,-2035.5 911.151,-2025.53 907.743,-2035.57 914.743,-2035.5"/>
<text text-anchor="middle" x="1982" y="-2877.25" font-family="Times,serif" font-size="14.00">chain_node</text>
</g>
<!-- q6&#45;&gt;q0 -->
<g id="edge51" class="edge"><title>q6&#45;&gt;q0</title>
<path fill="none" stroke="green" d="M2893.61,-2737.55C2888.23,-2752.09 2878.64,-2772.59 2864,-2785.45 2829.33,-2815.89 2813.14,-2822.45 2767,-2822.45 1101,-2822.45 1101,-2822.45 1101,-2822.45 1030.18,-2822.45 991.121,-2840.04 946,-2785.45 921.652,-2755.99 913.01,-2171.55 911.324,-2035.55"/>
<polygon fill="green" stroke="green" points="914.823,-2035.47 911.202,-2025.51 907.824,-2035.55 914.823,-2035.47"/>
<text text-anchor="middle" x="1982" y="-2826.25" font-family="Times,serif" font-size="14.00">create_sll</text>
</g>
<!-- q6&#45;&gt;q0 -->
<g id="edge52" class="edge"><title>q6&#45;&gt;q0</title>
<path fill="none" stroke="green" d="M2884.66,-2730.04C2861.15,-2744.81 2812.45,-2771.45 2767,-2771.45 1101,-2771.45 1101,-2771.45 1101,-2771.45 1030.18,-2771.45 991.207,-2788.97 946,-2734.45 923.323,-2707.1 913.476,-2166.58 911.419,-2035.77"/>
<polygon fill="green" stroke="green" points="914.919,-2035.67 911.264,-2025.73 907.919,-2035.78 914.919,-2035.67"/>
<text text-anchor="middle" x="1982" y="-2775.25" font-family="Times,serif" font-size="14.00">init_back_link</text>
</g>
<!-- q6&#45;&gt;q0 -->
<g id="edge53" class="edge"><title>q6&#45;&gt;q0</title>
<path fill="none" stroke="green" d="M2881.91,-2720.45C2856.75,-2720.45 2808.25,-2720.45 2767,-2720.45 1101,-2720.45 1101,-2720.45 1101,-2720.45 1030.18,-2720.45 991.306,-2737.88 946,-2683.45 924.975,-2658.18 913.966,-2160.69 911.525,-2035.73"/>
<polygon fill="green" stroke="green" points="915.02,-2035.39 911.328,-2025.46 908.021,-2035.52 915.02,-2035.39"/>
<text text-anchor="middle" x="1982" y="-2724.25" font-family="Times,serif" font-size="14.00">reverse_dll</text>
</g>
<!-- q6&#45;&gt;q0 -->
<g id="edge54" class="edge"><title>q6&#45;&gt;q0</title>
<path fill="none" stroke="green" d="M2884.66,-2710.85C2861.15,-2696.08 2812.45,-2669.45 2767,-2669.45 1101,-2669.45 1101,-2669.45 1101,-2669.45 1030.18,-2669.45 991.421,-2686.79 946,-2632.45 907.388,-2586.25 909.397,-2151.71 910.635,-2035.76"/>
<polygon fill="green" stroke="green" points="914.137,-2035.6 910.75,-2025.56 907.137,-2035.52 914.137,-2035.6"/>
<text text-anchor="middle" x="1982" y="-2673.25" font-family="Times,serif" font-size="14.00">remove_fw_link</text>
</g>
<!-- q6&#45;&gt;q0 -->
<g id="edge55" class="edge"><title>q6&#45;&gt;q0</title>
<path fill="none" stroke="green" d="M2890.52,-2704.56C2884.25,-2693.93 2874.93,-2680.15 2864,-2670.45 2827.42,-2637.97 2815.92,-2618.45 2767,-2618.45 1101,-2618.45 1101,-2618.45 1101,-2618.45 1031.07,-2618.45 992.585,-2643.6 946,-2591.45 908.714,-2549.71 909.688,-2146.93 910.679,-2035.75"/>
<polygon fill="green" stroke="green" points="914.18,-2035.67 910.777,-2025.64 907.181,-2035.6 914.18,-2035.67"/>
<text text-anchor="middle" x="1982" y="-2622.25" font-family="Times,serif" font-size="14.00">check_seq_next</text>
</g>
<!-- q6&#45;&gt;q0 -->
<g id="edge57" class="edge"><title>q6&#45;&gt;q0</title>
<path fill="none" stroke="green" d="M2896.8,-2702.42C2893.29,-2680.54 2884.59,-2643.59 2864,-2619.45 2832.26,-2582.23 2815.92,-2567.45 2767,-2567.45 2091,-2567.45 2091,-2567.45 2091,-2567.45 1896.28,-2567.45 1847.72,-2577.45 1653,-2577.45 1101,-2577.45 1101,-2577.45 1101,-2577.45 1030.57,-2577.45 992.073,-2597.72 946,-2544.45 912.576,-2505.8 910.718,-2141.08 910.885,-2035.78"/>
<polygon fill="green" stroke="green" points="914.385,-2035.61 910.909,-2025.6 907.385,-2035.59 914.385,-2035.61"/>
<text text-anchor="middle" x="1982" y="-2573.25" font-family="Times,serif" font-size="14.00">Learn_Assert</text>
</g>
<!-- q6&#45;&gt;q5 -->
<g id="edge56" class="edge"><title>q6&#45;&gt;q5</title>
<path fill="none" stroke="green" d="M2913.18,-2733.13C2937.89,-2759.59 2994.1,-2823.52 3024,-2887.45 3041.65,-2925.18 3051.01,-2972.83 3055.48,-3002.47"/>
<polygon fill="green" stroke="green" points="3052.04,-3003.12 3056.92,-3012.53 3058.97,-3002.14 3052.04,-3003.12"/>
<text text-anchor="middle" x="2980" y="-2891.25" font-family="Times,serif" font-size="14.00">check_seq_prev</text>
</g>
<!-- q7 -->
<g id="node9" class="node"><title>q7</title>
<ellipse fill="none" stroke="green" cx="2766" cy="-2407.45" rx="18" ry="18"/>
<text text-anchor="middle" x="2766" y="-2403.75" font-family="Times,serif" font-size="14.00">D</text>
</g>
<!-- q7&#45;&gt;q0 -->
<g id="edge58" class="edge"><title>q7&#45;&gt;q0</title>
<path fill="none" stroke="green" d="M2763.15,-2425.27C2760.03,-2445.87 2751.74,-2479.27 2730,-2497.45 2687.27,-2533.17 2662.7,-2521.45 2607,-2521.45 2091,-2521.45 2091,-2521.45 2091,-2521.45 1896.17,-2521.45 1847.83,-2539.45 1653,-2539.45 1101,-2539.45 1101,-2539.45 1101,-2539.45 1031.29,-2539.45 993.158,-2566.78 946,-2515.45 913.435,-2479.99 910.948,-2137.12 910.93,-2035.62"/>
<polygon fill="green" stroke="green" points="914.43,-2035.51 910.937,-2025.51 907.43,-2035.51 914.43,-2035.51"/>
<text text-anchor="middle" x="1872" y="-2537.25" font-family="Times,serif" font-size="14.00">chain_node</text>
</g>
<!-- q7&#45;&gt;q0 -->
<g id="edge59" class="edge"><title>q7&#45;&gt;q0</title>
<path fill="none" stroke="green" d="M2758.02,-2424.12C2752.24,-2435.84 2742.88,-2450.91 2730,-2459.45 2683.58,-2490.23 2662.7,-2483.45 2607,-2483.45 2091,-2483.45 2091,-2483.45 2091,-2483.45 1896.17,-2483.45 1847.83,-2501.45 1653,-2501.45 1101,-2501.45 1101,-2501.45 1101,-2501.45 1031.29,-2501.45 993.3,-2528.65 946,-2477.45 915.996,-2444.96 911.707,-2132.22 911.099,-2035.68"/>
<polygon fill="green" stroke="green" points="914.598,-2035.49 911.044,-2025.51 907.598,-2035.53 914.598,-2035.49"/>
<text text-anchor="middle" x="1872" y="-2499.25" font-family="Times,serif" font-size="14.00">create_sll</text>
</g>
<!-- q7&#45;&gt;q0 -->
<g id="edge60" class="edge"><title>q7&#45;&gt;q0</title>
<path fill="none" stroke="green" d="M2749.19,-2414.5C2743.26,-2416.95 2736.4,-2419.56 2730,-2421.45 2676.57,-2437.19 2662.7,-2445.45 2607,-2445.45 2091,-2445.45 2091,-2445.45 2091,-2445.45 1896.17,-2445.45 1847.83,-2463.45 1653,-2463.45 1101,-2463.45 1101,-2463.45 1101,-2463.45 1031.29,-2463.45 993.466,-2490.5 946,-2439.45 918.552,-2409.92 912.532,-2127.13 911.299,-2035.76"/>
<polygon fill="green" stroke="green" points="914.796,-2035.55 911.171,-2025.6 907.797,-2035.64 914.796,-2035.55"/>
<text text-anchor="middle" x="1872" y="-2461.25" font-family="Times,serif" font-size="14.00">init_back_link</text>
</g>
<!-- q7&#45;&gt;q0 -->
<g id="edge62" class="edge"><title>q7&#45;&gt;q0</title>
<path fill="none" stroke="green" d="M2747.93,-2407.45C2718.96,-2407.45 2658.3,-2407.45 2607,-2407.45 2091,-2407.45 2091,-2407.45 2091,-2407.45 1896.17,-2407.45 1847.83,-2425.45 1653,-2425.45 1101,-2425.45 1101,-2425.45 1101,-2425.45 1031.29,-2425.45 993.664,-2452.31 946,-2401.45 921.065,-2374.84 913.413,-2121.12 911.53,-2035.51"/>
<polygon fill="green" stroke="green" points="915.028,-2035.4 911.319,-2025.47 908.03,-2035.54 915.028,-2035.4"/>
<text text-anchor="middle" x="1872" y="-2423.25" font-family="Times,serif" font-size="14.00">remove_fw_link</text>
</g>
<!-- q7&#45;&gt;q0 -->
<g id="edge63" class="edge"><title>q7&#45;&gt;q0</title>
<path fill="none" stroke="green" d="M2749.15,-2401C2721.03,-2390.16 2660.32,-2369.45 2607,-2369.45 1981,-2369.45 1981,-2369.45 1981,-2369.45 1835,-2369.45 1799,-2387.45 1653,-2387.45 1101,-2387.45 1101,-2387.45 1101,-2387.45 1031.29,-2387.45 993.903,-2414.09 946,-2363.45 923.634,-2339.8 914.428,-2116.15 911.827,-2035.92"/>
<polygon fill="green" stroke="green" points="915.315,-2035.47 911.503,-2025.58 908.318,-2035.69 915.315,-2035.47"/>
<text text-anchor="middle" x="1872" y="-2380.25" font-family="Times,serif" font-size="14.00">check_seq_next</text>
</g>
<!-- q7&#45;&gt;q0 -->
<g id="edge64" class="edge"><title>q7&#45;&gt;q0</title>
<path fill="none" stroke="green" d="M2755.26,-2392.61C2748.98,-2384.12 2740.11,-2373.9 2730,-2367.45 2681.99,-2336.79 2663.96,-2331.45 2607,-2331.45 1981,-2331.45 1981,-2331.45 1981,-2331.45 1835,-2331.45 1799,-2349.45 1653,-2349.45 1101,-2349.45 1101,-2349.45 1101,-2349.45 1031.29,-2349.45 994.196,-2375.81 946,-2325.45 926.139,-2304.69 915.521,-2109.81 912.178,-2035.78"/>
<polygon fill="green" stroke="green" points="915.656,-2035.22 911.72,-2025.38 908.663,-2035.52 915.656,-2035.22"/>
<text text-anchor="middle" x="1872" y="-2342.25" font-family="Times,serif" font-size="14.00">check_seq_prev</text>
</g>
<!-- q7&#45;&gt;q0 -->
<g id="edge65" class="edge"><title>q7&#45;&gt;q0</title>
<path fill="none" stroke="green" d="M2761.73,-2389.76C2757.49,-2371.79 2748.34,-2344.39 2730,-2328.45 2687.1,-2291.16 2663.84,-2293.45 2607,-2293.45 1981,-2293.45 1981,-2293.45 1981,-2293.45 1835,-2293.45 1799,-2311.45 1653,-2311.45 1101,-2311.45 1101,-2311.45 1101,-2311.45 1029.01,-2311.45 992.697,-2319.23 946,-2264.45 917.057,-2230.49 911.951,-2095.11 911.12,-2035.67"/>
<polygon fill="green" stroke="green" points="914.618,-2035.46 911.01,-2025.5 907.619,-2035.54 914.618,-2035.46"/>
<text text-anchor="middle" x="1872" y="-2304.25" font-family="Times,serif" font-size="14.00">Learn_Assert</text>
</g>
<!-- q7&#45;&gt;q6 -->
<g id="edge61" class="edge"><title>q7&#45;&gt;q6</title>
<path fill="none" stroke="green" d="M2779.37,-2419.95C2800.33,-2441.92 2842.61,-2489.73 2864,-2538.45 2886.54,-2589.8 2894.61,-2655.59 2897.47,-2692.36"/>
<polygon fill="green" stroke="green" points="2893.98,-2692.62 2898.17,-2702.35 2900.96,-2692.13 2893.98,-2692.62"/>
<text text-anchor="middle" x="2833" y="-2542.25" font-family="Times,serif" font-size="14.00">reverse_dll</text>
</g>
<!-- q8 -->
<g id="node10" class="node"><title>q8</title>
<ellipse fill="none" stroke="green" cx="2606" cy="-2115.45" rx="18" ry="18"/>
<text text-anchor="middle" x="2606" y="-2111.75" font-family="Times,serif" font-size="14.00">D</text>
</g>
<!-- q8&#45;&gt;q0 -->
<g id="edge66" class="edge"><title>q8&#45;&gt;q0</title>
<path fill="none" stroke="green" d="M2605.12,-2133.46C2604.24,-2159.31 2598.52,-2206.55 2570,-2231.45 2518.81,-2276.14 2486.95,-2255.45 2419,-2255.45 2091,-2255.45 2091,-2255.45 2091,-2255.45 1896.25,-2255.45 1847.75,-2268.45 1653,-2268.45 1101,-2268.45 1101,-2268.45 1101,-2268.45 1030.18,-2268.45 994.055,-2283.47 946,-2231.45 920.14,-2203.45 913.376,-2089.62 911.615,-2035.85"/>
<polygon fill="green" stroke="green" points="915.108,-2035.53 911.318,-2025.64 908.11,-2035.73 915.108,-2035.53"/>
<text text-anchor="middle" x="1762" y="-2271.25" font-family="Times,serif" font-size="14.00">chain_node</text>
</g>
<!-- q8&#45;&gt;q0 -->
<g id="edge67" class="edge"><title>q8&#45;&gt;q0</title>
<path fill="none" stroke="green" d="M2600.09,-2132.72C2594.98,-2147.57 2585.51,-2168.45 2570,-2180.45 2515.35,-2222.73 2488.1,-2217.45 2419,-2217.45 1101,-2217.45 1101,-2217.45 1101,-2217.45 1030.18,-2217.45 995.204,-2231.39 946,-2180.45 926.374,-2160.13 916.863,-2079.34 913.077,-2035.72"/>
<polygon fill="green" stroke="green" points="916.544,-2035.17 912.236,-2025.5 909.568,-2035.75 916.544,-2035.17"/>
<text text-anchor="middle" x="1762" y="-2221.25" font-family="Times,serif" font-size="14.00">create_sll</text>
</g>
<!-- q8&#45;&gt;q0 -->
<g id="edge68" class="edge"><title>q8&#45;&gt;q0</title>
<path fill="none" stroke="green" d="M2589.47,-2122.75C2558.04,-2136.86 2484.29,-2166.45 2419,-2166.45 1101,-2166.45 1101,-2166.45 1101,-2166.45 1030.18,-2166.45 997.196,-2178.39 946,-2129.45 920.549,-2105.12 913.234,-2063.63 911.33,-2035.88"/>
<polygon fill="green" stroke="green" points="914.813,-2035.45 910.829,-2025.63 907.822,-2035.79 914.813,-2035.45"/>
<text text-anchor="middle" x="1762" y="-2170.25" font-family="Times,serif" font-size="14.00">init_back_link</text>
</g>
<!-- q8&#45;&gt;q0 -->
<g id="edge69" class="edge"><title>q8&#45;&gt;q0</title>
<path fill="none" stroke="green" d="M2587.82,-2115.45C2555.01,-2115.45 2481.16,-2115.45 2419,-2115.45 1101,-2115.45 1101,-2115.45 1101,-2115.45 1030.18,-2115.45 1001.36,-2122.62 946,-2078.45 932.211,-2067.44 923.45,-2049.62 918.142,-2034.59"/>
<polygon fill="green" stroke="green" points="921.374,-2033.2 914.999,-2024.74 914.706,-2035.33 921.374,-2033.2"/>
<text text-anchor="middle" x="1762" y="-2119.25" font-family="Times,serif" font-size="14.00">reverse_dll</text>
</g>
<!-- q8&#45;&gt;q0 -->
<g id="edge70" class="edge"><title>q8&#45;&gt;q0</title>
<path fill="none" stroke="green" d="M2589.47,-2108.14C2558.04,-2094.04 2484.29,-2064.45 2419,-2064.45 1101,-2064.45 1101,-2064.45 1101,-2064.45 1031.29,-2064.45 1008.62,-2071.07 946,-2040.45 939.895,-2037.46 934.135,-2033.04 929.117,-2028.4"/>
<polygon fill="green" stroke="green" points="931.418,-2025.74 921.9,-2021.09 926.438,-2030.66 931.418,-2025.74"/>
<text text-anchor="middle" x="1762" y="-2068.25" font-family="Times,serif" font-size="14.00">remove_fw_link</text>
</g>
<!-- q8&#45;&gt;q0 -->
<g id="edge71" class="edge"><title>q8&#45;&gt;q0</title>
<path fill="none" stroke="green" d="M2596.45,-2099.59C2590.28,-2089.46 2581.1,-2076.71 2570,-2068.45 2512.71,-2025.79 2490.42,-2013.45 2419,-2013.45 1871,-2013.45 1871,-2013.45 1871,-2013.45 1676.25,-2013.45 1627.75,-2026.45 1433,-2026.45 1101,-2026.45 1101,-2026.45 1101,-2026.45 1042.62,-2026.45 974.641,-2017.45 937.902,-2011.84"/>
<polygon fill="green" stroke="green" points="938.395,-2008.38 927.975,-2010.29 937.314,-2015.29 938.395,-2008.38"/>
<text text-anchor="middle" x="1762" y="-2020.25" font-family="Times,serif" font-size="14.00">check_seq_next</text>
</g>
<!-- q8&#45;&gt;q0 -->
<g id="edge73" class="edge"><title>q8&#45;&gt;q0</title>
<path fill="none" stroke="green" d="M2603.39,-2097.44C2600.47,-2075.28 2592.36,-2037.83 2570,-2015.45 2519.73,-1965.13 2490.12,-1962.45 2419,-1962.45 1871,-1962.45 1871,-1962.45 1871,-1962.45 1675.99,-1962.45 1628.01,-1988.45 1433,-1988.45 1101,-1988.45 1101,-1988.45 1101,-1988.45 1042.62,-1988.45 974.641,-1997.44 937.902,-2003.05"/>
<polygon fill="green" stroke="green" points="937.314,-1999.6 927.975,-2004.6 938.395,-2006.52 937.314,-1999.6"/>
<text text-anchor="middle" x="1762" y="-1972.25" font-family="Times,serif" font-size="14.00">Learn_Assert</text>
</g>
<!-- q8&#45;&gt;q7 -->
<g id="edge72" class="edge"><title>q8&#45;&gt;q7</title>
<path fill="none" stroke="green" d="M2620.01,-2127.2C2645.23,-2150.71 2700.82,-2206.28 2730,-2264.45 2748.68,-2301.68 2757.76,-2349.47 2761.9,-2379.28"/>
<polygon fill="green" stroke="green" points="2758.45,-2379.92 2763.2,-2389.39 2765.39,-2379.03 2758.45,-2379.92"/>
<text text-anchor="middle" x="2686" y="-2268.25" font-family="Times,serif" font-size="14.00">check_seq_prev</text>
</g>
<!-- q9 -->
<g id="node11" class="node"><title>q9</title>
<ellipse fill="none" stroke="green" cx="2418" cy="-1802.45" rx="18" ry="18"/>
<text text-anchor="middle" x="2418" y="-1798.75" font-family="Times,serif" font-size="14.00">D</text>
</g>
<!-- q9&#45;&gt;q0 -->
<g id="edge74" class="edge"><title>q9&#45;&gt;q0</title>
<path fill="none" stroke="green" d="M2410.42,-1818.83C2401.14,-1839.61 2382.16,-1874.88 2354,-1892.45 2295.6,-1928.88 2269.83,-1916.45 2201,-1916.45 1871,-1916.45 1871,-1916.45 1871,-1916.45 1675.75,-1916.45 1628.25,-1950.45 1433,-1950.45 1101,-1950.45 1101,-1950.45 1101,-1950.45 1031.29,-1950.45 1008.62,-1943.82 946,-1974.45 939.895,-1977.43 934.135,-1981.85 929.117,-1986.5"/>
<polygon fill="green" stroke="green" points="926.438,-1984.23 921.9,-1993.8 931.418,-1989.15 926.438,-1984.23"/>
<text text-anchor="middle" x="1652" y="-1943.25" font-family="Times,serif" font-size="14.00">chain_node</text>
</g>
<!-- q9&#45;&gt;q0 -->
<g id="edge75" class="edge"><title>q9&#45;&gt;q0</title>
<path fill="none" stroke="green" d="M2405.36,-1815.43C2393.64,-1827.6 2374.43,-1845.25 2354,-1854.45 2291.23,-1882.69 2269.83,-1878.45 2201,-1878.45 1871,-1878.45 1871,-1878.45 1871,-1878.45 1675.75,-1878.45 1628.25,-1912.45 1433,-1912.45 1101,-1912.45 1101,-1912.45 1101,-1912.45 1030.57,-1912.45 1002.77,-1903.76 946,-1945.45 934.129,-1954.16 925.726,-1968.2 920.135,-1980.71"/>
<polygon fill="green" stroke="green" points="916.765,-1979.7 916.241,-1990.29 923.249,-1982.34 916.765,-1979.7"/>
<text text-anchor="middle" x="1652" y="-1905.25" font-family="Times,serif" font-size="14.00">create_sll</text>
</g>
<!-- q9&#45;&gt;q0 -->
<g id="edge76" class="edge"><title>q9&#45;&gt;q0</title>
<path fill="none" stroke="green" d="M2400.64,-1807.34C2364.82,-1817.6 2276.58,-1840.45 2201,-1840.45 1871,-1840.45 1871,-1840.45 1871,-1840.45 1675.75,-1840.45 1628.25,-1874.45 1433,-1874.45 1101,-1874.45 1101,-1874.45 1101,-1874.45 1030.57,-1874.45 998.861,-1860.9 946,-1907.45 925.383,-1925.6 916.909,-1956.61 913.427,-1979.29"/>
<polygon fill="green" stroke="green" points="909.937,-1978.99 912.12,-1989.36 916.879,-1979.89 909.937,-1978.99"/>
<text text-anchor="middle" x="1652" y="-1868.25" font-family="Times,serif" font-size="14.00">init_back_link</text>
</g>
<!-- q9&#45;&gt;q0 -->
<g id="edge77" class="edge"><title>q9&#45;&gt;q0</title>
<path fill="none" stroke="green" d="M2399.92,-1802.45C2363.41,-1802.45 2275.06,-1802.45 2201,-1802.45 1871,-1802.45 1871,-1802.45 1871,-1802.45 1675.75,-1802.45 1628.25,-1836.45 1433,-1836.45 1101,-1836.45 1101,-1836.45 1101,-1836.45 1030.57,-1836.45 996.756,-1820.61 946,-1869.45 930.423,-1884.43 919.793,-1943.36 914.622,-1979.19"/>
<polygon fill="green" stroke="green" points="911.1,-1979.11 913.193,-1989.49 918.034,-1980.07 911.1,-1979.11"/>
<text text-anchor="middle" x="1652" y="-1830.25" font-family="Times,serif" font-size="14.00">reverse_dll</text>
</g>
<!-- q9&#45;&gt;q0 -->
<g id="edge78" class="edge"><title>q9&#45;&gt;q0</title>
<path fill="none" stroke="green" d="M2400.64,-1797.56C2364.82,-1787.29 2276.58,-1764.45 2201,-1764.45 1871,-1764.45 1871,-1764.45 1871,-1764.45 1675.75,-1764.45 1628.25,-1798.45 1433,-1798.45 1101,-1798.45 1101,-1798.45 1101,-1798.45 1030.66,-1798.45 995.53,-1780.5 946,-1830.45 925.522,-1851.1 916.337,-1934.92 912.836,-1979.4"/>
<polygon fill="green" stroke="green" points="909.333,-1979.31 912.083,-1989.54 916.314,-1979.83 909.333,-1979.31"/>
<text text-anchor="middle" x="1652" y="-1792.25" font-family="Times,serif" font-size="14.00">remove_fw_link</text>
</g>
<!-- q9&#45;&gt;q0 -->
<g id="edge80" class="edge"><title>q9&#45;&gt;q0</title>
<path fill="none" stroke="green" d="M2402.59,-1792.39C2390.2,-1784.14 2371.6,-1772.69 2354,-1765.45 2289.1,-1738.75 2271.17,-1726.45 2201,-1726.45 1871,-1726.45 1871,-1726.45 1871,-1726.45 1675.75,-1726.45 1628.25,-1760.45 1433,-1760.45 1101,-1760.45 1101,-1760.45 1101,-1760.45 1030.75,-1760.45 994.755,-1740.87 946,-1791.45 920.648,-1817.75 913.634,-1926.44 911.714,-1978.88"/>
<polygon fill="green" stroke="green" points="908.206,-1979.06 911.376,-1989.17 915.202,-1979.29 908.206,-1979.06"/>
<text text-anchor="middle" x="1652" y="-1754.25" font-family="Times,serif" font-size="14.00">check_seq_prev</text>
</g>
<!-- q9&#45;&gt;q0 -->
<g id="edge81" class="edge"><title>q9&#45;&gt;q0</title>
<path fill="none" stroke="green" d="M2408.1,-1787.27C2397.4,-1770.35 2377.86,-1743.43 2354,-1728.45 2294.47,-1691.08 2271.29,-1688.45 2201,-1688.45 1871,-1688.45 1871,-1688.45 1871,-1688.45 1675.75,-1688.45 1628.25,-1722.45 1433,-1722.45 1101,-1722.45 1101,-1722.45 1101,-1722.45 1030.75,-1722.45 994.152,-1702.29 946,-1753.45 915.769,-1785.56 911.369,-1920.16 910.923,-1979.33"/>
<polygon fill="green" stroke="green" points="907.423,-1979.45 910.881,-1989.46 914.423,-1979.48 907.423,-1979.45"/>
<text text-anchor="middle" x="1652" y="-1716.25" font-family="Times,serif" font-size="14.00">Learn_Assert</text>
</g>
<!-- q9&#45;&gt;q8 -->
<g id="edge79" class="edge"><title>q9&#45;&gt;q8</title>
<path fill="none" stroke="green" d="M2434.4,-1810.95C2465.56,-1829.03 2536.02,-1874.52 2570,-1933.45 2598.16,-1982.28 2604.17,-2049.52 2605.16,-2087.1"/>
<polygon fill="green" stroke="green" points="2601.66,-2087.37 2605.32,-2097.31 2608.66,-2087.26 2601.66,-2087.37"/>
<text text-anchor="middle" x="2526" y="-1937.25" font-family="Times,serif" font-size="14.00">check_seq_next</text>
</g>
<!-- q10 -->
<g id="node12" class="node"><title>q10</title>
<ellipse fill="none" stroke="green" cx="2200" cy="-1475.45" rx="18" ry="18"/>
<text text-anchor="middle" x="2200" y="-1471.75" font-family="Times,serif" font-size="14.00">D</text>
</g>
<!-- q10&#45;&gt;q0 -->
<g id="edge82" class="edge"><title>q10&#45;&gt;q0</title>
<path fill="none" stroke="green" d="M2197.63,-1493.55C2194.1,-1526.21 2181.61,-1594.59 2138,-1626.45 2122.14,-1638.03 1452.64,-1679.45 1433,-1679.45 1101,-1679.45 1101,-1679.45 1101,-1679.45 1030.92,-1679.45 993.833,-1657.22 946,-1708.45 927.716,-1728.03 916.269,-1908.04 912.435,-1978.94"/>
<polygon fill="green" stroke="green" points="908.918,-1979.17 911.886,-1989.34 915.909,-1979.54 908.918,-1979.17"/>
<text text-anchor="middle" x="1542" y="-1680.25" font-family="Times,serif" font-size="14.00">chain_node</text>
</g>
<!-- q10&#45;&gt;q0 -->
<g id="edge83" class="edge"><title>q10&#45;&gt;q0</title>
<path fill="none" stroke="green" d="M2195.24,-1492.86C2188.63,-1518.75 2172.24,-1566.68 2138,-1588.45 2071.79,-1630.54 1511.46,-1628.45 1433,-1628.45 1101,-1628.45 1101,-1628.45 1101,-1628.45 1029.51,-1628.45 992.164,-1616.86 946,-1671.45 926.282,-1694.76 915.483,-1902.51 912.141,-1979.18"/>
<polygon fill="green" stroke="green" points="908.63,-1979.36 911.701,-1989.5 915.623,-1979.66 908.63,-1979.36"/>
<text text-anchor="middle" x="1542" y="-1632.25" font-family="Times,serif" font-size="14.00">create_sll</text>
</g>
<!-- q10&#45;&gt;q0 -->
<g id="edge85" class="edge"><title>q10&#45;&gt;q0</title>
<path fill="none" stroke="green" d="M2189.95,-1490.45C2179.58,-1506.09 2161.02,-1529.76 2138,-1540.45 1853.43,-1672.61 1746.76,-1577.45 1433,-1577.45 1101,-1577.45 1101,-1577.45 1101,-1577.45 1029.01,-1577.45 991.474,-1568.64 946,-1624.45 923.725,-1651.78 914.38,-1894.78 911.793,-1978.92"/>
<polygon fill="green" stroke="green" points="908.291,-1978.94 911.491,-1989.04 915.288,-1979.15 908.291,-1978.94"/>
<text text-anchor="middle" x="1542" y="-1589.25" font-family="Times,serif" font-size="14.00">reverse_dll</text>
</g>
<!-- q10&#45;&gt;q0 -->
<g id="edge86" class="edge"><title>q10&#45;&gt;q0</title>
<path fill="none" stroke="green" d="M2183.05,-1481.91C2147.67,-1495.63 2059.68,-1526.45 1983,-1526.45 1101,-1526.45 1101,-1526.45 1101,-1526.45 1029.01,-1526.45 991.176,-1517.4 946,-1573.45 920.586,-1604.98 913.195,-1887.82 911.461,-1979.15"/>
<polygon fill="green" stroke="green" points="907.958,-1979.24 911.276,-1989.31 914.957,-1979.37 907.958,-1979.24"/>
<text text-anchor="middle" x="1542" y="-1530.25" font-family="Times,serif" font-size="14.00">remove_fw_link</text>
</g>
<!-- q10&#45;&gt;q0 -->
<g id="edge87" class="edge"><title>q10&#45;&gt;q0</title>
<path fill="none" stroke="green" d="M2181.92,-1475.45C2145.41,-1475.45 2057.06,-1475.45 1983,-1475.45 1101,-1475.45 1101,-1475.45 1101,-1475.45 1029.01,-1475.45 990.94,-1466.21 946,-1522.45 917.426,-1558.2 912.147,-1881.44 911.2,-1979.42"/>
<polygon fill="green" stroke="green" points="907.7,-1979.43 911.111,-1989.47 914.7,-1979.5 907.7,-1979.43"/>
<text text-anchor="middle" x="1542" y="-1479.25" font-family="Times,serif" font-size="14.00">check_seq_next</text>
</g>
<!-- q10&#45;&gt;q0 -->
<g id="edge88" class="edge"><title>q10&#45;&gt;q0</title>
<path fill="none" stroke="green" d="M2183.05,-1468.99C2147.67,-1455.26 2059.68,-1424.45 1983,-1424.45 1101,-1424.45 1101,-1424.45 1101,-1424.45 1029.01,-1424.45 990.747,-1415.06 946,-1471.45 914.298,-1511.4 911.219,-1874.46 910.994,-1979.25"/>
<polygon fill="green" stroke="green" points="907.494,-1979.38 910.98,-1989.38 914.494,-1979.39 907.494,-1979.38"/>
<text text-anchor="middle" x="1542" y="-1428.25" font-family="Times,serif" font-size="14.00">check_seq_prev</text>
</g>
<!-- q10&#45;&gt;q0 -->
<g id="edge89" class="edge"><title>q10&#45;&gt;q0</title>
<path fill="none" stroke="green" d="M2186.33,-1463.41C2174.58,-1452.76 2156.2,-1437.41 2138,-1427.45 2074.01,-1392.41 2055.95,-1373.45 1983,-1373.45 1651,-1373.45 1651,-1373.45 1651,-1373.45 1493.99,-1373.45 1056.64,-1309.03 946,-1420.45 926.096,-1440.49 914.444,-1864.76 911.656,-1979.21"/>
<polygon fill="green" stroke="green" points="908.155,-1979.22 911.414,-1989.3 915.153,-1979.38 908.155,-1979.22"/>
<text text-anchor="middle" x="1542" y="-1375.25" font-family="Times,serif" font-size="14.00">Learn_Assert</text>
</g>
<!-- q10&#45;&gt;q9 -->
<g id="edge84" class="edge"><title>q10&#45;&gt;q9</title>
<path fill="none" stroke="green" d="M2213.48,-1487.87C2241.48,-1516.23 2310.26,-1588.8 2354,-1659.45 2377.63,-1697.62 2397.04,-1746.2 2407.8,-1775.77"/>
<polygon fill="green" stroke="green" points="2404.58,-1777.16 2411.25,-1785.4 2411.17,-1774.8 2404.58,-1777.16"/>
<text text-anchor="middle" x="2308" y="-1663.25" font-family="Times,serif" font-size="14.00">init_back_link</text>
</g>
<!-- q11 -->
<g id="node13" class="node"><title>q11</title>
<ellipse fill="none" stroke="black" cx="1982" cy="-1213.45" rx="18" ry="18"/>
<text text-anchor="middle" x="1982" y="-1209.75" font-family="Times,serif" font-size="14.00">D</text>
</g>
<!-- q11&#45;&gt;q0 -->
<g id="edge90" class="edge"><title>q11&#45;&gt;q0</title>
<path fill="none" stroke="green" d="M1974.64,-1230.2C1965.61,-1251.4 1946.88,-1287.1 1918,-1303.45 1823.78,-1356.77 1021.98,-1294.33 946,-1371.45 924.386,-1393.38 913.884,-1858.85 911.523,-1979.23"/>
<polygon fill="green" stroke="green" points="908.019,-1979.4 911.325,-1989.47 915.018,-1979.54 908.019,-1979.4"/>
<text text-anchor="middle" x="1432" y="-1333.25" font-family="Times,serif" font-size="14.00">chain_node</text>
</g>
<!-- q11&#45;&gt;q0 -->
<g id="edge91" class="edge"><title>q11&#45;&gt;q0</title>
<path fill="none" stroke="green" d="M1969.51,-1226.79C1957.91,-1239.23 1938.79,-1257.08 1918,-1265.45 1817.52,-1305.89 1021.46,-1261.74 946,-1339.45 923.396,-1362.72 913.583,-1854.53 911.456,-1979.01"/>
<polygon fill="green" stroke="green" points="907.953,-1979.2 911.284,-1989.26 914.952,-1979.32 907.953,-1979.2"/>
<text text-anchor="middle" x="1432" y="-1293.25" font-family="Times,serif" font-size="14.00">create_sll</text>
</g>
<!-- q11&#45;&gt;q0 -->
<g id="edge92" class="edge"><title>q11&#45;&gt;q0</title>
<path fill="none" stroke="green" d="M1964.27,-1217.83C1951.65,-1220.98 1933.85,-1225.07 1918,-1227.45 1916.52,-1227.67 1057.5,-1295.31 1056,-1295.45 1007.06,-1299.82 979.867,-1270.85 946,-1306.45 922.434,-1331.22 913.286,-1851.45 911.39,-1979.27"/>
<polygon fill="green" stroke="green" points="907.888,-1979.38 911.242,-1989.43 914.887,-1979.48 907.888,-1979.38"/>
<text text-anchor="middle" x="1432" y="-1273.25" font-family="Times,serif" font-size="14.00">init_back_link</text>
</g>
<!-- q11&#45;&gt;q0 -->
<g id="edge93" class="edge"><title>q11&#45;&gt;q0</title>
<path fill="none" stroke="green" d="M1963.97,-1213.29C1835.34,-1212.25 1019.38,-1208.73 946,-1285.45 921.636,-1310.92 913.078,-1847.92 911.349,-1978.85"/>
<polygon fill="green" stroke="green" points="907.844,-1979.2 911.215,-1989.24 914.844,-1979.29 907.844,-1979.2"/>
<text text-anchor="middle" x="1432" y="-1226.25" font-family="Times,serif" font-size="14.00">reverse_dll</text>
</g>
<!-- q11&#45;&gt;q0 -->
<g id="edge94" class="edge"><title>q11&#45;&gt;q0</title>
<path fill="none" stroke="green" d="M1963.9,-1212.16C1951.23,-1211.26 1933.55,-1210.1 1918,-1209.45 1554.34,-1194.19 1497.05,-1194.57 1386,-1200.45 1238.72,-1208.24 1202.42,-1217.7 1056,-1235.45 1007.02,-1241.38 979.297,-1214.03 946,-1250.45 920.957,-1277.83 912.869,-1845.12 911.303,-1979.22"/>
<polygon fill="green" stroke="green" points="907.8,-1979.44 911.186,-1989.48 914.8,-1979.52 907.8,-1979.44"/>
<text text-anchor="middle" x="1432" y="-1204.25" font-family="Times,serif" font-size="14.00">remove_fw_link</text>
</g>
<!-- q11&#45;&gt;q0 -->
<g id="edge96" class="edge"><title>q11&#45;&gt;q0</title>
<path fill="none" stroke="green" d="M1964.23,-1209.96C1951.58,-1207.47 1933.77,-1204.25 1918,-1202.45 1703.32,-1177.94 1093.66,-1069.7 946,-1227.45 919.817,-1255.42 912.581,-1842.55 911.249,-1979.2"/>
<polygon fill="green" stroke="green" points="907.748,-1979.26 911.153,-1989.29 914.748,-1979.33 907.748,-1979.26"/>
<text text-anchor="middle" x="1432" y="-1155.25" font-family="Times,serif" font-size="14.00">check_seq_prev</text>
</g>
<!-- q11&#45;&gt;q0 -->
<g id="edge97" class="edge"><title>q11&#45;&gt;q0</title>
<path fill="none" stroke="green" d="M1965.6,-1205.78C1953.07,-1199.88 1934.79,-1191.98 1918,-1187.45 1594.68,-1100.24 1500.25,-1119.94 1166,-1140.45 1067.44,-1146.49 1009.53,-1095.85 946,-1171.45 919.47,-1203.01 912.467,-1836.39 911.223,-1979.07"/>
<polygon fill="green" stroke="green" points="907.722,-1979.17 911.138,-1989.2 914.722,-1979.23 907.722,-1979.17"/>
<text text-anchor="middle" x="1432" y="-1130.25" font-family="Times,serif" font-size="14.00">Learn_Assert</text>
</g>
<!-- q11&#45;&gt;q10 -->
<g id="edge95" class="edge"><title>q11&#45;&gt;q10</title>
<path fill="none" stroke="green" d="M1997.64,-1222.62C2027.49,-1241.94 2096.07,-1289.57 2138,-1344.45 2162.72,-1376.79 2180.61,-1420.77 2190.4,-1448.63"/>
<polygon fill="green" stroke="green" points="2187.21,-1450.13 2193.75,-1458.46 2193.83,-1447.87 2187.21,-1450.13"/>
<text text-anchor="middle" x="2092" y="-1348.25" font-family="Times,serif" font-size="14.00">check_seq_next</text>
</g>
<!-- q12 -->
<g id="node14" class="node"><title>q12</title>
<ellipse fill="none" stroke="black" cx="1762" cy="-974.446" rx="18" ry="18"/>
<text text-anchor="middle" x="1762" y="-970.746" font-family="Times,serif" font-size="14.00">D</text>
</g>
<!-- q12&#45;&gt;q0 -->
<g id="edge99" class="edge"><title>q12&#45;&gt;q0</title>
<path fill="none" stroke="green" d="M1751.14,-989.117C1740.13,-1004.14 1720.83,-1026.76 1698,-1037.45 1546.03,-1108.58 1061.56,-983.789 946,-1105.45 915.201,-1137.87 911.499,-1829.75 911.059,-1979.16"/>
<polygon fill="green" stroke="green" points="907.559,-1979.33 911.032,-1989.34 914.558,-1979.35 907.559,-1979.33"/>
<text text-anchor="middle" x="1322" y="-1059.25" font-family="Times,serif" font-size="14.00">create_sll</text>
</g>
<!-- q12&#45;&gt;q0 -->
<g id="edge100" class="edge"><title>q12&#45;&gt;q0</title>
<path fill="none" stroke="green" d="M1744.27,-978.782C1731.63,-981.903 1713.83,-985.983 1698,-988.446 1414.91,-1032.5 1341.08,-1018.02 1056,-1046.45 1007.06,-1051.33 979.504,-1022.45 946,-1058.45 913.848,-1092.99 911.211,-1825.14 911.013,-1979.16"/>
<polygon fill="green" stroke="green" points="907.513,-1979.23 911.002,-1989.24 914.513,-1979.24 907.513,-1979.23"/>
<text text-anchor="middle" x="1322" y="-1033.25" font-family="Times,serif" font-size="14.00">init_back_link</text>
</g>
<!-- q12&#45;&gt;q0 -->
<g id="edge101" class="edge"><title>q12&#45;&gt;q0</title>
<path fill="none" stroke="green" d="M1743.76,-974.446C1706.91,-974.446 1617.75,-974.446 1543,-974.446 1101,-974.446 1101,-974.446 1101,-974.446 1026.8,-974.446 988.696,-975.767 946,-1036.45 918.183,-1075.98 912.119,-1823.37 911.155,-1979.15"/>
<polygon fill="green" stroke="green" points="907.655,-1979.3 911.095,-1989.32 914.654,-1979.34 907.655,-1979.3"/>
<text text-anchor="middle" x="1322" y="-978.246" font-family="Times,serif" font-size="14.00">reverse_dll</text>
</g>
<!-- q12&#45;&gt;q0 -->
<g id="edge102" class="edge"><title>q12&#45;&gt;q0</title>
<path fill="none" stroke="green" d="M1744.89,-967.987C1709.17,-954.264 1620.35,-923.446 1543,-923.446 1101,-923.446 1101,-923.446 1101,-923.446 1028.62,-923.446 989.592,-915.66 946,-973.446 914.872,-1014.71 911.425,-1817.92 911.046,-1979.34"/>
<polygon fill="green" stroke="green" points="907.546,-1979.42 911.025,-1989.43 914.546,-1979.44 907.546,-1979.42"/>
<text text-anchor="middle" x="1322" y="-927.246" font-family="Times,serif" font-size="14.00">remove_fw_link</text>
</g>
<!-- q12&#45;&gt;q0 -->
<g id="edge104" class="edge"><title>q12&#45;&gt;q0</title>
<path fill="none" stroke="green" d="M1747.85,-962.433C1735.66,-951.805 1716.65,-936.471 1698,-926.446 1633.74,-891.911 1615.95,-872.446 1543,-872.446 1101,-872.446 1101,-872.446 1101,-872.446 1028.88,-872.446 989.721,-863.094 946,-920.446 912.99,-963.748 911.052,-1811.76 910.991,-1978.96"/>
<polygon fill="green" stroke="green" points="907.491,-1979.39 910.989,-1989.39 914.491,-1979.39 907.491,-1979.39"/>
<text text-anchor="middle" x="1322" y="-876.246" font-family="Times,serif" font-size="14.00">check_seq_prev</text>
</g>
<!-- q12&#45;&gt;q0 -->
<g id="edge105" class="edge"><title>q12&#45;&gt;q0</title>
<path fill="none" stroke="green" d="M1754.34,-958.019C1744.86,-936.597 1725.53,-899.289 1698,-877.446 1640.62,-831.919 1616.25,-821.446 1543,-821.446 1101,-821.446 1101,-821.446 1101,-821.446 1029.01,-821.446 989.768,-811.294 946,-868.446 911.204,-913.882 910.717,-1807.94 910.944,-1979.22"/>
<polygon fill="green" stroke="green" points="907.444,-1979.44 910.959,-1989.44 914.444,-1979.43 907.444,-1979.44"/>
<text text-anchor="middle" x="1322" y="-825.246" font-family="Times,serif" font-size="14.00">Learn_Assert</text>
</g>
<!-- q12&#45;&gt;q10 -->
<g id="edge103" class="edge"><title>q12&#45;&gt;q10</title>
<path fill="none" stroke="green" d="M1780.06,-974.388C1809.99,-975.006 1873.05,-979.573 1918,-1005.45 2045.99,-1079.11 2067.66,-1124.6 2138,-1254.45 2172.69,-1318.49 2188.96,-1403.9 2195.41,-1447.4"/>
<polygon fill="green" stroke="green" points="2191.98,-1448.11 2196.85,-1457.52 2198.91,-1447.13 2191.98,-1448.11"/>
<text text-anchor="middle" x="1982" y="-1087.25" font-family="Times,serif" font-size="14.00">check_seq_next</text>
</g>
<!-- q12&#45;&gt;q11 -->
<g id="edge98" class="edge"><title>q12&#45;&gt;q11</title>
<path fill="none" stroke="green" d="M1778.24,-982.374C1813.06,-1000.72 1897.08,-1046.38 1918,-1070.45 1947.74,-1104.66 1965.5,-1155.14 1974.25,-1186.07"/>
<polygon fill="green" stroke="green" points="1970.88,-1187.02 1976.87,-1195.76 1977.63,-1185.19 1970.88,-1187.02"/>
<text text-anchor="middle" x="1872" y="-1074.25" font-family="Times,serif" font-size="14.00">chain_node</text>
</g>
<!-- q13 -->
<g id="node15" class="node"><title>q13</title>
<ellipse fill="none" stroke="green" cx="1542" cy="-699.446" rx="18" ry="18"/>
<text text-anchor="middle" x="1542" y="-695.746" font-family="Times,serif" font-size="14.00">D</text>
</g>
<!-- q13&#45;&gt;q0 -->
<g id="edge107" class="edge"><title>q13&#45;&gt;q0</title>
<path fill="none" stroke="green" d="M1529.45,-712.66C1517.82,-724.998 1498.66,-742.773 1478,-751.446 1368.39,-797.46 1026.82,-720.267 946,-807.446 925.421,-829.646 913.363,-1800.36 911.313,-1979.26"/>
<polygon fill="green" stroke="green" points="907.811,-1979.4 911.198,-1989.44 914.811,-1979.48 907.811,-1979.4"/>
<text text-anchor="middle" x="1212" y="-770.246" font-family="Times,serif" font-size="14.00">create_sll</text>
</g>
<!-- q13&#45;&gt;q0 -->
<g id="edge108" class="edge"><title>q13&#45;&gt;q0</title>
<path fill="none" stroke="green" d="M1524.26,-703.74C1511.62,-706.841 1493.82,-710.912 1478,-713.446 1419.34,-722.843 986.477,-722.968 946,-766.446 924.636,-789.395 913.189,-1796.39 911.285,-1979.15"/>
<polygon fill="green" stroke="green" points="907.784,-1979.27 911.18,-1989.31 914.783,-1979.34 907.784,-1979.27"/>
<text text-anchor="middle" x="1212" y="-734.246" font-family="Times,serif" font-size="14.00">init_back_link</text>
</g>
<!-- q13&#45;&gt;q0 -->
<g id="edge109" class="edge"><title>q13&#45;&gt;q0</title>
<path fill="none" stroke="green" d="M1524.02,-697.553C1435.16,-688.055 1024.62,-649.451 946,-737.446 924.59,-761.41 913.151,-1794.74 911.276,-1979.37"/>
<polygon fill="green" stroke="green" points="907.776,-1979.34 911.175,-1989.38 914.776,-1979.41 907.776,-1979.34"/>
<text text-anchor="middle" x="1212" y="-686.246" font-family="Times,serif" font-size="14.00">reverse_dll</text>
</g>
<!-- q13&#45;&gt;q0 -->
<g id="edge110" class="edge"><title>q13&#45;&gt;q0</title>
<path fill="none" stroke="green" d="M1524.6,-694.182C1511.98,-690.34 1494.06,-685.321 1478,-682.446 1361.6,-661.613 1024.74,-605.231 946,-693.446 923.837,-718.276 912.997,-1789.62 911.253,-1979"/>
<polygon fill="green" stroke="green" points="907.751,-1979.22 911.16,-1989.25 914.751,-1979.28 907.751,-1979.22"/>
<text text-anchor="middle" x="1212" y="-655.246" font-family="Times,serif" font-size="14.00">remove_fw_link</text>
</g>
<!-- q13&#45;&gt;q0 -->
<g id="edge112" class="edge"><title>q13&#45;&gt;q0</title>
<path fill="none" stroke="green" d="M1526.65,-689.604C1514.3,-681.6 1495.71,-670.65 1478,-664.446 1366.38,-625.355 1026.48,-562.785 946,-649.446 922.545,-674.703 912.737,-1786.85 911.214,-1979.24"/>
<polygon fill="green" stroke="green" points="907.713,-1979.36 911.135,-1989.39 914.713,-1979.42 907.713,-1979.36"/>
<text text-anchor="middle" x="1212" y="-620.246" font-family="Times,serif" font-size="14.00">check_seq_prev</text>
</g>
<!-- q13&#45;&gt;q0 -->
<g id="edge113" class="edge"><title>q13&#45;&gt;q0</title>
<path fill="none" stroke="green" d="M1530.66,-685.043C1519.4,-670.464 1500.02,-648.415 1478,-636.446 1373.98,-579.898 1027.32,-521.389 946,-607.446 921.558,-633.313 912.545,-1783.54 911.187,-1979.28"/>
<polygon fill="green" stroke="green" points="907.686,-1979.32 911.118,-1989.34 914.686,-1979.36 907.686,-1979.32"/>
<text text-anchor="middle" x="1212" y="-579.246" font-family="Times,serif" font-size="14.00">Learn_Assert</text>
</g>
<!-- q13&#45;&gt;q10 -->
<g id="edge111" class="edge"><title>q13&#45;&gt;q10</title>
<path fill="none" stroke="green" d="M1560.16,-699.811C1589.72,-701.044 1651.54,-706.304 1698,-728.446 1929.69,-838.862 2011.77,-878.981 2138,-1102.45 2171.53,-1161.8 2190.82,-1370.53 2196.89,-1447.05"/>
<polygon fill="green" stroke="green" points="2193.43,-1447.65 2197.69,-1457.35 2200.41,-1447.11 2193.43,-1447.65"/>
<text text-anchor="middle" x="1872" y="-847.246" font-family="Times,serif" font-size="14.00">check_seq_next</text>
</g>
<!-- q13&#45;&gt;q12 -->
<g id="edge106" class="edge"><title>q13&#45;&gt;q12</title>
<path fill="none" stroke="green" d="M1558.37,-706.959C1593.49,-724.377 1678.07,-767.898 1698,-792.446 1735.37,-838.483 1751.19,-908.068 1757.39,-946.489"/>
<polygon fill="green" stroke="green" points="1753.94,-947.088 1758.9,-956.454 1760.87,-946.044 1753.94,-947.088"/>
<text text-anchor="middle" x="1652" y="-796.246" font-family="Times,serif" font-size="14.00">chain_node</text>
</g>
<!-- q14 -->
<g id="node16" class="node"><title>q14</title>
<ellipse fill="none" stroke="green" cx="1322" cy="-389.446" rx="18" ry="18"/>
<text text-anchor="middle" x="1322" y="-385.746" font-family="Times,serif" font-size="14.00">D</text>
</g>
<!-- q14&#45;&gt;q0 -->
<g id="edge115" class="edge"><title>q14&#45;&gt;q0</title>
<path fill="none" stroke="green" d="M1316.63,-406.67C1309.17,-432.399 1291.43,-480.509 1258,-505.446 1144.39,-590.188 1036.59,-462.437 946,-571.446 922.646,-599.55 912.713,-1780.52 911.206,-1979.21"/>
<polygon fill="green" stroke="green" points="907.705,-1979.39 911.129,-1989.41 914.704,-1979.44 907.705,-1979.39"/>
<text text-anchor="middle" x="1102" y="-540.246" font-family="Times,serif" font-size="14.00">create_sll</text>
</g>
<!-- q14&#45;&gt;q0 -->
<g id="edge116" class="edge"><title>q14&#45;&gt;q0</title>
<path fill="none" stroke="green" d="M1310.97,-404.031C1299.82,-419.069 1280.4,-442.025 1258,-454.446 1133.96,-523.222 1036.43,-412.189 946,-521.446 921.853,-550.62 912.557,-1776.4 911.183,-1979.17"/>
<polygon fill="green" stroke="green" points="907.683,-1979.29 911.116,-1989.31 914.683,-1979.34 907.683,-1979.29"/>
<text text-anchor="middle" x="1102" y="-482.246" font-family="Times,serif" font-size="14.00">init_back_link</text>
</g>
<!-- q14&#45;&gt;q0 -->
<g id="edge117" class="edge"><title>q14&#45;&gt;q0</title>
<path fill="none" stroke="green" d="M1304.17,-393.265C1291.49,-396.123 1273.67,-400.099 1258,-403.446 1188.79,-418.235 991.357,-413.113 946,-467.446 920.797,-497.637 912.356,-1773.24 911.155,-1979.43"/>
<polygon fill="green" stroke="green" points="907.655,-1979.44 911.098,-1989.46 914.655,-1979.48 907.655,-1979.44"/>
<text text-anchor="middle" x="1102" y="-429.246" font-family="Times,serif" font-size="14.00">reverse_dll</text>
</g>
<!-- q14&#45;&gt;q0 -->
<g id="edge118" class="edge"><title>q14&#45;&gt;q0</title>
<path fill="none" stroke="green" d="M1303.96,-388.075C1236.65,-383.086 990.881,-369.009 946,-425.446 920.842,-457.083 912.357,-1768.32 911.155,-1979.01"/>
<polygon fill="green" stroke="green" points="907.653,-1979.23 911.097,-1989.25 914.653,-1979.27 907.653,-1979.23"/>
<text text-anchor="middle" x="1102" y="-392.246" font-family="Times,serif" font-size="14.00">remove_fw_link</text>
</g>
<!-- q14&#45;&gt;q0 -->
<g id="edge119" class="edge"><title>q14&#45;&gt;q0</title>
<path fill="none" stroke="green" d="M1304.01,-386.156C1236.93,-373.617 991.863,-332.231 946,-387.446 919.512,-419.335 912.127,-1766.63 911.125,-1979.31"/>
<polygon fill="green" stroke="green" points="907.625,-1979.34 911.078,-1989.36 914.625,-1979.38 907.625,-1979.34"/>
<text text-anchor="middle" x="1102" y="-368.246" font-family="Times,serif" font-size="14.00">check_seq_next</text>
</g>
<!-- q14&#45;&gt;q0 -->
<g id="edge120" class="edge"><title>q14&#45;&gt;q0</title>
<path fill="none" stroke="green" d="M1305.56,-381.712C1293.02,-375.705 1274.73,-367.562 1258,-362.446 1191.69,-342.168 992.153,-304.69 946,-356.446 917.867,-387.994 911.863,-1763.3 911.093,-1979.09"/>
<polygon fill="green" stroke="green" points="907.593,-1979.27 911.058,-1989.28 914.593,-1979.29 907.593,-1979.27"/>
<text text-anchor="middle" x="1102" y="-343.246" font-family="Times,serif" font-size="14.00">check_seq_prev</text>
</g>
<!-- q14&#45;&gt;q0 -->
<g id="edge121" class="edge"><title>q14&#45;&gt;q0</title>
<path fill="none" stroke="green" d="M1308.67,-376.647C1296.76,-365.008 1277.66,-348.204 1258,-338.446 1195.85,-307.605 992.169,-274.652 946,-326.446 917.348,-358.59 911.778,-1760.33 911.083,-1978.92"/>
<polygon fill="green" stroke="green" points="907.582,-1979.22 911.051,-1989.23 914.582,-1979.24 907.582,-1979.22"/>
<text text-anchor="middle" x="1102" y="-312.246" font-family="Times,serif" font-size="14.00">Learn_Assert</text>
</g>
<!-- q14&#45;&gt;q13 -->
<g id="edge114" class="edge"><title>q14&#45;&gt;q13</title>
<path fill="none" stroke="green" d="M1336.2,-400.814C1365.08,-426.243 1434.76,-490.669 1478,-556.446 1502.66,-593.961 1521.77,-642.731 1532.19,-672.528"/>
<polygon fill="green" stroke="green" points="1528.96,-673.9 1535.51,-682.227 1535.58,-671.632 1528.96,-673.9"/>
<text text-anchor="middle" x="1432" y="-560.246" font-family="Times,serif" font-size="14.00">chain_node</text>
</g>
<!-- q15&#45;&gt;q0 -->
<g id="edge123" class="edge"><title>q15&#45;&gt;q0</title>
<path fill="none" stroke="green" d="M1089.35,-170.72C1077.64,-183.201 1058.43,-201.421 1038,-211.446 1000.52,-229.838 972.686,-198.337 946,-230.446 916.831,-265.543 911.682,-1754.02 911.07,-1979.07"/>
<polygon fill="green" stroke="green" points="907.569,-1979.36 911.043,-1989.37 914.569,-1979.38 907.569,-1979.36"/>
<text text-anchor="middle" x="992" y="-234.246" font-family="Times,serif" font-size="14.00">create_sll</text>
</g>
<!-- q15&#45;&gt;q0 -->
<g id="edge124" class="edge"><title>q15&#45;&gt;q0</title>
<path fill="none" stroke="green" d="M1084.47,-161.862C1071.79,-165.195 1053.84,-169.802 1038,-173.446 997.312,-182.81 972.68,-160.331 946,-192.446 916.185,-228.336 911.579,-1751.7 911.058,-1979.16"/>
<polygon fill="green" stroke="green" points="907.557,-1979.27 911.035,-1989.28 914.557,-1979.29 907.557,-1979.27"/>
<text text-anchor="middle" x="992" y="-196.246" font-family="Times,serif" font-size="14.00">init_back_link</text>
</g>
<!-- q15&#45;&gt;q0 -->
<g id="edge125" class="edge"><title>q15&#45;&gt;q0</title>
<path fill="none" stroke="green" d="M1084.21,-154.277C1048.17,-147.907 965.114,-135.69 946,-154.446 911.965,-187.844 910.952,-1749.09 910.988,-1979.23"/>
<polygon fill="green" stroke="green" points="907.488,-1979.46 910.99,-1989.46 914.488,-1979.46 907.488,-1979.46"/>
<text text-anchor="middle" x="992" y="-158.246" font-family="Times,serif" font-size="14.00">reverse_dll</text>
</g>
<!-- q15&#45;&gt;q0 -->
<g id="edge126" class="edge"><title>q15&#45;&gt;q0</title>
<path fill="none" stroke="green" d="M1086.71,-147.532C1056.29,-127.744 984.777,-88.3839 946,-126.446 911.439,-160.37 910.876,-1746.76 910.98,-1979.15"/>
<polygon fill="green" stroke="green" points="907.479,-1979.19 910.985,-1989.18 914.479,-1979.18 907.479,-1979.19"/>
<text text-anchor="middle" x="992" y="-130.246" font-family="Times,serif" font-size="14.00">remove_fw_link</text>
</g>
<!-- q15&#45;&gt;q0 -->
<g id="edge127" class="edge"><title>q15&#45;&gt;q0</title>
<path fill="none" stroke="green" d="M1091.83,-142.478C1081.15,-126.636 1061.88,-102.556 1038,-92.4464 1000.35,-76.5043 975.176,-63.799 946,-92.4464 910.784,-127.025 910.786,-1745.4 910.97,-1979.37"/>
<polygon fill="green" stroke="green" points="907.47,-1979.46 910.979,-1989.46 914.47,-1979.45 907.47,-1979.46"/>
<text text-anchor="middle" x="992" y="-96.2464" font-family="Times,serif" font-size="14.00">check_seq_next</text>
</g>
<!-- q15&#45;&gt;q0 -->
<g id="edge128" class="edge"><title>q15&#45;&gt;q0</title>
<path fill="none" stroke="green" d="M1096.11,-140.402C1088.26,-116.622 1070.35,-74.3937 1038,-56.4464 1002.25,-36.6089 975.171,-27.7941 946,-56.4464 910.109,-91.6991 910.691,-1742.19 910.96,-1979.22"/>
<polygon fill="green" stroke="green" points="907.46,-1979.43 910.973,-1989.42 914.46,-1979.42 907.46,-1979.43"/>
<text text-anchor="middle" x="992" y="-60.2464" font-family="Times,serif" font-size="14.00">check_seq_prev</text>
</g>
<!-- q15&#45;&gt;q0 -->
<g id="edge129" class="edge"><title>q15&#45;&gt;q0</title>
<path fill="none" stroke="green" d="M1098.92,-139.567C1094.26,-108.752 1079.87,-46.3606 1038,-19.4464 1003.6,2.66208 975.166,9.21077 946,-19.4464 909.416,-55.3922 910.596,-1738.9 910.95,-1979.05"/>
<polygon fill="green" stroke="green" points="907.451,-1979.39 910.966,-1989.39 914.451,-1979.38 907.451,-1979.39"/>
<text text-anchor="middle" x="992" y="-23.2464" font-family="Times,serif" font-size="14.00">Learn_Assert</text>
</g>
<!-- q15&#45;&gt;q14 -->
<g id="edge122" class="edge"><title>q15&#45;&gt;q14</title>
<path fill="none" stroke="green" d="M1120.19,-158.155C1151.77,-160.38 1219.31,-169.567 1258,-207.446 1300.79,-249.336 1314.54,-321.681 1318.94,-361.373"/>
<polygon fill="green" stroke="green" points="1315.47,-361.81 1319.93,-371.419 1322.44,-361.123 1315.47,-361.81"/>
<text text-anchor="middle" x="1212" y="-211.246" font-family="Times,serif" font-size="14.00">chain_node</text>
</g>
<!-- iq0 -->
<g id="node18" class="node"><title>iq0</title>
</g>
<!-- iq0&#45;&gt;q0 -->
<g id="edge1" class="edge"><title>iq0&#45;&gt;q0</title>
<path fill="none" stroke="blue" d="M409.12,-1878.42C499.751,-1875.38 799.212,-1869.74 874,-1924.45 891.679,-1937.38 900.489,-1961.01 904.844,-1979.75"/>
<polygon fill="blue" stroke="blue" points="901.417,-1980.46 906.833,-1989.57 908.277,-1979.07 901.417,-1980.46"/>
</g>
</g>
</svg>
