<?xml version="1.0" encoding="UTF-8" standalone="no"?>
<!DOCTYPE svg PUBLIC "-//W3C//DTD SVG 1.1//EN"
 "http://www.w3.org/Graphics/SVG/1.1/DTD/svg11.dtd">
<!-- Generated by graphviz version 2.34.0 (20141125.1709)
 -->
<!-- Title: finite_automaton Pages: 1 -->
<svg width="576pt" height="32pt"
 viewBox="0.00 0.00 576.00 31.71" xmlns="http://www.w3.org/2000/svg" xmlns:xlink="http://www.w3.org/1999/xlink">
<g id="graph0" class="graph" transform="scale(0.172352 0.172352) rotate(0) translate(4 180)">
<title>finite_automaton</title>
<polygon fill="white" stroke="white" points="-4,4 -4,-180 3338,-180 3338,4 -4,4"/>
<!-- dom_edges -->
<g id="node1" class="node"><title>dom_edges</title>
<polygon fill="none" stroke="green" points="764,-110 0,-110 0,-74 764,-74 764,-110"/>
<text text-anchor="middle" x="382" y="-88.3" font-family="Times,serif" font-size="14.00">Dominating edges: chain_node, create_sll, init_back_link, reverse_dll, remove_fw_link, check_seq_next, check_seq_prev, Learn_Assert</text>
</g>
<!-- q1 -->
<g id="node2" class="node"><title>q1</title>
<ellipse fill="none" stroke="green" cx="3312" cy="-93" rx="18" ry="18"/>
<ellipse fill="none" stroke="green" cx="3312" cy="-93" rx="22" ry="22"/>
<text text-anchor="middle" x="3312" y="-89.3" font-family="Times,serif" font-size="14.00">D</text>
</g>
<!-- q0 -->
<g id="node3" class="node"><title>q0</title>
<ellipse fill="none" stroke="green" cx="820" cy="-146" rx="18" ry="18"/>
</g>
<!-- q13 -->
<g id="node15" class="node"><title>q13</title>
<ellipse fill="none" stroke="green" cx="944" cy="-146" rx="18" ry="18"/>
</g>
<!-- q0&#45;&gt;q13 -->
<g id="edge2" class="edge"><title>q0&#45;&gt;q13</title>
<path fill="none" stroke="green" d="M838.221,-146C858.384,-146 892.036,-146 915.753,-146"/>
<polygon fill="green" stroke="green" points="915.867,-149.5 925.867,-146 915.867,-142.5 915.867,-149.5"/>
<text text-anchor="middle" x="882" y="-149.8" font-family="Times,serif" font-size="14.00">create_sll</text>
</g>
<!-- q2 -->
<g id="node4" class="node"><title>q2</title>
<ellipse fill="none" stroke="green" cx="3162" cy="-93" rx="18" ry="18"/>
</g>
<!-- q2&#45;&gt;q1 -->
<g id="edge3" class="edge"><title>q2&#45;&gt;q1</title>
<path fill="none" stroke="green" d="M3180.27,-93C3204.55,-93 3249.2,-93 3279.49,-93"/>
<polygon fill="green" stroke="green" points="3279.55,-96.5001 3289.55,-93 3279.55,-89.5001 3279.55,-96.5001"/>
<text text-anchor="middle" x="3235" y="-96.8" font-family="Times,serif" font-size="14.00">Learn_Assert</text>
</g>
<!-- q3 -->
<g id="node5" class="node"><title>q3</title>
<ellipse fill="none" stroke="green" cx="3002" cy="-93" rx="18" ry="18"/>
</g>
<!-- q3&#45;&gt;q2 -->
<g id="edge4" class="edge"><title>q3&#45;&gt;q2</title>
<path fill="none" stroke="green" d="M3020.21,-93C3047.52,-93 3101.01,-93 3133.62,-93"/>
<polygon fill="green" stroke="green" points="3133.81,-96.5001 3143.81,-93 3133.81,-89.5001 3133.81,-96.5001"/>
<text text-anchor="middle" x="3082" y="-96.8" font-family="Times,serif" font-size="14.00">check_seq_prev</text>
</g>
<!-- q4 -->
<g id="node6" class="node"><title>q4</title>
<ellipse fill="none" stroke="green" cx="2838" cy="-93" rx="18" ry="18"/>
</g>
<!-- q4&#45;&gt;q3 -->
<g id="edge5" class="edge"><title>q4&#45;&gt;q3</title>
<path fill="none" stroke="green" d="M2856.03,-93C2884.03,-93 2940.04,-93 2973.65,-93"/>
<polygon fill="green" stroke="green" points="2973.71,-96.5001 2983.71,-93 2973.71,-89.5001 2973.71,-96.5001"/>
<text text-anchor="middle" x="2920" y="-96.8" font-family="Times,serif" font-size="14.00">remove_fw_link</text>
</g>
<!-- q5 -->
<g id="node7" class="node"><title>q5</title>
<ellipse fill="none" stroke="green" cx="2678" cy="-93" rx="18" ry="18"/>
</g>
<!-- q5&#45;&gt;q4 -->
<g id="edge6" class="edge"><title>q5&#45;&gt;q4</title>
<path fill="none" stroke="green" d="M2696.21,-93C2723.52,-93 2777.01,-93 2809.62,-93"/>
<polygon fill="green" stroke="green" points="2809.81,-96.5001 2819.81,-93 2809.81,-89.5001 2809.81,-96.5001"/>
<text text-anchor="middle" x="2758" y="-96.8" font-family="Times,serif" font-size="14.00">check_seq_next</text>
</g>
<!-- q6 -->
<g id="node8" class="node"><title>q6</title>
<ellipse fill="none" stroke="green" cx="2518" cy="-93" rx="18" ry="18"/>
</g>
<!-- q6&#45;&gt;q5 -->
<g id="edge7" class="edge"><title>q6&#45;&gt;q5</title>
<path fill="none" stroke="green" d="M2536.21,-93C2563.52,-93 2617.01,-93 2649.62,-93"/>
<polygon fill="green" stroke="green" points="2649.81,-96.5001 2659.81,-93 2649.81,-89.5001 2649.81,-96.5001"/>
<text text-anchor="middle" x="2598" y="-96.8" font-family="Times,serif" font-size="14.00">check_seq_prev</text>
</g>
<!-- q7 -->
<g id="node9" class="node"><title>q7</title>
<ellipse fill="none" stroke="green" cx="2384" cy="-93" rx="18" ry="18"/>
</g>
<!-- q7&#45;&gt;q6 -->
<g id="edge8" class="edge"><title>q7&#45;&gt;q6</title>
<path fill="none" stroke="green" d="M2402.26,-93C2424.49,-93 2463.4,-93 2489.68,-93"/>
<polygon fill="green" stroke="green" points="2489.74,-96.5001 2499.74,-93 2489.74,-89.5001 2489.74,-96.5001"/>
<text text-anchor="middle" x="2451" y="-96.8" font-family="Times,serif" font-size="14.00">reverse_dll</text>
</g>
<!-- q8 -->
<g id="node10" class="node"><title>q8</title>
<ellipse fill="none" stroke="green" cx="2224" cy="-93" rx="18" ry="18"/>
</g>
<!-- q8&#45;&gt;q7 -->
<g id="edge9" class="edge"><title>q8&#45;&gt;q7</title>
<path fill="none" stroke="green" d="M2242.21,-93C2269.52,-93 2323.01,-93 2355.62,-93"/>
<polygon fill="green" stroke="green" points="2355.81,-96.5001 2365.81,-93 2355.81,-89.5001 2355.81,-96.5001"/>
<text text-anchor="middle" x="2304" y="-96.8" font-family="Times,serif" font-size="14.00">check_seq_prev</text>
</g>
<!-- q9 -->
<g id="node11" class="node"><title>q9</title>
<ellipse fill="none" stroke="green" cx="2064" cy="-93" rx="18" ry="18"/>
</g>
<!-- q9&#45;&gt;q8 -->
<g id="edge10" class="edge"><title>q9&#45;&gt;q8</title>
<path fill="none" stroke="green" d="M2082.21,-93C2109.52,-93 2163.01,-93 2195.62,-93"/>
<polygon fill="green" stroke="green" points="2195.81,-96.5001 2205.81,-93 2195.81,-89.5001 2195.81,-96.5001"/>
<text text-anchor="middle" x="2144" y="-96.8" font-family="Times,serif" font-size="14.00">check_seq_next</text>
</g>
<!-- q10 -->
<g id="node12" class="node"><title>q10</title>
<ellipse fill="none" stroke="green" cx="1912" cy="-93" rx="18" ry="18"/>
</g>
<!-- q10&#45;&gt;q9 -->
<g id="edge11" class="edge"><title>q10&#45;&gt;q9</title>
<path fill="none" stroke="green" d="M1930.21,-93C1956.09,-93 2005.27,-93 2035.97,-93"/>
<polygon fill="green" stroke="green" points="2035.99,-96.5001 2045.99,-93 2035.99,-89.5001 2035.99,-96.5001"/>
<text text-anchor="middle" x="1988" y="-96.8" font-family="Times,serif" font-size="14.00">init_back_link</text>
</g>
<!-- q11 -->
<g id="node13" class="node"><title>q11</title>
<ellipse fill="none" stroke="green" cx="1216" cy="-146" rx="18" ry="18"/>
</g>
<!-- q11&#45;&gt;q10 -->
<g id="edge13" class="edge"><title>q11&#45;&gt;q10</title>
<path fill="none" stroke="green" d="M1233.85,-149.108C1259.19,-153.502 1308.63,-161 1351,-161 1351,-161 1351,-161 1727,-161 1795.8,-161 1814.25,-149.349 1876,-119 1880.6,-116.74 1885.21,-113.857 1889.51,-110.839"/>
<polygon fill="green" stroke="green" points="1891.9,-113.42 1897.79,-104.611 1887.69,-107.827 1891.9,-113.42"/>
<text text-anchor="middle" x="1514" y="-164.8" font-family="Times,serif" font-size="14.00">check_seq_next</text>
</g>
<!-- q15 -->
<g id="node16" class="node"><title>q15</title>
<ellipse fill="none" stroke="black" cx="1352" cy="-115" rx="18" ry="18"/>
</g>
<!-- q11&#45;&gt;q15 -->
<g id="edge12" class="edge"><title>q11&#45;&gt;q15</title>
<path fill="none" stroke="green" d="M1232.78,-138.866C1238.71,-136.406 1245.58,-133.814 1252,-132 1275.9,-125.25 1303.84,-120.749 1323.94,-118.084"/>
<polygon fill="green" stroke="green" points="1324.46,-121.546 1333.94,-116.822 1323.58,-114.601 1324.46,-121.546"/>
<text text-anchor="middle" x="1284" y="-135.8" font-family="Times,serif" font-size="14.00">chain_node</text>
</g>
<!-- q12 -->
<g id="node14" class="node"><title>q12</title>
<ellipse fill="none" stroke="green" cx="1080" cy="-146" rx="18" ry="18"/>
</g>
<!-- q12&#45;&gt;q11 -->
<g id="edge14" class="edge"><title>q12&#45;&gt;q11</title>
<path fill="none" stroke="green" d="M1098.24,-146C1120.86,-146 1160.8,-146 1187.58,-146"/>
<polygon fill="green" stroke="green" points="1187.82,-149.5 1197.82,-146 1187.82,-142.5 1187.82,-149.5"/>
<text text-anchor="middle" x="1148" y="-149.8" font-family="Times,serif" font-size="14.00">chain_node</text>
</g>
<!-- q13&#45;&gt;q12 -->
<g id="edge15" class="edge"><title>q13&#45;&gt;q12</title>
<path fill="none" stroke="green" d="M962.244,-146C984.858,-146 1024.8,-146 1051.58,-146"/>
<polygon fill="green" stroke="green" points="1051.82,-149.5 1061.82,-146 1051.82,-142.5 1051.82,-149.5"/>
<text text-anchor="middle" x="1012" y="-149.8" font-family="Times,serif" font-size="14.00">chain_node</text>
</g>
<!-- q15&#45;&gt;q10 -->
<g id="edge17" class="edge"><title>q15&#45;&gt;q10</title>
<path fill="none" stroke="green" d="M1370.25,-115.77C1436.21,-118.456 1678.65,-125.946 1876,-101 1878.75,-100.653 1881.59,-100.185 1884.42,-99.65"/>
<polygon fill="green" stroke="green" points="1885.35,-103.031 1894.39,-97.5051 1883.87,-96.188 1885.35,-103.031"/>
<text text-anchor="middle" x="1620" y="-121.8" font-family="Times,serif" font-size="14.00">check_seq_next</text>
</g>
<!-- q16 -->
<g id="node17" class="node"><title>q16</title>
<ellipse fill="none" stroke="black" cx="1514" cy="-69" rx="18" ry="18"/>
</g>
<!-- q15&#45;&gt;q16 -->
<g id="edge16" class="edge"><title>q15&#45;&gt;q16</title>
<path fill="none" stroke="green" d="M1365.11,-102.066C1371.37,-96.1957 1379.47,-89.742 1388,-86 1419.41,-72.2152 1459.18,-68.9345 1485.32,-68.4646"/>
<polygon fill="green" stroke="green" points="1485.64,-71.9632 1495.62,-68.413 1485.6,-64.9633 1485.64,-71.9632"/>
<text text-anchor="middle" x="1420" y="-89.8" font-family="Times,serif" font-size="14.00">chain_node</text>
</g>
<!-- q16&#45;&gt;q10 -->
<g id="edge19" class="edge"><title>q16&#45;&gt;q10</title>
<path fill="none" stroke="green" d="M1532.02,-70.0312C1593.82,-73.7768 1806.8,-86.6846 1883.33,-91.3232"/>
<polygon fill="green" stroke="green" points="1883.41,-94.8341 1893.6,-91.9456 1883.83,-87.8469 1883.41,-94.8341"/>
<text text-anchor="middle" x="1726" y="-88.8" font-family="Times,serif" font-size="14.00">check_seq_next</text>
</g>
<!-- q17 -->
<g id="node18" class="node"><title>q17</title>
<ellipse fill="none" stroke="black" cx="1726" cy="-18" rx="18" ry="18"/>
</g>
<!-- q16&#45;&gt;q17 -->
<g id="edge18" class="edge"><title>q16&#45;&gt;q17</title>
<path fill="none" stroke="green" d="M1530.67,-61.0973C1542.78,-55.2989 1560.09,-47.6541 1576,-43 1617.48,-30.8668 1667.29,-23.9958 1697.52,-20.6394"/>
<polygon fill="green" stroke="green" points="1698.15,-24.0928 1707.72,-19.5586 1697.41,-17.1317 1698.15,-24.0928"/>
<text text-anchor="middle" x="1620" y="-46.8" font-family="Times,serif" font-size="14.00">chain_node</text>
</g>
<!-- q17&#45;&gt;q10 -->
<g id="edge20" class="edge"><title>q17&#45;&gt;q10</title>
<path fill="none" stroke="green" d="M1744.13,-16.7824C1773.49,-15.532 1834.3,-16.6747 1876,-43 1885.54,-49.0244 1893.2,-58.6898 1898.89,-67.9241"/>
<polygon fill="green" stroke="green" points="1895.97,-69.8674 1903.93,-76.8638 1902.07,-66.4329 1895.97,-69.8674"/>
<text text-anchor="middle" x="1832" y="-46.8" font-family="Times,serif" font-size="14.00">check_seq_next</text>
</g>
<!-- iq0 -->
<g id="node19" class="node"><title>iq0</title>
</g>
<!-- iq0&#45;&gt;q0 -->
<g id="edge1" class="edge"><title>iq0&#45;&gt;q0</title>
<path fill="none" stroke="blue" d="M409.292,-146C486.661,-146 713.031,-146 791.69,-146"/>
<polygon fill="blue" stroke="blue" points="791.778,-149.5 801.778,-146 791.778,-142.5 791.778,-149.5"/>
</g>
</g>
</svg>
