<?xml version="1.0" encoding="UTF-8" standalone="no"?>
<!DOCTYPE svg PUBLIC "-//W3C//DTD SVG 1.1//EN"
 "http://www.w3.org/Graphics/SVG/1.1/DTD/svg11.dtd">
<!-- Generated by graphviz version 2.34.0 (20141125.1709)
 -->
<!-- Title: finite_automaton Pages: 1 -->
<svg width="499pt" height="576pt"
 viewBox="0.00 0.00 498.57 576.00" xmlns="http://www.w3.org/2000/svg" xmlns:xlink="http://www.w3.org/1999/xlink">
<g id="graph0" class="graph" transform="scale(0.156291 0.156291) rotate(0) translate(4 3681.43)">
<title>finite_automaton</title>
<polygon fill="white" stroke="white" points="-4,4 -4,-3681.43 3186,-3681.43 3186,4 -4,4"/>
<!-- dom_edges -->
<g id="node1" class="node"><title>dom_edges</title>
<polygon fill="none" stroke="green" points="764,-1625.43 0,-1625.43 0,-1589.43 764,-1589.43 764,-1625.43"/>
<text text-anchor="middle" x="382" y="-1603.73" font-family="Times,serif" font-size="14.00">Dominating edges: chain_node, create_sll, init_back_link, reverse_dll, remove_fw_link, check_seq_next, check_seq_prev, Learn_Assert</text>
</g>
<!-- q1 -->
<g id="node2" class="node"><title>q1</title>
<ellipse fill="none" stroke="green" cx="382" cy="-1846.43" rx="18" ry="18"/>
<ellipse fill="none" stroke="green" cx="382" cy="-1846.43" rx="22" ry="22"/>
<text text-anchor="middle" x="382" y="-1842.73" font-family="Times,serif" font-size="14.00">D</text>
</g>
<!-- q0 -->
<g id="node3" class="node"><title>q0</title>
<ellipse fill="none" stroke="green" cx="910" cy="-1789.43" rx="18" ry="18"/>
<text text-anchor="middle" x="910" y="-1785.73" font-family="Times,serif" font-size="14.00">D</text>
</g>
<!-- q1&#45;&gt;q0 -->
<g id="edge10" class="edge"><title>q1&#45;&gt;q0</title>
<path fill="none" stroke="green" d="M400.526,-1858.41C469.324,-1903.81 724.453,-2056.92 874,-1938.43 892.657,-1923.65 902.342,-1856.58 906.475,-1817.65"/>
<polygon fill="green" stroke="green" points="909.98,-1817.79 907.497,-1807.49 903.015,-1817.09 909.98,-1817.79"/>
<text text-anchor="middle" x="828" y="-1979.23" font-family="Times,serif" font-size="14.00">chain_node</text>
</g>
<!-- q1&#45;&gt;q0 -->
<g id="edge11" class="edge"><title>q1&#45;&gt;q0</title>
<path fill="none" stroke="green" d="M403.748,-1850.36C492.258,-1866.88 835.487,-1928.67 874,-1900.43 899.636,-1881.64 906.982,-1844.02 908.835,-1817.82"/>
<polygon fill="green" stroke="green" points="912.337,-1817.87 909.322,-1807.71 905.345,-1817.53 912.337,-1817.87"/>
<text text-anchor="middle" x="828" y="-1911.23" font-family="Times,serif" font-size="14.00">create_sll</text>
</g>
<!-- q1&#45;&gt;q0 -->
<g id="edge12" class="edge"><title>q1&#45;&gt;q0</title>
<path fill="none" stroke="green" d="M403.961,-1848.48C492.588,-1856.96 833.852,-1887.71 874,-1862.43 889.709,-1852.54 898.525,-1833.43 903.379,-1817.24"/>
<polygon fill="green" stroke="green" points="906.874,-1817.71 906.029,-1807.15 900.103,-1815.93 906.874,-1817.71"/>
<text text-anchor="middle" x="828" y="-1875.23" font-family="Times,serif" font-size="14.00">init_back_link</text>
</g>
<!-- q1&#45;&gt;q0 -->
<g id="edge13" class="edge"><title>q1&#45;&gt;q0</title>
<path fill="none" stroke="green" d="M404.089,-1846.38C492.49,-1846.06 830.615,-1843.55 874,-1824.43 880.657,-1821.5 886.739,-1816.68 891.897,-1811.54"/>
<polygon fill="green" stroke="green" points="894.638,-1813.73 898.755,-1803.96 889.449,-1809.03 894.638,-1813.73"/>
<text text-anchor="middle" x="828" y="-1839.23" font-family="Times,serif" font-size="14.00">reverse_dll</text>
</g>
<!-- q1&#45;&gt;q0 -->
<g id="edge14" class="edge"><title>q1&#45;&gt;q0</title>
<path fill="none" stroke="green" d="M403.944,-1844.16C486.469,-1835.22 789.155,-1802.42 881.843,-1792.38"/>
<polygon fill="green" stroke="green" points="882.274,-1795.85 891.838,-1791.29 881.519,-1788.89 882.274,-1795.85"/>
<text text-anchor="middle" x="828" y="-1805.23" font-family="Times,serif" font-size="14.00">remove_fw_link</text>
</g>
<!-- q1&#45;&gt;q0 -->
<g id="edge15" class="edge"><title>q1&#45;&gt;q0</title>
<path fill="none" stroke="green" d="M403.587,-1841.3C462.238,-1826.97 635.423,-1786.73 782,-1773.43 822.722,-1769.74 834.047,-1764.73 874,-1773.43 877.501,-1774.19 881.071,-1775.34 884.527,-1776.67"/>
<polygon fill="green" stroke="green" points="883.254,-1779.94 893.816,-1780.77 886.08,-1773.53 883.254,-1779.94"/>
<text text-anchor="middle" x="828" y="-1777.23" font-family="Times,serif" font-size="14.00">check_seq_next</text>
</g>
<!-- q1&#45;&gt;q0 -->
<g id="edge16" class="edge"><title>q1&#45;&gt;q0</title>
<path fill="none" stroke="green" d="M403.033,-1839.75C460.914,-1820.85 633.711,-1767.2 782,-1749.43 822.599,-1744.57 836.765,-1732.54 874,-1749.43 881.799,-1752.97 888.543,-1759.2 893.973,-1765.71"/>
<polygon fill="green" stroke="green" points="891.327,-1768.01 900.127,-1773.91 896.927,-1763.81 891.327,-1768.01"/>
<text text-anchor="middle" x="828" y="-1753.23" font-family="Times,serif" font-size="14.00">check_seq_prev</text>
</g>
<!-- q1&#45;&gt;q0 -->
<g id="edge17" class="edge"><title>q1&#45;&gt;q0</title>
<path fill="none" stroke="green" d="M402.423,-1838.01C459.355,-1813.83 631.313,-1744.48 782,-1721.43 822.419,-1715.25 839.093,-1700.14 874,-1721.43 888.552,-1730.31 897.31,-1747.38 902.427,-1762.2"/>
<polygon fill="green" stroke="green" points="899.143,-1763.43 905.413,-1771.97 905.837,-1761.38 899.143,-1763.43"/>
<text text-anchor="middle" x="828" y="-1725.23" font-family="Times,serif" font-size="14.00">Learn_Assert</text>
</g>
<!-- q0&#45;&gt;q0 -->
<g id="edge2" class="edge"><title>q0&#45;&gt;q0</title>
<path fill="none" stroke="green" d="M907.881,-1807.59C907.555,-1816.97 908.261,-1825.43 910,-1825.43 911.06,-1825.43 911.736,-1822.29 912.029,-1817.71"/>
<polygon fill="green" stroke="green" points="915.53,-1817.62 912.119,-1807.59 908.53,-1817.55 915.53,-1817.62"/>
<text text-anchor="middle" x="910" y="-1829.23" font-family="Times,serif" font-size="14.00">chain_node</text>
</g>
<!-- q0&#45;&gt;q0 -->
<g id="edge4" class="edge"><title>q0&#45;&gt;q0</title>
<path fill="none" stroke="green" d="M906.509,-1807.13C904.581,-1824.43 905.744,-1843.43 910,-1843.43 913.424,-1843.43 914.847,-1831.13 914.267,-1817.31"/>
<polygon fill="green" stroke="green" points="917.741,-1816.84 913.491,-1807.13 910.762,-1817.37 917.741,-1816.84"/>
<text text-anchor="middle" x="910" y="-1847.23" font-family="Times,serif" font-size="14.00">init_back_link</text>
</g>
<!-- q0&#45;&gt;q0 -->
<g id="edge5" class="edge"><title>q0&#45;&gt;q0</title>
<path fill="none" stroke="green" d="M905.613,-1807.15C901.605,-1831.55 903.068,-1861.43 910,-1861.43 916.012,-1861.43 917.91,-1838.96 915.694,-1817.08"/>
<polygon fill="green" stroke="green" points="919.163,-1816.61 914.387,-1807.15 912.222,-1817.52 919.163,-1816.61"/>
<text text-anchor="middle" x="910" y="-1865.23" font-family="Times,serif" font-size="14.00">reverse_dll</text>
</g>
<!-- q0&#45;&gt;q0 -->
<g id="edge6" class="edge"><title>q0&#45;&gt;q0</title>
<path fill="none" stroke="green" d="M904.998,-1807.1C898.632,-1838.29 900.299,-1879.43 910,-1879.43 918.678,-1879.43 920.927,-1846.51 916.748,-1817.24"/>
<polygon fill="green" stroke="green" points="920.149,-1816.36 915.002,-1807.1 913.25,-1817.55 920.149,-1816.36"/>
<text text-anchor="middle" x="910" y="-1883.23" font-family="Times,serif" font-size="14.00">remove_fw_link</text>
</g>
<!-- q0&#45;&gt;q0 -->
<g id="edge7" class="edge"><title>q0&#45;&gt;q0</title>
<path fill="none" stroke="green" d="M904.63,-1806.71C895.655,-1844.5 897.445,-1897.43 910,-1897.43 921.476,-1897.43 923.958,-1853.21 917.446,-1816.75"/>
<polygon fill="green" stroke="green" points="920.823,-1815.8 915.37,-1806.71 913.968,-1817.22 920.823,-1815.8"/>
<text text-anchor="middle" x="910" y="-1901.23" font-family="Times,serif" font-size="14.00">check_seq_next</text>
</g>
<!-- q0&#45;&gt;q0 -->
<g id="edge8" class="edge"><title>q0&#45;&gt;q0</title>
<path fill="none" stroke="green" d="M904.312,-1806.61C892.695,-1850.83 894.591,-1915.43 910,-1915.43 924.296,-1915.43 926.961,-1859.83 917.995,-1816.48"/>
<polygon fill="green" stroke="green" points="921.371,-1815.55 915.688,-1806.61 914.555,-1817.14 921.371,-1815.55"/>
<text text-anchor="middle" x="910" y="-1919.23" font-family="Times,serif" font-size="14.00">check_seq_prev</text>
</g>
<!-- q0&#45;&gt;q0 -->
<g id="edge9" class="edge"><title>q0&#45;&gt;q0</title>
<path fill="none" stroke="green" d="M904.009,-1806.72C889.745,-1857.28 891.742,-1933.43 910,-1933.43 927.117,-1933.43 929.942,-1866.51 918.475,-1816.47"/>
<polygon fill="green" stroke="green" points="921.85,-1815.54 915.991,-1806.72 915.066,-1817.27 921.85,-1815.54"/>
<text text-anchor="middle" x="910" y="-1937.23" font-family="Times,serif" font-size="14.00">Learn_Assert</text>
</g>
<!-- q13 -->
<g id="node15" class="node"><title>q13</title>
<ellipse fill="none" stroke="green" cx="1102" cy="-157.433" rx="18" ry="18"/>
<text text-anchor="middle" x="1102" y="-153.733" font-family="Times,serif" font-size="14.00">D</text>
</g>
<!-- q0&#45;&gt;q13 -->
<g id="edge3" class="edge"><title>q0&#45;&gt;q13</title>
<path fill="none" stroke="green" d="M911.112,-1771.46C912.202,-1602.8 921.388,-303.216 946,-272.433 972.319,-239.513 1004.97,-275.618 1038,-249.433 1051.71,-238.565 1046.54,-229.144 1056,-214.433 1064.07,-201.882 1074.3,-188.753 1082.96,-178.262"/>
<polygon fill="green" stroke="green" points="1085.75,-180.384 1089.51,-170.477 1080.39,-175.881 1085.75,-180.384"/>
<text text-anchor="middle" x="992" y="-276.233" font-family="Times,serif" font-size="14.00">create_sll</text>
</g>
<!-- q2 -->
<g id="node4" class="node"><title>q2</title>
<ellipse fill="none" stroke="green" cx="3164" cy="-3466.43" rx="18" ry="18"/>
<text text-anchor="middle" x="3164" y="-3462.73" font-family="Times,serif" font-size="14.00">D</text>
</g>
<!-- q2&#45;&gt;q1 -->
<g id="edge25" class="edge"><title>q2&#45;&gt;q1</title>
<path fill="none" stroke="green" d="M3163.8,-3484.77C3164.13,-3515.37 3160.39,-3577.17 3128,-3614.43 3089.51,-3658.72 3063.68,-3662.43 3005,-3662.43 909,-3662.43 909,-3662.43 909,-3662.43 522.088,-3662.43 401.712,-2122.35 385.09,-1878.72"/>
<polygon fill="green" stroke="green" points="388.56,-1878.16 384.396,-1868.41 381.576,-1878.63 388.56,-1878.16"/>
<text text-anchor="middle" x="2088" y="-3666.23" font-family="Times,serif" font-size="14.00">Learn_Assert</text>
</g>
<!-- q2&#45;&gt;q0 -->
<g id="edge18" class="edge"><title>q2&#45;&gt;q0</title>
<path fill="none" stroke="green" d="M3162.61,-3484.81C3161.06,-3510.22 3154.49,-3555.97 3128,-3582.43 3087.62,-3622.78 3062.09,-3619.43 3005,-3619.43 1101,-3619.43 1101,-3619.43 1101,-3619.43 1030.18,-3619.43 990.423,-3637.59 946,-3582.43 917.104,-3546.55 911.72,-2043.58 911.074,-1817.72"/>
<polygon fill="green" stroke="green" points="914.574,-1817.65 911.046,-1807.66 907.574,-1817.67 914.574,-1817.65"/>
<text text-anchor="middle" x="2198" y="-3623.23" font-family="Times,serif" font-size="14.00">chain_node</text>
</g>
<!-- q2&#45;&gt;q0 -->
<g id="edge19" class="edge"><title>q2&#45;&gt;q0</title>
<path fill="none" stroke="green" d="M3157.94,-3483.51C3152.73,-3498.24 3143.19,-3519.03 3128,-3531.43 3083.77,-3567.53 3062.09,-3568.43 3005,-3568.43 1101,-3568.43 1101,-3568.43 1101,-3568.43 1030.18,-3568.43 990.439,-3586.58 946,-3531.43 917.944,-3496.62 911.855,-2039.31 911.09,-1817.59"/>
<polygon fill="green" stroke="green" points="914.589,-1817.42 911.056,-1807.43 907.589,-1817.44 914.589,-1817.42"/>
<text text-anchor="middle" x="2198" y="-3572.23" font-family="Times,serif" font-size="14.00">create_sll</text>
</g>
<!-- q2&#45;&gt;q0 -->
<g id="edge20" class="edge"><title>q2&#45;&gt;q0</title>
<path fill="none" stroke="green" d="M3147.83,-3474.85C3120.27,-3489.34 3059.77,-3517.43 3005,-3517.43 1101,-3517.43 1101,-3517.43 1101,-3517.43 1030.18,-3517.43 990.456,-3535.57 946,-3480.43 918.797,-3446.7 911.999,-2036.34 911.108,-1817.76"/>
<polygon fill="green" stroke="green" points="914.607,-1817.44 911.067,-1807.46 907.607,-1817.47 914.607,-1817.44"/>
<text text-anchor="middle" x="2198" y="-3521.23" font-family="Times,serif" font-size="14.00">init_back_link</text>
</g>
<!-- q2&#45;&gt;q0 -->
<g id="edge21" class="edge"><title>q2&#45;&gt;q0</title>
<path fill="none" stroke="green" d="M3145.93,-3466.43C3116.96,-3466.43 3056.3,-3466.43 3005,-3466.43 1101,-3466.43 1101,-3466.43 1101,-3466.43 1030.18,-3466.43 990.474,-3484.55 946,-3429.43 919.634,-3396.75 912.14,-2031.74 911.126,-1817.58"/>
<polygon fill="green" stroke="green" points="914.625,-1817.44 911.079,-1807.46 907.625,-1817.48 914.625,-1817.44"/>
<text text-anchor="middle" x="2198" y="-3470.23" font-family="Times,serif" font-size="14.00">reverse_dll</text>
</g>
<!-- q2&#45;&gt;q0 -->
<g id="edge22" class="edge"><title>q2&#45;&gt;q0</title>
<path fill="none" stroke="green" d="M3147.83,-3458.01C3120.27,-3443.53 3059.77,-3415.43 3005,-3415.43 1101,-3415.43 1101,-3415.43 1101,-3415.43 1030.18,-3415.43 990.492,-3433.54 946,-3378.43 920.482,-3346.83 912.292,-2028.27 911.146,-1817.67"/>
<polygon fill="green" stroke="green" points="914.645,-1817.42 911.091,-1807.44 907.645,-1817.46 914.645,-1817.42"/>
<text text-anchor="middle" x="2198" y="-3419.23" font-family="Times,serif" font-size="14.00">remove_fw_link</text>
</g>
<!-- q2&#45;&gt;q0 -->
<g id="edge23" class="edge"><title>q2&#45;&gt;q0</title>
<path fill="none" stroke="green" d="M3155.49,-3450.48C3149.45,-3439.11 3139.99,-3424.18 3128,-3414.43 3082.2,-3377.22 3064.01,-3364.43 3005,-3364.43 1101,-3364.43 1101,-3364.43 1101,-3364.43 1030.18,-3364.43 990.513,-3382.52 946,-3327.43 921.328,-3296.9 912.449,-2024.6 911.167,-1817.72"/>
<polygon fill="green" stroke="green" points="914.667,-1817.63 911.106,-1807.66 907.667,-1817.68 914.667,-1817.63"/>
<text text-anchor="middle" x="2198" y="-3368.23" font-family="Times,serif" font-size="14.00">check_seq_next</text>
</g>
<!-- q2&#45;&gt;q0 -->
<g id="edge24" class="edge"><title>q2&#45;&gt;q0</title>
<path fill="none" stroke="green" d="M3161.49,-3448.27C3158.68,-3425.44 3150.66,-3386.36 3128,-3362.43 3087.54,-3319.71 3063.84,-3313.43 3005,-3313.43 1101,-3313.43 1101,-3313.43 1101,-3313.43 1029.74,-3313.43 990.133,-3328.38 946,-3272.43 922.593,-3242.76 912.68,-2019.92 911.199,-1817.64"/>
<polygon fill="green" stroke="green" points="914.698,-1817.5 911.125,-1807.52 907.698,-1817.55 914.698,-1817.5"/>
<text text-anchor="middle" x="2198" y="-3317.23" font-family="Times,serif" font-size="14.00">check_seq_prev</text>
</g>
<!-- q3 -->
<g id="node5" class="node"><title>q3</title>
<ellipse fill="none" stroke="green" cx="3004" cy="-3153.43" rx="18" ry="18"/>
<text text-anchor="middle" x="3004" y="-3149.73" font-family="Times,serif" font-size="14.00">D</text>
</g>
<!-- q3&#45;&gt;q0 -->
<g id="edge26" class="edge"><title>q3&#45;&gt;q0</title>
<path fill="none" stroke="green" d="M3001.17,-3171.28C2998.06,-3191.9 2989.79,-3225.32 2968,-3243.43 2923.82,-3280.15 2898.44,-3267.43 2841,-3267.43 1101,-3267.43 1101,-3267.43 1101,-3267.43 1031.29,-3267.43 991.998,-3295.81 946,-3243.43 921.574,-3215.62 912.525,-2018.06 911.181,-1817.72"/>
<polygon fill="green" stroke="green" points="914.679,-1817.42 911.113,-1807.44 907.68,-1817.46 914.679,-1817.42"/>
<text text-anchor="middle" x="2088" y="-3271.23" font-family="Times,serif" font-size="14.00">chain_node</text>
</g>
<!-- q3&#45;&gt;q0 -->
<g id="edge27" class="edge"><title>q3&#45;&gt;q0</title>
<path fill="none" stroke="green" d="M2996.04,-3170.13C2990.26,-3181.86 2980.9,-3196.93 2968,-3205.43 2920.03,-3237.04 2898.44,-3229.43 2841,-3229.43 1101,-3229.43 1101,-3229.43 1101,-3229.43 1031.29,-3229.43 992.015,-3257.8 946,-3205.43 922.228,-3178.38 912.651,-2014.53 911.199,-1817.6"/>
<polygon fill="green" stroke="green" points="914.698,-1817.45 911.125,-1807.48 907.698,-1817.5 914.698,-1817.45"/>
<text text-anchor="middle" x="2088" y="-3233.23" font-family="Times,serif" font-size="14.00">create_sll</text>
</g>
<!-- q3&#45;&gt;q0 -->
<g id="edge28" class="edge"><title>q3&#45;&gt;q0</title>
<path fill="none" stroke="green" d="M2987.2,-3160.51C2981.27,-3162.96 2974.41,-3165.56 2968,-3167.43 2912.85,-3183.51 2898.44,-3191.43 2841,-3191.43 1101,-3191.43 1101,-3191.43 1101,-3191.43 1031.29,-3191.43 992.033,-3219.78 946,-3167.43 922.892,-3141.15 912.788,-2011.99 911.22,-1817.74"/>
<polygon fill="green" stroke="green" points="914.718,-1817.47 911.138,-1807.49 907.718,-1817.52 914.718,-1817.47"/>
<text text-anchor="middle" x="2088" y="-3195.23" font-family="Times,serif" font-size="14.00">init_back_link</text>
</g>
<!-- q3&#45;&gt;q0 -->
<g id="edge29" class="edge"><title>q3&#45;&gt;q0</title>
<path fill="none" stroke="green" d="M2985.97,-3153.43C2956.46,-3153.43 2893.88,-3153.43 2841,-3153.43 1101,-3153.43 1101,-3153.43 1101,-3153.43 1031.29,-3153.43 992.052,-3181.77 946,-3129.43 923.543,-3103.91 912.919,-2008.15 911.239,-1817.55"/>
<polygon fill="green" stroke="green" points="914.738,-1817.46 911.151,-1807.49 907.739,-1817.52 914.738,-1817.46"/>
<text text-anchor="middle" x="2088" y="-3157.23" font-family="Times,serif" font-size="14.00">reverse_dll</text>
</g>
<!-- q3&#45;&gt;q0 -->
<g id="edge30" class="edge"><title>q3&#45;&gt;q0</title>
<path fill="none" stroke="green" d="M2986.74,-3146.99C2957.88,-3136.14 2895.6,-3115.43 2841,-3115.43 1101,-3115.43 1101,-3115.43 1101,-3115.43 1031.29,-3115.43 992.072,-3143.75 946,-3091.43 924.204,-3066.68 913.062,-2005.24 911.262,-1817.62"/>
<polygon fill="green" stroke="green" points="914.76,-1817.43 911.165,-1807.46 907.76,-1817.5 914.76,-1817.43"/>
<text text-anchor="middle" x="2088" y="-3119.23" font-family="Times,serif" font-size="14.00">remove_fw_link</text>
</g>
<!-- q3&#45;&gt;q0 -->
<g id="edge31" class="edge"><title>q3&#45;&gt;q0</title>
<path fill="none" stroke="green" d="M2993.28,-3138.56C2987,-3130.06 2978.14,-3119.85 2968,-3113.43 2918.42,-3082.07 2899.67,-3077.43 2841,-3077.43 1101,-3077.43 1101,-3077.43 1101,-3077.43 1031.29,-3077.43 992.093,-3105.73 946,-3053.43 924.863,-3029.45 913.209,-2002.13 911.285,-1817.65"/>
<polygon fill="green" stroke="green" points="914.783,-1817.38 911.179,-1807.42 907.783,-1817.45 914.783,-1817.38"/>
<text text-anchor="middle" x="2088" y="-3081.23" font-family="Times,serif" font-size="14.00">check_seq_next</text>
</g>
<!-- q3&#45;&gt;q0 -->
<g id="edge33" class="edge"><title>q3&#45;&gt;q0</title>
<path fill="none" stroke="green" d="M2999.75,-3135.72C2995.53,-3117.72 2986.41,-3090.3 2968,-3074.43 2923.65,-3036.21 2899.55,-3039.43 2841,-3039.43 1101,-3039.43 1101,-3039.43 1101,-3039.43 1029.01,-3039.43 989.722,-3049.62 946,-2992.43 909.176,-2944.27 910.356,-1994.25 910.896,-1817.58"/>
<polygon fill="green" stroke="green" points="914.396,-1817.53 910.928,-1807.52 907.396,-1817.5 914.396,-1817.53"/>
<text text-anchor="middle" x="2088" y="-3043.23" font-family="Times,serif" font-size="14.00">Learn_Assert</text>
</g>
<!-- q3&#45;&gt;q2 -->
<g id="edge32" class="edge"><title>q3&#45;&gt;q2</title>
<path fill="none" stroke="green" d="M3019.11,-3163.9C3045.2,-3184.07 3100.77,-3231.08 3128,-3284.43 3153.56,-3334.51 3160.54,-3401.03 3162.39,-3438.2"/>
<polygon fill="green" stroke="green" points="3158.89,-3438.46 3162.8,-3448.31 3165.89,-3438.18 3158.89,-3438.46"/>
<text text-anchor="middle" x="3084" y="-3288.23" font-family="Times,serif" font-size="14.00">check_seq_prev</text>
</g>
<!-- q4 -->
<g id="node6" class="node"><title>q4</title>
<ellipse fill="none" stroke="green" cx="2840" cy="-2843.43" rx="18" ry="18"/>
<text text-anchor="middle" x="2840" y="-2839.73" font-family="Times,serif" font-size="14.00">D</text>
</g>
<!-- q4&#45;&gt;q0 -->
<g id="edge34" class="edge"><title>q4&#45;&gt;q0</title>
<path fill="none" stroke="green" d="M2838.61,-2861.81C2837.06,-2887.22 2830.49,-2932.97 2804,-2959.43 2763.62,-2999.78 2738.09,-2996.43 2681,-2996.43 1101,-2996.43 1101,-2996.43 1101,-2996.43 1030.18,-2996.43 990.709,-3014.36 946,-2959.43 908.833,-2913.77 910.277,-1991.71 910.883,-1817.64"/>
<polygon fill="green" stroke="green" points="914.383,-1817.51 910.92,-1807.49 907.383,-1817.48 914.383,-1817.51"/>
<text text-anchor="middle" x="1980" y="-3000.23" font-family="Times,serif" font-size="14.00">chain_node</text>
</g>
<!-- q4&#45;&gt;q0 -->
<g id="edge35" class="edge"><title>q4&#45;&gt;q0</title>
<path fill="none" stroke="green" d="M2833.94,-2860.51C2828.73,-2875.24 2819.19,-2896.03 2804,-2908.43 2759.77,-2944.53 2738.09,-2945.43 2681,-2945.43 1101,-2945.43 1101,-2945.43 1101,-2945.43 1030.18,-2945.43 990.747,-2963.33 946,-2908.43 910.515,-2864.9 910.577,-1987.5 910.922,-1817.73"/>
<polygon fill="green" stroke="green" points="914.423,-1817.6 910.945,-1807.59 907.423,-1817.58 914.423,-1817.6"/>
<text text-anchor="middle" x="1980" y="-2949.23" font-family="Times,serif" font-size="14.00">create_sll</text>
</g>
<!-- q4&#45;&gt;q0 -->
<g id="edge36" class="edge"><title>q4&#45;&gt;q0</title>
<path fill="none" stroke="green" d="M2823.83,-2851.85C2796.27,-2866.34 2735.77,-2894.43 2681,-2894.43 1101,-2894.43 1101,-2894.43 1101,-2894.43 1030.18,-2894.43 990.788,-2912.3 946,-2857.43 912.205,-2816.03 910.892,-1983.68 910.966,-1817.98"/>
<polygon fill="green" stroke="green" points="914.467,-1817.63 910.973,-1807.63 907.467,-1817.63 914.467,-1817.63"/>
<text text-anchor="middle" x="1980" y="-2898.23" font-family="Times,serif" font-size="14.00">init_back_link</text>
</g>
<!-- q4&#45;&gt;q0 -->
<g id="edge37" class="edge"><title>q4&#45;&gt;q0</title>
<path fill="none" stroke="green" d="M2821.93,-2843.43C2792.96,-2843.43 2732.3,-2843.43 2681,-2843.43 1101,-2843.43 1101,-2843.43 1101,-2843.43 1030.18,-2843.43 990.833,-2861.26 946,-2806.43 913.853,-2767.12 911.218,-1977.77 911.015,-1817.63"/>
<polygon fill="green" stroke="green" points="914.515,-1817.6 911.004,-1807.6 907.515,-1817.61 914.515,-1817.6"/>
<text text-anchor="middle" x="1980" y="-2847.23" font-family="Times,serif" font-size="14.00">reverse_dll</text>
</g>
<!-- q4&#45;&gt;q0 -->
<g id="edge39" class="edge"><title>q4&#45;&gt;q0</title>
<path fill="none" stroke="green" d="M2823.83,-2835.01C2796.27,-2820.53 2735.77,-2792.43 2681,-2792.43 1101,-2792.43 1101,-2792.43 1101,-2792.43 1030.18,-2792.43 990.882,-2810.22 946,-2755.43 915.525,-2718.23 911.563,-1973 911.068,-1817.66"/>
<polygon fill="green" stroke="green" points="914.568,-1817.5 911.038,-1807.51 907.568,-1817.52 914.568,-1817.5"/>
<text text-anchor="middle" x="1980" y="-2796.23" font-family="Times,serif" font-size="14.00">check_seq_next</text>
</g>
<!-- q4&#45;&gt;q0 -->
<g id="edge40" class="edge"><title>q4&#45;&gt;q0</title>
<path fill="none" stroke="green" d="M2831.49,-2827.48C2825.45,-2816.11 2815.99,-2801.18 2804,-2791.43 2758.2,-2754.22 2740.01,-2741.43 2681,-2741.43 1101,-2741.43 1101,-2741.43 1101,-2741.43 1030.18,-2741.43 990.938,-2759.17 946,-2704.43 917.217,-2669.37 911.936,-1969.22 911.13,-1818.05"/>
<polygon fill="green" stroke="green" points="914.628,-1817.73 911.077,-1807.75 907.628,-1817.77 914.628,-1817.73"/>
<text text-anchor="middle" x="1980" y="-2745.23" font-family="Times,serif" font-size="14.00">check_seq_prev</text>
</g>
<!-- q4&#45;&gt;q0 -->
<g id="edge41" class="edge"><title>q4&#45;&gt;q0</title>
<path fill="none" stroke="green" d="M2837.49,-2825.27C2834.68,-2802.44 2826.66,-2763.36 2804,-2739.43 2763.54,-2696.71 2739.84,-2690.43 2681,-2690.43 1101,-2690.43 1101,-2690.43 1101,-2690.43 1029.74,-2690.43 990.609,-2705 946,-2649.43 919.39,-2616.29 912.432,-1962.47 911.215,-1817.67"/>
<polygon fill="green" stroke="green" points="914.712,-1817.38 911.131,-1807.41 907.713,-1817.43 914.712,-1817.38"/>
<text text-anchor="middle" x="1980" y="-2694.23" font-family="Times,serif" font-size="14.00">Learn_Assert</text>
</g>
<!-- q4&#45;&gt;q3 -->
<g id="edge38" class="edge"><title>q4&#45;&gt;q3</title>
<path fill="none" stroke="green" d="M2853.59,-2856.03C2879.15,-2882.34 2937.26,-2946 2968,-3010.43 2985.94,-3048.03 2995.22,-3095.72 2999.6,-3125.41"/>
<polygon fill="green" stroke="green" points="2996.16,-3126.06 3001,-3135.48 3003.09,-3125.09 2996.16,-3126.06"/>
<text text-anchor="middle" x="2922" y="-3014.23" font-family="Times,serif" font-size="14.00">remove_fw_link</text>
</g>
<!-- q5 -->
<g id="node7" class="node"><title>q5</title>
<ellipse fill="none" stroke="green" cx="2680" cy="-2530.43" rx="18" ry="18"/>
<text text-anchor="middle" x="2680" y="-2526.73" font-family="Times,serif" font-size="14.00">D</text>
</g>
<!-- q5&#45;&gt;q0 -->
<g id="edge42" class="edge"><title>q5&#45;&gt;q0</title>
<path fill="none" stroke="green" d="M2677.15,-2548.25C2674.03,-2568.86 2665.74,-2602.26 2644,-2620.43 2601.27,-2656.16 2576.7,-2644.43 2521,-2644.43 1101,-2644.43 1101,-2644.43 1101,-2644.43 1031.29,-2644.43 992.468,-2672.4 946,-2620.43 918.677,-2589.88 912.288,-1959.66 911.193,-1817.67"/>
<polygon fill="green" stroke="green" points="914.692,-1817.57 911.118,-1807.59 907.693,-1817.62 914.692,-1817.57"/>
<text text-anchor="middle" x="1872" y="-2648.23" font-family="Times,serif" font-size="14.00">chain_node</text>
</g>
<!-- q5&#45;&gt;q0 -->
<g id="edge43" class="edge"><title>q5&#45;&gt;q0</title>
<path fill="none" stroke="green" d="M2672.02,-2547.1C2666.24,-2558.83 2656.88,-2573.89 2644,-2582.43 2597.58,-2613.21 2576.7,-2606.43 2521,-2606.43 1101,-2606.43 1101,-2606.43 1101,-2606.43 1031.29,-2606.43 992.521,-2634.35 946,-2582.43 919.977,-2553.39 912.609,-1955.66 911.252,-1817.68"/>
<polygon fill="green" stroke="green" points="914.75,-1817.46 911.155,-1807.5 907.751,-1817.53 914.75,-1817.46"/>
<text text-anchor="middle" x="1872" y="-2610.23" font-family="Times,serif" font-size="14.00">create_sll</text>
</g>
<!-- q5&#45;&gt;q0 -->
<g id="edge44" class="edge"><title>q5&#45;&gt;q0</title>
<path fill="none" stroke="green" d="M2663.19,-2537.49C2657.26,-2539.94 2650.4,-2542.55 2644,-2544.43 2590.57,-2560.18 2576.7,-2568.43 2521,-2568.43 1101,-2568.43 1101,-2568.43 1101,-2568.43 1031.29,-2568.43 992.578,-2596.3 946,-2544.43 921.296,-2516.92 912.961,-1952.5 911.322,-1818.01"/>
<polygon fill="green" stroke="green" points="914.818,-1817.67 911.199,-1807.71 907.818,-1817.75 914.818,-1817.67"/>
<text text-anchor="middle" x="1872" y="-2572.23" font-family="Times,serif" font-size="14.00">init_back_link</text>
</g>
<!-- q5&#45;&gt;q0 -->
<g id="edge45" class="edge"><title>q5&#45;&gt;q0</title>
<path fill="none" stroke="green" d="M2661.93,-2530.43C2632.96,-2530.43 2572.3,-2530.43 2521,-2530.43 1101,-2530.43 1101,-2530.43 1101,-2530.43 1031.29,-2530.43 992.642,-2558.24 946,-2506.43 922.579,-2480.42 913.308,-1947.68 911.391,-1817.8"/>
<polygon fill="green" stroke="green" points="914.887,-1817.44 911.242,-1807.49 907.887,-1817.54 914.887,-1817.44"/>
<text text-anchor="middle" x="1872" y="-2534.23" font-family="Times,serif" font-size="14.00">reverse_dll</text>
</g>
<!-- q5&#45;&gt;q0 -->
<g id="edge46" class="edge"><title>q5&#45;&gt;q0</title>
<path fill="none" stroke="green" d="M2663.15,-2523.99C2635.03,-2513.14 2574.32,-2492.43 2521,-2492.43 1101,-2492.43 1101,-2492.43 1101,-2492.43 1031.29,-2492.43 992.712,-2520.18 946,-2468.43 923.878,-2443.93 913.689,-1943.57 911.473,-1817.88"/>
<polygon fill="green" stroke="green" points="914.967,-1817.49 911.294,-1807.55 907.968,-1817.61 914.967,-1817.49"/>
<text text-anchor="middle" x="1872" y="-2496.23" font-family="Times,serif" font-size="14.00">remove_fw_link</text>
</g>
<!-- q5&#45;&gt;q0 -->
<g id="edge48" class="edge"><title>q5&#45;&gt;q0</title>
<path fill="none" stroke="green" d="M2669.26,-2515.59C2662.98,-2507.1 2654.11,-2496.89 2644,-2490.43 2595.99,-2459.77 2577.96,-2454.43 2521,-2454.43 1101,-2454.43 1101,-2454.43 1101,-2454.43 1031.29,-2454.43 992.791,-2482.11 946,-2430.43 925.166,-2407.43 914.086,-1938.97 911.562,-1817.83"/>
<polygon fill="green" stroke="green" points="915.055,-1817.45 911.351,-1807.52 908.057,-1817.59 915.055,-1817.45"/>
<text text-anchor="middle" x="1872" y="-2458.23" font-family="Times,serif" font-size="14.00">check_seq_prev</text>
</g>
<!-- q5&#45;&gt;q0 -->
<g id="edge49" class="edge"><title>q5&#45;&gt;q0</title>
<path fill="none" stroke="green" d="M2675.73,-2512.75C2671.49,-2494.78 2662.34,-2467.37 2644,-2451.43 2601.1,-2414.15 2577.84,-2416.43 2521,-2416.43 1101,-2416.43 1101,-2416.43 1101,-2416.43 1029.01,-2416.43 990.608,-2425.93 946,-2369.43 911.589,-2325.85 910.48,-1928.16 910.843,-1817.75"/>
<polygon fill="green" stroke="green" points="914.344,-1817.43 910.884,-1807.42 907.344,-1817.4 914.344,-1817.43"/>
<text text-anchor="middle" x="1872" y="-2420.23" font-family="Times,serif" font-size="14.00">Learn_Assert</text>
</g>
<!-- q5&#45;&gt;q4 -->
<g id="edge47" class="edge"><title>q5&#45;&gt;q4</title>
<path fill="none" stroke="green" d="M2695.11,-2540.9C2721.2,-2561.07 2776.77,-2608.08 2804,-2661.43 2829.56,-2711.51 2836.54,-2778.03 2838.39,-2815.2"/>
<polygon fill="green" stroke="green" points="2834.89,-2815.46 2838.8,-2825.31 2841.89,-2815.18 2834.89,-2815.46"/>
<text text-anchor="middle" x="2760" y="-2665.23" font-family="Times,serif" font-size="14.00">check_seq_next</text>
</g>
<!-- q6 -->
<g id="node8" class="node"><title>q6</title>
<ellipse fill="none" stroke="green" cx="2520" cy="-2220.43" rx="18" ry="18"/>
<text text-anchor="middle" x="2520" y="-2216.73" font-family="Times,serif" font-size="14.00">D</text>
</g>
<!-- q6&#45;&gt;q0 -->
<g id="edge50" class="edge"><title>q6&#45;&gt;q0</title>
<path fill="none" stroke="green" d="M2518.34,-2238.54C2516.47,-2263.65 2509.52,-2309.03 2484,-2336.43 2452.56,-2370.2 2433.14,-2373.43 2387,-2373.43 1101,-2373.43 1101,-2373.43 1101,-2373.43 1030.18,-2373.43 991.636,-2390.59 946,-2336.43 912.429,-2296.59 910.682,-1924.61 910.878,-1817.91"/>
<polygon fill="green" stroke="green" points="914.379,-1817.62 910.905,-1807.61 907.379,-1817.6 914.379,-1817.62"/>
<text text-anchor="middle" x="1762" y="-2377.23" font-family="Times,serif" font-size="14.00">chain_node</text>
</g>
<!-- q6&#45;&gt;q0 -->
<g id="edge51" class="edge"><title>q6&#45;&gt;q0</title>
<path fill="none" stroke="green" d="M2513.61,-2237.53C2508.23,-2252.07 2498.64,-2272.58 2484,-2285.43 2449.33,-2315.88 2433.14,-2322.43 2387,-2322.43 1101,-2322.43 1101,-2322.43 1101,-2322.43 1030.18,-2322.43 991.813,-2339.44 946,-2285.43 915.691,-2249.7 911.618,-1917.82 911.079,-1817.82"/>
<polygon fill="green" stroke="green" points="914.578,-1817.56 911.033,-1807.58 907.578,-1817.59 914.578,-1817.56"/>
<text text-anchor="middle" x="1762" y="-2326.23" font-family="Times,serif" font-size="14.00">create_sll</text>
</g>
<!-- q6&#45;&gt;q0 -->
<g id="edge52" class="edge"><title>q6&#45;&gt;q0</title>
<path fill="none" stroke="green" d="M2504.66,-2230.03C2481.15,-2244.8 2432.45,-2271.43 2387,-2271.43 1101,-2271.43 1101,-2271.43 1101,-2271.43 1030.18,-2271.43 992.03,-2288.26 946,-2234.43 918.93,-2202.78 912.642,-1910.45 911.323,-1817.6"/>
<polygon fill="green" stroke="green" points="914.822,-1817.49 911.188,-1807.54 907.822,-1817.58 914.822,-1817.49"/>
<text text-anchor="middle" x="1762" y="-2275.23" font-family="Times,serif" font-size="14.00">init_back_link</text>
</g>
<!-- q6&#45;&gt;q0 -->
<g id="edge53" class="edge"><title>q6&#45;&gt;q0</title>
<path fill="none" stroke="green" d="M2501.91,-2220.43C2476.75,-2220.43 2428.25,-2220.43 2387,-2220.43 1101,-2220.43 1101,-2220.43 1101,-2220.43 1030.18,-2220.43 992.302,-2237.03 946,-2183.43 922.159,-2155.84 913.785,-1902.78 911.625,-1817.41"/>
<polygon fill="green" stroke="green" points="915.124,-1817.31 911.381,-1807.4 908.126,-1817.49 915.124,-1817.31"/>
<text text-anchor="middle" x="1762" y="-2224.23" font-family="Times,serif" font-size="14.00">reverse_dll</text>
</g>
<!-- q6&#45;&gt;q0 -->
<g id="edge54" class="edge"><title>q6&#45;&gt;q0</title>
<path fill="none" stroke="green" d="M2504.66,-2210.84C2481.15,-2196.07 2432.45,-2169.43 2387,-2169.43 1101,-2169.43 1101,-2169.43 1101,-2169.43 1030.18,-2169.43 992.652,-2185.72 946,-2132.43 925.43,-2108.94 915.138,-1895.82 912.037,-1817.84"/>
<polygon fill="green" stroke="green" points="915.531,-1817.63 911.647,-1807.77 908.536,-1817.9 915.531,-1817.63"/>
<text text-anchor="middle" x="1762" y="-2173.23" font-family="Times,serif" font-size="14.00">remove_fw_link</text>
</g>
<!-- q6&#45;&gt;q0 -->
<g id="edge55" class="edge"><title>q6&#45;&gt;q0</title>
<path fill="none" stroke="green" d="M2510.52,-2204.54C2504.25,-2193.91 2494.93,-2180.14 2484,-2170.43 2447.42,-2137.96 2435.92,-2118.43 2387,-2118.43 1101,-2118.43 1101,-2118.43 1101,-2118.43 1031.07,-2118.43 994.014,-2142.27 946,-2091.43 927.385,-2071.72 916.106,-1889.13 912.378,-1817.8"/>
<polygon fill="green" stroke="green" points="915.869,-1817.54 911.863,-1807.73 908.878,-1817.9 915.869,-1817.54"/>
<text text-anchor="middle" x="1762" y="-2122.23" font-family="Times,serif" font-size="14.00">check_seq_next</text>
</g>
<!-- q6&#45;&gt;q0 -->
<g id="edge57" class="edge"><title>q6&#45;&gt;q0</title>
<path fill="none" stroke="green" d="M2516.8,-2202.41C2513.29,-2180.53 2504.59,-2143.58 2484,-2119.43 2452.26,-2082.21 2435.92,-2067.43 2387,-2067.43 1871,-2067.43 1871,-2067.43 1871,-2067.43 1676.28,-2067.43 1627.72,-2077.43 1433,-2077.43 1101,-2077.43 1101,-2077.43 1101,-2077.43 1030.57,-2077.43 993.943,-2096.03 946,-2044.43 915.861,-2012 911.41,-1876.98 910.937,-1817.63"/>
<polygon fill="green" stroke="green" points="914.437,-1817.45 910.89,-1807.47 907.437,-1817.49 914.437,-1817.45"/>
<text text-anchor="middle" x="1762" y="-2073.23" font-family="Times,serif" font-size="14.00">Learn_Assert</text>
</g>
<!-- q6&#45;&gt;q5 -->
<g id="edge56" class="edge"><title>q6&#45;&gt;q5</title>
<path fill="none" stroke="green" d="M2533.18,-2233.12C2557.89,-2259.57 2614.1,-2323.5 2644,-2387.43 2661.65,-2425.17 2671.01,-2472.82 2675.48,-2502.46"/>
<polygon fill="green" stroke="green" points="2672.04,-2503.11 2676.92,-2512.52 2678.97,-2502.12 2672.04,-2503.11"/>
<text text-anchor="middle" x="2600" y="-2391.23" font-family="Times,serif" font-size="14.00">check_seq_prev</text>
</g>
<!-- q7 -->
<g id="node9" class="node"><title>q7</title>
<ellipse fill="none" stroke="green" cx="2386" cy="-1907.43" rx="18" ry="18"/>
<text text-anchor="middle" x="2386" y="-1903.73" font-family="Times,serif" font-size="14.00">D</text>
</g>
<!-- q7&#45;&gt;q0 -->
<g id="edge58" class="edge"><title>q7&#45;&gt;q0</title>
<path fill="none" stroke="green" d="M2383.26,-1925.39C2380.24,-1946.12 2372.05,-1979.64 2350,-1997.43 2297.11,-2040.1 2266.95,-2021.43 2199,-2021.43 1871,-2021.43 1871,-2021.43 1871,-2021.43 1676.17,-2021.43 1627.83,-2039.43 1433,-2039.43 1101,-2039.43 1101,-2039.43 1101,-2039.43 1031.29,-2039.43 995.293,-2064.72 946,-2015.43 918.749,-1988.18 912.701,-1872.3 911.37,-1817.88"/>
<polygon fill="green" stroke="green" points="914.862,-1817.48 911.156,-1807.56 907.864,-1817.63 914.862,-1817.48"/>
<text text-anchor="middle" x="1652" y="-2037.23" font-family="Times,serif" font-size="14.00">chain_node</text>
</g>
<!-- q7&#45;&gt;q0 -->
<g id="edge59" class="edge"><title>q7&#45;&gt;q0</title>
<path fill="none" stroke="green" d="M2378.35,-1923.74C2372.63,-1935.6 2363.21,-1951 2350,-1959.43 2292.72,-1995.99 2266.95,-1983.43 2199,-1983.43 1871,-1983.43 1871,-1983.43 1871,-1983.43 1676.17,-1983.43 1627.83,-2001.43 1433,-2001.43 1101,-2001.43 1101,-2001.43 1101,-2001.43 1031.29,-2001.43 996.037,-2025.97 946,-1977.43 923.615,-1955.72 915.236,-1864.63 912.361,-1817.68"/>
<polygon fill="green" stroke="green" points="915.848,-1817.35 911.786,-1807.57 908.859,-1817.75 915.848,-1817.35"/>
<text text-anchor="middle" x="1652" y="-1999.23" font-family="Times,serif" font-size="14.00">create_sll</text>
</g>
<!-- q7&#45;&gt;q0 -->
<g id="edge60" class="edge"><title>q7&#45;&gt;q0</title>
<path fill="none" stroke="green" d="M2369.23,-1914.61C2363.3,-1917.08 2356.44,-1919.66 2350,-1921.43 2284.49,-1939.5 2266.95,-1945.43 2199,-1945.43 1871,-1945.43 1871,-1945.43 1871,-1945.43 1676.17,-1945.43 1627.83,-1963.43 1433,-1963.43 1101,-1963.43 1101,-1963.43 1101,-1963.43 1031.29,-1963.43 997.12,-1986.83 946,-1939.43 928.434,-1923.15 918.313,-1856.19 913.819,-1817.46"/>
<polygon fill="green" stroke="green" points="917.279,-1816.91 912.7,-1807.35 910.322,-1817.68 917.279,-1816.91"/>
<text text-anchor="middle" x="1652" y="-1961.23" font-family="Times,serif" font-size="14.00">init_back_link</text>
</g>
<!-- q7&#45;&gt;q0 -->
<g id="edge62" class="edge"><title>q7&#45;&gt;q0</title>
<path fill="none" stroke="green" d="M2367.82,-1907.43C2335.01,-1907.43 2261.16,-1907.43 2199,-1907.43 1871,-1907.43 1871,-1907.43 1871,-1907.43 1676.17,-1907.43 1627.83,-1925.43 1433,-1925.43 1101,-1925.43 1101,-1925.43 1101,-1925.43 1031.29,-1925.43 998.83,-1946.91 946,-1901.43 921.954,-1880.73 914.212,-1843.76 911.836,-1817.98"/>
<polygon fill="green" stroke="green" points="915.306,-1817.43 911.114,-1807.7 908.323,-1817.92 915.306,-1817.43"/>
<text text-anchor="middle" x="1652" y="-1923.23" font-family="Times,serif" font-size="14.00">remove_fw_link</text>
</g>
<!-- q7&#45;&gt;q0 -->
<g id="edge63" class="edge"><title>q7&#45;&gt;q0</title>
<path fill="none" stroke="green" d="M2368.81,-1901.83C2336.79,-1891.26 2262.94,-1869.43 2199,-1869.43 1871,-1869.43 1871,-1869.43 1871,-1869.43 1676.17,-1869.43 1627.83,-1887.43 1433,-1887.43 1101,-1887.43 1101,-1887.43 1101,-1887.43 1031.29,-1887.43 1001.86,-1905.14 946,-1863.43 931.053,-1852.27 922.233,-1833.11 917.186,-1817.07"/>
<polygon fill="green" stroke="green" points="920.46,-1815.79 914.387,-1807.11 913.721,-1817.68 920.46,-1815.79"/>
<text text-anchor="middle" x="1652" y="-1885.23" font-family="Times,serif" font-size="14.00">check_seq_next</text>
</g>
<!-- q7&#45;&gt;q0 -->
<g id="edge64" class="edge"><title>q7&#45;&gt;q0</title>
<path fill="none" stroke="green" d="M2374.42,-1893.3C2368.11,-1885.79 2359.48,-1876.98 2350,-1871.43 2290.07,-1836.38 2268.43,-1831.43 2199,-1831.43 1761,-1831.43 1761,-1831.43 1761,-1831.43 1615,-1831.43 1579,-1849.43 1433,-1849.43 1101,-1849.43 1101,-1849.43 1101,-1849.43 1031.29,-1849.43 1007.94,-1857.41 946,-1825.43 939.443,-1822.05 933.395,-1816.96 928.237,-1811.68"/>
<polygon fill="green" stroke="green" points="930.625,-1809.1 921.36,-1803.96 925.398,-1813.75 930.625,-1809.1"/>
<text text-anchor="middle" x="1652" y="-1842.23" font-family="Times,serif" font-size="14.00">check_seq_prev</text>
</g>
<!-- q7&#45;&gt;q0 -->
<g id="edge65" class="edge"><title>q7&#45;&gt;q0</title>
<path fill="none" stroke="green" d="M2381.64,-1889.73C2377.35,-1872.09 2368.2,-1845.52 2350,-1830.43 2296.81,-1786.33 2268.1,-1793.43 2199,-1793.43 1761,-1793.43 1761,-1793.43 1761,-1793.43 1615,-1793.43 1579,-1811.43 1433,-1811.43 1101,-1811.43 1101,-1811.43 1101,-1811.43 1042.52,-1811.43 974.579,-1801.02 937.873,-1794.52"/>
<polygon fill="green" stroke="green" points="938.419,-1791.06 927.955,-1792.73 937.172,-1797.95 938.419,-1791.06"/>
<text text-anchor="middle" x="1652" y="-1804.23" font-family="Times,serif" font-size="14.00">Learn_Assert</text>
</g>
<!-- q7&#45;&gt;q6 -->
<g id="edge61" class="edge"><title>q7&#45;&gt;q6</title>
<path fill="none" stroke="green" d="M2399.37,-1919.94C2420.33,-1941.9 2462.61,-1989.72 2484,-2038.43 2506.54,-2089.78 2514.61,-2155.58 2517.47,-2192.34"/>
<polygon fill="green" stroke="green" points="2513.98,-2192.61 2518.17,-2202.34 2520.96,-2192.12 2513.98,-2192.61"/>
<text text-anchor="middle" x="2453" y="-2042.23" font-family="Times,serif" font-size="14.00">reverse_dll</text>
</g>
<!-- q8 -->
<g id="node10" class="node"><title>q8</title>
<ellipse fill="none" stroke="green" cx="2198" cy="-1615.43" rx="18" ry="18"/>
<text text-anchor="middle" x="2198" y="-1611.73" font-family="Times,serif" font-size="14.00">D</text>
</g>
<!-- q8&#45;&gt;q0 -->
<g id="edge66" class="edge"><title>q8&#45;&gt;q0</title>
<path fill="none" stroke="green" d="M2193.2,-1632.89C2186.42,-1659.39 2169.47,-1709.05 2134,-1731.43 2068.04,-1773.06 1511,-1768.43 1433,-1768.43 1101,-1768.43 1101,-1768.43 1101,-1768.43 1042.55,-1768.43 974.601,-1778.37 937.883,-1784.57"/>
<polygon fill="green" stroke="green" points="937.22,-1781.14 927.962,-1786.29 938.412,-1788.03 937.22,-1781.14"/>
<text text-anchor="middle" x="1542" y="-1772.23" font-family="Times,serif" font-size="14.00">chain_node</text>
</g>
<!-- q8&#45;&gt;q0 -->
<g id="edge67" class="edge"><title>q8&#45;&gt;q0</title>
<path fill="none" stroke="green" d="M2186.9,-1629.9C2175.7,-1644.85 2156.24,-1667.72 2134,-1680.43 2073.26,-1715.14 2050.96,-1717.43 1981,-1717.43 1101,-1717.43 1101,-1717.43 1101,-1717.43 1037.48,-1717.43 969.313,-1753.06 934.465,-1774.19"/>
<polygon fill="green" stroke="green" points="932.2,-1771.47 925.551,-1779.72 935.893,-1777.42 932.2,-1771.47"/>
<text text-anchor="middle" x="1542" y="-1721.23" font-family="Times,serif" font-size="14.00">create_sll</text>
</g>
<!-- q8&#45;&gt;q0 -->
<g id="edge68" class="edge"><title>q8&#45;&gt;q0</title>
<path fill="none" stroke="green" d="M2181.05,-1621.89C2145.67,-1635.62 2057.68,-1666.43 1981,-1666.43 1101,-1666.43 1101,-1666.43 1101,-1666.43 1027.6,-1666.43 1001.29,-1675.16 946,-1723.43 934.089,-1733.83 925.584,-1749.3 919.944,-1762.64"/>
<polygon fill="green" stroke="green" points="916.544,-1761.73 916.179,-1772.32 923.068,-1764.27 916.544,-1761.73"/>
<text text-anchor="middle" x="1542" y="-1670.23" font-family="Times,serif" font-size="14.00">init_back_link</text>
</g>
<!-- q8&#45;&gt;q0 -->
<g id="edge69" class="edge"><title>q8&#45;&gt;q0</title>
<path fill="none" stroke="green" d="M2179.92,-1615.43C2143.41,-1615.43 2055.06,-1615.43 1981,-1615.43 1101,-1615.43 1101,-1615.43 1101,-1615.43 1028.48,-1615.43 996.228,-1614.12 946,-1666.43 921.43,-1692.02 913.896,-1733.59 911.704,-1761.22"/>
<polygon fill="green" stroke="green" points="908.197,-1761.22 911.086,-1771.41 915.184,-1761.64 908.197,-1761.22"/>
<text text-anchor="middle" x="1542" y="-1619.23" font-family="Times,serif" font-size="14.00">reverse_dll</text>
</g>
<!-- q8&#45;&gt;q0 -->
<g id="edge70" class="edge"><title>q8&#45;&gt;q0</title>
<path fill="none" stroke="green" d="M2181.05,-1608.97C2145.67,-1595.25 2057.68,-1564.43 1981,-1564.43 1101,-1564.43 1101,-1564.43 1101,-1564.43 1028.62,-1564.43 994.167,-1560.4 946,-1614.43 926.953,-1635.8 917.168,-1717.48 913.197,-1761.29"/>
<polygon fill="green" stroke="green" points="909.707,-1761.03 912.332,-1771.29 916.681,-1761.63 909.707,-1761.03"/>
<text text-anchor="middle" x="1542" y="-1568.23" font-family="Times,serif" font-size="14.00">remove_fw_link</text>
</g>
<!-- q8&#45;&gt;q0 -->
<g id="edge71" class="edge"><title>q8&#45;&gt;q0</title>
<path fill="none" stroke="green" d="M2183.84,-1603.44C2171.65,-1592.82 2152.63,-1577.5 2134,-1567.43 2070.55,-1533.17 2053.11,-1513.43 1981,-1513.43 1101,-1513.43 1101,-1513.43 1101,-1513.43 1028.75,-1513.43 993.028,-1507.58 946,-1562.43 920.807,-1591.81 913.696,-1707.17 911.73,-1761.21"/>
<polygon fill="green" stroke="green" points="908.224,-1761.35 911.393,-1771.46 915.22,-1761.58 908.224,-1761.35"/>
<text text-anchor="middle" x="1542" y="-1517.23" font-family="Times,serif" font-size="14.00">check_seq_next</text>
</g>
<!-- q8&#45;&gt;q0 -->
<g id="edge73" class="edge"><title>q8&#45;&gt;q0</title>
<path fill="none" stroke="green" d="M2190.39,-1598.83C2180.97,-1577.18 2161.69,-1539.48 2134,-1517.43 2077.46,-1472.43 2053.26,-1462.43 1981,-1462.43 1651,-1462.43 1651,-1462.43 1651,-1462.43 1493.97,-1462.43 1060.15,-1402.59 946,-1510.43 927.974,-1527.46 916.514,-1693.22 912.553,-1760.88"/>
<polygon fill="green" stroke="green" points="909.038,-1761.05 911.961,-1771.23 916.026,-1761.45 909.038,-1761.05"/>
<text text-anchor="middle" x="1542" y="-1465.23" font-family="Times,serif" font-size="14.00">Learn_Assert</text>
</g>
<!-- q8&#45;&gt;q7 -->
<g id="edge72" class="edge"><title>q8&#45;&gt;q7</title>
<path fill="none" stroke="green" d="M2213.2,-1625.14C2243.37,-1646.56 2314.02,-1701.01 2350,-1764.43 2370.67,-1800.86 2379.22,-1849.25 2382.69,-1879.36"/>
<polygon fill="green" stroke="green" points="2379.24,-1879.98 2383.76,-1889.57 2386.2,-1879.26 2379.24,-1879.98"/>
<text text-anchor="middle" x="2306" y="-1768.23" font-family="Times,serif" font-size="14.00">check_seq_prev</text>
</g>
<!-- q9 -->
<g id="node11" class="node"><title>q9</title>
<ellipse fill="none" stroke="green" cx="1980" cy="-1302.43" rx="18" ry="18"/>
<text text-anchor="middle" x="1980" y="-1298.73" font-family="Times,serif" font-size="14.00">D</text>
</g>
<!-- q9&#45;&gt;q0 -->
<g id="edge74" class="edge"><title>q9&#45;&gt;q0</title>
<path fill="none" stroke="green" d="M1972.99,-1319.17C1964.41,-1340.35 1946.46,-1376.04 1918,-1392.43 1824.18,-1446.46 1023.92,-1385.27 946,-1460.43 924.524,-1481.15 914.853,-1684.97 911.972,-1761.02"/>
<polygon fill="green" stroke="green" points="908.464,-1761.15 911.595,-1771.27 915.46,-1761.41 908.464,-1761.15"/>
<text text-anchor="middle" x="1432" y="-1423.23" font-family="Times,serif" font-size="14.00">chain_node</text>
</g>
<!-- q9&#45;&gt;q0 -->
<g id="edge75" class="edge"><title>q9&#45;&gt;q0</title>
<path fill="none" stroke="green" d="M1967.54,-1316.25C1956.33,-1328.66 1938.07,-1346.16 1918,-1354.43 1817.85,-1395.74 1022.85,-1354.08 946,-1430.43 922.717,-1453.56 914.096,-1679.56 911.737,-1760.65"/>
<polygon fill="green" stroke="green" points="908.226,-1761 911.445,-1771.1 915.223,-1761.2 908.226,-1761"/>
<text text-anchor="middle" x="1432" y="-1384.23" font-family="Times,serif" font-size="14.00">create_sll</text>
</g>
<!-- q9&#45;&gt;q0 -->
<g id="edge76" class="edge"><title>q9&#45;&gt;q0</title>
<path fill="none" stroke="green" d="M1962.56,-1306.89C1950.35,-1310.03 1933.25,-1314.08 1918,-1316.43 1683.56,-1352.61 1622.44,-1340.21 1386,-1359.43 1239.33,-1371.36 1202.55,-1373.11 1056,-1386.43 1007.07,-1390.88 980.557,-1362.51 946,-1397.43 920.48,-1423.23 913.214,-1676.1 911.479,-1761.46"/>
<polygon fill="green" stroke="green" points="907.98,-1761.39 911.286,-1771.46 914.978,-1761.53 907.98,-1761.39"/>
<text text-anchor="middle" x="1432" y="-1363.23" font-family="Times,serif" font-size="14.00">init_back_link</text>
</g>
<!-- q9&#45;&gt;q0 -->
<g id="edge77" class="edge"><title>q9&#45;&gt;q0</title>
<path fill="none" stroke="green" d="M1961.62,-1302.33C1832.11,-1301.76 1020.45,-1301.18 946,-1376.43 919.005,-1403.72 912.696,-1672.38 911.343,-1761.14"/>
<polygon fill="green" stroke="green" points="907.841,-1761.22 911.198,-1771.27 914.841,-1761.32 907.841,-1761.22"/>
<text text-anchor="middle" x="1432" y="-1317.23" font-family="Times,serif" font-size="14.00">reverse_dll</text>
</g>
<!-- q9&#45;&gt;q0 -->
<g id="edge78" class="edge"><title>q9&#45;&gt;q0</title>
<path fill="none" stroke="green" d="M1961.92,-1301.09C1949.7,-1300.18 1932.85,-1299.04 1918,-1298.43 1519.17,-1282.19 1489.67,-1285.95 1386,-1291.43 1238.72,-1299.22 1202.42,-1308.69 1056,-1326.43 1007.02,-1332.37 979.871,-1305.55 946,-1341.43 917.184,-1371.96 912.082,-1667.82 911.188,-1761.28"/>
<polygon fill="green" stroke="green" points="907.687,-1761.38 911.1,-1771.41 914.687,-1761.44 907.687,-1761.38"/>
<text text-anchor="middle" x="1432" y="-1295.23" font-family="Times,serif" font-size="14.00">remove_fw_link</text>
</g>
<!-- q9&#45;&gt;q0 -->
<g id="edge80" class="edge"><title>q9&#45;&gt;q0</title>
<path fill="none" stroke="green" d="M1962.26,-1298.82C1950.05,-1296.34 1933.07,-1293.18 1918,-1291.43 1703.35,-1266.57 1095.79,-1162.69 946,-1318.43 915.283,-1350.37 911.485,-1664.21 911.047,-1761.09"/>
<polygon fill="green" stroke="green" points="907.547,-1761.29 911.01,-1771.3 914.547,-1761.31 907.547,-1761.29"/>
<text text-anchor="middle" x="1432" y="-1245.23" font-family="Times,serif" font-size="14.00">check_seq_prev</text>
</g>
<!-- q9&#45;&gt;q0 -->
<g id="edge81" class="edge"><title>q9&#45;&gt;q0</title>
<path fill="none" stroke="green" d="M1963.37,-1294.37C1951.29,-1288.49 1933.99,-1280.81 1918,-1276.43 1595.04,-1188.1 1500.1,-1209.41 1166,-1231.43 1067.41,-1237.93 1010.5,-1188.58 946,-1263.43 913.364,-1301.31 910.942,-1657.77 910.932,-1761.34"/>
<polygon fill="green" stroke="green" points="907.432,-1761.36 910.939,-1771.36 914.432,-1761.36 907.432,-1761.36"/>
<text text-anchor="middle" x="1432" y="-1220.23" font-family="Times,serif" font-size="14.00">Learn_Assert</text>
</g>
<!-- q9&#45;&gt;q8 -->
<g id="edge79" class="edge"><title>q9&#45;&gt;q8</title>
<path fill="none" stroke="green" d="M1995.92,-1311.31C2026.23,-1330.09 2095.41,-1376.79 2134,-1433.43 2167.15,-1482.1 2184.51,-1549.94 2192.11,-1587.54"/>
<polygon fill="green" stroke="green" points="2188.75,-1588.59 2194.08,-1597.75 2195.62,-1587.26 2188.75,-1588.59"/>
<text text-anchor="middle" x="2088" y="-1437.23" font-family="Times,serif" font-size="14.00">check_seq_next</text>
</g>
<!-- q10 -->
<g id="node12" class="node"><title>q10</title>
<ellipse fill="none" stroke="green" cx="1762" cy="-1012.43" rx="18" ry="18"/>
<text text-anchor="middle" x="1762" y="-1008.73" font-family="Times,serif" font-size="14.00">D</text>
</g>
<!-- q10&#45;&gt;q0 -->
<g id="edge82" class="edge"><title>q10&#45;&gt;q0</title>
<path fill="none" stroke="green" d="M1756.89,-1029.87C1749.77,-1055.81 1732.47,-1103.95 1698,-1126.43 1557.47,-1218.11 1062.77,-1073.94 946,-1194.43 926.053,-1215.02 914.413,-1645.81 911.646,-1761.21"/>
<polygon fill="green" stroke="green" points="908.143,-1761.29 911.405,-1771.36 915.141,-1761.45 908.143,-1761.29"/>
<text text-anchor="middle" x="1322" y="-1157.23" font-family="Times,serif" font-size="14.00">chain_node</text>
</g>
<!-- q10&#45;&gt;q0 -->
<g id="edge83" class="edge"><title>q10&#45;&gt;q0</title>
<path fill="none" stroke="green" d="M1751.44,-1027.26C1740.55,-1042.73 1721.23,-1066.26 1698,-1077.43 1546.71,-1150.19 1062.26,-1028.33 946,-1149.43 924.539,-1171.79 913.923,-1639.97 911.531,-1761.05"/>
<polygon fill="green" stroke="green" points="908.025,-1761.29 911.33,-1771.35 915.024,-1761.42 908.025,-1761.29"/>
<text text-anchor="middle" x="1322" y="-1102.23" font-family="Times,serif" font-size="14.00">create_sll</text>
</g>
<!-- q10&#45;&gt;q0 -->
<g id="edge85" class="edge"><title>q10&#45;&gt;q0</title>
<path fill="none" stroke="green" d="M1744.89,-1018.89C1709.17,-1032.62 1620.35,-1063.43 1543,-1063.43 1101,-1063.43 1101,-1063.43 1101,-1063.43 1029.85,-1063.43 990.991,-1048.32 946,-1103.43 924.887,-1129.3 913.927,-1634.99 911.515,-1761.12"/>
<polygon fill="green" stroke="green" points="908.015,-1761.1 911.326,-1771.16 915.014,-1761.23 908.015,-1761.1"/>
<text text-anchor="middle" x="1322" y="-1067.23" font-family="Times,serif" font-size="14.00">reverse_dll</text>
</g>
<!-- q10&#45;&gt;q0 -->
<g id="edge86" class="edge"><title>q10&#45;&gt;q0</title>
<path fill="none" stroke="green" d="M1743.76,-1012.43C1706.91,-1012.43 1617.75,-1012.43 1543,-1012.43 1101,-1012.43 1101,-1012.43 1101,-1012.43 1029.14,-1012.43 990.345,-1001.89 946,-1058.43 923.931,-1086.57 913.607,-1630.74 911.44,-1761.4"/>
<polygon fill="green" stroke="green" points="907.941,-1761.37 911.277,-1771.42 914.94,-1761.48 907.941,-1761.37"/>
<text text-anchor="middle" x="1322" y="-1016.23" font-family="Times,serif" font-size="14.00">remove_fw_link</text>
</g>
<!-- q10&#45;&gt;q0 -->
<g id="edge87" class="edge"><title>q10&#45;&gt;q0</title>
<path fill="none" stroke="green" d="M1744.89,-1005.97C1709.17,-992.25 1620.35,-961.433 1543,-961.433 1101,-961.433 1101,-961.433 1101,-961.433 1029.01,-961.433 990.169,-951.59 946,-1008.43 922.461,-1038.73 913.198,-1624.86 911.357,-1761.25"/>
<polygon fill="green" stroke="green" points="907.856,-1761.27 911.224,-1771.32 914.856,-1761.36 907.856,-1761.27"/>
<text text-anchor="middle" x="1322" y="-965.233" font-family="Times,serif" font-size="14.00">check_seq_next</text>
</g>
<!-- q10&#45;&gt;q0 -->
<g id="edge88" class="edge"><title>q10&#45;&gt;q0</title>
<path fill="none" stroke="green" d="M1747.85,-1000.42C1735.66,-989.791 1716.65,-974.457 1698,-964.433 1633.74,-929.897 1615.95,-910.433 1543,-910.433 1101,-910.433 1101,-910.433 1101,-910.433 1029.01,-910.433 990.091,-900.529 946,-957.433 920.865,-989.872 912.782,-1619.42 911.277,-1761.23"/>
<polygon fill="green" stroke="green" points="907.776,-1761.26 911.172,-1771.3 914.776,-1761.33 907.776,-1761.26"/>
<text text-anchor="middle" x="1322" y="-914.233" font-family="Times,serif" font-size="14.00">check_seq_prev</text>
</g>
<!-- q10&#45;&gt;q0 -->
<g id="edge89" class="edge"><title>q10&#45;&gt;q0</title>
<path fill="none" stroke="green" d="M1754.34,-996.005C1744.86,-974.583 1725.53,-937.275 1698,-915.433 1640.62,-869.905 1616.25,-859.433 1543,-859.433 1101,-859.433 1101,-859.433 1101,-859.433 1029.01,-859.433 990.022,-849.476 946,-906.433 919.256,-941.035 912.386,-1614.66 911.204,-1761.38"/>
<polygon fill="green" stroke="green" points="907.704,-1761.36 911.126,-1771.39 914.704,-1761.41 907.704,-1761.36"/>
<text text-anchor="middle" x="1322" y="-863.233" font-family="Times,serif" font-size="14.00">Learn_Assert</text>
</g>
<!-- q10&#45;&gt;q9 -->
<g id="edge84" class="edge"><title>q10&#45;&gt;q9</title>
<path fill="none" stroke="green" d="M1777.26,-1022.7C1806.99,-1044.73 1876.29,-1099.45 1918,-1159.43 1943.5,-1196.11 1961.52,-1245.12 1971.08,-1275.2"/>
<polygon fill="green" stroke="green" points="1967.81,-1276.47 1974.1,-1285 1974.5,-1274.41 1967.81,-1276.47"/>
<text text-anchor="middle" x="1872" y="-1163.23" font-family="Times,serif" font-size="14.00">init_back_link</text>
</g>
<!-- q11 -->
<g id="node13" class="node"><title>q11</title>
<ellipse fill="none" stroke="green" cx="1542" cy="-699.433" rx="18" ry="18"/>
<text text-anchor="middle" x="1542" y="-695.733" font-family="Times,serif" font-size="14.00">D</text>
</g>
<!-- q11&#45;&gt;q0 -->
<g id="edge90" class="edge"><title>q11&#45;&gt;q0</title>
<path fill="none" stroke="green" d="M1534.55,-716.033C1525.42,-737.062 1506.59,-772.585 1478,-789.433 1375.58,-849.782 1027.16,-758.574 946,-845.433 913.949,-879.735 911.233,-1608.07 911.016,-1761.3"/>
<polygon fill="green" stroke="green" points="907.516,-1761.32 911.005,-1771.32 914.516,-1761.32 907.516,-1761.32"/>
<text text-anchor="middle" x="1212" y="-814.233" font-family="Times,serif" font-size="14.00">chain_node</text>
</g>
<!-- q11&#45;&gt;q0 -->
<g id="edge91" class="edge"><title>q11&#45;&gt;q0</title>
<path fill="none" stroke="green" d="M1529.46,-712.655C1517.82,-724.999 1498.67,-742.778 1478,-751.433 1368.37,-797.335 1027.16,-719.606 946,-806.433 912.548,-842.22 910.945,-1603.81 910.972,-1761.15"/>
<polygon fill="green" stroke="green" points="907.472,-1761.41 910.976,-1771.41 914.472,-1761.41 907.472,-1761.41"/>
<text text-anchor="middle" x="1212" y="-769.233" font-family="Times,serif" font-size="14.00">create_sll</text>
</g>
<!-- q11&#45;&gt;q0 -->
<g id="edge92" class="edge"><title>q11&#45;&gt;q0</title>
<path fill="none" stroke="green" d="M1524.26,-703.734C1511.63,-706.838 1493.82,-710.911 1478,-713.433 1419.35,-722.781 986.648,-722.128 946,-765.433 911.005,-802.715 910.639,-1599.33 910.927,-1760.97"/>
<polygon fill="green" stroke="green" points="907.427,-1761.1 910.947,-1771.09 914.427,-1761.09 907.427,-1761.1"/>
<text text-anchor="middle" x="1212" y="-733.233" font-family="Times,serif" font-size="14.00">init_back_link</text>
</g>
<!-- q11&#45;&gt;q0 -->
<g id="edge93" class="edge"><title>q11&#45;&gt;q0</title>
<path fill="none" stroke="green" d="M1524.03,-697.541C1435.17,-688.052 1024.67,-649.487 946,-737.433 910.94,-776.625 910.633,-1596.05 910.927,-1760.75"/>
<polygon fill="green" stroke="green" points="907.427,-1761.05 910.947,-1771.05 914.427,-1761.04 907.427,-1761.05"/>
<text text-anchor="middle" x="1212" y="-686.233" font-family="Times,serif" font-size="14.00">reverse_dll</text>
</g>
<!-- q11&#45;&gt;q0 -->
<g id="edge94" class="edge"><title>q11&#45;&gt;q0</title>
<path fill="none" stroke="green" d="M1524.6,-694.168C1511.98,-690.326 1494.06,-685.307 1478,-682.433 1361.6,-661.599 1024.98,-605.425 946,-693.433 909.297,-734.333 910.331,-1593.29 910.885,-1761.13"/>
<polygon fill="green" stroke="green" points="907.385,-1761.19 910.921,-1771.17 914.385,-1761.16 907.385,-1761.19"/>
<text text-anchor="middle" x="1212" y="-655.233" font-family="Times,serif" font-size="14.00">remove_fw_link</text>
</g>
<!-- q11&#45;&gt;q0 -->
<g id="edge96" class="edge"><title>q11&#45;&gt;q0</title>
<path fill="none" stroke="green" d="M1526.65,-689.591C1514.3,-681.586 1495.71,-670.636 1478,-664.433 1366.38,-625.342 1026.7,-562.97 946,-649.433 906.899,-691.328 909.896,-1589.96 910.827,-1761.33"/>
<polygon fill="green" stroke="green" points="907.327,-1761.36 910.883,-1771.34 914.326,-1761.32 907.327,-1761.36"/>
<text text-anchor="middle" x="1212" y="-620.233" font-family="Times,serif" font-size="14.00">check_seq_prev</text>
</g>
<!-- q11&#45;&gt;q0 -->
<g id="edge97" class="edge"><title>q11&#45;&gt;q0</title>
<path fill="none" stroke="green" d="M1530.66,-685.029C1519.4,-670.45 1500.02,-648.401 1478,-636.433 1373.98,-579.884 1027.51,-521.563 946,-607.433 905.029,-650.593 909.565,-1585.44 910.783,-1761.11"/>
<polygon fill="green" stroke="green" points="907.283,-1761.16 910.854,-1771.13 914.283,-1761.11 907.283,-1761.16"/>
<text text-anchor="middle" x="1212" y="-579.233" font-family="Times,serif" font-size="14.00">Learn_Assert</text>
</g>
<!-- q11&#45;&gt;q10 -->
<g id="edge95" class="edge"><title>q11&#45;&gt;q10</title>
<path fill="none" stroke="green" d="M1558.12,-708.263C1588.83,-726.948 1658.94,-773.483 1698,-830.433 1731.31,-878.995 1748.6,-946.876 1756.15,-984.513"/>
<polygon fill="green" stroke="green" points="1752.79,-985.564 1758.11,-994.726 1759.67,-984.246 1752.79,-985.564"/>
<text text-anchor="middle" x="1652" y="-834.233" font-family="Times,serif" font-size="14.00">check_seq_next</text>
</g>
<!-- q12 -->
<g id="node14" class="node"><title>q12</title>
<ellipse fill="none" stroke="green" cx="1322" cy="-389.433" rx="18" ry="18"/>
<text text-anchor="middle" x="1322" y="-385.733" font-family="Times,serif" font-size="14.00">D</text>
</g>
<!-- q12&#45;&gt;q0 -->
<g id="edge99" class="edge"><title>q12&#45;&gt;q0</title>
<path fill="none" stroke="green" d="M1316.63,-406.656C1309.17,-432.385 1291.43,-480.495 1258,-505.433 1144.39,-590.174 1036.82,-462.62 946,-571.433 906.665,-618.559 909.888,-1581.75 910.83,-1760.89"/>
<polygon fill="green" stroke="green" points="907.331,-1761.12 910.886,-1771.1 914.331,-1761.08 907.331,-1761.12"/>
<text text-anchor="middle" x="1102" y="-540.233" font-family="Times,serif" font-size="14.00">create_sll</text>
</g>
<!-- q12&#45;&gt;q0 -->
<g id="edge100" class="edge"><title>q12&#45;&gt;q0</title>
<path fill="none" stroke="green" d="M1310.97,-404.017C1299.82,-419.056 1280.4,-442.011 1258,-454.433 1133.96,-523.208 1036.65,-412.359 946,-521.433 905.048,-570.706 909.63,-1578.48 910.8,-1761.16"/>
<polygon fill="green" stroke="green" points="907.301,-1761.34 910.867,-1771.31 914.301,-1761.29 907.301,-1761.34"/>
<text text-anchor="middle" x="1102" y="-482.233" font-family="Times,serif" font-size="14.00">init_back_link</text>
</g>
<!-- q12&#45;&gt;q0 -->
<g id="edge101" class="edge"><title>q12&#45;&gt;q0</title>
<path fill="none" stroke="green" d="M1304.17,-393.251C1291.49,-396.109 1273.67,-400.085 1258,-403.433 1188.79,-418.221 991.459,-413.184 946,-467.433 924.482,-493.111 913.102,-1571.48 911.266,-1761.11"/>
<polygon fill="green" stroke="green" points="907.766,-1761.1 911.169,-1771.13 914.765,-1761.17 907.766,-1761.1"/>
<text text-anchor="middle" x="1102" y="-429.233" font-family="Times,serif" font-size="14.00">reverse_dll</text>
</g>
<!-- q12&#45;&gt;q0 -->
<g id="edge102" class="edge"><title>q12&#45;&gt;q0</title>
<path fill="none" stroke="green" d="M1303.96,-388.066C1236.68,-383.094 990.981,-369.075 946,-425.433 924.404,-452.491 913.059,-1568.15 911.256,-1761.14"/>
<polygon fill="green" stroke="green" points="907.755,-1761.29 911.162,-1771.32 914.754,-1761.35 907.755,-1761.29"/>
<text text-anchor="middle" x="1102" y="-392.233" font-family="Times,serif" font-size="14.00">remove_fw_link</text>
</g>
<!-- q12&#45;&gt;q0 -->
<g id="edge103" class="edge"><title>q12&#45;&gt;q0</title>
<path fill="none" stroke="green" d="M1304.02,-386.147C1236.95,-373.624 991.956,-332.295 946,-387.433 923.182,-414.809 912.821,-1565.46 911.222,-1761.25"/>
<polygon fill="green" stroke="green" points="907.722,-1761.29 911.141,-1771.32 914.721,-1761.35 907.722,-1761.29"/>
<text text-anchor="middle" x="1102" y="-368.233" font-family="Times,serif" font-size="14.00">check_seq_next</text>
</g>
<!-- q12&#45;&gt;q0 -->
<g id="edge104" class="edge"><title>q12&#45;&gt;q0</title>
<path fill="none" stroke="green" d="M1305.56,-381.698C1293.02,-375.691 1274.73,-367.548 1258,-362.433 1191.69,-342.154 992.237,-304.75 946,-356.433 921.687,-383.609 912.552,-1562.83 911.186,-1761.24"/>
<polygon fill="green" stroke="green" points="907.684,-1761.4 911.116,-1771.42 914.684,-1761.45 907.684,-1761.4"/>
<text text-anchor="middle" x="1102" y="-343.233" font-family="Times,serif" font-size="14.00">check_seq_prev</text>
</g>
<!-- q12&#45;&gt;q0 -->
<g id="edge105" class="edge"><title>q12&#45;&gt;q0</title>
<path fill="none" stroke="green" d="M1308.67,-376.633C1296.76,-364.994 1277.66,-348.19 1258,-338.433 1195.85,-307.592 992.249,-274.71 946,-326.433 921.16,-354.212 912.449,-1560.55 911.171,-1761.27"/>
<polygon fill="green" stroke="green" points="907.671,-1761.29 911.108,-1771.31 914.671,-1761.33 907.671,-1761.29"/>
<text text-anchor="middle" x="1102" y="-312.233" font-family="Times,serif" font-size="14.00">Learn_Assert</text>
</g>
<!-- q12&#45;&gt;q11 -->
<g id="edge98" class="edge"><title>q12&#45;&gt;q11</title>
<path fill="none" stroke="green" d="M1336.2,-400.8C1365.08,-426.229 1434.76,-490.656 1478,-556.433 1502.66,-593.947 1521.77,-642.717 1532.19,-672.514"/>
<polygon fill="green" stroke="green" points="1528.96,-673.886 1535.51,-682.213 1535.58,-671.618 1528.96,-673.886"/>
<text text-anchor="middle" x="1432" y="-560.233" font-family="Times,serif" font-size="14.00">chain_node</text>
</g>
<!-- q13&#45;&gt;q0 -->
<g id="edge107" class="edge"><title>q13&#45;&gt;q0</title>
<path fill="none" stroke="green" d="M1089.35,-170.706C1077.64,-183.187 1058.43,-201.407 1038,-211.433 1000.52,-229.824 972.731,-198.359 946,-230.433 920.511,-261.016 912.31,-1552.34 911.15,-1761.08"/>
<polygon fill="green" stroke="green" points="907.649,-1761.21 911.094,-1771.23 914.649,-1761.25 907.649,-1761.21"/>
<text text-anchor="middle" x="992" y="-234.233" font-family="Times,serif" font-size="14.00">create_sll</text>
</g>
<!-- q13&#45;&gt;q0 -->
<g id="edge108" class="edge"><title>q13&#45;&gt;q0</title>
<path fill="none" stroke="green" d="M1084.47,-161.848C1071.79,-165.181 1053.84,-169.788 1038,-173.433 997.312,-182.796 972.722,-160.352 946,-192.433 919.871,-223.801 912.195,-1549.33 911.134,-1761.05"/>
<polygon fill="green" stroke="green" points="907.633,-1761.31 911.084,-1771.33 914.633,-1761.35 907.633,-1761.31"/>
<text text-anchor="middle" x="992" y="-196.233" font-family="Times,serif" font-size="14.00">init_back_link</text>
</g>
<!-- q13&#45;&gt;q0 -->
<g id="edge109" class="edge"><title>q13&#45;&gt;q0</title>
<path fill="none" stroke="green" d="M1084.22,-154.267C1048.18,-147.903 965.138,-135.7 946,-154.433 916.085,-183.714 911.583,-1547.35 911.06,-1761.31"/>
<polygon fill="green" stroke="green" points="907.56,-1761.41 911.036,-1771.42 914.56,-1761.43 907.56,-1761.41"/>
<text text-anchor="middle" x="992" y="-158.233" font-family="Times,serif" font-size="14.00">reverse_dll</text>
</g>
<!-- q13&#45;&gt;q0 -->
<g id="edge110" class="edge"><title>q13&#45;&gt;q0</title>
<path fill="none" stroke="green" d="M1086.71,-147.526C1056.31,-127.751 984.824,-88.4173 946,-126.433 915.563,-156.236 911.499,-1544.65 911.05,-1761.17"/>
<polygon fill="green" stroke="green" points="907.55,-1761.38 911.03,-1771.39 914.55,-1761.4 907.55,-1761.38"/>
<text text-anchor="middle" x="992" y="-130.233" font-family="Times,serif" font-size="14.00">remove_fw_link</text>
</g>
<!-- q13&#45;&gt;q0 -->
<g id="edge111" class="edge"><title>q13&#45;&gt;q0</title>
<path fill="none" stroke="green" d="M1091.83,-142.464C1081.15,-126.623 1061.88,-102.543 1038,-92.4326 1000.35,-76.4905 975.209,-63.8194 946,-92.4326 914.916,-122.882 911.396,-1542.53 911.038,-1761.27"/>
<polygon fill="green" stroke="green" points="907.538,-1761.3 911.022,-1771.3 914.538,-1761.31 907.538,-1761.3"/>
<text text-anchor="middle" x="992" y="-96.2326" font-family="Times,serif" font-size="14.00">check_seq_next</text>
</g>
<!-- q13&#45;&gt;q0 -->
<g id="edge112" class="edge"><title>q13&#45;&gt;q0</title>
<path fill="none" stroke="green" d="M1096.11,-140.388C1088.26,-116.609 1070.35,-74.3799 1038,-56.4326 1002.25,-36.595 975.203,-27.8132 946,-56.4326 914.247,-87.5511 911.292,-1538.8 911.026,-1761.02"/>
<polygon fill="green" stroke="green" points="907.526,-1761.2 911.014,-1771.21 914.526,-1761.21 907.526,-1761.2"/>
<text text-anchor="middle" x="992" y="-60.2326" font-family="Times,serif" font-size="14.00">check_seq_prev</text>
</g>
<!-- q13&#45;&gt;q0 -->
<g id="edge113" class="edge"><title>q13&#45;&gt;q0</title>
<path fill="none" stroke="green" d="M1098.92,-139.553C1094.26,-108.739 1079.87,-46.3467 1038,-19.4326 1003.6,2.67592 975.197,9.19298 946,-19.4326 913.542,-51.2551 911.184,-1536.53 911.013,-1761.11"/>
<polygon fill="green" stroke="green" points="907.513,-1761.39 911.006,-1771.4 914.513,-1761.4 907.513,-1761.39"/>
<text text-anchor="middle" x="992" y="-23.2326" font-family="Times,serif" font-size="14.00">Learn_Assert</text>
</g>
<!-- q13&#45;&gt;q12 -->
<g id="edge106" class="edge"><title>q13&#45;&gt;q12</title>
<path fill="none" stroke="green" d="M1120.19,-158.141C1151.77,-160.366 1219.31,-169.553 1258,-207.433 1300.79,-249.322 1314.54,-321.667 1318.94,-361.359"/>
<polygon fill="green" stroke="green" points="1315.47,-361.796 1319.93,-371.405 1322.44,-361.11 1315.47,-361.796"/>
<text text-anchor="middle" x="1212" y="-211.233" font-family="Times,serif" font-size="14.00">chain_node</text>
</g>
<!-- iq0 -->
<g id="node16" class="node"><title>iq0</title>
</g>
<!-- iq0&#45;&gt;q0 -->
<g id="edge1" class="edge"><title>iq0&#45;&gt;q0</title>
<path fill="none" stroke="blue" d="M409.12,-1660.41C499.751,-1657.37 799.212,-1651.72 874,-1706.43 891.679,-1719.36 900.489,-1742.99 904.844,-1761.74"/>
<polygon fill="blue" stroke="blue" points="901.417,-1762.45 906.833,-1771.55 908.277,-1761.06 901.417,-1762.45"/>
</g>
</g>
</svg>
