<?xml version="1.0" encoding="UTF-8" standalone="no"?>
<!DOCTYPE svg PUBLIC "-//W3C//DTD SVG 1.1//EN"
 "http://www.w3.org/Graphics/SVG/1.1/DTD/svg11.dtd">
<!-- Generated by graphviz version 2.34.0 (20141125.1709)
 -->
<!-- Title: finite_automaton Pages: 1 -->
<svg width="501pt" height="576pt"
 viewBox="0.00 0.00 501.08 576.00" xmlns="http://www.w3.org/2000/svg" xmlns:xlink="http://www.w3.org/1999/xlink">
<g id="graph0" class="graph" transform="scale(0.115938 0.115938) rotate(0) translate(4 4964.18)">
<title>finite_automaton</title>
<polygon fill="white" stroke="white" points="-4,4 -4,-4964.18 4318,-4964.18 4318,4 -4,4"/>
<!-- dom_edges -->
<g id="node1" class="node"><title>dom_edges</title>
<polygon fill="none" stroke="green" points="764,-2157.18 0,-2157.18 0,-2121.18 764,-2121.18 764,-2157.18"/>
<text text-anchor="middle" x="382" y="-2135.48" font-family="Times,serif" font-size="14.00">Dominating edges: chain_node, create_sll, init_back_link, reverse_dll, remove_fw_link, check_seq_next, check_seq_prev, Learn_Assert</text>
</g>
<!-- q1 -->
<g id="node2" class="node"><title>q1</title>
<ellipse fill="none" stroke="green" cx="382" cy="-2378.18" rx="18" ry="18"/>
<ellipse fill="none" stroke="green" cx="382" cy="-2378.18" rx="22" ry="22"/>
<text text-anchor="middle" x="382" y="-2374.48" font-family="Times,serif" font-size="14.00">D</text>
</g>
<!-- q0 -->
<g id="node3" class="node"><title>q0</title>
<ellipse fill="none" stroke="green" cx="910" cy="-2321.18" rx="18" ry="18"/>
<text text-anchor="middle" x="910" y="-2317.48" font-family="Times,serif" font-size="14.00">D</text>
</g>
<!-- q1&#45;&gt;q0 -->
<g id="edge10" class="edge"><title>q1&#45;&gt;q0</title>
<path fill="none" stroke="green" d="M400.526,-2390.16C469.324,-2435.56 724.453,-2588.67 874,-2470.18 892.657,-2455.4 902.342,-2388.33 906.475,-2349.4"/>
<polygon fill="green" stroke="green" points="909.98,-2349.53 907.497,-2339.23 903.015,-2348.83 909.98,-2349.53"/>
<text text-anchor="middle" x="828" y="-2510.98" font-family="Times,serif" font-size="14.00">chain_node</text>
</g>
<!-- q1&#45;&gt;q0 -->
<g id="edge11" class="edge"><title>q1&#45;&gt;q0</title>
<path fill="none" stroke="green" d="M403.748,-2382.11C492.258,-2398.63 835.487,-2460.42 874,-2432.18 899.636,-2413.38 906.982,-2375.77 908.835,-2349.56"/>
<polygon fill="green" stroke="green" points="912.337,-2349.62 909.322,-2339.46 905.345,-2349.28 912.337,-2349.62"/>
<text text-anchor="middle" x="828" y="-2442.98" font-family="Times,serif" font-size="14.00">create_sll</text>
</g>
<!-- q1&#45;&gt;q0 -->
<g id="edge12" class="edge"><title>q1&#45;&gt;q0</title>
<path fill="none" stroke="green" d="M403.961,-2380.23C492.588,-2388.71 833.852,-2419.45 874,-2394.18 889.709,-2384.29 898.525,-2365.18 903.379,-2348.99"/>
<polygon fill="green" stroke="green" points="906.874,-2349.46 906.029,-2338.9 900.103,-2347.68 906.874,-2349.46"/>
<text text-anchor="middle" x="828" y="-2406.98" font-family="Times,serif" font-size="14.00">init_back_link</text>
</g>
<!-- q1&#45;&gt;q0 -->
<g id="edge13" class="edge"><title>q1&#45;&gt;q0</title>
<path fill="none" stroke="green" d="M404.089,-2378.13C492.49,-2377.8 830.615,-2375.3 874,-2356.18 880.657,-2353.25 886.739,-2348.43 891.897,-2343.29"/>
<polygon fill="green" stroke="green" points="894.638,-2345.47 898.755,-2335.71 889.449,-2340.78 894.638,-2345.47"/>
<text text-anchor="middle" x="828" y="-2370.98" font-family="Times,serif" font-size="14.00">reverse_dll</text>
</g>
<!-- q1&#45;&gt;q0 -->
<g id="edge14" class="edge"><title>q1&#45;&gt;q0</title>
<path fill="none" stroke="green" d="M403.944,-2375.91C486.469,-2366.97 789.155,-2334.17 881.843,-2324.12"/>
<polygon fill="green" stroke="green" points="882.274,-2327.6 891.838,-2323.04 881.519,-2320.64 882.274,-2327.6"/>
<text text-anchor="middle" x="828" y="-2336.98" font-family="Times,serif" font-size="14.00">remove_fw_link</text>
</g>
<!-- q1&#45;&gt;q0 -->
<g id="edge15" class="edge"><title>q1&#45;&gt;q0</title>
<path fill="none" stroke="green" d="M403.587,-2373.05C462.238,-2358.72 635.423,-2318.48 782,-2305.18 822.722,-2301.49 834.047,-2296.48 874,-2305.18 877.501,-2305.94 881.071,-2307.09 884.527,-2308.42"/>
<polygon fill="green" stroke="green" points="883.254,-2311.68 893.816,-2312.52 886.08,-2305.28 883.254,-2311.68"/>
<text text-anchor="middle" x="828" y="-2308.98" font-family="Times,serif" font-size="14.00">check_seq_next</text>
</g>
<!-- q1&#45;&gt;q0 -->
<g id="edge16" class="edge"><title>q1&#45;&gt;q0</title>
<path fill="none" stroke="green" d="M403.033,-2371.5C460.914,-2352.6 633.711,-2298.95 782,-2281.18 822.599,-2276.32 836.765,-2264.28 874,-2281.18 881.799,-2284.72 888.543,-2290.95 893.973,-2297.45"/>
<polygon fill="green" stroke="green" points="891.327,-2299.76 900.127,-2305.66 896.927,-2295.56 891.327,-2299.76"/>
<text text-anchor="middle" x="828" y="-2284.98" font-family="Times,serif" font-size="14.00">check_seq_prev</text>
</g>
<!-- q1&#45;&gt;q0 -->
<g id="edge17" class="edge"><title>q1&#45;&gt;q0</title>
<path fill="none" stroke="green" d="M402.423,-2369.76C459.355,-2345.58 631.313,-2276.23 782,-2253.18 822.419,-2247 839.093,-2231.89 874,-2253.18 888.552,-2262.06 897.31,-2279.13 902.427,-2293.95"/>
<polygon fill="green" stroke="green" points="899.143,-2295.18 905.413,-2303.72 905.837,-2293.13 899.143,-2295.18"/>
<text text-anchor="middle" x="828" y="-2256.98" font-family="Times,serif" font-size="14.00">Learn_Assert</text>
</g>
<!-- q0&#45;&gt;q0 -->
<g id="edge2" class="edge"><title>q0&#45;&gt;q0</title>
<path fill="none" stroke="green" d="M907.881,-2339.33C907.555,-2348.72 908.261,-2357.18 910,-2357.18 911.06,-2357.18 911.736,-2354.04 912.029,-2349.46"/>
<polygon fill="green" stroke="green" points="915.53,-2349.36 912.119,-2339.33 908.53,-2349.3 915.53,-2349.36"/>
<text text-anchor="middle" x="910" y="-2360.98" font-family="Times,serif" font-size="14.00">chain_node</text>
</g>
<!-- q0&#45;&gt;q0 -->
<g id="edge4" class="edge"><title>q0&#45;&gt;q0</title>
<path fill="none" stroke="green" d="M906.509,-2338.88C904.581,-2356.18 905.744,-2375.18 910,-2375.18 913.424,-2375.18 914.847,-2362.87 914.267,-2349.05"/>
<polygon fill="green" stroke="green" points="917.741,-2348.58 913.491,-2338.88 910.762,-2349.12 917.741,-2348.58"/>
<text text-anchor="middle" x="910" y="-2378.98" font-family="Times,serif" font-size="14.00">init_back_link</text>
</g>
<!-- q0&#45;&gt;q0 -->
<g id="edge5" class="edge"><title>q0&#45;&gt;q0</title>
<path fill="none" stroke="green" d="M905.613,-2338.9C901.605,-2363.29 903.068,-2393.18 910,-2393.18 916.012,-2393.18 917.91,-2370.71 915.694,-2348.82"/>
<polygon fill="green" stroke="green" points="919.163,-2348.35 914.387,-2338.9 912.222,-2349.27 919.163,-2348.35"/>
<text text-anchor="middle" x="910" y="-2396.98" font-family="Times,serif" font-size="14.00">reverse_dll</text>
</g>
<!-- q0&#45;&gt;q0 -->
<g id="edge6" class="edge"><title>q0&#45;&gt;q0</title>
<path fill="none" stroke="green" d="M904.998,-2338.85C898.632,-2370.03 900.299,-2411.18 910,-2411.18 918.678,-2411.18 920.927,-2378.25 916.748,-2348.99"/>
<polygon fill="green" stroke="green" points="920.149,-2348.11 915.002,-2338.85 913.25,-2349.3 920.149,-2348.11"/>
<text text-anchor="middle" x="910" y="-2414.98" font-family="Times,serif" font-size="14.00">remove_fw_link</text>
</g>
<!-- q0&#45;&gt;q0 -->
<g id="edge7" class="edge"><title>q0&#45;&gt;q0</title>
<path fill="none" stroke="green" d="M904.63,-2338.46C895.655,-2376.25 897.445,-2429.18 910,-2429.18 921.476,-2429.18 923.958,-2384.95 917.446,-2348.49"/>
<polygon fill="green" stroke="green" points="920.823,-2347.54 915.37,-2338.46 913.968,-2348.96 920.823,-2347.54"/>
<text text-anchor="middle" x="910" y="-2432.98" font-family="Times,serif" font-size="14.00">check_seq_next</text>
</g>
<!-- q0&#45;&gt;q0 -->
<g id="edge8" class="edge"><title>q0&#45;&gt;q0</title>
<path fill="none" stroke="green" d="M904.312,-2338.36C892.695,-2382.58 894.591,-2447.18 910,-2447.18 924.296,-2447.18 926.961,-2391.58 917.995,-2348.23"/>
<polygon fill="green" stroke="green" points="921.371,-2347.3 915.688,-2338.36 914.555,-2348.89 921.371,-2347.3"/>
<text text-anchor="middle" x="910" y="-2450.98" font-family="Times,serif" font-size="14.00">check_seq_prev</text>
</g>
<!-- q0&#45;&gt;q0 -->
<g id="edge9" class="edge"><title>q0&#45;&gt;q0</title>
<path fill="none" stroke="green" d="M904.009,-2338.46C889.745,-2389.03 891.742,-2465.18 910,-2465.18 927.117,-2465.18 929.942,-2398.25 918.475,-2348.22"/>
<polygon fill="green" stroke="green" points="921.85,-2347.29 915.991,-2338.46 915.066,-2349.02 921.85,-2347.29"/>
<text text-anchor="middle" x="910" y="-2468.98" font-family="Times,serif" font-size="14.00">Learn_Assert</text>
</g>
<!-- q18 -->
<g id="node20" class="node"><title>q18</title>
<ellipse fill="none" stroke="green" cx="1102" cy="-367.18" rx="18" ry="18"/>
<text text-anchor="middle" x="1102" y="-363.48" font-family="Times,serif" font-size="14.00">D</text>
</g>
<!-- q0&#45;&gt;q18 -->
<g id="edge3" class="edge"><title>q0&#45;&gt;q18</title>
<path fill="none" stroke="green" d="M911.046,-2303.17C911.555,-2117.5 916.698,-557.966 946,-521.18 972.26,-488.213 1009.18,-528.937 1038,-498.18 1068.58,-465.544 1032.01,-436.921 1056,-399.18 1061.03,-391.272 1068.78,-384.737 1076.44,-379.68"/>
<polygon fill="green" stroke="green" points="1078.43,-382.565 1085.22,-374.429 1074.84,-376.557 1078.43,-382.565"/>
<text text-anchor="middle" x="992" y="-524.98" font-family="Times,serif" font-size="14.00">create_sll</text>
</g>
<!-- q2 -->
<g id="node4" class="node"><title>q2</title>
<ellipse fill="none" stroke="green" cx="4296" cy="-4749.18" rx="18" ry="18"/>
<text text-anchor="middle" x="4296" y="-4745.48" font-family="Times,serif" font-size="14.00">D</text>
</g>
<!-- q2&#45;&gt;q1 -->
<g id="edge25" class="edge"><title>q2&#45;&gt;q1</title>
<path fill="none" stroke="green" d="M4295.8,-4767.52C4296.13,-4798.12 4292.39,-4859.91 4260,-4897.18 4221.51,-4941.47 4195.68,-4945.18 4137,-4945.18 909,-4945.18 909,-4945.18 909,-4945.18 636.993,-4945.18 414.124,-2704.62 385.995,-2410.01"/>
<polygon fill="green" stroke="green" points="389.473,-2409.61 385.041,-2399.98 382.504,-2410.27 389.473,-2409.61"/>
<text text-anchor="middle" x="2748" y="-4948.98" font-family="Times,serif" font-size="14.00">Learn_Assert</text>
</g>
<!-- q2&#45;&gt;q0 -->
<g id="edge18" class="edge"><title>q2&#45;&gt;q0</title>
<path fill="none" stroke="green" d="M4294.61,-4767.55C4293.06,-4792.97 4286.49,-4838.71 4260,-4865.18 4219.62,-4905.53 4194.09,-4902.18 4137,-4902.18 1101,-4902.18 1101,-4902.18 1101,-4902.18 1030.18,-4902.18 990.264,-4920.47 946,-4865.18 904.625,-4813.5 910.053,-2626.41 910.906,-2349.83"/>
<polygon fill="green" stroke="green" points="914.407,-2349.45 910.938,-2339.44 907.407,-2349.43 914.407,-2349.45"/>
<text text-anchor="middle" x="2858" y="-4905.98" font-family="Times,serif" font-size="14.00">chain_node</text>
</g>
<!-- q2&#45;&gt;q0 -->
<g id="edge19" class="edge"><title>q2&#45;&gt;q0</title>
<path fill="none" stroke="green" d="M4289.94,-4766.26C4284.73,-4780.98 4275.19,-4801.78 4260,-4814.18 4215.77,-4850.28 4194.09,-4851.18 4137,-4851.18 1101,-4851.18 1101,-4851.18 1101,-4851.18 1030.18,-4851.18 990.272,-4869.46 946,-4814.18 905.468,-4763.57 910.152,-2622.49 910.914,-2349.67"/>
<polygon fill="green" stroke="green" points="914.415,-2349.43 910.944,-2339.42 907.415,-2349.41 914.415,-2349.43"/>
<text text-anchor="middle" x="2858" y="-4854.98" font-family="Times,serif" font-size="14.00">create_sll</text>
</g>
<!-- q2&#45;&gt;q0 -->
<g id="edge20" class="edge"><title>q2&#45;&gt;q0</title>
<path fill="none" stroke="green" d="M4279.83,-4757.6C4252.27,-4772.09 4191.77,-4800.18 4137,-4800.18 1101,-4800.18 1101,-4800.18 1101,-4800.18 1030.18,-4800.18 990.28,-4818.46 946,-4763.18 906.31,-4713.63 910.253,-2618.49 910.923,-2349.5"/>
<polygon fill="green" stroke="green" points="914.424,-2349.39 910.949,-2339.38 907.424,-2349.37 914.424,-2349.39"/>
<text text-anchor="middle" x="2858" y="-4803.98" font-family="Times,serif" font-size="14.00">init_back_link</text>
</g>
<!-- q2&#45;&gt;q0 -->
<g id="edge21" class="edge"><title>q2&#45;&gt;q0</title>
<path fill="none" stroke="green" d="M4277.93,-4749.18C4248.96,-4749.18 4188.3,-4749.18 4137,-4749.18 1101,-4749.18 1101,-4749.18 1101,-4749.18 1030.18,-4749.18 990.289,-4767.45 946,-4712.18 907.171,-4663.72 910.352,-2616.42 910.932,-2349.72"/>
<polygon fill="green" stroke="green" points="914.433,-2349.35 910.955,-2339.34 907.433,-2349.33 914.433,-2349.35"/>
<text text-anchor="middle" x="2858" y="-4752.98" font-family="Times,serif" font-size="14.00">reverse_dll</text>
</g>
<!-- q2&#45;&gt;q0 -->
<g id="edge22" class="edge"><title>q2&#45;&gt;q0</title>
<path fill="none" stroke="green" d="M4279.83,-4740.76C4252.27,-4726.27 4191.77,-4698.18 4137,-4698.18 1101,-4698.18 1101,-4698.18 1101,-4698.18 1030.18,-4698.18 990.297,-4716.44 946,-4661.18 908.011,-4613.79 910.457,-2612.18 910.942,-2349.51"/>
<polygon fill="green" stroke="green" points="914.442,-2349.29 910.961,-2339.28 907.442,-2349.27 914.442,-2349.29"/>
<text text-anchor="middle" x="2858" y="-4701.98" font-family="Times,serif" font-size="14.00">remove_fw_link</text>
</g>
<!-- q2&#45;&gt;q0 -->
<g id="edge23" class="edge"><title>q2&#45;&gt;q0</title>
<path fill="none" stroke="green" d="M4287.49,-4733.22C4281.45,-4721.86 4271.99,-4706.92 4260,-4697.18 4214.2,-4659.97 4196.01,-4647.18 4137,-4647.18 1101,-4647.18 1101,-4647.18 1101,-4647.18 1030.18,-4647.18 990.307,-4665.43 946,-4610.18 908.85,-4563.85 910.562,-2607.86 910.952,-2349.29"/>
<polygon fill="green" stroke="green" points="914.452,-2349.22 910.967,-2339.21 907.452,-2349.21 914.452,-2349.22"/>
<text text-anchor="middle" x="2858" y="-4650.98" font-family="Times,serif" font-size="14.00">check_seq_next</text>
</g>
<!-- q2&#45;&gt;q0 -->
<g id="edge24" class="edge"><title>q2&#45;&gt;q0</title>
<path fill="none" stroke="green" d="M4293.49,-4731.02C4290.68,-4708.19 4282.66,-4669.11 4260,-4645.18 4219.54,-4602.45 4195.84,-4596.18 4137,-4596.18 1101,-4596.18 1101,-4596.18 1101,-4596.18 1029.74,-4596.18 989.911,-4611.3 946,-4555.18 910.34,-4509.6 910.751,-2606.73 910.969,-2349.78"/>
<polygon fill="green" stroke="green" points="914.47,-2349.42 910.979,-2339.42 907.47,-2349.42 914.47,-2349.42"/>
<text text-anchor="middle" x="2858" y="-4599.98" font-family="Times,serif" font-size="14.00">check_seq_prev</text>
</g>
<!-- q3 -->
<g id="node5" class="node"><title>q3</title>
<ellipse fill="none" stroke="green" cx="4136" cy="-4436.18" rx="18" ry="18"/>
<text text-anchor="middle" x="4136" y="-4432.48" font-family="Times,serif" font-size="14.00">D</text>
</g>
<!-- q3&#45;&gt;q0 -->
<g id="edge26" class="edge"><title>q3&#45;&gt;q0</title>
<path fill="none" stroke="green" d="M4133.17,-4454.02C4130.06,-4474.65 4121.79,-4508.07 4100,-4526.18 4055.82,-4562.89 4030.44,-4550.18 3973,-4550.18 1101,-4550.18 1101,-4550.18 1101,-4550.18 1031.29,-4550.18 991.783,-4578.75 946,-4526.18 908.486,-4483.11 910.5,-2603.29 910.944,-2349.43"/>
<polygon fill="green" stroke="green" points="914.444,-2349.21 910.963,-2339.2 907.444,-2349.2 914.444,-2349.21"/>
<text text-anchor="middle" x="2748" y="-4553.98" font-family="Times,serif" font-size="14.00">chain_node</text>
</g>
<!-- q3&#45;&gt;q0 -->
<g id="edge27" class="edge"><title>q3&#45;&gt;q0</title>
<path fill="none" stroke="green" d="M4128.04,-4452.87C4122.26,-4464.61 4112.9,-4479.68 4100,-4488.18 4052.03,-4519.78 4030.44,-4512.18 3973,-4512.18 1101,-4512.18 1101,-4512.18 1101,-4512.18 1031.29,-4512.18 991.79,-4540.74 946,-4488.18 909.146,-4445.88 910.586,-2600.33 910.952,-2349.33"/>
<polygon fill="green" stroke="green" points="914.452,-2349.21 910.968,-2339.21 907.452,-2349.2 914.452,-2349.21"/>
<text text-anchor="middle" x="2748" y="-4515.98" font-family="Times,serif" font-size="14.00">create_sll</text>
</g>
<!-- q3&#45;&gt;q0 -->
<g id="edge28" class="edge"><title>q3&#45;&gt;q0</title>
<path fill="none" stroke="green" d="M4119.2,-4443.26C4113.27,-4445.71 4106.41,-4448.31 4100,-4450.18 4044.85,-4466.26 4030.44,-4474.18 3973,-4474.18 1101,-4474.18 1101,-4474.18 1101,-4474.18 1031.29,-4474.18 991.798,-4502.73 946,-4450.18 909.805,-4408.64 910.672,-2597.31 910.961,-2349.22"/>
<polygon fill="green" stroke="green" points="914.461,-2349.21 910.973,-2339.21 907.461,-2349.2 914.461,-2349.21"/>
<text text-anchor="middle" x="2748" y="-4477.98" font-family="Times,serif" font-size="14.00">init_back_link</text>
</g>
<!-- q3&#45;&gt;q0 -->
<g id="edge29" class="edge"><title>q3&#45;&gt;q0</title>
<path fill="none" stroke="green" d="M4117.97,-4436.18C4088.46,-4436.18 4025.88,-4436.18 3973,-4436.18 1101,-4436.18 1101,-4436.18 1101,-4436.18 1031.29,-4436.18 991.806,-4464.73 946,-4412.18 910.481,-4371.43 910.759,-2595.98 910.969,-2349.47"/>
<polygon fill="green" stroke="green" points="914.469,-2349.2 910.979,-2339.2 907.469,-2349.19 914.469,-2349.2"/>
<text text-anchor="middle" x="2748" y="-4439.98" font-family="Times,serif" font-size="14.00">reverse_dll</text>
</g>
<!-- q3&#45;&gt;q0 -->
<g id="edge30" class="edge"><title>q3&#45;&gt;q0</title>
<path fill="none" stroke="green" d="M4118.74,-4429.73C4089.88,-4418.89 4027.6,-4398.18 3973,-4398.18 1101,-4398.18 1101,-4398.18 1101,-4398.18 1031.29,-4398.18 991.814,-4426.72 946,-4374.18 911.138,-4334.2 910.848,-2592.79 910.978,-2349.33"/>
<polygon fill="green" stroke="green" points="914.478,-2349.18 910.984,-2339.18 907.478,-2349.18 914.478,-2349.18"/>
<text text-anchor="middle" x="2748" y="-4401.98" font-family="Times,serif" font-size="14.00">remove_fw_link</text>
</g>
<!-- q3&#45;&gt;q0 -->
<g id="edge31" class="edge"><title>q3&#45;&gt;q0</title>
<path fill="none" stroke="green" d="M4125.28,-4421.31C4119,-4412.81 4110.14,-4402.59 4100,-4396.18 4050.42,-4364.81 4031.67,-4360.18 3973,-4360.18 1101,-4360.18 1101,-4360.18 1101,-4360.18 1031.29,-4360.18 991.822,-4388.71 946,-4336.18 911.812,-4296.98 910.939,-2591.29 910.987,-2349.56"/>
<polygon fill="green" stroke="green" points="914.487,-2349.46 910.99,-2339.46 907.487,-2349.46 914.487,-2349.46"/>
<text text-anchor="middle" x="2748" y="-4363.98" font-family="Times,serif" font-size="14.00">check_seq_next</text>
</g>
<!-- q3&#45;&gt;q0 -->
<g id="edge33" class="edge"><title>q3&#45;&gt;q0</title>
<path fill="none" stroke="green" d="M4131.75,-4418.47C4127.53,-4400.47 4118.41,-4373.04 4100,-4357.18 4055.65,-4318.96 4031.55,-4322.18 3973,-4322.18 1101,-4322.18 1101,-4322.18 1101,-4322.18 1029.01,-4322.18 989.401,-4332.61 946,-4275.18 915.622,-4234.98 911.484,-2586.15 911.046,-2349.38"/>
<polygon fill="green" stroke="green" points="914.545,-2349.18 911.027,-2339.18 907.545,-2349.19 914.545,-2349.18"/>
<text text-anchor="middle" x="2748" y="-4325.98" font-family="Times,serif" font-size="14.00">Learn_Assert</text>
</g>
<!-- q3&#45;&gt;q2 -->
<g id="edge32" class="edge"><title>q3&#45;&gt;q2</title>
<path fill="none" stroke="green" d="M4151.11,-4446.65C4177.2,-4466.82 4232.77,-4513.83 4260,-4567.18 4285.56,-4617.26 4292.54,-4683.78 4294.39,-4720.95"/>
<polygon fill="green" stroke="green" points="4290.89,-4721.21 4294.8,-4731.06 4297.89,-4720.93 4290.89,-4721.21"/>
<text text-anchor="middle" x="4216" y="-4570.98" font-family="Times,serif" font-size="14.00">check_seq_prev</text>
</g>
<!-- q4 -->
<g id="node6" class="node"><title>q4</title>
<ellipse fill="none" stroke="green" cx="3972" cy="-4126.18" rx="18" ry="18"/>
<text text-anchor="middle" x="3972" y="-4122.48" font-family="Times,serif" font-size="14.00">D</text>
</g>
<!-- q4&#45;&gt;q0 -->
<g id="edge34" class="edge"><title>q4&#45;&gt;q0</title>
<path fill="none" stroke="green" d="M3970.61,-4144.55C3969.06,-4169.97 3962.49,-4215.71 3936,-4242.18 3895.62,-4282.53 3870.09,-4279.18 3813,-4279.18 1101,-4279.18 1101,-4279.18 1101,-4279.18 1030.18,-4279.18 990.388,-4297.37 946,-4242.18 914.971,-4203.6 911.391,-2583.48 911.036,-2349.28"/>
<polygon fill="green" stroke="green" points="914.536,-2349.18 911.021,-2339.19 907.536,-2349.19 914.536,-2349.18"/>
<text text-anchor="middle" x="2640" y="-4282.98" font-family="Times,serif" font-size="14.00">chain_node</text>
</g>
<!-- q4&#45;&gt;q0 -->
<g id="edge35" class="edge"><title>q4&#45;&gt;q0</title>
<path fill="none" stroke="green" d="M3965.94,-4143.26C3960.73,-4157.98 3951.19,-4178.78 3936,-4191.18 3891.77,-4227.28 3870.09,-4228.18 3813,-4228.18 1101,-4228.18 1101,-4228.18 1101,-4228.18 1030.18,-4228.18 990.401,-4246.36 946,-4191.18 915.832,-4153.69 911.522,-2581.35 911.051,-2349.59"/>
<polygon fill="green" stroke="green" points="914.55,-2349.29 911.031,-2339.3 907.55,-2349.3 914.55,-2349.29"/>
<text text-anchor="middle" x="2640" y="-4231.98" font-family="Times,serif" font-size="14.00">create_sll</text>
</g>
<!-- q4&#45;&gt;q0 -->
<g id="edge36" class="edge"><title>q4&#45;&gt;q0</title>
<path fill="none" stroke="green" d="M3955.83,-4134.6C3928.27,-4149.09 3867.77,-4177.18 3813,-4177.18 1101,-4177.18 1101,-4177.18 1101,-4177.18 1030.18,-4177.18 990.416,-4195.35 946,-4140.18 916.675,-4103.76 911.653,-2577.42 911.066,-2349.52"/>
<polygon fill="green" stroke="green" points="914.566,-2349.37 911.041,-2339.38 907.566,-2349.39 914.566,-2349.37"/>
<text text-anchor="middle" x="2640" y="-4180.98" font-family="Times,serif" font-size="14.00">init_back_link</text>
</g>
<!-- q4&#45;&gt;q0 -->
<g id="edge37" class="edge"><title>q4&#45;&gt;q0</title>
<path fill="none" stroke="green" d="M3953.93,-4126.18C3924.96,-4126.18 3864.3,-4126.18 3813,-4126.18 1101,-4126.18 1101,-4126.18 1101,-4126.18 1030.18,-4126.18 990.431,-4144.33 946,-4089.18 917.516,-4053.82 911.786,-2573.25 911.082,-2349.41"/>
<polygon fill="green" stroke="green" points="914.581,-2349.15 911.05,-2339.16 907.581,-2349.17 914.581,-2349.15"/>
<text text-anchor="middle" x="2640" y="-4129.98" font-family="Times,serif" font-size="14.00">reverse_dll</text>
</g>
<!-- q4&#45;&gt;q0 -->
<g id="edge39" class="edge"><title>q4&#45;&gt;q0</title>
<path fill="none" stroke="green" d="M3955.83,-4117.76C3928.27,-4103.27 3867.77,-4075.18 3813,-4075.18 1101,-4075.18 1101,-4075.18 1101,-4075.18 1030.18,-4075.18 990.447,-4093.32 946,-4038.18 918.356,-4003.88 911.922,-2568.97 911.098,-2349.27"/>
<polygon fill="green" stroke="green" points="914.598,-2349.19 911.061,-2339.2 907.598,-2349.21 914.598,-2349.19"/>
<text text-anchor="middle" x="2640" y="-4078.98" font-family="Times,serif" font-size="14.00">check_seq_next</text>
</g>
<!-- q4&#45;&gt;q0 -->
<g id="edge40" class="edge"><title>q4&#45;&gt;q0</title>
<path fill="none" stroke="green" d="M3963.49,-4110.22C3957.45,-4098.86 3947.99,-4083.92 3936,-4074.18 3890.2,-4036.97 3872.01,-4024.18 3813,-4024.18 1101,-4024.18 1101,-4024.18 1101,-4024.18 1030.18,-4024.18 990.464,-4042.31 946,-3987.18 919.208,-3953.96 912.068,-2565.88 911.117,-2349.43"/>
<polygon fill="green" stroke="green" points="914.616,-2349.2 911.073,-2339.21 907.616,-2349.23 914.616,-2349.2"/>
<text text-anchor="middle" x="2640" y="-4027.98" font-family="Times,serif" font-size="14.00">check_seq_prev</text>
</g>
<!-- q4&#45;&gt;q0 -->
<g id="edge41" class="edge"><title>q4&#45;&gt;q0</title>
<path fill="none" stroke="green" d="M3969.49,-4108.02C3966.68,-4085.19 3958.66,-4046.11 3936,-4022.18 3895.54,-3979.45 3871.84,-3973.18 3813,-3973.18 1101,-3973.18 1101,-3973.18 1101,-3973.18 1029.74,-3973.18 990.08,-3988.17 946,-3932.18 920.511,-3899.81 912.291,-2561.88 911.145,-2349.46"/>
<polygon fill="green" stroke="green" points="914.643,-2349.14 911.09,-2339.16 907.644,-2349.18 914.643,-2349.14"/>
<text text-anchor="middle" x="2640" y="-3976.98" font-family="Times,serif" font-size="14.00">Learn_Assert</text>
</g>
<!-- q4&#45;&gt;q3 -->
<g id="edge38" class="edge"><title>q4&#45;&gt;q3</title>
<path fill="none" stroke="green" d="M3985.59,-4138.78C4011.15,-4165.08 4069.26,-4228.74 4100,-4293.18 4117.94,-4330.78 4127.22,-4378.46 4131.6,-4408.15"/>
<polygon fill="green" stroke="green" points="4128.16,-4408.8 4133,-4418.23 4135.09,-4407.84 4128.16,-4408.8"/>
<text text-anchor="middle" x="4054" y="-4296.98" font-family="Times,serif" font-size="14.00">remove_fw_link</text>
</g>
<!-- q5 -->
<g id="node7" class="node"><title>q5</title>
<ellipse fill="none" stroke="green" cx="3812" cy="-3813.18" rx="18" ry="18"/>
<text text-anchor="middle" x="3812" y="-3809.48" font-family="Times,serif" font-size="14.00">D</text>
</g>
<!-- q5&#45;&gt;q0 -->
<g id="edge42" class="edge"><title>q5&#45;&gt;q0</title>
<path fill="none" stroke="green" d="M3809.15,-3831C3806.03,-3851.61 3797.74,-3885.01 3776,-3903.18 3733.27,-3938.9 3708.7,-3927.18 3653,-3927.18 1101,-3927.18 1101,-3927.18 1101,-3927.18 1031.29,-3927.18 991.947,-3955.6 946,-3903.18 919.358,-3872.78 912.118,-2560.5 911.126,-2349.64"/>
<polygon fill="green" stroke="green" points="914.625,-2349.37 911.078,-2339.39 907.625,-2349.41 914.625,-2349.37"/>
<text text-anchor="middle" x="2532" y="-3930.98" font-family="Times,serif" font-size="14.00">chain_node</text>
</g>
<!-- q5&#45;&gt;q0 -->
<g id="edge43" class="edge"><title>q5&#45;&gt;q0</title>
<path fill="none" stroke="green" d="M3804.02,-3829.85C3798.24,-3841.57 3788.88,-3856.64 3776,-3865.18 3729.58,-3895.96 3708.7,-3889.18 3653,-3889.18 1101,-3889.18 1101,-3889.18 1101,-3889.18 1031.29,-3889.18 991.961,-3917.59 946,-3865.18 920.003,-3835.53 912.228,-2556.09 911.14,-2349.28"/>
<polygon fill="green" stroke="green" points="914.639,-2349.2 911.088,-2339.22 907.64,-2349.24 914.639,-2349.2"/>
<text text-anchor="middle" x="2532" y="-3892.98" font-family="Times,serif" font-size="14.00">create_sll</text>
</g>
<!-- q5&#45;&gt;q0 -->
<g id="edge44" class="edge"><title>q5&#45;&gt;q0</title>
<path fill="none" stroke="green" d="M3795.19,-3820.23C3789.26,-3822.69 3782.4,-3825.29 3776,-3827.18 3722.57,-3842.93 3708.7,-3851.18 3653,-3851.18 1101,-3851.18 1101,-3851.18 1101,-3851.18 1031.29,-3851.18 991.976,-3879.58 946,-3827.18 920.674,-3798.32 912.355,-2554.15 911.158,-2349.53"/>
<polygon fill="green" stroke="green" points="914.656,-2349.28 911.099,-2339.3 907.656,-2349.32 914.656,-2349.28"/>
<text text-anchor="middle" x="2532" y="-3854.98" font-family="Times,serif" font-size="14.00">init_back_link</text>
</g>
<!-- q5&#45;&gt;q0 -->
<g id="edge45" class="edge"><title>q5&#45;&gt;q0</title>
<path fill="none" stroke="green" d="M3793.93,-3813.18C3764.96,-3813.18 3704.3,-3813.18 3653,-3813.18 1101,-3813.18 1101,-3813.18 1101,-3813.18 1031.29,-3813.18 991.992,-3841.56 946,-3789.18 921.33,-3761.08 912.478,-2550.81 911.174,-2349.44"/>
<polygon fill="green" stroke="green" points="914.674,-2349.34 911.11,-2339.36 907.674,-2349.38 914.674,-2349.34"/>
<text text-anchor="middle" x="2532" y="-3816.98" font-family="Times,serif" font-size="14.00">reverse_dll</text>
</g>
<!-- q5&#45;&gt;q0 -->
<g id="edge46" class="edge"><title>q5&#45;&gt;q0</title>
<path fill="none" stroke="green" d="M3795.15,-3806.73C3767.03,-3795.89 3706.32,-3775.18 3653,-3775.18 1101,-3775.18 1101,-3775.18 1101,-3775.18 1031.29,-3775.18 992.009,-3803.55 946,-3751.18 921.984,-3723.84 912.602,-2547.27 911.192,-2349.31"/>
<polygon fill="green" stroke="green" points="914.691,-2349.12 911.12,-2339.15 907.691,-2349.17 914.691,-2349.12"/>
<text text-anchor="middle" x="2532" y="-3778.98" font-family="Times,serif" font-size="14.00">remove_fw_link</text>
</g>
<!-- q5&#45;&gt;q0 -->
<g id="edge48" class="edge"><title>q5&#45;&gt;q0</title>
<path fill="none" stroke="green" d="M3801.26,-3798.34C3794.98,-3789.85 3786.11,-3779.64 3776,-3773.18 3727.99,-3742.52 3709.96,-3737.18 3653,-3737.18 1101,-3737.18 1101,-3737.18 1101,-3737.18 1031.29,-3737.18 992.026,-3765.53 946,-3713.18 922.637,-3686.6 912.728,-2543.66 911.21,-2349.17"/>
<polygon fill="green" stroke="green" points="914.71,-2349.14 911.133,-2339.17 907.71,-2349.2 914.71,-2349.14"/>
<text text-anchor="middle" x="2532" y="-3740.98" font-family="Times,serif" font-size="14.00">check_seq_prev</text>
</g>
<!-- q5&#45;&gt;q0 -->
<g id="edge49" class="edge"><title>q5&#45;&gt;q0</title>
<path fill="none" stroke="green" d="M3807.73,-3795.5C3803.49,-3777.52 3794.34,-3750.12 3776,-3734.18 3733.1,-3696.9 3709.84,-3699.18 3653,-3699.18 1101,-3699.18 1101,-3699.18 1101,-3699.18 1029.01,-3699.18 989.642,-3709.43 946,-3652.18 905.123,-3598.56 909.686,-2536.78 910.814,-2349.33"/>
<polygon fill="green" stroke="green" points="914.314,-2349.21 910.876,-2339.18 907.314,-2349.16 914.314,-2349.21"/>
<text text-anchor="middle" x="2532" y="-3702.98" font-family="Times,serif" font-size="14.00">Learn_Assert</text>
</g>
<!-- q5&#45;&gt;q4 -->
<g id="edge47" class="edge"><title>q5&#45;&gt;q4</title>
<path fill="none" stroke="green" d="M3827.11,-3823.65C3853.2,-3843.82 3908.77,-3890.83 3936,-3944.18 3961.56,-3994.26 3968.54,-4060.78 3970.39,-4097.95"/>
<polygon fill="green" stroke="green" points="3966.89,-4098.21 3970.8,-4108.06 3973.89,-4097.93 3966.89,-4098.21"/>
<text text-anchor="middle" x="3892" y="-3947.98" font-family="Times,serif" font-size="14.00">check_seq_next</text>
</g>
<!-- q6 -->
<g id="node8" class="node"><title>q6</title>
<ellipse fill="none" stroke="green" cx="3652" cy="-3503.18" rx="18" ry="18"/>
<text text-anchor="middle" x="3652" y="-3499.48" font-family="Times,serif" font-size="14.00">D</text>
</g>
<!-- q6&#45;&gt;q0 -->
<g id="edge50" class="edge"><title>q6&#45;&gt;q0</title>
<path fill="none" stroke="green" d="M3650.34,-3521.29C3648.47,-3546.4 3641.52,-3591.78 3616,-3619.18 3584.56,-3652.95 3565.14,-3656.18 3519,-3656.18 1101,-3656.18 1101,-3656.18 1101,-3656.18 1030.18,-3656.18 990.628,-3674.17 946,-3619.18 925.283,-3593.65 913.253,-2536.17 911.287,-2349.26"/>
<polygon fill="green" stroke="green" points="914.786,-2349.11 911.181,-2339.14 907.786,-2349.18 914.786,-2349.11"/>
<text text-anchor="middle" x="2422" y="-3659.98" font-family="Times,serif" font-size="14.00">chain_node</text>
</g>
<!-- q6&#45;&gt;q0 -->
<g id="edge51" class="edge"><title>q6&#45;&gt;q0</title>
<path fill="none" stroke="green" d="M3645.61,-3520.28C3640.23,-3534.82 3630.64,-3555.32 3616,-3568.18 3581.33,-3598.63 3565.14,-3605.18 3519,-3605.18 1101,-3605.18 1101,-3605.18 1101,-3605.18 1030.18,-3605.18 990.659,-3623.15 946,-3568.18 906.311,-3519.33 909.844,-2530.64 910.827,-2349.54"/>
<polygon fill="green" stroke="green" points="914.328,-2349.49 910.884,-2339.47 907.328,-2349.45 914.328,-2349.49"/>
<text text-anchor="middle" x="2422" y="-3608.98" font-family="Times,serif" font-size="14.00">create_sll</text>
</g>
<!-- q6&#45;&gt;q0 -->
<g id="edge52" class="edge"><title>q6&#45;&gt;q0</title>
<path fill="none" stroke="green" d="M3636.66,-3512.77C3613.15,-3527.55 3564.45,-3554.18 3519,-3554.18 1101,-3554.18 1101,-3554.18 1101,-3554.18 1030.18,-3554.18 990.691,-3572.12 946,-3517.18 907.964,-3470.42 910.13,-2525.02 910.864,-2349.19"/>
<polygon fill="green" stroke="green" points="914.364,-2349.19 910.908,-2339.18 907.364,-2349.16 914.364,-2349.19"/>
<text text-anchor="middle" x="2422" y="-3557.98" font-family="Times,serif" font-size="14.00">init_back_link</text>
</g>
<!-- q6&#45;&gt;q0 -->
<g id="edge53" class="edge"><title>q6&#45;&gt;q0</title>
<path fill="none" stroke="green" d="M3633.91,-3503.18C3608.75,-3503.18 3560.25,-3503.18 3519,-3503.18 1101,-3503.18 1101,-3503.18 1101,-3503.18 1030.18,-3503.18 990.727,-3521.09 946,-3466.18 909.65,-3421.55 910.422,-2521.04 910.902,-2349.33"/>
<polygon fill="green" stroke="green" points="914.402,-2349.32 910.932,-2339.3 907.402,-2349.29 914.402,-2349.32"/>
<text text-anchor="middle" x="2422" y="-3506.98" font-family="Times,serif" font-size="14.00">reverse_dll</text>
</g>
<!-- q6&#45;&gt;q0 -->
<g id="edge54" class="edge"><title>q6&#45;&gt;q0</title>
<path fill="none" stroke="green" d="M3636.66,-3493.59C3613.15,-3478.81 3564.45,-3452.18 3519,-3452.18 1101,-3452.18 1101,-3452.18 1101,-3452.18 1030.18,-3452.18 990.766,-3470.06 946,-3415.18 911.328,-3372.67 910.729,-2516.64 910.944,-2349.38"/>
<polygon fill="green" stroke="green" points="914.444,-2349.38 910.959,-2339.37 907.444,-2349.37 914.444,-2349.38"/>
<text text-anchor="middle" x="2422" y="-3455.98" font-family="Times,serif" font-size="14.00">remove_fw_link</text>
</g>
<!-- q6&#45;&gt;q0 -->
<g id="edge55" class="edge"><title>q6&#45;&gt;q0</title>
<path fill="none" stroke="green" d="M3642.52,-3487.29C3636.25,-3476.66 3626.93,-3462.89 3616,-3453.18 3579.42,-3420.7 3567.92,-3401.18 3519,-3401.18 1101,-3401.18 1101,-3401.18 1101,-3401.18 1031.07,-3401.18 991.886,-3426.94 946,-3374.18 911.46,-3334.46 910.738,-2514.65 910.942,-2349.88"/>
<polygon fill="green" stroke="green" points="914.443,-2349.58 910.958,-2339.57 907.443,-2349.57 914.443,-2349.58"/>
<text text-anchor="middle" x="2422" y="-3404.98" font-family="Times,serif" font-size="14.00">check_seq_next</text>
</g>
<!-- q6&#45;&gt;q0 -->
<g id="edge57" class="edge"><title>q6&#45;&gt;q0</title>
<path fill="none" stroke="green" d="M3648.8,-3485.16C3645.29,-3463.28 3636.59,-3426.32 3616,-3402.18 3584.26,-3364.96 3567.92,-3350.18 3519,-3350.18 2531,-3350.18 2531,-3350.18 2531,-3350.18 2336.28,-3350.18 2287.72,-3360.18 2093,-3360.18 1101,-3360.18 1101,-3360.18 1101,-3360.18 1030.57,-3360.18 991.261,-3381.14 946,-3327.18 913.75,-3288.73 911.196,-2509.12 911.011,-2349.56"/>
<polygon fill="green" stroke="green" points="914.511,-2349.16 911.002,-2339.16 907.511,-2349.16 914.511,-2349.16"/>
<text text-anchor="middle" x="2422" y="-3355.98" font-family="Times,serif" font-size="14.00">Learn_Assert</text>
</g>
<!-- q6&#45;&gt;q5 -->
<g id="edge56" class="edge"><title>q6&#45;&gt;q5</title>
<path fill="none" stroke="green" d="M3665.18,-3515.86C3689.89,-3542.32 3746.1,-3606.25 3776,-3670.18 3793.65,-3707.91 3803.01,-3755.56 3807.48,-3785.21"/>
<polygon fill="green" stroke="green" points="3804.04,-3785.86 3808.92,-3795.26 3810.97,-3784.87 3804.04,-3785.86"/>
<text text-anchor="middle" x="3732" y="-3673.98" font-family="Times,serif" font-size="14.00">check_seq_prev</text>
</g>
<!-- q7 -->
<g id="node9" class="node"><title>q7</title>
<ellipse fill="none" stroke="green" cx="3518" cy="-3190.18" rx="18" ry="18"/>
<text text-anchor="middle" x="3518" y="-3186.48" font-family="Times,serif" font-size="14.00">D</text>
</g>
<!-- q7&#45;&gt;q0 -->
<g id="edge58" class="edge"><title>q7&#45;&gt;q0</title>
<path fill="none" stroke="green" d="M3515.15,-3208C3512.03,-3228.61 3503.74,-3262.01 3482,-3280.18 3439.27,-3315.9 3414.7,-3304.18 3359,-3304.18 2531,-3304.18 2531,-3304.18 2531,-3304.18 2336.17,-3304.18 2287.83,-3322.18 2093,-3322.18 1101,-3322.18 1101,-3322.18 1101,-3322.18 1031.29,-3322.18 992.305,-3350.29 946,-3298.18 913.693,-3261.82 911.181,-2507.1 911.008,-2349.77"/>
<polygon fill="green" stroke="green" points="914.508,-2349.49 911,-2339.49 907.508,-2349.49 914.508,-2349.49"/>
<text text-anchor="middle" x="2312" y="-3319.98" font-family="Times,serif" font-size="14.00">chain_node</text>
</g>
<!-- q7&#45;&gt;q0 -->
<g id="edge59" class="edge"><title>q7&#45;&gt;q0</title>
<path fill="none" stroke="green" d="M3510.02,-3206.85C3504.24,-3218.57 3494.88,-3233.64 3482,-3242.18 3435.58,-3272.96 3414.7,-3266.18 3359,-3266.18 2531,-3266.18 2531,-3266.18 2531,-3266.18 2336.17,-3266.18 2287.83,-3284.18 2093,-3284.18 1101,-3284.18 1101,-3284.18 1101,-3284.18 1031.29,-3284.18 992.343,-3312.25 946,-3260.18 914.987,-3225.33 911.452,-2502.87 911.051,-2349.6"/>
<polygon fill="green" stroke="green" points="914.55,-2349.17 911.026,-2339.18 907.55,-2349.19 914.55,-2349.17"/>
<text text-anchor="middle" x="2312" y="-3281.98" font-family="Times,serif" font-size="14.00">create_sll</text>
</g>
<!-- q7&#45;&gt;q0 -->
<g id="edge60" class="edge"><title>q7&#45;&gt;q0</title>
<path fill="none" stroke="green" d="M3501.19,-3197.23C3495.26,-3199.69 3488.4,-3202.29 3482,-3204.18 3428.57,-3219.93 3414.7,-3228.18 3359,-3228.18 2531,-3228.18 2531,-3228.18 2531,-3228.18 2336.17,-3228.18 2287.83,-3246.18 2093,-3246.18 1101,-3246.18 1101,-3246.18 1101,-3246.18 1031.29,-3246.18 992.383,-3274.22 946,-3222.18 916.277,-3188.83 911.732,-2498.47 911.097,-2349.4"/>
<polygon fill="green" stroke="green" points="914.596,-2349.23 911.056,-2339.24 907.596,-2349.26 914.596,-2349.23"/>
<text text-anchor="middle" x="2312" y="-3243.98" font-family="Times,serif" font-size="14.00">init_back_link</text>
</g>
<!-- q7&#45;&gt;q0 -->
<g id="edge62" class="edge"><title>q7&#45;&gt;q0</title>
<path fill="none" stroke="green" d="M3499.93,-3190.18C3470.96,-3190.18 3410.3,-3190.18 3359,-3190.18 2531,-3190.18 2531,-3190.18 2531,-3190.18 2336.17,-3190.18 2287.83,-3208.18 2093,-3208.18 1101,-3208.18 1101,-3208.18 1101,-3208.18 1031.29,-3208.18 992.428,-3236.18 946,-3184.18 917.591,-3152.36 912.032,-2495.14 911.148,-2349.57"/>
<polygon fill="green" stroke="green" points="914.646,-2349.23 911.088,-2339.25 907.646,-2349.27 914.646,-2349.23"/>
<text text-anchor="middle" x="2312" y="-3205.98" font-family="Times,serif" font-size="14.00">remove_fw_link</text>
</g>
<!-- q7&#45;&gt;q0 -->
<g id="edge63" class="edge"><title>q7&#45;&gt;q0</title>
<path fill="none" stroke="green" d="M3501.15,-3183.73C3473.03,-3172.89 3412.32,-3152.18 3359,-3152.18 2531,-3152.18 2531,-3152.18 2531,-3152.18 2336.17,-3152.18 2287.83,-3170.18 2093,-3170.18 1101,-3170.18 1101,-3170.18 1101,-3170.18 1031.29,-3170.18 992.476,-3198.14 946,-3146.18 918.87,-3115.85 912.331,-2490.18 911.2,-2349.22"/>
<polygon fill="green" stroke="green" points="914.7,-2349.18 911.123,-2339.21 907.7,-2349.23 914.7,-2349.18"/>
<text text-anchor="middle" x="2312" y="-3167.98" font-family="Times,serif" font-size="14.00">check_seq_next</text>
</g>
<!-- q7&#45;&gt;q0 -->
<g id="edge64" class="edge"><title>q7&#45;&gt;q0</title>
<path fill="none" stroke="green" d="M3507.26,-3175.34C3500.98,-3166.85 3492.11,-3156.64 3482,-3150.18 3433.99,-3119.52 3415.96,-3114.18 3359,-3114.18 2421,-3114.18 2421,-3114.18 2421,-3114.18 2275,-3114.18 2239,-3132.18 2093,-3132.18 1101,-3132.18 1101,-3132.18 1101,-3132.18 1031.29,-3132.18 992.529,-3160.09 946,-3108.18 920.197,-3079.39 912.67,-2487.42 911.264,-2349.65"/>
<polygon fill="green" stroke="green" points="914.763,-2349.45 911.164,-2339.48 907.763,-2349.51 914.763,-2349.45"/>
<text text-anchor="middle" x="2312" y="-3124.98" font-family="Times,serif" font-size="14.00">check_seq_prev</text>
</g>
<!-- q7&#45;&gt;q0 -->
<g id="edge65" class="edge"><title>q7&#45;&gt;q0</title>
<path fill="none" stroke="green" d="M3513.73,-3172.5C3509.49,-3154.52 3500.34,-3127.12 3482,-3111.18 3439.1,-3073.9 3415.84,-3076.18 3359,-3076.18 2421,-3076.18 2421,-3076.18 2421,-3076.18 2275,-3076.18 2239,-3094.18 2093,-3094.18 1101,-3094.18 1101,-3094.18 1101,-3094.18 1029.01,-3094.18 990.265,-3103.95 946,-3047.18 924.184,-3019.2 913.685,-2479.94 911.458,-2349.44"/>
<polygon fill="green" stroke="green" points="914.957,-2349.36 911.289,-2339.42 907.958,-2349.48 914.957,-2349.36"/>
<text text-anchor="middle" x="2312" y="-3086.98" font-family="Times,serif" font-size="14.00">Learn_Assert</text>
</g>
<!-- q7&#45;&gt;q6 -->
<g id="edge61" class="edge"><title>q7&#45;&gt;q6</title>
<path fill="none" stroke="green" d="M3531.37,-3202.69C3552.33,-3224.65 3594.61,-3272.47 3616,-3321.18 3638.54,-3372.53 3646.61,-3438.32 3649.47,-3475.09"/>
<polygon fill="green" stroke="green" points="3645.98,-3475.36 3650.17,-3485.09 3652.96,-3474.87 3645.98,-3475.36"/>
<text text-anchor="middle" x="3585" y="-3324.98" font-family="Times,serif" font-size="14.00">reverse_dll</text>
</g>
<!-- q8 -->
<g id="node10" class="node"><title>q8</title>
<ellipse fill="none" stroke="green" cx="3358" cy="-2898.18" rx="18" ry="18"/>
<text text-anchor="middle" x="3358" y="-2894.48" font-family="Times,serif" font-size="14.00">D</text>
</g>
<!-- q8&#45;&gt;q0 -->
<g id="edge66" class="edge"><title>q8&#45;&gt;q0</title>
<path fill="none" stroke="green" d="M3356.99,-2916.5C3355.91,-2942.27 3349.93,-2988.92 3322,-3014.18 3280.69,-3051.54 3254.7,-3038.18 3199,-3038.18 2531,-3038.18 2531,-3038.18 2531,-3038.18 2336.25,-3038.18 2287.75,-3051.18 2093,-3051.18 1101,-3051.18 1101,-3051.18 1101,-3051.18 1030.18,-3051.18 991.271,-3068.65 946,-3014.18 924.419,-2988.21 913.793,-2476.13 911.487,-2349.38"/>
<polygon fill="green" stroke="green" points="914.985,-2349.23 911.306,-2339.3 907.986,-2349.36 914.985,-2349.23"/>
<text text-anchor="middle" x="2202" y="-3053.98" font-family="Times,serif" font-size="14.00">chain_node</text>
</g>
<!-- q8&#45;&gt;q0 -->
<g id="edge67" class="edge"><title>q8&#45;&gt;q0</title>
<path fill="none" stroke="green" d="M3351.94,-2915.26C3346.73,-2929.98 3337.19,-2950.78 3322,-2963.18 3277.77,-2999.28 3256.09,-3000.18 3199,-3000.18 1101,-3000.18 1101,-3000.18 1101,-3000.18 1030.18,-3000.18 991.38,-3017.56 946,-2963.18 926.081,-2939.31 914.324,-2470.73 911.608,-2349.58"/>
<polygon fill="green" stroke="green" points="915.101,-2349.19 911.381,-2339.27 908.103,-2349.34 915.101,-2349.19"/>
<text text-anchor="middle" x="2202" y="-3003.98" font-family="Times,serif" font-size="14.00">create_sll</text>
</g>
<!-- q8&#45;&gt;q0 -->
<g id="edge68" class="edge"><title>q8&#45;&gt;q0</title>
<path fill="none" stroke="green" d="M3341.83,-2906.6C3314.27,-2921.09 3253.77,-2949.18 3199,-2949.18 1101,-2949.18 1101,-2949.18 1101,-2949.18 1030.18,-2949.18 991.508,-2966.45 946,-2912.18 909.569,-2868.73 909.937,-2461.12 910.734,-2349.39"/>
<polygon fill="green" stroke="green" points="914.235,-2349.26 910.813,-2339.23 907.235,-2349.2 914.235,-2349.26"/>
<text text-anchor="middle" x="2202" y="-2952.98" font-family="Times,serif" font-size="14.00">init_back_link</text>
</g>
<!-- q8&#45;&gt;q0 -->
<g id="edge69" class="edge"><title>q8&#45;&gt;q0</title>
<path fill="none" stroke="green" d="M3339.93,-2898.18C3310.96,-2898.18 3250.3,-2898.18 3199,-2898.18 1101,-2898.18 1101,-2898.18 1101,-2898.18 1030.18,-2898.18 991.659,-2915.32 946,-2861.18 912.877,-2821.9 910.805,-2455.44 910.904,-2349.65"/>
<polygon fill="green" stroke="green" points="914.404,-2349.42 910.921,-2339.42 907.404,-2349.41 914.404,-2349.42"/>
<text text-anchor="middle" x="2202" y="-2901.98" font-family="Times,serif" font-size="14.00">reverse_dll</text>
</g>
<!-- q8&#45;&gt;q0 -->
<g id="edge70" class="edge"><title>q8&#45;&gt;q0</title>
<path fill="none" stroke="green" d="M3341.83,-2889.76C3314.27,-2875.27 3253.77,-2847.18 3199,-2847.18 1101,-2847.18 1101,-2847.18 1101,-2847.18 1031.29,-2847.18 993.179,-2874.5 946,-2823.18 913.839,-2788.2 911.064,-2450.07 910.955,-2349.35"/>
<polygon fill="green" stroke="green" points="914.455,-2349.31 910.953,-2339.31 907.455,-2349.32 914.455,-2349.31"/>
<text text-anchor="middle" x="2202" y="-2850.98" font-family="Times,serif" font-size="14.00">remove_fw_link</text>
</g>
<!-- q8&#45;&gt;q0 -->
<g id="edge71" class="edge"><title>q8&#45;&gt;q0</title>
<path fill="none" stroke="green" d="M3349.49,-2882.22C3343.45,-2870.86 3333.99,-2855.92 3322,-2846.18 3276.2,-2808.97 3258.01,-2796.18 3199,-2796.18 2311,-2796.18 2311,-2796.18 2311,-2796.18 2116.25,-2796.18 2067.75,-2809.18 1873,-2809.18 1101,-2809.18 1101,-2809.18 1101,-2809.18 1031.29,-2809.18 993.324,-2836.36 946,-2785.18 916.395,-2753.16 911.831,-2445.05 911.128,-2349.37"/>
<polygon fill="green" stroke="green" points="914.628,-2349.26 911.063,-2339.29 907.628,-2349.31 914.628,-2349.26"/>
<text text-anchor="middle" x="2202" y="-2802.98" font-family="Times,serif" font-size="14.00">check_seq_next</text>
</g>
<!-- q8&#45;&gt;q0 -->
<g id="edge73" class="edge"><title>q8&#45;&gt;q0</title>
<path fill="none" stroke="green" d="M3355.49,-2880.02C3352.68,-2857.19 3344.66,-2818.11 3322,-2794.18 3281.54,-2751.45 3257.84,-2745.18 3199,-2745.18 2311,-2745.18 2311,-2745.18 2311,-2745.18 2115.99,-2745.18 2068.01,-2771.18 1873,-2771.18 1101,-2771.18 1101,-2771.18 1101,-2771.18 1030.57,-2771.18 992.568,-2791.02 946,-2738.18 920.351,-2709.08 913.138,-2438.25 911.452,-2349.32"/>
<polygon fill="green" stroke="green" points="914.948,-2349.11 911.269,-2339.18 907.95,-2349.24 914.948,-2349.11"/>
<text text-anchor="middle" x="2202" y="-2754.98" font-family="Times,serif" font-size="14.00">Learn_Assert</text>
</g>
<!-- q8&#45;&gt;q7 -->
<g id="edge72" class="edge"><title>q8&#45;&gt;q7</title>
<path fill="none" stroke="green" d="M3372.01,-2909.93C3397.23,-2933.44 3452.82,-2989.02 3482,-3047.18 3500.68,-3084.41 3509.76,-3132.2 3513.9,-3162.01"/>
<polygon fill="green" stroke="green" points="3510.45,-3162.66 3515.2,-3172.13 3517.39,-3161.76 3510.45,-3162.66"/>
<text text-anchor="middle" x="3438" y="-3050.98" font-family="Times,serif" font-size="14.00">check_seq_prev</text>
</g>
<!-- q9 -->
<g id="node11" class="node"><title>q9</title>
<ellipse fill="none" stroke="green" cx="3198" cy="-2585.18" rx="18" ry="18"/>
<text text-anchor="middle" x="3198" y="-2581.48" font-family="Times,serif" font-size="14.00">D</text>
</g>
<!-- q9&#45;&gt;q0 -->
<g id="edge74" class="edge"><title>q9&#45;&gt;q0</title>
<path fill="none" stroke="green" d="M3195.11,-2602.95C3191.95,-2623.51 3183.62,-2656.87 3162,-2675.18 3122.16,-2708.93 3099.21,-2699.18 3047,-2699.18 2311,-2699.18 2311,-2699.18 2311,-2699.18 2115.75,-2699.18 2068.25,-2733.18 1873,-2733.18 1101,-2733.18 1101,-2733.18 1101,-2733.18 1031.29,-2733.18 993.699,-2760.02 946,-2709.18 921.505,-2683.07 913.587,-2434.76 911.581,-2349.65"/>
<polygon fill="green" stroke="green" points="915.075,-2349.34 911.35,-2339.43 908.077,-2349.5 915.075,-2349.34"/>
<text text-anchor="middle" x="2092" y="-2725.98" font-family="Times,serif" font-size="14.00">chain_node</text>
</g>
<!-- q9&#45;&gt;q0 -->
<g id="edge75" class="edge"><title>q9&#45;&gt;q0</title>
<path fill="none" stroke="green" d="M3189.99,-2601.8C3184.19,-2613.5 3174.82,-2628.56 3162,-2637.18 3118.67,-2666.32 3099.21,-2661.18 3047,-2661.18 2311,-2661.18 2311,-2661.18 2311,-2661.18 2115.75,-2661.18 2068.25,-2695.18 1873,-2695.18 1101,-2695.18 1101,-2695.18 1101,-2695.18 1031.29,-2695.18 993.945,-2721.78 946,-2671.18 924.038,-2648 914.599,-2429.05 911.881,-2349.71"/>
<polygon fill="green" stroke="green" points="915.371,-2349.36 911.541,-2339.48 908.375,-2349.59 915.371,-2349.36"/>
<text text-anchor="middle" x="2092" y="-2687.98" font-family="Times,serif" font-size="14.00">create_sll</text>
</g>
<!-- q9&#45;&gt;q0 -->
<g id="edge76" class="edge"><title>q9&#45;&gt;q0</title>
<path fill="none" stroke="green" d="M3181.13,-2591.97C3154.12,-2602.9 3097.24,-2623.18 3047,-2623.18 2311,-2623.18 2311,-2623.18 2311,-2623.18 2115.75,-2623.18 2068.25,-2657.18 1873,-2657.18 1101,-2657.18 1101,-2657.18 1101,-2657.18 1031.29,-2657.18 994.249,-2683.49 946,-2633.18 926.533,-2612.88 915.705,-2422.49 912.24,-2349.49"/>
<polygon fill="green" stroke="green" points="915.723,-2349.04 911.764,-2339.21 908.731,-2349.36 915.723,-2349.04"/>
<text text-anchor="middle" x="2092" y="-2649.98" font-family="Times,serif" font-size="14.00">init_back_link</text>
</g>
<!-- q9&#45;&gt;q0 -->
<g id="edge77" class="edge"><title>q9&#45;&gt;q0</title>
<path fill="none" stroke="green" d="M3179.9,-2585.18C3152.06,-2585.18 3095.18,-2585.18 3047,-2585.18 2311,-2585.18 2311,-2585.18 2311,-2585.18 2115.75,-2585.18 2068.25,-2619.18 1873,-2619.18 1101,-2619.18 1101,-2619.18 1101,-2619.18 1031.29,-2619.18 994.633,-2645.12 946,-2595.18 912.476,-2560.75 909.99,-2412.31 910.492,-2349.46"/>
<polygon fill="green" stroke="green" points="913.992,-2349.49 910.603,-2339.45 906.992,-2349.41 913.992,-2349.49"/>
<text text-anchor="middle" x="2092" y="-2611.98" font-family="Times,serif" font-size="14.00">reverse_dll</text>
</g>
<!-- q9&#45;&gt;q0 -->
<g id="edge78" class="edge"><title>q9&#45;&gt;q0</title>
<path fill="none" stroke="green" d="M3181.13,-2578.39C3154.12,-2567.46 3097.24,-2547.18 3047,-2547.18 2311,-2547.18 2311,-2547.18 2311,-2547.18 2115.75,-2547.18 2068.25,-2581.18 1873,-2581.18 1101,-2581.18 1101,-2581.18 1101,-2581.18 1031.29,-2581.18 995.135,-2606.63 946,-2557.18 917.467,-2528.46 912.101,-2406.01 911.159,-2349.71"/>
<polygon fill="green" stroke="green" points="914.655,-2349.33 911.024,-2339.38 907.655,-2349.42 914.655,-2349.33"/>
<text text-anchor="middle" x="2092" y="-2573.98" font-family="Times,serif" font-size="14.00">remove_fw_link</text>
</g>
<!-- q9&#45;&gt;q0 -->
<g id="edge80" class="edge"><title>q9&#45;&gt;q0</title>
<path fill="none" stroke="green" d="M3187.12,-2570.81C3180.79,-2562.57 3171.92,-2552.61 3162,-2546.18 3116.95,-2516.97 3100.69,-2509.18 3047,-2509.18 2311,-2509.18 2311,-2509.18 2311,-2509.18 2115.75,-2509.18 2068.25,-2543.18 1873,-2543.18 1101,-2543.18 1101,-2543.18 1101,-2543.18 1031.29,-2543.18 995.815,-2567.94 946,-2519.18 922.345,-2496.02 914.529,-2398.51 912.067,-2349.52"/>
<polygon fill="green" stroke="green" points="915.553,-2349.11 911.596,-2339.29 908.56,-2349.44 915.553,-2349.11"/>
<text text-anchor="middle" x="2092" y="-2535.98" font-family="Times,serif" font-size="14.00">check_seq_prev</text>
</g>
<!-- q9&#45;&gt;q0 -->
<g id="edge81" class="edge"><title>q9&#45;&gt;q0</title>
<path fill="none" stroke="green" d="M3193.67,-2567.56C3189.38,-2549.64 3180.2,-2522.29 3162,-2506.18 3122,-2470.77 3100.43,-2471.18 3047,-2471.18 2311,-2471.18 2311,-2471.18 2311,-2471.18 2115.75,-2471.18 2068.25,-2505.18 1873,-2505.18 1101,-2505.18 1101,-2505.18 1101,-2505.18 1029.39,-2505.18 995.83,-2512.61 946,-2461.18 916.994,-2431.24 910.907,-2381.08 910.201,-2349.63"/>
<polygon fill="green" stroke="green" points="913.699,-2349.33 910.146,-2339.35 906.699,-2349.37 913.699,-2349.33"/>
<text text-anchor="middle" x="2092" y="-2497.98" font-family="Times,serif" font-size="14.00">Learn_Assert</text>
</g>
<!-- q9&#45;&gt;q8 -->
<g id="edge79" class="edge"><title>q9&#45;&gt;q8</title>
<path fill="none" stroke="green" d="M3213.11,-2595.65C3239.2,-2615.82 3294.77,-2662.83 3322,-2716.18 3347.56,-2766.26 3354.54,-2832.78 3356.39,-2869.95"/>
<polygon fill="green" stroke="green" points="3352.89,-2870.21 3356.8,-2880.06 3359.89,-2869.93 3352.89,-2870.21"/>
<text text-anchor="middle" x="3278" y="-2719.98" font-family="Times,serif" font-size="14.00">check_seq_next</text>
</g>
<!-- q10 -->
<g id="node12" class="node"><title>q10</title>
<ellipse fill="none" stroke="green" cx="3046" cy="-2156.18" rx="18" ry="18"/>
<text text-anchor="middle" x="3046" y="-2152.48" font-family="Times,serif" font-size="14.00">D</text>
</g>
<!-- q10&#45;&gt;q0 -->
<g id="edge82" class="edge"><title>q10&#45;&gt;q0</title>
<path fill="none" stroke="green" d="M3045.17,-2174.53C3045.26,-2226.98 3042.59,-2375.93 3010,-2409.18 2962.44,-2457.71 2926.95,-2433.18 2859,-2433.18 2311,-2433.18 2311,-2433.18 2311,-2433.18 2115.91,-2433.18 2068.09,-2462.18 1873,-2462.18 1101,-2462.18 1101,-2462.18 1101,-2462.18 1030.66,-2462.18 998.33,-2477.18 946,-2430.18 923.202,-2409.7 915.17,-2374.35 912.387,-2349.47"/>
<polygon fill="green" stroke="green" points="915.845,-2348.84 911.465,-2339.2 908.873,-2349.47 915.845,-2348.84"/>
<text text-anchor="middle" x="1982" y="-2463.98" font-family="Times,serif" font-size="14.00">chain_node</text>
</g>
<!-- q10&#45;&gt;q0 -->
<g id="edge83" class="edge"><title>q10&#45;&gt;q0</title>
<path fill="none" stroke="green" d="M3044.67,-2174.43C3043.44,-2221.22 3037.6,-2343.69 3010,-2371.18 2961.86,-2419.14 2926.95,-2395.18 2859,-2395.18 2311,-2395.18 2311,-2395.18 2311,-2395.18 2018.41,-2395.18 1945.59,-2416.18 1653,-2416.18 1101,-2416.18 1101,-2416.18 1101,-2416.18 1031.29,-2416.18 1002.2,-2433.43 946,-2392.18 931.778,-2381.74 923.018,-2363.92 917.819,-2348.74"/>
<polygon fill="green" stroke="green" points="921.043,-2347.31 914.765,-2338.78 914.35,-2349.37 921.043,-2347.31"/>
<text text-anchor="middle" x="1982" y="-2410.98" font-family="Times,serif" font-size="14.00">create_sll</text>
</g>
<!-- q10&#45;&gt;q0 -->
<g id="edge85" class="edge"><title>q10&#45;&gt;q0</title>
<path fill="none" stroke="green" d="M3043.64,-2174.21C3040.36,-2212.92 3030.69,-2302.18 3010,-2323.18 2961.72,-2372.18 2927.79,-2357.18 2859,-2357.18 2311,-2357.18 2311,-2357.18 2311,-2357.18 2018.41,-2357.18 1945.59,-2378.18 1653,-2378.18 1101,-2378.18 1101,-2378.18 1101,-2378.18 1031.29,-2378.18 1008.62,-2384.8 946,-2354.18 939.895,-2351.19 934.135,-2346.77 929.117,-2342.13"/>
<polygon fill="green" stroke="green" points="931.418,-2339.48 921.9,-2334.82 926.438,-2344.4 931.418,-2339.48"/>
<text text-anchor="middle" x="1982" y="-2372.98" font-family="Times,serif" font-size="14.00">reverse_dll</text>
</g>
<!-- q10&#45;&gt;q0 -->
<g id="edge86" class="edge"><title>q10&#45;&gt;q0</title>
<path fill="none" stroke="green" d="M3044.82,-2174.32C3043.55,-2199.88 3037.32,-2246.27 3010,-2272.18 2959.87,-2319.73 2928.1,-2309.18 2859,-2309.18 2091,-2309.18 2091,-2309.18 2091,-2309.18 1895.85,-2309.18 1848.15,-2340.18 1653,-2340.18 1101,-2340.18 1101,-2340.18 1101,-2340.18 1042.62,-2340.18 974.641,-2331.19 937.902,-2325.58"/>
<polygon fill="green" stroke="green" points="938.395,-2322.11 927.975,-2324.02 937.314,-2329.03 938.395,-2322.11"/>
<text text-anchor="middle" x="1982" y="-2319.98" font-family="Times,serif" font-size="14.00">remove_fw_link</text>
</g>
<!-- q10&#45;&gt;q0 -->
<g id="edge87" class="edge"><title>q10&#45;&gt;q0</title>
<path fill="none" stroke="green" d="M3040.09,-2173.45C3034.98,-2188.31 3025.51,-2209.18 3010,-2221.18 2955.35,-2263.47 2928.1,-2258.18 2859,-2258.18 2091,-2258.18 2091,-2258.18 2091,-2258.18 1895.35,-2258.18 1848.65,-2302.18 1653,-2302.18 1101,-2302.18 1101,-2302.18 1101,-2302.18 1042.62,-2302.18 974.641,-2311.17 937.902,-2316.78"/>
<polygon fill="green" stroke="green" points="937.314,-2313.33 927.975,-2318.34 938.395,-2320.25 937.314,-2313.33"/>
<text text-anchor="middle" x="1982" y="-2271.98" font-family="Times,serif" font-size="14.00">check_seq_next</text>
</g>
<!-- q10&#45;&gt;q0 -->
<g id="edge88" class="edge"><title>q10&#45;&gt;q0</title>
<path fill="none" stroke="green" d="M3029.47,-2163.49C2998.04,-2177.59 2924.29,-2207.18 2859,-2207.18 2091,-2207.18 2091,-2207.18 2091,-2207.18 1894.69,-2207.18 1849.31,-2264.18 1653,-2264.18 1101,-2264.18 1101,-2264.18 1101,-2264.18 1030.18,-2264.18 1011.86,-2275.12 946,-2301.18 942.156,-2302.7 938.223,-2304.58 934.447,-2306.58"/>
<polygon fill="green" stroke="green" points="932.493,-2303.67 925.521,-2311.64 935.946,-2309.76 932.493,-2303.67"/>
<text text-anchor="middle" x="1982" y="-2223.98" font-family="Times,serif" font-size="14.00">check_seq_prev</text>
</g>
<!-- q10&#45;&gt;q0 -->
<g id="edge89" class="edge"><title>q10&#45;&gt;q0</title>
<path fill="none" stroke="green" d="M3027.82,-2156.18C2995.01,-2156.18 2921.16,-2156.18 2859,-2156.18 2091,-2156.18 2091,-2156.18 2091,-2156.18 1893.86,-2156.18 1850.14,-2226.18 1653,-2226.18 1101,-2226.18 1101,-2226.18 1101,-2226.18 1030.07,-2226.18 1003.3,-2222.38 946,-2264.18 935.334,-2271.96 927.238,-2284.07 921.534,-2295.14"/>
<polygon fill="green" stroke="green" points="918.24,-2293.91 917.132,-2304.45 924.569,-2296.9 918.24,-2293.91"/>
<text text-anchor="middle" x="1982" y="-2177.98" font-family="Times,serif" font-size="14.00">Learn_Assert</text>
</g>
<!-- q10&#45;&gt;q9 -->
<g id="edge84" class="edge"><title>q10&#45;&gt;q9</title>
<path fill="none" stroke="green" d="M3054.44,-2172.32C3074.09,-2215.4 3128.16,-2336.98 3162,-2442.18 3174.68,-2481.62 3185.34,-2528.45 3191.45,-2557.49"/>
<polygon fill="green" stroke="green" points="3188.03,-2558.26 3193.49,-2567.34 3194.89,-2556.84 3188.03,-2558.26"/>
<text text-anchor="middle" x="3122" y="-2445.98" font-family="Times,serif" font-size="14.00">init_back_link</text>
</g>
<!-- q11 -->
<g id="node13" class="node"><title>q11</title>
<ellipse fill="none" stroke="black" cx="2640" cy="-1996.18" rx="18" ry="18"/>
<text text-anchor="middle" x="2640" y="-1992.48" font-family="Times,serif" font-size="14.00">D</text>
</g>
<!-- q11&#45;&gt;q0 -->
<g id="edge91" class="edge"><title>q11&#45;&gt;q0</title>
<path fill="none" stroke="green" d="M2632.62,-2012.92C2623.75,-2033.75 2605.59,-2068.71 2578,-2086.18 2519.1,-2123.47 2492.71,-2110.18 2423,-2110.18 2091,-2110.18 2091,-2110.18 2091,-2110.18 1893.65,-2110.18 1850.35,-2183.18 1653,-2183.18 1101,-2183.18 1101,-2183.18 1101,-2183.18 1030.92,-2183.18 998.573,-2165.83 946,-2212.18 922.909,-2232.54 914.947,-2268.16 912.26,-2293.12"/>
<polygon fill="green" stroke="green" points="908.773,-2292.83 911.403,-2303.09 915.747,-2293.43 908.773,-2292.83"/>
<text text-anchor="middle" x="1762" y="-2183.98" font-family="Times,serif" font-size="14.00">create_sll</text>
</g>
<!-- q11&#45;&gt;q0 -->
<g id="edge92" class="edge"><title>q11&#45;&gt;q0</title>
<path fill="none" stroke="green" d="M2627.38,-2009.64C2616.07,-2021.8 2597.73,-2039.13 2578,-2048.18 2514.63,-2077.23 2492.71,-2072.18 2423,-2072.18 2091,-2072.18 2091,-2072.18 2091,-2072.18 2017.5,-2072.18 1506.5,-2140.18 1433,-2140.18 1101,-2140.18 1101,-2140.18 1101,-2140.18 1030.28,-2140.18 996.224,-2126.39 946,-2176.18 929.722,-2192.32 919.22,-2255.47 914.29,-2292.9"/>
<polygon fill="green" stroke="green" points="910.775,-2292.81 912.993,-2303.17 917.719,-2293.68 910.775,-2292.81"/>
<text text-anchor="middle" x="1762" y="-2114.98" font-family="Times,serif" font-size="14.00">init_back_link</text>
</g>
<!-- q11&#45;&gt;q0 -->
<g id="edge93" class="edge"><title>q11&#45;&gt;q0</title>
<path fill="none" stroke="green" d="M2622.64,-2001.07C2586.82,-2011.33 2498.58,-2034.18 2423,-2034.18 2091,-2034.18 2091,-2034.18 2091,-2034.18 1797,-2034.18 1727,-2102.18 1433,-2102.18 1101,-2102.18 1101,-2102.18 1101,-2102.18 1030.57,-2102.18 995.208,-2084.79 946,-2135.18 924.489,-2157.21 915.716,-2246.66 912.559,-2293.02"/>
<polygon fill="green" stroke="green" points="909.065,-2292.81 911.92,-2303.01 916.051,-2293.26 909.065,-2292.81"/>
<text text-anchor="middle" x="1762" y="-2079.98" font-family="Times,serif" font-size="14.00">reverse_dll</text>
</g>
<!-- q11&#45;&gt;q0 -->
<g id="edge94" class="edge"><title>q11&#45;&gt;q0</title>
<path fill="none" stroke="green" d="M2621.92,-1996.18C2585.41,-1996.18 2497.06,-1996.18 2423,-1996.18 2091,-1996.18 2091,-1996.18 2091,-1996.18 1797,-1996.18 1727,-2064.18 1433,-2064.18 1101,-2064.18 1101,-2064.18 1101,-2064.18 1030.66,-2064.18 994.499,-2045.23 946,-2096.18 919.544,-2123.97 913.086,-2239 911.509,-2292.97"/>
<polygon fill="green" stroke="green" points="908.004,-2293.13 911.248,-2303.21 915.002,-2293.3 908.004,-2293.13"/>
<text text-anchor="middle" x="1762" y="-2041.98" font-family="Times,serif" font-size="14.00">remove_fw_link</text>
</g>
<!-- q11&#45;&gt;q0 -->
<g id="edge96" class="edge"><title>q11&#45;&gt;q0</title>
<path fill="none" stroke="green" d="M2622.64,-1991.29C2586.82,-1981.03 2498.58,-1958.18 2423,-1958.18 2091,-1958.18 2091,-1958.18 2091,-1958.18 1797,-1958.18 1727,-2026.18 1433,-2026.18 1101,-2026.18 1101,-2026.18 1101,-2026.18 1030.75,-2026.18 994.021,-2005.9 946,-2057.18 914.547,-2090.77 910.846,-2231.73 910.756,-2292.78"/>
<polygon fill="green" stroke="green" points="907.256,-2292.88 910.774,-2302.88 914.256,-2292.87 907.256,-2292.88"/>
<text text-anchor="middle" x="1762" y="-2003.98" font-family="Times,serif" font-size="14.00">check_seq_prev</text>
</g>
<!-- q11&#45;&gt;q0 -->
<g id="edge97" class="edge"><title>q11&#45;&gt;q0</title>
<path fill="none" stroke="green" d="M2624.62,-1985.75C2612.66,-1977.51 2594.91,-1966.25 2578,-1959.18 2512.46,-1931.79 2494.04,-1920.18 2423,-1920.18 2091,-1920.18 2091,-1920.18 2091,-1920.18 1797,-1920.18 1727,-1988.18 1433,-1988.18 1101,-1988.18 1101,-1988.18 1101,-1988.18 1030.75,-1988.18 993.598,-1967.51 946,-2019.18 927.632,-2039.12 916.203,-2221.57 912.406,-2292.84"/>
<polygon fill="green" stroke="green" points="908.907,-2292.73 911.882,-2302.9 915.898,-2293.1 908.907,-2292.73"/>
<text text-anchor="middle" x="1762" y="-1965.98" font-family="Times,serif" font-size="14.00">Learn_Assert</text>
</g>
<!-- q11&#45;&gt;q10 -->
<g id="edge95" class="edge"><title>q11&#45;&gt;q10</title>
<path fill="none" stroke="green" d="M2657.19,-2002.56C2708.74,-2022.88 2873.65,-2087.93 3010,-2142.18 3013.1,-2143.41 3016.36,-2144.71 3019.58,-2146"/>
<polygon fill="green" stroke="green" points="3018.39,-2149.29 3028.97,-2149.76 3020.99,-2142.79 3018.39,-2149.29"/>
<text text-anchor="middle" x="2858" y="-2103.98" font-family="Times,serif" font-size="14.00">check_seq_next</text>
</g>
<!-- q19 -->
<g id="node21" class="node"><title>q19</title>
<ellipse fill="none" stroke="black" cx="2858" cy="-158.18" rx="18" ry="18"/>
<text text-anchor="middle" x="2858" y="-154.48" font-family="Times,serif" font-size="14.00">D</text>
</g>
<!-- q11&#45;&gt;q19 -->
<g id="edge90" class="edge"><title>q11&#45;&gt;q19</title>
<path fill="none" stroke="green" d="M2643.1,-1978.28C2663.65,-1803.49 2828.29,-402.456 2853.71,-186.175"/>
<polygon fill="green" stroke="green" points="2857.22,-186.321 2854.91,-175.981 2850.26,-185.504 2857.22,-186.321"/>
<text text-anchor="middle" x="2748" y="-1456.98" font-family="Times,serif" font-size="14.00">chain_node</text>
</g>
<!-- q12 -->
<g id="node14" class="node"><title>q12</title>
<ellipse fill="none" stroke="black" cx="2422" cy="-1806.18" rx="18" ry="18"/>
<text text-anchor="middle" x="2422" y="-1802.48" font-family="Times,serif" font-size="14.00">D</text>
</g>
<!-- q12&#45;&gt;q0 -->
<g id="edge99" class="edge"><title>q12&#45;&gt;q0</title>
<path fill="none" stroke="green" d="M2409.36,-1819.17C2397.65,-1831.35 2378.44,-1849.01 2358,-1858.18 2294.4,-1886.72 2272.71,-1882.18 2203,-1882.18 1871,-1882.18 1871,-1882.18 1871,-1882.18 1846.38,-1882.18 1457.62,-1950.18 1433,-1950.18 1101,-1950.18 1101,-1950.18 1101,-1950.18 1031.29,-1950.18 993.966,-1923.6 946,-1974.18 924.214,-1997.15 914.664,-2214.23 911.898,-2292.89"/>
<polygon fill="green" stroke="green" points="908.395,-2292.92 911.553,-2303.04 915.391,-2293.16 908.395,-2292.92"/>
<text text-anchor="middle" x="1652" y="-1926.98" font-family="Times,serif" font-size="14.00">create_sll</text>
</g>
<!-- q12&#45;&gt;q0 -->
<g id="edge100" class="edge"><title>q12&#45;&gt;q0</title>
<path fill="none" stroke="green" d="M2404.49,-1811.07C2368.33,-1821.33 2279.26,-1844.18 2203,-1844.18 1871,-1844.18 1871,-1844.18 1871,-1844.18 1674,-1844.18 1630,-1912.18 1433,-1912.18 1101,-1912.18 1101,-1912.18 1101,-1912.18 1031,-1912.18 993.298,-1888.57 946,-1940.18 922.299,-1966.04 913.881,-2208.64 911.662,-2292.68"/>
<polygon fill="green" stroke="green" points="908.161,-2292.7 911.405,-2302.79 915.158,-2292.88 908.161,-2292.7"/>
<text text-anchor="middle" x="1652" y="-1894.98" font-family="Times,serif" font-size="14.00">init_back_link</text>
</g>
<!-- q12&#45;&gt;q0 -->
<g id="edge101" class="edge"><title>q12&#45;&gt;q0</title>
<path fill="none" stroke="green" d="M2403.76,-1806.18C2366.91,-1806.18 2277.75,-1806.18 2203,-1806.18 1871,-1806.18 1871,-1806.18 1871,-1806.18 1743.71,-1806.18 1713.68,-1829.98 1588,-1850.18 1519.17,-1861.24 1502.71,-1874.18 1433,-1874.18 1101,-1874.18 1101,-1874.18 1101,-1874.18 1030.92,-1874.18 992.981,-1851.17 946,-1903.18 919.932,-1932.03 912.999,-2203.72 911.417,-2292.94"/>
<polygon fill="green" stroke="green" points="907.915,-2293.07 911.246,-2303.12 914.914,-2293.18 907.915,-2293.07"/>
<text text-anchor="middle" x="1652" y="-1850.98" font-family="Times,serif" font-size="14.00">reverse_dll</text>
</g>
<!-- q12&#45;&gt;q0 -->
<g id="edge102" class="edge"><title>q12&#45;&gt;q0</title>
<path fill="none" stroke="green" d="M2404.49,-1801.29C2368.33,-1791.03 2279.26,-1768.18 2203,-1768.18 1871,-1768.18 1871,-1768.18 1871,-1768.18 1743.71,-1768.18 1713.68,-1791.98 1588,-1812.18 1519.17,-1823.24 1502.71,-1836.18 1433,-1836.18 1101,-1836.18 1101,-1836.18 1101,-1836.18 1030.92,-1836.18 992.801,-1813.01 946,-1865.18 917.439,-1897.02 912.162,-2198.3 911.206,-2292.9"/>
<polygon fill="green" stroke="green" points="907.704,-2293.11 911.112,-2303.14 914.704,-2293.17 907.704,-2293.11"/>
<text text-anchor="middle" x="1652" y="-1812.98" font-family="Times,serif" font-size="14.00">remove_fw_link</text>
</g>
<!-- q12&#45;&gt;q0 -->
<g id="edge104" class="edge"><title>q12&#45;&gt;q0</title>
<path fill="none" stroke="green" d="M2406.6,-1796.11C2394.21,-1787.85 2375.61,-1776.39 2358,-1769.18 2292.26,-1742.25 2274.04,-1730.18 2203,-1730.18 1871,-1730.18 1871,-1730.18 1871,-1730.18 1743.71,-1730.18 1713.68,-1753.98 1588,-1774.18 1519.17,-1785.24 1502.71,-1798.18 1433,-1798.18 1101,-1798.18 1101,-1798.18 1101,-1798.18 1030.92,-1798.18 992.647,-1774.87 946,-1827.18 914.939,-1862.01 911.389,-2193.07 911.027,-2292.85"/>
<polygon fill="green" stroke="green" points="907.527,-2293.06 910.999,-2303.07 914.527,-2293.08 907.527,-2293.06"/>
<text text-anchor="middle" x="1652" y="-1774.98" font-family="Times,serif" font-size="14.00">check_seq_prev</text>
</g>
<!-- q12&#45;&gt;q0 -->
<g id="edge105" class="edge"><title>q12&#45;&gt;q0</title>
<path fill="none" stroke="green" d="M2412.11,-1790.99C2401.42,-1774.06 2381.89,-1747.12 2358,-1732.18 2297.68,-1694.45 2274.15,-1692.18 2203,-1692.18 1871,-1692.18 1871,-1692.18 1871,-1692.18 1751.82,-1692.18 1723.77,-1714.88 1606,-1733.18 1529.1,-1745.13 1510.82,-1760.18 1433,-1760.18 1101,-1760.18 1101,-1760.18 1101,-1760.18 1030.92,-1760.18 992.516,-1736.76 946,-1789.18 912.402,-1827.04 910.667,-2188.67 910.874,-2293.08"/>
<polygon fill="green" stroke="green" points="907.374,-2293.19 910.901,-2303.18 914.374,-2293.17 907.374,-2293.19"/>
<text text-anchor="middle" x="1652" y="-1736.98" font-family="Times,serif" font-size="14.00">Learn_Assert</text>
</g>
<!-- q12&#45;&gt;q10 -->
<g id="edge103" class="edge"><title>q12&#45;&gt;q10</title>
<path fill="none" stroke="green" d="M2440.32,-1807.31C2469.58,-1809.68 2530.3,-1816.58 2578,-1835.18 2788.95,-1917.43 2846.51,-1948.55 3010,-2105.18 3018.14,-2112.98 3025.49,-2122.96 3031.33,-2132.02"/>
<polygon fill="green" stroke="green" points="3028.42,-2133.97 3036.64,-2140.66 3034.39,-2130.31 3028.42,-2133.97"/>
<text text-anchor="middle" x="2748" y="-1934.98" font-family="Times,serif" font-size="14.00">check_seq_next</text>
</g>
<!-- q12&#45;&gt;q11 -->
<g id="edge98" class="edge"><title>q12&#45;&gt;q11</title>
<path fill="none" stroke="green" d="M2438.59,-1813.4C2473.37,-1829.72 2555.98,-1869.69 2578,-1891.18 2601.14,-1913.75 2618.44,-1946.95 2628.6,-1969.94"/>
<polygon fill="green" stroke="green" points="2625.49,-1971.59 2632.63,-1979.42 2631.93,-1968.85 2625.49,-1971.59"/>
<text text-anchor="middle" x="2532" y="-1894.98" font-family="Times,serif" font-size="14.00">chain_node</text>
</g>
<!-- q13 -->
<g id="node15" class="node"><title>q13</title>
<ellipse fill="none" stroke="black" cx="2202" cy="-1578.18" rx="18" ry="18"/>
<text text-anchor="middle" x="2202" y="-1574.48" font-family="Times,serif" font-size="14.00">D</text>
</g>
<!-- q13&#45;&gt;q0 -->
<g id="edge107" class="edge"><title>q13&#45;&gt;q0</title>
<path fill="none" stroke="green" d="M2189.5,-1591.51C2177.9,-1603.94 2158.77,-1621.78 2138,-1630.18 1918.13,-1719.13 1828.63,-1590.38 1606,-1672.18 1596.74,-1675.58 1597.03,-1681.21 1588,-1685.18 1523.62,-1713.51 1503.34,-1717.18 1433,-1717.18 1101,-1717.18 1101,-1717.18 1101,-1717.18 1030.92,-1717.18 992.387,-1693.64 946,-1746.18 909.565,-1787.44 909.913,-2183.03 910.724,-2292.96"/>
<polygon fill="green" stroke="green" points="907.224,-2293 910.805,-2302.97 914.224,-2292.94 907.224,-2293"/>
<text text-anchor="middle" x="1542" y="-1718.98" font-family="Times,serif" font-size="14.00">create_sll</text>
</g>
<!-- q13&#45;&gt;q0 -->
<g id="edge108" class="edge"><title>q13&#45;&gt;q0</title>
<path fill="none" stroke="green" d="M2184.26,-1582.47C2171.62,-1585.57 2153.82,-1589.64 2138,-1592.18 1903.38,-1629.8 1842.18,-1619.08 1606,-1645.18 1529.02,-1653.69 1510.45,-1666.18 1433,-1666.18 1101,-1666.18 1101,-1666.18 1101,-1666.18 1029.63,-1666.18 990.968,-1652.75 946,-1708.18 908.833,-1753.99 909.773,-2178.91 910.708,-2293.06"/>
<polygon fill="green" stroke="green" points="907.208,-2293.15 910.797,-2303.12 914.208,-2293.08 907.208,-2293.15"/>
<text text-anchor="middle" x="1542" y="-1666.98" font-family="Times,serif" font-size="14.00">init_back_link</text>
</g>
<!-- q13&#45;&gt;q0 -->
<g id="edge109" class="edge"><title>q13&#45;&gt;q0</title>
<path fill="none" stroke="green" d="M2183.99,-1579.61C2101.44,-1586.41 1734.35,-1615.18 1433,-1615.18 1101,-1615.18 1101,-1615.18 1101,-1615.18 1029.14,-1615.18 990.49,-1604.75 946,-1661.18 926.174,-1686.33 914.309,-2169.6 911.598,-2292.79"/>
<polygon fill="green" stroke="green" points="908.096,-2292.87 911.378,-2302.94 915.094,-2293.02 908.096,-2292.87"/>
<text text-anchor="middle" x="1542" y="-1618.98" font-family="Times,serif" font-size="14.00">reverse_dll</text>
</g>
<!-- q13&#45;&gt;q0 -->
<g id="edge110" class="edge"><title>q13&#45;&gt;q0</title>
<path fill="none" stroke="green" d="M2183.72,-1577.24C2039.42,-1569.58 1037.68,-1519.85 946,-1611.18 921.469,-1635.62 913.048,-2163.02 911.346,-2292.61"/>
<polygon fill="green" stroke="green" points="907.842,-2292.86 911.214,-2302.91 914.842,-2292.95 907.842,-2292.86"/>
<text text-anchor="middle" x="1542" y="-1561.98" font-family="Times,serif" font-size="14.00">remove_fw_link</text>
</g>
<!-- q13&#45;&gt;q0 -->
<g id="edge112" class="edge"><title>q13&#45;&gt;q0</title>
<path fill="none" stroke="green" d="M2184.23,-1574.69C2171.59,-1572.19 2153.78,-1568.97 2138,-1567.18 1660.16,-1513.06 1534.87,-1519.16 1056,-1563.18 1006.92,-1567.69 979.435,-1540.97 946,-1577.18 921.282,-1603.95 912.957,-2160.41 911.321,-2293"/>
<polygon fill="green" stroke="green" points="907.819,-2293.12 911.199,-2303.16 914.819,-2293.2 907.819,-2293.12"/>
<text text-anchor="middle" x="1542" y="-1534.98" font-family="Times,serif" font-size="14.00">check_seq_prev</text>
</g>
<!-- q13&#45;&gt;q0 -->
<g id="edge113" class="edge"><title>q13&#45;&gt;q0</title>
<path fill="none" stroke="green" d="M2188.5,-1565.77C2156.96,-1535.84 2070.46,-1462.18 1983,-1462.18 1651,-1462.18 1651,-1462.18 1651,-1462.18 1572,-1462.18 999.46,-1496.02 946,-1554.18 920.555,-1581.86 912.773,-2156.69 911.286,-2292.57"/>
<polygon fill="green" stroke="green" points="907.782,-2292.93 911.175,-2302.97 914.782,-2293.01 907.782,-2292.93"/>
<text text-anchor="middle" x="1542" y="-1473.98" font-family="Times,serif" font-size="14.00">Learn_Assert</text>
</g>
<!-- q13&#45;&gt;q10 -->
<g id="edge111" class="edge"><title>q13&#45;&gt;q10</title>
<path fill="none" stroke="green" d="M2219.94,-1579.88C2256.57,-1583.4 2345.93,-1591.18 2421,-1591.18 2421,-1591.18 2421,-1591.18 2859,-1591.18 2973.42,-1591.18 3029.12,-2014.54 3042.03,-2128.32"/>
<polygon fill="green" stroke="green" points="3038.56,-2128.79 3043.14,-2138.34 3045.51,-2128.01 3038.56,-2128.79"/>
<text text-anchor="middle" x="2640" y="-1594.98" font-family="Times,serif" font-size="14.00">check_seq_next</text>
</g>
<!-- q13&#45;&gt;q12 -->
<g id="edge106" class="edge"><title>q13&#45;&gt;q12</title>
<path fill="none" stroke="green" d="M2218.76,-1585.24C2253.91,-1601.21 2337.21,-1640.5 2358,-1663.18 2388.8,-1696.77 2406.31,-1747.86 2414.71,-1779.02"/>
<polygon fill="green" stroke="green" points="2411.33,-1779.95 2417.21,-1788.76 2418.11,-1778.21 2411.33,-1779.95"/>
<text text-anchor="middle" x="2312" y="-1666.98" font-family="Times,serif" font-size="14.00">chain_node</text>
</g>
<!-- q14 -->
<g id="node16" class="node"><title>q14</title>
<ellipse fill="none" stroke="black" cx="1982" cy="-1340.18" rx="18" ry="18"/>
<text text-anchor="middle" x="1982" y="-1336.48" font-family="Times,serif" font-size="14.00">D</text>
</g>
<!-- q14&#45;&gt;q0 -->
<g id="edge115" class="edge"><title>q14&#45;&gt;q0</title>
<path fill="none" stroke="green" d="M1969.47,-1353.44C1957.85,-1365.81 1938.71,-1383.61 1918,-1392.18 1892.94,-1402.55 964.666,-1464.51 946,-1484.18 917.585,-1514.13 912.041,-2149.54 911.151,-2292.7"/>
<polygon fill="green" stroke="green" points="907.65,-2292.85 911.091,-2302.87 914.65,-2292.89 907.65,-2292.85"/>
<text text-anchor="middle" x="1432" y="-1441.98" font-family="Times,serif" font-size="14.00">create_sll</text>
</g>
<!-- q14&#45;&gt;q0 -->
<g id="edge116" class="edge"><title>q14&#45;&gt;q0</title>
<path fill="none" stroke="green" d="M1964.25,-1344.43C1951.61,-1347.51 1933.81,-1351.57 1918,-1354.18 1683.33,-1392.93 1622.26,-1384.8 1386,-1412.18 1288.14,-1423.52 1012.77,-1393.75 946,-1466.18 917.386,-1497.22 911.991,-2147.34 911.142,-2292.57"/>
<polygon fill="green" stroke="green" points="907.64,-2292.86 911.084,-2302.88 914.64,-2292.9 907.64,-2292.86"/>
<text text-anchor="middle" x="1432" y="-1415.98" font-family="Times,serif" font-size="14.00">init_back_link</text>
</g>
<!-- q14&#45;&gt;q0 -->
<g id="edge117" class="edge"><title>q14&#45;&gt;q0</title>
<path fill="none" stroke="green" d="M1963.7,-1340.93C1831.29,-1346.74 982.448,-1385.45 946,-1424.18 915.521,-1456.57 911.569,-2144.5 911.07,-2293.06"/>
<polygon fill="green" stroke="green" points="907.57,-2293.17 911.039,-2303.18 914.57,-2293.19 907.57,-2293.17"/>
<text text-anchor="middle" x="1432" y="-1375.98" font-family="Times,serif" font-size="14.00">reverse_dll</text>
</g>
<!-- q14&#45;&gt;q0 -->
<g id="edge118" class="edge"><title>q14&#45;&gt;q0</title>
<path fill="none" stroke="green" d="M1963.95,-1339.78C1835.12,-1336.97 1017.96,-1322.24 946,-1400.18 914.991,-1433.76 911.454,-2141.34 911.051,-2292.8"/>
<polygon fill="green" stroke="green" points="907.551,-2293.1 911.027,-2303.11 914.551,-2293.12 907.551,-2293.1"/>
<text text-anchor="middle" x="1432" y="-1344.98" font-family="Times,serif" font-size="14.00">remove_fw_link</text>
</g>
<!-- q14&#45;&gt;q0 -->
<g id="edge120" class="edge"><title>q14&#45;&gt;q0</title>
<path fill="none" stroke="green" d="M1963.91,-1338.26C1951.25,-1336.91 1933.57,-1335.17 1918,-1334.18 1718.52,-1321.52 1531.49,-1313.36 1386,-1320.18 1238.85,-1327.08 1202.42,-1334.99 1056,-1351.18 1007.02,-1356.6 979.246,-1328.8 946,-1365.18 913.929,-1400.28 911.229,-2137.59 911.016,-2292.7"/>
<polygon fill="green" stroke="green" points="907.516,-2292.84 911.004,-2302.84 914.516,-2292.85 907.516,-2292.84"/>
<text text-anchor="middle" x="1432" y="-1323.98" font-family="Times,serif" font-size="14.00">check_seq_prev</text>
</g>
<!-- q14&#45;&gt;q0 -->
<g id="edge121" class="edge"><title>q14&#45;&gt;q0</title>
<path fill="none" stroke="green" d="M1964.57,-1335.43C1951.95,-1331.99 1934.02,-1327.54 1918,-1325.18 1704.28,-1293.67 1093.98,-1184.78 946,-1342.18 912.617,-1377.69 910.956,-2134.68 910.973,-2292.5"/>
<polygon fill="green" stroke="green" points="907.473,-2292.82 910.977,-2302.81 914.473,-2292.81 907.473,-2292.82"/>
<text text-anchor="middle" x="1432" y="-1271.98" font-family="Times,serif" font-size="14.00">Learn_Assert</text>
</g>
<!-- q14&#45;&gt;q10 -->
<g id="edge119" class="edge"><title>q14&#45;&gt;q10</title>
<path fill="none" stroke="green" d="M1999.86,-1343.97C2036.34,-1351.83 2125.4,-1369.18 2201,-1369.18 2201,-1369.18 2201,-1369.18 2859,-1369.18 2995.33,-1369.18 2970.89,-1505.58 3010,-1636.18 3037.93,-1729.46 3043.64,-2033.45 3044.74,-2127.91"/>
<polygon fill="green" stroke="green" points="3041.25,-2128.16 3044.86,-2138.12 3048.25,-2128.08 3041.25,-2128.16"/>
<text text-anchor="middle" x="2532" y="-1372.98" font-family="Times,serif" font-size="14.00">check_seq_next</text>
</g>
<!-- q14&#45;&gt;q13 -->
<g id="edge114" class="edge"><title>q14&#45;&gt;q13</title>
<path fill="none" stroke="green" d="M1997.24,-1350.51C2009.83,-1359.5 2028.82,-1372.69 2046,-1383.18 2085.71,-1407.44 2106.57,-1398.86 2138,-1433.18 2169.14,-1467.19 2186.54,-1519.01 2194.83,-1550.62"/>
<polygon fill="green" stroke="green" points="2191.48,-1551.65 2197.29,-1560.51 2198.27,-1549.96 2191.48,-1551.65"/>
<text text-anchor="middle" x="2092" y="-1436.98" font-family="Times,serif" font-size="14.00">chain_node</text>
</g>
<!-- q15 -->
<g id="node17" class="node"><title>q15</title>
<ellipse fill="none" stroke="black" cx="1762" cy="-1112.18" rx="18" ry="18"/>
<text text-anchor="middle" x="1762" y="-1108.48" font-family="Times,serif" font-size="14.00">D</text>
</g>
<!-- q15&#45;&gt;q0 -->
<g id="edge123" class="edge"><title>q15&#45;&gt;q0</title>
<path fill="none" stroke="green" d="M1749.42,-1125.32C1737.76,-1137.6 1718.59,-1155.33 1698,-1164.18 1620.66,-1197.42 1002.82,-1194.07 946,-1256.18 910.029,-1295.5 910.458,-2127.09 910.901,-2292.66"/>
<polygon fill="green" stroke="green" points="907.402,-2293.01 910.932,-2303 914.402,-2292.99 907.402,-2293.01"/>
<text text-anchor="middle" x="1322" y="-1205.98" font-family="Times,serif" font-size="14.00">create_sll</text>
</g>
<!-- q15&#45;&gt;q0 -->
<g id="edge124" class="edge"><title>q15&#45;&gt;q0</title>
<path fill="none" stroke="green" d="M1744.24,-1116.36C1731.6,-1119.41 1713.79,-1123.46 1698,-1126.18 1511.77,-1158.27 1463.4,-1153.86 1276,-1178.18 1129.21,-1197.23 1045.11,-1113.23 946,-1223.18 909.14,-1264.07 910.3,-2124.66 910.881,-2292.83"/>
<polygon fill="green" stroke="green" points="907.381,-2292.9 910.918,-2302.89 914.381,-2292.87 907.381,-2292.9"/>
<text text-anchor="middle" x="1322" y="-1181.98" font-family="Times,serif" font-size="14.00">init_back_link</text>
</g>
<!-- q15&#45;&gt;q0 -->
<g id="edge125" class="edge"><title>q15&#45;&gt;q0</title>
<path fill="none" stroke="green" d="M1743.84,-1111.93C1631.45,-1110.44 1003.41,-1104.81 946,-1164.18 905.568,-1205.99 909.642,-2118.59 910.79,-2292.64"/>
<polygon fill="green" stroke="green" points="907.291,-2292.83 910.859,-2302.81 914.291,-2292.78 907.291,-2292.83"/>
<text text-anchor="middle" x="1322" y="-1120.98" font-family="Times,serif" font-size="14.00">reverse_dll</text>
</g>
<!-- q15&#45;&gt;q0 -->
<g id="edge126" class="edge"><title>q15&#45;&gt;q0</title>
<path fill="none" stroke="green" d="M1744.49,-1107.29C1708.33,-1097.03 1619.26,-1074.18 1543,-1074.18 1101,-1074.18 1101,-1074.18 1101,-1074.18 1027.29,-1074.18 988.725,-1073.11 946,-1133.18 911.332,-1181.92 910.752,-2117.16 910.95,-2292.86"/>
<polygon fill="green" stroke="green" points="907.45,-2292.89 910.964,-2302.88 914.45,-2292.88 907.45,-2292.89"/>
<text text-anchor="middle" x="1322" y="-1077.98" font-family="Times,serif" font-size="14.00">remove_fw_link</text>
</g>
<!-- q15&#45;&gt;q0 -->
<g id="edge128" class="edge"><title>q15&#45;&gt;q0</title>
<path fill="none" stroke="green" d="M1746.79,-1101.6C1734.52,-1093.04 1715.98,-1081.4 1698,-1075.18 1651.37,-1059.04 1636.99,-1066.08 1588,-1060.18 1446.33,-1043.12 1042.75,-968.294 946,-1073.18 924.622,-1096.36 913.186,-2108.96 911.285,-2292.73"/>
<polygon fill="green" stroke="green" points="907.783,-2292.9 911.18,-2302.94 914.782,-2292.98 907.783,-2292.9"/>
<text text-anchor="middle" x="1322" y="-1034.98" font-family="Times,serif" font-size="14.00">check_seq_prev</text>
</g>
<!-- q15&#45;&gt;q0 -->
<g id="edge129" class="edge"><title>q15&#45;&gt;q0</title>
<path fill="none" stroke="green" d="M1749.44,-1098.72C1737.8,-1086.1 1718.64,-1067.78 1698,-1058.18 1438.71,-937.561 1341.17,-993.805 1056,-1015.18 1007,-1018.85 979.457,-990.199 946,-1026.18 923.687,-1050.18 912.989,-2104.21 911.254,-2292.54"/>
<polygon fill="green" stroke="green" points="907.753,-2292.72 911.161,-2302.75 914.752,-2292.78 907.753,-2292.72"/>
<text text-anchor="middle" x="1322" y="-995.98" font-family="Times,serif" font-size="14.00">Learn_Assert</text>
</g>
<!-- q15&#45;&gt;q10 -->
<g id="edge127" class="edge"><title>q15&#45;&gt;q10</title>
<path fill="none" stroke="green" d="M1779.94,-1113.88C1816.57,-1117.4 1905.93,-1125.18 1981,-1125.18 1981,-1125.18 1981,-1125.18 2859,-1125.18 2991.1,-1125.18 2972.35,-1254.56 3010,-1381.18 3031.59,-1453.77 3042.26,-1997.08 3044.53,-2127.91"/>
<polygon fill="green" stroke="green" points="3041.03,-2128 3044.7,-2137.94 3048.03,-2127.88 3041.03,-2128"/>
<text text-anchor="middle" x="2422" y="-1128.98" font-family="Times,serif" font-size="14.00">check_seq_next</text>
</g>
<!-- q15&#45;&gt;q14 -->
<g id="edge122" class="edge"><title>q15&#45;&gt;q14</title>
<path fill="none" stroke="green" d="M1778.76,-1119.24C1813.91,-1135.21 1897.21,-1174.5 1918,-1197.18 1948.8,-1230.77 1966.31,-1281.86 1974.71,-1313.02"/>
<polygon fill="green" stroke="green" points="1971.33,-1313.95 1977.21,-1322.76 1978.11,-1312.21 1971.33,-1313.95"/>
<text text-anchor="middle" x="1872" y="-1200.98" font-family="Times,serif" font-size="14.00">chain_node</text>
</g>
<!-- q16 -->
<g id="node18" class="node"><title>q16</title>
<ellipse fill="none" stroke="green" cx="1542" cy="-850.18" rx="18" ry="18"/>
<text text-anchor="middle" x="1542" y="-846.48" font-family="Times,serif" font-size="14.00">D</text>
</g>
<!-- q16&#45;&gt;q0 -->
<g id="edge131" class="edge"><title>q16&#45;&gt;q0</title>
<path fill="none" stroke="green" d="M1529.36,-863.176C1517.65,-875.353 1498.45,-893.012 1478,-902.18 1450.71,-914.414 965.764,-961.737 946,-984.18 923.584,-1009.63 912.926,-2102.95 911.24,-2293.12"/>
<polygon fill="green" stroke="green" points="907.74,-2293.13 911.152,-2303.16 914.74,-2293.19 907.74,-2293.13"/>
<text text-anchor="middle" x="1212" y="-948.98" font-family="Times,serif" font-size="14.00">create_sll</text>
</g>
<!-- q16&#45;&gt;q0 -->
<g id="edge132" class="edge"><title>q16&#45;&gt;q0</title>
<path fill="none" stroke="green" d="M1524.21,-854.183C1511.55,-857.135 1493.73,-861.148 1478,-864.18 1407.94,-877.68 961.777,-941.348 946,-960.18 923.816,-986.659 912.957,-2100.3 911.243,-2292.94"/>
<polygon fill="green" stroke="green" points="907.742,-2293.07 911.153,-2303.1 914.741,-2293.13 907.742,-2293.07"/>
<text text-anchor="middle" x="1212" y="-917.98" font-family="Times,serif" font-size="14.00">init_back_link</text>
</g>
<!-- q16&#45;&gt;q0 -->
<g id="edge133" class="edge"><title>q16&#45;&gt;q0</title>
<path fill="none" stroke="green" d="M1523.7,-850.69C1470.19,-852.463 1302.78,-859.486 1166,-881.18 1066.77,-896.918 1009.33,-855.179 946,-933.18 923.772,-960.557 912.931,-2098.3 911.237,-2292.98"/>
<polygon fill="green" stroke="green" points="907.737,-2292.97 911.151,-2303 914.737,-2293.03 907.737,-2292.97"/>
<text text-anchor="middle" x="1212" y="-884.98" font-family="Times,serif" font-size="14.00">reverse_dll</text>
</g>
<!-- q16&#45;&gt;q0 -->
<g id="edge134" class="edge"><title>q16&#45;&gt;q0</title>
<path fill="none" stroke="green" d="M1524.03,-848.03C1435.2,-837.198 1024.81,-792.474 946,-880.18 921.492,-907.455 912.519,-2093.3 911.181,-2292.83"/>
<polygon fill="green" stroke="green" points="907.68,-2293.05 911.114,-2303.07 914.68,-2293.09 907.68,-2293.05"/>
<text text-anchor="middle" x="1212" y="-831.98" font-family="Times,serif" font-size="14.00">remove_fw_link</text>
</g>
<!-- q16&#45;&gt;q0 -->
<g id="edge136" class="edge"><title>q16&#45;&gt;q0</title>
<path fill="none" stroke="green" d="M1524.9,-844.404C1512.29,-840.109 1494.24,-834.447 1478,-831.18 1362.09,-807.86 1024.99,-749.209 946,-837.18 920.732,-865.32 912.372,-2090.28 911.16,-2292.93"/>
<polygon fill="green" stroke="green" points="907.66,-2293.04 911.101,-2303.06 914.66,-2293.08 907.66,-2293.04"/>
<text text-anchor="middle" x="1212" y="-800.98" font-family="Times,serif" font-size="14.00">check_seq_prev</text>
</g>
<!-- q16&#45;&gt;q0 -->
<g id="edge137" class="edge"><title>q16&#45;&gt;q0</title>
<path fill="none" stroke="green" d="M1527.3,-839.554C1515.05,-830.598 1496.27,-818.157 1478,-811.18 1367.5,-768.972 1026.37,-707.394 946,-794.18 919.518,-822.776 912.155,-2087.42 911.132,-2293.06"/>
<polygon fill="green" stroke="green" points="907.632,-2293.05 911.083,-2303.06 914.632,-2293.08 907.632,-2293.05"/>
<text text-anchor="middle" x="1212" y="-764.98" font-family="Times,serif" font-size="14.00">Learn_Assert</text>
</g>
<!-- q16&#45;&gt;q10 -->
<g id="edge135" class="edge"><title>q16&#45;&gt;q10</title>
<path fill="none" stroke="green" d="M1559.93,-852.141C1596.55,-856.207 1685.89,-865.18 1761,-865.18 1761,-865.18 1761,-865.18 2859,-865.18 2998.05,-865.18 2973.04,-1005.14 3010,-1139.18 3036.88,-1236.68 3043.68,-1973.56 3044.81,-2127.89"/>
<polygon fill="green" stroke="green" points="3041.31,-2128 3044.88,-2137.98 3048.31,-2127.95 3041.31,-2128"/>
<text text-anchor="middle" x="2312" y="-868.98" font-family="Times,serif" font-size="14.00">check_seq_next</text>
</g>
<!-- q16&#45;&gt;q15 -->
<g id="edge130" class="edge"><title>q16&#45;&gt;q15</title>
<path fill="none" stroke="green" d="M1558.6,-857.855C1593.78,-875.427 1677.84,-918.928 1698,-943.18 1732.83,-985.075 1749.42,-1048.09 1756.47,-1084.16"/>
<polygon fill="green" stroke="green" points="1753.11,-1085.24 1758.36,-1094.44 1759.99,-1083.97 1753.11,-1085.24"/>
<text text-anchor="middle" x="1652" y="-946.98" font-family="Times,serif" font-size="14.00">chain_node</text>
</g>
<!-- q17 -->
<g id="node19" class="node"><title>q17</title>
<ellipse fill="none" stroke="green" cx="1322" cy="-574.18" rx="18" ry="18"/>
<text text-anchor="middle" x="1322" y="-570.48" font-family="Times,serif" font-size="14.00">D</text>
</g>
<!-- q17&#45;&gt;q0 -->
<g id="edge139" class="edge"><title>q17&#45;&gt;q0</title>
<path fill="none" stroke="green" d="M1316.63,-591.403C1309.17,-617.133 1291.43,-665.242 1258,-690.18 1144.39,-774.922 1036.48,-647.079 946,-756.18 920.475,-786.959 912.298,-2084.54 911.147,-2293.04"/>
<polygon fill="green" stroke="green" points="907.647,-2293.15 911.092,-2303.17 914.647,-2293.19 907.647,-2293.15"/>
<text text-anchor="middle" x="1102" y="-724.98" font-family="Times,serif" font-size="14.00">create_sll</text>
</g>
<!-- q17&#45;&gt;q0 -->
<g id="edge140" class="edge"><title>q17&#45;&gt;q0</title>
<path fill="none" stroke="green" d="M1310.97,-588.764C1299.82,-603.803 1280.4,-626.758 1258,-639.18 1195.98,-673.568 991.165,-651.509 946,-706.18 919.679,-738.041 912.153,-2081.12 911.128,-2293.13"/>
<polygon fill="green" stroke="green" points="907.628,-2293.13 911.08,-2303.15 914.628,-2293.17 907.628,-2293.13"/>
<text text-anchor="middle" x="1102" y="-672.98" font-family="Times,serif" font-size="14.00">init_back_link</text>
</g>
<!-- q17&#45;&gt;q0 -->
<g id="edge141" class="edge"><title>q17&#45;&gt;q0</title>
<path fill="none" stroke="green" d="M1304.2,-578.098C1232.06,-594.967 951.832,-660.866 946,-668.18 919.614,-701.268 912.137,-2076.98 911.125,-2292.82"/>
<polygon fill="green" stroke="green" points="907.625,-2292.99 911.078,-2303.01 914.625,-2293.03 907.625,-2292.99"/>
<text text-anchor="middle" x="1102" y="-641.98" font-family="Times,serif" font-size="14.00">reverse_dll</text>
</g>
<!-- q17&#45;&gt;q0 -->
<g id="edge142" class="edge"><title>q17&#45;&gt;q0</title>
<path fill="none" stroke="green" d="M1303.8,-575.73C1275.19,-578.309 1216.05,-583.644 1166,-588.18 1117.11,-592.61 1101.98,-580.975 1056,-598.18 1046.76,-601.638 1046.84,-606.795 1038,-611.18 999.711,-630.172 971.801,-605.105 946,-639.18 919.991,-673.529 912.19,-2074.25 911.131,-2292.67"/>
<polygon fill="green" stroke="green" points="907.63,-2292.96 911.082,-2302.98 914.63,-2293 907.63,-2292.96"/>
<text text-anchor="middle" x="1102" y="-601.98" font-family="Times,serif" font-size="14.00">remove_fw_link</text>
</g>
<!-- q17&#45;&gt;q0 -->
<g id="edge143" class="edge"><title>q17&#45;&gt;q0</title>
<path fill="none" stroke="green" d="M1303.81,-573.651C1272.73,-572.723 1205.08,-570.839 1148,-570.18 1107.11,-569.707 1094.22,-555.649 1056,-570.18 1046,-573.984 1047.34,-580.945 1038,-586.18 1000.72,-607.084 971.796,-580.101 946,-614.18 919.583,-649.079 912.116,-2073.48 911.121,-2292.92"/>
<polygon fill="green" stroke="green" points="907.621,-2292.98 911.076,-2302.99 914.621,-2293.01 907.621,-2292.98"/>
<text text-anchor="middle" x="1102" y="-573.98" font-family="Times,serif" font-size="14.00">check_seq_next</text>
</g>
<!-- q17&#45;&gt;q0 -->
<g id="edge144" class="edge"><title>q17&#45;&gt;q0</title>
<path fill="none" stroke="green" d="M1303.93,-570.348C1273.03,-563.629 1205.66,-549.979 1148,-545.18 1107.25,-541.788 1094.22,-530.649 1056,-545.18 1046,-548.984 1047.34,-555.945 1038,-561.18 1000.72,-582.084 971.79,-555.097 946,-589.18 919.188,-624.612 912.049,-2071.35 911.113,-2292.86"/>
<polygon fill="green" stroke="green" points="907.612,-2293 911.071,-2303.01 914.612,-2293.03 907.612,-2293"/>
<text text-anchor="middle" x="1102" y="-548.98" font-family="Times,serif" font-size="14.00">check_seq_prev</text>
</g>
<!-- q17&#45;&gt;q0 -->
<g id="edge145" class="edge"><title>q17&#45;&gt;q0</title>
<path fill="none" stroke="green" d="M1306.17,-565.599C1293.68,-558.688 1275.15,-549.169 1258,-543.18 1172.65,-513.367 1140.01,-485.778 1056,-519.18 1045.77,-523.245 1047.52,-530.654 1038,-536.18 1001.04,-557.644 971.786,-530.094 946,-564.18 918.792,-600.146 911.984,-2069.28 911.105,-2292.8"/>
<polygon fill="green" stroke="green" points="907.604,-2293.03 911.065,-2303.04 914.604,-2293.05 907.604,-2293.03"/>
<text text-anchor="middle" x="1102" y="-522.98" font-family="Times,serif" font-size="14.00">Learn_Assert</text>
</g>
<!-- q17&#45;&gt;q16 -->
<g id="edge138" class="edge"><title>q17&#45;&gt;q16</title>
<path fill="none" stroke="green" d="M1337.73,-583.475C1367.73,-603.055 1436.59,-651.365 1478,-707.18 1504.89,-743.43 1523.44,-792.965 1533.13,-823.204"/>
<polygon fill="green" stroke="green" points="1529.88,-824.53 1536.19,-833.041 1536.56,-822.453 1529.88,-824.53"/>
<text text-anchor="middle" x="1432" y="-710.98" font-family="Times,serif" font-size="14.00">chain_node</text>
</g>
<!-- q18&#45;&gt;q0 -->
<g id="edge147" class="edge"><title>q18&#45;&gt;q0</title>
<path fill="none" stroke="green" d="M1085.6,-374.686C1075.8,-380.199 1063.57,-388.567 1056,-399.18 1039.58,-422.189 1058.8,-441.041 1038,-460.18 1007.27,-488.448 972.675,-447.061 946,-479.18 915.731,-515.626 911.51,-2063.23 911.05,-2292.83"/>
<polygon fill="green" stroke="green" points="907.549,-2293.03 911.03,-2303.04 914.549,-2293.04 907.549,-2293.03"/>
<text text-anchor="middle" x="992" y="-482.98" font-family="Times,serif" font-size="14.00">create_sll</text>
</g>
<!-- q18&#45;&gt;q0 -->
<g id="edge148" class="edge"><title>q18&#45;&gt;q0</title>
<path fill="none" stroke="green" d="M1086,-376.278C1076.83,-382.205 1065.15,-390.44 1056,-399.18 1046.61,-408.145 1049.03,-415.337 1038,-422.18 1002.52,-444.188 972.669,-409.055 946,-441.18 915.083,-478.421 911.41,-2061.12 911.038,-2292.96"/>
<polygon fill="green" stroke="green" points="907.538,-2292.96 911.023,-2302.96 914.538,-2292.97 907.538,-2292.96"/>
<text text-anchor="middle" x="992" y="-444.98" font-family="Times,serif" font-size="14.00">init_back_link</text>
</g>
<!-- q18&#45;&gt;q0 -->
<g id="edge149" class="edge"><title>q18&#45;&gt;q0</title>
<path fill="none" stroke="green" d="M1084.49,-371.926C1071.82,-375.496 1053.87,-380.403 1038,-384.18 997.382,-393.845 972.663,-371.051 946,-403.18 914.432,-441.219 911.313,-2059.22 911.027,-2293.12"/>
<polygon fill="green" stroke="green" points="907.527,-2293.19 911.016,-2303.2 914.527,-2293.2 907.527,-2293.19"/>
<text text-anchor="middle" x="992" y="-406.98" font-family="Times,serif" font-size="14.00">reverse_dll</text>
</g>
<!-- q18&#45;&gt;q0 -->
<g id="edge150" class="edge"><title>q18&#45;&gt;q0</title>
<path fill="none" stroke="green" d="M1084.21,-364.136C1048.17,-358.032 965.103,-346.415 946,-365.18 910.018,-400.524 910.678,-2055.24 910.959,-2292.88"/>
<polygon fill="green" stroke="green" points="907.459,-2293.11 910.972,-2303.11 914.459,-2293.1 907.459,-2293.11"/>
<text text-anchor="middle" x="992" y="-368.98" font-family="Times,serif" font-size="14.00">remove_fw_link</text>
</g>
<!-- q18&#45;&gt;q0 -->
<g id="edge151" class="edge"><title>q18&#45;&gt;q0</title>
<path fill="none" stroke="green" d="M1086.7,-357.263C1056.28,-337.468 984.759,-298.098 946,-336.18 909.471,-372.071 910.603,-2053.04 910.951,-2292.83"/>
<polygon fill="green" stroke="green" points="907.452,-2293.15 910.967,-2303.15 914.452,-2293.14 907.452,-2293.15"/>
<text text-anchor="middle" x="992" y="-339.98" font-family="Times,serif" font-size="14.00">check_seq_next</text>
</g>
<!-- q18&#45;&gt;q0 -->
<g id="edge152" class="edge"><title>q18&#45;&gt;q0</title>
<path fill="none" stroke="green" d="M1091.83,-352.211C1081.15,-336.37 1061.88,-312.29 1038,-302.18 1000.35,-286.238 975.162,-273.519 946,-302.18 908.813,-338.728 910.518,-2051.91 910.943,-2293.08"/>
<polygon fill="green" stroke="green" points="907.443,-2293.15 910.962,-2303.15 914.443,-2293.14 907.443,-2293.15"/>
<text text-anchor="middle" x="992" y="-305.98" font-family="Times,serif" font-size="14.00">check_seq_prev</text>
</g>
<!-- q18&#45;&gt;q0 -->
<g id="edge153" class="edge"><title>q18&#45;&gt;q0</title>
<path fill="none" stroke="green" d="M1096.11,-350.135C1088.26,-326.356 1070.35,-284.127 1038,-266.18 1002.25,-246.342 975.158,-237.514 946,-266.18 908.136,-303.404 910.428,-2048.92 910.934,-2292.96"/>
<polygon fill="green" stroke="green" points="907.434,-2293.15 910.956,-2303.14 914.434,-2293.13 907.434,-2293.15"/>
<text text-anchor="middle" x="992" y="-269.98" font-family="Times,serif" font-size="14.00">Learn_Assert</text>
</g>
<!-- q18&#45;&gt;q17 -->
<g id="edge146" class="edge"><title>q18&#45;&gt;q17</title>
<path fill="none" stroke="green" d="M1120.19,-364.72C1151.48,-361.257 1218.14,-358.691 1258,-392.18 1304.18,-430.976 1316.56,-505.459 1319.84,-546.076"/>
<polygon fill="green" stroke="green" points="1316.36,-546.364 1320.52,-556.104 1323.34,-545.89 1316.36,-546.364"/>
<text text-anchor="middle" x="1212" y="-395.98" font-family="Times,serif" font-size="14.00">chain_node</text>
</g>
<!-- q19&#45;&gt;q0 -->
<g id="edge154" class="edge"><title>q19&#45;&gt;q0</title>
<path fill="none" stroke="green" d="M2845.36,-171.164C2833.64,-183.332 2814.43,-200.985 2794,-210.18 2731.23,-238.423 2709.83,-234.18 2641,-234.18 1211,-234.18 1211,-234.18 1211,-234.18 1152.07,-234.18 987.233,-202.077 946,-244.18 908.451,-282.521 910.472,-2046.1 910.939,-2292.67"/>
<polygon fill="green" stroke="green" points="907.439,-2292.96 910.959,-2302.95 914.439,-2292.94 907.439,-2292.96"/>
<text text-anchor="middle" x="1872" y="-237.98" font-family="Times,serif" font-size="14.00">chain_node</text>
</g>
<!-- q19&#45;&gt;q0 -->
<g id="edge155" class="edge"><title>q19&#45;&gt;q0</title>
<path fill="none" stroke="green" d="M2840.64,-163.07C2804.82,-173.333 2716.58,-196.18 2641,-196.18 1101,-196.18 1101,-196.18 1101,-196.18 1031.36,-196.18 991.925,-166.825 946,-219.18 910.166,-260.03 910.715,-2044.92 910.964,-2292.74"/>
<polygon fill="green" stroke="green" points="907.465,-2293.07 910.976,-2303.07 914.465,-2293.06 907.465,-2293.07"/>
<text text-anchor="middle" x="1872" y="-199.98" font-family="Times,serif" font-size="14.00">create_sll</text>
</g>
<!-- q19&#45;&gt;q0 -->
<g id="edge156" class="edge"><title>q19&#45;&gt;q0</title>
<path fill="none" stroke="green" d="M2839.92,-158.18C2803.41,-158.18 2715.06,-158.18 2641,-158.18 1101,-158.18 1101,-158.18 1101,-158.18 1031.15,-158.18 991.557,-131.229 946,-184.18 909.933,-226.1 910.689,-2044.05 910.962,-2293.03"/>
<polygon fill="green" stroke="green" points="907.462,-2293.09 910.974,-2303.09 914.462,-2293.08 907.462,-2293.09"/>
<text text-anchor="middle" x="1872" y="-161.98" font-family="Times,serif" font-size="14.00">init_back_link</text>
</g>
<!-- q19&#45;&gt;q0 -->
<g id="edge157" class="edge"><title>q19&#45;&gt;q0</title>
<path fill="none" stroke="green" d="M2840.64,-153.29C2804.82,-143.026 2716.58,-120.18 2641,-120.18 1101,-120.18 1101,-120.18 1101,-120.18 1031,-120.18 991.316,-94.8228 946,-148.18 909.58,-191.062 910.645,-2041.32 910.958,-2292.95"/>
<polygon fill="green" stroke="green" points="907.458,-2293.11 910.972,-2303.11 914.458,-2293.1 907.458,-2293.11"/>
<text text-anchor="middle" x="1872" y="-123.98" font-family="Times,serif" font-size="14.00">reverse_dll</text>
</g>
<!-- q19&#45;&gt;q0 -->
<g id="edge158" class="edge"><title>q19&#45;&gt;q0</title>
<path fill="none" stroke="green" d="M2842.59,-148.126C2830.2,-139.878 2811.6,-128.419 2794,-121.18 2729.1,-94.4802 2711.17,-82.1797 2641,-82.1797 1101,-82.1797 1101,-82.1797 1101,-82.1797 1031,-82.1797 991.309,-56.8165 946,-110.18 908.93,-153.839 910.56,-2038.37 910.95,-2292.86"/>
<polygon fill="green" stroke="green" points="907.45,-2293.12 910.966,-2303.11 914.45,-2293.11 907.45,-2293.12"/>
<text text-anchor="middle" x="1872" y="-85.9797" font-family="Times,serif" font-size="14.00">remove_fw_link</text>
</g>
<!-- q19&#45;&gt;q0 -->
<g id="edge160" class="edge"><title>q19&#45;&gt;q0</title>
<path fill="none" stroke="green" d="M2848.1,-142.999C2837.4,-126.088 2817.86,-99.1617 2794,-84.1797 2734.47,-46.8083 2711.29,-44.1797 2641,-44.1797 1101,-44.1797 1101,-44.1797 1101,-44.1797 1031,-44.1797 991.302,-18.8105 946,-72.1797 908.28,-116.617 910.477,-2035.49 910.942,-2292.77"/>
<polygon fill="green" stroke="green" points="907.443,-2293.14 910.962,-2303.13 914.443,-2293.12 907.443,-2293.14"/>
<text text-anchor="middle" x="1872" y="-47.9797" font-family="Times,serif" font-size="14.00">check_seq_prev</text>
</g>
<!-- q19&#45;&gt;q0 -->
<g id="edge161" class="edge"><title>q19&#45;&gt;q0</title>
<path fill="none" stroke="green" d="M2852.37,-140.802C2844.66,-115.345 2826.72,-68.2291 2794,-43.1797 2738.45,-0.648959 2710.96,-6.17972 2641,-6.17972 1101,-6.17972 1101,-6.17972 1101,-6.17972 1031,-6.17972 991.295,19.1954 946,-34.1797 907.61,-79.4183 910.398,-2034.61 910.935,-2293.08"/>
<polygon fill="green" stroke="green" points="907.435,-2293.16 910.957,-2303.15 914.435,-2293.15 907.435,-2293.16"/>
<text text-anchor="middle" x="1872" y="-9.97972" font-family="Times,serif" font-size="14.00">Learn_Assert</text>
</g>
<!-- q19&#45;&gt;q10 -->
<g id="edge159" class="edge"><title>q19&#45;&gt;q10</title>
<path fill="none" stroke="green" d="M2864.09,-175.254C2886.52,-251.483 2976.98,-568.686 3010,-836.18 3042.41,-1098.75 3044.83,-1960.89 3044.99,-2127.99"/>
<polygon fill="green" stroke="green" points="3041.49,-2128.19 3045,-2138.18 3048.49,-2128.18 3041.49,-2128.19"/>
<text text-anchor="middle" x="2966" y="-839.98" font-family="Times,serif" font-size="14.00">check_seq_next</text>
</g>
<!-- iq0 -->
<g id="node22" class="node"><title>iq0</title>
</g>
<!-- iq0&#45;&gt;q0 -->
<g id="edge1" class="edge"><title>iq0&#45;&gt;q0</title>
<path fill="none" stroke="blue" d="M409.12,-2192.16C499.751,-2189.11 799.212,-2183.47 874,-2238.18 891.679,-2251.11 900.489,-2274.74 904.844,-2293.49"/>
<polygon fill="blue" stroke="blue" points="901.417,-2294.19 906.833,-2303.3 908.277,-2292.8 901.417,-2294.19"/>
</g>
</g>
</svg>
