<?xml version="1.0" encoding="UTF-8" standalone="no"?>
<!DOCTYPE svg PUBLIC "-//W3C//DTD SVG 1.1//EN"
 "http://www.w3.org/Graphics/SVG/1.1/DTD/svg11.dtd">
<!-- Generated by graphviz version 2.34.0 (20141125.1709)
 -->
<!-- Title: finite_automaton Pages: 1 -->
<svg width="512pt" height="576pt"
 viewBox="0.00 0.00 511.54 576.00" xmlns="http://www.w3.org/2000/svg" xmlns:xlink="http://www.w3.org/1999/xlink">
<g id="graph0" class="graph" transform="scale(0.143289 0.143289) rotate(0) translate(4 4015.84)">
<title>finite_automaton</title>
<polygon fill="white" stroke="white" points="-4,4 -4,-4015.84 3566,-4015.84 3566,4 -4,4"/>
<!-- dom_edges -->
<g id="node1" class="node"><title>dom_edges</title>
<polygon fill="none" stroke="green" points="764,-1677.84 0,-1677.84 0,-1641.84 764,-1641.84 764,-1677.84"/>
<text text-anchor="middle" x="382" y="-1656.14" font-family="Times,serif" font-size="14.00">Dominating edges: chain_node, create_sll, init_back_link, reverse_dll, remove_fw_link, check_seq_next, check_seq_prev, Learn_Assert</text>
</g>
<!-- q1 -->
<g id="node2" class="node"><title>q1</title>
<ellipse fill="none" stroke="green" cx="382" cy="-1898.84" rx="18" ry="18"/>
<ellipse fill="none" stroke="green" cx="382" cy="-1898.84" rx="22" ry="22"/>
<text text-anchor="middle" x="382" y="-1895.14" font-family="Times,serif" font-size="14.00">D</text>
</g>
<!-- q0 -->
<g id="node3" class="node"><title>q0</title>
<ellipse fill="none" stroke="green" cx="910" cy="-1841.84" rx="18" ry="18"/>
<text text-anchor="middle" x="910" y="-1838.14" font-family="Times,serif" font-size="14.00">D</text>
</g>
<!-- q1&#45;&gt;q0 -->
<g id="edge10" class="edge"><title>q1&#45;&gt;q0</title>
<path fill="none" stroke="green" d="M400.526,-1910.82C469.324,-1956.22 724.453,-2109.33 874,-1990.84 892.657,-1976.06 902.342,-1908.99 906.475,-1870.06"/>
<polygon fill="green" stroke="green" points="909.98,-1870.19 907.497,-1859.89 903.015,-1869.49 909.98,-1870.19"/>
<text text-anchor="middle" x="828" y="-2031.64" font-family="Times,serif" font-size="14.00">chain_node</text>
</g>
<!-- q1&#45;&gt;q0 -->
<g id="edge11" class="edge"><title>q1&#45;&gt;q0</title>
<path fill="none" stroke="green" d="M403.748,-1902.76C492.258,-1919.29 835.487,-1981.08 874,-1952.84 899.636,-1934.04 906.982,-1896.43 908.835,-1870.22"/>
<polygon fill="green" stroke="green" points="912.337,-1870.28 909.322,-1860.12 905.345,-1869.94 912.337,-1870.28"/>
<text text-anchor="middle" x="828" y="-1963.64" font-family="Times,serif" font-size="14.00">create_sll</text>
</g>
<!-- q1&#45;&gt;q0 -->
<g id="edge12" class="edge"><title>q1&#45;&gt;q0</title>
<path fill="none" stroke="green" d="M403.961,-1900.89C492.588,-1909.37 833.852,-1940.11 874,-1914.84 889.709,-1904.95 898.525,-1885.84 903.379,-1869.65"/>
<polygon fill="green" stroke="green" points="906.874,-1870.12 906.029,-1859.56 900.103,-1868.34 906.874,-1870.12"/>
<text text-anchor="middle" x="828" y="-1927.64" font-family="Times,serif" font-size="14.00">init_back_link</text>
</g>
<!-- q1&#45;&gt;q0 -->
<g id="edge13" class="edge"><title>q1&#45;&gt;q0</title>
<path fill="none" stroke="green" d="M404.089,-1898.79C492.49,-1898.46 830.615,-1895.96 874,-1876.84 880.657,-1873.91 886.739,-1869.08 891.897,-1863.95"/>
<polygon fill="green" stroke="green" points="894.638,-1866.13 898.755,-1856.37 889.449,-1861.44 894.638,-1866.13"/>
<text text-anchor="middle" x="828" y="-1891.64" font-family="Times,serif" font-size="14.00">reverse_dll</text>
</g>
<!-- q1&#45;&gt;q0 -->
<g id="edge14" class="edge"><title>q1&#45;&gt;q0</title>
<path fill="none" stroke="green" d="M403.944,-1896.57C486.469,-1887.63 789.155,-1854.83 881.843,-1844.78"/>
<polygon fill="green" stroke="green" points="882.274,-1848.26 891.838,-1843.7 881.519,-1841.3 882.274,-1848.26"/>
<text text-anchor="middle" x="828" y="-1857.64" font-family="Times,serif" font-size="14.00">remove_fw_link</text>
</g>
<!-- q1&#45;&gt;q0 -->
<g id="edge15" class="edge"><title>q1&#45;&gt;q0</title>
<path fill="none" stroke="green" d="M403.587,-1893.71C462.238,-1879.38 635.423,-1839.14 782,-1825.84 822.722,-1822.14 834.047,-1817.14 874,-1825.84 877.501,-1826.6 881.071,-1827.75 884.527,-1829.08"/>
<polygon fill="green" stroke="green" points="883.254,-1832.34 893.816,-1833.18 886.08,-1825.94 883.254,-1832.34"/>
<text text-anchor="middle" x="828" y="-1829.64" font-family="Times,serif" font-size="14.00">check_seq_next</text>
</g>
<!-- q1&#45;&gt;q0 -->
<g id="edge16" class="edge"><title>q1&#45;&gt;q0</title>
<path fill="none" stroke="green" d="M403.033,-1892.16C460.914,-1873.26 633.711,-1819.61 782,-1801.84 822.599,-1796.98 836.765,-1784.94 874,-1801.84 881.799,-1805.38 888.543,-1811.61 893.973,-1818.11"/>
<polygon fill="green" stroke="green" points="891.327,-1820.42 900.127,-1826.32 896.927,-1816.22 891.327,-1820.42"/>
<text text-anchor="middle" x="828" y="-1805.64" font-family="Times,serif" font-size="14.00">check_seq_prev</text>
</g>
<!-- q1&#45;&gt;q0 -->
<g id="edge17" class="edge"><title>q1&#45;&gt;q0</title>
<path fill="none" stroke="green" d="M402.423,-1890.41C459.355,-1866.24 631.313,-1796.89 782,-1773.84 822.419,-1767.66 839.093,-1752.55 874,-1773.84 888.552,-1782.72 897.31,-1799.79 902.427,-1814.61"/>
<polygon fill="green" stroke="green" points="899.143,-1815.84 905.413,-1824.38 905.837,-1813.79 899.143,-1815.84"/>
<text text-anchor="middle" x="828" y="-1777.64" font-family="Times,serif" font-size="14.00">Learn_Assert</text>
</g>
<!-- q0&#45;&gt;q0 -->
<g id="edge2" class="edge"><title>q0&#45;&gt;q0</title>
<path fill="none" stroke="green" d="M907.881,-1859.99C907.555,-1869.38 908.261,-1877.84 910,-1877.84 911.06,-1877.84 911.736,-1874.7 912.029,-1870.12"/>
<polygon fill="green" stroke="green" points="915.53,-1870.02 912.119,-1859.99 908.53,-1869.96 915.53,-1870.02"/>
<text text-anchor="middle" x="910" y="-1881.64" font-family="Times,serif" font-size="14.00">chain_node</text>
</g>
<!-- q0&#45;&gt;q0 -->
<g id="edge4" class="edge"><title>q0&#45;&gt;q0</title>
<path fill="none" stroke="green" d="M906.509,-1859.54C904.581,-1876.84 905.744,-1895.84 910,-1895.84 913.424,-1895.84 914.847,-1883.53 914.267,-1869.71"/>
<polygon fill="green" stroke="green" points="917.741,-1869.24 913.491,-1859.54 910.762,-1869.78 917.741,-1869.24"/>
<text text-anchor="middle" x="910" y="-1899.64" font-family="Times,serif" font-size="14.00">init_back_link</text>
</g>
<!-- q0&#45;&gt;q0 -->
<g id="edge5" class="edge"><title>q0&#45;&gt;q0</title>
<path fill="none" stroke="green" d="M905.613,-1859.55C901.605,-1883.95 903.068,-1913.84 910,-1913.84 916.012,-1913.84 917.91,-1891.36 915.694,-1869.48"/>
<polygon fill="green" stroke="green" points="919.163,-1869.01 914.387,-1859.55 912.222,-1869.93 919.163,-1869.01"/>
<text text-anchor="middle" x="910" y="-1917.64" font-family="Times,serif" font-size="14.00">reverse_dll</text>
</g>
<!-- q0&#45;&gt;q0 -->
<g id="edge6" class="edge"><title>q0&#45;&gt;q0</title>
<path fill="none" stroke="green" d="M904.998,-1859.51C898.632,-1890.69 900.299,-1931.84 910,-1931.84 918.678,-1931.84 920.927,-1898.91 916.748,-1869.65"/>
<polygon fill="green" stroke="green" points="920.149,-1868.77 915.002,-1859.51 913.25,-1869.96 920.149,-1868.77"/>
<text text-anchor="middle" x="910" y="-1935.64" font-family="Times,serif" font-size="14.00">remove_fw_link</text>
</g>
<!-- q0&#45;&gt;q0 -->
<g id="edge7" class="edge"><title>q0&#45;&gt;q0</title>
<path fill="none" stroke="green" d="M904.63,-1859.12C895.655,-1896.91 897.445,-1949.84 910,-1949.84 921.476,-1949.84 923.958,-1905.61 917.446,-1869.15"/>
<polygon fill="green" stroke="green" points="920.823,-1868.2 915.37,-1859.12 913.968,-1869.62 920.823,-1868.2"/>
<text text-anchor="middle" x="910" y="-1953.64" font-family="Times,serif" font-size="14.00">check_seq_next</text>
</g>
<!-- q0&#45;&gt;q0 -->
<g id="edge8" class="edge"><title>q0&#45;&gt;q0</title>
<path fill="none" stroke="green" d="M904.312,-1859.02C892.695,-1903.24 894.591,-1967.84 910,-1967.84 924.296,-1967.84 926.961,-1912.24 917.995,-1868.89"/>
<polygon fill="green" stroke="green" points="921.371,-1867.96 915.688,-1859.02 914.555,-1869.55 921.371,-1867.96"/>
<text text-anchor="middle" x="910" y="-1971.64" font-family="Times,serif" font-size="14.00">check_seq_prev</text>
</g>
<!-- q0&#45;&gt;q0 -->
<g id="edge9" class="edge"><title>q0&#45;&gt;q0</title>
<path fill="none" stroke="green" d="M904.009,-1859.12C889.745,-1909.69 891.742,-1985.84 910,-1985.84 927.117,-1985.84 929.942,-1918.91 918.475,-1868.88"/>
<polygon fill="green" stroke="green" points="921.85,-1867.95 915.991,-1859.12 915.066,-1869.68 921.85,-1867.95"/>
<text text-anchor="middle" x="910" y="-1989.64" font-family="Times,serif" font-size="14.00">Learn_Assert</text>
</g>
<!-- q14 -->
<g id="node16" class="node"><title>q14</title>
<ellipse fill="none" stroke="green" cx="1102" cy="-366.839" rx="18" ry="18"/>
<text text-anchor="middle" x="1102" y="-363.139" font-family="Times,serif" font-size="14.00">D</text>
</g>
<!-- q0&#45;&gt;q14 -->
<g id="edge3" class="edge"><title>q0&#45;&gt;q14</title>
<path fill="none" stroke="green" d="M911.178,-1823.56C912.746,-1666.35 924.644,-547.457 946,-520.839 972.376,-487.965 1009.18,-528.596 1038,-497.839 1068.58,-465.204 1032.01,-436.58 1056,-398.839 1061.03,-390.931 1068.78,-384.397 1076.44,-379.34"/>
<polygon fill="green" stroke="green" points="1078.43,-382.225 1085.22,-374.089 1074.84,-376.217 1078.43,-382.225"/>
<text text-anchor="middle" x="992" y="-524.639" font-family="Times,serif" font-size="14.00">create_sll</text>
</g>
<!-- q2 -->
<g id="node4" class="node"><title>q2</title>
<ellipse fill="none" stroke="green" cx="3544" cy="-3800.84" rx="18" ry="18"/>
<text text-anchor="middle" x="3544" y="-3797.14" font-family="Times,serif" font-size="14.00">D</text>
</g>
<!-- q2&#45;&gt;q1 -->
<g id="edge25" class="edge"><title>q2&#45;&gt;q1</title>
<path fill="none" stroke="green" d="M3543.8,-3819.18C3544.13,-3849.78 3540.39,-3911.57 3508,-3948.84 3469.51,-3993.13 3443.68,-3996.84 3385,-3996.84 909,-3996.84 909,-3996.84 909,-3996.84 463.624,-3996.84 392.001,-2195.49 383.887,-1931.08"/>
<polygon fill="green" stroke="green" points="387.382,-1930.87 383.585,-1920.98 380.385,-1931.08 387.382,-1930.87"/>
<text text-anchor="middle" x="2308" y="-4000.64" font-family="Times,serif" font-size="14.00">Learn_Assert</text>
</g>
<!-- q2&#45;&gt;q0 -->
<g id="edge18" class="edge"><title>q2&#45;&gt;q0</title>
<path fill="none" stroke="green" d="M3542.61,-3819.21C3541.06,-3844.63 3534.49,-3890.37 3508,-3916.84 3467.62,-3957.19 3442.09,-3953.84 3385,-3953.84 1101,-3953.84 1101,-3953.84 1101,-3953.84 1030.18,-3953.84 990.35,-3972.06 946,-3916.84 912.427,-3875.04 911.028,-2116.16 910.997,-1870.27"/>
<polygon fill="green" stroke="green" points="914.497,-1870.02 910.996,-1860.02 907.497,-1870.02 914.497,-1870.02"/>
<text text-anchor="middle" x="2418" y="-3957.64" font-family="Times,serif" font-size="14.00">chain_node</text>
</g>
<!-- q2&#45;&gt;q0 -->
<g id="edge19" class="edge"><title>q2&#45;&gt;q0</title>
<path fill="none" stroke="green" d="M3537.94,-3817.92C3532.73,-3832.64 3523.19,-3853.44 3508,-3865.84 3463.77,-3901.94 3442.09,-3902.84 3385,-3902.84 1101,-3902.84 1101,-3902.84 1101,-3902.84 1030.18,-3902.84 990.362,-3921.05 946,-3865.84 913.26,-3825.09 911.145,-2111.19 911.009,-1869.95"/>
<polygon fill="green" stroke="green" points="914.509,-1869.88 911.004,-1859.88 907.509,-1869.88 914.509,-1869.88"/>
<text text-anchor="middle" x="2418" y="-3906.64" font-family="Times,serif" font-size="14.00">create_sll</text>
</g>
<!-- q2&#45;&gt;q0 -->
<g id="edge20" class="edge"><title>q2&#45;&gt;q0</title>
<path fill="none" stroke="green" d="M3527.83,-3809.26C3500.27,-3823.75 3439.77,-3851.84 3385,-3851.84 1101,-3851.84 1101,-3851.84 1101,-3851.84 1030.18,-3851.84 990.374,-3870.04 946,-3814.84 914.125,-3775.19 911.268,-2109.52 911.022,-1870.33"/>
<polygon fill="green" stroke="green" points="914.522,-1870.02 911.013,-1860.03 907.522,-1870.03 914.522,-1870.02"/>
<text text-anchor="middle" x="2418" y="-3855.64" font-family="Times,serif" font-size="14.00">init_back_link</text>
</g>
<!-- q2&#45;&gt;q0 -->
<g id="edge21" class="edge"><title>q2&#45;&gt;q0</title>
<path fill="none" stroke="green" d="M3525.93,-3800.84C3496.96,-3800.84 3436.3,-3800.84 3385,-3800.84 1101,-3800.84 1101,-3800.84 1101,-3800.84 1030.18,-3800.84 990.387,-3819.03 946,-3763.84 914.955,-3725.24 911.389,-2104.28 911.036,-1869.95"/>
<polygon fill="green" stroke="green" points="914.536,-1869.85 911.021,-1859.86 907.536,-1869.86 914.536,-1869.85"/>
<text text-anchor="middle" x="2418" y="-3804.64" font-family="Times,serif" font-size="14.00">reverse_dll</text>
</g>
<!-- q2&#45;&gt;q0 -->
<g id="edge22" class="edge"><title>q2&#45;&gt;q0</title>
<path fill="none" stroke="green" d="M3527.83,-3792.42C3500.27,-3777.93 3439.77,-3749.84 3385,-3749.84 1101,-3749.84 1101,-3749.84 1101,-3749.84 1030.18,-3749.84 990.401,-3768.02 946,-3712.84 915.816,-3675.33 911.52,-2102.15 911.051,-1870.27"/>
<polygon fill="green" stroke="green" points="914.55,-1869.96 911.03,-1859.96 907.55,-1869.97 914.55,-1869.96"/>
<text text-anchor="middle" x="2418" y="-3753.64" font-family="Times,serif" font-size="14.00">remove_fw_link</text>
</g>
<!-- q2&#45;&gt;q0 -->
<g id="edge23" class="edge"><title>q2&#45;&gt;q0</title>
<path fill="none" stroke="green" d="M3535.49,-3784.88C3529.45,-3773.52 3519.99,-3758.58 3508,-3748.84 3462.2,-3711.63 3444.01,-3698.84 3385,-3698.84 1101,-3698.84 1101,-3698.84 1101,-3698.84 1030.18,-3698.84 990.415,-3717.01 946,-3661.84 916.659,-3625.4 911.65,-2098.23 911.066,-1870.2"/>
<polygon fill="green" stroke="green" points="914.565,-1870.04 911.04,-1860.05 907.565,-1870.06 914.565,-1870.04"/>
<text text-anchor="middle" x="2418" y="-3702.64" font-family="Times,serif" font-size="14.00">check_seq_next</text>
</g>
<!-- q2&#45;&gt;q0 -->
<g id="edge24" class="edge"><title>q2&#45;&gt;q0</title>
<path fill="none" stroke="green" d="M3541.49,-3782.68C3538.68,-3759.85 3530.66,-3720.77 3508,-3696.84 3467.54,-3654.11 3443.84,-3647.84 3385,-3647.84 1101,-3647.84 1101,-3647.84 1101,-3647.84 1029.74,-3647.84 990.027,-3662.87 946,-3606.84 918.009,-3571.22 911.864,-2094.97 911.091,-1870.36"/>
<polygon fill="green" stroke="green" points="914.59,-1870.06 911.056,-1860.07 907.59,-1870.08 914.59,-1870.06"/>
<text text-anchor="middle" x="2418" y="-3651.64" font-family="Times,serif" font-size="14.00">check_seq_prev</text>
</g>
<!-- q3 -->
<g id="node5" class="node"><title>q3</title>
<ellipse fill="none" stroke="green" cx="3384" cy="-3487.84" rx="18" ry="18"/>
<text text-anchor="middle" x="3384" y="-3484.14" font-family="Times,serif" font-size="14.00">D</text>
</g>
<!-- q3&#45;&gt;q0 -->
<g id="edge26" class="edge"><title>q3&#45;&gt;q0</title>
<path fill="none" stroke="green" d="M3381.17,-3505.68C3378.06,-3526.31 3369.79,-3559.73 3348,-3577.84 3303.82,-3614.55 3278.44,-3601.84 3221,-3601.84 1101,-3601.84 1101,-3601.84 1101,-3601.84 1031.29,-3601.84 991.896,-3630.31 946,-3577.84 916.678,-3544.32 911.665,-2092.55 911.069,-1870.26"/>
<polygon fill="green" stroke="green" points="914.568,-1870.06 911.042,-1860.07 907.568,-1870.08 914.568,-1870.06"/>
<text text-anchor="middle" x="2308" y="-3605.64" font-family="Times,serif" font-size="14.00">chain_node</text>
</g>
<!-- q3&#45;&gt;q0 -->
<g id="edge27" class="edge"><title>q3&#45;&gt;q0</title>
<path fill="none" stroke="green" d="M3376.04,-3504.53C3370.26,-3516.27 3360.9,-3531.34 3348,-3539.84 3300.03,-3571.44 3278.44,-3563.84 3221,-3563.84 1101,-3563.84 1101,-3563.84 1101,-3563.84 1031.29,-3563.84 991.908,-3592.3 946,-3539.84 917.327,-3507.07 911.768,-2088.54 911.081,-1869.98"/>
<polygon fill="green" stroke="green" points="914.581,-1869.94 911.05,-1859.95 907.581,-1869.96 914.581,-1869.94"/>
<text text-anchor="middle" x="2308" y="-3567.64" font-family="Times,serif" font-size="14.00">create_sll</text>
</g>
<!-- q3&#45;&gt;q0 -->
<g id="edge28" class="edge"><title>q3&#45;&gt;q0</title>
<path fill="none" stroke="green" d="M3367.2,-3494.91C3361.27,-3497.37 3354.41,-3499.97 3348,-3501.84 3292.85,-3517.91 3278.44,-3525.84 3221,-3525.84 1101,-3525.84 1101,-3525.84 1101,-3525.84 1031.29,-3525.84 991.92,-3554.29 946,-3501.84 917.99,-3469.85 911.878,-2085.83 911.094,-1870.01"/>
<polygon fill="green" stroke="green" points="914.594,-1869.81 911.058,-1859.82 907.594,-1869.83 914.594,-1869.81"/>
<text text-anchor="middle" x="2308" y="-3529.64" font-family="Times,serif" font-size="14.00">init_back_link</text>
</g>
<!-- q3&#45;&gt;q0 -->
<g id="edge29" class="edge"><title>q3&#45;&gt;q0</title>
<path fill="none" stroke="green" d="M3365.97,-3487.84C3336.46,-3487.84 3273.88,-3487.84 3221,-3487.84 1101,-3487.84 1101,-3487.84 1101,-3487.84 1031.29,-3487.84 991.933,-3516.28 946,-3463.84 918.651,-3432.62 911.99,-2083.06 911.109,-1870.03"/>
<polygon fill="green" stroke="green" points="914.609,-1869.94 911.068,-1859.96 907.609,-1869.97 914.609,-1869.94"/>
<text text-anchor="middle" x="2308" y="-3491.64" font-family="Times,serif" font-size="14.00">reverse_dll</text>
</g>
<!-- q3&#45;&gt;q0 -->
<g id="edge30" class="edge"><title>q3&#45;&gt;q0</title>
<path fill="none" stroke="green" d="M3366.74,-3481.39C3337.88,-3470.55 3275.6,-3449.84 3221,-3449.84 1101,-3449.84 1101,-3449.84 1101,-3449.84 1031.29,-3449.84 991.946,-3478.26 946,-3425.84 919.325,-3395.4 912.113,-2081.47 911.125,-1870.33"/>
<polygon fill="green" stroke="green" points="914.624,-1870.06 911.078,-1860.07 907.624,-1870.09 914.624,-1870.06"/>
<text text-anchor="middle" x="2308" y="-3453.64" font-family="Times,serif" font-size="14.00">remove_fw_link</text>
</g>
<!-- q3&#45;&gt;q0 -->
<g id="edge31" class="edge"><title>q3&#45;&gt;q0</title>
<path fill="none" stroke="green" d="M3373.28,-3472.97C3367,-3464.47 3358.14,-3454.25 3348,-3447.84 3298.42,-3416.47 3279.67,-3411.84 3221,-3411.84 1101,-3411.84 1101,-3411.84 1101,-3411.84 1031.29,-3411.84 991.961,-3440.25 946,-3387.84 919.97,-3358.16 912.222,-2077.06 911.139,-1869.97"/>
<polygon fill="green" stroke="green" points="914.639,-1869.88 911.087,-1859.9 907.639,-1869.92 914.639,-1869.88"/>
<text text-anchor="middle" x="2308" y="-3415.64" font-family="Times,serif" font-size="14.00">check_seq_next</text>
</g>
<!-- q3&#45;&gt;q0 -->
<g id="edge33" class="edge"><title>q3&#45;&gt;q0</title>
<path fill="none" stroke="green" d="M3379.75,-3470.12C3375.53,-3452.13 3366.41,-3424.7 3348,-3408.84 3303.65,-3370.62 3279.55,-3373.84 3221,-3373.84 1101,-3373.84 1101,-3373.84 1101,-3373.84 1029.01,-3373.84 989.564,-3384.15 946,-3326.84 923.097,-3296.71 912.763,-2072.57 911.209,-1870.07"/>
<polygon fill="green" stroke="green" points="914.708,-1869.92 911.132,-1859.95 907.708,-1869.97 914.708,-1869.92"/>
<text text-anchor="middle" x="2308" y="-3377.64" font-family="Times,serif" font-size="14.00">Learn_Assert</text>
</g>
<!-- q3&#45;&gt;q2 -->
<g id="edge32" class="edge"><title>q3&#45;&gt;q2</title>
<path fill="none" stroke="green" d="M3399.11,-3498.3C3425.2,-3518.48 3480.77,-3565.49 3508,-3618.84 3533.56,-3668.92 3540.54,-3735.43 3542.39,-3772.61"/>
<polygon fill="green" stroke="green" points="3538.89,-3772.87 3542.8,-3782.72 3545.89,-3772.58 3538.89,-3772.87"/>
<text text-anchor="middle" x="3464" y="-3622.64" font-family="Times,serif" font-size="14.00">check_seq_prev</text>
</g>
<!-- q4 -->
<g id="node6" class="node"><title>q4</title>
<ellipse fill="none" stroke="green" cx="3220" cy="-3177.84" rx="18" ry="18"/>
<text text-anchor="middle" x="3220" y="-3174.14" font-family="Times,serif" font-size="14.00">D</text>
</g>
<!-- q4&#45;&gt;q0 -->
<g id="edge34" class="edge"><title>q4&#45;&gt;q0</title>
<path fill="none" stroke="green" d="M3218.61,-3196.21C3217.06,-3221.63 3210.49,-3267.37 3184,-3293.84 3143.62,-3334.19 3118.09,-3330.84 3061,-3330.84 1101,-3330.84 1101,-3330.84 1101,-3330.84 1030.18,-3330.84 990.55,-3348.9 946,-3293.84 922.747,-3265.1 912.722,-2070 911.206,-1870.07"/>
<polygon fill="green" stroke="green" points="914.704,-1869.78 911.129,-1859.81 907.704,-1869.84 914.704,-1869.78"/>
<text text-anchor="middle" x="2200" y="-3334.64" font-family="Times,serif" font-size="14.00">chain_node</text>
</g>
<!-- q4&#45;&gt;q0 -->
<g id="edge35" class="edge"><title>q4&#45;&gt;q0</title>
<path fill="none" stroke="green" d="M3213.94,-3194.92C3208.73,-3209.64 3199.19,-3230.44 3184,-3242.84 3139.77,-3278.94 3118.09,-3279.84 3061,-3279.84 1101,-3279.84 1101,-3279.84 1101,-3279.84 1030.18,-3279.84 990.574,-3297.88 946,-3242.84 923.587,-3215.16 912.89,-2065.6 911.231,-1869.99"/>
<polygon fill="green" stroke="green" points="914.73,-1869.9 911.146,-1859.93 907.73,-1869.96 914.73,-1869.9"/>
<text text-anchor="middle" x="2200" y="-3283.64" font-family="Times,serif" font-size="14.00">create_sll</text>
</g>
<!-- q4&#45;&gt;q0 -->
<g id="edge36" class="edge"><title>q4&#45;&gt;q0</title>
<path fill="none" stroke="green" d="M3203.83,-3186.26C3176.27,-3200.75 3115.77,-3228.84 3061,-3228.84 1101,-3228.84 1101,-3228.84 1101,-3228.84 1030.18,-3228.84 990.6,-3246.86 946,-3191.84 924.434,-3165.24 913.074,-2062.03 911.259,-1870.15"/>
<polygon fill="green" stroke="green" points="914.758,-1869.99 911.164,-1860.02 907.758,-1870.05 914.758,-1869.99"/>
<text text-anchor="middle" x="2200" y="-3232.64" font-family="Times,serif" font-size="14.00">init_back_link</text>
</g>
<!-- q4&#45;&gt;q0 -->
<g id="edge37" class="edge"><title>q4&#45;&gt;q0</title>
<path fill="none" stroke="green" d="M3201.93,-3177.84C3172.96,-3177.84 3112.3,-3177.84 3061,-3177.84 1101,-3177.84 1101,-3177.84 1101,-3177.84 1030.18,-3177.84 990.628,-3195.83 946,-3140.84 925.267,-3115.29 913.251,-2057 911.287,-1869.94"/>
<polygon fill="green" stroke="green" points="914.785,-1869.78 911.181,-1859.82 907.786,-1869.85 914.785,-1869.78"/>
<text text-anchor="middle" x="2200" y="-3181.64" font-family="Times,serif" font-size="14.00">reverse_dll</text>
</g>
<!-- q4&#45;&gt;q0 -->
<g id="edge39" class="edge"><title>q4&#45;&gt;q0</title>
<path fill="none" stroke="green" d="M3203.83,-3169.42C3176.27,-3154.93 3115.77,-3126.84 3061,-3126.84 1101,-3126.84 1101,-3126.84 1101,-3126.84 1030.18,-3126.84 990.658,-3144.81 946,-3089.84 906.28,-3040.95 909.838,-2051.47 910.827,-1870.22"/>
<polygon fill="green" stroke="green" points="914.327,-1870.16 910.883,-1860.14 907.327,-1870.12 914.327,-1870.16"/>
<text text-anchor="middle" x="2200" y="-3130.64" font-family="Times,serif" font-size="14.00">check_seq_next</text>
</g>
<!-- q4&#45;&gt;q0 -->
<g id="edge40" class="edge"><title>q4&#45;&gt;q0</title>
<path fill="none" stroke="green" d="M3211.49,-3161.88C3205.45,-3150.52 3195.99,-3135.58 3184,-3125.84 3138.2,-3088.63 3120.01,-3075.84 3061,-3075.84 1101,-3075.84 1101,-3075.84 1101,-3075.84 1030.18,-3075.84 990.691,-3093.78 946,-3038.84 907.933,-2992.04 910.124,-2045.85 910.863,-1869.88"/>
<polygon fill="green" stroke="green" points="914.363,-1869.87 910.908,-1859.85 907.363,-1869.84 914.363,-1869.87"/>
<text text-anchor="middle" x="2200" y="-3079.64" font-family="Times,serif" font-size="14.00">check_seq_prev</text>
</g>
<!-- q4&#45;&gt;q0 -->
<g id="edge41" class="edge"><title>q4&#45;&gt;q0</title>
<path fill="none" stroke="green" d="M3217.49,-3159.68C3214.68,-3136.85 3206.66,-3097.77 3184,-3073.84 3143.54,-3031.11 3119.84,-3024.84 3061,-3024.84 1101,-3024.84 1101,-3024.84 1101,-3024.84 1029.74,-3024.84 990.33,-3039.63 946,-2983.84 910.304,-2938.91 910.544,-2041.99 910.919,-1870.16"/>
<polygon fill="green" stroke="green" points="914.419,-1869.92 910.943,-1859.91 907.419,-1869.9 914.419,-1869.92"/>
<text text-anchor="middle" x="2200" y="-3028.64" font-family="Times,serif" font-size="14.00">Learn_Assert</text>
</g>
<!-- q4&#45;&gt;q3 -->
<g id="edge38" class="edge"><title>q4&#45;&gt;q3</title>
<path fill="none" stroke="green" d="M3233.59,-3190.44C3259.15,-3216.74 3317.26,-3280.4 3348,-3344.84 3365.94,-3382.44 3375.22,-3430.12 3379.6,-3459.81"/>
<polygon fill="green" stroke="green" points="3376.16,-3460.46 3381,-3469.89 3383.09,-3459.5 3376.16,-3460.46"/>
<text text-anchor="middle" x="3302" y="-3348.64" font-family="Times,serif" font-size="14.00">remove_fw_link</text>
</g>
<!-- q5 -->
<g id="node7" class="node"><title>q5</title>
<ellipse fill="none" stroke="green" cx="3060" cy="-2864.84" rx="18" ry="18"/>
<text text-anchor="middle" x="3060" y="-2861.14" font-family="Times,serif" font-size="14.00">D</text>
</g>
<!-- q5&#45;&gt;q0 -->
<g id="edge42" class="edge"><title>q5&#45;&gt;q0</title>
<path fill="none" stroke="green" d="M3057.15,-2882.66C3054.03,-2903.27 3045.74,-2936.67 3024,-2954.84 2981.27,-2990.56 2956.7,-2978.84 2901,-2978.84 1101,-2978.84 1101,-2978.84 1101,-2978.84 1031.29,-2978.84 992.191,-3007.05 946,-2954.84 908.983,-2913 910.28,-2039.12 910.879,-1870.03"/>
<polygon fill="green" stroke="green" points="914.38,-1869.94 910.917,-1859.93 907.38,-1869.91 914.38,-1869.94"/>
<text text-anchor="middle" x="2092" y="-2982.64" font-family="Times,serif" font-size="14.00">chain_node</text>
</g>
<!-- q5&#45;&gt;q0 -->
<g id="edge43" class="edge"><title>q5&#45;&gt;q0</title>
<path fill="none" stroke="green" d="M3052.02,-2881.51C3046.24,-2893.23 3036.88,-2908.3 3024,-2916.84 2977.58,-2947.62 2956.7,-2940.84 2901,-2940.84 1101,-2940.84 1101,-2940.84 1101,-2940.84 1031.29,-2940.84 992.22,-2969.02 946,-2916.84 910.335,-2876.57 910.519,-2037.64 910.911,-1870.61"/>
<polygon fill="green" stroke="green" points="914.412,-1870.19 910.937,-1860.18 907.412,-1870.17 914.412,-1870.19"/>
<text text-anchor="middle" x="2092" y="-2944.64" font-family="Times,serif" font-size="14.00">create_sll</text>
</g>
<!-- q5&#45;&gt;q0 -->
<g id="edge44" class="edge"><title>q5&#45;&gt;q0</title>
<path fill="none" stroke="green" d="M3043.19,-2871.89C3037.26,-2874.35 3030.4,-2876.95 3024,-2878.84 2970.57,-2894.58 2956.7,-2902.84 2901,-2902.84 1101,-2902.84 1101,-2902.84 1101,-2902.84 1031.29,-2902.84 992.251,-2931 946,-2878.84 911.607,-2840.06 910.767,-2032.44 910.947,-1870.11"/>
<polygon fill="green" stroke="green" points="914.447,-1869.97 910.961,-1859.96 907.447,-1869.96 914.447,-1869.97"/>
<text text-anchor="middle" x="2092" y="-2906.64" font-family="Times,serif" font-size="14.00">init_back_link</text>
</g>
<!-- q5&#45;&gt;q0 -->
<g id="edge45" class="edge"><title>q5&#45;&gt;q0</title>
<path fill="none" stroke="green" d="M3041.93,-2864.84C3012.96,-2864.84 2952.3,-2864.84 2901,-2864.84 1101,-2864.84 1101,-2864.84 1101,-2864.84 1031.29,-2864.84 992.284,-2892.97 946,-2840.84 912.946,-2803.61 911.028,-2030.3 910.985,-1870.56"/>
<polygon fill="green" stroke="green" points="914.485,-1870.13 910.985,-1860.13 907.485,-1870.13 914.485,-1870.13"/>
<text text-anchor="middle" x="2092" y="-2868.64" font-family="Times,serif" font-size="14.00">reverse_dll</text>
</g>
<!-- q5&#45;&gt;q0 -->
<g id="edge46" class="edge"><title>q5&#45;&gt;q0</title>
<path fill="none" stroke="green" d="M3043.15,-2858.39C3015.03,-2847.55 2954.32,-2826.84 2901,-2826.84 1101,-2826.84 1101,-2826.84 1101,-2826.84 1031.29,-2826.84 992.32,-2854.93 946,-2802.84 914.211,-2767.09 911.289,-2024.72 911.025,-1869.96"/>
<polygon fill="green" stroke="green" points="914.525,-1869.84 911.011,-1859.85 907.525,-1869.85 914.525,-1869.84"/>
<text text-anchor="middle" x="2092" y="-2830.64" font-family="Times,serif" font-size="14.00">remove_fw_link</text>
</g>
<!-- q5&#45;&gt;q0 -->
<g id="edge48" class="edge"><title>q5&#45;&gt;q0</title>
<path fill="none" stroke="green" d="M3049.26,-2850C3042.98,-2841.51 3034.11,-2831.3 3024,-2824.84 2975.99,-2794.18 2957.96,-2788.84 2901,-2788.84 1101,-2788.84 1101,-2788.84 1101,-2788.84 1031.29,-2788.84 992.359,-2816.9 946,-2764.84 915.536,-2730.63 911.57,-2021.95 911.07,-1870.26"/>
<polygon fill="green" stroke="green" points="914.569,-1869.92 911.039,-1859.94 907.569,-1869.95 914.569,-1869.92"/>
<text text-anchor="middle" x="2092" y="-2792.64" font-family="Times,serif" font-size="14.00">check_seq_prev</text>
</g>
<!-- q5&#45;&gt;q0 -->
<g id="edge49" class="edge"><title>q5&#45;&gt;q0</title>
<path fill="none" stroke="green" d="M3055.73,-2847.16C3051.49,-2829.18 3042.34,-2801.78 3024,-2785.84 2981.1,-2748.56 2957.84,-2750.84 2901,-2750.84 1101,-2750.84 1101,-2750.84 1101,-2750.84 1029.01,-2750.84 990.05,-2760.77 946,-2703.84 919.929,-2670.14 912.551,-2015.17 911.234,-1870.12"/>
<polygon fill="green" stroke="green" points="914.732,-1869.81 911.144,-1859.84 907.732,-1869.87 914.732,-1869.81"/>
<text text-anchor="middle" x="2092" y="-2754.64" font-family="Times,serif" font-size="14.00">Learn_Assert</text>
</g>
<!-- q5&#45;&gt;q4 -->
<g id="edge47" class="edge"><title>q5&#45;&gt;q4</title>
<path fill="none" stroke="green" d="M3075.11,-2875.3C3101.2,-2895.48 3156.77,-2942.49 3184,-2995.84 3209.56,-3045.92 3216.54,-3112.43 3218.39,-3149.61"/>
<polygon fill="green" stroke="green" points="3214.89,-3149.87 3218.8,-3159.72 3221.89,-3149.58 3214.89,-3149.87"/>
<text text-anchor="middle" x="3140" y="-2999.64" font-family="Times,serif" font-size="14.00">check_seq_next</text>
</g>
<!-- q6 -->
<g id="node8" class="node"><title>q6</title>
<ellipse fill="none" stroke="green" cx="2900" cy="-2554.84" rx="18" ry="18"/>
<text text-anchor="middle" x="2900" y="-2551.14" font-family="Times,serif" font-size="14.00">D</text>
</g>
<!-- q6&#45;&gt;q0 -->
<g id="edge50" class="edge"><title>q6&#45;&gt;q0</title>
<path fill="none" stroke="green" d="M2898.34,-2572.95C2896.47,-2598.06 2889.52,-2643.44 2864,-2670.84 2832.56,-2704.61 2813.14,-2707.84 2767,-2707.84 1101,-2707.84 1101,-2707.84 1101,-2707.84 1030.18,-2707.84 991.046,-2725.49 946,-2670.84 919.993,-2639.29 912.585,-2011.41 911.243,-1869.97"/>
<polygon fill="green" stroke="green" points="914.743,-1869.89 911.151,-1859.93 907.743,-1869.96 914.743,-1869.89"/>
<text text-anchor="middle" x="1982" y="-2711.64" font-family="Times,serif" font-size="14.00">chain_node</text>
</g>
<!-- q6&#45;&gt;q0 -->
<g id="edge51" class="edge"><title>q6&#45;&gt;q0</title>
<path fill="none" stroke="green" d="M2893.61,-2571.94C2888.23,-2586.48 2878.64,-2606.98 2864,-2619.84 2829.33,-2650.29 2813.14,-2656.84 2767,-2656.84 1101,-2656.84 1101,-2656.84 1101,-2656.84 1030.18,-2656.84 991.121,-2674.43 946,-2619.84 921.652,-2590.38 913.01,-2005.95 911.324,-1869.95"/>
<polygon fill="green" stroke="green" points="914.823,-1869.86 911.202,-1859.9 907.824,-1869.95 914.823,-1869.86"/>
<text text-anchor="middle" x="1982" y="-2660.64" font-family="Times,serif" font-size="14.00">create_sll</text>
</g>
<!-- q6&#45;&gt;q0 -->
<g id="edge52" class="edge"><title>q6&#45;&gt;q0</title>
<path fill="none" stroke="green" d="M2884.66,-2564.43C2861.15,-2579.21 2812.45,-2605.84 2767,-2605.84 1101,-2605.84 1101,-2605.84 1101,-2605.84 1030.18,-2605.84 991.207,-2623.36 946,-2568.84 923.323,-2541.49 913.476,-2000.98 911.419,-1870.16"/>
<polygon fill="green" stroke="green" points="914.919,-1870.07 911.264,-1860.12 907.919,-1870.18 914.919,-1870.07"/>
<text text-anchor="middle" x="1982" y="-2609.64" font-family="Times,serif" font-size="14.00">init_back_link</text>
</g>
<!-- q6&#45;&gt;q0 -->
<g id="edge53" class="edge"><title>q6&#45;&gt;q0</title>
<path fill="none" stroke="green" d="M2881.91,-2554.84C2856.75,-2554.84 2808.25,-2554.84 2767,-2554.84 1101,-2554.84 1101,-2554.84 1101,-2554.84 1030.18,-2554.84 991.306,-2572.28 946,-2517.84 924.975,-2492.58 913.966,-1995.08 911.525,-1870.12"/>
<polygon fill="green" stroke="green" points="915.02,-1869.78 911.328,-1859.85 908.021,-1869.92 915.02,-1869.78"/>
<text text-anchor="middle" x="1982" y="-2558.64" font-family="Times,serif" font-size="14.00">reverse_dll</text>
</g>
<!-- q6&#45;&gt;q0 -->
<g id="edge54" class="edge"><title>q6&#45;&gt;q0</title>
<path fill="none" stroke="green" d="M2884.66,-2545.25C2861.15,-2530.47 2812.45,-2503.84 2767,-2503.84 1101,-2503.84 1101,-2503.84 1101,-2503.84 1030.18,-2503.84 991.421,-2521.18 946,-2466.84 907.388,-2420.64 909.397,-1986.1 910.635,-1870.16"/>
<polygon fill="green" stroke="green" points="914.137,-1869.99 910.75,-1859.96 907.137,-1869.92 914.137,-1869.99"/>
<text text-anchor="middle" x="1982" y="-2507.64" font-family="Times,serif" font-size="14.00">remove_fw_link</text>
</g>
<!-- q6&#45;&gt;q0 -->
<g id="edge55" class="edge"><title>q6&#45;&gt;q0</title>
<path fill="none" stroke="green" d="M2890.52,-2538.95C2884.25,-2528.32 2874.93,-2514.55 2864,-2504.84 2827.42,-2472.36 2815.92,-2452.84 2767,-2452.84 1101,-2452.84 1101,-2452.84 1101,-2452.84 1031.07,-2452.84 992.585,-2477.99 946,-2425.84 908.714,-2384.1 909.688,-1981.32 910.679,-1870.14"/>
<polygon fill="green" stroke="green" points="914.18,-1870.06 910.777,-1860.03 907.181,-1869.99 914.18,-1870.06"/>
<text text-anchor="middle" x="1982" y="-2456.64" font-family="Times,serif" font-size="14.00">check_seq_next</text>
</g>
<!-- q6&#45;&gt;q0 -->
<g id="edge57" class="edge"><title>q6&#45;&gt;q0</title>
<path fill="none" stroke="green" d="M2896.8,-2536.81C2893.29,-2514.94 2884.59,-2477.98 2864,-2453.84 2832.26,-2416.62 2815.92,-2401.84 2767,-2401.84 2091,-2401.84 2091,-2401.84 2091,-2401.84 1896.28,-2401.84 1847.72,-2411.84 1653,-2411.84 1101,-2411.84 1101,-2411.84 1101,-2411.84 1030.57,-2411.84 992.073,-2432.11 946,-2378.84 912.576,-2340.19 910.718,-1975.47 910.885,-1870.17"/>
<polygon fill="green" stroke="green" points="914.385,-1870 910.909,-1859.99 907.385,-1869.99 914.385,-1870"/>
<text text-anchor="middle" x="1982" y="-2407.64" font-family="Times,serif" font-size="14.00">Learn_Assert</text>
</g>
<!-- q6&#45;&gt;q5 -->
<g id="edge56" class="edge"><title>q6&#45;&gt;q5</title>
<path fill="none" stroke="green" d="M2913.18,-2567.52C2937.89,-2593.98 2994.1,-2657.91 3024,-2721.84 3041.65,-2759.57 3051.01,-2807.22 3055.48,-2836.87"/>
<polygon fill="green" stroke="green" points="3052.04,-2837.52 3056.92,-2846.92 3058.97,-2836.53 3052.04,-2837.52"/>
<text text-anchor="middle" x="2980" y="-2725.64" font-family="Times,serif" font-size="14.00">check_seq_prev</text>
</g>
<!-- q7 -->
<g id="node9" class="node"><title>q7</title>
<ellipse fill="none" stroke="green" cx="2766" cy="-2241.84" rx="18" ry="18"/>
<text text-anchor="middle" x="2766" y="-2238.14" font-family="Times,serif" font-size="14.00">D</text>
</g>
<!-- q7&#45;&gt;q0 -->
<g id="edge58" class="edge"><title>q7&#45;&gt;q0</title>
<path fill="none" stroke="green" d="M2763.15,-2259.66C2760.03,-2280.27 2751.74,-2313.67 2730,-2331.84 2687.27,-2367.56 2662.7,-2355.84 2607,-2355.84 2091,-2355.84 2091,-2355.84 2091,-2355.84 1896.17,-2355.84 1847.83,-2373.84 1653,-2373.84 1101,-2373.84 1101,-2373.84 1101,-2373.84 1031.29,-2373.84 993.158,-2401.18 946,-2349.84 913.435,-2314.39 910.948,-1971.51 910.93,-1870.01"/>
<polygon fill="green" stroke="green" points="914.43,-1869.91 910.937,-1859.9 907.43,-1869.9 914.43,-1869.91"/>
<text text-anchor="middle" x="1872" y="-2371.64" font-family="Times,serif" font-size="14.00">chain_node</text>
</g>
<!-- q7&#45;&gt;q0 -->
<g id="edge59" class="edge"><title>q7&#45;&gt;q0</title>
<path fill="none" stroke="green" d="M2758.02,-2258.51C2752.24,-2270.23 2742.88,-2285.3 2730,-2293.84 2683.58,-2324.62 2662.7,-2317.84 2607,-2317.84 2091,-2317.84 2091,-2317.84 2091,-2317.84 1896.17,-2317.84 1847.83,-2335.84 1653,-2335.84 1101,-2335.84 1101,-2335.84 1101,-2335.84 1031.29,-2335.84 993.3,-2363.05 946,-2311.84 915.996,-2279.36 911.707,-1966.61 911.099,-1870.07"/>
<polygon fill="green" stroke="green" points="914.598,-1869.88 911.044,-1859.9 907.598,-1869.92 914.598,-1869.88"/>
<text text-anchor="middle" x="1872" y="-2333.64" font-family="Times,serif" font-size="14.00">create_sll</text>
</g>
<!-- q7&#45;&gt;q0 -->
<g id="edge60" class="edge"><title>q7&#45;&gt;q0</title>
<path fill="none" stroke="green" d="M2749.19,-2248.89C2743.26,-2251.35 2736.4,-2253.95 2730,-2255.84 2676.57,-2271.58 2662.7,-2279.84 2607,-2279.84 2091,-2279.84 2091,-2279.84 2091,-2279.84 1896.17,-2279.84 1847.83,-2297.84 1653,-2297.84 1101,-2297.84 1101,-2297.84 1101,-2297.84 1031.29,-2297.84 993.466,-2324.89 946,-2273.84 918.552,-2244.32 912.532,-1961.52 911.299,-1870.16"/>
<polygon fill="green" stroke="green" points="914.796,-1869.95 911.171,-1859.99 907.797,-1870.04 914.796,-1869.95"/>
<text text-anchor="middle" x="1872" y="-2295.64" font-family="Times,serif" font-size="14.00">init_back_link</text>
</g>
<!-- q7&#45;&gt;q0 -->
<g id="edge62" class="edge"><title>q7&#45;&gt;q0</title>
<path fill="none" stroke="green" d="M2747.93,-2241.84C2718.96,-2241.84 2658.3,-2241.84 2607,-2241.84 2091,-2241.84 2091,-2241.84 2091,-2241.84 1896.17,-2241.84 1847.83,-2259.84 1653,-2259.84 1101,-2259.84 1101,-2259.84 1101,-2259.84 1031.29,-2259.84 993.664,-2286.71 946,-2235.84 921.065,-2209.23 913.413,-1955.52 911.53,-1869.9"/>
<polygon fill="green" stroke="green" points="915.028,-1869.79 911.319,-1859.87 908.03,-1869.94 915.028,-1869.79"/>
<text text-anchor="middle" x="1872" y="-2257.64" font-family="Times,serif" font-size="14.00">remove_fw_link</text>
</g>
<!-- q7&#45;&gt;q0 -->
<g id="edge63" class="edge"><title>q7&#45;&gt;q0</title>
<path fill="none" stroke="green" d="M2749.15,-2235.39C2721.03,-2224.55 2660.32,-2203.84 2607,-2203.84 2091,-2203.84 2091,-2203.84 2091,-2203.84 1896.17,-2203.84 1847.83,-2221.84 1653,-2221.84 1101,-2221.84 1101,-2221.84 1101,-2221.84 1031.29,-2221.84 993.903,-2248.48 946,-2197.84 923.634,-2174.19 914.428,-1950.54 911.827,-1870.31"/>
<polygon fill="green" stroke="green" points="915.315,-1869.86 911.503,-1859.98 908.318,-1870.08 915.315,-1869.86"/>
<text text-anchor="middle" x="1872" y="-2219.64" font-family="Times,serif" font-size="14.00">check_seq_next</text>
</g>
<!-- q7&#45;&gt;q0 -->
<g id="edge64" class="edge"><title>q7&#45;&gt;q0</title>
<path fill="none" stroke="green" d="M2755.26,-2227C2748.98,-2218.51 2740.11,-2208.3 2730,-2201.84 2681.99,-2171.18 2663.96,-2165.84 2607,-2165.84 2091,-2165.84 2091,-2165.84 2091,-2165.84 1896.17,-2165.84 1847.83,-2183.84 1653,-2183.84 1101,-2183.84 1101,-2183.84 1101,-2183.84 1031.29,-2183.84 994.196,-2210.2 946,-2159.84 926.139,-2139.08 915.521,-1944.2 912.178,-1870.18"/>
<polygon fill="green" stroke="green" points="915.656,-1869.61 911.72,-1859.77 908.663,-1869.92 915.656,-1869.61"/>
<text text-anchor="middle" x="1872" y="-2181.64" font-family="Times,serif" font-size="14.00">check_seq_prev</text>
</g>
<!-- q7&#45;&gt;q0 -->
<g id="edge65" class="edge"><title>q7&#45;&gt;q0</title>
<path fill="none" stroke="green" d="M2761.73,-2224.16C2757.49,-2206.18 2748.34,-2178.78 2730,-2162.84 2687.1,-2125.56 2663.84,-2127.84 2607,-2127.84 2091,-2127.84 2091,-2127.84 2091,-2127.84 1896.17,-2127.84 1847.83,-2145.84 1653,-2145.84 1101,-2145.84 1101,-2145.84 1101,-2145.84 1029.01,-2145.84 992.697,-2153.62 946,-2098.84 917.057,-2064.88 911.951,-1929.5 911.12,-1870.06"/>
<polygon fill="green" stroke="green" points="914.618,-1869.85 911.01,-1859.89 907.619,-1869.93 914.618,-1869.85"/>
<text text-anchor="middle" x="1872" y="-2143.64" font-family="Times,serif" font-size="14.00">Learn_Assert</text>
</g>
<!-- q7&#45;&gt;q6 -->
<g id="edge61" class="edge"><title>q7&#45;&gt;q6</title>
<path fill="none" stroke="green" d="M2779.37,-2254.35C2800.33,-2276.31 2842.61,-2324.12 2864,-2372.84 2886.54,-2424.19 2894.61,-2489.98 2897.47,-2526.75"/>
<polygon fill="green" stroke="green" points="2893.98,-2527.02 2898.17,-2536.75 2900.96,-2526.52 2893.98,-2527.02"/>
<text text-anchor="middle" x="2833" y="-2376.64" font-family="Times,serif" font-size="14.00">reverse_dll</text>
</g>
<!-- q8 -->
<g id="node10" class="node"><title>q8</title>
<ellipse fill="none" stroke="green" cx="2606" cy="-1949.84" rx="18" ry="18"/>
<text text-anchor="middle" x="2606" y="-1946.14" font-family="Times,serif" font-size="14.00">D</text>
</g>
<!-- q8&#45;&gt;q0 -->
<g id="edge66" class="edge"><title>q8&#45;&gt;q0</title>
<path fill="none" stroke="green" d="M2605.12,-1967.86C2604.24,-1993.71 2598.52,-2040.94 2570,-2065.84 2518.81,-2110.53 2486.95,-2089.84 2419,-2089.84 2091,-2089.84 2091,-2089.84 2091,-2089.84 1896.25,-2089.84 1847.75,-2102.84 1653,-2102.84 1101,-2102.84 1101,-2102.84 1101,-2102.84 1030.18,-2102.84 994.055,-2117.87 946,-2065.84 920.14,-2037.84 913.376,-1924.02 911.615,-1870.24"/>
<polygon fill="green" stroke="green" points="915.108,-1869.92 911.318,-1860.03 908.11,-1870.13 915.108,-1869.92"/>
<text text-anchor="middle" x="1762" y="-2105.64" font-family="Times,serif" font-size="14.00">chain_node</text>
</g>
<!-- q8&#45;&gt;q0 -->
<g id="edge67" class="edge"><title>q8&#45;&gt;q0</title>
<path fill="none" stroke="green" d="M2600.09,-1967.11C2594.98,-1981.96 2585.51,-2002.84 2570,-2014.84 2515.35,-2057.13 2488.1,-2051.84 2419,-2051.84 1101,-2051.84 1101,-2051.84 1101,-2051.84 1030.18,-2051.84 995.204,-2065.78 946,-2014.84 926.374,-1994.52 916.863,-1913.73 913.077,-1870.12"/>
<polygon fill="green" stroke="green" points="916.544,-1869.57 912.236,-1859.89 909.568,-1870.14 916.544,-1869.57"/>
<text text-anchor="middle" x="1762" y="-2055.64" font-family="Times,serif" font-size="14.00">create_sll</text>
</g>
<!-- q8&#45;&gt;q0 -->
<g id="edge68" class="edge"><title>q8&#45;&gt;q0</title>
<path fill="none" stroke="green" d="M2589.47,-1957.15C2558.04,-1971.25 2484.29,-2000.84 2419,-2000.84 1101,-2000.84 1101,-2000.84 1101,-2000.84 1030.18,-2000.84 997.196,-2012.78 946,-1963.84 920.549,-1939.51 913.234,-1898.02 911.33,-1870.27"/>
<polygon fill="green" stroke="green" points="914.813,-1869.84 910.829,-1860.02 907.822,-1870.18 914.813,-1869.84"/>
<text text-anchor="middle" x="1762" y="-2004.64" font-family="Times,serif" font-size="14.00">init_back_link</text>
</g>
<!-- q8&#45;&gt;q0 -->
<g id="edge69" class="edge"><title>q8&#45;&gt;q0</title>
<path fill="none" stroke="green" d="M2587.82,-1949.84C2555.01,-1949.84 2481.16,-1949.84 2419,-1949.84 1101,-1949.84 1101,-1949.84 1101,-1949.84 1030.18,-1949.84 1001.36,-1957.02 946,-1912.84 932.211,-1901.83 923.45,-1884.01 918.142,-1868.98"/>
<polygon fill="green" stroke="green" points="921.374,-1867.59 914.999,-1859.13 914.706,-1869.72 921.374,-1867.59"/>
<text text-anchor="middle" x="1762" y="-1953.64" font-family="Times,serif" font-size="14.00">reverse_dll</text>
</g>
<!-- q8&#45;&gt;q0 -->
<g id="edge70" class="edge"><title>q8&#45;&gt;q0</title>
<path fill="none" stroke="green" d="M2589.47,-1942.53C2558.04,-1928.43 2484.29,-1898.84 2419,-1898.84 1101,-1898.84 1101,-1898.84 1101,-1898.84 1031.29,-1898.84 1008.62,-1905.46 946,-1874.84 939.895,-1871.85 934.135,-1867.43 929.117,-1862.79"/>
<polygon fill="green" stroke="green" points="931.418,-1860.14 921.9,-1855.48 926.438,-1865.06 931.418,-1860.14"/>
<text text-anchor="middle" x="1762" y="-1902.64" font-family="Times,serif" font-size="14.00">remove_fw_link</text>
</g>
<!-- q8&#45;&gt;q0 -->
<g id="edge71" class="edge"><title>q8&#45;&gt;q0</title>
<path fill="none" stroke="green" d="M2596.45,-1933.99C2590.28,-1923.85 2581.1,-1911.1 2570,-1902.84 2512.71,-1860.18 2490.42,-1847.84 2419,-1847.84 1871,-1847.84 1871,-1847.84 1871,-1847.84 1676.25,-1847.84 1627.75,-1860.84 1433,-1860.84 1101,-1860.84 1101,-1860.84 1101,-1860.84 1042.62,-1860.84 974.641,-1851.85 937.902,-1846.24"/>
<polygon fill="green" stroke="green" points="938.395,-1842.77 927.975,-1844.68 937.314,-1849.69 938.395,-1842.77"/>
<text text-anchor="middle" x="1762" y="-1854.64" font-family="Times,serif" font-size="14.00">check_seq_next</text>
</g>
<!-- q8&#45;&gt;q0 -->
<g id="edge73" class="edge"><title>q8&#45;&gt;q0</title>
<path fill="none" stroke="green" d="M2603.39,-1931.83C2600.47,-1909.67 2592.36,-1872.22 2570,-1849.84 2519.73,-1799.52 2490.12,-1796.84 2419,-1796.84 1871,-1796.84 1871,-1796.84 1871,-1796.84 1675.99,-1796.84 1628.01,-1822.84 1433,-1822.84 1101,-1822.84 1101,-1822.84 1101,-1822.84 1042.62,-1822.84 974.641,-1831.83 937.902,-1837.44"/>
<polygon fill="green" stroke="green" points="937.314,-1833.99 927.975,-1838.99 938.395,-1840.91 937.314,-1833.99"/>
<text text-anchor="middle" x="1762" y="-1806.64" font-family="Times,serif" font-size="14.00">Learn_Assert</text>
</g>
<!-- q8&#45;&gt;q7 -->
<g id="edge72" class="edge"><title>q8&#45;&gt;q7</title>
<path fill="none" stroke="green" d="M2620.01,-1961.59C2645.23,-1985.1 2700.82,-2040.68 2730,-2098.84 2748.68,-2136.07 2757.76,-2183.86 2761.9,-2213.67"/>
<polygon fill="green" stroke="green" points="2758.45,-2214.32 2763.2,-2223.79 2765.39,-2213.42 2758.45,-2214.32"/>
<text text-anchor="middle" x="2686" y="-2102.64" font-family="Times,serif" font-size="14.00">check_seq_prev</text>
</g>
<!-- q9 -->
<g id="node11" class="node"><title>q9</title>
<ellipse fill="none" stroke="green" cx="2418" cy="-1636.84" rx="18" ry="18"/>
<text text-anchor="middle" x="2418" y="-1633.14" font-family="Times,serif" font-size="14.00">D</text>
</g>
<!-- q9&#45;&gt;q0 -->
<g id="edge74" class="edge"><title>q9&#45;&gt;q0</title>
<path fill="none" stroke="green" d="M2410.42,-1653.22C2401.14,-1674.01 2382.16,-1709.27 2354,-1726.84 2295.6,-1763.28 2269.83,-1750.84 2201,-1750.84 1871,-1750.84 1871,-1750.84 1871,-1750.84 1675.75,-1750.84 1628.25,-1784.84 1433,-1784.84 1101,-1784.84 1101,-1784.84 1101,-1784.84 1031.29,-1784.84 1008.62,-1778.22 946,-1808.84 939.895,-1811.82 934.135,-1816.25 929.117,-1820.89"/>
<polygon fill="green" stroke="green" points="926.438,-1818.62 921.9,-1828.19 931.418,-1823.54 926.438,-1818.62"/>
<text text-anchor="middle" x="1652" y="-1777.64" font-family="Times,serif" font-size="14.00">chain_node</text>
</g>
<!-- q9&#45;&gt;q0 -->
<g id="edge75" class="edge"><title>q9&#45;&gt;q0</title>
<path fill="none" stroke="green" d="M2405.36,-1649.82C2393.64,-1661.99 2374.43,-1679.64 2354,-1688.84 2291.23,-1717.08 2269.83,-1712.84 2201,-1712.84 1871,-1712.84 1871,-1712.84 1871,-1712.84 1675.75,-1712.84 1628.25,-1746.84 1433,-1746.84 1101,-1746.84 1101,-1746.84 1101,-1746.84 1030.57,-1746.84 1002.77,-1738.16 946,-1779.84 934.129,-1788.56 925.726,-1802.59 920.135,-1815.1"/>
<polygon fill="green" stroke="green" points="916.765,-1814.1 916.241,-1824.68 923.249,-1816.73 916.765,-1814.1"/>
<text text-anchor="middle" x="1652" y="-1739.64" font-family="Times,serif" font-size="14.00">create_sll</text>
</g>
<!-- q9&#45;&gt;q0 -->
<g id="edge76" class="edge"><title>q9&#45;&gt;q0</title>
<path fill="none" stroke="green" d="M2400.64,-1641.73C2364.82,-1651.99 2276.58,-1674.84 2201,-1674.84 1871,-1674.84 1871,-1674.84 1871,-1674.84 1675.75,-1674.84 1628.25,-1708.84 1433,-1708.84 1101,-1708.84 1101,-1708.84 1101,-1708.84 1030.57,-1708.84 998.861,-1695.29 946,-1741.84 925.383,-1759.99 916.909,-1791 913.427,-1813.68"/>
<polygon fill="green" stroke="green" points="909.937,-1813.38 912.12,-1823.75 916.879,-1814.29 909.937,-1813.38"/>
<text text-anchor="middle" x="1652" y="-1702.64" font-family="Times,serif" font-size="14.00">init_back_link</text>
</g>
<!-- q9&#45;&gt;q0 -->
<g id="edge77" class="edge"><title>q9&#45;&gt;q0</title>
<path fill="none" stroke="green" d="M2399.92,-1636.84C2363.41,-1636.84 2275.06,-1636.84 2201,-1636.84 1871,-1636.84 1871,-1636.84 1871,-1636.84 1675.75,-1636.84 1628.25,-1670.84 1433,-1670.84 1101,-1670.84 1101,-1670.84 1101,-1670.84 1030.57,-1670.84 996.756,-1655.01 946,-1703.84 930.423,-1718.83 919.793,-1777.75 914.622,-1813.58"/>
<polygon fill="green" stroke="green" points="911.1,-1813.5 913.193,-1823.88 918.034,-1814.46 911.1,-1813.5"/>
<text text-anchor="middle" x="1652" y="-1664.64" font-family="Times,serif" font-size="14.00">reverse_dll</text>
</g>
<!-- q9&#45;&gt;q0 -->
<g id="edge78" class="edge"><title>q9&#45;&gt;q0</title>
<path fill="none" stroke="green" d="M2400.64,-1631.95C2364.82,-1621.69 2276.58,-1598.84 2201,-1598.84 1871,-1598.84 1871,-1598.84 1871,-1598.84 1675.75,-1598.84 1628.25,-1632.84 1433,-1632.84 1101,-1632.84 1101,-1632.84 1101,-1632.84 1030.66,-1632.84 995.53,-1614.89 946,-1664.84 925.522,-1685.49 916.337,-1769.31 912.836,-1813.79"/>
<polygon fill="green" stroke="green" points="909.333,-1813.7 912.083,-1823.94 916.314,-1814.22 909.333,-1813.7"/>
<text text-anchor="middle" x="1652" y="-1626.64" font-family="Times,serif" font-size="14.00">remove_fw_link</text>
</g>
<!-- q9&#45;&gt;q0 -->
<g id="edge80" class="edge"><title>q9&#45;&gt;q0</title>
<path fill="none" stroke="green" d="M2402.59,-1626.79C2390.2,-1618.54 2371.6,-1607.08 2354,-1599.84 2289.1,-1573.14 2271.17,-1560.84 2201,-1560.84 1871,-1560.84 1871,-1560.84 1871,-1560.84 1675.75,-1560.84 1628.25,-1594.84 1433,-1594.84 1101,-1594.84 1101,-1594.84 1101,-1594.84 1030.75,-1594.84 994.755,-1575.26 946,-1625.84 920.648,-1652.14 913.634,-1760.83 911.714,-1813.28"/>
<polygon fill="green" stroke="green" points="908.206,-1813.45 911.376,-1823.56 915.202,-1813.68 908.206,-1813.45"/>
<text text-anchor="middle" x="1652" y="-1588.64" font-family="Times,serif" font-size="14.00">check_seq_prev</text>
</g>
<!-- q9&#45;&gt;q0 -->
<g id="edge81" class="edge"><title>q9&#45;&gt;q0</title>
<path fill="none" stroke="green" d="M2408.1,-1621.66C2397.4,-1604.75 2377.86,-1577.82 2354,-1562.84 2294.47,-1525.47 2271.29,-1522.84 2201,-1522.84 1761,-1522.84 1761,-1522.84 1761,-1522.84 1614.44,-1522.84 1579.56,-1556.84 1433,-1556.84 1101,-1556.84 1101,-1556.84 1101,-1556.84 1030.75,-1556.84 994.152,-1536.68 946,-1587.84 915.769,-1619.96 911.369,-1754.55 910.923,-1813.72"/>
<polygon fill="green" stroke="green" points="907.423,-1813.84 910.881,-1823.85 914.423,-1813.87 907.423,-1813.84"/>
<text text-anchor="middle" x="1652" y="-1541.64" font-family="Times,serif" font-size="14.00">Learn_Assert</text>
</g>
<!-- q9&#45;&gt;q8 -->
<g id="edge79" class="edge"><title>q9&#45;&gt;q8</title>
<path fill="none" stroke="green" d="M2434.4,-1645.34C2465.56,-1663.43 2536.02,-1708.91 2570,-1767.84 2598.16,-1816.68 2604.17,-1883.91 2605.16,-1921.49"/>
<polygon fill="green" stroke="green" points="2601.66,-1921.76 2605.32,-1931.7 2608.66,-1921.65 2601.66,-1921.76"/>
<text text-anchor="middle" x="2526" y="-1771.64" font-family="Times,serif" font-size="14.00">check_seq_next</text>
</g>
<!-- q10 -->
<g id="node12" class="node"><title>q10</title>
<ellipse fill="none" stroke="green" cx="2200" cy="-1309.84" rx="18" ry="18"/>
<text text-anchor="middle" x="2200" y="-1306.14" font-family="Times,serif" font-size="14.00">D</text>
</g>
<!-- q10&#45;&gt;q0 -->
<g id="edge82" class="edge"><title>q10&#45;&gt;q0</title>
<path fill="none" stroke="green" d="M2197.63,-1327.94C2194.1,-1360.61 2181.61,-1428.98 2138,-1460.84 2138,-1460.84 1433,-1513.84 1433,-1513.84 1101,-1513.84 1101,-1513.84 1101,-1513.84 1030.92,-1513.84 993.833,-1491.62 946,-1542.84 927.716,-1562.42 916.269,-1742.43 912.435,-1813.33"/>
<polygon fill="green" stroke="green" points="908.918,-1813.56 911.886,-1823.73 915.909,-1813.93 908.918,-1813.56"/>
<text text-anchor="middle" x="1542" y="-1513.64" font-family="Times,serif" font-size="14.00">chain_node</text>
</g>
<!-- q10&#45;&gt;q0 -->
<g id="edge83" class="edge"><title>q10&#45;&gt;q0</title>
<path fill="none" stroke="green" d="M2195.24,-1327.25C2188.63,-1353.14 2172.24,-1401.07 2138,-1422.84 2071.79,-1464.93 1511.46,-1462.84 1433,-1462.84 1101,-1462.84 1101,-1462.84 1101,-1462.84 1029.51,-1462.84 992.164,-1451.25 946,-1505.84 926.282,-1529.15 915.483,-1736.9 912.141,-1813.57"/>
<polygon fill="green" stroke="green" points="908.63,-1813.76 911.701,-1823.9 915.623,-1814.05 908.63,-1813.76"/>
<text text-anchor="middle" x="1542" y="-1466.64" font-family="Times,serif" font-size="14.00">create_sll</text>
</g>
<!-- q10&#45;&gt;q0 -->
<g id="edge85" class="edge"><title>q10&#45;&gt;q0</title>
<path fill="none" stroke="green" d="M2189.91,-1324.77C2179.51,-1340.33 2160.92,-1363.94 2138,-1374.84 2018.09,-1431.84 1040.85,-1365.94 946,-1458.84 920.752,-1483.57 913.326,-1729.36 911.513,-1813.65"/>
<polygon fill="green" stroke="green" points="908.011,-1813.7 911.306,-1823.77 915.01,-1813.84 908.011,-1813.7"/>
<text text-anchor="middle" x="1542" y="-1407.64" font-family="Times,serif" font-size="14.00">reverse_dll</text>
</g>
<!-- q10&#45;&gt;q0 -->
<g id="edge86" class="edge"><title>q10&#45;&gt;q0</title>
<path fill="none" stroke="green" d="M2183.05,-1316.3C2147.67,-1330.02 2059.68,-1360.84 1983,-1360.84 1651,-1360.84 1651,-1360.84 1651,-1360.84 1047.05,-1360.84 961.313,-1408.14 946,-1423.84 918.851,-1451.68 912.641,-1724.04 911.328,-1813.52"/>
<polygon fill="green" stroke="green" points="907.826,-1813.68 911.188,-1823.73 914.825,-1813.78 907.826,-1813.68"/>
<text text-anchor="middle" x="1542" y="-1366.64" font-family="Times,serif" font-size="14.00">remove_fw_link</text>
</g>
<!-- q10&#45;&gt;q0 -->
<g id="edge87" class="edge"><title>q10&#45;&gt;q0</title>
<path fill="none" stroke="green" d="M2181.92,-1309.84C2145.41,-1309.84 2057.06,-1309.84 1983,-1309.84 1651,-1309.84 1651,-1309.84 1651,-1309.84 1358.08,-1309.84 955.168,-1380.12 946,-1389.84 916.939,-1420.64 912.004,-1719.14 911.169,-1813.44"/>
<polygon fill="green" stroke="green" points="907.668,-1813.62 911.088,-1823.65 914.667,-1813.68 907.668,-1813.62"/>
<text text-anchor="middle" x="1542" y="-1319.64" font-family="Times,serif" font-size="14.00">check_seq_next</text>
</g>
<!-- q10&#45;&gt;q0 -->
<g id="edge88" class="edge"><title>q10&#45;&gt;q0</title>
<path fill="none" stroke="green" d="M2183.05,-1303.38C2147.67,-1289.66 2059.68,-1258.84 1983,-1258.84 1651,-1258.84 1651,-1258.84 1651,-1258.84 1503.2,-1258.84 950.582,-1361.88 946,-1366.84 915.653,-1399.71 911.602,-1716.45 911.075,-1813.63"/>
<polygon fill="green" stroke="green" points="907.574,-1813.84 911.028,-1823.86 914.574,-1813.88 907.574,-1813.84"/>
<text text-anchor="middle" x="1542" y="-1276.64" font-family="Times,serif" font-size="14.00">check_seq_prev</text>
</g>
<!-- q10&#45;&gt;q0 -->
<g id="edge89" class="edge"><title>q10&#45;&gt;q0</title>
<path fill="none" stroke="green" d="M2186.33,-1297.8C2174.58,-1287.15 2156.2,-1271.81 2138,-1261.84 2074.01,-1226.8 2055.95,-1207.84 1983,-1207.84 1651,-1207.84 1651,-1207.84 1651,-1207.84 1491.4,-1207.84 1051.78,-1225.34 946,-1344.84 914.881,-1379.99 911.371,-1712.99 911.023,-1813.35"/>
<polygon fill="green" stroke="green" points="907.523,-1813.62 910.996,-1823.63 914.523,-1813.64 907.523,-1813.62"/>
<text text-anchor="middle" x="1542" y="-1216.64" font-family="Times,serif" font-size="14.00">Learn_Assert</text>
</g>
<!-- q10&#45;&gt;q9 -->
<g id="edge84" class="edge"><title>q10&#45;&gt;q9</title>
<path fill="none" stroke="green" d="M2213.48,-1322.26C2241.48,-1350.63 2310.26,-1423.19 2354,-1493.84 2377.63,-1532.01 2397.04,-1580.59 2407.8,-1610.17"/>
<polygon fill="green" stroke="green" points="2404.58,-1611.55 2411.25,-1619.79 2411.17,-1609.19 2404.58,-1611.55"/>
<text text-anchor="middle" x="2308" y="-1497.64" font-family="Times,serif" font-size="14.00">init_back_link</text>
</g>
<!-- q11 -->
<g id="node13" class="node"><title>q11</title>
<ellipse fill="none" stroke="black" cx="1762" cy="-1047.84" rx="18" ry="18"/>
<text text-anchor="middle" x="1762" y="-1044.14" font-family="Times,serif" font-size="14.00">D</text>
</g>
<!-- q11&#45;&gt;q0 -->
<g id="edge91" class="edge"><title>q11&#45;&gt;q0</title>
<path fill="none" stroke="green" d="M1754.37,-1064.15C1745.05,-1084.87 1726.02,-1120.06 1698,-1137.84 1635.17,-1177.72 1441.5,-1183.18 1368,-1194.84 1274.42,-1209.68 1010.13,-1186.09 946,-1255.84 907.99,-1297.18 909.487,-1701.73 910.637,-1813.41"/>
<polygon fill="green" stroke="green" points="907.139,-1813.61 910.75,-1823.57 914.139,-1813.53 907.139,-1813.61"/>
<text text-anchor="middle" x="1322" y="-1204.64" font-family="Times,serif" font-size="14.00">create_sll</text>
</g>
<!-- q11&#45;&gt;q0 -->
<g id="edge92" class="edge"><title>q11&#45;&gt;q0</title>
<path fill="none" stroke="green" d="M1749.37,-1060.85C1737.67,-1073.04 1718.46,-1090.71 1698,-1099.84 1659.42,-1117.05 974.443,-1181.6 946,-1212.84 925.515,-1235.34 914.196,-1694.09 911.587,-1813.58"/>
<polygon fill="green" stroke="green" points="908.084,-1813.69 911.368,-1823.76 915.083,-1813.84 908.084,-1813.69"/>
<text text-anchor="middle" x="1322" y="-1159.64" font-family="Times,serif" font-size="14.00">init_back_link</text>
</g>
<!-- q11&#45;&gt;q0 -->
<g id="edge93" class="edge"><title>q11&#45;&gt;q0</title>
<path fill="none" stroke="green" d="M1744.22,-1051.88C1731.56,-1054.86 1713.75,-1058.88 1698,-1061.84 1630.47,-1074.53 961.918,-1168.77 946,-1186.84 924.993,-1210.69 914.006,-1691.12 911.54,-1813.61"/>
<polygon fill="green" stroke="green" points="908.039,-1813.64 911.34,-1823.7 915.038,-1813.77 908.039,-1813.64"/>
<text text-anchor="middle" x="1322" y="-1130.64" font-family="Times,serif" font-size="14.00">reverse_dll</text>
</g>
<!-- q11&#45;&gt;q0 -->
<g id="edge94" class="edge"><title>q11&#45;&gt;q0</title>
<path fill="none" stroke="green" d="M1743.7,-1047.36C1635.56,-1044.78 1053.81,-1036.93 946,-1162.84 924.529,-1187.92 913.853,-1687.84 911.504,-1813.42"/>
<polygon fill="green" stroke="green" points="907.999,-1813.68 911.314,-1823.74 914.998,-1813.81 907.999,-1813.68"/>
<text text-anchor="middle" x="1322" y="-1067.64" font-family="Times,serif" font-size="14.00">remove_fw_link</text>
</g>
<!-- q11&#45;&gt;q0 -->
<g id="edge96" class="edge"><title>q11&#45;&gt;q0</title>
<path fill="none" stroke="green" d="M1743.95,-1045.97C1636.12,-1034.6 1050.17,-979.217 946,-1106.84 923.263,-1134.69 913.446,-1682.18 911.411,-1813.64"/>
<polygon fill="green" stroke="green" points="907.911,-1813.67 911.258,-1823.72 914.91,-1813.77 907.911,-1813.67"/>
<text text-anchor="middle" x="1322" y="-1029.64" font-family="Times,serif" font-size="14.00">check_seq_prev</text>
</g>
<!-- q11&#45;&gt;q0 -->
<g id="edge97" class="edge"><title>q11&#45;&gt;q0</title>
<path fill="none" stroke="green" d="M1744.61,-1042.51C1732,-1038.63 1714.08,-1033.59 1698,-1030.84 1533.22,-1002.62 1055.39,-926.409 946,-1052.84 920.615,-1082.18 912.757,-1676.56 911.278,-1813.76"/>
<polygon fill="green" stroke="green" points="907.777,-1813.84 911.172,-1823.88 914.777,-1813.91 907.777,-1813.84"/>
<text text-anchor="middle" x="1322" y="-991.639" font-family="Times,serif" font-size="14.00">Learn_Assert</text>
</g>
<!-- q11&#45;&gt;q10 -->
<g id="edge95" class="edge"><title>q11&#45;&gt;q10</title>
<path fill="none" stroke="green" d="M1780.15,-1050.18C1837.61,-1058.81 2025.97,-1093.78 2138,-1193.84 2164.97,-1217.92 2181.96,-1256.8 2190.97,-1282.83"/>
<polygon fill="green" stroke="green" points="2187.69,-1284.05 2194.14,-1292.45 2194.33,-1281.86 2187.69,-1284.05"/>
<text text-anchor="middle" x="1982" y="-1126.64" font-family="Times,serif" font-size="14.00">check_seq_next</text>
</g>
<!-- q15 -->
<g id="node17" class="node"><title>q15</title>
<ellipse fill="none" stroke="black" cx="1982" cy="-157.839" rx="18" ry="18"/>
<text text-anchor="middle" x="1982" y="-154.139" font-family="Times,serif" font-size="14.00">D</text>
</g>
<!-- q11&#45;&gt;q15 -->
<g id="edge90" class="edge"><title>q11&#45;&gt;q15</title>
<path fill="none" stroke="green" d="M1767.26,-1030.46C1794.2,-920.48 1940.93,-321.432 1974.26,-185.348"/>
<polygon fill="green" stroke="green" points="1977.74,-185.875 1976.72,-175.33 1970.94,-184.21 1977.74,-185.875"/>
<text text-anchor="middle" x="1872" y="-789.639" font-family="Times,serif" font-size="14.00">chain_node</text>
</g>
<!-- q12 -->
<g id="node14" class="node"><title>q12</title>
<ellipse fill="none" stroke="green" cx="1542" cy="-849.839" rx="18" ry="18"/>
<text text-anchor="middle" x="1542" y="-846.139" font-family="Times,serif" font-size="14.00">D</text>
</g>
<!-- q12&#45;&gt;q0 -->
<g id="edge99" class="edge"><title>q12&#45;&gt;q0</title>
<path fill="none" stroke="green" d="M1529.34,-862.794C1517.62,-874.94 1498.4,-892.577 1478,-901.839 1387.78,-942.792 1355.9,-922.613 1258,-937.839 1188.75,-948.61 992.871,-931.737 946,-983.839 917.637,-1015.37 912.042,-1668.86 911.15,-1813.61"/>
<polygon fill="green" stroke="green" points="907.648,-1813.85 911.089,-1823.87 914.648,-1813.89 907.648,-1813.85"/>
<text text-anchor="middle" x="1212" y="-946.639" font-family="Times,serif" font-size="14.00">create_sll</text>
</g>
<!-- q12&#45;&gt;q0 -->
<g id="edge100" class="edge"><title>q12&#45;&gt;q0</title>
<path fill="none" stroke="green" d="M1524.21,-853.862C1511.55,-856.824 1493.74,-860.841 1478,-863.839 1380.74,-882.365 1355.82,-883.534 1258,-898.839 1188.69,-909.683 992.708,-894.501 946,-946.839 916.486,-979.911 911.781,-1664.26 911.105,-1813.33"/>
<polygon fill="green" stroke="green" points="907.605,-1813.49 911.062,-1823.5 914.604,-1813.52 907.605,-1813.49"/>
<text text-anchor="middle" x="1212" y="-908.639" font-family="Times,serif" font-size="14.00">init_back_link</text>
</g>
<!-- q12&#45;&gt;q0 -->
<g id="edge101" class="edge"><title>q12&#45;&gt;q0</title>
<path fill="none" stroke="green" d="M1523.87,-850.231C1430.53,-852.539 985.92,-865.802 946,-909.839 914.934,-944.109 911.441,-1659.92 911.049,-1813.13"/>
<polygon fill="green" stroke="green" points="907.549,-1813.55 911.025,-1823.56 914.549,-1813.57 907.549,-1813.55"/>
<text text-anchor="middle" x="1212" y="-872.639" font-family="Times,serif" font-size="14.00">reverse_dll</text>
</g>
<!-- q12&#45;&gt;q0 -->
<g id="edge102" class="edge"><title>q12&#45;&gt;q0</title>
<path fill="none" stroke="green" d="M1523.99,-847.657C1434.97,-836.656 1023.77,-791.215 946,-879.839 914.412,-915.836 911.331,-1658.81 911.032,-1813.7"/>
<polygon fill="green" stroke="green" points="907.532,-1813.81 911.015,-1823.82 914.532,-1813.82 907.532,-1813.81"/>
<text text-anchor="middle" x="1212" y="-831.639" font-family="Times,serif" font-size="14.00">remove_fw_link</text>
</g>
<!-- q12&#45;&gt;q0 -->
<g id="edge104" class="edge"><title>q12&#45;&gt;q0</title>
<path fill="none" stroke="green" d="M1524.9,-844.063C1512.29,-839.768 1494.24,-834.107 1478,-830.839 1362.1,-807.52 1025.67,-748.491 946,-835.839 912.179,-872.917 910.874,-1653.62 910.962,-1813.42"/>
<polygon fill="green" stroke="green" points="907.462,-1813.83 910.97,-1823.83 914.462,-1813.83 907.462,-1813.83"/>
<text text-anchor="middle" x="1212" y="-800.639" font-family="Times,serif" font-size="14.00">check_seq_prev</text>
</g>
<!-- q12&#45;&gt;q0 -->
<g id="edge105" class="edge"><title>q12&#45;&gt;q0</title>
<path fill="none" stroke="green" d="M1527.3,-839.214C1515.05,-830.257 1496.27,-817.816 1478,-810.839 1367.5,-768.629 1027.02,-706.651 946,-792.839 910.086,-831.045 910.461,-1648.83 910.901,-1813.21"/>
<polygon fill="green" stroke="green" points="907.401,-1813.5 910.931,-1823.49 914.401,-1813.48 907.401,-1813.5"/>
<text text-anchor="middle" x="1212" y="-764.639" font-family="Times,serif" font-size="14.00">Learn_Assert</text>
</g>
<!-- q12&#45;&gt;q10 -->
<g id="edge103" class="edge"><title>q12&#45;&gt;q10</title>
<path fill="none" stroke="green" d="M1560.22,-851.632C1589.36,-855.048 1649.88,-863.815 1698,-881.839 1908.21,-960.586 1994.74,-957.017 2138,-1129.84 2175.18,-1174.69 2190.09,-1243.3 2195.77,-1281.56"/>
<polygon fill="green" stroke="green" points="2192.36,-1282.52 2197.19,-1291.95 2199.3,-1281.57 2192.36,-1282.52"/>
<text text-anchor="middle" x="1872" y="-962.639" font-family="Times,serif" font-size="14.00">check_seq_next</text>
</g>
<!-- q12&#45;&gt;q11 -->
<g id="edge98" class="edge"><title>q12&#45;&gt;q11</title>
<path fill="none" stroke="green" d="M1558.3,-857.785C1592.86,-875.925 1675.7,-920.538 1698,-942.839 1721.05,-965.885 1739.08,-998.987 1749.85,-1021.83"/>
<polygon fill="green" stroke="green" points="1746.8,-1023.59 1754.14,-1031.24 1753.17,-1020.69 1746.8,-1023.59"/>
<text text-anchor="middle" x="1652" y="-946.639" font-family="Times,serif" font-size="14.00">chain_node</text>
</g>
<!-- q13 -->
<g id="node15" class="node"><title>q13</title>
<ellipse fill="none" stroke="green" cx="1322" cy="-573.839" rx="18" ry="18"/>
<text text-anchor="middle" x="1322" y="-570.139" font-family="Times,serif" font-size="14.00">D</text>
</g>
<!-- q13&#45;&gt;q0 -->
<g id="edge107" class="edge"><title>q13&#45;&gt;q0</title>
<path fill="none" stroke="green" d="M1316.63,-591.062C1309.17,-616.792 1291.43,-664.902 1258,-689.839 1144.39,-774.581 1037.01,-647.186 946,-755.839 911.069,-797.541 910.672,-1646.03 910.934,-1813.34"/>
<polygon fill="green" stroke="green" points="907.435,-1813.78 910.953,-1823.77 914.435,-1813.76 907.435,-1813.78"/>
<text text-anchor="middle" x="1102" y="-724.639" font-family="Times,serif" font-size="14.00">create_sll</text>
</g>
<!-- q13&#45;&gt;q0 -->
<g id="edge108" class="edge"><title>q13&#45;&gt;q0</title>
<path fill="none" stroke="green" d="M1310.97,-588.423C1299.82,-603.462 1280.4,-626.417 1258,-638.839 1195.98,-673.227 991.414,-651.375 946,-705.839 909.446,-749.677 910.379,-1642.57 910.895,-1813.64"/>
<polygon fill="green" stroke="green" points="907.396,-1813.86 910.928,-1823.85 914.396,-1813.84 907.396,-1813.86"/>
<text text-anchor="middle" x="1102" y="-672.639" font-family="Times,serif" font-size="14.00">init_back_link</text>
</g>
<!-- q13&#45;&gt;q0 -->
<g id="edge109" class="edge"><title>q13&#45;&gt;q0</title>
<path fill="none" stroke="green" d="M1304.2,-577.759C1232.06,-594.633 951.864,-660.551 946,-667.839 908.968,-713.869 910.302,-1638.91 910.886,-1813.54"/>
<polygon fill="green" stroke="green" points="907.387,-1813.73 910.922,-1823.72 914.387,-1813.71 907.387,-1813.73"/>
<text text-anchor="middle" x="1102" y="-641.639" font-family="Times,serif" font-size="14.00">reverse_dll</text>
</g>
<!-- q13&#45;&gt;q0 -->
<g id="edge110" class="edge"><title>q13&#45;&gt;q0</title>
<path fill="none" stroke="green" d="M1303.8,-575.39C1275.19,-577.968 1216.05,-583.304 1166,-587.839 1117.11,-592.27 1101.98,-580.635 1056,-597.839 1046.76,-601.298 1046.84,-606.454 1038,-610.839 999.711,-629.832 971.942,-604.872 946,-638.839 909.201,-687.024 910.361,-1637.02 910.896,-1813.69"/>
<polygon fill="green" stroke="green" points="907.397,-1813.77 910.929,-1823.76 914.397,-1813.74 907.397,-1813.77"/>
<text text-anchor="middle" x="1102" y="-601.639" font-family="Times,serif" font-size="14.00">remove_fw_link</text>
</g>
<!-- q13&#45;&gt;q0 -->
<g id="edge111" class="edge"><title>q13&#45;&gt;q0</title>
<path fill="none" stroke="green" d="M1303.81,-573.31C1272.73,-572.383 1205.08,-570.499 1148,-569.839 1107.11,-569.367 1094.22,-555.308 1056,-569.839 1046,-573.643 1047.34,-580.604 1038,-585.839 1000.72,-606.743 971.932,-579.864 946,-613.839 908.411,-663.088 910.225,-1634.81 910.879,-1813.67"/>
<polygon fill="green" stroke="green" points="907.38,-1813.86 910.918,-1823.85 914.38,-1813.84 907.38,-1813.86"/>
<text text-anchor="middle" x="1102" y="-573.639" font-family="Times,serif" font-size="14.00">check_seq_next</text>
</g>
<!-- q13&#45;&gt;q0 -->
<g id="edge112" class="edge"><title>q13&#45;&gt;q0</title>
<path fill="none" stroke="green" d="M1303.93,-570.008C1273.03,-563.288 1205.66,-549.639 1148,-544.839 1107.25,-541.448 1094.22,-530.308 1056,-544.839 1046,-548.643 1047.34,-555.604 1038,-560.839 1000.72,-581.743 971.922,-554.857 946,-588.839 907.642,-639.125 910.089,-1631.59 910.861,-1813.37"/>
<polygon fill="green" stroke="green" points="907.361,-1813.5 910.906,-1823.48 914.361,-1813.47 907.361,-1813.5"/>
<text text-anchor="middle" x="1102" y="-548.639" font-family="Times,serif" font-size="14.00">check_seq_prev</text>
</g>
<!-- q13&#45;&gt;q0 -->
<g id="edge113" class="edge"><title>q13&#45;&gt;q0</title>
<path fill="none" stroke="green" d="M1306.17,-565.259C1293.68,-558.348 1275.15,-548.829 1258,-542.839 1172.65,-513.026 1140.01,-485.438 1056,-518.839 1045.77,-522.905 1047.52,-530.313 1038,-535.839 1001.04,-557.304 971.913,-529.85 946,-563.839 906.85,-615.193 909.957,-1629.53 910.845,-1813.39"/>
<polygon fill="green" stroke="green" points="907.346,-1813.62 910.896,-1823.6 914.346,-1813.59 907.346,-1813.62"/>
<text text-anchor="middle" x="1102" y="-522.639" font-family="Times,serif" font-size="14.00">Learn_Assert</text>
</g>
<!-- q13&#45;&gt;q12 -->
<g id="edge106" class="edge"><title>q13&#45;&gt;q12</title>
<path fill="none" stroke="green" d="M1337.73,-583.134C1367.73,-602.714 1436.59,-651.025 1478,-706.839 1504.89,-743.09 1523.44,-792.625 1533.13,-822.863"/>
<polygon fill="green" stroke="green" points="1529.88,-824.19 1536.19,-832.701 1536.56,-822.112 1529.88,-824.19"/>
<text text-anchor="middle" x="1432" y="-710.639" font-family="Times,serif" font-size="14.00">chain_node</text>
</g>
<!-- q14&#45;&gt;q0 -->
<g id="edge115" class="edge"><title>q14&#45;&gt;q0</title>
<path fill="none" stroke="green" d="M1085.6,-374.346C1075.8,-379.859 1063.57,-388.227 1056,-398.839 1039.58,-421.848 1058.8,-440.701 1038,-459.839 1007.27,-488.108 972.782,-446.809 946,-478.839 923.809,-505.379 912.956,-1620.64 911.243,-1813.55"/>
<polygon fill="green" stroke="green" points="907.741,-1813.7 911.153,-1823.73 914.741,-1813.76 907.741,-1813.7"/>
<text text-anchor="middle" x="992" y="-482.639" font-family="Times,serif" font-size="14.00">create_sll</text>
</g>
<!-- q14&#45;&gt;q0 -->
<g id="edge116" class="edge"><title>q14&#45;&gt;q0</title>
<path fill="none" stroke="green" d="M1086,-375.938C1076.83,-381.865 1065.15,-390.099 1056,-398.839 1046.61,-407.805 1049.03,-414.997 1038,-421.839 1002.52,-443.847 972.771,-408.8 946,-440.839 923.165,-468.168 912.818,-1618.02 911.221,-1813.68"/>
<polygon fill="green" stroke="green" points="907.721,-1813.71 911.14,-1823.74 914.721,-1813.77 907.721,-1813.71"/>
<text text-anchor="middle" x="992" y="-444.639" font-family="Times,serif" font-size="14.00">init_back_link</text>
</g>
<!-- q14&#45;&gt;q0 -->
<g id="edge117" class="edge"><title>q14&#45;&gt;q0</title>
<path fill="none" stroke="green" d="M1084.49,-371.585C1071.82,-375.156 1053.87,-380.063 1038,-383.839 997.382,-393.504 972.761,-370.791 946,-402.839 922.531,-430.946 912.694,-1614.43 911.203,-1813.54"/>
<polygon fill="green" stroke="green" points="907.702,-1813.74 911.128,-1823.77 914.702,-1813.79 907.702,-1813.74"/>
<text text-anchor="middle" x="992" y="-406.639" font-family="Times,serif" font-size="14.00">reverse_dll</text>
</g>
<!-- q14&#45;&gt;q0 -->
<g id="edge118" class="edge"><title>q14&#45;&gt;q0</title>
<path fill="none" stroke="green" d="M1084.22,-363.803C1048.19,-357.717 965.157,-346.13 946,-364.839 919.07,-391.139 912.096,-1611.75 911.126,-1813.68"/>
<polygon fill="green" stroke="green" points="907.626,-1813.76 911.079,-1823.78 914.626,-1813.8 907.626,-1813.76"/>
<text text-anchor="middle" x="992" y="-368.639" font-family="Times,serif" font-size="14.00">remove_fw_link</text>
</g>
<!-- q14&#45;&gt;q0 -->
<g id="edge119" class="edge"><title>q14&#45;&gt;q0</title>
<path fill="none" stroke="green" d="M1086.72,-356.939C1056.33,-337.177 984.865,-297.867 946,-335.839 918.533,-362.675 912.003,-1608.53 911.114,-1813.45"/>
<polygon fill="green" stroke="green" points="907.613,-1813.68 911.071,-1823.69 914.613,-1813.71 907.613,-1813.68"/>
<text text-anchor="middle" x="992" y="-339.639" font-family="Times,serif" font-size="14.00">check_seq_next</text>
</g>
<!-- q14&#45;&gt;q0 -->
<g id="edge120" class="edge"><title>q14&#45;&gt;q0</title>
<path fill="none" stroke="green" d="M1091.83,-351.871C1081.15,-336.029 1061.88,-311.949 1038,-301.839 1000.35,-285.897 975.239,-273.257 946,-301.839 917.877,-329.33 911.884,-1607.2 911.098,-1813.77"/>
<polygon fill="green" stroke="green" points="907.598,-1813.81 911.061,-1823.82 914.598,-1813.83 907.598,-1813.81"/>
<text text-anchor="middle" x="992" y="-305.639" font-family="Times,serif" font-size="14.00">check_seq_prev</text>
</g>
<!-- q14&#45;&gt;q0 -->
<g id="edge121" class="edge"><title>q14&#45;&gt;q0</title>
<path fill="none" stroke="green" d="M1096.11,-349.795C1088.26,-326.015 1070.35,-283.787 1038,-265.839 1002.25,-246.002 975.232,-237.249 946,-265.839 917.212,-293.995 911.773,-1603.08 911.084,-1813.45"/>
<polygon fill="green" stroke="green" points="907.584,-1813.66 911.052,-1823.67 914.583,-1813.68 907.584,-1813.66"/>
<text text-anchor="middle" x="992" y="-269.639" font-family="Times,serif" font-size="14.00">Learn_Assert</text>
</g>
<!-- q14&#45;&gt;q13 -->
<g id="edge114" class="edge"><title>q14&#45;&gt;q13</title>
<path fill="none" stroke="green" d="M1120.19,-364.379C1151.48,-360.917 1218.14,-358.351 1258,-391.839 1304.18,-430.636 1316.56,-505.118 1319.84,-545.736"/>
<polygon fill="green" stroke="green" points="1316.36,-546.024 1320.52,-555.764 1323.34,-545.55 1316.36,-546.024"/>
<text text-anchor="middle" x="1212" y="-395.639" font-family="Times,serif" font-size="14.00">chain_node</text>
</g>
<!-- q15&#45;&gt;q0 -->
<g id="edge122" class="edge"><title>q15&#45;&gt;q0</title>
<path fill="none" stroke="green" d="M1969.36,-170.833C1957.65,-183.007 1938.44,-200.665 1918,-209.839 1854.4,-238.38 1832.71,-233.839 1763,-233.839 1211,-233.839 1211,-233.839 1211,-233.839 1152.07,-233.839 987.339,-201.841 946,-243.839 917.344,-272.952 911.791,-1601.22 911.086,-1813.4"/>
<polygon fill="green" stroke="green" points="907.585,-1813.69 911.053,-1823.7 914.585,-1813.71 907.585,-1813.69"/>
<text text-anchor="middle" x="1432" y="-237.639" font-family="Times,serif" font-size="14.00">chain_node</text>
</g>
<!-- q15&#45;&gt;q0 -->
<g id="edge123" class="edge"><title>q15&#45;&gt;q0</title>
<path fill="none" stroke="green" d="M1964.49,-162.729C1928.33,-172.993 1839.26,-195.839 1763,-195.839 1101,-195.839 1101,-195.839 1101,-195.839 1031.36,-195.839 992.054,-166.597 946,-218.839 918.536,-249.994 911.972,-1600.45 911.107,-1813.63"/>
<polygon fill="green" stroke="green" points="907.606,-1813.7 911.067,-1823.71 914.606,-1813.72 907.606,-1813.7"/>
<text text-anchor="middle" x="1432" y="-199.639" font-family="Times,serif" font-size="14.00">create_sll</text>
</g>
<!-- q15&#45;&gt;q0 -->
<g id="edge124" class="edge"><title>q15&#45;&gt;q0</title>
<path fill="none" stroke="green" d="M1963.76,-157.839C1926.91,-157.839 1837.75,-157.839 1763,-157.839 1101,-157.839 1101,-157.839 1101,-157.839 1031.15,-157.839 991.682,-130.997 946,-183.839 918.239,-215.952 911.921,-1596.73 911.1,-1813.37"/>
<polygon fill="green" stroke="green" points="907.599,-1813.59 911.062,-1823.6 914.599,-1813.62 907.599,-1813.59"/>
<text text-anchor="middle" x="1432" y="-161.639" font-family="Times,serif" font-size="14.00">init_back_link</text>
</g>
<!-- q15&#45;&gt;q0 -->
<g id="edge125" class="edge"><title>q15&#45;&gt;q0</title>
<path fill="none" stroke="green" d="M1964.49,-152.949C1928.33,-142.686 1839.26,-119.839 1763,-119.839 1101,-119.839 1101,-119.839 1101,-119.839 1031,-119.839 991.438,-94.5856 946,-147.839 917.806,-180.883 911.842,-1595.78 911.089,-1813.77"/>
<polygon fill="green" stroke="green" points="907.589,-1813.76 911.056,-1823.77 914.589,-1813.79 907.589,-1813.76"/>
<text text-anchor="middle" x="1432" y="-123.639" font-family="Times,serif" font-size="14.00">reverse_dll</text>
</g>
<!-- q15&#45;&gt;q0 -->
<g id="edge126" class="edge"><title>q15&#45;&gt;q0</title>
<path fill="none" stroke="green" d="M1966.6,-147.771C1954.21,-139.515 1935.61,-128.051 1918,-120.839 1852.26,-93.9135 1834.04,-81.8393 1763,-81.8393 1101,-81.8393 1101,-81.8393 1101,-81.8393 1030.92,-81.8393 991.312,-57.3728 946,-110.839 917.289,-144.718 911.758,-1591.92 911.079,-1813.5"/>
<polygon fill="green" stroke="green" points="907.579,-1813.66 911.049,-1823.67 914.579,-1813.68 907.579,-1813.66"/>
<text text-anchor="middle" x="1432" y="-85.6393" font-family="Times,serif" font-size="14.00">remove_fw_link</text>
</g>
<!-- q15&#45;&gt;q0 -->
<g id="edge128" class="edge"><title>q15&#45;&gt;q0</title>
<path fill="none" stroke="green" d="M1972.11,-142.645C1961.42,-125.721 1941.89,-98.7835 1918,-83.8393 1857.68,-46.1057 1834.15,-43.8393 1763,-43.8393 1101,-43.8393 1101,-43.8393 1101,-43.8393 1030.92,-43.8393 991.3,-19.363 946,-72.8393 916.636,-107.504 911.652,-1589.52 911.066,-1813.59"/>
<polygon fill="green" stroke="green" points="907.566,-1813.84 911.04,-1823.84 914.566,-1813.85 907.566,-1813.84"/>
<text text-anchor="middle" x="1432" y="-47.6393" font-family="Times,serif" font-size="14.00">check_seq_prev</text>
</g>
<!-- q15&#45;&gt;q0 -->
<g id="edge129" class="edge"><title>q15&#45;&gt;q0</title>
<path fill="none" stroke="green" d="M1976.38,-140.449C1968.68,-114.976 1950.75,-67.8404 1918,-42.8393 1861.7,0.133912 1833.82,-5.83929 1763,-5.83929 1101,-5.83929 1101,-5.83929 1101,-5.83929 1030.92,-5.83929 991.289,18.6464 946,-34.8393 915.982,-70.2901 911.549,-1587.18 911.054,-1813.67"/>
<polygon fill="green" stroke="green" points="907.554,-1813.74 911.033,-1823.75 914.554,-1813.76 907.554,-1813.74"/>
<text text-anchor="middle" x="1432" y="-9.63929" font-family="Times,serif" font-size="14.00">Learn_Assert</text>
</g>
<!-- q15&#45;&gt;q10 -->
<g id="edge127" class="edge"><title>q15&#45;&gt;q10</title>
<path fill="none" stroke="green" d="M1987.57,-175.001C2007.83,-251.603 2090.65,-570.16 2138,-835.839 2167.91,-1003.66 2189.1,-1207.41 2196.3,-1281.33"/>
<polygon fill="green" stroke="green" points="2192.86,-1282.04 2197.3,-1291.66 2199.82,-1281.37 2192.86,-1282.04"/>
<text text-anchor="middle" x="2092" y="-839.639" font-family="Times,serif" font-size="14.00">check_seq_next</text>
</g>
<!-- iq0 -->
<g id="node18" class="node"><title>iq0</title>
</g>
<!-- iq0&#45;&gt;q0 -->
<g id="edge1" class="edge"><title>iq0&#45;&gt;q0</title>
<path fill="none" stroke="blue" d="M409.12,-1712.82C499.751,-1709.77 799.212,-1704.13 874,-1758.84 891.679,-1771.77 900.489,-1795.4 904.844,-1814.15"/>
<polygon fill="blue" stroke="blue" points="901.417,-1814.85 906.833,-1823.96 908.277,-1813.46 901.417,-1814.85"/>
</g>
</g>
</svg>
