<?xml version="1.0" encoding="UTF-8" standalone="no"?>
<!DOCTYPE svg PUBLIC "-//W3C//DTD SVG 1.1//EN"
 "http://www.w3.org/Graphics/SVG/1.1/DTD/svg11.dtd">
<!-- Generated by graphviz version 2.34.0 (20141125.1709)
 -->
<!-- Title: finite_automaton Pages: 1 -->
<svg width="576pt" height="47pt"
 viewBox="0.00 0.00 576.00 47.28" xmlns="http://www.w3.org/2000/svg" xmlns:xlink="http://www.w3.org/1999/xlink">
<g id="graph0" class="graph" transform="scale(0.14961 0.14961) rotate(0) translate(4 312)">
<title>finite_automaton</title>
<polygon fill="white" stroke="white" points="-4,4 -4,-312 3846,-312 3846,4 -4,4"/>
<!-- dom_edges -->
<g id="node1" class="node"><title>dom_edges</title>
<polygon fill="none" stroke="green" points="764,-242 0,-242 0,-206 764,-206 764,-242"/>
<text text-anchor="middle" x="382" y="-220.3" font-family="Times,serif" font-size="14.00">Dominating edges: chain_node, create_sll, init_back_link, reverse_dll, remove_fw_link, check_seq_next, check_seq_prev, Learn_Assert</text>
</g>
<!-- q1 -->
<g id="node2" class="node"><title>q1</title>
<ellipse fill="none" stroke="green" cx="3820" cy="-161" rx="18" ry="18"/>
<ellipse fill="none" stroke="green" cx="3820" cy="-161" rx="22" ry="22"/>
<text text-anchor="middle" x="3820" y="-157.3" font-family="Times,serif" font-size="14.00">D</text>
</g>
<!-- q0 -->
<g id="node3" class="node"><title>q0</title>
<ellipse fill="none" stroke="green" cx="820" cy="-278" rx="18" ry="18"/>
</g>
<!-- q17 -->
<g id="node19" class="node"><title>q17</title>
<ellipse fill="none" stroke="green" cx="944" cy="-278" rx="18" ry="18"/>
</g>
<!-- q0&#45;&gt;q17 -->
<g id="edge2" class="edge"><title>q0&#45;&gt;q17</title>
<path fill="none" stroke="green" d="M838.221,-278C858.384,-278 892.036,-278 915.753,-278"/>
<polygon fill="green" stroke="green" points="915.867,-281.5 925.867,-278 915.867,-274.5 915.867,-281.5"/>
<text text-anchor="middle" x="882" y="-281.8" font-family="Times,serif" font-size="14.00">create_sll</text>
</g>
<!-- q2 -->
<g id="node4" class="node"><title>q2</title>
<ellipse fill="none" stroke="green" cx="3670" cy="-161" rx="18" ry="18"/>
</g>
<!-- q2&#45;&gt;q1 -->
<g id="edge3" class="edge"><title>q2&#45;&gt;q1</title>
<path fill="none" stroke="green" d="M3688.27,-161C3712.55,-161 3757.2,-161 3787.49,-161"/>
<polygon fill="green" stroke="green" points="3787.55,-164.5 3797.55,-161 3787.55,-157.5 3787.55,-164.5"/>
<text text-anchor="middle" x="3743" y="-164.8" font-family="Times,serif" font-size="14.00">Learn_Assert</text>
</g>
<!-- q3 -->
<g id="node5" class="node"><title>q3</title>
<ellipse fill="none" stroke="green" cx="3510" cy="-161" rx="18" ry="18"/>
</g>
<!-- q3&#45;&gt;q2 -->
<g id="edge4" class="edge"><title>q3&#45;&gt;q2</title>
<path fill="none" stroke="green" d="M3528.21,-161C3555.52,-161 3609.01,-161 3641.62,-161"/>
<polygon fill="green" stroke="green" points="3641.81,-164.5 3651.81,-161 3641.81,-157.5 3641.81,-164.5"/>
<text text-anchor="middle" x="3590" y="-164.8" font-family="Times,serif" font-size="14.00">check_seq_prev</text>
</g>
<!-- q4 -->
<g id="node6" class="node"><title>q4</title>
<ellipse fill="none" stroke="green" cx="3346" cy="-161" rx="18" ry="18"/>
</g>
<!-- q4&#45;&gt;q3 -->
<g id="edge5" class="edge"><title>q4&#45;&gt;q3</title>
<path fill="none" stroke="green" d="M3364.03,-161C3392.03,-161 3448.04,-161 3481.65,-161"/>
<polygon fill="green" stroke="green" points="3481.71,-164.5 3491.71,-161 3481.71,-157.5 3481.71,-164.5"/>
<text text-anchor="middle" x="3428" y="-164.8" font-family="Times,serif" font-size="14.00">remove_fw_link</text>
</g>
<!-- q5 -->
<g id="node7" class="node"><title>q5</title>
<ellipse fill="none" stroke="green" cx="3186" cy="-161" rx="18" ry="18"/>
</g>
<!-- q5&#45;&gt;q4 -->
<g id="edge6" class="edge"><title>q5&#45;&gt;q4</title>
<path fill="none" stroke="green" d="M3204.21,-161C3231.52,-161 3285.01,-161 3317.62,-161"/>
<polygon fill="green" stroke="green" points="3317.81,-164.5 3327.81,-161 3317.81,-157.5 3317.81,-164.5"/>
<text text-anchor="middle" x="3266" y="-164.8" font-family="Times,serif" font-size="14.00">check_seq_next</text>
</g>
<!-- q6 -->
<g id="node8" class="node"><title>q6</title>
<ellipse fill="none" stroke="green" cx="3026" cy="-161" rx="18" ry="18"/>
</g>
<!-- q6&#45;&gt;q5 -->
<g id="edge7" class="edge"><title>q6&#45;&gt;q5</title>
<path fill="none" stroke="green" d="M3044.21,-161C3071.52,-161 3125.01,-161 3157.62,-161"/>
<polygon fill="green" stroke="green" points="3157.81,-164.5 3167.81,-161 3157.81,-157.5 3157.81,-164.5"/>
<text text-anchor="middle" x="3106" y="-164.8" font-family="Times,serif" font-size="14.00">check_seq_prev</text>
</g>
<!-- q7 -->
<g id="node9" class="node"><title>q7</title>
<ellipse fill="none" stroke="green" cx="2892" cy="-161" rx="18" ry="18"/>
</g>
<!-- q7&#45;&gt;q6 -->
<g id="edge8" class="edge"><title>q7&#45;&gt;q6</title>
<path fill="none" stroke="green" d="M2910.26,-161C2932.49,-161 2971.4,-161 2997.68,-161"/>
<polygon fill="green" stroke="green" points="2997.74,-164.5 3007.74,-161 2997.74,-157.5 2997.74,-164.5"/>
<text text-anchor="middle" x="2959" y="-164.8" font-family="Times,serif" font-size="14.00">reverse_dll</text>
</g>
<!-- q8 -->
<g id="node10" class="node"><title>q8</title>
<ellipse fill="none" stroke="green" cx="2732" cy="-161" rx="18" ry="18"/>
</g>
<!-- q8&#45;&gt;q7 -->
<g id="edge9" class="edge"><title>q8&#45;&gt;q7</title>
<path fill="none" stroke="green" d="M2750.21,-161C2777.52,-161 2831.01,-161 2863.62,-161"/>
<polygon fill="green" stroke="green" points="2863.81,-164.5 2873.81,-161 2863.81,-157.5 2863.81,-164.5"/>
<text text-anchor="middle" x="2812" y="-164.8" font-family="Times,serif" font-size="14.00">check_seq_prev</text>
</g>
<!-- q9 -->
<g id="node11" class="node"><title>q9</title>
<ellipse fill="none" stroke="green" cx="2572" cy="-161" rx="18" ry="18"/>
</g>
<!-- q9&#45;&gt;q8 -->
<g id="edge10" class="edge"><title>q9&#45;&gt;q8</title>
<path fill="none" stroke="green" d="M2590.21,-161C2617.52,-161 2671.01,-161 2703.62,-161"/>
<polygon fill="green" stroke="green" points="2703.81,-164.5 2713.81,-161 2703.81,-157.5 2703.81,-164.5"/>
<text text-anchor="middle" x="2652" y="-164.8" font-family="Times,serif" font-size="14.00">check_seq_next</text>
</g>
<!-- q10 -->
<g id="node12" class="node"><title>q10</title>
<ellipse fill="none" stroke="green" cx="2420" cy="-161" rx="18" ry="18"/>
</g>
<!-- q10&#45;&gt;q9 -->
<g id="edge11" class="edge"><title>q10&#45;&gt;q9</title>
<path fill="none" stroke="green" d="M2438.21,-161C2464.09,-161 2513.27,-161 2543.97,-161"/>
<polygon fill="green" stroke="green" points="2543.99,-164.5 2553.99,-161 2543.99,-157.5 2543.99,-164.5"/>
<text text-anchor="middle" x="2496" y="-164.8" font-family="Times,serif" font-size="14.00">init_back_link</text>
</g>
<!-- q11 -->
<g id="node13" class="node"><title>q11</title>
<ellipse fill="none" stroke="black" cx="1810" cy="-115" rx="18" ry="18"/>
</g>
<!-- q11&#45;&gt;q10 -->
<g id="edge13" class="edge"><title>q11&#45;&gt;q10</title>
<path fill="none" stroke="green" d="M1828.17,-113.869C1898.29,-109.685 2169.39,-97.7512 2384,-147 2387.25,-147.747 2390.6,-148.751 2393.87,-149.882"/>
<polygon fill="green" stroke="green" points="2392.72,-153.187 2403.3,-153.517 2395.23,-146.655 2392.72,-153.187"/>
<text text-anchor="middle" x="2128" y="-120.8" font-family="Times,serif" font-size="14.00">check_seq_next</text>
</g>
<!-- q18 -->
<g id="node20" class="node"><title>q18</title>
<ellipse fill="none" stroke="black" cx="2022" cy="-69" rx="18" ry="18"/>
</g>
<!-- q11&#45;&gt;q18 -->
<g id="edge12" class="edge"><title>q11&#45;&gt;q18</title>
<path fill="none" stroke="green" d="M1825.99,-106.147C1838.01,-99.4799 1855.54,-90.7097 1872,-86 1913.24,-74.1988 1963.12,-70.5463 1993.43,-69.4419"/>
<polygon fill="green" stroke="green" points="1993.77,-72.9335 2003.66,-69.1399 1993.56,-65.9366 1993.77,-72.9335"/>
<text text-anchor="middle" x="1916" y="-89.8" font-family="Times,serif" font-size="14.00">chain_node</text>
</g>
<!-- q12 -->
<g id="node14" class="node"><title>q12</title>
<ellipse fill="none" stroke="black" cx="1624" cy="-158" rx="18" ry="18"/>
</g>
<!-- q12&#45;&gt;q10 -->
<g id="edge15" class="edge"><title>q12&#45;&gt;q10</title>
<path fill="none" stroke="green" d="M1642.25,-158.469C1674.83,-159.312 1747.66,-161 1809,-161 1809,-161 1809,-161 2235,-161 2290.58,-161 2355.61,-161 2391.57,-161"/>
<polygon fill="green" stroke="green" points="2391.75,-164.5 2401.75,-161 2391.75,-157.5 2391.75,-164.5"/>
<text text-anchor="middle" x="2022" y="-164.8" font-family="Times,serif" font-size="14.00">check_seq_next</text>
</g>
<!-- q12&#45;&gt;q11 -->
<g id="edge14" class="edge"><title>q12&#45;&gt;q11</title>
<path fill="none" stroke="green" d="M1637.63,-146.072C1643.88,-140.867 1651.83,-135.226 1660,-132 1700.11,-116.152 1750.7,-113.696 1781.41,-113.936"/>
<polygon fill="green" stroke="green" points="1781.71,-117.442 1791.77,-114.127 1781.84,-110.443 1781.71,-117.442"/>
<text text-anchor="middle" x="1704" y="-135.8" font-family="Times,serif" font-size="14.00">chain_node</text>
</g>
<!-- q13 -->
<g id="node15" class="node"><title>q13</title>
<ellipse fill="none" stroke="black" cx="1488" cy="-204" rx="18" ry="18"/>
</g>
<!-- q13&#45;&gt;q10 -->
<g id="edge17" class="edge"><title>q13&#45;&gt;q10</title>
<path fill="none" stroke="green" d="M1506.35,-204C1531.89,-204 1581.12,-204 1623,-204 1623,-204 1623,-204 2235,-204 2302.46,-204 2319.28,-194.057 2384,-175 2387.2,-174.057 2390.52,-172.934 2393.77,-171.741"/>
<polygon fill="green" stroke="green" points="2395.16,-174.959 2403.19,-168.056 2392.61,-168.439 2395.16,-174.959"/>
<text text-anchor="middle" x="1916" y="-207.8" font-family="Times,serif" font-size="14.00">check_seq_next</text>
</g>
<!-- q13&#45;&gt;q12 -->
<g id="edge16" class="edge"><title>q13&#45;&gt;q12</title>
<path fill="none" stroke="green" d="M1501.17,-191.196C1507.44,-185.355 1515.54,-178.89 1524,-175 1546.7,-164.563 1574.99,-160.484 1595.51,-158.915"/>
<polygon fill="green" stroke="green" points="1595.98,-162.393 1605.75,-158.29 1595.55,-155.406 1595.98,-162.393"/>
<text text-anchor="middle" x="1556" y="-178.8" font-family="Times,serif" font-size="14.00">chain_node</text>
</g>
<!-- q14 -->
<g id="node16" class="node"><title>q14</title>
<ellipse fill="none" stroke="black" cx="1352" cy="-247" rx="18" ry="18"/>
</g>
<!-- q14&#45;&gt;q10 -->
<g id="edge19" class="edge"><title>q14&#45;&gt;q10</title>
<path fill="none" stroke="green" d="M1370.34,-247.636C1395.88,-248.517 1445.11,-250 1487,-250 1487,-250 1487,-250 2235,-250 2304.57,-250 2326.11,-240.588 2384,-202 2391.23,-197.182 2397.82,-190.469 2403.28,-183.867"/>
<polygon fill="green" stroke="green" points="2406.23,-185.775 2409.56,-175.717 2400.68,-181.503 2406.23,-185.775"/>
<text text-anchor="middle" x="1810" y="-253.8" font-family="Times,serif" font-size="14.00">check_seq_next</text>
</g>
<!-- q14&#45;&gt;q13 -->
<g id="edge18" class="edge"><title>q14&#45;&gt;q13</title>
<path fill="none" stroke="green" d="M1365.71,-235.278C1371.98,-230.118 1379.93,-224.456 1388,-221 1410.97,-211.168 1439.23,-207.017 1459.67,-205.267"/>
<polygon fill="green" stroke="green" points="1460.13,-208.743 1469.86,-204.537 1459.63,-201.761 1460.13,-208.743"/>
<text text-anchor="middle" x="1420" y="-224.8" font-family="Times,serif" font-size="14.00">chain_node</text>
</g>
<!-- q15 -->
<g id="node17" class="node"><title>q15</title>
<ellipse fill="none" stroke="green" cx="1216" cy="-278" rx="18" ry="18"/>
</g>
<!-- q15&#45;&gt;q10 -->
<g id="edge21" class="edge"><title>q15&#45;&gt;q10</title>
<path fill="none" stroke="green" d="M1233.85,-281.108C1259.19,-285.502 1308.63,-293 1351,-293 1351,-293 1351,-293 2235,-293 2305.59,-293 2332.3,-286.059 2384,-238 2398.25,-224.753 2407.13,-204.592 2412.37,-188.222"/>
<polygon fill="green" stroke="green" points="2415.73,-189.196 2415.19,-178.615 2409.02,-187.228 2415.73,-189.196"/>
<text text-anchor="middle" x="1704" y="-296.8" font-family="Times,serif" font-size="14.00">check_seq_next</text>
</g>
<!-- q15&#45;&gt;q14 -->
<g id="edge20" class="edge"><title>q15&#45;&gt;q14</title>
<path fill="none" stroke="green" d="M1232.78,-270.866C1238.71,-268.406 1245.58,-265.814 1252,-264 1275.9,-257.25 1303.84,-252.749 1323.94,-250.084"/>
<polygon fill="green" stroke="green" points="1324.46,-253.546 1333.94,-248.822 1323.58,-246.601 1324.46,-253.546"/>
<text text-anchor="middle" x="1284" y="-267.8" font-family="Times,serif" font-size="14.00">chain_node</text>
</g>
<!-- q16 -->
<g id="node18" class="node"><title>q16</title>
<ellipse fill="none" stroke="green" cx="1080" cy="-278" rx="18" ry="18"/>
</g>
<!-- q16&#45;&gt;q15 -->
<g id="edge22" class="edge"><title>q16&#45;&gt;q15</title>
<path fill="none" stroke="green" d="M1098.24,-278C1120.86,-278 1160.8,-278 1187.58,-278"/>
<polygon fill="green" stroke="green" points="1187.82,-281.5 1197.82,-278 1187.82,-274.5 1187.82,-281.5"/>
<text text-anchor="middle" x="1148" y="-281.8" font-family="Times,serif" font-size="14.00">chain_node</text>
</g>
<!-- q17&#45;&gt;q16 -->
<g id="edge23" class="edge"><title>q17&#45;&gt;q16</title>
<path fill="none" stroke="green" d="M962.244,-278C984.858,-278 1024.8,-278 1051.58,-278"/>
<polygon fill="green" stroke="green" points="1051.82,-281.5 1061.82,-278 1051.82,-274.5 1051.82,-281.5"/>
<text text-anchor="middle" x="1012" y="-281.8" font-family="Times,serif" font-size="14.00">chain_node</text>
</g>
<!-- q18&#45;&gt;q10 -->
<g id="edge25" class="edge"><title>q18&#45;&gt;q10</title>
<path fill="none" stroke="green" d="M2040.3,-68.3908C2104.3,-66.4565 2326.94,-62.6619 2384,-101 2395.85,-108.961 2404.22,-122.386 2409.8,-134.521"/>
<polygon fill="green" stroke="green" points="2406.61,-135.965 2413.69,-143.847 2413.07,-133.271 2406.61,-135.965"/>
<text text-anchor="middle" x="2234" y="-78.8" font-family="Times,serif" font-size="14.00">check_seq_next</text>
</g>
<!-- q19 -->
<g id="node21" class="node"><title>q19</title>
<ellipse fill="none" stroke="black" cx="2234" cy="-18" rx="18" ry="18"/>
</g>
<!-- q18&#45;&gt;q19 -->
<g id="edge24" class="edge"><title>q18&#45;&gt;q19</title>
<path fill="none" stroke="green" d="M2038.67,-61.0973C2050.78,-55.2989 2068.09,-47.6541 2084,-43 2125.48,-30.8668 2175.29,-23.9958 2205.52,-20.6394"/>
<polygon fill="green" stroke="green" points="2206.15,-24.0928 2215.72,-19.5586 2205.41,-17.1317 2206.15,-24.0928"/>
<text text-anchor="middle" x="2128" y="-46.8" font-family="Times,serif" font-size="14.00">chain_node</text>
</g>
<!-- q19&#45;&gt;q10 -->
<g id="edge26" class="edge"><title>q19&#45;&gt;q10</title>
<path fill="none" stroke="green" d="M2252.16,-15.5432C2282.68,-12.2011 2346.68,-9.97622 2384,-43 2409.43,-65.5005 2416.78,-105.533 2418.69,-132.663"/>
<polygon fill="green" stroke="green" points="2415.2,-132.902 2419.19,-142.714 2422.19,-132.551 2415.2,-132.902"/>
<text text-anchor="middle" x="2340" y="-46.8" font-family="Times,serif" font-size="14.00">check_seq_next</text>
</g>
<!-- iq0 -->
<g id="node22" class="node"><title>iq0</title>
</g>
<!-- iq0&#45;&gt;q0 -->
<g id="edge1" class="edge"><title>iq0&#45;&gt;q0</title>
<path fill="none" stroke="blue" d="M409.292,-278C486.661,-278 713.031,-278 791.69,-278"/>
<polygon fill="blue" stroke="blue" points="791.778,-281.5 801.778,-278 791.778,-274.5 791.778,-281.5"/>
</g>
</g>
</svg>
