<?xml version="1.0" encoding="UTF-8" standalone="no"?>
<!DOCTYPE svg PUBLIC "-//W3C//DTD SVG 1.1//EN"
 "http://www.w3.org/Graphics/SVG/1.1/DTD/svg11.dtd">
<!-- Generated by graphviz version 2.34.0 (20141125.1709)
 -->
<!-- Title: finite_automaton Pages: 1 -->
<svg width="576pt" height="24pt"
 viewBox="0.00 0.00 576.00 24.32" xmlns="http://www.w3.org/2000/svg" xmlns:xlink="http://www.w3.org/1999/xlink">
<g id="graph0" class="graph" transform="scale(0.14739 0.14739) rotate(0) translate(4 161)">
<title>finite_automaton</title>
<polygon fill="white" stroke="white" points="-4,4 -4,-161 3904,-161 3904,4 -4,4"/>
<!-- dom_edges -->
<g id="node1" class="node"><title>dom_edges</title>
<polygon fill="none" stroke="green" points="1001.5,-71 0.5,-71 0.5,-35 1001.5,-35 1001.5,-71"/>
<text text-anchor="middle" x="501" y="-49.3" font-family="Times,serif" font-size="14.00">Dominating edges: Non_Crossing_Biased_Climb, ALIM, Inhibit_Biased_Climb, Non_Crossing_Biased_Descend, Own_Below_Threat, alt_sep_test, initialize, fake1, Learn_Assert</text>
</g>
<!-- q1 -->
<g id="node2" class="node"><title>q1</title>
<ellipse fill="none" stroke="green" cx="3878" cy="-40" rx="18" ry="18"/>
<ellipse fill="none" stroke="green" cx="3878" cy="-40" rx="22" ry="22"/>
<text text-anchor="middle" x="3878" y="-36.3" font-family="Times,serif" font-size="14.00">D</text>
</g>
<!-- q0 -->
<g id="node3" class="node"><title>q0</title>
<ellipse fill="none" stroke="green" cx="1058" cy="-107" rx="18" ry="18"/>
</g>
<!-- q16 -->
<g id="node18" class="node"><title>q16</title>
<ellipse fill="none" stroke="green" cx="1178" cy="-107" rx="18" ry="18"/>
</g>
<!-- q0&#45;&gt;q16 -->
<g id="edge2" class="edge"><title>q0&#45;&gt;q16</title>
<path fill="none" stroke="green" d="M1076.16,-107C1095.47,-107 1127.11,-107 1149.8,-107"/>
<polygon fill="green" stroke="green" points="1149.82,-110.5 1159.82,-107 1149.82,-103.5 1149.82,-110.5"/>
<text text-anchor="middle" x="1118" y="-110.8" font-family="Times,serif" font-size="14.00">initialize</text>
</g>
<!-- q2 -->
<g id="node4" class="node"><title>q2</title>
<ellipse fill="none" stroke="green" cx="3728" cy="-40" rx="18" ry="18"/>
</g>
<!-- q2&#45;&gt;q1 -->
<g id="edge3" class="edge"><title>q2&#45;&gt;q1</title>
<path fill="none" stroke="green" d="M3746.27,-40C3770.55,-40 3815.2,-40 3845.49,-40"/>
<polygon fill="green" stroke="green" points="3845.55,-43.5001 3855.55,-40 3845.55,-36.5001 3845.55,-43.5001"/>
<text text-anchor="middle" x="3801" y="-43.8" font-family="Times,serif" font-size="14.00">Learn_Assert</text>
</g>
<!-- q3 -->
<g id="node5" class="node"><title>q3</title>
<ellipse fill="none" stroke="black" cx="3582" cy="-70" rx="18" ry="18"/>
</g>
<!-- q3&#45;&gt;q2 -->
<g id="edge4" class="edge"><title>q3&#45;&gt;q2</title>
<path fill="none" stroke="green" d="M3599.8,-66.4999C3624.51,-61.3515 3670.91,-51.6859 3700.31,-45.5598"/>
<polygon fill="green" stroke="green" points="3701.23,-48.9439 3710.31,-43.4778 3699.8,-42.091 3701.23,-48.9439"/>
<text text-anchor="middle" x="3674" y="-57.8" font-family="Times,serif" font-size="14.00">ALIM</text>
</g>
<!-- q4 -->
<g id="node6" class="node"><title>q4</title>
<ellipse fill="none" stroke="black" cx="3440" cy="-72" rx="18" ry="18"/>
</g>
<!-- q4&#45;&gt;q3 -->
<g id="edge5" class="edge"><title>q4&#45;&gt;q3</title>
<path fill="none" stroke="green" d="M3458.17,-71.7548C3481.99,-71.4144 3525.34,-70.7951 3553.65,-70.3907"/>
<polygon fill="green" stroke="green" points="3553.74,-73.8898 3563.69,-70.2472 3553.64,-66.8905 3553.74,-73.8898"/>
<text text-anchor="middle" x="3492" y="-74.8" font-family="Times,serif" font-size="14.00">fake1</text>
</g>
<!-- q5 -->
<g id="node7" class="node"><title>q5</title>
<ellipse fill="none" stroke="black" cx="3256" cy="-27" rx="18" ry="18"/>
</g>
<!-- q5&#45;&gt;q4 -->
<g id="edge6" class="edge"><title>q5&#45;&gt;q4</title>
<path fill="none" stroke="green" d="M3273.72,-30.367C3311.59,-37.9969 3400.87,-56.0209 3404,-57 3407.38,-58.0582 3410.89,-59.3312 3414.31,-60.6826"/>
<polygon fill="green" stroke="green" points="3413,-63.9303 3423.58,-64.5858 3415.72,-57.479 3413,-63.9303"/>
<text text-anchor="middle" x="3348" y="-60.8" font-family="Times,serif" font-size="14.00">Own_Below_Threat</text>
</g>
<!-- q18 -->
<g id="node19" class="node"><title>q18</title>
<ellipse fill="none" stroke="black" cx="3440" cy="-18" rx="18" ry="18"/>
</g>
<!-- q5&#45;&gt;q18 -->
<g id="edge7" class="edge"><title>q5&#45;&gt;q18</title>
<path fill="none" stroke="black" d="M3273.61,-22.4257C3279.38,-21.0432 3285.93,-19.7055 3292,-19 3333.54,-14.1695 3382.14,-15.1136 3411.73,-16.4186"/>
<polygon fill="black" stroke="black" points="3411.57,-19.9147 3421.73,-16.9057 3411.91,-12.923 3411.57,-19.9147"/>
<text text-anchor="middle" x="3348" y="-22.8" font-family="Times,serif" font-size="14.00">Own_Above_Threat</text>
</g>
<!-- q6 -->
<g id="node8" class="node"><title>q6</title>
<ellipse fill="none" stroke="black" cx="3008" cy="-27" rx="18" ry="18"/>
</g>
<!-- q6&#45;&gt;q5 -->
<g id="edge8" class="edge"><title>q6&#45;&gt;q5</title>
<path fill="none" stroke="green" d="M3026.3,-27C3068.38,-27 3176.37,-27 3227.45,-27"/>
<polygon fill="green" stroke="green" points="3227.72,-30.5001 3237.72,-27 3227.72,-23.5001 3227.72,-30.5001"/>
<text text-anchor="middle" x="3132" y="-30.8" font-family="Times,serif" font-size="14.00">Non_Crossing_Biased_Descend</text>
</g>
<!-- q7 -->
<g id="node9" class="node"><title>q7</title>
<ellipse fill="none" stroke="black" cx="2824" cy="-30" rx="18" ry="18"/>
</g>
<!-- q7&#45;&gt;q6 -->
<g id="edge9" class="edge"><title>q7&#45;&gt;q6</title>
<path fill="none" stroke="green" d="M2842.12,-29.7178C2873.69,-29.1974 2941.33,-28.0825 2979.43,-27.4544"/>
<polygon fill="green" stroke="green" points="2979.85,-30.9481 2989.79,-27.2837 2979.73,-23.9491 2979.85,-30.9481"/>
<text text-anchor="middle" x="2916" y="-33.8" font-family="Times,serif" font-size="14.00">fake1</text>
</g>
<!-- q8 -->
<g id="node10" class="node"><title>q8</title>
<ellipse fill="none" stroke="black" cx="2538" cy="-84" rx="18" ry="18"/>
</g>
<!-- q8&#45;&gt;q7 -->
<g id="edge11" class="edge"><title>q8&#45;&gt;q7</title>
<path fill="none" stroke="green" d="M2555.42,-79.2715C2570.15,-75.1399 2592.4,-69.1671 2612,-65 2677.54,-51.0642 2755.53,-39.3841 2795.84,-33.7041"/>
<polygon fill="green" stroke="green" points="2796.52,-37.1433 2805.95,-32.296 2795.56,-30.2103 2796.52,-37.1433"/>
<text text-anchor="middle" x="2700" y="-68.8" font-family="Times,serif" font-size="14.00">Own_Below_Threat</text>
</g>
<!-- q21 -->
<g id="node22" class="node"><title>q21</title>
<ellipse fill="none" stroke="black" cx="2824" cy="-84" rx="18" ry="18"/>
</g>
<!-- q8&#45;&gt;q21 -->
<g id="edge10" class="edge"><title>q8&#45;&gt;q21</title>
<path fill="none" stroke="green" d="M2556.34,-84C2604.08,-84 2737.77,-84 2795.68,-84"/>
<polygon fill="green" stroke="green" points="2795.89,-87.5001 2805.89,-84 2795.89,-80.5001 2795.89,-87.5001"/>
<text text-anchor="middle" x="2700" y="-87.8" font-family="Times,serif" font-size="14.00">Non_Crossing_Biased_Descend</text>
</g>
<!-- q9 -->
<g id="node11" class="node"><title>q9</title>
<ellipse fill="none" stroke="black" cx="2392" cy="-84" rx="18" ry="18"/>
</g>
<!-- q9&#45;&gt;q8 -->
<g id="edge12" class="edge"><title>q9&#45;&gt;q8</title>
<path fill="none" stroke="green" d="M2410.08,-84C2434.66,-84 2480.25,-84 2509.57,-84"/>
<polygon fill="green" stroke="green" points="2509.94,-87.5001 2519.94,-84 2509.94,-80.5001 2509.94,-87.5001"/>
<text text-anchor="middle" x="2446" y="-87.8" font-family="Times,serif" font-size="14.00">ALIM</text>
</g>
<!-- q10 -->
<g id="node12" class="node"><title>q10</title>
<ellipse fill="none" stroke="black" cx="2284" cy="-84" rx="18" ry="18"/>
</g>
<!-- q10&#45;&gt;q9 -->
<g id="edge13" class="edge"><title>q10&#45;&gt;q9</title>
<path fill="none" stroke="green" d="M2302.03,-84C2318.62,-84 2344.12,-84 2363.57,-84"/>
<polygon fill="green" stroke="green" points="2363.66,-87.5001 2373.66,-84 2363.66,-80.5001 2363.66,-87.5001"/>
<text text-anchor="middle" x="2338" y="-87.8" font-family="Times,serif" font-size="14.00">fake1</text>
</g>
<!-- q11 -->
<g id="node13" class="node"><title>q11</title>
<ellipse fill="none" stroke="black" cx="2036" cy="-84" rx="18" ry="18"/>
</g>
<!-- q11&#45;&gt;q10 -->
<g id="edge14" class="edge"><title>q11&#45;&gt;q10</title>
<path fill="none" stroke="green" d="M2054.3,-84C2096.38,-84 2204.37,-84 2255.45,-84"/>
<polygon fill="green" stroke="green" points="2255.72,-87.5001 2265.72,-84 2255.72,-80.5001 2255.72,-87.5001"/>
<text text-anchor="middle" x="2160" y="-87.8" font-family="Times,serif" font-size="14.00">Own_Below_Threat</text>
</g>
<!-- q12 -->
<g id="node14" class="node"><title>q12</title>
<ellipse fill="none" stroke="black" cx="1928" cy="-84" rx="18" ry="18"/>
</g>
<!-- q12&#45;&gt;q11 -->
<g id="edge15" class="edge"><title>q12&#45;&gt;q11</title>
<path fill="none" stroke="green" d="M1946.03,-84C1962.62,-84 1988.12,-84 2007.57,-84"/>
<polygon fill="green" stroke="green" points="2007.66,-87.5001 2017.66,-84 2007.66,-80.5001 2007.66,-87.5001"/>
<text text-anchor="middle" x="1982" y="-87.8" font-family="Times,serif" font-size="14.00">fake1</text>
</g>
<!-- q13 -->
<g id="node15" class="node"><title>q13</title>
<ellipse fill="none" stroke="green" cx="1744" cy="-107" rx="18" ry="18"/>
</g>
<!-- q13&#45;&gt;q12 -->
<g id="edge16" class="edge"><title>q13&#45;&gt;q12</title>
<path fill="none" stroke="green" d="M1761.23,-101.668C1767.09,-99.9294 1773.79,-98.1516 1780,-97 1821.28,-89.349 1869.95,-86.1663 1899.63,-84.8665"/>
<polygon fill="green" stroke="green" points="1899.8,-88.3624 1909.66,-84.468 1899.53,-81.3679 1899.8,-88.3624"/>
<text text-anchor="middle" x="1836" y="-100.8" font-family="Times,serif" font-size="14.00">Own_Below_Threat</text>
</g>
<!-- q24 -->
<g id="node25" class="node"><title>q24</title>
<ellipse fill="none" stroke="black" cx="1928" cy="-138" rx="18" ry="18"/>
</g>
<!-- q13&#45;&gt;q24 -->
<g id="edge17" class="edge"><title>q13&#45;&gt;q24</title>
<path fill="none" stroke="black" d="M1761.8,-109.861C1793.41,-115.245 1861.98,-126.926 1900.09,-133.417"/>
<polygon fill="black" stroke="black" points="1899.53,-136.872 1909.98,-135.101 1900.71,-129.972 1899.53,-136.872"/>
<text text-anchor="middle" x="1836" y="-134.8" font-family="Times,serif" font-size="14.00">Own_Above_Threat</text>
</g>
<!-- q14 -->
<g id="node16" class="node"><title>q14</title>
<ellipse fill="none" stroke="green" cx="1550" cy="-107" rx="18" ry="18"/>
</g>
<!-- q14&#45;&gt;q13 -->
<g id="edge18" class="edge"><title>q14&#45;&gt;q13</title>
<path fill="none" stroke="green" d="M1568.04,-107C1601.41,-107 1675.64,-107 1715.85,-107"/>
<polygon fill="green" stroke="green" points="1716,-110.5 1726,-107 1716,-103.5 1716,-110.5"/>
<text text-anchor="middle" x="1647" y="-110.8" font-family="Times,serif" font-size="14.00">Inhibit_Biased_Climb</text>
</g>
<!-- q15 -->
<g id="node17" class="node"><title>q15</title>
<ellipse fill="none" stroke="green" cx="1314" cy="-107" rx="18" ry="18"/>
</g>
<!-- q15&#45;&gt;q14 -->
<g id="edge19" class="edge"><title>q15&#45;&gt;q14</title>
<path fill="none" stroke="green" d="M1332.21,-107C1372.44,-107 1472.92,-107 1521.65,-107"/>
<polygon fill="green" stroke="green" points="1521.77,-110.5 1531.77,-107 1521.77,-103.5 1521.77,-110.5"/>
<text text-anchor="middle" x="1432" y="-110.8" font-family="Times,serif" font-size="14.00">Non_Crossing_Biased_Climb</text>
</g>
<!-- q16&#45;&gt;q15 -->
<g id="edge20" class="edge"><title>q16&#45;&gt;q15</title>
<path fill="none" stroke="green" d="M1196.24,-107C1218.86,-107 1258.8,-107 1285.58,-107"/>
<polygon fill="green" stroke="green" points="1285.82,-110.5 1295.82,-107 1285.82,-103.5 1285.82,-110.5"/>
<text text-anchor="middle" x="1246" y="-110.8" font-family="Times,serif" font-size="14.00">alt_sep_test</text>
</g>
<!-- q18&#45;&gt;q2 -->
<g id="edge21" class="edge"><title>q18&#45;&gt;q2</title>
<path fill="none" stroke="black" d="M3458.16,-18.3904C3492.42,-19.2757 3571.68,-21.8562 3638,-28 3658.83,-29.9293 3682.27,-33.1321 3699.86,-35.7437"/>
<polygon fill="black" stroke="black" points="3699.57,-39.24 3709.99,-37.2767 3700.62,-32.3189 3699.57,-39.24"/>
<text text-anchor="middle" x="3582" y="-31.8" font-family="Times,serif" font-size="14.00">Own_Above_Threat</text>
</g>
<!-- q19 -->
<g id="node20" class="node"><title>q19</title>
<ellipse fill="none" stroke="black" cx="3256" cy="-94" rx="18" ry="18"/>
</g>
<!-- q19&#45;&gt;q18 -->
<g id="edge22" class="edge"><title>q19&#45;&gt;q18</title>
<path fill="none" stroke="green" d="M3273.97,-95.7278C3303.05,-97.819 3363.21,-98.2668 3404,-72 3404.81,-71.4772 3414.96,-55.7599 3424.12,-41.4175"/>
<polygon fill="green" stroke="green" points="3427.18,-43.1271 3429.61,-32.8131 3421.28,-39.3648 3427.18,-43.1271"/>
<text text-anchor="middle" x="3348" y="-99.8" font-family="Times,serif" font-size="14.00">ALIM</text>
</g>
<!-- q20 -->
<g id="node21" class="node"><title>q20</title>
<ellipse fill="none" stroke="black" cx="3008" cy="-135" rx="18" ry="18"/>
</g>
<!-- q20&#45;&gt;q19 -->
<g id="edge23" class="edge"><title>q20&#45;&gt;q19</title>
<path fill="none" stroke="green" d="M3025.99,-134.525C3062.25,-133.16 3149.63,-128.004 3220,-109 3223.42,-108.076 3226.95,-106.881 3230.38,-105.568"/>
<polygon fill="green" stroke="green" points="3231.78,-108.777 3239.66,-101.689 3229.08,-102.319 3231.78,-108.777"/>
<text text-anchor="middle" x="3132" y="-136.8" font-family="Times,serif" font-size="14.00">fake1</text>
</g>
<!-- q21&#45;&gt;q20 -->
<g id="edge24" class="edge"><title>q21&#45;&gt;q20</title>
<path fill="none" stroke="green" d="M2841.83,-86.9626C2877.82,-93.3496 2959.97,-108.224 2972,-113 2976.13,-114.639 2980.3,-116.771 2984.27,-119.061"/>
<polygon fill="green" stroke="green" points="2982.66,-122.187 2992.99,-124.538 2986.38,-116.258 2982.66,-122.187"/>
<text text-anchor="middle" x="2916" y="-116.8" font-family="Times,serif" font-size="14.00">Own_Below_Threat</text>
</g>
<!-- q25 -->
<g id="node26" class="node"><title>q25</title>
<ellipse fill="none" stroke="black" cx="3008" cy="-81" rx="18" ry="18"/>
</g>
<!-- q21&#45;&gt;q25 -->
<g id="edge25" class="edge"><title>q21&#45;&gt;q25</title>
<path fill="none" stroke="black" d="M2841.57,-78.8288C2847.34,-77.2715 2853.9,-75.7717 2860,-75 2909.38,-68.7522 2922.4,-70.7795 2972,-75 2974.58,-75.2195 2977.26,-75.5285 2979.93,-75.8917"/>
<polygon fill="black" stroke="black" points="2979.56,-79.3774 2989.98,-77.4865 2980.66,-72.4638 2979.56,-79.3774"/>
<text text-anchor="middle" x="2916" y="-78.8" font-family="Times,serif" font-size="14.00">Own_Above_Threat</text>
</g>
<!-- q22 -->
<g id="node23" class="node"><title>q22</title>
<ellipse fill="none" stroke="black" cx="2338" cy="-138" rx="18" ry="18"/>
</g>
<!-- q22&#45;&gt;q20 -->
<g id="edge26" class="edge"><title>q22&#45;&gt;q20</title>
<path fill="none" stroke="green" d="M2356.25,-139.051C2377.22,-140.236 2413.69,-142 2445,-142 2445,-142 2445,-142 2825,-142 2880.02,-142 2944.33,-138.766 2979.88,-136.695"/>
<polygon fill="green" stroke="green" points="2980.17,-140.183 2989.95,-136.094 2979.76,-133.196 2980.17,-140.183"/>
<text text-anchor="middle" x="2538" y="-145.8" font-family="Times,serif" font-size="14.00">Own_Below_Threat</text>
</g>
<!-- q23 -->
<g id="node24" class="node"><title>q23</title>
<ellipse fill="none" stroke="black" cx="2036" cy="-138" rx="18" ry="18"/>
</g>
<!-- q23&#45;&gt;q22 -->
<g id="edge27" class="edge"><title>q23&#45;&gt;q22</title>
<path fill="none" stroke="green" d="M2054.43,-138C2104.46,-138 2248.85,-138 2309.58,-138"/>
<polygon fill="green" stroke="green" points="2309.9,-141.5 2319.9,-138 2309.9,-134.5 2309.9,-141.5"/>
<text text-anchor="middle" x="2160" y="-141.8" font-family="Times,serif" font-size="14.00">Non_Crossing_Biased_Descend</text>
</g>
<!-- q24&#45;&gt;q23 -->
<g id="edge28" class="edge"><title>q24&#45;&gt;q23</title>
<path fill="none" stroke="green" d="M1946.03,-138C1962.62,-138 1988.12,-138 2007.57,-138"/>
<polygon fill="green" stroke="green" points="2007.66,-141.5 2017.66,-138 2007.66,-134.5 2007.66,-141.5"/>
<text text-anchor="middle" x="1982" y="-141.8" font-family="Times,serif" font-size="14.00">ALIM</text>
</g>
<!-- q25&#45;&gt;q19 -->
<g id="edge29" class="edge"><title>q25&#45;&gt;q19</title>
<path fill="none" stroke="black" d="M3026.3,-81.9141C3068.38,-84.1379 3176.37,-89.8448 3227.45,-92.5439"/>
<polygon fill="black" stroke="black" points="3227.55,-96.0542 3237.72,-93.0869 3227.92,-89.0639 3227.55,-96.0542"/>
<text text-anchor="middle" x="3132" y="-95.8" font-family="Times,serif" font-size="14.00">Own_Above_Threat</text>
</g>
<!-- iq0 -->
<g id="node27" class="node"><title>iq0</title>
</g>
<!-- iq0&#45;&gt;q0 -->
<g id="edge1" class="edge"><title>iq0&#45;&gt;q0</title>
<path fill="none" stroke="blue" d="M528.024,-107C620.79,-107 934.79,-107 1029.64,-107"/>
<polygon fill="blue" stroke="blue" points="1029.85,-110.5 1039.85,-107 1029.85,-103.5 1029.85,-110.5"/>
</g>
</g>
</svg>
