<?xml version="1.0" encoding="UTF-8" standalone="no"?>
<!DOCTYPE svg PUBLIC "-//W3C//DTD SVG 1.1//EN"
 "http://www.w3.org/Graphics/SVG/1.1/DTD/svg11.dtd">
<!-- Generated by graphviz version 2.34.0 (20141125.1709)
 -->
<!-- Title: finite_automaton Pages: 1 -->
<svg width="576pt" height="25pt"
 viewBox="0.00 0.00 576.00 25.16" xmlns="http://www.w3.org/2000/svg" xmlns:xlink="http://www.w3.org/1999/xlink">
<g id="graph0" class="graph" transform="scale(0.144578 0.144578) rotate(0) translate(4 170)">
<title>finite_automaton</title>
<polygon fill="white" stroke="white" points="-4,4 -4,-170 3980,-170 3980,4 -4,4"/>
<!-- dom_edges -->
<g id="node1" class="node"><title>dom_edges</title>
<polygon fill="none" stroke="green" points="1001.5,-77 0.5,-77 0.5,-41 1001.5,-41 1001.5,-77"/>
<text text-anchor="middle" x="501" y="-55.3" font-family="Times,serif" font-size="14.00">Dominating edges: Non_Crossing_Biased_Descend, Own_Below_Threat, alt_sep_test, ALIM, Inhibit_Biased_Climb, Non_Crossing_Biased_Climb, initialize, fake1, Learn_Assert</text>
</g>
<!-- q1 -->
<g id="node2" class="node"><title>q1</title>
<ellipse fill="none" stroke="green" cx="3954" cy="-51" rx="18" ry="18"/>
<ellipse fill="none" stroke="green" cx="3954" cy="-51" rx="22" ry="22"/>
<text text-anchor="middle" x="3954" y="-47.3" font-family="Times,serif" font-size="14.00">D</text>
</g>
<!-- q0 -->
<g id="node3" class="node"><title>q0</title>
<ellipse fill="none" stroke="green" cx="1058" cy="-113" rx="18" ry="18"/>
</g>
<!-- q12 -->
<g id="node14" class="node"><title>q12</title>
<ellipse fill="none" stroke="green" cx="1178" cy="-113" rx="18" ry="18"/>
</g>
<!-- q0&#45;&gt;q12 -->
<g id="edge2" class="edge"><title>q0&#45;&gt;q12</title>
<path fill="none" stroke="green" d="M1076.16,-113C1095.47,-113 1127.11,-113 1149.8,-113"/>
<polygon fill="green" stroke="green" points="1149.82,-116.5 1159.82,-113 1149.82,-109.5 1149.82,-116.5"/>
<text text-anchor="middle" x="1118" y="-116.8" font-family="Times,serif" font-size="14.00">initialize</text>
</g>
<!-- q2 -->
<g id="node4" class="node"><title>q2</title>
<ellipse fill="none" stroke="green" cx="3804" cy="-51" rx="18" ry="18"/>
</g>
<!-- q2&#45;&gt;q1 -->
<g id="edge3" class="edge"><title>q2&#45;&gt;q1</title>
<path fill="none" stroke="green" d="M3822.27,-51C3846.55,-51 3891.2,-51 3921.49,-51"/>
<polygon fill="green" stroke="green" points="3921.55,-54.5001 3931.55,-51 3921.55,-47.5001 3921.55,-54.5001"/>
<text text-anchor="middle" x="3877" y="-54.8" font-family="Times,serif" font-size="14.00">Learn_Assert</text>
</g>
<!-- q3 -->
<g id="node5" class="node"><title>q3</title>
<ellipse fill="none" stroke="black" cx="3516" cy="-72" rx="18" ry="18"/>
</g>
<!-- q3&#45;&gt;q2 -->
<g id="edge4" class="edge"><title>q3&#45;&gt;q2</title>
<path fill="none" stroke="black" d="M3534.12,-71.8794C3574.83,-71.4112 3680.54,-69.1277 3768,-58 3770.73,-57.6527 3773.57,-57.2152 3776.39,-56.7294"/>
<polygon fill="black" stroke="black" points="3777.18,-60.1423 3786.34,-54.832 3775.87,-53.266 3777.18,-60.1423"/>
<text text-anchor="middle" x="3658" y="-73.8" font-family="Times,serif" font-size="14.00">Own_Above_Threat</text>
</g>
<!-- q4 -->
<g id="node6" class="node"><title>q4</title>
<ellipse fill="none" stroke="black" cx="3332" cy="-94" rx="18" ry="18"/>
</g>
<!-- q4&#45;&gt;q3 -->
<g id="edge5" class="edge"><title>q4&#45;&gt;q3</title>
<path fill="none" stroke="green" d="M3350.12,-91.9303C3381.77,-88.1043 3449.67,-79.8968 3487.72,-75.2972"/>
<polygon fill="green" stroke="green" points="3488.55,-78.723 3498.06,-74.0482 3487.71,-71.7736 3488.55,-78.723"/>
<text text-anchor="middle" x="3424" y="-92.8" font-family="Times,serif" font-size="14.00">ALIM</text>
</g>
<!-- q5 -->
<g id="node7" class="node"><title>q5</title>
<ellipse fill="none" stroke="black" cx="3084" cy="-135" rx="18" ry="18"/>
</g>
<!-- q5&#45;&gt;q4 -->
<g id="edge6" class="edge"><title>q5&#45;&gt;q4</title>
<path fill="none" stroke="green" d="M3101.99,-134.525C3138.25,-133.16 3225.63,-128.004 3296,-109 3299.42,-108.076 3302.95,-106.881 3306.38,-105.568"/>
<polygon fill="green" stroke="green" points="3307.78,-108.777 3315.66,-101.689 3305.08,-102.319 3307.78,-108.777"/>
<text text-anchor="middle" x="3208" y="-136.8" font-family="Times,serif" font-size="14.00">fake1</text>
</g>
<!-- q6 -->
<g id="node8" class="node"><title>q6</title>
<ellipse fill="none" stroke="black" cx="2414" cy="-148" rx="18" ry="18"/>
</g>
<!-- q6&#45;&gt;q5 -->
<g id="edge7" class="edge"><title>q6&#45;&gt;q5</title>
<path fill="none" stroke="green" d="M2432.26,-148C2453.24,-148 2489.72,-148 2521,-148 2521,-148 2521,-148 2901,-148 2956.12,-148 3020.39,-141.994 3055.91,-138.147"/>
<polygon fill="green" stroke="green" points="3056.41,-141.613 3065.97,-137.031 3055.64,-134.655 3056.41,-141.613"/>
<text text-anchor="middle" x="2614" y="-151.8" font-family="Times,serif" font-size="14.00">Own_Below_Threat</text>
</g>
<!-- q7 -->
<g id="node9" class="node"><title>q7</title>
<ellipse fill="none" stroke="black" cx="2128" cy="-146" rx="18" ry="18"/>
</g>
<!-- q7&#45;&gt;q6 -->
<g id="edge8" class="edge"><title>q7&#45;&gt;q6</title>
<path fill="none" stroke="green" d="M2146.34,-146.122C2194.08,-146.458 2327.77,-147.4 2385.68,-147.808"/>
<polygon fill="green" stroke="green" points="2385.86,-151.309 2395.89,-147.879 2385.91,-144.309 2385.86,-151.309"/>
<text text-anchor="middle" x="2290" y="-150.8" font-family="Times,serif" font-size="14.00">Non_Crossing_Biased_Descend</text>
</g>
<!-- q8 -->
<g id="node10" class="node"><title>q8</title>
<ellipse fill="none" stroke="black" cx="1982" cy="-137" rx="18" ry="18"/>
</g>
<!-- q8&#45;&gt;q7 -->
<g id="edge9" class="edge"><title>q8&#45;&gt;q7</title>
<path fill="none" stroke="green" d="M2000.08,-138.068C2024.66,-139.604 2070.25,-142.453 2099.57,-144.286"/>
<polygon fill="green" stroke="green" points="2099.74,-147.803 2109.94,-144.934 2100.18,-140.817 2099.74,-147.803"/>
<text text-anchor="middle" x="2036" y="-144.8" font-family="Times,serif" font-size="14.00">ALIM</text>
</g>
<!-- q9 -->
<g id="node11" class="node"><title>q9</title>
<ellipse fill="none" stroke="green" cx="1744" cy="-113" rx="18" ry="18"/>
</g>
<!-- q9&#45;&gt;q8 -->
<g id="edge11" class="edge"><title>q9&#45;&gt;q8</title>
<path fill="none" stroke="black" d="M1761.97,-114.726C1802.36,-118.833 1904.45,-129.215 1953.66,-134.219"/>
<polygon fill="black" stroke="black" points="1953.56,-137.728 1963.86,-135.257 1954.27,-130.764 1953.56,-137.728"/>
<text text-anchor="middle" x="1836" y="-130.8" font-family="Times,serif" font-size="14.00">Own_Above_Threat</text>
</g>
<!-- q18 -->
<g id="node20" class="node"><title>q18</title>
<ellipse fill="none" stroke="black" cx="1928" cy="-86" rx="18" ry="18"/>
</g>
<!-- q9&#45;&gt;q18 -->
<g id="edge10" class="edge"><title>q9&#45;&gt;q18</title>
<path fill="none" stroke="green" d="M1760.71,-105.579C1766.63,-103.088 1773.51,-100.55 1780,-99 1821.06,-89.1973 1870.16,-86.6278 1899.94,-86.0414"/>
<polygon fill="green" stroke="green" points="1900.04,-89.5405 1909.99,-85.9053 1899.94,-82.5411 1900.04,-89.5405"/>
<text text-anchor="middle" x="1836" y="-102.8" font-family="Times,serif" font-size="14.00">Own_Below_Threat</text>
</g>
<!-- q10 -->
<g id="node12" class="node"><title>q10</title>
<ellipse fill="none" stroke="green" cx="1550" cy="-113" rx="18" ry="18"/>
</g>
<!-- q10&#45;&gt;q9 -->
<g id="edge12" class="edge"><title>q10&#45;&gt;q9</title>
<path fill="none" stroke="green" d="M1568.04,-113C1601.41,-113 1675.64,-113 1715.85,-113"/>
<polygon fill="green" stroke="green" points="1716,-116.5 1726,-113 1716,-109.5 1716,-116.5"/>
<text text-anchor="middle" x="1647" y="-116.8" font-family="Times,serif" font-size="14.00">Inhibit_Biased_Climb</text>
</g>
<!-- q11 -->
<g id="node13" class="node"><title>q11</title>
<ellipse fill="none" stroke="green" cx="1314" cy="-113" rx="18" ry="18"/>
</g>
<!-- q11&#45;&gt;q10 -->
<g id="edge13" class="edge"><title>q11&#45;&gt;q10</title>
<path fill="none" stroke="green" d="M1332.21,-113C1372.44,-113 1472.92,-113 1521.65,-113"/>
<polygon fill="green" stroke="green" points="1521.77,-116.5 1531.77,-113 1521.77,-109.5 1521.77,-116.5"/>
<text text-anchor="middle" x="1432" y="-116.8" font-family="Times,serif" font-size="14.00">Non_Crossing_Biased_Climb</text>
</g>
<!-- q12&#45;&gt;q11 -->
<g id="edge14" class="edge"><title>q12&#45;&gt;q11</title>
<path fill="none" stroke="green" d="M1196.24,-113C1218.86,-113 1258.8,-113 1285.58,-113"/>
<polygon fill="green" stroke="green" points="1285.82,-116.5 1295.82,-113 1285.82,-109.5 1285.82,-116.5"/>
<text text-anchor="middle" x="1246" y="-116.8" font-family="Times,serif" font-size="14.00">alt_sep_test</text>
</g>
<!-- q13 -->
<g id="node15" class="node"><title>q13</title>
<ellipse fill="none" stroke="black" cx="2900" cy="-81" rx="18" ry="18"/>
</g>
<!-- q13&#45;&gt;q5 -->
<g id="edge15" class="edge"><title>q13&#45;&gt;q5</title>
<path fill="none" stroke="green" d="M2916.43,-88.41C2922.43,-91.0827 2929.44,-93.9438 2936,-96 2984.49,-111.198 2999.69,-103.224 3048,-119 3051.41,-120.112 3054.92,-121.461 3058.35,-122.897"/>
<polygon fill="green" stroke="green" points="3057.07,-126.157 3067.62,-127.058 3059.93,-119.771 3057.07,-126.157"/>
<text text-anchor="middle" x="2992" y="-122.8" font-family="Times,serif" font-size="14.00">Own_Below_Threat</text>
</g>
<!-- q25 -->
<g id="node26" class="node"><title>q25</title>
<ellipse fill="none" stroke="black" cx="3084" cy="-81" rx="18" ry="18"/>
</g>
<!-- q13&#45;&gt;q25 -->
<g id="edge16" class="edge"><title>q13&#45;&gt;q25</title>
<path fill="none" stroke="black" d="M2918.12,-81C2949.69,-81 3017.33,-81 3055.43,-81"/>
<polygon fill="black" stroke="black" points="3055.79,-84.5001 3065.79,-81 3055.79,-77.5001 3055.79,-84.5001"/>
<text text-anchor="middle" x="2992" y="-84.8" font-family="Times,serif" font-size="14.00">Own_Above_Threat</text>
</g>
<!-- q14 -->
<g id="node16" class="node"><title>q14</title>
<ellipse fill="none" stroke="black" cx="2614" cy="-81" rx="18" ry="18"/>
</g>
<!-- q14&#45;&gt;q13 -->
<g id="edge17" class="edge"><title>q14&#45;&gt;q13</title>
<path fill="none" stroke="green" d="M2632.34,-81C2680.08,-81 2813.77,-81 2871.68,-81"/>
<polygon fill="green" stroke="green" points="2871.89,-84.5001 2881.89,-81 2871.89,-77.5001 2871.89,-84.5001"/>
<text text-anchor="middle" x="2776" y="-84.8" font-family="Times,serif" font-size="14.00">Non_Crossing_Biased_Descend</text>
</g>
<!-- q23 -->
<g id="node25" class="node"><title>q23</title>
<ellipse fill="none" stroke="black" cx="2900" cy="-27" rx="18" ry="18"/>
</g>
<!-- q14&#45;&gt;q23 -->
<g id="edge18" class="edge"><title>q14&#45;&gt;q23</title>
<path fill="none" stroke="green" d="M2631.42,-76.2715C2646.15,-72.1399 2668.4,-66.1671 2688,-62 2753.54,-48.0642 2831.53,-36.3841 2871.84,-30.7041"/>
<polygon fill="green" stroke="green" points="2872.52,-34.1433 2881.95,-29.296 2871.56,-27.2103 2872.52,-34.1433"/>
<text text-anchor="middle" x="2776" y="-65.8" font-family="Times,serif" font-size="14.00">Own_Below_Threat</text>
</g>
<!-- q15 -->
<g id="node17" class="node"><title>q15</title>
<ellipse fill="none" stroke="black" cx="2468" cy="-81" rx="18" ry="18"/>
</g>
<!-- q15&#45;&gt;q14 -->
<g id="edge19" class="edge"><title>q15&#45;&gt;q14</title>
<path fill="none" stroke="green" d="M2486.08,-81C2510.66,-81 2556.25,-81 2585.57,-81"/>
<polygon fill="green" stroke="green" points="2585.94,-84.5001 2595.94,-81 2585.94,-77.5001 2585.94,-84.5001"/>
<text text-anchor="middle" x="2522" y="-84.8" font-family="Times,serif" font-size="14.00">ALIM</text>
</g>
<!-- q16 -->
<g id="node18" class="node"><title>q16</title>
<ellipse fill="none" stroke="black" cx="2290" cy="-81" rx="18" ry="18"/>
</g>
<!-- q16&#45;&gt;q15 -->
<g id="edge20" class="edge"><title>q16&#45;&gt;q15</title>
<path fill="none" stroke="green" d="M2308.2,-81C2338.77,-81 2402.81,-81 2439.54,-81"/>
<polygon fill="green" stroke="green" points="2439.99,-84.5001 2449.99,-81 2439.99,-77.5001 2439.99,-84.5001"/>
<text text-anchor="middle" x="2414" y="-84.8" font-family="Times,serif" font-size="14.00">fake1</text>
</g>
<!-- q17 -->
<g id="node19" class="node"><title>q17</title>
<ellipse fill="none" stroke="black" cx="2036" cy="-84" rx="18" ry="18"/>
</g>
<!-- q17&#45;&gt;q16 -->
<g id="edge21" class="edge"><title>q17&#45;&gt;q16</title>
<path fill="none" stroke="green" d="M2054.32,-83.7938C2097.4,-83.2809 2209.67,-81.9444 2261.74,-81.3245"/>
<polygon fill="green" stroke="green" points="2261.93,-84.8226 2271.89,-81.2037 2261.85,-77.8231 2261.93,-84.8226"/>
<text text-anchor="middle" x="2128" y="-86.8" font-family="Times,serif" font-size="14.00">Own_Below_Threat</text>
</g>
<!-- q18&#45;&gt;q17 -->
<g id="edge22" class="edge"><title>q18&#45;&gt;q17</title>
<path fill="none" stroke="green" d="M1946.03,-85.6787C1962.62,-85.3656 1988.12,-84.8846 2007.57,-84.5176"/>
<polygon fill="green" stroke="green" points="2007.73,-88.0153 2017.66,-84.3272 2007.6,-81.0165 2007.73,-88.0153"/>
<text text-anchor="middle" x="1982" y="-88.8" font-family="Times,serif" font-size="14.00">fake1</text>
</g>
<!-- q19 -->
<g id="node21" class="node"><title>q19</title>
<ellipse fill="none" stroke="black" cx="3658" cy="-18" rx="18" ry="18"/>
</g>
<!-- q19&#45;&gt;q2 -->
<g id="edge23" class="edge"><title>q19&#45;&gt;q2</title>
<path fill="none" stroke="green" d="M3675.8,-21.8501C3700.51,-27.5134 3746.91,-38.1455 3776.31,-44.8843"/>
<polygon fill="green" stroke="green" points="3775.78,-48.3521 3786.31,-47.1744 3777.34,-41.529 3775.78,-48.3521"/>
<text text-anchor="middle" x="3750" y="-46.8" font-family="Times,serif" font-size="14.00">ALIM</text>
</g>
<!-- q20 -->
<g id="node22" class="node"><title>q20</title>
<ellipse fill="none" stroke="black" cx="3516" cy="-18" rx="18" ry="18"/>
</g>
<!-- q20&#45;&gt;q19 -->
<g id="edge24" class="edge"><title>q20&#45;&gt;q19</title>
<path fill="none" stroke="green" d="M3534.17,-18C3557.99,-18 3601.34,-18 3629.65,-18"/>
<polygon fill="green" stroke="green" points="3629.69,-21.5001 3639.69,-18 3629.69,-14.5001 3629.69,-21.5001"/>
<text text-anchor="middle" x="3568" y="-21.8" font-family="Times,serif" font-size="14.00">fake1</text>
</g>
<!-- q21 -->
<g id="node23" class="node"><title>q21</title>
<ellipse fill="none" stroke="black" cx="3332" cy="-27" rx="18" ry="18"/>
</g>
<!-- q21&#45;&gt;q3 -->
<g id="edge26" class="edge"><title>q21&#45;&gt;q3</title>
<path fill="none" stroke="black" d="M3349.72,-30.367C3387.59,-37.9969 3476.87,-56.0209 3480,-57 3483.38,-58.0582 3486.89,-59.3312 3490.31,-60.6826"/>
<polygon fill="black" stroke="black" points="3489,-63.9303 3499.58,-64.5858 3491.72,-57.479 3489,-63.9303"/>
<text text-anchor="middle" x="3424" y="-60.8" font-family="Times,serif" font-size="14.00">Own_Above_Threat</text>
</g>
<!-- q21&#45;&gt;q20 -->
<g id="edge25" class="edge"><title>q21&#45;&gt;q20</title>
<path fill="none" stroke="green" d="M3349.61,-22.4257C3355.38,-21.0432 3361.93,-19.7055 3368,-19 3409.54,-14.1695 3458.14,-15.1136 3487.73,-16.4186"/>
<polygon fill="green" stroke="green" points="3487.57,-19.9147 3497.73,-16.9057 3487.91,-12.923 3487.57,-19.9147"/>
<text text-anchor="middle" x="3424" y="-22.8" font-family="Times,serif" font-size="14.00">Own_Below_Threat</text>
</g>
<!-- q22 -->
<g id="node24" class="node"><title>q22</title>
<ellipse fill="none" stroke="black" cx="3084" cy="-27" rx="18" ry="18"/>
</g>
<!-- q22&#45;&gt;q21 -->
<g id="edge27" class="edge"><title>q22&#45;&gt;q21</title>
<path fill="none" stroke="green" d="M3102.3,-27C3144.38,-27 3252.37,-27 3303.45,-27"/>
<polygon fill="green" stroke="green" points="3303.72,-30.5001 3313.72,-27 3303.72,-23.5001 3303.72,-30.5001"/>
<text text-anchor="middle" x="3208" y="-30.8" font-family="Times,serif" font-size="14.00">Non_Crossing_Biased_Descend</text>
</g>
<!-- q23&#45;&gt;q22 -->
<g id="edge28" class="edge"><title>q23&#45;&gt;q22</title>
<path fill="none" stroke="green" d="M2918.12,-27C2949.69,-27 3017.33,-27 3055.43,-27"/>
<polygon fill="green" stroke="green" points="3055.79,-30.5001 3065.79,-27 3055.79,-23.5001 3055.79,-30.5001"/>
<text text-anchor="middle" x="2992" y="-30.8" font-family="Times,serif" font-size="14.00">fake1</text>
</g>
<!-- q25&#45;&gt;q4 -->
<g id="edge29" class="edge"><title>q25&#45;&gt;q4</title>
<path fill="none" stroke="black" d="M3102.3,-81.9141C3144.38,-84.1379 3252.37,-89.8448 3303.45,-92.5439"/>
<polygon fill="black" stroke="black" points="3303.55,-96.0542 3313.72,-93.0869 3303.92,-89.0639 3303.55,-96.0542"/>
<text text-anchor="middle" x="3208" y="-95.8" font-family="Times,serif" font-size="14.00">Own_Above_Threat</text>
</g>
<!-- iq0 -->
<g id="node27" class="node"><title>iq0</title>
</g>
<!-- iq0&#45;&gt;q0 -->
<g id="edge1" class="edge"><title>iq0&#45;&gt;q0</title>
<path fill="none" stroke="blue" d="M528.024,-113C620.79,-113 934.79,-113 1029.64,-113"/>
<polygon fill="blue" stroke="blue" points="1029.85,-116.5 1039.85,-113 1029.85,-109.5 1029.85,-116.5"/>
</g>
</g>
</svg>
