<?xml version="1.0" encoding="UTF-8" standalone="no"?>
<!DOCTYPE svg PUBLIC "-//W3C//DTD SVG 1.1//EN"
 "http://www.w3.org/Graphics/SVG/1.1/DTD/svg11.dtd">
<!-- Generated by graphviz version 2.34.0 (20141125.1709)
 -->
<!-- Title: finite_automaton Pages: 1 -->
<svg width="526pt" height="576pt"
 viewBox="0.00 0.00 526.32 576.00" xmlns="http://www.w3.org/2000/svg" xmlns:xlink="http://www.w3.org/1999/xlink">
<g id="graph0" class="graph" transform="scale(0.120165 0.120165) rotate(0) translate(4 4789.39)">
<title>finite_automaton</title>
<polygon fill="white" stroke="white" points="-4,4 -4,-4789.39 4376,-4789.39 4376,4 -4,4"/>
<!-- dom_edges -->
<g id="node1" class="node"><title>dom_edges</title>
<polygon fill="none" stroke="green" points="1120,-2113.39 0,-2113.39 0,-2077.39 1120,-2077.39 1120,-2113.39"/>
<text text-anchor="middle" x="560" y="-2091.69" font-family="Times,serif" font-size="14.00">Dominating edges: Non_Crossing_Biased_Descend, Own_Below_Threat, alt_sep_test, ALIM, Inhibit_Biased_Climb, Non_Crossing_Biased_Climb, Own_Above_Threat, initialize, fake1, Learn_Assert</text>
</g>
<!-- q1 -->
<g id="node2" class="node"><title>q1</title>
<ellipse fill="none" stroke="green" cx="560" cy="-2391.39" rx="18" ry="18"/>
<ellipse fill="none" stroke="green" cx="560" cy="-2391.39" rx="22" ry="22"/>
<text text-anchor="middle" x="560" y="-2387.69" font-family="Times,serif" font-size="14.00">D</text>
</g>
<!-- q0 -->
<g id="node3" class="node"><title>q0</title>
<ellipse fill="none" stroke="green" cx="1350" cy="-2334.39" rx="18" ry="18"/>
<text text-anchor="middle" x="1350" y="-2330.69" font-family="Times,serif" font-size="14.00">D</text>
</g>
<!-- q1&#45;&gt;q0 -->
<g id="edge13" class="edge"><title>q1&#45;&gt;q0</title>
<path fill="none" stroke="green" d="M578.307,-2403.79C667.752,-2466.27 1082.36,-2735.99 1314,-2540.39 1340.59,-2517.94 1346.98,-2413.44 1348.52,-2362.48"/>
<polygon fill="green" stroke="green" points="1352.02,-2362.56 1348.78,-2352.47 1345.02,-2362.38 1352.02,-2362.56"/>
<text text-anchor="middle" x="1226" y="-2611.19" font-family="Times,serif" font-size="14.00">Non_Crossing_Biased_Descend</text>
</g>
<!-- q1&#45;&gt;q0 -->
<g id="edge14" class="edge"><title>q1&#45;&gt;q0</title>
<path fill="none" stroke="green" d="M581.645,-2396.25C696.647,-2423.08 1255.18,-2550.22 1314,-2502.39 1335.31,-2485.06 1344.08,-2405.55 1347.32,-2362.42"/>
<polygon fill="green" stroke="green" points="1350.82,-2362.51 1348.03,-2352.29 1343.84,-2362.02 1350.82,-2362.51"/>
<text text-anchor="middle" x="1226" y="-2516.19" font-family="Times,serif" font-size="14.00">Own_Below_Threat</text>
</g>
<!-- q1&#45;&gt;q0 -->
<g id="edge15" class="edge"><title>q1&#45;&gt;q0</title>
<path fill="none" stroke="green" d="M581.99,-2395.12C697.657,-2415.42 1254.25,-2510.18 1314,-2464.39 1330.14,-2452.02 1340.51,-2396.41 1345.5,-2362.05"/>
<polygon fill="green" stroke="green" points="1348.96,-2362.53 1346.87,-2352.14 1342.03,-2361.57 1348.96,-2362.53"/>
<text text-anchor="middle" x="1226" y="-2480.19" font-family="Times,serif" font-size="14.00">alt_sep_test</text>
</g>
<!-- q1&#45;&gt;q0 -->
<g id="edge16" class="edge"><title>q1&#45;&gt;q0</title>
<path fill="none" stroke="green" d="M581.924,-2393.85C697.239,-2407.22 1252.25,-2468.97 1314,-2426.39 1334.58,-2412.2 1343.07,-2384.19 1346.56,-2362.78"/>
<polygon fill="green" stroke="green" points="1350.07,-2362.98 1347.94,-2352.6 1343.13,-2362.04 1350.07,-2362.98"/>
<text text-anchor="middle" x="1226" y="-2444.19" font-family="Times,serif" font-size="14.00">ALIM</text>
</g>
<!-- q1&#45;&gt;q0 -->
<g id="edge17" class="edge"><title>q1&#45;&gt;q0</title>
<path fill="none" stroke="green" d="M582.169,-2392.49C697.604,-2398.36 1248.31,-2424.26 1314,-2388.39 1325.15,-2382.3 1333.3,-2370.97 1338.91,-2360.25"/>
<polygon fill="green" stroke="green" points="1342.11,-2361.68 1343.21,-2351.14 1335.78,-2358.7 1342.11,-2361.68"/>
<text text-anchor="middle" x="1226" y="-2409.19" font-family="Times,serif" font-size="14.00">Inhibit_Biased_Climb</text>
</g>
<!-- q1&#45;&gt;q0 -->
<g id="edge18" class="edge"><title>q1&#45;&gt;q0</title>
<path fill="none" stroke="green" d="M582.308,-2390.71C697.298,-2386.94 1241.3,-2368.3 1314,-2350.39 1317.48,-2349.53 1321.04,-2348.33 1324.49,-2346.97"/>
<polygon fill="green" stroke="green" points="1326.05,-2350.11 1333.77,-2342.86 1323.21,-2343.71 1326.05,-2350.11"/>
<text text-anchor="middle" x="1226" y="-2369.19" font-family="Times,serif" font-size="14.00">Non_Crossing_Biased_Climb</text>
</g>
<!-- q1&#45;&gt;q0 -->
<g id="edge19" class="edge"><title>q1&#45;&gt;q0</title>
<path fill="none" stroke="green" d="M581.898,-2388.43C656.914,-2377.95 919.744,-2342.71 1138,-2331.39 1216.12,-2327.34 1235.85,-2328.05 1314,-2331.39 1316.56,-2331.5 1319.22,-2331.65 1321.88,-2331.84"/>
<polygon fill="green" stroke="green" points="1321.68,-2335.33 1331.93,-2332.63 1322.24,-2328.35 1321.68,-2335.33"/>
<text text-anchor="middle" x="1226" y="-2335.19" font-family="Times,serif" font-size="14.00">Own_Above_Threat</text>
</g>
<!-- q1&#45;&gt;q0 -->
<g id="edge20" class="edge"><title>q1&#45;&gt;q0</title>
<path fill="none" stroke="green" d="M581.845,-2387.34C656.682,-2373.03 918.986,-2324.88 1138,-2309.39 1216.03,-2303.87 1239.51,-2285.52 1314,-2309.39 1318.9,-2310.96 1323.69,-2313.5 1328.09,-2316.36"/>
<polygon fill="green" stroke="green" points="1326.32,-2319.4 1336.45,-2322.51 1330.47,-2313.77 1326.32,-2319.4"/>
<text text-anchor="middle" x="1226" y="-2313.19" font-family="Times,serif" font-size="14.00">initialize</text>
</g>
<!-- q1&#45;&gt;q0 -->
<g id="edge21" class="edge"><title>q1&#45;&gt;q0</title>
<path fill="none" stroke="black" d="M581.487,-2385.88C655.636,-2366.25 917.275,-2299.8 1138,-2278.39 1215.86,-2270.84 1245.58,-2240.47 1314,-2278.39 1325.67,-2284.86 1333.97,-2297.03 1339.54,-2308.37"/>
<polygon fill="black" stroke="black" points="1336.36,-2309.82 1343.6,-2317.56 1342.76,-2307 1336.36,-2309.82"/>
<text text-anchor="middle" x="1226" y="-2282.19" font-family="Times,serif" font-size="14.00">fake0</text>
</g>
<!-- q1&#45;&gt;q0 -->
<g id="edge22" class="edge"><title>q1&#45;&gt;q0</title>
<path fill="none" stroke="green" d="M580.817,-2384.21C653.716,-2358.24 914.37,-2269.17 1138,-2240.39 1215.58,-2230.41 1249.76,-2195.76 1314,-2240.39 1335.14,-2255.08 1343.54,-2284.14 1346.86,-2306.08"/>
<polygon fill="green" stroke="green" points="1343.41,-2306.7 1348.11,-2316.19 1350.35,-2305.84 1343.41,-2306.7"/>
<text text-anchor="middle" x="1226" y="-2244.19" font-family="Times,serif" font-size="14.00">fake1</text>
</g>
<!-- q1&#45;&gt;q0 -->
<g id="edge23" class="edge"><title>q1&#45;&gt;q0</title>
<path fill="none" stroke="green" d="M580.343,-2382.34C652.11,-2349.33 910.722,-2235.39 1138,-2198.39 1215.21,-2185.82 1252.18,-2150.47 1314,-2198.39 1330.89,-2211.49 1341.07,-2270.46 1345.8,-2306.31"/>
<polygon fill="green" stroke="green" points="1342.37,-2307.13 1347.09,-2316.61 1349.32,-2306.26 1342.37,-2307.13"/>
<text text-anchor="middle" x="1226" y="-2202.19" font-family="Times,serif" font-size="14.00">Learn_Assert</text>
</g>
<!-- q0&#45;&gt;q0 -->
<g id="edge2" class="edge"><title>q0&#45;&gt;q0</title>
<path fill="none" stroke="green" d="M1347.76,-2352.54C1347.41,-2361.93 1348.16,-2370.39 1350,-2370.39 1351.12,-2370.39 1351.84,-2367.25 1352.15,-2362.67"/>
<polygon fill="green" stroke="green" points="1355.65,-2362.58 1352.24,-2352.54 1348.65,-2362.51 1355.65,-2362.58"/>
<text text-anchor="middle" x="1350" y="-2374.19" font-family="Times,serif" font-size="14.00">Non_Crossing_Biased_Descend</text>
</g>
<!-- q0&#45;&gt;q0 -->
<g id="edge3" class="edge"><title>q0&#45;&gt;q0</title>
<path fill="none" stroke="green" d="M1346.3,-2352.09C1344.26,-2369.39 1345.5,-2388.39 1350,-2388.39 1353.62,-2388.39 1355.13,-2376.09 1354.52,-2362.27"/>
<polygon fill="green" stroke="green" points="1357.99,-2361.78 1353.7,-2352.09 1351.01,-2362.34 1357.99,-2361.78"/>
<text text-anchor="middle" x="1350" y="-2392.19" font-family="Times,serif" font-size="14.00">Own_Below_Threat</text>
</g>
<!-- q0&#45;&gt;q0 -->
<g id="edge4" class="edge"><title>q0&#45;&gt;q0</title>
<path fill="none" stroke="green" d="M1345.36,-2352.11C1341.11,-2376.51 1342.66,-2406.39 1350,-2406.39 1356.36,-2406.39 1358.37,-2383.92 1356.03,-2362.04"/>
<polygon fill="green" stroke="green" points="1359.49,-2361.53 1354.64,-2352.11 1352.56,-2362.49 1359.49,-2361.53"/>
<text text-anchor="middle" x="1350" y="-2410.19" font-family="Times,serif" font-size="14.00">alt_sep_test</text>
</g>
<!-- q0&#45;&gt;q0 -->
<g id="edge5" class="edge"><title>q0&#45;&gt;q0</title>
<path fill="none" stroke="green" d="M1344.71,-2352.06C1337.97,-2383.24 1339.73,-2424.39 1350,-2424.39 1359.19,-2424.39 1361.57,-2391.47 1357.14,-2362.2"/>
<polygon fill="green" stroke="green" points="1360.53,-2361.27 1355.29,-2352.06 1353.65,-2362.53 1360.53,-2361.27"/>
<text text-anchor="middle" x="1350" y="-2428.19" font-family="Times,serif" font-size="14.00">ALIM</text>
</g>
<!-- q0&#45;&gt;q0 -->
<g id="edge6" class="edge"><title>q0&#45;&gt;q0</title>
<path fill="none" stroke="green" d="M1344.32,-2351.67C1334.82,-2389.46 1336.71,-2442.39 1350,-2442.39 1362.15,-2442.39 1364.78,-2398.17 1357.88,-2361.71"/>
<polygon fill="green" stroke="green" points="1361.24,-2360.69 1355.68,-2351.67 1354.4,-2362.19 1361.24,-2360.69"/>
<text text-anchor="middle" x="1350" y="-2446.19" font-family="Times,serif" font-size="14.00">Inhibit_Biased_Climb</text>
</g>
<!-- q0&#45;&gt;q0 -->
<g id="edge7" class="edge"><title>q0&#45;&gt;q0</title>
<path fill="none" stroke="green" d="M1343.98,-2351.57C1331.68,-2395.79 1333.69,-2460.39 1350,-2460.39 1365.13,-2460.39 1367.95,-2404.79 1358.46,-2361.44"/>
<polygon fill="green" stroke="green" points="1361.82,-2360.44 1356.02,-2351.57 1355.02,-2362.12 1361.82,-2360.44"/>
<text text-anchor="middle" x="1350" y="-2464.19" font-family="Times,serif" font-size="14.00">Non_Crossing_Biased_Climb</text>
</g>
<!-- q0&#45;&gt;q0 -->
<g id="edge8" class="edge"><title>q0&#45;&gt;q0</title>
<path fill="none" stroke="green" d="M1343.76,-2351.34C1328.55,-2401.91 1330.63,-2478.39 1350,-2478.39 1368.16,-2478.39 1371.12,-2411.17 1358.89,-2361.1"/>
<polygon fill="green" stroke="green" points="1362.24,-2360.08 1356.24,-2351.34 1355.48,-2361.91 1362.24,-2360.08"/>
<text text-anchor="middle" x="1350" y="-2482.19" font-family="Times,serif" font-size="14.00">Own_Above_Threat</text>
</g>
<!-- q0&#45;&gt;q0 -->
<g id="edge10" class="edge"><title>q0&#45;&gt;q0</title>
<path fill="none" stroke="black" d="M1343.56,-2351.24C1325.43,-2408.07 1327.57,-2496.39 1350,-2496.39 1371.16,-2496.39 1374.26,-2417.79 1359.33,-2361.18"/>
<polygon fill="black" stroke="black" points="1362.59,-2359.86 1356.44,-2351.24 1355.87,-2361.82 1362.59,-2359.86"/>
<text text-anchor="middle" x="1350" y="-2500.19" font-family="Times,serif" font-size="14.00">fake0</text>
</g>
<!-- q0&#45;&gt;q0 -->
<g id="edge11" class="edge"><title>q0&#45;&gt;q0</title>
<path fill="none" stroke="green" d="M1343.29,-2351.48C1322.32,-2414.56 1324.55,-2514.39 1350,-2514.39 1374.16,-2514.39 1377.4,-2424.44 1359.73,-2361.36"/>
<polygon fill="green" stroke="green" points="1362.98,-2360.02 1356.71,-2351.48 1356.28,-2362.07 1362.98,-2360.02"/>
<text text-anchor="middle" x="1350" y="-2518.19" font-family="Times,serif" font-size="14.00">fake1</text>
</g>
<!-- q0&#45;&gt;q0 -->
<g id="edge12" class="edge"><title>q0&#45;&gt;q0</title>
<path fill="none" stroke="green" d="M1343.15,-2351.41C1319.2,-2420.69 1321.48,-2532.39 1350,-2532.39 1377.24,-2532.39 1380.54,-2430.5 1359.92,-2360.99"/>
<polygon fill="green" stroke="green" points="1363.24,-2359.87 1356.85,-2351.41 1356.57,-2362.01 1363.24,-2359.87"/>
<text text-anchor="middle" x="1350" y="-2536.19" font-family="Times,serif" font-size="14.00">Learn_Assert</text>
</g>
<!-- q12 -->
<g id="node14" class="node"><title>q12</title>
<ellipse fill="none" stroke="green" cx="1668" cy="-244.391" rx="18" ry="18"/>
<text text-anchor="middle" x="1668" y="-240.691" font-family="Times,serif" font-size="14.00">D</text>
</g>
<!-- q0&#45;&gt;q12 -->
<g id="edge9" class="edge"><title>q0&#45;&gt;q12</title>
<path fill="none" stroke="green" d="M1351,-2316.4C1351.06,-2124.05 1352.53,-453.826 1386,-416.391 1438.58,-357.582 1502.02,-444.627 1562,-393.391 1583.49,-375.032 1565.63,-356.732 1580,-332.391 1597.01,-303.577 1625.53,-277.251 1645.25,-261.05"/>
<polygon fill="green" stroke="green" points="1647.5,-263.737 1653.11,-254.75 1643.12,-258.276 1647.5,-263.737"/>
<text text-anchor="middle" x="1474" y="-420.191" font-family="Times,serif" font-size="14.00">initialize</text>
</g>
<!-- q2 -->
<g id="node4" class="node"><title>q2</title>
<ellipse fill="none" stroke="green" cx="4354" cy="-4553.39" rx="18" ry="18"/>
<text text-anchor="middle" x="4354" y="-4549.69" font-family="Times,serif" font-size="14.00">D</text>
</g>
<!-- q2&#45;&gt;q1 -->
<g id="edge34" class="edge"><title>q2&#45;&gt;q1</title>
<path fill="none" stroke="green" d="M4351.75,-4571.28C4348.6,-4611.14 4339.06,-4705.56 4318,-4728.39 4271.94,-4778.34 4238.95,-4770.39 4171,-4770.39 1349,-4770.39 1349,-4770.39 1349,-4770.39 830.3,-4770.39 594.247,-2706.67 564.295,-2423.46"/>
<polygon fill="green" stroke="green" points="567.766,-2423 563.241,-2413.42 560.805,-2423.73 567.766,-2423"/>
<text text-anchor="middle" x="3208" y="-4774.19" font-family="Times,serif" font-size="14.00">Learn_Assert</text>
</g>
<!-- q2&#45;&gt;q0 -->
<g id="edge24" class="edge"><title>q2&#45;&gt;q0</title>
<path fill="none" stroke="green" d="M4351.21,-4571.21C4347.29,-4606.4 4336.77,-4682.92 4318,-4700.39 4269.54,-4745.49 4237.2,-4724.39 4171,-4724.39 1667,-4724.39 1667,-4724.39 1667,-4724.39 1541.66,-4724.39 1471.46,-4792.09 1386,-4700.39 1344.11,-4655.44 1349.95,-2626.93 1350.89,-2362.67"/>
<polygon fill="green" stroke="green" points="1354.39,-2362.4 1350.93,-2352.38 1347.39,-2362.37 1354.39,-2362.4"/>
<text text-anchor="middle" x="3402" y="-4728.19" font-family="Times,serif" font-size="14.00">Non_Crossing_Biased_Descend</text>
</g>
<!-- q2&#45;&gt;q0 -->
<g id="edge25" class="edge"><title>q2&#45;&gt;q0</title>
<path fill="none" stroke="green" d="M4352.67,-4571.57C4351.18,-4596.12 4344.66,-4639.43 4318,-4662.39 4267.84,-4705.59 4237.2,-4686.39 4171,-4686.39 1667,-4686.39 1667,-4686.39 1667,-4686.39 1604.33,-4686.39 1428.73,-4708.23 1386,-4662.39 1344.8,-4618.19 1350.03,-2624.29 1350.9,-2362.62"/>
<polygon fill="green" stroke="green" points="1354.4,-2362.44 1350.93,-2352.42 1347.4,-2362.41 1354.4,-2362.44"/>
<text text-anchor="middle" x="3402" y="-4690.19" font-family="Times,serif" font-size="14.00">Own_Below_Threat</text>
</g>
<!-- q2&#45;&gt;q0 -->
<g id="edge26" class="edge"><title>q2&#45;&gt;q0</title>
<path fill="none" stroke="green" d="M4349.21,-4570.96C4344.69,-4587.45 4335.45,-4611.47 4318,-4624.39 4264.8,-4663.78 4237.2,-4648.39 4171,-4648.39 1667,-4648.39 1667,-4648.39 1667,-4648.39 1604.33,-4648.39 1428.74,-4670.23 1386,-4624.39 1345.48,-4580.94 1350.12,-2621.58 1350.91,-2362.55"/>
<polygon fill="green" stroke="green" points="1354.41,-2362.47 1350.94,-2352.46 1347.41,-2362.45 1354.41,-2362.47"/>
<text text-anchor="middle" x="3402" y="-4652.19" font-family="Times,serif" font-size="14.00">alt_sep_test</text>
</g>
<!-- q2&#45;&gt;q0 -->
<g id="edge27" class="edge"><title>q2&#45;&gt;q0</title>
<path fill="none" stroke="green" d="M4342.09,-4567.01C4335.79,-4573.92 4327.28,-4581.8 4318,-4586.39 4258.65,-4615.72 4237.2,-4610.39 4171,-4610.39 1667,-4610.39 1667,-4610.39 1667,-4610.39 1604.33,-4610.39 1428.75,-4632.22 1386,-4586.39 1346.17,-4543.69 1350.2,-2618.8 1350.91,-2362.48"/>
<polygon fill="green" stroke="green" points="1354.41,-2362.49 1350.94,-2352.48 1347.41,-2362.47 1354.41,-2362.49"/>
<text text-anchor="middle" x="3402" y="-4614.19" font-family="Times,serif" font-size="14.00">ALIM</text>
</g>
<!-- q2&#45;&gt;q0 -->
<g id="edge28" class="edge"><title>q2&#45;&gt;q0</title>
<path fill="none" stroke="green" d="M4336,-4556.36C4303.87,-4561.7 4232,-4572.39 4171,-4572.39 1667,-4572.39 1667,-4572.39 1667,-4572.39 1604.33,-4572.39 1428.75,-4594.22 1386,-4548.39 1346.88,-4506.45 1350.28,-2617.83 1350.92,-2362.78"/>
<polygon fill="green" stroke="green" points="1354.42,-2362.51 1350.95,-2352.5 1347.42,-2362.49 1354.42,-2362.51"/>
<text text-anchor="middle" x="3402" y="-4576.19" font-family="Times,serif" font-size="14.00">Inhibit_Biased_Climb</text>
</g>
<!-- q2&#45;&gt;q0 -->
<g id="edge29" class="edge"><title>q2&#45;&gt;q0</title>
<path fill="none" stroke="green" d="M4336,-4550.42C4303.87,-4545.08 4232,-4534.39 4171,-4534.39 1667,-4534.39 1667,-4534.39 1667,-4534.39 1604.33,-4534.39 1428.76,-4556.21 1386,-4510.39 1347.56,-4469.2 1350.37,-2614.88 1350.93,-2362.68"/>
<polygon fill="green" stroke="green" points="1354.43,-2362.51 1350.95,-2352.51 1347.43,-2362.5 1354.43,-2362.51"/>
<text text-anchor="middle" x="3402" y="-4538.19" font-family="Times,serif" font-size="14.00">Non_Crossing_Biased_Climb</text>
</g>
<!-- q2&#45;&gt;q0 -->
<g id="edge30" class="edge"><title>q2&#45;&gt;q0</title>
<path fill="none" stroke="green" d="M4338.94,-4543.07C4332.77,-4538.94 4325.28,-4534.45 4318,-4531.39 4256.08,-4505.4 4238.16,-4496.39 4171,-4496.39 1667,-4496.39 1667,-4496.39 1667,-4496.39 1604.33,-4496.39 1428.76,-4518.21 1386,-4472.39 1348.25,-4431.95 1350.46,-2611.86 1350.94,-2362.57"/>
<polygon fill="green" stroke="green" points="1354.44,-2362.51 1350.96,-2352.51 1347.44,-2362.5 1354.44,-2362.51"/>
<text text-anchor="middle" x="3402" y="-4500.19" font-family="Times,serif" font-size="14.00">Own_Above_Threat</text>
</g>
<!-- q2&#45;&gt;q0 -->
<g id="edge31" class="edge"><title>q2&#45;&gt;q0</title>
<path fill="none" stroke="green" d="M4347.44,-4536.59C4342.05,-4522.92 4332.53,-4504.17 4318,-4493.39 4264.06,-4453.38 4238.16,-4458.39 4171,-4458.39 1667,-4458.39 1667,-4458.39 1667,-4458.39 1604.33,-4458.39 1428.77,-4480.2 1386,-4434.39 1348.95,-4394.71 1350.55,-2610.55 1350.95,-2362.82"/>
<polygon fill="green" stroke="green" points="1354.45,-2362.5 1350.96,-2352.5 1347.45,-2362.49 1354.45,-2362.5"/>
<text text-anchor="middle" x="3402" y="-4462.19" font-family="Times,serif" font-size="14.00">initialize</text>
</g>
<!-- q2&#45;&gt;q0 -->
<g id="edge32" class="edge"><title>q2&#45;&gt;q0</title>
<path fill="none" stroke="black" d="M4351.84,-4535.34C4349.39,-4512.78 4341.77,-4474.55 4318,-4453.39 4267.99,-4408.86 4237.96,-4420.39 4171,-4420.39 1667,-4420.39 1667,-4420.39 1667,-4420.39 1604.33,-4420.39 1428.78,-4442.19 1386,-4396.39 1349.63,-4357.45 1350.64,-2607.36 1350.96,-2362.68"/>
<polygon fill="black" stroke="black" points="1354.46,-2362.48 1350.97,-2352.48 1347.46,-2362.47 1354.46,-2362.48"/>
<text text-anchor="middle" x="3402" y="-4424.19" font-family="Times,serif" font-size="14.00">fake0</text>
</g>
<!-- q2&#45;&gt;q0 -->
<g id="edge33" class="edge"><title>q2&#45;&gt;q0</title>
<path fill="none" stroke="green" d="M4350.85,-4535.58C4346.44,-4501.98 4335.3,-4431.14 4318,-4414.39 4269.96,-4367.88 4237.86,-4382.39 4171,-4382.39 1667,-4382.39 1667,-4382.39 1667,-4382.39 1603.96,-4382.39 1427.81,-4390.57 1386,-4343.39 1351.61,-4304.58 1350.91,-2603.74 1350.98,-2362.69"/>
<polygon fill="green" stroke="green" points="1354.48,-2362.62 1350.99,-2352.62 1347.48,-2362.62 1354.48,-2362.62"/>
<text text-anchor="middle" x="3402" y="-4386.19" font-family="Times,serif" font-size="14.00">fake1</text>
</g>
<!-- q3 -->
<g id="node5" class="node"><title>q3</title>
<ellipse fill="none" stroke="green" cx="4170" cy="-4110.39" rx="18" ry="18"/>
<text text-anchor="middle" x="4170" y="-4106.69" font-family="Times,serif" font-size="14.00">D</text>
</g>
<!-- q3&#45;&gt;q0 -->
<g id="edge35" class="edge"><title>q3&#45;&gt;q0</title>
<path fill="none" stroke="green" d="M4167.72,-4128.42C4164.41,-4170.71 4154.36,-4274.78 4134,-4302.39 4112.88,-4331.03 4098.58,-4339.39 4063,-4339.39 1667,-4339.39 1667,-4339.39 1667,-4339.39 1541.03,-4339.39 1469.89,-4396.36 1386,-4302.39 1352.2,-4264.54 1350.99,-2601.63 1350.99,-2362.83"/>
<polygon fill="green" stroke="green" points="1354.49,-2362.55 1350.99,-2352.55 1347.49,-2362.55 1354.49,-2362.55"/>
<text text-anchor="middle" x="3208" y="-4343.19" font-family="Times,serif" font-size="14.00">Non_Crossing_Biased_Descend</text>
</g>
<!-- q3&#45;&gt;q0 -->
<g id="edge36" class="edge"><title>q3&#45;&gt;q0</title>
<path fill="none" stroke="green" d="M4169.08,-4128.45C4168.29,-4157.42 4162.86,-4214.73 4134,-4251.39 4111.99,-4279.35 4098.58,-4288.39 4063,-4288.39 1667,-4288.39 1667,-4288.39 1667,-4288.39 1604.02,-4288.39 1427.96,-4298.36 1386,-4251.39 1353.09,-4214.54 1351.12,-2596.39 1351.01,-2362.46"/>
<polygon fill="green" stroke="green" points="1354.51,-2362.38 1351,-2352.38 1347.51,-2362.38 1354.51,-2362.38"/>
<text text-anchor="middle" x="3208" y="-4292.19" font-family="Times,serif" font-size="14.00">Own_Below_Threat</text>
</g>
<!-- q3&#45;&gt;q0 -->
<g id="edge37" class="edge"><title>q3&#45;&gt;q0</title>
<path fill="none" stroke="green" d="M4165.95,-4128.26C4161.78,-4147.98 4152.57,-4179.66 4134,-4200.39 4110.25,-4226.89 4098.58,-4237.39 4063,-4237.39 1667,-4237.39 1667,-4237.39 1667,-4237.39 1604.02,-4237.39 1427.97,-4247.35 1386,-4200.39 1354,-4164.59 1351.25,-2594.24 1351.02,-2362.77"/>
<polygon fill="green" stroke="green" points="1354.52,-2362.48 1351.01,-2352.48 1347.52,-2362.49 1354.52,-2362.48"/>
<text text-anchor="middle" x="3208" y="-4241.19" font-family="Times,serif" font-size="14.00">alt_sep_test</text>
</g>
<!-- q3&#45;&gt;q0 -->
<g id="edge38" class="edge"><title>q3&#45;&gt;q0</title>
<path fill="none" stroke="green" d="M4158.73,-4124.69C4141.59,-4146.7 4104.89,-4186.39 4063,-4186.39 1667,-4186.39 1667,-4186.39 1667,-4186.39 1604.02,-4186.39 1427.98,-4196.34 1386,-4149.39 1354.9,-4114.61 1351.39,-2590.31 1351.04,-2362.7"/>
<polygon fill="green" stroke="green" points="1354.54,-2362.56 1351.02,-2352.57 1347.54,-2362.57 1354.54,-2362.56"/>
<text text-anchor="middle" x="3208" y="-4190.19" font-family="Times,serif" font-size="14.00">ALIM</text>
</g>
<!-- q3&#45;&gt;q0 -->
<g id="edge39" class="edge"><title>q3&#45;&gt;q0</title>
<path fill="none" stroke="green" d="M4152.76,-4116.7C4132.19,-4124.11 4095.52,-4135.39 4063,-4135.39 1667,-4135.39 1667,-4135.39 1667,-4135.39 1604.02,-4135.39 1428,-4145.33 1386,-4098.39 1355.81,-4064.65 1351.53,-2587.66 1351.05,-2362.93"/>
<polygon fill="green" stroke="green" points="1354.55,-2362.62 1351.03,-2352.63 1347.55,-2362.64 1354.55,-2362.62"/>
<text text-anchor="middle" x="3208" y="-4139.19" font-family="Times,serif" font-size="14.00">Inhibit_Biased_Climb</text>
</g>
<!-- q3&#45;&gt;q0 -->
<g id="edge40" class="edge"><title>q3&#45;&gt;q0</title>
<path fill="none" stroke="green" d="M4153.14,-4103.96C4132.66,-4096.26 4095.78,-4084.39 4063,-4084.39 1667,-4084.39 1667,-4084.39 1667,-4084.39 1604.02,-4084.39 1428.01,-4094.32 1386,-4047.39 1356.69,-4014.65 1351.67,-2581.83 1351.07,-2362.44"/>
<polygon fill="green" stroke="green" points="1354.57,-2362.37 1351.04,-2352.38 1347.57,-2362.39 1354.57,-2362.37"/>
<text text-anchor="middle" x="3208" y="-4088.19" font-family="Times,serif" font-size="14.00">Non_Crossing_Biased_Climb</text>
</g>
<!-- q3&#45;&gt;q0 -->
<g id="edge42" class="edge"><title>q3&#45;&gt;q0</title>
<path fill="none" stroke="green" d="M4158.77,-4095.91C4141.7,-4073.6 4105.08,-4033.39 4063,-4033.39 1667,-4033.39 1667,-4033.39 1667,-4033.39 1604.02,-4033.39 1428.02,-4043.3 1386,-3996.39 1357.59,-3964.68 1351.82,-2578.73 1351.09,-2362.6"/>
<polygon fill="green" stroke="green" points="1354.59,-2362.39 1351.05,-2352.4 1347.59,-2362.41 1354.59,-2362.39"/>
<text text-anchor="middle" x="3208" y="-4037.19" font-family="Times,serif" font-size="14.00">initialize</text>
</g>
<!-- q3&#45;&gt;q0 -->
<g id="edge43" class="edge"><title>q3&#45;&gt;q0</title>
<path fill="none" stroke="black" d="M4163.85,-4093.39C4152.13,-4058.58 4119.98,-3982.39 4063,-3982.39 1667,-3982.39 1667,-3982.39 1667,-3982.39 1604.02,-3982.39 1428.04,-3992.29 1386,-3945.39 1358.48,-3914.69 1351.96,-2574.03 1351.11,-2362.39"/>
<polygon fill="black" stroke="black" points="1354.61,-2362.38 1351.07,-2352.39 1347.61,-2362.4 1354.61,-2362.38"/>
<text text-anchor="middle" x="3208" y="-3986.19" font-family="Times,serif" font-size="14.00">fake0</text>
</g>
<!-- q3&#45;&gt;q0 -->
<g id="edge44" class="edge"><title>q3&#45;&gt;q0</title>
<path fill="none" stroke="green" d="M4166.96,-4092.57C4160.7,-4047.3 4137.4,-3931.39 4063,-3931.39 1667,-3931.39 1667,-3931.39 1667,-3931.39 1604.02,-3931.39 1428.06,-3941.28 1386,-3894.39 1359.4,-3864.74 1352.13,-2571.79 1351.13,-2362.79"/>
<polygon fill="green" stroke="green" points="1354.63,-2362.6 1351.08,-2352.62 1347.63,-2362.64 1354.63,-2362.6"/>
<text text-anchor="middle" x="3208" y="-3935.19" font-family="Times,serif" font-size="14.00">fake1</text>
</g>
<!-- q3&#45;&gt;q0 -->
<g id="edge45" class="edge"><title>q3&#45;&gt;q0</title>
<path fill="none" stroke="green" d="M4168.94,-4092.34C4167.73,-4038.12 4156.21,-3880.39 4063,-3880.39 1667,-3880.39 1667,-3880.39 1667,-3880.39 1604.13,-3880.39 1428.33,-3893.88 1386,-3847.39 1360.03,-3818.86 1352.25,-2568.53 1351.14,-2362.88"/>
<polygon fill="green" stroke="green" points="1354.64,-2362.58 1351.09,-2352.6 1347.64,-2362.62 1354.64,-2362.58"/>
<text text-anchor="middle" x="3208" y="-3884.19" font-family="Times,serif" font-size="14.00">Learn_Assert</text>
</g>
<!-- q3&#45;&gt;q2 -->
<g id="edge41" class="edge"><title>q3&#45;&gt;q2</title>
<path fill="none" stroke="green" d="M4181.95,-4124.21C4209.6,-4159.86 4282.52,-4258.74 4318,-4353.39 4340,-4412.07 4348.32,-4485.71 4351.36,-4525.22"/>
<polygon fill="green" stroke="green" points="4347.88,-4525.7 4352.08,-4535.42 4354.86,-4525.2 4347.88,-4525.7"/>
<text text-anchor="middle" x="4262" y="-4357.19" font-family="Times,serif" font-size="14.00">Own_Above_Threat</text>
</g>
<!-- q4 -->
<g id="node6" class="node"><title>q4</title>
<ellipse fill="none" stroke="green" cx="4062" cy="-3663.39" rx="18" ry="18"/>
<text text-anchor="middle" x="4062" y="-3659.69" font-family="Times,serif" font-size="14.00">D</text>
</g>
<!-- q4&#45;&gt;q0 -->
<g id="edge46" class="edge"><title>q4&#45;&gt;q0</title>
<path fill="none" stroke="green" d="M4061.87,-3681.71C4062.32,-3712.25 4058.73,-3773.84 4026,-3810.39 4004.9,-3833.96 3990.63,-3834.39 3959,-3834.39 1667,-3834.39 1667,-3834.39 1667,-3834.39 1541.66,-3834.39 1471.86,-3901.71 1386,-3810.39 1360.23,-3782.99 1352.29,-2564.14 1351.15,-2362.5"/>
<polygon fill="green" stroke="green" points="1354.65,-2362.4 1351.09,-2352.42 1347.65,-2362.44 1354.65,-2362.4"/>
<text text-anchor="middle" x="3014" y="-3838.19" font-family="Times,serif" font-size="14.00">Non_Crossing_Biased_Descend</text>
</g>
<!-- q4&#45;&gt;q0 -->
<g id="edge47" class="edge"><title>q4&#45;&gt;q0</title>
<path fill="none" stroke="green" d="M4060.01,-3681.31C4057.74,-3705.16 4050.32,-3747.25 4026,-3772.39 4004.01,-3795.13 3990.63,-3796.39 3959,-3796.39 1667,-3796.39 1667,-3796.39 1667,-3796.39 1604.33,-3796.39 1428.95,-3818.03 1386,-3772.39 1360.93,-3745.74 1352.42,-2561.89 1351.17,-2362.7"/>
<polygon fill="green" stroke="green" points="1354.67,-2362.45 1351.11,-2352.47 1347.67,-2362.49 1354.67,-2362.45"/>
<text text-anchor="middle" x="3014" y="-3800.19" font-family="Times,serif" font-size="14.00">Own_Below_Threat</text>
</g>
<!-- q4&#45;&gt;q0 -->
<g id="edge48" class="edge"><title>q4&#45;&gt;q0</title>
<path fill="none" stroke="green" d="M4056.57,-3680.59C4051.62,-3696.58 4042.1,-3720.03 4026,-3734.39 4002.4,-3755.45 3990.63,-3758.39 3959,-3758.39 1667,-3758.39 1667,-3758.39 1667,-3758.39 1604.33,-3758.39 1428.96,-3780.02 1386,-3734.39 1361.6,-3708.48 1352.55,-2558.29 1351.19,-2362.56"/>
<polygon fill="green" stroke="green" points="1354.69,-2362.47 1351.12,-2352.5 1347.69,-2362.52 1354.69,-2362.47"/>
<text text-anchor="middle" x="3014" y="-3762.19" font-family="Times,serif" font-size="14.00">alt_sep_test</text>
</g>
<!-- q4&#45;&gt;q0 -->
<g id="edge50" class="edge"><title>q4&#45;&gt;q0</title>
<path fill="none" stroke="green" d="M4049.41,-3676.67C4043.04,-3683.32 4034.69,-3691.07 4026,-3696.39 3999.03,-3712.92 3990.63,-3720.39 3959,-3720.39 1667,-3720.39 1667,-3720.39 1667,-3720.39 1604.33,-3720.39 1428.98,-3742.01 1386,-3696.39 1362.29,-3671.23 1352.69,-2555.67 1351.21,-2362.69"/>
<polygon fill="green" stroke="green" points="1354.71,-2362.48 1351.13,-2352.5 1347.71,-2362.53 1354.71,-2362.48"/>
<text text-anchor="middle" x="3014" y="-3724.19" font-family="Times,serif" font-size="14.00">Inhibit_Biased_Climb</text>
</g>
<!-- q4&#45;&gt;q0 -->
<g id="edge51" class="edge"><title>q4&#45;&gt;q0</title>
<path fill="none" stroke="green" d="M4044.57,-3668.38C4024.55,-3674.01 3989.62,-3682.39 3959,-3682.39 1667,-3682.39 1667,-3682.39 1667,-3682.39 1604.33,-3682.39 1428.99,-3703.99 1386,-3658.39 1362.98,-3633.98 1352.84,-2552.9 1351.23,-2362.79"/>
<polygon fill="green" stroke="green" points="1354.73,-2362.71 1351.15,-2352.74 1347.73,-2362.77 1354.73,-2362.71"/>
<text text-anchor="middle" x="3014" y="-3686.19" font-family="Times,serif" font-size="14.00">Non_Crossing_Biased_Climb</text>
</g>
<!-- q4&#45;&gt;q0 -->
<g id="edge52" class="edge"><title>q4&#45;&gt;q0</title>
<path fill="none" stroke="green" d="M4044.57,-3658.4C4024.55,-3652.77 3989.62,-3644.39 3959,-3644.39 1667,-3644.39 1667,-3644.39 1667,-3644.39 1604.33,-3644.39 1429.01,-3665.97 1386,-3620.39 1363.67,-3596.72 1352.99,-2549.88 1351.25,-2362.84"/>
<polygon fill="green" stroke="green" points="1354.75,-2362.67 1351.16,-2352.7 1347.75,-2362.73 1354.75,-2362.67"/>
<text text-anchor="middle" x="3014" y="-3648.19" font-family="Times,serif" font-size="14.00">Own_Above_Threat</text>
</g>
<!-- q4&#45;&gt;q0 -->
<g id="edge53" class="edge"><title>q4&#45;&gt;q0</title>
<path fill="none" stroke="green" d="M4048.72,-3651.02C4030.71,-3634.26 3995.31,-3606.39 3959,-3606.39 1667,-3606.39 1667,-3606.39 1667,-3606.39 1604.33,-3606.39 1429.03,-3627.95 1386,-3582.39 1364.35,-3559.47 1353.14,-2546.66 1351.28,-2362.85"/>
<polygon fill="green" stroke="green" points="1354.78,-2362.6 1351.18,-2352.63 1347.78,-2362.67 1354.78,-2362.6"/>
<text text-anchor="middle" x="3014" y="-3610.19" font-family="Times,serif" font-size="14.00">initialize</text>
</g>
<!-- q4&#45;&gt;q0 -->
<g id="edge54" class="edge"><title>q4&#45;&gt;q0</title>
<path fill="none" stroke="black" d="M4053.1,-3647.28C4038.54,-3620.17 4004.74,-3568.39 3959,-3568.39 1667,-3568.39 1667,-3568.39 1667,-3568.39 1604.33,-3568.39 1429.05,-3589.94 1386,-3544.39 1365.03,-3522.21 1353.29,-2543.24 1351.3,-2362.82"/>
<polygon fill="black" stroke="black" points="1354.8,-2362.51 1351.19,-2352.55 1347.8,-2362.59 1354.8,-2362.51"/>
<text text-anchor="middle" x="3014" y="-3572.19" font-family="Times,serif" font-size="14.00">fake0</text>
</g>
<!-- q4&#45;&gt;q0 -->
<g id="edge55" class="edge"><title>q4&#45;&gt;q0</title>
<path fill="none" stroke="green" d="M4057.33,-3645.94C4052.65,-3626.96 4043.04,-3596.5 4026,-3575.39 4003.47,-3547.48 3994.87,-3530.39 3959,-3530.39 1667,-3530.39 1667,-3530.39 1667,-3530.39 1604.33,-3530.39 1429.07,-3551.92 1386,-3506.39 1345.47,-3463.55 1349.64,-2537.57 1350.79,-2362.73"/>
<polygon fill="green" stroke="green" points="1354.29,-2362.56 1350.86,-2352.53 1347.29,-2362.51 1354.29,-2362.56"/>
<text text-anchor="middle" x="3014" y="-3534.19" font-family="Times,serif" font-size="14.00">fake1</text>
</g>
<!-- q4&#45;&gt;q0 -->
<g id="edge56" class="edge"><title>q4&#45;&gt;q0</title>
<path fill="none" stroke="green" d="M4060.07,-3645.08C4057.88,-3618.52 4050.55,-3568.81 4026,-3535.39 4005.05,-3506.88 3994.38,-3492.39 3959,-3492.39 1667,-3492.39 1667,-3492.39 1667,-3492.39 1603.93,-3492.39 1428.08,-3499.38 1386,-3452.39 1348.56,-3410.59 1350.2,-2532.61 1350.87,-2362.71"/>
<polygon fill="green" stroke="green" points="1354.37,-2362.58 1350.91,-2352.56 1347.37,-2362.55 1354.37,-2362.58"/>
<text text-anchor="middle" x="3014" y="-3496.19" font-family="Times,serif" font-size="14.00">Learn_Assert</text>
</g>
<!-- q4&#45;&gt;q3 -->
<g id="edge49" class="edge"><title>q4&#45;&gt;q3</title>
<path fill="none" stroke="green" d="M4070.56,-3679.58C4085.19,-3711.64 4117.4,-3785.77 4134,-3851.39 4154.8,-3933.62 4163.88,-4033.87 4167.27,-4081.97"/>
<polygon fill="green" stroke="green" points="4163.8,-4082.48 4167.96,-4092.23 4170.78,-4082.01 4163.8,-4082.48"/>
<text text-anchor="middle" x="4116" y="-3855.19" font-family="Times,serif" font-size="14.00">ALIM</text>
</g>
<!-- q5 -->
<g id="node7" class="node"><title>q5</title>
<ellipse fill="none" stroke="green" cx="3958" cy="-3219.39" rx="18" ry="18"/>
<text text-anchor="middle" x="3958" y="-3215.69" font-family="Times,serif" font-size="14.00">D</text>
</g>
<!-- q5&#45;&gt;q0 -->
<g id="edge57" class="edge"><title>q5&#45;&gt;q0</title>
<path fill="none" stroke="green" d="M3956.16,-3237.54C3953.78,-3280.58 3945.61,-3387.14 3922,-3412.39 3875.99,-3461.6 3842.37,-3449.39 3775,-3449.39 1667,-3449.39 1667,-3449.39 1667,-3449.39 1541.03,-3449.39 1470.58,-3505.74 1386,-3412.39 1349.76,-3372.4 1350.41,-2529.98 1350.89,-2363.01"/>
<polygon fill="green" stroke="green" points="1354.4,-2362.8 1350.93,-2352.79 1347.4,-2362.78 1354.4,-2362.8"/>
<text text-anchor="middle" x="2820" y="-3453.19" font-family="Times,serif" font-size="14.00">Non_Crossing_Biased_Descend</text>
</g>
<!-- q5&#45;&gt;q0 -->
<g id="edge58" class="edge"><title>q5&#45;&gt;q0</title>
<path fill="none" stroke="green" d="M3954.89,-3237.27C3950.51,-3271.39 3939.37,-3343.93 3922,-3361.39 3874.48,-3409.15 3842.37,-3398.39 3775,-3398.39 1667,-3398.39 1667,-3398.39 1667,-3398.39 1604.02,-3398.39 1428.33,-3408.03 1386,-3361.39 1351.54,-3323.42 1350.75,-2524.93 1350.94,-2362.92"/>
<polygon fill="green" stroke="green" points="1354.44,-2362.78 1350.96,-2352.77 1347.44,-2362.77 1354.44,-2362.78"/>
<text text-anchor="middle" x="2820" y="-3402.19" font-family="Times,serif" font-size="14.00">Own_Below_Threat</text>
</g>
<!-- q5&#45;&gt;q0 -->
<g id="edge59" class="edge"><title>q5&#45;&gt;q0</title>
<path fill="none" stroke="green" d="M3955.04,-3237.2C3951.81,-3257.84 3943.41,-3291.42 3922,-3310.39 3871.58,-3355.07 3842.37,-3347.39 3775,-3347.39 1667,-3347.39 1667,-3347.39 1667,-3347.39 1604.02,-3347.39 1428.37,-3356.99 1386,-3310.39 1353.32,-3274.44 1351.1,-2520.2 1351,-2362.96"/>
<polygon fill="green" stroke="green" points="1354.5,-2362.69 1350.99,-2352.69 1347.5,-2362.69 1354.5,-2362.69"/>
<text text-anchor="middle" x="2820" y="-3351.19" font-family="Times,serif" font-size="14.00">alt_sep_test</text>
</g>
<!-- q5&#45;&gt;q0 -->
<g id="edge60" class="edge"><title>q5&#45;&gt;q0</title>
<path fill="none" stroke="green" d="M3947.35,-3234.37C3941.1,-3242.91 3932.23,-3253.13 3922,-3259.39 3864.54,-3294.56 3842.37,-3296.39 3775,-3296.39 1667,-3296.39 1667,-3296.39 1667,-3296.39 1604.02,-3296.39 1428.42,-3305.95 1386,-3259.39 1355.08,-3225.45 1351.47,-2514.96 1351.05,-2362.88"/>
<polygon fill="green" stroke="green" points="1354.55,-2362.53 1351.03,-2352.53 1347.55,-2362.54 1354.55,-2362.53"/>
<text text-anchor="middle" x="2820" y="-3300.19" font-family="Times,serif" font-size="14.00">ALIM</text>
</g>
<!-- q5&#45;&gt;q0 -->
<g id="edge61" class="edge"><title>q5&#45;&gt;q0</title>
<path fill="none" stroke="green" d="M3940.05,-3223.45C3908.02,-3230.77 3836.28,-3245.39 3775,-3245.39 1667,-3245.39 1667,-3245.39 1667,-3245.39 1604.02,-3245.39 1428.47,-3254.9 1386,-3208.39 1356.84,-3176.46 1351.86,-2509.31 1351.12,-2362.71"/>
<polygon fill="green" stroke="green" points="1354.62,-2362.68 1351.07,-2352.7 1347.62,-2362.72 1354.62,-2362.68"/>
<text text-anchor="middle" x="2820" y="-3249.19" font-family="Times,serif" font-size="14.00">Inhibit_Biased_Climb</text>
</g>
<!-- q5&#45;&gt;q0 -->
<g id="edge62" class="edge"><title>q5&#45;&gt;q0</title>
<path fill="none" stroke="green" d="M3940.04,-3215.48C3907.99,-3208.45 3836.24,-3194.39 3775,-3194.39 1667,-3194.39 1667,-3194.39 1667,-3194.39 1604.02,-3194.39 1428.52,-3203.85 1386,-3157.39 1358.62,-3127.48 1352.28,-2504.3 1351.19,-2362.8"/>
<polygon fill="green" stroke="green" points="1354.69,-2362.36 1351.12,-2352.38 1347.69,-2362.41 1354.69,-2362.36"/>
<text text-anchor="middle" x="2820" y="-3198.19" font-family="Times,serif" font-size="14.00">Non_Crossing_Biased_Climb</text>
</g>
<!-- q5&#45;&gt;q0 -->
<g id="edge63" class="edge"><title>q5&#45;&gt;q0</title>
<path fill="none" stroke="green" d="M3944.17,-3207.28C3937.87,-3201.83 3929.94,-3195.68 3922,-3191.39 3861.53,-3158.73 3843.73,-3143.39 3775,-3143.39 1667,-3143.39 1667,-3143.39 1667,-3143.39 1604.02,-3143.39 1428.59,-3152.79 1386,-3106.39 1360.38,-3078.48 1352.72,-2498.78 1351.28,-2362.77"/>
<polygon fill="green" stroke="green" points="1354.78,-2362.68 1351.17,-2352.72 1347.78,-2362.75 1354.78,-2362.68"/>
<text text-anchor="middle" x="2820" y="-3147.19" font-family="Times,serif" font-size="14.00">Own_Above_Threat</text>
</g>
<!-- q5&#45;&gt;q0 -->
<g id="edge64" class="edge"><title>q5&#45;&gt;q0</title>
<path fill="none" stroke="green" d="M3953.6,-3201.85C3949.26,-3183.99 3940.03,-3156.68 3922,-3140.39 3871,-3094.32 3843.73,-3092.39 3775,-3092.39 1667,-3092.39 1667,-3092.39 1667,-3092.39 1604.02,-3092.39 1428.66,-3101.72 1386,-3055.39 1362.16,-3029.5 1353.2,-2493.58 1351.37,-2362.93"/>
<polygon fill="green" stroke="green" points="1354.87,-2362.51 1351.23,-2352.56 1347.87,-2362.61 1354.87,-2362.51"/>
<text text-anchor="middle" x="2820" y="-3096.19" font-family="Times,serif" font-size="14.00">initialize</text>
</g>
<!-- q5&#45;&gt;q0 -->
<g id="edge65" class="edge"><title>q5&#45;&gt;q0</title>
<path fill="none" stroke="black" d="M3957.33,-3201.12C3956.83,-3173.12 3951.72,-3119.58 3922,-3088.39 3874.69,-3038.73 3843.59,-3041.39 3775,-3041.39 1667,-3041.39 1667,-3041.39 1667,-3041.39 1604.02,-3041.39 1428.75,-3050.65 1386,-3004.39 1363.91,-2980.49 1353.71,-2487.62 1351.48,-2362.88"/>
<polygon fill="black" stroke="black" points="1354.98,-2362.55 1351.3,-2352.62 1347.98,-2362.68 1354.98,-2362.55"/>
<text text-anchor="middle" x="2820" y="-3045.19" font-family="Times,serif" font-size="14.00">fake0</text>
</g>
<!-- q5&#45;&gt;q0 -->
<g id="edge67" class="edge"><title>q5&#45;&gt;q0</title>
<path fill="none" stroke="green" d="M3955.84,-3201.45C3952.84,-3160.47 3943.51,-3061.64 3922,-3037.39 3876.48,-2986.08 3843.59,-2990.39 3775,-2990.39 1667,-2990.39 1667,-2990.39 1667,-2990.39 1604.25,-2990.39 1429.39,-3007.72 1386,-2962.39 1364.99,-2940.45 1354.06,-2482.04 1351.56,-2362.63"/>
<polygon fill="green" stroke="green" points="1355.06,-2362.38 1351.35,-2352.46 1348.06,-2362.53 1355.06,-2362.38"/>
<text text-anchor="middle" x="2820" y="-2994.19" font-family="Times,serif" font-size="14.00">Learn_Assert</text>
</g>
<!-- q5&#45;&gt;q4 -->
<g id="edge66" class="edge"><title>q5&#45;&gt;q4</title>
<path fill="none" stroke="green" d="M3964.27,-3236.41C3976.39,-3275.95 4006.68,-3377.23 4026,-3463.39 4039.68,-3524.38 4051.2,-3596.84 4056.99,-3635.62"/>
<polygon fill="green" stroke="green" points="4053.54,-3636.24 4058.47,-3645.62 4060.47,-3635.22 4053.54,-3636.24"/>
<text text-anchor="middle" x="4010" y="-3467.19" font-family="Times,serif" font-size="14.00">fake1</text>
</g>
<!-- q6 -->
<g id="node8" class="node"><title>q6</title>
<ellipse fill="none" stroke="green" cx="3774" cy="-2773.39" rx="18" ry="18"/>
<text text-anchor="middle" x="3774" y="-2769.69" font-family="Times,serif" font-size="14.00">D</text>
</g>
<!-- q6&#45;&gt;q0 -->
<g id="edge68" class="edge"><title>q6&#45;&gt;q0</title>
<path fill="none" stroke="green" d="M3771.28,-2791.29C3767.48,-2826.62 3757.19,-2903.38 3738,-2920.39 3667.36,-2982.99 3621.38,-2944.39 3527,-2944.39 3013,-2944.39 3013,-2944.39 3013,-2944.39 2757.88,-2944.39 2694.12,-2949.39 2439,-2949.39 1667,-2949.39 1667,-2949.39 1667,-2949.39 1541.66,-2949.39 1473.47,-3015.17 1386,-2925.39 1366.13,-2905 1354.43,-2477.06 1351.65,-2362.43"/>
<polygon fill="green" stroke="green" points="1355.15,-2362.25 1351.41,-2352.34 1348.15,-2362.42 1355.15,-2362.25"/>
<text text-anchor="middle" x="2626" y="-2952.19" font-family="Times,serif" font-size="14.00">Non_Crossing_Biased_Descend</text>
</g>
<!-- q6&#45;&gt;q0 -->
<g id="edge70" class="edge"><title>q6&#45;&gt;q0</title>
<path fill="none" stroke="green" d="M3772.83,-2791.75C3771.52,-2816.52 3765.21,-2860.09 3738,-2882.39 3665.01,-2942.23 3621.38,-2906.39 3527,-2906.39 3013,-2906.39 3013,-2906.39 3013,-2906.39 2674.33,-2906.39 2589.67,-2911.39 2251,-2911.39 1667,-2911.39 1667,-2911.39 1667,-2911.39 1604.33,-2911.39 1429.83,-2932.19 1386,-2887.39 1349.09,-2849.66 1349.74,-2470.21 1350.68,-2362.66"/>
<polygon fill="green" stroke="green" points="1354.18,-2362.6 1350.78,-2352.57 1347.18,-2362.54 1354.18,-2362.6"/>
<text text-anchor="middle" x="2626" y="-2913.19" font-family="Times,serif" font-size="14.00">alt_sep_test</text>
</g>
<!-- q6&#45;&gt;q0 -->
<g id="edge71" class="edge"><title>q6&#45;&gt;q0</title>
<path fill="none" stroke="green" d="M3769.43,-2790.83C3765.05,-2807.48 3755.87,-2831.82 3738,-2844.39 3660.8,-2898.69 3621.38,-2868.39 3527,-2868.39 3013,-2868.39 3013,-2868.39 3013,-2868.39 2674.33,-2868.39 2589.67,-2873.39 2251,-2873.39 1667,-2873.39 1667,-2873.39 1667,-2873.39 1604.33,-2873.39 1429.93,-2894.09 1386,-2849.39 1351.76,-2814.55 1350.46,-2465.42 1350.82,-2362.68"/>
<polygon fill="green" stroke="green" points="1354.32,-2362.48 1350.87,-2352.46 1347.32,-2362.45 1354.32,-2362.48"/>
<text text-anchor="middle" x="2626" y="-2875.19" font-family="Times,serif" font-size="14.00">ALIM</text>
</g>
<!-- q6&#45;&gt;q0 -->
<g id="edge72" class="edge"><title>q6&#45;&gt;q0</title>
<path fill="none" stroke="green" d="M3762.17,-2787.19C3755.9,-2794.15 3747.39,-2802.03 3738,-2806.39 3652.39,-2846.13 3621.38,-2830.39 3527,-2830.39 3013,-2830.39 3013,-2830.39 3013,-2830.39 2674.33,-2830.39 2589.67,-2835.39 2251,-2835.39 1667,-2835.39 1667,-2835.39 1667,-2835.39 1604.33,-2835.39 1430.05,-2855.97 1386,-2811.39 1354.39,-2779.4 1351.22,-2459.99 1350.99,-2362.5"/>
<polygon fill="green" stroke="green" points="1354.49,-2362.49 1350.97,-2352.5 1347.49,-2362.5 1354.49,-2362.49"/>
<text text-anchor="middle" x="2626" y="-2837.19" font-family="Times,serif" font-size="14.00">Inhibit_Biased_Climb</text>
</g>
<!-- q6&#45;&gt;q0 -->
<g id="edge73" class="edge"><title>q6&#45;&gt;q0</title>
<path fill="none" stroke="green" d="M3756.04,-2775.61C3716.16,-2780.62 3613.31,-2792.39 3527,-2792.39 3013,-2792.39 3013,-2792.39 3013,-2792.39 2674.33,-2792.39 2589.67,-2797.39 2251,-2797.39 1667,-2797.39 1667,-2797.39 1667,-2797.39 1604.33,-2797.39 1430.19,-2817.83 1386,-2773.39 1357.06,-2744.28 1352.04,-2455.09 1351.18,-2362.65"/>
<polygon fill="green" stroke="green" points="1354.68,-2362.59 1351.09,-2352.62 1347.68,-2362.65 1354.68,-2362.59"/>
<text text-anchor="middle" x="2626" y="-2799.19" font-family="Times,serif" font-size="14.00">Non_Crossing_Biased_Climb</text>
</g>
<!-- q6&#45;&gt;q0 -->
<g id="edge74" class="edge"><title>q6&#45;&gt;q0</title>
<path fill="none" stroke="green" d="M3756.04,-2771.17C3716.16,-2766.16 3613.31,-2754.39 3527,-2754.39 2819,-2754.39 2819,-2754.39 2819,-2754.39 2566.55,-2754.39 2503.45,-2759.39 2251,-2759.39 1667,-2759.39 1667,-2759.39 1667,-2759.39 1604.33,-2759.39 1430.36,-2779.67 1386,-2735.39 1359.7,-2709.14 1352.94,-2449.8 1351.41,-2362.73"/>
<polygon fill="green" stroke="green" points="1354.91,-2362.47 1351.24,-2352.53 1347.91,-2362.59 1354.91,-2362.47"/>
<text text-anchor="middle" x="2626" y="-2760.19" font-family="Times,serif" font-size="14.00">Own_Above_Threat</text>
</g>
<!-- q6&#45;&gt;q0 -->
<g id="edge75" class="edge"><title>q6&#45;&gt;q0</title>
<path fill="none" stroke="green" d="M3759.44,-2762.55C3753.24,-2758.11 3745.59,-2753.34 3738,-2750.39 3649.46,-2715.99 3621.99,-2716.39 3527,-2716.39 2819,-2716.39 2819,-2716.39 2819,-2716.39 2566.55,-2716.39 2503.45,-2721.39 2251,-2721.39 1667,-2721.39 1667,-2721.39 1667,-2721.39 1604.33,-2721.39 1430.56,-2741.46 1386,-2697.39 1362.36,-2674 1353.95,-2444.47 1351.69,-2362.94"/>
<polygon fill="green" stroke="green" points="1355.18,-2362.36 1351.41,-2352.45 1348.18,-2362.54 1355.18,-2362.36"/>
<text text-anchor="middle" x="2626" y="-2722.19" font-family="Times,serif" font-size="14.00">initialize</text>
</g>
<!-- q6&#45;&gt;q0 -->
<g id="edge76" class="edge"><title>q6&#45;&gt;q0</title>
<path fill="none" stroke="black" d="M3767.82,-2756.31C3762.62,-2742.21 3753.17,-2722.87 3738,-2712.39 3659.86,-2658.38 3621.99,-2678.39 3527,-2678.39 2819,-2678.39 2819,-2678.39 2819,-2678.39 2566.55,-2678.39 2503.45,-2683.39 2251,-2683.39 1667,-2683.39 1667,-2683.39 1667,-2683.39 1604.33,-2683.39 1430.8,-2703.21 1386,-2659.39 1364.93,-2638.78 1355,-2437.53 1352.01,-2362.44"/>
<polygon fill="black" stroke="black" points="1355.51,-2362.18 1351.62,-2352.32 1348.51,-2362.45 1355.51,-2362.18"/>
<text text-anchor="middle" x="2626" y="-2684.19" font-family="Times,serif" font-size="14.00">fake0</text>
</g>
<!-- q6&#45;&gt;q0 -->
<g id="edge77" class="edge"><title>q6&#45;&gt;q0</title>
<path fill="none" stroke="green" d="M3772.35,-2755.32C3770.46,-2731.87 3763.44,-2691.49 3738,-2670.39 3665.08,-2609.93 3621.72,-2640.39 3527,-2640.39 2819,-2640.39 2819,-2640.39 2819,-2640.39 2566.55,-2640.39 2503.45,-2645.39 2251,-2645.39 1667,-2645.39 1667,-2645.39 1667,-2645.39 1604.33,-2645.39 1431.11,-2664.9 1386,-2621.39 1367.57,-2603.61 1356.28,-2431.79 1352.46,-2362.82"/>
<polygon fill="green" stroke="green" points="1355.95,-2362.47 1351.91,-2352.68 1348.96,-2362.85 1355.95,-2362.47"/>
<text text-anchor="middle" x="2626" y="-2646.19" font-family="Times,serif" font-size="14.00">fake1</text>
</g>
<!-- q6&#45;&gt;q0 -->
<g id="edge78" class="edge"><title>q6&#45;&gt;q0</title>
<path fill="none" stroke="green" d="M3771.2,-2755.48C3767.29,-2720.53 3756.84,-2645.2 3738,-2628.39 3667.48,-2565.5 3621.49,-2602.39 3527,-2602.39 2819,-2602.39 2819,-2602.39 2819,-2602.39 2566.55,-2602.39 2503.45,-2607.39 2251,-2607.39 1667,-2607.39 1667,-2607.39 1667,-2607.39 1540.79,-2607.39 1475.46,-2655.42 1386,-2566.39 1357.85,-2538.38 1352.28,-2418.43 1351.22,-2362.86"/>
<polygon fill="green" stroke="green" points="1354.72,-2362.59 1351.06,-2352.65 1347.72,-2362.7 1354.72,-2362.59"/>
<text text-anchor="middle" x="2626" y="-2608.19" font-family="Times,serif" font-size="14.00">Learn_Assert</text>
</g>
<!-- q6&#45;&gt;q5 -->
<g id="edge69" class="edge"><title>q6&#45;&gt;q5</title>
<path fill="none" stroke="green" d="M3787.96,-2785.07C3817.47,-2812.52 3889.63,-2884.66 3922,-2961.39 3955.08,-3039.8 3958.43,-3142.41 3957.89,-3191.23"/>
<polygon fill="green" stroke="green" points="3954.39,-3191.29 3957.71,-3201.35 3961.39,-3191.41 3954.39,-3191.29"/>
<text text-anchor="middle" x="3866" y="-2965.19" font-family="Times,serif" font-size="14.00">Own_Below_Threat</text>
</g>
<!-- q7 -->
<g id="node9" class="node"><title>q7</title>
<ellipse fill="none" stroke="green" cx="3526" cy="-2334.39" rx="18" ry="18"/>
<text text-anchor="middle" x="3526" y="-2330.69" font-family="Times,serif" font-size="14.00">D</text>
</g>
<!-- q7&#45;&gt;q0 -->
<g id="edge80" class="edge"><title>q7&#45;&gt;q0</title>
<path fill="none" stroke="green" d="M3524.35,-2352.4C3522.41,-2395.63 3515.09,-2503.49 3490,-2527.39 3398.8,-2614.28 3334.97,-2564.39 3209,-2564.39 1667,-2564.39 1667,-2564.39 1667,-2564.39 1541.03,-2564.39 1477.2,-2614.28 1386,-2527.39 1362.68,-2505.17 1354.71,-2410.38 1352.14,-2362.42"/>
<polygon fill="green" stroke="green" points="1355.64,-2362.21 1351.65,-2352.4 1348.64,-2362.56 1355.64,-2362.21"/>
<text text-anchor="middle" x="2438" y="-2568.19" font-family="Times,serif" font-size="14.00">Own_Below_Threat</text>
</g>
<!-- q7&#45;&gt;q0 -->
<g id="edge81" class="edge"><title>q7&#45;&gt;q0</title>
<path fill="none" stroke="green" d="M3523.1,-2352.19C3519.04,-2386.51 3508.4,-2459.92 3490,-2476.39 3396.13,-2560.4 3334.97,-2513.39 3209,-2513.39 1667,-2513.39 1667,-2513.39 1667,-2513.39 1541.03,-2513.39 1479.87,-2560.4 1386,-2476.39 1369.25,-2461.4 1358.93,-2399.24 1354.16,-2362.32"/>
<polygon fill="green" stroke="green" points="1357.6,-2361.68 1352.9,-2352.19 1350.66,-2362.54 1357.6,-2361.68"/>
<text text-anchor="middle" x="2438" y="-2517.19" font-family="Times,serif" font-size="14.00">alt_sep_test</text>
</g>
<!-- q7&#45;&gt;q0 -->
<g id="edge82" class="edge"><title>q7&#45;&gt;q0</title>
<path fill="none" stroke="green" d="M3523.46,-2352.27C3520.62,-2373.3 3512.6,-2407.58 3490,-2425.39 3391.05,-2503.34 3334.97,-2462.39 3209,-2462.39 1667,-2462.39 1667,-2462.39 1667,-2462.39 1541.03,-2462.39 1484.95,-2503.34 1386,-2425.39 1366.75,-2410.23 1358.08,-2383.11 1354.18,-2362.41"/>
<polygon fill="green" stroke="green" points="1357.59,-2361.59 1352.54,-2352.27 1350.68,-2362.7 1357.59,-2361.59"/>
<text text-anchor="middle" x="2438" y="-2466.19" font-family="Times,serif" font-size="14.00">ALIM</text>
</g>
<!-- q7&#45;&gt;q0 -->
<g id="edge83" class="edge"><title>q7&#45;&gt;q0</title>
<path fill="none" stroke="green" d="M3515.88,-2349.41C3509.71,-2358.19 3500.74,-2368.64 3490,-2374.39 3378.94,-2433.83 3334.97,-2411.39 3209,-2411.39 1667,-2411.39 1667,-2411.39 1667,-2411.39 1541.03,-2411.39 1497.06,-2433.83 1386,-2374.39 1378.45,-2370.35 1371.77,-2363.98 1366.33,-2357.5"/>
<polygon fill="green" stroke="green" points="1368.98,-2355.21 1360.12,-2349.41 1363.43,-2359.47 1368.98,-2355.21"/>
<text text-anchor="middle" x="2438" y="-2415.19" font-family="Times,serif" font-size="14.00">Inhibit_Biased_Climb</text>
</g>
<!-- q7&#45;&gt;q0 -->
<g id="edge84" class="edge"><title>q7&#45;&gt;q0</title>
<path fill="none" stroke="green" d="M3507.91,-2336.79C3460.55,-2343.23 3323.5,-2360.39 3209,-2360.39 1667,-2360.39 1667,-2360.39 1667,-2360.39 1559.88,-2360.39 1433.03,-2345.37 1378.33,-2338.16"/>
<polygon fill="green" stroke="green" points="1378.46,-2334.65 1368.09,-2336.79 1377.53,-2341.59 1378.46,-2334.65"/>
<text text-anchor="middle" x="2438" y="-2364.19" font-family="Times,serif" font-size="14.00">Non_Crossing_Biased_Climb</text>
</g>
<!-- q7&#45;&gt;q0 -->
<g id="edge85" class="edge"><title>q7&#45;&gt;q0</title>
<path fill="none" stroke="green" d="M3507.91,-2332.08C3460.53,-2325.89 3323.47,-2309.39 3209,-2309.39 1667,-2309.39 1667,-2309.39 1667,-2309.39 1559.91,-2309.39 1433.04,-2323.84 1378.34,-2330.77"/>
<polygon fill="green" stroke="green" points="1377.56,-2327.34 1368.09,-2332.08 1378.45,-2334.28 1377.56,-2327.34"/>
<text text-anchor="middle" x="2438" y="-2313.19" font-family="Times,serif" font-size="14.00">Own_Above_Threat</text>
</g>
<!-- q7&#45;&gt;q0 -->
<g id="edge86" class="edge"><title>q7&#45;&gt;q0</title>
<path fill="none" stroke="green" d="M3511.88,-2322.91C3505.64,-2318.03 3497.84,-2312.71 3490,-2309.39 3373.09,-2259.97 3335.93,-2258.39 3209,-2258.39 1667,-2258.39 1667,-2258.39 1667,-2258.39 1540.07,-2258.39 1502.91,-2259.97 1386,-2309.39 1381.34,-2311.36 1376.7,-2314.03 1372.4,-2316.9"/>
<polygon fill="green" stroke="green" points="1370.16,-2314.2 1364.12,-2322.91 1374.27,-2319.87 1370.16,-2314.2"/>
<text text-anchor="middle" x="2438" y="-2262.19" font-family="Times,serif" font-size="14.00">initialize</text>
</g>
<!-- q7&#45;&gt;q0 -->
<g id="edge87" class="edge"><title>q7&#45;&gt;q0</title>
<path fill="none" stroke="black" d="M3521.99,-2316.53C3517.96,-2298.46 3508.98,-2271.15 3490,-2256.39 3389.91,-2178.58 3335.77,-2207.39 3209,-2207.39 1667,-2207.39 1667,-2207.39 1667,-2207.39 1540.23,-2207.39 1486.09,-2178.58 1386,-2256.39 1370.28,-2268.61 1361.42,-2289.45 1356.56,-2306.51"/>
<polygon fill="black" stroke="black" points="1353.08,-2305.98 1354.01,-2316.53 1359.86,-2307.7 1353.08,-2305.98"/>
<text text-anchor="middle" x="2438" y="-2211.19" font-family="Times,serif" font-size="14.00">fake0</text>
</g>
<!-- q7&#45;&gt;q0 -->
<g id="edge88" class="edge"><title>q7&#45;&gt;q0</title>
<path fill="none" stroke="green" d="M3522.88,-2316.46C3518.56,-2283.06 3507.61,-2213.24 3490,-2197.39 3396.18,-2112.96 3335.21,-2156.39 3209,-2156.39 2625,-2156.39 2625,-2156.39 2625,-2156.39 2487.26,-2156.39 1493.37,-2111.11 1386,-2197.39 1369.22,-2210.87 1359.01,-2270.17 1354.24,-2306.19"/>
<polygon fill="green" stroke="green" points="1350.71,-2306.18 1352.93,-2316.54 1357.65,-2307.06 1350.71,-2306.18"/>
<text text-anchor="middle" x="2438" y="-2157.19" font-family="Times,serif" font-size="14.00">fake1</text>
</g>
<!-- q7&#45;&gt;q0 -->
<g id="edge89" class="edge"><title>q7&#45;&gt;q0</title>
<path fill="none" stroke="green" d="M3524.36,-2316.38C3522.42,-2273.13 3515.13,-2165.25 3490,-2141.39 3444.34,-2098.05 3271.95,-2105.39 3209,-2105.39 2625,-2105.39 2625,-2105.39 2625,-2105.39 1515.76,-2105.39 1403.74,-2138.9 1386,-2154.39 1363.63,-2173.92 1355.28,-2260.57 1352.39,-2306.14"/>
<polygon fill="green" stroke="green" points="1348.89,-2306.07 1351.8,-2316.26 1355.88,-2306.48 1348.89,-2306.07"/>
<text text-anchor="middle" x="2438" y="-2110.19" font-family="Times,serif" font-size="14.00">Learn_Assert</text>
</g>
<!-- q7&#45;&gt;q6 -->
<g id="edge79" class="edge"><title>q7&#45;&gt;q6</title>
<path fill="none" stroke="green" d="M3540.66,-2345.06C3578.96,-2375.81 3687.87,-2469.14 3738,-2573.39 3765.29,-2630.13 3771.54,-2705.06 3772.82,-2745.17"/>
<polygon fill="green" stroke="green" points="3769.32,-2745.37 3773.06,-2755.29 3776.32,-2745.21 3769.32,-2745.37"/>
<text text-anchor="middle" x="3650" y="-2577.19" font-family="Times,serif" font-size="14.00">Non_Crossing_Biased_Descend</text>
</g>
<!-- q8 -->
<g id="node10" class="node"><title>q8</title>
<ellipse fill="none" stroke="green" cx="3208" cy="-1888.39" rx="18" ry="18"/>
<text text-anchor="middle" x="3208" y="-1884.69" font-family="Times,serif" font-size="14.00">D</text>
</g>
<!-- q8&#45;&gt;q0 -->
<g id="edge90" class="edge"><title>q8&#45;&gt;q0</title>
<path fill="none" stroke="green" d="M3200.91,-1904.97C3188.2,-1936.9 3155.46,-2006.34 3102,-2035.39 3060.07,-2058.17 1421.57,-2080.58 1386,-2112.39 1357.77,-2137.64 1352.23,-2252.25 1351.2,-2306.18"/>
<polygon fill="green" stroke="green" points="1347.7,-2306.36 1351.04,-2316.41 1354.69,-2306.47 1347.7,-2306.36"/>
<text text-anchor="middle" x="2250" y="-2077.19" font-family="Times,serif" font-size="14.00">Non_Crossing_Biased_Descend</text>
</g>
<!-- q8&#45;&gt;q0 -->
<g id="edge91" class="edge"><title>q8&#45;&gt;q0</title>
<path fill="none" stroke="green" d="M3197.96,-1903.42C3182.11,-1928.2 3146.67,-1976.93 3102,-1997.39 3015.19,-2037.14 1456.43,-2026.93 1386,-2091.39 1355.06,-2119.71 1351.01,-2248.12 1350.79,-2305.97"/>
<polygon fill="green" stroke="green" points="1347.29,-2306.23 1350.79,-2316.24 1354.29,-2306.24 1347.29,-2306.23"/>
<text text-anchor="middle" x="2250" y="-2041.19" font-family="Times,serif" font-size="14.00">Own_Below_Threat</text>
</g>
<!-- q8&#45;&gt;q0 -->
<g id="edge92" class="edge"><title>q8&#45;&gt;q0</title>
<path fill="none" stroke="green" d="M3194.34,-1900.37C3175.78,-1917.09 3139.31,-1946.77 3102,-1959.39 3011.54,-1989.99 1455.68,-1994.09 1386,-2059.39 1350.73,-2092.45 1349.26,-2242.95 1350.26,-2306.23"/>
<polygon fill="green" stroke="green" points="1346.77,-2306.37 1350.46,-2316.3 1353.76,-2306.23 1346.77,-2306.37"/>
<text text-anchor="middle" x="2250" y="-2003.19" font-family="Times,serif" font-size="14.00">alt_sep_test</text>
</g>
<!-- q8&#45;&gt;q0 -->
<g id="edge94" class="edge"><title>q8&#45;&gt;q0</title>
<path fill="none" stroke="green" d="M3190.95,-1894.81C3170.62,-1902.61 3134.33,-1915.48 3102,-1921.39 2690.37,-1996.7 2579.7,-1950.12 2162,-1975.39 1903.28,-1991.05 1838.64,-1995.5 1580,-2012.39 1493.77,-2018.02 1448.49,-1965.7 1386,-2025.39 1365.85,-2044.63 1355.44,-2233.72 1352.16,-2306.26"/>
<polygon fill="green" stroke="green" points="1348.66,-2306.33 1351.71,-2316.47 1355.65,-2306.63 1348.66,-2306.33"/>
<text text-anchor="middle" x="2250" y="-1979.19" font-family="Times,serif" font-size="14.00">Inhibit_Biased_Climb</text>
</g>
<!-- q8&#45;&gt;q0 -->
<g id="edge95" class="edge"><title>q8&#45;&gt;q0</title>
<path fill="none" stroke="green" d="M3189.9,-1889.07C3007.18,-1896.34 1420.51,-1960.39 1386,-1993.39 1363.56,-2014.85 1354.45,-2227.92 1351.85,-2305.95"/>
<polygon fill="green" stroke="green" points="1348.34,-2305.92 1351.52,-2316.03 1355.34,-2306.15 1348.34,-2305.92"/>
<text text-anchor="middle" x="2250" y="-1939.19" font-family="Times,serif" font-size="14.00">Non_Crossing_Biased_Climb</text>
</g>
<!-- q8&#45;&gt;q0 -->
<g id="edge96" class="edge"><title>q8&#45;&gt;q0</title>
<path fill="none" stroke="green" d="M3189.89,-1888.32C3146.03,-1888.18 3026,-1887.97 2926,-1889.39 2754.68,-1891.83 1508.25,-1848.34 1386,-1968.39 1362.03,-1991.93 1353.81,-2224.32 1351.65,-2306.1"/>
<polygon fill="green" stroke="green" points="1348.15,-2306.09 1351.4,-2316.17 1355.15,-2306.26 1348.15,-2306.09"/>
<text text-anchor="middle" x="2250" y="-1889.19" font-family="Times,serif" font-size="14.00">Own_Above_Threat</text>
</g>
<!-- q8&#45;&gt;q0 -->
<g id="edge97" class="edge"><title>q8&#45;&gt;q0</title>
<path fill="none" stroke="green" d="M3189.81,-1887.2C3012.42,-1875.13 1519.57,-1777.85 1386,-1913.39 1358.48,-1941.32 1352.51,-2216.32 1351.3,-2306.16"/>
<polygon fill="green" stroke="green" points="1347.79,-2306.36 1351.17,-2316.4 1354.79,-2306.45 1347.79,-2306.36"/>
<text text-anchor="middle" x="2250" y="-1851.19" font-family="Times,serif" font-size="14.00">initialize</text>
</g>
<!-- q8&#45;&gt;q0 -->
<g id="edge98" class="edge"><title>q8&#45;&gt;q0</title>
<path fill="none" stroke="black" d="M3190.39,-1884.31C3169.79,-1879.43 3133.53,-1871.41 3102,-1867.39 2430.91,-1781.83 2255.37,-1804.96 1580,-1844.39 1493.63,-1849.43 1446.91,-1798.95 1386,-1860.39 1354.57,-1892.09 1351.27,-2208.92 1351,-2306.16"/>
<polygon fill="black" stroke="black" points="1347.5,-2306.39 1350.98,-2316.4 1354.5,-2306.4 1347.5,-2306.39"/>
<text text-anchor="middle" x="2250" y="-1816.19" font-family="Times,serif" font-size="14.00">fake0</text>
</g>
<!-- q8&#45;&gt;q0 -->
<g id="edge99" class="edge"><title>q8&#45;&gt;q0</title>
<path fill="none" stroke="green" d="M3191.86,-1880.16C3171.91,-1869.73 3135.4,-1852.06 3102,-1843.39 2934.48,-1799.93 2886.76,-1820.77 2714,-1810.39 2566.7,-1801.54 1491.51,-1723.22 1386,-1826.39 1351.58,-1860.05 1350.39,-2204.18 1350.81,-2306.1"/>
<polygon fill="green" stroke="green" points="1347.31,-2306.27 1350.86,-2316.25 1354.31,-2306.23 1347.31,-2306.27"/>
<text text-anchor="middle" x="2250" y="-1792.19" font-family="Times,serif" font-size="14.00">fake1</text>
</g>
<!-- q8&#45;&gt;q0 -->
<g id="edge100" class="edge"><title>q8&#45;&gt;q0</title>
<path fill="none" stroke="green" d="M3194.84,-1875.73C3176.62,-1857.71 3140.25,-1825.28 3102,-1811.39 2922.76,-1746.29 1521.62,-1646.33 1386,-1780.39 1348.4,-1817.56 1349.54,-2198.15 1350.64,-2306.03"/>
<polygon fill="green" stroke="green" points="1347.14,-2306.19 1350.75,-2316.15 1354.14,-2306.12 1347.14,-2306.19"/>
<text text-anchor="middle" x="2250" y="-1730.19" font-family="Times,serif" font-size="14.00">Learn_Assert</text>
</g>
<!-- q8&#45;&gt;q7 -->
<g id="edge93" class="edge"><title>q8&#45;&gt;q7</title>
<path fill="none" stroke="green" d="M3225.21,-1893.79C3274.64,-1911.18 3424.11,-1970.83 3490,-2076.39 3513.66,-2114.29 3521.65,-2247.52 3524.06,-2306.24"/>
<polygon fill="green" stroke="green" points="3520.57,-2306.44 3524.45,-2316.29 3527.56,-2306.17 3520.57,-2306.44"/>
<text text-anchor="middle" x="3402" y="-2080.19" font-family="Times,serif" font-size="14.00">ALIM</text>
</g>
<!-- q9 -->
<g id="node11" class="node"><title>q9</title>
<ellipse fill="none" stroke="green" cx="2820" cy="-1473.39" rx="18" ry="18"/>
<text text-anchor="middle" x="2820" y="-1469.69" font-family="Times,serif" font-size="14.00">D</text>
</g>
<!-- q9&#45;&gt;q0 -->
<g id="edge101" class="edge"><title>q9&#45;&gt;q0</title>
<path fill="none" stroke="green" d="M2814.89,-1490.77C2804.96,-1528.44 2775.78,-1617.28 2714,-1655.39 2588.2,-1732.99 1490.52,-1627.89 1386,-1732.39 1365.47,-1752.92 1354.24,-2189.94 1351.61,-2306.2"/>
<polygon fill="green" stroke="green" points="1348.1,-2306.35 1351.38,-2316.42 1355.1,-2306.5 1348.1,-2306.35"/>
<text text-anchor="middle" x="2056" y="-1689.19" font-family="Times,serif" font-size="14.00">Non_Crossing_Biased_Descend</text>
</g>
<!-- q9&#45;&gt;q0 -->
<g id="edge102" class="edge"><title>q9&#45;&gt;q0</title>
<path fill="none" stroke="green" d="M2812.52,-1489.86C2799.32,-1520.87 2766.1,-1587.33 2714,-1615.39 2583.9,-1685.47 1490.48,-1582.89 1386,-1687.39 1363.83,-1709.57 1353.72,-2184.21 1351.49,-2306.08"/>
<polygon fill="green" stroke="green" points="1347.98,-2306.37 1351.3,-2316.43 1354.98,-2306.5 1347.98,-2306.37"/>
<text text-anchor="middle" x="2056" y="-1644.19" font-family="Times,serif" font-size="14.00">Own_Below_Threat</text>
</g>
<!-- q9&#45;&gt;q0 -->
<g id="edge103" class="edge"><title>q9&#45;&gt;q0</title>
<path fill="none" stroke="green" d="M2808.07,-1486.94C2790.6,-1507.53 2754.24,-1546.23 2714,-1564.39 2601.59,-1615.12 2562.32,-1601.39 2439,-1601.39 1667,-1601.39 1667,-1601.39 1667,-1601.39 1540.79,-1601.39 1470.94,-1549.04 1386,-1642.39 1363.31,-1667.33 1353.52,-2179.41 1351.44,-2306.19"/>
<polygon fill="green" stroke="green" points="1347.93,-2306.22 1351.27,-2316.27 1354.93,-2306.33 1347.93,-2306.22"/>
<text text-anchor="middle" x="2056" y="-1605.19" font-family="Times,serif" font-size="14.00">alt_sep_test</text>
</g>
<!-- q9&#45;&gt;q0 -->
<g id="edge104" class="edge"><title>q9&#45;&gt;q0</title>
<path fill="none" stroke="green" d="M2803.36,-1480.66C2783.16,-1489.73 2746.71,-1505.08 2714,-1513.39 2594.48,-1543.77 2562.32,-1550.39 2439,-1550.39 1667,-1550.39 1667,-1550.39 1667,-1550.39 1541.25,-1550.39 1471.74,-1491.4 1386,-1583.39 1360.93,-1610.29 1352.87,-2172.08 1351.31,-2305.94"/>
<polygon fill="green" stroke="green" points="1347.8,-2306.16 1351.19,-2316.2 1354.8,-2306.24 1347.8,-2306.16"/>
<text text-anchor="middle" x="2056" y="-1554.19" font-family="Times,serif" font-size="14.00">ALIM</text>
</g>
<!-- q9&#45;&gt;q0 -->
<g id="edge105" class="edge"><title>q9&#45;&gt;q0</title>
<path fill="none" stroke="green" d="M2801.98,-1475.39C2748.59,-1481.48 2579.52,-1499.39 2439,-1499.39 1667,-1499.39 1667,-1499.39 1667,-1499.39 1541.45,-1499.39 1472.1,-1437.01 1386,-1528.39 1358.79,-1557.27 1352.33,-2166.6 1351.2,-2306.11"/>
<polygon fill="green" stroke="green" points="1347.7,-2306.36 1351.12,-2316.39 1354.7,-2306.42 1347.7,-2306.36"/>
<text text-anchor="middle" x="2056" y="-1503.19" font-family="Times,serif" font-size="14.00">Inhibit_Biased_Climb</text>
</g>
<!-- q9&#45;&gt;q0 -->
<g id="edge106" class="edge"><title>q9&#45;&gt;q0</title>
<path fill="none" stroke="green" d="M2801.98,-1471.47C2748.58,-1465.62 2579.49,-1448.39 2439,-1448.39 1667,-1448.39 1667,-1448.39 1667,-1448.39 1541.54,-1448.39 1472.24,-1384.27 1386,-1475.39 1356.82,-1506.23 1351.86,-2161.05 1351.12,-2306.1"/>
<polygon fill="green" stroke="green" points="1347.62,-2306.37 1351.07,-2316.38 1354.62,-2306.4 1347.62,-2306.37"/>
<text text-anchor="middle" x="2056" y="-1452.19" font-family="Times,serif" font-size="14.00">Non_Crossing_Biased_Climb</text>
</g>
<!-- q9&#45;&gt;q0 -->
<g id="edge108" class="edge"><title>q9&#45;&gt;q0</title>
<path fill="none" stroke="green" d="M2802.57,-1467.68C2750.21,-1450 2582.3,-1397.39 2439,-1397.39 1667,-1397.39 1667,-1397.39 1667,-1397.39 1541.58,-1397.39 1472.27,-1332.35 1386,-1423.39 1354.93,-1456.18 1351.44,-2154.93 1351.05,-2305.83"/>
<polygon fill="green" stroke="green" points="1347.55,-2306.1 1351.03,-2316.11 1354.55,-2306.12 1347.55,-2306.1"/>
<text text-anchor="middle" x="2056" y="-1401.19" font-family="Times,serif" font-size="14.00">initialize</text>
</g>
<!-- q9&#45;&gt;q0 -->
<g id="edge109" class="edge"><title>q9&#45;&gt;q0</title>
<path fill="none" stroke="black" d="M2805.79,-1461.67C2786.85,-1445.52 2750.25,-1416.68 2714,-1401.39 2599.16,-1352.94 2563.64,-1346.39 2439,-1346.39 1667,-1346.39 1667,-1346.39 1667,-1346.39 1541.62,-1346.39 1472.31,-1280.44 1386,-1371.39 1353,-1406.17 1351.04,-2150.91 1350.99,-2306.18"/>
<polygon fill="black" stroke="black" points="1347.49,-2306.32 1350.98,-2316.32 1354.49,-2306.32 1347.49,-2306.32"/>
<text text-anchor="middle" x="2056" y="-1350.19" font-family="Times,serif" font-size="14.00">fake0</text>
</g>
<!-- q9&#45;&gt;q0 -->
<g id="edge110" class="edge"><title>q9&#45;&gt;q0</title>
<path fill="none" stroke="green" d="M2810.77,-1457.48C2795.63,-1429.96 2760.61,-1373.8 2714,-1346.39 2606.85,-1283.37 2563.31,-1295.39 2439,-1295.39 1667,-1295.39 1667,-1295.39 1667,-1295.39 1541.66,-1295.39 1472.35,-1228.54 1386,-1319.39 1351.08,-1356.13 1350.65,-2145.92 1350.93,-2306.17"/>
<polygon fill="green" stroke="green" points="1347.43,-2306.21 1350.95,-2316.21 1354.43,-2306.2 1347.43,-2306.21"/>
<text text-anchor="middle" x="2056" y="-1299.19" font-family="Times,serif" font-size="14.00">fake1</text>
</g>
<!-- q9&#45;&gt;q0 -->
<g id="edge111" class="edge"><title>q9&#45;&gt;q0</title>
<path fill="none" stroke="green" d="M2814.48,-1456.23C2803.82,-1419.41 2773.42,-1332.78 2714,-1291.39 2612.25,-1220.52 2562.99,-1244.39 2439,-1244.39 1667,-1244.39 1667,-1244.39 1667,-1244.39 1604.33,-1244.39 1429.14,-1222.93 1386,-1268.39 1349.28,-1307.08 1350.31,-2139.98 1350.88,-2305.82"/>
<polygon fill="green" stroke="green" points="1347.38,-2306.19 1350.92,-2316.18 1354.38,-2306.17 1347.38,-2306.19"/>
<text text-anchor="middle" x="2056" y="-1248.19" font-family="Times,serif" font-size="14.00">Learn_Assert</text>
</g>
<!-- q9&#45;&gt;q8 -->
<g id="edge107" class="edge"><title>q9&#45;&gt;q8</title>
<path fill="none" stroke="green" d="M2836.25,-1481.8C2881.73,-1507.5 3018.45,-1589.31 3102,-1688.39 3148.26,-1743.25 3182.04,-1821.87 3197.54,-1862.26"/>
<polygon fill="green" stroke="green" points="3194.28,-1863.54 3201.08,-1871.66 3200.83,-1861.07 3194.28,-1863.54"/>
<text text-anchor="middle" x="3014" y="-1692.19" font-family="Times,serif" font-size="14.00">Own_Above_Threat</text>
</g>
<!-- q10 -->
<g id="node12" class="node"><title>q10</title>
<ellipse fill="none" stroke="green" cx="2438" cy="-1027.39" rx="18" ry="18"/>
<text text-anchor="middle" x="2438" y="-1023.69" font-family="Times,serif" font-size="14.00">D</text>
</g>
<!-- q10&#45;&gt;q0 -->
<g id="edge112" class="edge"><title>q10&#45;&gt;q0</title>
<path fill="none" stroke="green" d="M2431.34,-1044.37C2419.66,-1076.36 2389.58,-1144.97 2338,-1174.39 2245.96,-1226.9 1459.9,-1154.46 1386,-1230.39 1347.39,-1270.06 1349.96,-2136.52 1350.83,-2305.84"/>
<polygon fill="green" stroke="green" points="1347.33,-2305.99 1350.89,-2315.97 1354.33,-2305.95 1347.33,-2305.99"/>
<text text-anchor="middle" x="1862" y="-1199.19" font-family="Times,serif" font-size="14.00">Non_Crossing_Biased_Descend</text>
</g>
<!-- q10&#45;&gt;q0 -->
<g id="edge113" class="edge"><title>q10&#45;&gt;q0</title>
<path fill="none" stroke="green" d="M2428.46,-1042.78C2413.71,-1067.62 2380.88,-1115.85 2338,-1136.39 2242.43,-1182.16 1459.83,-1117.38 1386,-1193.39 1346.04,-1234.54 1349.73,-2134.59 1350.8,-2306.25"/>
<polygon fill="green" stroke="green" points="1347.3,-2306.29 1350.87,-2316.27 1354.3,-2306.25 1347.3,-2306.29"/>
<text text-anchor="middle" x="1862" y="-1158.19" font-family="Times,serif" font-size="14.00">Own_Below_Threat</text>
</g>
<!-- q10&#45;&gt;q0 -->
<g id="edge114" class="edge"><title>q10&#45;&gt;q0</title>
<path fill="none" stroke="green" d="M2424.61,-1039.93C2407.1,-1056.72 2373.28,-1085.87 2338,-1098.39 2238.13,-1133.83 1459.79,-1079.34 1386,-1155.39 1365.31,-1176.71 1353.36,-2128.83 1351.32,-2306.13"/>
<polygon fill="green" stroke="green" points="1347.82,-2306.19 1351.2,-2316.23 1354.81,-2306.27 1347.82,-2306.19"/>
<text text-anchor="middle" x="1862" y="-1116.19" font-family="Times,serif" font-size="14.00">alt_sep_test</text>
</g>
<!-- q10&#45;&gt;q0 -->
<g id="edge115" class="edge"><title>q10&#45;&gt;q0</title>
<path fill="none" stroke="green" d="M2421.23,-1034.09C2401.98,-1041.94 2368.25,-1054.58 2338,-1060.39 2233.95,-1080.37 1459.83,-1039.39 1386,-1115.39 1364.56,-1137.46 1353.2,-2124.92 1351.29,-2306.02"/>
<polygon fill="green" stroke="green" points="1347.79,-2306.06 1351.18,-2316.09 1354.79,-2306.13 1347.79,-2306.06"/>
<text text-anchor="middle" x="1862" y="-1072.19" font-family="Times,serif" font-size="14.00">ALIM</text>
</g>
<!-- q10&#45;&gt;q0 -->
<g id="edge117" class="edge"><title>q10&#45;&gt;q0</title>
<path fill="none" stroke="green" d="M2419.87,-1027.48C2286.87,-1028.22 1423.43,-1034.56 1386,-1073.39 1363.88,-1096.34 1353.04,-2120.89 1351.26,-2305.91"/>
<polygon fill="green" stroke="green" points="1347.76,-2305.92 1351.17,-2315.95 1354.76,-2305.99 1347.76,-2305.92"/>
<text text-anchor="middle" x="1862" y="-1043.19" font-family="Times,serif" font-size="14.00">Non_Crossing_Biased_Climb</text>
</g>
<!-- q10&#45;&gt;q0 -->
<g id="edge118" class="edge"><title>q10&#45;&gt;q0</title>
<path fill="none" stroke="green" d="M2419.7,-1026.25C2289.03,-1017.8 1460.13,-967.459 1386,-1045.39 1363.52,-1069.02 1352.96,-2118.38 1351.25,-2305.88"/>
<polygon fill="green" stroke="green" points="1347.75,-2306.01 1351.16,-2316.04 1354.75,-2306.07 1347.75,-2306.01"/>
<text text-anchor="middle" x="1862" y="-1009.19" font-family="Times,serif" font-size="14.00">Own_Above_Threat</text>
</g>
<!-- q10&#45;&gt;q0 -->
<g id="edge119" class="edge"><title>q10&#45;&gt;q0</title>
<path fill="none" stroke="green" d="M2420.27,-1023.74C2400.66,-1019.6 2367.13,-1012.97 2338,-1009.39 2233.01,-996.507 1459.85,-928.658 1386,-1004.39 1362.47,-1028.52 1352.75,-2114.82 1351.22,-2305.86"/>
<polygon fill="green" stroke="green" points="1347.72,-2305.93 1351.14,-2315.95 1354.72,-2305.98 1347.72,-2305.93"/>
<text text-anchor="middle" x="1862" y="-983.191" font-family="Times,serif" font-size="14.00">initialize</text>
</g>
<!-- q10&#45;&gt;q0 -->
<g id="edge120" class="edge"><title>q10&#45;&gt;q0</title>
<path fill="none" stroke="black" d="M2421.28,-1020.05C2402.07,-1011.44 2368.39,-997.431 2338,-990.391 2234.92,-966.512 1460.33,-892.087 1386,-967.391 1361.63,-992.084 1352.58,-2112.21 1351.19,-2305.98"/>
<polygon fill="black" stroke="black" points="1347.69,-2306.18 1351.12,-2316.2 1354.69,-2306.23 1347.69,-2306.18"/>
<text text-anchor="middle" x="1862" y="-952.191" font-family="Times,serif" font-size="14.00">fake0</text>
</g>
<!-- q10&#45;&gt;q0 -->
<g id="edge121" class="edge"><title>q10&#45;&gt;q0</title>
<path fill="none" stroke="green" d="M2423.63,-1016.04C2405.52,-1001.38 2371.6,-976.317 2338,-964.391 2238.26,-928.986 1460.52,-857.234 1386,-932.391 1360.91,-957.699 1352.43,-2110.06 1351.17,-2306.17"/>
<polygon fill="green" stroke="green" points="1347.67,-2306.23 1351.11,-2316.25 1354.67,-2306.27 1347.67,-2306.23"/>
<text text-anchor="middle" x="1862" y="-917.191" font-family="Times,serif" font-size="14.00">fake1</text>
</g>
<!-- q10&#45;&gt;q0 -->
<g id="edge122" class="edge"><title>q10&#45;&gt;q0</title>
<path fill="none" stroke="green" d="M2427.09,-1013.03C2411.14,-991.209 2377.54,-950.262 2338,-931.391 2242.48,-885.802 1460.5,-822.206 1386,-897.391 1360.26,-923.365 1352.31,-2106.94 1351.16,-2306.09"/>
<polygon fill="green" stroke="green" points="1347.65,-2306.3 1351.1,-2316.32 1354.65,-2306.34 1347.65,-2306.3"/>
<text text-anchor="middle" x="1862" y="-879.191" font-family="Times,serif" font-size="14.00">Learn_Assert</text>
</g>
<!-- q10&#45;&gt;q9 -->
<g id="edge116" class="edge"><title>q10&#45;&gt;q9</title>
<path fill="none" stroke="green" d="M2454.73,-1034.12C2500.9,-1054.6 2637.56,-1120.64 2714,-1215.39 2772.11,-1287.43 2802.02,-1395.95 2813.42,-1446.15"/>
<polygon fill="green" stroke="green" points="2810,-1446.92 2815.57,-1455.94 2816.84,-1445.42 2810,-1446.92"/>
<text text-anchor="middle" x="2626" y="-1219.19" font-family="Times,serif" font-size="14.00">Inhibit_Biased_Climb</text>
</g>
<!-- q11 -->
<g id="node13" class="node"><title>q11</title>
<ellipse fill="none" stroke="green" cx="2056" cy="-583.391" rx="18" ry="18"/>
<text text-anchor="middle" x="2056" y="-579.691" font-family="Times,serif" font-size="14.00">D</text>
</g>
<!-- q11&#45;&gt;q0 -->
<g id="edge123" class="edge"><title>q11&#45;&gt;q0</title>
<path fill="none" stroke="green" d="M2051.2,-600.922C2041.74,-639.899 2013.2,-733.661 1950,-776.391 1845.46,-847.07 1470.98,-749.109 1386,-842.391 1360.39,-870.499 1352.32,-2102.22 1351.15,-2305.98"/>
<polygon fill="green" stroke="green" points="1347.65,-2306.15 1351.1,-2316.17 1354.65,-2306.19 1347.65,-2306.15"/>
<text text-anchor="middle" x="1668" y="-808.191" font-family="Times,serif" font-size="14.00">Non_Crossing_Biased_Descend</text>
</g>
<!-- q11&#45;&gt;q0 -->
<g id="edge124" class="edge"><title>q11&#45;&gt;q0</title>
<path fill="none" stroke="green" d="M2048.12,-600.01C2034.48,-630.667 2000.83,-695.693 1950,-725.391 1840.95,-789.105 1470.69,-701.704 1386,-795.391 1359.64,-824.545 1352.17,-2100.18 1351.13,-2306.38"/>
<polygon fill="green" stroke="green" points="1347.63,-2306.39 1351.08,-2316.4 1354.63,-2306.42 1347.63,-2306.39"/>
<text text-anchor="middle" x="1668" y="-755.191" font-family="Times,serif" font-size="14.00">Own_Below_Threat</text>
</g>
<!-- q11&#45;&gt;q0 -->
<g id="edge125" class="edge"><title>q11&#45;&gt;q0</title>
<path fill="none" stroke="green" d="M2044.09,-596.982C2026.65,-617.632 1990.31,-656.404 1950,-674.391 1834.64,-725.861 1470.6,-651.579 1386,-745.391 1358.8,-775.557 1352.02,-2095.32 1351.11,-2306.13"/>
<polygon fill="green" stroke="green" points="1347.61,-2306.35 1351.07,-2316.37 1354.61,-2306.38 1347.61,-2306.35"/>
<text text-anchor="middle" x="1668" y="-699.191" font-family="Times,serif" font-size="14.00">alt_sep_test</text>
</g>
<!-- q11&#45;&gt;q0 -->
<g id="edge126" class="edge"><title>q11&#45;&gt;q0</title>
<path fill="none" stroke="green" d="M2039.37,-590.719C2019.19,-599.861 1982.76,-615.275 1950,-623.391 1827.44,-653.755 1470.69,-598.737 1386,-692.391 1357.8,-723.572 1351.85,-2091.55 1351.09,-2306.19"/>
<polygon fill="green" stroke="green" points="1347.59,-2306.31 1351.06,-2316.32 1354.59,-2306.33 1347.59,-2306.31"/>
<text text-anchor="middle" x="1668" y="-640.191" font-family="Times,serif" font-size="14.00">ALIM</text>
</g>
<!-- q11&#45;&gt;q0 -->
<g id="edge127" class="edge"><title>q11&#45;&gt;q0</title>
<path fill="none" stroke="green" d="M2037.77,-583.342C1937.44,-583.232 1431.6,-585.135 1386,-634.391 1356.39,-666.378 1351.62,-2087.28 1351.06,-2306.2"/>
<polygon fill="green" stroke="green" points="1347.56,-2306.24 1351.04,-2316.25 1354.56,-2306.26 1347.56,-2306.24"/>
<text text-anchor="middle" x="1668" y="-601.191" font-family="Times,serif" font-size="14.00">Inhibit_Biased_Climb</text>
</g>
<!-- q11&#45;&gt;q0 -->
<g id="edge129" class="edge"><title>q11&#45;&gt;q0</title>
<path fill="none" stroke="green" d="M2038.14,-580.604C1943.06,-565.312 1474.87,-495.849 1386,-595.391 1356.27,-628.687 1351.6,-2084.72 1351.06,-2306.26"/>
<polygon fill="green" stroke="green" points="1347.56,-2306.4 1351.04,-2316.41 1354.56,-2306.42 1347.56,-2306.4"/>
<text text-anchor="middle" x="1668" y="-551.191" font-family="Times,serif" font-size="14.00">Own_Above_Threat</text>
</g>
<!-- q11&#45;&gt;q0 -->
<g id="edge130" class="edge"><title>q11&#45;&gt;q0</title>
<path fill="none" stroke="green" d="M2039.35,-576.383C2019.14,-567.65 1982.67,-552.956 1950,-545.391 1789.54,-508.237 1744.55,-517.195 1580,-524.391 1493.53,-528.172 1445.09,-478.147 1386,-541.391 1354.55,-575.053 1351.34,-2079.91 1351.03,-2306.07"/>
<polygon fill="green" stroke="green" points="1347.53,-2306.13 1351.02,-2316.14 1354.53,-2306.14 1347.53,-2306.13"/>
<text text-anchor="middle" x="1668" y="-528.191" font-family="Times,serif" font-size="14.00">initialize</text>
</g>
<!-- q11&#45;&gt;q0 -->
<g id="edge131" class="edge"><title>q11&#45;&gt;q0</title>
<path fill="none" stroke="black" d="M2041.89,-571.773C2023.06,-555.866 1986.59,-527.863 1950,-515.391 1890.68,-495.172 1429.59,-464.366 1386,-509.391 1353.35,-543.114 1351.16,-2078.47 1351.01,-2306.26"/>
<polygon fill="black" stroke="black" points="1347.51,-2306.39 1351,-2316.39 1354.51,-2306.39 1347.51,-2306.39"/>
<text text-anchor="middle" x="1668" y="-497.191" font-family="Times,serif" font-size="14.00">fake0</text>
</g>
<!-- q11&#45;&gt;q0 -->
<g id="edge132" class="edge"><title>q11&#45;&gt;q0</title>
<path fill="none" stroke="green" d="M2044.18,-569.464C2026.85,-548.311 1990.66,-508.62 1950,-490.391 1892.81,-464.754 1428.77,-438.585 1386,-484.391 1353.53,-519.169 1351.18,-2075.05 1351.01,-2305.89"/>
<polygon fill="green" stroke="green" points="1347.51,-2306.15 1351.01,-2316.15 1354.51,-2306.15 1347.51,-2306.15"/>
<text text-anchor="middle" x="1668" y="-469.191" font-family="Times,serif" font-size="14.00">fake1</text>
</g>
<!-- q11&#45;&gt;q0 -->
<g id="edge133" class="edge"><title>q11&#45;&gt;q0</title>
<path fill="none" stroke="green" d="M2046.46,-567.624C2031.09,-540.997 1996.04,-487.653 1950,-463.391 1894.56,-434.175 1428.53,-413.363 1386,-459.391 1353.26,-494.829 1351.14,-2073.21 1351.01,-2305.87"/>
<polygon fill="green" stroke="green" points="1347.51,-2306.2 1351,-2316.2 1354.51,-2306.21 1347.51,-2306.2"/>
<text text-anchor="middle" x="1668" y="-441.191" font-family="Times,serif" font-size="14.00">Learn_Assert</text>
</g>
<!-- q11&#45;&gt;q10 -->
<g id="edge128" class="edge"><title>q11&#45;&gt;q10</title>
<path fill="none" stroke="green" d="M2071.63,-592.93C2116.51,-622.795 2254.27,-718.991 2338,-827.391 2381.14,-883.239 2413.01,-960.862 2427.81,-1001"/>
<polygon fill="green" stroke="green" points="2424.58,-1002.38 2431.28,-1010.59 2431.17,-999.999 2424.58,-1002.38"/>
<text text-anchor="middle" x="2250" y="-831.191" font-family="Times,serif" font-size="14.00">Non_Crossing_Biased_Climb</text>
</g>
<!-- q12&#45;&gt;q0 -->
<g id="edge134" class="edge"><title>q12&#45;&gt;q0</title>
<path fill="none" stroke="green" d="M1654.14,-256.487C1636.74,-273.06 1604.99,-304.011 1580,-332.391 1571.42,-342.134 1573.35,-349.087 1562,-355.391 1527.61,-374.497 1412.54,-345.356 1386,-374.391 1351.9,-411.694 1350.95,-2068.18 1350.99,-2306.06"/>
<polygon fill="green" stroke="green" points="1347.49,-2306.3 1350.99,-2316.3 1354.49,-2306.3 1347.49,-2306.3"/>
<text text-anchor="middle" x="1474" y="-378.191" font-family="Times,serif" font-size="14.00">Non_Crossing_Biased_Descend</text>
</g>
<!-- q12&#45;&gt;q0 -->
<g id="edge135" class="edge"><title>q12&#45;&gt;q0</title>
<path fill="none" stroke="green" d="M1654.32,-256.456C1635.73,-273.334 1599.23,-303.483 1562,-317.391 1525.15,-331.158 1412.54,-307.351 1386,-336.391 1351.21,-374.462 1350.85,-2066.44 1350.98,-2306.24"/>
<polygon fill="green" stroke="green" points="1347.48,-2306.26 1350.98,-2316.26 1354.48,-2306.26 1347.48,-2306.26"/>
<text text-anchor="middle" x="1474" y="-340.191" font-family="Times,serif" font-size="14.00">Own_Below_Threat</text>
</g>
<!-- q12&#45;&gt;q0 -->
<g id="edge137" class="edge"><title>q12&#45;&gt;q0</title>
<path fill="none" stroke="green" d="M1650.93,-250.949C1630.59,-258.972 1594.29,-272.351 1562,-279.391 1523.56,-287.77 1412.53,-269.347 1386,-298.391 1350.54,-337.211 1350.76,-2063.13 1350.97,-2306.09"/>
<polygon fill="green" stroke="green" points="1347.47,-2306.23 1350.98,-2316.23 1354.47,-2306.22 1347.47,-2306.23"/>
<text text-anchor="middle" x="1474" y="-302.191" font-family="Times,serif" font-size="14.00">ALIM</text>
</g>
<!-- q12&#45;&gt;q0 -->
<g id="edge138" class="edge"><title>q12&#45;&gt;q0</title>
<path fill="none" stroke="green" d="M1649.9,-244.047C1591.76,-243.054 1404.28,-241.363 1386,-260.391 1348.87,-299.034 1350.53,-2059.76 1350.94,-2305.93"/>
<polygon fill="green" stroke="green" points="1347.45,-2306.2 1350.96,-2316.19 1354.45,-2306.19 1347.45,-2306.2"/>
<text text-anchor="middle" x="1474" y="-264.191" font-family="Times,serif" font-size="14.00">Inhibit_Biased_Climb</text>
</g>
<!-- q12&#45;&gt;q0 -->
<g id="edge139" class="edge"><title>q12&#45;&gt;q0</title>
<path fill="none" stroke="green" d="M1650.19,-240.156C1595.4,-226.808 1423.39,-188.618 1386,-225.391 1347.11,-263.641 1350.3,-2058.61 1350.92,-2306.19"/>
<polygon fill="green" stroke="green" points="1347.42,-2306.2 1350.95,-2316.19 1354.42,-2306.18 1347.42,-2306.2"/>
<text text-anchor="middle" x="1474" y="-229.191" font-family="Times,serif" font-size="14.00">Non_Crossing_Biased_Climb</text>
</g>
<!-- q12&#45;&gt;q0 -->
<g id="edge140" class="edge"><title>q12&#45;&gt;q0</title>
<path fill="none" stroke="green" d="M1652.89,-234.537C1633.48,-221.644 1596.96,-199.714 1562,-191.391 1523.95,-182.333 1413.88,-163.962 1386,-191.391 1346.47,-230.282 1350.21,-2056.05 1350.91,-2306.12"/>
<polygon fill="green" stroke="green" points="1347.41,-2306.23 1350.94,-2316.22 1354.41,-2306.21 1347.41,-2306.23"/>
<text text-anchor="middle" x="1474" y="-195.191" font-family="Times,serif" font-size="14.00">Own_Above_Threat</text>
</g>
<!-- q12&#45;&gt;q0 -->
<g id="edge141" class="edge"><title>q12&#45;&gt;q0</title>
<path fill="none" stroke="green" d="M1655.88,-230.604C1638.42,-210.199 1602.39,-172.819 1562,-158.391 1525.17,-145.233 1413.88,-130.958 1386,-158.391 1345.84,-197.906 1350.14,-2053.68 1350.91,-2306.08"/>
<polygon fill="green" stroke="green" points="1347.41,-2306.27 1350.94,-2316.26 1354.41,-2306.25 1347.41,-2306.27"/>
<text text-anchor="middle" x="1474" y="-162.191" font-family="Times,serif" font-size="14.00">initialize</text>
</g>
<!-- q12&#45;&gt;q0 -->
<g id="edge142" class="edge"><title>q12&#45;&gt;q0</title>
<path fill="none" stroke="black" d="M1658.98,-228.477C1644.17,-201.115 1609.64,-146.011 1562,-124.391 1490.77,-92.0682 1441.75,-69.5191 1386,-124.391 1345.2,-164.549 1350.06,-2051.24 1350.9,-2306.03"/>
<polygon fill="black" stroke="black" points="1347.4,-2306.31 1350.93,-2316.3 1354.4,-2306.29 1347.4,-2306.31"/>
<text text-anchor="middle" x="1474" y="-128.191" font-family="Times,serif" font-size="14.00">fake0</text>
</g>
<!-- q12&#45;&gt;q0 -->
<g id="edge143" class="edge"><title>q12&#45;&gt;q0</title>
<path fill="none" stroke="green" d="M1662.58,-227.125C1652.18,-190.643 1622.41,-106.29 1562,-72.3909 1527.89,-53.2514 1413.87,-44.95 1386,-72.3909 1344.21,-113.543 1349.94,-2048.49 1350.89,-2306.15"/>
<polygon fill="green" stroke="green" points="1347.39,-2306.22 1350.93,-2316.21 1354.39,-2306.19 1347.39,-2306.22"/>
<text text-anchor="middle" x="1474" y="-76.1909" font-family="Times,serif" font-size="14.00">fake1</text>
</g>
<!-- q12&#45;&gt;q0 -->
<g id="edge144" class="edge"><title>q12&#45;&gt;q0</title>
<path fill="none" stroke="green" d="M1664.3,-226.56C1656.86,-184.482 1631.76,-79.3219 1562,-36.3909 1495.38,4.60514 1441.73,18.4978 1386,-36.3909 1364.75,-57.3187 1352.66,-2045.25 1351.16,-2306.24"/>
<polygon fill="green" stroke="green" points="1347.66,-2306.38 1351.1,-2316.4 1354.66,-2306.42 1347.66,-2306.38"/>
<text text-anchor="middle" x="1474" y="-40.1909" font-family="Times,serif" font-size="14.00">Learn_Assert</text>
</g>
<!-- q12&#45;&gt;q11 -->
<g id="edge136" class="edge"><title>q12&#45;&gt;q11</title>
<path fill="none" stroke="green" d="M1686.3,-244.411C1734.4,-245.392 1871.29,-254.603 1950,-325.391 2019.3,-387.714 2043.76,-502.42 2051.63,-555.318"/>
<polygon fill="green" stroke="green" points="2048.18,-555.913 2053.02,-565.333 2055.11,-554.945 2048.18,-555.913"/>
<text text-anchor="middle" x="1862" y="-329.191" font-family="Times,serif" font-size="14.00">alt_sep_test</text>
</g>
<!-- iq0 -->
<g id="node15" class="node"><title>iq0</title>
</g>
<!-- iq0&#45;&gt;q0 -->
<g id="edge1" class="edge"><title>iq0&#45;&gt;q0</title>
<path fill="none" stroke="blue" d="M587.259,-2148.2C713.833,-2142.73 1257.21,-2122.12 1314,-2169.39 1334.64,-2186.57 1343.67,-2263.86 1347.13,-2306.29"/>
<polygon fill="blue" stroke="blue" points="1343.65,-2306.56 1347.9,-2316.27 1350.62,-2306.03 1343.65,-2306.56"/>
</g>
</g>
</svg>
