<?xml version="1.0" encoding="UTF-8" standalone="no"?>
<!DOCTYPE svg PUBLIC "-//W3C//DTD SVG 1.1//EN"
 "http://www.w3.org/Graphics/SVG/1.1/DTD/svg11.dtd">
<!-- Generated by graphviz version 2.34.0 (20141125.1709)
 -->
<!-- Title: finite_automaton Pages: 1 -->
<svg width="576pt" height="31pt"
 viewBox="0.00 0.00 576.00 30.51" xmlns="http://www.w3.org/2000/svg" xmlns:xlink="http://www.w3.org/1999/xlink">
<g id="graph0" class="graph" transform="scale(0.14739 0.14739) rotate(0) translate(4 203)">
<title>finite_automaton</title>
<polygon fill="white" stroke="white" points="-4,4 -4,-203 3904,-203 3904,4 -4,4"/>
<!-- dom_edges -->
<g id="node1" class="node"><title>dom_edges</title>
<polygon fill="none" stroke="green" points="1001.5,-36 0.5,-36 0.5,-0 1001.5,-0 1001.5,-36"/>
<text text-anchor="middle" x="501" y="-14.3" font-family="Times,serif" font-size="14.00">Dominating edges: Non_Crossing_Biased_Climb, ALIM, Inhibit_Biased_Climb, Non_Crossing_Biased_Descend, Own_Below_Threat, alt_sep_test, initialize, fake1, Learn_Assert</text>
</g>
<!-- q1 -->
<g id="node2" class="node"><title>q1</title>
<ellipse fill="none" stroke="green" cx="3878" cy="-149" rx="18" ry="18"/>
<ellipse fill="none" stroke="green" cx="3878" cy="-149" rx="22" ry="22"/>
<text text-anchor="middle" x="3878" y="-145.3" font-family="Times,serif" font-size="14.00">D</text>
</g>
<!-- q0 -->
<g id="node3" class="node"><title>q0</title>
<ellipse fill="none" stroke="green" cx="1058" cy="-72" rx="18" ry="18"/>
</g>
<!-- q15 -->
<g id="node17" class="node"><title>q15</title>
<ellipse fill="none" stroke="green" cx="1178" cy="-72" rx="18" ry="18"/>
</g>
<!-- q0&#45;&gt;q15 -->
<g id="edge2" class="edge"><title>q0&#45;&gt;q15</title>
<path fill="none" stroke="green" d="M1076.16,-72C1095.47,-72 1127.11,-72 1149.8,-72"/>
<polygon fill="green" stroke="green" points="1149.82,-75.5001 1159.82,-72 1149.82,-68.5001 1149.82,-75.5001"/>
<text text-anchor="middle" x="1118" y="-75.8" font-family="Times,serif" font-size="14.00">initialize</text>
</g>
<!-- q2 -->
<g id="node4" class="node"><title>q2</title>
<ellipse fill="none" stroke="green" cx="3728" cy="-149" rx="18" ry="18"/>
</g>
<!-- q2&#45;&gt;q1 -->
<g id="edge3" class="edge"><title>q2&#45;&gt;q1</title>
<path fill="none" stroke="green" d="M3746.27,-149C3770.55,-149 3815.2,-149 3845.49,-149"/>
<polygon fill="green" stroke="green" points="3845.55,-152.5 3855.55,-149 3845.55,-145.5 3845.55,-152.5"/>
<text text-anchor="middle" x="3801" y="-152.8" font-family="Times,serif" font-size="14.00">Learn_Assert</text>
</g>
<!-- q3 -->
<g id="node5" class="node"><title>q3</title>
<ellipse fill="none" stroke="black" cx="3440" cy="-127" rx="18" ry="18"/>
</g>
<!-- q3&#45;&gt;q2 -->
<g id="edge4" class="edge"><title>q3&#45;&gt;q2</title>
<path fill="none" stroke="black" d="M3458.16,-127.39C3492.42,-128.276 3571.68,-130.856 3638,-137 3658.83,-138.929 3682.27,-142.132 3699.86,-144.744"/>
<polygon fill="black" stroke="black" points="3699.57,-148.24 3709.99,-146.277 3700.62,-141.319 3699.57,-148.24"/>
<text text-anchor="middle" x="3582" y="-140.8" font-family="Times,serif" font-size="14.00">Own_Above_Threat</text>
</g>
<!-- q4 -->
<g id="node6" class="node"><title>q4</title>
<ellipse fill="none" stroke="black" cx="3256" cy="-105" rx="18" ry="18"/>
</g>
<!-- q4&#45;&gt;q3 -->
<g id="edge5" class="edge"><title>q4&#45;&gt;q3</title>
<path fill="none" stroke="green" d="M3274.16,-102.244C3302.02,-98.4011 3358.54,-93.2421 3404,-106 3408.22,-107.185 3412.45,-109.024 3416.43,-111.131"/>
<polygon fill="green" stroke="green" points="3414.78,-114.223 3425.16,-116.355 3418.37,-108.216 3414.78,-114.223"/>
<text text-anchor="middle" x="3348" y="-109.8" font-family="Times,serif" font-size="14.00">ALIM</text>
</g>
<!-- q5 -->
<g id="node7" class="node"><title>q5</title>
<ellipse fill="none" stroke="black" cx="3008" cy="-62" rx="18" ry="18"/>
</g>
<!-- q5&#45;&gt;q4 -->
<g id="edge6" class="edge"><title>q5&#45;&gt;q4</title>
<path fill="none" stroke="green" d="M3026.1,-61.9855C3062.57,-62.3928 3150.32,-65.7158 3220,-87 3223.68,-88.1241 3227.43,-89.6247 3231.05,-91.2816"/>
<polygon fill="green" stroke="green" points="3229.66,-94.5006 3240.17,-95.8819 3232.82,-88.2515 3229.66,-94.5006"/>
<text text-anchor="middle" x="3132" y="-90.8" font-family="Times,serif" font-size="14.00">fake1</text>
</g>
<!-- q6 -->
<g id="node8" class="node"><title>q6</title>
<ellipse fill="none" stroke="black" cx="2824" cy="-103" rx="18" ry="18"/>
</g>
<!-- q6&#45;&gt;q5 -->
<g id="edge7" class="edge"><title>q6&#45;&gt;q5</title>
<path fill="none" stroke="green" d="M2839.94,-94.5589C2846,-91.4504 2853.17,-88.1639 2860,-86 2900.61,-73.1245 2949.84,-66.881 2979.77,-64.0661"/>
<polygon fill="green" stroke="green" points="2980.22,-67.5404 2989.87,-63.1782 2979.61,-60.5673 2980.22,-67.5404"/>
<text text-anchor="middle" x="2916" y="-89.8" font-family="Times,serif" font-size="14.00">Own_Below_Threat</text>
</g>
<!-- q22 -->
<g id="node23" class="node"><title>q22</title>
<ellipse fill="none" stroke="black" cx="3008" cy="-116" rx="18" ry="18"/>
</g>
<!-- q6&#45;&gt;q22 -->
<g id="edge8" class="edge"><title>q6&#45;&gt;q22</title>
<path fill="none" stroke="black" d="M2842.12,-104.223C2873.69,-106.478 2941.33,-111.309 2979.43,-114.031"/>
<polygon fill="black" stroke="black" points="2979.57,-117.549 2989.79,-114.771 2980.07,-110.567 2979.57,-117.549"/>
<text text-anchor="middle" x="2916" y="-116.8" font-family="Times,serif" font-size="14.00">Own_Above_Threat</text>
</g>
<!-- q7 -->
<g id="node9" class="node"><title>q7</title>
<ellipse fill="none" stroke="black" cx="2538" cy="-103" rx="18" ry="18"/>
</g>
<!-- q7&#45;&gt;q6 -->
<g id="edge9" class="edge"><title>q7&#45;&gt;q6</title>
<path fill="none" stroke="green" d="M2556.34,-103C2604.08,-103 2737.77,-103 2795.68,-103"/>
<polygon fill="green" stroke="green" points="2795.89,-106.5 2805.89,-103 2795.89,-99.5001 2795.89,-106.5"/>
<text text-anchor="middle" x="2700" y="-106.8" font-family="Times,serif" font-size="14.00">Non_Crossing_Biased_Descend</text>
</g>
<!-- q21 -->
<g id="node22" class="node"><title>q21</title>
<ellipse fill="none" stroke="black" cx="2824" cy="-157" rx="18" ry="18"/>
</g>
<!-- q7&#45;&gt;q21 -->
<g id="edge10" class="edge"><title>q7&#45;&gt;q21</title>
<path fill="none" stroke="green" d="M2555.42,-107.728C2570.15,-111.86 2592.4,-117.833 2612,-122 2677.54,-135.936 2755.53,-147.616 2795.84,-153.296"/>
<polygon fill="green" stroke="green" points="2795.56,-156.79 2805.95,-154.704 2796.52,-149.857 2795.56,-156.79"/>
<text text-anchor="middle" x="2700" y="-155.8" font-family="Times,serif" font-size="14.00">Own_Below_Threat</text>
</g>
<!-- q8 -->
<g id="node10" class="node"><title>q8</title>
<ellipse fill="none" stroke="black" cx="2392" cy="-103" rx="18" ry="18"/>
</g>
<!-- q8&#45;&gt;q7 -->
<g id="edge11" class="edge"><title>q8&#45;&gt;q7</title>
<path fill="none" stroke="green" d="M2410.08,-103C2434.66,-103 2480.25,-103 2509.57,-103"/>
<polygon fill="green" stroke="green" points="2509.94,-106.5 2519.94,-103 2509.94,-99.5001 2509.94,-106.5"/>
<text text-anchor="middle" x="2446" y="-106.8" font-family="Times,serif" font-size="14.00">ALIM</text>
</g>
<!-- q9 -->
<g id="node11" class="node"><title>q9</title>
<ellipse fill="none" stroke="black" cx="2284" cy="-103" rx="18" ry="18"/>
</g>
<!-- q9&#45;&gt;q8 -->
<g id="edge12" class="edge"><title>q9&#45;&gt;q8</title>
<path fill="none" stroke="green" d="M2302.03,-103C2318.62,-103 2344.12,-103 2363.57,-103"/>
<polygon fill="green" stroke="green" points="2363.66,-106.5 2373.66,-103 2363.66,-99.5001 2363.66,-106.5"/>
<text text-anchor="middle" x="2338" y="-106.8" font-family="Times,serif" font-size="14.00">fake1</text>
</g>
<!-- q10 -->
<g id="node12" class="node"><title>q10</title>
<ellipse fill="none" stroke="black" cx="2036" cy="-103" rx="18" ry="18"/>
</g>
<!-- q10&#45;&gt;q9 -->
<g id="edge13" class="edge"><title>q10&#45;&gt;q9</title>
<path fill="none" stroke="green" d="M2054.3,-103C2096.38,-103 2204.37,-103 2255.45,-103"/>
<polygon fill="green" stroke="green" points="2255.72,-106.5 2265.72,-103 2255.72,-99.5001 2255.72,-106.5"/>
<text text-anchor="middle" x="2160" y="-106.8" font-family="Times,serif" font-size="14.00">Own_Below_Threat</text>
</g>
<!-- q11 -->
<g id="node13" class="node"><title>q11</title>
<ellipse fill="none" stroke="black" cx="1928" cy="-103" rx="18" ry="18"/>
</g>
<!-- q11&#45;&gt;q10 -->
<g id="edge14" class="edge"><title>q11&#45;&gt;q10</title>
<path fill="none" stroke="green" d="M1946.03,-103C1962.62,-103 1988.12,-103 2007.57,-103"/>
<polygon fill="green" stroke="green" points="2007.66,-106.5 2017.66,-103 2007.66,-99.5001 2007.66,-106.5"/>
<text text-anchor="middle" x="1982" y="-106.8" font-family="Times,serif" font-size="14.00">fake1</text>
</g>
<!-- q12 -->
<g id="node14" class="node"><title>q12</title>
<ellipse fill="none" stroke="green" cx="1744" cy="-72" rx="18" ry="18"/>
</g>
<!-- q12&#45;&gt;q11 -->
<g id="edge15" class="edge"><title>q12&#45;&gt;q11</title>
<path fill="none" stroke="green" d="M1761.8,-74.8608C1793.41,-80.2453 1861.98,-91.926 1900.09,-98.4173"/>
<polygon fill="green" stroke="green" points="1899.53,-101.872 1909.98,-100.101 1900.71,-94.9715 1899.53,-101.872"/>
<text text-anchor="middle" x="1836" y="-99.8" font-family="Times,serif" font-size="14.00">Own_Below_Threat</text>
</g>
<!-- q25 -->
<g id="node26" class="node"><title>q25</title>
<ellipse fill="none" stroke="black" cx="1928" cy="-49" rx="18" ry="18"/>
</g>
<!-- q12&#45;&gt;q25 -->
<g id="edge16" class="edge"><title>q12&#45;&gt;q25</title>
<path fill="none" stroke="black" d="M1761.23,-66.6684C1767.09,-64.9294 1773.79,-63.1516 1780,-62 1821.28,-54.349 1869.95,-51.1663 1899.63,-49.8665"/>
<polygon fill="black" stroke="black" points="1899.8,-53.3624 1909.66,-49.468 1899.53,-46.3679 1899.8,-53.3624"/>
<text text-anchor="middle" x="1836" y="-65.8" font-family="Times,serif" font-size="14.00">Own_Above_Threat</text>
</g>
<!-- q13 -->
<g id="node15" class="node"><title>q13</title>
<ellipse fill="none" stroke="green" cx="1550" cy="-72" rx="18" ry="18"/>
</g>
<!-- q13&#45;&gt;q12 -->
<g id="edge17" class="edge"><title>q13&#45;&gt;q12</title>
<path fill="none" stroke="green" d="M1568.04,-72C1601.41,-72 1675.64,-72 1715.85,-72"/>
<polygon fill="green" stroke="green" points="1716,-75.5001 1726,-72 1716,-68.5001 1716,-75.5001"/>
<text text-anchor="middle" x="1647" y="-75.8" font-family="Times,serif" font-size="14.00">Inhibit_Biased_Climb</text>
</g>
<!-- q14 -->
<g id="node16" class="node"><title>q14</title>
<ellipse fill="none" stroke="green" cx="1314" cy="-72" rx="18" ry="18"/>
</g>
<!-- q14&#45;&gt;q13 -->
<g id="edge18" class="edge"><title>q14&#45;&gt;q13</title>
<path fill="none" stroke="green" d="M1332.21,-72C1372.44,-72 1472.92,-72 1521.65,-72"/>
<polygon fill="green" stroke="green" points="1521.77,-75.5001 1531.77,-72 1521.77,-68.5001 1521.77,-75.5001"/>
<text text-anchor="middle" x="1432" y="-75.8" font-family="Times,serif" font-size="14.00">Non_Crossing_Biased_Climb</text>
</g>
<!-- q15&#45;&gt;q14 -->
<g id="edge19" class="edge"><title>q15&#45;&gt;q14</title>
<path fill="none" stroke="green" d="M1196.24,-72C1218.86,-72 1258.8,-72 1285.58,-72"/>
<polygon fill="green" stroke="green" points="1285.82,-75.5001 1295.82,-72 1285.82,-68.5001 1285.82,-75.5001"/>
<text text-anchor="middle" x="1246" y="-75.8" font-family="Times,serif" font-size="14.00">alt_sep_test</text>
</g>
<!-- q17 -->
<g id="node18" class="node"><title>q17</title>
<ellipse fill="none" stroke="black" cx="3582" cy="-179" rx="18" ry="18"/>
</g>
<!-- q17&#45;&gt;q2 -->
<g id="edge20" class="edge"><title>q17&#45;&gt;q2</title>
<path fill="none" stroke="green" d="M3599.8,-175.5C3624.51,-170.351 3670.91,-160.686 3700.31,-154.56"/>
<polygon fill="green" stroke="green" points="3701.23,-157.944 3710.31,-152.478 3699.8,-151.091 3701.23,-157.944"/>
<text text-anchor="middle" x="3674" y="-166.8" font-family="Times,serif" font-size="14.00">ALIM</text>
</g>
<!-- q18 -->
<g id="node19" class="node"><title>q18</title>
<ellipse fill="none" stroke="black" cx="3440" cy="-181" rx="18" ry="18"/>
</g>
<!-- q18&#45;&gt;q17 -->
<g id="edge21" class="edge"><title>q18&#45;&gt;q17</title>
<path fill="none" stroke="green" d="M3458.17,-180.755C3481.99,-180.414 3525.34,-179.795 3553.65,-179.391"/>
<polygon fill="green" stroke="green" points="3553.74,-182.89 3563.69,-179.247 3553.64,-175.891 3553.74,-182.89"/>
<text text-anchor="middle" x="3492" y="-183.8" font-family="Times,serif" font-size="14.00">fake1</text>
</g>
<!-- q19 -->
<g id="node20" class="node"><title>q19</title>
<ellipse fill="none" stroke="black" cx="3256" cy="-170" rx="18" ry="18"/>
</g>
<!-- q19&#45;&gt;q3 -->
<g id="edge23" class="edge"><title>q19&#45;&gt;q3</title>
<path fill="none" stroke="black" d="M3271.95,-161.605C3278.02,-158.503 3285.19,-155.209 3292,-153 3332.62,-139.827 3381.85,-132.84 3411.77,-129.534"/>
<polygon fill="black" stroke="black" points="3412.29,-132.998 3421.87,-128.477 3411.57,-126.036 3412.29,-132.998"/>
<text text-anchor="middle" x="3348" y="-156.8" font-family="Times,serif" font-size="14.00">Own_Above_Threat</text>
</g>
<!-- q19&#45;&gt;q18 -->
<g id="edge22" class="edge"><title>q19&#45;&gt;q18</title>
<path fill="none" stroke="green" d="M3274.12,-171.035C3305.69,-172.943 3373.33,-177.031 3411.43,-179.334"/>
<polygon fill="green" stroke="green" points="3411.6,-182.85 3421.79,-179.96 3412.02,-175.863 3411.6,-182.85"/>
<text text-anchor="middle" x="3348" y="-181.8" font-family="Times,serif" font-size="14.00">Own_Below_Threat</text>
</g>
<!-- q20 -->
<g id="node21" class="node"><title>q20</title>
<ellipse fill="none" stroke="black" cx="3008" cy="-170" rx="18" ry="18"/>
</g>
<!-- q20&#45;&gt;q19 -->
<g id="edge24" class="edge"><title>q20&#45;&gt;q19</title>
<path fill="none" stroke="green" d="M3026.3,-170C3068.38,-170 3176.37,-170 3227.45,-170"/>
<polygon fill="green" stroke="green" points="3227.72,-173.5 3237.72,-170 3227.72,-166.5 3227.72,-173.5"/>
<text text-anchor="middle" x="3132" y="-173.8" font-family="Times,serif" font-size="14.00">Non_Crossing_Biased_Descend</text>
</g>
<!-- q21&#45;&gt;q20 -->
<g id="edge25" class="edge"><title>q21&#45;&gt;q20</title>
<path fill="none" stroke="green" d="M2842.12,-158.223C2873.69,-160.478 2941.33,-165.309 2979.43,-168.031"/>
<polygon fill="green" stroke="green" points="2979.57,-171.549 2989.79,-168.771 2980.07,-164.567 2979.57,-171.549"/>
<text text-anchor="middle" x="2916" y="-170.8" font-family="Times,serif" font-size="14.00">fake1</text>
</g>
<!-- q22&#45;&gt;q4 -->
<g id="edge26" class="edge"><title>q22&#45;&gt;q4</title>
<path fill="none" stroke="black" d="M3026.3,-115.227C3068.38,-113.345 3176.37,-108.516 3227.45,-106.232"/>
<polygon fill="black" stroke="black" points="3227.89,-109.716 3237.72,-105.773 3227.57,-102.723 3227.89,-109.716"/>
<text text-anchor="middle" x="3132" y="-117.8" font-family="Times,serif" font-size="14.00">Own_Above_Threat</text>
</g>
<!-- q23 -->
<g id="node24" class="node"><title>q23</title>
<ellipse fill="none" stroke="black" cx="2338" cy="-49" rx="18" ry="18"/>
</g>
<!-- q23&#45;&gt;q5 -->
<g id="edge27" class="edge"><title>q23&#45;&gt;q5</title>
<path fill="none" stroke="green" d="M2356.26,-49C2377.24,-49 2413.72,-49 2445,-49 2445,-49 2445,-49 2825,-49 2880.12,-49 2944.39,-55.0057 2979.91,-58.8531"/>
<polygon fill="green" stroke="green" points="2979.64,-62.3448 2989.97,-59.9688 2980.41,-55.3875 2979.64,-62.3448"/>
<text text-anchor="middle" x="2538" y="-52.8" font-family="Times,serif" font-size="14.00">Own_Below_Threat</text>
</g>
<!-- q24 -->
<g id="node25" class="node"><title>q24</title>
<ellipse fill="none" stroke="black" cx="2036" cy="-49" rx="18" ry="18"/>
</g>
<!-- q24&#45;&gt;q23 -->
<g id="edge28" class="edge"><title>q24&#45;&gt;q23</title>
<path fill="none" stroke="green" d="M2054.43,-49C2104.46,-49 2248.85,-49 2309.58,-49"/>
<polygon fill="green" stroke="green" points="2309.9,-52.5001 2319.9,-49 2309.9,-45.5001 2309.9,-52.5001"/>
<text text-anchor="middle" x="2160" y="-52.8" font-family="Times,serif" font-size="14.00">Non_Crossing_Biased_Descend</text>
</g>
<!-- q25&#45;&gt;q24 -->
<g id="edge29" class="edge"><title>q25&#45;&gt;q24</title>
<path fill="none" stroke="green" d="M1946.03,-49C1962.62,-49 1988.12,-49 2007.57,-49"/>
<polygon fill="green" stroke="green" points="2007.66,-52.5001 2017.66,-49 2007.66,-45.5001 2007.66,-52.5001"/>
<text text-anchor="middle" x="1982" y="-52.8" font-family="Times,serif" font-size="14.00">ALIM</text>
</g>
<!-- iq0 -->
<g id="node27" class="node"><title>iq0</title>
</g>
<!-- iq0&#45;&gt;q0 -->
<g id="edge1" class="edge"><title>iq0&#45;&gt;q0</title>
<path fill="none" stroke="blue" d="M528.024,-72C620.79,-72 934.79,-72 1029.64,-72"/>
<polygon fill="blue" stroke="blue" points="1029.85,-75.5001 1039.85,-72 1029.85,-68.5001 1029.85,-75.5001"/>
</g>
</g>
</svg>
