<?xml version="1.0" encoding="UTF-8" standalone="no"?>
<!DOCTYPE svg PUBLIC "-//W3C//DTD SVG 1.1//EN"
 "http://www.w3.org/Graphics/SVG/1.1/DTD/svg11.dtd">
<!-- Generated by graphviz version 2.34.0 (20141125.1709)
 -->
<!-- Title: finite_automaton Pages: 1 -->
<svg width="576pt" height="316pt"
 viewBox="0.00 0.00 576.00 315.57" xmlns="http://www.w3.org/2000/svg" xmlns:xlink="http://www.w3.org/1999/xlink">
<g id="graph0" class="graph" transform="scale(0.601253 0.601253) rotate(0) translate(4 520.857)">
<title>finite_automaton</title>
<polygon fill="white" stroke="white" points="-4,4 -4,-520.857 954,-520.857 954,4 -4,4"/>
<!-- dom_edges -->
<g id="node1" class="node"><title>dom_edges</title>
<polygon fill="none" stroke="green" points="365.5,-114.857 0.5,-114.857 0.5,-78.8575 365.5,-78.8575 365.5,-114.857"/>
<text text-anchor="middle" x="183" y="-93.1575" font-family="Times,serif" font-size="14.00">Dominating edges: inspect, create_tree, free_tree, Learn_Assert</text>
</g>
<!-- q1 -->
<g id="node2" class="node"><title>q1</title>
<ellipse fill="none" stroke="green" cx="183" cy="-278.857" rx="18" ry="18"/>
<ellipse fill="none" stroke="green" cx="183" cy="-278.857" rx="22" ry="22"/>
<text text-anchor="middle" x="183" y="-275.157" font-family="Times,serif" font-size="14.00">D</text>
</g>
<!-- q0 -->
<g id="node3" class="node"><title>q0</title>
<ellipse fill="none" stroke="green" cx="494" cy="-221.857" rx="18" ry="18"/>
<text text-anchor="middle" x="494" y="-218.157" font-family="Times,serif" font-size="14.00">D</text>
</g>
<!-- q1&#45;&gt;q0 -->
<g id="edge7" class="edge"><title>q1&#45;&gt;q0</title>
<path fill="none" stroke="green" d="M202.654,-289.116C250.049,-313.648 377.064,-369.662 458,-313.857 478.581,-299.667 487.069,-271.654 490.565,-250.249"/>
<polygon fill="green" stroke="green" points="494.071,-250.443 491.943,-240.064 487.134,-249.504 494.071,-250.443"/>
<text text-anchor="middle" x="421" y="-340.657" font-family="Times,serif" font-size="14.00">inspect</text>
</g>
<!-- q1&#45;&gt;q0 -->
<g id="edge8" class="edge"><title>q1&#45;&gt;q0</title>
<path fill="none" stroke="green" d="M205.122,-281.139C261.604,-286.849 414.765,-299.665 458,-275.857 469.127,-269.731 477.274,-258.395 482.893,-247.685"/>
<polygon fill="green" stroke="green" points="486.087,-249.119 487.192,-238.582 479.757,-246.13 486.087,-249.119"/>
<text text-anchor="middle" x="421" y="-292.657" font-family="Times,serif" font-size="14.00">create_tree</text>
</g>
<!-- q1&#45;&gt;q0 -->
<g id="edge9" class="edge"><title>q1&#45;&gt;q0</title>
<path fill="none" stroke="black" d="M205.055,-277.717C251.571,-274.766 366.243,-265.105 458,-237.857 461.435,-236.838 464.966,-235.543 468.403,-234.133"/>
<polygon fill="black" stroke="black" points="469.978,-237.263 477.681,-229.989 467.123,-230.872 469.978,-237.263"/>
<text text-anchor="middle" x="421" y="-258.657" font-family="Times,serif" font-size="14.00">if_line_42</text>
</g>
<!-- q1&#45;&gt;q0 -->
<g id="edge10" class="edge"><title>q1&#45;&gt;q0</title>
<path fill="none" stroke="green" d="M203.717,-270.834C239.099,-256.917 316.032,-228.833 384,-218.857 411.685,-214.794 443.739,-216.423 465.886,-218.526"/>
<polygon fill="green" stroke="green" points="465.59,-222.014 475.9,-219.573 466.319,-215.052 465.59,-222.014"/>
<text text-anchor="middle" x="421" y="-222.657" font-family="Times,serif" font-size="14.00">free_tree</text>
</g>
<!-- q1&#45;&gt;q0 -->
<g id="edge11" class="edge"><title>q1&#45;&gt;q0</title>
<path fill="none" stroke="green" d="M202.532,-268.363C236.957,-249.54 313.675,-210.714 384,-196.857 416.268,-190.499 426.68,-186.821 458,-196.857 462.898,-198.427 467.694,-200.962 472.088,-203.828"/>
<polygon fill="green" stroke="green" points="470.318,-206.871 480.447,-209.977 474.465,-201.232 470.318,-206.871"/>
<text text-anchor="middle" x="421" y="-200.657" font-family="Times,serif" font-size="14.00">Learn_Assert</text>
</g>
<!-- q0&#45;&gt;q0 -->
<g id="edge2" class="edge"><title>q0&#45;&gt;q0</title>
<path fill="none" stroke="green" d="M490.764,-239.639C490.214,-249.172 491.293,-257.857 494,-257.857 495.65,-257.857 496.694,-254.632 497.135,-249.956"/>
<polygon fill="green" stroke="green" points="500.638,-249.673 497.236,-239.639 493.638,-249.604 500.638,-249.673"/>
<text text-anchor="middle" x="494" y="-261.657" font-family="Times,serif" font-size="14.00">inspect</text>
</g>
<!-- q0&#45;&gt;q0 -->
<g id="edge4" class="edge"><title>q0&#45;&gt;q0</title>
<path fill="none" stroke="black" d="M488.684,-239.278C485.654,-256.648 487.426,-275.857 494,-275.857 499.29,-275.857 501.471,-263.419 500.542,-249.509"/>
<polygon fill="black" stroke="black" points="503.981,-248.79 499.316,-239.278 497.031,-249.623 503.981,-248.79"/>
<text text-anchor="middle" x="494" y="-279.657" font-family="Times,serif" font-size="14.00">if_line_42</text>
</g>
<!-- q0&#45;&gt;q0 -->
<g id="edge5" class="edge"><title>q0&#45;&gt;q0</title>
<path fill="none" stroke="green" d="M487.444,-238.85C481.057,-263.377 483.242,-293.857 494,-293.857 503.329,-293.857 506.211,-270.936 502.647,-248.852"/>
<polygon fill="green" stroke="green" points="506.028,-247.922 500.556,-238.85 499.176,-249.354 506.028,-247.922"/>
<text text-anchor="middle" x="494" y="-297.657" font-family="Times,serif" font-size="14.00">free_tree</text>
</g>
<!-- q0&#45;&gt;q0 -->
<g id="edge6" class="edge"><title>q0&#45;&gt;q0</title>
<path fill="none" stroke="green" d="M486.594,-238.648C476.484,-269.93 478.953,-311.857 494,-311.857 507.519,-311.857 510.884,-278.014 504.097,-248.454"/>
<polygon fill="green" stroke="green" points="507.428,-247.365 501.406,-238.648 500.677,-249.218 507.428,-247.365"/>
<text text-anchor="middle" x="494" y="-315.657" font-family="Times,serif" font-size="14.00">Learn_Assert</text>
</g>
<!-- q4 -->
<g id="node6" class="node"><title>q4</title>
<ellipse fill="none" stroke="green" cx="659" cy="-84.8575" rx="18" ry="18"/>
<text text-anchor="middle" x="659" y="-81.1575" font-family="Times,serif" font-size="14.00">D</text>
</g>
<!-- q0&#45;&gt;q4 -->
<g id="edge3" class="edge"><title>q0&#45;&gt;q4</title>
<path fill="none" stroke="green" d="M499.919,-204.846C505.082,-189.901 514.624,-168.606 530,-155.857 556.512,-133.874 574.009,-149.791 604,-132.857 616.928,-125.558 629.445,-114.748 639.167,-105.234"/>
<polygon fill="green" stroke="green" points="641.795,-107.553 646.319,-97.9729 636.808,-102.641 641.795,-107.553"/>
<text text-anchor="middle" x="567" y="-159.657" font-family="Times,serif" font-size="14.00">create_tree</text>
</g>
<!-- q2 -->
<g id="node4" class="node"><title>q2</title>
<ellipse fill="none" stroke="green" cx="932" cy="-398.857" rx="18" ry="18"/>
<text text-anchor="middle" x="932" y="-395.157" font-family="Times,serif" font-size="14.00">D</text>
</g>
<!-- q2&#45;&gt;q1 -->
<g id="edge16" class="edge"><title>q2&#45;&gt;q1</title>
<path fill="none" stroke="green" d="M923.205,-414.948C917.016,-426.516 907.506,-441.936 896,-452.857 864.373,-482.877 854.605,-501.857 811,-501.857 493,-501.857 493,-501.857 493,-501.857 359.91,-501.857 245.176,-364.148 202.135,-305.162"/>
<polygon fill="green" stroke="green" points="204.756,-302.811 196.081,-296.73 199.07,-306.894 204.756,-302.811"/>
<text text-anchor="middle" x="659" y="-505.657" font-family="Times,serif" font-size="14.00">Learn_Assert</text>
</g>
<!-- q2&#45;&gt;q0 -->
<g id="edge12" class="edge"><title>q2&#45;&gt;q0</title>
<path fill="none" stroke="green" d="M920.331,-413.019C914.104,-420.093 905.593,-427.957 896,-431.857 820.657,-462.493 591.772,-484.766 530,-431.857 503.006,-408.737 496.817,-301.836 495.409,-250.083"/>
<polygon fill="green" stroke="green" points="498.904,-249.843 495.175,-239.927 491.906,-250.005 498.904,-249.843"/>
<text text-anchor="middle" x="744" y="-466.657" font-family="Times,serif" font-size="14.00">inspect</text>
</g>
<!-- q2&#45;&gt;q0 -->
<g id="edge13" class="edge"><title>q2&#45;&gt;q0</title>
<path fill="none" stroke="green" d="M913.887,-401.353C845.055,-410.995 589.273,-442.903 530,-393.857 508.256,-375.866 499.655,-293.865 496.56,-249.9"/>
<polygon fill="green" stroke="green" points="500.049,-249.609 495.903,-239.859 493.064,-250.066 500.049,-249.609"/>
<text text-anchor="middle" x="744" y="-422.657" font-family="Times,serif" font-size="14.00">create_tree</text>
</g>
<!-- q2&#45;&gt;q0 -->
<g id="edge14" class="edge"><title>q2&#45;&gt;q0</title>
<path fill="none" stroke="black" d="M913.713,-398.147C840.641,-394.992 559.509,-381.276 530,-355.857 514.109,-342.17 503.623,-284.91 498.554,-249.819"/>
<polygon fill="black" stroke="black" points="501.994,-249.139 497.156,-239.713 495.06,-250.099 501.994,-249.139"/>
<text text-anchor="middle" x="744" y="-393.657" font-family="Times,serif" font-size="14.00">if_line_42</text>
</g>
<!-- q2&#45;&gt;q0 -->
<g id="edge15" class="edge"><title>q2&#45;&gt;q0</title>
<path fill="none" stroke="green" d="M914.308,-394.864C842.452,-377.569 561.696,-308.87 530,-283.857 518.439,-274.734 510.058,-260.673 504.401,-248.246"/>
<polygon fill="green" stroke="green" points="507.522,-246.637 500.439,-238.757 501.062,-249.333 507.522,-246.637"/>
<text text-anchor="middle" x="744" y="-362.657" font-family="Times,serif" font-size="14.00">free_tree</text>
</g>
<!-- q3 -->
<g id="node5" class="node"><title>q3</title>
<ellipse fill="none" stroke="green" cx="810" cy="-221.857" rx="18" ry="18"/>
<text text-anchor="middle" x="810" y="-218.157" font-family="Times,serif" font-size="14.00">D</text>
</g>
<!-- q3&#45;&gt;q0 -->
<g id="edge17" class="edge"><title>q3&#45;&gt;q0</title>
<path fill="none" stroke="green" d="M800.01,-237.13C793.889,-246.005 784.925,-256.472 774,-261.857 742.842,-277.217 730.72,-265.746 696,-266.857 622.227,-269.22 596.362,-294.171 530,-261.857 522.3,-258.108 515.583,-251.82 510.148,-245.326"/>
<polygon fill="green" stroke="green" points="512.798,-243.028 503.972,-237.167 507.217,-247.253 512.798,-243.028"/>
<text text-anchor="middle" x="659" y="-278.657" font-family="Times,serif" font-size="14.00">inspect</text>
</g>
<!-- q3&#45;&gt;q0 -->
<g id="edge18" class="edge"><title>q3&#45;&gt;q0</title>
<path fill="none" stroke="green" d="M791.691,-222.411C747.876,-223.719 629.017,-226.684 530,-223.857 527.445,-223.785 524.786,-223.682 522.126,-223.561"/>
<polygon fill="green" stroke="green" points="522.252,-220.063 512.081,-223.029 521.883,-227.053 522.252,-220.063"/>
<text text-anchor="middle" x="659" y="-228.657" font-family="Times,serif" font-size="14.00">create_tree</text>
</g>
<!-- q3&#45;&gt;q0 -->
<g id="edge19" class="edge"><title>q3&#45;&gt;q0</title>
<path fill="none" stroke="black" d="M792.241,-218.535C770.256,-214.361 730.423,-207.432 696,-204.857 663.203,-202.404 654.816,-202.671 622,-204.857 587.235,-207.174 547.471,-213.019 521.838,-217.208"/>
<polygon fill="black" stroke="black" points="521.062,-213.79 511.774,-218.887 522.213,-220.694 521.062,-213.79"/>
<text text-anchor="middle" x="659" y="-208.657" font-family="Times,serif" font-size="14.00">if_line_42</text>
</g>
<!-- q3&#45;&gt;q0 -->
<g id="edge21" class="edge"><title>q3&#45;&gt;q0</title>
<path fill="none" stroke="green" d="M794.489,-212.294C788.368,-208.602 781.039,-204.612 774,-201.857 740.868,-188.893 731.349,-187.883 696,-183.857 622.266,-175.46 599.553,-175.981 530,-201.857 526.126,-203.299 522.176,-205.14 518.393,-207.119"/>
<polygon fill="green" stroke="green" points="516.441,-204.202 509.465,-212.175 519.891,-210.292 516.441,-204.202"/>
<text text-anchor="middle" x="659" y="-187.657" font-family="Times,serif" font-size="14.00">Learn_Assert</text>
</g>
<!-- q3&#45;&gt;q2 -->
<g id="edge20" class="edge"><title>q3&#45;&gt;q2</title>
<path fill="none" stroke="green" d="M824.399,-233.297C842.644,-249.459 875.386,-280.62 896,-312.857 907.833,-331.362 916.985,-354.532 922.957,-372.158"/>
<polygon fill="green" stroke="green" points="919.679,-373.394 926.103,-381.819 926.335,-371.227 919.679,-373.394"/>
<text text-anchor="middle" x="871" y="-316.657" font-family="Times,serif" font-size="14.00">free_tree</text>
</g>
<!-- q4&#45;&gt;q0 -->
<g id="edge23" class="edge"><title>q4&#45;&gt;q0</title>
<path fill="none" stroke="green" d="M641.14,-88.2174C607.336,-95.017 534.133,-110.083 530,-113.857 507.687,-134.235 499.547,-168.94 496.606,-193.503"/>
<polygon fill="green" stroke="green" points="493.103,-193.369 495.613,-203.662 500.07,-194.05 493.103,-193.369"/>
<text text-anchor="middle" x="567" y="-117.657" font-family="Times,serif" font-size="14.00">create_tree</text>
</g>
<!-- q4&#45;&gt;q0 -->
<g id="edge24" class="edge"><title>q4&#45;&gt;q0</title>
<path fill="none" stroke="black" d="M642.247,-78.0007C615.937,-67.7283 562.719,-52.1382 530,-77.8575 512.051,-91.9668 502.167,-155.725 497.792,-193.509"/>
<polygon fill="black" stroke="black" points="494.268,-193.544 496.655,-203.866 501.226,-194.308 494.268,-193.544"/>
<text text-anchor="middle" x="567" y="-81.6575" font-family="Times,serif" font-size="14.00">if_line_42</text>
</g>
<!-- q4&#45;&gt;q0 -->
<g id="edge25" class="edge"><title>q4&#45;&gt;q0</title>
<path fill="none" stroke="green" d="M645.617,-72.0053C635.465,-62.4554 620.175,-50.1959 604,-44.8575 572.768,-34.55 555.412,-23.9787 530,-44.8575 507.426,-63.4052 499.166,-148.907 496.346,-193.937"/>
<polygon fill="green" stroke="green" points="492.851,-193.746 495.768,-203.931 499.84,-194.15 492.851,-193.746"/>
<text text-anchor="middle" x="567" y="-48.6575" font-family="Times,serif" font-size="14.00">free_tree</text>
</g>
<!-- q4&#45;&gt;q0 -->
<g id="edge26" class="edge"><title>q4&#45;&gt;q0</title>
<path fill="none" stroke="green" d="M651.059,-68.624C642.708,-51.4219 626.893,-25.208 604,-13.8575 574.534,0.751866 555.111,7.38151 530,-13.8575 503.18,-36.5419 496.902,-142.047 495.439,-193.496"/>
<polygon fill="green" stroke="green" points="491.938,-193.523 495.195,-203.605 498.936,-193.693 491.938,-193.523"/>
<text text-anchor="middle" x="567" y="-17.6575" font-family="Times,serif" font-size="14.00">Learn_Assert</text>
</g>
<!-- q4&#45;&gt;q3 -->
<g id="edge22" class="edge"><title>q4&#45;&gt;q3</title>
<path fill="none" stroke="green" d="M677.094,-84.8942C701.736,-85.8801 747.214,-91.3298 774,-116.857 795.109,-136.975 803.491,-170.14 806.817,-193.813"/>
<polygon fill="green" stroke="green" points="803.364,-194.423 808.016,-203.942 810.316,-193.599 803.364,-194.423"/>
<text text-anchor="middle" x="744" y="-120.657" font-family="Times,serif" font-size="14.00">inspect</text>
</g>
<!-- iq0 -->
<g id="node7" class="node"><title>iq0</title>
</g>
<!-- iq0&#45;&gt;q0 -->
<g id="edge1" class="edge"><title>iq0&#45;&gt;q0</title>
<path fill="none" stroke="blue" d="M210.177,-148.682C260.923,-145.613 374.986,-144.39 458,-185.857 464.706,-189.207 470.857,-194.369 476.068,-199.748"/>
<polygon fill="blue" stroke="blue" points="473.748,-202.409 482.986,-207.597 479,-197.781 473.748,-202.409"/>
</g>
</g>
</svg>
