<?xml version="1.0" encoding="UTF-8" standalone="no"?>
<!DOCTYPE svg PUBLIC "-//W3C//DTD SVG 1.1//EN"
 "http://www.w3.org/Graphics/SVG/1.1/DTD/svg11.dtd">
<!-- Generated by graphviz version 2.38.0 (20140413.2041)
 -->
<!-- Title: finite_automaton Pages: 1 -->
<svg width="576pt" height="69pt"
 viewBox="0.00 0.00 576.00 69.09" xmlns="http://www.w3.org/2000/svg" xmlns:xlink="http://www.w3.org/1999/xlink">
<g id="graph0" class="graph" transform="scale(0.375489 0.375489) rotate(0) translate(4 180)">
<title>finite_automaton</title>
<polygon fill="white" stroke="none" points="-4,4 -4,-180 1530,-180 1530,4 -4,4"/>
<!-- dom_edges -->
<g id="node1" class="node"><title>dom_edges</title>
<polygon fill="none" stroke="green" points="455,-110 0,-110 0,-74 455,-74 455,-110"/>
<text text-anchor="middle" x="227.5" y="-88.3" font-family="Times,serif" font-size="14.00">Dominating edges: seq_sort_core, inspect_before, inspect_after, Learn_Assert</text>
</g>
<!-- q1 -->
<g id="node2" class="node"><title>q1</title>
<ellipse fill="none" stroke="green" cx="1504" cy="-93" rx="18" ry="18"/>
<ellipse fill="none" stroke="green" cx="1504" cy="-93" rx="22" ry="22"/>
<text text-anchor="middle" x="1504" y="-89.3" font-family="Times,serif" font-size="14.00">D</text>
</g>
<!-- q0 -->
<g id="node3" class="node"><title>q0</title>
<ellipse fill="none" stroke="green" cx="510" cy="-146" rx="18" ry="18"/>
</g>
<!-- q4 -->
<g id="node6" class="node"><title>q4</title>
<ellipse fill="none" stroke="green" cx="665" cy="-146" rx="18" ry="18"/>
</g>
<!-- q0&#45;&gt;q4 -->
<g id="edge2" class="edge"><title>q0&#45;&gt;q4</title>
<path fill="none" stroke="green" d="M528.254,-146C554.539,-146 604.87,-146 636.312,-146"/>
<polygon fill="green" stroke="green" points="636.575,-149.5 646.575,-146 636.575,-142.5 636.575,-149.5"/>
<text text-anchor="middle" x="587.5" y="-149.8" font-family="Times,serif" font-size="14.00">inspect_before</text>
</g>
<!-- q2 -->
<g id="node4" class="node"><title>q2</title>
<ellipse fill="none" stroke="green" cx="1352" cy="-93" rx="18" ry="18"/>
</g>
<!-- q2&#45;&gt;q1 -->
<g id="edge3" class="edge"><title>q2&#45;&gt;q1</title>
<path fill="none" stroke="green" d="M1370.21,-93C1394.92,-93 1440.87,-93 1471.7,-93"/>
<polygon fill="green" stroke="green" points="1471.91,-96.5001 1481.91,-93 1471.91,-89.5001 1471.91,-96.5001"/>
<text text-anchor="middle" x="1426" y="-96.8" font-family="Times,serif" font-size="14.00">Learn_Assert</text>
</g>
<!-- q3 -->
<g id="node5" class="node"><title>q3</title>
<ellipse fill="none" stroke="black" cx="815" cy="-115" rx="18" ry="18"/>
</g>
<!-- q3&#45;&gt;q2 -->
<g id="edge5" class="edge"><title>q3&#45;&gt;q2</title>
<path fill="none" stroke="green" d="M833.366,-115.743C897.667,-118.235 1128.2,-124.856 1316,-101 1318.75,-100.651 1321.59,-100.183 1324.42,-99.6465"/>
<polygon fill="green" stroke="green" points="1325.35,-103.028 1334.39,-97.5008 1323.87,-96.1846 1325.35,-103.028"/>
<text text-anchor="middle" x="1079" y="-121.8" font-family="Times,serif" font-size="14.00">inspect_after</text>
</g>
<!-- q6 -->
<g id="node8" class="node"><title>q6</title>
<ellipse fill="none" stroke="black" cx="969.5" cy="-69" rx="18" ry="18"/>
</g>
<!-- q3&#45;&gt;q6 -->
<g id="edge4" class="edge"><title>q3&#45;&gt;q6</title>
<path fill="none" stroke="black" d="M828.127,-102.098C834.388,-96.2348 842.489,-89.7782 851,-86 880.046,-73.1052 916.727,-69.5764 941.309,-68.8091"/>
<polygon fill="black" stroke="black" points="941.428,-72.3076 951.364,-68.6285 941.302,-65.3088 941.428,-72.3076"/>
<text text-anchor="middle" x="883" y="-89.8" font-family="Times,serif" font-size="14.00">merge_pair</text>
</g>
<!-- q4&#45;&gt;q2 -->
<g id="edge7" class="edge"><title>q4&#45;&gt;q2</title>
<path fill="none" stroke="green" d="M682.812,-148.821C710.208,-153.167 766.222,-161 814,-161 814,-161 814,-161 1189.5,-161 1248.88,-161 1263.16,-145.102 1316,-118 1320.5,-115.693 1325.06,-112.858 1329.35,-109.936"/>
<polygon fill="green" stroke="green" points="1331.57,-112.647 1337.63,-103.956 1327.47,-106.971 1331.57,-112.647"/>
<text text-anchor="middle" x="969.5" y="-164.8" font-family="Times,serif" font-size="14.00">inspect_after</text>
</g>
<!-- q4&#45;&gt;q3 -->
<g id="edge6" class="edge"><title>q4&#45;&gt;q3</title>
<path fill="none" stroke="green" d="M681.765,-138.794C687.693,-136.325 694.558,-133.748 701,-132 729.76,-124.198 763.675,-119.699 786.792,-117.313"/>
<polygon fill="green" stroke="green" points="787.284,-120.781 796.9,-116.333 786.609,-113.814 787.284,-120.781"/>
<text text-anchor="middle" x="740" y="-135.8" font-family="Times,serif" font-size="14.00">seq_sort_core</text>
</g>
<!-- q5 -->
<g id="node7" class="node"><title>q5</title>
<ellipse fill="none" stroke="black" cx="1188.5" cy="-18" rx="18" ry="18"/>
</g>
<!-- q5&#45;&gt;q2 -->
<g id="edge8" class="edge"><title>q5&#45;&gt;q2</title>
<path fill="none" stroke="green" d="M1206.54,-17.4826C1232.33,-17.503 1281.87,-20.7537 1316,-43 1325.32,-49.0748 1332.88,-58.5777 1338.56,-67.6748"/>
<polygon fill="green" stroke="green" points="1335.6,-69.5529 1343.61,-76.4945 1341.68,-66.0766 1335.6,-69.5529"/>
<text text-anchor="middle" x="1279.5" y="-46.8" font-family="Times,serif" font-size="14.00">inspect_after</text>
</g>
<!-- q6&#45;&gt;q2 -->
<g id="edge10" class="edge"><title>q6&#45;&gt;q2</title>
<path fill="none" stroke="green" d="M987.838,-70.0936C1048.27,-73.9053 1249.93,-86.6253 1323.68,-91.2771"/>
<polygon fill="green" stroke="green" points="1323.79,-94.7909 1333.99,-91.9274 1324.24,-87.8048 1323.79,-94.7909"/>
<text text-anchor="middle" x="1188.5" y="-88.8" font-family="Times,serif" font-size="14.00">inspect_after</text>
</g>
<!-- q6&#45;&gt;q5 -->
<g id="edge9" class="edge"><title>q6&#45;&gt;q5</title>
<path fill="none" stroke="black" d="M985.449,-60.2225C995.91,-54.4635 1010.39,-47.2394 1024,-43 1070.55,-28.495 1127.28,-22.2332 1160.21,-19.6608"/>
<polygon fill="black" stroke="black" points="1160.69,-23.1352 1170.41,-18.9233 1160.19,-16.1534 1160.69,-23.1352"/>
<text text-anchor="middle" x="1079" y="-46.8" font-family="Times,serif" font-size="14.00">merge_single_node</text>
</g>
<!-- iq0 -->
<g id="node9" class="node"><title>iq0</title>
</g>
<!-- iq0&#45;&gt;q0 -->
<g id="edge1" class="edge"><title>iq0&#45;&gt;q0</title>
<path fill="none" stroke="blue" d="M254.637,-146C307.695,-146 427.576,-146 481.642,-146"/>
<polygon fill="blue" stroke="blue" points="481.836,-149.5 491.836,-146 481.836,-142.5 481.836,-149.5"/>
</g>
</g>
</svg>
