<?xml version="1.0" encoding="UTF-8" standalone="no"?>
<!DOCTYPE svg PUBLIC "-//W3C//DTD SVG 1.1//EN"
 "http://www.w3.org/Graphics/SVG/1.1/DTD/svg11.dtd">
<!-- Generated by graphviz version 2.38.0 (20140413.2041)
 -->
<!-- Title: finite_automaton Pages: 1 -->
<svg width="576pt" height="73pt"
 viewBox="0.00 0.00 576.00 73.14" xmlns="http://www.w3.org/2000/svg" xmlns:xlink="http://www.w3.org/1999/xlink">
<g id="graph0" class="graph" transform="scale(0.397516 0.397516) rotate(0) translate(4 180)">
<title>finite_automaton</title>
<polygon fill="white" stroke="none" points="-4,4 -4,-180 1445,-180 1445,4 -4,4"/>
<!-- dom_edges -->
<g id="node1" class="node"><title>dom_edges</title>
<polygon fill="none" stroke="green" points="370,-110 0,-110 0,-74 370,-74 370,-110"/>
<text text-anchor="middle" x="185" y="-88.3" font-family="Times,serif" font-size="14.00">Dominating edges: inspect_before, inspect_after, Learn_Assert</text>
</g>
<!-- q1 -->
<g id="node2" class="node"><title>q1</title>
<ellipse fill="none" stroke="green" cx="1419" cy="-93" rx="18" ry="18"/>
<ellipse fill="none" stroke="green" cx="1419" cy="-93" rx="22" ry="22"/>
<text text-anchor="middle" x="1419" y="-89.3" font-family="Times,serif" font-size="14.00">D</text>
</g>
<!-- q0 -->
<g id="node3" class="node"><title>q0</title>
<ellipse fill="none" stroke="green" cx="425" cy="-146" rx="18" ry="18"/>
</g>
<!-- q3 -->
<g id="node5" class="node"><title>q3</title>
<ellipse fill="none" stroke="green" cx="580" cy="-146" rx="18" ry="18"/>
</g>
<!-- q0&#45;&gt;q3 -->
<g id="edge2" class="edge"><title>q0&#45;&gt;q3</title>
<path fill="none" stroke="green" d="M443.254,-146C469.539,-146 519.87,-146 551.312,-146"/>
<polygon fill="green" stroke="green" points="551.575,-149.5 561.575,-146 551.575,-142.5 551.575,-149.5"/>
<text text-anchor="middle" x="502.5" y="-149.8" font-family="Times,serif" font-size="14.00">inspect_before</text>
</g>
<!-- q2 -->
<g id="node4" class="node"><title>q2</title>
<ellipse fill="none" stroke="green" cx="1267" cy="-93" rx="18" ry="18"/>
</g>
<!-- q2&#45;&gt;q1 -->
<g id="edge3" class="edge"><title>q2&#45;&gt;q1</title>
<path fill="none" stroke="green" d="M1285.21,-93C1309.92,-93 1355.87,-93 1386.7,-93"/>
<polygon fill="green" stroke="green" points="1386.91,-96.5001 1396.91,-93 1386.91,-89.5001 1386.91,-96.5001"/>
<text text-anchor="middle" x="1341" y="-96.8" font-family="Times,serif" font-size="14.00">Learn_Assert</text>
</g>
<!-- q3&#45;&gt;q2 -->
<g id="edge5" class="edge"><title>q3&#45;&gt;q2</title>
<path fill="none" stroke="green" d="M597.812,-148.821C625.208,-153.167 681.222,-161 729,-161 729,-161 729,-161 1104.5,-161 1163.88,-161 1178.16,-145.102 1231,-118 1235.5,-115.693 1240.06,-112.858 1244.35,-109.936"/>
<polygon fill="green" stroke="green" points="1246.57,-112.647 1252.63,-103.956 1242.47,-106.971 1246.57,-112.647"/>
<text text-anchor="middle" x="884.5" y="-164.8" font-family="Times,serif" font-size="14.00">inspect_after</text>
</g>
<!-- q7 -->
<g id="node8" class="node"><title>q7</title>
<ellipse fill="none" stroke="black" cx="730" cy="-115" rx="18" ry="18"/>
</g>
<!-- q3&#45;&gt;q7 -->
<g id="edge4" class="edge"><title>q3&#45;&gt;q7</title>
<path fill="none" stroke="black" d="M596.765,-138.794C602.693,-136.325 609.558,-133.748 616,-132 644.76,-124.198 678.675,-119.699 701.792,-117.313"/>
<polygon fill="black" stroke="black" points="702.284,-120.781 711.9,-116.333 701.609,-113.814 702.284,-120.781"/>
<text text-anchor="middle" x="655" y="-135.8" font-family="Times,serif" font-size="14.00">seq_sort_core</text>
</g>
<!-- q5 -->
<g id="node6" class="node"><title>q5</title>
<ellipse fill="none" stroke="black" cx="1103.5" cy="-18" rx="18" ry="18"/>
</g>
<!-- q5&#45;&gt;q2 -->
<g id="edge6" class="edge"><title>q5&#45;&gt;q2</title>
<path fill="none" stroke="green" d="M1121.54,-17.4826C1147.33,-17.503 1196.87,-20.7537 1231,-43 1240.32,-49.0748 1247.88,-58.5777 1253.56,-67.6748"/>
<polygon fill="green" stroke="green" points="1250.6,-69.5529 1258.61,-76.4945 1256.68,-66.0766 1250.6,-69.5529"/>
<text text-anchor="middle" x="1194.5" y="-46.8" font-family="Times,serif" font-size="14.00">inspect_after</text>
</g>
<!-- q6 -->
<g id="node7" class="node"><title>q6</title>
<ellipse fill="none" stroke="black" cx="884.5" cy="-69" rx="18" ry="18"/>
</g>
<!-- q6&#45;&gt;q2 -->
<g id="edge8" class="edge"><title>q6&#45;&gt;q2</title>
<path fill="none" stroke="green" d="M902.838,-70.0936C963.269,-73.9053 1164.93,-86.6253 1238.68,-91.2771"/>
<polygon fill="green" stroke="green" points="1238.79,-94.7909 1248.99,-91.9274 1239.24,-87.8048 1238.79,-94.7909"/>
<text text-anchor="middle" x="1103.5" y="-88.8" font-family="Times,serif" font-size="14.00">inspect_after</text>
</g>
<!-- q6&#45;&gt;q5 -->
<g id="edge7" class="edge"><title>q6&#45;&gt;q5</title>
<path fill="none" stroke="black" d="M900.449,-60.2225C910.91,-54.4635 925.394,-47.2394 939,-43 985.553,-28.495 1042.28,-22.2332 1075.21,-19.6608"/>
<polygon fill="black" stroke="black" points="1075.69,-23.1352 1085.41,-18.9233 1075.19,-16.1534 1075.69,-23.1352"/>
<text text-anchor="middle" x="994" y="-46.8" font-family="Times,serif" font-size="14.00">merge_single_node</text>
</g>
<!-- q7&#45;&gt;q2 -->
<g id="edge10" class="edge"><title>q7&#45;&gt;q2</title>
<path fill="none" stroke="green" d="M748.366,-115.743C812.667,-118.235 1043.2,-124.856 1231,-101 1233.75,-100.651 1236.59,-100.183 1239.42,-99.6465"/>
<polygon fill="green" stroke="green" points="1240.35,-103.028 1249.39,-97.5008 1238.87,-96.1846 1240.35,-103.028"/>
<text text-anchor="middle" x="994" y="-121.8" font-family="Times,serif" font-size="14.00">inspect_after</text>
</g>
<!-- q7&#45;&gt;q6 -->
<g id="edge9" class="edge"><title>q7&#45;&gt;q6</title>
<path fill="none" stroke="black" d="M743.127,-102.098C749.388,-96.2348 757.489,-89.7782 766,-86 795.046,-73.1052 831.727,-69.5764 856.309,-68.8091"/>
<polygon fill="black" stroke="black" points="856.428,-72.3076 866.364,-68.6285 856.302,-65.3088 856.428,-72.3076"/>
<text text-anchor="middle" x="798" y="-89.8" font-family="Times,serif" font-size="14.00">merge_pair</text>
</g>
<!-- iq0 -->
<g id="node9" class="node"><title>iq0</title>
</g>
<!-- iq0&#45;&gt;q0 -->
<g id="edge1" class="edge"><title>iq0&#45;&gt;q0</title>
<path fill="none" stroke="blue" d="M212.38,-146C257.87,-146 350.618,-146 396.722,-146"/>
<polygon fill="blue" stroke="blue" points="396.863,-149.5 406.863,-146 396.863,-142.5 396.863,-149.5"/>
</g>
</g>
</svg>
