<?xml version="1.0" encoding="UTF-8" standalone="no"?>
<!DOCTYPE svg PUBLIC "-//W3C//DTD SVG 1.1//EN"
 "http://www.w3.org/Graphics/SVG/1.1/DTD/svg11.dtd">
<!-- Generated by graphviz version 2.38.0 (20140413.2041)
 -->
<!-- Title: finite_automaton Pages: 1 -->
<svg width="576pt" height="65pt"
 viewBox="0.00 0.00 576.00 64.78" xmlns="http://www.w3.org/2000/svg" xmlns:xlink="http://www.w3.org/1999/xlink">
<g id="graph0" class="graph" transform="scale(0.635061 0.635061) rotate(0) translate(4 98)">
<title>finite_automaton</title>
<polygon fill="white" stroke="none" points="-4,4 -4,-98 903,-98 903,4 -4,4"/>
<!-- dom_edges -->
<g id="node1" class="node"><title>dom_edges</title>
<polygon fill="none" stroke="green" points="370,-36 0,-36 0,-0 370,-0 370,-36"/>
<text text-anchor="middle" x="185" y="-14.3" font-family="Times,serif" font-size="14.00">Dominating edges: inspect_before, inspect_after, Learn_Assert</text>
</g>
<!-- q1 -->
<g id="node2" class="node"><title>q1</title>
<ellipse fill="none" stroke="green" cx="877" cy="-72" rx="18" ry="18"/>
<ellipse fill="none" stroke="green" cx="877" cy="-72" rx="22" ry="22"/>
<text text-anchor="middle" x="877" y="-68.3" font-family="Times,serif" font-size="14.00">D</text>
</g>
<!-- q0 -->
<g id="node3" class="node"><title>q0</title>
<ellipse fill="none" stroke="green" cx="425" cy="-72" rx="18" ry="18"/>
</g>
<!-- q3 -->
<g id="node5" class="node"><title>q3</title>
<ellipse fill="none" stroke="green" cx="580" cy="-72" rx="18" ry="18"/>
</g>
<!-- q0&#45;&gt;q3 -->
<g id="edge2" class="edge"><title>q0&#45;&gt;q3</title>
<path fill="none" stroke="green" d="M443.254,-72C469.539,-72 519.87,-72 551.312,-72"/>
<polygon fill="green" stroke="green" points="551.575,-75.5001 561.575,-72 551.575,-68.5001 551.575,-75.5001"/>
<text text-anchor="middle" x="502.5" y="-75.8" font-family="Times,serif" font-size="14.00">inspect_before</text>
</g>
<!-- q2 -->
<g id="node4" class="node"><title>q2</title>
<ellipse fill="none" stroke="green" cx="725" cy="-72" rx="18" ry="18"/>
</g>
<!-- q2&#45;&gt;q1 -->
<g id="edge3" class="edge"><title>q2&#45;&gt;q1</title>
<path fill="none" stroke="green" d="M743.207,-72C767.919,-72 813.873,-72 844.7,-72"/>
<polygon fill="green" stroke="green" points="844.914,-75.5001 854.913,-72 844.913,-68.5001 844.914,-75.5001"/>
<text text-anchor="middle" x="799" y="-75.8" font-family="Times,serif" font-size="14.00">Learn_Assert</text>
</g>
<!-- q3&#45;&gt;q2 -->
<g id="edge4" class="edge"><title>q3&#45;&gt;q2</title>
<path fill="none" stroke="green" d="M598.249,-72C622.621,-72 667.393,-72 696.414,-72"/>
<polygon fill="green" stroke="green" points="696.69,-75.5001 706.69,-72 696.69,-68.5001 696.69,-75.5001"/>
<text text-anchor="middle" x="652.5" y="-75.8" font-family="Times,serif" font-size="14.00">inspect_after</text>
</g>
<!-- iq0 -->
<g id="node6" class="node"><title>iq0</title>
</g>
<!-- iq0&#45;&gt;q0 -->
<g id="edge1" class="edge"><title>iq0&#45;&gt;q0</title>
<path fill="none" stroke="blue" d="M212.38,-72C257.87,-72 350.618,-72 396.722,-72"/>
<polygon fill="blue" stroke="blue" points="396.863,-75.5001 406.863,-72 396.863,-68.5001 396.863,-75.5001"/>
</g>
</g>
</svg>
