<?xml version="1.0" encoding="UTF-8" standalone="no"?>
<!DOCTYPE svg PUBLIC "-//W3C//DTD SVG 1.1//EN"
 "http://www.w3.org/Graphics/SVG/1.1/DTD/svg11.dtd">
<!-- Generated by graphviz version 2.38.0 (20140413.2041)
 -->
<!-- Title: finite_automaton Pages: 1 -->
<svg width="576pt" height="17pt"
 viewBox="0.00 0.00 576.00 17.13" xmlns="http://www.w3.org/2000/svg" xmlns:xlink="http://www.w3.org/1999/xlink">
<g id="graph0" class="graph" transform="scale(0.167979 0.167979) rotate(0) translate(4 98)">
<title>finite_automaton</title>
<polygon fill="white" stroke="none" points="-4,4 -4,-98 3425,-98 3425,4 -4,4"/>
<!-- dom_edges -->
<g id="node1" class="node"><title>dom_edges</title>
<polygon fill="none" stroke="green" points="1337,-36 0,-36 0,-0 1337,-0 1337,-36"/>
<text text-anchor="middle" x="668.5" y="-14.3" font-family="Times,serif" font-size="14.00">Dominating edges: DockingApproachExample_Ext, MdlInitializeSampleTimes, MdlInitializeSizes, rtGetInf, rtGetInfF, rtGetMinusInf, rtGetMinusInfF, rtGetNaN, rtGetNaNF, rt_InitInfAndNaN, rt_SimInitTimingEngine, Learn_Assert</text>
</g>
<!-- q1 -->
<g id="node2" class="node"><title>q1</title>
<ellipse fill="none" stroke="green" cx="3399" cy="-72" rx="18" ry="18"/>
<ellipse fill="none" stroke="green" cx="3399" cy="-72" rx="22" ry="22"/>
<text text-anchor="middle" x="3399" y="-68.3" font-family="Times,serif" font-size="14.00">D</text>
</g>
<!-- q0 -->
<g id="node3" class="node"><title>q0</title>
<ellipse fill="none" stroke="green" cx="1392" cy="-72" rx="18" ry="18"/>
</g>
<!-- q12 -->
<g id="node14" class="node"><title>q12</title>
<ellipse fill="none" stroke="green" cx="1644" cy="-72" rx="18" ry="18"/>
</g>
<!-- q0&#45;&gt;q12 -->
<g id="edge2" class="edge"><title>q0&#45;&gt;q12</title>
<path fill="none" stroke="green" d="M1410.18,-72C1452.82,-72 1563.76,-72 1615.58,-72"/>
<polygon fill="green" stroke="green" points="1615.7,-75.5001 1625.7,-72 1615.7,-68.5001 1615.7,-75.5001"/>
<text text-anchor="middle" x="1518" y="-75.8" font-family="Times,serif" font-size="14.00">DockingApproachExample_Ext</text>
</g>
<!-- q2 -->
<g id="node4" class="node"><title>q2</title>
<ellipse fill="none" stroke="green" cx="3247" cy="-72" rx="18" ry="18"/>
</g>
<!-- q2&#45;&gt;q1 -->
<g id="edge3" class="edge"><title>q2&#45;&gt;q1</title>
<path fill="none" stroke="green" d="M3265.21,-72C3289.92,-72 3335.87,-72 3366.7,-72"/>
<polygon fill="green" stroke="green" points="3366.91,-75.5001 3376.91,-72 3366.91,-68.5001 3366.91,-75.5001"/>
<text text-anchor="middle" x="3321" y="-75.8" font-family="Times,serif" font-size="14.00">Learn_Assert</text>
</g>
<!-- q3 -->
<g id="node5" class="node"><title>q3</title>
<ellipse fill="none" stroke="green" cx="3036" cy="-72" rx="18" ry="18"/>
</g>
<!-- q3&#45;&gt;q2 -->
<g id="edge4" class="edge"><title>q3&#45;&gt;q2</title>
<path fill="none" stroke="green" d="M3054.1,-72C3090.32,-72 3175.02,-72 3218.77,-72"/>
<polygon fill="green" stroke="green" points="3218.95,-75.5001 3228.95,-72 3218.95,-68.5001 3218.95,-75.5001"/>
<text text-anchor="middle" x="3141.5" y="-75.8" font-family="Times,serif" font-size="14.00">rt_SimInitTimingEngine</text>
</g>
<!-- q4 -->
<g id="node6" class="node"><title>q4</title>
<ellipse fill="none" stroke="green" cx="2813" cy="-72" rx="18" ry="18"/>
</g>
<!-- q4&#45;&gt;q3 -->
<g id="edge5" class="edge"><title>q4&#45;&gt;q3</title>
<path fill="none" stroke="green" d="M2831.34,-72C2869.59,-72 2961.44,-72 3007.57,-72"/>
<polygon fill="green" stroke="green" points="3007.74,-75.5001 3017.74,-72 3007.74,-68.5001 3007.74,-75.5001"/>
<text text-anchor="middle" x="2924.5" y="-75.8" font-family="Times,serif" font-size="14.00">MdlInitializeSampleTimes</text>
</g>
<!-- q5 -->
<g id="node7" class="node"><title>q5</title>
<ellipse fill="none" stroke="green" cx="2638" cy="-72" rx="18" ry="18"/>
</g>
<!-- q5&#45;&gt;q4 -->
<g id="edge6" class="edge"><title>q5&#45;&gt;q4</title>
<path fill="none" stroke="green" d="M2656.22,-72C2686.27,-72 2748.52,-72 2784.57,-72"/>
<polygon fill="green" stroke="green" points="2784.85,-75.5001 2794.85,-72 2784.85,-68.5001 2784.85,-75.5001"/>
<text text-anchor="middle" x="2725.5" y="-75.8" font-family="Times,serif" font-size="14.00">MdlInitializeSizes</text>
</g>
<!-- q6 -->
<g id="node8" class="node"><title>q6</title>
<ellipse fill="none" stroke="green" cx="2477" cy="-72" rx="18" ry="18"/>
</g>
<!-- q6&#45;&gt;q5 -->
<g id="edge7" class="edge"><title>q6&#45;&gt;q5</title>
<path fill="none" stroke="green" d="M2495.02,-72C2522.37,-72 2576.37,-72 2609.33,-72"/>
<polygon fill="green" stroke="green" points="2609.62,-75.5001 2619.62,-72 2609.62,-68.5001 2609.62,-75.5001"/>
<text text-anchor="middle" x="2557.5" y="-75.8" font-family="Times,serif" font-size="14.00">rtGetMinusInfF</text>
</g>
<!-- q7 -->
<g id="node9" class="node"><title>q7</title>
<ellipse fill="none" stroke="green" cx="2324" cy="-72" rx="18" ry="18"/>
</g>
<!-- q7&#45;&gt;q6 -->
<g id="edge8" class="edge"><title>q7&#45;&gt;q6</title>
<path fill="none" stroke="green" d="M2342.03,-72C2367.97,-72 2417.64,-72 2448.67,-72"/>
<polygon fill="green" stroke="green" points="2448.8,-75.5001 2458.8,-72 2448.8,-68.5001 2448.8,-75.5001"/>
<text text-anchor="middle" x="2400.5" y="-75.8" font-family="Times,serif" font-size="14.00">rtGetMinusInf</text>
</g>
<!-- q8 -->
<g id="node10" class="node"><title>q8</title>
<ellipse fill="none" stroke="green" cx="2199" cy="-72" rx="18" ry="18"/>
</g>
<!-- q8&#45;&gt;q7 -->
<g id="edge9" class="edge"><title>q8&#45;&gt;q7</title>
<path fill="none" stroke="green" d="M2217.1,-72C2237.37,-72 2271.4,-72 2295.41,-72"/>
<polygon fill="green" stroke="green" points="2295.65,-75.5001 2305.65,-72 2295.65,-68.5001 2295.65,-75.5001"/>
<text text-anchor="middle" x="2261.5" y="-75.8" font-family="Times,serif" font-size="14.00">rtGetInfF</text>
</g>
<!-- q9 -->
<g id="node11" class="node"><title>q9</title>
<ellipse fill="none" stroke="green" cx="2081" cy="-72" rx="18" ry="18"/>
</g>
<!-- q9&#45;&gt;q8 -->
<g id="edge10" class="edge"><title>q9&#45;&gt;q8</title>
<path fill="none" stroke="green" d="M2099.12,-72C2117.96,-72 2148.53,-72 2170.7,-72"/>
<polygon fill="green" stroke="green" points="2170.81,-75.5001 2180.81,-72 2170.81,-68.5001 2170.81,-75.5001"/>
<text text-anchor="middle" x="2140" y="-75.8" font-family="Times,serif" font-size="14.00">rtGetInf</text>
</g>
<!-- q10 -->
<g id="node12" class="node"><title>q10</title>
<ellipse fill="none" stroke="green" cx="1946" cy="-72" rx="18" ry="18"/>
</g>
<!-- q10&#45;&gt;q9 -->
<g id="edge11" class="edge"><title>q10&#45;&gt;q9</title>
<path fill="none" stroke="green" d="M1964.12,-72C1986.56,-72 2026.2,-72 2052.79,-72"/>
<polygon fill="green" stroke="green" points="2052.95,-75.5001 2062.95,-72 2052.95,-68.5001 2052.95,-75.5001"/>
<text text-anchor="middle" x="2013.5" y="-75.8" font-family="Times,serif" font-size="14.00">rtGetNaNF</text>
</g>
<!-- q11 -->
<g id="node13" class="node"><title>q11</title>
<ellipse fill="none" stroke="green" cx="1818" cy="-72" rx="18" ry="18"/>
</g>
<!-- q11&#45;&gt;q10 -->
<g id="edge12" class="edge"><title>q11&#45;&gt;q10</title>
<path fill="none" stroke="green" d="M1836.26,-72C1857.27,-72 1893.03,-72 1917.77,-72"/>
<polygon fill="green" stroke="green" points="1917.95,-75.5001 1927.95,-72 1917.95,-68.5001 1917.95,-75.5001"/>
<text text-anchor="middle" x="1882" y="-75.8" font-family="Times,serif" font-size="14.00">rtGetNaN</text>
</g>
<!-- q12&#45;&gt;q11 -->
<g id="edge13" class="edge"><title>q12&#45;&gt;q11</title>
<path fill="none" stroke="green" d="M1662.12,-72C1692,-72 1753.89,-72 1789.73,-72"/>
<polygon fill="green" stroke="green" points="1789.95,-75.5001 1799.95,-72 1789.95,-68.5001 1789.95,-75.5001"/>
<text text-anchor="middle" x="1731" y="-75.8" font-family="Times,serif" font-size="14.00">rt_InitInfAndNaN</text>
</g>
<!-- iq0 -->
<g id="node15" class="node"><title>iq0</title>
</g>
<!-- iq0&#45;&gt;q0 -->
<g id="edge1" class="edge"><title>iq0&#45;&gt;q0</title>
<path fill="none" stroke="blue" d="M695.605,-72C807.941,-72 1249.65,-72 1363.9,-72"/>
<polygon fill="blue" stroke="blue" points="1363.92,-75.5001 1373.92,-72 1363.92,-68.5001 1363.92,-75.5001"/>
</g>
</g>
</svg>
