<?xml version="1.0" encoding="UTF-8" standalone="no"?>
<!DOCTYPE svg PUBLIC "-//W3C//DTD SVG 1.1//EN"
 "http://www.w3.org/Graphics/SVG/1.1/DTD/svg11.dtd">
<!-- Generated by graphviz version 2.38.0 (20140413.2041)
 -->
<!-- Title: finite_automaton Pages: 1 -->
<svg width="576pt" height="17pt"
 viewBox="0.00 0.00 576.00 17.18" xmlns="http://www.w3.org/2000/svg" xmlns:xlink="http://www.w3.org/1999/xlink">
<g id="graph0" class="graph" transform="scale(0.156182 0.156182) rotate(0) translate(4 106)">
<title>finite_automaton</title>
<polygon fill="white" stroke="none" points="-4,4 -4,-106 3684,-106 3684,4 -4,4"/>
<!-- dom_edges -->
<g id="node1" class="node"><title>dom_edges</title>
<polygon fill="none" stroke="green" points="1162,-36 0,-36 0,-0 1162,-0 1162,-36"/>
<text text-anchor="middle" x="581" y="-14.3" font-family="Times,serif" font-size="14.00">Dominating edges: rt_OneStep, DockingApproachExample_Ext, DockingApproachExample_Ext_initialize, DockingApproachExample_Ext_output, DockingApproachExample_Ext_update, Learn_Assert</text>
</g>
<!-- q1 -->
<g id="node2" class="node"><title>q1</title>
<ellipse fill="none" stroke="green" cx="3658" cy="-68" rx="18" ry="18"/>
<ellipse fill="none" stroke="green" cx="3658" cy="-68" rx="22" ry="22"/>
<text text-anchor="middle" x="3658" y="-64.3" font-family="Times,serif" font-size="14.00">D</text>
</g>
<!-- q0 -->
<g id="node3" class="node"><title>q0</title>
<ellipse fill="none" stroke="green" cx="1217" cy="-72" rx="18" ry="18"/>
</g>
<!-- q6 -->
<g id="node8" class="node"><title>q6</title>
<ellipse fill="none" stroke="green" cx="1469" cy="-72" rx="18" ry="18"/>
</g>
<!-- q0&#45;&gt;q6 -->
<g id="edge2" class="edge"><title>q0&#45;&gt;q6</title>
<path fill="none" stroke="green" d="M1235.18,-72C1277.82,-72 1388.76,-72 1440.58,-72"/>
<polygon fill="green" stroke="green" points="1440.7,-75.5001 1450.7,-72 1440.7,-68.5001 1440.7,-75.5001"/>
<text text-anchor="middle" x="1343" y="-75.8" font-family="Times,serif" font-size="14.00">DockingApproachExample_Ext</text>
</g>
<!-- q2 -->
<g id="node4" class="node"><title>q2</title>
<ellipse fill="none" stroke="green" cx="2504" cy="-72" rx="18" ry="18"/>
</g>
<!-- q2&#45;&gt;q1 -->
<g id="edge4" class="edge"><title>q2&#45;&gt;q1</title>
<path fill="none" stroke="green" d="M2521.85,-75.108C2547.19,-79.5016 2596.63,-87 2639,-87 2639,-87 2639,-87 3507,-87 3548.56,-87 3596.09,-79.7321 3626.31,-74.1864"/>
<polygon fill="green" stroke="green" points="3627.06,-77.6065 3636.24,-72.3114 3625.76,-70.7281 3627.06,-77.6065"/>
<text text-anchor="middle" x="3072.5" y="-90.8" font-family="Times,serif" font-size="14.00">Learn_Assert</text>
</g>
<!-- q10 -->
<g id="node12" class="node"><title>q10</title>
<ellipse fill="none" stroke="black" cx="2640" cy="-41" rx="18" ry="18"/>
</g>
<!-- q2&#45;&gt;q10 -->
<g id="edge3" class="edge"><title>q2&#45;&gt;q10</title>
<path fill="none" stroke="green" d="M2520.78,-64.8664C2526.71,-62.4056 2533.58,-59.8145 2540,-58 2563.9,-51.2496 2591.84,-46.7488 2611.94,-44.0837"/>
<polygon fill="green" stroke="green" points="2612.46,-47.5459 2621.94,-42.8223 2611.58,-40.6009 2612.46,-47.5459"/>
<text text-anchor="middle" x="2572" y="-61.8" font-family="Times,serif" font-size="14.00">rt_OneStep</text>
</g>
<!-- q3 -->
<g id="node5" class="node"><title>q3</title>
<ellipse fill="none" stroke="green" cx="2208" cy="-72" rx="18" ry="18"/>
</g>
<!-- q3&#45;&gt;q2 -->
<g id="edge5" class="edge"><title>q3&#45;&gt;q2</title>
<path fill="none" stroke="green" d="M2226.08,-72C2274.99,-72 2415.95,-72 2475.7,-72"/>
<polygon fill="green" stroke="green" points="2475.88,-75.5001 2485.88,-72 2475.88,-68.5001 2475.88,-75.5001"/>
<text text-anchor="middle" x="2356" y="-75.8" font-family="Times,serif" font-size="14.00">DockingApproachExample_Ext_update</text>
</g>
<!-- q4 -->
<g id="node6" class="node"><title>q4</title>
<ellipse fill="none" stroke="green" cx="1913" cy="-72" rx="18" ry="18"/>
</g>
<!-- q4&#45;&gt;q3 -->
<g id="edge6" class="edge"><title>q4&#45;&gt;q3</title>
<path fill="none" stroke="green" d="M1931.02,-72C1979.77,-72 2120.24,-72 2179.8,-72"/>
<polygon fill="green" stroke="green" points="2179.93,-75.5001 2189.93,-72 2179.93,-68.5001 2179.93,-75.5001"/>
<text text-anchor="middle" x="2060.5" y="-75.8" font-family="Times,serif" font-size="14.00">DockingApproachExample_Ext_output</text>
</g>
<!-- q5 -->
<g id="node7" class="node"><title>q5</title>
<ellipse fill="none" stroke="green" cx="1777" cy="-72" rx="18" ry="18"/>
</g>
<!-- q5&#45;&gt;q4 -->
<g id="edge7" class="edge"><title>q5&#45;&gt;q4</title>
<path fill="none" stroke="green" d="M1795.24,-72C1817.86,-72 1857.8,-72 1884.58,-72"/>
<polygon fill="green" stroke="green" points="1884.82,-75.5001 1894.82,-72 1884.82,-68.5001 1884.82,-75.5001"/>
<text text-anchor="middle" x="1845" y="-75.8" font-family="Times,serif" font-size="14.00">rt_OneStep</text>
</g>
<!-- q6&#45;&gt;q5 -->
<g id="edge8" class="edge"><title>q6&#45;&gt;q5</title>
<path fill="none" stroke="green" d="M1487.33,-72C1538.14,-72 1687.03,-72 1748.73,-72"/>
<polygon fill="green" stroke="green" points="1748.86,-75.5001 1758.86,-72 1748.86,-68.5001 1748.86,-75.5001"/>
<text text-anchor="middle" x="1623" y="-75.8" font-family="Times,serif" font-size="14.00">DockingApproachExample_Ext_initialize</text>
</g>
<!-- q7 -->
<g id="node9" class="node"><title>q7</title>
<ellipse fill="none" stroke="black" cx="3506" cy="-41" rx="18" ry="18"/>
</g>
<!-- q7&#45;&gt;q1 -->
<g id="edge9" class="edge"><title>q7&#45;&gt;q1</title>
<path fill="none" stroke="green" d="M3524.02,-43.0737C3545.88,-45.8597 3584.96,-51.2503 3618,-58 3620.82,-58.577 3623.75,-59.2277 3626.68,-59.9134"/>
<polygon fill="green" stroke="green" points="3625.9,-63.326 3636.44,-62.323 3627.57,-56.5298 3625.9,-63.326"/>
<text text-anchor="middle" x="3580" y="-61.8" font-family="Times,serif" font-size="14.00">Learn_Assert</text>
</g>
<!-- q8 -->
<g id="node10" class="node"><title>q8</title>
<ellipse fill="none" stroke="black" cx="3210" cy="-41" rx="18" ry="18"/>
</g>
<!-- q8&#45;&gt;q7 -->
<g id="edge10" class="edge"><title>q8&#45;&gt;q7</title>
<path fill="none" stroke="green" d="M3228.08,-41C3276.99,-41 3417.95,-41 3477.7,-41"/>
<polygon fill="green" stroke="green" points="3477.88,-44.5001 3487.88,-41 3477.88,-37.5001 3477.88,-44.5001"/>
<text text-anchor="middle" x="3358" y="-44.8" font-family="Times,serif" font-size="14.00">DockingApproachExample_Ext_update</text>
</g>
<!-- q9 -->
<g id="node11" class="node"><title>q9</title>
<ellipse fill="none" stroke="black" cx="2935" cy="-41" rx="18" ry="18"/>
</g>
<!-- q9&#45;&gt;q8 -->
<g id="edge11" class="edge"><title>q9&#45;&gt;q8</title>
<path fill="none" stroke="black" d="M2953.08,-41C2999.04,-41 3125.67,-41 3181.71,-41"/>
<polygon fill="black" stroke="black" points="3181.93,-44.5001 3191.93,-41 3181.93,-37.5001 3181.93,-44.5001"/>
<text text-anchor="middle" x="3072.5" y="-44.8" font-family="Times,serif" font-size="14.00">DockingAppro_MissionPhaseStates</text>
</g>
<!-- q10&#45;&gt;q9 -->
<g id="edge12" class="edge"><title>q10&#45;&gt;q9</title>
<path fill="none" stroke="green" d="M2658.02,-41C2706.77,-41 2847.24,-41 2906.8,-41"/>
<polygon fill="green" stroke="green" points="2906.93,-44.5001 2916.93,-41 2906.93,-37.5001 2906.93,-44.5001"/>
<text text-anchor="middle" x="2787.5" y="-44.8" font-family="Times,serif" font-size="14.00">DockingApproachExample_Ext_output</text>
</g>
<!-- iq0 -->
<g id="node13" class="node"><title>iq0</title>
</g>
<!-- iq0&#45;&gt;q0 -->
<g id="edge1" class="edge"><title>iq0&#45;&gt;q0</title>
<path fill="none" stroke="blue" d="M608.036,-72C710.32,-72 1084.1,-72 1188.66,-72"/>
<polygon fill="blue" stroke="blue" points="1188.73,-75.5001 1198.73,-72 1188.73,-68.5001 1188.73,-75.5001"/>
</g>
</g>
</svg>
