<?xml version="1.0" encoding="UTF-8" standalone="no"?>
<!DOCTYPE svg PUBLIC "-//W3C//DTD SVG 1.1//EN"
 "http://www.w3.org/Graphics/SVG/1.1/DTD/svg11.dtd">
<!-- Generated by graphviz version 2.38.0 (20140413.2041)
 -->
<!-- Title: finite_automaton Pages: 1 -->
<svg width="576pt" height="47pt"
 viewBox="0.00 0.00 576.00 46.64" xmlns="http://www.w3.org/2000/svg" xmlns:xlink="http://www.w3.org/1999/xlink">
<g id="graph0" class="graph" transform="scale(0.239203 0.239203) rotate(0) translate(4 191)">
<title>finite_automaton</title>
<polygon fill="white" stroke="none" points="-4,4 -4,-191 2404,-191 2404,4 -4,4"/>
<!-- dom_edges -->
<g id="node1" class="node"><title>dom_edges</title>
<polygon fill="none" stroke="green" points="663,-76 0,-76 0,-40 663,-40 663,-76"/>
<text text-anchor="middle" x="331.5" y="-54.3" font-family="Times,serif" font-size="14.00">Dominating edges: Exception_handler, if_line_72, else_line_76, if_line_71, if_line_68, else_line_66, Learn_Assert</text>
</g>
<!-- q1 -->
<g id="node2" class="node"><title>q1</title>
<ellipse fill="none" stroke="green" cx="2378" cy="-95" rx="18" ry="18"/>
<ellipse fill="none" stroke="green" cx="2378" cy="-95" rx="22" ry="22"/>
<text text-anchor="middle" x="2378" y="-91.3" font-family="Times,serif" font-size="14.00">D</text>
</g>
<!-- q0 -->
<g id="node3" class="node"><title>q0</title>
<ellipse fill="none" stroke="green" cx="718" cy="-112" rx="18" ry="18"/>
</g>
<!-- q9 -->
<g id="node11" class="node"><title>q9</title>
<ellipse fill="none" stroke="green" cx="861" cy="-112" rx="18" ry="18"/>
</g>
<!-- q0&#45;&gt;q9 -->
<g id="edge2" class="edge"><title>q0&#45;&gt;q9</title>
<path fill="none" stroke="green" d="M736.008,-112C760.039,-112 804.185,-112 832.8,-112"/>
<polygon fill="green" stroke="green" points="832.932,-115.5 842.932,-112 832.932,-108.5 832.932,-115.5"/>
<text text-anchor="middle" x="789.5" y="-115.8" font-family="Times,serif" font-size="14.00">else_line_66</text>
</g>
<!-- q2 -->
<g id="node4" class="node"><title>q2</title>
<ellipse fill="none" stroke="green" cx="2226" cy="-95" rx="18" ry="18"/>
</g>
<!-- q2&#45;&gt;q1 -->
<g id="edge3" class="edge"><title>q2&#45;&gt;q1</title>
<path fill="none" stroke="green" d="M2244.21,-95C2268.92,-95 2314.87,-95 2345.7,-95"/>
<polygon fill="green" stroke="green" points="2345.91,-98.5001 2355.91,-95 2345.91,-91.5001 2345.91,-98.5001"/>
<text text-anchor="middle" x="2300" y="-98.8" font-family="Times,serif" font-size="14.00">Learn_Assert</text>
</g>
<!-- q3 -->
<g id="node5" class="node"><title>q3</title>
<ellipse fill="none" stroke="green" cx="2048" cy="-95" rx="18" ry="18"/>
</g>
<!-- q3&#45;&gt;q2 -->
<g id="edge4" class="edge"><title>q3&#45;&gt;q2</title>
<path fill="none" stroke="green" d="M2066.2,-95C2096.77,-95 2160.81,-95 2197.54,-95"/>
<polygon fill="green" stroke="green" points="2197.99,-98.5001 2207.99,-95 2197.99,-91.5001 2197.99,-98.5001"/>
<text text-anchor="middle" x="2137" y="-98.8" font-family="Times,serif" font-size="14.00">Exception_handler</text>
</g>
<!-- q4 -->
<g id="node6" class="node"><title>q4</title>
<ellipse fill="none" stroke="black" cx="1900" cy="-169" rx="18" ry="18"/>
</g>
<!-- q4&#45;&gt;q3 -->
<g id="edge5" class="edge"><title>q4&#45;&gt;q3</title>
<path fill="none" stroke="black" d="M1917.91,-166.048C1940.69,-161.498 1981.85,-151.216 2012,-132 2018.31,-127.977 2024.28,-122.568 2029.43,-117.13"/>
<polygon fill="black" stroke="black" points="2032.36,-119.111 2036.36,-109.301 2027.11,-114.473 2032.36,-119.111"/>
<text text-anchor="middle" x="1979.5" y="-161.8" font-family="Times,serif" font-size="14.00">if_line_81</text>
</g>
<!-- q5 -->
<g id="node7" class="node"><title>q5</title>
<ellipse fill="none" stroke="black" cx="1737.5" cy="-126" rx="18" ry="18"/>
</g>
<!-- q5&#45;&gt;q3 -->
<g id="edge6" class="edge"><title>q5&#45;&gt;q3</title>
<path fill="none" stroke="black" d="M1755.53,-124.289C1806.41,-119.176 1957.64,-103.979 2019.83,-97.7303"/>
<polygon fill="black" stroke="black" points="2020.43,-101.188 2030.03,-96.7056 2019.73,-94.223 2020.43,-101.188"/>
<text text-anchor="middle" x="1900" y="-115.8" font-family="Times,serif" font-size="14.00">if_line_81</text>
</g>
<!-- q5&#45;&gt;q4 -->
<g id="edge7" class="edge"><title>q5&#45;&gt;q4</title>
<path fill="none" stroke="black" d="M1755.36,-129.112C1777.85,-133.424 1818.8,-141.846 1853,-152 1859.64,-153.972 1866.71,-156.408 1873.26,-158.814"/>
<polygon fill="black" stroke="black" points="1872.4,-162.232 1882.99,-162.499 1874.88,-155.685 1872.4,-162.232"/>
<text text-anchor="middle" x="1820.5" y="-155.8" font-family="Times,serif" font-size="14.00">if_line_77</text>
</g>
<!-- q6 -->
<g id="node8" class="node"><title>q6</title>
<ellipse fill="none" stroke="black" cx="1573" cy="-126" rx="18" ry="18"/>
</g>
<!-- q6&#45;&gt;q4 -->
<g id="edge8" class="edge"><title>q6&#45;&gt;q4</title>
<path fill="none" stroke="black" d="M1588.44,-135.426C1594.55,-138.986 1601.89,-142.723 1609,-145 1701.76,-174.694 1819.27,-173.275 1871.65,-170.764"/>
<polygon fill="black" stroke="black" points="1872.01,-174.25 1881.81,-170.223 1871.64,-167.26 1872.01,-174.25"/>
<text text-anchor="middle" x="1737.5" y="-173.8" font-family="Times,serif" font-size="14.00">if_line_73</text>
</g>
<!-- q6&#45;&gt;q5 -->
<g id="edge9" class="edge"><title>q6&#45;&gt;q5</title>
<path fill="none" stroke="green" d="M1591.08,-126C1619.17,-126 1675.35,-126 1709.06,-126"/>
<polygon fill="green" stroke="green" points="1709.16,-129.5 1719.16,-126 1709.16,-122.5 1709.16,-129.5"/>
<text text-anchor="middle" x="1648" y="-129.8" font-family="Times,serif" font-size="14.00">else_line_76</text>
</g>
<!-- q7 -->
<g id="node9" class="node"><title>q7</title>
<ellipse fill="none" stroke="green" cx="1143" cy="-106" rx="18" ry="18"/>
</g>
<!-- q7&#45;&gt;q6 -->
<g id="edge10" class="edge"><title>q7&#45;&gt;q6</title>
<path fill="none" stroke="green" d="M1161.05,-108.797C1166.74,-109.635 1173.13,-110.47 1179,-111 1315.92,-123.36 1480.58,-125.556 1544.64,-125.931"/>
<polygon fill="green" stroke="green" points="1544.7,-129.431 1554.72,-125.979 1544.74,-122.431 1544.7,-129.431"/>
<text text-anchor="middle" x="1354.5" y="-125.8" font-family="Times,serif" font-size="14.00">if_line_72</text>
</g>
<!-- q11 -->
<g id="node13" class="node"><title>q11</title>
<ellipse fill="none" stroke="black" cx="1286" cy="-75" rx="18" ry="18"/>
</g>
<!-- q7&#45;&gt;q11 -->
<g id="edge11" class="edge"><title>q7&#45;&gt;q11</title>
<path fill="none" stroke="black" d="M1160.31,-101.038C1166.17,-99.3338 1172.86,-97.4834 1179,-96 1205.68,-89.5581 1236.48,-83.6213 1257.98,-79.7157"/>
<polygon fill="black" stroke="black" points="1258.79,-83.1263 1268.02,-77.9175 1257.56,-76.236 1258.79,-83.1263"/>
<text text-anchor="middle" x="1214.5" y="-99.8" font-family="Times,serif" font-size="14.00">else_line_99</text>
</g>
<!-- q8 -->
<g id="node10" class="node"><title>q8</title>
<ellipse fill="none" stroke="black" cx="1002" cy="-73" rx="18" ry="18"/>
</g>
<!-- q8&#45;&gt;q7 -->
<g id="edge12" class="edge"><title>q8&#45;&gt;q7</title>
<path fill="none" stroke="green" d="M1019.77,-76.9806C1043.46,-82.6048 1086.98,-92.9369 1115.19,-99.634"/>
<polygon fill="green" stroke="green" points="1114.64,-103.101 1125.17,-102.005 1116.25,-96.29 1114.64,-103.101"/>
<text text-anchor="middle" x="1078" y="-100.8" font-family="Times,serif" font-size="14.00">if_line_71</text>
</g>
<!-- q9&#45;&gt;q7 -->
<g id="edge13" class="edge"><title>q9&#45;&gt;q7</title>
<path fill="none" stroke="green" d="M878.987,-113.265C918.897,-115.976 1021.71,-121.445 1107,-113 1109.74,-112.729 1112.58,-112.341 1115.41,-111.885"/>
<polygon fill="green" stroke="green" points="1116.18,-115.302 1125.37,-110.024 1114.89,-108.421 1116.18,-115.302"/>
<text text-anchor="middle" x="1002" y="-120.8" font-family="Times,serif" font-size="14.00">if_line_71</text>
</g>
<!-- q9&#45;&gt;q8 -->
<g id="edge14" class="edge"><title>q9&#45;&gt;q8</title>
<path fill="none" stroke="green" d="M877.853,-105.095C883.791,-102.659 890.639,-100.025 897,-98 922.885,-89.7595 953.146,-82.7734 974.33,-78.299"/>
<polygon fill="green" stroke="green" points="975.141,-81.7054 984.225,-76.2522 973.723,-74.8505 975.141,-81.7054"/>
<text text-anchor="middle" x="926" y="-101.8" font-family="Times,serif" font-size="14.00">if_line_68</text>
</g>
<!-- q10 -->
<g id="node12" class="node"><title>q10</title>
<ellipse fill="none" stroke="black" cx="1423" cy="-72" rx="18" ry="18"/>
</g>
<!-- q10&#45;&gt;q3 -->
<g id="edge15" class="edge"><title>q10&#45;&gt;q3</title>
<path fill="none" stroke="black" d="M1441.32,-72C1468.95,-72 1524.72,-72 1572,-72 1572,-72 1572,-72 1901,-72 1943.28,-72 1991.61,-81.5275 2020.7,-88.3185"/>
<polygon fill="black" stroke="black" points="2019.95,-91.7391 2030.49,-90.6739 2021.59,-84.9331 2019.95,-91.7391"/>
<text text-anchor="middle" x="1737.5" y="-75.8" font-family="Times,serif" font-size="14.00">if_line_101</text>
</g>
<!-- q14 -->
<g id="node16" class="node"><title>q14</title>
<ellipse fill="none" stroke="black" cx="1573" cy="-22" rx="18" ry="18"/>
</g>
<!-- q10&#45;&gt;q14 -->
<g id="edge16" class="edge"><title>q10&#45;&gt;q14</title>
<path fill="none" stroke="black" d="M1436.19,-59.2459C1442.47,-53.4178 1450.57,-46.9479 1459,-43 1486.43,-30.1612 1521.05,-25.1645 1544.69,-23.2239"/>
<polygon fill="black" stroke="black" points="1544.98,-26.7121 1554.72,-22.5302 1544.5,-19.7288 1544.98,-26.7121"/>
<text text-anchor="middle" x="1498" y="-46.8" font-family="Times,serif" font-size="14.00">else_line_106</text>
</g>
<!-- q11&#45;&gt;q10 -->
<g id="edge17" class="edge"><title>q11&#45;&gt;q10</title>
<path fill="none" stroke="black" d="M1304.1,-74.62C1326.9,-74.1134 1367.52,-73.2106 1394.61,-72.6086"/>
<polygon fill="black" stroke="black" points="1394.69,-76.1077 1404.61,-72.3863 1394.54,-69.1095 1394.69,-76.1077"/>
<text text-anchor="middle" x="1354.5" y="-77.8" font-family="Times,serif" font-size="14.00">if_line_100</text>
</g>
<!-- q12 -->
<g id="node14" class="node"><title>q12</title>
<ellipse fill="none" stroke="black" cx="1900" cy="-24" rx="18" ry="18"/>
</g>
<!-- q12&#45;&gt;q3 -->
<g id="edge18" class="edge"><title>q12&#45;&gt;q3</title>
<path fill="none" stroke="black" d="M1918.28,-22.9332C1941.48,-22.3427 1983.1,-24.317 2012,-43 2021.83,-49.3581 2029.58,-59.5591 2035.27,-69.2487"/>
<polygon fill="black" stroke="black" points="2032.27,-71.0757 2040.08,-78.24 2038.45,-67.7719 2032.27,-71.0757"/>
<text text-anchor="middle" x="1979.5" y="-46.8" font-family="Times,serif" font-size="14.00">if_line_115</text>
</g>
<!-- q13 -->
<g id="node15" class="node"><title>q13</title>
<ellipse fill="none" stroke="black" cx="1737.5" cy="-18" rx="18" ry="18"/>
</g>
<!-- q13&#45;&gt;q12 -->
<g id="edge19" class="edge"><title>q13&#45;&gt;q12</title>
<path fill="none" stroke="black" d="M1755.68,-18.6421C1783.43,-19.6796 1838.38,-21.7337 1871.59,-22.9752"/>
<polygon fill="black" stroke="black" points="1871.82,-26.4864 1881.95,-23.3625 1872.08,-19.4913 1871.82,-26.4864"/>
<text text-anchor="middle" x="1820.5" y="-26.8" font-family="Times,serif" font-size="14.00">if_line_114</text>
</g>
<!-- q14&#45;&gt;q13 -->
<g id="edge20" class="edge"><title>q14&#45;&gt;q13</title>
<path fill="none" stroke="black" d="M1591.08,-21.5795C1619.17,-20.8881 1675.35,-19.5053 1709.06,-18.6754"/>
<polygon fill="black" stroke="black" points="1709.25,-22.172 1719.16,-18.4269 1709.07,-15.1742 1709.25,-22.172"/>
<text text-anchor="middle" x="1648" y="-25.8" font-family="Times,serif" font-size="14.00">else_line_113</text>
</g>
<!-- iq0 -->
<g id="node17" class="node"><title>iq0</title>
</g>
<!-- iq0&#45;&gt;q0 -->
<g id="edge1" class="edge"><title>iq0&#45;&gt;q0</title>
<path fill="none" stroke="blue" d="M358.626,-112C428.258,-112 617.847,-112 689.277,-112"/>
<polygon fill="blue" stroke="blue" points="689.69,-115.5 699.69,-112 689.69,-108.5 689.69,-115.5"/>
</g>
</g>
</svg>
