<?xml version="1.0" encoding="UTF-8" standalone="no"?>
<!DOCTYPE svg PUBLIC "-//W3C//DTD SVG 1.1//EN"
 "http://www.w3.org/Graphics/SVG/1.1/DTD/svg11.dtd">
<!-- Generated by graphviz version 2.38.0 (20140413.2041)
 -->
<!-- Title: finite_automaton Pages: 1 -->
<svg width="576pt" height="60pt"
 viewBox="0.00 0.00 576.00 59.92" xmlns="http://www.w3.org/2000/svg" xmlns:xlink="http://www.w3.org/1999/xlink">
<g id="graph0" class="graph" transform="scale(0.289447 0.289447) rotate(0) translate(4 203)">
<title>finite_automaton</title>
<polygon fill="white" stroke="none" points="-4,4 -4,-203 1986,-203 1986,4 -4,4"/>
<!-- dom_edges -->
<g id="node1" class="node"><title>dom_edges</title>
<polygon fill="none" stroke="green" points="670,-95 0,-95 0,-59 670,-59 670,-95"/>
<text text-anchor="middle" x="335" y="-73.3" font-family="Times,serif" font-size="14.00">Dominating edges: Exception_handler, if_line_71, else_line_99, if_line_68, if_line_100, else_line_66, Learn_Assert</text>
</g>
<!-- q1 -->
<g id="node2" class="node"><title>q1</title>
<ellipse fill="none" stroke="green" cx="1960" cy="-86" rx="18" ry="18"/>
<ellipse fill="none" stroke="green" cx="1960" cy="-86" rx="22" ry="22"/>
<text text-anchor="middle" x="1960" y="-82.3" font-family="Times,serif" font-size="14.00">D</text>
</g>
<!-- q0 -->
<g id="node3" class="node"><title>q0</title>
<ellipse fill="none" stroke="green" cx="725" cy="-131" rx="18" ry="18"/>
</g>
<!-- q8 -->
<g id="node10" class="node"><title>q8</title>
<ellipse fill="none" stroke="green" cx="868" cy="-131" rx="18" ry="18"/>
</g>
<!-- q0&#45;&gt;q8 -->
<g id="edge2" class="edge"><title>q0&#45;&gt;q8</title>
<path fill="none" stroke="green" d="M743.008,-131C767.039,-131 811.185,-131 839.8,-131"/>
<polygon fill="green" stroke="green" points="839.932,-134.5 849.932,-131 839.932,-127.5 839.932,-134.5"/>
<text text-anchor="middle" x="796.5" y="-134.8" font-family="Times,serif" font-size="14.00">else_line_66</text>
</g>
<!-- q2 -->
<g id="node4" class="node"><title>q2</title>
<ellipse fill="none" stroke="green" cx="1808" cy="-86" rx="18" ry="18"/>
</g>
<!-- q2&#45;&gt;q1 -->
<g id="edge3" class="edge"><title>q2&#45;&gt;q1</title>
<path fill="none" stroke="green" d="M1826.21,-86C1850.92,-86 1896.87,-86 1927.7,-86"/>
<polygon fill="green" stroke="green" points="1927.91,-89.5001 1937.91,-86 1927.91,-82.5001 1927.91,-89.5001"/>
<text text-anchor="middle" x="1882" y="-89.8" font-family="Times,serif" font-size="14.00">Learn_Assert</text>
</g>
<!-- q3 -->
<g id="node5" class="node"><title>q3</title>
<ellipse fill="none" stroke="green" cx="1630" cy="-86" rx="18" ry="18"/>
</g>
<!-- q3&#45;&gt;q2 -->
<g id="edge4" class="edge"><title>q3&#45;&gt;q2</title>
<path fill="none" stroke="green" d="M1648.2,-86C1678.77,-86 1742.81,-86 1779.54,-86"/>
<polygon fill="green" stroke="green" points="1779.99,-89.5001 1789.99,-86 1779.99,-82.5001 1779.99,-89.5001"/>
<text text-anchor="middle" x="1719" y="-89.8" font-family="Times,serif" font-size="14.00">Exception_handler</text>
</g>
<!-- q4 -->
<g id="node6" class="node"><title>q4</title>
<ellipse fill="none" stroke="black" cx="1482" cy="-167" rx="18" ry="18"/>
</g>
<!-- q4&#45;&gt;q3 -->
<g id="edge5" class="edge"><title>q4&#45;&gt;q3</title>
<path fill="none" stroke="black" d="M1498.07,-158.637C1523.32,-144.631 1574.36,-116.314 1604.72,-99.4718"/>
<polygon fill="black" stroke="black" points="1606.74,-102.351 1613.79,-94.4392 1603.35,-96.23 1606.74,-102.351"/>
<text text-anchor="middle" x="1561.5" y="-143.8" font-family="Times,serif" font-size="14.00">if_line_101</text>
</g>
<!-- q5 -->
<g id="node7" class="node"><title>q5</title>
<ellipse fill="none" stroke="black" cx="1317" cy="-181" rx="18" ry="18"/>
</g>
<!-- q5&#45;&gt;q4 -->
<g id="edge6" class="edge"><title>q5&#45;&gt;q4</title>
<path fill="none" stroke="green" d="M1335.14,-179.528C1363.31,-177.108 1419.66,-172.268 1453.48,-169.364"/>
<polygon fill="green" stroke="green" points="1453.94,-172.837 1463.6,-168.494 1453.34,-165.863 1453.94,-172.837"/>
<text text-anchor="middle" x="1399.5" y="-179.8" font-family="Times,serif" font-size="14.00">if_line_100</text>
</g>
<!-- q6 -->
<g id="node8" class="node"><title>q6</title>
<ellipse fill="none" stroke="black" cx="1145.5" cy="-162" rx="18" ry="18"/>
</g>
<!-- q6&#45;&gt;q5 -->
<g id="edge8" class="edge"><title>q6&#45;&gt;q5</title>
<path fill="none" stroke="green" d="M1163.69,-163.926C1193.2,-167.235 1253.75,-174.022 1288.97,-177.97"/>
<polygon fill="green" stroke="green" points="1288.69,-181.461 1299.02,-179.097 1289.47,-174.504 1288.69,-181.461"/>
<text text-anchor="middle" x="1234.5" y="-178.8" font-family="Times,serif" font-size="14.00">else_line_99</text>
</g>
<!-- q10 -->
<g id="node12" class="node"><title>q10</title>
<ellipse fill="none" stroke="black" cx="1317" cy="-127" rx="18" ry="18"/>
</g>
<!-- q6&#45;&gt;q10 -->
<g id="edge7" class="edge"><title>q6&#45;&gt;q10</title>
<path fill="none" stroke="black" d="M1163,-157.66C1173.31,-155.01 1186.89,-151.636 1199,-149 1229.65,-142.33 1265.08,-135.837 1288.85,-131.655"/>
<polygon fill="black" stroke="black" points="1289.64,-135.069 1298.89,-129.903 1288.43,-128.173 1289.64,-135.069"/>
<text text-anchor="middle" x="1234.5" y="-152.8" font-family="Times,serif" font-size="14.00">if_line_72</text>
</g>
<!-- q7 -->
<g id="node9" class="node"><title>q7</title>
<ellipse fill="none" stroke="black" cx="998" cy="-162" rx="18" ry="18"/>
</g>
<!-- q7&#45;&gt;q6 -->
<g id="edge9" class="edge"><title>q7&#45;&gt;q6</title>
<path fill="none" stroke="green" d="M1016.26,-162C1041.2,-162 1087.56,-162 1117.18,-162"/>
<polygon fill="green" stroke="green" points="1117.26,-165.5 1127.26,-162 1117.26,-158.5 1117.26,-165.5"/>
<text text-anchor="middle" x="1063" y="-165.8" font-family="Times,serif" font-size="14.00">if_line_71</text>
</g>
<!-- q8&#45;&gt;q7 -->
<g id="edge11" class="edge"><title>q8&#45;&gt;q7</title>
<path fill="none" stroke="green" d="M885.734,-135.053C907.294,-140.274 945.025,-149.412 970.503,-155.583"/>
<polygon fill="green" stroke="green" points="969.719,-158.994 980.262,-157.946 971.367,-152.191 969.719,-158.994"/>
<text text-anchor="middle" x="933" y="-155.8" font-family="Times,serif" font-size="14.00">if_line_68</text>
</g>
<!-- q13 -->
<g id="node15" class="node"><title>q13</title>
<ellipse fill="none" stroke="black" cx="998" cy="-108" rx="18" ry="18"/>
</g>
<!-- q8&#45;&gt;q13 -->
<g id="edge10" class="edge"><title>q8&#45;&gt;q13</title>
<path fill="none" stroke="green" d="M885.263,-125.843C891.124,-124.121 897.817,-122.309 904,-121 925.866,-116.372 950.983,-112.972 969.599,-110.813"/>
<polygon fill="green" stroke="green" points="970.183,-114.27 979.735,-109.685 969.409,-107.313 970.183,-114.27"/>
<text text-anchor="middle" x="933" y="-124.8" font-family="Times,serif" font-size="14.00">if_line_71</text>
</g>
<!-- q9 -->
<g id="node11" class="node"><title>q9</title>
<ellipse fill="none" stroke="black" cx="1482" cy="-86" rx="18" ry="18"/>
</g>
<!-- q9&#45;&gt;q3 -->
<g id="edge12" class="edge"><title>q9&#45;&gt;q3</title>
<path fill="none" stroke="black" d="M1500.03,-86C1524.96,-86 1571.63,-86 1601.46,-86"/>
<polygon fill="black" stroke="black" points="1601.62,-89.5001 1611.62,-86 1601.62,-82.5001 1601.62,-89.5001"/>
<text text-anchor="middle" x="1561.5" y="-89.8" font-family="Times,serif" font-size="14.00">if_line_81</text>
</g>
<!-- q10&#45;&gt;q9 -->
<g id="edge13" class="edge"><title>q10&#45;&gt;q9</title>
<path fill="none" stroke="black" d="M1334.89,-129.173C1358.2,-131.504 1401.19,-133.372 1435,-121 1444.41,-117.556 1453.48,-111.471 1461.04,-105.332"/>
<polygon fill="black" stroke="black" points="1463.34,-107.968 1468.6,-98.7697 1458.76,-102.683 1463.34,-107.968"/>
<text text-anchor="middle" x="1399.5" y="-133.8" font-family="Times,serif" font-size="14.00">if_line_73</text>
</g>
<!-- q10&#45;&gt;q9 -->
<g id="edge14" class="edge"><title>q10&#45;&gt;q9</title>
<path fill="none" stroke="black" d="M1332.3,-117.469C1341.09,-112.071 1352.77,-105.682 1364,-102 1393.73,-92.2502 1429.6,-88.4388 1453.72,-86.9504"/>
<polygon fill="black" stroke="black" points="1454.11,-90.4351 1463.91,-86.4171 1453.74,-83.4446 1454.11,-90.4351"/>
<text text-anchor="middle" x="1399.5" y="-105.8" font-family="Times,serif" font-size="14.00">else_line_76</text>
</g>
<!-- q11 -->
<g id="node13" class="node"><title>q11</title>
<ellipse fill="none" stroke="black" cx="1317" cy="-18" rx="18" ry="18"/>
</g>
<!-- q11&#45;&gt;q3 -->
<g id="edge15" class="edge"><title>q11&#45;&gt;q3</title>
<path fill="none" stroke="black" d="M1335.17,-17.5231C1358.08,-17.1621 1399.85,-17.4669 1435,-23 1497.67,-32.8663 1567.64,-59.7781 1603.99,-75.0454"/>
<polygon fill="black" stroke="black" points="1602.75,-78.3204 1613.32,-79.0189 1605.5,-71.8802 1602.75,-78.3204"/>
<text text-anchor="middle" x="1482" y="-45.8" font-family="Times,serif" font-size="14.00">if_line_81</text>
</g>
<!-- q11&#45;&gt;q9 -->
<g id="edge16" class="edge"><title>q11&#45;&gt;q9</title>
<path fill="none" stroke="black" d="M1335.24,-18.8124C1358.95,-20.5486 1402.41,-25.9868 1435,-43 1445.32,-48.3877 1455.02,-56.7347 1462.82,-64.6462"/>
<polygon fill="black" stroke="black" points="1460.57,-67.361 1469.95,-72.2869 1465.68,-62.5866 1460.57,-67.361"/>
<text text-anchor="middle" x="1399.5" y="-46.8" font-family="Times,serif" font-size="14.00">if_line_77</text>
</g>
<!-- q12 -->
<g id="node14" class="node"><title>q12</title>
<ellipse fill="none" stroke="black" cx="1145.5" cy="-56" rx="18" ry="18"/>
</g>
<!-- q12&#45;&gt;q9 -->
<g id="edge17" class="edge"><title>q12&#45;&gt;q9</title>
<path fill="none" stroke="black" d="M1163.55,-57.5289C1217.9,-62.4038 1387.43,-77.6077 1453.88,-83.568"/>
<polygon fill="black" stroke="black" points="1453.71,-87.0668 1463.99,-84.4741 1454.34,-80.0948 1453.71,-87.0668"/>
<text text-anchor="middle" x="1317" y="-77.8" font-family="Times,serif" font-size="14.00">if_line_73</text>
</g>
<!-- q12&#45;&gt;q11 -->
<g id="edge18" class="edge"><title>q12&#45;&gt;q11</title>
<path fill="none" stroke="black" d="M1163.02,-51.7648C1173.34,-49.1542 1186.92,-45.7849 1199,-43 1229.89,-35.877 1265.54,-28.3612 1289.28,-23.4529"/>
<polygon fill="black" stroke="black" points="1290.21,-26.8357 1299.3,-21.3919 1288.8,-19.9794 1290.21,-26.8357"/>
<text text-anchor="middle" x="1234.5" y="-46.8" font-family="Times,serif" font-size="14.00">else_line_76</text>
</g>
<!-- q13&#45;&gt;q5 -->
<g id="edge20" class="edge"><title>q13&#45;&gt;q5</title>
<path fill="none" stroke="green" d="M1015.96,-104.862C1060.85,-97.4672 1185.14,-82.9874 1270,-131 1281.3,-137.392 1279.31,-144.36 1288,-154 1290.35,-156.608 1292.9,-159.27 1295.48,-161.857"/>
<polygon fill="green" stroke="green" points="1293.48,-164.795 1303.08,-169.264 1298.36,-159.78 1293.48,-164.795"/>
<text text-anchor="middle" x="1145.5" y="-104.8" font-family="Times,serif" font-size="14.00">else_line_99</text>
</g>
<!-- q13&#45;&gt;q12 -->
<g id="edge19" class="edge"><title>q13&#45;&gt;q12</title>
<path fill="none" stroke="black" d="M1011.73,-96.0077C1018,-90.6891 1025.94,-84.7901 1034,-81 1060.73,-68.4214 1094.14,-61.9968 1117.18,-58.8351"/>
<polygon fill="black" stroke="black" points="1117.8,-62.2855 1127.28,-57.5669 1116.92,-55.34 1117.8,-62.2855"/>
<text text-anchor="middle" x="1063" y="-84.8" font-family="Times,serif" font-size="14.00">if_line_72</text>
</g>
<!-- iq0 -->
<g id="node16" class="node"><title>iq0</title>
</g>
<!-- iq0&#45;&gt;q0 -->
<g id="edge1" class="edge"><title>iq0&#45;&gt;q0</title>
<path fill="none" stroke="blue" d="M362.06,-131C432.363,-131 625.409,-131 696.903,-131"/>
<polygon fill="blue" stroke="blue" points="696.919,-134.5 706.919,-131 696.919,-127.5 696.919,-134.5"/>
</g>
</g>
</svg>
