<?xml version="1.0" encoding="UTF-8" standalone="no"?>
<!DOCTYPE svg PUBLIC "-//W3C//DTD SVG 1.1//EN"
 "http://www.w3.org/Graphics/SVG/1.1/DTD/svg11.dtd">
<!-- Generated by graphviz version 2.38.0 (20140413.2041)
 -->
<!-- Title: finite_automaton Pages: 1 -->
<svg width="576pt" height="39pt"
 viewBox="0.00 0.00 576.00 39.04" xmlns="http://www.w3.org/2000/svg" xmlns:xlink="http://www.w3.org/1999/xlink">
<g id="graph0" class="graph" transform="scale(0.297982 0.297982) rotate(0) translate(4 127)">
<title>finite_automaton</title>
<polygon fill="white" stroke="none" points="-4,4 -4,-127 1929,-127 1929,4 -4,4"/>
<!-- dom_edges -->
<g id="node1" class="node"><title>dom_edges</title>
<polygon fill="none" stroke="green" points="670,-44 0,-44 0,-8 670,-8 670,-44"/>
<text text-anchor="middle" x="335" y="-22.3" font-family="Times,serif" font-size="14.00">Dominating edges: Exception_handler, if_line_71, else_line_99, if_line_68, if_line_100, else_line_66, Learn_Assert</text>
</g>
<!-- q1 -->
<g id="node2" class="node"><title>q1</title>
<ellipse fill="none" stroke="green" cx="1903" cy="-67" rx="18" ry="18"/>
<ellipse fill="none" stroke="green" cx="1903" cy="-67" rx="22" ry="22"/>
<text text-anchor="middle" x="1903" y="-63.3" font-family="Times,serif" font-size="14.00">D</text>
</g>
<!-- q0 -->
<g id="node3" class="node"><title>q0</title>
<ellipse fill="none" stroke="green" cx="725" cy="-80" rx="18" ry="18"/>
</g>
<!-- q8 -->
<g id="node10" class="node"><title>q8</title>
<ellipse fill="none" stroke="green" cx="868" cy="-80" rx="18" ry="18"/>
</g>
<!-- q0&#45;&gt;q8 -->
<g id="edge2" class="edge"><title>q0&#45;&gt;q8</title>
<path fill="none" stroke="green" d="M743.008,-80C767.039,-80 811.185,-80 839.8,-80"/>
<polygon fill="green" stroke="green" points="839.932,-83.5001 849.932,-80 839.932,-76.5001 839.932,-83.5001"/>
<text text-anchor="middle" x="796.5" y="-83.8" font-family="Times,serif" font-size="14.00">else_line_66</text>
</g>
<!-- q2 -->
<g id="node4" class="node"><title>q2</title>
<ellipse fill="none" stroke="green" cx="1751" cy="-67" rx="18" ry="18"/>
</g>
<!-- q2&#45;&gt;q1 -->
<g id="edge3" class="edge"><title>q2&#45;&gt;q1</title>
<path fill="none" stroke="green" d="M1769.21,-67C1793.92,-67 1839.87,-67 1870.7,-67"/>
<polygon fill="green" stroke="green" points="1870.91,-70.5001 1880.91,-67 1870.91,-63.5001 1870.91,-70.5001"/>
<text text-anchor="middle" x="1825" y="-70.8" font-family="Times,serif" font-size="14.00">Learn_Assert</text>
</g>
<!-- q3 -->
<g id="node5" class="node"><title>q3</title>
<ellipse fill="none" stroke="green" cx="1573" cy="-67" rx="18" ry="18"/>
</g>
<!-- q3&#45;&gt;q2 -->
<g id="edge4" class="edge"><title>q3&#45;&gt;q2</title>
<path fill="none" stroke="green" d="M1591.2,-67C1621.77,-67 1685.81,-67 1722.54,-67"/>
<polygon fill="green" stroke="green" points="1722.99,-70.5001 1732.99,-67 1722.99,-63.5001 1722.99,-70.5001"/>
<text text-anchor="middle" x="1662" y="-70.8" font-family="Times,serif" font-size="14.00">Exception_handler</text>
</g>
<!-- q4 -->
<g id="node6" class="node"><title>q4</title>
<ellipse fill="none" stroke="black" cx="1436" cy="-105" rx="18" ry="18"/>
</g>
<!-- q4&#45;&gt;q3 -->
<g id="edge5" class="edge"><title>q4&#45;&gt;q3</title>
<path fill="none" stroke="black" d="M1453.55,-100.34C1476.53,-93.8734 1518.33,-82.1071 1545.63,-74.4232"/>
<polygon fill="black" stroke="black" points="1546.63,-77.7763 1555.31,-71.6977 1544.74,-71.0382 1546.63,-77.7763"/>
<text text-anchor="middle" x="1504.5" y="-97.8" font-family="Times,serif" font-size="14.00">if_line_101</text>
</g>
<!-- q5 -->
<g id="node7" class="node"><title>q5</title>
<ellipse fill="none" stroke="black" cx="1293" cy="-105" rx="18" ry="18"/>
</g>
<!-- q5&#45;&gt;q4 -->
<g id="edge6" class="edge"><title>q5&#45;&gt;q4</title>
<path fill="none" stroke="green" d="M1311.01,-105C1335.04,-105 1379.19,-105 1407.8,-105"/>
<polygon fill="green" stroke="green" points="1407.93,-108.5 1417.93,-105 1407.93,-101.5 1407.93,-108.5"/>
<text text-anchor="middle" x="1364.5" y="-108.8" font-family="Times,serif" font-size="14.00">if_line_100</text>
</g>
<!-- q6 -->
<g id="node8" class="node"><title>q6</title>
<ellipse fill="none" stroke="green" cx="1150" cy="-74" rx="18" ry="18"/>
</g>
<!-- q6&#45;&gt;q5 -->
<g id="edge8" class="edge"><title>q6&#45;&gt;q5</title>
<path fill="none" stroke="green" d="M1167.73,-77.6778C1191.9,-82.9915 1236.82,-92.8689 1265.52,-99.1788"/>
<polygon fill="green" stroke="green" points="1264.78,-102.598 1275.29,-101.327 1266.28,-95.7612 1264.78,-102.598"/>
<text text-anchor="middle" x="1221.5" y="-99.8" font-family="Times,serif" font-size="14.00">else_line_99</text>
</g>
<!-- q10 -->
<g id="node12" class="node"><title>q10</title>
<ellipse fill="none" stroke="black" cx="1293" cy="-51" rx="18" ry="18"/>
</g>
<!-- q6&#45;&gt;q10 -->
<g id="edge7" class="edge"><title>q6&#45;&gt;q10</title>
<path fill="none" stroke="black" d="M1167.25,-68.7853C1173.11,-67.0573 1179.81,-65.2565 1186,-64 1212.58,-58.6072 1243.4,-55.1327 1264.93,-53.1451"/>
<polygon fill="black" stroke="black" points="1265.32,-56.6238 1274.98,-52.2629 1264.71,-49.6506 1265.32,-56.6238"/>
<text text-anchor="middle" x="1221.5" y="-67.8" font-family="Times,serif" font-size="14.00">if_line_72</text>
</g>
<!-- q7 -->
<g id="node9" class="node"><title>q7</title>
<ellipse fill="none" stroke="black" cx="1009" cy="-41" rx="18" ry="18"/>
</g>
<!-- q7&#45;&gt;q6 -->
<g id="edge9" class="edge"><title>q7&#45;&gt;q6</title>
<path fill="none" stroke="green" d="M1026.77,-44.9806C1050.46,-50.6048 1093.98,-60.9369 1122.19,-67.634"/>
<polygon fill="green" stroke="green" points="1121.64,-71.1007 1132.17,-70.0053 1123.25,-64.29 1121.64,-71.1007"/>
<text text-anchor="middle" x="1085" y="-68.8" font-family="Times,serif" font-size="14.00">if_line_71</text>
</g>
<!-- q8&#45;&gt;q6 -->
<g id="edge10" class="edge"><title>q8&#45;&gt;q6</title>
<path fill="none" stroke="green" d="M885.987,-81.265C925.897,-83.9764 1028.71,-89.4455 1114,-81 1116.74,-80.7289 1119.58,-80.3411 1122.41,-79.8855"/>
<polygon fill="green" stroke="green" points="1123.18,-83.3017 1132.37,-78.0241 1121.89,-76.4208 1123.18,-83.3017"/>
<text text-anchor="middle" x="1009" y="-88.8" font-family="Times,serif" font-size="14.00">if_line_71</text>
</g>
<!-- q8&#45;&gt;q7 -->
<g id="edge11" class="edge"><title>q8&#45;&gt;q7</title>
<path fill="none" stroke="green" d="M884.853,-73.0949C890.791,-70.6588 897.639,-68.025 904,-66 929.885,-57.7595 960.146,-50.7734 981.33,-46.299"/>
<polygon fill="green" stroke="green" points="982.141,-49.7054 991.225,-44.2522 980.723,-42.8505 982.141,-49.7054"/>
<text text-anchor="middle" x="933" y="-69.8" font-family="Times,serif" font-size="14.00">if_line_68</text>
</g>
<!-- q9 -->
<g id="node11" class="node"><title>q9</title>
<ellipse fill="none" stroke="black" cx="1436" cy="-18" rx="18" ry="18"/>
</g>
<!-- q9&#45;&gt;q3 -->
<g id="edge12" class="edge"><title>q9&#45;&gt;q3</title>
<path fill="none" stroke="black" d="M1453.28,-23.9105C1476.29,-32.2617 1518.56,-47.6033 1545.96,-57.5474"/>
<polygon fill="black" stroke="black" points="1545.06,-60.9466 1555.66,-61.0685 1547.45,-54.3666 1545.06,-60.9466"/>
<text text-anchor="middle" x="1504.5" y="-56.8" font-family="Times,serif" font-size="14.00">if_line_81</text>
</g>
<!-- q9&#45;&gt;q9 -->
<g id="edge13" class="edge"><title>q9&#45;&gt;q9</title>
<path fill="none" stroke="black" d="M1424.76,-32.4167C1420.83,-43.166 1424.58,-54 1436,-54 1443.67,-54 1447.88,-49.1094 1448.63,-42.6397"/>
<polygon fill="black" stroke="black" points="1452.06,-41.8557 1447.24,-32.4167 1445.12,-42.7963 1452.06,-41.8557"/>
<text text-anchor="middle" x="1436" y="-57.8" font-family="Times,serif" font-size="14.00">if_line_77</text>
</g>
<!-- q10&#45;&gt;q9 -->
<g id="edge14" class="edge"><title>q10&#45;&gt;q9</title>
<path fill="none" stroke="black" d="M1311.13,-49.0183C1332.29,-46.3228 1369.27,-40.8024 1400,-32 1403.21,-31.081 1406.53,-29.9726 1409.79,-28.7866"/>
<polygon fill="black" stroke="black" points="1411.17,-32.0054 1419.21,-25.1082 1408.62,-25.4848 1411.17,-32.0054"/>
<text text-anchor="middle" x="1364.5" y="-49.8" font-family="Times,serif" font-size="14.00">if_line_73</text>
</g>
<!-- q10&#45;&gt;q9 -->
<g id="edge15" class="edge"><title>q10&#45;&gt;q9</title>
<path fill="none" stroke="black" d="M1303.33,-35.8481C1309.46,-27.4084 1318.32,-17.6823 1329,-13 1354.34,-1.88694 1386.44,-5.53675 1408.64,-10.451"/>
<polygon fill="black" stroke="black" points="1407.83,-13.8563 1418.38,-12.8273 1409.49,-7.05596 1407.83,-13.8563"/>
<text text-anchor="middle" x="1364.5" y="-16.8" font-family="Times,serif" font-size="14.00">else_line_76</text>
</g>
<!-- iq0 -->
<g id="node13" class="node"><title>iq0</title>
</g>
<!-- iq0&#45;&gt;q0 -->
<g id="edge1" class="edge"><title>iq0&#45;&gt;q0</title>
<path fill="none" stroke="blue" d="M362.06,-80C432.363,-80 625.409,-80 696.903,-80"/>
<polygon fill="blue" stroke="blue" points="696.919,-83.5001 706.919,-80 696.919,-76.5001 696.919,-83.5001"/>
</g>
</g>
</svg>
