<?xml version="1.0" encoding="UTF-8" standalone="no"?>
<!DOCTYPE svg PUBLIC "-//W3C//DTD SVG 1.1//EN"
 "http://www.w3.org/Graphics/SVG/1.1/DTD/svg11.dtd">
<!-- Generated by graphviz version 2.38.0 (20140413.2041)
 -->
<!-- Title: finite_automaton Pages: 1 -->
<svg width="576pt" height="25pt"
 viewBox="0.00 0.00 576.00 24.67" xmlns="http://www.w3.org/2000/svg" xmlns:xlink="http://www.w3.org/1999/xlink">
<g id="graph0" class="graph" transform="scale(0.141802 0.141802) rotate(0) translate(4 170)">
<title>finite_automaton</title>
<polygon fill="white" stroke="none" points="-4,4 -4,-170 4058,-170 4058,4 -4,4"/>
<!-- dom_edges -->
<g id="node1" class="node"><title>dom_edges</title>
<polygon fill="none" stroke="green" points="1027,-77 0,-77 0,-41 1027,-41 1027,-77"/>
<text text-anchor="middle" x="513.5" y="-55.3" font-family="Times,serif" font-size="14.00">Dominating edges: alt_sep_test, ALIM, Inhibit_Biased_Climb, Non_Crossing_Biased_Climb, Non_Crossing_Biased_Descend, Own_Below_Threat, initialize, fake1, Learn_Assert</text>
</g>
<!-- q1 -->
<g id="node2" class="node"><title>q1</title>
<ellipse fill="none" stroke="green" cx="4032" cy="-40" rx="18" ry="18"/>
<ellipse fill="none" stroke="green" cx="4032" cy="-40" rx="22" ry="22"/>
<text text-anchor="middle" x="4032" y="-36.3" font-family="Times,serif" font-size="14.00">D</text>
</g>
<!-- q0 -->
<g id="node3" class="node"><title>q0</title>
<ellipse fill="none" stroke="green" cx="1082" cy="-113" rx="18" ry="18"/>
</g>
<!-- q16 -->
<g id="node18" class="node"><title>q16</title>
<ellipse fill="none" stroke="green" cx="1203" cy="-113" rx="18" ry="18"/>
</g>
<!-- q0&#45;&gt;q16 -->
<g id="edge2" class="edge"><title>q0&#45;&gt;q16</title>
<path fill="none" stroke="green" d="M1100.05,-113C1119.58,-113 1151.84,-113 1174.84,-113"/>
<polygon fill="green" stroke="green" points="1174.98,-116.5 1184.98,-113 1174.98,-109.5 1174.98,-116.5"/>
<text text-anchor="middle" x="1142.5" y="-116.8" font-family="Times,serif" font-size="14.00">initialize</text>
</g>
<!-- q2 -->
<g id="node4" class="node"><title>q2</title>
<ellipse fill="none" stroke="green" cx="3880" cy="-40" rx="18" ry="18"/>
</g>
<!-- q2&#45;&gt;q1 -->
<g id="edge3" class="edge"><title>q2&#45;&gt;q1</title>
<path fill="none" stroke="green" d="M3898.21,-40C3922.92,-40 3968.87,-40 3999.7,-40"/>
<polygon fill="green" stroke="green" points="3999.91,-43.5001 4009.91,-40 3999.91,-36.5001 3999.91,-43.5001"/>
<text text-anchor="middle" x="3954" y="-43.8" font-family="Times,serif" font-size="14.00">Learn_Assert</text>
</g>
<!-- q3 -->
<g id="node5" class="node"><title>q3</title>
<ellipse fill="none" stroke="black" cx="3732" cy="-70" rx="18" ry="18"/>
</g>
<!-- q3&#45;&gt;q2 -->
<g id="edge4" class="edge"><title>q3&#45;&gt;q2</title>
<path fill="none" stroke="green" d="M3749.75,-66.5586C3774.7,-61.4321 3821.89,-51.7351 3851.82,-45.5843"/>
<polygon fill="green" stroke="green" points="3852.91,-48.9348 3862,-43.4937 3851.5,-42.0781 3852.91,-48.9348"/>
<text text-anchor="middle" x="3826" y="-58.8" font-family="Times,serif" font-size="14.00">ALIM</text>
</g>
<!-- q4 -->
<g id="node6" class="node"><title>q4</title>
<ellipse fill="none" stroke="black" cx="3588" cy="-72" rx="18" ry="18"/>
</g>
<!-- q4&#45;&gt;q3 -->
<g id="edge5" class="edge"><title>q4&#45;&gt;q3</title>
<path fill="none" stroke="green" d="M3606.13,-71.7588C3630.33,-71.4179 3674.79,-70.7917 3703.61,-70.3858"/>
<polygon fill="green" stroke="green" points="3703.86,-73.8827 3713.81,-70.2421 3703.76,-66.8834 3703.86,-73.8827"/>
<text text-anchor="middle" x="3640" y="-74.8" font-family="Times,serif" font-size="14.00">fake1</text>
</g>
<!-- q5 -->
<g id="node7" class="node"><title>q5</title>
<ellipse fill="none" stroke="black" cx="3400" cy="-27" rx="18" ry="18"/>
</g>
<!-- q5&#45;&gt;q4 -->
<g id="edge6" class="edge"><title>q5&#45;&gt;q4</title>
<path fill="none" stroke="green" d="M3417.73,-30.3526C3423.52,-31.5102 3430.04,-32.814 3436,-34 3487.55,-44.265 3501.79,-41.4519 3552,-57 3555.39,-58.0487 3558.89,-59.3163 3562.31,-60.6649"/>
<polygon fill="green" stroke="green" points="3561.01,-63.9128 3571.58,-64.5664 3563.72,-57.461 3561.01,-63.9128"/>
<text text-anchor="middle" x="3494" y="-60.8" font-family="Times,serif" font-size="14.00">Own_Below_Threat</text>
</g>
<!-- q17 -->
<g id="node19" class="node"><title>q17</title>
<ellipse fill="none" stroke="black" cx="3588" cy="-18" rx="18" ry="18"/>
</g>
<!-- q5&#45;&gt;q17 -->
<g id="edge7" class="edge"><title>q5&#45;&gt;q17</title>
<path fill="none" stroke="black" d="M3417.61,-22.4251C3423.38,-21.0426 3429.93,-19.705 3436,-19 3478.91,-14.0149 3529.13,-15.0326 3559.48,-16.391"/>
<polygon fill="black" stroke="black" points="3559.55,-19.8988 3569.71,-16.8965 3559.9,-12.9073 3559.55,-19.8988"/>
<text text-anchor="middle" x="3494" y="-22.8" font-family="Times,serif" font-size="14.00">Own_Above_Threat</text>
</g>
<!-- q6 -->
<g id="node8" class="node"><title>q6</title>
<ellipse fill="none" stroke="black" cx="3146" cy="-27" rx="18" ry="18"/>
</g>
<!-- q6&#45;&gt;q5 -->
<g id="edge8" class="edge"><title>q6&#45;&gt;q5</title>
<path fill="none" stroke="green" d="M3164.32,-27C3207.4,-27 3319.67,-27 3371.74,-27"/>
<polygon fill="green" stroke="green" points="3371.89,-30.5001 3381.89,-27 3371.89,-23.5001 3371.89,-30.5001"/>
<text text-anchor="middle" x="3273" y="-30.8" font-family="Times,serif" font-size="14.00">Non_Crossing_Biased_Descend</text>
</g>
<!-- q7 -->
<g id="node9" class="node"><title>q7</title>
<ellipse fill="none" stroke="black" cx="2958" cy="-27" rx="18" ry="18"/>
</g>
<!-- q7&#45;&gt;q6 -->
<g id="edge9" class="edge"><title>q7&#45;&gt;q6</title>
<path fill="none" stroke="green" d="M2976.17,-27C3008.55,-27 3078.91,-27 3117.8,-27"/>
<polygon fill="green" stroke="green" points="3117.88,-30.5001 3127.88,-27 3117.88,-23.5001 3117.88,-30.5001"/>
<text text-anchor="middle" x="3052" y="-30.8" font-family="Times,serif" font-size="14.00">fake1</text>
</g>
<!-- q8 -->
<g id="node10" class="node"><title>q8</title>
<ellipse fill="none" stroke="black" cx="2664.5" cy="-81" rx="18" ry="18"/>
</g>
<!-- q8&#45;&gt;q7 -->
<g id="edge11" class="edge"><title>q8&#45;&gt;q7</title>
<path fill="none" stroke="green" d="M2681.97,-76.3458C2697,-72.2072 2719.87,-66.1807 2740,-62 2807.91,-47.8934 2888.78,-36.1749 2929.97,-30.5643"/>
<polygon fill="green" stroke="green" points="2930.58,-34.0136 2940.02,-29.2092 2929.65,-27.0763 2930.58,-34.0136"/>
<text text-anchor="middle" x="2831" y="-65.8" font-family="Times,serif" font-size="14.00">Own_Below_Threat</text>
</g>
<!-- q24 -->
<g id="node26" class="node"><title>q24</title>
<ellipse fill="none" stroke="black" cx="2958" cy="-81" rx="18" ry="18"/>
</g>
<!-- q8&#45;&gt;q24 -->
<g id="edge10" class="edge"><title>q8&#45;&gt;q24</title>
<path fill="none" stroke="green" d="M2682.86,-81C2731.67,-81 2870.39,-81 2929.63,-81"/>
<polygon fill="green" stroke="green" points="2929.73,-84.5001 2939.73,-81 2929.73,-77.5001 2929.73,-84.5001"/>
<text text-anchor="middle" x="2831" y="-84.8" font-family="Times,serif" font-size="14.00">Non_Crossing_Biased_Descend</text>
</g>
<!-- q9 -->
<g id="node11" class="node"><title>q9</title>
<ellipse fill="none" stroke="black" cx="2517" cy="-81" rx="18" ry="18"/>
</g>
<!-- q9&#45;&gt;q8 -->
<g id="edge12" class="edge"><title>q9&#45;&gt;q8</title>
<path fill="none" stroke="green" d="M2535.26,-81C2560.2,-81 2606.56,-81 2636.18,-81"/>
<polygon fill="green" stroke="green" points="2636.26,-84.5001 2646.26,-81 2636.26,-77.5001 2636.26,-84.5001"/>
<text text-anchor="middle" x="2571" y="-84.8" font-family="Times,serif" font-size="14.00">ALIM</text>
</g>
<!-- q10 -->
<g id="node12" class="node"><title>q10</title>
<ellipse fill="none" stroke="black" cx="2336" cy="-81" rx="18" ry="18"/>
</g>
<!-- q10&#45;&gt;q9 -->
<g id="edge13" class="edge"><title>q10&#45;&gt;q9</title>
<path fill="none" stroke="green" d="M2354.16,-81C2385.3,-81 2451.34,-81 2488.72,-81"/>
<polygon fill="green" stroke="green" points="2488.89,-84.5001 2498.89,-81 2488.89,-77.5001 2488.89,-84.5001"/>
<text text-anchor="middle" x="2463" y="-84.8" font-family="Times,serif" font-size="14.00">fake1</text>
</g>
<!-- q11 -->
<g id="node13" class="node"><title>q11</title>
<ellipse fill="none" stroke="black" cx="2076" cy="-84" rx="18" ry="18"/>
</g>
<!-- q11&#45;&gt;q10 -->
<g id="edge14" class="edge"><title>q11&#45;&gt;q10</title>
<path fill="none" stroke="green" d="M2094.33,-83.7985C2138.3,-83.2872 2254.48,-81.9362 2307.69,-81.3176"/>
<polygon fill="green" stroke="green" points="2307.79,-84.8168 2317.75,-81.2006 2307.71,-77.8172 2307.79,-84.8168"/>
<text text-anchor="middle" x="2169.5" y="-86.8" font-family="Times,serif" font-size="14.00">Own_Below_Threat</text>
</g>
<!-- q12 -->
<g id="node14" class="node"><title>q12</title>
<ellipse fill="none" stroke="black" cx="1968" cy="-86" rx="18" ry="18"/>
</g>
<!-- q12&#45;&gt;q11 -->
<g id="edge15" class="edge"><title>q12&#45;&gt;q11</title>
<path fill="none" stroke="green" d="M1986.03,-85.6787C2002.62,-85.3656 2028.12,-84.8846 2047.57,-84.5176"/>
<polygon fill="green" stroke="green" points="2047.73,-88.0153 2057.66,-84.3272 2047.6,-81.0165 2047.73,-88.0153"/>
<text text-anchor="middle" x="2022" y="-88.8" font-family="Times,serif" font-size="14.00">fake1</text>
</g>
<!-- q13 -->
<g id="node15" class="node"><title>q13</title>
<ellipse fill="none" stroke="green" cx="1780" cy="-113" rx="18" ry="18"/>
</g>
<!-- q13&#45;&gt;q12 -->
<g id="edge16" class="edge"><title>q13&#45;&gt;q12</title>
<path fill="none" stroke="green" d="M1796.71,-105.571C1802.63,-103.078 1809.51,-100.543 1816,-99 1858.41,-88.9275 1909.16,-86.4472 1939.7,-85.951"/>
<polygon fill="green" stroke="green" points="1940.02,-89.4481 1949.98,-85.8476 1939.95,-82.4484 1940.02,-89.4481"/>
<text text-anchor="middle" x="1874" y="-102.8" font-family="Times,serif" font-size="14.00">Own_Below_Threat</text>
</g>
<!-- q22 -->
<g id="node24" class="node"><title>q22</title>
<ellipse fill="none" stroke="black" cx="2022" cy="-137" rx="18" ry="18"/>
</g>
<!-- q13&#45;&gt;q22 -->
<g id="edge17" class="edge"><title>q13&#45;&gt;q22</title>
<path fill="none" stroke="black" d="M1798.26,-114.726C1839.51,-118.851 1944.1,-129.31 1993.87,-134.287"/>
<polygon fill="black" stroke="black" points="1993.6,-137.777 2003.9,-135.29 1994.29,-130.812 1993.6,-137.777"/>
<text text-anchor="middle" x="1874" y="-131.8" font-family="Times,serif" font-size="14.00">Own_Above_Threat</text>
</g>
<!-- q14 -->
<g id="node16" class="node"><title>q14</title>
<ellipse fill="none" stroke="green" cx="1583" cy="-113" rx="18" ry="18"/>
</g>
<!-- q14&#45;&gt;q13 -->
<g id="edge18" class="edge"><title>q14&#45;&gt;q13</title>
<path fill="none" stroke="green" d="M1601.3,-113C1635.27,-113 1710.91,-113 1751.69,-113"/>
<polygon fill="green" stroke="green" points="1751.73,-116.5 1761.73,-113 1751.73,-109.5 1751.73,-116.5"/>
<text text-anchor="middle" x="1681.5" y="-116.8" font-family="Times,serif" font-size="14.00">Inhibit_Biased_Climb</text>
</g>
<!-- q15 -->
<g id="node17" class="node"><title>q15</title>
<ellipse fill="none" stroke="green" cx="1342" cy="-113" rx="18" ry="18"/>
</g>
<!-- q15&#45;&gt;q14 -->
<g id="edge19" class="edge"><title>q15&#45;&gt;q14</title>
<path fill="none" stroke="green" d="M1360.19,-113C1401.19,-113 1504.98,-113 1554.67,-113"/>
<polygon fill="green" stroke="green" points="1554.97,-116.5 1564.97,-113 1554.97,-109.5 1554.97,-116.5"/>
<text text-anchor="middle" x="1462.5" y="-116.8" font-family="Times,serif" font-size="14.00">Non_Crossing_Biased_Climb</text>
</g>
<!-- q16&#45;&gt;q15 -->
<g id="edge20" class="edge"><title>q16&#45;&gt;q15</title>
<path fill="none" stroke="green" d="M1221.07,-113C1244.25,-113 1285.94,-113 1313.54,-113"/>
<polygon fill="green" stroke="green" points="1313.71,-116.5 1323.71,-113 1313.71,-109.5 1313.71,-116.5"/>
<text text-anchor="middle" x="1272.5" y="-116.8" font-family="Times,serif" font-size="14.00">alt_sep_test</text>
</g>
<!-- q17&#45;&gt;q2 -->
<g id="edge21" class="edge"><title>q17&#45;&gt;q2</title>
<path fill="none" stroke="black" d="M3606.24,-18.3681C3641.04,-19.2192 3722.16,-21.7498 3790,-28 3810.83,-29.9188 3834.27,-33.1221 3851.86,-35.7366"/>
<polygon fill="black" stroke="black" points="3851.57,-39.2328 3861.99,-37.2716 3852.62,-32.312 3851.57,-39.2328"/>
<text text-anchor="middle" x="3732" y="-31.8" font-family="Times,serif" font-size="14.00">Own_Above_Threat</text>
</g>
<!-- q18 -->
<g id="node20" class="node"><title>q18</title>
<ellipse fill="none" stroke="black" cx="3400" cy="-94" rx="18" ry="18"/>
</g>
<!-- q18&#45;&gt;q17 -->
<g id="edge22" class="edge"><title>q18&#45;&gt;q17</title>
<path fill="none" stroke="green" d="M3417.95,-95.822C3447.63,-98.1387 3509.85,-99.0278 3552,-72 3552.81,-71.4787 3562.96,-55.7613 3572.12,-41.4185"/>
<polygon fill="green" stroke="green" points="3575.18,-43.1279 3577.61,-32.8138 3569.28,-39.3657 3575.18,-43.1279"/>
<text text-anchor="middle" x="3494" y="-99.8" font-family="Times,serif" font-size="14.00">ALIM</text>
</g>
<!-- q19 -->
<g id="node21" class="node"><title>q19</title>
<ellipse fill="none" stroke="black" cx="3146" cy="-135" rx="18" ry="18"/>
</g>
<!-- q19&#45;&gt;q18 -->
<g id="edge23" class="edge"><title>q19&#45;&gt;q18</title>
<path fill="none" stroke="green" d="M3164.19,-134.598C3201.31,-133.373 3291.44,-128.464 3364,-109 3367.42,-108.082 3370.95,-106.89 3374.38,-105.579"/>
<polygon fill="green" stroke="green" points="3375.78,-108.788 3383.66,-101.701 3373.08,-102.329 3375.78,-108.788"/>
<text text-anchor="middle" x="3273" y="-136.8" font-family="Times,serif" font-size="14.00">fake1</text>
</g>
<!-- q20 -->
<g id="node22" class="node"><title>q20</title>
<ellipse fill="none" stroke="black" cx="2463" cy="-148" rx="18" ry="18"/>
</g>
<!-- q20&#45;&gt;q19 -->
<g id="edge24" class="edge"><title>q20&#45;&gt;q19</title>
<path fill="none" stroke="green" d="M2481.26,-148C2502.24,-148 2538.72,-148 2570,-148 2570,-148 2570,-148 2959,-148 3015.62,-148 3081.69,-141.932 3117.88,-138.087"/>
<polygon fill="green" stroke="green" points="3118.54,-141.536 3128.1,-136.974 3117.78,-134.577 3118.54,-141.536"/>
<text text-anchor="middle" x="2664.5" y="-151.8" font-family="Times,serif" font-size="14.00">Own_Below_Threat</text>
</g>
<!-- q21 -->
<g id="node23" class="node"><title>q21</title>
<ellipse fill="none" stroke="black" cx="2169.5" cy="-146" rx="18" ry="18"/>
</g>
<!-- q21&#45;&gt;q20 -->
<g id="edge25" class="edge"><title>q21&#45;&gt;q20</title>
<path fill="none" stroke="green" d="M2187.86,-146.119C2236.67,-146.454 2375.39,-147.406 2434.63,-147.812"/>
<polygon fill="green" stroke="green" points="2434.71,-151.313 2444.73,-147.882 2434.75,-144.313 2434.71,-151.313"/>
<text text-anchor="middle" x="2336" y="-150.8" font-family="Times,serif" font-size="14.00">Non_Crossing_Biased_Descend</text>
</g>
<!-- q22&#45;&gt;q21 -->
<g id="edge26" class="edge"><title>q22&#45;&gt;q21</title>
<path fill="none" stroke="green" d="M2039.98,-138.05C2064.81,-139.586 2111.32,-142.463 2141.06,-144.302"/>
<polygon fill="green" stroke="green" points="2140.98,-147.805 2151.18,-144.929 2141.42,-140.818 2140.98,-147.805"/>
<text text-anchor="middle" x="2076" y="-144.8" font-family="Times,serif" font-size="14.00">ALIM</text>
</g>
<!-- q23 -->
<g id="node25" class="node"><title>q23</title>
<ellipse fill="none" stroke="black" cx="3146" cy="-81" rx="18" ry="18"/>
</g>
<!-- q23&#45;&gt;q18 -->
<g id="edge27" class="edge"><title>q23&#45;&gt;q18</title>
<path fill="none" stroke="black" d="M3164.32,-81.8935C3207.4,-84.1161 3319.67,-89.9074 3371.74,-92.5937"/>
<polygon fill="black" stroke="black" points="3371.72,-96.0975 3381.89,-93.1174 3372.08,-89.1068 3371.72,-96.0975"/>
<text text-anchor="middle" x="3273" y="-95.8" font-family="Times,serif" font-size="14.00">Own_Above_Threat</text>
</g>
<!-- q24&#45;&gt;q19 -->
<g id="edge28" class="edge"><title>q24&#45;&gt;q19</title>
<path fill="none" stroke="green" d="M2974.42,-88.4336C2980.42,-91.1092 2987.43,-93.9661 2994,-96 3044.21,-111.548 3059.98,-102.853 3110,-119 3113.41,-120.101 3116.93,-121.442 3120.36,-122.876"/>
<polygon fill="green" stroke="green" points="3119.07,-126.136 3129.63,-127.034 3121.94,-119.749 3119.07,-126.136"/>
<text text-anchor="middle" x="3052" y="-122.8" font-family="Times,serif" font-size="14.00">Own_Below_Threat</text>
</g>
<!-- q24&#45;&gt;q23 -->
<g id="edge29" class="edge"><title>q24&#45;&gt;q23</title>
<path fill="none" stroke="black" d="M2976.17,-81C3008.55,-81 3078.91,-81 3117.8,-81"/>
<polygon fill="black" stroke="black" points="3117.88,-84.5001 3127.88,-81 3117.88,-77.5001 3117.88,-84.5001"/>
<text text-anchor="middle" x="3052" y="-84.8" font-family="Times,serif" font-size="14.00">Own_Above_Threat</text>
</g>
<!-- iq0 -->
<g id="node27" class="node"><title>iq0</title>
</g>
<!-- iq0&#45;&gt;q0 -->
<g id="edge1" class="edge"><title>iq0&#45;&gt;q0</title>
<path fill="none" stroke="blue" d="M540.687,-113C635.185,-113 958.08,-113 1053.95,-113"/>
<polygon fill="blue" stroke="blue" points="1054,-116.5 1064,-113 1054,-109.5 1054,-116.5"/>
</g>
</g>
</svg>
