<?xml version="1.0" encoding="UTF-8" standalone="no"?>
<!DOCTYPE svg PUBLIC "-//W3C//DTD SVG 1.1//EN"
 "http://www.w3.org/Graphics/SVG/1.1/DTD/svg11.dtd">
<!-- Generated by graphviz version 2.38.0 (20140413.2041)
 -->
<!-- Title: finite_automaton Pages: 1 -->
<svg width="576pt" height="30pt"
 viewBox="0.00 0.00 576.00 29.78" xmlns="http://www.w3.org/2000/svg" xmlns:xlink="http://www.w3.org/1999/xlink">
<g id="graph0" class="graph" transform="scale(0.141802 0.141802) rotate(0) translate(4 206)">
<title>finite_automaton</title>
<polygon fill="white" stroke="none" points="-4,4 -4,-206 4058,-206 4058,4 -4,4"/>
<!-- dom_edges -->
<g id="node1" class="node"><title>dom_edges</title>
<polygon fill="none" stroke="green" points="1027,-36 0,-36 0,-0 1027,-0 1027,-36"/>
<text text-anchor="middle" x="513.5" y="-14.3" font-family="Times,serif" font-size="14.00">Dominating edges: alt_sep_test, ALIM, Inhibit_Biased_Climb, Non_Crossing_Biased_Climb, Non_Crossing_Biased_Descend, Own_Below_Threat, initialize, fake1, Learn_Assert</text>
</g>
<!-- q1 -->
<g id="node2" class="node"><title>q1</title>
<ellipse fill="none" stroke="green" cx="4032" cy="-152" rx="18" ry="18"/>
<ellipse fill="none" stroke="green" cx="4032" cy="-152" rx="22" ry="22"/>
<text text-anchor="middle" x="4032" y="-148.3" font-family="Times,serif" font-size="14.00">D</text>
</g>
<!-- q0 -->
<g id="node3" class="node"><title>q0</title>
<ellipse fill="none" stroke="green" cx="1082" cy="-72" rx="18" ry="18"/>
</g>
<!-- q15 -->
<g id="node17" class="node"><title>q15</title>
<ellipse fill="none" stroke="green" cx="1203" cy="-72" rx="18" ry="18"/>
</g>
<!-- q0&#45;&gt;q15 -->
<g id="edge2" class="edge"><title>q0&#45;&gt;q15</title>
<path fill="none" stroke="green" d="M1100.05,-72C1119.58,-72 1151.84,-72 1174.84,-72"/>
<polygon fill="green" stroke="green" points="1174.98,-75.5001 1184.98,-72 1174.98,-68.5001 1174.98,-75.5001"/>
<text text-anchor="middle" x="1142.5" y="-75.8" font-family="Times,serif" font-size="14.00">initialize</text>
</g>
<!-- q2 -->
<g id="node4" class="node"><title>q2</title>
<ellipse fill="none" stroke="green" cx="3880" cy="-152" rx="18" ry="18"/>
</g>
<!-- q2&#45;&gt;q1 -->
<g id="edge3" class="edge"><title>q2&#45;&gt;q1</title>
<path fill="none" stroke="green" d="M3898.21,-152C3922.92,-152 3968.87,-152 3999.7,-152"/>
<polygon fill="green" stroke="green" points="3999.91,-155.5 4009.91,-152 3999.91,-148.5 3999.91,-155.5"/>
<text text-anchor="middle" x="3954" y="-155.8" font-family="Times,serif" font-size="14.00">Learn_Assert</text>
</g>
<!-- q3 -->
<g id="node5" class="node"><title>q3</title>
<ellipse fill="none" stroke="black" cx="3588" cy="-130" rx="18" ry="18"/>
</g>
<!-- q3&#45;&gt;q2 -->
<g id="edge4" class="edge"><title>q3&#45;&gt;q2</title>
<path fill="none" stroke="black" d="M3606.24,-130.368C3641.04,-131.219 3722.16,-133.75 3790,-140 3810.83,-141.919 3834.27,-145.122 3851.86,-147.737"/>
<polygon fill="black" stroke="black" points="3851.57,-151.233 3861.99,-149.272 3852.62,-144.312 3851.57,-151.233"/>
<text text-anchor="middle" x="3732" y="-143.8" font-family="Times,serif" font-size="14.00">Own_Above_Threat</text>
</g>
<!-- q4 -->
<g id="node6" class="node"><title>q4</title>
<ellipse fill="none" stroke="black" cx="3400" cy="-108" rx="18" ry="18"/>
</g>
<!-- q4&#45;&gt;q3 -->
<g id="edge5" class="edge"><title>q4&#45;&gt;q3</title>
<path fill="none" stroke="green" d="M3418.16,-105.229C3446.61,-101.269 3505.05,-95.8284 3552,-109 3556.22,-110.184 3560.45,-112.023 3564.43,-114.13"/>
<polygon fill="green" stroke="green" points="3562.78,-117.222 3573.16,-119.354 3566.37,-111.215 3562.78,-117.222"/>
<text text-anchor="middle" x="3494" y="-112.8" font-family="Times,serif" font-size="14.00">ALIM</text>
</g>
<!-- q5 -->
<g id="node7" class="node"><title>q5</title>
<ellipse fill="none" stroke="black" cx="3146" cy="-119" rx="18" ry="18"/>
</g>
<!-- q5&#45;&gt;q4 -->
<g id="edge6" class="edge"><title>q5&#45;&gt;q4</title>
<path fill="none" stroke="black" d="M3164.32,-118.244C3207.4,-116.363 3319.67,-111.463 3371.74,-109.19"/>
<polygon fill="black" stroke="black" points="3372.05,-112.68 3381.89,-108.747 3371.75,-105.686 3372.05,-112.68"/>
<text text-anchor="middle" x="3273" y="-120.8" font-family="Times,serif" font-size="14.00">Own_Above_Threat</text>
</g>
<!-- q6 -->
<g id="node8" class="node"><title>q6</title>
<ellipse fill="none" stroke="black" cx="2958" cy="-105" rx="18" ry="18"/>
</g>
<!-- q6&#45;&gt;q5 -->
<g id="edge8" class="edge"><title>q6&#45;&gt;q5</title>
<path fill="none" stroke="black" d="M2976.17,-106.292C3008.55,-108.73 3078.91,-114.026 3117.8,-116.953"/>
<polygon fill="black" stroke="black" points="3117.64,-120.451 3127.88,-117.711 3118.17,-113.47 3117.64,-120.451"/>
<text text-anchor="middle" x="3052" y="-119.8" font-family="Times,serif" font-size="14.00">Own_Above_Threat</text>
</g>
<!-- q21 -->
<g id="node23" class="node"><title>q21</title>
<ellipse fill="none" stroke="black" cx="3146" cy="-65" rx="18" ry="18"/>
</g>
<!-- q6&#45;&gt;q21 -->
<g id="edge7" class="edge"><title>q6&#45;&gt;q21</title>
<path fill="none" stroke="green" d="M2973.93,-96.5213C2979.99,-93.4077 2987.16,-90.1274 2994,-88 3035.94,-74.9489 3086.83,-69.1576 3117.53,-66.6954"/>
<polygon fill="green" stroke="green" points="3118.15,-70.1588 3127.87,-65.9316 3117.64,-63.1778 3118.15,-70.1588"/>
<text text-anchor="middle" x="3052" y="-91.8" font-family="Times,serif" font-size="14.00">Own_Below_Threat</text>
</g>
<!-- q7 -->
<g id="node9" class="node"><title>q7</title>
<ellipse fill="none" stroke="black" cx="2664.5" cy="-105" rx="18" ry="18"/>
</g>
<!-- q7&#45;&gt;q6 -->
<g id="edge9" class="edge"><title>q7&#45;&gt;q6</title>
<path fill="none" stroke="green" d="M2682.86,-105C2731.67,-105 2870.39,-105 2929.63,-105"/>
<polygon fill="green" stroke="green" points="2929.73,-108.5 2939.73,-105 2929.73,-101.5 2929.73,-108.5"/>
<text text-anchor="middle" x="2831" y="-108.8" font-family="Times,serif" font-size="14.00">Non_Crossing_Biased_Descend</text>
</g>
<!-- q20 -->
<g id="node22" class="node"><title>q20</title>
<ellipse fill="none" stroke="black" cx="2958" cy="-160" rx="18" ry="18"/>
</g>
<!-- q7&#45;&gt;q20 -->
<g id="edge10" class="edge"><title>q7&#45;&gt;q20</title>
<path fill="none" stroke="green" d="M2681.98,-109.633C2697.01,-113.757 2719.88,-119.774 2740,-124 2807.93,-138.269 2888.79,-150.424 2929.97,-156.273"/>
<polygon fill="green" stroke="green" points="2929.64,-159.76 2940.03,-157.687 2930.61,-152.828 2929.64,-159.76"/>
<text text-anchor="middle" x="2831" y="-157.8" font-family="Times,serif" font-size="14.00">Own_Below_Threat</text>
</g>
<!-- q8 -->
<g id="node10" class="node"><title>q8</title>
<ellipse fill="none" stroke="black" cx="2517" cy="-103" rx="18" ry="18"/>
</g>
<!-- q8&#45;&gt;q7 -->
<g id="edge11" class="edge"><title>q8&#45;&gt;q7</title>
<path fill="none" stroke="green" d="M2535.26,-103.237C2560.2,-103.58 2606.56,-104.217 2636.18,-104.624"/>
<polygon fill="green" stroke="green" points="2636.21,-108.125 2646.26,-104.763 2636.31,-101.126 2636.21,-108.125"/>
<text text-anchor="middle" x="2571" y="-106.8" font-family="Times,serif" font-size="14.00">ALIM</text>
</g>
<!-- q9 -->
<g id="node11" class="node"><title>q9</title>
<ellipse fill="none" stroke="black" cx="2336" cy="-103" rx="18" ry="18"/>
</g>
<!-- q9&#45;&gt;q8 -->
<g id="edge12" class="edge"><title>q9&#45;&gt;q8</title>
<path fill="none" stroke="green" d="M2354.16,-103C2385.3,-103 2451.34,-103 2488.72,-103"/>
<polygon fill="green" stroke="green" points="2488.89,-106.5 2498.89,-103 2488.89,-99.5001 2488.89,-106.5"/>
<text text-anchor="middle" x="2463" y="-106.8" font-family="Times,serif" font-size="14.00">fake1</text>
</g>
<!-- q10 -->
<g id="node12" class="node"><title>q10</title>
<ellipse fill="none" stroke="black" cx="2076" cy="-103" rx="18" ry="18"/>
</g>
<!-- q10&#45;&gt;q9 -->
<g id="edge13" class="edge"><title>q10&#45;&gt;q9</title>
<path fill="none" stroke="green" d="M2094.33,-103C2138.3,-103 2254.48,-103 2307.69,-103"/>
<polygon fill="green" stroke="green" points="2307.75,-106.5 2317.75,-103 2307.75,-99.5001 2307.75,-106.5"/>
<text text-anchor="middle" x="2169.5" y="-106.8" font-family="Times,serif" font-size="14.00">Own_Below_Threat</text>
</g>
<!-- q11 -->
<g id="node13" class="node"><title>q11</title>
<ellipse fill="none" stroke="black" cx="1968" cy="-101" rx="18" ry="18"/>
</g>
<!-- q11&#45;&gt;q10 -->
<g id="edge14" class="edge"><title>q11&#45;&gt;q10</title>
<path fill="none" stroke="green" d="M1986.03,-101.321C2002.62,-101.634 2028.12,-102.115 2047.57,-102.482"/>
<polygon fill="green" stroke="green" points="2047.6,-105.983 2057.66,-102.673 2047.73,-98.9847 2047.6,-105.983"/>
<text text-anchor="middle" x="2022" y="-105.8" font-family="Times,serif" font-size="14.00">fake1</text>
</g>
<!-- q12 -->
<g id="node14" class="node"><title>q12</title>
<ellipse fill="none" stroke="green" cx="1780" cy="-72" rx="18" ry="18"/>
</g>
<!-- q12&#45;&gt;q11 -->
<g id="edge15" class="edge"><title>q12&#45;&gt;q11</title>
<path fill="none" stroke="green" d="M1797.83,-74.6247C1830.12,-79.6587 1901,-90.709 1939.98,-96.787"/>
<polygon fill="green" stroke="green" points="1939.65,-100.278 1950.07,-98.3603 1940.73,-93.3615 1939.65,-100.278"/>
<text text-anchor="middle" x="1874" y="-98.8" font-family="Times,serif" font-size="14.00">Own_Below_Threat</text>
</g>
<!-- q24 -->
<g id="node26" class="node"><title>q24</title>
<ellipse fill="none" stroke="black" cx="2022" cy="-52" rx="18" ry="18"/>
</g>
<!-- q12&#45;&gt;q24 -->
<g id="edge16" class="edge"><title>q12&#45;&gt;q24</title>
<path fill="none" stroke="black" d="M1796.66,-64.3709C1802.58,-61.8565 1809.46,-59.3581 1816,-58 1878.61,-44.9887 1954.28,-47.2817 1993.86,-49.8085"/>
<polygon fill="black" stroke="black" points="1993.81,-53.3132 2004.03,-50.5148 1994.29,-46.33 1993.81,-53.3132"/>
<text text-anchor="middle" x="1874" y="-61.8" font-family="Times,serif" font-size="14.00">Own_Above_Threat</text>
</g>
<!-- q13 -->
<g id="node15" class="node"><title>q13</title>
<ellipse fill="none" stroke="green" cx="1583" cy="-72" rx="18" ry="18"/>
</g>
<!-- q13&#45;&gt;q12 -->
<g id="edge17" class="edge"><title>q13&#45;&gt;q12</title>
<path fill="none" stroke="green" d="M1601.3,-72C1635.27,-72 1710.91,-72 1751.69,-72"/>
<polygon fill="green" stroke="green" points="1751.73,-75.5001 1761.73,-72 1751.73,-68.5001 1751.73,-75.5001"/>
<text text-anchor="middle" x="1681.5" y="-75.8" font-family="Times,serif" font-size="14.00">Inhibit_Biased_Climb</text>
</g>
<!-- q14 -->
<g id="node16" class="node"><title>q14</title>
<ellipse fill="none" stroke="green" cx="1342" cy="-72" rx="18" ry="18"/>
</g>
<!-- q14&#45;&gt;q13 -->
<g id="edge18" class="edge"><title>q14&#45;&gt;q13</title>
<path fill="none" stroke="green" d="M1360.19,-72C1401.19,-72 1504.98,-72 1554.67,-72"/>
<polygon fill="green" stroke="green" points="1554.97,-75.5001 1564.97,-72 1554.97,-68.5001 1554.97,-75.5001"/>
<text text-anchor="middle" x="1462.5" y="-75.8" font-family="Times,serif" font-size="14.00">Non_Crossing_Biased_Climb</text>
</g>
<!-- q15&#45;&gt;q14 -->
<g id="edge19" class="edge"><title>q15&#45;&gt;q14</title>
<path fill="none" stroke="green" d="M1221.07,-72C1244.25,-72 1285.94,-72 1313.54,-72"/>
<polygon fill="green" stroke="green" points="1313.71,-75.5001 1323.71,-72 1313.71,-68.5001 1313.71,-75.5001"/>
<text text-anchor="middle" x="1272.5" y="-75.8" font-family="Times,serif" font-size="14.00">alt_sep_test</text>
</g>
<!-- q16 -->
<g id="node18" class="node"><title>q16</title>
<ellipse fill="none" stroke="black" cx="3732" cy="-182" rx="18" ry="18"/>
</g>
<!-- q16&#45;&gt;q2 -->
<g id="edge20" class="edge"><title>q16&#45;&gt;q2</title>
<path fill="none" stroke="green" d="M3749.75,-178.559C3774.7,-173.432 3821.89,-163.735 3851.82,-157.584"/>
<polygon fill="green" stroke="green" points="3852.91,-160.935 3862,-155.494 3851.5,-154.078 3852.91,-160.935"/>
<text text-anchor="middle" x="3826" y="-169.8" font-family="Times,serif" font-size="14.00">ALIM</text>
</g>
<!-- q17 -->
<g id="node19" class="node"><title>q17</title>
<ellipse fill="none" stroke="black" cx="3588" cy="-184" rx="18" ry="18"/>
</g>
<!-- q17&#45;&gt;q16 -->
<g id="edge21" class="edge"><title>q17&#45;&gt;q16</title>
<path fill="none" stroke="green" d="M3606.13,-183.759C3630.33,-183.418 3674.79,-182.792 3703.61,-182.386"/>
<polygon fill="green" stroke="green" points="3703.86,-185.883 3713.81,-182.242 3703.76,-178.883 3703.86,-185.883"/>
<text text-anchor="middle" x="3640" y="-186.8" font-family="Times,serif" font-size="14.00">fake1</text>
</g>
<!-- q18 -->
<g id="node20" class="node"><title>q18</title>
<ellipse fill="none" stroke="black" cx="3400" cy="-173" rx="18" ry="18"/>
</g>
<!-- q18&#45;&gt;q3 -->
<g id="edge23" class="edge"><title>q18&#45;&gt;q3</title>
<path fill="none" stroke="black" d="M3415.95,-164.589C3422.01,-161.485 3429.18,-158.193 3436,-156 3477.95,-142.501 3528.84,-135.585 3559.53,-132.385"/>
<polygon fill="black" stroke="black" points="3560.26,-135.83 3569.87,-131.369 3559.57,-128.864 3560.26,-135.83"/>
<text text-anchor="middle" x="3494" y="-159.8" font-family="Times,serif" font-size="14.00">Own_Above_Threat</text>
</g>
<!-- q18&#45;&gt;q17 -->
<g id="edge22" class="edge"><title>q18&#45;&gt;q17</title>
<path fill="none" stroke="green" d="M3418.17,-174.015C3450.55,-175.931 3520.91,-180.092 3559.8,-182.391"/>
<polygon fill="green" stroke="green" points="3559.69,-185.891 3569.88,-182.987 3560.1,-178.903 3559.69,-185.891"/>
<text text-anchor="middle" x="3494" y="-184.8" font-family="Times,serif" font-size="14.00">Own_Below_Threat</text>
</g>
<!-- q19 -->
<g id="node21" class="node"><title>q19</title>
<ellipse fill="none" stroke="black" cx="3146" cy="-173" rx="18" ry="18"/>
</g>
<!-- q19&#45;&gt;q18 -->
<g id="edge24" class="edge"><title>q19&#45;&gt;q18</title>
<path fill="none" stroke="green" d="M3164.32,-173C3207.4,-173 3319.67,-173 3371.74,-173"/>
<polygon fill="green" stroke="green" points="3371.89,-176.5 3381.89,-173 3371.89,-169.5 3371.89,-176.5"/>
<text text-anchor="middle" x="3273" y="-176.8" font-family="Times,serif" font-size="14.00">Non_Crossing_Biased_Descend</text>
</g>
<!-- q20&#45;&gt;q19 -->
<g id="edge25" class="edge"><title>q20&#45;&gt;q19</title>
<path fill="none" stroke="green" d="M2976.17,-161.2C3008.55,-163.463 3078.91,-168.381 3117.8,-171.099"/>
<polygon fill="green" stroke="green" points="3117.66,-174.597 3127.88,-171.803 3118.14,-167.614 3117.66,-174.597"/>
<text text-anchor="middle" x="3052" y="-173.8" font-family="Times,serif" font-size="14.00">fake1</text>
</g>
<!-- q21&#45;&gt;q4 -->
<g id="edge26" class="edge"><title>q21&#45;&gt;q4</title>
<path fill="none" stroke="green" d="M3164.02,-64.9063C3201.18,-65.1423 3291.97,-68.1244 3364,-90 3367.68,-91.1182 3371.44,-92.6154 3375.06,-94.2708"/>
<polygon fill="green" stroke="green" points="3373.67,-97.4898 3384.17,-98.8704 3376.82,-91.2404 3373.67,-97.4898"/>
<text text-anchor="middle" x="3273" y="-93.8" font-family="Times,serif" font-size="14.00">fake1</text>
</g>
<!-- q22 -->
<g id="node24" class="node"><title>q22</title>
<ellipse fill="none" stroke="black" cx="2463" cy="-52" rx="18" ry="18"/>
</g>
<!-- q22&#45;&gt;q21 -->
<g id="edge27" class="edge"><title>q22&#45;&gt;q21</title>
<path fill="none" stroke="green" d="M2481.26,-52C2502.24,-52 2538.72,-52 2570,-52 2570,-52 2570,-52 2959,-52 3015.62,-52 3081.69,-58.0684 3117.88,-61.913"/>
<polygon fill="green" stroke="green" points="3117.78,-65.4233 3128.1,-63.0256 3118.54,-58.4644 3117.78,-65.4233"/>
<text text-anchor="middle" x="2664.5" y="-55.8" font-family="Times,serif" font-size="14.00">Own_Below_Threat</text>
</g>
<!-- q23 -->
<g id="node25" class="node"><title>q23</title>
<ellipse fill="none" stroke="black" cx="2169.5" cy="-52" rx="18" ry="18"/>
</g>
<!-- q23&#45;&gt;q22 -->
<g id="edge28" class="edge"><title>q23&#45;&gt;q22</title>
<path fill="none" stroke="green" d="M2187.86,-52C2236.67,-52 2375.39,-52 2434.63,-52"/>
<polygon fill="green" stroke="green" points="2434.73,-55.5001 2444.73,-52 2434.73,-48.5001 2434.73,-55.5001"/>
<text text-anchor="middle" x="2336" y="-55.8" font-family="Times,serif" font-size="14.00">Non_Crossing_Biased_Descend</text>
</g>
<!-- q24&#45;&gt;q23 -->
<g id="edge29" class="edge"><title>q24&#45;&gt;q23</title>
<path fill="none" stroke="green" d="M2040.26,-52C2065.2,-52 2111.56,-52 2141.18,-52"/>
<polygon fill="green" stroke="green" points="2141.26,-55.5001 2151.26,-52 2141.26,-48.5001 2141.26,-55.5001"/>
<text text-anchor="middle" x="2076" y="-55.8" font-family="Times,serif" font-size="14.00">ALIM</text>
</g>
<!-- iq0 -->
<g id="node27" class="node"><title>iq0</title>
</g>
<!-- iq0&#45;&gt;q0 -->
<g id="edge1" class="edge"><title>iq0&#45;&gt;q0</title>
<path fill="none" stroke="blue" d="M540.687,-72C635.185,-72 958.08,-72 1053.95,-72"/>
<polygon fill="blue" stroke="blue" points="1054,-75.5001 1064,-72 1054,-68.5001 1054,-75.5001"/>
</g>
</g>
</svg>
