<?xml version="1.0" encoding="UTF-8" standalone="no"?>
<!DOCTYPE svg PUBLIC "-//W3C//DTD SVG 1.1//EN"
 "http://www.w3.org/Graphics/SVG/1.1/DTD/svg11.dtd">
<!-- Generated by graphviz version 2.34.0 (20141125.1709)
 -->
<!-- Title: finite_automaton Pages: 1 -->
<svg width="354pt" height="576pt"
 viewBox="0.00 0.00 353.60 576.00" xmlns="http://www.w3.org/2000/svg" xmlns:xlink="http://www.w3.org/1999/xlink">
<g id="graph0" class="graph" transform="scale(0.247271 0.247271) rotate(0) translate(4 2325.43)">
<title>finite_automaton</title>
<polygon fill="white" stroke="white" points="-4,4 -4,-2325.43 1426,-2325.43 1426,4 -4,4"/>
<!-- dom_edges -->
<g id="node1" class="node"><title>dom_edges</title>
<polygon fill="none" stroke="green" points="459.5,-851.428 0.5,-851.428 0.5,-815.428 459.5,-815.428 459.5,-851.428"/>
<text text-anchor="middle" x="230" y="-829.728" font-family="Times,serif" font-size="14.00">Dominating edges: inspect, __list_add, list_add, gl_insert, gl_read, Learn_Assert</text>
</g>
<!-- q1 -->
<g id="node2" class="node"><title>q1</title>
<ellipse fill="none" stroke="green" cx="230" cy="-1148.43" rx="18" ry="18"/>
<ellipse fill="none" stroke="green" cx="230" cy="-1148.43" rx="22" ry="22"/>
<text text-anchor="middle" x="230" y="-1144.73" font-family="Times,serif" font-size="14.00">D</text>
</g>
<!-- q0 -->
<g id="node3" class="node"><title>q0</title>
<ellipse fill="none" stroke="green" cx="598" cy="-1091.43" rx="18" ry="18"/>
<text text-anchor="middle" x="598" y="-1087.73" font-family="Times,serif" font-size="14.00">D</text>
</g>
<!-- q1&#45;&gt;q0 -->
<g id="edge14" class="edge"><title>q1&#45;&gt;q0</title>
<path fill="none" stroke="green" d="M244.31,-1165.27C291.808,-1223.43 455.789,-1407.4 562,-1316.43 591.204,-1291.42 596.235,-1174.5 596.967,-1119.79"/>
<polygon fill="green" stroke="green" points="600.467,-1119.76 597.062,-1109.72 593.467,-1119.69 600.467,-1119.76"/>
<text text-anchor="middle" x="520" y="-1344.23" font-family="Times,serif" font-size="14.00">inspect</text>
</g>
<!-- q1&#45;&gt;q0 -->
<g id="edge15" class="edge"><title>q1&#45;&gt;q0</title>
<path fill="none" stroke="green" d="M248.069,-1161.24C286.569,-1189.24 384.148,-1255.24 478,-1278.43 514.243,-1287.38 533.276,-1302.28 562,-1278.43 585.93,-1258.56 593.593,-1166.72 595.972,-1119.56"/>
<polygon fill="green" stroke="green" points="599.476,-1119.55 596.437,-1109.4 592.483,-1119.23 599.476,-1119.55"/>
<text text-anchor="middle" x="520" y="-1294.23" font-family="Times,serif" font-size="14.00">__list_add</text>
</g>
<!-- q1&#45;&gt;q0 -->
<g id="edge16" class="edge"><title>q1&#45;&gt;q0</title>
<path fill="none" stroke="black" d="M250.322,-1158.03C313.362,-1188.72 511.862,-1280.15 562,-1240.43 580.657,-1225.65 590.342,-1158.58 594.475,-1119.65"/>
<polygon fill="black" stroke="black" points="597.98,-1119.78 595.497,-1109.48 591.015,-1119.08 597.98,-1119.78"/>
<text text-anchor="middle" x="520" y="-1253.23" font-family="Times,serif" font-size="14.00">__list_del</text>
</g>
<!-- q1&#45;&gt;q0 -->
<g id="edge17" class="edge"><title>q1&#45;&gt;q0</title>
<path fill="none" stroke="green" d="M251.195,-1155.44C315.137,-1177.07 511.875,-1239.18 562,-1202.43 587.636,-1183.63 594.982,-1146.02 596.835,-1119.81"/>
<polygon fill="green" stroke="green" points="600.337,-1119.87 597.322,-1109.71 593.345,-1119.53 600.337,-1119.87"/>
<text text-anchor="middle" x="520" y="-1217.23" font-family="Times,serif" font-size="14.00">list_add</text>
</g>
<!-- q1&#45;&gt;q0 -->
<g id="edge18" class="edge"><title>q1&#45;&gt;q0</title>
<path fill="none" stroke="black" d="M251.942,-1152.48C316.351,-1164.47 510.269,-1197 562,-1164.43 577.709,-1154.54 586.525,-1135.42 591.379,-1119.24"/>
<polygon fill="black" stroke="black" points="594.874,-1119.71 594.029,-1109.15 588.103,-1117.93 594.874,-1119.71"/>
<text text-anchor="middle" x="520" y="-1182.23" font-family="Times,serif" font-size="14.00">list_move</text>
</g>
<!-- q1&#45;&gt;q0 -->
<g id="edge19" class="edge"><title>q1&#45;&gt;q0</title>
<path fill="none" stroke="black" d="M252.046,-1148.94C315.893,-1150.19 506.406,-1151.65 562,-1126.43 568.625,-1123.42 574.696,-1118.58 579.854,-1113.44"/>
<polygon fill="black" stroke="black" points="582.588,-1115.63 586.718,-1105.88 577.405,-1110.93 582.588,-1115.63"/>
<text text-anchor="middle" x="520" y="-1145.23" font-family="Times,serif" font-size="14.00">gl_sort_pass</text>
</g>
<!-- q1&#45;&gt;q0 -->
<g id="edge20" class="edge"><title>q1&#45;&gt;q0</title>
<path fill="none" stroke="green" d="M251.784,-1144.76C294.229,-1137.3 393.961,-1120.05 478,-1107.43 509.463,-1102.7 545.708,-1097.93 569.849,-1094.84"/>
<polygon fill="green" stroke="green" points="570.55,-1098.28 580.029,-1093.54 569.668,-1091.33 570.55,-1098.28"/>
<text text-anchor="middle" x="520" y="-1111.23" font-family="Times,serif" font-size="14.00">gl_insert</text>
</g>
<!-- q1&#45;&gt;q0 -->
<g id="edge21" class="edge"><title>q1&#45;&gt;q0</title>
<path fill="none" stroke="green" d="M250.745,-1140.58C292.084,-1124.62 391.111,-1088.83 478,-1076.43 514.959,-1071.15 525.429,-1068.92 562,-1076.43 565.473,-1077.14 569.026,-1078.21 572.475,-1079.46"/>
<polygon fill="green" stroke="green" points="571.18,-1082.72 581.759,-1083.31 573.857,-1076.25 571.18,-1082.72"/>
<text text-anchor="middle" x="520" y="-1080.23" font-family="Times,serif" font-size="14.00">gl_read</text>
</g>
<!-- q1&#45;&gt;q0 -->
<g id="edge22" class="edge"><title>q1&#45;&gt;q0</title>
<path fill="none" stroke="black" d="M249.809,-1138.3C290.172,-1117.22 388.693,-1069.17 478,-1052.43 514.694,-1045.55 527.907,-1037.22 562,-1052.43 569.711,-1055.87 576.431,-1061.94 581.865,-1068.28"/>
<polygon fill="black" stroke="black" points="579.159,-1070.51 588.039,-1076.29 584.702,-1066.23 579.159,-1070.51"/>
<text text-anchor="middle" x="520" y="-1056.23" font-family="Times,serif" font-size="14.00">gl_destroy</text>
</g>
<!-- q1&#45;&gt;q0 -->
<g id="edge23" class="edge"><title>q1&#45;&gt;q0</title>
<path fill="none" stroke="black" d="M248.464,-1136C287.372,-1109.16 385.087,-1046.44 478,-1024.43 514.328,-1015.82 530.069,-1005.08 562,-1024.43 576.318,-1033.1 585.057,-1049.77 590.222,-1064.31"/>
<polygon fill="black" stroke="black" points="586.905,-1065.42 593.252,-1073.91 593.58,-1063.32 586.905,-1065.42"/>
<text text-anchor="middle" x="520" y="-1028.23" font-family="Times,serif" font-size="14.00">val_from_node</text>
</g>
<!-- q1&#45;&gt;q0 -->
<g id="edge24" class="edge"><title>q1&#45;&gt;q0</title>
<path fill="none" stroke="black" d="M246.782,-1134.03C283.772,-1101.37 380.348,-1022.38 478,-994.428 513.892,-984.156 531.448,-972.972 562,-994.428 584.007,-1009.88 592.239,-1040.6 595.284,-1063.34"/>
<polygon fill="black" stroke="black" points="591.822,-1063.89 596.374,-1073.46 598.782,-1063.14 591.822,-1063.89"/>
<text text-anchor="middle" x="520" y="-998.228" font-family="Times,serif" font-size="14.00">gl_sort</text>
</g>
<!-- q1&#45;&gt;q0 -->
<g id="edge25" class="edge"><title>q1&#45;&gt;q0</title>
<path fill="none" stroke="green" d="M245.088,-1132.26C279.895,-1093.7 374.654,-996.989 478,-962.428 513.406,-950.588 532.346,-939.748 562,-962.428 577.925,-974.609 588.298,-1029.12 593.359,-1063.27"/>
<polygon fill="green" stroke="green" points="589.948,-1064.15 594.815,-1073.56 596.879,-1063.17 589.948,-1064.15"/>
<text text-anchor="middle" x="520" y="-966.228" font-family="Times,serif" font-size="14.00">Learn_Assert</text>
</g>
<!-- q0&#45;&gt;q0 -->
<g id="edge2" class="edge"><title>q0&#45;&gt;q0</title>
<path fill="none" stroke="green" d="M596.553,-1109.58C596.33,-1118.97 596.812,-1127.43 598,-1127.43 598.724,-1127.43 599.185,-1124.29 599.385,-1119.71"/>
<polygon fill="green" stroke="green" points="602.886,-1119.6 599.447,-1109.58 595.886,-1119.56 602.886,-1119.6"/>
<text text-anchor="middle" x="598" y="-1131.23" font-family="Times,serif" font-size="14.00">inspect</text>
</g>
<!-- q0&#45;&gt;q0 -->
<g id="edge3" class="edge"><title>q0&#45;&gt;q0</title>
<path fill="none" stroke="green" d="M595.595,-1109.41C594.308,-1126.63 595.109,-1145.43 598,-1145.43 600.326,-1145.43 601.299,-1133.25 600.92,-1119.53"/>
<polygon fill="green" stroke="green" points="604.409,-1119.22 600.405,-1109.41 597.418,-1119.57 604.409,-1119.22"/>
<text text-anchor="middle" x="598" y="-1149.23" font-family="Times,serif" font-size="14.00">__list_add</text>
</g>
<!-- q0&#45;&gt;q0 -->
<g id="edge4" class="edge"><title>q0&#45;&gt;q0</title>
<path fill="none" stroke="black" d="M594.964,-1109.51C592.277,-1133.84 593.289,-1163.43 598,-1163.43 602.067,-1163.43 603.377,-1141.38 601.931,-1119.69"/>
<polygon fill="black" stroke="black" points="605.398,-1119.16 601.036,-1109.51 598.425,-1119.77 605.398,-1119.16"/>
<text text-anchor="middle" x="598" y="-1167.23" font-family="Times,serif" font-size="14.00">__list_del</text>
</g>
<!-- q0&#45;&gt;q0 -->
<g id="edge5" class="edge"><title>q0&#45;&gt;q0</title>
<path fill="none" stroke="green" d="M594.523,-1109.54C590.247,-1140.67 591.406,-1181.43 598,-1181.43 603.898,-1181.43 605.448,-1148.81 602.649,-1119.65"/>
<polygon fill="green" stroke="green" points="606.105,-1119.07 601.477,-1109.54 599.151,-1119.88 606.105,-1119.07"/>
<text text-anchor="middle" x="598" y="-1185.23" font-family="Times,serif" font-size="14.00">list_add</text>
</g>
<!-- q0&#45;&gt;q0 -->
<g id="edge6" class="edge"><title>q0&#45;&gt;q0</title>
<path fill="none" stroke="black" d="M594.249,-1109.23C588.215,-1146.98 589.465,-1199.43 598,-1199.43 605.802,-1199.43 607.517,-1155.6 603.145,-1119.24"/>
<polygon fill="black" stroke="black" points="606.596,-1118.65 601.751,-1109.23 599.663,-1119.61 606.596,-1118.65"/>
<text text-anchor="middle" x="598" y="-1203.23" font-family="Times,serif" font-size="14.00">list_move</text>
</g>
<!-- q0&#45;&gt;q0 -->
<g id="edge7" class="edge"><title>q0&#45;&gt;q0</title>
<path fill="none" stroke="black" d="M594.01,-1109.2C586.193,-1153.4 587.523,-1217.43 598,-1217.43 607.699,-1217.43 609.559,-1162.55 603.579,-1119.33"/>
<polygon fill="black" stroke="black" points="606.997,-1118.53 601.99,-1109.2 600.081,-1119.62 606.997,-1118.53"/>
<text text-anchor="middle" x="598" y="-1221.23" font-family="Times,serif" font-size="14.00">gl_sort_pass</text>
</g>
<!-- q0&#45;&gt;q0 -->
<g id="edge8" class="edge"><title>q0&#45;&gt;q0</title>
<path fill="none" stroke="green" d="M593.845,-1109.05C584.174,-1159.61 585.559,-1235.43 598,-1235.43 609.64,-1235.43 611.602,-1169.07 603.887,-1119.11"/>
<polygon fill="green" stroke="green" points="607.301,-1118.31 602.155,-1109.05 600.402,-1119.49 607.301,-1118.31"/>
<text text-anchor="middle" x="598" y="-1239.23" font-family="Times,serif" font-size="14.00">gl_insert</text>
</g>
<!-- q0&#45;&gt;q0 -->
<g id="edge10" class="edge"><title>q0&#45;&gt;q0</title>
<path fill="none" stroke="black" d="M593.695,-1109.01C582.159,-1165.87 583.594,-1253.43 598,-1253.43 611.59,-1253.43 613.637,-1175.51 604.14,-1118.95"/>
<polygon fill="black" stroke="black" points="607.563,-1118.21 602.305,-1109.01 600.68,-1119.48 607.563,-1118.21"/>
<text text-anchor="middle" x="598" y="-1257.23" font-family="Times,serif" font-size="14.00">gl_destroy</text>
</g>
<!-- q0&#45;&gt;q0 -->
<g id="edge11" class="edge"><title>q0&#45;&gt;q0</title>
<path fill="none" stroke="black" d="M593.584,-1108.92C580.145,-1172.02 581.617,-1271.43 598,-1271.43 613.551,-1271.43 615.667,-1181.86 604.348,-1118.8"/>
<polygon fill="black" stroke="black" points="607.771,-1118.06 602.416,-1108.92 600.901,-1119.41 607.771,-1118.06"/>
<text text-anchor="middle" x="598" y="-1275.23" font-family="Times,serif" font-size="14.00">val_from_node</text>
</g>
<!-- q0&#45;&gt;q0 -->
<g id="edge12" class="edge"><title>q0&#45;&gt;q0</title>
<path fill="none" stroke="black" d="M593.482,-1108.89C578.135,-1178.2 579.641,-1289.43 598,-1289.43 615.499,-1289.43 617.687,-1188.38 604.565,-1118.9"/>
<polygon fill="black" stroke="black" points="607.951,-1117.99 602.518,-1108.89 601.094,-1119.39 607.951,-1117.99"/>
<text text-anchor="middle" x="598" y="-1293.23" font-family="Times,serif" font-size="14.00">gl_sort</text>
</g>
<!-- q0&#45;&gt;q0 -->
<g id="edge13" class="edge"><title>q0&#45;&gt;q0</title>
<path fill="none" stroke="green" d="M593.356,-1109.04C576.128,-1184.53 577.676,-1307.43 598,-1307.43 617.451,-1307.43 619.705,-1194.86 604.761,-1119.02"/>
<polygon fill="green" stroke="green" points="608.143,-1118.1 602.644,-1109.04 601.295,-1119.55 608.143,-1118.1"/>
<text text-anchor="middle" x="598" y="-1311.23" font-family="Times,serif" font-size="14.00">Learn_Assert</text>
</g>
<!-- q6 -->
<g id="node8" class="node"><title>q6</title>
<ellipse fill="none" stroke="green" cx="778" cy="-232.428" rx="18" ry="18"/>
<text text-anchor="middle" x="778" y="-228.728" font-family="Times,serif" font-size="14.00">D</text>
</g>
<!-- q0&#45;&gt;q6 -->
<g id="edge9" class="edge"><title>q0&#45;&gt;q6</title>
<path fill="none" stroke="green" d="M599.355,-1073.3C601.47,-969.041 613.037,-449.461 634,-423.428 658.277,-393.28 691.025,-428.188 718,-400.428 741.589,-376.154 725.194,-358.505 736,-326.428 744.084,-302.434 755.838,-276.09 764.691,-257.412"/>
<polygon fill="green" stroke="green" points="767.847,-258.925 769.021,-248.396 761.537,-255.895 767.847,-258.925"/>
<text text-anchor="middle" x="676" y="-427.228" font-family="Times,serif" font-size="14.00">gl_read</text>
</g>
<!-- q2 -->
<g id="node4" class="node"><title>q2</title>
<ellipse fill="none" stroke="green" cx="1404" cy="-2070.43" rx="18" ry="18"/>
<text text-anchor="middle" x="1404" y="-2066.73" font-family="Times,serif" font-size="14.00">D</text>
</g>
<!-- q2&#45;&gt;q1 -->
<g id="edge37" class="edge"><title>q2&#45;&gt;q1</title>
<path fill="none" stroke="green" d="M1401.6,-2088.29C1398.02,-2130.19 1387.44,-2233.37 1368,-2261.43 1345.86,-2293.38 1331.87,-2306.43 1293,-2306.43 597,-2306.43 597,-2306.43 597,-2306.43 353.846,-2306.43 251.742,-1366.43 233.904,-1180.25"/>
<polygon fill="green" stroke="green" points="237.386,-1179.9 232.959,-1170.27 230.417,-1180.56 237.386,-1179.9"/>
<text text-anchor="middle" x="982" y="-2310.23" font-family="Times,serif" font-size="14.00">Learn_Assert</text>
</g>
<!-- q2&#45;&gt;q0 -->
<g id="edge26" class="edge"><title>q2&#45;&gt;q0</title>
<path fill="none" stroke="green" d="M1401.46,-2088.51C1397.84,-2126.88 1387.59,-2214.73 1368,-2236.43 1344.54,-2262.4 1328,-2260.43 1293,-2260.43 777,-2260.43 777,-2260.43 777,-2260.43 712.556,-2260.43 676.374,-2284.98 634,-2236.43 596.153,-2193.06 598.136,-1291.53 598.861,-1119.61"/>
<polygon fill="green" stroke="green" points="602.361,-1119.59 598.905,-1109.58 595.361,-1119.56 602.361,-1119.59"/>
<text text-anchor="middle" x="1084" y="-2264.23" font-family="Times,serif" font-size="14.00">inspect</text>
</g>
<!-- q2&#45;&gt;q0 -->
<g id="edge27" class="edge"><title>q2&#45;&gt;q0</title>
<path fill="none" stroke="green" d="M1403.19,-2088.74C1402.46,-2116.23 1397.01,-2168.15 1368,-2198.43 1343.79,-2223.7 1328,-2222.43 1293,-2222.43 777,-2222.43 777,-2222.43 777,-2222.43 712.556,-2222.43 676.4,-2246.96 634,-2198.43 597.443,-2156.58 598.369,-1287.61 598.892,-1119.46"/>
<polygon fill="green" stroke="green" points="602.392,-1119.43 598.926,-1109.41 595.392,-1119.4 602.392,-1119.43"/>
<text text-anchor="middle" x="1084" y="-2226.23" font-family="Times,serif" font-size="14.00">__list_add</text>
</g>
<!-- q2&#45;&gt;q0 -->
<g id="edge28" class="edge"><title>q2&#45;&gt;q0</title>
<path fill="none" stroke="black" d="M1400.71,-2088.18C1397.18,-2108.4 1388.52,-2141.13 1368,-2160.43 1342.51,-2184.41 1328,-2184.43 1293,-2184.43 777,-2184.43 777,-2184.43 777,-2184.43 712.556,-2184.43 676.427,-2208.94 634,-2160.43 598.784,-2120.16 598.608,-1286.09 598.924,-1120.03"/>
<polygon fill="black" stroke="black" points="602.425,-1119.67 598.946,-1109.66 595.425,-1119.66 602.425,-1119.67"/>
<text text-anchor="middle" x="1084" y="-2188.23" font-family="Times,serif" font-size="14.00">__list_del</text>
</g>
<!-- q2&#45;&gt;q0 -->
<g id="edge29" class="edge"><title>q2&#45;&gt;q0</title>
<path fill="none" stroke="green" d="M1395.71,-2086.66C1389.77,-2098.17 1380.36,-2113.15 1368,-2122.43 1340.01,-2143.44 1328,-2146.43 1293,-2146.43 777,-2146.43 777,-2146.43 777,-2146.43 712.556,-2146.43 676.456,-2170.91 634,-2122.43 600.047,-2083.66 598.856,-1280.88 598.96,-1119.53"/>
<polygon fill="green" stroke="green" points="602.46,-1119.44 598.969,-1109.44 595.46,-1119.44 602.46,-1119.44"/>
<text text-anchor="middle" x="1084" y="-2150.23" font-family="Times,serif" font-size="14.00">list_add</text>
</g>
<!-- q2&#45;&gt;q0 -->
<g id="edge30" class="edge"><title>q2&#45;&gt;q0</title>
<path fill="none" stroke="black" d="M1387.91,-2079.24C1367.22,-2090.47 1328.56,-2108.43 1293,-2108.43 777,-2108.43 777,-2108.43 777,-2108.43 712.556,-2108.43 676.488,-2132.88 634,-2084.43 601.375,-2047.22 599.117,-1278.72 598.999,-1119.97"/>
<polygon fill="black" stroke="black" points="602.499,-1119.61 598.993,-1109.61 595.499,-1119.61 602.499,-1119.61"/>
<text text-anchor="middle" x="1084" y="-2112.23" font-family="Times,serif" font-size="14.00">list_move</text>
</g>
<!-- q2&#45;&gt;q0 -->
<g id="edge31" class="edge"><title>q2&#45;&gt;q0</title>
<path fill="none" stroke="black" d="M1385.85,-2070.43C1364.21,-2070.43 1325.85,-2070.43 1293,-2070.43 777,-2070.43 777,-2070.43 777,-2070.43 712.556,-2070.43 676.521,-2094.85 634,-2046.43 602.664,-2010.74 599.383,-1274.7 599.04,-1119.86"/>
<polygon fill="black" stroke="black" points="602.54,-1119.72 599.02,-1109.73 595.54,-1119.74 602.54,-1119.72"/>
<text text-anchor="middle" x="1084" y="-2074.23" font-family="Times,serif" font-size="14.00">gl_sort_pass</text>
</g>
<!-- q2&#45;&gt;q0 -->
<g id="edge32" class="edge"><title>q2&#45;&gt;q0</title>
<path fill="none" stroke="green" d="M1387.91,-2061.61C1367.22,-2050.39 1328.56,-2032.43 1293,-2032.43 777,-2032.43 777,-2032.43 777,-2032.43 712.556,-2032.43 676.558,-2056.82 634,-2008.43 603.945,-1974.25 599.658,-1270.33 599.084,-1119.66"/>
<polygon fill="green" stroke="green" points="602.584,-1119.39 599.048,-1109.4 595.584,-1119.42 602.584,-1119.39"/>
<text text-anchor="middle" x="1084" y="-2036.23" font-family="Times,serif" font-size="14.00">gl_insert</text>
</g>
<!-- q2&#45;&gt;q0 -->
<g id="edge33" class="edge"><title>q2&#45;&gt;q0</title>
<path fill="none" stroke="green" d="M1392.51,-2056.49C1374.68,-2034.55 1336.17,-1994.43 1293,-1994.43 777,-1994.43 777,-1994.43 777,-1994.43 712.556,-1994.43 676.598,-2018.79 634,-1970.43 605.252,-1937.79 599.952,-1267.14 599.134,-1119.86"/>
<polygon fill="green" stroke="green" points="602.632,-1119.42 599.079,-1109.44 595.632,-1119.45 602.632,-1119.42"/>
<text text-anchor="middle" x="1084" y="-1998.23" font-family="Times,serif" font-size="14.00">gl_read</text>
</g>
<!-- q2&#45;&gt;q0 -->
<g id="edge34" class="edge"><title>q2&#45;&gt;q0</title>
<path fill="none" stroke="black" d="M1397.77,-2053.24C1392.34,-2037.71 1382.58,-2014.95 1368,-1999.43 1341.69,-1971.42 1331.42,-1956.43 1293,-1956.43 777,-1956.43 777,-1956.43 777,-1956.43 712.556,-1956.43 676.641,-1980.75 634,-1932.43 606.524,-1901.29 600.246,-1262.29 599.185,-1119.54"/>
<polygon fill="black" stroke="black" points="602.684,-1119.39 599.112,-1109.42 595.684,-1119.44 602.684,-1119.39"/>
<text text-anchor="middle" x="1084" y="-1960.23" font-family="Times,serif" font-size="14.00">gl_destroy</text>
</g>
<!-- q2&#45;&gt;q0 -->
<g id="edge35" class="edge"><title>q2&#45;&gt;q0</title>
<path fill="none" stroke="black" d="M1401.45,-2052.33C1398.56,-2028.59 1390.45,-1986.75 1368,-1959.43 1343.88,-1930.08 1330.99,-1918.43 1293,-1918.43 777,-1918.43 777,-1918.43 777,-1918.43 712.556,-1918.43 676.689,-1942.71 634,-1894.43 607.845,-1864.85 600.579,-1259.71 599.247,-1120.02"/>
<polygon fill="black" stroke="black" points="602.744,-1119.68 599.152,-1109.72 595.744,-1119.75 602.744,-1119.68"/>
<text text-anchor="middle" x="1084" y="-1922.23" font-family="Times,serif" font-size="14.00">val_from_node</text>
</g>
<!-- q2&#45;&gt;q0 -->
<g id="edge36" class="edge"><title>q2&#45;&gt;q0</title>
<path fill="none" stroke="black" d="M1403.46,-2052.1C1403.3,-2021.44 1398.83,-1959.2 1368,-1919.43 1344.98,-1889.74 1330.57,-1880.43 1293,-1880.43 777,-1880.43 777,-1880.43 777,-1880.43 710.1,-1880.43 674.497,-1886.68 634,-1833.43 612.027,-1804.54 601.63,-1252.43 599.445,-1119.86"/>
<polygon fill="black" stroke="black" points="602.942,-1119.64 599.28,-1109.7 595.942,-1119.75 602.942,-1119.64"/>
<text text-anchor="middle" x="1084" y="-1884.23" font-family="Times,serif" font-size="14.00">gl_sort</text>
</g>
<!-- q3 -->
<g id="node5" class="node"><title>q3</title>
<ellipse fill="none" stroke="green" cx="1292" cy="-1582.43" rx="18" ry="18"/>
<text text-anchor="middle" x="1292" y="-1578.73" font-family="Times,serif" font-size="14.00">D</text>
</g>
<!-- q3&#45;&gt;q0 -->
<g id="edge39" class="edge"><title>q3&#45;&gt;q0</title>
<path fill="none" stroke="green" d="M1290.34,-1600.6C1288.31,-1647.23 1280.69,-1769.62 1256,-1800.43 1228.18,-1835.14 1207.48,-1837.43 1163,-1837.43 777,-1837.43 777,-1837.43 777,-1837.43 711.351,-1837.43 675.456,-1851.33 634,-1800.43 612.165,-1773.62 601.713,-1248.77 599.469,-1119.84"/>
<polygon fill="green" stroke="green" points="602.964,-1119.54 599.293,-1109.6 595.965,-1119.66 602.964,-1119.54"/>
<text text-anchor="middle" x="982" y="-1841.23" font-family="Times,serif" font-size="14.00">__list_add</text>
</g>
<!-- q3&#45;&gt;q0 -->
<g id="edge40" class="edge"><title>q3&#45;&gt;q0</title>
<path fill="none" stroke="black" d="M1289.36,-1600.51C1285.55,-1638.92 1274.93,-1726.93 1256,-1749.43 1227.36,-1783.47 1207.48,-1786.43 1163,-1786.43 777,-1786.43 777,-1786.43 777,-1786.43 711.351,-1786.43 675.553,-1800.25 634,-1749.43 613.792,-1724.71 602.211,-1242.64 599.579,-1119.75"/>
<polygon fill="black" stroke="black" points="603.076,-1119.55 599.366,-1109.62 596.078,-1119.7 603.076,-1119.55"/>
<text text-anchor="middle" x="982" y="-1790.23" font-family="Times,serif" font-size="14.00">__list_del</text>
</g>
<!-- q3&#45;&gt;q0 -->
<g id="edge41" class="edge"><title>q3&#45;&gt;q0</title>
<path fill="none" stroke="green" d="M1290.28,-1600.49C1288.35,-1625.54 1281.32,-1670.84 1256,-1698.43 1225.92,-1731.2 1207.48,-1735.43 1163,-1735.43 777,-1735.43 777,-1735.43 777,-1735.43 711.351,-1735.43 675.666,-1749.16 634,-1698.43 596.965,-1653.34 597.796,-1233.29 598.71,-1119.66"/>
<polygon fill="green" stroke="green" points="602.209,-1119.67 598.797,-1109.64 595.21,-1119.61 602.209,-1119.67"/>
<text text-anchor="middle" x="982" y="-1739.23" font-family="Times,serif" font-size="14.00">list_add</text>
</g>
<!-- q3&#45;&gt;q0 -->
<g id="edge42" class="edge"><title>q3&#45;&gt;q0</title>
<path fill="none" stroke="black" d="M1285.57,-1599.48C1280.16,-1613.98 1270.55,-1634.47 1256,-1647.43 1222.78,-1677.02 1207.48,-1684.43 1163,-1684.43 777,-1684.43 777,-1684.43 777,-1684.43 711.351,-1684.43 675.8,-1698.05 634,-1647.43 600.212,-1606.51 598.633,-1227.13 598.871,-1119.67"/>
<polygon fill="black" stroke="black" points="602.371,-1119.6 598.9,-1109.59 595.371,-1119.58 602.371,-1119.6"/>
<text text-anchor="middle" x="982" y="-1688.23" font-family="Times,serif" font-size="14.00">list_move</text>
</g>
<!-- q3&#45;&gt;q0 -->
<g id="edge43" class="edge"><title>q3&#45;&gt;q0</title>
<path fill="none" stroke="black" d="M1276.77,-1592.26C1253.88,-1607.08 1207.01,-1633.43 1163,-1633.43 777,-1633.43 777,-1633.43 777,-1633.43 711.351,-1633.43 675.96,-1646.92 634,-1596.43 603.447,-1559.66 599.546,-1220.62 599.064,-1119.66"/>
<polygon fill="black" stroke="black" points="602.564,-1119.59 599.024,-1109.6 595.564,-1119.62 602.564,-1119.59"/>
<text text-anchor="middle" x="982" y="-1637.23" font-family="Times,serif" font-size="14.00">gl_sort_pass</text>
</g>
<!-- q3&#45;&gt;q0 -->
<g id="edge44" class="edge"><title>q3&#45;&gt;q0</title>
<path fill="none" stroke="green" d="M1273.61,-1582.43C1248.99,-1582.43 1202.56,-1582.43 1163,-1582.43 777,-1582.43 777,-1582.43 777,-1582.43 711.351,-1582.43 676.155,-1595.75 634,-1545.43 606.686,-1512.82 600.56,-1214.14 599.302,-1119.83"/>
<polygon fill="green" stroke="green" points="602.799,-1119.57 599.175,-1109.61 595.8,-1119.66 602.799,-1119.57"/>
<text text-anchor="middle" x="982" y="-1586.23" font-family="Times,serif" font-size="14.00">gl_insert</text>
</g>
<!-- q3&#45;&gt;q0 -->
<g id="edge45" class="edge"><title>q3&#45;&gt;q0</title>
<path fill="none" stroke="green" d="M1276.77,-1572.6C1253.88,-1557.78 1207.01,-1531.43 1163,-1531.43 777,-1531.43 777,-1531.43 777,-1531.43 711.351,-1531.43 676.398,-1544.55 634,-1494.43 609.887,-1465.92 601.683,-1206.69 599.597,-1119.72"/>
<polygon fill="green" stroke="green" points="603.091,-1119.46 599.362,-1109.54 596.093,-1119.62 603.091,-1119.46"/>
<text text-anchor="middle" x="982" y="-1535.23" font-family="Times,serif" font-size="14.00">gl_read</text>
</g>
<!-- q3&#45;&gt;q0 -->
<g id="edge46" class="edge"><title>q3&#45;&gt;q0</title>
<path fill="none" stroke="black" d="M1282.46,-1566.6C1276.17,-1556 1266.85,-1542.23 1256,-1532.43 1220.87,-1500.67 1210.36,-1480.43 1163,-1480.43 777,-1480.43 777,-1480.43 777,-1480.43 711.351,-1480.43 676.71,-1493.28 634,-1443.43 613.108,-1419.04 602.991,-1199.53 599.988,-1120.02"/>
<polygon fill="black" stroke="black" points="603.476,-1119.63 599.611,-1109.76 596.481,-1119.88 603.476,-1119.63"/>
<text text-anchor="middle" x="982" y="-1484.23" font-family="Times,serif" font-size="14.00">gl_destroy</text>
</g>
<!-- q3&#45;&gt;q0 -->
<g id="edge47" class="edge"><title>q3&#45;&gt;q0</title>
<path fill="none" stroke="black" d="M1288.73,-1564.46C1285.15,-1542.65 1276.38,-1505.76 1256,-1481.43 1225.59,-1445.13 1210.36,-1429.43 1163,-1429.43 777,-1429.43 777,-1429.43 777,-1429.43 711.351,-1429.43 677.124,-1441.93 634,-1392.43 598.973,-1352.22 597.472,-1186.95 598.365,-1119.9"/>
<polygon fill="black" stroke="black" points="601.869,-1119.7 598.531,-1109.65 594.87,-1119.59 601.869,-1119.7"/>
<text text-anchor="middle" x="982" y="-1433.23" font-family="Times,serif" font-size="14.00">val_from_node</text>
</g>
<!-- q3&#45;&gt;q0 -->
<g id="edge48" class="edge"><title>q3&#45;&gt;q0</title>
<path fill="none" stroke="black" d="M1291.44,-1564.43C1291.28,-1533.66 1286.88,-1470.3 1256,-1429.43 1227.58,-1391.82 1210.14,-1378.43 1163,-1378.43 777,-1378.43 777,-1378.43 777,-1378.43 711.351,-1378.43 677.698,-1390.42 634,-1341.43 605.224,-1309.17 600.014,-1178.16 599.138,-1119.76"/>
<polygon fill="black" stroke="black" points="602.633,-1119.38 599.017,-1109.42 595.634,-1119.46 602.633,-1119.38"/>
<text text-anchor="middle" x="982" y="-1382.23" font-family="Times,serif" font-size="14.00">gl_sort</text>
</g>
<!-- q3&#45;&gt;q0 -->
<g id="edge49" class="edge"><title>q3&#45;&gt;q0</title>
<path fill="none" stroke="green" d="M1289.94,-1564.52C1287,-1520.3 1277.55,-1407.4 1256,-1377.43 1228.61,-1339.32 1209.93,-1327.43 1163,-1327.43 777,-1327.43 777,-1327.43 777,-1327.43 710.504,-1327.43 678.161,-1333.14 634,-1283.43 612.811,-1259.57 603.856,-1166.91 600.602,-1119.58"/>
<polygon fill="green" stroke="green" points="604.082,-1119.16 599.943,-1109.4 597.097,-1119.61 604.082,-1119.16"/>
<text text-anchor="middle" x="982" y="-1331.23" font-family="Times,serif" font-size="14.00">Learn_Assert</text>
</g>
<!-- q3&#45;&gt;q2 -->
<g id="edge38" class="edge"><title>q3&#45;&gt;q2</title>
<path fill="none" stroke="green" d="M1298.41,-1599.26C1311.79,-1641.36 1346.88,-1754.81 1368,-1851.43 1382.9,-1919.6 1394.24,-2001 1399.6,-2042.74"/>
<polygon fill="green" stroke="green" points="1396.13,-2043.22 1400.86,-2052.7 1403.08,-2042.34 1396.13,-2043.22"/>
<text text-anchor="middle" x="1348" y="-1855.23" font-family="Times,serif" font-size="14.00">inspect</text>
</g>
<!-- q4 -->
<g id="node6" class="node"><title>q4</title>
<ellipse fill="none" stroke="green" cx="1162" cy="-1091.43" rx="18" ry="18"/>
<text text-anchor="middle" x="1162" y="-1087.73" font-family="Times,serif" font-size="14.00">D</text>
</g>
<!-- q4&#45;&gt;q0 -->
<g id="edge50" class="edge"><title>q4&#45;&gt;q0</title>
<path fill="none" stroke="green" d="M1159.96,-1109.4C1157.29,-1148.4 1148.73,-1238.81 1126,-1257.43 1026.99,-1338.55 966.002,-1260.06 838,-1259.43 747.33,-1258.98 704.137,-1314.89 634,-1257.43 613.05,-1240.26 604.137,-1162.09 600.779,-1119.42"/>
<polygon fill="green" stroke="green" points="604.266,-1119.11 600.041,-1109.4 597.285,-1119.63 604.266,-1119.11"/>
<text text-anchor="middle" x="880" y="-1274.23" font-family="Times,serif" font-size="14.00">inspect</text>
</g>
<!-- q4&#45;&gt;q0 -->
<g id="edge52" class="edge"><title>q4&#45;&gt;q0</title>
<path fill="none" stroke="black" d="M1158.78,-1109.15C1154.39,-1141.02 1143.47,-1205.96 1126,-1219.43 1054.2,-1274.79 1012.67,-1220.98 922,-1221.43 793.998,-1222.06 735.369,-1297.59 634,-1219.43 618.237,-1207.27 607.807,-1153.21 602.693,-1119.35"/>
<polygon fill="black" stroke="black" points="606.113,-1118.54 601.219,-1109.15 599.184,-1119.54 606.113,-1118.54"/>
<text text-anchor="middle" x="880" y="-1235.23" font-family="Times,serif" font-size="14.00">__list_del</text>
</g>
<!-- q4&#45;&gt;q0 -->
<g id="edge53" class="edge"><title>q4&#45;&gt;q0</title>
<path fill="none" stroke="green" d="M1159.74,-1109.59C1157.19,-1130.85 1149.44,-1165.22 1126,-1181.43 1051.42,-1232.99 1012.67,-1182.98 922,-1183.43 793.998,-1184.06 739.293,-1254.22 634,-1181.43 613.944,-1167.56 605.38,-1140.41 601.723,-1119.53"/>
<polygon fill="green" stroke="green" points="605.178,-1118.97 600.259,-1109.59 598.253,-1119.99 605.178,-1118.97"/>
<text text-anchor="middle" x="880" y="-1196.23" font-family="Times,serif" font-size="14.00">list_add</text>
</g>
<!-- q4&#45;&gt;q0 -->
<g id="edge54" class="edge"><title>q4&#45;&gt;q0</title>
<path fill="none" stroke="black" d="M1154.8,-1108.06C1149.28,-1120.26 1139.89,-1135.95 1126,-1143.43 1046.17,-1186.43 1012.67,-1144.98 922,-1145.43 793.998,-1146.06 746.694,-1204.13 634,-1143.43 623.364,-1137.7 615.371,-1127.16 609.728,-1117.06"/>
<polygon fill="black" stroke="black" points="612.82,-1115.42 605.199,-1108.06 606.567,-1118.56 612.82,-1115.42"/>
<text text-anchor="middle" x="880" y="-1157.23" font-family="Times,serif" font-size="14.00">list_move</text>
</g>
<!-- q4&#45;&gt;q0 -->
<g id="edge55" class="edge"><title>q4&#45;&gt;q0</title>
<path fill="none" stroke="black" d="M1145.35,-1099.13C1139.44,-1101.65 1132.55,-1104.13 1126,-1105.43 1018.74,-1126.63 741.258,-1126.63 634,-1105.43 630.726,-1104.78 627.367,-1103.84 624.087,-1102.74"/>
<polygon fill="black" stroke="black" points="625.24,-1099.43 614.649,-1099.13 622.738,-1105.97 625.24,-1099.43"/>
<text text-anchor="middle" x="880" y="-1124.23" font-family="Times,serif" font-size="14.00">gl_sort_pass</text>
</g>
<!-- q4&#45;&gt;q0 -->
<g id="edge56" class="edge"><title>q4&#45;&gt;q0</title>
<path fill="none" stroke="green" d="M1143.73,-1091.43C1063.28,-1091.43 725,-1091.43 626.202,-1091.43"/>
<polygon fill="green" stroke="green" points="626.126,-1087.93 616.126,-1091.43 626.126,-1094.93 626.126,-1087.93"/>
<text text-anchor="middle" x="880" y="-1095.23" font-family="Times,serif" font-size="14.00">gl_insert</text>
</g>
<!-- q4&#45;&gt;q0 -->
<g id="edge57" class="edge"><title>q4&#45;&gt;q0</title>
<path fill="none" stroke="green" d="M1143.92,-1089.34C1138.23,-1088.68 1131.85,-1087.98 1126,-1087.43 998.387,-1075.45 966.087,-1067.73 838,-1072.43 747.15,-1075.76 724.514,-1078.93 634,-1087.43 631.443,-1087.67 628.782,-1087.94 626.122,-1088.22"/>
<polygon fill="green" stroke="green" points="625.627,-1084.75 616.075,-1089.34 626.401,-1091.71 625.627,-1084.75"/>
<text text-anchor="middle" x="880" y="-1076.23" font-family="Times,serif" font-size="14.00">gl_read</text>
</g>
<!-- q4&#45;&gt;q0 -->
<g id="edge58" class="edge"><title>q4&#45;&gt;q0</title>
<path fill="none" stroke="black" d="M1146.12,-1082.81C1140.06,-1079.68 1132.88,-1076.42 1126,-1074.43 1002.67,-1038.67 966.187,-1043.91 838,-1051.43 746.864,-1056.77 721.912,-1050.82 634,-1075.43 630.55,-1076.39 627.009,-1077.66 623.568,-1079.05"/>
<polygon fill="black" stroke="black" points="621.997,-1075.92 614.287,-1083.19 624.846,-1082.31 621.997,-1075.92"/>
<text text-anchor="middle" x="880" y="-1055.23" font-family="Times,serif" font-size="14.00">gl_destroy</text>
</g>
<!-- q4&#45;&gt;q0 -->
<g id="edge59" class="edge"><title>q4&#45;&gt;q0</title>
<path fill="none" stroke="black" d="M1152.37,-1076C1146.28,-1066.66 1137.21,-1055.43 1126,-1049.43 1012.84,-988.815 966.115,-1019.3 838,-1027.43 746.783,-1033.22 715.214,-1011.5 634,-1053.43 626.877,-1057.11 620.462,-1062.85 615.128,-1068.76"/>
<polygon fill="black" stroke="black" points="612.202,-1066.81 608.56,-1076.76 617.612,-1071.25 612.202,-1066.81"/>
<text text-anchor="middle" x="880" y="-1031.23" font-family="Times,serif" font-size="14.00">val_from_node</text>
</g>
<!-- q4&#45;&gt;q0 -->
<g id="edge60" class="edge"><title>q4&#45;&gt;q0</title>
<path fill="none" stroke="black" d="M1158.51,-1073.6C1154.87,-1054.96 1146.18,-1026.5 1126,-1012.43 1020.88,-939.164 965.911,-991.93 838,-999.428 746.864,-1004.77 709.021,-971.409 634,-1023.43 620.081,-1033.08 611.344,-1050 606.079,-1064.54"/>
<polygon fill="black" stroke="black" points="602.731,-1063.52 602.969,-1074.11 609.388,-1065.69 602.731,-1063.52"/>
<text text-anchor="middle" x="880" y="-1003.23" font-family="Times,serif" font-size="14.00">gl_sort</text>
</g>
<!-- q4&#45;&gt;q0 -->
<g id="edge61" class="edge"><title>q4&#45;&gt;q0</title>
<path fill="none" stroke="green" d="M1161.78,-1073.16C1161.82,-1045.96 1157.36,-995.435 1126,-971.428 1024.35,-893.624 965.839,-961.866 838,-968.428 746.974,-973.101 705.362,-932.727 634,-989.428 611.755,-1007.1 603.584,-1039.67 600.619,-1063.26"/>
<polygon fill="green" stroke="green" points="597.119,-1063.07 599.59,-1073.38 604.083,-1063.78 597.119,-1063.07"/>
<text text-anchor="middle" x="880" y="-972.228" font-family="Times,serif" font-size="14.00">Learn_Assert</text>
</g>
<!-- q4&#45;&gt;q3 -->
<g id="edge51" class="edge"><title>q4&#45;&gt;q3</title>
<path fill="none" stroke="green" d="M1171.78,-1106.67C1190.63,-1140.14 1234.96,-1223.11 1256,-1298.43 1281.52,-1389.78 1288.44,-1502.83 1290.31,-1554.41"/>
<polygon fill="green" stroke="green" points="1286.82,-1554.57 1290.64,-1564.45 1293.81,-1554.34 1286.82,-1554.57"/>
<text text-anchor="middle" x="1227" y="-1302.23" font-family="Times,serif" font-size="14.00">__list_add</text>
</g>
<!-- q5 -->
<g id="node7" class="node"><title>q5</title>
<ellipse fill="none" stroke="green" cx="982" cy="-603.428" rx="18" ry="18"/>
<text text-anchor="middle" x="982" y="-599.728" font-family="Times,serif" font-size="14.00">D</text>
</g>
<!-- q5&#45;&gt;q0 -->
<g id="edge62" class="edge"><title>q5&#45;&gt;q0</title>
<path fill="none" stroke="green" d="M981.866,-621.727C982.78,-663.565 978.804,-766.8 922,-821.428 827.35,-912.454 724.25,-792.038 634,-887.428 610.474,-912.294 602.58,-1013.14 600.081,-1063.1"/>
<polygon fill="green" stroke="green" points="596.578,-1063.07 599.614,-1073.22 603.571,-1063.39 596.578,-1063.07"/>
<text text-anchor="middle" x="778" y="-862.228" font-family="Times,serif" font-size="14.00">inspect</text>
</g>
<!-- q5&#45;&gt;q0 -->
<g id="edge63" class="edge"><title>q5&#45;&gt;q0</title>
<path fill="none" stroke="green" d="M979.98,-621.498C977.046,-655.75 965.706,-730.282 922,-770.428 824.589,-859.906 722.076,-746.749 634,-845.428 605.732,-877.099 600.242,-1005.48 599.214,-1063.14"/>
<polygon fill="green" stroke="green" points="595.712,-1063.31 599.067,-1073.36 602.711,-1063.42 595.712,-1063.31"/>
<text text-anchor="middle" x="778" y="-812.228" font-family="Times,serif" font-size="14.00">__list_add</text>
</g>
<!-- q5&#45;&gt;q0 -->
<g id="edge64" class="edge"><title>q5&#45;&gt;q0</title>
<path fill="none" stroke="black" d="M976.926,-620.796C970.041,-646.269 953.654,-693.536 922,-719.428 819.173,-803.54 720.551,-698.646 634,-799.428 600.432,-838.516 598.039,-997.461 598.529,-1062.98"/>
<polygon fill="black" stroke="black" points="595.033,-1063.41 598.638,-1073.38 602.033,-1063.34 595.033,-1063.41"/>
<text text-anchor="middle" x="778" y="-759.228" font-family="Times,serif" font-size="14.00">__list_del</text>
</g>
<!-- q5&#45;&gt;q0 -->
<g id="edge66" class="edge"><title>q5&#45;&gt;q0</title>
<path fill="none" stroke="black" d="M971.268,-618.292C960.808,-633.114 942.847,-655.487 922,-668.428 808.929,-738.622 719.518,-648.453 634,-750.428 614.049,-774.218 603.367,-985.82 600.1,-1063.23"/>
<polygon fill="black" stroke="black" points="596.603,-1063.09 599.688,-1073.22 603.597,-1063.38 596.603,-1063.09"/>
<text text-anchor="middle" x="778" y="-702.228" font-family="Times,serif" font-size="14.00">list_move</text>
</g>
<!-- q5&#45;&gt;q0 -->
<g id="edge67" class="edge"><title>q5&#45;&gt;q0</title>
<path fill="none" stroke="black" d="M964.397,-607.368C896.766,-623.487 645.099,-684.183 634,-697.428 610.603,-725.352 601.946,-977.692 599.668,-1063.22"/>
<polygon fill="black" stroke="black" points="596.163,-1063.39 599.405,-1073.48 603.161,-1063.57 596.163,-1063.39"/>
<text text-anchor="middle" x="778" y="-668.228" font-family="Times,serif" font-size="14.00">gl_sort_pass</text>
</g>
<!-- q5&#45;&gt;q0 -->
<g id="edge68" class="edge"><title>q5&#45;&gt;q0</title>
<path fill="none" stroke="green" d="M964.353,-599.822C906.318,-588.345 712.222,-559.41 634,-666.428 610.646,-698.38 601.887,-973.473 599.635,-1063.23"/>
<polygon fill="green" stroke="green" points="596.13,-1063.38 599.387,-1073.47 603.128,-1063.55 596.13,-1063.38"/>
<text text-anchor="middle" x="778" y="-604.228" font-family="Times,serif" font-size="14.00">gl_insert</text>
</g>
<!-- q5&#45;&gt;q0 -->
<g id="edge69" class="edge"><title>q5&#45;&gt;q0</title>
<path fill="none" stroke="green" d="M965.239,-596.444C908.516,-572.476 713.921,-500.596 634,-604.428 605.968,-640.848 600.312,-965.063 599.238,-1063.33"/>
<polygon fill="green" stroke="green" points="595.738,-1063.36 599.136,-1073.4 602.738,-1063.43 595.738,-1063.36"/>
<text text-anchor="middle" x="778" y="-558.228" font-family="Times,serif" font-size="14.00">gl_read</text>
</g>
<!-- q5&#45;&gt;q0 -->
<g id="edge70" class="edge"><title>q5&#45;&gt;q0</title>
<path fill="none" stroke="black" d="M969.126,-590.603C958.011,-579.377 940.397,-563.484 922,-554.428 864.577,-526.162 676.249,-503.35 634,-551.428 600.085,-590.023 598.575,-956.972 598.853,-1062.92"/>
<polygon fill="black" stroke="black" points="595.354,-1063.17 598.888,-1073.16 602.354,-1063.15 595.354,-1063.17"/>
<text text-anchor="middle" x="778" y="-533.228" font-family="Times,serif" font-size="14.00">gl_destroy</text>
</g>
<!-- q5&#45;&gt;q0 -->
<g id="edge71" class="edge"><title>q5&#45;&gt;q0</title>
<path fill="none" stroke="black" d="M972.874,-587.58C963.16,-570.284 945.256,-543.107 922,-528.428 867.862,-494.259 677.085,-474.078 634,-521.428 597.31,-561.751 597.83,-953.54 598.704,-1063.1"/>
<polygon fill="black" stroke="black" points="595.206,-1063.39 598.794,-1073.36 602.206,-1063.33 595.206,-1063.39"/>
<text text-anchor="middle" x="778" y="-503.228" font-family="Times,serif" font-size="14.00">val_from_node</text>
</g>
<!-- q5&#45;&gt;q0 -->
<g id="edge72" class="edge"><title>q5&#45;&gt;q0</title>
<path fill="none" stroke="black" d="M976.218,-586.319C968.712,-562.742 951.847,-520.665 922,-498.428 870.663,-460.18 677.013,-444.012 634,-491.428 595.285,-534.107 597.323,-949.859 598.61,-1063.08"/>
<polygon fill="black" stroke="black" points="595.113,-1063.4 598.734,-1073.36 602.113,-1063.32 595.113,-1063.4"/>
<text text-anchor="middle" x="778" y="-471.228" font-family="Times,serif" font-size="14.00">gl_sort</text>
</g>
<!-- q5&#45;&gt;q0 -->
<g id="edge73" class="edge"><title>q5&#45;&gt;q0</title>
<path fill="none" stroke="green" d="M978.572,-585.678C973.566,-556.206 959.257,-497.364 922,-466.428 857.915,-413.217 818.785,-434.211 736,-443.428 689.814,-448.571 664.026,-430.959 634,-466.428 595.099,-512.381 597.32,-947.101 598.619,-1063.1"/>
<polygon fill="green" stroke="green" points="595.122,-1063.35 598.74,-1073.3 602.121,-1063.26 595.122,-1063.35"/>
<text text-anchor="middle" x="778" y="-447.228" font-family="Times,serif" font-size="14.00">Learn_Assert</text>
</g>
<!-- q5&#45;&gt;q4 -->
<g id="edge65" class="edge"><title>q5&#45;&gt;q4</title>
<path fill="none" stroke="green" d="M992.886,-617.812C1019.18,-656.813 1091.19,-768.626 1126,-872.428 1148.18,-938.585 1156.5,-1020.82 1159.46,-1063.22"/>
<polygon fill="green" stroke="green" points="1155.98,-1063.6 1160.12,-1073.35 1162.97,-1063.15 1155.98,-1063.6"/>
<text text-anchor="middle" x="1084" y="-876.228" font-family="Times,serif" font-size="14.00">list_add</text>
</g>
<!-- q6&#45;&gt;q0 -->
<g id="edge74" class="edge"><title>q6&#45;&gt;q0</title>
<path fill="none" stroke="green" d="M769.883,-248.603C754.716,-283.007 720.39,-360.481 718,-362.428 688.324,-386.603 658.623,-352.123 634,-381.428 611.725,-407.939 601.604,-933.78 599.449,-1062.96"/>
<polygon fill="green" stroke="green" points="595.945,-1063.16 599.28,-1073.22 602.944,-1063.28 595.945,-1063.16"/>
<text text-anchor="middle" x="676" y="-385.228" font-family="Times,serif" font-size="14.00">inspect</text>
</g>
<!-- q6&#45;&gt;q0 -->
<g id="edge75" class="edge"><title>q6&#45;&gt;q0</title>
<path fill="none" stroke="green" d="M770.892,-249.227C762.372,-270.194 744.877,-305.583 718,-324.428 686.66,-346.403 658.587,-314.093 634,-343.428 610.471,-371.503 601.241,-930.073 599.372,-1063.15"/>
<polygon fill="green" stroke="green" points="595.87,-1063.29 599.231,-1073.34 602.869,-1063.39 595.87,-1063.29"/>
<text text-anchor="middle" x="676" y="-347.228" font-family="Times,serif" font-size="14.00">__list_add</text>
</g>
<!-- q6&#45;&gt;q0 -->
<g id="edge76" class="edge"><title>q6&#45;&gt;q0</title>
<path fill="none" stroke="black" d="M765.812,-246.115C754.905,-258.534 737.196,-276.391 718,-286.428 684.081,-304.165 658.554,-276.065 634,-305.428 609.233,-335.047 600.912,-925.601 599.307,-1063.03"/>
<polygon fill="black" stroke="black" points="595.805,-1063.13 599.191,-1073.17 602.805,-1063.21 595.805,-1063.13"/>
<text text-anchor="middle" x="676" y="-309.228" font-family="Times,serif" font-size="14.00">__list_del</text>
</g>
<!-- q6&#45;&gt;q0 -->
<g id="edge77" class="edge"><title>q6&#45;&gt;q0</title>
<path fill="none" stroke="green" d="M760.518,-237.099C748.713,-240.395 732.419,-244.844 718,-248.428 680.854,-257.662 658.523,-238.04 634,-267.428 607.986,-298.603 600.592,-921.594 599.246,-1063.03"/>
<polygon fill="green" stroke="green" points="595.743,-1063.41 599.15,-1073.45 602.742,-1063.48 595.743,-1063.41"/>
<text text-anchor="middle" x="676" y="-271.228" font-family="Times,serif" font-size="14.00">list_add</text>
</g>
<!-- q6&#45;&gt;q0 -->
<g id="edge78" class="edge"><title>q6&#45;&gt;q0</title>
<path fill="none" stroke="black" d="M761.104,-225.768C731.632,-214.605 668.39,-196.406 634,-229.428 603.268,-258.938 599.516,-917.163 599.062,-1062.99"/>
<polygon fill="black" stroke="black" points="595.561,-1063.31 599.033,-1073.32 602.561,-1063.33 595.561,-1063.31"/>
<text text-anchor="middle" x="676" y="-233.228" font-family="Times,serif" font-size="14.00">list_move</text>
</g>
<!-- q6&#45;&gt;q0 -->
<g id="edge79" class="edge"><title>q6&#45;&gt;q0</title>
<path fill="none" stroke="black" d="M764.158,-220.336C752.951,-210.673 735.745,-197.877 718,-192.428 682.311,-181.471 660.907,-166.548 634,-192.428 601.876,-223.326 599.213,-914.013 599.012,-1063.19"/>
<polygon fill="black" stroke="black" points="595.512,-1063.35 599.001,-1073.35 602.512,-1063.36 595.512,-1063.35"/>
<text text-anchor="middle" x="676" y="-196.228" font-family="Times,serif" font-size="14.00">gl_sort_pass</text>
</g>
<!-- q6&#45;&gt;q0 -->
<g id="edge81" class="edge"><title>q6&#45;&gt;q0</title>
<path fill="none" stroke="green" d="M769.469,-216.346C760.182,-198.648 742.557,-171.156 718,-159.428 684.311,-143.34 660.889,-133.53 634,-159.428 600.685,-191.516 598.959,-909.036 598.972,-1062.65"/>
<polygon fill="green" stroke="green" points="595.472,-1063.1 598.976,-1073.1 602.472,-1063.1 595.472,-1063.1"/>
<text text-anchor="middle" x="676" y="-163.228" font-family="Times,serif" font-size="14.00">gl_read</text>
</g>
<!-- q6&#45;&gt;q0 -->
<g id="edge82" class="edge"><title>q6&#45;&gt;q0</title>
<path fill="none" stroke="black" d="M773.181,-214.87C766.69,-189.856 750.879,-144.845 718,-125.428 685.854,-106.444 660.872,-99.512 634,-125.428 599.385,-158.812 598.698,-907.061 598.933,-1063.08"/>
<polygon fill="black" stroke="black" points="595.433,-1063.28 598.951,-1073.27 602.433,-1063.27 595.433,-1063.28"/>
<text text-anchor="middle" x="676" y="-129.228" font-family="Times,serif" font-size="14.00">gl_destroy</text>
</g>
<!-- q6&#45;&gt;q0 -->
<g id="edge83" class="edge"><title>q6&#45;&gt;q0</title>
<path fill="none" stroke="black" d="M775.615,-214.095C772.126,-182.488 759.968,-118.437 718,-90.4284 686.947,-69.704 660.856,-64.495 634,-90.4284 598.116,-125.079 598.442,-902.037 598.894,-1062.57"/>
<polygon fill="black" stroke="black" points="595.395,-1063.05 598.926,-1073.04 602.395,-1063.03 595.395,-1063.05"/>
<text text-anchor="middle" x="676" y="-94.2284" font-family="Times,serif" font-size="14.00">val_from_node</text>
</g>
<!-- q6&#45;&gt;q0 -->
<g id="edge84" class="edge"><title>q6&#45;&gt;q0</title>
<path fill="none" stroke="black" d="M777.329,-214.405C776.906,-177.142 769.998,-91.9729 718,-54.4284 687.732,-32.5736 660.84,-28.4788 634,-54.4284 596.733,-90.459 598.188,-900.276 598.859,-1063.07"/>
<polygon fill="black" stroke="black" points="595.36,-1063.27 598.904,-1073.25 602.36,-1063.24 595.36,-1063.27"/>
<text text-anchor="middle" x="676" y="-58.2284" font-family="Times,serif" font-size="14.00">gl_sort</text>
</g>
<!-- q6&#45;&gt;q0 -->
<g id="edge85" class="edge"><title>q6&#45;&gt;q0</title>
<path fill="none" stroke="green" d="M774.831,-214.565C768.723,-167.598 749.733,-42.5961 718,-18.4284 688.3,4.1917 660.826,7.53642 634,-18.4284 595.421,-55.7698 597.937,-895.424 598.824,-1062.62"/>
<polygon fill="green" stroke="green" points="595.326,-1063.09 598.882,-1073.07 602.326,-1063.05 595.326,-1063.09"/>
<text text-anchor="middle" x="676" y="-22.2284" font-family="Times,serif" font-size="14.00">Learn_Assert</text>
</g>
<!-- q6&#45;&gt;q5 -->
<g id="edge80" class="edge"><title>q6&#45;&gt;q5</title>
<path fill="none" stroke="green" d="M795.312,-237.475C825.477,-247.697 889.83,-273.841 922,-319.428 951.163,-360.754 970.886,-512.091 978.028,-575.346"/>
<polygon fill="green" stroke="green" points="974.562,-575.847 979.141,-585.402 981.52,-575.077 974.562,-575.847"/>
<text text-anchor="middle" x="880" y="-323.228" font-family="Times,serif" font-size="14.00">gl_insert</text>
</g>
<!-- iq0 -->
<g id="node9" class="node"><title>iq0</title>
</g>
<!-- iq0&#45;&gt;q0 -->
<g id="edge1" class="edge"><title>iq0&#45;&gt;q0</title>
<path fill="none" stroke="blue" d="M257.046,-883.268C318.908,-874.985 475.908,-863.613 562,-944.428 579.017,-960.402 589.287,-1025.19 593.968,-1063.21"/>
<polygon fill="blue" stroke="blue" points="590.548,-1064.1 595.192,-1073.62 597.5,-1063.28 590.548,-1064.1"/>
</g>
</g>
</svg>
