<?xml version="1.0" encoding="UTF-8" standalone="no"?>
<!DOCTYPE svg PUBLIC "-//W3C//DTD SVG 1.1//EN"
 "http://www.w3.org/Graphics/SVG/1.1/DTD/svg11.dtd">
<!-- Generated by graphviz version 2.34.0 (20141125.1709)
 -->
<!-- Title: finite_automaton Pages: 1 -->
<svg width="576pt" height="46pt"
 viewBox="0.00 0.00 576.00 45.61" xmlns="http://www.w3.org/2000/svg" xmlns:xlink="http://www.w3.org/1999/xlink">
<g id="graph0" class="graph" transform="scale(0.447205 0.447205) rotate(0) translate(4 98)">
<title>finite_automaton</title>
<polygon fill="white" stroke="white" points="-4,4 -4,-98 1284,-98 1284,4 -4,4"/>
<!-- dom_edges -->
<g id="node1" class="node"><title>dom_edges</title>
<polygon fill="none" stroke="green" points="459.5,-36 0.5,-36 0.5,-0 459.5,-0 459.5,-36"/>
<text text-anchor="middle" x="230" y="-14.3" font-family="Times,serif" font-size="14.00">Dominating edges: inspect, __list_add, list_add, gl_insert, gl_read, Learn_Assert</text>
</g>
<!-- q1 -->
<g id="node2" class="node"><title>q1</title>
<ellipse fill="none" stroke="green" cx="1258" cy="-72" rx="18" ry="18"/>
<ellipse fill="none" stroke="green" cx="1258" cy="-72" rx="22" ry="22"/>
<text text-anchor="middle" x="1258" y="-68.3" font-family="Times,serif" font-size="14.00">D</text>
</g>
<!-- q0 -->
<g id="node3" class="node"><title>q0</title>
<ellipse fill="none" stroke="green" cx="516" cy="-72" rx="18" ry="18"/>
</g>
<!-- q6 -->
<g id="node8" class="node"><title>q6</title>
<ellipse fill="none" stroke="green" cx="630" cy="-72" rx="18" ry="18"/>
</g>
<!-- q0&#45;&gt;q6 -->
<g id="edge2" class="edge"><title>q0&#45;&gt;q6</title>
<path fill="none" stroke="green" d="M534.01,-72C551.937,-72 580.445,-72 601.558,-72"/>
<polygon fill="green" stroke="green" points="601.83,-75.5001 611.83,-72 601.829,-68.5001 601.83,-75.5001"/>
<text text-anchor="middle" x="573" y="-75.8" font-family="Times,serif" font-size="14.00">gl_read</text>
</g>
<!-- q2 -->
<g id="node4" class="node"><title>q2</title>
<ellipse fill="none" stroke="green" cx="1108" cy="-72" rx="18" ry="18"/>
</g>
<!-- q2&#45;&gt;q1 -->
<g id="edge3" class="edge"><title>q2&#45;&gt;q1</title>
<path fill="none" stroke="green" d="M1126.27,-72C1150.55,-72 1195.2,-72 1225.49,-72"/>
<polygon fill="green" stroke="green" points="1225.55,-75.5001 1235.55,-72 1225.55,-68.5001 1225.55,-75.5001"/>
<text text-anchor="middle" x="1181" y="-75.8" font-family="Times,serif" font-size="14.00">Learn_Assert</text>
</g>
<!-- q3 -->
<g id="node5" class="node"><title>q3</title>
<ellipse fill="none" stroke="green" cx="996" cy="-72" rx="18" ry="18"/>
</g>
<!-- q3&#45;&gt;q2 -->
<g id="edge4" class="edge"><title>q3&#45;&gt;q2</title>
<path fill="none" stroke="green" d="M1014.19,-72C1031.79,-72 1059.39,-72 1079.93,-72"/>
<polygon fill="green" stroke="green" points="1079.93,-75.5001 1089.93,-72 1079.93,-68.5001 1079.93,-75.5001"/>
<text text-anchor="middle" x="1052" y="-75.8" font-family="Times,serif" font-size="14.00">inspect</text>
</g>
<!-- q4 -->
<g id="node6" class="node"><title>q4</title>
<ellipse fill="none" stroke="green" cx="866" cy="-72" rx="18" ry="18"/>
</g>
<!-- q4&#45;&gt;q3 -->
<g id="edge5" class="edge"><title>q4&#45;&gt;q3</title>
<path fill="none" stroke="green" d="M884.263,-72C905.639,-72 942.309,-72 967.558,-72"/>
<polygon fill="green" stroke="green" points="967.602,-75.5001 977.602,-72 967.602,-68.5001 967.602,-75.5001"/>
<text text-anchor="middle" x="931" y="-75.8" font-family="Times,serif" font-size="14.00">__list_add</text>
</g>
<!-- q5 -->
<g id="node7" class="node"><title>q5</title>
<ellipse fill="none" stroke="green" cx="750" cy="-72" rx="18" ry="18"/>
</g>
<!-- q5&#45;&gt;q4 -->
<g id="edge6" class="edge"><title>q5&#45;&gt;q4</title>
<path fill="none" stroke="green" d="M768.314,-72C786.751,-72 816.184,-72 837.738,-72"/>
<polygon fill="green" stroke="green" points="837.896,-75.5001 847.896,-72 837.896,-68.5001 837.896,-75.5001"/>
<text text-anchor="middle" x="808" y="-75.8" font-family="Times,serif" font-size="14.00">list_add</text>
</g>
<!-- q6&#45;&gt;q5 -->
<g id="edge7" class="edge"><title>q6&#45;&gt;q5</title>
<path fill="none" stroke="green" d="M648.158,-72C667.472,-72 699.109,-72 721.799,-72"/>
<polygon fill="green" stroke="green" points="721.821,-75.5001 731.821,-72 721.821,-68.5001 721.821,-75.5001"/>
<text text-anchor="middle" x="690" y="-75.8" font-family="Times,serif" font-size="14.00">gl_insert</text>
</g>
<!-- iq0 -->
<g id="node9" class="node"><title>iq0</title>
</g>
<!-- iq0&#45;&gt;q0 -->
<g id="edge1" class="edge"><title>iq0&#45;&gt;q0</title>
<path fill="none" stroke="blue" d="M257.209,-72C310.908,-72 432.965,-72 487.632,-72"/>
<polygon fill="blue" stroke="blue" points="487.927,-75.5001 497.927,-72 487.927,-68.5001 487.927,-75.5001"/>
</g>
</g>
</svg>
