<?xml version="1.0" encoding="UTF-8" standalone="no"?>
<!DOCTYPE svg PUBLIC "-//W3C//DTD SVG 1.1//EN"
 "http://www.w3.org/Graphics/SVG/1.1/DTD/svg11.dtd">
<!-- Generated by graphviz version 2.34.0 (20141125.1709)
 -->
<!-- Title: finite_automaton Pages: 1 -->
<svg width="576pt" height="32pt"
 viewBox="0.00 0.00 576.00 31.75" xmlns="http://www.w3.org/2000/svg" xmlns:xlink="http://www.w3.org/1999/xlink">
<g id="graph0" class="graph" transform="scale(0.200977 0.200977) rotate(0) translate(4 154)">
<title>finite_automaton</title>
<polygon fill="white" stroke="white" points="-4,4 -4,-154 2862,-154 2862,4 -4,4"/>
<!-- dom_edges -->
<g id="node1" class="node"><title>dom_edges</title>
<polygon fill="none" stroke="green" points="459.5,-84 0.5,-84 0.5,-48 459.5,-48 459.5,-84"/>
<text text-anchor="middle" x="230" y="-62.3" font-family="Times,serif" font-size="14.00">Dominating edges: inspect, __list_add, list_add, gl_insert, gl_read, Learn_Assert</text>
</g>
<!-- q1 -->
<g id="node2" class="node"><title>q1</title>
<ellipse fill="none" stroke="green" cx="2836" cy="-26" rx="18" ry="18"/>
<ellipse fill="none" stroke="green" cx="2836" cy="-26" rx="22" ry="22"/>
<text text-anchor="middle" x="2836" y="-22.3" font-family="Times,serif" font-size="14.00">D</text>
</g>
<!-- q0 -->
<g id="node3" class="node"><title>q0</title>
<ellipse fill="none" stroke="green" cx="516" cy="-120" rx="18" ry="18"/>
</g>
<!-- q6 -->
<g id="node8" class="node"><title>q6</title>
<ellipse fill="none" stroke="green" cx="630" cy="-120" rx="18" ry="18"/>
</g>
<!-- q0&#45;&gt;q6 -->
<g id="edge2" class="edge"><title>q0&#45;&gt;q6</title>
<path fill="none" stroke="green" d="M534.01,-120C551.937,-120 580.445,-120 601.558,-120"/>
<polygon fill="green" stroke="green" points="601.83,-123.5 611.83,-120 601.829,-116.5 601.83,-123.5"/>
<text text-anchor="middle" x="573" y="-123.8" font-family="Times,serif" font-size="14.00">gl_read</text>
</g>
<!-- q2 -->
<g id="node4" class="node"><title>q2</title>
<ellipse fill="none" stroke="black" cx="2686" cy="-74" rx="18" ry="18"/>
</g>
<!-- q2&#45;&gt;q1 -->
<g id="edge3" class="edge"><title>q2&#45;&gt;q1</title>
<path fill="none" stroke="green" d="M2703.4,-68.6798C2727.88,-60.7411 2774.36,-45.6664 2805.01,-35.725"/>
<polygon fill="green" stroke="green" points="2806.32,-38.9825 2814.75,-32.5681 2804.16,-32.3239 2806.32,-38.9825"/>
<text text-anchor="middle" x="2759" y="-66.8" font-family="Times,serif" font-size="14.00">Learn_Assert</text>
</g>
<!-- q3 -->
<g id="node5" class="node"><title>q3</title>
<ellipse fill="none" stroke="green" cx="996" cy="-120" rx="18" ry="18"/>
</g>
<!-- q3&#45;&gt;q2 -->
<g id="edge4" class="edge"><title>q3&#45;&gt;q2</title>
<path fill="none" stroke="green" d="M1013.72,-123.479C1036.51,-127.91 1078.65,-135 1115,-135 1115,-135 1115,-135 2575,-135 2610.09,-135 2644.46,-110.971 2665.2,-93.076"/>
<polygon fill="green" stroke="green" points="2667.59,-95.6265 2672.7,-86.3443 2662.92,-90.4152 2667.59,-95.6265"/>
<text text-anchor="middle" x="1802" y="-138.8" font-family="Times,serif" font-size="14.00">inspect</text>
</g>
<!-- q18 -->
<g id="node20" class="node"><title>q18</title>
<ellipse fill="none" stroke="black" cx="1116" cy="-89" rx="18" ry="18"/>
</g>
<!-- q3&#45;&gt;q18 -->
<g id="edge5" class="edge"><title>q3&#45;&gt;q18</title>
<path fill="none" stroke="green" d="M1012.82,-112.978C1018.75,-110.529 1025.61,-107.917 1032,-106 1050.38,-100.491 1071.57,-96.1825 1087.95,-93.2815"/>
<polygon fill="green" stroke="green" points="1088.66,-96.7103 1097.93,-91.5799 1087.48,-89.8098 1088.66,-96.7103"/>
<text text-anchor="middle" x="1056" y="-109.8" font-family="Times,serif" font-size="14.00">gl_insert</text>
</g>
<!-- q4 -->
<g id="node6" class="node"><title>q4</title>
<ellipse fill="none" stroke="green" cx="866" cy="-120" rx="18" ry="18"/>
</g>
<!-- q4&#45;&gt;q3 -->
<g id="edge6" class="edge"><title>q4&#45;&gt;q3</title>
<path fill="none" stroke="green" d="M884.263,-120C905.639,-120 942.309,-120 967.558,-120"/>
<polygon fill="green" stroke="green" points="967.602,-123.5 977.602,-120 967.602,-116.5 967.602,-123.5"/>
<text text-anchor="middle" x="931" y="-123.8" font-family="Times,serif" font-size="14.00">__list_add</text>
</g>
<!-- q5 -->
<g id="node7" class="node"><title>q5</title>
<ellipse fill="none" stroke="green" cx="750" cy="-120" rx="18" ry="18"/>
</g>
<!-- q5&#45;&gt;q4 -->
<g id="edge7" class="edge"><title>q5&#45;&gt;q4</title>
<path fill="none" stroke="green" d="M768.314,-120C786.751,-120 816.184,-120 837.738,-120"/>
<polygon fill="green" stroke="green" points="837.896,-123.5 847.896,-120 837.896,-116.5 837.896,-123.5"/>
<text text-anchor="middle" x="808" y="-123.8" font-family="Times,serif" font-size="14.00">list_add</text>
</g>
<!-- q6&#45;&gt;q5 -->
<g id="edge8" class="edge"><title>q6&#45;&gt;q5</title>
<path fill="none" stroke="green" d="M648.158,-120C667.472,-120 699.109,-120 721.799,-120"/>
<polygon fill="green" stroke="green" points="721.821,-123.5 731.821,-120 721.821,-116.5 721.821,-123.5"/>
<text text-anchor="middle" x="690" y="-123.8" font-family="Times,serif" font-size="14.00">gl_insert</text>
</g>
<!-- q7 -->
<g id="node9" class="node"><title>q7</title>
<ellipse fill="none" stroke="black" cx="2574" cy="-74" rx="18" ry="18"/>
</g>
<!-- q7&#45;&gt;q2 -->
<g id="edge9" class="edge"><title>q7&#45;&gt;q2</title>
<path fill="none" stroke="green" d="M2592.19,-74C2609.79,-74 2637.39,-74 2657.93,-74"/>
<polygon fill="green" stroke="green" points="2657.93,-77.5001 2667.93,-74 2657.93,-70.5001 2657.93,-77.5001"/>
<text text-anchor="middle" x="2630" y="-77.8" font-family="Times,serif" font-size="14.00">inspect</text>
</g>
<!-- q8 -->
<g id="node10" class="node"><title>q8</title>
<ellipse fill="none" stroke="black" cx="2444" cy="-74" rx="18" ry="18"/>
</g>
<!-- q8&#45;&gt;q7 -->
<g id="edge10" class="edge"><title>q8&#45;&gt;q7</title>
<path fill="none" stroke="green" d="M2462.26,-74C2483.64,-74 2520.31,-74 2545.56,-74"/>
<polygon fill="green" stroke="green" points="2545.6,-77.5001 2555.6,-74 2545.6,-70.5001 2545.6,-77.5001"/>
<text text-anchor="middle" x="2509" y="-77.8" font-family="Times,serif" font-size="14.00">__list_add</text>
</g>
<!-- q9 -->
<g id="node11" class="node"><title>q9</title>
<ellipse fill="none" stroke="black" cx="2328" cy="-74" rx="18" ry="18"/>
</g>
<!-- q9&#45;&gt;q8 -->
<g id="edge11" class="edge"><title>q9&#45;&gt;q8</title>
<path fill="none" stroke="green" d="M2346.31,-74C2364.75,-74 2394.18,-74 2415.74,-74"/>
<polygon fill="green" stroke="green" points="2415.9,-77.5001 2425.9,-74 2415.9,-70.5001 2415.9,-77.5001"/>
<text text-anchor="middle" x="2386" y="-77.8" font-family="Times,serif" font-size="14.00">list_add</text>
</g>
<!-- q10 -->
<g id="node12" class="node"><title>q10</title>
<ellipse fill="none" stroke="black" cx="2183" cy="-51" rx="18" ry="18"/>
</g>
<!-- q10&#45;&gt;q9 -->
<g id="edge12" class="edge"><title>q10&#45;&gt;q9</title>
<path fill="none" stroke="black" d="M2200.85,-53.5791C2222.11,-56.8502 2259.79,-62.7036 2292,-68 2294.56,-68.4201 2297.21,-68.8638 2299.87,-69.3121"/>
<polygon fill="black" stroke="black" points="2299.47,-72.7941 2309.92,-71.0236 2300.65,-65.8936 2299.47,-72.7941"/>
<text text-anchor="middle" x="2265" y="-71.8" font-family="Times,serif" font-size="14.00">__list_del</text>
</g>
<!-- q11 -->
<g id="node13" class="node"><title>q11</title>
<ellipse fill="none" stroke="black" cx="2036" cy="-51" rx="18" ry="18"/>
</g>
<!-- q11&#45;&gt;q10 -->
<g id="edge13" class="edge"><title>q11&#45;&gt;q10</title>
<path fill="none" stroke="black" d="M2054.2,-51C2079.06,-51 2125.26,-51 2154.77,-51"/>
<polygon fill="black" stroke="black" points="2154.82,-54.5001 2164.82,-51 2154.82,-47.5001 2154.82,-54.5001"/>
<text text-anchor="middle" x="2100" y="-54.8" font-family="Times,serif" font-size="14.00">list_move</text>
</g>
<!-- q12 -->
<g id="node14" class="node"><title>q12</title>
<ellipse fill="none" stroke="black" cx="1880" cy="-51" rx="18" ry="18"/>
</g>
<!-- q12&#45;&gt;q11 -->
<g id="edge14" class="edge"><title>q12&#45;&gt;q11</title>
<path fill="none" stroke="black" d="M1898.07,-51C1924.55,-51 1975.78,-51 2007.51,-51"/>
<polygon fill="black" stroke="black" points="2007.85,-54.5001 2017.85,-51 2007.85,-47.5001 2007.85,-54.5001"/>
<text text-anchor="middle" x="1958" y="-54.8" font-family="Times,serif" font-size="14.00">val_from_node</text>
</g>
<!-- q13 -->
<g id="node15" class="node"><title>q13</title>
<ellipse fill="none" stroke="black" cx="1724" cy="-51" rx="18" ry="18"/>
</g>
<!-- q13&#45;&gt;q12 -->
<g id="edge15" class="edge"><title>q13&#45;&gt;q12</title>
<path fill="none" stroke="black" d="M1742.07,-51C1768.55,-51 1819.78,-51 1851.51,-51"/>
<polygon fill="black" stroke="black" points="1851.85,-54.5001 1861.85,-51 1851.85,-47.5001 1851.85,-54.5001"/>
<text text-anchor="middle" x="1802" y="-54.8" font-family="Times,serif" font-size="14.00">val_from_node</text>
</g>
<!-- q14 -->
<g id="node16" class="node"><title>q14</title>
<ellipse fill="none" stroke="black" cx="1584" cy="-51" rx="18" ry="18"/>
</g>
<!-- q14&#45;&gt;q13 -->
<g id="edge16" class="edge"><title>q14&#45;&gt;q13</title>
<path fill="none" stroke="black" d="M1602.2,-51C1625.54,-51 1667.53,-51 1695.34,-51"/>
<polygon fill="black" stroke="black" points="1695.58,-54.5001 1705.58,-51 1695.58,-47.5001 1695.58,-54.5001"/>
<text text-anchor="middle" x="1654" y="-54.8" font-family="Times,serif" font-size="14.00">gl_sort_pass</text>
</g>
<!-- q15 -->
<g id="node17" class="node"><title>q15</title>
<ellipse fill="none" stroke="black" cx="1474" cy="-51" rx="18" ry="18"/>
</g>
<!-- q15&#45;&gt;q1 -->
<g id="edge18" class="edge"><title>q15&#45;&gt;q1</title>
<path fill="none" stroke="green" d="M1488.36,-39.9338C1507.87,-24.9342 1545.88,-0 1583,-0 1583,-0 1583,-0 2687,-0 2728.31,-0 2775.13,-9.9456 2804.85,-17.5344"/>
<polygon fill="green" stroke="green" points="2804.05,-20.9428 2814.61,-20.1002 2805.83,-14.1728 2804.05,-20.9428"/>
<text text-anchor="middle" x="2183" y="-3.8" font-family="Times,serif" font-size="14.00">Learn_Assert</text>
</g>
<!-- q15&#45;&gt;q14 -->
<g id="edge17" class="edge"><title>q15&#45;&gt;q14</title>
<path fill="none" stroke="black" d="M1492.35,-51C1509.44,-51 1535.78,-51 1555.68,-51"/>
<polygon fill="black" stroke="black" points="1555.69,-54.5001 1565.69,-51 1555.69,-47.5001 1555.69,-54.5001"/>
<text text-anchor="middle" x="1529" y="-54.8" font-family="Times,serif" font-size="14.00">gl_sort</text>
</g>
<!-- q16 -->
<g id="node18" class="node"><title>q16</title>
<ellipse fill="none" stroke="black" cx="1362" cy="-89" rx="18" ry="18"/>
</g>
<!-- q16&#45;&gt;q9 -->
<g id="edge20" class="edge"><title>q16&#45;&gt;q9</title>
<path fill="none" stroke="green" d="M1380.12,-91.0187C1401.73,-93.3887 1440.07,-97 1473,-97 1473,-97 1473,-97 2184,-97 2232.4,-97 2244.47,-92.1554 2292,-83 2294.74,-82.473 2297.58,-81.858 2300.4,-81.2015"/>
<polygon fill="green" stroke="green" points="2301.5,-84.5347 2310.36,-78.724 2299.81,-77.7417 2301.5,-84.5347"/>
<text text-anchor="middle" x="1802" y="-100.8" font-family="Times,serif" font-size="14.00">gl_insert</text>
</g>
<!-- q16&#45;&gt;q15 -->
<g id="edge19" class="edge"><title>q16&#45;&gt;q15</title>
<path fill="none" stroke="green" d="M1377.11,-79.1327C1383.29,-75.1888 1390.77,-70.9033 1398,-68 1413.35,-61.8376 1431.42,-57.6578 1445.97,-54.9851"/>
<polygon fill="green" stroke="green" points="1446.59,-58.4304 1455.86,-53.2986 1445.41,-51.5301 1446.59,-58.4304"/>
<text text-anchor="middle" x="1418" y="-71.8" font-family="Times,serif" font-size="14.00">inspect</text>
</g>
<!-- q17 -->
<g id="node19" class="node"><title>q17</title>
<ellipse fill="none" stroke="black" cx="1232" cy="-89" rx="18" ry="18"/>
</g>
<!-- q17&#45;&gt;q16 -->
<g id="edge21" class="edge"><title>q17&#45;&gt;q16</title>
<path fill="none" stroke="green" d="M1250.26,-89C1271.64,-89 1308.31,-89 1333.56,-89"/>
<polygon fill="green" stroke="green" points="1333.6,-92.5001 1343.6,-89 1333.6,-85.5001 1333.6,-92.5001"/>
<text text-anchor="middle" x="1297" y="-92.8" font-family="Times,serif" font-size="14.00">__list_add</text>
</g>
<!-- q18&#45;&gt;q17 -->
<g id="edge22" class="edge"><title>q18&#45;&gt;q17</title>
<path fill="none" stroke="green" d="M1134.31,-89C1152.75,-89 1182.18,-89 1203.74,-89"/>
<polygon fill="green" stroke="green" points="1203.9,-92.5001 1213.9,-89 1203.9,-85.5001 1203.9,-92.5001"/>
<text text-anchor="middle" x="1174" y="-92.8" font-family="Times,serif" font-size="14.00">list_add</text>
</g>
<!-- iq0 -->
<g id="node21" class="node"><title>iq0</title>
</g>
<!-- iq0&#45;&gt;q0 -->
<g id="edge1" class="edge"><title>iq0&#45;&gt;q0</title>
<path fill="none" stroke="blue" d="M257.209,-120C310.908,-120 432.965,-120 487.632,-120"/>
<polygon fill="blue" stroke="blue" points="487.927,-123.5 497.927,-120 487.927,-116.5 487.927,-123.5"/>
</g>
</g>
</svg>
