<?xml version="1.0" encoding="UTF-8" standalone="no"?>
<!DOCTYPE svg PUBLIC "-//W3C//DTD SVG 1.1//EN"
 "http://www.w3.org/Graphics/SVG/1.1/DTD/svg11.dtd">
<!-- Generated by graphviz version 2.34.0 (20141125.1709)
 -->
<!-- Title: finite_automaton Pages: 1 -->
<svg width="576pt" height="36pt"
 viewBox="0.00 0.00 576.00 36.39" xmlns="http://www.w3.org/2000/svg" xmlns:xlink="http://www.w3.org/1999/xlink">
<g id="graph0" class="graph" transform="scale(0.171633 0.171633) rotate(0) translate(4 208)">
<title>finite_automaton</title>
<polygon fill="white" stroke="white" points="-4,4 -4,-208 3352,-208 3352,4 -4,4"/>
<!-- dom_edges -->
<g id="node1" class="node"><title>dom_edges</title>
<polygon fill="none" stroke="green" points="459.5,-138 0.5,-138 0.5,-102 459.5,-102 459.5,-138"/>
<text text-anchor="middle" x="230" y="-116.3" font-family="Times,serif" font-size="14.00">Dominating edges: inspect, __list_add, list_add, gl_insert, gl_read, Learn_Assert</text>
</g>
<!-- q1 -->
<g id="node2" class="node"><title>q1</title>
<ellipse fill="none" stroke="green" cx="3326" cy="-25" rx="18" ry="18"/>
<ellipse fill="none" stroke="green" cx="3326" cy="-25" rx="22" ry="22"/>
<text text-anchor="middle" x="3326" y="-21.3" font-family="Times,serif" font-size="14.00">D</text>
</g>
<!-- q0 -->
<g id="node3" class="node"><title>q0</title>
<ellipse fill="none" stroke="green" cx="516" cy="-174" rx="18" ry="18"/>
</g>
<!-- q12 -->
<g id="node14" class="node"><title>q12</title>
<ellipse fill="none" stroke="green" cx="630" cy="-174" rx="18" ry="18"/>
</g>
<!-- q0&#45;&gt;q12 -->
<g id="edge2" class="edge"><title>q0&#45;&gt;q12</title>
<path fill="none" stroke="green" d="M534.01,-174C551.937,-174 580.445,-174 601.558,-174"/>
<polygon fill="green" stroke="green" points="601.83,-177.5 611.83,-174 601.829,-170.5 601.83,-177.5"/>
<text text-anchor="middle" x="573" y="-177.8" font-family="Times,serif" font-size="14.00">gl_read</text>
</g>
<!-- q2 -->
<g id="node4" class="node"><title>q2</title>
<ellipse fill="none" stroke="black" cx="3176" cy="-67" rx="18" ry="18"/>
</g>
<!-- q2&#45;&gt;q1 -->
<g id="edge3" class="edge"><title>q2&#45;&gt;q1</title>
<path fill="none" stroke="green" d="M3193.4,-62.3448C3217.88,-55.3985 3264.36,-42.2081 3295.01,-33.5094"/>
<polygon fill="green" stroke="green" points="3296.08,-36.8442 3304.75,-30.7471 3294.17,-30.1101 3296.08,-36.8442"/>
<text text-anchor="middle" x="3249" y="-60.8" font-family="Times,serif" font-size="14.00">Learn_Assert</text>
</g>
<!-- q3 -->
<g id="node5" class="node"><title>q3</title>
<ellipse fill="none" stroke="black" cx="3064" cy="-97" rx="18" ry="18"/>
</g>
<!-- q3&#45;&gt;q2 -->
<g id="edge4" class="edge"><title>q3&#45;&gt;q2</title>
<path fill="none" stroke="green" d="M3081.71,-92.4436C3099.5,-87.5919 3127.9,-79.8463 3148.69,-74.1743"/>
<polygon fill="green" stroke="green" points="3149.77,-77.5089 3158.5,-71.5009 3147.93,-70.7555 3149.77,-77.5089"/>
<text text-anchor="middle" x="3120" y="-91.8" font-family="Times,serif" font-size="14.00">inspect</text>
</g>
<!-- q4 -->
<g id="node6" class="node"><title>q4</title>
<ellipse fill="none" stroke="black" cx="1670" cy="-143" rx="18" ry="18"/>
</g>
<!-- q4&#45;&gt;q3 -->
<g id="edge5" class="edge"><title>q4&#45;&gt;q3</title>
<path fill="none" stroke="green" d="M1688.08,-143C1715.34,-143 1770.36,-143 1817,-143 1817,-143 1817,-143 2907,-143 2962.1,-143 2976.4,-135.33 3028,-116 3031.82,-114.567 3035.75,-112.785 3039.52,-110.889"/>
<polygon fill="green" stroke="green" points="3041.3,-113.906 3048.44,-106.082 3037.98,-107.743 3041.3,-113.906"/>
<text text-anchor="middle" x="2321" y="-146.8" font-family="Times,serif" font-size="14.00">__list_add</text>
</g>
<!-- q5 -->
<g id="node7" class="node"><title>q5</title>
<ellipse fill="none" stroke="black" cx="1537" cy="-143" rx="18" ry="18"/>
</g>
<!-- q5&#45;&gt;q4 -->
<g id="edge6" class="edge"><title>q5&#45;&gt;q4</title>
<path fill="none" stroke="green" d="M1555.13,-143C1577.09,-143 1615.46,-143 1641.53,-143"/>
<polygon fill="green" stroke="green" points="1641.87,-146.5 1651.87,-143 1641.87,-139.5 1641.87,-146.5"/>
<text text-anchor="middle" x="1596" y="-146.8" font-family="Times,serif" font-size="14.00">list_add</text>
</g>
<!-- q6 -->
<g id="node8" class="node"><title>q6</title>
<ellipse fill="none" stroke="black" cx="1362" cy="-143" rx="18" ry="18"/>
</g>
<!-- q6&#45;&gt;q5 -->
<g id="edge8" class="edge"><title>q6&#45;&gt;q5</title>
<path fill="none" stroke="green" d="M1380.22,-143C1410.27,-143 1472.52,-143 1508.57,-143"/>
<polygon fill="green" stroke="green" points="1508.85,-146.5 1518.85,-143 1508.85,-139.5 1508.85,-146.5"/>
<text text-anchor="middle" x="1422" y="-146.8" font-family="Times,serif" font-size="14.00">gl_insert</text>
</g>
<!-- q23 -->
<g id="node25" class="node"><title>q23</title>
<ellipse fill="none" stroke="black" cx="1482" cy="-89" rx="18" ry="18"/>
</g>
<!-- q6&#45;&gt;q23 -->
<g id="edge7" class="edge"><title>q6&#45;&gt;q23</title>
<path fill="none" stroke="green" d="M1373.08,-128.626C1379.36,-120.751 1388.11,-111.501 1398,-106 1414.98,-96.5574 1436.53,-92.3331 1453.41,-90.456"/>
<polygon fill="green" stroke="green" points="1454.1,-93.9091 1463.74,-89.5302 1453.47,-86.937 1454.1,-93.9091"/>
<text text-anchor="middle" x="1422" y="-109.8" font-family="Times,serif" font-size="14.00">inspect</text>
</g>
<!-- q7 -->
<g id="node9" class="node"><title>q7</title>
<ellipse fill="none" stroke="black" cx="1232" cy="-143" rx="18" ry="18"/>
</g>
<!-- q7&#45;&gt;q6 -->
<g id="edge9" class="edge"><title>q7&#45;&gt;q6</title>
<path fill="none" stroke="green" d="M1250.26,-143C1271.64,-143 1308.31,-143 1333.56,-143"/>
<polygon fill="green" stroke="green" points="1333.6,-146.5 1343.6,-143 1333.6,-139.5 1333.6,-146.5"/>
<text text-anchor="middle" x="1297" y="-146.8" font-family="Times,serif" font-size="14.00">__list_add</text>
</g>
<!-- q8 -->
<g id="node10" class="node"><title>q8</title>
<ellipse fill="none" stroke="black" cx="1116" cy="-143" rx="18" ry="18"/>
</g>
<!-- q8&#45;&gt;q7 -->
<g id="edge10" class="edge"><title>q8&#45;&gt;q7</title>
<path fill="none" stroke="green" d="M1134.31,-143C1152.75,-143 1182.18,-143 1203.74,-143"/>
<polygon fill="green" stroke="green" points="1203.9,-146.5 1213.9,-143 1203.9,-139.5 1203.9,-146.5"/>
<text text-anchor="middle" x="1174" y="-146.8" font-family="Times,serif" font-size="14.00">list_add</text>
</g>
<!-- q9 -->
<g id="node11" class="node"><title>q9</title>
<ellipse fill="none" stroke="green" cx="996" cy="-174" rx="18" ry="18"/>
</g>
<!-- q9&#45;&gt;q2 -->
<g id="edge11" class="edge"><title>q9&#45;&gt;q2</title>
<path fill="none" stroke="green" d="M1013.72,-177.479C1036.51,-181.91 1078.65,-189 1115,-189 1115,-189 1115,-189 3065,-189 3116.22,-189 3149.72,-128.944 3165.15,-93.1042"/>
<polygon fill="green" stroke="green" points="3168.44,-94.2871 3169.02,-83.7078 3161.97,-91.62 3168.44,-94.2871"/>
<text text-anchor="middle" x="2054" y="-192.8" font-family="Times,serif" font-size="14.00">inspect</text>
</g>
<!-- q9&#45;&gt;q8 -->
<g id="edge12" class="edge"><title>q9&#45;&gt;q8</title>
<path fill="none" stroke="green" d="M1012.82,-166.978C1018.75,-164.529 1025.61,-161.917 1032,-160 1050.38,-154.491 1071.57,-150.183 1087.95,-147.281"/>
<polygon fill="green" stroke="green" points="1088.66,-150.71 1097.93,-145.58 1087.48,-143.81 1088.66,-150.71"/>
<text text-anchor="middle" x="1056" y="-163.8" font-family="Times,serif" font-size="14.00">gl_insert</text>
</g>
<!-- q10 -->
<g id="node12" class="node"><title>q10</title>
<ellipse fill="none" stroke="green" cx="866" cy="-174" rx="18" ry="18"/>
</g>
<!-- q10&#45;&gt;q9 -->
<g id="edge13" class="edge"><title>q10&#45;&gt;q9</title>
<path fill="none" stroke="green" d="M884.263,-174C905.639,-174 942.309,-174 967.558,-174"/>
<polygon fill="green" stroke="green" points="967.602,-177.5 977.602,-174 967.602,-170.5 967.602,-177.5"/>
<text text-anchor="middle" x="931" y="-177.8" font-family="Times,serif" font-size="14.00">__list_add</text>
</g>
<!-- q11 -->
<g id="node13" class="node"><title>q11</title>
<ellipse fill="none" stroke="green" cx="750" cy="-174" rx="18" ry="18"/>
</g>
<!-- q11&#45;&gt;q10 -->
<g id="edge14" class="edge"><title>q11&#45;&gt;q10</title>
<path fill="none" stroke="green" d="M768.314,-174C786.751,-174 816.184,-174 837.738,-174"/>
<polygon fill="green" stroke="green" points="837.896,-177.5 847.896,-174 837.896,-170.5 837.896,-177.5"/>
<text text-anchor="middle" x="808" y="-177.8" font-family="Times,serif" font-size="14.00">list_add</text>
</g>
<!-- q12&#45;&gt;q11 -->
<g id="edge15" class="edge"><title>q12&#45;&gt;q11</title>
<path fill="none" stroke="green" d="M648.158,-174C667.472,-174 699.109,-174 721.799,-174"/>
<polygon fill="green" stroke="green" points="721.821,-177.5 731.821,-174 721.821,-170.5 721.821,-177.5"/>
<text text-anchor="middle" x="690" y="-177.8" font-family="Times,serif" font-size="14.00">gl_insert</text>
</g>
<!-- q13 -->
<g id="node15" class="node"><title>q13</title>
<ellipse fill="none" stroke="black" cx="2906" cy="-97" rx="18" ry="18"/>
</g>
<!-- q13&#45;&gt;q3 -->
<g id="edge16" class="edge"><title>q13&#45;&gt;q3</title>
<path fill="none" stroke="black" d="M2924.29,-97C2951.23,-97 3003.46,-97 3035.58,-97"/>
<polygon fill="black" stroke="black" points="3035.63,-100.5 3045.63,-97 3035.63,-93.5001 3035.63,-100.5"/>
<text text-anchor="middle" x="2986" y="-100.8" font-family="Times,serif" font-size="14.00">val_from_node</text>
</g>
<!-- q14 -->
<g id="node16" class="node"><title>q14</title>
<ellipse fill="none" stroke="black" cx="2748" cy="-94" rx="18" ry="18"/>
</g>
<!-- q14&#45;&gt;q13 -->
<g id="edge17" class="edge"><title>q14&#45;&gt;q13</title>
<path fill="none" stroke="black" d="M2766.29,-94.3325C2793.23,-94.8506 2845.46,-95.855 2877.58,-96.4726"/>
<polygon fill="black" stroke="black" points="2877.57,-99.973 2887.63,-96.666 2877.7,-92.9743 2877.57,-99.973"/>
<text text-anchor="middle" x="2826" y="-100.8" font-family="Times,serif" font-size="14.00">val_from_node</text>
</g>
<!-- q15 -->
<g id="node17" class="node"><title>q15</title>
<ellipse fill="none" stroke="black" cx="2608" cy="-89" rx="18" ry="18"/>
</g>
<!-- q15&#45;&gt;q2 -->
<g id="edge18" class="edge"><title>q15&#45;&gt;q2</title>
<path fill="none" stroke="green" d="M2624.24,-80.912C2649.18,-68.456 2700.58,-46 2747,-46 2747,-46 2747,-46 3065,-46 3094.04,-46 3126.63,-53.1472 3148.75,-59.1024"/>
<polygon fill="green" stroke="green" points="3147.84,-62.4826 3158.42,-61.809 3149.73,-55.742 3147.84,-62.4826"/>
<text text-anchor="middle" x="2906" y="-49.8" font-family="Times,serif" font-size="14.00">inspect</text>
</g>
<!-- q15&#45;&gt;q14 -->
<g id="edge19" class="edge"><title>q15&#45;&gt;q14</title>
<path fill="none" stroke="black" d="M2626.2,-89.6231C2649.54,-90.469 2691.53,-91.9904 2719.34,-92.9978"/>
<polygon fill="black" stroke="black" points="2719.46,-96.5045 2729.58,-93.369 2719.72,-89.5091 2719.46,-96.5045"/>
<text text-anchor="middle" x="2678" y="-96.8" font-family="Times,serif" font-size="14.00">gl_sort_pass</text>
</g>
<!-- q16 -->
<g id="node18" class="node"><title>q16</title>
<ellipse fill="none" stroke="black" cx="2478" cy="-89" rx="18" ry="18"/>
</g>
<!-- q16&#45;&gt;q15 -->
<g id="edge20" class="edge"><title>q16&#45;&gt;q15</title>
<path fill="none" stroke="green" d="M2496.26,-89C2517.64,-89 2554.31,-89 2579.56,-89"/>
<polygon fill="green" stroke="green" points="2579.6,-92.5001 2589.6,-89 2579.6,-85.5001 2579.6,-92.5001"/>
<text text-anchor="middle" x="2543" y="-92.8" font-family="Times,serif" font-size="14.00">__list_add</text>
</g>
<!-- q17 -->
<g id="node19" class="node"><title>q17</title>
<ellipse fill="none" stroke="black" cx="2321" cy="-89" rx="18" ry="18"/>
</g>
<!-- q17&#45;&gt;q16 -->
<g id="edge21" class="edge"><title>q17&#45;&gt;q16</title>
<path fill="none" stroke="green" d="M2339.18,-89C2365.83,-89 2417.39,-89 2449.34,-89"/>
<polygon fill="green" stroke="green" points="2449.74,-92.5001 2459.74,-89 2449.74,-85.5001 2449.74,-92.5001"/>
<text text-anchor="middle" x="2405" y="-92.8" font-family="Times,serif" font-size="14.00">list_add</text>
</g>
<!-- q18 -->
<g id="node20" class="node"><title>q18</title>
<ellipse fill="none" stroke="black" cx="2184" cy="-89" rx="18" ry="18"/>
</g>
<!-- q18&#45;&gt;q17 -->
<g id="edge22" class="edge"><title>q18&#45;&gt;q17</title>
<path fill="none" stroke="black" d="M2202.1,-89C2224.9,-89 2265.52,-89 2292.61,-89"/>
<polygon fill="black" stroke="black" points="2292.61,-92.5001 2302.61,-89 2292.61,-85.5001 2292.61,-92.5001"/>
<text text-anchor="middle" x="2247" y="-92.8" font-family="Times,serif" font-size="14.00">__list_del</text>
</g>
<!-- q19 -->
<g id="node21" class="node"><title>q19</title>
<ellipse fill="none" stroke="black" cx="2054" cy="-89" rx="18" ry="18"/>
</g>
<!-- q19&#45;&gt;q18 -->
<g id="edge23" class="edge"><title>q19&#45;&gt;q18</title>
<path fill="none" stroke="black" d="M2072.26,-89C2093.64,-89 2130.31,-89 2155.56,-89"/>
<polygon fill="black" stroke="black" points="2155.6,-92.5001 2165.6,-89 2155.6,-85.5001 2155.6,-92.5001"/>
<text text-anchor="middle" x="2120" y="-92.8" font-family="Times,serif" font-size="14.00">list_move</text>
</g>
<!-- q20 -->
<g id="node22" class="node"><title>q20</title>
<ellipse fill="none" stroke="black" cx="1896" cy="-89" rx="18" ry="18"/>
</g>
<!-- q20&#45;&gt;q19 -->
<g id="edge24" class="edge"><title>q20&#45;&gt;q19</title>
<path fill="none" stroke="black" d="M1914.29,-89C1941.23,-89 1993.46,-89 2025.58,-89"/>
<polygon fill="black" stroke="black" points="2025.63,-92.5001 2035.63,-89 2025.63,-85.5001 2025.63,-92.5001"/>
<text text-anchor="middle" x="1974" y="-92.8" font-family="Times,serif" font-size="14.00">val_from_node</text>
</g>
<!-- q21 -->
<g id="node23" class="node"><title>q21</title>
<ellipse fill="none" stroke="black" cx="1740" cy="-89" rx="18" ry="18"/>
</g>
<!-- q21&#45;&gt;q20 -->
<g id="edge25" class="edge"><title>q21&#45;&gt;q20</title>
<path fill="none" stroke="black" d="M1758.07,-89C1784.55,-89 1835.78,-89 1867.51,-89"/>
<polygon fill="black" stroke="black" points="1867.85,-92.5001 1877.85,-89 1867.85,-85.5001 1867.85,-92.5001"/>
<text text-anchor="middle" x="1818" y="-92.8" font-family="Times,serif" font-size="14.00">val_from_node</text>
</g>
<!-- q22 -->
<g id="node24" class="node"><title>q22</title>
<ellipse fill="none" stroke="black" cx="1596" cy="-89" rx="18" ry="18"/>
</g>
<!-- q22&#45;&gt;q21 -->
<g id="edge26" class="edge"><title>q22&#45;&gt;q21</title>
<path fill="none" stroke="black" d="M1614.13,-89C1638.33,-89 1682.79,-89 1711.61,-89"/>
<polygon fill="black" stroke="black" points="1711.81,-92.5001 1721.81,-89 1711.81,-85.5001 1711.81,-92.5001"/>
<text text-anchor="middle" x="1670" y="-92.8" font-family="Times,serif" font-size="14.00">gl_sort_pass</text>
</g>
<!-- q23&#45;&gt;q1 -->
<g id="edge28" class="edge"><title>q23&#45;&gt;q1</title>
<path fill="none" stroke="green" d="M1492.35,-73.9024C1509.38,-48.5103 1548.06,-0 1595,-0 1595,-0 1595,-0 3177,-0 3218.26,-0 3265.1,-9.56308 3294.83,-16.86"/>
<polygon fill="green" stroke="green" points="3294.04,-20.2712 3304.59,-19.3271 3295.76,-13.4844 3294.04,-20.2712"/>
<text text-anchor="middle" x="2405" y="-3.8" font-family="Times,serif" font-size="14.00">Learn_Assert</text>
</g>
<!-- q23&#45;&gt;q22 -->
<g id="edge27" class="edge"><title>q23&#45;&gt;q22</title>
<path fill="none" stroke="black" d="M1500.01,-89C1517.94,-89 1546.44,-89 1567.56,-89"/>
<polygon fill="black" stroke="black" points="1567.83,-92.5001 1577.83,-89 1567.83,-85.5001 1567.83,-92.5001"/>
<text text-anchor="middle" x="1537" y="-92.8" font-family="Times,serif" font-size="14.00">gl_sort</text>
</g>
<!-- iq0 -->
<g id="node26" class="node"><title>iq0</title>
</g>
<!-- iq0&#45;&gt;q0 -->
<g id="edge1" class="edge"><title>iq0&#45;&gt;q0</title>
<path fill="none" stroke="blue" d="M257.209,-174C310.908,-174 432.965,-174 487.632,-174"/>
<polygon fill="blue" stroke="blue" points="487.927,-177.5 497.927,-174 487.927,-170.5 487.927,-177.5"/>
</g>
</g>
</svg>
