<?xml version="1.0" encoding="UTF-8" standalone="no"?>
<!DOCTYPE svg PUBLIC "-//W3C//DTD SVG 1.1//EN"
 "http://www.w3.org/Graphics/SVG/1.1/DTD/svg11.dtd">
<!-- Generated by graphviz version 2.34.0 (20141125.1709)
 -->
<!-- Title: finite_automaton Pages: 1 -->
<svg width="576pt" height="44pt"
 viewBox="0.00 0.00 576.00 43.61" xmlns="http://www.w3.org/2000/svg" xmlns:xlink="http://www.w3.org/1999/xlink">
<g id="graph0" class="graph" transform="scale(0.200977 0.200977) rotate(0) translate(4 213)">
<title>finite_automaton</title>
<polygon fill="white" stroke="white" points="-4,4 -4,-213 2862,-213 2862,4 -4,4"/>
<!-- dom_edges -->
<g id="node1" class="node"><title>dom_edges</title>
<polygon fill="none" stroke="green" points="459.5,-36 0.5,-36 0.5,-0 459.5,-0 459.5,-36"/>
<text text-anchor="middle" x="230" y="-14.3" font-family="Times,serif" font-size="14.00">Dominating edges: inspect, __list_add, list_add, gl_insert, gl_read, Learn_Assert</text>
</g>
<!-- q1 -->
<g id="node2" class="node"><title>q1</title>
<ellipse fill="none" stroke="green" cx="2836" cy="-167" rx="18" ry="18"/>
<ellipse fill="none" stroke="green" cx="2836" cy="-167" rx="22" ry="22"/>
<text text-anchor="middle" x="2836" y="-163.3" font-family="Times,serif" font-size="14.00">D</text>
</g>
<!-- q0 -->
<g id="node3" class="node"><title>q0</title>
<ellipse fill="none" stroke="green" cx="516" cy="-72" rx="18" ry="18"/>
</g>
<!-- q9 -->
<g id="node11" class="node"><title>q9</title>
<ellipse fill="none" stroke="green" cx="630" cy="-72" rx="18" ry="18"/>
</g>
<!-- q0&#45;&gt;q9 -->
<g id="edge2" class="edge"><title>q0&#45;&gt;q9</title>
<path fill="none" stroke="green" d="M534.01,-72C551.937,-72 580.445,-72 601.558,-72"/>
<polygon fill="green" stroke="green" points="601.83,-75.5001 611.83,-72 601.829,-68.5001 601.83,-75.5001"/>
<text text-anchor="middle" x="573" y="-75.8" font-family="Times,serif" font-size="14.00">gl_read</text>
</g>
<!-- q2 -->
<g id="node4" class="node"><title>q2</title>
<ellipse fill="none" stroke="black" cx="1474" cy="-140" rx="18" ry="18"/>
</g>
<!-- q2&#45;&gt;q1 -->
<g id="edge4" class="edge"><title>q2&#45;&gt;q1</title>
<path fill="none" stroke="green" d="M1487.93,-151.452C1507.2,-167.303 1545.27,-194 1583,-194 1583,-194 1583,-194 2687,-194 2728.35,-194 2775.17,-183.672 2804.87,-175.791"/>
<polygon fill="green" stroke="green" points="2805.9,-179.138 2814.62,-173.127 2804.06,-172.385 2805.9,-179.138"/>
<text text-anchor="middle" x="2183" y="-197.8" font-family="Times,serif" font-size="14.00">Learn_Assert</text>
</g>
<!-- q18 -->
<g id="node20" class="node"><title>q18</title>
<ellipse fill="none" stroke="black" cx="1584" cy="-140" rx="18" ry="18"/>
</g>
<!-- q2&#45;&gt;q18 -->
<g id="edge3" class="edge"><title>q2&#45;&gt;q18</title>
<path fill="none" stroke="black" d="M1492.35,-140C1509.44,-140 1535.78,-140 1555.68,-140"/>
<polygon fill="black" stroke="black" points="1555.69,-143.5 1565.69,-140 1555.69,-136.5 1555.69,-143.5"/>
<text text-anchor="middle" x="1529" y="-143.8" font-family="Times,serif" font-size="14.00">gl_sort</text>
</g>
<!-- q3 -->
<g id="node5" class="node"><title>q3</title>
<ellipse fill="none" stroke="black" cx="1362" cy="-102" rx="18" ry="18"/>
</g>
<!-- q3&#45;&gt;q2 -->
<g id="edge5" class="edge"><title>q3&#45;&gt;q2</title>
<path fill="none" stroke="green" d="M1379.23,-107.607C1397.1,-113.781 1426.09,-123.794 1447.11,-131.055"/>
<polygon fill="green" stroke="green" points="1446.11,-134.413 1456.7,-134.37 1448.39,-127.797 1446.11,-134.413"/>
<text text-anchor="middle" x="1418" y="-130.8" font-family="Times,serif" font-size="14.00">inspect</text>
</g>
<!-- q13 -->
<g id="node15" class="node"><title>q13</title>
<ellipse fill="none" stroke="black" cx="2328" cy="-118" rx="18" ry="18"/>
</g>
<!-- q3&#45;&gt;q13 -->
<g id="edge6" class="edge"><title>q3&#45;&gt;q13</title>
<path fill="none" stroke="green" d="M1380.12,-99.9813C1401.73,-97.6113 1440.07,-94 1473,-94 1473,-94 1473,-94 2184,-94 2225.07,-94 2271.88,-103.749 2300.42,-110.82"/>
<polygon fill="green" stroke="green" points="2299.86,-114.289 2310.42,-113.373 2301.6,-107.507 2299.86,-114.289"/>
<text text-anchor="middle" x="1802" y="-97.8" font-family="Times,serif" font-size="14.00">gl_insert</text>
</g>
<!-- q4 -->
<g id="node6" class="node"><title>q4</title>
<ellipse fill="none" stroke="black" cx="1232" cy="-102" rx="18" ry="18"/>
</g>
<!-- q4&#45;&gt;q3 -->
<g id="edge7" class="edge"><title>q4&#45;&gt;q3</title>
<path fill="none" stroke="green" d="M1250.26,-102C1271.64,-102 1308.31,-102 1333.56,-102"/>
<polygon fill="green" stroke="green" points="1333.6,-105.5 1343.6,-102 1333.6,-98.5001 1333.6,-105.5"/>
<text text-anchor="middle" x="1297" y="-105.8" font-family="Times,serif" font-size="14.00">__list_add</text>
</g>
<!-- q5 -->
<g id="node7" class="node"><title>q5</title>
<ellipse fill="none" stroke="black" cx="1116" cy="-102" rx="18" ry="18"/>
</g>
<!-- q5&#45;&gt;q4 -->
<g id="edge8" class="edge"><title>q5&#45;&gt;q4</title>
<path fill="none" stroke="green" d="M1134.31,-102C1152.75,-102 1182.18,-102 1203.74,-102"/>
<polygon fill="green" stroke="green" points="1203.9,-105.5 1213.9,-102 1203.9,-98.5001 1203.9,-105.5"/>
<text text-anchor="middle" x="1174" y="-105.8" font-family="Times,serif" font-size="14.00">list_add</text>
</g>
<!-- q6 -->
<g id="node8" class="node"><title>q6</title>
<ellipse fill="none" stroke="green" cx="996" cy="-72" rx="18" ry="18"/>
</g>
<!-- q6&#45;&gt;q5 -->
<g id="edge10" class="edge"><title>q6&#45;&gt;q5</title>
<path fill="none" stroke="green" d="M1013.66,-76.2346C1033.16,-81.1929 1065.71,-89.4679 1088.65,-95.2999"/>
<polygon fill="green" stroke="green" points="1087.87,-98.7149 1098.43,-97.7869 1089.6,-91.9307 1087.87,-98.7149"/>
<text text-anchor="middle" x="1056" y="-95.8" font-family="Times,serif" font-size="14.00">gl_insert</text>
</g>
<!-- q10 -->
<g id="node12" class="node"><title>q10</title>
<ellipse fill="none" stroke="black" cx="2686" cy="-118" rx="18" ry="18"/>
</g>
<!-- q6&#45;&gt;q10 -->
<g id="edge9" class="edge"><title>q6&#45;&gt;q10</title>
<path fill="none" stroke="green" d="M1013.71,-68.2891C1036.49,-63.5625 1078.61,-56 1115,-56 1115,-56 1115,-56 2575,-56 2610.22,-56 2644.56,-80.4226 2665.25,-98.6113"/>
<polygon fill="green" stroke="green" points="2663,-101.292 2672.74,-105.453 2667.72,-96.1241 2663,-101.292"/>
<text text-anchor="middle" x="1802" y="-59.8" font-family="Times,serif" font-size="14.00">inspect</text>
</g>
<!-- q7 -->
<g id="node9" class="node"><title>q7</title>
<ellipse fill="none" stroke="green" cx="866" cy="-72" rx="18" ry="18"/>
</g>
<!-- q7&#45;&gt;q6 -->
<g id="edge11" class="edge"><title>q7&#45;&gt;q6</title>
<path fill="none" stroke="green" d="M884.263,-72C905.639,-72 942.309,-72 967.558,-72"/>
<polygon fill="green" stroke="green" points="967.602,-75.5001 977.602,-72 967.602,-68.5001 967.602,-75.5001"/>
<text text-anchor="middle" x="931" y="-75.8" font-family="Times,serif" font-size="14.00">__list_add</text>
</g>
<!-- q8 -->
<g id="node10" class="node"><title>q8</title>
<ellipse fill="none" stroke="green" cx="750" cy="-72" rx="18" ry="18"/>
</g>
<!-- q8&#45;&gt;q7 -->
<g id="edge12" class="edge"><title>q8&#45;&gt;q7</title>
<path fill="none" stroke="green" d="M768.314,-72C786.751,-72 816.184,-72 837.738,-72"/>
<polygon fill="green" stroke="green" points="837.896,-75.5001 847.896,-72 837.896,-68.5001 837.896,-75.5001"/>
<text text-anchor="middle" x="808" y="-75.8" font-family="Times,serif" font-size="14.00">list_add</text>
</g>
<!-- q9&#45;&gt;q8 -->
<g id="edge13" class="edge"><title>q9&#45;&gt;q8</title>
<path fill="none" stroke="green" d="M648.158,-72C667.472,-72 699.109,-72 721.799,-72"/>
<polygon fill="green" stroke="green" points="721.821,-75.5001 731.821,-72 721.821,-68.5001 721.821,-75.5001"/>
<text text-anchor="middle" x="690" y="-75.8" font-family="Times,serif" font-size="14.00">gl_insert</text>
</g>
<!-- q10&#45;&gt;q1 -->
<g id="edge14" class="edge"><title>q10&#45;&gt;q1</title>
<path fill="none" stroke="green" d="M2703.4,-123.431C2727.88,-131.535 2774.36,-146.924 2805.01,-157.072"/>
<polygon fill="green" stroke="green" points="2804.16,-160.475 2814.75,-160.295 2806.36,-153.829 2804.16,-160.475"/>
<text text-anchor="middle" x="2759" y="-156.8" font-family="Times,serif" font-size="14.00">Learn_Assert</text>
</g>
<!-- q11 -->
<g id="node13" class="node"><title>q11</title>
<ellipse fill="none" stroke="black" cx="2574" cy="-118" rx="18" ry="18"/>
</g>
<!-- q11&#45;&gt;q10 -->
<g id="edge15" class="edge"><title>q11&#45;&gt;q10</title>
<path fill="none" stroke="green" d="M2592.19,-118C2609.79,-118 2637.39,-118 2657.93,-118"/>
<polygon fill="green" stroke="green" points="2657.93,-121.5 2667.93,-118 2657.93,-114.5 2657.93,-121.5"/>
<text text-anchor="middle" x="2630" y="-121.8" font-family="Times,serif" font-size="14.00">inspect</text>
</g>
<!-- q12 -->
<g id="node14" class="node"><title>q12</title>
<ellipse fill="none" stroke="black" cx="2444" cy="-118" rx="18" ry="18"/>
</g>
<!-- q12&#45;&gt;q11 -->
<g id="edge16" class="edge"><title>q12&#45;&gt;q11</title>
<path fill="none" stroke="green" d="M2462.26,-118C2483.64,-118 2520.31,-118 2545.56,-118"/>
<polygon fill="green" stroke="green" points="2545.6,-121.5 2555.6,-118 2545.6,-114.5 2545.6,-121.5"/>
<text text-anchor="middle" x="2509" y="-121.8" font-family="Times,serif" font-size="14.00">__list_add</text>
</g>
<!-- q13&#45;&gt;q12 -->
<g id="edge17" class="edge"><title>q13&#45;&gt;q12</title>
<path fill="none" stroke="green" d="M2346.31,-118C2364.75,-118 2394.18,-118 2415.74,-118"/>
<polygon fill="green" stroke="green" points="2415.9,-121.5 2425.9,-118 2415.9,-114.5 2415.9,-121.5"/>
<text text-anchor="middle" x="2386" y="-121.8" font-family="Times,serif" font-size="14.00">list_add</text>
</g>
<!-- q14 -->
<g id="node16" class="node"><title>q14</title>
<ellipse fill="none" stroke="black" cx="2183" cy="-140" rx="18" ry="18"/>
</g>
<!-- q14&#45;&gt;q13 -->
<g id="edge18" class="edge"><title>q14&#45;&gt;q13</title>
<path fill="none" stroke="black" d="M2200.97,-137.39C2225.48,-133.619 2271.04,-126.609 2300.15,-122.131"/>
<polygon fill="black" stroke="black" points="2300.71,-125.587 2310.06,-120.607 2299.64,-118.668 2300.71,-125.587"/>
<text text-anchor="middle" x="2265" y="-134.8" font-family="Times,serif" font-size="14.00">__list_del</text>
</g>
<!-- q15 -->
<g id="node17" class="node"><title>q15</title>
<ellipse fill="none" stroke="black" cx="2036" cy="-140" rx="18" ry="18"/>
</g>
<!-- q15&#45;&gt;q14 -->
<g id="edge19" class="edge"><title>q15&#45;&gt;q14</title>
<path fill="none" stroke="black" d="M2054.2,-140C2079.06,-140 2125.26,-140 2154.77,-140"/>
<polygon fill="black" stroke="black" points="2154.82,-143.5 2164.82,-140 2154.82,-136.5 2154.82,-143.5"/>
<text text-anchor="middle" x="2100" y="-143.8" font-family="Times,serif" font-size="14.00">list_move</text>
</g>
<!-- q16 -->
<g id="node18" class="node"><title>q16</title>
<ellipse fill="none" stroke="black" cx="1880" cy="-140" rx="18" ry="18"/>
</g>
<!-- q16&#45;&gt;q15 -->
<g id="edge20" class="edge"><title>q16&#45;&gt;q15</title>
<path fill="none" stroke="black" d="M1898.07,-140C1924.55,-140 1975.78,-140 2007.51,-140"/>
<polygon fill="black" stroke="black" points="2007.85,-143.5 2017.85,-140 2007.85,-136.5 2007.85,-143.5"/>
<text text-anchor="middle" x="1958" y="-143.8" font-family="Times,serif" font-size="14.00">val_from_node</text>
</g>
<!-- q17 -->
<g id="node19" class="node"><title>q17</title>
<ellipse fill="none" stroke="black" cx="1724" cy="-140" rx="18" ry="18"/>
</g>
<!-- q17&#45;&gt;q16 -->
<g id="edge21" class="edge"><title>q17&#45;&gt;q16</title>
<path fill="none" stroke="black" d="M1742.07,-140C1768.55,-140 1819.78,-140 1851.51,-140"/>
<polygon fill="black" stroke="black" points="1851.85,-143.5 1861.85,-140 1851.85,-136.5 1851.85,-143.5"/>
<text text-anchor="middle" x="1802" y="-143.8" font-family="Times,serif" font-size="14.00">val_from_node</text>
</g>
<!-- q18&#45;&gt;q17 -->
<g id="edge22" class="edge"><title>q18&#45;&gt;q17</title>
<path fill="none" stroke="black" d="M1602.2,-140C1625.54,-140 1667.53,-140 1695.34,-140"/>
<polygon fill="black" stroke="black" points="1695.58,-143.5 1705.58,-140 1695.58,-136.5 1695.58,-143.5"/>
<text text-anchor="middle" x="1654" y="-143.8" font-family="Times,serif" font-size="14.00">gl_sort_pass</text>
</g>
<!-- iq0 -->
<g id="node21" class="node"><title>iq0</title>
</g>
<!-- iq0&#45;&gt;q0 -->
<g id="edge1" class="edge"><title>iq0&#45;&gt;q0</title>
<path fill="none" stroke="blue" d="M257.209,-72C310.908,-72 432.965,-72 487.632,-72"/>
<polygon fill="blue" stroke="blue" points="487.927,-75.5001 497.927,-72 487.927,-68.5001 487.927,-75.5001"/>
</g>
</g>
</svg>
