<?xml version="1.0" encoding="UTF-8" standalone="no"?>
<!DOCTYPE svg PUBLIC "-//W3C//DTD SVG 1.1//EN"
 "http://www.w3.org/Graphics/SVG/1.1/DTD/svg11.dtd">
<!-- Generated by graphviz version 2.34.0 (20141125.1709)
 -->
<!-- Title: finite_automaton Pages: 1 -->
<svg width="576pt" height="29pt"
 viewBox="0.00 0.00 576.00 29.00" xmlns="http://www.w3.org/2000/svg" xmlns:xlink="http://www.w3.org/1999/xlink">
<g id="graph0" class="graph" transform="scale(0.183556 0.183556) rotate(0) translate(4 154)">
<title>finite_automaton</title>
<polygon fill="white" stroke="white" points="-4,4 -4,-154 3134,-154 3134,4 -4,4"/>
<!-- dom_edges -->
<g id="node1" class="node"><title>dom_edges</title>
<polygon fill="none" stroke="green" points="731.5,-84 0.5,-84 0.5,-48 731.5,-48 731.5,-84"/>
<text text-anchor="middle" x="366" y="-62.3" font-family="Times,serif" font-size="14.00">Dominating edges: inspect, __list_add, list_add, list_move, gl_sort_pass, gl_insert, gl_read, val_from_node, gl_sort, Learn_Assert</text>
</g>
<!-- q1 -->
<g id="node2" class="node"><title>q1</title>
<ellipse fill="none" stroke="green" cx="3108" cy="-26" rx="18" ry="18"/>
<ellipse fill="none" stroke="green" cx="3108" cy="-26" rx="22" ry="22"/>
<text text-anchor="middle" x="3108" y="-22.3" font-family="Times,serif" font-size="14.00">D</text>
</g>
<!-- q0 -->
<g id="node3" class="node"><title>q0</title>
<ellipse fill="none" stroke="green" cx="788" cy="-120" rx="18" ry="18"/>
</g>
<!-- q18 -->
<g id="node20" class="node"><title>q18</title>
<ellipse fill="none" stroke="green" cx="902" cy="-120" rx="18" ry="18"/>
</g>
<!-- q0&#45;&gt;q18 -->
<g id="edge2" class="edge"><title>q0&#45;&gt;q18</title>
<path fill="none" stroke="green" d="M806.01,-120C823.937,-120 852.445,-120 873.558,-120"/>
<polygon fill="green" stroke="green" points="873.83,-123.5 883.83,-120 873.829,-116.5 873.83,-123.5"/>
<text text-anchor="middle" x="845" y="-123.8" font-family="Times,serif" font-size="14.00">gl_read</text>
</g>
<!-- q2 -->
<g id="node4" class="node"><title>q2</title>
<ellipse fill="none" stroke="black" cx="2958" cy="-74" rx="18" ry="18"/>
</g>
<!-- q2&#45;&gt;q1 -->
<g id="edge3" class="edge"><title>q2&#45;&gt;q1</title>
<path fill="none" stroke="green" d="M2975.4,-68.6798C2999.88,-60.7411 3046.36,-45.6664 3077.01,-35.725"/>
<polygon fill="green" stroke="green" points="3078.32,-38.9825 3086.75,-32.5681 3076.16,-32.3239 3078.32,-38.9825"/>
<text text-anchor="middle" x="3031" y="-66.8" font-family="Times,serif" font-size="14.00">Learn_Assert</text>
</g>
<!-- q3 -->
<g id="node5" class="node"><title>q3</title>
<ellipse fill="none" stroke="black" cx="2846" cy="-74" rx="18" ry="18"/>
</g>
<!-- q3&#45;&gt;q2 -->
<g id="edge4" class="edge"><title>q3&#45;&gt;q2</title>
<path fill="none" stroke="green" d="M2864.19,-74C2881.79,-74 2909.39,-74 2929.93,-74"/>
<polygon fill="green" stroke="green" points="2929.93,-77.5001 2939.93,-74 2929.93,-70.5001 2929.93,-77.5001"/>
<text text-anchor="middle" x="2902" y="-77.8" font-family="Times,serif" font-size="14.00">inspect</text>
</g>
<!-- q4 -->
<g id="node6" class="node"><title>q4</title>
<ellipse fill="none" stroke="black" cx="2716" cy="-74" rx="18" ry="18"/>
</g>
<!-- q4&#45;&gt;q3 -->
<g id="edge5" class="edge"><title>q4&#45;&gt;q3</title>
<path fill="none" stroke="green" d="M2734.26,-74C2755.64,-74 2792.31,-74 2817.56,-74"/>
<polygon fill="green" stroke="green" points="2817.6,-77.5001 2827.6,-74 2817.6,-70.5001 2817.6,-77.5001"/>
<text text-anchor="middle" x="2781" y="-77.8" font-family="Times,serif" font-size="14.00">__list_add</text>
</g>
<!-- q5 -->
<g id="node7" class="node"><title>q5</title>
<ellipse fill="none" stroke="black" cx="2600" cy="-74" rx="18" ry="18"/>
</g>
<!-- q5&#45;&gt;q4 -->
<g id="edge6" class="edge"><title>q5&#45;&gt;q4</title>
<path fill="none" stroke="green" d="M2618.31,-74C2636.75,-74 2666.18,-74 2687.74,-74"/>
<polygon fill="green" stroke="green" points="2687.9,-77.5001 2697.9,-74 2687.9,-70.5001 2687.9,-77.5001"/>
<text text-anchor="middle" x="2658" y="-77.8" font-family="Times,serif" font-size="14.00">list_add</text>
</g>
<!-- q6 -->
<g id="node8" class="node"><title>q6</title>
<ellipse fill="none" stroke="black" cx="2455" cy="-51" rx="18" ry="18"/>
</g>
<!-- q6&#45;&gt;q5 -->
<g id="edge7" class="edge"><title>q6&#45;&gt;q5</title>
<path fill="none" stroke="black" d="M2472.85,-53.5791C2494.11,-56.8502 2531.79,-62.7036 2564,-68 2566.56,-68.4201 2569.21,-68.8638 2571.87,-69.3121"/>
<polygon fill="black" stroke="black" points="2571.47,-72.7941 2581.92,-71.0236 2572.65,-65.8936 2571.47,-72.7941"/>
<text text-anchor="middle" x="2537" y="-71.8" font-family="Times,serif" font-size="14.00">__list_del</text>
</g>
<!-- q7 -->
<g id="node9" class="node"><title>q7</title>
<ellipse fill="none" stroke="black" cx="2308" cy="-51" rx="18" ry="18"/>
</g>
<!-- q7&#45;&gt;q6 -->
<g id="edge8" class="edge"><title>q7&#45;&gt;q6</title>
<path fill="none" stroke="green" d="M2326.2,-51C2351.06,-51 2397.26,-51 2426.77,-51"/>
<polygon fill="green" stroke="green" points="2426.82,-54.5001 2436.82,-51 2426.82,-47.5001 2426.82,-54.5001"/>
<text text-anchor="middle" x="2372" y="-54.8" font-family="Times,serif" font-size="14.00">list_move</text>
</g>
<!-- q8 -->
<g id="node10" class="node"><title>q8</title>
<ellipse fill="none" stroke="black" cx="2152" cy="-51" rx="18" ry="18"/>
</g>
<!-- q8&#45;&gt;q7 -->
<g id="edge9" class="edge"><title>q8&#45;&gt;q7</title>
<path fill="none" stroke="green" d="M2170.07,-51C2196.55,-51 2247.78,-51 2279.51,-51"/>
<polygon fill="green" stroke="green" points="2279.85,-54.5001 2289.85,-51 2279.85,-47.5001 2279.85,-54.5001"/>
<text text-anchor="middle" x="2230" y="-54.8" font-family="Times,serif" font-size="14.00">val_from_node</text>
</g>
<!-- q9 -->
<g id="node11" class="node"><title>q9</title>
<ellipse fill="none" stroke="black" cx="1996" cy="-51" rx="18" ry="18"/>
</g>
<!-- q9&#45;&gt;q8 -->
<g id="edge10" class="edge"><title>q9&#45;&gt;q8</title>
<path fill="none" stroke="green" d="M2014.07,-51C2040.55,-51 2091.78,-51 2123.51,-51"/>
<polygon fill="green" stroke="green" points="2123.85,-54.5001 2133.85,-51 2123.85,-47.5001 2123.85,-54.5001"/>
<text text-anchor="middle" x="2074" y="-54.8" font-family="Times,serif" font-size="14.00">val_from_node</text>
</g>
<!-- q10 -->
<g id="node12" class="node"><title>q10</title>
<ellipse fill="none" stroke="black" cx="1856" cy="-51" rx="18" ry="18"/>
</g>
<!-- q10&#45;&gt;q9 -->
<g id="edge11" class="edge"><title>q10&#45;&gt;q9</title>
<path fill="none" stroke="green" d="M1874.2,-51C1897.54,-51 1939.53,-51 1967.34,-51"/>
<polygon fill="green" stroke="green" points="1967.58,-54.5001 1977.58,-51 1967.58,-47.5001 1967.58,-54.5001"/>
<text text-anchor="middle" x="1926" y="-54.8" font-family="Times,serif" font-size="14.00">gl_sort_pass</text>
</g>
<!-- q11 -->
<g id="node13" class="node"><title>q11</title>
<ellipse fill="none" stroke="black" cx="1746" cy="-51" rx="18" ry="18"/>
</g>
<!-- q11&#45;&gt;q1 -->
<g id="edge13" class="edge"><title>q11&#45;&gt;q1</title>
<path fill="none" stroke="green" d="M1760.36,-39.9338C1779.87,-24.9342 1817.88,-0 1855,-0 1855,-0 1855,-0 2959,-0 3000.31,-0 3047.13,-9.9456 3076.85,-17.5344"/>
<polygon fill="green" stroke="green" points="3076.05,-20.9428 3086.61,-20.1002 3077.83,-14.1728 3076.05,-20.9428"/>
<text text-anchor="middle" x="2455" y="-3.8" font-family="Times,serif" font-size="14.00">Learn_Assert</text>
</g>
<!-- q11&#45;&gt;q10 -->
<g id="edge12" class="edge"><title>q11&#45;&gt;q10</title>
<path fill="none" stroke="green" d="M1764.35,-51C1781.44,-51 1807.78,-51 1827.68,-51"/>
<polygon fill="green" stroke="green" points="1827.69,-54.5001 1837.69,-51 1827.69,-47.5001 1827.69,-54.5001"/>
<text text-anchor="middle" x="1801" y="-54.8" font-family="Times,serif" font-size="14.00">gl_sort</text>
</g>
<!-- q12 -->
<g id="node14" class="node"><title>q12</title>
<ellipse fill="none" stroke="black" cx="1634" cy="-89" rx="18" ry="18"/>
</g>
<!-- q12&#45;&gt;q5 -->
<g id="edge15" class="edge"><title>q12&#45;&gt;q5</title>
<path fill="none" stroke="green" d="M1652.12,-91.0187C1673.73,-93.3887 1712.07,-97 1745,-97 1745,-97 1745,-97 2456,-97 2504.4,-97 2516.47,-92.1554 2564,-83 2566.74,-82.473 2569.58,-81.858 2572.4,-81.2015"/>
<polygon fill="green" stroke="green" points="2573.5,-84.5347 2582.36,-78.724 2571.81,-77.7417 2573.5,-84.5347"/>
<text text-anchor="middle" x="2074" y="-100.8" font-family="Times,serif" font-size="14.00">gl_insert</text>
</g>
<!-- q12&#45;&gt;q11 -->
<g id="edge14" class="edge"><title>q12&#45;&gt;q11</title>
<path fill="none" stroke="green" d="M1649.11,-79.1327C1655.29,-75.1888 1662.77,-70.9033 1670,-68 1685.35,-61.8376 1703.42,-57.6578 1717.97,-54.9851"/>
<polygon fill="green" stroke="green" points="1718.59,-58.4304 1727.86,-53.2986 1717.41,-51.5301 1718.59,-58.4304"/>
<text text-anchor="middle" x="1690" y="-71.8" font-family="Times,serif" font-size="14.00">inspect</text>
</g>
<!-- q13 -->
<g id="node15" class="node"><title>q13</title>
<ellipse fill="none" stroke="black" cx="1504" cy="-89" rx="18" ry="18"/>
</g>
<!-- q13&#45;&gt;q12 -->
<g id="edge16" class="edge"><title>q13&#45;&gt;q12</title>
<path fill="none" stroke="green" d="M1522.26,-89C1543.64,-89 1580.31,-89 1605.56,-89"/>
<polygon fill="green" stroke="green" points="1605.6,-92.5001 1615.6,-89 1605.6,-85.5001 1605.6,-92.5001"/>
<text text-anchor="middle" x="1569" y="-92.8" font-family="Times,serif" font-size="14.00">__list_add</text>
</g>
<!-- q14 -->
<g id="node16" class="node"><title>q14</title>
<ellipse fill="none" stroke="black" cx="1388" cy="-89" rx="18" ry="18"/>
</g>
<!-- q14&#45;&gt;q13 -->
<g id="edge17" class="edge"><title>q14&#45;&gt;q13</title>
<path fill="none" stroke="green" d="M1406.31,-89C1424.75,-89 1454.18,-89 1475.74,-89"/>
<polygon fill="green" stroke="green" points="1475.9,-92.5001 1485.9,-89 1475.9,-85.5001 1475.9,-92.5001"/>
<text text-anchor="middle" x="1446" y="-92.8" font-family="Times,serif" font-size="14.00">list_add</text>
</g>
<!-- q15 -->
<g id="node17" class="node"><title>q15</title>
<ellipse fill="none" stroke="green" cx="1268" cy="-120" rx="18" ry="18"/>
</g>
<!-- q15&#45;&gt;q2 -->
<g id="edge18" class="edge"><title>q15&#45;&gt;q2</title>
<path fill="none" stroke="green" d="M1285.72,-123.479C1308.51,-127.91 1350.65,-135 1387,-135 1387,-135 1387,-135 2847,-135 2882.09,-135 2916.46,-110.971 2937.2,-93.076"/>
<polygon fill="green" stroke="green" points="2939.59,-95.6265 2944.7,-86.3443 2934.92,-90.4152 2939.59,-95.6265"/>
<text text-anchor="middle" x="2074" y="-138.8" font-family="Times,serif" font-size="14.00">inspect</text>
</g>
<!-- q15&#45;&gt;q14 -->
<g id="edge19" class="edge"><title>q15&#45;&gt;q14</title>
<path fill="none" stroke="green" d="M1284.82,-112.978C1290.75,-110.529 1297.61,-107.917 1304,-106 1322.38,-100.491 1343.57,-96.1825 1359.95,-93.2815"/>
<polygon fill="green" stroke="green" points="1360.66,-96.7103 1369.93,-91.5799 1359.48,-89.8098 1360.66,-96.7103"/>
<text text-anchor="middle" x="1328" y="-109.8" font-family="Times,serif" font-size="14.00">gl_insert</text>
</g>
<!-- q16 -->
<g id="node18" class="node"><title>q16</title>
<ellipse fill="none" stroke="green" cx="1138" cy="-120" rx="18" ry="18"/>
</g>
<!-- q16&#45;&gt;q15 -->
<g id="edge20" class="edge"><title>q16&#45;&gt;q15</title>
<path fill="none" stroke="green" d="M1156.26,-120C1177.64,-120 1214.31,-120 1239.56,-120"/>
<polygon fill="green" stroke="green" points="1239.6,-123.5 1249.6,-120 1239.6,-116.5 1239.6,-123.5"/>
<text text-anchor="middle" x="1203" y="-123.8" font-family="Times,serif" font-size="14.00">__list_add</text>
</g>
<!-- q17 -->
<g id="node19" class="node"><title>q17</title>
<ellipse fill="none" stroke="green" cx="1022" cy="-120" rx="18" ry="18"/>
</g>
<!-- q17&#45;&gt;q16 -->
<g id="edge21" class="edge"><title>q17&#45;&gt;q16</title>
<path fill="none" stroke="green" d="M1040.31,-120C1058.75,-120 1088.18,-120 1109.74,-120"/>
<polygon fill="green" stroke="green" points="1109.9,-123.5 1119.9,-120 1109.9,-116.5 1109.9,-123.5"/>
<text text-anchor="middle" x="1080" y="-123.8" font-family="Times,serif" font-size="14.00">list_add</text>
</g>
<!-- q18&#45;&gt;q17 -->
<g id="edge22" class="edge"><title>q18&#45;&gt;q17</title>
<path fill="none" stroke="green" d="M920.158,-120C939.472,-120 971.109,-120 993.799,-120"/>
<polygon fill="green" stroke="green" points="993.821,-123.5 1003.82,-120 993.821,-116.5 993.821,-123.5"/>
<text text-anchor="middle" x="962" y="-123.8" font-family="Times,serif" font-size="14.00">gl_insert</text>
</g>
<!-- iq0 -->
<g id="node21" class="node"><title>iq0</title>
</g>
<!-- iq0&#45;&gt;q0 -->
<g id="edge1" class="edge"><title>iq0&#45;&gt;q0</title>
<path fill="none" stroke="blue" d="M393.273,-120C468.245,-120 682.717,-120 759.358,-120"/>
<polygon fill="blue" stroke="blue" points="759.633,-123.5 769.633,-120 759.633,-116.5 759.633,-123.5"/>
</g>
</g>
</svg>
