<?xml version="1.0" encoding="UTF-8" standalone="no"?>
<!DOCTYPE svg PUBLIC "-//W3C//DTD SVG 1.1//EN"
 "http://www.w3.org/Graphics/SVG/1.1/DTD/svg11.dtd">
<!-- Generated by graphviz version 2.34.0 (20141125.1709)
 -->
<!-- Title: finite_automaton Pages: 1 -->
<svg width="576pt" height="16pt"
 viewBox="0.00 0.00 576.00 15.65" xmlns="http://www.w3.org/2000/svg" xmlns:xlink="http://www.w3.org/1999/xlink">
<g id="graph0" class="graph" transform="scale(0.125217 0.125217) rotate(0) translate(4 121)">
<title>finite_automaton</title>
<polygon fill="white" stroke="white" points="-4,4 -4,-121 4596,-121 4596,4 -4,4"/>
<!-- dom_edges -->
<g id="node1" class="node"><title>dom_edges</title>
<polygon fill="none" stroke="green" points="1130,-51 0,-51 0,-15 1130,-15 1130,-51"/>
<text text-anchor="middle" x="565" y="-29.3" font-family="Times,serif" font-size="14.00">Dominating edges: rt_OneStep, DockingApproachExample_Ext, DockingApproachExample_Ext_initialize, DockingApproachExample_Ext_output, DockingApproachExample_Ext_update, Learn_Assert</text>
</g>
<!-- q1 -->
<g id="node2" class="node"><title>q1</title>
<ellipse fill="none" stroke="green" cx="4570" cy="-64" rx="18" ry="18"/>
<ellipse fill="none" stroke="green" cx="4570" cy="-64" rx="22" ry="22"/>
<text text-anchor="middle" x="4570" y="-60.3" font-family="Times,serif" font-size="14.00">D</text>
</g>
<!-- q0 -->
<g id="node3" class="node"><title>q0</title>
<ellipse fill="none" stroke="green" cx="1186" cy="-87" rx="18" ry="18"/>
</g>
<!-- q6 -->
<g id="node8" class="node"><title>q6</title>
<ellipse fill="none" stroke="green" cx="1434" cy="-87" rx="18" ry="18"/>
</g>
<!-- q0&#45;&gt;q6 -->
<g id="edge2" class="edge"><title>q0&#45;&gt;q6</title>
<path fill="none" stroke="green" d="M1204.3,-87C1246.38,-87 1354.37,-87 1405.45,-87"/>
<polygon fill="green" stroke="green" points="1405.72,-90.5001 1415.72,-87 1405.72,-83.5001 1405.72,-90.5001"/>
<text text-anchor="middle" x="1310" y="-90.8" font-family="Times,serif" font-size="14.00">DockingApproachExample_Ext</text>
</g>
<!-- q2 -->
<g id="node4" class="node"><title>q2</title>
<ellipse fill="none" stroke="green" cx="2448" cy="-87" rx="18" ry="18"/>
</g>
<!-- q2&#45;&gt;q1 -->
<g id="edge4" class="edge"><title>q2&#45;&gt;q1</title>
<path fill="none" stroke="green" d="M2466.02,-90.1811C2491.09,-94.5842 2539.48,-102 2581,-102 2581,-102 2581,-102 4421,-102 4463.24,-102 4510.19,-87.2994 4539.65,-76.1851"/>
<polygon fill="green" stroke="green" points="4541.25,-79.3179 4549.3,-72.4334 4538.72,-72.7932 4541.25,-79.3179"/>
<text text-anchor="middle" x="3501" y="-105.8" font-family="Times,serif" font-size="14.00">Learn_Assert</text>
</g>
<!-- q15 -->
<g id="node16" class="node"><title>q15</title>
<ellipse fill="none" stroke="black" cx="2582" cy="-56" rx="18" ry="18"/>
</g>
<!-- q2&#45;&gt;q15 -->
<g id="edge3" class="edge"><title>q2&#45;&gt;q15</title>
<path fill="none" stroke="green" d="M2464.79,-79.8784C2470.72,-77.4189 2477.58,-74.8255 2484,-73 2507.17,-66.4119 2534.22,-61.9259 2553.86,-59.2239"/>
<polygon fill="green" stroke="green" points="2554.48,-62.6732 2563.94,-57.9043 2553.57,-55.7325 2554.48,-62.6732"/>
<text text-anchor="middle" x="2515" y="-76.8" font-family="Times,serif" font-size="14.00">rt_OneStep</text>
</g>
<!-- q3 -->
<g id="node5" class="node"><title>q3</title>
<ellipse fill="none" stroke="green" cx="2158" cy="-87" rx="18" ry="18"/>
</g>
<!-- q3&#45;&gt;q2 -->
<g id="edge5" class="edge"><title>q3&#45;&gt;q2</title>
<path fill="none" stroke="green" d="M2176.15,-87C2224.28,-87 2360.86,-87 2419.59,-87"/>
<polygon fill="green" stroke="green" points="2419.94,-90.5001 2429.94,-87 2419.94,-83.5001 2419.94,-90.5001"/>
<text text-anchor="middle" x="2303" y="-90.8" font-family="Times,serif" font-size="14.00">DockingApproachExample_Ext_update</text>
</g>
<!-- q4 -->
<g id="node6" class="node"><title>q4</title>
<ellipse fill="none" stroke="green" cx="1870" cy="-87" rx="18" ry="18"/>
</g>
<!-- q4&#45;&gt;q3 -->
<g id="edge6" class="edge"><title>q4&#45;&gt;q3</title>
<path fill="none" stroke="green" d="M1888.03,-87C1935.71,-87 2070.82,-87 2129.37,-87"/>
<polygon fill="green" stroke="green" points="2129.69,-90.5001 2139.69,-87 2129.69,-83.5001 2129.69,-90.5001"/>
<text text-anchor="middle" x="2014" y="-90.8" font-family="Times,serif" font-size="14.00">DockingApproachExample_Ext_output</text>
</g>
<!-- q5 -->
<g id="node7" class="node"><title>q5</title>
<ellipse fill="none" stroke="green" cx="1736" cy="-87" rx="18" ry="18"/>
</g>
<!-- q5&#45;&gt;q4 -->
<g id="edge7" class="edge"><title>q5&#45;&gt;q4</title>
<path fill="none" stroke="green" d="M1754.26,-87C1776.49,-87 1815.4,-87 1841.68,-87"/>
<polygon fill="green" stroke="green" points="1841.74,-90.5001 1851.74,-87 1841.74,-83.5001 1841.74,-90.5001"/>
<text text-anchor="middle" x="1803" y="-90.8" font-family="Times,serif" font-size="14.00">rt_OneStep</text>
</g>
<!-- q6&#45;&gt;q5 -->
<g id="edge8" class="edge"><title>q6&#45;&gt;q5</title>
<path fill="none" stroke="green" d="M1452.43,-87C1502.46,-87 1646.85,-87 1707.58,-87"/>
<polygon fill="green" stroke="green" points="1707.9,-90.5001 1717.9,-87 1707.9,-83.5001 1707.9,-90.5001"/>
<text text-anchor="middle" x="1585" y="-90.8" font-family="Times,serif" font-size="14.00">DockingApproachExample_Ext_initialize</text>
</g>
<!-- q8 -->
<g id="node9" class="node"><title>q8</title>
<ellipse fill="none" stroke="black" cx="4420" cy="-18" rx="18" ry="18"/>
</g>
<!-- q8&#45;&gt;q1 -->
<g id="edge9" class="edge"><title>q8&#45;&gt;q1</title>
<path fill="none" stroke="green" d="M4438.31,-18.1617C4460.41,-18.9281 4499.44,-22.1872 4530,-35 4535.16,-37.1616 4540.25,-40.1466 4544.98,-43.384"/>
<polygon fill="green" stroke="green" points="4542.9,-46.202 4553.02,-49.3608 4547.08,-40.5849 4542.9,-46.202"/>
<text text-anchor="middle" x="4493" y="-38.8" font-family="Times,serif" font-size="14.00">Learn_Assert</text>
</g>
<!-- q9 -->
<g id="node10" class="node"><title>q9</title>
<ellipse fill="none" stroke="black" cx="4130" cy="-18" rx="18" ry="18"/>
</g>
<!-- q9&#45;&gt;q8 -->
<g id="edge10" class="edge"><title>q9&#45;&gt;q8</title>
<path fill="none" stroke="green" d="M4148.15,-18C4196.28,-18 4332.86,-18 4391.59,-18"/>
<polygon fill="green" stroke="green" points="4391.94,-21.5001 4401.94,-18 4391.94,-14.5001 4391.94,-21.5001"/>
<text text-anchor="middle" x="4275" y="-21.8" font-family="Times,serif" font-size="14.00">DockingApproachExample_Ext_update</text>
</g>
<!-- q10 -->
<g id="node11" class="node"><title>q10</title>
<ellipse fill="none" stroke="black" cx="3862" cy="-18" rx="18" ry="18"/>
</g>
<!-- q10&#45;&gt;q9 -->
<g id="edge11" class="edge"><title>q10&#45;&gt;q9</title>
<path fill="none" stroke="black" d="M3880.04,-18C3924.98,-18 4046.97,-18 4101.74,-18"/>
<polygon fill="black" stroke="black" points="4101.75,-21.5001 4111.75,-18 4101.75,-14.5001 4101.75,-21.5001"/>
<text text-anchor="middle" x="3996" y="-21.8" font-family="Times,serif" font-size="14.00">DockingAppro_MissionPhaseStates</text>
</g>
<!-- q11 -->
<g id="node12" class="node"><title>q11</title>
<ellipse fill="none" stroke="black" cx="3574" cy="-18" rx="18" ry="18"/>
</g>
<!-- q11&#45;&gt;q10 -->
<g id="edge12" class="edge"><title>q11&#45;&gt;q10</title>
<path fill="none" stroke="green" d="M3592.03,-18C3639.71,-18 3774.82,-18 3833.37,-18"/>
<polygon fill="green" stroke="green" points="3833.69,-21.5001 3843.69,-18 3833.69,-14.5001 3833.69,-21.5001"/>
<text text-anchor="middle" x="3718" y="-21.8" font-family="Times,serif" font-size="14.00">DockingApproachExample_Ext_output</text>
</g>
<!-- q12 -->
<g id="node13" class="node"><title>q12</title>
<ellipse fill="none" stroke="black" cx="3428" cy="-56" rx="18" ry="18"/>
</g>
<!-- q12&#45;&gt;q1 -->
<g id="edge14" class="edge"><title>q12&#45;&gt;q1</title>
<path fill="none" stroke="green" d="M3446.27,-57.5805C3473.28,-59.912 3527.18,-64 3573,-64 3573,-64 3573,-64 4421,-64 4461.28,-64 4507.72,-64 4537.67,-64"/>
<polygon fill="green" stroke="green" points="4537.92,-67.5001 4547.92,-64 4537.92,-60.5001 4537.92,-67.5001"/>
<text text-anchor="middle" x="3996" y="-67.8" font-family="Times,serif" font-size="14.00">Learn_Assert</text>
</g>
<!-- q12&#45;&gt;q11 -->
<g id="edge13" class="edge"><title>q12&#45;&gt;q11</title>
<path fill="none" stroke="green" d="M3443.02,-45.8904C3449.18,-41.9056 3456.67,-37.655 3464,-35 3490.77,-25.3013 3523.21,-21.1341 3545.7,-19.3446"/>
<polygon fill="green" stroke="green" points="3546.14,-22.8226 3555.88,-18.6433 3545.66,-15.8392 3546.14,-22.8226"/>
<text text-anchor="middle" x="3501" y="-38.8" font-family="Times,serif" font-size="14.00">rt_OneStep</text>
</g>
<!-- q13 -->
<g id="node14" class="node"><title>q13</title>
<ellipse fill="none" stroke="black" cx="3138" cy="-56" rx="18" ry="18"/>
</g>
<!-- q13&#45;&gt;q12 -->
<g id="edge15" class="edge"><title>q13&#45;&gt;q12</title>
<path fill="none" stroke="green" d="M3156.15,-56C3204.28,-56 3340.86,-56 3399.59,-56"/>
<polygon fill="green" stroke="green" points="3399.94,-59.5001 3409.94,-56 3399.94,-52.5001 3399.94,-59.5001"/>
<text text-anchor="middle" x="3283" y="-59.8" font-family="Times,serif" font-size="14.00">DockingApproachExample_Ext_update</text>
</g>
<!-- q14 -->
<g id="node15" class="node"><title>q14</title>
<ellipse fill="none" stroke="black" cx="2870" cy="-56" rx="18" ry="18"/>
</g>
<!-- q14&#45;&gt;q13 -->
<g id="edge16" class="edge"><title>q14&#45;&gt;q13</title>
<path fill="none" stroke="black" d="M2888.04,-56C2932.98,-56 3054.97,-56 3109.74,-56"/>
<polygon fill="black" stroke="black" points="3109.75,-59.5001 3119.75,-56 3109.75,-52.5001 3109.75,-59.5001"/>
<text text-anchor="middle" x="3004" y="-59.8" font-family="Times,serif" font-size="14.00">DockingAppro_MissionPhaseStates</text>
</g>
<!-- q15&#45;&gt;q14 -->
<g id="edge17" class="edge"><title>q15&#45;&gt;q14</title>
<path fill="none" stroke="green" d="M2600.03,-56C2647.71,-56 2782.82,-56 2841.37,-56"/>
<polygon fill="green" stroke="green" points="2841.69,-59.5001 2851.69,-56 2841.69,-52.5001 2841.69,-59.5001"/>
<text text-anchor="middle" x="2726" y="-59.8" font-family="Times,serif" font-size="14.00">DockingApproachExample_Ext_output</text>
</g>
<!-- iq0 -->
<g id="node17" class="node"><title>iq0</title>
</g>
<!-- iq0&#45;&gt;q0 -->
<g id="edge1" class="edge"><title>iq0&#45;&gt;q0</title>
<path fill="none" stroke="blue" d="M592.202,-87C693,-87 1055.23,-87 1157.77,-87"/>
<polygon fill="blue" stroke="blue" points="1157.92,-90.5001 1167.92,-87 1157.92,-83.5001 1157.92,-90.5001"/>
</g>
</g>
</svg>
