<?xml version="1.0" encoding="UTF-8" standalone="no"?>
<!DOCTYPE svg PUBLIC "-//W3C//DTD SVG 1.1//EN"
 "http://www.w3.org/Graphics/SVG/1.1/DTD/svg11.dtd">
<!-- Generated by graphviz version 2.34.0 (20141125.1709)
 -->
<!-- Title: finite_automaton Pages: 1 -->
<svg width="576pt" height="15pt"
 viewBox="0.00 0.00 576.00 14.99" xmlns="http://www.w3.org/2000/svg" xmlns:xlink="http://www.w3.org/1999/xlink">
<g id="graph0" class="graph" transform="scale(0.1199 0.1199) rotate(0) translate(4 121)">
<title>finite_automaton</title>
<polygon fill="white" stroke="white" points="-4,4 -4,-121 4800,-121 4800,4 -4,4"/>
<!-- dom_edges -->
<g id="node1" class="node"><title>dom_edges</title>
<polygon fill="none" stroke="green" points="1333.5,-51 0.5,-51 0.5,-15 1333.5,-15 1333.5,-51"/>
<text text-anchor="middle" x="667" y="-29.3" font-family="Times,serif" font-size="14.00">Dominating edges: rt_OneStep, DockingAppro_MissionPhaseStates, DockingApproachExample_Ext, DockingApproachExample_Ext_initialize, DockingApproachExample_Ext_output, DockingApproachExample_Ext_update, Learn_Assert</text>
</g>
<!-- q1 -->
<g id="node2" class="node"><title>q1</title>
<ellipse fill="none" stroke="green" cx="4774" cy="-64" rx="18" ry="18"/>
<ellipse fill="none" stroke="green" cx="4774" cy="-64" rx="22" ry="22"/>
<text text-anchor="middle" x="4774" y="-60.3" font-family="Times,serif" font-size="14.00">D</text>
</g>
<!-- q0 -->
<g id="node3" class="node"><title>q0</title>
<ellipse fill="none" stroke="green" cx="1390" cy="-87" rx="18" ry="18"/>
</g>
<!-- q14 -->
<g id="node16" class="node"><title>q14</title>
<ellipse fill="none" stroke="green" cx="1638" cy="-87" rx="18" ry="18"/>
</g>
<!-- q0&#45;&gt;q14 -->
<g id="edge2" class="edge"><title>q0&#45;&gt;q14</title>
<path fill="none" stroke="green" d="M1408.3,-87C1450.38,-87 1558.37,-87 1609.45,-87"/>
<polygon fill="green" stroke="green" points="1609.72,-90.5001 1619.72,-87 1609.72,-83.5001 1609.72,-90.5001"/>
<text text-anchor="middle" x="1514" y="-90.8" font-family="Times,serif" font-size="14.00">DockingApproachExample_Ext</text>
</g>
<!-- q2 -->
<g id="node4" class="node"><title>q2</title>
<ellipse fill="none" stroke="black" cx="4624" cy="-18" rx="18" ry="18"/>
</g>
<!-- q2&#45;&gt;q1 -->
<g id="edge3" class="edge"><title>q2&#45;&gt;q1</title>
<path fill="none" stroke="green" d="M4642.31,-18.1617C4664.41,-18.9281 4703.44,-22.1872 4734,-35 4739.16,-37.1616 4744.25,-40.1466 4748.98,-43.384"/>
<polygon fill="green" stroke="green" points="4746.9,-46.202 4757.02,-49.3608 4751.08,-40.5849 4746.9,-46.202"/>
<text text-anchor="middle" x="4697" y="-38.8" font-family="Times,serif" font-size="14.00">Learn_Assert</text>
</g>
<!-- q3 -->
<g id="node5" class="node"><title>q3</title>
<ellipse fill="none" stroke="black" cx="4334" cy="-18" rx="18" ry="18"/>
</g>
<!-- q3&#45;&gt;q2 -->
<g id="edge4" class="edge"><title>q3&#45;&gt;q2</title>
<path fill="none" stroke="green" d="M4352.15,-18C4400.28,-18 4536.86,-18 4595.59,-18"/>
<polygon fill="green" stroke="green" points="4595.94,-21.5001 4605.94,-18 4595.94,-14.5001 4595.94,-21.5001"/>
<text text-anchor="middle" x="4479" y="-21.8" font-family="Times,serif" font-size="14.00">DockingApproachExample_Ext_update</text>
</g>
<!-- q4 -->
<g id="node6" class="node"><title>q4</title>
<ellipse fill="none" stroke="black" cx="4066" cy="-18" rx="18" ry="18"/>
</g>
<!-- q4&#45;&gt;q3 -->
<g id="edge5" class="edge"><title>q4&#45;&gt;q3</title>
<path fill="none" stroke="green" d="M4084.04,-18C4128.98,-18 4250.97,-18 4305.74,-18"/>
<polygon fill="green" stroke="green" points="4305.75,-21.5001 4315.75,-18 4305.75,-14.5001 4305.75,-21.5001"/>
<text text-anchor="middle" x="4200" y="-21.8" font-family="Times,serif" font-size="14.00">DockingAppro_MissionPhaseStates</text>
</g>
<!-- q5 -->
<g id="node7" class="node"><title>q5</title>
<ellipse fill="none" stroke="black" cx="3778" cy="-18" rx="18" ry="18"/>
</g>
<!-- q5&#45;&gt;q4 -->
<g id="edge6" class="edge"><title>q5&#45;&gt;q4</title>
<path fill="none" stroke="green" d="M3796.03,-18C3843.71,-18 3978.82,-18 4037.37,-18"/>
<polygon fill="green" stroke="green" points="4037.69,-21.5001 4047.69,-18 4037.69,-14.5001 4037.69,-21.5001"/>
<text text-anchor="middle" x="3922" y="-21.8" font-family="Times,serif" font-size="14.00">DockingApproachExample_Ext_output</text>
</g>
<!-- q6 -->
<g id="node8" class="node"><title>q6</title>
<ellipse fill="none" stroke="black" cx="3632" cy="-56" rx="18" ry="18"/>
</g>
<!-- q6&#45;&gt;q1 -->
<g id="edge8" class="edge"><title>q6&#45;&gt;q1</title>
<path fill="none" stroke="green" d="M3650.27,-57.5805C3677.28,-59.912 3731.18,-64 3777,-64 3777,-64 3777,-64 4625,-64 4665.28,-64 4711.72,-64 4741.67,-64"/>
<polygon fill="green" stroke="green" points="4741.92,-67.5001 4751.92,-64 4741.92,-60.5001 4741.92,-67.5001"/>
<text text-anchor="middle" x="4200" y="-67.8" font-family="Times,serif" font-size="14.00">Learn_Assert</text>
</g>
<!-- q6&#45;&gt;q5 -->
<g id="edge7" class="edge"><title>q6&#45;&gt;q5</title>
<path fill="none" stroke="green" d="M3647.02,-45.8904C3653.18,-41.9056 3660.67,-37.655 3668,-35 3694.77,-25.3013 3727.21,-21.1341 3749.7,-19.3446"/>
<polygon fill="green" stroke="green" points="3750.14,-22.8226 3759.88,-18.6433 3749.66,-15.8392 3750.14,-22.8226"/>
<text text-anchor="middle" x="3705" y="-38.8" font-family="Times,serif" font-size="14.00">rt_OneStep</text>
</g>
<!-- q7 -->
<g id="node9" class="node"><title>q7</title>
<ellipse fill="none" stroke="black" cx="3342" cy="-56" rx="18" ry="18"/>
</g>
<!-- q7&#45;&gt;q6 -->
<g id="edge9" class="edge"><title>q7&#45;&gt;q6</title>
<path fill="none" stroke="green" d="M3360.15,-56C3408.28,-56 3544.86,-56 3603.59,-56"/>
<polygon fill="green" stroke="green" points="3603.94,-59.5001 3613.94,-56 3603.94,-52.5001 3603.94,-59.5001"/>
<text text-anchor="middle" x="3487" y="-59.8" font-family="Times,serif" font-size="14.00">DockingApproachExample_Ext_update</text>
</g>
<!-- q8 -->
<g id="node10" class="node"><title>q8</title>
<ellipse fill="none" stroke="black" cx="3074" cy="-56" rx="18" ry="18"/>
</g>
<!-- q8&#45;&gt;q7 -->
<g id="edge10" class="edge"><title>q8&#45;&gt;q7</title>
<path fill="none" stroke="green" d="M3092.04,-56C3136.98,-56 3258.97,-56 3313.74,-56"/>
<polygon fill="green" stroke="green" points="3313.75,-59.5001 3323.75,-56 3313.75,-52.5001 3313.75,-59.5001"/>
<text text-anchor="middle" x="3208" y="-59.8" font-family="Times,serif" font-size="14.00">DockingAppro_MissionPhaseStates</text>
</g>
<!-- q9 -->
<g id="node11" class="node"><title>q9</title>
<ellipse fill="none" stroke="black" cx="2786" cy="-56" rx="18" ry="18"/>
</g>
<!-- q9&#45;&gt;q8 -->
<g id="edge11" class="edge"><title>q9&#45;&gt;q8</title>
<path fill="none" stroke="green" d="M2804.03,-56C2851.71,-56 2986.82,-56 3045.37,-56"/>
<polygon fill="green" stroke="green" points="3045.69,-59.5001 3055.69,-56 3045.69,-52.5001 3045.69,-59.5001"/>
<text text-anchor="middle" x="2930" y="-59.8" font-family="Times,serif" font-size="14.00">DockingApproachExample_Ext_output</text>
</g>
<!-- q10 -->
<g id="node12" class="node"><title>q10</title>
<ellipse fill="none" stroke="green" cx="2652" cy="-87" rx="18" ry="18"/>
</g>
<!-- q10&#45;&gt;q1 -->
<g id="edge13" class="edge"><title>q10&#45;&gt;q1</title>
<path fill="none" stroke="green" d="M2670.02,-90.1811C2695.09,-94.5842 2743.48,-102 2785,-102 2785,-102 2785,-102 4625,-102 4667.24,-102 4714.19,-87.2994 4743.65,-76.1851"/>
<polygon fill="green" stroke="green" points="4745.25,-79.3179 4753.3,-72.4334 4742.72,-72.7932 4745.25,-79.3179"/>
<text text-anchor="middle" x="3705" y="-105.8" font-family="Times,serif" font-size="14.00">Learn_Assert</text>
</g>
<!-- q10&#45;&gt;q9 -->
<g id="edge12" class="edge"><title>q10&#45;&gt;q9</title>
<path fill="none" stroke="green" d="M2668.79,-79.8784C2674.72,-77.4189 2681.58,-74.8255 2688,-73 2711.17,-66.4119 2738.22,-61.9259 2757.86,-59.2239"/>
<polygon fill="green" stroke="green" points="2758.48,-62.6732 2767.94,-57.9043 2757.57,-55.7325 2758.48,-62.6732"/>
<text text-anchor="middle" x="2719" y="-76.8" font-family="Times,serif" font-size="14.00">rt_OneStep</text>
</g>
<!-- q11 -->
<g id="node13" class="node"><title>q11</title>
<ellipse fill="none" stroke="green" cx="2362" cy="-87" rx="18" ry="18"/>
</g>
<!-- q11&#45;&gt;q10 -->
<g id="edge14" class="edge"><title>q11&#45;&gt;q10</title>
<path fill="none" stroke="green" d="M2380.15,-87C2428.28,-87 2564.86,-87 2623.59,-87"/>
<polygon fill="green" stroke="green" points="2623.94,-90.5001 2633.94,-87 2623.94,-83.5001 2623.94,-90.5001"/>
<text text-anchor="middle" x="2507" y="-90.8" font-family="Times,serif" font-size="14.00">DockingApproachExample_Ext_update</text>
</g>
<!-- q12 -->
<g id="node14" class="node"><title>q12</title>
<ellipse fill="none" stroke="green" cx="2074" cy="-87" rx="18" ry="18"/>
</g>
<!-- q12&#45;&gt;q11 -->
<g id="edge15" class="edge"><title>q12&#45;&gt;q11</title>
<path fill="none" stroke="green" d="M2092.03,-87C2139.71,-87 2274.82,-87 2333.37,-87"/>
<polygon fill="green" stroke="green" points="2333.69,-90.5001 2343.69,-87 2333.69,-83.5001 2333.69,-90.5001"/>
<text text-anchor="middle" x="2218" y="-90.8" font-family="Times,serif" font-size="14.00">DockingApproachExample_Ext_output</text>
</g>
<!-- q13 -->
<g id="node15" class="node"><title>q13</title>
<ellipse fill="none" stroke="green" cx="1940" cy="-87" rx="18" ry="18"/>
</g>
<!-- q13&#45;&gt;q12 -->
<g id="edge16" class="edge"><title>q13&#45;&gt;q12</title>
<path fill="none" stroke="green" d="M1958.26,-87C1980.49,-87 2019.4,-87 2045.68,-87"/>
<polygon fill="green" stroke="green" points="2045.74,-90.5001 2055.74,-87 2045.74,-83.5001 2045.74,-90.5001"/>
<text text-anchor="middle" x="2007" y="-90.8" font-family="Times,serif" font-size="14.00">rt_OneStep</text>
</g>
<!-- q14&#45;&gt;q13 -->
<g id="edge17" class="edge"><title>q14&#45;&gt;q13</title>
<path fill="none" stroke="green" d="M1656.43,-87C1706.46,-87 1850.85,-87 1911.58,-87"/>
<polygon fill="green" stroke="green" points="1911.9,-90.5001 1921.9,-87 1911.9,-83.5001 1911.9,-90.5001"/>
<text text-anchor="middle" x="1789" y="-90.8" font-family="Times,serif" font-size="14.00">DockingApproachExample_Ext_initialize</text>
</g>
<!-- iq0 -->
<g id="node17" class="node"><title>iq0</title>
</g>
<!-- iq0&#45;&gt;q0 -->
<g id="edge1" class="edge"><title>iq0&#45;&gt;q0</title>
<path fill="none" stroke="blue" d="M694.087,-87C806.345,-87 1247.75,-87 1361.92,-87"/>
<polygon fill="blue" stroke="blue" points="1361.93,-90.5001 1371.93,-87 1361.93,-83.5001 1361.93,-90.5001"/>
</g>
</g>
</svg>
