<?xml version="1.0" encoding="UTF-8" standalone="no"?>
<!DOCTYPE svg PUBLIC "-//W3C//DTD SVG 1.1//EN"
 "http://www.w3.org/Graphics/SVG/1.1/DTD/svg11.dtd">
<!-- Generated by graphviz version 2.34.0 (20141125.1709)
 -->
<!-- Title: finite_automaton Pages: 1 -->
<svg width="576pt" height="41pt"
 viewBox="0.00 0.00 576.00 41.14" xmlns="http://www.w3.org/2000/svg" xmlns:xlink="http://www.w3.org/1999/xlink">
<g id="graph0" class="graph" transform="scale(0.163265 0.163265) rotate(0) translate(4 248)">
<title>finite_automaton</title>
<polygon fill="white" stroke="white" points="-4,4 -4,-248 3524,-248 3524,4 -4,4"/>
<!-- dom_edges -->
<g id="node1" class="node"><title>dom_edges</title>
<polygon fill="none" stroke="green" points="2309.5,-36 0.5,-36 0.5,-0 2309.5,-0 2309.5,-36"/>
<text text-anchor="middle" x="1155" y="-14.3" font-family="Times,serif" font-size="14.00">Dominating edges: rt_OneStep, DockingApproach_DockingApproach, DockingAppro_InertialNavigation, DockingApproachExample_Ext, DockingAppr_OrbitalState_Active, D_exit_internal_CaptureApproach, D_exit_internal_DockingApproach, DockingApproachExample_Ext_initialize, DockingApproachExample_Ext_output, DockingApproachExample_Ext_update, enter_internal_OrbitalState_Act, Learn_Assert</text>
</g>
<!-- q1 -->
<g id="node2" class="node"><title>q1</title>
<ellipse fill="none" stroke="green" cx="2920" cy="-222" rx="18" ry="18"/>
<ellipse fill="none" stroke="green" cx="2920" cy="-222" rx="22" ry="22"/>
<text text-anchor="middle" x="2920" y="-218.3" font-family="Times,serif" font-size="14.00">D</text>
</g>
<!-- q0 -->
<g id="node3" class="node"><title>q0</title>
<ellipse fill="none" stroke="green" cx="2366" cy="-72" rx="18" ry="18"/>
</g>
<!-- q8 -->
<g id="node10" class="node"><title>q8</title>
<ellipse fill="none" stroke="green" cx="2614" cy="-72" rx="18" ry="18"/>
</g>
<!-- q0&#45;&gt;q8 -->
<g id="edge2" class="edge"><title>q0&#45;&gt;q8</title>
<path fill="none" stroke="green" d="M2384.3,-72C2426.38,-72 2534.37,-72 2585.45,-72"/>
<polygon fill="green" stroke="green" points="2585.72,-75.5001 2595.72,-72 2585.72,-68.5001 2585.72,-75.5001"/>
<text text-anchor="middle" x="2490" y="-75.8" font-family="Times,serif" font-size="14.00">DockingApproachExample_Ext</text>
</g>
<!-- q2 -->
<g id="node4" class="node"><title>q2</title>
<ellipse fill="none" stroke="green" cx="2614" cy="-164" rx="18" ry="18"/>
</g>
<!-- q2&#45;&gt;q1 -->
<g id="edge4" class="edge"><title>q2&#45;&gt;q1</title>
<path fill="none" stroke="green" d="M2629.46,-173.349C2635.58,-176.897 2642.91,-180.646 2650,-183 2732.99,-210.564 2836.79,-218.658 2887.78,-221.026"/>
<polygon fill="green" stroke="green" points="2887.7,-224.526 2897.84,-221.45 2887.99,-217.532 2887.7,-224.526"/>
<text text-anchor="middle" x="2765" y="-223.8" font-family="Times,serif" font-size="14.00">Learn_Assert</text>
</g>
<!-- q5 -->
<g id="node7" class="node"><title>q5</title>
<ellipse fill="none" stroke="black" cx="2920" cy="-164" rx="18" ry="18"/>
</g>
<!-- q2&#45;&gt;q5 -->
<g id="edge3" class="edge"><title>q2&#45;&gt;q5</title>
<path fill="none" stroke="green" d="M2632.22,-164C2682.69,-164 2830.61,-164 2891.91,-164"/>
<polygon fill="green" stroke="green" points="2891.97,-167.5 2901.97,-164 2891.97,-160.5 2891.97,-167.5"/>
<text text-anchor="middle" x="2765" y="-167.8" font-family="Times,serif" font-size="14.00">rt_OneStep</text>
</g>
<!-- q3 -->
<g id="node5" class="node"><title>q3</title>
<ellipse fill="none" stroke="green" cx="3502" cy="-118" rx="18" ry="18"/>
</g>
<!-- q3&#45;&gt;q2 -->
<g id="edge5" class="edge"><title>q3&#45;&gt;q2</title>
<path fill="none" stroke="green" d="M3483.71,-118.159C3411.83,-118.902 3129.55,-122.628 2898,-137 2803.92,-142.839 2692.7,-154.993 2642.28,-160.79"/>
<polygon fill="green" stroke="green" points="2641.73,-157.331 2632.2,-161.958 2642.53,-164.285 2641.73,-157.331"/>
<text text-anchor="middle" x="3069" y="-136.8" font-family="Times,serif" font-size="14.00">DockingApproachExample_Ext_update</text>
</g>
<!-- q4 -->
<g id="node6" class="node"><title>q4</title>
<ellipse fill="none" stroke="black" cx="3214" cy="-164" rx="18" ry="18"/>
</g>
<!-- q4&#45;&gt;q3 -->
<g id="edge6" class="edge"><title>q4&#45;&gt;q3</title>
<path fill="none" stroke="black" d="M3232.02,-163.316C3272.96,-161.353 3379.89,-154.323 3466,-132 3469.23,-131.162 3472.56,-130.103 3475.83,-128.943"/>
<polygon fill="black" stroke="black" points="3477.2,-132.166 3485.26,-125.285 3474.67,-125.64 3477.2,-132.166"/>
<text text-anchor="middle" x="3358" y="-165.8" font-family="Times,serif" font-size="14.00">DockingAppro_MissionPhaseStates</text>
</g>
<!-- q5&#45;&gt;q4 -->
<g id="edge7" class="edge"><title>q5&#45;&gt;q4</title>
<path fill="none" stroke="green" d="M2938.39,-164C2987.28,-164 3126.24,-164 3185.58,-164"/>
<polygon fill="green" stroke="green" points="3185.7,-167.5 3195.7,-164 3185.7,-160.5 3185.7,-167.5"/>
<text text-anchor="middle" x="3069" y="-167.8" font-family="Times,serif" font-size="14.00">DockingApproachExample_Ext_output</text>
</g>
<!-- q6 -->
<g id="node8" class="node"><title>q6</title>
<ellipse fill="none" stroke="green" cx="3214" cy="-72" rx="18" ry="18"/>
</g>
<!-- q6&#45;&gt;q3 -->
<g id="edge8" class="edge"><title>q6&#45;&gt;q3</title>
<path fill="none" stroke="green" d="M3231.92,-69.6944C3273.54,-64.7434 3383.45,-56.0509 3466,-89 3471.5,-91.194 3476.78,-94.5916 3481.5,-98.2991"/>
<polygon fill="green" stroke="green" points="3479.47,-101.178 3489.31,-105.115 3484.07,-95.9033 3479.47,-101.178"/>
<text text-anchor="middle" x="3358" y="-92.8" font-family="Times,serif" font-size="14.00">DockingApproachExample_Ext_output</text>
</g>
<!-- q7 -->
<g id="node9" class="node"><title>q7</title>
<ellipse fill="none" stroke="green" cx="2920" cy="-72" rx="18" ry="18"/>
</g>
<!-- q7&#45;&gt;q6 -->
<g id="edge9" class="edge"><title>q7&#45;&gt;q6</title>
<path fill="none" stroke="green" d="M2938.39,-72C2987.28,-72 3126.24,-72 3185.58,-72"/>
<polygon fill="green" stroke="green" points="3185.7,-75.5001 3195.7,-72 3185.7,-68.5001 3185.7,-75.5001"/>
<text text-anchor="middle" x="3069" y="-75.8" font-family="Times,serif" font-size="14.00">rt_OneStep</text>
</g>
<!-- q8&#45;&gt;q7 -->
<g id="edge10" class="edge"><title>q8&#45;&gt;q7</title>
<path fill="none" stroke="green" d="M2632.22,-72C2682.69,-72 2830.61,-72 2891.91,-72"/>
<polygon fill="green" stroke="green" points="2891.97,-75.5001 2901.97,-72 2891.97,-68.5001 2891.97,-75.5001"/>
<text text-anchor="middle" x="2765" y="-75.8" font-family="Times,serif" font-size="14.00">DockingApproachExample_Ext_initialize</text>
</g>
<!-- iq0 -->
<g id="node11" class="node"><title>iq0</title>
</g>
<!-- iq0&#45;&gt;q0 -->
<g id="edge1" class="edge"><title>iq0&#45;&gt;q0</title>
<path fill="none" stroke="blue" d="M1182.09,-72C1340.88,-72 2175.86,-72 2337.79,-72"/>
<polygon fill="blue" stroke="blue" points="2337.87,-75.5001 2347.87,-72 2337.87,-68.5001 2337.87,-75.5001"/>
</g>
</g>
</svg>
