<?xml version="1.0" encoding="UTF-8" standalone="no"?>
<!DOCTYPE svg PUBLIC "-//W3C//DTD SVG 1.1//EN"
 "http://www.w3.org/Graphics/SVG/1.1/DTD/svg11.dtd">
<!-- Generated by graphviz version 2.34.0 (20141125.1709)
 -->
<!-- Title: finite_automaton Pages: 1 -->
<svg width="576pt" height="46pt"
 viewBox="0.00 0.00 576.00 45.95" xmlns="http://www.w3.org/2000/svg" xmlns:xlink="http://www.w3.org/1999/xlink">
<g id="graph0" class="graph" transform="scale(0.25109 0.25109) rotate(0) translate(4 179)">
<title>finite_automaton</title>
<polygon fill="white" stroke="white" points="-4,4 -4,-179 2290,-179 2290,4 -4,4"/>
<!-- dom_edges -->
<g id="node1" class="node"><title>dom_edges</title>
<polygon fill="none" stroke="green" points="584,-36 0,-36 0,-0 584,-0 584,-36"/>
<text text-anchor="middle" x="292" y="-14.3" font-family="Times,serif" font-size="14.00">Dominating edges: Exception_handler, if_line_72, else_line_76, if_line_71, else_line_66, Learn_Assert</text>
</g>
<!-- q1 -->
<g id="node2" class="node"><title>q1</title>
<ellipse fill="none" stroke="green" cx="2264" cy="-73" rx="18" ry="18"/>
<ellipse fill="none" stroke="green" cx="2264" cy="-73" rx="22" ry="22"/>
<text text-anchor="middle" x="2264" y="-69.3" font-family="Times,serif" font-size="14.00">D</text>
</g>
<!-- q0 -->
<g id="node3" class="node"><title>q0</title>
<ellipse fill="none" stroke="green" cx="640" cy="-72" rx="18" ry="18"/>
</g>
<!-- q7 -->
<g id="node9" class="node"><title>q7</title>
<ellipse fill="none" stroke="green" cx="782" cy="-72" rx="18" ry="18"/>
</g>
<!-- q0&#45;&gt;q7 -->
<g id="edge2" class="edge"><title>q0&#45;&gt;q7</title>
<path fill="none" stroke="green" d="M658.167,-72C681.993,-72 725.342,-72 753.651,-72"/>
<polygon fill="green" stroke="green" points="753.693,-75.5001 763.693,-72 753.693,-68.5001 753.693,-75.5001"/>
<text text-anchor="middle" x="711" y="-75.8" font-family="Times,serif" font-size="14.00">else_line_66</text>
</g>
<!-- q2 -->
<g id="node4" class="node"><title>q2</title>
<ellipse fill="none" stroke="green" cx="2114" cy="-73" rx="18" ry="18"/>
</g>
<!-- q2&#45;&gt;q1 -->
<g id="edge3" class="edge"><title>q2&#45;&gt;q1</title>
<path fill="none" stroke="green" d="M2132.27,-73C2156.55,-73 2201.2,-73 2231.49,-73"/>
<polygon fill="green" stroke="green" points="2231.55,-76.5001 2241.55,-73 2231.55,-69.5001 2231.55,-76.5001"/>
<text text-anchor="middle" x="2187" y="-76.8" font-family="Times,serif" font-size="14.00">Learn_Assert</text>
</g>
<!-- q3 -->
<g id="node5" class="node"><title>q3</title>
<ellipse fill="none" stroke="green" cx="1938" cy="-73" rx="18" ry="18"/>
</g>
<!-- q3&#45;&gt;q2 -->
<g id="edge4" class="edge"><title>q3&#45;&gt;q2</title>
<path fill="none" stroke="green" d="M1956,-73C1986.15,-73 2049.21,-73 2085.57,-73"/>
<polygon fill="green" stroke="green" points="2085.93,-76.5001 2095.93,-73 2085.93,-69.5001 2085.93,-76.5001"/>
<text text-anchor="middle" x="2026" y="-76.8" font-family="Times,serif" font-size="14.00">Exception_handler</text>
</g>
<!-- q4 -->
<g id="node6" class="node"><title>q4</title>
<ellipse fill="none" stroke="black" cx="1342" cy="-124" rx="18" ry="18"/>
</g>
<!-- q4&#45;&gt;q3 -->
<g id="edge5" class="edge"><title>q4&#45;&gt;q3</title>
<path fill="none" stroke="black" d="M1360.08,-124C1387.34,-124 1442.36,-124 1489,-124 1489,-124 1489,-124 1803,-124 1844.01,-124 1887.74,-102.874 1913.7,-87.8155"/>
<polygon fill="black" stroke="black" points="1915.64,-90.733 1922.42,-82.5927 1912.04,-84.7275 1915.64,-90.733"/>
<text text-anchor="middle" x="1652" y="-127.8" font-family="Times,serif" font-size="14.00">if_line_81</text>
</g>
<!-- q4&#45;&gt;q4 -->
<g id="edge6" class="edge"><title>q4&#45;&gt;q4</title>
<path fill="none" stroke="black" d="M1330.57,-138.042C1326.3,-148.913 1330.11,-160 1342,-160 1350.18,-160 1354.53,-154.759 1355.07,-147.952"/>
<polygon fill="black" stroke="black" points="1358.51,-147.337 1353.43,-138.042 1351.61,-148.479 1358.51,-147.337"/>
<text text-anchor="middle" x="1342" y="-163.8" font-family="Times,serif" font-size="14.00">if_line_77</text>
</g>
<!-- q5 -->
<g id="node7" class="node"><title>q5</title>
<ellipse fill="none" stroke="black" cx="1200" cy="-97" rx="18" ry="18"/>
</g>
<!-- q5&#45;&gt;q4 -->
<g id="edge7" class="edge"><title>q5&#45;&gt;q4</title>
<path fill="none" stroke="black" d="M1217.28,-102.082C1223.14,-103.798 1229.83,-105.625 1236,-107 1262.21,-112.845 1292.53,-117.535 1313.83,-120.497"/>
<polygon fill="black" stroke="black" points="1313.41,-123.972 1323.79,-121.847 1314.35,-117.035 1313.41,-123.972"/>
<text text-anchor="middle" x="1271" y="-122.8" font-family="Times,serif" font-size="14.00">if_line_73</text>
</g>
<!-- q5&#45;&gt;q4 -->
<g id="edge8" class="edge"><title>q5&#45;&gt;q4</title>
<path fill="none" stroke="green" d="M1217.03,-91.1247C1238.27,-84.3204 1276.51,-75.5392 1306,-88 1312.91,-90.9175 1319.12,-95.9376 1324.33,-101.318"/>
<polygon fill="green" stroke="green" points="1322.02,-103.99 1331.21,-109.257 1327.31,-99.4067 1322.02,-103.99"/>
<text text-anchor="middle" x="1271" y="-91.8" font-family="Times,serif" font-size="14.00">else_line_76</text>
</g>
<!-- q6 -->
<g id="node8" class="node"><title>q6</title>
<ellipse fill="none" stroke="green" cx="1058" cy="-66" rx="18" ry="18"/>
</g>
<!-- q6&#45;&gt;q5 -->
<g id="edge9" class="edge"><title>q6&#45;&gt;q5</title>
<path fill="none" stroke="green" d="M1075.89,-69.7393C1099.75,-75.0227 1143.58,-84.7286 1171.99,-91.0198"/>
<polygon fill="green" stroke="green" points="1171.53,-94.5026 1182.05,-93.2474 1173.05,-87.6682 1171.53,-94.5026"/>
<text text-anchor="middle" x="1129" y="-91.8" font-family="Times,serif" font-size="14.00">if_line_72</text>
</g>
<!-- q13 -->
<g id="node14" class="node"><title>q13</title>
<ellipse fill="none" stroke="black" cx="1200" cy="-43" rx="18" ry="18"/>
</g>
<!-- q6&#45;&gt;q13 -->
<g id="edge10" class="edge"><title>q6&#45;&gt;q13</title>
<path fill="none" stroke="black" d="M1075.25,-60.7893C1081.11,-59.0616 1087.81,-57.2601 1094,-56 1120.18,-50.6735 1150.5,-47.2035 1171.81,-45.1996"/>
<polygon fill="black" stroke="black" points="1172.12,-48.6853 1181.77,-44.3076 1171.5,-41.7132 1172.12,-48.6853"/>
<text text-anchor="middle" x="1129" y="-59.8" font-family="Times,serif" font-size="14.00">else_line_99</text>
</g>
<!-- q7&#45;&gt;q6 -->
<g id="edge11" class="edge"><title>q7&#45;&gt;q6</title>
<path fill="none" stroke="green" d="M800.155,-73.2765C839.499,-75.9411 939.211,-81.1978 1022,-73 1024.74,-72.7289 1027.58,-72.3411 1030.41,-71.8855"/>
<polygon fill="green" stroke="green" points="1031.18,-75.3017 1040.37,-70.0241 1029.89,-68.4208 1031.18,-75.3017"/>
<text text-anchor="middle" x="920" y="-80.8" font-family="Times,serif" font-size="14.00">if_line_71</text>
</g>
<!-- q14 -->
<g id="node15" class="node"><title>q14</title>
<ellipse fill="none" stroke="black" cx="920" cy="-33" rx="18" ry="18"/>
</g>
<!-- q7&#45;&gt;q14 -->
<g id="edge12" class="edge"><title>q7&#45;&gt;q14</title>
<path fill="none" stroke="black" d="M798.861,-65.1182C804.799,-62.6846 811.646,-60.0464 818,-58 842.745,-50.0305 871.587,-43.1206 892.1,-38.5976"/>
<polygon fill="black" stroke="black" points="892.967,-41.991 902.002,-36.4569 891.488,-35.1491 892.967,-41.991"/>
<text text-anchor="middle" x="846" y="-61.8" font-family="Times,serif" font-size="14.00">if_line_68</text>
</g>
<!-- q9 -->
<g id="node10" class="node"><title>q9</title>
<ellipse fill="none" stroke="black" cx="1802" cy="-25" rx="18" ry="18"/>
</g>
<!-- q9&#45;&gt;q3 -->
<g id="edge13" class="edge"><title>q9&#45;&gt;q3</title>
<path fill="none" stroke="black" d="M1820.26,-25.7196C1840.67,-27.143 1875.25,-31.3815 1902,-44 1907.26,-46.4829 1912.4,-49.942 1917.04,-53.6089"/>
<polygon fill="black" stroke="black" points="1914.93,-56.4063 1924.8,-60.2675 1919.49,-51.0964 1914.93,-56.4063"/>
<text text-anchor="middle" x="1870" y="-47.8" font-family="Times,serif" font-size="14.00">if_line_115</text>
</g>
<!-- q10 -->
<g id="node11" class="node"><title>q10</title>
<ellipse fill="none" stroke="black" cx="1652" cy="-19" rx="18" ry="18"/>
</g>
<!-- q10&#45;&gt;q9 -->
<g id="edge14" class="edge"><title>q10&#45;&gt;q9</title>
<path fill="none" stroke="black" d="M1670.27,-19.7C1695.67,-20.7297 1743.35,-22.6628 1773.57,-23.888"/>
<polygon fill="black" stroke="black" points="1773.71,-27.3964 1783.84,-24.3044 1773.99,-20.4021 1773.71,-27.3964"/>
<text text-anchor="middle" x="1734" y="-26.8" font-family="Times,serif" font-size="14.00">if_line_114</text>
</g>
<!-- q11 -->
<g id="node12" class="node"><title>q11</title>
<ellipse fill="none" stroke="black" cx="1490" cy="-25" rx="18" ry="18"/>
</g>
<!-- q11&#45;&gt;q10 -->
<g id="edge15" class="edge"><title>q11&#45;&gt;q10</title>
<path fill="none" stroke="black" d="M1508.12,-24.3579C1535.79,-23.3204 1590.56,-21.2663 1623.67,-20.0248"/>
<polygon fill="black" stroke="black" points="1624.14,-23.5099 1634,-19.6375 1623.88,-16.5148 1624.14,-23.5099"/>
<text text-anchor="middle" x="1564" y="-26.8" font-family="Times,serif" font-size="14.00">else_line_113</text>
</g>
<!-- q12 -->
<g id="node13" class="node"><title>q12</title>
<ellipse fill="none" stroke="black" cx="1342" cy="-43" rx="18" ry="18"/>
</g>
<!-- q12&#45;&gt;q3 -->
<g id="edge16" class="edge"><title>q12&#45;&gt;q3</title>
<path fill="none" stroke="black" d="M1358.76,-50.2276C1364.69,-52.6986 1371.55,-55.2721 1378,-57 1426.14,-69.902 1439.16,-73 1489,-73 1489,-73 1489,-73 1803,-73 1839.8,-73 1882.29,-73 1909.39,-73"/>
<polygon fill="black" stroke="black" points="1909.65,-76.5001 1919.65,-73 1909.65,-69.5001 1909.65,-76.5001"/>
<text text-anchor="middle" x="1652" y="-76.8" font-family="Times,serif" font-size="14.00">if_line_101</text>
</g>
<!-- q12&#45;&gt;q11 -->
<g id="edge17" class="edge"><title>q12&#45;&gt;q11</title>
<path fill="none" stroke="black" d="M1360.03,-40.8999C1385.09,-37.8109 1432.13,-32.0116 1461.94,-28.3359"/>
<polygon fill="black" stroke="black" points="1462.58,-31.7841 1472.07,-27.0867 1461.72,-24.8367 1462.58,-31.7841"/>
<text text-anchor="middle" x="1416" y="-41.8" font-family="Times,serif" font-size="14.00">else_line_106</text>
</g>
<!-- q13&#45;&gt;q12 -->
<g id="edge18" class="edge"><title>q13&#45;&gt;q12</title>
<path fill="none" stroke="black" d="M1218.17,-43C1241.99,-43 1285.34,-43 1313.65,-43"/>
<polygon fill="black" stroke="black" points="1313.69,-46.5001 1323.69,-43 1313.69,-39.5001 1313.69,-46.5001"/>
<text text-anchor="middle" x="1271" y="-46.8" font-family="Times,serif" font-size="14.00">if_line_100</text>
</g>
<!-- q14&#45;&gt;q6 -->
<g id="edge19" class="edge"><title>q14&#45;&gt;q6</title>
<path fill="none" stroke="green" d="M937.676,-37.0464C960.821,-42.6626 1002.93,-52.8806 1030.43,-59.5536"/>
<polygon fill="green" stroke="green" points="1029.64,-62.9636 1040.19,-61.9205 1031.29,-56.161 1029.64,-62.9636"/>
<text text-anchor="middle" x="994" y="-60.8" font-family="Times,serif" font-size="14.00">if_line_71</text>
</g>
<!-- iq0 -->
<g id="node16" class="node"><title>iq0</title>
</g>
<!-- iq0&#45;&gt;q0 -->
<g id="edge1" class="edge"><title>iq0&#45;&gt;q0</title>
<path fill="none" stroke="blue" d="M319.006,-72C382.741,-72 546.266,-72 611.515,-72"/>
<polygon fill="blue" stroke="blue" points="611.814,-75.5001 621.814,-72 611.814,-68.5001 611.814,-75.5001"/>
</g>
</g>
</svg>
