<?xml version="1.0" encoding="UTF-8" standalone="no"?>
<!DOCTYPE svg PUBLIC "-//W3C//DTD SVG 1.1//EN"
 "http://www.w3.org/Graphics/SVG/1.1/DTD/svg11.dtd">
<!-- Generated by graphviz version 2.34.0 (20141125.1709)
 -->
<!-- Title: finite_automaton Pages: 1 -->
<svg width="576pt" height="49pt"
 viewBox="0.00 0.00 576.00 48.92" xmlns="http://www.w3.org/2000/svg" xmlns:xlink="http://www.w3.org/1999/xlink">
<g id="graph0" class="graph" transform="scale(0.250871 0.250871) rotate(0) translate(4 191)">
<title>finite_automaton</title>
<polygon fill="white" stroke="white" points="-4,4 -4,-191 2292,-191 2292,4 -4,4"/>
<!-- dom_edges -->
<g id="node1" class="node"><title>dom_edges</title>
<polygon fill="none" stroke="green" points="571.5,-76 0.5,-76 0.5,-40 571.5,-40 571.5,-76"/>
<text text-anchor="middle" x="286" y="-54.3" font-family="Times,serif" font-size="14.00">Dominating edges: Exception_handler, if_line_72, if_line_71, if_line_68, else_line_66, Learn_Assert</text>
</g>
<!-- q1 -->
<g id="node2" class="node"><title>q1</title>
<ellipse fill="none" stroke="green" cx="2266" cy="-95" rx="18" ry="18"/>
<ellipse fill="none" stroke="green" cx="2266" cy="-95" rx="22" ry="22"/>
<text text-anchor="middle" x="2266" y="-91.3" font-family="Times,serif" font-size="14.00">D</text>
</g>
<!-- q0 -->
<g id="node3" class="node"><title>q0</title>
<ellipse fill="none" stroke="green" cx="628" cy="-112" rx="18" ry="18"/>
</g>
<!-- q8 -->
<g id="node10" class="node"><title>q8</title>
<ellipse fill="none" stroke="green" cx="770" cy="-112" rx="18" ry="18"/>
</g>
<!-- q0&#45;&gt;q8 -->
<g id="edge2" class="edge"><title>q0&#45;&gt;q8</title>
<path fill="none" stroke="green" d="M646.167,-112C669.993,-112 713.342,-112 741.651,-112"/>
<polygon fill="green" stroke="green" points="741.693,-115.5 751.693,-112 741.693,-108.5 741.693,-115.5"/>
<text text-anchor="middle" x="699" y="-115.8" font-family="Times,serif" font-size="14.00">else_line_66</text>
</g>
<!-- q2 -->
<g id="node4" class="node"><title>q2</title>
<ellipse fill="none" stroke="green" cx="2116" cy="-95" rx="18" ry="18"/>
</g>
<!-- q2&#45;&gt;q1 -->
<g id="edge3" class="edge"><title>q2&#45;&gt;q1</title>
<path fill="none" stroke="green" d="M2134.27,-95C2158.55,-95 2203.2,-95 2233.49,-95"/>
<polygon fill="green" stroke="green" points="2233.55,-98.5001 2243.55,-95 2233.55,-91.5001 2233.55,-98.5001"/>
<text text-anchor="middle" x="2189" y="-98.8" font-family="Times,serif" font-size="14.00">Learn_Assert</text>
</g>
<!-- q3 -->
<g id="node5" class="node"><title>q3</title>
<ellipse fill="none" stroke="green" cx="1940" cy="-95" rx="18" ry="18"/>
</g>
<!-- q3&#45;&gt;q2 -->
<g id="edge4" class="edge"><title>q3&#45;&gt;q2</title>
<path fill="none" stroke="green" d="M1958,-95C1988.15,-95 2051.21,-95 2087.57,-95"/>
<polygon fill="green" stroke="green" points="2087.93,-98.5001 2097.93,-95 2087.93,-91.5001 2087.93,-98.5001"/>
<text text-anchor="middle" x="2028" y="-98.8" font-family="Times,serif" font-size="14.00">Exception_handler</text>
</g>
<!-- q4 -->
<g id="node6" class="node"><title>q4</title>
<ellipse fill="none" stroke="black" cx="1794" cy="-169" rx="18" ry="18"/>
</g>
<!-- q4&#45;&gt;q3 -->
<g id="edge5" class="edge"><title>q4&#45;&gt;q3</title>
<path fill="none" stroke="black" d="M1811.99,-165.901C1834.43,-161.236 1874.56,-150.878 1904,-132 1910.3,-127.959 1916.26,-122.545 1921.42,-117.107"/>
<polygon fill="black" stroke="black" points="1924.34,-119.089 1928.35,-109.281 1919.1,-114.45 1924.34,-119.089"/>
<text text-anchor="middle" x="1872" y="-161.8" font-family="Times,serif" font-size="14.00">if_line_81</text>
</g>
<!-- q5 -->
<g id="node7" class="node"><title>q5</title>
<ellipse fill="none" stroke="black" cx="1472" cy="-126" rx="18" ry="18"/>
</g>
<!-- q5&#45;&gt;q4 -->
<g id="edge6" class="edge"><title>q5&#45;&gt;q4</title>
<path fill="none" stroke="black" d="M1487.44,-135.418C1493.55,-138.978 1500.89,-142.716 1508,-145 1598.92,-174.209 1714.08,-173.076 1765.75,-170.706"/>
<polygon fill="black" stroke="black" points="1765.97,-174.199 1775.78,-170.191 1765.61,-167.208 1765.97,-174.199"/>
<text text-anchor="middle" x="1634" y="-173.8" font-family="Times,serif" font-size="14.00">if_line_73</text>
</g>
<!-- q10 -->
<g id="node11" class="node"><title>q10</title>
<ellipse fill="none" stroke="black" cx="1634" cy="-126" rx="18" ry="18"/>
</g>
<!-- q5&#45;&gt;q10 -->
<g id="edge7" class="edge"><title>q5&#45;&gt;q10</title>
<path fill="none" stroke="black" d="M1490.12,-126C1517.65,-126 1571.99,-126 1605.15,-126"/>
<polygon fill="black" stroke="black" points="1605.52,-129.5 1615.52,-126 1605.52,-122.5 1605.52,-129.5"/>
<text text-anchor="middle" x="1546" y="-129.8" font-family="Times,serif" font-size="14.00">else_line_76</text>
</g>
<!-- q6 -->
<g id="node8" class="node"><title>q6</title>
<ellipse fill="none" stroke="green" cx="1046" cy="-106" rx="18" ry="18"/>
</g>
<!-- q6&#45;&gt;q5 -->
<g id="edge8" class="edge"><title>q6&#45;&gt;q5</title>
<path fill="none" stroke="green" d="M1064.05,-108.796C1069.74,-109.633 1076.13,-110.469 1082,-111 1217.25,-123.235 1379.84,-125.505 1443.52,-125.915"/>
<polygon fill="green" stroke="green" points="1443.88,-129.417 1453.9,-125.97 1443.92,-122.417 1443.88,-129.417"/>
<text text-anchor="middle" x="1256" y="-125.8" font-family="Times,serif" font-size="14.00">if_line_72</text>
</g>
<!-- q12 -->
<g id="node13" class="node"><title>q12</title>
<ellipse fill="none" stroke="black" cx="1188" cy="-75" rx="18" ry="18"/>
</g>
<!-- q6&#45;&gt;q12 -->
<g id="edge9" class="edge"><title>q6&#45;&gt;q12</title>
<path fill="none" stroke="black" d="M1063.31,-101.044C1069.17,-99.3405 1075.86,-97.489 1082,-96 1108.43,-89.5926 1138.94,-83.6508 1160.24,-79.7347"/>
<polygon fill="black" stroke="black" points="1160.96,-83.1601 1170.18,-77.9309 1159.71,-76.2725 1160.96,-83.1601"/>
<text text-anchor="middle" x="1117" y="-99.8" font-family="Times,serif" font-size="14.00">else_line_99</text>
</g>
<!-- q7 -->
<g id="node9" class="node"><title>q7</title>
<ellipse fill="none" stroke="black" cx="908" cy="-73" rx="18" ry="18"/>
</g>
<!-- q7&#45;&gt;q6 -->
<g id="edge10" class="edge"><title>q7&#45;&gt;q6</title>
<path fill="none" stroke="green" d="M925.676,-77.0464C948.821,-82.6626 990.932,-92.8806 1018.43,-99.5536"/>
<polygon fill="green" stroke="green" points="1017.64,-102.964 1028.19,-101.92 1019.29,-96.161 1017.64,-102.964"/>
<text text-anchor="middle" x="982" y="-100.8" font-family="Times,serif" font-size="14.00">if_line_71</text>
</g>
<!-- q8&#45;&gt;q6 -->
<g id="edge11" class="edge"><title>q8&#45;&gt;q6</title>
<path fill="none" stroke="green" d="M788.155,-113.277C827.499,-115.941 927.211,-121.198 1010,-113 1012.74,-112.729 1015.58,-112.341 1018.41,-111.885"/>
<polygon fill="green" stroke="green" points="1019.18,-115.302 1028.37,-110.024 1017.89,-108.421 1019.18,-115.302"/>
<text text-anchor="middle" x="908" y="-120.8" font-family="Times,serif" font-size="14.00">if_line_71</text>
</g>
<!-- q8&#45;&gt;q7 -->
<g id="edge12" class="edge"><title>q8&#45;&gt;q7</title>
<path fill="none" stroke="green" d="M786.861,-105.118C792.799,-102.685 799.646,-100.046 806,-98 830.745,-90.0305 859.587,-83.1206 880.1,-78.5976"/>
<polygon fill="green" stroke="green" points="880.967,-81.991 890.002,-76.4569 879.488,-75.1491 880.967,-81.991"/>
<text text-anchor="middle" x="834" y="-101.8" font-family="Times,serif" font-size="14.00">if_line_68</text>
</g>
<!-- q10&#45;&gt;q3 -->
<g id="edge13" class="edge"><title>q10&#45;&gt;q3</title>
<path fill="none" stroke="black" d="M1652.22,-124.244C1702.69,-119.097 1850.61,-104.013 1911.91,-97.7626"/>
<polygon fill="black" stroke="black" points="1912.38,-101.233 1921.97,-96.7363 1911.67,-94.2689 1912.38,-101.233"/>
<text text-anchor="middle" x="1794" y="-115.8" font-family="Times,serif" font-size="14.00">if_line_81</text>
</g>
<!-- q10&#45;&gt;q4 -->
<g id="edge14" class="edge"><title>q10&#45;&gt;q4</title>
<path fill="none" stroke="black" d="M1652.03,-129.173C1674.32,-133.493 1714.47,-141.86 1748,-152 1754.4,-153.936 1761.2,-156.323 1767.52,-158.691"/>
<polygon fill="black" stroke="black" points="1766.35,-161.989 1776.94,-162.327 1768.87,-155.459 1766.35,-161.989"/>
<text text-anchor="middle" x="1716" y="-155.8" font-family="Times,serif" font-size="14.00">if_line_77</text>
</g>
<!-- q11 -->
<g id="node12" class="node"><title>q11</title>
<ellipse fill="none" stroke="black" cx="1324" cy="-72" rx="18" ry="18"/>
</g>
<!-- q11&#45;&gt;q3 -->
<g id="edge15" class="edge"><title>q11&#45;&gt;q3</title>
<path fill="none" stroke="black" d="M1342.08,-72C1369.34,-72 1424.36,-72 1471,-72 1471,-72 1471,-72 1795,-72 1836.31,-72 1883.45,-81.3423 1912.22,-88.1187"/>
<polygon fill="black" stroke="black" points="1911.75,-91.6062 1922.29,-90.5654 1913.4,-84.804 1911.75,-91.6062"/>
<text text-anchor="middle" x="1634" y="-75.8" font-family="Times,serif" font-size="14.00">if_line_101</text>
</g>
<!-- q15 -->
<g id="node16" class="node"><title>q15</title>
<ellipse fill="none" stroke="black" cx="1472" cy="-22" rx="18" ry="18"/>
</g>
<!-- q11&#45;&gt;q15 -->
<g id="edge16" class="edge"><title>q11&#45;&gt;q15</title>
<path fill="none" stroke="black" d="M1337.2,-59.2578C1343.48,-53.4325 1351.57,-46.9615 1360,-43 1386.66,-30.4663 1420.25,-25.4111 1443.46,-23.3735"/>
<polygon fill="black" stroke="black" points="1443.92,-26.8486 1453.64,-22.6147 1443.4,-19.868 1443.92,-26.8486"/>
<text text-anchor="middle" x="1398" y="-46.8" font-family="Times,serif" font-size="14.00">else_line_106</text>
</g>
<!-- q12&#45;&gt;q11 -->
<g id="edge17" class="edge"><title>q12&#45;&gt;q11</title>
<path fill="none" stroke="black" d="M1206.24,-74.6139C1228.86,-74.1077 1268.8,-73.2135 1295.58,-72.6139"/>
<polygon fill="black" stroke="black" points="1295.9,-76.1076 1305.82,-72.3846 1295.75,-69.1094 1295.9,-76.1076"/>
<text text-anchor="middle" x="1256" y="-77.8" font-family="Times,serif" font-size="14.00">if_line_100</text>
</g>
<!-- q13 -->
<g id="node14" class="node"><title>q13</title>
<ellipse fill="none" stroke="black" cx="1794" cy="-24" rx="18" ry="18"/>
</g>
<!-- q13&#45;&gt;q3 -->
<g id="edge18" class="edge"><title>q13&#45;&gt;q3</title>
<path fill="none" stroke="black" d="M1812.36,-23.0081C1835.22,-22.5442 1875.8,-24.7053 1904,-43 1913.82,-49.3731 1921.57,-59.5764 1927.26,-69.2638"/>
<polygon fill="black" stroke="black" points="1924.26,-71.0902 1932.07,-78.2517 1930.43,-67.7842 1924.26,-71.0902"/>
<text text-anchor="middle" x="1872" y="-46.8" font-family="Times,serif" font-size="14.00">if_line_115</text>
</g>
<!-- q14 -->
<g id="node15" class="node"><title>q14</title>
<ellipse fill="none" stroke="black" cx="1634" cy="-18" rx="18" ry="18"/>
</g>
<!-- q14&#45;&gt;q13 -->
<g id="edge19" class="edge"><title>q14&#45;&gt;q13</title>
<path fill="none" stroke="black" d="M1652.21,-18.6535C1679.52,-19.6905 1733.01,-21.7217 1765.62,-22.9602"/>
<polygon fill="black" stroke="black" points="1765.69,-26.4652 1775.81,-23.3473 1765.95,-19.4702 1765.69,-26.4652"/>
<text text-anchor="middle" x="1716" y="-26.8" font-family="Times,serif" font-size="14.00">if_line_114</text>
</g>
<!-- q15&#45;&gt;q14 -->
<g id="edge20" class="edge"><title>q15&#45;&gt;q14</title>
<path fill="none" stroke="black" d="M1490.12,-21.5719C1517.79,-20.8802 1572.56,-19.5109 1605.67,-18.6832"/>
<polygon fill="black" stroke="black" points="1606.09,-22.1739 1616,-18.425 1605.92,-15.1761 1606.09,-22.1739"/>
<text text-anchor="middle" x="1546" y="-25.8" font-family="Times,serif" font-size="14.00">else_line_113</text>
</g>
<!-- iq0 -->
<g id="node17" class="node"><title>iq0</title>
</g>
<!-- iq0&#45;&gt;q0 -->
<g id="edge1" class="edge"><title>iq0&#45;&gt;q0</title>
<path fill="none" stroke="blue" d="M313.115,-112C376.028,-112 535.517,-112 599.662,-112"/>
<polygon fill="blue" stroke="blue" points="599.8,-115.5 609.8,-112 599.8,-108.5 599.8,-115.5"/>
</g>
</g>
</svg>
