<?xml version="1.0" encoding="UTF-8" standalone="no"?>
<!DOCTYPE svg PUBLIC "-//W3C//DTD SVG 1.1//EN"
 "http://www.w3.org/Graphics/SVG/1.1/DTD/svg11.dtd">
<!-- Generated by graphviz version 2.34.0 (20141125.1709)
 -->
<!-- Title: finite_automaton Pages: 1 -->
<svg width="576pt" height="44pt"
 viewBox="0.00 0.00 576.00 44.10" xmlns="http://www.w3.org/2000/svg" xmlns:xlink="http://www.w3.org/1999/xlink">
<g id="graph0" class="graph" transform="scale(0.220521 0.220521) rotate(0) translate(4 196)">
<title>finite_automaton</title>
<polygon fill="white" stroke="white" points="-4,4 -4,-196 2608,-196 2608,4 -4,4"/>
<!-- dom_edges -->
<g id="node1" class="node"><title>dom_edges</title>
<polygon fill="none" stroke="green" points="888,-58 0,-58 0,-22 888,-22 888,-58"/>
<text text-anchor="middle" x="444" y="-36.3" font-family="Times,serif" font-size="14.00">Dominating edges: Exception_handler, if_line_71, else_line_99, if_line_114, else_line_113, if_line_68, if_line_100, else_line_106, else_line_66, Learn_Assert</text>
</g>
<!-- q1 -->
<g id="node2" class="node"><title>q1</title>
<ellipse fill="none" stroke="green" cx="2582" cy="-94" rx="18" ry="18"/>
<ellipse fill="none" stroke="green" cx="2582" cy="-94" rx="22" ry="22"/>
<text text-anchor="middle" x="2582" y="-90.3" font-family="Times,serif" font-size="14.00">D</text>
</g>
<!-- q0 -->
<g id="node3" class="node"><title>q0</title>
<ellipse fill="none" stroke="green" cx="944" cy="-94" rx="18" ry="18"/>
</g>
<!-- q11 -->
<g id="node13" class="node"><title>q11</title>
<ellipse fill="none" stroke="green" cx="1086" cy="-94" rx="18" ry="18"/>
</g>
<!-- q0&#45;&gt;q11 -->
<g id="edge2" class="edge"><title>q0&#45;&gt;q11</title>
<path fill="none" stroke="green" d="M962.167,-94C985.993,-94 1029.34,-94 1057.65,-94"/>
<polygon fill="green" stroke="green" points="1057.69,-97.5001 1067.69,-94 1057.69,-90.5001 1057.69,-97.5001"/>
<text text-anchor="middle" x="1015" y="-97.8" font-family="Times,serif" font-size="14.00">else_line_66</text>
</g>
<!-- q2 -->
<g id="node4" class="node"><title>q2</title>
<ellipse fill="none" stroke="green" cx="2432" cy="-94" rx="18" ry="18"/>
</g>
<!-- q2&#45;&gt;q1 -->
<g id="edge3" class="edge"><title>q2&#45;&gt;q1</title>
<path fill="none" stroke="green" d="M2450.27,-94C2474.55,-94 2519.2,-94 2549.49,-94"/>
<polygon fill="green" stroke="green" points="2549.55,-97.5001 2559.55,-94 2549.55,-90.5001 2549.55,-97.5001"/>
<text text-anchor="middle" x="2505" y="-97.8" font-family="Times,serif" font-size="14.00">Learn_Assert</text>
</g>
<!-- q3 -->
<g id="node5" class="node"><title>q3</title>
<ellipse fill="none" stroke="green" cx="2256" cy="-94" rx="18" ry="18"/>
</g>
<!-- q3&#45;&gt;q2 -->
<g id="edge4" class="edge"><title>q3&#45;&gt;q2</title>
<path fill="none" stroke="green" d="M2274,-94C2304.15,-94 2367.21,-94 2403.57,-94"/>
<polygon fill="green" stroke="green" points="2403.93,-97.5001 2413.93,-94 2403.93,-90.5001 2403.93,-97.5001"/>
<text text-anchor="middle" x="2344" y="-97.8" font-family="Times,serif" font-size="14.00">Exception_handler</text>
</g>
<!-- q4 -->
<g id="node6" class="node"><title>q4</title>
<ellipse fill="none" stroke="black" cx="2110" cy="-123" rx="18" ry="18"/>
</g>
<!-- q4&#45;&gt;q3 -->
<g id="edge5" class="edge"><title>q4&#45;&gt;q3</title>
<path fill="none" stroke="black" d="M2127.8,-119.617C2152.51,-114.64 2198.91,-105.296 2228.31,-99.3744"/>
<polygon fill="black" stroke="black" points="2229.19,-102.767 2238.31,-97.3619 2227.81,-95.9051 2229.19,-102.767"/>
<text text-anchor="middle" x="2188" y="-116.8" font-family="Times,serif" font-size="14.00">if_line_115</text>
</g>
<!-- q5 -->
<g id="node7" class="node"><title>q5</title>
<ellipse fill="none" stroke="black" cx="1950" cy="-123" rx="18" ry="18"/>
</g>
<!-- q5&#45;&gt;q4 -->
<g id="edge6" class="edge"><title>q5&#45;&gt;q4</title>
<path fill="none" stroke="green" d="M1968.21,-123C1995.52,-123 2049.01,-123 2081.62,-123"/>
<polygon fill="green" stroke="green" points="2081.81,-126.5 2091.81,-123 2081.81,-119.5 2081.81,-126.5"/>
<text text-anchor="middle" x="2032" y="-126.8" font-family="Times,serif" font-size="14.00">if_line_114</text>
</g>
<!-- q6 -->
<g id="node8" class="node"><title>q6</title>
<ellipse fill="none" stroke="black" cx="1788" cy="-125" rx="18" ry="18"/>
</g>
<!-- q6&#45;&gt;q5 -->
<g id="edge7" class="edge"><title>q6&#45;&gt;q5</title>
<path fill="none" stroke="green" d="M1806.12,-124.786C1833.79,-124.44 1888.56,-123.755 1921.67,-123.342"/>
<polygon fill="green" stroke="green" points="1922.04,-126.837 1932,-123.212 1921.96,-119.838 1922.04,-126.837"/>
<text text-anchor="middle" x="1862" y="-127.8" font-family="Times,serif" font-size="14.00">else_line_113</text>
</g>
<!-- q7 -->
<g id="node9" class="node"><title>q7</title>
<ellipse fill="none" stroke="black" cx="1640" cy="-125" rx="18" ry="18"/>
</g>
<!-- q7&#45;&gt;q3 -->
<g id="edge8" class="edge"><title>q7&#45;&gt;q3</title>
<path fill="none" stroke="black" d="M1655.72,-134.058C1681.39,-148.956 1736.41,-177 1787,-177 1787,-177 1787,-177 2111,-177 2163.41,-177 2177.01,-161.981 2220,-132 2226.47,-127.485 2232.63,-121.584 2237.93,-115.783"/>
<polygon fill="black" stroke="black" points="2240.69,-117.937 2244.56,-108.074 2235.39,-113.371 2240.69,-117.937"/>
<text text-anchor="middle" x="1950" y="-180.8" font-family="Times,serif" font-size="14.00">if_line_101</text>
</g>
<!-- q7&#45;&gt;q6 -->
<g id="edge9" class="edge"><title>q7&#45;&gt;q6</title>
<path fill="none" stroke="green" d="M1658.03,-125C1682.96,-125 1729.63,-125 1759.46,-125"/>
<polygon fill="green" stroke="green" points="1759.62,-128.5 1769.62,-125 1759.62,-121.5 1759.62,-128.5"/>
<text text-anchor="middle" x="1714" y="-128.8" font-family="Times,serif" font-size="14.00">else_line_106</text>
</g>
<!-- q8 -->
<g id="node10" class="node"><title>q8</title>
<ellipse fill="none" stroke="black" cx="1504" cy="-122" rx="18" ry="18"/>
</g>
<!-- q8&#45;&gt;q7 -->
<g id="edge10" class="edge"><title>q8&#45;&gt;q7</title>
<path fill="none" stroke="green" d="M1522.24,-122.386C1544.86,-122.892 1584.8,-123.786 1611.58,-124.386"/>
<polygon fill="green" stroke="green" points="1611.75,-127.891 1621.82,-124.615 1611.9,-120.892 1611.75,-127.891"/>
<text text-anchor="middle" x="1572" y="-127.8" font-family="Times,serif" font-size="14.00">if_line_100</text>
</g>
<!-- q9 -->
<g id="node11" class="node"><title>q9</title>
<ellipse fill="none" stroke="green" cx="1362" cy="-88" rx="18" ry="18"/>
</g>
<!-- q9&#45;&gt;q8 -->
<g id="edge12" class="edge"><title>q9&#45;&gt;q8</title>
<path fill="none" stroke="green" d="M1379.61,-92.0338C1403.5,-97.8361 1447.82,-108.6 1476.33,-115.524"/>
<polygon fill="green" stroke="green" points="1475.87,-119.013 1486.41,-117.971 1477.52,-112.21 1475.87,-119.013"/>
<text text-anchor="middle" x="1433" y="-115.8" font-family="Times,serif" font-size="14.00">else_line_99</text>
</g>
<!-- q15 -->
<g id="node16" class="node"><title>q15</title>
<ellipse fill="none" stroke="black" cx="1788" cy="-71" rx="18" ry="18"/>
</g>
<!-- q9&#45;&gt;q15 -->
<g id="edge11" class="edge"><title>q9&#45;&gt;q15</title>
<path fill="none" stroke="black" d="M1380.15,-87.3125C1445.4,-84.6962 1678.62,-75.3453 1759.3,-72.1105"/>
<polygon fill="black" stroke="black" points="1759.79,-75.5939 1769.64,-71.696 1759.51,-68.5996 1759.79,-75.5939"/>
<text text-anchor="middle" x="1572" y="-83.8" font-family="Times,serif" font-size="14.00">if_line_72</text>
</g>
<!-- q10 -->
<g id="node12" class="node"><title>q10</title>
<ellipse fill="none" stroke="black" cx="1224" cy="-55" rx="18" ry="18"/>
</g>
<!-- q10&#45;&gt;q9 -->
<g id="edge13" class="edge"><title>q10&#45;&gt;q9</title>
<path fill="none" stroke="green" d="M1241.68,-59.0464C1264.82,-64.6626 1306.93,-74.8806 1334.43,-81.5536"/>
<polygon fill="green" stroke="green" points="1333.64,-84.9636 1344.19,-83.9205 1335.29,-78.161 1333.64,-84.9636"/>
<text text-anchor="middle" x="1298" y="-82.8" font-family="Times,serif" font-size="14.00">if_line_71</text>
</g>
<!-- q11&#45;&gt;q9 -->
<g id="edge14" class="edge"><title>q11&#45;&gt;q9</title>
<path fill="none" stroke="green" d="M1104.16,-95.2765C1143.5,-97.9411 1243.21,-103.198 1326,-95 1328.74,-94.7289 1331.58,-94.3411 1334.41,-93.8855"/>
<polygon fill="green" stroke="green" points="1335.18,-97.3017 1344.37,-92.0241 1333.89,-90.4208 1335.18,-97.3017"/>
<text text-anchor="middle" x="1224" y="-102.8" font-family="Times,serif" font-size="14.00">if_line_71</text>
</g>
<!-- q11&#45;&gt;q10 -->
<g id="edge15" class="edge"><title>q11&#45;&gt;q10</title>
<path fill="none" stroke="green" d="M1102.86,-87.1182C1108.8,-84.6846 1115.65,-82.0464 1122,-80 1146.74,-72.0305 1175.59,-65.1206 1196.1,-60.5976"/>
<polygon fill="green" stroke="green" points="1196.97,-63.991 1206,-58.4569 1195.49,-57.1491 1196.97,-63.991"/>
<text text-anchor="middle" x="1150" y="-83.8" font-family="Times,serif" font-size="14.00">if_line_68</text>
</g>
<!-- q13 -->
<g id="node14" class="node"><title>q13</title>
<ellipse fill="none" stroke="black" cx="2110" cy="-69" rx="18" ry="18"/>
</g>
<!-- q13&#45;&gt;q3 -->
<g id="edge16" class="edge"><title>q13&#45;&gt;q3</title>
<path fill="none" stroke="black" d="M2128.3,-68.6042C2150.06,-68.5189 2188.4,-69.7435 2220,-78 2223.47,-78.9058 2227.02,-80.1341 2230.46,-81.5102"/>
<polygon fill="black" stroke="black" points="2229.19,-84.7728 2239.75,-85.6342 2232.03,-78.3757 2229.19,-84.7728"/>
<text text-anchor="middle" x="2188" y="-81.8" font-family="Times,serif" font-size="14.00">if_line_81</text>
</g>
<!-- q14 -->
<g id="node15" class="node"><title>q14</title>
<ellipse fill="none" stroke="black" cx="1950" cy="-18" rx="18" ry="18"/>
</g>
<!-- q14&#45;&gt;q3 -->
<g id="edge17" class="edge"><title>q14&#45;&gt;q3</title>
<path fill="none" stroke="black" d="M1968.08,-16.6307C2001.36,-14.4398 2076.97,-11.8073 2138,-27 2176.98,-36.703 2186.03,-43.5637 2220,-65 2224.92,-68.1058 2229.91,-71.829 2234.52,-75.556"/>
<polygon fill="black" stroke="black" points="2232.42,-78.3598 2242.32,-82.1363 2236.94,-73.011 2232.42,-78.3598"/>
<text text-anchor="middle" x="2110" y="-30.8" font-family="Times,serif" font-size="14.00">if_line_81</text>
</g>
<!-- q14&#45;&gt;q13 -->
<g id="edge18" class="edge"><title>q14&#45;&gt;q13</title>
<path fill="none" stroke="black" d="M1967.94,-20.0977C1990.46,-23.2541 2031.23,-30.2579 2064,-43 2071.4,-45.8773 2079.03,-49.8488 2085.86,-53.8221"/>
<polygon fill="black" stroke="black" points="2084.21,-56.9189 2094.57,-59.1389 2087.86,-50.9431 2084.21,-56.9189"/>
<text text-anchor="middle" x="2032" y="-46.8" font-family="Times,serif" font-size="14.00">if_line_77</text>
</g>
<!-- q15&#45;&gt;q13 -->
<g id="edge19" class="edge"><title>q15&#45;&gt;q13</title>
<path fill="none" stroke="black" d="M1806.2,-70.8925C1858.73,-70.5642 2017.32,-69.573 2081.55,-69.1716"/>
<polygon fill="black" stroke="black" points="2081.73,-72.6706 2091.71,-69.1081 2081.69,-65.6707 2081.73,-72.6706"/>
<text text-anchor="middle" x="1950" y="-73.8" font-family="Times,serif" font-size="14.00">if_line_73</text>
</g>
<!-- q15&#45;&gt;q14 -->
<g id="edge20" class="edge"><title>q15&#45;&gt;q14</title>
<path fill="none" stroke="black" d="M1801.29,-58.7438C1807.59,-53.1304 1815.68,-46.8784 1824,-43 1855.42,-28.3591 1895.18,-22.2753 1921.32,-19.7582"/>
<polygon fill="black" stroke="black" points="1921.95,-23.217 1931.62,-18.8833 1921.36,-16.2421 1921.95,-23.217"/>
<text text-anchor="middle" x="1862" y="-46.8" font-family="Times,serif" font-size="14.00">else_line_76</text>
</g>
<!-- iq0 -->
<g id="node17" class="node"><title>iq0</title>
</g>
<!-- iq0&#45;&gt;q0 -->
<g id="edge1" class="edge"><title>iq0&#45;&gt;q0</title>
<path fill="none" stroke="blue" d="M471.073,-94C556.671,-94 828.585,-94 915.798,-94"/>
<polygon fill="blue" stroke="blue" points="915.946,-97.5001 925.946,-94 915.946,-90.5001 915.946,-97.5001"/>
</g>
</g>
</svg>
