<?xml version="1.0" encoding="UTF-8" standalone="no"?>
<!DOCTYPE svg PUBLIC "-//W3C//DTD SVG 1.1//EN"
 "http://www.w3.org/Graphics/SVG/1.1/DTD/svg11.dtd">
<!-- Generated by graphviz version 2.34.0 (20141125.1709)
 -->
<!-- Title: finite_automaton Pages: 1 -->
<svg width="576pt" height="48pt"
 viewBox="0.00 0.00 576.00 48.44" xmlns="http://www.w3.org/2000/svg" xmlns:xlink="http://www.w3.org/1999/xlink">
<g id="graph0" class="graph" transform="scale(0.24222 0.24222) rotate(0) translate(4 196)">
<title>finite_automaton</title>
<polygon fill="white" stroke="white" points="-4,4 -4,-196 2374,-196 2374,4 -4,4"/>
<!-- dom_edges -->
<g id="node1" class="node"><title>dom_edges</title>
<polygon fill="none" stroke="green" points="653.5,-58 0.5,-58 0.5,-22 653.5,-22 653.5,-58"/>
<text text-anchor="middle" x="327" y="-36.3" font-family="Times,serif" font-size="14.00">Dominating edges: Exception_handler, if_line_71, else_line_99, if_line_68, if_line_100, else_line_66, Learn_Assert</text>
</g>
<!-- q1 -->
<g id="node2" class="node"><title>q1</title>
<ellipse fill="none" stroke="green" cx="2348" cy="-94" rx="18" ry="18"/>
<ellipse fill="none" stroke="green" cx="2348" cy="-94" rx="22" ry="22"/>
<text text-anchor="middle" x="2348" y="-90.3" font-family="Times,serif" font-size="14.00">D</text>
</g>
<!-- q0 -->
<g id="node3" class="node"><title>q0</title>
<ellipse fill="none" stroke="green" cx="710" cy="-94" rx="18" ry="18"/>
</g>
<!-- q8 -->
<g id="node10" class="node"><title>q8</title>
<ellipse fill="none" stroke="green" cx="852" cy="-94" rx="18" ry="18"/>
</g>
<!-- q0&#45;&gt;q8 -->
<g id="edge2" class="edge"><title>q0&#45;&gt;q8</title>
<path fill="none" stroke="green" d="M728.167,-94C751.993,-94 795.342,-94 823.651,-94"/>
<polygon fill="green" stroke="green" points="823.693,-97.5001 833.693,-94 823.693,-90.5001 823.693,-97.5001"/>
<text text-anchor="middle" x="781" y="-97.8" font-family="Times,serif" font-size="14.00">else_line_66</text>
</g>
<!-- q2 -->
<g id="node4" class="node"><title>q2</title>
<ellipse fill="none" stroke="green" cx="2198" cy="-94" rx="18" ry="18"/>
</g>
<!-- q2&#45;&gt;q1 -->
<g id="edge3" class="edge"><title>q2&#45;&gt;q1</title>
<path fill="none" stroke="green" d="M2216.27,-94C2240.55,-94 2285.2,-94 2315.49,-94"/>
<polygon fill="green" stroke="green" points="2315.55,-97.5001 2325.55,-94 2315.55,-90.5001 2315.55,-97.5001"/>
<text text-anchor="middle" x="2271" y="-97.8" font-family="Times,serif" font-size="14.00">Learn_Assert</text>
</g>
<!-- q3 -->
<g id="node5" class="node"><title>q3</title>
<ellipse fill="none" stroke="green" cx="2022" cy="-94" rx="18" ry="18"/>
</g>
<!-- q3&#45;&gt;q2 -->
<g id="edge4" class="edge"><title>q3&#45;&gt;q2</title>
<path fill="none" stroke="green" d="M2040,-94C2070.15,-94 2133.21,-94 2169.57,-94"/>
<polygon fill="green" stroke="green" points="2169.93,-97.5001 2179.93,-94 2169.93,-90.5001 2169.93,-97.5001"/>
<text text-anchor="middle" x="2110" y="-97.8" font-family="Times,serif" font-size="14.00">Exception_handler</text>
</g>
<!-- q4 -->
<g id="node6" class="node"><title>q4</title>
<ellipse fill="none" stroke="black" cx="1406" cy="-125" rx="18" ry="18"/>
</g>
<!-- q4&#45;&gt;q3 -->
<g id="edge5" class="edge"><title>q4&#45;&gt;q3</title>
<path fill="none" stroke="black" d="M1421.72,-134.058C1447.39,-148.956 1502.41,-177 1553,-177 1553,-177 1553,-177 1877,-177 1929.41,-177 1943.01,-161.981 1986,-132 1992.47,-127.485 1998.63,-121.584 2003.93,-115.783"/>
<polygon fill="black" stroke="black" points="2006.69,-117.937 2010.56,-108.074 2001.39,-113.371 2006.69,-117.937"/>
<text text-anchor="middle" x="1716" y="-180.8" font-family="Times,serif" font-size="14.00">if_line_101</text>
</g>
<!-- q15 -->
<g id="node16" class="node"><title>q15</title>
<ellipse fill="none" stroke="black" cx="1554" cy="-125" rx="18" ry="18"/>
</g>
<!-- q4&#45;&gt;q15 -->
<g id="edge6" class="edge"><title>q4&#45;&gt;q15</title>
<path fill="none" stroke="black" d="M1424.03,-125C1448.96,-125 1495.63,-125 1525.46,-125"/>
<polygon fill="black" stroke="black" points="1525.62,-128.5 1535.62,-125 1525.62,-121.5 1525.62,-128.5"/>
<text text-anchor="middle" x="1480" y="-128.8" font-family="Times,serif" font-size="14.00">else_line_106</text>
</g>
<!-- q5 -->
<g id="node7" class="node"><title>q5</title>
<ellipse fill="none" stroke="black" cx="1270" cy="-122" rx="18" ry="18"/>
</g>
<!-- q5&#45;&gt;q4 -->
<g id="edge7" class="edge"><title>q5&#45;&gt;q4</title>
<path fill="none" stroke="green" d="M1288.24,-122.386C1310.86,-122.892 1350.8,-123.786 1377.58,-124.386"/>
<polygon fill="green" stroke="green" points="1377.75,-127.891 1387.82,-124.615 1377.9,-120.892 1377.75,-127.891"/>
<text text-anchor="middle" x="1338" y="-127.8" font-family="Times,serif" font-size="14.00">if_line_100</text>
</g>
<!-- q6 -->
<g id="node8" class="node"><title>q6</title>
<ellipse fill="none" stroke="green" cx="1128" cy="-88" rx="18" ry="18"/>
</g>
<!-- q6&#45;&gt;q5 -->
<g id="edge9" class="edge"><title>q6&#45;&gt;q5</title>
<path fill="none" stroke="green" d="M1145.61,-92.0338C1169.5,-97.8361 1213.82,-108.6 1242.33,-115.524"/>
<polygon fill="green" stroke="green" points="1241.87,-119.013 1252.41,-117.971 1243.52,-112.21 1241.87,-119.013"/>
<text text-anchor="middle" x="1199" y="-115.8" font-family="Times,serif" font-size="14.00">else_line_99</text>
</g>
<!-- q12 -->
<g id="node13" class="node"><title>q12</title>
<ellipse fill="none" stroke="black" cx="1554" cy="-71" rx="18" ry="18"/>
</g>
<!-- q6&#45;&gt;q12 -->
<g id="edge8" class="edge"><title>q6&#45;&gt;q12</title>
<path fill="none" stroke="black" d="M1146.15,-87.3125C1211.4,-84.6962 1444.62,-75.3453 1525.3,-72.1105"/>
<polygon fill="black" stroke="black" points="1525.79,-75.5939 1535.64,-71.696 1525.51,-68.5996 1525.79,-75.5939"/>
<text text-anchor="middle" x="1338" y="-83.8" font-family="Times,serif" font-size="14.00">if_line_72</text>
</g>
<!-- q7 -->
<g id="node9" class="node"><title>q7</title>
<ellipse fill="none" stroke="black" cx="990" cy="-55" rx="18" ry="18"/>
</g>
<!-- q7&#45;&gt;q6 -->
<g id="edge10" class="edge"><title>q7&#45;&gt;q6</title>
<path fill="none" stroke="green" d="M1007.68,-59.0464C1030.82,-64.6626 1072.93,-74.8806 1100.43,-81.5536"/>
<polygon fill="green" stroke="green" points="1099.64,-84.9636 1110.19,-83.9205 1101.29,-78.161 1099.64,-84.9636"/>
<text text-anchor="middle" x="1064" y="-82.8" font-family="Times,serif" font-size="14.00">if_line_71</text>
</g>
<!-- q8&#45;&gt;q6 -->
<g id="edge11" class="edge"><title>q8&#45;&gt;q6</title>
<path fill="none" stroke="green" d="M870.155,-95.2765C909.499,-97.9411 1009.21,-103.198 1092,-95 1094.74,-94.7289 1097.58,-94.3411 1100.41,-93.8855"/>
<polygon fill="green" stroke="green" points="1101.18,-97.3017 1110.37,-92.0241 1099.89,-90.4208 1101.18,-97.3017"/>
<text text-anchor="middle" x="990" y="-102.8" font-family="Times,serif" font-size="14.00">if_line_71</text>
</g>
<!-- q8&#45;&gt;q7 -->
<g id="edge12" class="edge"><title>q8&#45;&gt;q7</title>
<path fill="none" stroke="green" d="M868.861,-87.1182C874.799,-84.6846 881.646,-82.0464 888,-80 912.745,-72.0305 941.587,-65.1206 962.1,-60.5976"/>
<polygon fill="green" stroke="green" points="962.967,-63.991 972.002,-58.4569 961.488,-57.1491 962.967,-63.991"/>
<text text-anchor="middle" x="916" y="-83.8" font-family="Times,serif" font-size="14.00">if_line_68</text>
</g>
<!-- q10 -->
<g id="node11" class="node"><title>q10</title>
<ellipse fill="none" stroke="black" cx="1876" cy="-69" rx="18" ry="18"/>
</g>
<!-- q10&#45;&gt;q3 -->
<g id="edge13" class="edge"><title>q10&#45;&gt;q3</title>
<path fill="none" stroke="black" d="M1894.3,-68.6042C1916.06,-68.5189 1954.4,-69.7435 1986,-78 1989.47,-78.9058 1993.02,-80.1341 1996.46,-81.5102"/>
<polygon fill="black" stroke="black" points="1995.19,-84.7728 2005.75,-85.6342 1998.03,-78.3757 1995.19,-84.7728"/>
<text text-anchor="middle" x="1954" y="-81.8" font-family="Times,serif" font-size="14.00">if_line_81</text>
</g>
<!-- q11 -->
<g id="node12" class="node"><title>q11</title>
<ellipse fill="none" stroke="black" cx="1716" cy="-18" rx="18" ry="18"/>
</g>
<!-- q11&#45;&gt;q3 -->
<g id="edge14" class="edge"><title>q11&#45;&gt;q3</title>
<path fill="none" stroke="black" d="M1734.08,-16.6307C1767.36,-14.4398 1842.97,-11.8073 1904,-27 1942.98,-36.703 1952.03,-43.5637 1986,-65 1990.92,-68.1058 1995.91,-71.829 2000.52,-75.556"/>
<polygon fill="black" stroke="black" points="1998.42,-78.3598 2008.32,-82.1363 2002.94,-73.011 1998.42,-78.3598"/>
<text text-anchor="middle" x="1876" y="-30.8" font-family="Times,serif" font-size="14.00">if_line_81</text>
</g>
<!-- q11&#45;&gt;q10 -->
<g id="edge15" class="edge"><title>q11&#45;&gt;q10</title>
<path fill="none" stroke="black" d="M1733.94,-20.0977C1756.46,-23.2541 1797.23,-30.2579 1830,-43 1837.4,-45.8773 1845.03,-49.8488 1851.86,-53.8221"/>
<polygon fill="black" stroke="black" points="1850.21,-56.9189 1860.57,-59.1389 1853.86,-50.9431 1850.21,-56.9189"/>
<text text-anchor="middle" x="1798" y="-46.8" font-family="Times,serif" font-size="14.00">if_line_77</text>
</g>
<!-- q12&#45;&gt;q10 -->
<g id="edge16" class="edge"><title>q12&#45;&gt;q10</title>
<path fill="none" stroke="black" d="M1572.2,-70.8925C1624.73,-70.5642 1783.32,-69.573 1847.55,-69.1716"/>
<polygon fill="black" stroke="black" points="1847.73,-72.6706 1857.71,-69.1081 1847.69,-65.6707 1847.73,-72.6706"/>
<text text-anchor="middle" x="1716" y="-73.8" font-family="Times,serif" font-size="14.00">if_line_73</text>
</g>
<!-- q12&#45;&gt;q11 -->
<g id="edge17" class="edge"><title>q12&#45;&gt;q11</title>
<path fill="none" stroke="black" d="M1567.29,-58.7438C1573.59,-53.1304 1581.68,-46.8784 1590,-43 1621.42,-28.3591 1661.18,-22.2753 1687.32,-19.7582"/>
<polygon fill="black" stroke="black" points="1687.95,-23.217 1697.62,-18.8833 1687.36,-16.2421 1687.95,-23.217"/>
<text text-anchor="middle" x="1628" y="-46.8" font-family="Times,serif" font-size="14.00">else_line_76</text>
</g>
<!-- q13 -->
<g id="node14" class="node"><title>q13</title>
<ellipse fill="none" stroke="black" cx="1876" cy="-123" rx="18" ry="18"/>
</g>
<!-- q13&#45;&gt;q3 -->
<g id="edge18" class="edge"><title>q13&#45;&gt;q3</title>
<path fill="none" stroke="black" d="M1893.8,-119.617C1918.51,-114.64 1964.91,-105.296 1994.31,-99.3744"/>
<polygon fill="black" stroke="black" points="1995.19,-102.767 2004.31,-97.3619 1993.81,-95.9051 1995.19,-102.767"/>
<text text-anchor="middle" x="1954" y="-116.8" font-family="Times,serif" font-size="14.00">if_line_115</text>
</g>
<!-- q14 -->
<g id="node15" class="node"><title>q14</title>
<ellipse fill="none" stroke="black" cx="1716" cy="-123" rx="18" ry="18"/>
</g>
<!-- q14&#45;&gt;q13 -->
<g id="edge19" class="edge"><title>q14&#45;&gt;q13</title>
<path fill="none" stroke="black" d="M1734.21,-123C1761.52,-123 1815.01,-123 1847.62,-123"/>
<polygon fill="black" stroke="black" points="1847.81,-126.5 1857.81,-123 1847.81,-119.5 1847.81,-126.5"/>
<text text-anchor="middle" x="1798" y="-126.8" font-family="Times,serif" font-size="14.00">if_line_114</text>
</g>
<!-- q15&#45;&gt;q14 -->
<g id="edge20" class="edge"><title>q15&#45;&gt;q14</title>
<path fill="none" stroke="black" d="M1572.12,-124.786C1599.79,-124.44 1654.56,-123.755 1687.67,-123.342"/>
<polygon fill="black" stroke="black" points="1688.04,-126.837 1698,-123.212 1687.96,-119.838 1688.04,-126.837"/>
<text text-anchor="middle" x="1628" y="-127.8" font-family="Times,serif" font-size="14.00">else_line_113</text>
</g>
<!-- iq0 -->
<g id="node17" class="node"><title>iq0</title>
</g>
<!-- iq0&#45;&gt;q0 -->
<g id="edge1" class="edge"><title>iq0&#45;&gt;q0</title>
<path fill="none" stroke="blue" d="M354.188,-94C423.448,-94 610.958,-94 681.589,-94"/>
<polygon fill="blue" stroke="blue" points="681.885,-97.5001 691.885,-94 681.885,-90.5001 681.885,-97.5001"/>
</g>
</g>
</svg>
