<?xml version="1.0" encoding="UTF-8" standalone="no"?>
<!DOCTYPE svg PUBLIC "-//W3C//DTD SVG 1.1//EN"
 "http://www.w3.org/Graphics/SVG/1.1/DTD/svg11.dtd">
<!-- Generated by graphviz version 2.34.0 (20141125.1709)
 -->
<!-- Title: finite_automaton Pages: 1 -->
<svg width="576pt" height="63pt"
 viewBox="0.00 0.00 576.00 62.71" xmlns="http://www.w3.org/2000/svg" xmlns:xlink="http://www.w3.org/1999/xlink">
<g id="graph0" class="graph" transform="scale(0.340828 0.340828) rotate(0) translate(4 180)">
<title>finite_automaton</title>
<polygon fill="white" stroke="white" points="-4,4 -4,-180 1686,-180 1686,4 -4,4"/>
<!-- dom_edges -->
<g id="node1" class="node"><title>dom_edges</title>
<polygon fill="none" stroke="green" points="627.5,-110 0.5,-110 0.5,-74 627.5,-74 627.5,-110"/>
<text text-anchor="middle" x="314" y="-88.3" font-family="Times,serif" font-size="14.00">Dominating edges: merge_single_node, merge_pair, seq_sort_core, inspect_before, inspect_after, Learn_Assert</text>
</g>
<!-- q1 -->
<g id="node2" class="node"><title>q1</title>
<ellipse fill="none" stroke="green" cx="1660" cy="-93" rx="18" ry="18"/>
<ellipse fill="none" stroke="green" cx="1660" cy="-93" rx="22" ry="22"/>
<text text-anchor="middle" x="1660" y="-89.3" font-family="Times,serif" font-size="14.00">D</text>
</g>
<!-- q0 -->
<g id="node3" class="node"><title>q0</title>
<ellipse fill="none" stroke="green" cx="684" cy="-146" rx="18" ry="18"/>
</g>
<!-- q6 -->
<g id="node8" class="node"><title>q6</title>
<ellipse fill="none" stroke="green" cx="836" cy="-146" rx="18" ry="18"/>
</g>
<!-- q0&#45;&gt;q6 -->
<g id="edge2" class="edge"><title>q0&#45;&gt;q6</title>
<path fill="none" stroke="green" d="M702.207,-146C728.09,-146 777.273,-146 807.974,-146"/>
<polygon fill="green" stroke="green" points="807.994,-149.5 817.994,-146 807.994,-142.5 807.994,-149.5"/>
<text text-anchor="middle" x="760" y="-149.8" font-family="Times,serif" font-size="14.00">inspect_before</text>
</g>
<!-- q2 -->
<g id="node4" class="node"><title>q2</title>
<ellipse fill="none" stroke="green" cx="1510" cy="-93" rx="18" ry="18"/>
</g>
<!-- q2&#45;&gt;q1 -->
<g id="edge3" class="edge"><title>q2&#45;&gt;q1</title>
<path fill="none" stroke="green" d="M1528.27,-93C1552.55,-93 1597.2,-93 1627.49,-93"/>
<polygon fill="green" stroke="green" points="1627.55,-96.5001 1637.55,-93 1627.55,-89.5001 1627.55,-96.5001"/>
<text text-anchor="middle" x="1583" y="-96.8" font-family="Times,serif" font-size="14.00">Learn_Assert</text>
</g>
<!-- q3 -->
<g id="node5" class="node"><title>q3</title>
<ellipse fill="none" stroke="black" cx="1351" cy="-18" rx="18" ry="18"/>
</g>
<!-- q3&#45;&gt;q2 -->
<g id="edge4" class="edge"><title>q3&#45;&gt;q2</title>
<path fill="none" stroke="green" d="M1369.27,-17.6533C1394.37,-17.956 1441.47,-21.6368 1474,-43 1483.3,-49.1074 1490.86,-58.6162 1496.54,-67.7088"/>
<polygon fill="green" stroke="green" points="1493.58,-69.5858 1501.59,-76.5212 1499.66,-66.1048 1493.58,-69.5858"/>
<text text-anchor="middle" x="1439" y="-46.8" font-family="Times,serif" font-size="14.00">inspect_after</text>
</g>
<!-- q4 -->
<g id="node6" class="node"><title>q4</title>
<ellipse fill="none" stroke="black" cx="1137" cy="-69" rx="18" ry="18"/>
</g>
<!-- q4&#45;&gt;q2 -->
<g id="edge6" class="edge"><title>q4&#45;&gt;q2</title>
<path fill="none" stroke="green" d="M1155.4,-70.1254C1214.67,-73.9598 1409.07,-86.5355 1481.49,-91.2202"/>
<polygon fill="green" stroke="green" points="1481.44,-94.7241 1491.64,-91.8771 1481.89,-87.7387 1481.44,-94.7241"/>
<text text-anchor="middle" x="1351" y="-88.8" font-family="Times,serif" font-size="14.00">inspect_after</text>
</g>
<!-- q4&#45;&gt;q3 -->
<g id="edge5" class="edge"><title>q4&#45;&gt;q3</title>
<path fill="none" stroke="green" d="M1152.95,-59.9717C1163.07,-54.2554 1176.92,-47.1787 1190,-43 1235.23,-28.5441 1290.43,-22.2809 1322.75,-19.6924"/>
<polygon fill="green" stroke="green" points="1323.07,-23.1782 1332.79,-18.9489 1322.56,-16.1973 1323.07,-23.1782"/>
<text text-anchor="middle" x="1244" y="-46.8" font-family="Times,serif" font-size="14.00">merge_single_node</text>
</g>
<!-- q5 -->
<g id="node7" class="node"><title>q5</title>
<ellipse fill="none" stroke="black" cx="984" cy="-115" rx="18" ry="18"/>
</g>
<!-- q5&#45;&gt;q2 -->
<g id="edge8" class="edge"><title>q5&#45;&gt;q2</title>
<path fill="none" stroke="green" d="M1002.42,-115.729C1065.91,-118.125 1290.76,-124.336 1474,-101 1476.75,-100.65 1479.59,-100.181 1482.42,-99.6447"/>
<polygon fill="green" stroke="green" points="1483.35,-103.026 1492.38,-97.4987 1481.87,-96.1828 1483.35,-103.026"/>
<text text-anchor="middle" x="1244" y="-121.8" font-family="Times,serif" font-size="14.00">inspect_after</text>
</g>
<!-- q5&#45;&gt;q4 -->
<g id="edge7" class="edge"><title>q5&#45;&gt;q4</title>
<path fill="none" stroke="green" d="M997.13,-102.105C1003.39,-96.2432 1011.49,-89.786 1020,-86 1048.38,-73.3692 1084.15,-69.7566 1108.41,-68.8986"/>
<polygon fill="green" stroke="green" points="1108.76,-72.3919 1118.68,-68.6757 1108.61,-65.3936 1108.76,-72.3919"/>
<text text-anchor="middle" x="1052" y="-89.8" font-family="Times,serif" font-size="14.00">merge_pair</text>
</g>
<!-- q6&#45;&gt;q2 -->
<g id="edge10" class="edge"><title>q6&#45;&gt;q2</title>
<path fill="none" stroke="green" d="M854.024,-148.892C881.204,-153.251 936.116,-161 983,-161 983,-161 983,-161 1352,-161 1409.49,-161 1422.99,-144.526 1474,-118 1478.48,-115.668 1483.04,-112.821 1487.33,-109.895"/>
<polygon fill="green" stroke="green" points="1489.55,-112.607 1495.61,-103.917 1485.45,-106.93 1489.55,-112.607"/>
<text text-anchor="middle" x="1137" y="-164.8" font-family="Times,serif" font-size="14.00">inspect_after</text>
</g>
<!-- q6&#45;&gt;q5 -->
<g id="edge9" class="edge"><title>q6&#45;&gt;q5</title>
<path fill="none" stroke="green" d="M852.767,-138.803C858.695,-136.336 865.56,-133.756 872,-132 899.963,-124.374 932.884,-119.872 955.573,-117.438"/>
<polygon fill="green" stroke="green" points="956.225,-120.89 965.823,-116.404 955.522,-113.925 956.225,-120.89"/>
<text text-anchor="middle" x="910" y="-135.8" font-family="Times,serif" font-size="14.00">seq_sort_core</text>
</g>
<!-- iq0 -->
<g id="node9" class="node"><title>iq0</title>
</g>
<!-- iq0&#45;&gt;q0 -->
<g id="edge1" class="edge"><title>iq0&#45;&gt;q0</title>
<path fill="none" stroke="blue" d="M341.171,-146C408.505,-146 587.248,-146 655.753,-146"/>
<polygon fill="blue" stroke="blue" points="655.767,-149.5 665.767,-146 655.767,-142.5 655.767,-149.5"/>
</g>
</g>
</svg>
