<?xml version="1.0" encoding="UTF-8" standalone="no"?>
<!DOCTYPE svg PUBLIC "-//W3C//DTD SVG 1.1//EN"
 "http://www.w3.org/Graphics/SVG/1.1/DTD/svg11.dtd">
<!-- Generated by graphviz version 2.34.0 (20141125.1709)
 -->
<!-- Title: finite_automaton Pages: 1 -->
<svg width="576pt" height="55pt"
 viewBox="0.00 0.00 576.00 55.45" xmlns="http://www.w3.org/2000/svg" xmlns:xlink="http://www.w3.org/1999/xlink">
<g id="graph0" class="graph" transform="scale(0.447205 0.447205) rotate(0) translate(4 120)">
<title>finite_automaton</title>
<polygon fill="white" stroke="white" points="-4,4 -4,-120 1284,-120 1284,4 -4,4"/>
<!-- dom_edges -->
<g id="node1" class="node"><title>dom_edges</title>
<polygon fill="none" stroke="green" points="361.5,-36 0.5,-36 0.5,-0 361.5,-0 361.5,-36"/>
<text text-anchor="middle" x="181" y="-14.3" font-family="Times,serif" font-size="14.00">Dominating edges: inspect_before, inspect_after, Learn_Assert</text>
</g>
<!-- q1 -->
<g id="node2" class="node"><title>q1</title>
<ellipse fill="none" stroke="green" cx="1258" cy="-80" rx="18" ry="18"/>
<ellipse fill="none" stroke="green" cx="1258" cy="-80" rx="22" ry="22"/>
<text text-anchor="middle" x="1258" y="-76.3" font-family="Times,serif" font-size="14.00">D</text>
</g>
<!-- q0 -->
<g id="node3" class="node"><title>q0</title>
<ellipse fill="none" stroke="green" cx="418" cy="-72" rx="18" ry="18"/>
</g>
<!-- q3 -->
<g id="node5" class="node"><title>q3</title>
<ellipse fill="none" stroke="green" cx="570" cy="-72" rx="18" ry="18"/>
</g>
<!-- q0&#45;&gt;q3 -->
<g id="edge2" class="edge"><title>q0&#45;&gt;q3</title>
<path fill="none" stroke="green" d="M436.207,-72C462.09,-72 511.273,-72 541.974,-72"/>
<polygon fill="green" stroke="green" points="541.994,-75.5001 551.994,-72 541.994,-68.5001 541.994,-75.5001"/>
<text text-anchor="middle" x="494" y="-75.8" font-family="Times,serif" font-size="14.00">inspect_before</text>
</g>
<!-- q2 -->
<g id="node4" class="node"><title>q2</title>
<ellipse fill="none" stroke="green" cx="1108" cy="-80" rx="18" ry="18"/>
</g>
<!-- q2&#45;&gt;q1 -->
<g id="edge3" class="edge"><title>q2&#45;&gt;q1</title>
<path fill="none" stroke="green" d="M1126.27,-80C1150.55,-80 1195.2,-80 1225.49,-80"/>
<polygon fill="green" stroke="green" points="1225.55,-83.5001 1235.55,-80 1225.55,-76.5001 1225.55,-83.5001"/>
<text text-anchor="middle" x="1181" y="-83.8" font-family="Times,serif" font-size="14.00">Learn_Assert</text>
</g>
<!-- q3&#45;&gt;q2 -->
<g id="edge5" class="edge"><title>q3&#45;&gt;q2</title>
<path fill="none" stroke="green" d="M585.396,-81.5594C591.5,-85.1403 598.847,-88.8567 606,-91 646.165,-103.035 658.109,-97.2206 700,-99 826.116,-104.357 857.832,-99.9419 984,-96 1023.13,-94.7774 1033.54,-99.3118 1072,-92 1075.06,-91.4189 1078.21,-90.6281 1081.31,-89.7278"/>
<polygon fill="green" stroke="green" points="1082.46,-93.0346 1090.88,-86.6009 1080.29,-86.381 1082.46,-93.0346"/>
<text text-anchor="middle" x="861" y="-104.8" font-family="Times,serif" font-size="14.00">inspect_after</text>
</g>
<!-- q6 -->
<g id="node7" class="node"><title>q6</title>
<ellipse fill="none" stroke="black" cx="754" cy="-72" rx="18" ry="18"/>
</g>
<!-- q3&#45;&gt;q6 -->
<g id="edge4" class="edge"><title>q3&#45;&gt;q6</title>
<path fill="none" stroke="black" d="M588.122,-72C619.693,-72 687.327,-72 725.432,-72"/>
<polygon fill="black" stroke="black" points="725.791,-75.5001 735.791,-72 725.791,-68.5001 725.791,-75.5001"/>
<text text-anchor="middle" x="644" y="-75.8" font-family="Times,serif" font-size="14.00">seq_sort_core</text>
</g>
<!-- q5 -->
<g id="node6" class="node"><title>q5</title>
<ellipse fill="none" stroke="black" cx="949" cy="-26" rx="18" ry="18"/>
</g>
<!-- q5&#45;&gt;q2 -->
<g id="edge7" class="edge"><title>q5&#45;&gt;q2</title>
<path fill="none" stroke="green" d="M967.001,-26.884C991.36,-28.7134 1037.1,-34.2703 1072,-51 1077.25,-53.5158 1082.38,-56.9888 1087.02,-60.6588"/>
<polygon fill="green" stroke="green" points="1084.91,-63.4564 1094.77,-67.3133 1089.46,-58.1445 1084.91,-63.4564"/>
<text text-anchor="middle" x="1037" y="-54.8" font-family="Times,serif" font-size="14.00">inspect_after</text>
</g>
<!-- q5&#45;&gt;q3 -->
<g id="edge6" class="edge"><title>q5&#45;&gt;q3</title>
<path fill="none" stroke="black" d="M931.004,-24.5467C890.605,-21.4661 785.796,-15.6748 700,-30 662.879,-36.1981 621.84,-51.0218 596.237,-61.2886"/>
<polygon fill="black" stroke="black" points="594.833,-58.081 586.902,-65.1054 597.482,-64.5604 594.833,-58.081"/>
<text text-anchor="middle" x="754" y="-33.8" font-family="Times,serif" font-size="14.00">merge_single_node</text>
</g>
<!-- q6&#45;&gt;q2 -->
<g id="edge9" class="edge"><title>q6&#45;&gt;q2</title>
<path fill="none" stroke="green" d="M772.456,-72.3967C829.473,-73.6926 1010.53,-77.8076 1079.74,-79.3805"/>
<polygon fill="green" stroke="green" points="1079.78,-82.8821 1089.85,-79.6103 1079.94,-75.8839 1079.78,-82.8821"/>
<text text-anchor="middle" x="949" y="-80.8" font-family="Times,serif" font-size="14.00">inspect_after</text>
</g>
<!-- q6&#45;&gt;q5 -->
<g id="edge8" class="edge"><title>q6&#45;&gt;q5</title>
<path fill="none" stroke="black" d="M771.247,-66.7635C785.568,-62.2516 807.044,-55.7363 826,-51 858.341,-42.9192 895.98,-35.5037 920.803,-30.8833"/>
<polygon fill="black" stroke="black" points="921.721,-34.2734 930.923,-29.0226 920.455,-27.3888 921.721,-34.2734"/>
<text text-anchor="middle" x="861" y="-54.8" font-family="Times,serif" font-size="14.00">merge_pair</text>
</g>
<!-- iq0 -->
<g id="node8" class="node"><title>iq0</title>
</g>
<!-- iq0&#45;&gt;q0 -->
<g id="edge1" class="edge"><title>iq0&#45;&gt;q0</title>
<path fill="none" stroke="blue" d="M208.047,-72C252.853,-72 344.092,-72 389.729,-72"/>
<polygon fill="blue" stroke="blue" points="389.778,-75.5001 399.778,-72 389.778,-68.5001 389.778,-75.5001"/>
</g>
</g>
</svg>
