<?xml version="1.0" encoding="UTF-8" standalone="no"?>
<!DOCTYPE svg PUBLIC "-//W3C//DTD SVG 1.1//EN"
 "http://www.w3.org/Graphics/SVG/1.1/DTD/svg11.dtd">
<!-- Generated by graphviz version 2.34.0 (20141125.1709)
 -->
<!-- Title: finite_automaton Pages: 1 -->
<svg width="576pt" height="117pt"
 viewBox="0.00 0.00 576.00 117.09" xmlns="http://www.w3.org/2000/svg" xmlns:xlink="http://www.w3.org/1999/xlink">
<g id="graph0" class="graph" transform="scale(0.200837 0.200837) rotate(0) translate(4 579)">
<title>finite_automaton</title>
<polygon fill="white" stroke="white" points="-4,4 -4,-579 2864,-579 2864,4 -4,4"/>
<!-- dom_edges -->
<g id="node1" class="node"><title>dom_edges</title>
<polygon fill="none" stroke="green" points="361.5,-413 0.5,-413 0.5,-377 361.5,-377 361.5,-413"/>
<text text-anchor="middle" x="181" y="-391.3" font-family="Times,serif" font-size="14.00">Dominating edges: inspect_before, inspect_after, Learn_Assert</text>
</g>
<!-- q1 -->
<g id="node2" class="node"><title>q1</title>
<ellipse fill="none" stroke="green" cx="2838" cy="-309" rx="18" ry="18"/>
<ellipse fill="none" stroke="green" cx="2838" cy="-309" rx="22" ry="22"/>
<text text-anchor="middle" x="2838" y="-305.3" font-family="Times,serif" font-size="14.00">D</text>
</g>
<!-- q0 -->
<g id="node3" class="node"><title>q0</title>
<ellipse fill="none" stroke="green" cx="418" cy="-449" rx="18" ry="18"/>
</g>
<!-- q3 -->
<g id="node5" class="node"><title>q3</title>
<ellipse fill="none" stroke="green" cx="570" cy="-449" rx="18" ry="18"/>
</g>
<!-- q0&#45;&gt;q3 -->
<g id="edge2" class="edge"><title>q0&#45;&gt;q3</title>
<path fill="none" stroke="green" d="M436.207,-449C462.09,-449 511.273,-449 541.974,-449"/>
<polygon fill="green" stroke="green" points="541.994,-452.5 551.994,-449 541.994,-445.5 541.994,-452.5"/>
<text text-anchor="middle" x="494" y="-452.8" font-family="Times,serif" font-size="14.00">inspect_before</text>
</g>
<!-- q2 -->
<g id="node4" class="node"><title>q2</title>
<ellipse fill="none" stroke="green" cx="2688" cy="-309" rx="18" ry="18"/>
</g>
<!-- q2&#45;&gt;q1 -->
<g id="edge3" class="edge"><title>q2&#45;&gt;q1</title>
<path fill="none" stroke="green" d="M2706.27,-309C2730.55,-309 2775.2,-309 2805.49,-309"/>
<polygon fill="green" stroke="green" points="2805.55,-312.5 2815.55,-309 2805.55,-305.5 2805.55,-312.5"/>
<text text-anchor="middle" x="2761" y="-312.8" font-family="Times,serif" font-size="14.00">Learn_Assert</text>
</g>
<!-- q3&#45;&gt;q2 -->
<g id="edge5" class="edge"><title>q3&#45;&gt;q2</title>
<path fill="none" stroke="green" d="M580.695,-463.97C601.629,-494.268 654.273,-560 717,-560 717,-560 717,-560 2530,-560 2591.86,-560 2615.64,-543.048 2652,-493 2669.83,-468.462 2680.26,-381.983 2684.61,-336.864"/>
<polygon fill="green" stroke="green" points="2688.09,-337.144 2685.53,-326.863 2681.12,-336.497 2688.09,-337.144"/>
<text text-anchor="middle" x="1585" y="-563.8" font-family="Times,serif" font-size="14.00">inspect_after</text>
</g>
<!-- q10 -->
<g id="node11" class="node"><title>q10</title>
<ellipse fill="none" stroke="black" cx="718" cy="-449" rx="18" ry="18"/>
</g>
<!-- q3&#45;&gt;q10 -->
<g id="edge4" class="edge"><title>q3&#45;&gt;q10</title>
<path fill="none" stroke="black" d="M588.034,-449C612.955,-449 659.626,-449 689.463,-449"/>
<polygon fill="black" stroke="black" points="689.622,-452.5 699.622,-449 689.622,-445.5 689.622,-452.5"/>
<text text-anchor="middle" x="644" y="-452.8" font-family="Times,serif" font-size="14.00">seq_sort_core</text>
</g>
<!-- q5 -->
<g id="node6" class="node"><title>q5</title>
<ellipse fill="none" stroke="black" cx="2315" cy="-239" rx="18" ry="18"/>
</g>
<!-- q5&#45;&gt;q2 -->
<g id="edge7" class="edge"><title>q5&#45;&gt;q2</title>
<path fill="none" stroke="green" d="M2332.47,-234.619C2372.59,-224.637 2478.35,-202.448 2564,-221 2605.99,-230.095 2618.69,-233.863 2652,-261 2660.19,-267.672 2667.43,-276.689 2673.17,-285.106"/>
<polygon fill="green" stroke="green" points="2670.23,-287.013 2678.58,-293.537 2676.12,-283.231 2670.23,-287.013"/>
<text text-anchor="middle" x="2529" y="-224.8" font-family="Times,serif" font-size="14.00">inspect_after</text>
</g>
<!-- q11 -->
<g id="node12" class="node"><title>q11</title>
<ellipse fill="none" stroke="black" cx="2529" cy="-263" rx="18" ry="18"/>
</g>
<!-- q5&#45;&gt;q11 -->
<g id="edge6" class="edge"><title>q5&#45;&gt;q11</title>
<path fill="none" stroke="black" d="M2332.99,-240.923C2369.66,-245.075 2456.49,-254.905 2500.87,-259.929"/>
<polygon fill="black" stroke="black" points="2500.6,-263.42 2510.93,-261.067 2501.39,-256.465 2500.6,-263.42"/>
<text text-anchor="middle" x="2422" y="-260.8" font-family="Times,serif" font-size="14.00">merge_single_node</text>
</g>
<!-- q6 -->
<g id="node7" class="node"><title>q6</title>
<ellipse fill="none" stroke="black" cx="2101" cy="-333" rx="18" ry="18"/>
</g>
<!-- q6&#45;&gt;q2 -->
<g id="edge9" class="edge"><title>q6&#45;&gt;q2</title>
<path fill="none" stroke="green" d="M2119.29,-335.499C2129.39,-336.832 2142.39,-338.332 2154,-339 2201.92,-341.756 2214.01,-339.984 2262,-339 2435.44,-335.444 2482.36,-359.291 2652,-323 2655.26,-322.302 2658.62,-321.326 2661.89,-320.211"/>
<polygon fill="green" stroke="green" points="2663.25,-323.44 2671.33,-316.587 2660.74,-316.906 2663.25,-323.44"/>
<text text-anchor="middle" x="2422" y="-347.8" font-family="Times,serif" font-size="14.00">inspect_after</text>
</g>
<!-- q6&#45;&gt;q5 -->
<g id="edge8" class="edge"><title>q6&#45;&gt;q5</title>
<path fill="none" stroke="black" d="M2118.94,-329.925C2158.83,-322.639 2255.82,-304.666 2262,-301 2277.51,-291.803 2290.54,-276.239 2299.68,-263.006"/>
<polygon fill="black" stroke="black" points="2302.82,-264.608 2305.37,-254.325 2296.96,-260.772 2302.82,-264.608"/>
<text text-anchor="middle" x="2208" y="-327.8" font-family="Times,serif" font-size="14.00">merge_single_node</text>
</g>
<!-- q7 -->
<g id="node8" class="node"><title>q7</title>
<ellipse fill="none" stroke="black" cx="1925" cy="-331" rx="18" ry="18"/>
</g>
<!-- q7&#45;&gt;q2 -->
<g id="edge12" class="edge"><title>q7&#45;&gt;q2</title>
<path fill="none" stroke="green" d="M1942.26,-336.249C1952.45,-339.398 1965.89,-343.302 1978,-346 2016.65,-354.616 2026.54,-356.683 2066,-360 2286.57,-378.538 2343.93,-378.75 2564,-355 2603.19,-350.771 2616.59,-361.317 2652,-344 2658.54,-340.804 2664.58,-335.894 2669.73,-330.754"/>
<polygon fill="green" stroke="green" points="2672.45,-332.971 2676.61,-323.23 2667.28,-328.247 2672.45,-332.971"/>
<text text-anchor="middle" x="2315" y="-377.8" font-family="Times,serif" font-size="14.00">inspect_after</text>
</g>
<!-- q7&#45;&gt;q6 -->
<g id="edge11" class="edge"><title>q7&#45;&gt;q6</title>
<path fill="none" stroke="black" d="M1943.38,-330.79C1967.04,-330.552 2010.73,-330.284 2048,-331 2055.95,-331.153 2064.58,-331.437 2072.48,-331.744"/>
<polygon fill="black" stroke="black" points="2072.53,-335.249 2082.67,-332.167 2072.83,-328.255 2072.53,-335.249"/>
<text text-anchor="middle" x="2013" y="-334.8" font-family="Times,serif" font-size="14.00">merge_pair</text>
</g>
<!-- q9 -->
<g id="node10" class="node"><title>q9</title>
<ellipse fill="none" stroke="black" cx="1514" cy="-331" rx="18" ry="18"/>
</g>
<!-- q7&#45;&gt;q9 -->
<g id="edge10" class="edge"><title>q7&#45;&gt;q9</title>
<path fill="none" stroke="black" d="M1907.84,-325.103C1864.22,-309.947 1740.48,-271.986 1638,-289 1602.98,-294.814 1564.55,-309.344 1540.13,-319.682"/>
<polygon fill="black" stroke="black" points="1538.66,-316.501 1530.87,-323.682 1541.44,-322.926 1538.66,-316.501"/>
<text text-anchor="middle" x="1692" y="-292.8" font-family="Times,serif" font-size="14.00">merge_single_node</text>
</g>
<!-- q8 -->
<g id="node9" class="node"><title>q8</title>
<ellipse fill="none" stroke="black" cx="1692" cy="-331" rx="18" ry="18"/>
</g>
<!-- q8&#45;&gt;q2 -->
<g id="edge15" class="edge"><title>q8&#45;&gt;q2</title>
<path fill="none" stroke="green" d="M1709.83,-328.387C1743.81,-323.177 1823.09,-311.368 1890,-304 2054.63,-285.872 2096.46,-276.747 2262,-282 2412.5,-286.776 2592.52,-301.041 2659.84,-306.675"/>
<polygon fill="green" stroke="green" points="2659.75,-310.18 2670.01,-307.532 2660.34,-303.204 2659.75,-310.18"/>
<text text-anchor="middle" x="2208" y="-285.8" font-family="Times,serif" font-size="14.00">inspect_after</text>
</g>
<!-- q8&#45;&gt;q6 -->
<g id="edge14" class="edge"><title>q8&#45;&gt;q6</title>
<path fill="none" stroke="black" d="M1709.44,-336.394C1723.7,-340.833 1744.99,-346.884 1764,-350 1888.56,-370.414 1924.38,-375.486 2048,-350 2056.73,-348.2 2066.05,-345.436 2074.35,-342.655"/>
<polygon fill="black" stroke="black" points="2075.58,-345.931 2083.86,-339.32 2073.27,-339.326 2075.58,-345.931"/>
<text text-anchor="middle" x="1925" y="-371.8" font-family="Times,serif" font-size="14.00">merge_pair</text>
</g>
<!-- q8&#45;&gt;q7 -->
<g id="edge13" class="edge"><title>q8&#45;&gt;q7</title>
<path fill="none" stroke="black" d="M1710.36,-331C1750.18,-331 1848.31,-331 1896.46,-331"/>
<polygon fill="black" stroke="black" points="1896.75,-334.5 1906.75,-331 1896.75,-327.5 1896.75,-334.5"/>
<text text-anchor="middle" x="1818" y="-334.8" font-family="Times,serif" font-size="14.00">merge_single_node</text>
</g>
<!-- q9&#45;&gt;q2 -->
<g id="edge17" class="edge"><title>q9&#45;&gt;q2</title>
<path fill="none" stroke="green" d="M1527.37,-343.681C1554.41,-369.974 1621.92,-428 1691,-428 1691,-428 1691,-428 2530,-428 2591.23,-428 2606.93,-405.449 2652,-364 2661.18,-355.553 2668.95,-344.181 2674.81,-333.969"/>
<polygon fill="green" stroke="green" points="2677.97,-335.496 2679.65,-325.035 2671.81,-332.162 2677.97,-335.496"/>
<text text-anchor="middle" x="2101" y="-431.8" font-family="Times,serif" font-size="14.00">inspect_after</text>
</g>
<!-- q9&#45;&gt;q8 -->
<g id="edge16" class="edge"><title>q9&#45;&gt;q8</title>
<path fill="none" stroke="black" d="M1532.2,-331C1562.77,-331 1626.81,-331 1663.54,-331"/>
<polygon fill="black" stroke="black" points="1663.99,-334.5 1673.99,-331 1663.99,-327.5 1663.99,-334.5"/>
<text text-anchor="middle" x="1585" y="-334.8" font-family="Times,serif" font-size="14.00">merge_pair</text>
</g>
<!-- q10&#45;&gt;q2 -->
<g id="edge20" class="edge"><title>q10&#45;&gt;q2</title>
<path fill="none" stroke="green" d="M731.854,-460.733C738.159,-465.995 746.087,-471.921 754,-476 809.736,-504.732 826.294,-517 889,-517 889,-517 889,-517 2530,-517 2592.08,-517 2614.25,-498.281 2652,-449 2676.97,-416.406 2684.31,-368.173 2686.36,-337.679"/>
<polygon fill="green" stroke="green" points="2689.88,-337.477 2686.9,-327.309 2682.89,-337.113 2689.88,-337.477"/>
<text text-anchor="middle" x="1692" y="-520.8" font-family="Times,serif" font-size="14.00">inspect_after</text>
</g>
<!-- q10&#45;&gt;q9 -->
<g id="edge19" class="edge"><title>q10&#45;&gt;q9</title>
<path fill="none" stroke="black" d="M735.77,-453.128C766.131,-460.229 832.32,-474 889,-474 889,-474 889,-474 1315,-474 1396.18,-474 1466.68,-394.021 1497.07,-353.689"/>
<polygon fill="black" stroke="black" points="1499.99,-355.627 1503.1,-345.499 1494.35,-351.476 1499.99,-355.627"/>
<text text-anchor="middle" x="1126" y="-477.8" font-family="Times,serif" font-size="14.00">seq_sort_core</text>
</g>
<!-- q12 -->
<g id="node13" class="node"><title>q12</title>
<ellipse fill="none" stroke="black" cx="890" cy="-325" rx="18" ry="18"/>
</g>
<!-- q10&#45;&gt;q12 -->
<g id="edge18" class="edge"><title>q10&#45;&gt;q12</title>
<path fill="none" stroke="black" d="M723.893,-431.839C729.083,-416.422 738.683,-394.102 754,-380 784.843,-351.604 832.298,-336.927 861.951,-330.105"/>
<polygon fill="black" stroke="black" points="862.97,-333.466 872.007,-327.936 861.494,-326.623 862.97,-333.466"/>
<text text-anchor="middle" x="786" y="-383.8" font-family="Times,serif" font-size="14.00">merge_pair</text>
</g>
<!-- q11&#45;&gt;q2 -->
<g id="edge21" class="edge"><title>q11&#45;&gt;q2</title>
<path fill="none" stroke="green" d="M2547.38,-262.497C2571.79,-262.425 2617.17,-264.646 2652,-280 2657.33,-282.347 2662.49,-285.749 2667.14,-289.403"/>
<polygon fill="green" stroke="green" points="2665.02,-292.2 2674.88,-296.079 2669.59,-286.898 2665.02,-292.2"/>
<text text-anchor="middle" x="2617" y="-283.8" font-family="Times,serif" font-size="14.00">inspect_after</text>
</g>
<!-- q12&#45;&gt;q2 -->
<g id="edge25" class="edge"><title>q12&#45;&gt;q2</title>
<path fill="none" stroke="green" d="M895.673,-307.906C913.706,-246.121 984.85,-38 1125,-38 1125,-38 1125,-38 2530,-38 2589.85,-38 2615.88,-47.2804 2652,-95 2673.8,-123.794 2682.58,-229.622 2685.61,-280.848"/>
<polygon fill="green" stroke="green" points="2682.12,-281.115 2686.18,-290.903 2689.11,-280.723 2682.12,-281.115"/>
<text text-anchor="middle" x="1818" y="-41.8" font-family="Times,serif" font-size="14.00">inspect_after</text>
</g>
<!-- q12&#45;&gt;q9 -->
<g id="edge24" class="edge"><title>q12&#45;&gt;q9</title>
<path fill="none" stroke="black" d="M908.199,-324.544C960.657,-323.221 1123.26,-319.623 1258,-322 1341.03,-323.465 1439.2,-327.611 1485.81,-329.725"/>
<polygon fill="black" stroke="black" points="1485.85,-333.23 1496,-330.192 1486.17,-326.238 1485.85,-333.23"/>
<text text-anchor="middle" x="1220" y="-325.8" font-family="Times,serif" font-size="14.00">seq_sort_core</text>
</g>
<!-- q13 -->
<g id="node14" class="node"><title>q13</title>
<ellipse fill="none" stroke="black" cx="1126" cy="-393" rx="18" ry="18"/>
</g>
<!-- q12&#45;&gt;q13 -->
<g id="edge22" class="edge"><title>q12&#45;&gt;q13</title>
<path fill="none" stroke="black" d="M907.454,-329.782C947.482,-341.414 1050.21,-371.265 1098.79,-385.383"/>
<polygon fill="black" stroke="black" points="1097.98,-388.794 1108.56,-388.224 1099.94,-382.072 1097.98,-388.794"/>
<text text-anchor="middle" x="1016" y="-380.8" font-family="Times,serif" font-size="14.00">merge_single_node</text>
</g>
<!-- q14 -->
<g id="node15" class="node"><title>q14</title>
<ellipse fill="none" stroke="black" cx="1314" cy="-279" rx="18" ry="18"/>
</g>
<!-- q12&#45;&gt;q14 -->
<g id="edge23" class="edge"><title>q12&#45;&gt;q14</title>
<path fill="none" stroke="black" d="M907.863,-321.299C922.209,-318.24 943.385,-313.939 962,-311 1081.77,-292.09 1226.44,-283.281 1285.69,-280.266"/>
<polygon fill="black" stroke="black" points="1285.92,-283.759 1295.74,-279.77 1285.57,-276.768 1285.92,-283.759"/>
<text text-anchor="middle" x="1126" y="-298.8" font-family="Times,serif" font-size="14.00">merge_pair</text>
</g>
<!-- q13&#45;&gt;q2 -->
<g id="edge29" class="edge"><title>q13&#45;&gt;q2</title>
<path fill="none" stroke="green" d="M1143.82,-395.695C1233.06,-409.75 1660.22,-474 2012,-474 2012,-474 2012,-474 2530,-474 2592.08,-474 2611.81,-453.306 2652,-406 2668.76,-386.275 2677.75,-357.893 2682.41,-336.922"/>
<polygon fill="green" stroke="green" points="2685.86,-337.5 2684.41,-327.005 2679,-336.114 2685.86,-337.5"/>
<text text-anchor="middle" x="1925" y="-476.8" font-family="Times,serif" font-size="14.00">inspect_after</text>
</g>
<!-- q13&#45;&gt;q9 -->
<g id="edge28" class="edge"><title>q13&#45;&gt;q9</title>
<path fill="none" stroke="black" d="M1144.01,-391.584C1169.04,-389.409 1217.25,-384.874 1258,-379 1356.36,-364.821 1380.65,-358.966 1478,-339 1480.71,-338.444 1483.54,-337.84 1486.35,-337.222"/>
<polygon fill="black" stroke="black" points="1487.31,-340.593 1496.3,-334.978 1485.77,-333.764 1487.31,-340.593"/>
<text text-anchor="middle" x="1314" y="-380.8" font-family="Times,serif" font-size="14.00">seq_sort_core</text>
</g>
<!-- q13&#45;&gt;q10 -->
<g id="edge26" class="edge"><title>q13&#45;&gt;q10</title>
<path fill="none" stroke="black" d="M1108,-395.345C1044.81,-404.06 823.163,-434.633 745.848,-445.297"/>
<polygon fill="black" stroke="black" points="745.356,-441.831 735.928,-446.665 746.313,-448.766 745.356,-441.831"/>
<text text-anchor="middle" x="890" y="-435.8" font-family="Times,serif" font-size="14.00">merge_single_node</text>
</g>
<!-- q13&#45;&gt;q14 -->
<g id="edge27" class="edge"><title>q13&#45;&gt;q14</title>
<path fill="none" stroke="black" d="M1142.03,-384.068C1152.88,-377.874 1168.02,-369.739 1182,-364 1214.65,-350.598 1228.28,-360.03 1258,-341 1273.71,-330.944 1287.61,-315.178 1297.5,-302.062"/>
<polygon fill="black" stroke="black" points="1300.38,-304.063 1303.41,-293.912 1294.71,-299.956 1300.38,-304.063"/>
<text text-anchor="middle" x="1220" y="-367.8" font-family="Times,serif" font-size="14.00">merge_pair</text>
</g>
<!-- q14&#45;&gt;q2 -->
<g id="edge32" class="edge"><title>q14&#45;&gt;q2</title>
<path fill="none" stroke="green" d="M1330.44,-271.043C1363.18,-254.939 1442.34,-220 1513,-220 1513,-220 1513,-220 2014,-220 2258.48,-220 2320.08,-193.445 2564,-210 2603.38,-212.673 2620.86,-197.739 2652,-222 2670.29,-236.25 2679.06,-261.568 2683.24,-281.23"/>
<polygon fill="green" stroke="green" points="2679.83,-281.989 2685.08,-291.186 2686.71,-280.717 2679.83,-281.989"/>
<text text-anchor="middle" x="2013" y="-223.8" font-family="Times,serif" font-size="14.00">inspect_after</text>
</g>
<!-- q14&#45;&gt;q9 -->
<g id="edge31" class="edge"><title>q14&#45;&gt;q9</title>
<path fill="none" stroke="black" d="M1332.18,-277.17C1363.05,-274.646 1429.2,-272.747 1478,-296 1484.57,-299.129 1490.62,-304.016 1495.78,-309.156"/>
<polygon fill="black" stroke="black" points="1493.33,-311.664 1502.65,-316.693 1498.5,-306.946 1493.33,-311.664"/>
<text text-anchor="middle" x="1424" y="-299.8" font-family="Times,serif" font-size="14.00">seq_sort_core</text>
</g>
<!-- q15 -->
<g id="node16" class="node"><title>q15</title>
<ellipse fill="none" stroke="black" cx="1585" cy="-107" rx="18" ry="18"/>
</g>
<!-- q14&#45;&gt;q15 -->
<g id="edge30" class="edge"><title>q14&#45;&gt;q15</title>
<path fill="none" stroke="black" d="M1321.47,-262.504C1329.92,-242.954 1346.44,-210.569 1370,-191 1427.01,-143.646 1513.91,-120.793 1557.34,-111.812"/>
<polygon fill="black" stroke="black" points="1558.03,-115.244 1567.16,-109.868 1556.67,-108.378 1558.03,-115.244"/>
<text text-anchor="middle" x="1424" y="-194.8" font-family="Times,serif" font-size="14.00">merge_single_node</text>
</g>
<!-- q15&#45;&gt;q2 -->
<g id="edge35" class="edge"><title>q15&#45;&gt;q2</title>
<path fill="none" stroke="green" d="M1603.02,-105.915C1733.44,-97.7695 2571.23,-48.5106 2652,-122 2674.95,-142.879 2683.06,-233.821 2685.76,-280.749"/>
<polygon fill="green" stroke="green" points="2682.27,-281.06 2686.29,-290.861 2689.26,-280.69 2682.27,-281.06"/>
<text text-anchor="middle" x="2101" y="-89.8" font-family="Times,serif" font-size="14.00">inspect_after</text>
</g>
<!-- q15&#45;&gt;q3 -->
<g id="edge33" class="edge"><title>q15&#45;&gt;q3</title>
<path fill="none" stroke="black" d="M1573.36,-93.0116C1549.97,-64.008 1490.88,-0 1425,-0 717,-0 717,-0 717,-0 628.018,-0 584.954,-322.946 573.924,-421.064"/>
<polygon fill="black" stroke="black" points="570.432,-420.799 572.818,-431.122 577.39,-421.564 570.432,-420.799"/>
<text text-anchor="middle" x="1016" y="-3.8" font-family="Times,serif" font-size="14.00">merge_single_node</text>
</g>
<!-- q17 -->
<g id="node18" class="node"><title>q17</title>
<ellipse fill="none" stroke="black" cx="1925" cy="-130" rx="18" ry="18"/>
</g>
<!-- q15&#45;&gt;q17 -->
<g id="edge34" class="edge"><title>q15&#45;&gt;q17</title>
<path fill="none" stroke="black" d="M1603.23,-108.172C1658.15,-111.91 1829.45,-123.566 1896.6,-128.135"/>
<polygon fill="black" stroke="black" points="1896.59,-131.643 1906.81,-128.83 1897.07,-124.659 1896.59,-131.643"/>
<text text-anchor="middle" x="1692" y="-121.8" font-family="Times,serif" font-size="14.00">seq_sort_core</text>
</g>
<!-- q16 -->
<g id="node17" class="node"><title>q16</title>
<ellipse fill="none" stroke="black" cx="2101" cy="-174" rx="18" ry="18"/>
</g>
<!-- q16&#45;&gt;q5 -->
<g id="edge36" class="edge"><title>q16&#45;&gt;q5</title>
<path fill="none" stroke="black" d="M2118.64,-179.1C2155.32,-190.349 2243.43,-217.364 2287.69,-230.934"/>
<polygon fill="black" stroke="black" points="2286.86,-234.338 2297.44,-233.923 2288.91,-227.646 2286.86,-234.338"/>
<text text-anchor="middle" x="2208" y="-225.8" font-family="Times,serif" font-size="14.00">merge_single_node</text>
</g>
<!-- q17&#45;&gt;q2 -->
<g id="edge38" class="edge"><title>q17&#45;&gt;q2</title>
<path fill="none" stroke="green" d="M1943.29,-129.67C1974.56,-129.102 2042.6,-128 2100,-128 2100,-128 2100,-128 2530,-128 2585.26,-128 2612.44,-113.418 2652,-152 2670.12,-169.674 2680.13,-241.057 2684.43,-281.212"/>
<polygon fill="green" stroke="green" points="2680.95,-281.575 2685.45,-291.168 2687.91,-280.864 2680.95,-281.575"/>
<text text-anchor="middle" x="2315" y="-131.8" font-family="Times,serif" font-size="14.00">inspect_after</text>
</g>
<!-- q17&#45;&gt;q16 -->
<g id="edge37" class="edge"><title>q17&#45;&gt;q16</title>
<path fill="none" stroke="black" d="M1942.68,-134.219C1972.95,-141.874 2037.15,-158.106 2073.48,-167.294"/>
<polygon fill="black" stroke="black" points="2072.81,-170.735 2083.37,-169.794 2074.53,-163.949 2072.81,-170.735"/>
<text text-anchor="middle" x="2013" y="-163.8" font-family="Times,serif" font-size="14.00">merge_pair</text>
</g>
<!-- iq0 -->
<g id="node19" class="node"><title>iq0</title>
</g>
<!-- iq0&#45;&gt;q0 -->
<g id="edge1" class="edge"><title>iq0&#45;&gt;q0</title>
<path fill="none" stroke="blue" d="M208.047,-449C252.853,-449 344.092,-449 389.729,-449"/>
<polygon fill="blue" stroke="blue" points="389.778,-452.5 399.778,-449 389.778,-445.5 389.778,-452.5"/>
</g>
</g>
</svg>
