<?xml version="1.0" encoding="UTF-8" standalone="no"?>
<!DOCTYPE svg PUBLIC "-//W3C//DTD SVG 1.1//EN"
 "http://www.w3.org/Graphics/SVG/1.1/DTD/svg11.dtd">
<!-- Generated by graphviz version 2.34.0 (20141125.1709)
 -->
<!-- Title: finite_automaton Pages: 1 -->
<svg width="576pt" height="99pt"
 viewBox="0.00 0.00 576.00 98.93" xmlns="http://www.w3.org/2000/svg" xmlns:xlink="http://www.w3.org/1999/xlink">
<g id="graph0" class="graph" transform="scale(0.303477 0.303477) rotate(0) translate(4 322)">
<title>finite_automaton</title>
<polygon fill="white" stroke="white" points="-4,4 -4,-322 1894,-322 1894,4 -4,4"/>
<!-- dom_edges -->
<g id="node1" class="node"><title>dom_edges</title>
<polygon fill="none" stroke="green" points="361.5,-256 0.5,-256 0.5,-220 361.5,-220 361.5,-256"/>
<text text-anchor="middle" x="181" y="-234.3" font-family="Times,serif" font-size="14.00">Dominating edges: inspect_before, inspect_after, Learn_Assert</text>
</g>
<!-- q1 -->
<g id="node2" class="node"><title>q1</title>
<ellipse fill="none" stroke="green" cx="1868" cy="-179" rx="18" ry="18"/>
<ellipse fill="none" stroke="green" cx="1868" cy="-179" rx="22" ry="22"/>
<text text-anchor="middle" x="1868" y="-175.3" font-family="Times,serif" font-size="14.00">D</text>
</g>
<!-- q0 -->
<g id="node3" class="node"><title>q0</title>
<ellipse fill="none" stroke="green" cx="418" cy="-292" rx="18" ry="18"/>
</g>
<!-- q3 -->
<g id="node5" class="node"><title>q3</title>
<ellipse fill="none" stroke="green" cx="570" cy="-292" rx="18" ry="18"/>
</g>
<!-- q0&#45;&gt;q3 -->
<g id="edge2" class="edge"><title>q0&#45;&gt;q3</title>
<path fill="none" stroke="green" d="M436.207,-292C462.09,-292 511.273,-292 541.974,-292"/>
<polygon fill="green" stroke="green" points="541.994,-295.5 551.994,-292 541.994,-288.5 541.994,-295.5"/>
<text text-anchor="middle" x="494" y="-295.8" font-family="Times,serif" font-size="14.00">inspect_before</text>
</g>
<!-- q2 -->
<g id="node4" class="node"><title>q2</title>
<ellipse fill="none" stroke="green" cx="1718" cy="-179" rx="18" ry="18"/>
</g>
<!-- q2&#45;&gt;q1 -->
<g id="edge3" class="edge"><title>q2&#45;&gt;q1</title>
<path fill="none" stroke="green" d="M1736.27,-179C1760.55,-179 1805.2,-179 1835.49,-179"/>
<polygon fill="green" stroke="green" points="1835.55,-182.5 1845.55,-179 1835.55,-175.5 1835.55,-182.5"/>
<text text-anchor="middle" x="1791" y="-182.8" font-family="Times,serif" font-size="14.00">Learn_Assert</text>
</g>
<!-- q3&#45;&gt;q2 -->
<g id="edge5" class="edge"><title>q3&#45;&gt;q2</title>
<path fill="none" stroke="green" d="M588.051,-294.121C615.267,-297.317 670.229,-303 717,-303 717,-303 717,-303 1560,-303 1620.23,-303 1638.49,-285.653 1682,-244 1693.21,-233.264 1701.65,-218.136 1707.43,-205.176"/>
<polygon fill="green" stroke="green" points="1710.72,-206.373 1711.33,-195.796 1704.26,-203.684 1710.72,-206.373"/>
<text text-anchor="middle" x="1116" y="-306.8" font-family="Times,serif" font-size="14.00">inspect_after</text>
</g>
<!-- q8 -->
<g id="node9" class="node"><title>q8</title>
<ellipse fill="none" stroke="black" cx="718" cy="-232" rx="18" ry="18"/>
</g>
<!-- q3&#45;&gt;q8 -->
<g id="edge4" class="edge"><title>q3&#45;&gt;q8</title>
<path fill="none" stroke="black" d="M586.151,-283.733C592.244,-280.534 599.382,-276.943 606,-274 634.572,-261.296 668.276,-248.895 690.987,-240.901"/>
<polygon fill="black" stroke="black" points="692.299,-244.15 700.59,-237.554 689.995,-237.541 692.299,-244.15"/>
<text text-anchor="middle" x="644" y="-277.8" font-family="Times,serif" font-size="14.00">seq_sort_core</text>
</g>
<!-- q5 -->
<g id="node6" class="node"><title>q5</title>
<ellipse fill="none" stroke="black" cx="1559" cy="-92" rx="18" ry="18"/>
</g>
<!-- q5&#45;&gt;q2 -->
<g id="edge7" class="edge"><title>q5&#45;&gt;q2</title>
<path fill="none" stroke="green" d="M1576.06,-98.1391C1600.04,-107.629 1646.21,-127.17 1682,-150 1686.91,-153.13 1691.89,-156.863 1696.5,-160.593"/>
<polygon fill="green" stroke="green" points="1694.4,-163.397 1704.3,-167.17 1698.91,-158.047 1694.4,-163.397"/>
<text text-anchor="middle" x="1647" y="-153.8" font-family="Times,serif" font-size="14.00">inspect_after</text>
</g>
<!-- q5&#45;&gt;q5 -->
<g id="edge6" class="edge"><title>q5&#45;&gt;q5</title>
<path fill="none" stroke="black" d="M1545.66,-104.172C1538.74,-115.602 1543.19,-128 1559,-128 1570.37,-128 1575.86,-121.595 1575.48,-113.748"/>
<polygon fill="black" stroke="black" points="1578.78,-112.583 1572.34,-104.172 1572.13,-114.765 1578.78,-112.583"/>
<text text-anchor="middle" x="1559" y="-131.8" font-family="Times,serif" font-size="14.00">merge_single_node</text>
</g>
<!-- q6 -->
<g id="node7" class="node"><title>q6</title>
<ellipse fill="none" stroke="black" cx="1383" cy="-143" rx="18" ry="18"/>
</g>
<!-- q6&#45;&gt;q2 -->
<g id="edge10" class="edge"><title>q6&#45;&gt;q2</title>
<path fill="none" stroke="green" d="M1400.97,-144.835C1455.08,-150.685 1623.85,-168.929 1690,-176.082"/>
<polygon fill="green" stroke="green" points="1689.74,-179.574 1700.06,-177.169 1690.5,-172.614 1689.74,-179.574"/>
<text text-anchor="middle" x="1559" y="-169.8" font-family="Times,serif" font-size="14.00">inspect_after</text>
</g>
<!-- q6&#45;&gt;q5 -->
<g id="edge9" class="edge"><title>q6&#45;&gt;q5</title>
<path fill="none" stroke="black" d="M1400.37,-138.202C1430.55,-129.355 1495.21,-110.403 1531.64,-99.725"/>
<polygon fill="black" stroke="black" points="1532.94,-102.994 1541.55,-96.8224 1530.97,-96.2764 1532.94,-102.994"/>
<text text-anchor="middle" x="1471" y="-130.8" font-family="Times,serif" font-size="14.00">merge_pair</text>
</g>
<!-- q6&#45;&gt;q6 -->
<g id="edge8" class="edge"><title>q6&#45;&gt;q6</title>
<path fill="none" stroke="black" d="M1369.66,-155.172C1362.74,-166.602 1367.19,-179 1383,-179 1394.37,-179 1399.86,-172.595 1399.48,-164.748"/>
<polygon fill="black" stroke="black" points="1402.78,-163.583 1396.34,-155.172 1396.13,-165.765 1402.78,-163.583"/>
<text text-anchor="middle" x="1383" y="-182.8" font-family="Times,serif" font-size="14.00">merge_single_node</text>
</g>
<!-- q7 -->
<g id="node8" class="node"><title>q7</title>
<ellipse fill="none" stroke="black" cx="1207" cy="-161" rx="18" ry="18"/>
</g>
<!-- q7&#45;&gt;q2 -->
<g id="edge12" class="edge"><title>q7&#45;&gt;q2</title>
<path fill="none" stroke="green" d="M1224.03,-167.489C1249.69,-177.489 1301.8,-196.22 1348,-203 1475.33,-221.688 1629.51,-196.392 1690.41,-184.537"/>
<polygon fill="green" stroke="green" points="1691.23,-187.944 1700.35,-182.559 1689.86,-181.079 1691.23,-187.944"/>
<text text-anchor="middle" x="1471" y="-213.8" font-family="Times,serif" font-size="14.00">inspect_after</text>
</g>
<!-- q7&#45;&gt;q6 -->
<g id="edge11" class="edge"><title>q7&#45;&gt;q6</title>
<path fill="none" stroke="black" d="M1225,-159.241C1255.15,-156.123 1318.21,-149.599 1354.57,-145.838"/>
<polygon fill="black" stroke="black" points="1355.34,-149.276 1364.93,-144.766 1354.62,-142.313 1355.34,-149.276"/>
<text text-anchor="middle" x="1295" y="-159.8" font-family="Times,serif" font-size="14.00">merge_pair</text>
</g>
<!-- q8&#45;&gt;q2 -->
<g id="edge15" class="edge"><title>q8&#45;&gt;q2</title>
<path fill="none" stroke="green" d="M735.274,-237.666C760.265,-245.848 809.745,-260 853,-260 853,-260 853,-260 1560,-260 1614.16,-260 1668.29,-221.466 1696.68,-197.554"/>
<polygon fill="green" stroke="green" points="1699.03,-200.143 1704.3,-190.952 1694.45,-194.851 1699.03,-200.143"/>
<text text-anchor="middle" x="1207" y="-263.8" font-family="Times,serif" font-size="14.00">inspect_after</text>
</g>
<!-- q8&#45;&gt;q7 -->
<g id="edge14" class="edge"><title>q8&#45;&gt;q7</title>
<path fill="none" stroke="black" d="M736.086,-230.255C794.631,-224.153 992.44,-202.533 1154,-173 1162.33,-171.477 1171.34,-169.512 1179.49,-167.614"/>
<polygon fill="black" stroke="black" points="1180.31,-171.016 1189.22,-165.285 1178.68,-164.208 1180.31,-171.016"/>
<text text-anchor="middle" x="928" y="-216.8" font-family="Times,serif" font-size="14.00">seq_sort_core</text>
</g>
<!-- q9 -->
<g id="node10" class="node"><title>q9</title>
<ellipse fill="none" stroke="black" cx="854" cy="-143" rx="18" ry="18"/>
</g>
<!-- q8&#45;&gt;q9 -->
<g id="edge13" class="edge"><title>q8&#45;&gt;q9</title>
<path fill="none" stroke="black" d="M729.566,-217.81C736.005,-209.83 744.755,-200.08 754,-193 776.728,-175.595 806.447,-161.542 827.372,-152.818"/>
<polygon fill="black" stroke="black" points="828.913,-155.97 836.868,-148.973 826.286,-149.482 828.913,-155.97"/>
<text text-anchor="middle" x="786" y="-196.8" font-family="Times,serif" font-size="14.00">merge_pair</text>
</g>
<!-- q9&#45;&gt;q2 -->
<g id="edge19" class="edge"><title>q9&#45;&gt;q2</title>
<path fill="none" stroke="green" d="M863.314,-127.424C884.355,-90.3618 943.592,-0 1021,-0 1021,-0 1021,-0 1560,-0 1618.77,-0 1643.21,-6.85094 1682,-51 1706.54,-78.9302 1714.05,-122.514 1716.25,-150.915"/>
<polygon fill="green" stroke="green" points="1712.76,-151.222 1716.85,-160.993 1719.75,-150.801 1712.76,-151.222"/>
<text text-anchor="middle" x="1295" y="-3.8" font-family="Times,serif" font-size="14.00">inspect_after</text>
</g>
<!-- q9&#45;&gt;q7 -->
<g id="edge18" class="edge"><title>q9&#45;&gt;q7</title>
<path fill="none" stroke="black" d="M872.067,-145.191C877.762,-145.858 884.147,-146.536 890,-147 996.527,-155.437 1123.69,-159.137 1178.57,-160.426"/>
<polygon fill="black" stroke="black" points="1178.77,-163.932 1188.85,-160.659 1178.93,-156.933 1178.77,-163.932"/>
<text text-anchor="middle" x="1022" y="-160.8" font-family="Times,serif" font-size="14.00">seq_sort_core</text>
</g>
<!-- q9&#45;&gt;q9 -->
<g id="edge16" class="edge"><title>q9&#45;&gt;q9</title>
<path fill="none" stroke="black" d="M842.757,-157.417C838.83,-168.166 842.578,-179 854,-179 861.674,-179 865.884,-174.109 866.63,-167.64"/>
<polygon fill="black" stroke="black" points="870.055,-166.856 865.243,-157.417 863.119,-167.796 870.055,-166.856"/>
<text text-anchor="middle" x="854" y="-182.8" font-family="Times,serif" font-size="14.00">merge_single_node</text>
</g>
<!-- q10 -->
<g id="node11" class="node"><title>q10</title>
<ellipse fill="none" stroke="black" cx="1022" cy="-74" rx="18" ry="18"/>
</g>
<!-- q9&#45;&gt;q10 -->
<g id="edge17" class="edge"><title>q9&#45;&gt;q10</title>
<path fill="none" stroke="black" d="M870.917,-136.384C899.722,-124.411 960.723,-99.055 995.433,-84.6271"/>
<polygon fill="black" stroke="black" points="996.997,-87.7676 1004.89,-80.6974 994.31,-81.3038 996.997,-87.7676"/>
<text text-anchor="middle" x="928" y="-132.8" font-family="Times,serif" font-size="14.00">merge_pair</text>
</g>
<!-- q10&#45;&gt;q2 -->
<g id="edge22" class="edge"><title>q10&#45;&gt;q2</title>
<path fill="none" stroke="green" d="M1039.52,-69.7474C1071.46,-61.9145 1143.97,-46 1206,-46 1206,-46 1206,-46 1560,-46 1621.44,-46 1638.87,-67.2497 1682,-111 1693.55,-122.717 1702.12,-139.024 1707.89,-152.732"/>
<polygon fill="green" stroke="green" points="1704.68,-154.128 1711.6,-162.152 1711.19,-151.564 1704.68,-154.128"/>
<text text-anchor="middle" x="1383" y="-49.8" font-family="Times,serif" font-size="14.00">inspect_after</text>
</g>
<!-- q10&#45;&gt;q7 -->
<g id="edge21" class="edge"><title>q10&#45;&gt;q7</title>
<path fill="none" stroke="black" d="M1038.95,-80.5021C1063.83,-90.7732 1113.27,-111.68 1154,-132 1163.37,-136.677 1173.48,-142.195 1182.26,-147.156"/>
<polygon fill="black" stroke="black" points="1180.76,-150.33 1191.18,-152.255 1184.23,-144.253 1180.76,-150.33"/>
<text text-anchor="middle" x="1116" y="-135.8" font-family="Times,serif" font-size="14.00">seq_sort_core</text>
</g>
<!-- q10&#45;&gt;q10 -->
<g id="edge20" class="edge"><title>q10&#45;&gt;q10</title>
<path fill="none" stroke="black" d="M1007.99,-85.7994C1000.26,-97.3306 1004.93,-110 1022,-110 1034.41,-110 1040.26,-103.312 1039.57,-95.2316"/>
<polygon fill="black" stroke="black" points="1042.81,-93.9168 1036.01,-85.7994 1036.27,-96.391 1042.81,-93.9168"/>
<text text-anchor="middle" x="1022" y="-113.8" font-family="Times,serif" font-size="14.00">merge_single_node</text>
</g>
<!-- iq0 -->
<g id="node12" class="node"><title>iq0</title>
</g>
<!-- iq0&#45;&gt;q0 -->
<g id="edge1" class="edge"><title>iq0&#45;&gt;q0</title>
<path fill="none" stroke="blue" d="M208.047,-292C252.853,-292 344.092,-292 389.729,-292"/>
<polygon fill="blue" stroke="blue" points="389.778,-295.5 399.778,-292 389.778,-288.5 389.778,-295.5"/>
</g>
</g>
</svg>
