<?xml version="1.0" encoding="UTF-8" standalone="no"?>
<!DOCTYPE svg PUBLIC "-//W3C//DTD SVG 1.1//EN"
 "http://www.w3.org/Graphics/SVG/1.1/DTD/svg11.dtd">
<!-- Generated by graphviz version 2.34.0 (20141125.1709)
 -->
<!-- Title: finite_automaton Pages: 1 -->
<svg width="576pt" height="70pt"
 viewBox="0.00 0.00 576.00 70.37" xmlns="http://www.w3.org/2000/svg" xmlns:xlink="http://www.w3.org/1999/xlink">
<g id="graph0" class="graph" transform="scale(0.38247 0.38247) rotate(0) translate(4 180)">
<title>finite_automaton</title>
<polygon fill="white" stroke="white" points="-4,4 -4,-180 1502,-180 1502,4 -4,4"/>
<!-- dom_edges -->
<g id="node1" class="node"><title>dom_edges</title>
<polygon fill="none" stroke="green" points="443.5,-110 0.5,-110 0.5,-74 443.5,-74 443.5,-110"/>
<text text-anchor="middle" x="222" y="-88.3" font-family="Times,serif" font-size="14.00">Dominating edges: seq_sort_core, inspect_before, inspect_after, Learn_Assert</text>
</g>
<!-- q1 -->
<g id="node2" class="node"><title>q1</title>
<ellipse fill="none" stroke="green" cx="1476" cy="-93" rx="18" ry="18"/>
<ellipse fill="none" stroke="green" cx="1476" cy="-93" rx="22" ry="22"/>
<text text-anchor="middle" x="1476" y="-89.3" font-family="Times,serif" font-size="14.00">D</text>
</g>
<!-- q0 -->
<g id="node3" class="node"><title>q0</title>
<ellipse fill="none" stroke="green" cx="500" cy="-146" rx="18" ry="18"/>
</g>
<!-- q4 -->
<g id="node6" class="node"><title>q4</title>
<ellipse fill="none" stroke="green" cx="652" cy="-146" rx="18" ry="18"/>
</g>
<!-- q0&#45;&gt;q4 -->
<g id="edge2" class="edge"><title>q0&#45;&gt;q4</title>
<path fill="none" stroke="green" d="M518.207,-146C544.09,-146 593.273,-146 623.974,-146"/>
<polygon fill="green" stroke="green" points="623.994,-149.5 633.994,-146 623.994,-142.5 623.994,-149.5"/>
<text text-anchor="middle" x="576" y="-149.8" font-family="Times,serif" font-size="14.00">inspect_before</text>
</g>
<!-- q2 -->
<g id="node4" class="node"><title>q2</title>
<ellipse fill="none" stroke="green" cx="1326" cy="-93" rx="18" ry="18"/>
</g>
<!-- q2&#45;&gt;q1 -->
<g id="edge3" class="edge"><title>q2&#45;&gt;q1</title>
<path fill="none" stroke="green" d="M1344.27,-93C1368.55,-93 1413.2,-93 1443.49,-93"/>
<polygon fill="green" stroke="green" points="1443.55,-96.5001 1453.55,-93 1443.55,-89.5001 1443.55,-96.5001"/>
<text text-anchor="middle" x="1399" y="-96.8" font-family="Times,serif" font-size="14.00">Learn_Assert</text>
</g>
<!-- q3 -->
<g id="node5" class="node"><title>q3</title>
<ellipse fill="none" stroke="black" cx="800" cy="-115" rx="18" ry="18"/>
</g>
<!-- q3&#45;&gt;q2 -->
<g id="edge5" class="edge"><title>q3&#45;&gt;q2</title>
<path fill="none" stroke="green" d="M818.42,-115.729C881.906,-118.125 1106.76,-124.336 1290,-101 1292.75,-100.65 1295.59,-100.181 1298.42,-99.6447"/>
<polygon fill="green" stroke="green" points="1299.35,-103.026 1308.38,-97.4987 1297.87,-96.1828 1299.35,-103.026"/>
<text text-anchor="middle" x="1060" y="-121.8" font-family="Times,serif" font-size="14.00">inspect_after</text>
</g>
<!-- q7 -->
<g id="node8" class="node"><title>q7</title>
<ellipse fill="none" stroke="black" cx="953" cy="-69" rx="18" ry="18"/>
</g>
<!-- q3&#45;&gt;q7 -->
<g id="edge4" class="edge"><title>q3&#45;&gt;q7</title>
<path fill="none" stroke="black" d="M813.13,-102.105C819.392,-96.2432 827.493,-89.786 836,-86 864.382,-73.3692 900.153,-69.7566 924.415,-68.8986"/>
<polygon fill="black" stroke="black" points="924.762,-72.3919 934.684,-68.6757 924.61,-65.3936 924.762,-72.3919"/>
<text text-anchor="middle" x="868" y="-89.8" font-family="Times,serif" font-size="14.00">merge_pair</text>
</g>
<!-- q4&#45;&gt;q2 -->
<g id="edge7" class="edge"><title>q4&#45;&gt;q2</title>
<path fill="none" stroke="green" d="M670.024,-148.892C697.204,-153.251 752.116,-161 799,-161 799,-161 799,-161 1168,-161 1225.49,-161 1238.99,-144.526 1290,-118 1294.48,-115.668 1299.04,-112.821 1303.33,-109.895"/>
<polygon fill="green" stroke="green" points="1305.55,-112.607 1311.61,-103.917 1301.45,-106.93 1305.55,-112.607"/>
<text text-anchor="middle" x="953" y="-164.8" font-family="Times,serif" font-size="14.00">inspect_after</text>
</g>
<!-- q4&#45;&gt;q3 -->
<g id="edge6" class="edge"><title>q4&#45;&gt;q3</title>
<path fill="none" stroke="green" d="M668.767,-138.803C674.695,-136.336 681.56,-133.756 688,-132 715.963,-124.374 748.884,-119.872 771.573,-117.438"/>
<polygon fill="green" stroke="green" points="772.225,-120.89 781.823,-116.404 771.522,-113.925 772.225,-120.89"/>
<text text-anchor="middle" x="726" y="-135.8" font-family="Times,serif" font-size="14.00">seq_sort_core</text>
</g>
<!-- q6 -->
<g id="node7" class="node"><title>q6</title>
<ellipse fill="none" stroke="black" cx="1167" cy="-18" rx="18" ry="18"/>
</g>
<!-- q6&#45;&gt;q2 -->
<g id="edge8" class="edge"><title>q6&#45;&gt;q2</title>
<path fill="none" stroke="green" d="M1185.27,-17.6533C1210.37,-17.956 1257.47,-21.6368 1290,-43 1299.3,-49.1074 1306.86,-58.6162 1312.54,-67.7088"/>
<polygon fill="green" stroke="green" points="1309.58,-69.5858 1317.59,-76.5212 1315.66,-66.1048 1309.58,-69.5858"/>
<text text-anchor="middle" x="1255" y="-46.8" font-family="Times,serif" font-size="14.00">inspect_after</text>
</g>
<!-- q7&#45;&gt;q2 -->
<g id="edge10" class="edge"><title>q7&#45;&gt;q2</title>
<path fill="none" stroke="green" d="M971.396,-70.1254C1030.67,-73.9598 1225.07,-86.5355 1297.49,-91.2202"/>
<polygon fill="green" stroke="green" points="1297.44,-94.7241 1307.64,-91.8771 1297.89,-87.7387 1297.44,-94.7241"/>
<text text-anchor="middle" x="1167" y="-88.8" font-family="Times,serif" font-size="14.00">inspect_after</text>
</g>
<!-- q7&#45;&gt;q6 -->
<g id="edge9" class="edge"><title>q7&#45;&gt;q6</title>
<path fill="none" stroke="black" d="M968.947,-59.9717C979.066,-54.2554 992.925,-47.1787 1006,-43 1051.23,-28.5441 1106.43,-22.2809 1138.75,-19.6924"/>
<polygon fill="black" stroke="black" points="1139.07,-23.1782 1148.79,-18.9489 1138.56,-16.1973 1139.07,-23.1782"/>
<text text-anchor="middle" x="1060" y="-46.8" font-family="Times,serif" font-size="14.00">merge_single_node</text>
</g>
<!-- iq0 -->
<g id="node9" class="node"><title>iq0</title>
</g>
<!-- iq0&#45;&gt;q0 -->
<g id="edge1" class="edge"><title>iq0&#45;&gt;q0</title>
<path fill="none" stroke="blue" d="M249.464,-146C301.974,-146 418.837,-146 471.879,-146"/>
<polygon fill="blue" stroke="blue" points="471.891,-149.5 481.891,-146 471.891,-142.5 471.891,-149.5"/>
</g>
</g>
</svg>
