<?xml version="1.0" encoding="UTF-8" standalone="no"?>
<!DOCTYPE svg PUBLIC "-//W3C//DTD SVG 1.1//EN"
 "http://www.w3.org/Graphics/SVG/1.1/DTD/svg11.dtd">
<!-- Generated by graphviz version 2.34.0 (20141125.1709)
 -->
<!-- Title: finite_automaton Pages: 1 -->
<svg width="576pt" height="248pt"
 viewBox="0.00 0.00 576.00 248.15" xmlns="http://www.w3.org/2000/svg" xmlns:xlink="http://www.w3.org/1999/xlink">
<g id="graph0" class="graph" transform="scale(0.202532 0.202532) rotate(0) translate(4 1221.23)">
<title>finite_automaton</title>
<polygon fill="white" stroke="white" points="-4,4 -4,-1221.23 2840,-1221.23 2840,4 -4,4"/>
<!-- dom_edges -->
<g id="node1" class="node"><title>dom_edges</title>
<polygon fill="none" stroke="green" points="361.5,-1141.23 0.5,-1141.23 0.5,-1105.23 361.5,-1105.23 361.5,-1141.23"/>
<text text-anchor="middle" x="181" y="-1119.53" font-family="Times,serif" font-size="14.00">Dominating edges: inspect_before, inspect_after, Learn_Assert</text>
</g>
<!-- q1 -->
<g id="node2" class="node"><title>q1</title>
<ellipse fill="none" stroke="green" cx="2814" cy="-597.226" rx="18" ry="18"/>
<ellipse fill="none" stroke="green" cx="2814" cy="-597.226" rx="22" ry="22"/>
<text text-anchor="middle" x="2814" y="-593.526" font-family="Times,serif" font-size="14.00">D</text>
</g>
<!-- q0 -->
<g id="node3" class="node"><title>q0</title>
<ellipse fill="none" stroke="green" cx="418" cy="-1177.23" rx="18" ry="18"/>
</g>
<!-- q3 -->
<g id="node5" class="node"><title>q3</title>
<ellipse fill="none" stroke="green" cx="570" cy="-1177.23" rx="18" ry="18"/>
</g>
<!-- q0&#45;&gt;q3 -->
<g id="edge2" class="edge"><title>q0&#45;&gt;q3</title>
<path fill="none" stroke="green" d="M436.207,-1177.23C462.09,-1177.23 511.273,-1177.23 541.974,-1177.23"/>
<polygon fill="green" stroke="green" points="541.994,-1180.73 551.994,-1177.23 541.994,-1173.73 541.994,-1180.73"/>
<text text-anchor="middle" x="494" y="-1181.03" font-family="Times,serif" font-size="14.00">inspect_before</text>
</g>
<!-- q2 -->
<g id="node4" class="node"><title>q2</title>
<ellipse fill="none" stroke="green" cx="2664" cy="-597.226" rx="18" ry="18"/>
</g>
<!-- q2&#45;&gt;q1 -->
<g id="edge3" class="edge"><title>q2&#45;&gt;q1</title>
<path fill="none" stroke="green" d="M2682.27,-597.226C2706.55,-597.226 2751.2,-597.226 2781.49,-597.226"/>
<polygon fill="green" stroke="green" points="2781.55,-600.726 2791.55,-597.226 2781.55,-593.726 2781.55,-600.726"/>
<text text-anchor="middle" x="2737" y="-601.026" font-family="Times,serif" font-size="14.00">Learn_Assert</text>
</g>
<!-- q3&#45;&gt;q2 -->
<g id="edge5" class="edge"><title>q3&#45;&gt;q2</title>
<path fill="none" stroke="green" d="M587.483,-1181.93C614.365,-1189.17 669.425,-1202.23 717,-1202.23 717,-1202.23 717,-1202.23 2506,-1202.23 2567.02,-1202.23 2594.59,-1190.29 2628,-1139.23 2656.23,-1096.07 2661.77,-730.895 2662.79,-625.56"/>
<polygon fill="green" stroke="green" points="2666.29,-625.41 2662.88,-615.379 2659.29,-625.347 2666.29,-625.41"/>
<text text-anchor="middle" x="1492" y="-1206.03" font-family="Times,serif" font-size="14.00">inspect_after</text>
</g>
<!-- q10 -->
<g id="node11" class="node"><title>q10</title>
<ellipse fill="none" stroke="black" cx="718" cy="-706.226" rx="18" ry="18"/>
</g>
<!-- q3&#45;&gt;q10 -->
<g id="edge4" class="edge"><title>q3&#45;&gt;q10</title>
<path fill="none" stroke="black" d="M576.282,-1160.18C598.193,-1089.5 682.02,-819.071 708.755,-732.823"/>
<polygon fill="black" stroke="black" points="712.107,-733.832 711.725,-723.244 705.421,-731.76 712.107,-733.832"/>
<text text-anchor="middle" x="644" y="-1068.03" font-family="Times,serif" font-size="14.00">seq_sort_core</text>
</g>
<!-- q5 -->
<g id="node6" class="node"><title>q5</title>
<ellipse fill="none" stroke="black" cx="2288" cy="-262.226" rx="18" ry="18"/>
</g>
<!-- q5&#45;&gt;q2 -->
<g id="edge7" class="edge"><title>q5&#45;&gt;q2</title>
<path fill="none" stroke="green" d="M2305.8,-257.659C2362.62,-243.35 2548.49,-206.048 2628,-306.226 2659.85,-346.353 2663.25,-503.379 2663.25,-568.591"/>
<polygon fill="green" stroke="green" points="2659.75,-568.937 2663.22,-578.946 2666.75,-568.956 2659.75,-568.937"/>
<text text-anchor="middle" x="2505" y="-254.026" font-family="Times,serif" font-size="14.00">inspect_after</text>
</g>
<!-- q17 -->
<g id="node18" class="node"><title>q17</title>
<ellipse fill="none" stroke="black" cx="2505" cy="-316.226" rx="18" ry="18"/>
</g>
<!-- q5&#45;&gt;q17 -->
<g id="edge6" class="edge"><title>q5&#45;&gt;q17</title>
<path fill="none" stroke="black" d="M2306.08,-263.285C2336.23,-265.541 2400.57,-272.093 2452,-289.226 2461.64,-292.436 2471.67,-297.251 2480.32,-301.93"/>
<polygon fill="black" stroke="black" points="2478.66,-305.008 2489.09,-306.872 2482.09,-298.911 2478.66,-305.008"/>
<text text-anchor="middle" x="2398" y="-293.026" font-family="Times,serif" font-size="14.00">seq_sort_core</text>
</g>
<!-- q6 -->
<g id="node7" class="node"><title>q6</title>
<ellipse fill="none" stroke="black" cx="1819" cy="-244.226" rx="18" ry="18"/>
</g>
<!-- q6&#45;&gt;q2 -->
<g id="edge10" class="edge"><title>q6&#45;&gt;q2</title>
<path fill="none" stroke="green" d="M1836.69,-240.179C1874.56,-231.367 1969.98,-211.226 2051,-211.226 2051,-211.226 2051,-211.226 2506,-211.226 2563.49,-211.226 2592.44,-209.049 2628,-254.226 2647.31,-278.765 2658.4,-491.223 2661.83,-568.921"/>
<polygon fill="green" stroke="green" points="2658.34,-569.117 2662.27,-578.956 2665.33,-568.814 2658.34,-569.117"/>
<text text-anchor="middle" x="2288" y="-215.026" font-family="Times,serif" font-size="14.00">inspect_after</text>
</g>
<!-- q6&#45;&gt;q5 -->
<g id="edge8" class="edge"><title>q6&#45;&gt;q5</title>
<path fill="none" stroke="black" d="M1837.17,-244.888C1907.4,-247.595 2173.06,-257.834 2259.58,-261.169"/>
<polygon fill="black" stroke="black" points="2259.54,-264.67 2269.67,-261.558 2259.81,-257.675 2259.54,-264.67"/>
<text text-anchor="middle" x="2052" y="-259.026" font-family="Times,serif" font-size="14.00">merge_single_node</text>
</g>
<!-- q19 -->
<g id="node20" class="node"><title>q19</title>
<ellipse fill="none" stroke="black" cx="2052" cy="-422.226" rx="18" ry="18"/>
</g>
<!-- q6&#45;&gt;q19 -->
<g id="edge9" class="edge"><title>q6&#45;&gt;q19</title>
<path fill="none" stroke="black" d="M1820.57,-262.299C1822.64,-294.284 1831.82,-360.645 1872,-394.226 1915.17,-430.299 1985.38,-429.636 2023.79,-425.959"/>
<polygon fill="black" stroke="black" points="2024.62,-429.389 2034.17,-424.814 2023.85,-422.431 2024.62,-429.389"/>
<text text-anchor="middle" x="1926" y="-432.026" font-family="Times,serif" font-size="14.00">seq_sort_core</text>
</g>
<!-- q7 -->
<g id="node8" class="node"><title>q7</title>
<ellipse fill="none" stroke="black" cx="1602" cy="-191.226" rx="18" ry="18"/>
</g>
<!-- q7&#45;&gt;q2 -->
<g id="edge13" class="edge"><title>q7&#45;&gt;q2</title>
<path fill="none" stroke="green" d="M1620.27,-190.096C1748.99,-181.859 2555.61,-133.463 2628,-209.226 2652.73,-235.11 2660.49,-483.564 2662.44,-568.74"/>
<polygon fill="green" stroke="green" points="2658.95,-569.045 2662.66,-578.967 2665.94,-568.892 2658.95,-569.045"/>
<text text-anchor="middle" x="2178" y="-173.026" font-family="Times,serif" font-size="14.00">inspect_after</text>
</g>
<!-- q7&#45;&gt;q6 -->
<g id="edge11" class="edge"><title>q7&#45;&gt;q6</title>
<path fill="none" stroke="black" d="M1619.87,-195.385C1657.08,-204.557 1746.43,-226.584 1791.32,-237.649"/>
<polygon fill="black" stroke="black" points="1790.66,-241.091 1801.21,-240.086 1792.34,-234.295 1790.66,-241.091"/>
<text text-anchor="middle" x="1712" y="-234.026" font-family="Times,serif" font-size="14.00">merge_single_node</text>
</g>
<!-- q11 -->
<g id="node12" class="node"><title>q11</title>
<ellipse fill="none" stroke="black" cx="1819" cy="-944.226" rx="18" ry="18"/>
</g>
<!-- q7&#45;&gt;q11 -->
<g id="edge12" class="edge"><title>q7&#45;&gt;q11</title>
<path fill="none" stroke="black" d="M1611.21,-206.756C1638.97,-260.105 1729.58,-441.509 1766,-603.226 1792.52,-720.986 1753.06,-757.549 1784,-874.226 1788.29,-890.409 1796.4,-907.327 1803.62,-920.477"/>
<polygon fill="black" stroke="black" points="1800.66,-922.361 1808.65,-929.321 1806.74,-918.899 1800.66,-922.361"/>
<text text-anchor="middle" x="1712" y="-607.026" font-family="Times,serif" font-size="14.00">seq_sort_core</text>
</g>
<!-- q8 -->
<g id="node9" class="node"><title>q8</title>
<ellipse fill="none" stroke="black" cx="1034" cy="-413.226" rx="18" ry="18"/>
</g>
<!-- q8&#45;&gt;q2 -->
<g id="edge17" class="edge"><title>q8&#45;&gt;q2</title>
<path fill="none" stroke="green" d="M1037.1,-395.345C1046.17,-327.422 1088.3,-89.2258 1233,-89.2258 1233,-89.2258 1233,-89.2258 2506,-89.2258 2566.62,-89.2258 2594.14,-99.9417 2628,-150.226 2651.37,-184.929 2660.17,-476.595 2662.39,-569.156"/>
<polygon fill="green" stroke="green" points="2658.89,-569.271 2662.63,-579.186 2665.89,-569.108 2658.89,-569.271"/>
<text text-anchor="middle" x="1819" y="-93.0258" font-family="Times,serif" font-size="14.00">inspect_after</text>
</g>
<!-- q8&#45;&gt;q7 -->
<g id="edge15" class="edge"><title>q8&#45;&gt;q7</title>
<path fill="none" stroke="black" d="M1051.03,-406.939C1130.08,-375.931 1478.58,-239.241 1575.76,-201.125"/>
<polygon fill="black" stroke="black" points="1577.08,-204.367 1585.11,-197.457 1574.52,-197.851 1577.08,-204.367"/>
<text text-anchor="middle" x="1328" y="-317.026" font-family="Times,serif" font-size="14.00">merge_pair</text>
</g>
<!-- q14 -->
<g id="node15" class="node"><title>q14</title>
<ellipse fill="none" stroke="black" cx="1402" cy="-498.226" rx="18" ry="18"/>
</g>
<!-- q8&#45;&gt;q14 -->
<g id="edge16" class="edge"><title>q8&#45;&gt;q14</title>
<path fill="none" stroke="black" d="M1049.53,-422.387C1055.65,-425.907 1062.98,-429.686 1070,-432.226 1178.71,-471.548 1316.44,-489.46 1373.91,-495.608"/>
<polygon fill="black" stroke="black" points="1373.68,-499.104 1383.99,-496.653 1374.4,-492.141 1373.68,-499.104"/>
<text text-anchor="middle" x="1234" y="-486.026" font-family="Times,serif" font-size="14.00">seq_sort_core</text>
</g>
<!-- q16 -->
<g id="node17" class="node"><title>q16</title>
<ellipse fill="none" stroke="black" cx="1234" cy="-413.226" rx="18" ry="18"/>
</g>
<!-- q8&#45;&gt;q16 -->
<g id="edge14" class="edge"><title>q8&#45;&gt;q16</title>
<path fill="none" stroke="black" d="M1052.22,-413.226C1086.69,-413.226 1164.35,-413.226 1205.78,-413.226"/>
<polygon fill="black" stroke="black" points="1205.96,-416.726 1215.96,-413.226 1205.96,-409.726 1205.96,-416.726"/>
<text text-anchor="middle" x="1124" y="-417.026" font-family="Times,serif" font-size="14.00">merge_single_node</text>
</g>
<!-- q9 -->
<g id="node10" class="node"><title>q9</title>
<ellipse fill="none" stroke="black" cx="854" cy="-519.226" rx="18" ry="18"/>
</g>
<!-- q9&#45;&gt;q2 -->
<g id="edge21" class="edge"><title>q9&#45;&gt;q2</title>
<path fill="none" stroke="green" d="M857.609,-501.435C870.77,-415.021 933.192,-43.2258 1033,-43.2258 1033,-43.2258 1033,-43.2258 2506,-43.2258 2564.27,-43.2258 2593.55,-44.2299 2628,-91.2258 2656.32,-129.857 2661.78,-468.315 2662.78,-569.056"/>
<polygon fill="green" stroke="green" points="2659.29,-569.128 2662.88,-579.095 2666.29,-569.063 2659.29,-569.128"/>
<text text-anchor="middle" x="1712" y="-47.0258" font-family="Times,serif" font-size="14.00">inspect_after</text>
</g>
<!-- q9&#45;&gt;q8 -->
<g id="edge18" class="edge"><title>q9&#45;&gt;q8</title>
<path fill="none" stroke="black" d="M867.815,-507.566C874.238,-501.997 882.278,-495.429 890,-490.226 929.497,-463.613 979.125,-438.598 1008.32,-424.658"/>
<polygon fill="black" stroke="black" points="1009.85,-427.806 1017.4,-420.368 1006.86,-421.478 1009.85,-427.806"/>
<text text-anchor="middle" x="944" y="-494.026" font-family="Times,serif" font-size="14.00">merge_single_node</text>
</g>
<!-- q9&#45;&gt;q14 -->
<g id="edge20" class="edge"><title>q9&#45;&gt;q14</title>
<path fill="none" stroke="black" d="M872.26,-519.595C937.209,-520.8 1173.03,-523.502 1366,-504.226 1368.58,-503.968 1371.25,-503.634 1373.92,-503.255"/>
<polygon fill="black" stroke="black" points="1374.66,-506.681 1383.98,-501.638 1373.55,-499.77 1374.66,-506.681"/>
<text text-anchor="middle" x="1124" y="-524.026" font-family="Times,serif" font-size="14.00">seq_sort_core</text>
</g>
<!-- q22 -->
<g id="node23" class="node"><title>q22</title>
<ellipse fill="none" stroke="black" cx="1402" cy="-724.226" rx="18" ry="18"/>
</g>
<!-- q9&#45;&gt;q22 -->
<g id="edge19" class="edge"><title>q9&#45;&gt;q22</title>
<path fill="none" stroke="black" d="M870.962,-526.261C876.911,-528.832 883.739,-531.722 890,-534.226 1074.24,-607.905 1299.41,-688.327 1374.92,-715.038"/>
<polygon fill="black" stroke="black" points="1373.97,-718.414 1384.56,-718.445 1376.3,-711.813 1373.97,-718.414"/>
<text text-anchor="middle" x="1124" y="-648.026" font-family="Times,serif" font-size="14.00">merge_pair</text>
</g>
<!-- q10&#45;&gt;q2 -->
<g id="edge24" class="edge"><title>q10&#45;&gt;q2</title>
<path fill="none" stroke="green" d="M720.463,-688.065C729.601,-577.559 780.796,-0.225822 853,-0.225822 853,-0.225822 853,-0.225822 2506,-0.225822 2563.35,-0.225822 2593.24,3.38733 2628,-42.2258 2660.1,-84.3591 2662.89,-462.135 2663.03,-569.112"/>
<polygon fill="green" stroke="green" points="2659.53,-569.153 2663.03,-579.151 2666.53,-569.149 2659.53,-569.153"/>
<text text-anchor="middle" x="1602" y="-4.02582" font-family="Times,serif" font-size="14.00">inspect_after</text>
</g>
<!-- q10&#45;&gt;q9 -->
<g id="edge22" class="edge"><title>q10&#45;&gt;q9</title>
<path fill="none" stroke="black" d="M729.292,-691.863C752.441,-659.559 808.762,-580.961 836.713,-541.955"/>
<polygon fill="black" stroke="black" points="839.876,-543.549 842.856,-533.382 834.186,-539.472 839.876,-543.549"/>
<text text-anchor="middle" x="786" y="-660.026" font-family="Times,serif" font-size="14.00">merge_pair</text>
</g>
<!-- q31 -->
<g id="node32" class="node"><title>q31</title>
<ellipse fill="none" stroke="black" cx="1234" cy="-1054.23" rx="18" ry="18"/>
</g>
<!-- q10&#45;&gt;q31 -->
<g id="edge23" class="edge"><title>q10&#45;&gt;q31</title>
<path fill="none" stroke="black" d="M733.284,-715.897C804.535,-764.137 1121.6,-978.807 1210.03,-1038.68"/>
<polygon fill="black" stroke="black" points="1208.3,-1041.73 1218.54,-1044.44 1212.22,-1035.93 1208.3,-1041.73"/>
<text text-anchor="middle" x="944" y="-897.026" font-family="Times,serif" font-size="14.00">seq_sort_core</text>
</g>
<!-- q11&#45;&gt;q2 -->
<g id="edge26" class="edge"><title>q11&#45;&gt;q2</title>
<path fill="none" stroke="green" d="M1835.59,-951.256C1845.74,-955.499 1859.4,-960.581 1872,-963.226 1926.92,-974.751 1941.99,-967.829 1998,-971.226 2277.56,-988.18 2446.29,-1170.34 2628,-957.226 2649.35,-932.183 2659.21,-706.738 2662.07,-625.905"/>
<polygon fill="green" stroke="green" points="2665.59,-625.609 2662.43,-615.495 2658.59,-625.368 2665.59,-625.609"/>
<text text-anchor="middle" x="2288" y="-1049.03" font-family="Times,serif" font-size="14.00">inspect_after</text>
</g>
<!-- q12 -->
<g id="node13" class="node"><title>q12</title>
<ellipse fill="none" stroke="black" cx="2052" cy="-944.226" rx="18" ry="18"/>
</g>
<!-- q11&#45;&gt;q12 -->
<g id="edge25" class="edge"><title>q11&#45;&gt;q12</title>
<path fill="none" stroke="black" d="M1837.36,-944.226C1877.18,-944.226 1975.31,-944.226 2023.46,-944.226"/>
<polygon fill="black" stroke="black" points="2023.75,-947.726 2033.75,-944.226 2023.75,-940.726 2023.75,-947.726"/>
<text text-anchor="middle" x="1926" y="-948.026" font-family="Times,serif" font-size="14.00">merge_pair</text>
</g>
<!-- q12&#45;&gt;q2 -->
<g id="edge28" class="edge"><title>q12&#45;&gt;q2</title>
<path fill="none" stroke="green" d="M2069.98,-946.582C2156.19,-958.144 2544.71,-1005.29 2628,-928.226 2650.03,-907.839 2659.36,-702.494 2662.09,-625.861"/>
<polygon fill="green" stroke="green" points="2665.6,-625.641 2662.44,-615.526 2658.6,-625.4 2665.6,-625.641"/>
<text text-anchor="middle" x="2398" y="-976.026" font-family="Times,serif" font-size="14.00">inspect_after</text>
</g>
<!-- q23 -->
<g id="node24" class="node"><title>q23</title>
<ellipse fill="none" stroke="black" cx="2288" cy="-802.226" rx="18" ry="18"/>
</g>
<!-- q12&#45;&gt;q23 -->
<g id="edge27" class="edge"><title>q12&#45;&gt;q23</title>
<path fill="none" stroke="black" d="M2064.51,-931.043C2077.75,-916.466 2100.68,-892.968 2124,-877.226 2168.92,-846.898 2228.08,-823.149 2261.37,-811.046"/>
<polygon fill="black" stroke="black" points="2262.58,-814.329 2270.83,-807.67 2260.23,-807.736 2262.58,-814.329"/>
<text text-anchor="middle" x="2178" y="-881.026" font-family="Times,serif" font-size="14.00">merge_single_node</text>
</g>
<!-- q13 -->
<g id="node14" class="node"><title>q13</title>
<ellipse fill="none" stroke="black" cx="1602" cy="-613.226" rx="18" ry="18"/>
</g>
<!-- q13&#45;&gt;q2 -->
<g id="edge31" class="edge"><title>q13&#45;&gt;q2</title>
<path fill="none" stroke="green" d="M1615.78,-601.001C1626.21,-591.921 1641.82,-580.271 1658,-575.226 1794.62,-532.619 1836.91,-573.018 1980,-575.226 2268.1,-579.671 2340.14,-582.561 2628,-595.226 2630.55,-595.338 2633.21,-595.468 2635.87,-595.605"/>
<polygon fill="green" stroke="green" points="2635.74,-599.103 2645.91,-596.16 2636.12,-592.114 2635.74,-599.103"/>
<text text-anchor="middle" x="2178" y="-584.026" font-family="Times,serif" font-size="14.00">inspect_after</text>
</g>
<!-- q13&#45;&gt;q12 -->
<g id="edge30" class="edge"><title>q13&#45;&gt;q12</title>
<path fill="none" stroke="black" d="M1616.72,-623.843C1654.15,-652.934 1755.96,-732.846 1766,-749.226 1784.81,-779.931 1761.01,-800.51 1784,-828.226 1847.07,-904.261 1969.49,-931.812 2023.86,-940.59"/>
<polygon fill="black" stroke="black" points="2023.37,-944.056 2033.78,-942.104 2024.43,-937.136 2023.37,-944.056"/>
<text text-anchor="middle" x="1819" y="-887.026" font-family="Times,serif" font-size="14.00">merge_pair</text>
</g>
<!-- q15 -->
<g id="node16" class="node"><title>q15</title>
<ellipse fill="none" stroke="black" cx="1819" cy="-643.226" rx="18" ry="18"/>
</g>
<!-- q13&#45;&gt;q15 -->
<g id="edge29" class="edge"><title>q13&#45;&gt;q15</title>
<path fill="none" stroke="black" d="M1619.87,-615.58C1656.99,-620.759 1745.99,-633.178 1790.99,-639.457"/>
<polygon fill="black" stroke="black" points="1790.52,-642.926 1800.91,-640.841 1791.49,-635.993 1790.52,-642.926"/>
<text text-anchor="middle" x="1712" y="-639.026" font-family="Times,serif" font-size="14.00">merge_single_node</text>
</g>
<!-- q14&#45;&gt;q2 -->
<g id="edge33" class="edge"><title>q14&#45;&gt;q2</title>
<path fill="none" stroke="green" d="M1420.02,-498.065C1489.59,-497.527 1759.1,-496.626 1980,-512.226 2269.25,-532.653 2342.93,-535.108 2628,-588.226 2630.74,-588.736 2633.58,-589.34 2636.41,-589.99"/>
<polygon fill="green" stroke="green" points="2635.82,-593.45 2646.37,-592.46 2637.5,-586.656 2635.82,-593.45"/>
<text text-anchor="middle" x="2052" y="-525.026" font-family="Times,serif" font-size="14.00">inspect_after</text>
</g>
<!-- q14&#45;&gt;q13 -->
<g id="edge32" class="edge"><title>q14&#45;&gt;q13</title>
<path fill="none" stroke="black" d="M1417.88,-506.87C1451.92,-526.641 1535.72,-575.308 1577.09,-599.34"/>
<polygon fill="black" stroke="black" points="1575.54,-602.486 1585.95,-604.482 1579.06,-596.433 1575.54,-602.486"/>
<text text-anchor="middle" x="1492" y="-584.026" font-family="Times,serif" font-size="14.00">merge_pair</text>
</g>
<!-- q15&#45;&gt;q2 -->
<g id="edge36" class="edge"><title>q15&#45;&gt;q2</title>
<path fill="none" stroke="green" d="M1837.3,-645.309C1847.4,-646.42 1860.4,-647.67 1872,-648.226 1919.94,-650.526 1932.01,-649.178 1980,-648.226 2091.1,-646.022 2390.36,-629.841 2452,-626.226 2530.27,-621.635 2552.23,-634.391 2628,-614.226 2631.68,-613.247 2635.43,-611.877 2639.05,-610.334"/>
<polygon fill="green" stroke="green" points="2640.63,-613.455 2648.16,-605.999 2637.63,-607.134 2640.63,-613.455"/>
<text text-anchor="middle" x="2288" y="-641.026" font-family="Times,serif" font-size="14.00">inspect_after</text>
</g>
<!-- q15&#45;&gt;q12 -->
<g id="edge35" class="edge"><title>q15&#45;&gt;q12</title>
<path fill="none" stroke="black" d="M1834.86,-652.396C1865.81,-672.178 1937.82,-721.824 1980,-780.226 1992.37,-797.354 1989.73,-804.782 1998,-824.226 2011.94,-857.014 2028.64,-894.543 2039.51,-918.773"/>
<polygon fill="black" stroke="black" points="2036.36,-920.299 2043.66,-927.984 2042.75,-917.428 2036.36,-920.299"/>
<text text-anchor="middle" x="1926" y="-784.026" font-family="Times,serif" font-size="14.00">merge_pair</text>
</g>
<!-- q28 -->
<g id="node29" class="node"><title>q28</title>
<ellipse fill="none" stroke="black" cx="2052" cy="-616.226" rx="18" ry="18"/>
</g>
<!-- q15&#45;&gt;q28 -->
<g id="edge34" class="edge"><title>q15&#45;&gt;q28</title>
<path fill="none" stroke="black" d="M1836.79,-639.575C1846.95,-637.473 1860.17,-634.921 1872,-633.226 1925.4,-625.574 1988.26,-620.506 2023.49,-618.021"/>
<polygon fill="black" stroke="black" points="2024.17,-621.482 2033.91,-617.305 2023.69,-614.499 2024.17,-621.482"/>
<text text-anchor="middle" x="1926" y="-637.026" font-family="Times,serif" font-size="14.00">merge_single_node</text>
</g>
<!-- q16&#45;&gt;q2 -->
<g id="edge39" class="edge"><title>q16&#45;&gt;q2</title>
<path fill="none" stroke="green" d="M1246.44,-400.065C1285.44,-356.314 1418.81,-215.609 1564,-164.226 1675.46,-124.777 2546.1,-95.947 2628,-181.226 2654.81,-209.139 2661.25,-480.062 2662.64,-569.058"/>
<polygon fill="green" stroke="green" points="2659.15,-569.266 2662.79,-579.213 2666.15,-569.163 2659.15,-569.266"/>
<text text-anchor="middle" x="1926" y="-136.026" font-family="Times,serif" font-size="14.00">inspect_after</text>
</g>
<!-- q16&#45;&gt;q14 -->
<g id="edge38" class="edge"><title>q16&#45;&gt;q14</title>
<path fill="none" stroke="black" d="M1251.66,-416.864C1284.79,-424.197 1356.57,-440.615 1366,-447.226 1375.46,-453.861 1383.15,-463.93 1388.89,-473.373"/>
<polygon fill="black" stroke="black" points="1385.84,-475.093 1393.79,-482.102 1391.95,-471.668 1385.84,-475.093"/>
<text text-anchor="middle" x="1328" y="-451.026" font-family="Times,serif" font-size="14.00">seq_sort_core</text>
</g>
<!-- q24 -->
<g id="node25" class="node"><title>q24</title>
<ellipse fill="none" stroke="black" cx="1819" cy="-432.226" rx="18" ry="18"/>
</g>
<!-- q16&#45;&gt;q24 -->
<g id="edge37" class="edge"><title>q16&#45;&gt;q24</title>
<path fill="none" stroke="black" d="M1252.13,-413.784C1334.43,-416.466 1689.34,-428.033 1790.81,-431.34"/>
<polygon fill="black" stroke="black" points="1790.76,-434.84 1800.87,-431.667 1790.99,-427.843 1790.76,-434.84"/>
<text text-anchor="middle" x="1492" y="-427.026" font-family="Times,serif" font-size="14.00">merge_pair</text>
</g>
<!-- q17&#45;&gt;q2 -->
<g id="edge40" class="edge"><title>q17&#45;&gt;q2</title>
<path fill="none" stroke="green" d="M2522.94,-312.879C2549.38,-308.741 2600.27,-305.31 2628,-333.226 2660.51,-365.948 2663.6,-508.026 2663.39,-569.124"/>
<polygon fill="green" stroke="green" points="2659.89,-569.188 2663.32,-579.212 2666.89,-569.236 2659.89,-569.188"/>
<text text-anchor="middle" x="2593" y="-337.026" font-family="Times,serif" font-size="14.00">inspect_after</text>
</g>
<!-- q18 -->
<g id="node19" class="node"><title>q18</title>
<ellipse fill="none" stroke="black" cx="2288" cy="-405.226" rx="18" ry="18"/>
</g>
<!-- q18&#45;&gt;q17 -->
<g id="edge41" class="edge"><title>q18&#45;&gt;q17</title>
<path fill="none" stroke="black" d="M2306.01,-402.74C2345.18,-396.925 2439.36,-382.385 2452,-375.226 2467.06,-366.699 2479.95,-352.153 2489.14,-339.637"/>
<polygon fill="black" stroke="black" points="2492.03,-341.602 2494.88,-331.397 2486.29,-337.599 2492.03,-341.602"/>
<text text-anchor="middle" x="2398" y="-401.026" font-family="Times,serif" font-size="14.00">merge_single_node</text>
</g>
<!-- q19&#45;&gt;q2 -->
<g id="edge43" class="edge"><title>q19&#45;&gt;q2</title>
<path fill="none" stroke="green" d="M2069.51,-426.429C2083.81,-429.843 2105.12,-434.382 2124,-436.226 2221.33,-445.73 2246.22,-433.971 2344,-432.226 2391.99,-431.369 2404.57,-424.862 2452,-432.226 2533.11,-444.819 2569.88,-430.259 2628,-488.226 2649.57,-509.744 2657.86,-544.582 2661.04,-569.068"/>
<polygon fill="green" stroke="green" points="2657.58,-569.619 2662.14,-579.182 2664.54,-568.862 2657.58,-569.619"/>
<text text-anchor="middle" x="2398" y="-436.026" font-family="Times,serif" font-size="14.00">inspect_after</text>
</g>
<!-- q19&#45;&gt;q18 -->
<g id="edge42" class="edge"><title>q19&#45;&gt;q18</title>
<path fill="none" stroke="black" d="M2070.21,-420.976C2110.44,-418.053 2210.92,-410.753 2259.65,-407.213"/>
<polygon fill="black" stroke="black" points="2260.05,-410.693 2269.77,-406.478 2259.54,-403.712 2260.05,-410.693"/>
<text text-anchor="middle" x="2178" y="-421.026" font-family="Times,serif" font-size="14.00">merge_pair</text>
</g>
<!-- q20 -->
<g id="node21" class="node"><title>q20</title>
<ellipse fill="none" stroke="black" cx="1819" cy="-747.226" rx="18" ry="18"/>
</g>
<!-- q20&#45;&gt;q2 -->
<g id="edge45" class="edge"><title>q20&#45;&gt;q2</title>
<path fill="none" stroke="green" d="M1837.1,-747.724C1875.39,-748.797 1970.98,-751.226 2051,-751.226 2051,-751.226 2051,-751.226 2506,-751.226 2562.06,-751.226 2587.91,-758.408 2628,-719.226 2653.18,-694.615 2660.56,-653.197 2662.55,-625.541"/>
<polygon fill="green" stroke="green" points="2666.06,-625.496 2663.09,-615.326 2659.07,-625.128 2666.06,-625.496"/>
<text text-anchor="middle" x="2288" y="-755.026" font-family="Times,serif" font-size="14.00">inspect_after</text>
</g>
<!-- q20&#45;&gt;q19 -->
<g id="edge44" class="edge"><title>q20&#45;&gt;q19</title>
<path fill="none" stroke="black" d="M1828.4,-731.79C1836.29,-716.583 1847.79,-692.464 1854,-670.226 1870.75,-610.227 1838.05,-583.458 1872,-531.226 1908.39,-475.236 1984.6,-443.505 2024.83,-430.026"/>
<polygon fill="black" stroke="black" points="2026.03,-433.317 2034.47,-426.916 2023.88,-426.655 2026.03,-433.317"/>
<text text-anchor="middle" x="1926" y="-535.026" font-family="Times,serif" font-size="14.00">seq_sort_core</text>
</g>
<!-- q21 -->
<g id="node22" class="node"><title>q21</title>
<ellipse fill="none" stroke="black" cx="1602" cy="-781.226" rx="18" ry="18"/>
</g>
<!-- q21&#45;&gt;q2 -->
<g id="edge48" class="edge"><title>q21&#45;&gt;q2</title>
<path fill="none" stroke="green" d="M1616.45,-792.174C1645.11,-814.719 1715.21,-865.759 1784,-884.226 1946.34,-927.806 2375.29,-893.72 2540,-860.226 2580.09,-852.074 2601.33,-864.247 2628,-833.226 2654.39,-802.53 2660.89,-681.12 2662.48,-625.421"/>
<polygon fill="green" stroke="green" points="2665.99,-625.289 2662.74,-615.204 2658.99,-625.112 2665.99,-625.289"/>
<text text-anchor="middle" x="2178" y="-907.026" font-family="Times,serif" font-size="14.00">inspect_after</text>
</g>
<!-- q21&#45;&gt;q20 -->
<g id="edge46" class="edge"><title>q21&#45;&gt;q20</title>
<path fill="none" stroke="black" d="M1619.76,-776.798C1630.6,-774.047 1645.07,-770.597 1658,-768.226 1704.1,-759.776 1758.27,-753.402 1790.28,-750"/>
<polygon fill="black" stroke="black" points="1791.04,-753.439 1800.63,-748.921 1790.32,-746.477 1791.04,-753.439"/>
<text text-anchor="middle" x="1712" y="-772.026" font-family="Times,serif" font-size="14.00">merge_single_node</text>
</g>
<!-- q27 -->
<g id="node28" class="node"><title>q27</title>
<ellipse fill="none" stroke="black" cx="1819" cy="-801.226" rx="18" ry="18"/>
</g>
<!-- q21&#45;&gt;q27 -->
<g id="edge47" class="edge"><title>q21&#45;&gt;q27</title>
<path fill="none" stroke="black" d="M1620.23,-782.829C1657.51,-786.297 1745.92,-794.521 1790.82,-798.697"/>
<polygon fill="black" stroke="black" points="1790.7,-802.202 1800.99,-799.643 1791.35,-795.232 1790.7,-802.202"/>
<text text-anchor="middle" x="1712" y="-800.026" font-family="Times,serif" font-size="14.00">seq_sort_core</text>
</g>
<!-- q22&#45;&gt;q2 -->
<g id="edge51" class="edge"><title>q22&#45;&gt;q2</title>
<path fill="none" stroke="green" d="M1420.1,-724.151C1523.53,-723.643 2066.4,-720.196 2232,-703.226 2409.72,-685.013 2470.61,-718.751 2628,-634.226 2634.86,-630.544 2641.13,-625.022 2646.42,-619.359"/>
<polygon fill="green" stroke="green" points="2649.13,-621.58 2652.98,-611.71 2643.81,-617.024 2649.13,-621.58"/>
<text text-anchor="middle" x="2052" y="-719.026" font-family="Times,serif" font-size="14.00">inspect_after</text>
</g>
<!-- q22&#45;&gt;q11 -->
<g id="edge50" class="edge"><title>q22&#45;&gt;q11</title>
<path fill="none" stroke="black" d="M1409.69,-740.517C1415.65,-753.53 1425.37,-771.613 1438,-784.226 1518.04,-864.171 1552.22,-872.146 1658,-912.226 1702.74,-929.178 1758.1,-937.691 1790.58,-941.521"/>
<polygon fill="black" stroke="black" points="1790.35,-945.016 1800.67,-942.646 1791.12,-938.06 1790.35,-945.016"/>
<text text-anchor="middle" x="1602" y="-909.026" font-family="Times,serif" font-size="14.00">seq_sort_core</text>
</g>
<!-- q22&#45;&gt;q21 -->
<g id="edge49" class="edge"><title>q22&#45;&gt;q21</title>
<path fill="none" stroke="black" d="M1419.54,-728.988C1453.9,-738.879 1533.24,-761.719 1574.69,-773.653"/>
<polygon fill="black" stroke="black" points="1573.79,-777.034 1584.37,-776.438 1575.73,-770.308 1573.79,-777.034"/>
<text text-anchor="middle" x="1492" y="-769.026" font-family="Times,serif" font-size="14.00">merge_single_node</text>
</g>
<!-- q23&#45;&gt;q2 -->
<g id="edge53" class="edge"><title>q23&#45;&gt;q2</title>
<path fill="none" stroke="green" d="M2305.8,-806.441C2360.33,-819.022 2534.19,-850.38 2628,-765.226 2648.29,-746.812 2657.49,-668.148 2661.06,-625.306"/>
<polygon fill="green" stroke="green" points="2664.56,-625.488 2661.85,-615.245 2657.58,-624.94 2664.56,-625.488"/>
<text text-anchor="middle" x="2505" y="-826.026" font-family="Times,serif" font-size="14.00">inspect_after</text>
</g>
<!-- q23&#45;&gt;q17 -->
<g id="edge52" class="edge"><title>q23&#45;&gt;q17</title>
<path fill="none" stroke="black" d="M2303.77,-793.473C2311.77,-787.889 2321.02,-779.889 2326,-770.226 2365.06,-694.433 2311,-657.846 2344,-579.226 2372.81,-510.593 2414.1,-515.287 2452,-451.226 2472.64,-416.341 2487.92,-371.789 2496.4,-343.622"/>
<polygon fill="black" stroke="black" points="2499.86,-344.264 2499.31,-333.683 2493.14,-342.295 2499.86,-344.264"/>
<text text-anchor="middle" x="2398" y="-583.026" font-family="Times,serif" font-size="14.00">merge_single_node</text>
</g>
<!-- q24&#45;&gt;q2 -->
<g id="edge56" class="edge"><title>q24&#45;&gt;q2</title>
<path fill="none" stroke="green" d="M1836.21,-437.704C1846.38,-440.939 1859.83,-444.853 1872,-447.226 1892.72,-451.265 2610.68,-514.157 2628,-526.226 2642.71,-536.472 2651.51,-554.707 2656.61,-570.132"/>
<polygon fill="green" stroke="green" points="2653.27,-571.151 2659.46,-579.75 2659.98,-569.168 2653.27,-571.151"/>
<text text-anchor="middle" x="2288" y="-495.026" font-family="Times,serif" font-size="14.00">inspect_after</text>
</g>
<!-- q25 -->
<g id="node26" class="node"><title>q25</title>
<ellipse fill="none" stroke="black" cx="2052" cy="-340.226" rx="18" ry="18"/>
</g>
<!-- q24&#45;&gt;q25 -->
<g id="edge54" class="edge"><title>q24&#45;&gt;q25</title>
<path fill="none" stroke="black" d="M1830.28,-417.783C1839.73,-405.609 1854.85,-388.701 1872,-379.226 1920.82,-352.256 1986.75,-343.935 2023.44,-341.369"/>
<polygon fill="black" stroke="black" points="2024.06,-344.838 2033.83,-340.743 2023.64,-337.85 2024.06,-344.838"/>
<text text-anchor="middle" x="1926" y="-383.026" font-family="Times,serif" font-size="14.00">merge_single_node</text>
</g>
<!-- q24&#45;&gt;q28 -->
<g id="edge55" class="edge"><title>q24&#45;&gt;q28</title>
<path fill="none" stroke="black" d="M1823.26,-449.953C1828.86,-475.501 1842.64,-522.626 1872,-550.226 1894.68,-571.543 1980.53,-597.13 2024.58,-609.23"/>
<polygon fill="black" stroke="black" points="2023.74,-612.631 2034.31,-611.871 2025.58,-605.875 2023.74,-612.631"/>
<text text-anchor="middle" x="1926" y="-600.026" font-family="Times,serif" font-size="14.00">seq_sort_core</text>
</g>
<!-- q25&#45;&gt;q2 -->
<g id="edge59" class="edge"><title>q25&#45;&gt;q2</title>
<path fill="none" stroke="green" d="M2070.21,-341.615C2084.58,-342.733 2105.61,-344.27 2124,-345.226 2196.83,-349.01 2381.23,-338.606 2452,-356.226 2536.48,-377.26 2573.99,-373.941 2628,-442.226 2657.03,-478.932 2662.96,-535.054 2663.65,-568.741"/>
<polygon fill="green" stroke="green" points="2660.15,-568.86 2663.71,-578.837 2667.15,-568.815 2660.15,-568.86"/>
<text text-anchor="middle" x="2398" y="-360.026" font-family="Times,serif" font-size="14.00">inspect_after</text>
</g>
<!-- q25&#45;&gt;q5 -->
<g id="edge57" class="edge"><title>q25&#45;&gt;q5</title>
<path fill="none" stroke="black" d="M2066.11,-328.566C2079.64,-317.201 2101.84,-300.338 2124,-291.226 2148.17,-281.289 2220.24,-270.838 2259.97,-265.616"/>
<polygon fill="black" stroke="black" points="2260.55,-269.07 2270.02,-264.316 2259.65,-262.128 2260.55,-269.07"/>
<text text-anchor="middle" x="2178" y="-295.026" font-family="Times,serif" font-size="14.00">merge_single_node</text>
</g>
<!-- q25&#45;&gt;q17 -->
<g id="edge58" class="edge"><title>q25&#45;&gt;q17</title>
<path fill="none" stroke="black" d="M2070.13,-339.314C2138.57,-335.672 2392.74,-322.146 2476.81,-317.673"/>
<polygon fill="black" stroke="black" points="2477.05,-321.165 2486.85,-317.138 2476.68,-314.175 2477.05,-321.165"/>
<text text-anchor="middle" x="2288" y="-334.026" font-family="Times,serif" font-size="14.00">seq_sort_core</text>
</g>
<!-- q26 -->
<g id="node27" class="node"><title>q26</title>
<ellipse fill="none" stroke="black" cx="2052" cy="-797.226" rx="18" ry="18"/>
</g>
<!-- q26&#45;&gt;q23 -->
<g id="edge60" class="edge"><title>q26&#45;&gt;q23</title>
<path fill="none" stroke="black" d="M2070.21,-797.593C2110.44,-798.453 2210.92,-800.6 2259.65,-801.641"/>
<polygon fill="black" stroke="black" points="2259.7,-805.143 2269.77,-801.858 2259.85,-798.145 2259.7,-805.143"/>
<text text-anchor="middle" x="2178" y="-805.026" font-family="Times,serif" font-size="14.00">merge_single_node</text>
</g>
<!-- q27&#45;&gt;q2 -->
<g id="edge62" class="edge"><title>q27&#45;&gt;q2</title>
<path fill="none" stroke="green" d="M1835.56,-808.378C1845.7,-812.669 1859.36,-817.759 1872,-820.226 2017.77,-848.67 2395.15,-874.021 2540,-841.226 2582.27,-831.656 2601.82,-833.764 2628,-799.226 2648.39,-772.327 2657.78,-674.416 2661.27,-625.474"/>
<polygon fill="green" stroke="green" points="2664.78,-625.477 2661.97,-615.262 2657.8,-625.001 2664.78,-625.477"/>
<text text-anchor="middle" x="2288" y="-861.026" font-family="Times,serif" font-size="14.00">inspect_after</text>
</g>
<!-- q27&#45;&gt;q26 -->
<g id="edge61" class="edge"><title>q27&#45;&gt;q26</title>
<path fill="none" stroke="black" d="M1837.36,-800.925C1877.18,-800.236 1975.31,-798.536 2023.46,-797.703"/>
<polygon fill="black" stroke="black" points="2023.81,-801.197 2033.75,-797.525 2023.69,-794.198 2023.81,-801.197"/>
<text text-anchor="middle" x="1926" y="-805.026" font-family="Times,serif" font-size="14.00">merge_pair</text>
</g>
<!-- q28&#45;&gt;q2 -->
<g id="edge64" class="edge"><title>q28&#45;&gt;q2</title>
<path fill="none" stroke="green" d="M2070.27,-615.688C2155.48,-613.034 2531.07,-601.335 2635.8,-598.073"/>
<polygon fill="green" stroke="green" points="2635.99,-601.569 2645.88,-597.759 2635.77,-594.572 2635.99,-601.569"/>
<text text-anchor="middle" x="2398" y="-611.026" font-family="Times,serif" font-size="14.00">inspect_after</text>
</g>
<!-- q28&#45;&gt;q23 -->
<g id="edge63" class="edge"><title>q28&#45;&gt;q23</title>
<path fill="none" stroke="black" d="M2066.59,-627.03C2105.53,-657.978 2217.71,-747.152 2265.27,-784.956"/>
<polygon fill="black" stroke="black" points="2263.36,-787.909 2273.37,-791.392 2267.72,-782.43 2263.36,-787.909"/>
<text text-anchor="middle" x="2178" y="-762.026" font-family="Times,serif" font-size="14.00">merge_pair</text>
</g>
<!-- q29 -->
<g id="node30" class="node"><title>q29</title>
<ellipse fill="none" stroke="black" cx="1602" cy="-1054.23" rx="18" ry="18"/>
</g>
<!-- q29&#45;&gt;q2 -->
<g id="edge67" class="edge"><title>q29&#45;&gt;q2</title>
<path fill="none" stroke="green" d="M1619.73,-1058.38C1630.57,-1060.87 1645.03,-1063.82 1658,-1065.23 1887.36,-1090.17 1946.29,-1075.23 2177,-1075.23 2177,-1075.23 2177,-1075.23 2506,-1075.23 2540,-1075.23 2610.09,-1032.03 2628,-1002.23 2647.33,-970.066 2658.7,-711.872 2661.99,-625.36"/>
<polygon fill="green" stroke="green" points="2665.49,-625.357 2662.37,-615.233 2658.5,-625.095 2665.49,-625.357"/>
<text text-anchor="middle" x="2178" y="-1080.03" font-family="Times,serif" font-size="14.00">inspect_after</text>
</g>
<!-- q29&#45;&gt;q11 -->
<g id="edge65" class="edge"><title>q29&#45;&gt;q11</title>
<path fill="none" stroke="black" d="M1617.89,-1044.93C1628.67,-1038.56 1643.79,-1030.37 1658,-1025.23 1704.14,-1008.51 1723.53,-1026.82 1766,-1002.23 1780.6,-993.774 1793.31,-979.79 1802.52,-967.67"/>
<polygon fill="black" stroke="black" points="1805.56,-969.438 1808.58,-959.281 1799.88,-965.34 1805.56,-969.438"/>
<text text-anchor="middle" x="1712" y="-1029.03" font-family="Times,serif" font-size="14.00">merge_single_node</text>
</g>
<!-- q29&#45;&gt;q12 -->
<g id="edge66" class="edge"><title>q29&#45;&gt;q12</title>
<path fill="none" stroke="black" d="M1620.11,-1055.18C1675.16,-1057.55 1851.64,-1059.84 1980,-1001.23 1999.47,-992.334 2018.21,-976.899 2031.54,-964.332"/>
<polygon fill="black" stroke="black" points="2034.01,-966.818 2038.73,-957.335 2029.13,-961.801 2034.01,-966.818"/>
<text text-anchor="middle" x="1819" y="-1054.03" font-family="Times,serif" font-size="14.00">merge_pair</text>
</g>
<!-- q30 -->
<g id="node31" class="node"><title>q30</title>
<ellipse fill="none" stroke="black" cx="1402" cy="-1054.23" rx="18" ry="18"/>
</g>
<!-- q30&#45;&gt;q2 -->
<g id="edge70" class="edge"><title>q30&#45;&gt;q2</title>
<path fill="none" stroke="green" d="M1417.82,-1062.98C1450,-1081.15 1529.15,-1121.23 1601,-1121.23 1601,-1121.23 1601,-1121.23 2506,-1121.23 2570.12,-1121.23 2594.87,-1099.12 2628,-1044.23 2649.62,-1008.41 2659.61,-717.499 2662.26,-625.209"/>
<polygon fill="green" stroke="green" points="2665.76,-625.303 2662.54,-615.209 2658.76,-625.107 2665.76,-625.303"/>
<text text-anchor="middle" x="2052" y="-1125.03" font-family="Times,serif" font-size="14.00">inspect_after</text>
</g>
<!-- q30&#45;&gt;q12 -->
<g id="edge69" class="edge"><title>q30&#45;&gt;q12</title>
<path fill="none" stroke="black" d="M1419.14,-1048.45C1459.04,-1034.44 1565.77,-998.711 1658,-983.226 1744.07,-968.775 1766.89,-976.658 1854,-971.226 1910,-967.734 1924.63,-972.301 1980,-963.226 1995,-960.767 2011.42,-956.481 2024.69,-952.602"/>
<polygon fill="black" stroke="black" points="2026,-955.861 2034.56,-949.62 2023.98,-949.16 2026,-955.861"/>
<text text-anchor="middle" x="1712" y="-987.026" font-family="Times,serif" font-size="14.00">merge_pair</text>
</g>
<!-- q30&#45;&gt;q29 -->
<g id="edge68" class="edge"><title>q30&#45;&gt;q29</title>
<path fill="none" stroke="black" d="M1420.22,-1054.23C1454.69,-1054.23 1532.35,-1054.23 1573.78,-1054.23"/>
<polygon fill="black" stroke="black" points="1573.96,-1057.73 1583.96,-1054.23 1573.96,-1050.73 1573.96,-1057.73"/>
<text text-anchor="middle" x="1492" y="-1058.03" font-family="Times,serif" font-size="14.00">merge_single_node</text>
</g>
<!-- q31&#45;&gt;q2 -->
<g id="edge72" class="edge"><title>q31&#45;&gt;q2</title>
<path fill="none" stroke="green" d="M1245.79,-1068.16C1270.06,-1097.76 1332.2,-1164.23 1401,-1164.23 1401,-1164.23 1401,-1164.23 2506,-1164.23 2568.74,-1164.23 2594.83,-1146.48 2628,-1093.23 2652.77,-1053.46 2660.7,-724.391 2662.54,-625.333"/>
<polygon fill="green" stroke="green" points="2666.04,-625.251 2662.72,-615.19 2659.04,-625.125 2666.04,-625.251"/>
<text text-anchor="middle" x="1926" y="-1168.03" font-family="Times,serif" font-size="14.00">inspect_after</text>
</g>
<!-- q31&#45;&gt;q30 -->
<g id="edge71" class="edge"><title>q31&#45;&gt;q30</title>
<path fill="none" stroke="black" d="M1252.14,-1054.23C1280.84,-1054.23 1338.87,-1054.23 1373.39,-1054.23"/>
<polygon fill="black" stroke="black" points="1373.7,-1057.73 1383.7,-1054.23 1373.7,-1050.73 1373.7,-1057.73"/>
<text text-anchor="middle" x="1328" y="-1058.03" font-family="Times,serif" font-size="14.00">merge_pair</text>
</g>
<!-- iq0 -->
<g id="node33" class="node"><title>iq0</title>
</g>
<!-- iq0&#45;&gt;q0 -->
<g id="edge1" class="edge"><title>iq0&#45;&gt;q0</title>
<path fill="none" stroke="blue" d="M208.047,-1177.23C252.853,-1177.23 344.092,-1177.23 389.729,-1177.23"/>
<polygon fill="blue" stroke="blue" points="389.778,-1180.73 399.778,-1177.23 389.778,-1173.73 389.778,-1180.73"/>
</g>
</g>
</svg>
