<?xml version="1.0" encoding="UTF-8" standalone="no"?>
<!DOCTYPE svg PUBLIC "-//W3C//DTD SVG 1.1//EN"
 "http://www.w3.org/Graphics/SVG/1.1/DTD/svg11.dtd">
<!-- Generated by graphviz version 2.34.0 (20141125.1709)
 -->
<!-- Title: finite_automaton Pages: 1 -->
<svg width="576pt" height="74pt"
 viewBox="0.00 0.00 576.00 74.43" xmlns="http://www.w3.org/2000/svg" xmlns:xlink="http://www.w3.org/1999/xlink">
<g id="graph0" class="graph" transform="scale(0.404494 0.404494) rotate(0) translate(4 180)">
<title>finite_automaton</title>
<polygon fill="white" stroke="white" points="-4,4 -4,-180 1420,-180 1420,4 -4,4"/>
<!-- dom_edges -->
<g id="node1" class="node"><title>dom_edges</title>
<polygon fill="none" stroke="green" points="361.5,-110 0.5,-110 0.5,-74 361.5,-74 361.5,-110"/>
<text text-anchor="middle" x="181" y="-88.3" font-family="Times,serif" font-size="14.00">Dominating edges: inspect_before, inspect_after, Learn_Assert</text>
</g>
<!-- q1 -->
<g id="node2" class="node"><title>q1</title>
<ellipse fill="none" stroke="green" cx="1394" cy="-93" rx="18" ry="18"/>
<ellipse fill="none" stroke="green" cx="1394" cy="-93" rx="22" ry="22"/>
<text text-anchor="middle" x="1394" y="-89.3" font-family="Times,serif" font-size="14.00">D</text>
</g>
<!-- q0 -->
<g id="node3" class="node"><title>q0</title>
<ellipse fill="none" stroke="green" cx="418" cy="-146" rx="18" ry="18"/>
</g>
<!-- q3 -->
<g id="node5" class="node"><title>q3</title>
<ellipse fill="none" stroke="green" cx="570" cy="-146" rx="18" ry="18"/>
</g>
<!-- q0&#45;&gt;q3 -->
<g id="edge2" class="edge"><title>q0&#45;&gt;q3</title>
<path fill="none" stroke="green" d="M436.207,-146C462.09,-146 511.273,-146 541.974,-146"/>
<polygon fill="green" stroke="green" points="541.994,-149.5 551.994,-146 541.994,-142.5 541.994,-149.5"/>
<text text-anchor="middle" x="494" y="-149.8" font-family="Times,serif" font-size="14.00">inspect_before</text>
</g>
<!-- q2 -->
<g id="node4" class="node"><title>q2</title>
<ellipse fill="none" stroke="green" cx="1244" cy="-93" rx="18" ry="18"/>
</g>
<!-- q2&#45;&gt;q1 -->
<g id="edge3" class="edge"><title>q2&#45;&gt;q1</title>
<path fill="none" stroke="green" d="M1262.27,-93C1286.55,-93 1331.2,-93 1361.49,-93"/>
<polygon fill="green" stroke="green" points="1361.55,-96.5001 1371.55,-93 1361.55,-89.5001 1361.55,-96.5001"/>
<text text-anchor="middle" x="1317" y="-96.8" font-family="Times,serif" font-size="14.00">Learn_Assert</text>
</g>
<!-- q3&#45;&gt;q2 -->
<g id="edge5" class="edge"><title>q3&#45;&gt;q2</title>
<path fill="none" stroke="green" d="M588.024,-148.892C615.204,-153.251 670.116,-161 717,-161 717,-161 717,-161 1086,-161 1143.49,-161 1156.99,-144.526 1208,-118 1212.48,-115.668 1217.04,-112.821 1221.33,-109.895"/>
<polygon fill="green" stroke="green" points="1223.55,-112.607 1229.61,-103.917 1219.45,-106.93 1223.55,-112.607"/>
<text text-anchor="middle" x="871" y="-164.8" font-family="Times,serif" font-size="14.00">inspect_after</text>
</g>
<!-- q7 -->
<g id="node8" class="node"><title>q7</title>
<ellipse fill="none" stroke="black" cx="718" cy="-115" rx="18" ry="18"/>
</g>
<!-- q3&#45;&gt;q7 -->
<g id="edge4" class="edge"><title>q3&#45;&gt;q7</title>
<path fill="none" stroke="black" d="M586.767,-138.803C592.695,-136.336 599.56,-133.756 606,-132 633.963,-124.374 666.884,-119.872 689.573,-117.438"/>
<polygon fill="black" stroke="black" points="690.225,-120.89 699.823,-116.404 689.522,-113.925 690.225,-120.89"/>
<text text-anchor="middle" x="644" y="-135.8" font-family="Times,serif" font-size="14.00">seq_sort_core</text>
</g>
<!-- q5 -->
<g id="node6" class="node"><title>q5</title>
<ellipse fill="none" stroke="black" cx="1085" cy="-18" rx="18" ry="18"/>
</g>
<!-- q5&#45;&gt;q2 -->
<g id="edge6" class="edge"><title>q5&#45;&gt;q2</title>
<path fill="none" stroke="green" d="M1103.27,-17.6533C1128.37,-17.956 1175.47,-21.6368 1208,-43 1217.3,-49.1074 1224.86,-58.6162 1230.54,-67.7088"/>
<polygon fill="green" stroke="green" points="1227.58,-69.5858 1235.59,-76.5212 1233.66,-66.1048 1227.58,-69.5858"/>
<text text-anchor="middle" x="1173" y="-46.8" font-family="Times,serif" font-size="14.00">inspect_after</text>
</g>
<!-- q6 -->
<g id="node7" class="node"><title>q6</title>
<ellipse fill="none" stroke="black" cx="871" cy="-69" rx="18" ry="18"/>
</g>
<!-- q6&#45;&gt;q2 -->
<g id="edge8" class="edge"><title>q6&#45;&gt;q2</title>
<path fill="none" stroke="green" d="M889.396,-70.1254C948.671,-73.9598 1143.07,-86.5355 1215.49,-91.2202"/>
<polygon fill="green" stroke="green" points="1215.44,-94.7241 1225.64,-91.8771 1215.89,-87.7387 1215.44,-94.7241"/>
<text text-anchor="middle" x="1085" y="-88.8" font-family="Times,serif" font-size="14.00">inspect_after</text>
</g>
<!-- q6&#45;&gt;q5 -->
<g id="edge7" class="edge"><title>q6&#45;&gt;q5</title>
<path fill="none" stroke="black" d="M886.947,-59.9717C897.066,-54.2554 910.925,-47.1787 924,-43 969.234,-28.5441 1024.43,-22.2809 1056.75,-19.6924"/>
<polygon fill="black" stroke="black" points="1057.07,-23.1782 1066.79,-18.9489 1056.56,-16.1973 1057.07,-23.1782"/>
<text text-anchor="middle" x="978" y="-46.8" font-family="Times,serif" font-size="14.00">merge_single_node</text>
</g>
<!-- q7&#45;&gt;q2 -->
<g id="edge10" class="edge"><title>q7&#45;&gt;q2</title>
<path fill="none" stroke="green" d="M736.42,-115.729C799.906,-118.125 1024.76,-124.336 1208,-101 1210.75,-100.65 1213.59,-100.181 1216.42,-99.6447"/>
<polygon fill="green" stroke="green" points="1217.35,-103.026 1226.38,-97.4987 1215.87,-96.1828 1217.35,-103.026"/>
<text text-anchor="middle" x="978" y="-121.8" font-family="Times,serif" font-size="14.00">inspect_after</text>
</g>
<!-- q7&#45;&gt;q6 -->
<g id="edge9" class="edge"><title>q7&#45;&gt;q6</title>
<path fill="none" stroke="black" d="M731.13,-102.105C737.392,-96.2432 745.493,-89.786 754,-86 782.382,-73.3692 818.153,-69.7566 842.415,-68.8986"/>
<polygon fill="black" stroke="black" points="842.762,-72.3919 852.684,-68.6757 842.61,-65.3936 842.762,-72.3919"/>
<text text-anchor="middle" x="786" y="-89.8" font-family="Times,serif" font-size="14.00">merge_pair</text>
</g>
<!-- iq0 -->
<g id="node9" class="node"><title>iq0</title>
</g>
<!-- iq0&#45;&gt;q0 -->
<g id="edge1" class="edge"><title>iq0&#45;&gt;q0</title>
<path fill="none" stroke="blue" d="M208.047,-146C252.853,-146 344.092,-146 389.729,-146"/>
<polygon fill="blue" stroke="blue" points="389.778,-149.5 399.778,-146 389.778,-142.5 389.778,-149.5"/>
</g>
</g>
</svg>
