<?xml version="1.0" encoding="UTF-8" standalone="no"?>
<!DOCTYPE svg PUBLIC "-//W3C//DTD SVG 1.1//EN"
 "http://www.w3.org/Graphics/SVG/1.1/DTD/svg11.dtd">
<!-- Generated by graphviz version 2.34.0 (20141125.1709)
 -->
<!-- Title: finite_automaton Pages: 1 -->
<svg width="576pt" height="148pt"
 viewBox="0.00 0.00 576.00 147.90" xmlns="http://www.w3.org/2000/svg" xmlns:xlink="http://www.w3.org/1999/xlink">
<g id="graph0" class="graph" transform="scale(0.202817 0.202817) rotate(0) translate(4 725.226)">
<title>finite_automaton</title>
<polygon fill="white" stroke="white" points="-4,4 -4,-725.226 2836,-725.226 2836,4 -4,4"/>
<!-- dom_edges -->
<g id="node1" class="node"><title>dom_edges</title>
<polygon fill="none" stroke="green" points="361.5,-615.226 0.5,-615.226 0.5,-579.226 361.5,-579.226 361.5,-615.226"/>
<text text-anchor="middle" x="181" y="-593.526" font-family="Times,serif" font-size="14.00">Dominating edges: inspect_before, inspect_after, Learn_Assert</text>
</g>
<!-- q1 -->
<g id="node2" class="node"><title>q1</title>
<ellipse fill="none" stroke="green" cx="2810" cy="-370.226" rx="18" ry="18"/>
<ellipse fill="none" stroke="green" cx="2810" cy="-370.226" rx="22" ry="22"/>
<text text-anchor="middle" x="2810" y="-366.526" font-family="Times,serif" font-size="14.00">D</text>
</g>
<!-- q0 -->
<g id="node3" class="node"><title>q0</title>
<ellipse fill="none" stroke="green" cx="418" cy="-651.226" rx="18" ry="18"/>
</g>
<!-- q3 -->
<g id="node5" class="node"><title>q3</title>
<ellipse fill="none" stroke="green" cx="570" cy="-651.226" rx="18" ry="18"/>
</g>
<!-- q0&#45;&gt;q3 -->
<g id="edge2" class="edge"><title>q0&#45;&gt;q3</title>
<path fill="none" stroke="green" d="M436.207,-651.226C462.09,-651.226 511.273,-651.226 541.974,-651.226"/>
<polygon fill="green" stroke="green" points="541.994,-654.726 551.994,-651.226 541.994,-647.726 541.994,-654.726"/>
<text text-anchor="middle" x="494" y="-655.026" font-family="Times,serif" font-size="14.00">inspect_before</text>
</g>
<!-- q2 -->
<g id="node4" class="node"><title>q2</title>
<ellipse fill="none" stroke="green" cx="2660" cy="-370.226" rx="18" ry="18"/>
</g>
<!-- q2&#45;&gt;q1 -->
<g id="edge3" class="edge"><title>q2&#45;&gt;q1</title>
<path fill="none" stroke="green" d="M2678.27,-370.226C2702.55,-370.226 2747.2,-370.226 2777.49,-370.226"/>
<polygon fill="green" stroke="green" points="2777.55,-373.726 2787.55,-370.226 2777.55,-366.726 2777.55,-373.726"/>
<text text-anchor="middle" x="2733" y="-374.026" font-family="Times,serif" font-size="14.00">Learn_Assert</text>
</g>
<!-- q3&#45;&gt;q2 -->
<g id="edge5" class="edge"><title>q3&#45;&gt;q2</title>
<path fill="none" stroke="green" d="M585.653,-660.806C611.209,-676.564 666.078,-706.226 717,-706.226 717,-706.226 717,-706.226 2502,-706.226 2563.65,-706.226 2589.09,-691.04 2624,-640.226 2650.64,-601.451 2657.01,-459.742 2658.53,-398.611"/>
<polygon fill="green" stroke="green" points="2662.03,-398.586 2658.75,-388.511 2655.03,-398.431 2662.03,-398.586"/>
<text text-anchor="middle" x="1532" y="-710.026" font-family="Times,serif" font-size="14.00">inspect_after</text>
</g>
<!-- q10 -->
<g id="node11" class="node"><title>q10</title>
<ellipse fill="none" stroke="black" cx="718" cy="-620.226" rx="18" ry="18"/>
</g>
<!-- q3&#45;&gt;q10 -->
<g id="edge4" class="edge"><title>q3&#45;&gt;q10</title>
<path fill="none" stroke="black" d="M587.748,-647.67C612.697,-642.372 659.889,-632.352 689.823,-625.996"/>
<polygon fill="black" stroke="black" points="690.943,-629.337 699.998,-623.836 689.489,-622.489 690.943,-629.337"/>
<text text-anchor="middle" x="644" y="-647.026" font-family="Times,serif" font-size="14.00">seq_sort_core</text>
</g>
<!-- q5 -->
<g id="node6" class="node"><title>q5</title>
<ellipse fill="none" stroke="black" cx="2073" cy="-144.226" rx="18" ry="18"/>
</g>
<!-- q5&#45;&gt;q2 -->
<g id="edge7" class="edge"><title>q5&#45;&gt;q2</title>
<path fill="none" stroke="green" d="M2089.5,-136.851C2114.84,-125.243 2167.03,-103.208 2214,-95.2258 2396.4,-64.2284 2503.54,-26.8049 2624,-167.226 2646.18,-193.083 2654.73,-292.888 2657.66,-342.252"/>
<polygon fill="green" stroke="green" points="2654.16,-342.464 2658.21,-352.255 2661.15,-342.076 2654.16,-342.464"/>
<text text-anchor="middle" x="2394" y="-77.0258" font-family="Times,serif" font-size="14.00">inspect_after</text>
</g>
<!-- q11 -->
<g id="node12" class="node"><title>q11</title>
<ellipse fill="none" stroke="black" cx="2268" cy="-122.226" rx="18" ry="18"/>
</g>
<!-- q5&#45;&gt;q11 -->
<g id="edge6" class="edge"><title>q5&#45;&gt;q11</title>
<path fill="none" stroke="black" d="M2091.13,-142.273C2124.75,-138.441 2199.61,-129.907 2239.97,-125.307"/>
<polygon fill="black" stroke="black" points="2240.37,-128.784 2249.91,-124.174 2239.58,-121.829 2240.37,-128.784"/>
<text text-anchor="middle" x="2161" y="-142.026" font-family="Times,serif" font-size="14.00">merge_pair</text>
</g>
<!-- q6 -->
<g id="node7" class="node"><title>q6</title>
<ellipse fill="none" stroke="black" cx="1856" cy="-195.226" rx="18" ry="18"/>
</g>
<!-- q6&#45;&gt;q2 -->
<g id="edge9" class="edge"><title>q6&#45;&gt;q2</title>
<path fill="none" stroke="green" d="M1874.31,-197.714C1885.12,-199.197 1899.35,-201.021 1912,-202.226 2070.25,-217.3 2503.83,-167.17 2624,-271.226 2644.58,-289.048 2653.06,-319.769 2656.55,-342.274"/>
<polygon fill="green" stroke="green" points="2653.09,-342.805 2657.87,-352.264 2660.03,-341.893 2653.09,-342.805"/>
<text text-anchor="middle" x="2268" y="-208.026" font-family="Times,serif" font-size="14.00">inspect_after</text>
</g>
<!-- q6&#45;&gt;q5 -->
<g id="edge8" class="edge"><title>q6&#45;&gt;q5</title>
<path fill="none" stroke="black" d="M1873.71,-191.662C1903.29,-185.303 1966.77,-171.428 2020,-158.226 2028.29,-156.169 2037.3,-153.796 2045.44,-151.595"/>
<polygon fill="black" stroke="black" points="2046.46,-154.945 2055.18,-148.936 2044.61,-148.192 2046.46,-154.945"/>
<text text-anchor="middle" x="1966" y="-187.026" font-family="Times,serif" font-size="14.00">seq_sort_core</text>
</g>
<!-- q7 -->
<g id="node8" class="node"><title>q7</title>
<ellipse fill="none" stroke="black" cx="1639" cy="-163.226" rx="18" ry="18"/>
</g>
<!-- q7&#45;&gt;q2 -->
<g id="edge12" class="edge"><title>q7&#45;&gt;q2</title>
<path fill="none" stroke="green" d="M1651.66,-150.319C1681.86,-118.382 1766.49,-38.2258 1855,-38.2258 1855,-38.2258 1855,-38.2258 2502,-38.2258 2563.02,-38.2258 2588.95,-51.2681 2624,-101.226 2650.92,-139.596 2657.14,-280.925 2658.57,-341.907"/>
<polygon fill="green" stroke="green" points="2655.07,-342.058 2658.78,-351.983 2662.07,-341.912 2655.07,-342.058"/>
<text text-anchor="middle" x="2161" y="-42.0258" font-family="Times,serif" font-size="14.00">inspect_after</text>
</g>
<!-- q7&#45;&gt;q5 -->
<g id="edge11" class="edge"><title>q7&#45;&gt;q5</title>
<path fill="none" stroke="black" d="M1657.18,-162.142C1688.93,-160.166 1758.94,-155.931 1818,-153.226 1900.43,-149.45 1997.97,-146.388 2044.56,-145.012"/>
<polygon fill="black" stroke="black" points="2044.85,-148.505 2054.75,-144.714 2044.65,-141.508 2044.85,-148.505"/>
<text text-anchor="middle" x="1856" y="-157.026" font-family="Times,serif" font-size="14.00">seq_sort_core</text>
</g>
<!-- q7&#45;&gt;q6 -->
<g id="edge10" class="edge"><title>q7&#45;&gt;q6</title>
<path fill="none" stroke="black" d="M1656.87,-165.737C1693.99,-171.261 1782.99,-184.509 1827.99,-191.205"/>
<polygon fill="black" stroke="black" points="1827.5,-194.672 1837.91,-192.682 1828.53,-187.748 1827.5,-194.672"/>
<text text-anchor="middle" x="1746" y="-191.026" font-family="Times,serif" font-size="14.00">merge_single_node</text>
</g>
<!-- q8 -->
<g id="node9" class="node"><title>q8</title>
<ellipse fill="none" stroke="black" cx="1442" cy="-280.226" rx="18" ry="18"/>
</g>
<!-- q8&#45;&gt;q2 -->
<g id="edge15" class="edge"><title>q8&#45;&gt;q2</title>
<path fill="none" stroke="green" d="M1460.21,-279.193C1494.18,-277.246 1572.28,-273.226 1638,-273.226 1638,-273.226 1638,-273.226 1967,-273.226 2040.11,-273.226 2561.76,-270.868 2624,-309.226 2636.47,-316.909 2644.93,-330.782 2650.41,-343.359"/>
<polygon fill="green" stroke="green" points="2647.29,-344.982 2654.19,-353.024 2653.81,-342.436 2647.29,-344.982"/>
<text text-anchor="middle" x="2073" y="-278.026" font-family="Times,serif" font-size="14.00">inspect_after</text>
</g>
<!-- q8&#45;&gt;q7 -->
<g id="edge13" class="edge"><title>q8&#45;&gt;q7</title>
<path fill="none" stroke="black" d="M1454.06,-266.838C1460.53,-259.555 1469.15,-250.733 1478,-244.226 1521.64,-212.132 1579.88,-186.246 1612.7,-172.955"/>
<polygon fill="black" stroke="black" points="1614.03,-176.192 1622.03,-169.242 1611.44,-169.689 1614.03,-176.192"/>
<text text-anchor="middle" x="1532" y="-248.026" font-family="Times,serif" font-size="14.00">merge_single_node</text>
</g>
<!-- q13 -->
<g id="node14" class="node"><title>q13</title>
<ellipse fill="none" stroke="black" cx="2073" cy="-400.226" rx="18" ry="18"/>
</g>
<!-- q8&#45;&gt;q13 -->
<g id="edge14" class="edge"><title>q8&#45;&gt;q13</title>
<path fill="none" stroke="black" d="M1459.95,-284.214C1520.82,-298.435 1734.14,-347.453 1912,-378.226 1958.22,-386.222 2012.35,-393.161 2044.32,-397.011"/>
<polygon fill="black" stroke="black" points="2044.31,-400.535 2054.66,-398.241 2045.14,-393.584 2044.31,-400.535"/>
<text text-anchor="middle" x="1746" y="-361.026" font-family="Times,serif" font-size="14.00">seq_sort_core</text>
</g>
<!-- q9 -->
<g id="node10" class="node"><title>q9</title>
<ellipse fill="none" stroke="black" cx="854" cy="-397.226" rx="18" ry="18"/>
</g>
<!-- q9&#45;&gt;q2 -->
<g id="edge19" class="edge"><title>q9&#45;&gt;q2</title>
<path fill="none" stroke="green" d="M855.46,-379.136C858.476,-301.471 881.245,-0.225761 1053,-0.225761 1053,-0.225761 1053,-0.225761 2502,-0.225761 2559.2,-0.225761 2588.2,3.38642 2624,-41.2258 2642.68,-64.4962 2654.09,-266.727 2657.73,-342.083"/>
<polygon fill="green" stroke="green" points="2654.24,-342.421 2658.21,-352.244 2661.23,-342.09 2654.24,-342.421"/>
<text text-anchor="middle" x="1746" y="-4.02576" font-family="Times,serif" font-size="14.00">inspect_after</text>
</g>
<!-- q9&#45;&gt;q8 -->
<g id="edge17" class="edge"><title>q9&#45;&gt;q8</title>
<path fill="none" stroke="black" d="M870.715,-390.118C910.085,-372.645 1016.49,-327.477 1110,-306.226 1205.87,-284.439 1231.9,-289.67 1330,-283.226 1358.43,-281.358 1391.04,-280.647 1413.52,-280.38"/>
<polygon fill="black" stroke="black" points="1413.71,-283.878 1423.68,-280.281 1413.64,-276.878 1413.71,-283.878"/>
<text text-anchor="middle" x="1164" y="-310.026" font-family="Times,serif" font-size="14.00">merge_pair</text>
</g>
<!-- q14 -->
<g id="node15" class="node"><title>q14</title>
<ellipse fill="none" stroke="black" cx="1054" cy="-397.226" rx="18" ry="18"/>
</g>
<!-- q9&#45;&gt;q14 -->
<g id="edge16" class="edge"><title>q9&#45;&gt;q14</title>
<path fill="none" stroke="black" d="M872.225,-397.226C906.686,-397.226 984.355,-397.226 1025.78,-397.226"/>
<polygon fill="black" stroke="black" points="1025.96,-400.726 1035.96,-397.226 1025.96,-393.726 1025.96,-400.726"/>
<text text-anchor="middle" x="944" y="-401.026" font-family="Times,serif" font-size="14.00">merge_single_node</text>
</g>
<!-- q17 -->
<g id="node18" class="node"><title>q17</title>
<ellipse fill="none" stroke="black" cx="1442" cy="-514.226" rx="18" ry="18"/>
</g>
<!-- q9&#45;&gt;q17 -->
<g id="edge18" class="edge"><title>q9&#45;&gt;q17</title>
<path fill="none" stroke="black" d="M869.56,-406.3C875.689,-409.806 883.01,-413.599 890,-416.226 1076.93,-486.486 1131.31,-487.249 1330,-507.226 1358.4,-510.081 1391.01,-511.973 1413.5,-513.062"/>
<polygon fill="black" stroke="black" points="1413.51,-516.566 1423.66,-513.532 1413.84,-509.573 1413.51,-516.566"/>
<text text-anchor="middle" x="1164" y="-500.026" font-family="Times,serif" font-size="14.00">seq_sort_core</text>
</g>
<!-- q10&#45;&gt;q2 -->
<g id="edge22" class="edge"><title>q10&#45;&gt;q2</title>
<path fill="none" stroke="green" d="M734.168,-628.517C758.488,-641.012 808.045,-663.226 853,-663.226 853,-663.226 853,-663.226 2502,-663.226 2563.86,-663.226 2588.51,-646.89 2624,-596.226 2646.06,-564.739 2654.77,-451.56 2657.71,-398.304"/>
<polygon fill="green" stroke="green" points="2661.21,-398.365 2658.24,-388.197 2654.22,-398.001 2661.21,-398.365"/>
<text text-anchor="middle" x="1639" y="-667.026" font-family="Times,serif" font-size="14.00">inspect_after</text>
</g>
<!-- q10&#45;&gt;q9 -->
<g id="edge20" class="edge"><title>q10&#45;&gt;q9</title>
<path fill="none" stroke="black" d="M726.431,-604.116C733.201,-589.755 743.689,-568.277 754,-550.226 781.162,-502.673 816.854,-449.478 837.122,-420.01"/>
<polygon fill="black" stroke="black" points="840.087,-421.877 842.891,-411.659 834.327,-417.898 840.087,-421.877"/>
<text text-anchor="middle" x="786" y="-554.026" font-family="Times,serif" font-size="14.00">merge_pair</text>
</g>
<!-- q10&#45;&gt;q17 -->
<g id="edge21" class="edge"><title>q10&#45;&gt;q17</title>
<path fill="none" stroke="black" d="M734.214,-612.321C758.595,-600.406 808.236,-579.226 853,-579.226 853,-579.226 853,-579.226 1275,-579.226 1329.13,-579.226 1386.78,-548.884 1417.88,-529.661"/>
<polygon fill="black" stroke="black" points="1420.07,-532.412 1426.64,-524.098 1416.32,-526.502 1420.07,-532.412"/>
<text text-anchor="middle" x="1054" y="-583.026" font-family="Times,serif" font-size="14.00">seq_sort_core</text>
</g>
<!-- q12 -->
<g id="node13" class="node"><title>q12</title>
<ellipse fill="none" stroke="black" cx="2501" cy="-176.226" rx="18" ry="18"/>
</g>
<!-- q11&#45;&gt;q12 -->
<g id="edge23" class="edge"><title>q11&#45;&gt;q12</title>
<path fill="none" stroke="black" d="M2286.26,-122.538C2318.75,-123.58 2390.88,-128.06 2448,-147.226 2457.93,-150.558 2468.15,-155.797 2476.87,-160.911"/>
<polygon fill="black" stroke="black" points="2475.31,-164.059 2485.66,-166.314 2478.97,-158.096 2475.31,-164.059"/>
<text text-anchor="middle" x="2394" y="-151.026" font-family="Times,serif" font-size="14.00">merge_single_node</text>
</g>
<!-- q12&#45;&gt;q2 -->
<g id="edge25" class="edge"><title>q12&#45;&gt;q2</title>
<path fill="none" stroke="green" d="M2518.74,-173.091C2544.89,-169.243 2595.4,-166.203 2624,-193.226 2645.14,-213.199 2654.03,-297.322 2657.31,-342.025"/>
<polygon fill="green" stroke="green" points="2653.84,-342.485 2658.02,-352.22 2660.82,-342.003 2653.84,-342.485"/>
<text text-anchor="middle" x="2589" y="-197.026" font-family="Times,serif" font-size="14.00">inspect_after</text>
</g>
<!-- q12&#45;&gt;q5 -->
<g id="edge24" class="edge"><title>q12&#45;&gt;q5</title>
<path fill="none" stroke="black" d="M2482.73,-176.534C2429.35,-177.236 2262.33,-177.532 2126,-157.226 2117.59,-155.973 2108.55,-153.957 2100.41,-151.883"/>
<polygon fill="black" stroke="black" points="2101.26,-148.487 2090.69,-149.278 2099.45,-155.248 2101.26,-148.487"/>
<text text-anchor="middle" x="2268" y="-178.026" font-family="Times,serif" font-size="14.00">merge_single_node</text>
</g>
<!-- q13&#45;&gt;q2 -->
<g id="edge27" class="edge"><title>q13&#45;&gt;q2</title>
<path fill="none" stroke="green" d="M2091.32,-401.476C2101.43,-402.142 2114.43,-402.892 2126,-403.226 2157.1,-404.122 2164.9,-403.866 2196,-403.226 2347.21,-400.114 2384.94,-396.627 2536,-389.226 2575.13,-387.309 2585.76,-392.722 2624,-384.226 2627.26,-383.502 2630.61,-382.511 2633.88,-381.388"/>
<polygon fill="green" stroke="green" points="2635.24,-384.615 2643.32,-377.757 2632.73,-378.082 2635.24,-384.615"/>
<text text-anchor="middle" x="2394" y="-403.026" font-family="Times,serif" font-size="14.00">inspect_after</text>
</g>
<!-- q15 -->
<g id="node16" class="node"><title>q15</title>
<ellipse fill="none" stroke="black" cx="2268" cy="-370.226" rx="18" ry="18"/>
</g>
<!-- q13&#45;&gt;q15 -->
<g id="edge26" class="edge"><title>q13&#45;&gt;q15</title>
<path fill="none" stroke="black" d="M2090.77,-395.907C2100.92,-393.407 2114.14,-390.345 2126,-388.226 2165.42,-381.179 2211.52,-375.834 2239.99,-372.864"/>
<polygon fill="black" stroke="black" points="2240.39,-376.341 2249.99,-371.843 2239.68,-369.377 2240.39,-376.341"/>
<text text-anchor="middle" x="2161" y="-392.026" font-family="Times,serif" font-size="14.00">merge_pair</text>
</g>
<!-- q14&#45;&gt;q2 -->
<g id="edge31" class="edge"><title>q14&#45;&gt;q2</title>
<path fill="none" stroke="green" d="M1067.11,-410.037C1077.65,-420.595 1093.74,-435.383 1110,-445.226 1161.41,-476.335 1178.74,-476.014 1236,-494.226 1631.2,-619.921 1745.29,-624.226 2160,-624.226 2160,-624.226 2160,-624.226 2502,-624.226 2565.88,-624.226 2587.72,-600.809 2624,-548.226 2640.56,-524.217 2651.48,-441.765 2656.25,-398.011"/>
<polygon fill="green" stroke="green" points="2659.74,-398.345 2657.31,-388.032 2652.77,-397.609 2659.74,-398.345"/>
<text text-anchor="middle" x="1856" y="-625.026" font-family="Times,serif" font-size="14.00">inspect_after</text>
</g>
<!-- q14&#45;&gt;q8 -->
<g id="edge29" class="edge"><title>q14&#45;&gt;q8</title>
<path fill="none" stroke="black" d="M1070.12,-388.253C1081.02,-381.972 1096.17,-373.597 1110,-367.226 1164.43,-342.154 1178.44,-335.885 1236,-319.226 1276.94,-307.377 1288.14,-308.227 1330,-300.226 1358.59,-294.761 1391.41,-288.898 1413.91,-284.942"/>
<polygon fill="black" stroke="black" points="1414.81,-288.338 1424.05,-283.164 1413.6,-281.443 1414.81,-288.338"/>
<text text-anchor="middle" x="1274" y="-323.026" font-family="Times,serif" font-size="14.00">merge_pair</text>
</g>
<!-- q14&#45;&gt;q17 -->
<g id="edge30" class="edge"><title>q14&#45;&gt;q17</title>
<path fill="none" stroke="black" d="M1071.59,-402.253C1131.97,-420.555 1340.38,-483.726 1414.54,-506.206"/>
<polygon fill="black" stroke="black" points="1413.89,-509.666 1424.48,-509.217 1415.92,-502.967 1413.89,-509.666"/>
<text text-anchor="middle" x="1274" y="-479.026" font-family="Times,serif" font-size="14.00">seq_sort_core</text>
</g>
<!-- q19 -->
<g id="node20" class="node"><title>q19</title>
<ellipse fill="none" stroke="black" cx="1274" cy="-361.226" rx="18" ry="18"/>
</g>
<!-- q14&#45;&gt;q19 -->
<g id="edge28" class="edge"><title>q14&#45;&gt;q19</title>
<path fill="none" stroke="black" d="M1072.11,-394.401C1109.83,-388.171 1200.44,-373.209 1245.95,-365.693"/>
<polygon fill="black" stroke="black" points="1246.68,-369.12 1255.97,-364.037 1245.54,-362.214 1246.68,-369.12"/>
<text text-anchor="middle" x="1164" y="-392.026" font-family="Times,serif" font-size="14.00">merge_single_node</text>
</g>
<!-- q15&#45;&gt;q2 -->
<g id="edge33" class="edge"><title>q15&#45;&gt;q2</title>
<path fill="none" stroke="green" d="M2286.01,-370.226C2347.21,-370.226 2556.58,-370.226 2631.81,-370.226"/>
<polygon fill="green" stroke="green" points="2631.9,-373.726 2641.9,-370.226 2631.9,-366.726 2631.9,-373.726"/>
<text text-anchor="middle" x="2501" y="-374.026" font-family="Times,serif" font-size="14.00">inspect_after</text>
</g>
<!-- q15&#45;&gt;q12 -->
<g id="edge32" class="edge"><title>q15&#45;&gt;q12</title>
<path fill="none" stroke="black" d="M2282.42,-358.957C2320.93,-326.611 2432.06,-233.282 2478.84,-193.993"/>
<polygon fill="black" stroke="black" points="2481.14,-196.637 2486.54,-187.526 2476.64,-191.277 2481.14,-196.637"/>
<text text-anchor="middle" x="2394" y="-312.026" font-family="Times,serif" font-size="14.00">merge_single_node</text>
</g>
<!-- q16 -->
<g id="node17" class="node"><title>q16</title>
<ellipse fill="none" stroke="black" cx="1639" cy="-473.226" rx="18" ry="18"/>
</g>
<!-- q16&#45;&gt;q2 -->
<g id="edge36" class="edge"><title>q16&#45;&gt;q2</title>
<path fill="none" stroke="green" d="M1655.47,-480.953C1690.22,-497.573 1777.5,-535.226 1855,-535.226 1855,-535.226 1855,-535.226 2502,-535.226 2577.7,-535.226 2627.98,-442.942 2648.53,-396.405"/>
<polygon fill="green" stroke="green" points="2651.86,-397.526 2652.57,-386.955 2645.42,-394.774 2651.86,-397.526"/>
<text text-anchor="middle" x="2161" y="-539.026" font-family="Times,serif" font-size="14.00">inspect_after</text>
</g>
<!-- q16&#45;&gt;q15 -->
<g id="edge35" class="edge"><title>q16&#45;&gt;q15</title>
<path fill="none" stroke="black" d="M1655.97,-467.09C1697.5,-451.387 1812.58,-409.488 1912,-388.226 1967.15,-376.432 1981.73,-376.934 2038,-373.226 2110.63,-368.44 2196.49,-368.965 2239.51,-369.652"/>
<polygon fill="black" stroke="black" points="2239.68,-373.156 2249.74,-369.832 2239.8,-366.157 2239.68,-373.156"/>
<text text-anchor="middle" x="1966" y="-392.026" font-family="Times,serif" font-size="14.00">merge_pair</text>
</g>
<!-- q18 -->
<g id="node19" class="node"><title>q18</title>
<ellipse fill="none" stroke="black" cx="1856" cy="-465.226" rx="18" ry="18"/>
</g>
<!-- q16&#45;&gt;q18 -->
<g id="edge34" class="edge"><title>q16&#45;&gt;q18</title>
<path fill="none" stroke="black" d="M1657.23,-472.585C1694.51,-471.197 1782.92,-467.908 1827.82,-466.237"/>
<polygon fill="black" stroke="black" points="1828.12,-469.728 1837.99,-465.859 1827.86,-462.733 1828.12,-469.728"/>
<text text-anchor="middle" x="1746" y="-475.026" font-family="Times,serif" font-size="14.00">merge_single_node</text>
</g>
<!-- q17&#45;&gt;q2 -->
<g id="edge38" class="edge"><title>q17&#45;&gt;q2</title>
<path fill="none" stroke="green" d="M1459.15,-520.704C1465,-522.798 1471.71,-524.916 1478,-526.226 1775.7,-588.244 1855.9,-581.226 2160,-581.226 2160,-581.226 2160,-581.226 2502,-581.226 2567.83,-581.226 2585.84,-550.867 2624,-497.226 2645.07,-467.613 2653.47,-425.829 2656.81,-398.395"/>
<polygon fill="green" stroke="green" points="2660.3,-398.605 2657.89,-388.29 2653.34,-397.861 2660.3,-398.605"/>
<text text-anchor="middle" x="2073" y="-586.026" font-family="Times,serif" font-size="14.00">inspect_after</text>
</g>
<!-- q17&#45;&gt;q16 -->
<g id="edge37" class="edge"><title>q17&#45;&gt;q16</title>
<path fill="none" stroke="black" d="M1459.96,-510.659C1493.9,-503.523 1570.39,-487.44 1611.19,-478.863"/>
<polygon fill="black" stroke="black" points="1612.15,-482.238 1621.21,-476.755 1610.71,-475.388 1612.15,-482.238"/>
<text text-anchor="middle" x="1532" y="-511.026" font-family="Times,serif" font-size="14.00">merge_pair</text>
</g>
<!-- q18&#45;&gt;q2 -->
<g id="edge41" class="edge"><title>q18&#45;&gt;q2</title>
<path fill="none" stroke="green" d="M1874.31,-467.205C1885.13,-468.341 1899.36,-469.652 1912,-470.226 1959.95,-472.401 1972.01,-471.316 2020,-470.226 2290.12,-464.09 2377.86,-512.652 2624,-401.226 2629.78,-398.609 2635.29,-394.701 2640.16,-390.534"/>
<polygon fill="green" stroke="green" points="2642.8,-392.859 2647.69,-383.458 2638,-387.76 2642.8,-392.859"/>
<text text-anchor="middle" x="2268" y="-480.026" font-family="Times,serif" font-size="14.00">inspect_after</text>
</g>
<!-- q18&#45;&gt;q13 -->
<g id="edge39" class="edge"><title>q18&#45;&gt;q13</title>
<path fill="none" stroke="black" d="M1869.98,-453.402C1880.52,-444.48 1896.19,-432.707 1912,-426.226 1935.56,-416.569 2005.78,-407.571 2044.91,-403.127"/>
<polygon fill="black" stroke="black" points="2045.5,-406.583 2055.05,-401.998 2044.73,-399.626 2045.5,-406.583"/>
<text text-anchor="middle" x="1966" y="-430.026" font-family="Times,serif" font-size="14.00">merge_single_node</text>
</g>
<!-- q18&#45;&gt;q15 -->
<g id="edge40" class="edge"><title>q18&#45;&gt;q15</title>
<path fill="none" stroke="black" d="M1874.14,-464.487C1924.86,-461.842 2078.02,-450.553 2196,-407.226 2212.54,-401.153 2230.1,-392.023 2243.63,-384.352"/>
<polygon fill="black" stroke="black" points="2245.39,-387.377 2252.28,-379.331 2241.87,-381.323 2245.39,-387.377"/>
<text text-anchor="middle" x="2073" y="-451.026" font-family="Times,serif" font-size="14.00">merge_pair</text>
</g>
<!-- q19&#45;&gt;q2 -->
<g id="edge44" class="edge"><title>q19&#45;&gt;q2</title>
<path fill="none" stroke="green" d="M1292.28,-360.215C1392,-354.528 1904.17,-327.338 2322,-343.226 2456.51,-348.341 2489.99,-353.47 2624,-366.226 2626.56,-366.469 2629.22,-366.74 2631.88,-367.024"/>
<polygon fill="green" stroke="green" points="2631.6,-370.514 2641.92,-368.143 2632.37,-363.557 2631.6,-370.514"/>
<text text-anchor="middle" x="1966" y="-343.026" font-family="Times,serif" font-size="14.00">inspect_after</text>
</g>
<!-- q19&#45;&gt;q8 -->
<g id="edge42" class="edge"><title>q19&#45;&gt;q8</title>
<path fill="none" stroke="black" d="M1288.14,-349.36C1298.77,-340.292 1314.48,-328.058 1330,-320.226 1361.51,-304.33 1373.14,-310.086 1406,-297.226 1409.37,-295.906 1412.87,-294.393 1416.29,-292.825"/>
<polygon fill="black" stroke="black" points="1418.05,-295.861 1425.56,-288.381 1415.02,-289.55 1418.05,-295.861"/>
<text text-anchor="middle" x="1368" y="-324.026" font-family="Times,serif" font-size="14.00">merge_pair</text>
</g>
<!-- q19&#45;&gt;q17 -->
<g id="edge43" class="edge"><title>q19&#45;&gt;q17</title>
<path fill="none" stroke="black" d="M1291.96,-363.69C1319.61,-368.579 1374.48,-382.055 1406,-415.226 1424.45,-434.647 1433.25,-464.394 1437.4,-486.212"/>
<polygon fill="black" stroke="black" points="1433.97,-486.927 1439.09,-496.205 1440.88,-485.762 1433.97,-486.927"/>
<text text-anchor="middle" x="1368" y="-419.026" font-family="Times,serif" font-size="14.00">seq_sort_core</text>
</g>
<!-- iq0 -->
<g id="node21" class="node"><title>iq0</title>
</g>
<!-- iq0&#45;&gt;q0 -->
<g id="edge1" class="edge"><title>iq0&#45;&gt;q0</title>
<path fill="none" stroke="blue" d="M208.047,-651.226C252.853,-651.226 344.092,-651.226 389.729,-651.226"/>
<polygon fill="blue" stroke="blue" points="389.778,-654.726 399.778,-651.226 389.778,-647.726 389.778,-654.726"/>
</g>
</g>
</svg>
