<?xml version="1.0" encoding="UTF-8" standalone="no"?>
<!DOCTYPE svg PUBLIC "-//W3C//DTD SVG 1.1//EN"
 "http://www.w3.org/Graphics/SVG/1.1/DTD/svg11.dtd">
<!-- Generated by graphviz version 2.34.0 (20141125.1709)
 -->
<!-- Title: finite_automaton Pages: 1 -->
<svg width="576pt" height="240pt"
 viewBox="0.00 0.00 576.00 240.04" xmlns="http://www.w3.org/2000/svg" xmlns:xlink="http://www.w3.org/1999/xlink">
<g id="graph0" class="graph" transform="scale(0.213967 0.213967) rotate(0) translate(4 1117.87)">
<title>finite_automaton</title>
<polygon fill="white" stroke="white" points="-4,4 -4,-1117.87 2688,-1117.87 2688,4 -4,4"/>
<!-- dom_edges -->
<g id="node1" class="node"><title>dom_edges</title>
<polygon fill="none" stroke="green" points="361.5,-1006.87 0.5,-1006.87 0.5,-970.875 361.5,-970.875 361.5,-1006.87"/>
<text text-anchor="middle" x="181" y="-985.175" font-family="Times,serif" font-size="14.00">Dominating edges: inspect_before, inspect_after, Learn_Assert</text>
</g>
<!-- q1 -->
<g id="node2" class="node"><title>q1</title>
<ellipse fill="none" stroke="green" cx="2662" cy="-609.875" rx="18" ry="18"/>
<ellipse fill="none" stroke="green" cx="2662" cy="-609.875" rx="22" ry="22"/>
<text text-anchor="middle" x="2662" y="-606.175" font-family="Times,serif" font-size="14.00">D</text>
</g>
<!-- q0 -->
<g id="node3" class="node"><title>q0</title>
<ellipse fill="none" stroke="green" cx="418" cy="-1042.87" rx="18" ry="18"/>
</g>
<!-- q3 -->
<g id="node5" class="node"><title>q3</title>
<ellipse fill="none" stroke="green" cx="570" cy="-1042.87" rx="18" ry="18"/>
</g>
<!-- q0&#45;&gt;q3 -->
<g id="edge2" class="edge"><title>q0&#45;&gt;q3</title>
<path fill="none" stroke="green" d="M436.207,-1042.87C462.09,-1042.87 511.273,-1042.87 541.974,-1042.87"/>
<polygon fill="green" stroke="green" points="541.994,-1046.37 551.994,-1042.87 541.994,-1039.37 541.994,-1046.37"/>
<text text-anchor="middle" x="494" y="-1046.67" font-family="Times,serif" font-size="14.00">inspect_before</text>
</g>
<!-- q2 -->
<g id="node4" class="node"><title>q2</title>
<ellipse fill="none" stroke="green" cx="2512" cy="-609.875" rx="18" ry="18"/>
</g>
<!-- q2&#45;&gt;q1 -->
<g id="edge3" class="edge"><title>q2&#45;&gt;q1</title>
<path fill="none" stroke="green" d="M2530.27,-609.875C2554.55,-609.875 2599.2,-609.875 2629.49,-609.875"/>
<polygon fill="green" stroke="green" points="2629.55,-613.375 2639.55,-609.875 2629.55,-606.375 2629.55,-613.375"/>
<text text-anchor="middle" x="2585" y="-613.675" font-family="Times,serif" font-size="14.00">Learn_Assert</text>
</g>
<!-- q3&#45;&gt;q2 -->
<g id="edge5" class="edge"><title>q3&#45;&gt;q2</title>
<path fill="none" stroke="green" d="M585.628,-1052.63C611.147,-1068.67 665.962,-1098.87 717,-1098.87 717,-1098.87 717,-1098.87 2354,-1098.87 2415.65,-1098.87 2442.28,-1084.48 2476,-1032.87 2497.52,-999.934 2507.49,-727.5 2510.21,-638.142"/>
<polygon fill="green" stroke="green" points="2513.71,-638.046 2510.51,-627.947 2506.72,-637.839 2513.71,-638.046"/>
<text text-anchor="middle" x="1447" y="-1102.67" font-family="Times,serif" font-size="14.00">inspect_after</text>
</g>
<!-- q10 -->
<g id="node11" class="node"><title>q10</title>
<ellipse fill="none" stroke="black" cx="718" cy="-1011.87" rx="18" ry="18"/>
</g>
<!-- q3&#45;&gt;q10 -->
<g id="edge4" class="edge"><title>q3&#45;&gt;q10</title>
<path fill="none" stroke="black" d="M587.748,-1039.32C612.697,-1034.02 659.889,-1024 689.823,-1017.65"/>
<polygon fill="black" stroke="black" points="690.943,-1020.99 699.998,-1015.48 689.489,-1014.14 690.943,-1020.99"/>
<text text-anchor="middle" x="644" y="-1038.67" font-family="Times,serif" font-size="14.00">seq_sort_core</text>
</g>
<!-- q5 -->
<g id="node6" class="node"><title>q5</title>
<ellipse fill="none" stroke="black" cx="2136" cy="-415.875" rx="18" ry="18"/>
</g>
<!-- q5&#45;&gt;q2 -->
<g id="edge7" class="edge"><title>q5&#45;&gt;q2</title>
<path fill="none" stroke="green" d="M2153.8,-419.783C2164.67,-422.25 2179.14,-425.423 2192,-427.875 2317.68,-451.827 2381.78,-388.326 2476,-474.875 2491.55,-489.162 2502.16,-546.669 2507.34,-581.856"/>
<polygon fill="green" stroke="green" points="2503.91,-582.575 2508.78,-591.987 2510.84,-581.595 2503.91,-582.575"/>
<text text-anchor="middle" x="2353" y="-433.675" font-family="Times,serif" font-size="14.00">inspect_after</text>
</g>
<!-- q17 -->
<g id="node18" class="node"><title>q17</title>
<ellipse fill="none" stroke="black" cx="2353" cy="-386.875" rx="18" ry="18"/>
</g>
<!-- q5&#45;&gt;q17 -->
<g id="edge6" class="edge"><title>q5&#45;&gt;q17</title>
<path fill="none" stroke="black" d="M2153.87,-413.599C2190.99,-408.593 2279.99,-396.587 2324.99,-390.518"/>
<polygon fill="black" stroke="black" points="2325.47,-393.985 2334.91,-389.18 2324.53,-387.048 2325.47,-393.985"/>
<text text-anchor="middle" x="2246" y="-412.675" font-family="Times,serif" font-size="14.00">seq_sort_core</text>
</g>
<!-- q6 -->
<g id="node7" class="node"><title>q6</title>
<ellipse fill="none" stroke="black" cx="1900" cy="-364.875" rx="18" ry="18"/>
</g>
<!-- q6&#45;&gt;q2 -->
<g id="edge10" class="edge"><title>q6&#45;&gt;q2</title>
<path fill="none" stroke="green" d="M1914.14,-353.05C1963.64,-309.958 2144.05,-166.148 2300,-210.875 2388.67,-236.305 2426.51,-243.034 2476,-320.875 2503.24,-363.711 2509.28,-517.267 2510.62,-581.407"/>
<polygon fill="green" stroke="green" points="2507.12,-581.669 2510.81,-591.602 2514.12,-581.539 2507.12,-581.669"/>
<text text-anchor="middle" x="2246" y="-214.675" font-family="Times,serif" font-size="14.00">inspect_after</text>
</g>
<!-- q6&#45;&gt;q5 -->
<g id="edge8" class="edge"><title>q6&#45;&gt;q5</title>
<path fill="none" stroke="black" d="M1917.92,-367.439C1949.84,-372.421 2021.06,-384.217 2080,-398.875 2089.58,-401.258 2099.96,-404.334 2109.1,-407.213"/>
<polygon fill="black" stroke="black" points="2108.18,-410.595 2118.77,-410.333 2110.33,-403.932 2108.18,-410.595"/>
<text text-anchor="middle" x="2026" y="-402.675" font-family="Times,serif" font-size="14.00">merge_single_node</text>
</g>
<!-- q6&#45;&gt;q17 -->
<g id="edge9" class="edge"><title>q6&#45;&gt;q17</title>
<path fill="none" stroke="black" d="M1918.26,-365.204C1961.4,-366.08 2077.4,-368.757 2174,-373.875 2227.33,-376.7 2289.53,-381.613 2324.48,-384.523"/>
<polygon fill="black" stroke="black" points="2324.57,-388.042 2334.83,-385.392 2325.16,-381.067 2324.57,-388.042"/>
<text text-anchor="middle" x="2136" y="-377.675" font-family="Times,serif" font-size="14.00">seq_sort_core</text>
</g>
<!-- q7 -->
<g id="node8" class="node"><title>q7</title>
<ellipse fill="none" stroke="black" cx="1664" cy="-466.875" rx="18" ry="18"/>
</g>
<!-- q7&#45;&gt;q2 -->
<g id="edge13" class="edge"><title>q7&#45;&gt;q2</title>
<path fill="none" stroke="green" d="M1682.01,-466.481C1770.37,-464.569 2177.45,-457.421 2300,-484.875 2382.64,-503.387 2410.46,-504.247 2476,-557.875 2485.06,-565.29 2492.69,-575.66 2498.49,-585.189"/>
<polygon fill="green" stroke="green" points="2495.48,-586.987 2503.47,-593.945 2501.57,-583.523 2495.48,-586.987"/>
<text text-anchor="middle" x="2136" y="-474.675" font-family="Times,serif" font-size="14.00">inspect_after</text>
</g>
<!-- q7&#45;&gt;q6 -->
<g id="edge11" class="edge"><title>q7&#45;&gt;q6</title>
<path fill="none" stroke="black" d="M1680.85,-459.568C1691.81,-454.537 1706.76,-447.73 1720,-441.875 1774.63,-417.713 1839.05,-390.25 1873.77,-375.535"/>
<polygon fill="black" stroke="black" points="1875.31,-378.687 1883.15,-371.565 1872.58,-372.241 1875.31,-378.687"/>
<text text-anchor="middle" x="1774" y="-445.675" font-family="Times,serif" font-size="14.00">merge_single_node</text>
</g>
<!-- q11 -->
<g id="node12" class="node"><title>q11</title>
<ellipse fill="none" stroke="black" cx="1900" cy="-711.875" rx="18" ry="18"/>
</g>
<!-- q7&#45;&gt;q11 -->
<g id="edge12" class="edge"><title>q7&#45;&gt;q11</title>
<path fill="none" stroke="black" d="M1680.56,-475.094C1712.24,-492.523 1784.88,-536.123 1828,-590.875 1840.31,-606.51 1836.47,-614.404 1846,-631.875 1857,-652.048 1871.54,-673.706 1882.6,-689.393"/>
<polygon fill="black" stroke="black" points="1880,-691.778 1888.66,-697.883 1885.7,-687.711 1880,-691.778"/>
<text text-anchor="middle" x="1774" y="-594.675" font-family="Times,serif" font-size="14.00">seq_sort_core</text>
</g>
<!-- q8 -->
<g id="node9" class="node"><title>q8</title>
<ellipse fill="none" stroke="black" cx="1054" cy="-461.875" rx="18" ry="18"/>
</g>
<!-- q8&#45;&gt;q2 -->
<g id="edge17" class="edge"><title>q8&#45;&gt;q2</title>
<path fill="none" stroke="green" d="M1054.53,-443.803C1053.31,-358.571 1059.96,-0.874653 1257,-0.874653 1257,-0.874653 1257,-0.874653 2354,-0.874653 2410.41,-0.874653 2440.7,8.12376 2476,-35.8747 2510.35,-78.6937 2511.51,-471.642 2511.16,-581.474"/>
<polygon fill="green" stroke="green" points="2507.66,-581.749 2511.12,-591.763 2514.66,-581.777 2507.66,-581.749"/>
<text text-anchor="middle" x="1774" y="-4.67465" font-family="Times,serif" font-size="14.00">inspect_after</text>
</g>
<!-- q8&#45;&gt;q7 -->
<g id="edge15" class="edge"><title>q8&#45;&gt;q7</title>
<path fill="none" stroke="black" d="M1072.22,-462.016C1157.14,-462.715 1531.5,-465.793 1635.89,-466.652"/>
<polygon fill="black" stroke="black" points="1635.9,-470.152 1645.93,-466.734 1635.96,-463.152 1635.9,-470.152"/>
<text text-anchor="middle" x="1362" y="-468.675" font-family="Times,serif" font-size="14.00">merge_pair</text>
</g>
<!-- q16 -->
<g id="node17" class="node"><title>q16</title>
<ellipse fill="none" stroke="black" cx="1258" cy="-882.875" rx="18" ry="18"/>
</g>
<!-- q8&#45;&gt;q16 -->
<g id="edge16" class="edge"><title>q8&#45;&gt;q16</title>
<path fill="none" stroke="black" d="M1063.32,-477.351C1084.57,-517.064 1142.27,-625.988 1186,-718.875 1208.66,-767.001 1232.81,-824.222 1246.29,-856.77"/>
<polygon fill="black" stroke="black" points="1243.23,-858.521 1250.28,-866.428 1249.7,-855.85 1243.23,-858.521"/>
<text text-anchor="middle" x="1148" y="-722.675" font-family="Times,serif" font-size="14.00">seq_sort_core</text>
</g>
<!-- q18 -->
<g id="node19" class="node"><title>q18</title>
<ellipse fill="none" stroke="black" cx="1447" cy="-171.875" rx="18" ry="18"/>
</g>
<!-- q8&#45;&gt;q18 -->
<g id="edge14" class="edge"><title>q8&#45;&gt;q18</title>
<path fill="none" stroke="black" d="M1068.92,-451.553C1127.1,-408.398 1351.22,-242.174 1423.43,-188.611"/>
<polygon fill="black" stroke="black" points="1425.9,-191.144 1431.84,-182.375 1421.73,-185.521 1425.9,-191.144"/>
<text text-anchor="middle" x="1258" y="-354.675" font-family="Times,serif" font-size="14.00">merge_single_node</text>
</g>
<!-- q9 -->
<g id="node10" class="node"><title>q9</title>
<ellipse fill="none" stroke="black" cx="854" cy="-755.875" rx="18" ry="18"/>
</g>
<!-- q9&#45;&gt;q2 -->
<g id="edge21" class="edge"><title>q9&#45;&gt;q2</title>
<path fill="none" stroke="green" d="M860.235,-738.889C877.841,-685.542 940.229,-524.875 1053,-524.875 1053,-524.875 1053,-524.875 1665,-524.875 1831.02,-524.875 2358.47,-590.502 2484,-606.425"/>
<polygon fill="green" stroke="green" points="2483.57,-609.899 2493.93,-607.688 2484.45,-602.955 2483.57,-609.899"/>
<text text-anchor="middle" x="1664" y="-528.675" font-family="Times,serif" font-size="14.00">inspect_after</text>
</g>
<!-- q9&#45;&gt;q8 -->
<g id="edge18" class="edge"><title>q9&#45;&gt;q8</title>
<path fill="none" stroke="black" d="M854.83,-737.858C854.715,-684.868 857.265,-531.05 890,-495.875 924.713,-458.574 988.899,-456.52 1025.52,-458.859"/>
<polygon fill="black" stroke="black" points="1025.68,-462.384 1035.93,-459.692 1026.24,-455.406 1025.68,-462.384"/>
<text text-anchor="middle" x="944" y="-499.675" font-family="Times,serif" font-size="14.00">merge_single_node</text>
</g>
<!-- q9&#45;&gt;q16 -->
<g id="edge20" class="edge"><title>q9&#45;&gt;q16</title>
<path fill="none" stroke="black" d="M870.926,-762.564C876.871,-764.977 883.706,-767.651 890,-769.875 1016.01,-814.392 1169.71,-858.48 1230.47,-875.513"/>
<polygon fill="black" stroke="black" points="1229.81,-878.963 1240.38,-878.283 1231.69,-872.221 1229.81,-878.963"/>
<text text-anchor="middle" x="1054" y="-838.675" font-family="Times,serif" font-size="14.00">seq_sort_core</text>
</g>
<!-- q20 -->
<g id="node21" class="node"><title>q20</title>
<ellipse fill="none" stroke="black" cx="1447" cy="-755.875" rx="18" ry="18"/>
</g>
<!-- q9&#45;&gt;q20 -->
<g id="edge19" class="edge"><title>q9&#45;&gt;q20</title>
<path fill="none" stroke="black" d="M872.05,-755.875C954.953,-755.875 1316.11,-755.875 1418.72,-755.875"/>
<polygon fill="black" stroke="black" points="1418.88,-759.375 1428.88,-755.875 1418.88,-752.375 1418.88,-759.375"/>
<text text-anchor="middle" x="1148" y="-759.675" font-family="Times,serif" font-size="14.00">merge_pair</text>
</g>
<!-- q10&#45;&gt;q2 -->
<g id="edge24" class="edge"><title>q10&#45;&gt;q2</title>
<path fill="none" stroke="green" d="M734.214,-1019.78C758.595,-1031.69 808.236,-1052.87 853,-1052.87 853,-1052.87 853,-1052.87 2354,-1052.87 2414.82,-1052.87 2441.85,-1041.21 2476,-990.875 2495.69,-961.846 2506.72,-721.306 2509.97,-638.081"/>
<polygon fill="green" stroke="green" points="2513.47,-638.201 2510.35,-628.074 2506.47,-637.933 2513.47,-638.201"/>
<text text-anchor="middle" x="1554" y="-1056.67" font-family="Times,serif" font-size="14.00">inspect_after</text>
</g>
<!-- q10&#45;&gt;q9 -->
<g id="edge22" class="edge"><title>q10&#45;&gt;q9</title>
<path fill="none" stroke="black" d="M722.616,-994.247C727.723,-971.286 738.222,-930.26 754,-897.875 776.567,-851.555 813.31,-803.589 835.12,-776.956"/>
<polygon fill="black" stroke="black" points="837.954,-779.021 841.639,-769.087 832.564,-774.554 837.954,-779.021"/>
<text text-anchor="middle" x="786" y="-901.675" font-family="Times,serif" font-size="14.00">merge_pair</text>
</g>
<!-- q10&#45;&gt;q16 -->
<g id="edge23" class="edge"><title>q10&#45;&gt;q16</title>
<path fill="none" stroke="black" d="M735.691,-1007.87C812.798,-989.384 1134.82,-912.171 1230.24,-889.291"/>
<polygon fill="black" stroke="black" points="1231.33,-892.629 1240.24,-886.894 1229.7,-885.822 1231.33,-892.629"/>
<text text-anchor="middle" x="944" y="-974.675" font-family="Times,serif" font-size="14.00">seq_sort_core</text>
</g>
<!-- q11&#45;&gt;q2 -->
<g id="edge26" class="edge"><title>q11&#45;&gt;q2</title>
<path fill="none" stroke="green" d="M1918.08,-711.378C2008.29,-708.638 2427.06,-694.397 2476,-664.875 2487.02,-658.228 2495.15,-646.636 2500.79,-635.804"/>
<polygon fill="green" stroke="green" points="2504.02,-637.161 2505.12,-626.623 2497.69,-634.179 2504.02,-637.161"/>
<text text-anchor="middle" x="2246" y="-703.675" font-family="Times,serif" font-size="14.00">inspect_after</text>
</g>
<!-- q12 -->
<g id="node13" class="node"><title>q12</title>
<ellipse fill="none" stroke="black" cx="2136" cy="-739.875" rx="18" ry="18"/>
</g>
<!-- q11&#45;&gt;q12 -->
<g id="edge25" class="edge"><title>q11&#45;&gt;q12</title>
<path fill="none" stroke="black" d="M1918.13,-712.464C1950.12,-713.75 2021.02,-717.487 2080,-726.875 2089.33,-728.36 2099.43,-730.568 2108.39,-732.744"/>
<polygon fill="black" stroke="black" points="2107.73,-736.186 2118.28,-735.24 2109.44,-729.399 2107.73,-736.186"/>
<text text-anchor="middle" x="2026" y="-730.675" font-family="Times,serif" font-size="14.00">merge_pair</text>
</g>
<!-- q12&#45;&gt;q2 -->
<g id="edge28" class="edge"><title>q12&#45;&gt;q2</title>
<path fill="none" stroke="green" d="M2153.69,-743.928C2207.13,-755.856 2376.37,-785.352 2476,-707.875 2497.3,-691.312 2505.66,-660.72 2508.93,-638.106"/>
<polygon fill="green" stroke="green" points="2512.42,-638.393 2510.13,-628.049 2505.47,-637.563 2512.42,-638.393"/>
<text text-anchor="middle" x="2353" y="-762.675" font-family="Times,serif" font-size="14.00">inspect_after</text>
</g>
<!-- q12&#45;&gt;q17 -->
<g id="edge27" class="edge"><title>q12&#45;&gt;q17</title>
<path fill="none" stroke="black" d="M2146.48,-725.187C2154.94,-711.424 2167.03,-690.01 2174,-669.875 2188.62,-627.611 2165.95,-607.226 2192,-570.875 2223.98,-526.241 2267.48,-555.118 2300,-510.875 2323.39,-479.059 2299.99,-459.014 2318,-423.875 2321.37,-417.302 2326.23,-411.031 2331.22,-405.579"/>
<polygon fill="black" stroke="black" points="2333.94,-407.812 2338.48,-398.24 2328.96,-402.89 2333.94,-407.812"/>
<text text-anchor="middle" x="2246" y="-574.675" font-family="Times,serif" font-size="14.00">merge_single_node</text>
</g>
<!-- q13 -->
<g id="node14" class="node"><title>q13</title>
<ellipse fill="none" stroke="black" cx="1900" cy="-836.875" rx="18" ry="18"/>
</g>
<!-- q13&#45;&gt;q2 -->
<g id="edge30" class="edge"><title>q13&#45;&gt;q2</title>
<path fill="none" stroke="green" d="M1918,-837.251C2008.7,-839.096 2433.19,-845.658 2476,-807.875 2500.88,-785.916 2508.11,-687.367 2510.18,-638.1"/>
<polygon fill="green" stroke="green" points="2513.69,-637.947 2510.57,-627.822 2506.7,-637.683 2513.69,-637.947"/>
<text text-anchor="middle" x="2246" y="-841.675" font-family="Times,serif" font-size="14.00">inspect_after</text>
</g>
<!-- q13&#45;&gt;q12 -->
<g id="edge29" class="edge"><title>q13&#45;&gt;q12</title>
<path fill="none" stroke="black" d="M1917.08,-830.207C1957.09,-813.624 2061.33,-770.412 2109.69,-750.368"/>
<polygon fill="black" stroke="black" points="2111.22,-753.523 2119.11,-746.46 2108.54,-747.056 2111.22,-753.523"/>
<text text-anchor="middle" x="2026" y="-809.675" font-family="Times,serif" font-size="14.00">merge_single_node</text>
</g>
<!-- q14 -->
<g id="node15" class="node"><title>q14</title>
<ellipse fill="none" stroke="black" cx="1664" cy="-828.875" rx="18" ry="18"/>
</g>
<!-- q14&#45;&gt;q2 -->
<g id="edge33" class="edge"><title>q14&#45;&gt;q2</title>
<path fill="none" stroke="green" d="M1680.37,-837.535C1691.12,-843.17 1706.01,-850.144 1720,-853.875 1851.57,-888.974 1888.83,-882.875 2025,-882.875 2025,-882.875 2025,-882.875 2354,-882.875 2412.77,-882.875 2439.71,-878.099 2476,-831.875 2499.27,-802.23 2507.35,-690.9 2509.92,-638.055"/>
<polygon fill="green" stroke="green" points="2513.42,-638.159 2510.37,-628.011 2506.42,-637.843 2513.42,-638.159"/>
<text text-anchor="middle" x="2136" y="-886.675" font-family="Times,serif" font-size="14.00">inspect_after</text>
</g>
<!-- q14&#45;&gt;q11 -->
<g id="edge31" class="edge"><title>q14&#45;&gt;q11</title>
<path fill="none" stroke="black" d="M1675.74,-815.109C1688.59,-798.958 1709.65,-773.53 1720,-766.875 1768.28,-735.819 1835.11,-721.438 1871.94,-715.504"/>
<polygon fill="black" stroke="black" points="1872.56,-718.95 1881.92,-713.986 1871.51,-712.03 1872.56,-718.95"/>
<text text-anchor="middle" x="1774" y="-770.675" font-family="Times,serif" font-size="14.00">merge_single_node</text>
</g>
<!-- q14&#45;&gt;q13 -->
<g id="edge32" class="edge"><title>q14&#45;&gt;q13</title>
<path fill="none" stroke="black" d="M1682.21,-829.463C1722.44,-830.838 1822.92,-834.274 1871.65,-835.94"/>
<polygon fill="black" stroke="black" points="1871.65,-839.442 1881.77,-836.286 1871.89,-832.446 1871.65,-839.442"/>
<text text-anchor="middle" x="1774" y="-838.675" font-family="Times,serif" font-size="14.00">merge_pair</text>
</g>
<!-- q15 -->
<g id="node16" class="node"><title>q15</title>
<ellipse fill="none" stroke="black" cx="1447" cy="-882.875" rx="18" ry="18"/>
</g>
<!-- q15&#45;&gt;q2 -->
<g id="edge36" class="edge"><title>q15&#45;&gt;q2</title>
<path fill="none" stroke="green" d="M1462.41,-892.484C1496.01,-913.941 1582.83,-963.875 1663,-963.875 1663,-963.875 1663,-963.875 2354,-963.875 2413.3,-963.875 2440.82,-957.608 2476,-909.875 2507.46,-867.19 2511.06,-704.715 2511.18,-638.36"/>
<polygon fill="green" stroke="green" points="2514.68,-638.206 2511.17,-628.209 2507.68,-638.211 2514.68,-638.206"/>
<text text-anchor="middle" x="2026" y="-967.675" font-family="Times,serif" font-size="14.00">inspect_after</text>
</g>
<!-- q15&#45;&gt;q13 -->
<g id="edge35" class="edge"><title>q15&#45;&gt;q13</title>
<path fill="none" stroke="black" d="M1465.16,-882.534C1518.96,-881.261 1689.1,-875.662 1828,-853.875 1842.92,-851.534 1859.33,-847.69 1872.61,-844.249"/>
<polygon fill="black" stroke="black" points="1873.75,-847.569 1882.51,-841.611 1871.94,-840.805 1873.75,-847.569"/>
<text text-anchor="middle" x="1664" y="-879.675" font-family="Times,serif" font-size="14.00">merge_pair</text>
</g>
<!-- q15&#45;&gt;q14 -->
<g id="edge34" class="edge"><title>q15&#45;&gt;q14</title>
<path fill="none" stroke="black" d="M1462.36,-873.021C1472.45,-866.569 1486.51,-858.503 1500,-853.875 1545.98,-838.1 1602.68,-832.253 1635.65,-830.104"/>
<polygon fill="black" stroke="black" points="1636.09,-833.584 1645.87,-829.508 1635.68,-826.596 1636.09,-833.584"/>
<text text-anchor="middle" x="1554" y="-857.675" font-family="Times,serif" font-size="14.00">merge_single_node</text>
</g>
<!-- q16&#45;&gt;q2 -->
<g id="edge38" class="edge"><title>q16&#45;&gt;q2</title>
<path fill="none" stroke="green" d="M1269.48,-896.951C1295.43,-930.017 1366.33,-1009.87 1446,-1009.87 1446,-1009.87 1446,-1009.87 2354,-1009.87 2414.62,-1009.87 2441.52,-998.736 2476,-948.875 2510.57,-898.883 2512.19,-710.787 2511.49,-638.457"/>
<polygon fill="green" stroke="green" points="2514.99,-638.225 2511.37,-628.268 2507.99,-638.31 2514.99,-638.225"/>
<text text-anchor="middle" x="1900" y="-1013.67" font-family="Times,serif" font-size="14.00">inspect_after</text>
</g>
<!-- q16&#45;&gt;q15 -->
<g id="edge37" class="edge"><title>q16&#45;&gt;q15</title>
<path fill="none" stroke="black" d="M1276.26,-882.875C1308.82,-882.875 1379.56,-882.875 1418.65,-882.875"/>
<polygon fill="black" stroke="black" points="1418.78,-886.375 1428.78,-882.875 1418.78,-879.375 1418.78,-886.375"/>
<text text-anchor="middle" x="1362" y="-886.675" font-family="Times,serif" font-size="14.00">merge_pair</text>
</g>
<!-- q17&#45;&gt;q2 -->
<g id="edge39" class="edge"><title>q17&#45;&gt;q2</title>
<path fill="none" stroke="green" d="M2371,-385.72C2397.51,-384.929 2448.51,-387.634 2476,-416.875 2497.96,-440.238 2506.55,-533.678 2509.56,-581.445"/>
<polygon fill="green" stroke="green" points="2506.08,-581.944 2510.16,-591.721 2513.07,-581.533 2506.08,-581.944"/>
<text text-anchor="middle" x="2441" y="-420.675" font-family="Times,serif" font-size="14.00">inspect_after</text>
</g>
<!-- q18&#45;&gt;q2 -->
<g id="edge42" class="edge"><title>q18&#45;&gt;q2</title>
<path fill="none" stroke="green" d="M1459.49,-158.142C1489.28,-124.161 1573.02,-38.8747 1663,-38.8747 1663,-38.8747 1663,-38.8747 2354,-38.8747 2411.06,-38.8747 2441.02,-33.7923 2476,-78.8747 2506.94,-118.749 2510.56,-477.439 2510.96,-581.621"/>
<polygon fill="green" stroke="green" points="2507.46,-581.712 2510.99,-591.701 2514.46,-581.69 2507.46,-581.712"/>
<text text-anchor="middle" x="2026" y="-42.6747" font-family="Times,serif" font-size="14.00">inspect_after</text>
</g>
<!-- q21 -->
<g id="node22" class="node"><title>q21</title>
<ellipse fill="none" stroke="black" cx="1900" cy="-198.875" rx="18" ry="18"/>
</g>
<!-- q18&#45;&gt;q21 -->
<g id="edge41" class="edge"><title>q18&#45;&gt;q21</title>
<path fill="none" stroke="black" d="M1464.74,-176.165C1474.87,-178.574 1488.1,-181.388 1500,-182.875 1638.84,-200.218 1806.76,-200.16 1871.61,-199.358"/>
<polygon fill="black" stroke="black" points="1871.85,-202.855 1881.8,-199.215 1871.76,-195.856 1871.85,-202.855"/>
<text text-anchor="middle" x="1664" y="-201.675" font-family="Times,serif" font-size="14.00">seq_sort_core</text>
</g>
<!-- q26 -->
<g id="node27" class="node"><title>q26</title>
<ellipse fill="none" stroke="black" cx="1664" cy="-140.875" rx="18" ry="18"/>
</g>
<!-- q18&#45;&gt;q26 -->
<g id="edge40" class="edge"><title>q18&#45;&gt;q26</title>
<path fill="none" stroke="black" d="M1464.87,-169.442C1501.99,-164.09 1590.99,-151.257 1635.99,-144.77"/>
<polygon fill="black" stroke="black" points="1636.51,-148.23 1645.91,-143.339 1635.51,-141.302 1636.51,-148.23"/>
<text text-anchor="middle" x="1554" y="-167.675" font-family="Times,serif" font-size="14.00">merge_pair</text>
</g>
<!-- q19 -->
<g id="node20" class="node"><title>q19</title>
<ellipse fill="none" stroke="black" cx="1664" cy="-755.875" rx="18" ry="18"/>
</g>
<!-- q19&#45;&gt;q2 -->
<g id="edge44" class="edge"><title>q19&#45;&gt;q2</title>
<path fill="none" stroke="green" d="M1682.18,-753.886C1711.96,-750.766 1775.04,-745.594 1828,-750.875 1892.96,-757.351 1907.04,-773.398 1972,-779.875 2056.79,-788.328 2287.41,-799.005 2388,-777.875 2429.69,-769.116 2448.13,-772.097 2476,-739.875 2500.68,-711.345 2508.15,-667.123 2510.3,-638.331"/>
<polygon fill="green" stroke="green" points="2513.81,-638.302 2510.89,-628.117 2506.82,-637.898 2513.81,-638.302"/>
<text text-anchor="middle" x="2136" y="-794.675" font-family="Times,serif" font-size="14.00">inspect_after</text>
</g>
<!-- q19&#45;&gt;q13 -->
<g id="edge43" class="edge"><title>q19&#45;&gt;q13</title>
<path fill="none" stroke="black" d="M1679.89,-765.399C1690.67,-771.941 1705.79,-780.399 1720,-785.875 1766.07,-803.627 1780.65,-797.88 1828,-811.875 1843.18,-816.362 1859.89,-822.199 1873.28,-827.105"/>
<polygon fill="black" stroke="black" points="1872.21,-830.438 1882.8,-830.637 1874.64,-823.876 1872.21,-830.438"/>
<text text-anchor="middle" x="1774" y="-815.675" font-family="Times,serif" font-size="14.00">merge_pair</text>
</g>
<!-- q20&#45;&gt;q2 -->
<g id="edge47" class="edge"><title>q20&#45;&gt;q2</title>
<path fill="none" stroke="green" d="M1451.17,-773.605C1456.64,-799.128 1470.28,-846.089 1500,-872.875 1556.59,-923.872 1586.82,-925.875 1663,-925.875 1663,-925.875 1663,-925.875 2354,-925.875 2413.66,-925.875 2440.51,-917.831 2476,-869.875 2502.85,-833.6 2509.1,-697.691 2510.56,-638.134"/>
<polygon fill="green" stroke="green" points="2514.06,-638.017 2510.78,-627.943 2507.06,-637.865 2514.06,-638.017"/>
<text text-anchor="middle" x="2026" y="-929.675" font-family="Times,serif" font-size="14.00">inspect_after</text>
</g>
<!-- q20&#45;&gt;q19 -->
<g id="edge46" class="edge"><title>q20&#45;&gt;q19</title>
<path fill="none" stroke="black" d="M1465.23,-755.875C1502.51,-755.875 1590.92,-755.875 1635.82,-755.875"/>
<polygon fill="black" stroke="black" points="1635.99,-759.375 1645.99,-755.875 1635.99,-752.375 1635.99,-759.375"/>
<text text-anchor="middle" x="1554" y="-759.675" font-family="Times,serif" font-size="14.00">seq_sort_core</text>
</g>
<!-- q25 -->
<g id="node26" class="node"><title>q25</title>
<ellipse fill="none" stroke="black" cx="1664" cy="-635.875" rx="18" ry="18"/>
</g>
<!-- q20&#45;&gt;q25 -->
<g id="edge45" class="edge"><title>q20&#45;&gt;q25</title>
<path fill="none" stroke="black" d="M1463.12,-747.436C1499.9,-726.91 1594.28,-674.23 1638.92,-649.316"/>
<polygon fill="black" stroke="black" points="1640.87,-652.233 1647.9,-644.303 1637.46,-646.121 1640.87,-652.233"/>
<text text-anchor="middle" x="1554" y="-727.675" font-family="Times,serif" font-size="14.00">merge_single_node</text>
</g>
<!-- q21&#45;&gt;q2 -->
<g id="edge49" class="edge"><title>q21&#45;&gt;q2</title>
<path fill="none" stroke="green" d="M1917.87,-195.897C1973.12,-186.642 2153.53,-160.362 2300,-183.875 2340.66,-190.402 2349.09,-199.392 2388,-212.875 2427.32,-226.5 2450.52,-211.967 2476,-244.875 2496.47,-271.316 2506.92,-500.24 2510,-581.451"/>
<polygon fill="green" stroke="green" points="2506.52,-582.03 2510.39,-591.893 2513.52,-581.77 2506.52,-582.03"/>
<text text-anchor="middle" x="2246" y="-187.675" font-family="Times,serif" font-size="14.00">inspect_after</text>
</g>
<!-- q22 -->
<g id="node23" class="node"><title>q22</title>
<ellipse fill="none" stroke="black" cx="2136" cy="-301.875" rx="18" ry="18"/>
</g>
<!-- q21&#45;&gt;q22 -->
<g id="edge48" class="edge"><title>q21&#45;&gt;q22</title>
<path fill="none" stroke="black" d="M1916.72,-205.793C1956.51,-223.31 2061.53,-269.537 2109.93,-290.839"/>
<polygon fill="black" stroke="black" points="2108.79,-294.161 2119.35,-294.987 2111.61,-287.755 2108.79,-294.161"/>
<text text-anchor="middle" x="2026" y="-281.675" font-family="Times,serif" font-size="14.00">merge_pair</text>
</g>
<!-- q22&#45;&gt;q2 -->
<g id="edge52" class="edge"><title>q22&#45;&gt;q2</title>
<path fill="none" stroke="green" d="M2153.95,-298.33C2183.89,-292.709 2247.91,-283.578 2300,-295.875 2385.12,-315.968 2424.45,-313.229 2476,-383.875 2498.66,-414.93 2507.07,-528.33 2509.82,-581.72"/>
<polygon fill="green" stroke="green" points="2506.33,-582.034 2510.31,-591.853 2513.32,-581.696 2506.33,-582.034"/>
<text text-anchor="middle" x="2353" y="-320.675" font-family="Times,serif" font-size="14.00">inspect_after</text>
</g>
<!-- q22&#45;&gt;q17 -->
<g id="edge50" class="edge"><title>q22&#45;&gt;q17</title>
<path fill="none" stroke="black" d="M2151.89,-311.171C2162.67,-317.537 2177.79,-325.728 2192,-330.875 2238.14,-347.589 2254.57,-335.323 2300,-353.875 2310.39,-358.119 2321.01,-364.433 2329.92,-370.405"/>
<polygon fill="black" stroke="black" points="2327.98,-373.321 2338.18,-376.174 2331.98,-367.58 2327.98,-373.321"/>
<text text-anchor="middle" x="2246" y="-357.675" font-family="Times,serif" font-size="14.00">merge_single_node</text>
</g>
<!-- q22&#45;&gt;q17 -->
<g id="edge51" class="edge"><title>q22&#45;&gt;q17</title>
<path fill="none" stroke="black" d="M2154.06,-298.342C2185.3,-292.814 2252.82,-285.301 2300,-311.875 2319.16,-322.664 2332.82,-343.793 2341.33,-360.882"/>
<polygon fill="black" stroke="black" points="2338.35,-362.776 2345.74,-370.369 2344.69,-359.825 2338.35,-362.776"/>
<text text-anchor="middle" x="2246" y="-315.675" font-family="Times,serif" font-size="14.00">merge_pair</text>
</g>
<!-- q23 -->
<g id="node24" class="node"><title>q23</title>
<ellipse fill="none" stroke="black" cx="2136" cy="-520.875" rx="18" ry="18"/>
</g>
<!-- q23&#45;&gt;q17 -->
<g id="edge53" class="edge"><title>q23&#45;&gt;q17</title>
<path fill="none" stroke="black" d="M2152.28,-513.135C2181.69,-498.031 2247.86,-463.02 2300,-427.875 2310.51,-420.791 2321.61,-412.204 2330.85,-404.723"/>
<polygon fill="black" stroke="black" points="2333.23,-407.293 2338.73,-398.238 2328.79,-401.886 2333.23,-407.293"/>
<text text-anchor="middle" x="2246" y="-495.675" font-family="Times,serif" font-size="14.00">merge_single_node</text>
</g>
<!-- q24 -->
<g id="node25" class="node"><title>q24</title>
<ellipse fill="none" stroke="black" cx="1900" cy="-604.875" rx="18" ry="18"/>
</g>
<!-- q24&#45;&gt;q2 -->
<g id="edge55" class="edge"><title>q24&#45;&gt;q2</title>
<path fill="none" stroke="green" d="M1918.27,-605.016C2003.48,-605.715 2379.07,-608.793 2483.8,-609.652"/>
<polygon fill="green" stroke="green" points="2483.85,-613.152 2493.88,-609.734 2483.91,-606.152 2483.85,-613.152"/>
<text text-anchor="middle" x="2246" y="-612.675" font-family="Times,serif" font-size="14.00">inspect_after</text>
</g>
<!-- q24&#45;&gt;q23 -->
<g id="edge54" class="edge"><title>q24&#45;&gt;q23</title>
<path fill="none" stroke="black" d="M1916.96,-598.022C1931.28,-591.956 1952.91,-582.986 1972,-575.875 2019.98,-558 2076.8,-539.399 2109.1,-529.061"/>
<polygon fill="black" stroke="black" points="2110.22,-532.378 2118.69,-526.007 2108.1,-525.709 2110.22,-532.378"/>
<text text-anchor="middle" x="2026" y="-579.675" font-family="Times,serif" font-size="14.00">merge_pair</text>
</g>
<!-- q25&#45;&gt;q2 -->
<g id="edge58" class="edge"><title>q25&#45;&gt;q2</title>
<path fill="none" stroke="green" d="M1682.01,-637.714C1720.56,-641.719 1817.58,-650.875 1899,-650.875 1899,-650.875 1899,-650.875 2354,-650.875 2401.84,-650.875 2455.29,-632.836 2485.86,-620.689"/>
<polygon fill="green" stroke="green" points="2487.37,-623.851 2495.31,-616.83 2484.73,-617.37 2487.37,-623.851"/>
<text text-anchor="middle" x="2136" y="-654.675" font-family="Times,serif" font-size="14.00">inspect_after</text>
</g>
<!-- q25&#45;&gt;q5 -->
<g id="edge56" class="edge"><title>q25&#45;&gt;q5</title>
<path fill="none" stroke="black" d="M1673.3,-620.257C1682.66,-604.047 1699.29,-578.991 1720,-563.875 1846.97,-471.197 2037.52,-431.941 2107.75,-420.06"/>
<polygon fill="black" stroke="black" points="2108.66,-423.458 2117.96,-418.384 2107.53,-416.55 2108.66,-423.458"/>
<text text-anchor="middle" x="1900" y="-497.675" font-family="Times,serif" font-size="14.00">merge_single_node</text>
</g>
<!-- q25&#45;&gt;q24 -->
<g id="edge57" class="edge"><title>q25&#45;&gt;q24</title>
<path fill="none" stroke="black" d="M1681.7,-630.906C1692.53,-627.864 1706.99,-624.134 1720,-621.875 1773.38,-612.604 1836.65,-608.09 1871.87,-606.144"/>
<polygon fill="black" stroke="black" points="1872.05,-609.639 1881.85,-605.62 1871.68,-602.649 1872.05,-609.639"/>
<text text-anchor="middle" x="1774" y="-625.675" font-family="Times,serif" font-size="14.00">seq_sort_core</text>
</g>
<!-- q26&#45;&gt;q2 -->
<g id="edge61" class="edge"><title>q26&#45;&gt;q2</title>
<path fill="none" stroke="green" d="M1680.86,-134.341C1718.19,-119.569 1814.83,-84.8747 1899,-84.8747 1899,-84.8747 1899,-84.8747 2354,-84.8747 2409.73,-84.8747 2439.93,-71.3893 2476,-113.875 2506.33,-149.593 2510.39,-481.478 2510.92,-581.487"/>
<polygon fill="green" stroke="green" points="2507.42,-581.745 2510.97,-591.729 2514.42,-581.713 2507.42,-581.745"/>
<text text-anchor="middle" x="2136" y="-88.6747" font-family="Times,serif" font-size="14.00">inspect_after</text>
</g>
<!-- q26&#45;&gt;q6 -->
<g id="edge59" class="edge"><title>q26&#45;&gt;q6</title>
<path fill="none" stroke="black" d="M1677.58,-152.918C1715.99,-189.685 1831.96,-300.7 1878.93,-345.659"/>
<polygon fill="black" stroke="black" points="1876.71,-348.385 1886.36,-352.772 1881.55,-343.329 1876.71,-348.385"/>
<text text-anchor="middle" x="1774" y="-296.675" font-family="Times,serif" font-size="14.00">merge_single_node</text>
</g>
<!-- q27 -->
<g id="node28" class="node"><title>q27</title>
<ellipse fill="none" stroke="black" cx="2136" cy="-135.875" rx="18" ry="18"/>
</g>
<!-- q26&#45;&gt;q27 -->
<g id="edge60" class="edge"><title>q26&#45;&gt;q27</title>
<path fill="none" stroke="black" d="M1682.01,-140.694C1752.24,-139.947 2020.09,-137.097 2107.35,-136.169"/>
<polygon fill="black" stroke="black" points="2107.56,-139.667 2117.52,-136.061 2107.48,-132.667 2107.56,-139.667"/>
<text text-anchor="middle" x="1900" y="-142.675" font-family="Times,serif" font-size="14.00">seq_sort_core</text>
</g>
<!-- q27&#45;&gt;q2 -->
<g id="edge63" class="edge"><title>q27&#45;&gt;q2</title>
<path fill="none" stroke="green" d="M2153.33,-130.568C2208.64,-113.728 2390.23,-67.9361 2476,-161.875 2504.3,-192.875 2509.75,-488.412 2510.77,-581.762"/>
<polygon fill="green" stroke="green" points="2507.27,-581.907 2510.87,-591.871 2514.27,-581.836 2507.27,-581.907"/>
<text text-anchor="middle" x="2353" y="-116.675" font-family="Times,serif" font-size="14.00">inspect_after</text>
</g>
<!-- q27&#45;&gt;q17 -->
<g id="edge62" class="edge"><title>q27&#45;&gt;q17</title>
<path fill="none" stroke="black" d="M2142.97,-152.684C2151.1,-173.4 2167.51,-208.477 2192,-229.875 2231.16,-264.088 2262.5,-238.846 2300,-274.875 2312.93,-287.298 2331.16,-331.306 2342.25,-360.318"/>
<polygon fill="black" stroke="black" points="2339.05,-361.755 2345.85,-369.878 2345.6,-359.286 2339.05,-361.755"/>
<text text-anchor="middle" x="2246" y="-278.675" font-family="Times,serif" font-size="14.00">merge_pair</text>
</g>
<!-- iq0 -->
<g id="node29" class="node"><title>iq0</title>
</g>
<!-- iq0&#45;&gt;q0 -->
<g id="edge1" class="edge"><title>iq0&#45;&gt;q0</title>
<path fill="none" stroke="blue" d="M208.047,-1042.87C252.853,-1042.87 344.092,-1042.87 389.729,-1042.87"/>
<polygon fill="blue" stroke="blue" points="389.778,-1046.37 399.778,-1042.87 389.778,-1039.37 389.778,-1046.37"/>
</g>
</g>
</svg>
