<?xml version="1.0" encoding="UTF-8" standalone="no"?>
<!DOCTYPE svg PUBLIC "-//W3C//DTD SVG 1.1//EN"
 "http://www.w3.org/Graphics/SVG/1.1/DTD/svg11.dtd">
<!-- Generated by graphviz version 2.34.0 (20141125.1709)
 -->
<!-- Title: finite_automaton Pages: 1 -->
<svg width="576pt" height="242pt"
 viewBox="0.00 0.00 576.00 242.29" xmlns="http://www.w3.org/2000/svg" xmlns:xlink="http://www.w3.org/1999/xlink">
<g id="graph0" class="graph" transform="scale(0.228571 0.228571) rotate(0) translate(4 1056)">
<title>finite_automaton</title>
<polygon fill="white" stroke="white" points="-4,4 -4,-1056 2516,-1056 2516,4 -4,4"/>
<!-- dom_edges -->
<g id="node1" class="node"><title>dom_edges</title>
<polygon fill="none" stroke="green" points="627.5,-36 0.5,-36 0.5,-0 627.5,-0 627.5,-36"/>
<text text-anchor="middle" x="314" y="-14.3" font-family="Times,serif" font-size="14.00">Dominating edges: merge_single_node, merge_pair, seq_sort_core, inspect_before, inspect_after, Learn_Assert</text>
</g>
<!-- q1 -->
<g id="node2" class="node"><title>q1</title>
<ellipse fill="none" stroke="green" cx="2490" cy="-480" rx="18" ry="18"/>
<ellipse fill="none" stroke="green" cx="2490" cy="-480" rx="22" ry="22"/>
<text text-anchor="middle" x="2490" y="-476.3" font-family="Times,serif" font-size="14.00">D</text>
</g>
<!-- q0 -->
<g id="node3" class="node"><title>q0</title>
<ellipse fill="none" stroke="green" cx="684" cy="-72" rx="18" ry="18"/>
</g>
<!-- q8 -->
<g id="node10" class="node"><title>q8</title>
<ellipse fill="none" stroke="green" cx="836" cy="-72" rx="18" ry="18"/>
</g>
<!-- q0&#45;&gt;q8 -->
<g id="edge2" class="edge"><title>q0&#45;&gt;q8</title>
<path fill="none" stroke="green" d="M702.207,-72C728.09,-72 777.273,-72 807.974,-72"/>
<polygon fill="green" stroke="green" points="807.994,-75.5001 817.994,-72 807.994,-68.5001 807.994,-75.5001"/>
<text text-anchor="middle" x="760" y="-75.8" font-family="Times,serif" font-size="14.00">inspect_before</text>
</g>
<!-- q2 -->
<g id="node4" class="node"><title>q2</title>
<ellipse fill="none" stroke="green" cx="2340" cy="-480" rx="18" ry="18"/>
</g>
<!-- q2&#45;&gt;q1 -->
<g id="edge3" class="edge"><title>q2&#45;&gt;q1</title>
<path fill="none" stroke="green" d="M2358.27,-480C2382.55,-480 2427.2,-480 2457.49,-480"/>
<polygon fill="green" stroke="green" points="2457.55,-483.5 2467.55,-480 2457.55,-476.5 2457.55,-483.5"/>
<text text-anchor="middle" x="2413" y="-483.8" font-family="Times,serif" font-size="14.00">Learn_Assert</text>
</g>
<!-- q3 -->
<g id="node5" class="node"><title>q3</title>
<ellipse fill="none" stroke="black" cx="1964" cy="-424" rx="18" ry="18"/>
</g>
<!-- q3&#45;&gt;q2 -->
<g id="edge5" class="edge"><title>q3&#45;&gt;q2</title>
<path fill="none" stroke="green" d="M1982.28,-423.089C2043.24,-420.16 2247.6,-412.844 2304,-443 2310.86,-446.669 2317.14,-452.187 2322.43,-457.851"/>
<polygon fill="green" stroke="green" points="2319.82,-460.186 2328.99,-465.502 2325.14,-455.631 2319.82,-460.186"/>
<text text-anchor="middle" x="2181" y="-427.8" font-family="Times,serif" font-size="14.00">inspect_after</text>
</g>
<!-- q9 -->
<g id="node11" class="node"><title>q9</title>
<ellipse fill="none" stroke="black" cx="2181" cy="-596" rx="18" ry="18"/>
</g>
<!-- q3&#45;&gt;q9 -->
<g id="edge4" class="edge"><title>q3&#45;&gt;q9</title>
<path fill="none" stroke="green" d="M1976.67,-437.226C1987.17,-448.565 2003.46,-464.797 2020,-476 2063.79,-505.669 2086.96,-492.628 2128,-526 2143.66,-538.735 2157.11,-557.192 2166.41,-571.957"/>
<polygon fill="green" stroke="green" points="2163.47,-573.852 2171.64,-580.588 2169.45,-570.223 2163.47,-573.852"/>
<text text-anchor="middle" x="2074" y="-529.8" font-family="Times,serif" font-size="14.00">merge_pair</text>
</g>
<!-- q4 -->
<g id="node6" class="node"><title>q4</title>
<ellipse fill="none" stroke="black" cx="1747" cy="-523" rx="18" ry="18"/>
</g>
<!-- q4&#45;&gt;q2 -->
<g id="edge8" class="edge"><title>q4&#45;&gt;q2</title>
<path fill="none" stroke="green" d="M1765.11,-523.903C1794.72,-525.032 1857.19,-525.496 1908,-513 1960.94,-499.981 1966.68,-474.361 2020,-463 2126.28,-440.353 2256.74,-462.332 2312.11,-473.892"/>
<polygon fill="green" stroke="green" points="2311.64,-477.371 2322.15,-476.049 2313.11,-470.527 2311.64,-477.371"/>
<text text-anchor="middle" x="2074" y="-466.8" font-family="Times,serif" font-size="14.00">inspect_after</text>
</g>
<!-- q4&#45;&gt;q3 -->
<g id="edge7" class="edge"><title>q4&#45;&gt;q3</title>
<path fill="none" stroke="green" d="M1763.07,-514.572C1773.24,-509.182 1787.11,-502.401 1800,-498 1846.44,-482.144 1864.44,-497.608 1908,-475 1922,-467.734 1935.06,-455.926 1944.94,-445.502"/>
<polygon fill="green" stroke="green" points="1947.72,-447.656 1951.84,-437.898 1942.53,-442.953 1947.72,-447.656"/>
<text text-anchor="middle" x="1854" y="-501.8" font-family="Times,serif" font-size="14.00">seq_sort_core</text>
</g>
<!-- q10 -->
<g id="node12" class="node"><title>q10</title>
<ellipse fill="none" stroke="black" cx="1964" cy="-558" rx="18" ry="18"/>
</g>
<!-- q4&#45;&gt;q10 -->
<g id="edge6" class="edge"><title>q4&#45;&gt;q10</title>
<path fill="none" stroke="green" d="M1757.47,-537.877C1766.6,-550.697 1781.7,-568.316 1800,-576 1845.68,-595.175 1904.56,-579.969 1937.6,-568.26"/>
<polygon fill="green" stroke="green" points="1938.82,-571.539 1946.98,-564.78 1936.39,-564.976 1938.82,-571.539"/>
<text text-anchor="middle" x="1854" y="-588.8" font-family="Times,serif" font-size="14.00">merge_pair</text>
</g>
<!-- q5 -->
<g id="node7" class="node"><title>q5</title>
<ellipse fill="none" stroke="black" cx="1533" cy="-512" rx="18" ry="18"/>
</g>
<!-- q5&#45;&gt;q2 -->
<g id="edge12" class="edge"><title>q5&#45;&gt;q2</title>
<path fill="none" stroke="green" d="M1535.03,-493.815C1538.37,-441.872 1550.83,-294.669 1586,-265 1616.49,-239.278 2275.03,-246.58 2304,-274 2329.16,-297.811 2336.26,-400.749 2338.24,-451.497"/>
<polygon fill="green" stroke="green" points="2334.75,-451.902 2338.6,-461.773 2341.75,-451.657 2334.75,-451.902"/>
<text text-anchor="middle" x="1964" y="-253.8" font-family="Times,serif" font-size="14.00">inspect_after</text>
</g>
<!-- q5&#45;&gt;q4 -->
<g id="edge9" class="edge"><title>q5&#45;&gt;q4</title>
<path fill="none" stroke="green" d="M1550.99,-512.882C1587.66,-514.784 1674.49,-519.29 1718.87,-521.592"/>
<polygon fill="green" stroke="green" points="1718.76,-525.091 1728.93,-522.114 1719.12,-518.101 1718.76,-525.091"/>
<text text-anchor="middle" x="1640" y="-523.8" font-family="Times,serif" font-size="14.00">merge_single_node</text>
</g>
<!-- q11 -->
<g id="node13" class="node"><title>q11</title>
<ellipse fill="none" stroke="black" cx="1747" cy="-672" rx="18" ry="18"/>
</g>
<!-- q5&#45;&gt;q11 -->
<g id="edge11" class="edge"><title>q5&#45;&gt;q11</title>
<path fill="none" stroke="green" d="M1547.91,-522.498C1583.92,-549.677 1680.43,-622.512 1724.05,-655.436"/>
<polygon fill="green" stroke="green" points="1721.95,-658.233 1732.04,-661.463 1726.17,-652.646 1721.95,-658.233"/>
<text text-anchor="middle" x="1640" y="-632.8" font-family="Times,serif" font-size="14.00">seq_sort_core</text>
</g>
<!-- q13 -->
<g id="node15" class="node"><title>q13</title>
<ellipse fill="none" stroke="black" cx="1747" cy="-440" rx="18" ry="18"/>
</g>
<!-- q5&#45;&gt;q13 -->
<g id="edge10" class="edge"><title>q5&#45;&gt;q13</title>
<path fill="none" stroke="green" d="M1550.28,-506.47C1586.89,-494.036 1675.95,-463.791 1720.19,-448.767"/>
<polygon fill="green" stroke="green" points="1721.32,-452.079 1729.66,-445.549 1719.07,-445.451 1721.32,-452.079"/>
<text text-anchor="middle" x="1640" y="-495.8" font-family="Times,serif" font-size="14.00">merge_pair</text>
</g>
<!-- q6 -->
<g id="node8" class="node"><title>q6</title>
<ellipse fill="none" stroke="black" cx="1140" cy="-512" rx="18" ry="18"/>
</g>
<!-- q6&#45;&gt;q2 -->
<g id="edge16" class="edge"><title>q6&#45;&gt;q2</title>
<path fill="none" stroke="green" d="M1144.34,-529.726C1161.19,-616.685 1240.25,-994 1343,-994 1343,-994 1343,-994 2182,-994 2242.04,-994 2270.01,-985.49 2304,-936 2328.19,-900.783 2336.44,-602.465 2338.46,-508.335"/>
<polygon fill="green" stroke="green" points="2341.96,-508.214 2338.67,-498.144 2334.96,-508.069 2341.96,-508.214"/>
<text text-anchor="middle" x="1747" y="-997.8" font-family="Times,serif" font-size="14.00">inspect_after</text>
</g>
<!-- q6&#45;&gt;q5 -->
<g id="edge13" class="edge"><title>q6&#45;&gt;q5</title>
<path fill="none" stroke="green" d="M1158.05,-512C1219.41,-512 1429.32,-512 1504.74,-512"/>
<polygon fill="green" stroke="green" points="1504.86,-515.5 1514.86,-512 1504.86,-508.5 1504.86,-515.5"/>
<text text-anchor="middle" x="1344" y="-515.8" font-family="Times,serif" font-size="14.00">merge_single_node</text>
</g>
<!-- q18 -->
<g id="node19" class="node"><title>q18</title>
<ellipse fill="none" stroke="black" cx="1344" cy="-286" rx="18" ry="18"/>
</g>
<!-- q6&#45;&gt;q18 -->
<g id="edge15" class="edge"><title>q6&#45;&gt;q18</title>
<path fill="none" stroke="green" d="M1152.73,-498.872C1186.41,-461.191 1283.59,-352.468 1324.5,-306.698"/>
<polygon fill="green" stroke="green" points="1327.18,-308.952 1331.23,-299.164 1321.96,-304.287 1327.18,-308.952"/>
<text text-anchor="middle" x="1234" y="-448.8" font-family="Times,serif" font-size="14.00">seq_sort_core</text>
</g>
<!-- q22 -->
<g id="node23" class="node"><title>q22</title>
<ellipse fill="none" stroke="black" cx="1533" cy="-836" rx="18" ry="18"/>
</g>
<!-- q6&#45;&gt;q22 -->
<g id="edge14" class="edge"><title>q6&#45;&gt;q22</title>
<path fill="none" stroke="green" d="M1154.46,-523.153C1212.27,-571.056 1439.78,-759.58 1510.74,-818.384"/>
<polygon fill="green" stroke="green" points="1508.66,-821.209 1518.6,-824.894 1513.13,-815.819 1508.66,-821.209"/>
<text text-anchor="middle" x="1344" y="-724.8" font-family="Times,serif" font-size="14.00">merge_pair</text>
</g>
<!-- q7 -->
<g id="node9" class="node"><title>q7</title>
<ellipse fill="none" stroke="black" cx="984" cy="-373" rx="18" ry="18"/>
</g>
<!-- q7&#45;&gt;q2 -->
<g id="edge19" class="edge"><title>q7&#45;&gt;q2</title>
<path fill="none" stroke="green" d="M985.214,-391.105C986.948,-497.525 1002.47,-1037 1139,-1037 1139,-1037 1139,-1037 2182,-1037 2242.62,-1037 2270.33,-1026.41 2304,-976 2330.02,-937.035 2337.08,-607.41 2338.62,-508.163"/>
<polygon fill="green" stroke="green" points="2342.13,-508.051 2338.77,-498 2335.13,-507.947 2342.13,-508.051"/>
<text text-anchor="middle" x="1640" y="-1040.8" font-family="Times,serif" font-size="14.00">inspect_after</text>
</g>
<!-- q7&#45;&gt;q6 -->
<g id="edge17" class="edge"><title>q7&#45;&gt;q6</title>
<path fill="none" stroke="green" d="M997.865,-384.612C1024.52,-408.672 1085.99,-464.153 1118.3,-493.315"/>
<polygon fill="green" stroke="green" points="1116.08,-496.024 1125.85,-500.126 1120.77,-490.828 1116.08,-496.024"/>
<text text-anchor="middle" x="1052" y="-462.8" font-family="Times,serif" font-size="14.00">merge_pair</text>
</g>
<!-- q7&#45;&gt;q18 -->
<g id="edge18" class="edge"><title>q7&#45;&gt;q18</title>
<path fill="none" stroke="green" d="M1001.79,-368.92C1058.98,-355.021 1246.57,-309.434 1316.45,-292.452"/>
<polygon fill="green" stroke="green" points="1317.36,-295.833 1326.25,-290.071 1315.71,-289.031 1317.36,-295.833"/>
<text text-anchor="middle" x="1140" y="-346.8" font-family="Times,serif" font-size="14.00">seq_sort_core</text>
</g>
<!-- q8&#45;&gt;q2 -->
<g id="edge21" class="edge"><title>q8&#45;&gt;q2</title>
<path fill="none" stroke="green" d="M854.016,-68.915C881.185,-64.2656 936.082,-56 983,-56 983,-56 983,-56 2182,-56 2239.06,-56 2268.46,-51.3597 2304,-96 2326.07,-123.719 2335.57,-368.237 2338.2,-451.996"/>
<polygon fill="green" stroke="green" points="2334.71,-452.163 2338.51,-462.052 2341.7,-451.95 2334.71,-452.163"/>
<text text-anchor="middle" x="1533" y="-59.8" font-family="Times,serif" font-size="14.00">inspect_after</text>
</g>
<!-- q8&#45;&gt;q7 -->
<g id="edge20" class="edge"><title>q8&#45;&gt;q7</title>
<path fill="none" stroke="green" d="M844.85,-88.1831C868.919,-137.806 941.811,-288.082 970.861,-347.973"/>
<polygon fill="green" stroke="green" points="967.775,-349.632 975.289,-357.102 974.074,-346.577 967.775,-349.632"/>
<text text-anchor="middle" x="910" y="-303.8" font-family="Times,serif" font-size="14.00">seq_sort_core</text>
</g>
<!-- q9&#45;&gt;q2 -->
<g id="edge22" class="edge"><title>q9&#45;&gt;q2</title>
<path fill="none" stroke="green" d="M2197.05,-587.814C2220.9,-574.514 2268.31,-546.694 2304,-517 2309.75,-512.213 2315.53,-506.545 2320.68,-501.104"/>
<polygon fill="green" stroke="green" points="2323.55,-503.161 2327.72,-493.421 2318.38,-498.435 2323.55,-503.161"/>
<text text-anchor="middle" x="2269" y="-567.8" font-family="Times,serif" font-size="14.00">inspect_after</text>
</g>
<!-- q10&#45;&gt;q2 -->
<g id="edge25" class="edge"><title>q10&#45;&gt;q2</title>
<path fill="none" stroke="green" d="M1974.53,-543.097C1984.17,-529.468 2000.42,-510.088 2020,-501 2071.39,-477.153 2243.66,-477.985 2311.35,-479.3"/>
<polygon fill="green" stroke="green" points="2311.57,-482.806 2321.65,-479.52 2311.72,-475.807 2311.57,-482.806"/>
<text text-anchor="middle" x="2181" y="-484.8" font-family="Times,serif" font-size="14.00">inspect_after</text>
</g>
<!-- q10&#45;&gt;q9 -->
<g id="edge23" class="edge"><title>q10&#45;&gt;q9</title>
<path fill="none" stroke="green" d="M1981.21,-563.394C1992.08,-566.843 2006.77,-571.182 2020,-574 2066.12,-583.824 2120.69,-590.235 2152.71,-593.477"/>
<polygon fill="green" stroke="green" points="2152.75,-596.998 2163.04,-594.492 2153.43,-590.031 2152.75,-596.998"/>
<text text-anchor="middle" x="2074" y="-593.8" font-family="Times,serif" font-size="14.00">merge_single_node</text>
</g>
<!-- q10&#45;&gt;q9 -->
<g id="edge24" class="edge"><title>q10&#45;&gt;q9</title>
<path fill="none" stroke="green" d="M1981.78,-553.991C2012.02,-547.567 2077.19,-537.379 2128,-555 2140.27,-559.254 2151.83,-567.732 2160.92,-575.881"/>
<polygon fill="green" stroke="green" points="2158.58,-578.481 2168.23,-582.842 2163.4,-573.411 2158.58,-578.481"/>
<text text-anchor="middle" x="2074" y="-558.8" font-family="Times,serif" font-size="14.00">seq_sort_core</text>
</g>
<!-- q11&#45;&gt;q2 -->
<g id="edge27" class="edge"><title>q11&#45;&gt;q2</title>
<path fill="none" stroke="green" d="M1764.19,-678.607C1774.35,-682.58 1787.8,-687.522 1800,-691 1888.19,-716.135 1931.26,-674.654 2002,-733 2017.98,-746.183 2002.75,-764.522 2020,-776 2059.96,-802.593 2082.88,-792.366 2128,-776 2223.81,-741.251 2250.48,-715.736 2304,-629 2327.09,-591.576 2334.95,-540.272 2337.63,-508.672"/>
<polygon fill="green" stroke="green" points="2341.14,-508.598 2338.37,-498.372 2334.16,-508.093 2341.14,-508.598"/>
<text text-anchor="middle" x="2074" y="-795.8" font-family="Times,serif" font-size="14.00">inspect_after</text>
</g>
<!-- q12 -->
<g id="node14" class="node"><title>q12</title>
<ellipse fill="none" stroke="black" cx="1964" cy="-672" rx="18" ry="18"/>
</g>
<!-- q11&#45;&gt;q12 -->
<g id="edge26" class="edge"><title>q11&#45;&gt;q12</title>
<path fill="none" stroke="green" d="M1765.23,-672C1802.51,-672 1890.92,-672 1935.82,-672"/>
<polygon fill="green" stroke="green" points="1935.99,-675.5 1945.99,-672 1935.99,-668.5 1935.99,-675.5"/>
<text text-anchor="middle" x="1854" y="-675.8" font-family="Times,serif" font-size="14.00">merge_pair</text>
</g>
<!-- q12&#45;&gt;q2 -->
<g id="edge30" class="edge"><title>q12&#45;&gt;q2</title>
<path fill="none" stroke="green" d="M1981.13,-677.62C1991.97,-681.092 2006.66,-685.213 2020,-687 2067.58,-693.371 2081.7,-699.658 2128,-687 2215.64,-663.041 2246.7,-653.516 2304,-583 2321.68,-561.236 2330.63,-530.067 2335.02,-507.726"/>
<polygon fill="green" stroke="green" points="2338.47,-508.307 2336.78,-497.848 2331.58,-507.078 2338.47,-508.307"/>
<text text-anchor="middle" x="2181" y="-684.8" font-family="Times,serif" font-size="14.00">inspect_after</text>
</g>
<!-- q12&#45;&gt;q9 -->
<g id="edge28" class="edge"><title>q12&#45;&gt;q9</title>
<path fill="none" stroke="green" d="M1978.66,-660.781C1989.32,-652.543 2004.83,-641.67 2020,-635 2065.2,-615.129 2080.05,-620.765 2128,-609 2136.26,-606.973 2145.25,-604.736 2153.4,-602.698"/>
<polygon fill="green" stroke="green" points="2154.3,-606.08 2163.15,-600.253 2152.6,-599.291 2154.3,-606.08"/>
<text text-anchor="middle" x="2074" y="-638.8" font-family="Times,serif" font-size="14.00">merge_single_node</text>
</g>
<!-- q12&#45;&gt;q9 -->
<g id="edge29" class="edge"><title>q12&#45;&gt;q9</title>
<path fill="none" stroke="green" d="M1982.15,-671.108C2018.64,-668.984 2102.72,-662.815 2128,-650 2142.25,-642.778 2154.78,-630.071 2163.98,-618.797"/>
<polygon fill="green" stroke="green" points="2166.99,-620.625 2170.33,-610.57 2161.45,-616.347 2166.99,-620.625"/>
<text text-anchor="middle" x="2074" y="-671.8" font-family="Times,serif" font-size="14.00">merge_pair</text>
</g>
<!-- q13&#45;&gt;q2 -->
<g id="edge33" class="edge"><title>q13&#45;&gt;q2</title>
<path fill="none" stroke="green" d="M1754.18,-423.232C1761.85,-405.071 1776.84,-376.964 1800,-364 1815.91,-355.094 2110.08,-349.614 2128,-353 2210.56,-368.605 2239.78,-367.826 2304,-422 2314.22,-430.622 2322.27,-443.025 2328.05,-454.151"/>
<polygon fill="green" stroke="green" points="2325.05,-455.99 2332.55,-463.472 2331.36,-452.945 2325.05,-455.99"/>
<text text-anchor="middle" x="2074" y="-356.8" font-family="Times,serif" font-size="14.00">inspect_after</text>
</g>
<!-- q13&#45;&gt;q3 -->
<g id="edge32" class="edge"><title>q13&#45;&gt;q3</title>
<path fill="none" stroke="green" d="M1764.03,-432.894C1774.13,-428.812 1787.56,-424.091 1800,-422 1847.14,-414.072 1903.03,-417.476 1935.61,-420.71"/>
<polygon fill="green" stroke="green" points="1935.4,-424.208 1945.71,-421.784 1936.14,-417.247 1935.4,-424.208"/>
<text text-anchor="middle" x="1854" y="-425.8" font-family="Times,serif" font-size="14.00">seq_sort_core</text>
</g>
<!-- q13&#45;&gt;q10 -->
<g id="edge31" class="edge"><title>q13&#45;&gt;q10</title>
<path fill="none" stroke="green" d="M1765.1,-439.733C1801.45,-439.477 1884.95,-440.632 1908,-456 1933.81,-473.206 1948.48,-506.686 1956.07,-530.595"/>
<polygon fill="green" stroke="green" points="1952.8,-531.894 1958.98,-540.498 1959.52,-529.916 1952.8,-531.894"/>
<text text-anchor="middle" x="1854" y="-459.8" font-family="Times,serif" font-size="14.00">merge_single_node</text>
</g>
<!-- q15 -->
<g id="node16" class="node"><title>q15</title>
<ellipse fill="none" stroke="black" cx="1964" cy="-323" rx="18" ry="18"/>
</g>
<!-- q15&#45;&gt;q2 -->
<g id="edge35" class="edge"><title>q15&#45;&gt;q2</title>
<path fill="none" stroke="green" d="M1981.44,-318.331C2035.56,-304.051 2210.12,-266.907 2304,-352 2331.82,-377.217 2338.4,-422.208 2339.51,-451.572"/>
<polygon fill="green" stroke="green" points="2336.02,-451.687 2339.71,-461.618 2343.01,-451.554 2336.02,-451.687"/>
<text text-anchor="middle" x="2181" y="-309.8" font-family="Times,serif" font-size="14.00">inspect_after</text>
</g>
<!-- q15&#45;&gt;q9 -->
<g id="edge34" class="edge"><title>q15&#45;&gt;q9</title>
<path fill="none" stroke="green" d="M1977.19,-335.897C1987.77,-346.565 2003.88,-361.6 2020,-372 2064.14,-400.478 2095.64,-378.621 2128,-420 2156.36,-456.264 2132.28,-478.059 2146,-522 2151.34,-539.106 2159.73,-557.413 2166.84,-571.539"/>
<polygon fill="green" stroke="green" points="2163.81,-573.3 2171.5,-580.584 2170.03,-570.092 2163.81,-573.3"/>
<text text-anchor="middle" x="2074" y="-423.8" font-family="Times,serif" font-size="14.00">merge_single_node</text>
</g>
<!-- q16 -->
<g id="node17" class="node"><title>q16</title>
<ellipse fill="none" stroke="black" cx="1747" cy="-300" rx="18" ry="18"/>
</g>
<!-- q16&#45;&gt;q2 -->
<g id="edge38" class="edge"><title>q16&#45;&gt;q2</title>
<path fill="none" stroke="green" d="M1765.04,-297.307C1849.83,-284.323 2225.38,-231.852 2304,-308 2324.18,-327.545 2333.45,-408.155 2337.05,-451.732"/>
<polygon fill="green" stroke="green" points="2333.58,-452.256 2337.85,-461.953 2340.56,-451.711 2333.58,-452.256"/>
<text text-anchor="middle" x="2074" y="-272.8" font-family="Times,serif" font-size="14.00">inspect_after</text>
</g>
<!-- q16&#45;&gt;q3 -->
<g id="edge36" class="edge"><title>q16&#45;&gt;q3</title>
<path fill="none" stroke="green" d="M1762.34,-310.172C1772.65,-317.362 1786.98,-327.087 1800,-335 1847.94,-364.137 1906.01,-394.782 1938.3,-411.424"/>
<polygon fill="green" stroke="green" points="1936.96,-414.669 1947.45,-416.122 1940.15,-408.441 1936.96,-414.669"/>
<text text-anchor="middle" x="1854" y="-398.8" font-family="Times,serif" font-size="14.00">merge_single_node</text>
</g>
<!-- q16&#45;&gt;q15 -->
<g id="edge37" class="edge"><title>q16&#45;&gt;q15</title>
<path fill="none" stroke="green" d="M1765.23,-301.843C1802.51,-305.832 1890.92,-315.289 1935.82,-320.092"/>
<polygon fill="green" stroke="green" points="1935.67,-323.596 1945.99,-321.18 1936.41,-316.636 1935.67,-323.596"/>
<text text-anchor="middle" x="1854" y="-319.8" font-family="Times,serif" font-size="14.00">merge_pair</text>
</g>
<!-- q17 -->
<g id="node18" class="node"><title>q17</title>
<ellipse fill="none" stroke="black" cx="1533" cy="-254" rx="18" ry="18"/>
</g>
<!-- q17&#45;&gt;q2 -->
<g id="edge41" class="edge"><title>q17&#45;&gt;q2</title>
<path fill="none" stroke="green" d="M1544.51,-239.771C1554.12,-227.68 1569.32,-210.637 1586,-200 1649.4,-159.569 1670.8,-145 1746,-145 1746,-145 1746,-145 2182,-145 2239.06,-145 2267.85,-140.847 2304,-185 2337.04,-225.354 2339.72,-386.06 2339.39,-451.775"/>
<polygon fill="green" stroke="green" points="2335.89,-451.803 2339.31,-461.83 2342.89,-451.858 2335.89,-451.803"/>
<text text-anchor="middle" x="1964" y="-148.8" font-family="Times,serif" font-size="14.00">inspect_after</text>
</g>
<!-- q17&#45;&gt;q16 -->
<g id="edge39" class="edge"><title>q17&#45;&gt;q16</title>
<path fill="none" stroke="green" d="M1550.64,-257.61C1587.23,-265.551 1675,-284.594 1719.36,-294.22"/>
<polygon fill="green" stroke="green" points="1718.63,-297.643 1729.15,-296.344 1720.12,-290.803 1718.63,-297.643"/>
<text text-anchor="middle" x="1640" y="-290.8" font-family="Times,serif" font-size="14.00">merge_single_node</text>
</g>
<!-- q19 -->
<g id="node20" class="node"><title>q19</title>
<ellipse fill="none" stroke="black" cx="1747" cy="-205" rx="18" ry="18"/>
</g>
<!-- q17&#45;&gt;q19 -->
<g id="edge40" class="edge"><title>q17&#45;&gt;q19</title>
<path fill="none" stroke="green" d="M1547.7,-243.195C1557.72,-235.913 1571.95,-226.791 1586,-222 1630.66,-206.766 1686.04,-204.234 1718.55,-204.275"/>
<polygon fill="green" stroke="green" points="1718.62,-207.775 1728.65,-204.372 1718.69,-200.776 1718.62,-207.775"/>
<text text-anchor="middle" x="1640" y="-225.8" font-family="Times,serif" font-size="14.00">merge_pair</text>
</g>
<!-- q18&#45;&gt;q2 -->
<g id="edge43" class="edge"><title>q18&#45;&gt;q2</title>
<path fill="none" stroke="green" d="M1351.75,-269.732C1371.82,-224.236 1435.81,-99 1532,-99 1532,-99 1532,-99 2182,-99 2239.35,-99 2268.34,-96.0893 2304,-141 2323.16,-165.125 2334.31,-374.346 2337.8,-451.544"/>
<polygon fill="green" stroke="green" points="2334.32,-452.103 2338.26,-461.938 2341.32,-451.793 2334.32,-452.103"/>
<text text-anchor="middle" x="1854" y="-102.8" font-family="Times,serif" font-size="14.00">inspect_after</text>
</g>
<!-- q18&#45;&gt;q17 -->
<g id="edge42" class="edge"><title>q18&#45;&gt;q17</title>
<path fill="none" stroke="green" d="M1361.92,-283.104C1394.46,-277.537 1465.95,-265.303 1505.08,-258.606"/>
<polygon fill="green" stroke="green" points="1505.71,-262.049 1514.98,-256.913 1504.53,-255.15 1505.71,-262.049"/>
<text text-anchor="middle" x="1448" y="-276.8" font-family="Times,serif" font-size="14.00">merge_pair</text>
</g>
<!-- q19&#45;&gt;q2 -->
<g id="edge45" class="edge"><title>q19&#45;&gt;q2</title>
<path fill="none" stroke="green" d="M1765.01,-202.586C1849.68,-190.979 2224.72,-144.499 2304,-220 2336.83,-251.261 2339.76,-391.095 2339.45,-451.764"/>
<polygon fill="green" stroke="green" points="2335.95,-451.765 2339.36,-461.795 2342.95,-451.826 2335.95,-451.765"/>
<text text-anchor="middle" x="2074" y="-182.8" font-family="Times,serif" font-size="14.00">inspect_after</text>
</g>
<!-- q19&#45;&gt;q15 -->
<g id="edge44" class="edge"><title>q19&#45;&gt;q15</title>
<path fill="none" stroke="green" d="M1763.74,-212.38C1792.76,-226.139 1856.46,-257.037 1908,-287 1918.88,-293.323 1930.59,-300.877 1940.39,-307.429"/>
<polygon fill="green" stroke="green" points="1938.54,-310.402 1948.79,-313.1 1942.46,-304.601 1938.54,-310.402"/>
<text text-anchor="middle" x="1854" y="-290.8" font-family="Times,serif" font-size="14.00">merge_single_node</text>
</g>
<!-- q20 -->
<g id="node21" class="node"><title>q20</title>
<ellipse fill="none" stroke="black" cx="1964" cy="-859" rx="18" ry="18"/>
</g>
<!-- q20&#45;&gt;q2 -->
<g id="edge47" class="edge"><title>q20&#45;&gt;q2</title>
<path fill="none" stroke="green" d="M1982.19,-860.523C2044.69,-865.655 2258.59,-879.561 2304,-834 2326.85,-811.074 2335.75,-588.302 2338.22,-508.368"/>
<polygon fill="green" stroke="green" points="2341.73,-508.173 2338.53,-498.073 2334.73,-507.964 2341.73,-508.173"/>
<text text-anchor="middle" x="2181" y="-869.8" font-family="Times,serif" font-size="14.00">inspect_after</text>
</g>
<!-- q20&#45;&gt;q9 -->
<g id="edge46" class="edge"><title>q20&#45;&gt;q9</title>
<path fill="none" stroke="green" d="M1972.42,-842.936C1984.04,-818.338 2006.59,-772.931 2020,-761 2058.85,-726.436 2090.97,-752.509 2128,-716 2153.69,-690.668 2167.52,-650.548 2174.32,-623.76"/>
<polygon fill="green" stroke="green" points="2177.77,-624.4 2176.67,-613.862 2170.95,-622.785 2177.77,-624.4"/>
<text text-anchor="middle" x="2074" y="-764.8" font-family="Times,serif" font-size="14.00">seq_sort_core</text>
</g>
<!-- q21 -->
<g id="node22" class="node"><title>q21</title>
<ellipse fill="none" stroke="black" cx="1747" cy="-859" rx="18" ry="18"/>
</g>
<!-- q21&#45;&gt;q2 -->
<g id="edge50" class="edge"><title>q21&#45;&gt;q2</title>
<path fill="none" stroke="green" d="M1763.59,-866.03C1773.74,-870.273 1787.4,-875.355 1800,-878 1854.92,-889.525 1869.92,-884.221 1926,-886 2094.31,-891.338 2196.43,-989.562 2304,-860 2326.35,-833.081 2335.65,-591.85 2338.21,-508.318"/>
<polygon fill="green" stroke="green" points="2341.71,-508.374 2338.51,-498.274 2334.72,-508.166 2341.71,-508.374"/>
<text text-anchor="middle" x="2074" y="-924.8" font-family="Times,serif" font-size="14.00">inspect_after</text>
</g>
<!-- q21&#45;&gt;q9 -->
<g id="edge49" class="edge"><title>q21&#45;&gt;q9</title>
<path fill="none" stroke="green" d="M1762.78,-849.714C1802.79,-824.91 1917.17,-756.262 2020,-716 2066.28,-697.88 2088.95,-717.742 2128,-687 2141.13,-676.666 2137.77,-668.541 2146,-654 2152.34,-642.799 2159.52,-630.489 2165.65,-620.102"/>
<polygon fill="green" stroke="green" points="2168.84,-621.579 2170.92,-611.19 2162.82,-618.013 2168.84,-621.579"/>
<text text-anchor="middle" x="1964" y="-759.8" font-family="Times,serif" font-size="14.00">seq_sort_core</text>
</g>
<!-- q21&#45;&gt;q20 -->
<g id="edge48" class="edge"><title>q21&#45;&gt;q20</title>
<path fill="none" stroke="green" d="M1765.23,-859C1802.51,-859 1890.92,-859 1935.82,-859"/>
<polygon fill="green" stroke="green" points="1935.99,-862.5 1945.99,-859 1935.99,-855.5 1935.99,-862.5"/>
<text text-anchor="middle" x="1854" y="-862.8" font-family="Times,serif" font-size="14.00">merge_single_node</text>
</g>
<!-- q22&#45;&gt;q2 -->
<g id="edge53" class="edge"><title>q22&#45;&gt;q2</title>
<path fill="none" stroke="green" d="M1547.19,-847.302C1557.18,-855.233 1571.6,-865.388 1586,-871 1734.79,-928.997 2209.57,-1029.78 2304,-901 2327.16,-869.418 2336.04,-597.468 2338.34,-508.232"/>
<polygon fill="green" stroke="green" points="2341.85,-508.135 2338.6,-498.051 2334.85,-507.96 2341.85,-508.135"/>
<text text-anchor="middle" x="1964" y="-962.8" font-family="Times,serif" font-size="14.00">inspect_after</text>
</g>
<!-- q22&#45;&gt;q21 -->
<g id="edge51" class="edge"><title>q22&#45;&gt;q21</title>
<path fill="none" stroke="green" d="M1550.99,-837.843C1587.66,-841.822 1674.49,-851.242 1718.87,-856.057"/>
<polygon fill="green" stroke="green" points="1718.61,-859.549 1728.93,-857.148 1719.36,-852.59 1718.61,-859.549"/>
<text text-anchor="middle" x="1640" y="-855.8" font-family="Times,serif" font-size="14.00">merge_single_node</text>
</g>
<!-- q23 -->
<g id="node24" class="node"><title>q23</title>
<ellipse fill="none" stroke="black" cx="1747" cy="-805" rx="18" ry="18"/>
</g>
<!-- q22&#45;&gt;q23 -->
<g id="edge52" class="edge"><title>q22&#45;&gt;q23</title>
<path fill="none" stroke="green" d="M1550.74,-831.213C1560.87,-828.467 1574.09,-825.148 1586,-823 1632.02,-814.698 1686.21,-809.56 1718.25,-806.996"/>
<polygon fill="green" stroke="green" points="1718.91,-810.456 1728.61,-806.195 1718.37,-803.476 1718.91,-810.456"/>
<text text-anchor="middle" x="1640" y="-826.8" font-family="Times,serif" font-size="14.00">seq_sort_core</text>
</g>
<!-- q23&#45;&gt;q2 -->
<g id="edge55" class="edge"><title>q23&#45;&gt;q2</title>
<path fill="none" stroke="green" d="M1765.01,-808.288C1819.09,-818.107 1991.52,-844.52 2128,-811 2170.86,-800.474 2179.58,-789.928 2216,-765 2258.89,-735.645 2278.66,-733.373 2304,-688 2321.01,-657.545 2332.09,-557.216 2336.64,-507.885"/>
<polygon fill="green" stroke="green" points="2340.13,-508.171 2337.54,-497.898 2333.16,-507.544 2340.13,-508.171"/>
<text text-anchor="middle" x="2074" y="-829.8" font-family="Times,serif" font-size="14.00">inspect_after</text>
</g>
<!-- q23&#45;&gt;q15 -->
<g id="edge54" class="edge"><title>q23&#45;&gt;q15</title>
<path fill="none" stroke="green" d="M1754.39,-788.373C1762.08,-767.721 1774.84,-731.264 1782,-699 1788.89,-667.946 1780.22,-581.91 1800,-557 1831.83,-516.914 1875.72,-556.721 1908,-517 1942.02,-475.15 1909.74,-448.42 1926,-397 1931.52,-379.53 1940.73,-361.097 1948.58,-346.997"/>
<polygon fill="green" stroke="green" points="1951.8,-348.412 1953.73,-337.994 1945.72,-344.934 1951.8,-348.412"/>
<text text-anchor="middle" x="1854" y="-560.8" font-family="Times,serif" font-size="14.00">merge_pair</text>
</g>
<!-- iq0 -->
<g id="node25" class="node"><title>iq0</title>
</g>
<!-- iq0&#45;&gt;q0 -->
<g id="edge1" class="edge"><title>iq0&#45;&gt;q0</title>
<path fill="none" stroke="blue" d="M341.171,-72C408.505,-72 587.248,-72 655.753,-72"/>
<polygon fill="blue" stroke="blue" points="655.767,-75.5001 665.767,-72 655.767,-68.5001 655.767,-75.5001"/>
</g>
</g>
</svg>
