<?xml version="1.0" encoding="UTF-8" standalone="no"?>
<!DOCTYPE svg PUBLIC "-//W3C//DTD SVG 1.1//EN"
 "http://www.w3.org/Graphics/SVG/1.1/DTD/svg11.dtd">
<!-- Generated by graphviz version 2.34.0 (20141125.1709)
 -->
<!-- Title: finite_automaton Pages: 1 -->
<svg width="576pt" height="224pt"
 viewBox="0.00 0.00 576.00 224.24" xmlns="http://www.w3.org/2000/svg" xmlns:xlink="http://www.w3.org/1999/xlink">
<g id="graph0" class="graph" transform="scale(0.274809 0.274809) rotate(0) translate(4 812)">
<title>finite_automaton</title>
<polygon fill="white" stroke="white" points="-4,4 -4,-812 2092,-812 2092,4 -4,4"/>
<!-- dom_edges -->
<g id="node1" class="node"><title>dom_edges</title>
<polygon fill="none" stroke="green" points="627.5,-36 0.5,-36 0.5,-0 627.5,-0 627.5,-36"/>
<text text-anchor="middle" x="314" y="-14.3" font-family="Times,serif" font-size="14.00">Dominating edges: merge_single_node, merge_pair, seq_sort_core, inspect_before, inspect_after, Learn_Assert</text>
</g>
<!-- q1 -->
<g id="node2" class="node"><title>q1</title>
<ellipse fill="none" stroke="green" cx="2066" cy="-381" rx="18" ry="18"/>
<ellipse fill="none" stroke="green" cx="2066" cy="-381" rx="22" ry="22"/>
<text text-anchor="middle" x="2066" y="-377.3" font-family="Times,serif" font-size="14.00">D</text>
</g>
<!-- q0 -->
<g id="node3" class="node"><title>q0</title>
<ellipse fill="none" stroke="green" cx="684" cy="-72" rx="18" ry="18"/>
</g>
<!-- q8 -->
<g id="node10" class="node"><title>q8</title>
<ellipse fill="none" stroke="green" cx="836" cy="-72" rx="18" ry="18"/>
</g>
<!-- q0&#45;&gt;q8 -->
<g id="edge2" class="edge"><title>q0&#45;&gt;q8</title>
<path fill="none" stroke="green" d="M702.207,-72C728.09,-72 777.273,-72 807.974,-72"/>
<polygon fill="green" stroke="green" points="807.994,-75.5001 817.994,-72 807.994,-68.5001 807.994,-75.5001"/>
<text text-anchor="middle" x="760" y="-75.8" font-family="Times,serif" font-size="14.00">inspect_before</text>
</g>
<!-- q2 -->
<g id="node4" class="node"><title>q2</title>
<ellipse fill="none" stroke="green" cx="1916" cy="-381" rx="18" ry="18"/>
</g>
<!-- q2&#45;&gt;q1 -->
<g id="edge3" class="edge"><title>q2&#45;&gt;q1</title>
<path fill="none" stroke="green" d="M1934.27,-381C1958.55,-381 2003.2,-381 2033.49,-381"/>
<polygon fill="green" stroke="green" points="2033.55,-384.5 2043.55,-381 2033.55,-377.5 2033.55,-384.5"/>
<text text-anchor="middle" x="1989" y="-384.8" font-family="Times,serif" font-size="14.00">Learn_Assert</text>
</g>
<!-- q3 -->
<g id="node5" class="node"><title>q3</title>
<ellipse fill="none" stroke="black" cx="1757" cy="-426" rx="18" ry="18"/>
</g>
<!-- q3&#45;&gt;q2 -->
<g id="edge4" class="edge"><title>q3&#45;&gt;q2</title>
<path fill="none" stroke="green" d="M1774.51,-421.269C1801.64,-413.491 1855.92,-397.934 1888.49,-388.598"/>
<polygon fill="green" stroke="green" points="1889.6,-391.923 1898.24,-385.803 1887.67,-385.194 1889.6,-391.923"/>
<text text-anchor="middle" x="1845" y="-413.8" font-family="Times,serif" font-size="14.00">inspect_after</text>
</g>
<!-- q4 -->
<g id="node6" class="node"><title>q4</title>
<ellipse fill="none" stroke="black" cx="1543" cy="-426" rx="18" ry="18"/>
</g>
<!-- q4&#45;&gt;q2 -->
<g id="edge7" class="edge"><title>q4&#45;&gt;q2</title>
<path fill="none" stroke="green" d="M1552.85,-410.565C1561.75,-396.758 1576.88,-377.437 1596,-369 1696.51,-324.644 1832.63,-356.174 1888.95,-372.665"/>
<polygon fill="green" stroke="green" points="1888.23,-376.103 1898.81,-375.641 1890.25,-369.402 1888.23,-376.103"/>
<text text-anchor="middle" x="1757" y="-354.8" font-family="Times,serif" font-size="14.00">inspect_after</text>
</g>
<!-- q4&#45;&gt;q3 -->
<g id="edge5" class="edge"><title>q4&#45;&gt;q3</title>
<path fill="none" stroke="green" d="M1560.1,-432.32C1570.23,-435.95 1583.67,-440.146 1596,-442 1643.47,-449.137 1656.53,-449.137 1704,-442 1712.77,-440.682 1722.09,-438.18 1730.39,-435.54"/>
<polygon fill="green" stroke="green" points="1731.55,-438.843 1739.9,-432.32 1729.3,-432.213 1731.55,-438.843"/>
<text text-anchor="middle" x="1650" y="-450.8" font-family="Times,serif" font-size="14.00">merge_pair</text>
</g>
<!-- q4&#45;&gt;q3 -->
<g id="edge6" class="edge"><title>q4&#45;&gt;q3</title>
<path fill="none" stroke="green" d="M1561.32,-424.75C1571.43,-424.083 1584.43,-423.333 1596,-423 1643.98,-421.617 1656.02,-421.617 1704,-423 1711.95,-423.229 1720.58,-423.655 1728.49,-424.116"/>
<polygon fill="green" stroke="green" points="1728.48,-427.622 1738.68,-424.75 1728.91,-420.636 1728.48,-427.622"/>
<text text-anchor="middle" x="1650" y="-426.8" font-family="Times,serif" font-size="14.00">seq_sort_core</text>
</g>
<!-- q5 -->
<g id="node7" class="node"><title>q5</title>
<ellipse fill="none" stroke="black" cx="1329" cy="-502" rx="18" ry="18"/>
</g>
<!-- q5&#45;&gt;q2 -->
<g id="edge11" class="edge"><title>q5&#45;&gt;q2</title>
<path fill="none" stroke="green" d="M1331.11,-484.067C1334.69,-432.09 1347.82,-283.026 1382,-251 1408.22,-226.431 1669.34,-211.525 1704,-221 1791.64,-244.959 1814.96,-261.558 1880,-325 1889.05,-333.826 1896.79,-345.436 1902.68,-355.796"/>
<polygon fill="green" stroke="green" points="1899.73,-357.695 1907.55,-364.842 1905.89,-354.378 1899.73,-357.695"/>
<text text-anchor="middle" x="1650" y="-224.8" font-family="Times,serif" font-size="14.00">inspect_after</text>
</g>
<!-- q5&#45;&gt;q4 -->
<g id="edge8" class="edge"><title>q5&#45;&gt;q4</title>
<path fill="none" stroke="green" d="M1336.14,-485.259C1343.78,-467.164 1358.74,-439.271 1382,-427 1424.35,-404.663 1482.19,-411.949 1515.48,-419.095"/>
<polygon fill="green" stroke="green" points="1514.84,-422.54 1525.37,-421.373 1516.41,-415.718 1514.84,-422.54"/>
<text text-anchor="middle" x="1436" y="-430.8" font-family="Times,serif" font-size="14.00">merge_single_node</text>
</g>
<!-- q9 -->
<g id="node11" class="node"><title>q9</title>
<ellipse fill="none" stroke="black" cx="1543" cy="-605" rx="18" ry="18"/>
</g>
<!-- q5&#45;&gt;q9 -->
<g id="edge10" class="edge"><title>q5&#45;&gt;q9</title>
<path fill="none" stroke="green" d="M1343.91,-512.594C1350.35,-517.805 1357.9,-524.38 1364,-531 1373.28,-541.071 1370.84,-548.074 1382,-556 1422.82,-584.983 1442.2,-573.109 1490,-588 1498.51,-590.651 1507.77,-593.643 1516.08,-596.37"/>
<polygon fill="green" stroke="green" points="1515.05,-599.714 1525.64,-599.523 1517.24,-593.067 1515.05,-599.714"/>
<text text-anchor="middle" x="1436" y="-591.8" font-family="Times,serif" font-size="14.00">seq_sort_core</text>
</g>
<!-- q10 -->
<g id="node12" class="node"><title>q10</title>
<ellipse fill="none" stroke="black" cx="1543" cy="-540" rx="18" ry="18"/>
</g>
<!-- q5&#45;&gt;q10 -->
<g id="edge9" class="edge"><title>q5&#45;&gt;q10</title>
<path fill="none" stroke="green" d="M1346.88,-498.855C1376.64,-494.01 1440.04,-486.867 1490,-503 1501.51,-506.715 1512.65,-513.986 1521.65,-521.107"/>
<polygon fill="green" stroke="green" points="1519.66,-524.006 1529.57,-527.766 1524.17,-518.65 1519.66,-524.006"/>
<text text-anchor="middle" x="1436" y="-506.8" font-family="Times,serif" font-size="14.00">merge_pair</text>
</g>
<!-- q6 -->
<g id="node8" class="node"><title>q6</title>
<ellipse fill="none" stroke="black" cx="1132" cy="-558" rx="18" ry="18"/>
</g>
<!-- q6&#45;&gt;q2 -->
<g id="edge15" class="edge"><title>q6&#45;&gt;q2</title>
<path fill="none" stroke="green" d="M1139.96,-574.37C1160.93,-620.801 1228.23,-750 1328,-750 1328,-750 1328,-750 1758,-750 1906.05,-750 1916.47,-495.378 1915.75,-409.154"/>
<polygon fill="green" stroke="green" points="1919.25,-408.997 1915.61,-399.047 1912.25,-409.096 1919.25,-408.997"/>
<text text-anchor="middle" x="1543" y="-753.8" font-family="Times,serif" font-size="14.00">inspect_after</text>
</g>
<!-- q6&#45;&gt;q5 -->
<g id="edge12" class="edge"><title>q6&#45;&gt;q5</title>
<path fill="none" stroke="green" d="M1147.57,-548.945C1153.7,-545.442 1161.02,-541.647 1168,-539 1213.03,-521.932 1268.29,-511.28 1300.68,-506.007"/>
<polygon fill="green" stroke="green" points="1301.41,-509.436 1310.74,-504.424 1300.32,-502.521 1301.41,-509.436"/>
<text text-anchor="middle" x="1222" y="-542.8" font-family="Times,serif" font-size="14.00">merge_single_node</text>
</g>
<!-- q11 -->
<g id="node13" class="node"><title>q11</title>
<ellipse fill="none" stroke="black" cx="1329" cy="-558" rx="18" ry="18"/>
</g>
<!-- q6&#45;&gt;q11 -->
<g id="edge14" class="edge"><title>q6&#45;&gt;q11</title>
<path fill="none" stroke="green" d="M1150.3,-558C1184.27,-558 1259.91,-558 1300.69,-558"/>
<polygon fill="green" stroke="green" points="1300.73,-561.5 1310.73,-558 1300.73,-554.5 1300.73,-561.5"/>
<text text-anchor="middle" x="1222" y="-561.8" font-family="Times,serif" font-size="14.00">seq_sort_core</text>
</g>
<!-- q13 -->
<g id="node15" class="node"><title>q13</title>
<ellipse fill="none" stroke="black" cx="1329" cy="-613" rx="18" ry="18"/>
</g>
<!-- q6&#45;&gt;q13 -->
<g id="edge13" class="edge"><title>q6&#45;&gt;q13</title>
<path fill="none" stroke="green" d="M1147.56,-567.076C1153.69,-570.582 1161.01,-574.374 1168,-577 1213.02,-593.911 1268.28,-604.178 1300.68,-609.207"/>
<polygon fill="green" stroke="green" points="1300.33,-612.694 1310.74,-610.714 1301.37,-605.771 1300.33,-612.694"/>
<text text-anchor="middle" x="1222" y="-607.8" font-family="Times,serif" font-size="14.00">merge_pair</text>
</g>
<!-- q7 -->
<g id="node9" class="node"><title>q7</title>
<ellipse fill="none" stroke="black" cx="984" cy="-335" rx="18" ry="18"/>
</g>
<!-- q7&#45;&gt;q2 -->
<g id="edge18" class="edge"><title>q7&#45;&gt;q2</title>
<path fill="none" stroke="green" d="M986.716,-352.954C995.295,-437.632 1036.9,-793 1131,-793 1131,-793 1131,-793 1758,-793 1824.34,-793 1846.36,-764.176 1880,-707 1909.46,-656.939 1914.19,-479.515 1914.9,-409.609"/>
<polygon fill="green" stroke="green" points="1918.4,-409.377 1914.98,-399.349 1911.4,-409.321 1918.4,-409.377"/>
<text text-anchor="middle" x="1436" y="-796.8" font-family="Times,serif" font-size="14.00">inspect_after</text>
</g>
<!-- q7&#45;&gt;q6 -->
<g id="edge16" class="edge"><title>q7&#45;&gt;q6</title>
<path fill="none" stroke="green" d="M994.579,-349.632C1019.38,-387.513 1085.84,-489.026 1115.89,-534.914"/>
<polygon fill="green" stroke="green" points="1112.98,-536.865 1121.39,-543.314 1118.84,-533.031 1112.98,-536.865"/>
<text text-anchor="middle" x="1058" y="-507.8" font-family="Times,serif" font-size="14.00">merge_pair</text>
</g>
<!-- q16 -->
<g id="node17" class="node"><title>q16</title>
<ellipse fill="none" stroke="black" cx="1132" cy="-191" rx="18" ry="18"/>
</g>
<!-- q7&#45;&gt;q16 -->
<g id="edge17" class="edge"><title>q7&#45;&gt;q16</title>
<path fill="none" stroke="green" d="M997.448,-322.723C1022.88,-297.642 1080.95,-240.363 1111.46,-210.274"/>
<polygon fill="green" stroke="green" points="1113.92,-212.76 1118.58,-203.246 1109.01,-207.777 1113.92,-212.76"/>
<text text-anchor="middle" x="1058" y="-303.8" font-family="Times,serif" font-size="14.00">seq_sort_core</text>
</g>
<!-- q8&#45;&gt;q2 -->
<g id="edge20" class="edge"><title>q8&#45;&gt;q2</title>
<path fill="none" stroke="green" d="M854.016,-68.915C881.185,-64.2656 936.082,-56 983,-56 983,-56 983,-56 1758,-56 1814.79,-56 1843.63,-50.3846 1880,-94 1912.37,-132.81 1915.47,-288.116 1915.32,-352.654"/>
<polygon fill="green" stroke="green" points="1911.82,-352.885 1915.27,-362.903 1918.82,-352.922 1911.82,-352.885"/>
<text text-anchor="middle" x="1329" y="-59.8" font-family="Times,serif" font-size="14.00">inspect_after</text>
</g>
<!-- q8&#45;&gt;q7 -->
<g id="edge19" class="edge"><title>q8&#45;&gt;q7</title>
<path fill="none" stroke="green" d="M845.696,-87.6642C870.192,-131.792 939.907,-257.374 969.476,-310.639"/>
<polygon fill="green" stroke="green" points="966.436,-312.373 974.35,-319.418 972.556,-308.976 966.436,-312.373"/>
<text text-anchor="middle" x="910" y="-274.8" font-family="Times,serif" font-size="14.00">seq_sort_core</text>
</g>
<!-- q9&#45;&gt;q2 -->
<g id="edge22" class="edge"><title>q9&#45;&gt;q2</title>
<path fill="none" stroke="green" d="M1560.47,-609.781C1602.39,-620.946 1715.26,-644.623 1792,-601 1864.48,-559.802 1897.2,-458.074 1909.2,-408.73"/>
<polygon fill="green" stroke="green" points="1912.66,-409.291 1911.51,-398.759 1905.84,-407.709 1912.66,-409.291"/>
<text text-anchor="middle" x="1757" y="-626.8" font-family="Times,serif" font-size="14.00">inspect_after</text>
</g>
<!-- q9&#45;&gt;q3 -->
<g id="edge21" class="edge"><title>q9&#45;&gt;q3</title>
<path fill="none" stroke="green" d="M1561.3,-604.425C1593.48,-602.445 1662.95,-593.764 1704,-556 1733.32,-529.03 1746.41,-483.318 1752.03,-453.911"/>
<polygon fill="green" stroke="green" points="1755.51,-454.332 1753.79,-443.879 1748.62,-453.128 1755.51,-454.332"/>
<text text-anchor="middle" x="1650" y="-603.8" font-family="Times,serif" font-size="14.00">merge_pair</text>
</g>
<!-- q10&#45;&gt;q2 -->
<g id="edge25" class="edge"><title>q10&#45;&gt;q2</title>
<path fill="none" stroke="green" d="M1555.7,-553.186C1569.4,-568.46 1590.88,-591.822 1596,-594 1640.17,-612.786 1659.36,-611.651 1704,-594 1798.39,-556.674 1871.41,-452.626 1900.85,-405.16"/>
<polygon fill="green" stroke="green" points="1903.93,-406.819 1906.15,-396.458 1897.96,-403.178 1903.93,-406.819"/>
<text text-anchor="middle" x="1757" y="-587.8" font-family="Times,serif" font-size="14.00">inspect_after</text>
</g>
<!-- q10&#45;&gt;q3 -->
<g id="edge23" class="edge"><title>q10&#45;&gt;q3</title>
<path fill="none" stroke="green" d="M1561.11,-539.535C1597.46,-538.25 1680.98,-533.633 1704,-518 1726.57,-502.677 1740.46,-474.123 1748.14,-452.874"/>
<polygon fill="green" stroke="green" points="1751.55,-453.713 1751.43,-443.119 1744.92,-451.48 1751.55,-453.713"/>
<text text-anchor="middle" x="1650" y="-540.8" font-family="Times,serif" font-size="14.00">merge_single_node</text>
</g>
<!-- q10&#45;&gt;q3 -->
<g id="edge24" class="edge"><title>q10&#45;&gt;q3</title>
<path fill="none" stroke="green" d="M1556.73,-527.731C1566.71,-518.689 1581.33,-506.676 1596,-499 1640.47,-475.729 1659.39,-489.004 1704,-466 1715.16,-460.245 1726.35,-452.028 1735.48,-444.537"/>
<polygon fill="green" stroke="green" points="1737.87,-447.098 1743.22,-437.953 1733.34,-441.766 1737.87,-447.098"/>
<text text-anchor="middle" x="1650" y="-502.8" font-family="Times,serif" font-size="14.00">seq_sort_core</text>
</g>
<!-- q11&#45;&gt;q2 -->
<g id="edge27" class="edge"><title>q11&#45;&gt;q2</title>
<path fill="none" stroke="green" d="M1344.64,-567.575C1351.23,-572.464 1358.71,-578.881 1364,-586 1376.36,-602.628 1364.97,-617.194 1382,-629 1419.46,-654.971 1749.79,-659.2 1792,-642 1842.64,-621.363 1853.92,-604.067 1880,-556 1905.58,-508.861 1912.57,-445.462 1914.41,-409.342"/>
<polygon fill="green" stroke="green" points="1917.92,-409.192 1914.84,-399.057 1910.93,-408.905 1917.92,-409.192"/>
<text text-anchor="middle" x="1650" y="-655.8" font-family="Times,serif" font-size="14.00">inspect_after</text>
</g>
<!-- q12 -->
<g id="node14" class="node"><title>q12</title>
<ellipse fill="none" stroke="black" cx="1543" cy="-325" rx="18" ry="18"/>
</g>
<!-- q11&#45;&gt;q12 -->
<g id="edge26" class="edge"><title>q11&#45;&gt;q12</title>
<path fill="none" stroke="green" d="M1344.54,-548.434C1351.28,-543.36 1358.9,-536.605 1364,-529 1378.32,-507.634 1363.56,-491.928 1382,-474 1417.9,-439.104 1452.73,-475.43 1490,-442 1505.42,-428.165 1499.67,-417.971 1508,-399 1515.16,-382.696 1523.5,-364.524 1530.13,-350.269"/>
<polygon fill="green" stroke="green" points="1533.35,-351.638 1534.41,-341.096 1527.01,-348.677 1533.35,-351.638"/>
<text text-anchor="middle" x="1436" y="-477.8" font-family="Times,serif" font-size="14.00">merge_pair</text>
</g>
<!-- q12&#45;&gt;q2 -->
<g id="edge30" class="edge"><title>q12&#45;&gt;q2</title>
<path fill="none" stroke="green" d="M1561.29,-322.501C1571.39,-321.168 1584.39,-319.668 1596,-319 1683.04,-313.995 1706.12,-311.979 1792,-327 1831.82,-333.965 1844.34,-330.966 1880,-350 1885.51,-352.938 1890.86,-356.907 1895.66,-361.023"/>
<polygon fill="green" stroke="green" points="1893.42,-363.717 1903.14,-367.932 1898.17,-358.575 1893.42,-363.717"/>
<text text-anchor="middle" x="1757" y="-330.8" font-family="Times,serif" font-size="14.00">inspect_after</text>
</g>
<!-- q12&#45;&gt;q3 -->
<g id="edge28" class="edge"><title>q12&#45;&gt;q3</title>
<path fill="none" stroke="green" d="M1561.4,-323.604C1592.55,-321.967 1658.78,-322.47 1704,-351 1706.68,-352.69 1726.31,-381.551 1740.67,-402.967"/>
<polygon fill="green" stroke="green" points="1737.77,-404.937 1746.24,-411.305 1743.59,-401.046 1737.77,-404.937"/>
<text text-anchor="middle" x="1650" y="-354.8" font-family="Times,serif" font-size="14.00">merge_single_node</text>
</g>
<!-- q12&#45;&gt;q3 -->
<g id="edge29" class="edge"><title>q12&#45;&gt;q3</title>
<path fill="none" stroke="green" d="M1556.78,-337.163C1566.8,-346.15 1581.43,-358.14 1596,-366 1640.53,-390.022 1656.96,-383.37 1704,-402 1713,-405.564 1722.68,-409.889 1731.21,-413.88"/>
<polygon fill="green" stroke="green" points="1729.73,-417.052 1740.27,-418.186 1732.74,-410.731 1729.73,-417.052"/>
<text text-anchor="middle" x="1650" y="-405.8" font-family="Times,serif" font-size="14.00">merge_pair</text>
</g>
<!-- q13&#45;&gt;q2 -->
<g id="edge33" class="edge"><title>q13&#45;&gt;q2</title>
<path fill="none" stroke="green" d="M1342.45,-625.495C1352.29,-634.529 1366.85,-646.135 1382,-652 1551.97,-717.775 1619.52,-718.892 1792,-660 1834.99,-645.321 1854.54,-645.621 1880,-608 1901.64,-576.025 1910.57,-462.524 1913.63,-409.14"/>
<polygon fill="green" stroke="green" points="1917.14,-409.185 1914.19,-399.009 1910.15,-408.804 1917.14,-409.185"/>
<text text-anchor="middle" x="1650" y="-705.8" font-family="Times,serif" font-size="14.00">inspect_after</text>
</g>
<!-- q13&#45;&gt;q9 -->
<g id="edge32" class="edge"><title>q13&#45;&gt;q9</title>
<path fill="none" stroke="green" d="M1346.99,-612.359C1383.66,-610.975 1470.49,-607.698 1514.87,-606.024"/>
<polygon fill="green" stroke="green" points="1515.07,-609.519 1524.93,-605.644 1514.8,-602.524 1515.07,-609.519"/>
<text text-anchor="middle" x="1436" y="-613.8" font-family="Times,serif" font-size="14.00">seq_sort_core</text>
</g>
<!-- q13&#45;&gt;q10 -->
<g id="edge31" class="edge"><title>q13&#45;&gt;q10</title>
<path fill="none" stroke="green" d="M1344.66,-603.444C1351.26,-598.559 1358.74,-592.141 1364,-585 1376.53,-567.991 1364.49,-552.832 1382,-541 1422.25,-513.793 1482.19,-523.296 1516.12,-532.047"/>
<polygon fill="green" stroke="green" points="1515.2,-535.423 1525.77,-534.697 1517.05,-528.673 1515.2,-535.423"/>
<text text-anchor="middle" x="1436" y="-544.8" font-family="Times,serif" font-size="14.00">merge_single_node</text>
</g>
<!-- q15 -->
<g id="node16" class="node"><title>q15</title>
<ellipse fill="none" stroke="black" cx="1329" cy="-191" rx="18" ry="18"/>
</g>
<!-- q15&#45;&gt;q2 -->
<g id="edge36" class="edge"><title>q15&#45;&gt;q2</title>
<path fill="none" stroke="green" d="M1346.68,-187.174C1388.41,-177.824 1500.79,-153.997 1596,-146 1722.48,-135.377 1790.24,-86.2629 1880,-176 1904.38,-200.376 1911.86,-302.479 1914.09,-352.767"/>
<polygon fill="green" stroke="green" points="1910.6,-353.098 1914.5,-362.949 1917.6,-352.816 1910.6,-353.098"/>
<text text-anchor="middle" x="1650" y="-149.8" font-family="Times,serif" font-size="14.00">inspect_after</text>
</g>
<!-- q15&#45;&gt;q12 -->
<g id="edge34" class="edge"><title>q15&#45;&gt;q12</title>
<path fill="none" stroke="green" d="M1344.57,-200.21C1380.73,-223.064 1474.8,-282.528 1518.75,-310.304"/>
<polygon fill="green" stroke="green" points="1517,-313.341 1527.33,-315.725 1520.74,-307.424 1517,-313.341"/>
<text text-anchor="middle" x="1436" y="-292.8" font-family="Times,serif" font-size="14.00">merge_single_node</text>
</g>
<!-- q17 -->
<g id="node18" class="node"><title>q17</title>
<ellipse fill="none" stroke="black" cx="1543" cy="-191" rx="18" ry="18"/>
</g>
<!-- q15&#45;&gt;q17 -->
<g id="edge35" class="edge"><title>q15&#45;&gt;q17</title>
<path fill="none" stroke="green" d="M1347.35,-191C1384.17,-191 1470.36,-191 1514.66,-191"/>
<polygon fill="green" stroke="green" points="1514.71,-194.5 1524.71,-191 1514.71,-187.5 1514.71,-194.5"/>
<text text-anchor="middle" x="1436" y="-194.8" font-family="Times,serif" font-size="14.00">merge_pair</text>
</g>
<!-- q16&#45;&gt;q2 -->
<g id="edge38" class="edge"><title>q16&#45;&gt;q2</title>
<path fill="none" stroke="green" d="M1146.68,-179.728C1177.19,-155.779 1253.94,-102 1328,-102 1328,-102 1328,-102 1758,-102 1813.26,-102 1842.07,-85.8107 1880,-126 1910.39,-158.2 1914.7,-293.347 1915.1,-352.767"/>
<polygon fill="green" stroke="green" points="1911.6,-352.951 1915.14,-362.939 1918.6,-352.927 1911.6,-352.951"/>
<text text-anchor="middle" x="1543" y="-105.8" font-family="Times,serif" font-size="14.00">inspect_after</text>
</g>
<!-- q16&#45;&gt;q15 -->
<g id="edge37" class="edge"><title>q16&#45;&gt;q15</title>
<path fill="none" stroke="green" d="M1150.3,-191C1184.27,-191 1259.91,-191 1300.69,-191"/>
<polygon fill="green" stroke="green" points="1300.73,-194.5 1310.73,-191 1300.73,-187.5 1300.73,-194.5"/>
<text text-anchor="middle" x="1222" y="-194.8" font-family="Times,serif" font-size="14.00">merge_pair</text>
</g>
<!-- q17&#45;&gt;q2 -->
<g id="edge40" class="edge"><title>q17&#45;&gt;q2</title>
<path fill="none" stroke="green" d="M1560.47,-186.198C1614.67,-171.506 1789.21,-133.225 1880,-220 1898.79,-237.961 1908.54,-311.576 1912.62,-352.763"/>
<polygon fill="green" stroke="green" points="1909.16,-353.337 1913.58,-362.965 1916.13,-352.681 1909.16,-353.337"/>
<text text-anchor="middle" x="1757" y="-176.8" font-family="Times,serif" font-size="14.00">inspect_after</text>
</g>
<!-- q17&#45;&gt;q3 -->
<g id="edge39" class="edge"><title>q17&#45;&gt;q3</title>
<path fill="none" stroke="green" d="M1556.12,-203.909C1566.25,-214.306 1581.33,-228.958 1596,-240 1640.57,-273.559 1670.51,-259.373 1704,-304 1723.28,-329.693 1709.04,-344.608 1722,-374 1726.57,-384.362 1733.11,-394.972 1739.24,-403.883"/>
<polygon fill="green" stroke="green" points="1736.48,-406.047 1745.14,-412.156 1742.18,-401.982 1736.48,-406.047"/>
<text text-anchor="middle" x="1650" y="-307.8" font-family="Times,serif" font-size="14.00">merge_single_node</text>
</g>
<!-- iq0 -->
<g id="node19" class="node"><title>iq0</title>
</g>
<!-- iq0&#45;&gt;q0 -->
<g id="edge1" class="edge"><title>iq0&#45;&gt;q0</title>
<path fill="none" stroke="blue" d="M341.171,-72C408.505,-72 587.248,-72 655.753,-72"/>
<polygon fill="blue" stroke="blue" points="655.767,-75.5001 665.767,-72 655.767,-68.5001 655.767,-75.5001"/>
</g>
</g>
</svg>
