<?xml version="1.0" encoding="UTF-8" standalone="no"?>
<!DOCTYPE svg PUBLIC "-//W3C//DTD SVG 1.1//EN"
 "http://www.w3.org/Graphics/SVG/1.1/DTD/svg11.dtd">
<!-- Generated by graphviz version 2.34.0 (20141125.1709)
 -->
<!-- Title: finite_automaton Pages: 1 -->
<svg width="576pt" height="108pt"
 viewBox="0.00 0.00 576.00 107.90" xmlns="http://www.w3.org/2000/svg" xmlns:xlink="http://www.w3.org/1999/xlink">
<g id="graph0" class="graph" transform="scale(0.401114 0.401114) rotate(0) translate(4 265)">
<title>finite_automaton</title>
<polygon fill="white" stroke="white" points="-4,4 -4,-265 1432,-265 1432,4 -4,4"/>
<!-- dom_edges -->
<g id="node1" class="node"><title>dom_edges</title>
<polygon fill="none" stroke="green" points="361.5,-184 0.5,-184 0.5,-148 361.5,-148 361.5,-184"/>
<text text-anchor="middle" x="181" y="-162.3" font-family="Times,serif" font-size="14.00">Dominating edges: inspect_before, inspect_after, Learn_Assert</text>
</g>
<!-- q1 -->
<g id="node2" class="node"><title>q1</title>
<ellipse fill="none" stroke="green" cx="1406" cy="-157" rx="18" ry="18"/>
<ellipse fill="none" stroke="green" cx="1406" cy="-157" rx="22" ry="22"/>
<text text-anchor="middle" x="1406" y="-153.3" font-family="Times,serif" font-size="14.00">D</text>
</g>
<!-- q0 -->
<g id="node3" class="node"><title>q0</title>
<ellipse fill="none" stroke="green" cx="418" cy="-220" rx="18" ry="18"/>
</g>
<!-- q3 -->
<g id="node5" class="node"><title>q3</title>
<ellipse fill="none" stroke="green" cx="570" cy="-220" rx="18" ry="18"/>
</g>
<!-- q0&#45;&gt;q3 -->
<g id="edge2" class="edge"><title>q0&#45;&gt;q3</title>
<path fill="none" stroke="green" d="M436.207,-220C462.09,-220 511.273,-220 541.974,-220"/>
<polygon fill="green" stroke="green" points="541.994,-223.5 551.994,-220 541.994,-216.5 541.994,-223.5"/>
<text text-anchor="middle" x="494" y="-223.8" font-family="Times,serif" font-size="14.00">inspect_before</text>
</g>
<!-- q2 -->
<g id="node4" class="node"><title>q2</title>
<ellipse fill="none" stroke="green" cx="1256" cy="-157" rx="18" ry="18"/>
</g>
<!-- q2&#45;&gt;q1 -->
<g id="edge3" class="edge"><title>q2&#45;&gt;q1</title>
<path fill="none" stroke="green" d="M1274.27,-157C1298.55,-157 1343.2,-157 1373.49,-157"/>
<polygon fill="green" stroke="green" points="1373.55,-160.5 1383.55,-157 1373.55,-153.5 1373.55,-160.5"/>
<text text-anchor="middle" x="1329" y="-160.8" font-family="Times,serif" font-size="14.00">Learn_Assert</text>
</g>
<!-- q3&#45;&gt;q2 -->
<g id="edge5" class="edge"><title>q3&#45;&gt;q2</title>
<path fill="none" stroke="green" d="M587.47,-224.89C614.334,-232.422 669.37,-246 717,-246 717,-246 717,-246 1098,-246 1153.61,-246 1207.57,-203.223 1235.44,-176.982"/>
<polygon fill="green" stroke="green" points="1238.16,-179.222 1242.91,-169.752 1233.29,-174.193 1238.16,-179.222"/>
<text text-anchor="middle" x="883" y="-249.8" font-family="Times,serif" font-size="14.00">inspect_after</text>
</g>
<!-- q7 -->
<g id="node8" class="node"><title>q7</title>
<ellipse fill="none" stroke="black" cx="718" cy="-163" rx="18" ry="18"/>
</g>
<!-- q3&#45;&gt;q7 -->
<g id="edge4" class="edge"><title>q3&#45;&gt;q7</title>
<path fill="none" stroke="black" d="M586.902,-213.791C612.002,-203.992 661.043,-184.846 691.222,-173.064"/>
<polygon fill="black" stroke="black" points="692.629,-176.272 700.671,-169.375 690.083,-169.751 692.629,-176.272"/>
<text text-anchor="middle" x="644" y="-209.8" font-family="Times,serif" font-size="14.00">seq_sort_core</text>
</g>
<!-- q5 -->
<g id="node6" class="node"><title>q5</title>
<ellipse fill="none" stroke="black" cx="1097" cy="-94" rx="18" ry="18"/>
</g>
<!-- q5&#45;&gt;q2 -->
<g id="edge6" class="edge"><title>q5&#45;&gt;q2</title>
<path fill="none" stroke="green" d="M1115.01,-96.4272C1139.37,-100.405 1185.12,-109.761 1220,-128 1225.16,-130.697 1230.25,-134.247 1234.88,-137.934"/>
<polygon fill="green" stroke="green" points="1232.77,-140.733 1242.65,-144.566 1237.32,-135.41 1232.77,-140.733"/>
<text text-anchor="middle" x="1185" y="-131.8" font-family="Times,serif" font-size="14.00">inspect_after</text>
</g>
<!-- q6 -->
<g id="node7" class="node"><title>q6</title>
<ellipse fill="none" stroke="black" cx="883" cy="-132" rx="18" ry="18"/>
</g>
<!-- q6&#45;&gt;q2 -->
<g id="edge10" class="edge"><title>q6&#45;&gt;q2</title>
<path fill="none" stroke="green" d="M900.191,-137.385C910.351,-140.506 923.795,-144.171 936,-146 1043.12,-162.051 1172.64,-160.004 1227.9,-158.138"/>
<polygon fill="green" stroke="green" points="1228.06,-161.634 1237.93,-157.773 1227.81,-154.639 1228.06,-161.634"/>
<text text-anchor="middle" x="1097" y="-163.8" font-family="Times,serif" font-size="14.00">inspect_after</text>
</g>
<!-- q6&#45;&gt;q5 -->
<g id="edge7" class="edge"><title>q6&#45;&gt;q5</title>
<path fill="none" stroke="black" d="M900.975,-130.576C930.367,-127.91 992.529,-121.379 1044,-110 1052.66,-108.087 1061.95,-105.426 1070.26,-102.823"/>
<polygon fill="black" stroke="black" points="1071.36,-106.147 1079.79,-99.7308 1069.2,-99.4883 1071.36,-106.147"/>
<text text-anchor="middle" x="990" y="-130.8" font-family="Times,serif" font-size="14.00">merge_single_node</text>
</g>
<!-- q6&#45;&gt;q5 -->
<g id="edge8" class="edge"><title>q6&#45;&gt;q5</title>
<path fill="none" stroke="black" d="M895.768,-118.842C905.459,-109.062 920.142,-96.4998 936,-91 980.572,-75.5419 1036.41,-81.9104 1068.96,-87.9514"/>
<polygon fill="black" stroke="black" points="1068.56,-91.4412 1079.05,-89.9555 1069.93,-84.5752 1068.56,-91.4412"/>
<text text-anchor="middle" x="990" y="-94.8" font-family="Times,serif" font-size="14.00">merge_pair</text>
</g>
<!-- q6&#45;&gt;q5 -->
<g id="edge9" class="edge"><title>q6&#45;&gt;q5</title>
<path fill="none" stroke="black" d="M890.938,-115.617C899.02,-98.8995 914.119,-73.9091 936,-63 978.957,-41.5835 997.724,-50.2527 1044,-63 1054.53,-65.9002 1065.08,-71.5531 1073.89,-77.2464"/>
<polygon fill="black" stroke="black" points="1072.16,-80.301 1082.38,-83.0803 1076.12,-74.5319 1072.16,-80.301"/>
<text text-anchor="middle" x="990" y="-66.8" font-family="Times,serif" font-size="14.00">seq_sort_core</text>
</g>
<!-- q7&#45;&gt;q2 -->
<g id="edge13" class="edge"><title>q7&#45;&gt;q2</title>
<path fill="none" stroke="green" d="M734.7,-170.149C740.621,-172.491 747.498,-174.799 754,-176 919.21,-206.522 964.092,-184.717 1132,-179 1171.18,-177.666 1182,-182.639 1220,-173 1223.47,-172.119 1227.03,-170.905 1230.47,-169.536"/>
<polygon fill="green" stroke="green" points="1232.04,-172.672 1239.76,-165.417 1229.2,-166.273 1232.04,-172.672"/>
<text text-anchor="middle" x="990" y="-194.8" font-family="Times,serif" font-size="14.00">inspect_after</text>
</g>
<!-- q7&#45;&gt;q6 -->
<g id="edge11" class="edge"><title>q7&#45;&gt;q6</title>
<path fill="none" stroke="black" d="M735.83,-159.799C764.014,-154.439 820.997,-143.602 854.89,-137.156"/>
<polygon fill="black" stroke="black" points="855.847,-140.537 865.017,-135.23 854.54,-133.66 855.847,-140.537"/>
<text text-anchor="middle" x="792" y="-160.8" font-family="Times,serif" font-size="14.00">merge_pair</text>
</g>
<!-- q8 -->
<g id="node9" class="node"><title>q8</title>
<ellipse fill="none" stroke="black" cx="883" cy="-18" rx="18" ry="18"/>
</g>
<!-- q7&#45;&gt;q8 -->
<g id="edge12" class="edge"><title>q7&#45;&gt;q8</title>
<path fill="none" stroke="black" d="M730.203,-149.552C736.854,-141.819 745.604,-132.069 754,-124 789.138,-90.2311 833.63,-54.8787 859.836,-34.7328"/>
<polygon fill="black" stroke="black" points="862.162,-37.3606 867.983,-28.5079 857.912,-31.7985 862.162,-37.3606"/>
<text text-anchor="middle" x="792" y="-127.8" font-family="Times,serif" font-size="14.00">seq_sort_core</text>
</g>
<!-- q8&#45;&gt;q2 -->
<g id="edge15" class="edge"><title>q8&#45;&gt;q2</title>
<path fill="none" stroke="green" d="M900.622,-13.8202C929.993,-7.12455 992.805,4.08556 1044,-8 1129.9,-28.279 1156.01,-39.2097 1220,-100 1229.44,-108.969 1237.33,-121.019 1243.21,-131.729"/>
<polygon fill="green" stroke="green" points="1240.14,-133.417 1247.85,-140.685 1246.36,-130.196 1240.14,-133.417"/>
<text text-anchor="middle" x="1097" y="-38.8" font-family="Times,serif" font-size="14.00">inspect_after</text>
</g>
<!-- q8&#45;&gt;q5 -->
<g id="edge14" class="edge"><title>q8&#45;&gt;q5</title>
<path fill="none" stroke="black" d="M901.06,-15.2623C931.659,-11.2088 997.055,-6.50499 1044,-31 1060.4,-39.5568 1073.59,-55.748 1082.58,-69.5731"/>
<polygon fill="black" stroke="black" points="1079.66,-71.5146 1087.87,-78.2124 1085.63,-67.8572 1079.66,-71.5146"/>
<text text-anchor="middle" x="990" y="-34.8" font-family="Times,serif" font-size="14.00">merge_pair</text>
</g>
<!-- iq0 -->
<g id="node10" class="node"><title>iq0</title>
</g>
<!-- iq0&#45;&gt;q0 -->
<g id="edge1" class="edge"><title>iq0&#45;&gt;q0</title>
<path fill="none" stroke="blue" d="M208.047,-220C252.853,-220 344.092,-220 389.729,-220"/>
<polygon fill="blue" stroke="blue" points="389.778,-223.5 399.778,-220 389.778,-216.5 389.778,-223.5"/>
</g>
</g>
</svg>
