<?xml version="1.0" encoding="UTF-8" standalone="no"?>
<!DOCTYPE svg PUBLIC "-//W3C//DTD SVG 1.1//EN"
 "http://www.w3.org/Graphics/SVG/1.1/DTD/svg11.dtd">
<!-- Generated by graphviz version 2.34.0 (20141125.1709)
 -->
<!-- Title: finite_automaton Pages: 1 -->
<svg width="576pt" height="85pt"
 viewBox="0.00 0.00 576.00 84.59" xmlns="http://www.w3.org/2000/svg" xmlns:xlink="http://www.w3.org/1999/xlink">
<g id="graph0" class="graph" transform="scale(0.64574 0.64574) rotate(0) translate(4 127)">
<title>finite_automaton</title>
<polygon fill="white" stroke="white" points="-4,4 -4,-127 888,-127 888,4 -4,4"/>
<!-- dom_edges -->
<g id="node1" class="node"><title>dom_edges</title>
<polygon fill="none" stroke="green" points="361.5,-36 0.5,-36 0.5,-0 361.5,-0 361.5,-36"/>
<text text-anchor="middle" x="181" y="-14.3" font-family="Times,serif" font-size="14.00">Dominating edges: inspect_before, inspect_after, Learn_Assert</text>
</g>
<!-- q1 -->
<g id="node2" class="node"><title>q1</title>
<ellipse fill="none" stroke="green" cx="862" cy="-72" rx="18" ry="18"/>
<ellipse fill="none" stroke="green" cx="862" cy="-72" rx="22" ry="22"/>
<text text-anchor="middle" x="862" y="-68.3" font-family="Times,serif" font-size="14.00">D</text>
</g>
<!-- q0 -->
<g id="node3" class="node"><title>q0</title>
<ellipse fill="none" stroke="green" cx="418" cy="-72" rx="18" ry="18"/>
</g>
<!-- q3 -->
<g id="node5" class="node"><title>q3</title>
<ellipse fill="none" stroke="green" cx="570" cy="-72" rx="18" ry="18"/>
</g>
<!-- q0&#45;&gt;q3 -->
<g id="edge2" class="edge"><title>q0&#45;&gt;q3</title>
<path fill="none" stroke="green" d="M436.207,-72C462.09,-72 511.273,-72 541.974,-72"/>
<polygon fill="green" stroke="green" points="541.994,-75.5001 551.994,-72 541.994,-68.5001 541.994,-75.5001"/>
<text text-anchor="middle" x="494" y="-75.8" font-family="Times,serif" font-size="14.00">inspect_before</text>
</g>
<!-- q2 -->
<g id="node4" class="node"><title>q2</title>
<ellipse fill="none" stroke="green" cx="712" cy="-72" rx="18" ry="18"/>
</g>
<!-- q2&#45;&gt;q1 -->
<g id="edge3" class="edge"><title>q2&#45;&gt;q1</title>
<path fill="none" stroke="green" d="M730.267,-72C754.55,-72 799.201,-72 829.489,-72"/>
<polygon fill="green" stroke="green" points="829.546,-75.5001 839.546,-72 829.546,-68.5001 829.546,-75.5001"/>
<text text-anchor="middle" x="785" y="-75.8" font-family="Times,serif" font-size="14.00">Learn_Assert</text>
</g>
<!-- q3&#45;&gt;q2 -->
<g id="edge5" class="edge"><title>q3&#45;&gt;q2</title>
<path fill="none" stroke="green" d="M588.167,-72C611.993,-72 655.342,-72 683.651,-72"/>
<polygon fill="green" stroke="green" points="683.693,-75.5001 693.693,-72 683.693,-68.5001 683.693,-75.5001"/>
<text text-anchor="middle" x="641" y="-75.8" font-family="Times,serif" font-size="14.00">inspect_after</text>
</g>
<!-- q3&#45;&gt;q3 -->
<g id="edge4" class="edge"><title>q3&#45;&gt;q3</title>
<path fill="none" stroke="black" d="M558.57,-86.0417C554.296,-96.9126 558.105,-108 570,-108 578.177,-108 582.534,-102.759 583.069,-95.9516"/>
<polygon fill="black" stroke="black" points="586.515,-95.3366 581.43,-86.0417 579.609,-96.4788 586.515,-95.3366"/>
<text text-anchor="middle" x="570" y="-111.8" font-family="Times,serif" font-size="14.00">seq_sort_core</text>
</g>
<!-- iq0 -->
<g id="node6" class="node"><title>iq0</title>
</g>
<!-- iq0&#45;&gt;q0 -->
<g id="edge1" class="edge"><title>iq0&#45;&gt;q0</title>
<path fill="none" stroke="blue" d="M208.047,-72C252.853,-72 344.092,-72 389.729,-72"/>
<polygon fill="blue" stroke="blue" points="389.778,-75.5001 399.778,-72 389.778,-68.5001 389.778,-75.5001"/>
</g>
</g>
</svg>
