<?xml version="1.0" encoding="UTF-8" standalone="no"?>
<!DOCTYPE svg PUBLIC "-//W3C//DTD SVG 1.1//EN"
 "http://www.w3.org/Graphics/SVG/1.1/DTD/svg11.dtd">
<!-- Generated by graphviz version 2.34.0 (20141125.1709)
 -->
<!-- Title: finite_automaton Pages: 1 -->
<svg width="576pt" height="116pt"
 viewBox="0.00 0.00 576.00 115.88" xmlns="http://www.w3.org/2000/svg" xmlns:xlink="http://www.w3.org/1999/xlink">
<g id="graph0" class="graph" transform="scale(0.200837 0.200837) rotate(0) translate(4 573)">
<title>finite_automaton</title>
<polygon fill="white" stroke="white" points="-4,4 -4,-573 2864,-573 2864,4 -4,4"/>
<!-- dom_edges -->
<g id="node1" class="node"><title>dom_edges</title>
<polygon fill="none" stroke="green" points="361.5,-407 0.5,-407 0.5,-371 361.5,-371 361.5,-407"/>
<text text-anchor="middle" x="181" y="-385.3" font-family="Times,serif" font-size="14.00">Dominating edges: inspect_before, inspect_after, Learn_Assert</text>
</g>
<!-- q1 -->
<g id="node2" class="node"><title>q1</title>
<ellipse fill="none" stroke="green" cx="2838" cy="-309" rx="18" ry="18"/>
<ellipse fill="none" stroke="green" cx="2838" cy="-309" rx="22" ry="22"/>
<text text-anchor="middle" x="2838" y="-305.3" font-family="Times,serif" font-size="14.00">D</text>
</g>
<!-- q0 -->
<g id="node3" class="node"><title>q0</title>
<ellipse fill="none" stroke="green" cx="418" cy="-443" rx="18" ry="18"/>
</g>
<!-- q3 -->
<g id="node5" class="node"><title>q3</title>
<ellipse fill="none" stroke="green" cx="570" cy="-443" rx="18" ry="18"/>
</g>
<!-- q0&#45;&gt;q3 -->
<g id="edge2" class="edge"><title>q0&#45;&gt;q3</title>
<path fill="none" stroke="green" d="M436.207,-443C462.09,-443 511.273,-443 541.974,-443"/>
<polygon fill="green" stroke="green" points="541.994,-446.5 551.994,-443 541.994,-439.5 541.994,-446.5"/>
<text text-anchor="middle" x="494" y="-446.8" font-family="Times,serif" font-size="14.00">inspect_before</text>
</g>
<!-- q2 -->
<g id="node4" class="node"><title>q2</title>
<ellipse fill="none" stroke="green" cx="2688" cy="-309" rx="18" ry="18"/>
</g>
<!-- q2&#45;&gt;q1 -->
<g id="edge3" class="edge"><title>q2&#45;&gt;q1</title>
<path fill="none" stroke="green" d="M2706.27,-309C2730.55,-309 2775.2,-309 2805.49,-309"/>
<polygon fill="green" stroke="green" points="2805.55,-312.5 2815.55,-309 2805.55,-305.5 2805.55,-312.5"/>
<text text-anchor="middle" x="2761" y="-312.8" font-family="Times,serif" font-size="14.00">Learn_Assert</text>
</g>
<!-- q3&#45;&gt;q2 -->
<g id="edge5" class="edge"><title>q3&#45;&gt;q2</title>
<path fill="none" stroke="green" d="M580.695,-457.97C601.629,-488.268 654.273,-554 717,-554 717,-554 717,-554 2530,-554 2591.65,-554 2615.48,-537.668 2652,-488 2669.37,-464.373 2679.93,-381.227 2684.44,-337.06"/>
<polygon fill="green" stroke="green" points="2687.93,-337.28 2685.43,-326.985 2680.97,-336.594 2687.93,-337.28"/>
<text text-anchor="middle" x="1585" y="-557.8" font-family="Times,serif" font-size="14.00">inspect_after</text>
</g>
<!-- q10 -->
<g id="node11" class="node"><title>q10</title>
<ellipse fill="none" stroke="black" cx="718" cy="-443" rx="18" ry="18"/>
</g>
<!-- q3&#45;&gt;q10 -->
<g id="edge4" class="edge"><title>q3&#45;&gt;q10</title>
<path fill="none" stroke="black" d="M588.034,-443C612.955,-443 659.626,-443 689.463,-443"/>
<polygon fill="black" stroke="black" points="689.622,-446.5 699.622,-443 689.622,-439.5 689.622,-446.5"/>
<text text-anchor="middle" x="644" y="-446.8" font-family="Times,serif" font-size="14.00">seq_sort_core</text>
</g>
<!-- q5 -->
<g id="node6" class="node"><title>q5</title>
<ellipse fill="none" stroke="black" cx="2315" cy="-245" rx="18" ry="18"/>
</g>
<!-- q5&#45;&gt;q2 -->
<g id="edge7" class="edge"><title>q5&#45;&gt;q2</title>
<path fill="none" stroke="green" d="M2332.45,-239.95C2372.52,-228.394 2478.18,-202.41 2564,-221 2605.99,-230.095 2618.69,-233.863 2652,-261 2660.19,-267.672 2667.43,-276.689 2673.17,-285.106"/>
<polygon fill="green" stroke="green" points="2670.23,-287.013 2678.58,-293.537 2676.12,-283.231 2670.23,-287.013"/>
<text text-anchor="middle" x="2529" y="-224.8" font-family="Times,serif" font-size="14.00">inspect_after</text>
</g>
<!-- q12 -->
<g id="node13" class="node"><title>q12</title>
<ellipse fill="none" stroke="black" cx="2529" cy="-263" rx="18" ry="18"/>
</g>
<!-- q5&#45;&gt;q12 -->
<g id="edge6" class="edge"><title>q5&#45;&gt;q12</title>
<path fill="none" stroke="black" d="M2332.99,-246.443C2369.66,-249.556 2456.49,-256.929 2500.87,-260.696"/>
<polygon fill="black" stroke="black" points="2500.67,-264.192 2510.93,-261.551 2501.26,-257.217 2500.67,-264.192"/>
<text text-anchor="middle" x="2422" y="-262.8" font-family="Times,serif" font-size="14.00">merge_single_node</text>
</g>
<!-- q6 -->
<g id="node7" class="node"><title>q6</title>
<ellipse fill="none" stroke="black" cx="2101" cy="-285" rx="18" ry="18"/>
</g>
<!-- q6&#45;&gt;q2 -->
<g id="edge9" class="edge"><title>q6&#45;&gt;q2</title>
<path fill="none" stroke="green" d="M2119.19,-285.705C2201.77,-289.093 2557.9,-303.704 2659.72,-307.881"/>
<polygon fill="green" stroke="green" points="2659.67,-311.382 2669.81,-308.295 2659.96,-304.388 2659.67,-311.382"/>
<text text-anchor="middle" x="2422" y="-304.8" font-family="Times,serif" font-size="14.00">inspect_after</text>
</g>
<!-- q6&#45;&gt;q5 -->
<g id="edge8" class="edge"><title>q6&#45;&gt;q5</title>
<path fill="none" stroke="black" d="M2118.15,-278.488C2128.29,-274.629 2141.74,-269.936 2154,-267 2199.86,-256.023 2254.51,-249.974 2286.62,-247.116"/>
<polygon fill="black" stroke="black" points="2287.31,-250.569 2296.98,-246.235 2286.72,-243.594 2287.31,-250.569"/>
<text text-anchor="middle" x="2208" y="-270.8" font-family="Times,serif" font-size="14.00">merge_single_node</text>
</g>
<!-- q7 -->
<g id="node8" class="node"><title>q7</title>
<ellipse fill="none" stroke="black" cx="1692" cy="-325" rx="18" ry="18"/>
</g>
<!-- q7&#45;&gt;q2 -->
<g id="edge12" class="edge"><title>q7&#45;&gt;q2</title>
<path fill="none" stroke="green" d="M1709.85,-328.967C1724.19,-332.245 1745.37,-336.854 1764,-340 1819.66,-349.398 1833.72,-351.643 1890,-356 2149.67,-376.1 2216.32,-379.043 2476,-359 2554.4,-352.949 2580.43,-373.557 2652,-341 2658,-338.271 2663.67,-334.119 2668.63,-329.701"/>
<polygon fill="green" stroke="green" points="2671.08,-332.199 2675.79,-322.706 2666.19,-327.194 2671.08,-332.199"/>
<text text-anchor="middle" x="2208" y="-376.8" font-family="Times,serif" font-size="14.00">inspect_after</text>
</g>
<!-- q7&#45;&gt;q6 -->
<g id="edge11" class="edge"><title>q7&#45;&gt;q6</title>
<path fill="none" stroke="black" d="M1709.71,-320.711C1743.49,-312.281 1822.42,-293.783 1890,-287 1955.3,-280.446 2032.59,-282.12 2072.73,-283.691"/>
<polygon fill="black" stroke="black" points="2072.66,-287.191 2082.79,-284.114 2072.95,-280.197 2072.66,-287.191"/>
<text text-anchor="middle" x="1925" y="-290.8" font-family="Times,serif" font-size="14.00">merge_pair</text>
</g>
<!-- q11 -->
<g id="node12" class="node"><title>q11</title>
<ellipse fill="none" stroke="black" cx="1925" cy="-329" rx="18" ry="18"/>
</g>
<!-- q7&#45;&gt;q11 -->
<g id="edge10" class="edge"><title>q7&#45;&gt;q11</title>
<path fill="none" stroke="black" d="M1710.04,-324.565C1741.87,-323.849 1812.53,-322.716 1872,-325 1879.96,-325.306 1888.59,-325.874 1896.5,-326.488"/>
<polygon fill="black" stroke="black" points="1896.43,-329.995 1906.69,-327.334 1897.01,-323.019 1896.43,-329.995"/>
<text text-anchor="middle" x="1818" y="-328.8" font-family="Times,serif" font-size="14.00">merge_single_node</text>
</g>
<!-- q8 -->
<g id="node9" class="node"><title>q8</title>
<ellipse fill="none" stroke="black" cx="1514" cy="-379" rx="18" ry="18"/>
</g>
<!-- q8&#45;&gt;q2 -->
<g id="edge14" class="edge"><title>q8&#45;&gt;q2</title>
<path fill="none" stroke="green" d="M1531.17,-385.019C1537.02,-386.946 1543.73,-388.872 1550,-390 1837.77,-441.802 1914.61,-424 2207,-424 2207,-424 2207,-424 2530,-424 2590.23,-424 2607.17,-405.225 2652,-365 2661.47,-356.5 2669.31,-344.841 2675.15,-334.361"/>
<polygon fill="green" stroke="green" points="2678.41,-335.677 2679.94,-325.193 2672.21,-332.434 2678.41,-335.677"/>
<text text-anchor="middle" x="2101" y="-428.8" font-family="Times,serif" font-size="14.00">inspect_after</text>
</g>
<!-- q8&#45;&gt;q7 -->
<g id="edge13" class="edge"><title>q8&#45;&gt;q7</title>
<path fill="none" stroke="black" d="M1527.18,-366.215C1533.45,-360.38 1541.55,-353.913 1550,-350 1586.81,-332.954 1633.97,-327.481 1663.34,-325.754"/>
<polygon fill="black" stroke="black" points="1663.84,-329.234 1673.66,-325.259 1663.51,-322.242 1663.84,-329.234"/>
<text text-anchor="middle" x="1585" y="-353.8" font-family="Times,serif" font-size="14.00">merge_pair</text>
</g>
<!-- q9 -->
<g id="node10" class="node"><title>q9</title>
<ellipse fill="none" stroke="black" cx="890" cy="-319" rx="18" ry="18"/>
</g>
<!-- q9&#45;&gt;q2 -->
<g id="edge18" class="edge"><title>q9&#45;&gt;q2</title>
<path fill="none" stroke="green" d="M895.917,-301.845C914.559,-240.836 986.92,-38 1125,-38 1125,-38 1125,-38 2530,-38 2589.85,-38 2615.88,-47.2804 2652,-95 2673.8,-123.794 2682.58,-229.622 2685.61,-280.848"/>
<polygon fill="green" stroke="green" points="2682.12,-281.115 2686.18,-290.903 2689.11,-280.723 2682.12,-281.115"/>
<text text-anchor="middle" x="1818" y="-41.8" font-family="Times,serif" font-size="14.00">inspect_after</text>
</g>
<!-- q9&#45;&gt;q8 -->
<g id="edge17" class="edge"><title>q9&#45;&gt;q8</title>
<path fill="none" stroke="black" d="M908.286,-317.284C960.993,-312.388 1124.22,-299.72 1258,-316 1343.25,-326.375 1441.08,-355.581 1486.84,-370.296"/>
<polygon fill="black" stroke="black" points="1485.96,-373.691 1496.55,-373.455 1488.13,-367.034 1485.96,-373.691"/>
<text text-anchor="middle" x="1220" y="-319.8" font-family="Times,serif" font-size="14.00">seq_sort_core</text>
</g>
<!-- q13 -->
<g id="node14" class="node"><title>q13</title>
<ellipse fill="none" stroke="black" cx="1126" cy="-387" rx="18" ry="18"/>
</g>
<!-- q9&#45;&gt;q13 -->
<g id="edge15" class="edge"><title>q9&#45;&gt;q13</title>
<path fill="none" stroke="black" d="M907.454,-323.782C947.482,-335.414 1050.21,-365.265 1098.79,-379.383"/>
<polygon fill="black" stroke="black" points="1097.98,-382.794 1108.56,-382.224 1099.94,-376.072 1097.98,-382.794"/>
<text text-anchor="middle" x="1016" y="-374.8" font-family="Times,serif" font-size="14.00">merge_single_node</text>
</g>
<!-- q14 -->
<g id="node15" class="node"><title>q14</title>
<ellipse fill="none" stroke="black" cx="1314" cy="-273" rx="18" ry="18"/>
</g>
<!-- q9&#45;&gt;q14 -->
<g id="edge16" class="edge"><title>q9&#45;&gt;q14</title>
<path fill="none" stroke="black" d="M907.863,-315.299C922.209,-312.24 943.385,-307.939 962,-305 1081.77,-286.09 1226.44,-277.281 1285.69,-274.266"/>
<polygon fill="black" stroke="black" points="1285.92,-277.759 1295.74,-273.77 1285.57,-270.768 1285.92,-277.759"/>
<text text-anchor="middle" x="1126" y="-292.8" font-family="Times,serif" font-size="14.00">merge_pair</text>
</g>
<!-- q10&#45;&gt;q2 -->
<g id="edge21" class="edge"><title>q10&#45;&gt;q2</title>
<path fill="none" stroke="green" d="M731.854,-454.733C738.159,-459.995 746.087,-465.921 754,-470 809.736,-498.732 826.294,-511 889,-511 889,-511 889,-511 2530,-511 2591.44,-511 2614.06,-494.32 2652,-446 2676.85,-414.36 2684.22,-367.089 2686.32,-337.164"/>
<polygon fill="green" stroke="green" points="2689.82,-337.16 2686.87,-326.985 2682.83,-336.779 2689.82,-337.16"/>
<text text-anchor="middle" x="1692" y="-514.8" font-family="Times,serif" font-size="14.00">inspect_after</text>
</g>
<!-- q10&#45;&gt;q8 -->
<g id="edge20" class="edge"><title>q10&#45;&gt;q8</title>
<path fill="none" stroke="black" d="M735.77,-447.128C766.131,-454.229 832.32,-468 889,-468 889,-468 889,-468 1315,-468 1384.49,-468 1456.59,-421.835 1491.49,-396.002"/>
<polygon fill="black" stroke="black" points="1493.68,-398.738 1499.54,-389.913 1489.46,-393.155 1493.68,-398.738"/>
<text text-anchor="middle" x="1126" y="-471.8" font-family="Times,serif" font-size="14.00">seq_sort_core</text>
</g>
<!-- q10&#45;&gt;q9 -->
<g id="edge19" class="edge"><title>q10&#45;&gt;q9</title>
<path fill="none" stroke="black" d="M723.893,-425.839C729.083,-410.422 738.683,-388.102 754,-374 784.843,-345.604 832.298,-330.927 861.951,-324.105"/>
<polygon fill="black" stroke="black" points="862.97,-327.466 872.007,-321.936 861.494,-320.623 862.97,-327.466"/>
<text text-anchor="middle" x="786" y="-377.8" font-family="Times,serif" font-size="14.00">merge_pair</text>
</g>
<!-- q11&#45;&gt;q2 -->
<g id="edge24" class="edge"><title>q11&#45;&gt;q2</title>
<path fill="none" stroke="green" d="M1943.06,-330.795C2023.49,-338.845 2372.51,-369.166 2652,-321 2655.13,-320.461 2658.35,-319.683 2661.52,-318.779"/>
<polygon fill="green" stroke="green" points="2662.83,-322.031 2671.25,-315.595 2660.66,-315.377 2662.83,-322.031"/>
<text text-anchor="middle" x="2315" y="-351.8" font-family="Times,serif" font-size="14.00">inspect_after</text>
</g>
<!-- q11&#45;&gt;q6 -->
<g id="edge23" class="edge"><title>q11&#45;&gt;q6</title>
<path fill="none" stroke="black" d="M1942.23,-322.803C1952.41,-319.063 1965.85,-314.383 1978,-311 2010.17,-302.042 2047.84,-294.443 2072.72,-289.816"/>
<polygon fill="black" stroke="black" points="2073.66,-293.202 2082.87,-287.962 2072.4,-286.317 2073.66,-293.202"/>
<text text-anchor="middle" x="2013" y="-314.8" font-family="Times,serif" font-size="14.00">merge_pair</text>
</g>
<!-- q11&#45;&gt;q8 -->
<g id="edge22" class="edge"><title>q11&#45;&gt;q8</title>
<path fill="none" stroke="black" d="M1907.79,-334.506C1897.63,-337.751 1884.18,-341.666 1872,-344 1750.51,-367.275 1602.62,-375.503 1542.44,-378.021"/>
<polygon fill="black" stroke="black" points="1542.1,-374.532 1532.25,-378.428 1542.38,-381.526 1542.1,-374.532"/>
<text text-anchor="middle" x="1692" y="-376.8" font-family="Times,serif" font-size="14.00">merge_single_node</text>
</g>
<!-- q12&#45;&gt;q2 -->
<g id="edge25" class="edge"><title>q12&#45;&gt;q2</title>
<path fill="none" stroke="green" d="M2547.38,-262.497C2571.79,-262.425 2617.17,-264.646 2652,-280 2657.33,-282.347 2662.49,-285.749 2667.14,-289.403"/>
<polygon fill="green" stroke="green" points="2665.02,-292.2 2674.88,-296.079 2669.59,-286.898 2665.02,-292.2"/>
<text text-anchor="middle" x="2617" y="-283.8" font-family="Times,serif" font-size="14.00">inspect_after</text>
</g>
<!-- q13&#45;&gt;q2 -->
<g id="edge29" class="edge"><title>q13&#45;&gt;q2</title>
<path fill="none" stroke="green" d="M1143.72,-391.643C1154.55,-394.48 1169.01,-397.945 1182,-400 1547.58,-457.844 1641.88,-468 2012,-468 2012,-468 2012,-468 2530,-468 2591.23,-468 2611.61,-450.02 2652,-404 2668.69,-384.988 2677.67,-357.329 2682.34,-336.754"/>
<polygon fill="green" stroke="green" points="2685.82,-337.223 2684.41,-326.723 2678.96,-335.811 2685.82,-337.223"/>
<text text-anchor="middle" x="1925" y="-470.8" font-family="Times,serif" font-size="14.00">inspect_after</text>
</g>
<!-- q13&#45;&gt;q8 -->
<g id="edge28" class="edge"><title>q13&#45;&gt;q8</title>
<path fill="none" stroke="black" d="M1144.08,-386.646C1204.86,-385.386 1410.9,-381.116 1485.63,-379.567"/>
<polygon fill="black" stroke="black" points="1485.75,-383.066 1495.68,-379.359 1485.6,-376.067 1485.75,-383.066"/>
<text text-anchor="middle" x="1314" y="-387.8" font-family="Times,serif" font-size="14.00">seq_sort_core</text>
</g>
<!-- q13&#45;&gt;q10 -->
<g id="edge26" class="edge"><title>q13&#45;&gt;q10</title>
<path fill="none" stroke="black" d="M1108,-389.345C1044.81,-398.06 823.163,-428.633 745.848,-439.297"/>
<polygon fill="black" stroke="black" points="745.356,-435.831 735.928,-440.665 746.313,-442.766 745.356,-435.831"/>
<text text-anchor="middle" x="890" y="-429.8" font-family="Times,serif" font-size="14.00">merge_single_node</text>
</g>
<!-- q13&#45;&gt;q14 -->
<g id="edge27" class="edge"><title>q13&#45;&gt;q14</title>
<path fill="none" stroke="black" d="M1142.03,-378.068C1152.88,-371.874 1168.02,-363.739 1182,-358 1214.65,-344.598 1228.28,-354.03 1258,-335 1273.71,-324.944 1287.61,-309.178 1297.5,-296.062"/>
<polygon fill="black" stroke="black" points="1300.38,-298.063 1303.41,-287.912 1294.71,-293.956 1300.38,-298.063"/>
<text text-anchor="middle" x="1220" y="-361.8" font-family="Times,serif" font-size="14.00">merge_pair</text>
</g>
<!-- q14&#45;&gt;q2 -->
<g id="edge32" class="edge"><title>q14&#45;&gt;q2</title>
<path fill="none" stroke="green" d="M1330.53,-265.852C1363.44,-251.385 1442.9,-220 1513,-220 1513,-220 1513,-220 2014,-220 2258.48,-220 2320,-195.809 2564,-211 2603.34,-213.449 2620.77,-197.948 2652,-222 2670.37,-236.148 2679.13,-261.477 2683.29,-281.169"/>
<polygon fill="green" stroke="green" points="2679.87,-281.937 2685.12,-291.143 2686.76,-280.677 2679.87,-281.937"/>
<text text-anchor="middle" x="2013" y="-223.8" font-family="Times,serif" font-size="14.00">inspect_after</text>
</g>
<!-- q14&#45;&gt;q8 -->
<g id="edge31" class="edge"><title>q14&#45;&gt;q8</title>
<path fill="none" stroke="black" d="M1331.81,-269.544C1363.84,-263.981 1434.29,-256.767 1478,-290 1497.02,-304.461 1505.72,-330.79 1509.69,-351.073"/>
<polygon fill="black" stroke="black" points="1506.25,-351.752 1511.36,-361.033 1513.15,-350.592 1506.25,-351.752"/>
<text text-anchor="middle" x="1424" y="-293.8" font-family="Times,serif" font-size="14.00">seq_sort_core</text>
</g>
<!-- q15 -->
<g id="node16" class="node"><title>q15</title>
<ellipse fill="none" stroke="black" cx="1585" cy="-107" rx="18" ry="18"/>
</g>
<!-- q14&#45;&gt;q15 -->
<g id="edge30" class="edge"><title>q14&#45;&gt;q15</title>
<path fill="none" stroke="black" d="M1322.23,-256.661C1331.08,-238.365 1347.69,-208.934 1370,-191 1427.62,-144.686 1513.89,-121.417 1557.19,-112.091"/>
<polygon fill="black" stroke="black" points="1557.9,-115.518 1566.98,-110.064 1556.48,-108.664 1557.9,-115.518"/>
<text text-anchor="middle" x="1424" y="-194.8" font-family="Times,serif" font-size="14.00">merge_single_node</text>
</g>
<!-- q15&#45;&gt;q2 -->
<g id="edge35" class="edge"><title>q15&#45;&gt;q2</title>
<path fill="none" stroke="green" d="M1603.02,-105.915C1733.44,-97.7695 2571.23,-48.5106 2652,-122 2674.95,-142.879 2683.06,-233.821 2685.76,-280.749"/>
<polygon fill="green" stroke="green" points="2682.27,-281.06 2686.29,-290.861 2689.26,-280.69 2682.27,-281.06"/>
<text text-anchor="middle" x="2101" y="-89.8" font-family="Times,serif" font-size="14.00">inspect_after</text>
</g>
<!-- q15&#45;&gt;q3 -->
<g id="edge33" class="edge"><title>q15&#45;&gt;q3</title>
<path fill="none" stroke="black" d="M1573.36,-93.0116C1549.97,-64.008 1490.88,-0 1425,-0 717,-0 717,-0 717,-0 629.19,-0 585.378,-317.924 574.036,-415.114"/>
<polygon fill="black" stroke="black" points="570.554,-414.753 572.897,-425.085 577.509,-415.547 570.554,-414.753"/>
<text text-anchor="middle" x="1016" y="-3.8" font-family="Times,serif" font-size="14.00">merge_single_node</text>
</g>
<!-- q17 -->
<g id="node18" class="node"><title>q17</title>
<ellipse fill="none" stroke="black" cx="1925" cy="-130" rx="18" ry="18"/>
</g>
<!-- q15&#45;&gt;q17 -->
<g id="edge34" class="edge"><title>q15&#45;&gt;q17</title>
<path fill="none" stroke="black" d="M1603.23,-108.172C1658.15,-111.91 1829.45,-123.566 1896.6,-128.135"/>
<polygon fill="black" stroke="black" points="1896.59,-131.643 1906.81,-128.83 1897.07,-124.659 1896.59,-131.643"/>
<text text-anchor="middle" x="1692" y="-121.8" font-family="Times,serif" font-size="14.00">seq_sort_core</text>
</g>
<!-- q16 -->
<g id="node17" class="node"><title>q16</title>
<ellipse fill="none" stroke="black" cx="2101" cy="-174" rx="18" ry="18"/>
</g>
<!-- q16&#45;&gt;q5 -->
<g id="edge36" class="edge"><title>q16&#45;&gt;q5</title>
<path fill="none" stroke="black" d="M2118.28,-179.453C2154.82,-191.688 2243.58,-221.414 2287.91,-236.261"/>
<polygon fill="black" stroke="black" points="2287.07,-239.671 2297.66,-239.528 2289.29,-233.033 2287.07,-239.671"/>
<text text-anchor="middle" x="2208" y="-229.8" font-family="Times,serif" font-size="14.00">merge_single_node</text>
</g>
<!-- q17&#45;&gt;q2 -->
<g id="edge38" class="edge"><title>q17&#45;&gt;q2</title>
<path fill="none" stroke="green" d="M1943.29,-129.67C1974.56,-129.102 2042.6,-128 2100,-128 2100,-128 2100,-128 2530,-128 2585.26,-128 2612.44,-113.418 2652,-152 2670.12,-169.674 2680.13,-241.057 2684.43,-281.212"/>
<polygon fill="green" stroke="green" points="2680.95,-281.575 2685.45,-291.168 2687.91,-280.864 2680.95,-281.575"/>
<text text-anchor="middle" x="2315" y="-131.8" font-family="Times,serif" font-size="14.00">inspect_after</text>
</g>
<!-- q17&#45;&gt;q16 -->
<g id="edge37" class="edge"><title>q17&#45;&gt;q16</title>
<path fill="none" stroke="black" d="M1942.68,-134.219C1972.95,-141.874 2037.15,-158.106 2073.48,-167.294"/>
<polygon fill="black" stroke="black" points="2072.81,-170.735 2083.37,-169.794 2074.53,-163.949 2072.81,-170.735"/>
<text text-anchor="middle" x="2013" y="-163.8" font-family="Times,serif" font-size="14.00">merge_pair</text>
</g>
<!-- iq0 -->
<g id="node19" class="node"><title>iq0</title>
</g>
<!-- iq0&#45;&gt;q0 -->
<g id="edge1" class="edge"><title>iq0&#45;&gt;q0</title>
<path fill="none" stroke="blue" d="M208.047,-443C252.853,-443 344.092,-443 389.729,-443"/>
<polygon fill="blue" stroke="blue" points="389.778,-446.5 399.778,-443 389.778,-439.5 389.778,-446.5"/>
</g>
</g>
</svg>
