<?xml version="1.0" encoding="UTF-8" standalone="no"?>
<!DOCTYPE svg PUBLIC "-//W3C//DTD SVG 1.1//EN"
 "http://www.w3.org/Graphics/SVG/1.1/DTD/svg11.dtd">
<!-- Generated by graphviz version 2.34.0 (20141125.1709)
 -->
<!-- Title: finite_automaton Pages: 1 -->
<svg width="576pt" height="114pt"
 viewBox="0.00 0.00 576.00 114.01" xmlns="http://www.w3.org/2000/svg" xmlns:xlink="http://www.w3.org/1999/xlink">
<g id="graph0" class="graph" transform="scale(0.296907 0.296907) rotate(0) translate(4 380)">
<title>finite_automaton</title>
<polygon fill="white" stroke="white" points="-4,4 -4,-380 1936,-380 1936,4 -4,4"/>
<!-- dom_edges -->
<g id="node1" class="node"><title>dom_edges</title>
<polygon fill="none" stroke="green" points="513.5,-36 0.5,-36 0.5,-0 513.5,-0 513.5,-36"/>
<text text-anchor="middle" x="257" y="-14.3" font-family="Times,serif" font-size="14.00">Dominating edges: merge_pair, seq_sort_core, inspect_before, inspect_after, Learn_Assert</text>
</g>
<!-- q1 -->
<g id="node2" class="node"><title>q1</title>
<ellipse fill="none" stroke="green" cx="1910" cy="-183" rx="18" ry="18"/>
<ellipse fill="none" stroke="green" cx="1910" cy="-183" rx="22" ry="22"/>
<text text-anchor="middle" x="1910" y="-179.3" font-family="Times,serif" font-size="14.00">D</text>
</g>
<!-- q0 -->
<g id="node3" class="node"><title>q0</title>
<ellipse fill="none" stroke="green" cx="570" cy="-72" rx="18" ry="18"/>
</g>
<!-- q6 -->
<g id="node8" class="node"><title>q6</title>
<ellipse fill="none" stroke="green" cx="722" cy="-72" rx="18" ry="18"/>
</g>
<!-- q0&#45;&gt;q6 -->
<g id="edge2" class="edge"><title>q0&#45;&gt;q6</title>
<path fill="none" stroke="green" d="M588.207,-72C614.09,-72 663.273,-72 693.974,-72"/>
<polygon fill="green" stroke="green" points="693.994,-75.5001 703.994,-72 693.994,-68.5001 693.994,-75.5001"/>
<text text-anchor="middle" x="646" y="-75.8" font-family="Times,serif" font-size="14.00">inspect_before</text>
</g>
<!-- q2 -->
<g id="node4" class="node"><title>q2</title>
<ellipse fill="none" stroke="green" cx="1760" cy="-183" rx="18" ry="18"/>
</g>
<!-- q2&#45;&gt;q1 -->
<g id="edge3" class="edge"><title>q2&#45;&gt;q1</title>
<path fill="none" stroke="green" d="M1778.27,-183C1802.55,-183 1847.2,-183 1877.49,-183"/>
<polygon fill="green" stroke="green" points="1877.55,-186.5 1887.55,-183 1877.55,-179.5 1877.55,-186.5"/>
<text text-anchor="middle" x="1833" y="-186.8" font-family="Times,serif" font-size="14.00">Learn_Assert</text>
</g>
<!-- q3 -->
<g id="node5" class="node"><title>q3</title>
<ellipse fill="none" stroke="black" cx="1387" cy="-291" rx="18" ry="18"/>
</g>
<!-- q3&#45;&gt;q2 -->
<g id="edge6" class="edge"><title>q3&#45;&gt;q2</title>
<path fill="none" stroke="green" d="M1402.16,-301.516C1412.16,-308.264 1426.19,-316.411 1440,-320 1486.46,-332.078 1501.14,-330.381 1548,-320 1632.25,-301.336 1659.12,-294.904 1724,-238 1733.38,-229.772 1741.17,-218.43 1747.01,-208.182"/>
<polygon fill="green" stroke="green" points="1750.18,-209.67 1751.8,-199.199 1744,-206.373 1750.18,-209.67"/>
<text text-anchor="middle" x="1601" y="-318.8" font-family="Times,serif" font-size="14.00">inspect_after</text>
</g>
<!-- q8 -->
<g id="node10" class="node"><title>q8</title>
<ellipse fill="none" stroke="black" cx="1601" cy="-234" rx="18" ry="18"/>
</g>
<!-- q3&#45;&gt;q8 -->
<g id="edge4" class="edge"><title>q3&#45;&gt;q8</title>
<path fill="none" stroke="black" d="M1404.26,-284.915C1414.45,-281.217 1427.9,-276.542 1440,-273 1487.38,-259.131 1500.05,-258.765 1548,-247 1556.26,-244.973 1565.25,-242.736 1573.4,-240.698"/>
<polygon fill="black" stroke="black" points="1574.3,-244.08 1583.15,-238.253 1572.6,-237.291 1574.3,-244.08"/>
<text text-anchor="middle" x="1494" y="-276.8" font-family="Times,serif" font-size="14.00">merge_single_node</text>
</g>
<!-- q3&#45;&gt;q8 -->
<g id="edge5" class="edge"><title>q3&#45;&gt;q8</title>
<path fill="none" stroke="green" d="M1404.77,-294.715C1434.92,-300.54 1499.62,-309.114 1548,-288 1562.88,-281.507 1575.6,-268.522 1584.74,-256.913"/>
<polygon fill="green" stroke="green" points="1587.6,-258.934 1590.74,-248.816 1581.97,-254.768 1587.6,-258.934"/>
<text text-anchor="middle" x="1494" y="-304.8" font-family="Times,serif" font-size="14.00">merge_pair</text>
</g>
<!-- q4 -->
<g id="node6" class="node"><title>q4</title>
<ellipse fill="none" stroke="black" cx="1211" cy="-281" rx="18" ry="18"/>
</g>
<!-- q4&#45;&gt;q2 -->
<g id="edge8" class="edge"><title>q4&#45;&gt;q2</title>
<path fill="none" stroke="green" d="M1227.02,-289.556C1237.18,-295 1251.04,-301.792 1264,-306 1421.69,-357.21 1478.31,-385.223 1636,-334 1680.55,-319.528 1694.77,-312.599 1724,-276 1739.24,-256.919 1748.33,-230.504 1753.41,-210.7"/>
<polygon fill="green" stroke="green" points="1756.87,-211.282 1755.77,-200.744 1750.06,-209.665 1756.87,-211.282"/>
<text text-anchor="middle" x="1494" y="-364.8" font-family="Times,serif" font-size="14.00">inspect_after</text>
</g>
<!-- q4&#45;&gt;q3 -->
<g id="edge7" class="edge"><title>q4&#45;&gt;q3</title>
<path fill="none" stroke="green" d="M1229,-281.977C1259.15,-283.71 1322.21,-287.334 1358.57,-289.424"/>
<polygon fill="green" stroke="green" points="1358.75,-292.939 1368.93,-290.019 1359.15,-285.951 1358.75,-292.939"/>
<text text-anchor="middle" x="1299" y="-290.8" font-family="Times,serif" font-size="14.00">merge_pair</text>
</g>
<!-- q5 -->
<g id="node7" class="node"><title>q5</title>
<ellipse fill="none" stroke="black" cx="870" cy="-134" rx="18" ry="18"/>
</g>
<!-- q5&#45;&gt;q2 -->
<g id="edge11" class="edge"><title>q5&#45;&gt;q2</title>
<path fill="none" stroke="green" d="M887.358,-127.743C915.189,-117.675 973.728,-99 1025,-99 1025,-99 1025,-99 1602,-99 1660.94,-99 1674.43,-119.105 1724,-151 1729.32,-154.425 1734.6,-158.679 1739.39,-162.954"/>
<polygon fill="green" stroke="green" points="1737.22,-165.717 1746.9,-170.029 1742.02,-160.623 1737.22,-165.717"/>
<text text-anchor="middle" x="1299" y="-102.8" font-family="Times,serif" font-size="14.00">inspect_after</text>
</g>
<!-- q5&#45;&gt;q4 -->
<g id="edge10" class="edge"><title>q5&#45;&gt;q4</title>
<path fill="none" stroke="green" d="M882.248,-147.784C888.775,-155.362 897.389,-164.682 906,-172 939.251,-200.259 948.025,-208.502 988,-226 1054.9,-255.283 1140.25,-270.878 1183.02,-277.339"/>
<polygon fill="green" stroke="green" points="1182.54,-280.805 1192.94,-278.787 1183.55,-273.879 1182.54,-280.805"/>
<text text-anchor="middle" x="1026" y="-255.8" font-family="Times,serif" font-size="14.00">seq_sort_core</text>
</g>
<!-- q7 -->
<g id="node9" class="node"><title>q7</title>
<ellipse fill="none" stroke="black" cx="1026" cy="-166" rx="18" ry="18"/>
</g>
<!-- q5&#45;&gt;q7 -->
<g id="edge9" class="edge"><title>q5&#45;&gt;q7</title>
<path fill="none" stroke="green" d="M887.774,-137.485C914.388,-143.016 966.525,-153.849 998.313,-160.455"/>
<polygon fill="green" stroke="green" points="997.744,-163.911 1008.25,-162.519 999.168,-157.057 997.744,-163.911"/>
<text text-anchor="middle" x="938" y="-156.8" font-family="Times,serif" font-size="14.00">merge_pair</text>
</g>
<!-- q6&#45;&gt;q2 -->
<g id="edge13" class="edge"><title>q6&#45;&gt;q2</title>
<path fill="none" stroke="green" d="M740.016,-68.915C767.185,-64.2656 822.082,-56 869,-56 869,-56 869,-56 1602,-56 1660.27,-56 1681.94,-63.6769 1724,-104 1738.44,-117.841 1747.33,-138.693 1752.54,-155.499"/>
<polygon fill="green" stroke="green" points="1749.23,-156.671 1755.32,-165.342 1755.97,-154.767 1749.23,-156.671"/>
<text text-anchor="middle" x="1211" y="-59.8" font-family="Times,serif" font-size="14.00">inspect_after</text>
</g>
<!-- q6&#45;&gt;q5 -->
<g id="edge12" class="edge"><title>q6&#45;&gt;q5</title>
<path fill="none" stroke="green" d="M738.902,-78.7531C764.135,-89.4681 813.562,-110.458 843.699,-123.256"/>
<polygon fill="green" stroke="green" points="842.545,-126.568 853.117,-127.255 845.281,-120.125 842.545,-126.568"/>
<text text-anchor="middle" x="796" y="-122.8" font-family="Times,serif" font-size="14.00">seq_sort_core</text>
</g>
<!-- q7&#45;&gt;q2 -->
<g id="edge17" class="edge"><title>q7&#45;&gt;q2</title>
<path fill="none" stroke="green" d="M1044.04,-163.323C1122.81,-151.507 1459.22,-107.23 1724,-168 1727.46,-168.793 1731,-169.912 1734.44,-171.186"/>
<polygon fill="green" stroke="green" points="1733.15,-174.437 1743.72,-175.042 1735.83,-167.973 1733.15,-174.437"/>
<text text-anchor="middle" x="1387" y="-140.8" font-family="Times,serif" font-size="14.00">inspect_after</text>
</g>
<!-- q7&#45;&gt;q4 -->
<g id="edge16" class="edge"><title>q7&#45;&gt;q4</title>
<path fill="none" stroke="green" d="M1040.26,-177.407C1050.97,-186.159 1066.7,-198.052 1082,-206 1113.68,-222.46 1127.43,-213.564 1158,-232 1170.57,-239.582 1182.63,-250.627 1191.97,-260.313"/>
<polygon fill="green" stroke="green" points="1189.46,-262.753 1198.83,-267.696 1194.59,-257.988 1189.46,-262.753"/>
<text text-anchor="middle" x="1120" y="-235.8" font-family="Times,serif" font-size="14.00">seq_sort_core</text>
</g>
<!-- q7&#45;&gt;q7 -->
<g id="edge14" class="edge"><title>q7&#45;&gt;q7</title>
<path fill="none" stroke="black" d="M1012.66,-178.172C1005.74,-189.602 1010.19,-202 1026,-202 1037.37,-202 1042.86,-195.595 1042.48,-187.748"/>
<polygon fill="black" stroke="black" points="1045.78,-186.583 1039.34,-178.172 1039.13,-188.765 1045.78,-186.583"/>
<text text-anchor="middle" x="1026" y="-205.8" font-family="Times,serif" font-size="14.00">merge_single_node</text>
</g>
<!-- q9 -->
<g id="node11" class="node"><title>q9</title>
<ellipse fill="none" stroke="black" cx="1387" cy="-196" rx="18" ry="18"/>
</g>
<!-- q7&#45;&gt;q9 -->
<g id="edge15" class="edge"><title>q7&#45;&gt;q9</title>
<path fill="none" stroke="green" d="M1044.32,-167.447C1102.02,-172.269 1288.07,-187.816 1358.57,-193.708"/>
<polygon fill="green" stroke="green" points="1358.6,-197.223 1368.86,-194.568 1359.18,-190.247 1358.6,-197.223"/>
<text text-anchor="middle" x="1211" y="-186.8" font-family="Times,serif" font-size="14.00">merge_pair</text>
</g>
<!-- q8&#45;&gt;q2 -->
<g id="edge18" class="edge"><title>q8&#45;&gt;q2</title>
<path fill="none" stroke="green" d="M1618.72,-229.422C1642.36,-222.837 1686.83,-210.045 1724,-197 1727.15,-195.895 1730.43,-194.674 1733.67,-193.428"/>
<polygon fill="green" stroke="green" points="1735.07,-196.639 1743.08,-189.704 1732.49,-190.131 1735.07,-196.639"/>
<text text-anchor="middle" x="1689" y="-222.8" font-family="Times,serif" font-size="14.00">inspect_after</text>
</g>
<!-- q9&#45;&gt;q2 -->
<g id="edge21" class="edge"><title>q9&#45;&gt;q2</title>
<path fill="none" stroke="green" d="M1404.07,-189.287C1414.18,-185.431 1427.62,-180.972 1440,-179 1546.91,-161.967 1676.54,-173.277 1731.86,-179.578"/>
<polygon fill="green" stroke="green" points="1731.57,-183.067 1741.91,-180.761 1732.39,-176.115 1731.57,-183.067"/>
<text text-anchor="middle" x="1601" y="-174.8" font-family="Times,serif" font-size="14.00">inspect_after</text>
</g>
<!-- q9&#45;&gt;q8 -->
<g id="edge19" class="edge"><title>q9&#45;&gt;q8</title>
<path fill="none" stroke="black" d="M1404.21,-201.731C1414.38,-205.139 1427.83,-209.309 1440,-212 1486.04,-222.179 1540.64,-228.478 1572.68,-231.603"/>
<polygon fill="black" stroke="black" points="1572.74,-235.123 1583.02,-232.576 1573.4,-228.154 1572.74,-235.123"/>
<text text-anchor="middle" x="1494" y="-231.8" font-family="Times,serif" font-size="14.00">merge_single_node</text>
</g>
<!-- q9&#45;&gt;q8 -->
<g id="edge20" class="edge"><title>q9&#45;&gt;q8</title>
<path fill="none" stroke="green" d="M1404.95,-191.956C1434.82,-185.629 1498.39,-175.794 1548,-193 1560.27,-197.254 1571.83,-205.732 1580.92,-213.881"/>
<polygon fill="green" stroke="green" points="1578.58,-216.481 1588.23,-220.842 1583.4,-211.411 1578.58,-216.481"/>
<text text-anchor="middle" x="1494" y="-196.8" font-family="Times,serif" font-size="14.00">seq_sort_core</text>
</g>
<!-- iq0 -->
<g id="node12" class="node"><title>iq0</title>
</g>
<!-- iq0&#45;&gt;q0 -->
<g id="edge1" class="edge"><title>iq0&#45;&gt;q0</title>
<path fill="none" stroke="blue" d="M284.248,-72C342.563,-72 482.418,-72 541.7,-72"/>
<polygon fill="blue" stroke="blue" points="541.794,-75.5001 551.794,-72 541.794,-68.5001 541.794,-75.5001"/>
</g>
</g>
</svg>
