<?xml version="1.0" encoding="UTF-8" standalone="no"?>
<!DOCTYPE svg PUBLIC "-//W3C//DTD SVG 1.1//EN"
 "http://www.w3.org/Graphics/SVG/1.1/DTD/svg11.dtd">
<!-- Generated by graphviz version 2.34.0 (20141125.1709)
 -->
<!-- Title: finite_automaton Pages: 1 -->
<svg width="576pt" height="82pt"
 viewBox="0.00 0.00 576.00 82.22" xmlns="http://www.w3.org/2000/svg" xmlns:xlink="http://www.w3.org/1999/xlink">
<g id="graph0" class="graph" transform="scale(0.449298 0.449298) rotate(0) translate(4 179)">
<title>finite_automaton</title>
<polygon fill="white" stroke="white" points="-4,4 -4,-179 1278,-179 1278,4 -4,4"/>
<!-- dom_edges -->
<g id="node1" class="node"><title>dom_edges</title>
<polygon fill="none" stroke="green" points="513.5,-36 0.5,-36 0.5,-0 513.5,-0 513.5,-36"/>
<text text-anchor="middle" x="257" y="-14.3" font-family="Times,serif" font-size="14.00">Dominating edges: merge_pair, seq_sort_core, inspect_before, inspect_after, Learn_Assert</text>
</g>
<!-- q1 -->
<g id="node2" class="node"><title>q1</title>
<ellipse fill="none" stroke="green" cx="1252" cy="-132" rx="18" ry="18"/>
<ellipse fill="none" stroke="green" cx="1252" cy="-132" rx="22" ry="22"/>
<text text-anchor="middle" x="1252" y="-128.3" font-family="Times,serif" font-size="14.00">D</text>
</g>
<!-- q0 -->
<g id="node3" class="node"><title>q0</title>
<ellipse fill="none" stroke="green" cx="570" cy="-72" rx="18" ry="18"/>
</g>
<!-- q5 -->
<g id="node7" class="node"><title>q5</title>
<ellipse fill="none" stroke="green" cx="764" cy="-81" rx="18" ry="18"/>
</g>
<!-- q0&#45;&gt;q5 -->
<g id="edge2" class="edge"><title>q0&#45;&gt;q5</title>
<path fill="none" stroke="green" d="M588.209,-71.2631C615.108,-70.3043 668.728,-69.1693 714,-73 721.271,-73.6152 729.092,-74.6984 736.303,-75.8728"/>
<polygon fill="green" stroke="green" points="735.845,-79.3457 746.298,-77.6147 737.047,-72.4497 735.845,-79.3457"/>
<text text-anchor="middle" x="660" y="-76.8" font-family="Times,serif" font-size="14.00">inspect_before</text>
</g>
<!-- q2 -->
<g id="node4" class="node"><title>q2</title>
<ellipse fill="none" stroke="green" cx="1102" cy="-132" rx="18" ry="18"/>
</g>
<!-- q2&#45;&gt;q1 -->
<g id="edge3" class="edge"><title>q2&#45;&gt;q1</title>
<path fill="none" stroke="green" d="M1120.27,-132C1144.55,-132 1189.2,-132 1219.49,-132"/>
<polygon fill="green" stroke="green" points="1219.55,-135.5 1229.55,-132 1219.55,-128.5 1219.55,-135.5"/>
<text text-anchor="middle" x="1175" y="-135.8" font-family="Times,serif" font-size="14.00">Learn_Assert</text>
</g>
<!-- q3 -->
<g id="node5" class="node"><title>q3</title>
<ellipse fill="none" stroke="black" cx="570" cy="-140" rx="18" ry="18"/>
</g>
<!-- q3&#45;&gt;q2 -->
<g id="edge5" class="edge"><title>q3&#45;&gt;q2</title>
<path fill="none" stroke="green" d="M587.106,-146.677C592.953,-148.79 599.677,-150.869 606,-152 661.14,-161.866 675.999,-153.697 732,-155 841.318,-157.544 868.765,-163.955 978,-159 1017.23,-157.22 1028.41,-162.381 1066,-151 1069.91,-149.817 1073.88,-148.168 1077.67,-146.332"/>
<polygon fill="green" stroke="green" points="1079.44,-149.352 1086.6,-141.539 1076.13,-143.184 1079.44,-149.352"/>
<text text-anchor="middle" x="852" y="-163.8" font-family="Times,serif" font-size="14.00">inspect_after</text>
</g>
<!-- q3&#45;&gt;q5 -->
<g id="edge4" class="edge"><title>q3&#45;&gt;q5</title>
<path fill="none" stroke="black" d="M583.204,-127.264C589.482,-121.441 597.577,-114.969 606,-111 617.604,-105.532 694.351,-92.3121 736.084,-85.3911"/>
<polygon fill="black" stroke="black" points="736.823,-88.8165 746.12,-83.7361 735.684,-81.9098 736.823,-88.8165"/>
<text text-anchor="middle" x="660" y="-114.8" font-family="Times,serif" font-size="14.00">merge_single_node</text>
</g>
<!-- q4 -->
<g id="node6" class="node"><title>q4</title>
<ellipse fill="none" stroke="black" cx="943" cy="-132" rx="18" ry="18"/>
</g>
<!-- q4&#45;&gt;q2 -->
<g id="edge7" class="edge"><title>q4&#45;&gt;q2</title>
<path fill="none" stroke="green" d="M961.101,-132C988.234,-132 1041.39,-132 1073.79,-132"/>
<polygon fill="green" stroke="green" points="1073.92,-135.5 1083.92,-132 1073.92,-128.5 1073.92,-135.5"/>
<text text-anchor="middle" x="1031" y="-135.8" font-family="Times,serif" font-size="14.00">inspect_after</text>
</g>
<!-- q4&#45;&gt;q3 -->
<g id="edge6" class="edge"><title>q4&#45;&gt;q3</title>
<path fill="none" stroke="green" d="M924.641,-132.374C865.424,-133.651 671.028,-137.843 598.558,-139.406"/>
<polygon fill="green" stroke="green" points="598.319,-135.91 588.396,-139.625 598.47,-142.908 598.319,-135.91"/>
<text text-anchor="middle" x="764" y="-139.8" font-family="Times,serif" font-size="14.00">merge_pair</text>
</g>
<!-- q5&#45;&gt;q2 -->
<g id="edge9" class="edge"><title>q5&#45;&gt;q2</title>
<path fill="none" stroke="green" d="M782.03,-80.0815C818.39,-78.4769 906.157,-76.5078 978,-90 1012.89,-96.5524 1051.35,-110.913 1075.82,-121.011"/>
<polygon fill="green" stroke="green" points="1074.51,-124.259 1085.08,-124.91 1077.22,-117.806 1074.51,-124.259"/>
<text text-anchor="middle" x="943" y="-93.8" font-family="Times,serif" font-size="14.00">inspect_after</text>
</g>
<!-- q5&#45;&gt;q4 -->
<g id="edge8" class="edge"><title>q5&#45;&gt;q4</title>
<path fill="none" stroke="green" d="M781.797,-84.2053C805.998,-89.0091 851.952,-98.8255 890,-111 898.931,-113.858 908.502,-117.538 916.968,-121.016"/>
<polygon fill="green" stroke="green" points="915.719,-124.288 926.293,-124.947 918.437,-117.838 915.719,-124.288"/>
<text text-anchor="middle" x="852" y="-114.8" font-family="Times,serif" font-size="14.00">seq_sort_core</text>
</g>
<!-- iq0 -->
<g id="node8" class="node"><title>iq0</title>
</g>
<!-- iq0&#45;&gt;q0 -->
<g id="edge1" class="edge"><title>iq0&#45;&gt;q0</title>
<path fill="none" stroke="blue" d="M284.248,-72C342.563,-72 482.418,-72 541.7,-72"/>
<polygon fill="blue" stroke="blue" points="541.794,-75.5001 551.794,-72 541.794,-68.5001 541.794,-75.5001"/>
</g>
</g>
</svg>
