<?xml version="1.0" encoding="UTF-8" standalone="no"?>
<!DOCTYPE svg PUBLIC "-//W3C//DTD SVG 1.1//EN"
 "http://www.w3.org/Graphics/SVG/1.1/DTD/svg11.dtd">
<!-- Generated by graphviz version 2.34.0 (20141125.1709)
 -->
<!-- Title: finite_automaton Pages: 1 -->
<svg width="576pt" height="53pt"
 viewBox="0.00 0.00 576.00 53.05" xmlns="http://www.w3.org/2000/svg" xmlns:xlink="http://www.w3.org/1999/xlink">
<g id="graph0" class="graph" transform="scale(0.421053 0.421053) rotate(0) translate(4 122)">
<title>finite_automaton</title>
<polygon fill="white" stroke="white" points="-4,4 -4,-122 1364,-122 1364,4 -4,4"/>
<!-- dom_edges -->
<g id="node1" class="node"><title>dom_edges</title>
<polygon fill="none" stroke="green" points="513.5,-64 0.5,-64 0.5,-28 513.5,-28 513.5,-64"/>
<text text-anchor="middle" x="257" y="-42.3" font-family="Times,serif" font-size="14.00">Dominating edges: merge_pair, seq_sort_core, inspect_before, inspect_after, Learn_Assert</text>
</g>
<!-- q1 -->
<g id="node2" class="node"><title>q1</title>
<ellipse fill="none" stroke="green" cx="1338" cy="-72" rx="18" ry="18"/>
<ellipse fill="none" stroke="green" cx="1338" cy="-72" rx="22" ry="22"/>
<text text-anchor="middle" x="1338" y="-68.3" font-family="Times,serif" font-size="14.00">D</text>
</g>
<!-- q0 -->
<g id="node3" class="node"><title>q0</title>
<ellipse fill="none" stroke="green" cx="570" cy="-100" rx="18" ry="18"/>
</g>
<!-- q5 -->
<g id="node7" class="node"><title>q5</title>
<ellipse fill="none" stroke="green" cx="722" cy="-100" rx="18" ry="18"/>
</g>
<!-- q0&#45;&gt;q5 -->
<g id="edge2" class="edge"><title>q0&#45;&gt;q5</title>
<path fill="none" stroke="green" d="M588.207,-100C614.09,-100 663.273,-100 693.974,-100"/>
<polygon fill="green" stroke="green" points="693.994,-103.5 703.994,-100 693.994,-96.5001 693.994,-103.5"/>
<text text-anchor="middle" x="646" y="-103.8" font-family="Times,serif" font-size="14.00">inspect_before</text>
</g>
<!-- q2 -->
<g id="node4" class="node"><title>q2</title>
<ellipse fill="none" stroke="green" cx="1188" cy="-72" rx="18" ry="18"/>
</g>
<!-- q2&#45;&gt;q1 -->
<g id="edge3" class="edge"><title>q2&#45;&gt;q1</title>
<path fill="none" stroke="green" d="M1206.27,-72C1230.55,-72 1275.2,-72 1305.49,-72"/>
<polygon fill="green" stroke="green" points="1305.55,-75.5001 1315.55,-72 1305.55,-68.5001 1305.55,-75.5001"/>
<text text-anchor="middle" x="1261" y="-75.8" font-family="Times,serif" font-size="14.00">Learn_Assert</text>
</g>
<!-- q3 -->
<g id="node5" class="node"><title>q3</title>
<ellipse fill="none" stroke="black" cx="1029" cy="-18" rx="18" ry="18"/>
</g>
<!-- q3&#45;&gt;q2 -->
<g id="edge4" class="edge"><title>q3&#45;&gt;q2</title>
<path fill="none" stroke="green" d="M1047,-18.884C1071.36,-20.7134 1117.1,-26.2703 1152,-43 1157.25,-45.5158 1162.38,-48.9888 1167.02,-52.6588"/>
<polygon fill="green" stroke="green" points="1164.91,-55.4564 1174.77,-59.3133 1169.46,-50.1445 1164.91,-55.4564"/>
<text text-anchor="middle" x="1117" y="-46.8" font-family="Times,serif" font-size="14.00">inspect_after</text>
</g>
<!-- q4 -->
<g id="node6" class="node"><title>q4</title>
<ellipse fill="none" stroke="black" cx="870" cy="-69" rx="18" ry="18"/>
</g>
<!-- q4&#45;&gt;q2 -->
<g id="edge6" class="edge"><title>q4&#45;&gt;q2</title>
<path fill="none" stroke="green" d="M888.44,-69.1656C940.68,-69.6615 1096.19,-71.1379 1159.61,-71.74"/>
<polygon fill="green" stroke="green" points="1159.97,-75.2434 1170,-71.8386 1160.03,-68.2437 1159.97,-75.2434"/>
<text text-anchor="middle" x="1029" y="-73.8" font-family="Times,serif" font-size="14.00">inspect_after</text>
</g>
<!-- q4&#45;&gt;q3 -->
<g id="edge5" class="edge"><title>q4&#45;&gt;q3</title>
<path fill="none" stroke="green" d="M883.762,-57.3933C890.047,-52.259 897.984,-46.5845 906,-43 936.74,-29.2531 975.234,-22.9797 1000.67,-20.1744"/>
<polygon fill="green" stroke="green" points="1001.11,-23.6483 1010.71,-19.1728 1000.41,-16.6828 1001.11,-23.6483"/>
<text text-anchor="middle" x="941" y="-46.8" font-family="Times,serif" font-size="14.00">merge_pair</text>
</g>
<!-- q5&#45;&gt;q2 -->
<g id="edge8" class="edge"><title>q5&#45;&gt;q2</title>
<path fill="none" stroke="green" d="M740.088,-100.586C745.784,-100.755 752.165,-100.917 758,-101 791.774,-101.482 800.233,-101.849 834,-101 975.467,-97.4433 1013.39,-113.524 1152,-85 1155.24,-84.3337 1158.57,-83.4169 1161.84,-82.3759"/>
<polygon fill="green" stroke="green" points="1163.03,-85.6675 1171.27,-79.0064 1160.68,-79.0757 1163.03,-85.6675"/>
<text text-anchor="middle" x="941" y="-105.8" font-family="Times,serif" font-size="14.00">inspect_after</text>
</g>
<!-- q5&#45;&gt;q4 -->
<g id="edge7" class="edge"><title>q5&#45;&gt;q4</title>
<path fill="none" stroke="green" d="M738.767,-92.8032C744.695,-90.3356 751.56,-87.7563 758,-86 785.963,-78.3741 818.884,-73.8721 841.573,-71.4375"/>
<polygon fill="green" stroke="green" points="842.225,-74.8897 851.823,-70.4039 841.522,-67.925 842.225,-74.8897"/>
<text text-anchor="middle" x="796" y="-89.8" font-family="Times,serif" font-size="14.00">seq_sort_core</text>
</g>
<!-- iq0 -->
<g id="node8" class="node"><title>iq0</title>
</g>
<!-- iq0&#45;&gt;q0 -->
<g id="edge1" class="edge"><title>iq0&#45;&gt;q0</title>
<path fill="none" stroke="blue" d="M284.248,-100C342.563,-100 482.418,-100 541.7,-100"/>
<polygon fill="blue" stroke="blue" points="541.794,-103.5 551.794,-100 541.794,-96.5001 541.794,-103.5"/>
</g>
</g>
</svg>
