<?xml version="1.0" encoding="UTF-8" standalone="no"?>
<!DOCTYPE svg PUBLIC "-//W3C//DTD SVG 1.1//EN"
 "http://www.w3.org/Graphics/SVG/1.1/DTD/svg11.dtd">
<!-- Generated by graphviz version 2.34.0 (20141125.1709)
 -->
<!-- Title: finite_automaton Pages: 1 -->
<svg width="576pt" height="84pt"
 viewBox="0.00 0.00 576.00 84.02" xmlns="http://www.w3.org/2000/svg" xmlns:xlink="http://www.w3.org/1999/xlink">
<g id="graph0" class="graph" transform="scale(0.407932 0.407932) rotate(0) translate(4 201.954)">
<title>finite_automaton</title>
<polygon fill="white" stroke="white" points="-4,4 -4,-201.954 1408,-201.954 1408,4 -4,4"/>
<!-- dom_edges -->
<g id="node1" class="node"><title>dom_edges</title>
<polygon fill="none" stroke="green" points="398,-61.9541 0,-61.9541 0,-25.9541 398,-25.9541 398,-61.9541"/>
<text text-anchor="middle" x="199" y="-40.2541" font-family="Times,serif" font-size="14.00">Dominating edges: new_list, init_prio_queue, initialize, Learn_Assert</text>
</g>
<!-- q1 -->
<g id="node2" class="node"><title>q1</title>
<ellipse fill="none" stroke="green" cx="1382" cy="-175.954" rx="18" ry="18"/>
<ellipse fill="none" stroke="green" cx="1382" cy="-175.954" rx="22" ry="22"/>
<text text-anchor="middle" x="1382" y="-172.254" font-family="Times,serif" font-size="14.00">D</text>
</g>
<!-- q0 -->
<g id="node3" class="node"><title>q0</title>
<ellipse fill="none" stroke="green" cx="454" cy="-97.9541" rx="18" ry="18"/>
</g>
<!-- q4 -->
<g id="node6" class="node"><title>q4</title>
<ellipse fill="none" stroke="green" cx="574" cy="-97.9541" rx="18" ry="18"/>
</g>
<!-- q0&#45;&gt;q4 -->
<g id="edge2" class="edge"><title>q0&#45;&gt;q4</title>
<path fill="none" stroke="green" d="M472.158,-97.9541C491.472,-97.9541 523.109,-97.9541 545.799,-97.9541"/>
<polygon fill="green" stroke="green" points="545.821,-101.454 555.821,-97.9541 545.821,-94.4542 545.821,-101.454"/>
<text text-anchor="middle" x="514" y="-101.754" font-family="Times,serif" font-size="14.00">initialize</text>
</g>
<!-- q2 -->
<g id="node4" class="node"><title>q2</title>
<ellipse fill="none" stroke="green" cx="850" cy="-97.9541" rx="18" ry="18"/>
</g>
<!-- q2&#45;&gt;q1 -->
<g id="edge8" class="edge"><title>q2&#45;&gt;q1</title>
<path fill="none" stroke="green" d="M857.635,-114.475C863.344,-126.511 872.763,-142.184 886,-150.954 926.695,-177.916 945.488,-165.517 994,-170.954 1115.12,-184.529 1146.15,-179.509 1268,-181.954 1300.88,-182.614 1309.21,-184.462 1342,-181.954 1344.57,-181.758 1347.23,-181.489 1349.89,-181.174"/>
<polygon fill="green" stroke="green" points="1350.59,-184.611 1360.02,-179.783 1349.63,-177.677 1350.59,-184.611"/>
<text text-anchor="middle" x="1159" y="-184.754" font-family="Times,serif" font-size="14.00">Learn_Assert</text>
</g>
<!-- q6 -->
<g id="node7" class="node"><title>q6</title>
<ellipse fill="none" stroke="black" cx="1232" cy="-128.954" rx="18" ry="18"/>
</g>
<!-- q2&#45;&gt;q6 -->
<g id="edge4" class="edge"><title>q2&#45;&gt;q6</title>
<path fill="none" stroke="black" d="M862.661,-110.919C868.926,-116.952 877.168,-123.538 886,-126.954 997.491,-170.081 1144.83,-147.18 1204.36,-134.99"/>
<polygon fill="black" stroke="black" points="1205.37,-138.354 1214.42,-132.857 1203.92,-131.506 1205.37,-138.354"/>
<text text-anchor="middle" x="1049" y="-155.754" font-family="Times,serif" font-size="14.00">finish_all_processes</text>
</g>
<!-- q2&#45;&gt;q6 -->
<g id="edge5" class="edge"><title>q2&#45;&gt;q6</title>
<path fill="none" stroke="black" d="M868.315,-99.3666C928.667,-104.29 1130.07,-120.72 1203.72,-126.729"/>
<polygon fill="black" stroke="black" points="1203.77,-130.244 1214.02,-127.569 1204.34,-123.267 1203.77,-130.244"/>
<text text-anchor="middle" x="1049" y="-121.754" font-family="Times,serif" font-size="14.00">unblock_process</text>
</g>
<!-- q7 -->
<g id="node8" class="node"><title>q7</title>
<ellipse fill="none" stroke="black" cx="1049" cy="-51.9541" rx="18" ry="18"/>
</g>
<!-- q2&#45;&gt;q7 -->
<g id="edge3" class="edge"><title>q2&#45;&gt;q7</title>
<path fill="none" stroke="black" d="M866.81,-90.9074C872.743,-88.456 879.599,-85.8486 886,-83.9541 932.432,-70.2113 988.115,-60.6729 1020.63,-55.7734"/>
<polygon fill="black" stroke="black" points="1021.34,-59.2072 1030.72,-54.2903 1020.32,-52.2816 1021.34,-59.2072"/>
<text text-anchor="middle" x="931" y="-87.7541" font-family="Times,serif" font-size="14.00">finish_process</text>
</g>
<!-- q2&#45;&gt;q7 -->
<g id="edge6" class="edge"><title>q2&#45;&gt;q7</title>
<path fill="none" stroke="black" d="M856.785,-81.187C862.172,-68.4379 871.571,-51.7968 886,-43.9541 929.049,-20.5556 988.418,-32.6602 1022.03,-42.8154"/>
<polygon fill="black" stroke="black" points="1021,-46.1602 1031.59,-45.863 1023.13,-39.4909 1021,-46.1602"/>
<text text-anchor="middle" x="931" y="-47.7541" font-family="Times,serif" font-size="14.00">quantum_expire</text>
</g>
<!-- q2&#45;&gt;q7 -->
<g id="edge7" class="edge"><title>q2&#45;&gt;q7</title>
<path fill="none" stroke="black" d="M852.598,-79.8124C855.478,-59.3828 863.53,-27.0692 886,-11.9541 929.284,17.1618 991.829,-14.4734 1025.12,-35.8007"/>
<polygon fill="black" stroke="black" points="1023.43,-38.8766 1033.7,-41.4838 1027.3,-33.0418 1023.43,-38.8766"/>
<text text-anchor="middle" x="931" y="-15.7541" font-family="Times,serif" font-size="14.00">block_process</text>
</g>
<!-- q3 -->
<g id="node5" class="node"><title>q3</title>
<ellipse fill="none" stroke="green" cx="732" cy="-97.9541" rx="18" ry="18"/>
</g>
<!-- q3&#45;&gt;q2 -->
<g id="edge9" class="edge"><title>q3&#45;&gt;q2</title>
<path fill="none" stroke="green" d="M750.116,-97.9541C768.964,-97.9541 799.531,-97.9541 821.696,-97.9541"/>
<polygon fill="green" stroke="green" points="821.814,-101.454 831.814,-97.9541 821.814,-94.4542 821.814,-101.454"/>
<text text-anchor="middle" x="791" y="-101.754" font-family="Times,serif" font-size="14.00">new_list</text>
</g>
<!-- q4&#45;&gt;q3 -->
<g id="edge10" class="edge"><title>q4&#45;&gt;q3</title>
<path fill="none" stroke="green" d="M592.291,-97.9541C619.232,-97.9541 671.46,-97.9541 703.577,-97.9541"/>
<polygon fill="green" stroke="green" points="703.632,-101.454 713.632,-97.9541 703.632,-94.4542 703.632,-101.454"/>
<text text-anchor="middle" x="653" y="-101.754" font-family="Times,serif" font-size="14.00">init_prio_queue</text>
</g>
<!-- q6&#45;&gt;q1 -->
<g id="edge11" class="edge"><title>q6&#45;&gt;q1</title>
<path fill="none" stroke="green" d="M1249.4,-134.163C1273.88,-141.937 1320.36,-156.697 1351.01,-166.432"/>
<polygon fill="green" stroke="green" points="1350.16,-169.832 1360.75,-169.523 1352.28,-163.16 1350.16,-169.832"/>
<text text-anchor="middle" x="1305" y="-166.754" font-family="Times,serif" font-size="14.00">Learn_Assert</text>
</g>
<!-- q7&#45;&gt;q6 -->
<g id="edge12" class="edge"><title>q7&#45;&gt;q6</title>
<path fill="none" stroke="black" d="M1067.16,-52.0328C1095.97,-52.9237 1154.96,-58.0652 1196,-83.9541 1204.18,-89.1157 1211.22,-96.8965 1216.79,-104.544"/>
<polygon fill="black" stroke="black" points="1214.18,-106.927 1222.64,-113.295 1219.99,-103.036 1214.18,-106.927"/>
<text text-anchor="middle" x="1159" y="-87.7541" font-family="Times,serif" font-size="14.00">schedule</text>
</g>
<!-- iq0 -->
<g id="node9" class="node"><title>iq0</title>
</g>
<!-- iq0&#45;&gt;q0 -->
<g id="edge1" class="edge"><title>iq0&#45;&gt;q0</title>
<path fill="none" stroke="blue" d="M226.123,-97.9541C274.246,-97.9541 376.462,-97.9541 425.557,-97.9541"/>
<polygon fill="blue" stroke="blue" points="425.738,-101.454 435.738,-97.9541 425.738,-94.4542 425.738,-101.454"/>
</g>
</g>
</svg>
