<?xml version="1.0" encoding="UTF-8" standalone="no"?>
<!DOCTYPE svg PUBLIC "-//W3C//DTD SVG 1.1//EN"
 "http://www.w3.org/Graphics/SVG/1.1/DTD/svg11.dtd">
<!-- Generated by graphviz version 2.34.0 (20141125.1709)
 -->
<!-- Title: finite_automaton Pages: 1 -->
<svg width="576pt" height="95pt"
 viewBox="0.00 0.00 576.00 95.42" xmlns="http://www.w3.org/2000/svg" xmlns:xlink="http://www.w3.org/1999/xlink">
<g id="graph0" class="graph" transform="scale(0.332564 0.332564) rotate(0) translate(4 282.932)">
<title>finite_automaton</title>
<polygon fill="white" stroke="white" points="-4,4 -4,-282.932 1728,-282.932 1728,4 -4,4"/>
<!-- dom_edges -->
<g id="node1" class="node"><title>dom_edges</title>
<polygon fill="none" stroke="green" points="398,-79.9318 0,-79.9318 0,-43.9318 398,-43.9318 398,-79.9318"/>
<text text-anchor="middle" x="199" y="-58.2318" font-family="Times,serif" font-size="14.00">Dominating edges: new_list, init_prio_queue, initialize, Learn_Assert</text>
</g>
<!-- q1 -->
<g id="node2" class="node"><title>q1</title>
<ellipse fill="none" stroke="green" cx="1702" cy="-220.932" rx="18" ry="18"/>
<ellipse fill="none" stroke="green" cx="1702" cy="-220.932" rx="22" ry="22"/>
<text text-anchor="middle" x="1702" y="-217.232" font-family="Times,serif" font-size="14.00">D</text>
</g>
<!-- q0 -->
<g id="node3" class="node"><title>q0</title>
<ellipse fill="none" stroke="green" cx="454" cy="-115.932" rx="18" ry="18"/>
</g>
<!-- q4 -->
<g id="node6" class="node"><title>q4</title>
<ellipse fill="none" stroke="green" cx="574" cy="-115.932" rx="18" ry="18"/>
</g>
<!-- q0&#45;&gt;q4 -->
<g id="edge2" class="edge"><title>q0&#45;&gt;q4</title>
<path fill="none" stroke="green" d="M472.158,-115.932C491.472,-115.932 523.109,-115.932 545.799,-115.932"/>
<polygon fill="green" stroke="green" points="545.821,-119.432 555.821,-115.932 545.821,-112.432 545.821,-119.432"/>
<text text-anchor="middle" x="514" y="-119.732" font-family="Times,serif" font-size="14.00">initialize</text>
</g>
<!-- q2 -->
<g id="node4" class="node"><title>q2</title>
<ellipse fill="none" stroke="green" cx="850" cy="-115.932" rx="18" ry="18"/>
</g>
<!-- q2&#45;&gt;q1 -->
<g id="edge9" class="edge"><title>q2&#45;&gt;q1</title>
<path fill="none" stroke="green" d="M852.111,-133.831C854.508,-157.182 862.081,-197.888 886,-221.932 927.333,-263.482 952.392,-263.932 1011,-263.932 1011,-263.932 1011,-263.932 1534,-263.932 1583.79,-263.932 1639.36,-245.787 1672.19,-233.071"/>
<polygon fill="green" stroke="green" points="1673.62,-236.27 1681.62,-229.325 1671.04,-229.765 1673.62,-236.27"/>
<text text-anchor="middle" x="1277" y="-267.732" font-family="Times,serif" font-size="14.00">Learn_Assert</text>
</g>
<!-- q8 -->
<g id="node9" class="node"><title>q8</title>
<ellipse fill="none" stroke="black" cx="1012" cy="-205.932" rx="18" ry="18"/>
</g>
<!-- q2&#45;&gt;q8 -->
<g id="edge3" class="edge"><title>q2&#45;&gt;q8</title>
<path fill="none" stroke="black" d="M857.39,-132.536C863.068,-145.14 872.563,-161.95 886,-171.932 915.008,-193.479 956.843,-201.372 983.977,-204.263"/>
<polygon fill="black" stroke="black" points="983.665,-207.749 993.941,-205.17 984.299,-200.778 983.665,-207.749"/>
<text text-anchor="middle" x="931" y="-206.732" font-family="Times,serif" font-size="14.00">new_process</text>
</g>
<!-- q9 -->
<g id="node10" class="node"><title>q9</title>
<ellipse fill="none" stroke="black" cx="1533" cy="-157.932" rx="18" ry="18"/>
</g>
<!-- q2&#45;&gt;q9 -->
<g id="edge5" class="edge"><title>q2&#45;&gt;q9</title>
<path fill="none" stroke="black" d="M866.988,-123.057C895.379,-135.039 956.721,-157.932 1011,-157.932 1011,-157.932 1011,-157.932 1351,-157.932 1405.53,-157.932 1469.31,-157.932 1504.74,-157.932"/>
<polygon fill="black" stroke="black" points="1504.78,-161.432 1514.78,-157.932 1504.78,-154.432 1504.78,-161.432"/>
<text text-anchor="middle" x="1167" y="-161.732" font-family="Times,serif" font-size="14.00">finish_all_processes</text>
</g>
<!-- q2&#45;&gt;q9 -->
<g id="edge6" class="edge"><title>q2&#45;&gt;q9</title>
<path fill="none" stroke="black" d="M868.036,-115.524C920.731,-114.401 1085.74,-111.907 1222,-120.932 1326.99,-127.885 1451.01,-145.569 1504.83,-153.711"/>
<polygon fill="black" stroke="black" points="1504.51,-157.203 1514.92,-155.251 1505.56,-150.283 1504.51,-157.203"/>
<text text-anchor="middle" x="1167" y="-124.732" font-family="Times,serif" font-size="14.00">unblock_process</text>
</g>
<!-- q10 -->
<g id="node11" class="node"><title>q10</title>
<ellipse fill="none" stroke="black" cx="1012" cy="-49.9318" rx="18" ry="18"/>
</g>
<!-- q2&#45;&gt;q10 -->
<g id="edge4" class="edge"><title>q2&#45;&gt;q10</title>
<path fill="none" stroke="black" d="M863.313,-103.42C869.618,-97.6493 877.703,-91.1577 886,-86.9318 922.789,-68.1951 936.75,-76.7366 976,-63.9318 979.173,-62.8966 982.471,-61.7182 985.718,-60.4948"/>
<polygon fill="black" stroke="black" points="987.109,-63.7087 995.131,-56.7876 984.544,-57.1956 987.109,-63.7087"/>
<text text-anchor="middle" x="931" y="-90.7318" font-family="Times,serif" font-size="14.00">finish_process</text>
</g>
<!-- q2&#45;&gt;q10 -->
<g id="edge7" class="edge"><title>q2&#45;&gt;q10</title>
<path fill="none" stroke="black" d="M854.197,-98.3661C858.324,-81.3757 867.328,-56.5445 886,-44.9318 915.958,-26.2996 958.225,-33.3256 985.119,-40.95"/>
<polygon fill="black" stroke="black" points="984.365,-44.3795 994.952,-43.9593 986.414,-37.6859 984.365,-44.3795"/>
<text text-anchor="middle" x="931" y="-48.7318" font-family="Times,serif" font-size="14.00">quantum_expire</text>
</g>
<!-- q2&#45;&gt;q10 -->
<g id="edge8" class="edge"><title>q2&#45;&gt;q10</title>
<path fill="none" stroke="black" d="M851.348,-97.6524C852.902,-74.0468 859.542,-33.7646 886,-14.9318 918.588,8.26421 939.045,0.375543 976,-14.9318 982.828,-17.7599 989.018,-22.6378 994.228,-27.8691"/>
<polygon fill="black" stroke="black" points="991.85,-30.4608 1001.12,-35.5888 997.072,-25.7985 991.85,-30.4608"/>
<text text-anchor="middle" x="931" y="-18.7318" font-family="Times,serif" font-size="14.00">block_process</text>
</g>
<!-- q3 -->
<g id="node5" class="node"><title>q3</title>
<ellipse fill="none" stroke="green" cx="732" cy="-115.932" rx="18" ry="18"/>
</g>
<!-- q3&#45;&gt;q2 -->
<g id="edge10" class="edge"><title>q3&#45;&gt;q2</title>
<path fill="none" stroke="green" d="M750.116,-115.932C768.964,-115.932 799.531,-115.932 821.696,-115.932"/>
<polygon fill="green" stroke="green" points="821.814,-119.432 831.814,-115.932 821.814,-112.432 821.814,-119.432"/>
<text text-anchor="middle" x="791" y="-119.732" font-family="Times,serif" font-size="14.00">new_list</text>
</g>
<!-- q4&#45;&gt;q3 -->
<g id="edge11" class="edge"><title>q4&#45;&gt;q3</title>
<path fill="none" stroke="green" d="M592.291,-115.932C619.232,-115.932 671.46,-115.932 703.577,-115.932"/>
<polygon fill="green" stroke="green" points="703.632,-119.432 713.632,-115.932 703.632,-112.432 703.632,-119.432"/>
<text text-anchor="middle" x="653" y="-119.732" font-family="Times,serif" font-size="14.00">init_prio_queue</text>
</g>
<!-- q6 -->
<g id="node7" class="node"><title>q6</title>
<ellipse fill="none" stroke="black" cx="1350" cy="-208.932" rx="18" ry="18"/>
</g>
<!-- q6&#45;&gt;q1 -->
<g id="edge13" class="edge"><title>q6&#45;&gt;q1</title>
<path fill="none" stroke="green" d="M1368.36,-209.527C1423.85,-211.43 1597.55,-217.385 1669.4,-219.848"/>
<polygon fill="green" stroke="green" points="1669.52,-223.354 1679.63,-220.199 1669.76,-216.358 1669.52,-223.354"/>
<text text-anchor="middle" x="1533" y="-219.732" font-family="Times,serif" font-size="14.00">Learn_Assert</text>
</g>
<!-- q6&#45;&gt;q9 -->
<g id="edge12" class="edge"><title>q6&#45;&gt;q9</title>
<path fill="none" stroke="black" d="M1366.36,-200.55C1372.36,-197.523 1379.38,-194.278 1386,-191.932 1407.68,-184.253 1469,-170.974 1504.9,-163.485"/>
<polygon fill="black" stroke="black" points="1506.07,-166.817 1515.16,-161.36 1504.65,-159.962 1506.07,-166.817"/>
<text text-anchor="middle" x="1432" y="-195.732" font-family="Times,serif" font-size="14.00">unblock_process</text>
</g>
<!-- q7 -->
<g id="node8" class="node"><title>q7</title>
<ellipse fill="none" stroke="black" cx="1167" cy="-208.932" rx="18" ry="18"/>
</g>
<!-- q7&#45;&gt;q6 -->
<g id="edge14" class="edge"><title>q7&#45;&gt;q6</title>
<path fill="none" stroke="black" d="M1185.03,-208.932C1216.43,-208.932 1283.69,-208.932 1321.58,-208.932"/>
<polygon fill="black" stroke="black" points="1321.89,-212.432 1331.89,-208.932 1321.89,-205.432 1321.89,-212.432"/>
<text text-anchor="middle" x="1277" y="-212.732" font-family="Times,serif" font-size="14.00">append_ele</text>
</g>
<!-- q8&#45;&gt;q7 -->
<g id="edge15" class="edge"><title>q8&#45;&gt;q7</title>
<path fill="none" stroke="black" d="M1030.25,-206.27C1056.54,-206.786 1106.87,-207.772 1138.31,-208.389"/>
<polygon fill="black" stroke="black" points="1138.51,-211.893 1148.57,-208.59 1138.65,-204.895 1138.51,-211.893"/>
<text text-anchor="middle" x="1071" y="-210.732" font-family="Times,serif" font-size="14.00">new_ele</text>
</g>
<!-- q9&#45;&gt;q1 -->
<g id="edge16" class="edge"><title>q9&#45;&gt;q1</title>
<path fill="none" stroke="green" d="M1550.87,-160.32C1576.05,-164.34 1624.52,-173.848 1662,-191.932 1667.03,-194.361 1672.08,-197.475 1676.78,-200.756"/>
<polygon fill="green" stroke="green" points="1674.71,-203.574 1684.82,-206.733 1678.88,-197.957 1674.71,-203.574"/>
<text text-anchor="middle" x="1625" y="-195.732" font-family="Times,serif" font-size="14.00">Learn_Assert</text>
</g>
<!-- q10&#45;&gt;q9 -->
<g id="edge17" class="edge"><title>q10&#45;&gt;q9</title>
<path fill="none" stroke="black" d="M1029.92,-47.1142C1093.34,-37.4164 1321.27,-10.3619 1478,-92.9318 1495.31,-102.049 1509.23,-119.301 1518.61,-133.74"/>
<polygon fill="black" stroke="black" points="1515.63,-135.58 1523.84,-142.27 1521.59,-131.917 1515.63,-135.58"/>
<text text-anchor="middle" x="1277" y="-46.7318" font-family="Times,serif" font-size="14.00">schedule</text>
</g>
<!-- iq0 -->
<g id="node12" class="node"><title>iq0</title>
</g>
<!-- iq0&#45;&gt;q0 -->
<g id="edge1" class="edge"><title>iq0&#45;&gt;q0</title>
<path fill="none" stroke="blue" d="M226.123,-115.932C274.246,-115.932 376.462,-115.932 425.557,-115.932"/>
<polygon fill="blue" stroke="blue" points="425.738,-119.432 435.738,-115.932 425.738,-112.432 425.738,-119.432"/>
</g>
</g>
</svg>
