<?xml version="1.0" encoding="UTF-8" standalone="no"?>
<!DOCTYPE svg PUBLIC "-//W3C//DTD SVG 1.1//EN"
 "http://www.w3.org/Graphics/SVG/1.1/DTD/svg11.dtd">
<!-- Generated by graphviz version 2.34.0 (20141125.1709)
 -->
<!-- Title: finite_automaton Pages: 1 -->
<svg width="576pt" height="98pt"
 viewBox="0.00 0.00 576.00 97.69" xmlns="http://www.w3.org/2000/svg" xmlns:xlink="http://www.w3.org/1999/xlink">
<g id="graph0" class="graph" transform="scale(0.372574 0.372574) rotate(0) translate(4 258.194)">
<title>finite_automaton</title>
<polygon fill="white" stroke="white" points="-4,4 -4,-258.194 1542,-258.194 1542,4 -4,4"/>
<!-- dom_edges -->
<g id="node1" class="node"><title>dom_edges</title>
<polygon fill="none" stroke="green" points="398,-89.1942 0,-89.1942 0,-53.1942 398,-53.1942 398,-89.1942"/>
<text text-anchor="middle" x="199" y="-67.4942" font-family="Times,serif" font-size="14.00">Dominating edges: new_list, init_prio_queue, initialize, Learn_Assert</text>
</g>
<!-- q1 -->
<g id="node2" class="node"><title>q1</title>
<ellipse fill="none" stroke="green" cx="1516" cy="-210.194" rx="18" ry="18"/>
<ellipse fill="none" stroke="green" cx="1516" cy="-210.194" rx="22" ry="22"/>
<text text-anchor="middle" x="1516" y="-206.494" font-family="Times,serif" font-size="14.00">D</text>
</g>
<!-- q0 -->
<g id="node3" class="node"><title>q0</title>
<ellipse fill="none" stroke="green" cx="454" cy="-125.194" rx="18" ry="18"/>
</g>
<!-- q5 -->
<g id="node7" class="node"><title>q5</title>
<ellipse fill="none" stroke="green" cx="574" cy="-125.194" rx="18" ry="18"/>
</g>
<!-- q0&#45;&gt;q5 -->
<g id="edge2" class="edge"><title>q0&#45;&gt;q5</title>
<path fill="none" stroke="green" d="M472.158,-125.194C491.472,-125.194 523.109,-125.194 545.799,-125.194"/>
<polygon fill="green" stroke="green" points="545.821,-128.694 555.821,-125.194 545.821,-121.694 545.821,-128.694"/>
<text text-anchor="middle" x="514" y="-128.994" font-family="Times,serif" font-size="14.00">initialize</text>
</g>
<!-- q2 -->
<g id="node4" class="node"><title>q2</title>
<ellipse fill="none" stroke="black" cx="1366" cy="-155.194" rx="18" ry="18"/>
</g>
<!-- q2&#45;&gt;q1 -->
<g id="edge3" class="edge"><title>q2&#45;&gt;q1</title>
<path fill="none" stroke="green" d="M1383.12,-161.185C1407.62,-170.29 1454.63,-187.758 1485.39,-199.192"/>
<polygon fill="green" stroke="green" points="1484.56,-202.614 1495.15,-202.817 1486.99,-196.052 1484.56,-202.614"/>
<text text-anchor="middle" x="1439" y="-198.994" font-family="Times,serif" font-size="14.00">Learn_Assert</text>
</g>
<!-- q3 -->
<g id="node5" class="node"><title>q3</title>
<ellipse fill="none" stroke="green" cx="850" cy="-125.194" rx="18" ry="18"/>
</g>
<!-- q3&#45;&gt;q1 -->
<g id="edge10" class="edge"><title>q3&#45;&gt;q1</title>
<path fill="none" stroke="green" d="M855.846,-142.23C861.004,-157.509 870.583,-179.562 886,-193.194 930.347,-232.408 951.802,-239.194 1011,-239.194 1011,-239.194 1011,-239.194 1367,-239.194 1408.46,-239.194 1455.25,-228.101 1484.91,-219.637"/>
<polygon fill="green" stroke="green" points="1486.05,-222.951 1494.66,-216.775 1484.08,-216.235 1486.05,-222.951"/>
<text text-anchor="middle" x="1213" y="-242.994" font-family="Times,serif" font-size="14.00">Learn_Assert</text>
</g>
<!-- q3&#45;&gt;q2 -->
<g id="edge6" class="edge"><title>q3&#45;&gt;q2</title>
<path fill="none" stroke="black" d="M859.004,-141.284C864.946,-151.3 874.079,-163.353 886,-169.194 974.603,-212.607 1233.22,-188.416 1330,-169.194 1333.27,-168.544 1336.63,-167.597 1339.91,-166.498"/>
<polygon fill="black" stroke="black" points="1341.26,-169.729 1349.35,-162.886 1338.76,-163.191 1341.26,-169.729"/>
<text text-anchor="middle" x="1103" y="-196.994" font-family="Times,serif" font-size="14.00">finish_all_processes</text>
</g>
<!-- q3&#45;&gt;q2 -->
<g id="edge7" class="edge"><title>q3&#45;&gt;q2</title>
<path fill="none" stroke="black" d="M866.265,-133.205C872.253,-135.952 879.288,-138.707 886,-140.194 1054.05,-177.437 1263.31,-164.282 1337.42,-157.863"/>
<polygon fill="black" stroke="black" points="1338.1,-161.316 1347.75,-156.935 1337.47,-154.344 1338.1,-161.316"/>
<text text-anchor="middle" x="1103" y="-168.994" font-family="Times,serif" font-size="14.00">unblock_process</text>
</g>
<!-- q8 -->
<g id="node9" class="node"><title>q8</title>
<ellipse fill="none" stroke="black" cx="1012" cy="-109.194" rx="18" ry="18"/>
</g>
<!-- q3&#45;&gt;q8 -->
<g id="edge4" class="edge"><title>q3&#45;&gt;q8</title>
<path fill="none" stroke="black" d="M868.123,-123.482C895.791,-120.715 950.565,-115.238 983.673,-111.927"/>
<polygon fill="black" stroke="black" points="984.398,-115.372 994,-110.894 983.702,-108.407 984.398,-115.372"/>
<text text-anchor="middle" x="931" y="-124.994" font-family="Times,serif" font-size="14.00">new_process</text>
</g>
<!-- q9 -->
<g id="node10" class="node"><title>q9</title>
<ellipse fill="none" stroke="black" cx="1012" cy="-51.1942" rx="18" ry="18"/>
</g>
<!-- q3&#45;&gt;q9 -->
<g id="edge5" class="edge"><title>q3&#45;&gt;q9</title>
<path fill="none" stroke="black" d="M862.569,-112.18C868.932,-105.697 877.289,-98.195 886,-93.1942 922.33,-72.338 936.522,-79.2063 976,-65.1942 979.145,-64.0778 982.427,-62.8505 985.665,-61.6009"/>
<polygon fill="black" stroke="black" points="987.064,-64.8115 995.071,-57.8736 984.485,-58.3038 987.064,-64.8115"/>
<text text-anchor="middle" x="931" y="-96.9942" font-family="Times,serif" font-size="14.00">finish_process</text>
</g>
<!-- q3&#45;&gt;q9 -->
<g id="edge8" class="edge"><title>q3&#45;&gt;q9</title>
<path fill="none" stroke="black" d="M853.259,-107.461C856.711,-88.6099 865.254,-59.6939 886,-46.1942 915.57,-26.9526 957.942,-34.1425 984.964,-41.9682"/>
<polygon fill="black" stroke="black" points="984.259,-45.4147 994.847,-45.0579 986.347,-38.7336 984.259,-45.4147"/>
<text text-anchor="middle" x="931" y="-49.9942" font-family="Times,serif" font-size="14.00">quantum_expire</text>
</g>
<!-- q3&#45;&gt;q9 -->
<g id="edge9" class="edge"><title>q3&#45;&gt;q9</title>
<path fill="none" stroke="black" d="M850.735,-107.073C851.469,-81.7114 857.043,-36.3681 886,-15.1942 918.289,8.41594 939.154,0.373019 976,-15.1942 982.906,-18.1117 989.121,-23.1317 994.331,-28.5124"/>
<polygon fill="black" stroke="black" points="992.015,-31.1843 1001.21,-36.4509 997.306,-26.6009 992.015,-31.1843"/>
<text text-anchor="middle" x="931" y="-18.9942" font-family="Times,serif" font-size="14.00">block_process</text>
</g>
<!-- q4 -->
<g id="node6" class="node"><title>q4</title>
<ellipse fill="none" stroke="green" cx="732" cy="-125.194" rx="18" ry="18"/>
</g>
<!-- q4&#45;&gt;q3 -->
<g id="edge11" class="edge"><title>q4&#45;&gt;q3</title>
<path fill="none" stroke="green" d="M750.116,-125.194C768.964,-125.194 799.531,-125.194 821.696,-125.194"/>
<polygon fill="green" stroke="green" points="821.814,-128.694 831.814,-125.194 821.814,-121.694 821.814,-128.694"/>
<text text-anchor="middle" x="791" y="-128.994" font-family="Times,serif" font-size="14.00">new_list</text>
</g>
<!-- q5&#45;&gt;q4 -->
<g id="edge12" class="edge"><title>q5&#45;&gt;q4</title>
<path fill="none" stroke="green" d="M592.291,-125.194C619.232,-125.194 671.46,-125.194 703.577,-125.194"/>
<polygon fill="green" stroke="green" points="703.632,-128.694 713.632,-125.194 703.632,-121.694 703.632,-128.694"/>
<text text-anchor="middle" x="653" y="-128.994" font-family="Times,serif" font-size="14.00">init_prio_queue</text>
</g>
<!-- q7 -->
<g id="node8" class="node"><title>q7</title>
<ellipse fill="none" stroke="black" cx="1213" cy="-109.194" rx="18" ry="18"/>
</g>
<!-- q7&#45;&gt;q2 -->
<g id="edge13" class="edge"><title>q7&#45;&gt;q2</title>
<path fill="none" stroke="black" d="M1231.32,-108.87C1254.72,-109.056 1297.27,-111.629 1330,-126.194 1335.32,-128.56 1340.48,-131.97 1345.12,-135.626"/>
<polygon fill="black" stroke="black" points="1343.01,-138.423 1352.87,-142.299 1347.58,-133.12 1343.01,-138.423"/>
<text text-anchor="middle" x="1299" y="-129.994" font-family="Times,serif" font-size="14.00">append_ele</text>
</g>
<!-- q8&#45;&gt;q7 -->
<g id="edge14" class="edge"><title>q8&#45;&gt;q7</title>
<path fill="none" stroke="black" d="M1030.31,-109.194C1064.95,-109.194 1143.01,-109.194 1184.64,-109.194"/>
<polygon fill="black" stroke="black" points="1184.87,-112.694 1194.87,-109.194 1184.87,-105.694 1184.87,-112.694"/>
<text text-anchor="middle" x="1103" y="-112.994" font-family="Times,serif" font-size="14.00">new_ele</text>
</g>
<!-- q9&#45;&gt;q2 -->
<g id="edge15" class="edge"><title>q9&#45;&gt;q2</title>
<path fill="none" stroke="black" d="M1030.03,-50.136C1069.48,-48.1568 1169.91,-45.8441 1250,-67.1942 1288.22,-77.3824 1299.8,-80.6491 1330,-106.194 1338.18,-113.109 1345.41,-122.334 1351.15,-130.914"/>
<polygon fill="black" stroke="black" points="1348.27,-132.909 1356.57,-139.498 1354.19,-129.173 1348.27,-132.909"/>
<text text-anchor="middle" x="1213" y="-70.9942" font-family="Times,serif" font-size="14.00">schedule</text>
</g>
<!-- iq0 -->
<g id="node11" class="node"><title>iq0</title>
</g>
<!-- iq0&#45;&gt;q0 -->
<g id="edge1" class="edge"><title>iq0&#45;&gt;q0</title>
<path fill="none" stroke="blue" d="M226.123,-125.194C274.246,-125.194 376.462,-125.194 425.557,-125.194"/>
<polygon fill="blue" stroke="blue" points="425.738,-128.694 435.738,-125.194 425.738,-121.694 425.738,-128.694"/>
</g>
</g>
</svg>
