<?xml version="1.0" encoding="UTF-8" standalone="no"?>
<!DOCTYPE svg PUBLIC "-//W3C//DTD SVG 1.1//EN"
 "http://www.w3.org/Graphics/SVG/1.1/DTD/svg11.dtd">
<!-- Generated by graphviz version 2.34.0 (20141125.1709)
 -->
<!-- Title: finite_automaton Pages: 1 -->
<svg width="576pt" height="57pt"
 viewBox="0.00 0.00 576.00 57.04" xmlns="http://www.w3.org/2000/svg" xmlns:xlink="http://www.w3.org/1999/xlink">
<g id="graph0" class="graph" transform="scale(0.559223 0.559223) rotate(0) translate(4 98)">
<title>finite_automaton</title>
<polygon fill="white" stroke="white" points="-4,4 -4,-98 1026,-98 1026,4 -4,4"/>
<!-- dom_edges -->
<g id="node1" class="node"><title>dom_edges</title>
<polygon fill="none" stroke="green" points="398,-36 0,-36 0,-0 398,-0 398,-36"/>
<text text-anchor="middle" x="199" y="-14.3" font-family="Times,serif" font-size="14.00">Dominating edges: new_list, init_prio_queue, initialize, Learn_Assert</text>
</g>
<!-- q1 -->
<g id="node2" class="node"><title>q1</title>
<ellipse fill="none" stroke="green" cx="1000" cy="-72" rx="18" ry="18"/>
<ellipse fill="none" stroke="green" cx="1000" cy="-72" rx="22" ry="22"/>
<text text-anchor="middle" x="1000" y="-68.3" font-family="Times,serif" font-size="14.00">D</text>
</g>
<!-- q0 -->
<g id="node3" class="node"><title>q0</title>
<ellipse fill="none" stroke="green" cx="454" cy="-72" rx="18" ry="18"/>
</g>
<!-- q4 -->
<g id="node6" class="node"><title>q4</title>
<ellipse fill="none" stroke="green" cx="574" cy="-72" rx="18" ry="18"/>
</g>
<!-- q0&#45;&gt;q4 -->
<g id="edge2" class="edge"><title>q0&#45;&gt;q4</title>
<path fill="none" stroke="green" d="M472.158,-72C491.472,-72 523.109,-72 545.799,-72"/>
<polygon fill="green" stroke="green" points="545.821,-75.5001 555.821,-72 545.821,-68.5001 545.821,-75.5001"/>
<text text-anchor="middle" x="514" y="-75.8" font-family="Times,serif" font-size="14.00">initialize</text>
</g>
<!-- q2 -->
<g id="node4" class="node"><title>q2</title>
<ellipse fill="none" stroke="green" cx="850" cy="-72" rx="18" ry="18"/>
</g>
<!-- q2&#45;&gt;q1 -->
<g id="edge3" class="edge"><title>q2&#45;&gt;q1</title>
<path fill="none" stroke="green" d="M868.267,-72C892.55,-72 937.201,-72 967.489,-72"/>
<polygon fill="green" stroke="green" points="967.546,-75.5001 977.546,-72 967.546,-68.5001 967.546,-75.5001"/>
<text text-anchor="middle" x="923" y="-75.8" font-family="Times,serif" font-size="14.00">Learn_Assert</text>
</g>
<!-- q3 -->
<g id="node5" class="node"><title>q3</title>
<ellipse fill="none" stroke="green" cx="732" cy="-72" rx="18" ry="18"/>
</g>
<!-- q3&#45;&gt;q2 -->
<g id="edge4" class="edge"><title>q3&#45;&gt;q2</title>
<path fill="none" stroke="green" d="M750.116,-72C768.964,-72 799.531,-72 821.696,-72"/>
<polygon fill="green" stroke="green" points="821.814,-75.5001 831.814,-72 821.814,-68.5001 821.814,-75.5001"/>
<text text-anchor="middle" x="791" y="-75.8" font-family="Times,serif" font-size="14.00">new_list</text>
</g>
<!-- q4&#45;&gt;q3 -->
<g id="edge5" class="edge"><title>q4&#45;&gt;q3</title>
<path fill="none" stroke="green" d="M592.291,-72C619.232,-72 671.46,-72 703.577,-72"/>
<polygon fill="green" stroke="green" points="703.632,-75.5001 713.632,-72 703.632,-68.5001 703.632,-75.5001"/>
<text text-anchor="middle" x="653" y="-75.8" font-family="Times,serif" font-size="14.00">init_prio_queue</text>
</g>
<!-- iq0 -->
<g id="node7" class="node"><title>iq0</title>
</g>
<!-- iq0&#45;&gt;q0 -->
<g id="edge1" class="edge"><title>iq0&#45;&gt;q0</title>
<path fill="none" stroke="blue" d="M226.123,-72C274.246,-72 376.462,-72 425.557,-72"/>
<polygon fill="blue" stroke="blue" points="425.738,-75.5001 435.738,-72 425.738,-68.5001 425.738,-75.5001"/>
</g>
</g>
</svg>
