<?xml version="1.0" encoding="UTF-8" standalone="no"?>
<!DOCTYPE svg PUBLIC "-//W3C//DTD SVG 1.1//EN"
 "http://www.w3.org/Graphics/SVG/1.1/DTD/svg11.dtd">
<!-- Generated by graphviz version 2.34.0 (20141125.1709)
 -->
<!-- Title: finite_automaton Pages: 1 -->
<svg width="576pt" height="23pt"
 viewBox="0.00 0.00 576.00 23.01" xmlns="http://www.w3.org/2000/svg" xmlns:xlink="http://www.w3.org/1999/xlink">
<g id="graph0" class="graph" transform="scale(0.182625 0.182625) rotate(0) translate(4 122)">
<title>finite_automaton</title>
<polygon fill="white" stroke="white" points="-4,4 -4,-122 3150,-122 3150,4 -4,4"/>
<!-- dom_edges -->
<g id="node1" class="node"><title>dom_edges</title>
<polygon fill="none" stroke="green" points="764,-64 0,-64 0,-28 764,-28 764,-64"/>
<text text-anchor="middle" x="382" y="-42.3" font-family="Times,serif" font-size="14.00">Dominating edges: chain_node, create_sll, init_back_link, reverse_dll, remove_fw_link, check_seq_next, check_seq_prev, Learn_Assert</text>
</g>
<!-- q1 -->
<g id="node2" class="node"><title>q1</title>
<ellipse fill="none" stroke="green" cx="3124" cy="-72" rx="18" ry="18"/>
<ellipse fill="none" stroke="green" cx="3124" cy="-72" rx="22" ry="22"/>
<text text-anchor="middle" x="3124" y="-68.3" font-family="Times,serif" font-size="14.00">D</text>
</g>
<!-- q0 -->
<g id="node3" class="node"><title>q0</title>
<ellipse fill="none" stroke="green" cx="820" cy="-100" rx="18" ry="18"/>
</g>
<!-- q14 -->
<g id="node16" class="node"><title>q14</title>
<ellipse fill="none" stroke="green" cx="944" cy="-100" rx="18" ry="18"/>
</g>
<!-- q0&#45;&gt;q14 -->
<g id="edge2" class="edge"><title>q0&#45;&gt;q14</title>
<path fill="none" stroke="green" d="M838.221,-100C858.384,-100 892.036,-100 915.753,-100"/>
<polygon fill="green" stroke="green" points="915.867,-103.5 925.867,-100 915.867,-96.5001 915.867,-103.5"/>
<text text-anchor="middle" x="882" y="-103.8" font-family="Times,serif" font-size="14.00">create_sll</text>
</g>
<!-- q2 -->
<g id="node4" class="node"><title>q2</title>
<ellipse fill="none" stroke="green" cx="2974" cy="-72" rx="18" ry="18"/>
</g>
<!-- q2&#45;&gt;q1 -->
<g id="edge3" class="edge"><title>q2&#45;&gt;q1</title>
<path fill="none" stroke="green" d="M2992.27,-72C3016.55,-72 3061.2,-72 3091.49,-72"/>
<polygon fill="green" stroke="green" points="3091.55,-75.5001 3101.55,-72 3091.55,-68.5001 3091.55,-75.5001"/>
<text text-anchor="middle" x="3047" y="-75.8" font-family="Times,serif" font-size="14.00">Learn_Assert</text>
</g>
<!-- q3 -->
<g id="node5" class="node"><title>q3</title>
<ellipse fill="none" stroke="green" cx="2814" cy="-72" rx="18" ry="18"/>
</g>
<!-- q3&#45;&gt;q2 -->
<g id="edge4" class="edge"><title>q3&#45;&gt;q2</title>
<path fill="none" stroke="green" d="M2832.21,-72C2859.52,-72 2913.01,-72 2945.62,-72"/>
<polygon fill="green" stroke="green" points="2945.81,-75.5001 2955.81,-72 2945.81,-68.5001 2945.81,-75.5001"/>
<text text-anchor="middle" x="2894" y="-75.8" font-family="Times,serif" font-size="14.00">check_seq_prev</text>
</g>
<!-- q4 -->
<g id="node6" class="node"><title>q4</title>
<ellipse fill="none" stroke="green" cx="2650" cy="-72" rx="18" ry="18"/>
</g>
<!-- q4&#45;&gt;q3 -->
<g id="edge5" class="edge"><title>q4&#45;&gt;q3</title>
<path fill="none" stroke="green" d="M2668.03,-72C2696.03,-72 2752.04,-72 2785.65,-72"/>
<polygon fill="green" stroke="green" points="2785.71,-75.5001 2795.71,-72 2785.71,-68.5001 2785.71,-75.5001"/>
<text text-anchor="middle" x="2732" y="-75.8" font-family="Times,serif" font-size="14.00">remove_fw_link</text>
</g>
<!-- q5 -->
<g id="node7" class="node"><title>q5</title>
<ellipse fill="none" stroke="green" cx="2490" cy="-72" rx="18" ry="18"/>
</g>
<!-- q5&#45;&gt;q4 -->
<g id="edge6" class="edge"><title>q5&#45;&gt;q4</title>
<path fill="none" stroke="green" d="M2508.21,-72C2535.52,-72 2589.01,-72 2621.62,-72"/>
<polygon fill="green" stroke="green" points="2621.81,-75.5001 2631.81,-72 2621.81,-68.5001 2621.81,-75.5001"/>
<text text-anchor="middle" x="2570" y="-75.8" font-family="Times,serif" font-size="14.00">check_seq_next</text>
</g>
<!-- q6 -->
<g id="node8" class="node"><title>q6</title>
<ellipse fill="none" stroke="green" cx="2330" cy="-72" rx="18" ry="18"/>
</g>
<!-- q6&#45;&gt;q5 -->
<g id="edge7" class="edge"><title>q6&#45;&gt;q5</title>
<path fill="none" stroke="green" d="M2348.21,-72C2375.52,-72 2429.01,-72 2461.62,-72"/>
<polygon fill="green" stroke="green" points="2461.81,-75.5001 2471.81,-72 2461.81,-68.5001 2461.81,-75.5001"/>
<text text-anchor="middle" x="2410" y="-75.8" font-family="Times,serif" font-size="14.00">check_seq_prev</text>
</g>
<!-- q7 -->
<g id="node9" class="node"><title>q7</title>
<ellipse fill="none" stroke="green" cx="2196" cy="-72" rx="18" ry="18"/>
</g>
<!-- q7&#45;&gt;q6 -->
<g id="edge8" class="edge"><title>q7&#45;&gt;q6</title>
<path fill="none" stroke="green" d="M2214.26,-72C2236.49,-72 2275.4,-72 2301.68,-72"/>
<polygon fill="green" stroke="green" points="2301.74,-75.5001 2311.74,-72 2301.74,-68.5001 2301.74,-75.5001"/>
<text text-anchor="middle" x="2263" y="-75.8" font-family="Times,serif" font-size="14.00">reverse_dll</text>
</g>
<!-- q8 -->
<g id="node10" class="node"><title>q8</title>
<ellipse fill="none" stroke="green" cx="2036" cy="-72" rx="18" ry="18"/>
</g>
<!-- q8&#45;&gt;q7 -->
<g id="edge9" class="edge"><title>q8&#45;&gt;q7</title>
<path fill="none" stroke="green" d="M2054.21,-72C2081.52,-72 2135.01,-72 2167.62,-72"/>
<polygon fill="green" stroke="green" points="2167.81,-75.5001 2177.81,-72 2167.81,-68.5001 2167.81,-75.5001"/>
<text text-anchor="middle" x="2116" y="-75.8" font-family="Times,serif" font-size="14.00">check_seq_prev</text>
</g>
<!-- q9 -->
<g id="node11" class="node"><title>q9</title>
<ellipse fill="none" stroke="green" cx="1876" cy="-72" rx="18" ry="18"/>
</g>
<!-- q9&#45;&gt;q8 -->
<g id="edge10" class="edge"><title>q9&#45;&gt;q8</title>
<path fill="none" stroke="green" d="M1894.21,-72C1921.52,-72 1975.01,-72 2007.62,-72"/>
<polygon fill="green" stroke="green" points="2007.81,-75.5001 2017.81,-72 2007.81,-68.5001 2007.81,-75.5001"/>
<text text-anchor="middle" x="1956" y="-75.8" font-family="Times,serif" font-size="14.00">check_seq_next</text>
</g>
<!-- q10 -->
<g id="node12" class="node"><title>q10</title>
<ellipse fill="none" stroke="green" cx="1724" cy="-72" rx="18" ry="18"/>
</g>
<!-- q10&#45;&gt;q9 -->
<g id="edge11" class="edge"><title>q10&#45;&gt;q9</title>
<path fill="none" stroke="green" d="M1742.21,-72C1768.09,-72 1817.27,-72 1847.97,-72"/>
<polygon fill="green" stroke="green" points="1847.99,-75.5001 1857.99,-72 1847.99,-68.5001 1847.99,-75.5001"/>
<text text-anchor="middle" x="1800" y="-75.8" font-family="Times,serif" font-size="14.00">init_back_link</text>
</g>
<!-- q11 -->
<g id="node13" class="node"><title>q11</title>
<ellipse fill="none" stroke="black" cx="1352" cy="-69" rx="18" ry="18"/>
</g>
<!-- q11&#45;&gt;q10 -->
<g id="edge13" class="edge"><title>q11&#45;&gt;q10</title>
<path fill="none" stroke="green" d="M1370.35,-69.1407C1429.46,-69.62 1623.34,-71.1919 1695.56,-71.7775"/>
<polygon fill="green" stroke="green" points="1695.66,-75.2783 1705.69,-71.8596 1695.72,-68.2786 1695.66,-75.2783"/>
<text text-anchor="middle" x="1538" y="-73.8" font-family="Times,serif" font-size="14.00">check_seq_next</text>
</g>
<!-- q15 -->
<g id="node17" class="node"><title>q15</title>
<ellipse fill="none" stroke="black" cx="1538" cy="-18" rx="18" ry="18"/>
</g>
<!-- q11&#45;&gt;q15 -->
<g id="edge12" class="edge"><title>q11&#45;&gt;q15</title>
<path fill="none" stroke="green" d="M1365.71,-57.2638C1371.98,-52.1011 1379.92,-46.4402 1388,-43 1427.98,-25.9764 1478.61,-20.5162 1509.36,-18.7826"/>
<polygon fill="green" stroke="green" points="1509.91,-22.2608 1519.74,-18.298 1509.59,-15.2684 1509.91,-22.2608"/>
<text text-anchor="middle" x="1432" y="-46.8" font-family="Times,serif" font-size="14.00">chain_node</text>
</g>
<!-- q12 -->
<g id="node14" class="node"><title>q12</title>
<ellipse fill="none" stroke="green" cx="1216" cy="-100" rx="18" ry="18"/>
</g>
<!-- q12&#45;&gt;q10 -->
<g id="edge15" class="edge"><title>q12&#45;&gt;q10</title>
<path fill="none" stroke="green" d="M1234.09,-100.586C1239.78,-100.755 1246.16,-100.917 1252,-101 1280.44,-101.406 1287.56,-101.611 1316,-101 1481.45,-97.4436 1525.79,-117.765 1688,-85 1691.24,-84.3455 1694.58,-83.4358 1697.85,-82.3986"/>
<polygon fill="green" stroke="green" points="1699.04,-85.6907 1707.28,-79.0321 1696.68,-79.0982 1699.04,-85.6907"/>
<text text-anchor="middle" x="1432" y="-106.8" font-family="Times,serif" font-size="14.00">check_seq_next</text>
</g>
<!-- q12&#45;&gt;q11 -->
<g id="edge14" class="edge"><title>q12&#45;&gt;q11</title>
<path fill="none" stroke="green" d="M1232.78,-92.8664C1238.71,-90.4056 1245.58,-87.8145 1252,-86 1275.9,-79.2496 1303.84,-74.7488 1323.94,-72.0837"/>
<polygon fill="green" stroke="green" points="1324.46,-75.5459 1333.94,-70.8223 1323.58,-68.6009 1324.46,-75.5459"/>
<text text-anchor="middle" x="1284" y="-89.8" font-family="Times,serif" font-size="14.00">chain_node</text>
</g>
<!-- q13 -->
<g id="node15" class="node"><title>q13</title>
<ellipse fill="none" stroke="green" cx="1080" cy="-100" rx="18" ry="18"/>
</g>
<!-- q13&#45;&gt;q12 -->
<g id="edge16" class="edge"><title>q13&#45;&gt;q12</title>
<path fill="none" stroke="green" d="M1098.24,-100C1120.86,-100 1160.8,-100 1187.58,-100"/>
<polygon fill="green" stroke="green" points="1187.82,-103.5 1197.82,-100 1187.82,-96.5001 1187.82,-103.5"/>
<text text-anchor="middle" x="1148" y="-103.8" font-family="Times,serif" font-size="14.00">chain_node</text>
</g>
<!-- q14&#45;&gt;q13 -->
<g id="edge17" class="edge"><title>q14&#45;&gt;q13</title>
<path fill="none" stroke="green" d="M962.244,-100C984.858,-100 1024.8,-100 1051.58,-100"/>
<polygon fill="green" stroke="green" points="1051.82,-103.5 1061.82,-100 1051.82,-96.5001 1051.82,-103.5"/>
<text text-anchor="middle" x="1012" y="-103.8" font-family="Times,serif" font-size="14.00">chain_node</text>
</g>
<!-- q15&#45;&gt;q10 -->
<g id="edge18" class="edge"><title>q15&#45;&gt;q10</title>
<path fill="none" stroke="green" d="M1556.38,-18.0327C1585.08,-18.7027 1643.64,-22.7029 1688,-43 1693.29,-45.4212 1698.44,-48.8542 1703.09,-52.5151"/>
<polygon fill="green" stroke="green" points="1700.97,-55.3123 1710.84,-59.1814 1705.54,-50.0061 1700.97,-55.3123"/>
<text text-anchor="middle" x="1644" y="-46.8" font-family="Times,serif" font-size="14.00">check_seq_next</text>
</g>
<!-- iq0 -->
<g id="node18" class="node"><title>iq0</title>
</g>
<!-- iq0&#45;&gt;q0 -->
<g id="edge1" class="edge"><title>iq0&#45;&gt;q0</title>
<path fill="none" stroke="blue" d="M409.292,-100C486.661,-100 713.031,-100 791.69,-100"/>
<polygon fill="blue" stroke="blue" points="791.778,-103.5 801.778,-100 791.778,-96.5001 791.778,-103.5"/>
</g>
</g>
</svg>
