<?xml version="1.0" encoding="UTF-8" standalone="no"?>
<!DOCTYPE svg PUBLIC "-//W3C//DTD SVG 1.1//EN"
 "http://www.w3.org/Graphics/SVG/1.1/DTD/svg11.dtd">
<!-- Generated by graphviz version 2.34.0 (20141125.1709)
 -->
<!-- Title: finite_automaton Pages: 1 -->
<svg width="576pt" height="19pt"
 viewBox="0.00 0.00 576.00 19.43" xmlns="http://www.w3.org/2000/svg" xmlns:xlink="http://www.w3.org/1999/xlink">
<g id="graph0" class="graph" transform="scale(0.192385 0.192385) rotate(0) translate(4 97)">
<title>finite_automaton</title>
<polygon fill="white" stroke="white" points="-4,4 -4,-97 2990,-97 2990,4 -4,4"/>
<!-- dom_edges -->
<g id="node1" class="node"><title>dom_edges</title>
<polygon fill="none" stroke="green" points="764,-36 0,-36 0,-0 764,-0 764,-36"/>
<text text-anchor="middle" x="382" y="-14.3" font-family="Times,serif" font-size="14.00">Dominating edges: chain_node, create_sll, init_back_link, reverse_dll, remove_fw_link, check_seq_next, check_seq_prev, Learn_Assert</text>
</g>
<!-- q1 -->
<g id="node2" class="node"><title>q1</title>
<ellipse fill="none" stroke="green" cx="2964" cy="-66" rx="18" ry="18"/>
<ellipse fill="none" stroke="green" cx="2964" cy="-66" rx="22" ry="22"/>
<text text-anchor="middle" x="2964" y="-62.3" font-family="Times,serif" font-size="14.00">D</text>
</g>
<!-- q0 -->
<g id="node3" class="node"><title>q0</title>
<ellipse fill="none" stroke="green" cx="820" cy="-72" rx="18" ry="18"/>
</g>
<!-- q14 -->
<g id="node16" class="node"><title>q14</title>
<ellipse fill="none" stroke="green" cx="944" cy="-72" rx="18" ry="18"/>
</g>
<!-- q0&#45;&gt;q14 -->
<g id="edge2" class="edge"><title>q0&#45;&gt;q14</title>
<path fill="none" stroke="green" d="M838.221,-72C858.384,-72 892.036,-72 915.753,-72"/>
<polygon fill="green" stroke="green" points="915.867,-75.5001 925.867,-72 915.867,-68.5001 915.867,-75.5001"/>
<text text-anchor="middle" x="882" y="-75.8" font-family="Times,serif" font-size="14.00">create_sll</text>
</g>
<!-- q2 -->
<g id="node4" class="node"><title>q2</title>
<ellipse fill="none" stroke="green" cx="2814" cy="-66" rx="18" ry="18"/>
</g>
<!-- q2&#45;&gt;q1 -->
<g id="edge3" class="edge"><title>q2&#45;&gt;q1</title>
<path fill="none" stroke="green" d="M2832.27,-66C2856.55,-66 2901.2,-66 2931.49,-66"/>
<polygon fill="green" stroke="green" points="2931.55,-69.5001 2941.55,-66 2931.55,-62.5001 2931.55,-69.5001"/>
<text text-anchor="middle" x="2887" y="-69.8" font-family="Times,serif" font-size="14.00">Learn_Assert</text>
</g>
<!-- q3 -->
<g id="node5" class="node"><title>q3</title>
<ellipse fill="none" stroke="green" cx="2654" cy="-66" rx="18" ry="18"/>
</g>
<!-- q3&#45;&gt;q2 -->
<g id="edge4" class="edge"><title>q3&#45;&gt;q2</title>
<path fill="none" stroke="green" d="M2672.21,-66C2699.52,-66 2753.01,-66 2785.62,-66"/>
<polygon fill="green" stroke="green" points="2785.81,-69.5001 2795.81,-66 2785.81,-62.5001 2785.81,-69.5001"/>
<text text-anchor="middle" x="2734" y="-69.8" font-family="Times,serif" font-size="14.00">check_seq_prev</text>
</g>
<!-- q4 -->
<g id="node6" class="node"><title>q4</title>
<ellipse fill="none" stroke="green" cx="2490" cy="-66" rx="18" ry="18"/>
</g>
<!-- q4&#45;&gt;q3 -->
<g id="edge5" class="edge"><title>q4&#45;&gt;q3</title>
<path fill="none" stroke="green" d="M2508.03,-66C2536.03,-66 2592.04,-66 2625.65,-66"/>
<polygon fill="green" stroke="green" points="2625.71,-69.5001 2635.71,-66 2625.71,-62.5001 2625.71,-69.5001"/>
<text text-anchor="middle" x="2572" y="-69.8" font-family="Times,serif" font-size="14.00">remove_fw_link</text>
</g>
<!-- q5 -->
<g id="node7" class="node"><title>q5</title>
<ellipse fill="none" stroke="green" cx="2330" cy="-66" rx="18" ry="18"/>
</g>
<!-- q5&#45;&gt;q4 -->
<g id="edge6" class="edge"><title>q5&#45;&gt;q4</title>
<path fill="none" stroke="green" d="M2348.21,-66C2375.52,-66 2429.01,-66 2461.62,-66"/>
<polygon fill="green" stroke="green" points="2461.81,-69.5001 2471.81,-66 2461.81,-62.5001 2461.81,-69.5001"/>
<text text-anchor="middle" x="2410" y="-69.8" font-family="Times,serif" font-size="14.00">check_seq_next</text>
</g>
<!-- q6 -->
<g id="node8" class="node"><title>q6</title>
<ellipse fill="none" stroke="green" cx="2170" cy="-66" rx="18" ry="18"/>
</g>
<!-- q6&#45;&gt;q5 -->
<g id="edge7" class="edge"><title>q6&#45;&gt;q5</title>
<path fill="none" stroke="green" d="M2188.21,-66C2215.52,-66 2269.01,-66 2301.62,-66"/>
<polygon fill="green" stroke="green" points="2301.81,-69.5001 2311.81,-66 2301.81,-62.5001 2301.81,-69.5001"/>
<text text-anchor="middle" x="2250" y="-69.8" font-family="Times,serif" font-size="14.00">check_seq_prev</text>
</g>
<!-- q7 -->
<g id="node9" class="node"><title>q7</title>
<ellipse fill="none" stroke="green" cx="2036" cy="-66" rx="18" ry="18"/>
</g>
<!-- q7&#45;&gt;q6 -->
<g id="edge8" class="edge"><title>q7&#45;&gt;q6</title>
<path fill="none" stroke="green" d="M2054.26,-66C2076.49,-66 2115.4,-66 2141.68,-66"/>
<polygon fill="green" stroke="green" points="2141.74,-69.5001 2151.74,-66 2141.74,-62.5001 2141.74,-69.5001"/>
<text text-anchor="middle" x="2103" y="-69.8" font-family="Times,serif" font-size="14.00">reverse_dll</text>
</g>
<!-- q8 -->
<g id="node10" class="node"><title>q8</title>
<ellipse fill="none" stroke="green" cx="1876" cy="-66" rx="18" ry="18"/>
</g>
<!-- q8&#45;&gt;q7 -->
<g id="edge9" class="edge"><title>q8&#45;&gt;q7</title>
<path fill="none" stroke="green" d="M1894.21,-66C1921.52,-66 1975.01,-66 2007.62,-66"/>
<polygon fill="green" stroke="green" points="2007.81,-69.5001 2017.81,-66 2007.81,-62.5001 2007.81,-69.5001"/>
<text text-anchor="middle" x="1956" y="-69.8" font-family="Times,serif" font-size="14.00">check_seq_prev</text>
</g>
<!-- q9 -->
<g id="node11" class="node"><title>q9</title>
<ellipse fill="none" stroke="green" cx="1716" cy="-66" rx="18" ry="18"/>
</g>
<!-- q9&#45;&gt;q8 -->
<g id="edge10" class="edge"><title>q9&#45;&gt;q8</title>
<path fill="none" stroke="green" d="M1734.21,-66C1761.52,-66 1815.01,-66 1847.62,-66"/>
<polygon fill="green" stroke="green" points="1847.81,-69.5001 1857.81,-66 1847.81,-62.5001 1847.81,-69.5001"/>
<text text-anchor="middle" x="1796" y="-69.8" font-family="Times,serif" font-size="14.00">check_seq_next</text>
</g>
<!-- q10 -->
<g id="node12" class="node"><title>q10</title>
<ellipse fill="none" stroke="green" cx="1564" cy="-66" rx="18" ry="18"/>
</g>
<!-- q10&#45;&gt;q9 -->
<g id="edge11" class="edge"><title>q10&#45;&gt;q9</title>
<path fill="none" stroke="green" d="M1582.21,-66C1608.09,-66 1657.27,-66 1687.97,-66"/>
<polygon fill="green" stroke="green" points="1687.99,-69.5001 1697.99,-66 1687.99,-62.5001 1687.99,-69.5001"/>
<text text-anchor="middle" x="1640" y="-69.8" font-family="Times,serif" font-size="14.00">init_back_link</text>
</g>
<!-- q11 -->
<g id="node13" class="node"><title>q11</title>
<ellipse fill="none" stroke="black" cx="1378" cy="-33" rx="18" ry="18"/>
</g>
<!-- q11&#45;&gt;q10 -->
<g id="edge12" class="edge"><title>q11&#45;&gt;q10</title>
<path fill="none" stroke="green" d="M1396.04,-35.5274C1423.78,-39.7162 1480.4,-48.5749 1528,-58 1530.72,-58.5376 1533.54,-59.1294 1536.36,-59.7405"/>
<polygon fill="green" stroke="green" points="1535.78,-63.1985 1546.31,-61.9753 1537.32,-56.3687 1535.78,-63.1985"/>
<text text-anchor="middle" x="1484" y="-61.8" font-family="Times,serif" font-size="14.00">check_seq_next</text>
</g>
<!-- q12 -->
<g id="node14" class="node"><title>q12</title>
<ellipse fill="none" stroke="green" cx="1216" cy="-72" rx="18" ry="18"/>
</g>
<!-- q12&#45;&gt;q10 -->
<g id="edge14" class="edge"><title>q12&#45;&gt;q10</title>
<path fill="none" stroke="green" d="M1234.25,-73.2828C1281.43,-76.5261 1416.51,-84.0398 1528,-73 1530.74,-72.7289 1533.58,-72.3411 1536.41,-71.8855"/>
<polygon fill="green" stroke="green" points="1537.18,-75.3017 1546.37,-70.0241 1535.89,-68.4208 1537.18,-75.3017"/>
<text text-anchor="middle" x="1378" y="-81.8" font-family="Times,serif" font-size="14.00">check_seq_next</text>
</g>
<!-- q12&#45;&gt;q11 -->
<g id="edge13" class="edge"><title>q12&#45;&gt;q11</title>
<path fill="none" stroke="green" d="M1232.81,-64.9615C1238.75,-62.511 1245.6,-59.9021 1252,-58 1285.04,-48.1781 1324.15,-41.0537 1349.71,-36.9801"/>
<polygon fill="green" stroke="green" points="1350.43,-40.4103 1359.77,-35.4221 1349.36,-33.4926 1350.43,-40.4103"/>
<text text-anchor="middle" x="1284" y="-61.8" font-family="Times,serif" font-size="14.00">chain_node</text>
</g>
<!-- q13 -->
<g id="node15" class="node"><title>q13</title>
<ellipse fill="none" stroke="green" cx="1080" cy="-72" rx="18" ry="18"/>
</g>
<!-- q13&#45;&gt;q12 -->
<g id="edge15" class="edge"><title>q13&#45;&gt;q12</title>
<path fill="none" stroke="green" d="M1098.24,-72C1120.86,-72 1160.8,-72 1187.58,-72"/>
<polygon fill="green" stroke="green" points="1187.82,-75.5001 1197.82,-72 1187.82,-68.5001 1187.82,-75.5001"/>
<text text-anchor="middle" x="1148" y="-75.8" font-family="Times,serif" font-size="14.00">chain_node</text>
</g>
<!-- q14&#45;&gt;q13 -->
<g id="edge16" class="edge"><title>q14&#45;&gt;q13</title>
<path fill="none" stroke="green" d="M962.244,-72C984.858,-72 1024.8,-72 1051.58,-72"/>
<polygon fill="green" stroke="green" points="1051.82,-75.5001 1061.82,-72 1051.82,-68.5001 1051.82,-75.5001"/>
<text text-anchor="middle" x="1012" y="-75.8" font-family="Times,serif" font-size="14.00">chain_node</text>
</g>
<!-- iq0 -->
<g id="node17" class="node"><title>iq0</title>
</g>
<!-- iq0&#45;&gt;q0 -->
<g id="edge1" class="edge"><title>iq0&#45;&gt;q0</title>
<path fill="none" stroke="blue" d="M409.292,-72C486.661,-72 713.031,-72 791.69,-72"/>
<polygon fill="blue" stroke="blue" points="791.778,-75.5001 801.778,-72 791.778,-68.5001 791.778,-75.5001"/>
</g>
</g>
</svg>
