<?xml version="1.0" encoding="UTF-8" standalone="no"?>
<!DOCTYPE svg PUBLIC "-//W3C//DTD SVG 1.1//EN"
 "http://www.w3.org/Graphics/SVG/1.1/DTD/svg11.dtd">
<!-- Generated by graphviz version 2.34.0 (20141125.1709)
 -->
<!-- Title: finite_automaton Pages: 1 -->
<svg width="234pt" height="362pt"
 viewBox="0.00 0.00 233.50 362.00" xmlns="http://www.w3.org/2000/svg" xmlns:xlink="http://www.w3.org/1999/xlink">
<g id="graph0" class="graph" transform="scale(1 1) rotate(0) translate(4 358)">
<title>finite_automaton</title>
<polygon fill="white" stroke="white" points="-4,4 -4,-358 229.5,-358 229.5,4 -4,4"/>
<!-- dom_edges -->
<g id="node1" class="node"><title>dom_edges</title>
<polygon fill="none" stroke="green" points="124,-36 0,-36 0,-0 124,-0 124,-36"/>
<text text-anchor="middle" x="62" y="-14.3" font-family="Times,serif" font-size="14.00">Dominating edges: </text>
</g>
<!-- q0 -->
<g id="node2" class="node"><title>q0</title>
<ellipse fill="none" stroke="green" cx="180" cy="-72" rx="18" ry="18"/>
<text text-anchor="middle" x="180" y="-68.3" font-family="Times,serif" font-size="14.00">D</text>
</g>
<!-- q0&#45;&gt;q0 -->
<g id="edge2" class="edge"><title>q0&#45;&gt;q0</title>
<path fill="none" stroke="black" d="M178.553,-90.1527C178.33,-99.5391 178.812,-108 180,-108 180.724,-108 181.185,-104.858 181.385,-100.28"/>
<polygon fill="black" stroke="black" points="184.886,-100.174 181.447,-90.1527 177.886,-100.131 184.886,-100.174"/>
<text text-anchor="middle" x="180" y="-111.8" font-family="Times,serif" font-size="14.00">chain_node</text>
</g>
<!-- q0&#45;&gt;q0 -->
<g id="edge3" class="edge"><title>q0&#45;&gt;q0</title>
<path fill="none" stroke="black" d="M177.595,-89.9782C176.308,-107.2 177.109,-126 180,-126 182.326,-126 183.299,-113.826 182.92,-100.098"/>
<polygon fill="black" stroke="black" points="186.409,-99.7873 182.405,-89.9782 179.418,-100.143 186.409,-99.7873"/>
<text text-anchor="middle" x="180" y="-129.8" font-family="Times,serif" font-size="14.00">create_sll</text>
</g>
<!-- q0&#45;&gt;q0 -->
<g id="edge4" class="edge"><title>q0&#45;&gt;q0</title>
<path fill="none" stroke="black" d="M176.964,-90.0781C174.277,-114.409 175.289,-144 180,-144 184.067,-144 185.377,-121.947 183.931,-100.264"/>
<polygon fill="black" stroke="black" points="187.398,-99.7335 183.036,-90.0781 180.425,-100.346 187.398,-99.7335"/>
<text text-anchor="middle" x="180" y="-147.8" font-family="Times,serif" font-size="14.00">init_back_link</text>
</g>
<!-- q0&#45;&gt;q0 -->
<g id="edge5" class="edge"><title>q0&#45;&gt;q0</title>
<path fill="none" stroke="black" d="M176.523,-90.1124C172.247,-121.24 173.406,-162 180,-162 185.898,-162 187.448,-129.384 184.649,-100.224"/>
<polygon fill="black" stroke="black" points="188.105,-99.6431 183.477,-90.1124 181.151,-100.449 188.105,-99.6431"/>
<text text-anchor="middle" x="180" y="-165.8" font-family="Times,serif" font-size="14.00">reverse_dll</text>
</g>
<!-- q0&#45;&gt;q0 -->
<g id="edge6" class="edge"><title>q0&#45;&gt;q0</title>
<path fill="none" stroke="black" d="M176.249,-89.7983C170.215,-127.549 171.465,-180 180,-180 187.802,-180 189.517,-136.176 185.145,-99.8139"/>
<polygon fill="black" stroke="black" points="188.596,-99.2201 183.751,-89.7983 181.663,-100.185 188.596,-99.2201"/>
<text text-anchor="middle" x="180" y="-183.8" font-family="Times,serif" font-size="14.00">remove_fw_link</text>
</g>
<!-- q0&#45;&gt;q0 -->
<g id="edge7" class="edge"><title>q0&#45;&gt;q0</title>
<path fill="none" stroke="black" d="M176.01,-89.769C168.193,-133.974 169.523,-198 180,-198 189.699,-198 191.559,-143.125 185.579,-99.9049"/>
<polygon fill="black" stroke="black" points="188.997,-99.1062 183.99,-89.769 182.081,-100.191 188.997,-99.1062"/>
<text text-anchor="middle" x="180" y="-201.8" font-family="Times,serif" font-size="14.00">check_seq_next</text>
</g>
<!-- q0&#45;&gt;q0 -->
<g id="edge8" class="edge"><title>q0&#45;&gt;q0</title>
<path fill="none" stroke="black" d="M175.845,-89.6173C166.174,-140.185 167.559,-216 180,-216 191.64,-216 193.602,-149.643 185.887,-99.6826"/>
<polygon fill="black" stroke="black" points="189.301,-98.8788 184.155,-89.6173 182.402,-100.066 189.301,-98.8788"/>
<text text-anchor="middle" x="180" y="-219.8" font-family="Times,serif" font-size="14.00">check_seq_prev</text>
</g>
<!-- q0&#45;&gt;q0 -->
<g id="edge9" class="edge"><title>q0&#45;&gt;q0</title>
<path fill="none" stroke="black" d="M175.695,-89.584C164.159,-146.444 165.594,-234 180,-234 193.59,-234 195.637,-156.082 186.14,-99.5197"/>
<polygon fill="black" stroke="black" points="189.563,-98.7818 184.305,-89.584 182.68,-100.053 189.563,-98.7818"/>
<text text-anchor="middle" x="180" y="-237.8" font-family="Times,serif" font-size="14.00">Learn_Assert</text>
</g>
<!-- iq0 -->
<g id="node3" class="node"><title>iq0</title>
</g>
<!-- iq0&#45;&gt;q0 -->
<g id="edge1" class="edge"><title>iq0&#45;&gt;q0</title>
<path fill="none" stroke="blue" d="M89.0327,-72C107.658,-72 132.679,-72 151.606,-72"/>
<polygon fill="blue" stroke="blue" points="151.683,-75.5001 161.683,-72 151.683,-68.5001 151.683,-75.5001"/>
</g>
</g>
</svg>
