<?xml version="1.0" encoding="UTF-8" standalone="no"?>
<!DOCTYPE svg PUBLIC "-//W3C//DTD SVG 1.1//EN"
 "http://www.w3.org/Graphics/SVG/1.1/DTD/svg11.dtd">
<!-- Generated by graphviz version 2.34.0 (20141125.1709)
 -->
<!-- Title: finite_automaton Pages: 1 -->
<svg width="576pt" height="43pt"
 viewBox="0.00 0.00 576.00 42.61" xmlns="http://www.w3.org/2000/svg" xmlns:xlink="http://www.w3.org/1999/xlink">
<g id="graph0" class="graph" transform="scale(0.156098 0.156098) rotate(0) translate(4 269)">
<title>finite_automaton</title>
<polygon fill="white" stroke="white" points="-4,4 -4,-269 3686,-269 3686,4 -4,4"/>
<!-- dom_edges -->
<g id="node1" class="node"><title>dom_edges</title>
<polygon fill="none" stroke="green" points="764,-199 0,-199 0,-163 764,-163 764,-199"/>
<text text-anchor="middle" x="382" y="-177.3" font-family="Times,serif" font-size="14.00">Dominating edges: chain_node, create_sll, init_back_link, reverse_dll, remove_fw_link, check_seq_next, check_seq_prev, Learn_Assert</text>
</g>
<!-- q1 -->
<g id="node2" class="node"><title>q1</title>
<ellipse fill="none" stroke="green" cx="3660" cy="-138" rx="18" ry="18"/>
<ellipse fill="none" stroke="green" cx="3660" cy="-138" rx="22" ry="22"/>
<text text-anchor="middle" x="3660" y="-134.3" font-family="Times,serif" font-size="14.00">D</text>
</g>
<!-- q0 -->
<g id="node3" class="node"><title>q0</title>
<ellipse fill="none" stroke="green" cx="820" cy="-235" rx="18" ry="18"/>
</g>
<!-- q17 -->
<g id="node19" class="node"><title>q17</title>
<ellipse fill="none" stroke="green" cx="944" cy="-235" rx="18" ry="18"/>
</g>
<!-- q0&#45;&gt;q17 -->
<g id="edge2" class="edge"><title>q0&#45;&gt;q17</title>
<path fill="none" stroke="green" d="M838.221,-235C858.384,-235 892.036,-235 915.753,-235"/>
<polygon fill="green" stroke="green" points="915.867,-238.5 925.867,-235 915.867,-231.5 915.867,-238.5"/>
<text text-anchor="middle" x="882" y="-238.8" font-family="Times,serif" font-size="14.00">create_sll</text>
</g>
<!-- q2 -->
<g id="node4" class="node"><title>q2</title>
<ellipse fill="none" stroke="green" cx="3510" cy="-138" rx="18" ry="18"/>
</g>
<!-- q2&#45;&gt;q1 -->
<g id="edge3" class="edge"><title>q2&#45;&gt;q1</title>
<path fill="none" stroke="green" d="M3528.27,-138C3552.55,-138 3597.2,-138 3627.49,-138"/>
<polygon fill="green" stroke="green" points="3627.55,-141.5 3637.55,-138 3627.55,-134.5 3627.55,-141.5"/>
<text text-anchor="middle" x="3583" y="-141.8" font-family="Times,serif" font-size="14.00">Learn_Assert</text>
</g>
<!-- q3 -->
<g id="node5" class="node"><title>q3</title>
<ellipse fill="none" stroke="green" cx="3350" cy="-138" rx="18" ry="18"/>
</g>
<!-- q3&#45;&gt;q2 -->
<g id="edge4" class="edge"><title>q3&#45;&gt;q2</title>
<path fill="none" stroke="green" d="M3368.21,-138C3395.52,-138 3449.01,-138 3481.62,-138"/>
<polygon fill="green" stroke="green" points="3481.81,-141.5 3491.81,-138 3481.81,-134.5 3481.81,-141.5"/>
<text text-anchor="middle" x="3430" y="-141.8" font-family="Times,serif" font-size="14.00">check_seq_prev</text>
</g>
<!-- q4 -->
<g id="node6" class="node"><title>q4</title>
<ellipse fill="none" stroke="green" cx="3186" cy="-138" rx="18" ry="18"/>
</g>
<!-- q4&#45;&gt;q3 -->
<g id="edge5" class="edge"><title>q4&#45;&gt;q3</title>
<path fill="none" stroke="green" d="M3204.03,-138C3232.03,-138 3288.04,-138 3321.65,-138"/>
<polygon fill="green" stroke="green" points="3321.71,-141.5 3331.71,-138 3321.71,-134.5 3321.71,-141.5"/>
<text text-anchor="middle" x="3268" y="-141.8" font-family="Times,serif" font-size="14.00">remove_fw_link</text>
</g>
<!-- q5 -->
<g id="node7" class="node"><title>q5</title>
<ellipse fill="none" stroke="green" cx="3026" cy="-138" rx="18" ry="18"/>
</g>
<!-- q5&#45;&gt;q4 -->
<g id="edge6" class="edge"><title>q5&#45;&gt;q4</title>
<path fill="none" stroke="green" d="M3044.21,-138C3071.52,-138 3125.01,-138 3157.62,-138"/>
<polygon fill="green" stroke="green" points="3157.81,-141.5 3167.81,-138 3157.81,-134.5 3157.81,-141.5"/>
<text text-anchor="middle" x="3106" y="-141.8" font-family="Times,serif" font-size="14.00">check_seq_next</text>
</g>
<!-- q6 -->
<g id="node8" class="node"><title>q6</title>
<ellipse fill="none" stroke="green" cx="2866" cy="-138" rx="18" ry="18"/>
</g>
<!-- q6&#45;&gt;q5 -->
<g id="edge7" class="edge"><title>q6&#45;&gt;q5</title>
<path fill="none" stroke="green" d="M2884.21,-138C2911.52,-138 2965.01,-138 2997.62,-138"/>
<polygon fill="green" stroke="green" points="2997.81,-141.5 3007.81,-138 2997.81,-134.5 2997.81,-141.5"/>
<text text-anchor="middle" x="2946" y="-141.8" font-family="Times,serif" font-size="14.00">check_seq_prev</text>
</g>
<!-- q7 -->
<g id="node9" class="node"><title>q7</title>
<ellipse fill="none" stroke="green" cx="2732" cy="-138" rx="18" ry="18"/>
</g>
<!-- q7&#45;&gt;q6 -->
<g id="edge8" class="edge"><title>q7&#45;&gt;q6</title>
<path fill="none" stroke="green" d="M2750.26,-138C2772.49,-138 2811.4,-138 2837.68,-138"/>
<polygon fill="green" stroke="green" points="2837.74,-141.5 2847.74,-138 2837.74,-134.5 2837.74,-141.5"/>
<text text-anchor="middle" x="2799" y="-141.8" font-family="Times,serif" font-size="14.00">reverse_dll</text>
</g>
<!-- q8 -->
<g id="node10" class="node"><title>q8</title>
<ellipse fill="none" stroke="green" cx="2572" cy="-138" rx="18" ry="18"/>
</g>
<!-- q8&#45;&gt;q7 -->
<g id="edge9" class="edge"><title>q8&#45;&gt;q7</title>
<path fill="none" stroke="green" d="M2590.21,-138C2617.52,-138 2671.01,-138 2703.62,-138"/>
<polygon fill="green" stroke="green" points="2703.81,-141.5 2713.81,-138 2703.81,-134.5 2703.81,-141.5"/>
<text text-anchor="middle" x="2652" y="-141.8" font-family="Times,serif" font-size="14.00">check_seq_prev</text>
</g>
<!-- q9 -->
<g id="node11" class="node"><title>q9</title>
<ellipse fill="none" stroke="green" cx="2412" cy="-138" rx="18" ry="18"/>
</g>
<!-- q9&#45;&gt;q8 -->
<g id="edge10" class="edge"><title>q9&#45;&gt;q8</title>
<path fill="none" stroke="green" d="M2430.21,-138C2457.52,-138 2511.01,-138 2543.62,-138"/>
<polygon fill="green" stroke="green" points="2543.81,-141.5 2553.81,-138 2543.81,-134.5 2543.81,-141.5"/>
<text text-anchor="middle" x="2492" y="-141.8" font-family="Times,serif" font-size="14.00">check_seq_next</text>
</g>
<!-- q10 -->
<g id="node12" class="node"><title>q10</title>
<ellipse fill="none" stroke="green" cx="2260" cy="-138" rx="18" ry="18"/>
</g>
<!-- q10&#45;&gt;q9 -->
<g id="edge11" class="edge"><title>q10&#45;&gt;q9</title>
<path fill="none" stroke="green" d="M2278.21,-138C2304.09,-138 2353.27,-138 2383.97,-138"/>
<polygon fill="green" stroke="green" points="2383.99,-141.5 2393.99,-138 2383.99,-134.5 2383.99,-141.5"/>
<text text-anchor="middle" x="2336" y="-141.8" font-family="Times,serif" font-size="14.00">init_back_link</text>
</g>
<!-- q11 -->
<g id="node13" class="node"><title>q11</title>
<ellipse fill="none" stroke="black" cx="1862" cy="-69" rx="18" ry="18"/>
</g>
<!-- q11&#45;&gt;q10 -->
<g id="edge13" class="edge"><title>q11&#45;&gt;q10</title>
<path fill="none" stroke="green" d="M1880.04,-68.8277C1943.12,-68.4447 2162.93,-69.4484 2224,-101 2230.91,-104.572 2237.21,-110.06 2242.5,-115.725"/>
<polygon fill="green" stroke="green" points="2239.89,-118.061 2249.04,-123.396 2245.21,-113.517 2239.89,-118.061"/>
<text text-anchor="middle" x="2074" y="-81.8" font-family="Times,serif" font-size="14.00">check_seq_next</text>
</g>
<!-- q18 -->
<g id="node20" class="node"><title>q18</title>
<ellipse fill="none" stroke="black" cx="2074" cy="-18" rx="18" ry="18"/>
</g>
<!-- q11&#45;&gt;q18 -->
<g id="edge12" class="edge"><title>q11&#45;&gt;q18</title>
<path fill="none" stroke="green" d="M1878.67,-61.0973C1890.78,-55.2989 1908.09,-47.6541 1924,-43 1965.48,-30.8668 2015.29,-23.9958 2045.52,-20.6394"/>
<polygon fill="green" stroke="green" points="2046.15,-24.0928 2055.72,-19.5586 2045.41,-17.1317 2046.15,-24.0928"/>
<text text-anchor="middle" x="1968" y="-46.8" font-family="Times,serif" font-size="14.00">chain_node</text>
</g>
<!-- q12 -->
<g id="node14" class="node"><title>q12</title>
<ellipse fill="none" stroke="black" cx="1650" cy="-115" rx="18" ry="18"/>
</g>
<!-- q12&#45;&gt;q10 -->
<g id="edge15" class="edge"><title>q12&#45;&gt;q10</title>
<path fill="none" stroke="green" d="M1668.22,-115.651C1753.14,-118.864 2127.5,-133.025 2231.89,-136.974"/>
<polygon fill="green" stroke="green" points="2231.81,-140.474 2241.93,-137.354 2232.07,-133.479 2231.81,-140.474"/>
<text text-anchor="middle" x="1968" y="-132.8" font-family="Times,serif" font-size="14.00">check_seq_next</text>
</g>
<!-- q12&#45;&gt;q11 -->
<g id="edge14" class="edge"><title>q12&#45;&gt;q11</title>
<path fill="none" stroke="green" d="M1665.99,-106.147C1678.01,-99.4799 1695.54,-90.7097 1712,-86 1753.24,-74.1988 1803.12,-70.5463 1833.43,-69.4419"/>
<polygon fill="green" stroke="green" points="1833.77,-72.9335 1843.66,-69.1399 1833.56,-65.9366 1833.77,-72.9335"/>
<text text-anchor="middle" x="1756" y="-89.8" font-family="Times,serif" font-size="14.00">chain_node</text>
</g>
<!-- q13 -->
<g id="node15" class="node"><title>q13</title>
<ellipse fill="none" stroke="black" cx="1488" cy="-158" rx="18" ry="18"/>
</g>
<!-- q13&#45;&gt;q10 -->
<g id="edge17" class="edge"><title>q13&#45;&gt;q10</title>
<path fill="none" stroke="green" d="M1506.28,-158.536C1535.62,-159.399 1597.05,-161 1649,-161 1649,-161 1649,-161 2075,-161 2141.51,-161 2158.48,-158.429 2224,-147 2226.74,-146.521 2229.59,-145.938 2232.42,-145.3"/>
<polygon fill="green" stroke="green" points="2233.51,-148.636 2242.38,-142.846 2231.84,-141.84 2233.51,-148.636"/>
<text text-anchor="middle" x="1862" y="-164.8" font-family="Times,serif" font-size="14.00">check_seq_next</text>
</g>
<!-- q13&#45;&gt;q12 -->
<g id="edge16" class="edge"><title>q13&#45;&gt;q12</title>
<path fill="none" stroke="green" d="M1501.66,-146.151C1507.92,-140.963 1515.87,-135.314 1524,-132 1555.77,-119.052 1595.45,-115.584 1621.48,-114.843"/>
<polygon fill="green" stroke="green" points="1621.79,-118.338 1631.73,-114.673 1621.67,-111.339 1621.79,-118.338"/>
<text text-anchor="middle" x="1556" y="-135.8" font-family="Times,serif" font-size="14.00">chain_node</text>
</g>
<!-- q14 -->
<g id="node16" class="node"><title>q14</title>
<ellipse fill="none" stroke="black" cx="1352" cy="-204" rx="18" ry="18"/>
</g>
<!-- q14&#45;&gt;q10 -->
<g id="edge19" class="edge"><title>q14&#45;&gt;q10</title>
<path fill="none" stroke="green" d="M1370.35,-204C1395.89,-204 1445.12,-204 1487,-204 1487,-204 1487,-204 2075,-204 2143.13,-204 2163.35,-199.027 2224,-168 2229.48,-165.198 2234.82,-161.374 2239.62,-157.394"/>
<polygon fill="green" stroke="green" points="2241.98,-159.977 2247.1,-150.701 2237.31,-154.759 2241.98,-159.977"/>
<text text-anchor="middle" x="1756" y="-207.8" font-family="Times,serif" font-size="14.00">check_seq_next</text>
</g>
<!-- q14&#45;&gt;q13 -->
<g id="edge18" class="edge"><title>q14&#45;&gt;q13</title>
<path fill="none" stroke="green" d="M1365.17,-191.196C1371.44,-185.355 1379.54,-178.89 1388,-175 1410.7,-164.563 1438.99,-160.484 1459.51,-158.915"/>
<polygon fill="green" stroke="green" points="1459.98,-162.393 1469.75,-158.29 1459.55,-155.406 1459.98,-162.393"/>
<text text-anchor="middle" x="1420" y="-178.8" font-family="Times,serif" font-size="14.00">chain_node</text>
</g>
<!-- q15 -->
<g id="node17" class="node"><title>q15</title>
<ellipse fill="none" stroke="green" cx="1216" cy="-235" rx="18" ry="18"/>
</g>
<!-- q15&#45;&gt;q10 -->
<g id="edge21" class="edge"><title>q15&#45;&gt;q10</title>
<path fill="none" stroke="green" d="M1233.85,-238.108C1259.19,-242.502 1308.63,-250 1351,-250 1351,-250 1351,-250 2075,-250 2145.14,-250 2169.87,-242.606 2224,-198 2234.83,-189.072 2243.05,-175.858 2248.79,-164.101"/>
<polygon fill="green" stroke="green" points="2252.11,-165.249 2253.04,-154.694 2245.73,-162.371 2252.11,-165.249"/>
<text text-anchor="middle" x="1650" y="-253.8" font-family="Times,serif" font-size="14.00">check_seq_next</text>
</g>
<!-- q15&#45;&gt;q14 -->
<g id="edge20" class="edge"><title>q15&#45;&gt;q14</title>
<path fill="none" stroke="green" d="M1232.78,-227.866C1238.71,-225.406 1245.58,-222.814 1252,-221 1275.9,-214.25 1303.84,-209.749 1323.94,-207.084"/>
<polygon fill="green" stroke="green" points="1324.46,-210.546 1333.94,-205.822 1323.58,-203.601 1324.46,-210.546"/>
<text text-anchor="middle" x="1284" y="-224.8" font-family="Times,serif" font-size="14.00">chain_node</text>
</g>
<!-- q16 -->
<g id="node18" class="node"><title>q16</title>
<ellipse fill="none" stroke="green" cx="1080" cy="-235" rx="18" ry="18"/>
</g>
<!-- q16&#45;&gt;q15 -->
<g id="edge22" class="edge"><title>q16&#45;&gt;q15</title>
<path fill="none" stroke="green" d="M1098.24,-235C1120.86,-235 1160.8,-235 1187.58,-235"/>
<polygon fill="green" stroke="green" points="1187.82,-238.5 1197.82,-235 1187.82,-231.5 1187.82,-238.5"/>
<text text-anchor="middle" x="1148" y="-238.8" font-family="Times,serif" font-size="14.00">chain_node</text>
</g>
<!-- q17&#45;&gt;q16 -->
<g id="edge23" class="edge"><title>q17&#45;&gt;q16</title>
<path fill="none" stroke="green" d="M962.244,-235C984.858,-235 1024.8,-235 1051.58,-235"/>
<polygon fill="green" stroke="green" points="1051.82,-238.5 1061.82,-235 1051.82,-231.5 1051.82,-238.5"/>
<text text-anchor="middle" x="1012" y="-238.8" font-family="Times,serif" font-size="14.00">chain_node</text>
</g>
<!-- q18&#45;&gt;q10 -->
<g id="edge24" class="edge"><title>q18&#45;&gt;q10</title>
<path fill="none" stroke="green" d="M2091.95,-15.7872C2122.14,-12.8319 2185.63,-11.1997 2224,-43 2243.89,-59.4818 2252.48,-88.3454 2256.18,-109.945"/>
<polygon fill="green" stroke="green" points="2252.73,-110.492 2257.64,-119.878 2259.65,-109.476 2252.73,-110.492"/>
<text text-anchor="middle" x="2180" y="-46.8" font-family="Times,serif" font-size="14.00">check_seq_next</text>
</g>
<!-- iq0 -->
<g id="node21" class="node"><title>iq0</title>
</g>
<!-- iq0&#45;&gt;q0 -->
<g id="edge1" class="edge"><title>iq0&#45;&gt;q0</title>
<path fill="none" stroke="blue" d="M409.292,-235C486.661,-235 713.031,-235 791.69,-235"/>
<polygon fill="blue" stroke="blue" points="791.778,-238.5 801.778,-235 791.778,-231.5 791.778,-238.5"/>
</g>
</g>
</svg>
