<?xml version="1.0" encoding="UTF-8" standalone="no"?>
<!DOCTYPE svg PUBLIC "-//W3C//DTD SVG 1.1//EN"
 "http://www.w3.org/Graphics/SVG/1.1/DTD/svg11.dtd">
<!-- Generated by graphviz version 2.34.0 (20141125.1709)
 -->
<!-- Title: finite_automaton Pages: 1 -->
<svg width="576pt" height="24pt"
 viewBox="0.00 0.00 576.00 23.77" xmlns="http://www.w3.org/2000/svg" xmlns:xlink="http://www.w3.org/1999/xlink">
<g id="graph0" class="graph" transform="scale(0.144072 0.144072) rotate(0) translate(4 161)">
<title>finite_automaton</title>
<polygon fill="white" stroke="white" points="-4,4 -4,-161 3994,-161 3994,4 -4,4"/>
<!-- dom_edges -->
<g id="node1" class="node"><title>dom_edges</title>
<polygon fill="none" stroke="green" points="1120,-68 0,-68 0,-32 1120,-32 1120,-68"/>
<text text-anchor="middle" x="560" y="-46.3" font-family="Times,serif" font-size="14.00">Dominating edges: Non_Crossing_Biased_Climb, ALIM, Inhibit_Biased_Climb, Non_Crossing_Biased_Descend, Own_Below_Threat, Own_Above_Threat, alt_sep_test, initialize, fake1, Learn_Assert</text>
</g>
<!-- q1 -->
<g id="node2" class="node"><title>q1</title>
<ellipse fill="none" stroke="green" cx="3968" cy="-47" rx="18" ry="18"/>
<ellipse fill="none" stroke="green" cx="3968" cy="-47" rx="22" ry="22"/>
<text text-anchor="middle" x="3968" y="-43.3" font-family="Times,serif" font-size="14.00">D</text>
</g>
<!-- q0 -->
<g id="node3" class="node"><title>q0</title>
<ellipse fill="none" stroke="green" cx="1176" cy="-104" rx="18" ry="18"/>
</g>
<!-- q12 -->
<g id="node14" class="node"><title>q12</title>
<ellipse fill="none" stroke="green" cx="1296" cy="-104" rx="18" ry="18"/>
</g>
<!-- q0&#45;&gt;q12 -->
<g id="edge2" class="edge"><title>q0&#45;&gt;q12</title>
<path fill="none" stroke="green" d="M1194.16,-104C1213.47,-104 1245.11,-104 1267.8,-104"/>
<polygon fill="green" stroke="green" points="1267.82,-107.5 1277.82,-104 1267.82,-100.5 1267.82,-107.5"/>
<text text-anchor="middle" x="1236" y="-107.8" font-family="Times,serif" font-size="14.00">initialize</text>
</g>
<!-- q2 -->
<g id="node4" class="node"><title>q2</title>
<ellipse fill="none" stroke="green" cx="3818" cy="-47" rx="18" ry="18"/>
</g>
<!-- q2&#45;&gt;q1 -->
<g id="edge3" class="edge"><title>q2&#45;&gt;q1</title>
<path fill="none" stroke="green" d="M3836.27,-47C3860.55,-47 3905.2,-47 3935.49,-47"/>
<polygon fill="green" stroke="green" points="3935.55,-50.5001 3945.55,-47 3935.55,-43.5001 3935.55,-50.5001"/>
<text text-anchor="middle" x="3891" y="-50.8" font-family="Times,serif" font-size="14.00">Learn_Assert</text>
</g>
<!-- q3 -->
<g id="node5" class="node"><title>q3</title>
<ellipse fill="none" stroke="green" cx="3634" cy="-47" rx="18" ry="18"/>
</g>
<!-- q3&#45;&gt;q2 -->
<g id="edge4" class="edge"><title>q3&#45;&gt;q2</title>
<path fill="none" stroke="green" d="M3652.12,-47C3683.69,-47 3751.33,-47 3789.43,-47"/>
<polygon fill="green" stroke="green" points="3789.79,-50.5001 3799.79,-47 3789.79,-43.5001 3789.79,-50.5001"/>
<text text-anchor="middle" x="3726" y="-50.8" font-family="Times,serif" font-size="14.00">Own_Above_Threat</text>
</g>
<!-- q4 -->
<g id="node6" class="node"><title>q4</title>
<ellipse fill="none" stroke="black" cx="3450" cy="-72" rx="18" ry="18"/>
</g>
<!-- q4&#45;&gt;q3 -->
<g id="edge5" class="edge"><title>q4&#45;&gt;q3</title>
<path fill="none" stroke="green" d="M3468.12,-69.6481C3499.77,-65.3003 3567.67,-55.9737 3605.72,-50.7468"/>
<polygon fill="green" stroke="green" points="3606.63,-54.1558 3616.06,-49.3275 3605.67,-47.221 3606.63,-54.1558"/>
<text text-anchor="middle" x="3542" y="-69.8" font-family="Times,serif" font-size="14.00">ALIM</text>
</g>
<!-- q5 -->
<g id="node7" class="node"><title>q5</title>
<ellipse fill="none" stroke="black" cx="3202" cy="-126" rx="18" ry="18"/>
</g>
<!-- q5&#45;&gt;q4 -->
<g id="edge6" class="edge"><title>q5&#45;&gt;q4</title>
<path fill="none" stroke="green" d="M3220.15,-125.084C3256.72,-122.72 3344.64,-114.824 3414,-91 3417.86,-89.6734 3421.81,-87.9476 3425.59,-86.0774"/>
<polygon fill="green" stroke="green" points="3427.36,-89.0955 3434.51,-81.2762 3424.05,-82.9306 3427.36,-89.0955"/>
<text text-anchor="middle" x="3326" y="-126.8" font-family="Times,serif" font-size="14.00">fake1</text>
</g>
<!-- q6 -->
<g id="node8" class="node"><title>q6</title>
<ellipse fill="none" stroke="black" cx="2532" cy="-139" rx="18" ry="18"/>
</g>
<!-- q6&#45;&gt;q5 -->
<g id="edge7" class="edge"><title>q6&#45;&gt;q5</title>
<path fill="none" stroke="green" d="M2550.26,-139C2571.24,-139 2607.72,-139 2639,-139 2639,-139 2639,-139 3019,-139 3074.12,-139 3138.39,-132.994 3173.91,-129.147"/>
<polygon fill="green" stroke="green" points="3174.41,-132.613 3183.97,-128.031 3173.64,-125.655 3174.41,-132.613"/>
<text text-anchor="middle" x="2732" y="-142.8" font-family="Times,serif" font-size="14.00">Own_Below_Threat</text>
</g>
<!-- q7 -->
<g id="node9" class="node"><title>q7</title>
<ellipse fill="none" stroke="black" cx="2246" cy="-137" rx="18" ry="18"/>
</g>
<!-- q7&#45;&gt;q6 -->
<g id="edge8" class="edge"><title>q7&#45;&gt;q6</title>
<path fill="none" stroke="green" d="M2264.34,-137.122C2312.08,-137.458 2445.77,-138.4 2503.68,-138.808"/>
<polygon fill="green" stroke="green" points="2503.86,-142.309 2513.89,-138.879 2503.91,-135.309 2503.86,-142.309"/>
<text text-anchor="middle" x="2408" y="-141.8" font-family="Times,serif" font-size="14.00">Non_Crossing_Biased_Descend</text>
</g>
<!-- q8 -->
<g id="node10" class="node"><title>q8</title>
<ellipse fill="none" stroke="black" cx="2100" cy="-128" rx="18" ry="18"/>
</g>
<!-- q8&#45;&gt;q7 -->
<g id="edge9" class="edge"><title>q8&#45;&gt;q7</title>
<path fill="none" stroke="green" d="M2118.08,-129.068C2142.66,-130.604 2188.25,-133.453 2217.57,-135.286"/>
<polygon fill="green" stroke="green" points="2217.74,-138.803 2227.94,-135.934 2218.18,-131.817 2217.74,-138.803"/>
<text text-anchor="middle" x="2154" y="-135.8" font-family="Times,serif" font-size="14.00">ALIM</text>
</g>
<!-- q9 -->
<g id="node11" class="node"><title>q9</title>
<ellipse fill="none" stroke="green" cx="1862" cy="-104" rx="18" ry="18"/>
</g>
<!-- q9&#45;&gt;q8 -->
<g id="edge11" class="edge"><title>q9&#45;&gt;q8</title>
<path fill="none" stroke="green" d="M1879.97,-105.726C1920.36,-109.833 2022.45,-120.215 2071.66,-125.219"/>
<polygon fill="green" stroke="green" points="2071.56,-128.728 2081.86,-126.257 2072.27,-121.764 2071.56,-128.728"/>
<text text-anchor="middle" x="1954" y="-121.8" font-family="Times,serif" font-size="14.00">Own_Above_Threat</text>
</g>
<!-- q19 -->
<g id="node20" class="node"><title>q19</title>
<ellipse fill="none" stroke="black" cx="2046" cy="-77" rx="18" ry="18"/>
</g>
<!-- q9&#45;&gt;q19 -->
<g id="edge10" class="edge"><title>q9&#45;&gt;q19</title>
<path fill="none" stroke="green" d="M1878.71,-96.5794C1884.63,-94.0875 1891.51,-91.5501 1898,-90 1939.06,-80.1973 1988.16,-77.6278 2017.94,-77.0414"/>
<polygon fill="green" stroke="green" points="2018.04,-80.5405 2027.99,-76.9053 2017.94,-73.5411 2018.04,-80.5405"/>
<text text-anchor="middle" x="1954" y="-93.8" font-family="Times,serif" font-size="14.00">Own_Below_Threat</text>
</g>
<!-- q10 -->
<g id="node12" class="node"><title>q10</title>
<ellipse fill="none" stroke="green" cx="1668" cy="-104" rx="18" ry="18"/>
</g>
<!-- q10&#45;&gt;q9 -->
<g id="edge12" class="edge"><title>q10&#45;&gt;q9</title>
<path fill="none" stroke="green" d="M1686.04,-104C1719.41,-104 1793.64,-104 1833.85,-104"/>
<polygon fill="green" stroke="green" points="1834,-107.5 1844,-104 1834,-100.5 1834,-107.5"/>
<text text-anchor="middle" x="1765" y="-107.8" font-family="Times,serif" font-size="14.00">Inhibit_Biased_Climb</text>
</g>
<!-- q11 -->
<g id="node13" class="node"><title>q11</title>
<ellipse fill="none" stroke="green" cx="1432" cy="-104" rx="18" ry="18"/>
</g>
<!-- q11&#45;&gt;q10 -->
<g id="edge13" class="edge"><title>q11&#45;&gt;q10</title>
<path fill="none" stroke="green" d="M1450.21,-104C1490.44,-104 1590.92,-104 1639.65,-104"/>
<polygon fill="green" stroke="green" points="1639.77,-107.5 1649.77,-104 1639.77,-100.5 1639.77,-107.5"/>
<text text-anchor="middle" x="1550" y="-107.8" font-family="Times,serif" font-size="14.00">Non_Crossing_Biased_Climb</text>
</g>
<!-- q12&#45;&gt;q11 -->
<g id="edge14" class="edge"><title>q12&#45;&gt;q11</title>
<path fill="none" stroke="green" d="M1314.24,-104C1336.86,-104 1376.8,-104 1403.58,-104"/>
<polygon fill="green" stroke="green" points="1403.82,-107.5 1413.82,-104 1403.82,-100.5 1403.82,-107.5"/>
<text text-anchor="middle" x="1364" y="-107.8" font-family="Times,serif" font-size="14.00">alt_sep_test</text>
</g>
<!-- q14 -->
<g id="node15" class="node"><title>q14</title>
<ellipse fill="none" stroke="black" cx="3018" cy="-72" rx="18" ry="18"/>
</g>
<!-- q14&#45;&gt;q5 -->
<g id="edge15" class="edge"><title>q14&#45;&gt;q5</title>
<path fill="none" stroke="green" d="M3034.43,-79.41C3040.43,-82.0827 3047.44,-84.9438 3054,-87 3102.49,-102.198 3117.69,-94.2243 3166,-110 3169.41,-111.112 3172.92,-112.461 3176.35,-113.897"/>
<polygon fill="green" stroke="green" points="3175.07,-117.157 3185.62,-118.058 3177.93,-110.771 3175.07,-117.157"/>
<text text-anchor="middle" x="3110" y="-113.8" font-family="Times,serif" font-size="14.00">Own_Below_Threat</text>
</g>
<!-- q20 -->
<g id="node21" class="node"><title>q20</title>
<ellipse fill="none" stroke="black" cx="3202" cy="-72" rx="18" ry="18"/>
</g>
<!-- q14&#45;&gt;q20 -->
<g id="edge16" class="edge"><title>q14&#45;&gt;q20</title>
<path fill="none" stroke="green" d="M3036.12,-72C3067.69,-72 3135.33,-72 3173.43,-72"/>
<polygon fill="green" stroke="green" points="3173.79,-75.5001 3183.79,-72 3173.79,-68.5001 3173.79,-75.5001"/>
<text text-anchor="middle" x="3110" y="-75.8" font-family="Times,serif" font-size="14.00">Own_Above_Threat</text>
</g>
<!-- q15 -->
<g id="node16" class="node"><title>q15</title>
<ellipse fill="none" stroke="black" cx="2732" cy="-72" rx="18" ry="18"/>
</g>
<!-- q15&#45;&gt;q14 -->
<g id="edge17" class="edge"><title>q15&#45;&gt;q14</title>
<path fill="none" stroke="green" d="M2750.34,-72C2798.08,-72 2931.77,-72 2989.68,-72"/>
<polygon fill="green" stroke="green" points="2989.89,-75.5001 2999.89,-72 2989.89,-68.5001 2989.89,-75.5001"/>
<text text-anchor="middle" x="2894" y="-75.8" font-family="Times,serif" font-size="14.00">Non_Crossing_Biased_Descend</text>
</g>
<!-- q23 -->
<g id="node24" class="node"><title>q23</title>
<ellipse fill="none" stroke="black" cx="3018" cy="-18" rx="18" ry="18"/>
</g>
<!-- q15&#45;&gt;q23 -->
<g id="edge18" class="edge"><title>q15&#45;&gt;q23</title>
<path fill="none" stroke="green" d="M2749.42,-67.2715C2764.15,-63.1399 2786.4,-57.1671 2806,-53 2871.54,-39.0642 2949.53,-27.3841 2989.84,-21.7041"/>
<polygon fill="green" stroke="green" points="2990.52,-25.1433 2999.95,-20.296 2989.56,-18.2103 2990.52,-25.1433"/>
<text text-anchor="middle" x="2894" y="-56.8" font-family="Times,serif" font-size="14.00">Own_Below_Threat</text>
</g>
<!-- q16 -->
<g id="node17" class="node"><title>q16</title>
<ellipse fill="none" stroke="black" cx="2586" cy="-72" rx="18" ry="18"/>
</g>
<!-- q16&#45;&gt;q15 -->
<g id="edge19" class="edge"><title>q16&#45;&gt;q15</title>
<path fill="none" stroke="green" d="M2604.08,-72C2628.66,-72 2674.25,-72 2703.57,-72"/>
<polygon fill="green" stroke="green" points="2703.94,-75.5001 2713.94,-72 2703.94,-68.5001 2703.94,-75.5001"/>
<text text-anchor="middle" x="2640" y="-75.8" font-family="Times,serif" font-size="14.00">ALIM</text>
</g>
<!-- q17 -->
<g id="node18" class="node"><title>q17</title>
<ellipse fill="none" stroke="black" cx="2408" cy="-72" rx="18" ry="18"/>
</g>
<!-- q17&#45;&gt;q16 -->
<g id="edge20" class="edge"><title>q17&#45;&gt;q16</title>
<path fill="none" stroke="green" d="M2426.2,-72C2456.77,-72 2520.81,-72 2557.54,-72"/>
<polygon fill="green" stroke="green" points="2557.99,-75.5001 2567.99,-72 2557.99,-68.5001 2557.99,-75.5001"/>
<text text-anchor="middle" x="2532" y="-75.8" font-family="Times,serif" font-size="14.00">fake1</text>
</g>
<!-- q18 -->
<g id="node19" class="node"><title>q18</title>
<ellipse fill="none" stroke="black" cx="2154" cy="-75" rx="18" ry="18"/>
</g>
<!-- q18&#45;&gt;q17 -->
<g id="edge21" class="edge"><title>q18&#45;&gt;q17</title>
<path fill="none" stroke="green" d="M2172.32,-74.7938C2215.4,-74.2809 2327.67,-72.9444 2379.74,-72.3245"/>
<polygon fill="green" stroke="green" points="2379.93,-75.8226 2389.89,-72.2037 2379.85,-68.8231 2379.93,-75.8226"/>
<text text-anchor="middle" x="2246" y="-77.8" font-family="Times,serif" font-size="14.00">Own_Below_Threat</text>
</g>
<!-- q19&#45;&gt;q18 -->
<g id="edge22" class="edge"><title>q19&#45;&gt;q18</title>
<path fill="none" stroke="green" d="M2064.03,-76.6787C2080.62,-76.3656 2106.12,-75.8846 2125.57,-75.5176"/>
<polygon fill="green" stroke="green" points="2125.73,-79.0153 2135.66,-75.3272 2125.6,-72.0165 2125.73,-79.0153"/>
<text text-anchor="middle" x="2100" y="-79.8" font-family="Times,serif" font-size="14.00">fake1</text>
</g>
<!-- q20&#45;&gt;q4 -->
<g id="edge23" class="edge"><title>q20&#45;&gt;q4</title>
<path fill="none" stroke="green" d="M3220.3,-72C3262.38,-72 3370.37,-72 3421.45,-72"/>
<polygon fill="green" stroke="green" points="3421.72,-75.5001 3431.72,-72 3421.72,-68.5001 3421.72,-75.5001"/>
<text text-anchor="middle" x="3326" y="-75.8" font-family="Times,serif" font-size="14.00">Own_Above_Threat</text>
</g>
<!-- q21 -->
<g id="node22" class="node"><title>q21</title>
<ellipse fill="none" stroke="black" cx="3450" cy="-18" rx="18" ry="18"/>
</g>
<!-- q21&#45;&gt;q3 -->
<g id="edge24" class="edge"><title>q21&#45;&gt;q3</title>
<path fill="none" stroke="green" d="M3468.01,-18.2065C3495.67,-18.881 3551.91,-21.6683 3598,-33 3601.24,-33.7969 3604.58,-34.832 3607.85,-35.9786"/>
<polygon fill="green" stroke="green" points="3606.69,-39.2828 3617.28,-39.6269 3609.22,-32.7543 3606.69,-39.2828"/>
<text text-anchor="middle" x="3542" y="-36.8" font-family="Times,serif" font-size="14.00">Own_Above_Threat</text>
</g>
<!-- q22 -->
<g id="node23" class="node"><title>q22</title>
<ellipse fill="none" stroke="black" cx="3202" cy="-18" rx="18" ry="18"/>
</g>
<!-- q22&#45;&gt;q21 -->
<g id="edge25" class="edge"><title>q22&#45;&gt;q21</title>
<path fill="none" stroke="green" d="M3220.3,-18C3262.38,-18 3370.37,-18 3421.45,-18"/>
<polygon fill="green" stroke="green" points="3421.72,-21.5001 3431.72,-18 3421.72,-14.5001 3421.72,-21.5001"/>
<text text-anchor="middle" x="3326" y="-21.8" font-family="Times,serif" font-size="14.00">Non_Crossing_Biased_Descend</text>
</g>
<!-- q23&#45;&gt;q22 -->
<g id="edge26" class="edge"><title>q23&#45;&gt;q22</title>
<path fill="none" stroke="green" d="M3036.12,-18C3067.69,-18 3135.33,-18 3173.43,-18"/>
<polygon fill="green" stroke="green" points="3173.79,-21.5001 3183.79,-18 3173.79,-14.5001 3173.79,-21.5001"/>
<text text-anchor="middle" x="3110" y="-21.8" font-family="Times,serif" font-size="14.00">fake1</text>
</g>
<!-- iq0 -->
<g id="node25" class="node"><title>iq0</title>
</g>
<!-- iq0&#45;&gt;q0 -->
<g id="edge1" class="edge"><title>iq0&#45;&gt;q0</title>
<path fill="none" stroke="blue" d="M587.383,-104C687.819,-104 1045.75,-104 1147.71,-104"/>
<polygon fill="blue" stroke="blue" points="1147.82,-107.5 1157.82,-104 1147.82,-100.5 1147.82,-107.5"/>
</g>
</g>
</svg>
