<?xml version="1.0" encoding="UTF-8" standalone="no"?>
<!DOCTYPE svg PUBLIC "-//W3C//DTD SVG 1.1//EN"
 "http://www.w3.org/Graphics/SVG/1.1/DTD/svg11.dtd">
<!-- Generated by graphviz version 2.34.0 (20141125.1709)
 -->
<!-- Title: finite_automaton Pages: 1 -->
<svg width="576pt" height="19pt"
 viewBox="0.00 0.00 576.00 18.58" xmlns="http://www.w3.org/2000/svg" xmlns:xlink="http://www.w3.org/1999/xlink">
<g id="graph0" class="graph" transform="scale(0.182163 0.182163) rotate(0) translate(4 98)">
<title>finite_automaton</title>
<polygon fill="white" stroke="white" points="-4,4 -4,-98 3158,-98 3158,4 -4,4"/>
<!-- dom_edges -->
<g id="node1" class="node"><title>dom_edges</title>
<polygon fill="none" stroke="green" points="1120,-36 0,-36 0,-0 1120,-0 1120,-36"/>
<text text-anchor="middle" x="560" y="-14.3" font-family="Times,serif" font-size="14.00">Dominating edges: Non_Crossing_Biased_Climb, ALIM, Inhibit_Biased_Climb, Non_Crossing_Biased_Descend, Own_Below_Threat, Own_Above_Threat, alt_sep_test, initialize, fake1, Learn_Assert</text>
</g>
<!-- q1 -->
<g id="node2" class="node"><title>q1</title>
<ellipse fill="none" stroke="green" cx="3132" cy="-72" rx="18" ry="18"/>
<ellipse fill="none" stroke="green" cx="3132" cy="-72" rx="22" ry="22"/>
<text text-anchor="middle" x="3132" y="-68.3" font-family="Times,serif" font-size="14.00">D</text>
</g>
<!-- q0 -->
<g id="node3" class="node"><title>q0</title>
<ellipse fill="none" stroke="green" cx="1176" cy="-72" rx="18" ry="18"/>
</g>
<!-- q12 -->
<g id="node14" class="node"><title>q12</title>
<ellipse fill="none" stroke="green" cx="1296" cy="-72" rx="18" ry="18"/>
</g>
<!-- q0&#45;&gt;q12 -->
<g id="edge2" class="edge"><title>q0&#45;&gt;q12</title>
<path fill="none" stroke="green" d="M1194.16,-72C1213.47,-72 1245.11,-72 1267.8,-72"/>
<polygon fill="green" stroke="green" points="1267.82,-75.5001 1277.82,-72 1267.82,-68.5001 1267.82,-75.5001"/>
<text text-anchor="middle" x="1236" y="-75.8" font-family="Times,serif" font-size="14.00">initialize</text>
</g>
<!-- q2 -->
<g id="node4" class="node"><title>q2</title>
<ellipse fill="none" stroke="green" cx="2982" cy="-72" rx="18" ry="18"/>
</g>
<!-- q2&#45;&gt;q1 -->
<g id="edge3" class="edge"><title>q2&#45;&gt;q1</title>
<path fill="none" stroke="green" d="M3000.27,-72C3024.55,-72 3069.2,-72 3099.49,-72"/>
<polygon fill="green" stroke="green" points="3099.55,-75.5001 3109.55,-72 3099.55,-68.5001 3099.55,-75.5001"/>
<text text-anchor="middle" x="3055" y="-75.8" font-family="Times,serif" font-size="14.00">Learn_Assert</text>
</g>
<!-- q3 -->
<g id="node5" class="node"><title>q3</title>
<ellipse fill="none" stroke="green" cx="2798" cy="-72" rx="18" ry="18"/>
</g>
<!-- q3&#45;&gt;q2 -->
<g id="edge4" class="edge"><title>q3&#45;&gt;q2</title>
<path fill="none" stroke="green" d="M2816.12,-72C2847.69,-72 2915.33,-72 2953.43,-72"/>
<polygon fill="green" stroke="green" points="2953.79,-75.5001 2963.79,-72 2953.79,-68.5001 2953.79,-75.5001"/>
<text text-anchor="middle" x="2890" y="-75.8" font-family="Times,serif" font-size="14.00">Own_Above_Threat</text>
</g>
<!-- q4 -->
<g id="node6" class="node"><title>q4</title>
<ellipse fill="none" stroke="green" cx="2690" cy="-72" rx="18" ry="18"/>
</g>
<!-- q4&#45;&gt;q3 -->
<g id="edge5" class="edge"><title>q4&#45;&gt;q3</title>
<path fill="none" stroke="green" d="M2708.03,-72C2724.62,-72 2750.12,-72 2769.57,-72"/>
<polygon fill="green" stroke="green" points="2769.66,-75.5001 2779.66,-72 2769.66,-68.5001 2769.66,-75.5001"/>
<text text-anchor="middle" x="2744" y="-75.8" font-family="Times,serif" font-size="14.00">ALIM</text>
</g>
<!-- q5 -->
<g id="node7" class="node"><title>q5</title>
<ellipse fill="none" stroke="green" cx="2586" cy="-72" rx="18" ry="18"/>
</g>
<!-- q5&#45;&gt;q4 -->
<g id="edge6" class="edge"><title>q5&#45;&gt;q4</title>
<path fill="none" stroke="green" d="M2604.3,-72C2620.08,-72 2643.64,-72 2661.91,-72"/>
<polygon fill="green" stroke="green" points="2661.95,-75.5001 2671.95,-72 2661.95,-68.5001 2661.95,-75.5001"/>
<text text-anchor="middle" x="2638" y="-75.8" font-family="Times,serif" font-size="14.00">fake1</text>
</g>
<!-- q6 -->
<g id="node8" class="node"><title>q6</title>
<ellipse fill="none" stroke="green" cx="2402" cy="-72" rx="18" ry="18"/>
</g>
<!-- q6&#45;&gt;q5 -->
<g id="edge7" class="edge"><title>q6&#45;&gt;q5</title>
<path fill="none" stroke="green" d="M2420.12,-72C2451.69,-72 2519.33,-72 2557.43,-72"/>
<polygon fill="green" stroke="green" points="2557.79,-75.5001 2567.79,-72 2557.79,-68.5001 2557.79,-75.5001"/>
<text text-anchor="middle" x="2494" y="-75.8" font-family="Times,serif" font-size="14.00">Own_Below_Threat</text>
</g>
<!-- q7 -->
<g id="node9" class="node"><title>q7</title>
<ellipse fill="none" stroke="green" cx="2154" cy="-72" rx="18" ry="18"/>
</g>
<!-- q7&#45;&gt;q6 -->
<g id="edge8" class="edge"><title>q7&#45;&gt;q6</title>
<path fill="none" stroke="green" d="M2172.3,-72C2214.38,-72 2322.37,-72 2373.45,-72"/>
<polygon fill="green" stroke="green" points="2373.72,-75.5001 2383.72,-72 2373.72,-68.5001 2373.72,-75.5001"/>
<text text-anchor="middle" x="2278" y="-75.8" font-family="Times,serif" font-size="14.00">Non_Crossing_Biased_Descend</text>
</g>
<!-- q8 -->
<g id="node10" class="node"><title>q8</title>
<ellipse fill="none" stroke="green" cx="2046" cy="-72" rx="18" ry="18"/>
</g>
<!-- q8&#45;&gt;q7 -->
<g id="edge9" class="edge"><title>q8&#45;&gt;q7</title>
<path fill="none" stroke="green" d="M2064.03,-72C2080.62,-72 2106.12,-72 2125.57,-72"/>
<polygon fill="green" stroke="green" points="2125.66,-75.5001 2135.66,-72 2125.66,-68.5001 2125.66,-75.5001"/>
<text text-anchor="middle" x="2100" y="-75.8" font-family="Times,serif" font-size="14.00">ALIM</text>
</g>
<!-- q9 -->
<g id="node11" class="node"><title>q9</title>
<ellipse fill="none" stroke="green" cx="1862" cy="-72" rx="18" ry="18"/>
</g>
<!-- q9&#45;&gt;q8 -->
<g id="edge10" class="edge"><title>q9&#45;&gt;q8</title>
<path fill="none" stroke="green" d="M1880.12,-72C1911.69,-72 1979.33,-72 2017.43,-72"/>
<polygon fill="green" stroke="green" points="2017.79,-75.5001 2027.79,-72 2017.79,-68.5001 2017.79,-75.5001"/>
<text text-anchor="middle" x="1954" y="-75.8" font-family="Times,serif" font-size="14.00">Own_Above_Threat</text>
</g>
<!-- q10 -->
<g id="node12" class="node"><title>q10</title>
<ellipse fill="none" stroke="green" cx="1668" cy="-72" rx="18" ry="18"/>
</g>
<!-- q10&#45;&gt;q9 -->
<g id="edge11" class="edge"><title>q10&#45;&gt;q9</title>
<path fill="none" stroke="green" d="M1686.04,-72C1719.41,-72 1793.64,-72 1833.85,-72"/>
<polygon fill="green" stroke="green" points="1834,-75.5001 1844,-72 1834,-68.5001 1834,-75.5001"/>
<text text-anchor="middle" x="1765" y="-75.8" font-family="Times,serif" font-size="14.00">Inhibit_Biased_Climb</text>
</g>
<!-- q11 -->
<g id="node13" class="node"><title>q11</title>
<ellipse fill="none" stroke="green" cx="1432" cy="-72" rx="18" ry="18"/>
</g>
<!-- q11&#45;&gt;q10 -->
<g id="edge12" class="edge"><title>q11&#45;&gt;q10</title>
<path fill="none" stroke="green" d="M1450.21,-72C1490.44,-72 1590.92,-72 1639.65,-72"/>
<polygon fill="green" stroke="green" points="1639.77,-75.5001 1649.77,-72 1639.77,-68.5001 1639.77,-75.5001"/>
<text text-anchor="middle" x="1550" y="-75.8" font-family="Times,serif" font-size="14.00">Non_Crossing_Biased_Climb</text>
</g>
<!-- q12&#45;&gt;q11 -->
<g id="edge13" class="edge"><title>q12&#45;&gt;q11</title>
<path fill="none" stroke="green" d="M1314.24,-72C1336.86,-72 1376.8,-72 1403.58,-72"/>
<polygon fill="green" stroke="green" points="1403.82,-75.5001 1413.82,-72 1403.82,-68.5001 1403.82,-75.5001"/>
<text text-anchor="middle" x="1364" y="-75.8" font-family="Times,serif" font-size="14.00">alt_sep_test</text>
</g>
<!-- iq0 -->
<g id="node15" class="node"><title>iq0</title>
</g>
<!-- iq0&#45;&gt;q0 -->
<g id="edge1" class="edge"><title>iq0&#45;&gt;q0</title>
<path fill="none" stroke="blue" d="M587.383,-72C687.819,-72 1045.75,-72 1147.71,-72"/>
<polygon fill="blue" stroke="blue" points="1147.82,-75.5001 1157.82,-72 1147.82,-68.5001 1147.82,-75.5001"/>
</g>
</g>
</svg>
