<?xml version="1.0" encoding="UTF-8" standalone="no"?>
<!DOCTYPE svg PUBLIC "-//W3C//DTD SVG 1.1//EN"
 "http://www.w3.org/Graphics/SVG/1.1/DTD/svg11.dtd">
<!-- Generated by graphviz version 2.34.0 (20141125.1709)
 -->
<!-- Title: finite_automaton Pages: 1 -->
<svg width="576pt" height="30pt"
 viewBox="0.00 0.00 576.00 30.36" xmlns="http://www.w3.org/2000/svg" xmlns:xlink="http://www.w3.org/1999/xlink">
<g id="graph0" class="graph" transform="scale(0.144578 0.144578) rotate(0) translate(4 206)">
<title>finite_automaton</title>
<polygon fill="white" stroke="white" points="-4,4 -4,-206 3980,-206 3980,4 -4,4"/>
<!-- dom_edges -->
<g id="node1" class="node"><title>dom_edges</title>
<polygon fill="none" stroke="green" points="1001.5,-36 0.5,-36 0.5,-0 1001.5,-0 1001.5,-36"/>
<text text-anchor="middle" x="501" y="-14.3" font-family="Times,serif" font-size="14.00">Dominating edges: Non_Crossing_Biased_Climb, ALIM, Inhibit_Biased_Climb, Non_Crossing_Biased_Descend, Own_Below_Threat, alt_sep_test, initialize, fake1, Learn_Assert</text>
</g>
<!-- q1 -->
<g id="node2" class="node"><title>q1</title>
<ellipse fill="none" stroke="green" cx="3954" cy="-152" rx="18" ry="18"/>
<ellipse fill="none" stroke="green" cx="3954" cy="-152" rx="22" ry="22"/>
<text text-anchor="middle" x="3954" y="-148.3" font-family="Times,serif" font-size="14.00">D</text>
</g>
<!-- q0 -->
<g id="node3" class="node"><title>q0</title>
<ellipse fill="none" stroke="green" cx="1058" cy="-72" rx="18" ry="18"/>
</g>
<!-- q15 -->
<g id="node17" class="node"><title>q15</title>
<ellipse fill="none" stroke="green" cx="1178" cy="-72" rx="18" ry="18"/>
</g>
<!-- q0&#45;&gt;q15 -->
<g id="edge2" class="edge"><title>q0&#45;&gt;q15</title>
<path fill="none" stroke="green" d="M1076.16,-72C1095.47,-72 1127.11,-72 1149.8,-72"/>
<polygon fill="green" stroke="green" points="1149.82,-75.5001 1159.82,-72 1149.82,-68.5001 1149.82,-75.5001"/>
<text text-anchor="middle" x="1118" y="-75.8" font-family="Times,serif" font-size="14.00">initialize</text>
</g>
<!-- q2 -->
<g id="node4" class="node"><title>q2</title>
<ellipse fill="none" stroke="green" cx="3804" cy="-152" rx="18" ry="18"/>
</g>
<!-- q2&#45;&gt;q1 -->
<g id="edge3" class="edge"><title>q2&#45;&gt;q1</title>
<path fill="none" stroke="green" d="M3822.27,-152C3846.55,-152 3891.2,-152 3921.49,-152"/>
<polygon fill="green" stroke="green" points="3921.55,-155.5 3931.55,-152 3921.55,-148.5 3921.55,-155.5"/>
<text text-anchor="middle" x="3877" y="-155.8" font-family="Times,serif" font-size="14.00">Learn_Assert</text>
</g>
<!-- q3 -->
<g id="node5" class="node"><title>q3</title>
<ellipse fill="none" stroke="black" cx="3516" cy="-130" rx="18" ry="18"/>
</g>
<!-- q3&#45;&gt;q2 -->
<g id="edge4" class="edge"><title>q3&#45;&gt;q2</title>
<path fill="none" stroke="black" d="M3534.16,-130.39C3568.42,-131.276 3647.68,-133.856 3714,-140 3734.83,-141.929 3758.27,-145.132 3775.86,-147.744"/>
<polygon fill="black" stroke="black" points="3775.57,-151.24 3785.99,-149.277 3776.62,-144.319 3775.57,-151.24"/>
<text text-anchor="middle" x="3658" y="-143.8" font-family="Times,serif" font-size="14.00">Own_Above_Threat</text>
</g>
<!-- q4 -->
<g id="node6" class="node"><title>q4</title>
<ellipse fill="none" stroke="black" cx="3332" cy="-108" rx="18" ry="18"/>
</g>
<!-- q4&#45;&gt;q3 -->
<g id="edge5" class="edge"><title>q4&#45;&gt;q3</title>
<path fill="none" stroke="green" d="M3350.16,-105.244C3378.02,-101.401 3434.54,-96.2421 3480,-109 3484.22,-110.185 3488.45,-112.024 3492.43,-114.131"/>
<polygon fill="green" stroke="green" points="3490.78,-117.223 3501.16,-119.355 3494.37,-111.216 3490.78,-117.223"/>
<text text-anchor="middle" x="3424" y="-112.8" font-family="Times,serif" font-size="14.00">ALIM</text>
</g>
<!-- q5 -->
<g id="node7" class="node"><title>q5</title>
<ellipse fill="none" stroke="black" cx="3084" cy="-119" rx="18" ry="18"/>
</g>
<!-- q5&#45;&gt;q4 -->
<g id="edge6" class="edge"><title>q5&#45;&gt;q4</title>
<path fill="none" stroke="black" d="M3102.3,-118.227C3144.38,-116.345 3252.37,-111.516 3303.45,-109.232"/>
<polygon fill="black" stroke="black" points="3303.89,-112.716 3313.72,-108.773 3303.57,-105.723 3303.89,-112.716"/>
<text text-anchor="middle" x="3208" y="-120.8" font-family="Times,serif" font-size="14.00">Own_Above_Threat</text>
</g>
<!-- q6 -->
<g id="node8" class="node"><title>q6</title>
<ellipse fill="none" stroke="black" cx="2900" cy="-105" rx="18" ry="18"/>
</g>
<!-- q6&#45;&gt;q5 -->
<g id="edge8" class="edge"><title>q6&#45;&gt;q5</title>
<path fill="none" stroke="black" d="M2918.12,-106.317C2949.69,-108.746 3017.33,-113.948 3055.43,-116.879"/>
<polygon fill="black" stroke="black" points="3055.55,-120.399 3065.79,-117.676 3056.09,-113.419 3055.55,-120.399"/>
<text text-anchor="middle" x="2992" y="-118.8" font-family="Times,serif" font-size="14.00">Own_Above_Threat</text>
</g>
<!-- q22 -->
<g id="node23" class="node"><title>q22</title>
<ellipse fill="none" stroke="black" cx="3084" cy="-65" rx="18" ry="18"/>
</g>
<!-- q6&#45;&gt;q22 -->
<g id="edge7" class="edge"><title>q6&#45;&gt;q22</title>
<path fill="none" stroke="green" d="M2916.33,-96.9151C2922.33,-94.042 2929.35,-91.0222 2936,-89 2976.76,-76.6001 3025.95,-70.22 3055.83,-67.2473"/>
<polygon fill="green" stroke="green" points="3056.28,-70.7201 3065.91,-66.3014 3055.63,-63.7507 3056.28,-70.7201"/>
<text text-anchor="middle" x="2992" y="-92.8" font-family="Times,serif" font-size="14.00">Own_Below_Threat</text>
</g>
<!-- q7 -->
<g id="node9" class="node"><title>q7</title>
<ellipse fill="none" stroke="black" cx="2614" cy="-105" rx="18" ry="18"/>
</g>
<!-- q7&#45;&gt;q6 -->
<g id="edge9" class="edge"><title>q7&#45;&gt;q6</title>
<path fill="none" stroke="green" d="M2632.34,-105C2680.08,-105 2813.77,-105 2871.68,-105"/>
<polygon fill="green" stroke="green" points="2871.89,-108.5 2881.89,-105 2871.89,-101.5 2871.89,-108.5"/>
<text text-anchor="middle" x="2776" y="-108.8" font-family="Times,serif" font-size="14.00">Non_Crossing_Biased_Descend</text>
</g>
<!-- q21 -->
<g id="node22" class="node"><title>q21</title>
<ellipse fill="none" stroke="black" cx="2900" cy="-160" rx="18" ry="18"/>
</g>
<!-- q7&#45;&gt;q21 -->
<g id="edge10" class="edge"><title>q7&#45;&gt;q21</title>
<path fill="none" stroke="green" d="M2631.43,-109.707C2646.16,-113.824 2668.41,-119.788 2688,-124 2753.56,-138.098 2831.54,-150.208 2871.85,-156.128"/>
<polygon fill="green" stroke="green" points="2871.55,-159.621 2881.95,-157.597 2872.56,-152.694 2871.55,-159.621"/>
<text text-anchor="middle" x="2776" y="-157.8" font-family="Times,serif" font-size="14.00">Own_Below_Threat</text>
</g>
<!-- q8 -->
<g id="node10" class="node"><title>q8</title>
<ellipse fill="none" stroke="black" cx="2468" cy="-103" rx="18" ry="18"/>
</g>
<!-- q8&#45;&gt;q7 -->
<g id="edge11" class="edge"><title>q8&#45;&gt;q7</title>
<path fill="none" stroke="green" d="M2486.08,-103.237C2510.66,-103.579 2556.25,-104.212 2585.57,-104.619"/>
<polygon fill="green" stroke="green" points="2585.89,-108.124 2595.94,-104.763 2585.99,-101.124 2585.89,-108.124"/>
<text text-anchor="middle" x="2522" y="-106.8" font-family="Times,serif" font-size="14.00">ALIM</text>
</g>
<!-- q9 -->
<g id="node11" class="node"><title>q9</title>
<ellipse fill="none" stroke="black" cx="2290" cy="-103" rx="18" ry="18"/>
</g>
<!-- q9&#45;&gt;q8 -->
<g id="edge12" class="edge"><title>q9&#45;&gt;q8</title>
<path fill="none" stroke="green" d="M2308.2,-103C2338.77,-103 2402.81,-103 2439.54,-103"/>
<polygon fill="green" stroke="green" points="2439.99,-106.5 2449.99,-103 2439.99,-99.5001 2439.99,-106.5"/>
<text text-anchor="middle" x="2414" y="-106.8" font-family="Times,serif" font-size="14.00">fake1</text>
</g>
<!-- q10 -->
<g id="node12" class="node"><title>q10</title>
<ellipse fill="none" stroke="black" cx="2036" cy="-103" rx="18" ry="18"/>
</g>
<!-- q10&#45;&gt;q9 -->
<g id="edge13" class="edge"><title>q10&#45;&gt;q9</title>
<path fill="none" stroke="green" d="M2054.32,-103C2097.4,-103 2209.67,-103 2261.74,-103"/>
<polygon fill="green" stroke="green" points="2261.89,-106.5 2271.89,-103 2261.89,-99.5001 2261.89,-106.5"/>
<text text-anchor="middle" x="2128" y="-106.8" font-family="Times,serif" font-size="14.00">Own_Below_Threat</text>
</g>
<!-- q11 -->
<g id="node13" class="node"><title>q11</title>
<ellipse fill="none" stroke="black" cx="1928" cy="-101" rx="18" ry="18"/>
</g>
<!-- q11&#45;&gt;q10 -->
<g id="edge14" class="edge"><title>q11&#45;&gt;q10</title>
<path fill="none" stroke="green" d="M1946.03,-101.321C1962.62,-101.634 1988.12,-102.115 2007.57,-102.482"/>
<polygon fill="green" stroke="green" points="2007.6,-105.983 2017.66,-102.673 2007.73,-98.9847 2007.6,-105.983"/>
<text text-anchor="middle" x="1982" y="-105.8" font-family="Times,serif" font-size="14.00">fake1</text>
</g>
<!-- q12 -->
<g id="node14" class="node"><title>q12</title>
<ellipse fill="none" stroke="green" cx="1744" cy="-72" rx="18" ry="18"/>
</g>
<!-- q12&#45;&gt;q11 -->
<g id="edge15" class="edge"><title>q12&#45;&gt;q11</title>
<path fill="none" stroke="green" d="M1762.12,-74.7282C1793.77,-79.7717 1861.67,-90.5906 1899.72,-96.6537"/>
<polygon fill="green" stroke="green" points="1899.63,-100.183 1910.06,-98.3001 1900.73,-93.2701 1899.63,-100.183"/>
<text text-anchor="middle" x="1836" y="-97.8" font-family="Times,serif" font-size="14.00">Own_Below_Threat</text>
</g>
<!-- q25 -->
<g id="node26" class="node"><title>q25</title>
<ellipse fill="none" stroke="black" cx="1982" cy="-52" rx="18" ry="18"/>
</g>
<!-- q12&#45;&gt;q25 -->
<g id="edge16" class="edge"><title>q12&#45;&gt;q25</title>
<path fill="none" stroke="black" d="M1760.72,-64.9392C1766.64,-62.6069 1773.51,-60.2826 1780,-59 1841.21,-46.896 1914.91,-48.2794 1953.83,-50.2184"/>
<polygon fill="black" stroke="black" points="1953.67,-53.7148 1963.85,-50.7693 1954.06,-46.7254 1953.67,-53.7148"/>
<text text-anchor="middle" x="1836" y="-62.8" font-family="Times,serif" font-size="14.00">Own_Above_Threat</text>
</g>
<!-- q13 -->
<g id="node15" class="node"><title>q13</title>
<ellipse fill="none" stroke="green" cx="1550" cy="-72" rx="18" ry="18"/>
</g>
<!-- q13&#45;&gt;q12 -->
<g id="edge17" class="edge"><title>q13&#45;&gt;q12</title>
<path fill="none" stroke="green" d="M1568.04,-72C1601.41,-72 1675.64,-72 1715.85,-72"/>
<polygon fill="green" stroke="green" points="1716,-75.5001 1726,-72 1716,-68.5001 1716,-75.5001"/>
<text text-anchor="middle" x="1647" y="-75.8" font-family="Times,serif" font-size="14.00">Inhibit_Biased_Climb</text>
</g>
<!-- q14 -->
<g id="node16" class="node"><title>q14</title>
<ellipse fill="none" stroke="green" cx="1314" cy="-72" rx="18" ry="18"/>
</g>
<!-- q14&#45;&gt;q13 -->
<g id="edge18" class="edge"><title>q14&#45;&gt;q13</title>
<path fill="none" stroke="green" d="M1332.21,-72C1372.44,-72 1472.92,-72 1521.65,-72"/>
<polygon fill="green" stroke="green" points="1521.77,-75.5001 1531.77,-72 1521.77,-68.5001 1521.77,-75.5001"/>
<text text-anchor="middle" x="1432" y="-75.8" font-family="Times,serif" font-size="14.00">Non_Crossing_Biased_Climb</text>
</g>
<!-- q15&#45;&gt;q14 -->
<g id="edge19" class="edge"><title>q15&#45;&gt;q14</title>
<path fill="none" stroke="green" d="M1196.24,-72C1218.86,-72 1258.8,-72 1285.58,-72"/>
<polygon fill="green" stroke="green" points="1285.82,-75.5001 1295.82,-72 1285.82,-68.5001 1285.82,-75.5001"/>
<text text-anchor="middle" x="1246" y="-75.8" font-family="Times,serif" font-size="14.00">alt_sep_test</text>
</g>
<!-- q17 -->
<g id="node18" class="node"><title>q17</title>
<ellipse fill="none" stroke="black" cx="3658" cy="-182" rx="18" ry="18"/>
</g>
<!-- q17&#45;&gt;q2 -->
<g id="edge20" class="edge"><title>q17&#45;&gt;q2</title>
<path fill="none" stroke="green" d="M3675.8,-178.5C3700.51,-173.351 3746.91,-163.686 3776.31,-157.56"/>
<polygon fill="green" stroke="green" points="3777.23,-160.944 3786.31,-155.478 3775.8,-154.091 3777.23,-160.944"/>
<text text-anchor="middle" x="3750" y="-169.8" font-family="Times,serif" font-size="14.00">ALIM</text>
</g>
<!-- q18 -->
<g id="node19" class="node"><title>q18</title>
<ellipse fill="none" stroke="black" cx="3516" cy="-184" rx="18" ry="18"/>
</g>
<!-- q18&#45;&gt;q17 -->
<g id="edge21" class="edge"><title>q18&#45;&gt;q17</title>
<path fill="none" stroke="green" d="M3534.17,-183.755C3557.99,-183.414 3601.34,-182.795 3629.65,-182.391"/>
<polygon fill="green" stroke="green" points="3629.74,-185.89 3639.69,-182.247 3629.64,-178.891 3629.74,-185.89"/>
<text text-anchor="middle" x="3568" y="-186.8" font-family="Times,serif" font-size="14.00">fake1</text>
</g>
<!-- q19 -->
<g id="node20" class="node"><title>q19</title>
<ellipse fill="none" stroke="black" cx="3332" cy="-173" rx="18" ry="18"/>
</g>
<!-- q19&#45;&gt;q3 -->
<g id="edge23" class="edge"><title>q19&#45;&gt;q3</title>
<path fill="none" stroke="black" d="M3347.95,-164.605C3354.02,-161.503 3361.19,-158.209 3368,-156 3408.62,-142.827 3457.85,-135.84 3487.77,-132.534"/>
<polygon fill="black" stroke="black" points="3488.29,-135.998 3497.87,-131.477 3487.57,-129.036 3488.29,-135.998"/>
<text text-anchor="middle" x="3424" y="-159.8" font-family="Times,serif" font-size="14.00">Own_Above_Threat</text>
</g>
<!-- q19&#45;&gt;q18 -->
<g id="edge22" class="edge"><title>q19&#45;&gt;q18</title>
<path fill="none" stroke="green" d="M3350.12,-174.035C3381.69,-175.943 3449.33,-180.031 3487.43,-182.334"/>
<polygon fill="green" stroke="green" points="3487.6,-185.85 3497.79,-182.96 3488.02,-178.863 3487.6,-185.85"/>
<text text-anchor="middle" x="3424" y="-184.8" font-family="Times,serif" font-size="14.00">Own_Below_Threat</text>
</g>
<!-- q20 -->
<g id="node21" class="node"><title>q20</title>
<ellipse fill="none" stroke="black" cx="3084" cy="-173" rx="18" ry="18"/>
</g>
<!-- q20&#45;&gt;q19 -->
<g id="edge24" class="edge"><title>q20&#45;&gt;q19</title>
<path fill="none" stroke="green" d="M3102.3,-173C3144.38,-173 3252.37,-173 3303.45,-173"/>
<polygon fill="green" stroke="green" points="3303.72,-176.5 3313.72,-173 3303.72,-169.5 3303.72,-176.5"/>
<text text-anchor="middle" x="3208" y="-176.8" font-family="Times,serif" font-size="14.00">Non_Crossing_Biased_Descend</text>
</g>
<!-- q21&#45;&gt;q20 -->
<g id="edge25" class="edge"><title>q21&#45;&gt;q20</title>
<path fill="none" stroke="green" d="M2918.12,-161.223C2949.69,-163.478 3017.33,-168.309 3055.43,-171.031"/>
<polygon fill="green" stroke="green" points="3055.57,-174.549 3065.79,-171.771 3056.07,-167.567 3055.57,-174.549"/>
<text text-anchor="middle" x="2992" y="-173.8" font-family="Times,serif" font-size="14.00">fake1</text>
</g>
<!-- q22&#45;&gt;q4 -->
<g id="edge26" class="edge"><title>q22&#45;&gt;q4</title>
<path fill="none" stroke="green" d="M3102.1,-64.9855C3138.57,-65.3928 3226.32,-68.7158 3296,-90 3299.68,-91.1241 3303.43,-92.6247 3307.05,-94.2816"/>
<polygon fill="green" stroke="green" points="3305.66,-97.5006 3316.17,-98.8819 3308.82,-91.2515 3305.66,-97.5006"/>
<text text-anchor="middle" x="3208" y="-93.8" font-family="Times,serif" font-size="14.00">fake1</text>
</g>
<!-- q23 -->
<g id="node24" class="node"><title>q23</title>
<ellipse fill="none" stroke="black" cx="2414" cy="-52" rx="18" ry="18"/>
</g>
<!-- q23&#45;&gt;q22 -->
<g id="edge27" class="edge"><title>q23&#45;&gt;q22</title>
<path fill="none" stroke="green" d="M2432.26,-52C2453.24,-52 2489.72,-52 2521,-52 2521,-52 2521,-52 2901,-52 2956.12,-52 3020.39,-58.0057 3055.91,-61.8531"/>
<polygon fill="green" stroke="green" points="3055.64,-65.3448 3065.97,-62.9688 3056.41,-58.3875 3055.64,-65.3448"/>
<text text-anchor="middle" x="2614" y="-55.8" font-family="Times,serif" font-size="14.00">Own_Below_Threat</text>
</g>
<!-- q24 -->
<g id="node25" class="node"><title>q24</title>
<ellipse fill="none" stroke="black" cx="2128" cy="-52" rx="18" ry="18"/>
</g>
<!-- q24&#45;&gt;q23 -->
<g id="edge28" class="edge"><title>q24&#45;&gt;q23</title>
<path fill="none" stroke="green" d="M2146.34,-52C2194.08,-52 2327.77,-52 2385.68,-52"/>
<polygon fill="green" stroke="green" points="2385.89,-55.5001 2395.89,-52 2385.89,-48.5001 2385.89,-55.5001"/>
<text text-anchor="middle" x="2290" y="-55.8" font-family="Times,serif" font-size="14.00">Non_Crossing_Biased_Descend</text>
</g>
<!-- q25&#45;&gt;q24 -->
<g id="edge29" class="edge"><title>q25&#45;&gt;q24</title>
<path fill="none" stroke="green" d="M2000.08,-52C2024.66,-52 2070.25,-52 2099.57,-52"/>
<polygon fill="green" stroke="green" points="2099.94,-55.5001 2109.94,-52 2099.94,-48.5001 2099.94,-55.5001"/>
<text text-anchor="middle" x="2036" y="-55.8" font-family="Times,serif" font-size="14.00">ALIM</text>
</g>
<!-- iq0 -->
<g id="node27" class="node"><title>iq0</title>
</g>
<!-- iq0&#45;&gt;q0 -->
<g id="edge1" class="edge"><title>iq0&#45;&gt;q0</title>
<path fill="none" stroke="blue" d="M528.024,-72C620.79,-72 934.79,-72 1029.64,-72"/>
<polygon fill="blue" stroke="blue" points="1029.85,-75.5001 1039.85,-72 1029.85,-68.5001 1029.85,-75.5001"/>
</g>
</g>
</svg>
