<?xml version="1.0" encoding="UTF-8" standalone="no"?>
<!DOCTYPE svg PUBLIC "-//W3C//DTD SVG 1.1//EN"
 "http://www.w3.org/Graphics/SVG/1.1/DTD/svg11.dtd">
<!-- Generated by graphviz version 2.34.0 (20141125.1709)
 -->
<!-- Title: finite_automaton Pages: 1 -->
<svg width="576pt" height="61pt"
 viewBox="0.00 0.00 576.00 60.69" xmlns="http://www.w3.org/2000/svg" xmlns:xlink="http://www.w3.org/1999/xlink">
<g id="graph0" class="graph" transform="scale(0.595041 0.595041) rotate(0) translate(4 98)">
<title>finite_automaton</title>
<polygon fill="white" stroke="white" points="-4,4 -4,-98 964,-98 964,4 -4,4"/>
<!-- dom_edges -->
<g id="node1" class="node"><title>dom_edges</title>
<polygon fill="none" stroke="green" points="365.5,-36 0.5,-36 0.5,-0 365.5,-0 365.5,-36"/>
<text text-anchor="middle" x="183" y="-14.3" font-family="Times,serif" font-size="14.00">Dominating edges: inspect, create_tree, free_tree, Learn_Assert</text>
</g>
<!-- q1 -->
<g id="node2" class="node"><title>q1</title>
<ellipse fill="none" stroke="green" cx="938" cy="-72" rx="18" ry="18"/>
<ellipse fill="none" stroke="green" cx="938" cy="-72" rx="22" ry="22"/>
<text text-anchor="middle" x="938" y="-68.3" font-family="Times,serif" font-size="14.00">D</text>
</g>
<!-- q0 -->
<g id="node3" class="node"><title>q0</title>
<ellipse fill="none" stroke="green" cx="422" cy="-72" rx="18" ry="18"/>
</g>
<!-- q4 -->
<g id="node6" class="node"><title>q4</title>
<ellipse fill="none" stroke="green" cx="554" cy="-72" rx="18" ry="18"/>
</g>
<!-- q0&#45;&gt;q4 -->
<g id="edge2" class="edge"><title>q0&#45;&gt;q4</title>
<path fill="none" stroke="green" d="M440.263,-72C462.019,-72 499.678,-72 525.436,-72"/>
<polygon fill="green" stroke="green" points="525.666,-75.5001 535.666,-72 525.666,-68.5001 525.666,-75.5001"/>
<text text-anchor="middle" x="488" y="-75.8" font-family="Times,serif" font-size="14.00">create_tree</text>
</g>
<!-- q2 -->
<g id="node4" class="node"><title>q2</title>
<ellipse fill="none" stroke="green" cx="788" cy="-72" rx="18" ry="18"/>
</g>
<!-- q2&#45;&gt;q1 -->
<g id="edge3" class="edge"><title>q2&#45;&gt;q1</title>
<path fill="none" stroke="green" d="M806.267,-72C830.55,-72 875.201,-72 905.489,-72"/>
<polygon fill="green" stroke="green" points="905.546,-75.5001 915.546,-72 905.546,-68.5001 905.546,-75.5001"/>
<text text-anchor="middle" x="861" y="-75.8" font-family="Times,serif" font-size="14.00">Learn_Assert</text>
</g>
<!-- q3 -->
<g id="node5" class="node"><title>q3</title>
<ellipse fill="none" stroke="green" cx="666" cy="-72" rx="18" ry="18"/>
</g>
<!-- q3&#45;&gt;q2 -->
<g id="edge4" class="edge"><title>q3&#45;&gt;q2</title>
<path fill="none" stroke="green" d="M684.193,-72C703.886,-72 736.417,-72 759.61,-72"/>
<polygon fill="green" stroke="green" points="759.839,-75.5001 769.839,-72 759.839,-68.5001 759.839,-75.5001"/>
<text text-anchor="middle" x="727" y="-75.8" font-family="Times,serif" font-size="14.00">free_tree</text>
</g>
<!-- q4&#45;&gt;q3 -->
<g id="edge5" class="edge"><title>q4&#45;&gt;q3</title>
<path fill="none" stroke="green" d="M572.188,-72C589.785,-72 617.393,-72 637.929,-72"/>
<polygon fill="green" stroke="green" points="637.933,-75.5001 647.933,-72 637.933,-68.5001 637.933,-75.5001"/>
<text text-anchor="middle" x="610" y="-75.8" font-family="Times,serif" font-size="14.00">inspect</text>
</g>
<!-- iq0 -->
<g id="node7" class="node"><title>iq0</title>
</g>
<!-- iq0&#45;&gt;q0 -->
<g id="edge1" class="edge"><title>iq0&#45;&gt;q0</title>
<path fill="none" stroke="blue" d="M210.269,-72C255.568,-72 347.926,-72 393.837,-72"/>
<polygon fill="blue" stroke="blue" points="393.935,-75.5001 403.935,-72 393.935,-68.5001 393.935,-75.5001"/>
</g>
</g>
</svg>
