<?xml version="1.0" encoding="UTF-8" standalone="no"?>
<!DOCTYPE svg PUBLIC "-//W3C//DTD SVG 1.1//EN"
 "http://www.w3.org/Graphics/SVG/1.1/DTD/svg11.dtd">
<!-- Generated by graphviz version 2.38.0 (20140413.2041)
 -->
<!-- Title: finite_automaton Pages: 1 -->
<svg width="576pt" height="60pt"
 viewBox="0.00 0.00 576.00 60.07" xmlns="http://www.w3.org/2000/svg" xmlns:xlink="http://www.w3.org/1999/xlink">
<g id="graph0" class="graph" transform="scale(0.588957 0.588957) rotate(0) translate(4 98)">
<title>finite_automaton</title>
<polygon fill="white" stroke="none" points="-4,4 -4,-98 974,-98 974,4 -4,4"/>
<!-- dom_edges -->
<g id="node1" class="node"><title>dom_edges</title>
<polygon fill="none" stroke="green" points="373,-36 0,-36 0,-0 373,-0 373,-36"/>
<text text-anchor="middle" x="186.5" y="-14.3" font-family="Times,serif" font-size="14.00">Dominating edges: inspect, create_tree, free_tree, Learn_Assert</text>
</g>
<!-- q1 -->
<g id="node2" class="node"><title>q1</title>
<ellipse fill="none" stroke="green" cx="948" cy="-72" rx="18" ry="18"/>
<ellipse fill="none" stroke="green" cx="948" cy="-72" rx="22" ry="22"/>
<text text-anchor="middle" x="948" y="-68.3" font-family="Times,serif" font-size="14.00">D</text>
</g>
<!-- q0 -->
<g id="node3" class="node"><title>q0</title>
<ellipse fill="none" stroke="green" cx="428" cy="-72" rx="18" ry="18"/>
</g>
<!-- q4 -->
<g id="node6" class="node"><title>q4</title>
<ellipse fill="none" stroke="green" cx="562" cy="-72" rx="18" ry="18"/>
</g>
<!-- q0&#45;&gt;q4 -->
<g id="edge2" class="edge"><title>q0&#45;&gt;q4</title>
<path fill="none" stroke="green" d="M446.257,-72C468.491,-72 507.401,-72 533.675,-72"/>
<polygon fill="green" stroke="green" points="533.739,-75.5001 543.739,-72 533.739,-68.5001 533.739,-75.5001"/>
<text text-anchor="middle" x="495" y="-75.8" font-family="Times,serif" font-size="14.00">create_tree</text>
</g>
<!-- q2 -->
<g id="node4" class="node"><title>q2</title>
<ellipse fill="none" stroke="green" cx="796" cy="-72" rx="18" ry="18"/>
</g>
<!-- q2&#45;&gt;q1 -->
<g id="edge3" class="edge"><title>q2&#45;&gt;q1</title>
<path fill="none" stroke="green" d="M814.207,-72C838.919,-72 884.873,-72 915.7,-72"/>
<polygon fill="green" stroke="green" points="915.914,-75.5001 925.913,-72 915.913,-68.5001 915.914,-75.5001"/>
<text text-anchor="middle" x="870" y="-75.8" font-family="Times,serif" font-size="14.00">Learn_Assert</text>
</g>
<!-- q3 -->
<g id="node5" class="node"><title>q3</title>
<ellipse fill="none" stroke="green" cx="674" cy="-72" rx="18" ry="18"/>
</g>
<!-- q3&#45;&gt;q2 -->
<g id="edge4" class="edge"><title>q3&#45;&gt;q2</title>
<path fill="none" stroke="green" d="M692.193,-72C711.886,-72 744.417,-72 767.61,-72"/>
<polygon fill="green" stroke="green" points="767.839,-75.5001 777.839,-72 767.839,-68.5001 767.839,-75.5001"/>
<text text-anchor="middle" x="735" y="-75.8" font-family="Times,serif" font-size="14.00">free_tree</text>
</g>
<!-- q4&#45;&gt;q3 -->
<g id="edge5" class="edge"><title>q4&#45;&gt;q3</title>
<path fill="none" stroke="green" d="M580.188,-72C597.785,-72 625.393,-72 645.929,-72"/>
<polygon fill="green" stroke="green" points="645.933,-75.5001 655.933,-72 645.933,-68.5001 645.933,-75.5001"/>
<text text-anchor="middle" x="618" y="-75.8" font-family="Times,serif" font-size="14.00">inspect</text>
</g>
<!-- iq0 -->
<g id="node7" class="node"><title>iq0</title>
</g>
<!-- iq0&#45;&gt;q0 -->
<g id="edge1" class="edge"><title>iq0&#45;&gt;q0</title>
<path fill="none" stroke="blue" d="M213.587,-72C259.268,-72 353.294,-72 399.769,-72"/>
<polygon fill="blue" stroke="blue" points="399.981,-75.5001 409.98,-72 399.98,-68.5001 399.981,-75.5001"/>
</g>
</g>
</svg>
